<?xml version="1.0" encoding="utf-8" standalone="no"?>
<!DOCTYPE svg PUBLIC "-//W3C//DTD SVG 1.1//EN"
  "http://www.w3.org/Graphics/SVG/1.1/DTD/svg11.dtd">
<svg xmlns:xlink="http://www.w3.org/1999/xlink" width="433.573648pt" height="510.357344pt" viewBox="0 0 433.573648 510.357344" xmlns="http://www.w3.org/2000/svg" version="1.1">
 <metadata>
  <rdf:RDF xmlns:dc="http://purl.org/dc/elements/1.1/" xmlns:cc="http://creativecommons.org/ns#" xmlns:rdf="http://www.w3.org/1999/02/22-rdf-syntax-ns#">
   <cc:Work>
    <dc:type rdf:resource="http://purl.org/dc/dcmitype/StillImage"/>
    <dc:date>2026-06-19T08:36:29.771463</dc:date>
    <dc:format>image/svg+xml</dc:format>
    <dc:creator>
     <cc:Agent>
      <dc:title>Matplotlib v3.11.0, https://matplotlib.org/</dc:title>
     </cc:Agent>
    </dc:creator>
   </cc:Work>
  </rdf:RDF>
 </metadata>
 <defs>
  <style type="text/css">*{stroke-linejoin: round; stroke-linecap: butt}</style>
 </defs>
 <g id="figure_1">
  <g id="patch_1">
   <path d="M 0 510.357344 
L 433.573648 510.357344 
L 433.573648 0 
L 0 0 
z
" style="fill: #d6eaf8"/>
  </g>
  <g id="axes_1">
   <g id="PatchCollection_1">
    <path d="M 82.246309 151.480697 
L 83.026254 146.589875 
L 85.366089 144.811394 
L 90.045759 147.923735 
L 96.28532 155.037659 
L 99.4051 157.705381 
L 104.08477 159.483862 
L 112.664165 159.039242 
L 120.463615 155.037659 
L 127.48312 148.812976 
L 132.16279 141.699052 
L 135.28257 133.695887 
L 137.622405 129.249685 
L 140.742185 126.581963 
L 141.52213 125.248102 
L 142.302075 124.358862 
L 143.08202 123.469621 
L 144.64191 123.914242 
L 146.2018 125.248102 
L 147.76169 125.692723 
L 150.101525 125.248102 
L 151.661415 127.915824 
L 154.781196 130.138925 
L 157.900976 130.583545 
L 160.240811 130.138925 
L 163.360591 127.915824 
L 164.920481 124.803482 
L 166.480371 121.24652 
L 172.719931 122.135761 
L 174.279821 129.249685 
L 175.839711 132.806647 
L 177.399601 135.474368 
L 181.299326 137.252849 
L 186.758941 139.03133 
L 191.438611 141.254432 
L 195.338336 143.477533 
L 197.678171 145.700634 
L 198.458116 149.257596 
L 198.458116 151.925318 
L 200.018006 154.148419 
L 202.357841 155.037659 
L 203.917731 155.037659 
L 209.377347 153.259178 
L 212.497127 151.480697 
L 213.277072 150.146837 
L 214.836962 147.479115 
L 216.396852 146.589875 
L 217.956742 147.479115 
L 219.516632 149.257596 
L 222.636412 151.480697 
L 225.756192 151.480697 
L 228.875972 149.702216 
L 232.775697 145.700634 
L 236.675422 141.699052 
L 240.575147 139.920571 
L 245.254817 136.808229 
L 247.594652 134.585128 
L 249.934487 134.140507 
L 255.394102 135.029748 
L 260.853717 135.918988 
L 266.313333 135.918988 
L 269.433113 134.585128 
L 270.993003 133.695887 
L 272.552893 131.472786 
L 277.232563 127.471204 
L 281.132288 127.471204 
L 283.472123 128.805064 
L 286.591903 130.138925 
L 289.711683 130.138925 
L 291.271573 131.028166 
L 294.391353 134.585128 
L 296.731188 137.252849 
L 299.850968 139.475951 
L 305.310583 140.809811 
L 306.870473 139.920571 
L 307.650418 138.58671 
L 308.430363 136.363609 
L 310.770198 134.585128 
L 315.449868 129.694305 
L 317.009758 129.249685 
L 320.909484 129.694305 
L 326.369099 128.805064 
L 330.268824 128.360444 
L 331.048769 129.249685 
L 331.048769 132.362026 
L 331.828714 136.363609 
L 333.388604 138.14209 
L 335.728439 140.809811 
L 338.848219 143.922153 
L 339.628164 145.700634 
L 339.628164 150.146837 
L 339.628164 154.593039 
L 339.628164 159.483862 
L 338.068274 165.708546 
L 336.508384 170.154748 
L 337.288329 173.71171 
L 339.628164 176.379432 
L 341.967999 176.379432 
L 345.087779 175.490191 
L 346.647669 171.043989 
L 347.427614 163.485444 
L 348.987504 162.596204 
L 350.547394 160.817723 
L 352.107284 159.039242 
L 354.447119 160.817723 
L 354.447119 167.042406 
L 355.227064 170.599368 
L 358.346844 171.933229 
L 362.246569 170.154748 
L 363.806459 166.597786 
L 365.366349 165.263925 
L 367.706184 165.708546 
L 370.825964 167.487027 
L 372.385854 167.042406 
L 373.945745 166.153166 
L 376.28558 167.042406 
L 378.625415 167.931647 
L 383.305085 170.599368 
L 385.64492 171.043989 
L 387.984755 171.043989 
L 391.88448 173.71171 
L 391.88448 177.713293 
L 387.20481 179.491774 
L 381.745195 185.271837 
L 380.185305 188.384179 
L 378.625415 192.830381 
L 377.065525 197.276584 
L 377.065525 202.167407 
L 377.065525 207.058229 
L 377.065525 209.281331 
L 374.72569 210.170571 
L 373.165799 211.059812 
L 372.385854 215.950635 
L 370.825964 217.284495 
L 367.706184 218.618356 
L 360.686679 218.618356 
L 357.566899 219.062976 
L 356.007009 221.286078 
L 353.667174 224.398419 
L 351.327339 227.066141 
L 348.207559 228.400002 
L 341.188054 229.733862 
L 334.948494 232.846204 
L 329.488879 234.180065 
L 326.369099 230.178483 
L 326.369099 237.737027 
L 320.129539 241.293989 
L 303.750693 244.850951 
L 300.630913 246.184812 
L 299.071023 247.518673 
L 295.951243 249.297154 
L 292.831463 250.186394 
L 277.232563 247.963293 
L 261.633662 250.186394 
L 258.513882 251.075635 
L 255.394102 252.854116 
L 245.254817 262.191141 
L 242.914982 266.637344 
L 238.235312 266.637344 
L 233.555642 267.526584 
L 231.995752 269.305065 
L 230.435862 268.415825 
L 229.655917 264.414242 
L 232.775697 262.191141 
L 233.555642 263.525002 
L 237.455367 263.525002 
L 237.455367 256.411078 
L 229.655917 255.521837 
L 227.316082 258.189559 
L 225.756192 260.85728 
L 224.976247 259.52342 
L 221.856467 258.189559 
L 221.076522 259.96804 
L 214.836962 258.189559 
L 210.937237 255.077217 
L 209.377347 252.854116 
L 209.377347 249.297154 
L 207.817457 249.741774 
L 206.257566 249.741774 
L 205.477621 249.741774 
L 203.917731 249.741774 
L 203.137786 249.297154 
L 202.357841 250.631015 
L 201.577896 251.964875 
L 200.797951 252.854116 
L 197.678171 253.298736 
L 196.118281 257.300318 
L 192.218556 256.411078 
L 189.098776 255.966458 
L 187.538886 257.744939 
L 188.318831 261.746521 
L 185.199051 262.635761 
L 176.619656 263.969622 
L 167.260316 262.191141 
L 158.680921 258.189559 
L 147.76169 251.520255 
L 143.861965 249.741774 
L 139.182295 248.407913 
L 129.822955 247.518673 
L 125.92323 246.184812 
L 122.80345 243.961711 
L 114.224055 236.847787 
L 112.664165 235.513926 
L 111.104275 227.955381 
L 110.32433 226.621521 
L 110.32433 223.953799 
L 105.64466 210.170571 
L 103.304825 208.39209 
L 98.625155 205.279748 
L 96.28532 203.056647 
L 94.725429 200.388926 
L 93.165539 197.276584 
L 93.165539 193.719622 
L 94.725429 190.60728 
L 90.825704 183.493356 
L 90.045759 180.825634 
L 90.045759 175.045571 
L 89.265814 170.154748 
L 84.586144 162.151584 
L 83.026254 158.150001 
z
" clip-path="url(#p2e444b9667)" style="fill: #bdc3c7; stroke: #ffffff; stroke-width: 0.5"/>
    <path d="M 412.942995 160.373103 
L 414.502885 157.260761 
L 416.062775 155.9269 
L 419.182555 154.593039 
L 420.742445 155.48228 
L 422.302335 157.260761 
L 425.422115 156.37152 
L 427.76195 154.593039 
L 429.32184 152.814558 
L 430.881731 151.480697 
L 434.781456 154.593039 
L 437.121291 155.48228 
L 439.461126 156.37152 
L 441.800961 157.260761 
L 444.920741 157.260761 
L 448.040521 155.48228 
L 451.940246 155.48228 
L 454.280081 156.816141 
L 456.619916 158.150001 
L 458.959751 157.705381 
L 460.519641 156.816141 
L 461.299586 155.48228 
L 464.419366 158.150001 
L 467.539146 161.706963 
L 469.878981 168.820887 
L 472.218816 173.71171 
L 475.338596 177.713293 
L 477.678431 179.491774 
L 475.338596 179.936394 
L 469.099036 179.491774 
L 463.639421 177.713293 
L 461.299586 175.045571 
L 458.959751 173.71171 
L 447.260576 175.490191 
L 437.121291 178.157913 
L 434.781456 179.491774 
L 433.221566 181.714875 
L 426.982005 180.381014 
L 423.08228 181.270255 
L 421.52239 179.936394 
L 423.862225 177.713293 
L 426.20206 177.268672 
L 426.20206 172.82247 
L 422.302335 172.377849 
L 419.182555 170.154748 
L 419.9625 164.374685 
L 418.40261 162.596204 
z
" clip-path="url(#p2e444b9667)" style="fill: #bdc3c7; stroke: #ffffff; stroke-width: 0.5"/>
    <path d="M 404.3636 173.71171 
L 405.143545 173.26709 
L 405.92349 173.26709 
L 407.48338 173.71171 
L 408.263325 174.600951 
L 409.04327 174.600951 
L 410.60316 174.600951 
L 411.383105 175.045571 
L 412.16305 176.379432 
L 411.383105 176.379432 
L 410.60316 176.379432 
L 409.823215 176.824052 
L 409.04327 176.824052 
L 409.04327 175.934812 
L 408.263325 175.934812 
L 406.703435 175.934812 
L 406.703435 174.600951 
L 405.92349 174.15633 
z
" clip-path="url(#p2e444b9667)" style="fill: #bdc3c7; stroke: #ffffff; stroke-width: 0.5"/>
    <path d="M 399.68393 169.265508 
L 400.463875 167.931647 
L 400.463875 167.042406 
L 401.24382 166.597786 
L 402.80371 166.597786 
L 402.80371 169.265508 
L 401.24382 169.710128 
L 400.463875 170.154748 
L 400.463875 169.710128 
z
" clip-path="url(#p2e444b9667)" style="fill: #bdc3c7; stroke: #ffffff; stroke-width: 0.5"/>
   </g>
   <g id="PatchCollection_2">
    <defs>
     <path id="m96fbd97eeb" d="M 187.538886 -252.612405 
L 189.098776 -254.390886 
L 192.218556 -253.946266 
L 196.118281 -253.057025 
L 197.678171 -257.058608 
L 200.797951 -257.503228 
L 201.577896 -258.392468 
L 202.357841 -259.726329 
L 203.137786 -261.06019 
L 203.917731 -260.61557 
L 205.477621 -260.61557 
L 206.257566 -260.61557 
L 207.817457 -260.61557 
L 209.377347 -261.06019 
L 209.377347 -257.503228 
L 210.937237 -255.280127 
L 214.836962 -252.167785 
L 221.076522 -250.389304 
L 221.856467 -252.167785 
L 224.976247 -250.833924 
L 225.756192 -249.500063 
L 227.316082 -252.167785 
L 229.655917 -254.835506 
L 237.455367 -253.946266 
L 237.455367 -246.832342 
L 233.555642 -246.832342 
L 232.775697 -248.166203 
L 229.655917 -245.943101 
L 230.435862 -241.941519 
L 231.995752 -241.052278 
L 233.555642 -242.830759 
L 238.235312 -243.72 
L 242.914982 -243.72 
L 242.135037 -241.052278 
L 242.135037 -233.938354 
L 246.034762 -227.713671 
L 246.034762 -226.37981 
L 227.316082 -226.37981 
L 227.316082 -227.713671 
L 228.096027 -233.049114 
L 221.856467 -245.053861 
L 221.076522 -249.500063 
L 208.597402 -252.612405 
L 203.917731 -253.057025 
L 199.238061 -252.612405 
L 188.318831 -248.610823 
z
" style="stroke: #ffffff; stroke-width: 0.6"/>
    </defs>
    <g clip-path="url(#p2e444b9667)">
     <use xlink:href="#m96fbd97eeb" x="0" y="510.357344" style="fill: #e74c3c; stroke: #ffffff; stroke-width: 0.6"/>
    </g>
   </g>
   <g id="text_1">
    <g id="patch_2">
     <path d="M 221.771494 200.398103 
L 249.083526 200.398103 
Q 250.483526 200.398103 250.483526 198.998103 
L 250.483526 191.998103 
Q 250.483526 190.598103 249.083526 190.598103 
L 221.771494 190.598103 
Q 220.371494 190.598103 220.371494 191.998103 
L 220.371494 198.998103 
Q 220.371494 200.398103 221.771494 200.398103 
z
" clip-path="url(#p2e444b9667)" style="fill: #ffffff; opacity: 0.6"/>
    </g>
    <g clip-path="url(#p2e444b9667)">
     <!-- Cyprus -->
     <g style="fill: #1a252f" transform="translate(221.771494 197.316462) scale(0.07 -0.07)">
      <defs>
       <path id="DejaVuSans-Bold-26" d="M 4288 256 
Q 3956 84 3597 -3 
Q 3238 -91 2847 -91 
Q 1681 -91 1000 561 
Q 319 1213 319 2328 
Q 319 3447 1000 4098 
Q 1681 4750 2847 4750 
Q 3238 4750 3597 4662 
Q 3956 4575 4288 4403 
L 4288 3438 
Q 3953 3666 3628 3772 
Q 3303 3878 2944 3878 
Q 2300 3878 1931 3465 
Q 1563 3053 1563 2328 
Q 1563 1606 1931 1193 
Q 2300 781 2944 781 
Q 3303 781 3628 887 
Q 3953 994 4288 1222 
L 4288 256 
z
" transform="scale(0.015625)"/>
       <path id="DejaVuSans-Bold-5c" d="M 78 3500 
L 1197 3500 
L 2138 1125 
L 2938 3500 
L 4056 3500 
L 2584 -331 
Q 2363 -916 2067 -1148 
Q 1772 -1381 1288 -1381 
L 641 -1381 
L 641 -647 
L 991 -647 
Q 1275 -647 1404 -556 
Q 1534 -466 1606 -231 
L 1638 -134 
L 78 3500 
z
" transform="scale(0.015625)"/>
       <path id="DejaVuSans-Bold-53" d="M 1656 506 
L 1656 -1331 
L 538 -1331 
L 538 3500 
L 1656 3500 
L 1656 2988 
Q 1888 3294 2169 3439 
Q 2450 3584 2816 3584 
Q 3463 3584 3878 3070 
Q 4294 2556 4294 1747 
Q 4294 938 3878 423 
Q 3463 -91 2816 -91 
Q 2450 -91 2169 54 
Q 1888 200 1656 506 
z
M 2400 2772 
Q 2041 2772 1848 2508 
Q 1656 2244 1656 1747 
Q 1656 1250 1848 986 
Q 2041 722 2400 722 
Q 2759 722 2948 984 
Q 3138 1247 3138 1747 
Q 3138 2247 2948 2509 
Q 2759 2772 2400 2772 
z
" transform="scale(0.015625)"/>
       <path id="DejaVuSans-Bold-55" d="M 3138 2547 
Q 2991 2616 2845 2648 
Q 2700 2681 2553 2681 
Q 2122 2681 1889 2404 
Q 1656 2128 1656 1613 
L 1656 0 
L 538 0 
L 538 3500 
L 1656 3500 
L 1656 2925 
Q 1872 3269 2151 3426 
Q 2431 3584 2822 3584 
Q 2878 3584 2943 3579 
Q 3009 3575 3134 3559 
L 3138 2547 
z
" transform="scale(0.015625)"/>
       <path id="DejaVuSans-Bold-58" d="M 500 1363 
L 500 3500 
L 1625 3500 
L 1625 3150 
Q 1625 2866 1622 2436 
Q 1619 2006 1619 1863 
Q 1619 1441 1641 1255 
Q 1663 1069 1716 984 
Q 1784 875 1895 815 
Q 2006 756 2150 756 
Q 2500 756 2700 1025 
Q 2900 1294 2900 1772 
L 2900 3500 
L 4019 3500 
L 4019 0 
L 2900 0 
L 2900 506 
Q 2647 200 2364 54 
Q 2081 -91 1741 -91 
Q 1134 -91 817 281 
Q 500 653 500 1363 
z
" transform="scale(0.015625)"/>
       <path id="DejaVuSans-Bold-56" d="M 3272 3391 
L 3272 2541 
Q 2913 2691 2578 2766 
Q 2244 2841 1947 2841 
Q 1628 2841 1473 2761 
Q 1319 2681 1319 2516 
Q 1319 2381 1436 2309 
Q 1553 2238 1856 2203 
L 2053 2175 
Q 2913 2066 3209 1816 
Q 3506 1566 3506 1031 
Q 3506 472 3093 190 
Q 2681 -91 1863 -91 
Q 1516 -91 1145 -36 
Q 775 19 384 128 
L 384 978 
Q 719 816 1070 734 
Q 1422 653 1784 653 
Q 2113 653 2278 743 
Q 2444 834 2444 1013 
Q 2444 1163 2330 1236 
Q 2216 1309 1875 1350 
L 1678 1375 
Q 931 1469 631 1722 
Q 331 1975 331 2491 
Q 331 3047 712 3315 
Q 1094 3584 1881 3584 
Q 2191 3584 2531 3537 
Q 2872 3491 3272 3391 
z
" transform="scale(0.015625)"/>
      </defs>
      <use xlink:href="#DejaVuSans-Bold-26"/>
      <use xlink:href="#DejaVuSans-Bold-5c" transform="translate(73.390625 0)"/>
      <use xlink:href="#DejaVuSans-Bold-53" transform="translate(138.578125 0)"/>
      <use xlink:href="#DejaVuSans-Bold-55" transform="translate(210.15625 0)"/>
      <use xlink:href="#DejaVuSans-Bold-58" transform="translate(259.46875 0)"/>
      <use xlink:href="#DejaVuSans-Bold-56" transform="translate(330.65625 0)"/>
     </g>
    </g>
   </g>
   <g id="text_2">
    <!-- Akrotiri -->
    <g style="fill: #1a252f" transform="translate(180.442684 20.117344) scale(0.17 -0.17)">
     <defs>
      <path id="DejaVuSans-Bold-24" d="M 3419 850 
L 1538 850 
L 1241 0 
L 31 0 
L 1759 4666 
L 3194 4666 
L 4922 0 
L 3713 0 
L 3419 850 
z
M 1838 1716 
L 3116 1716 
L 2478 3572 
L 1838 1716 
z
" transform="scale(0.015625)"/>
      <path id="DejaVuSans-Bold-4e" d="M 538 4863 
L 1656 4863 
L 1656 2216 
L 2944 3500 
L 4244 3500 
L 2534 1894 
L 4378 0 
L 3022 0 
L 1656 1459 
L 1656 0 
L 538 0 
L 538 4863 
z
" transform="scale(0.015625)"/>
      <path id="DejaVuSans-Bold-52" d="M 2203 2784 
Q 1831 2784 1636 2517 
Q 1441 2250 1441 1747 
Q 1441 1244 1636 976 
Q 1831 709 2203 709 
Q 2569 709 2762 976 
Q 2956 1244 2956 1747 
Q 2956 2250 2762 2517 
Q 2569 2784 2203 2784 
z
M 2203 3584 
Q 3106 3584 3614 3096 
Q 4122 2609 4122 1747 
Q 4122 884 3614 396 
Q 3106 -91 2203 -91 
Q 1297 -91 786 396 
Q 275 884 275 1747 
Q 275 2609 786 3096 
Q 1297 3584 2203 3584 
z
" transform="scale(0.015625)"/>
      <path id="DejaVuSans-Bold-57" d="M 1759 4494 
L 1759 3500 
L 2913 3500 
L 2913 2700 
L 1759 2700 
L 1759 1216 
Q 1759 972 1856 886 
Q 1953 800 2241 800 
L 2816 800 
L 2816 0 
L 1856 0 
Q 1194 0 917 276 
Q 641 553 641 1216 
L 641 2700 
L 84 2700 
L 84 3500 
L 641 3500 
L 641 4494 
L 1759 4494 
z
" transform="scale(0.015625)"/>
      <path id="DejaVuSans-Bold-4c" d="M 538 3500 
L 1656 3500 
L 1656 0 
L 538 0 
L 538 3500 
z
M 538 4863 
L 1656 4863 
L 1656 3950 
L 538 3950 
L 538 4863 
z
" transform="scale(0.015625)"/>
     </defs>
     <use xlink:href="#DejaVuSans-Bold-24"/>
     <use xlink:href="#DejaVuSans-Bold-4e" transform="translate(77.390625 0)"/>
     <use xlink:href="#DejaVuSans-Bold-55" transform="translate(143.890625 0)"/>
     <use xlink:href="#DejaVuSans-Bold-52" transform="translate(193.203125 0)"/>
     <use xlink:href="#DejaVuSans-Bold-57" transform="translate(261.90625 0)"/>
     <use xlink:href="#DejaVuSans-Bold-4c" transform="translate(309.703125 0)"/>
     <use xlink:href="#DejaVuSans-Bold-55" transform="translate(343.984375 0)"/>
     <use xlink:href="#DejaVuSans-Bold-4c" transform="translate(393.296875 0)"/>
    </g>
   </g>
   <g id="legend_1">
    <g id="patch_3">
     <path d="M 13.5 498.657344 
L 88.097344 498.657344 
Q 89.897344 498.657344 89.897344 496.857344 
L 89.897344 470.755937 
Q 89.897344 468.955937 88.097344 468.955937 
L 13.5 468.955937 
Q 11.7 468.955937 11.7 470.755937 
L 11.7 496.857344 
Q 11.7 498.657344 13.5 498.657344 
z
" style="fill: #ffffff; opacity: 0.85; stroke: #cccccc; stroke-linejoin: miter"/>
    </g>
    <g id="patch_4">
     <path d="M 15.3 479.394531 
L 33.3 479.394531 
L 33.3 473.094531 
L 15.3 473.094531 
z
" style="fill: #e74c3c; stroke: #888888; stroke-linejoin: miter"/>
    </g>
    <g id="text_3">
     <!-- Akrotiri -->
     <g transform="translate(40.5 479.394531) scale(0.09 -0.09)">
      <defs>
       <path id="DejaVuSans-24" d="M 2188 4044 
L 1331 1722 
L 3047 1722 
L 2188 4044 
z
M 1831 4666 
L 2547 4666 
L 4325 0 
L 3669 0 
L 3244 1197 
L 1141 1197 
L 716 0 
L 50 0 
L 1831 4666 
z
" transform="scale(0.015625)"/>
       <path id="DejaVuSans-4e" d="M 581 4863 
L 1159 4863 
L 1159 1991 
L 2875 3500 
L 3609 3500 
L 1753 1863 
L 3688 0 
L 2938 0 
L 1159 1709 
L 1159 0 
L 581 0 
L 581 4863 
z
" transform="scale(0.015625)"/>
       <path id="DejaVuSans-55" d="M 2631 2963 
Q 2534 3019 2420 3045 
Q 2306 3072 2169 3072 
Q 1681 3072 1420 2755 
Q 1159 2438 1159 1844 
L 1159 0 
L 581 0 
L 581 3500 
L 1159 3500 
L 1159 2956 
Q 1341 3275 1631 3429 
Q 1922 3584 2338 3584 
Q 2397 3584 2469 3576 
Q 2541 3569 2628 3553 
L 2631 2963 
z
" transform="scale(0.015625)"/>
       <path id="DejaVuSans-52" d="M 1959 3097 
Q 1497 3097 1228 2736 
Q 959 2375 959 1747 
Q 959 1119 1226 758 
Q 1494 397 1959 397 
Q 2419 397 2687 759 
Q 2956 1122 2956 1747 
Q 2956 2369 2687 2733 
Q 2419 3097 1959 3097 
z
M 1959 3584 
Q 2709 3584 3137 3096 
Q 3566 2609 3566 1747 
Q 3566 888 3137 398 
Q 2709 -91 1959 -91 
Q 1206 -91 779 398 
Q 353 888 353 1747 
Q 353 2609 779 3096 
Q 1206 3584 1959 3584 
z
" transform="scale(0.015625)"/>
       <path id="DejaVuSans-57" d="M 1172 4494 
L 1172 3500 
L 2356 3500 
L 2356 3053 
L 1172 3053 
L 1172 1153 
Q 1172 725 1289 603 
Q 1406 481 1766 481 
L 2356 481 
L 2356 0 
L 1766 0 
Q 1100 0 847 248 
Q 594 497 594 1153 
L 594 3053 
L 172 3053 
L 172 3500 
L 594 3500 
L 594 4494 
L 1172 4494 
z
" transform="scale(0.015625)"/>
       <path id="DejaVuSans-4c" d="M 603 3500 
L 1178 3500 
L 1178 0 
L 603 0 
L 603 3500 
z
M 603 4863 
L 1178 4863 
L 1178 4134 
L 603 4134 
L 603 4863 
z
" transform="scale(0.015625)"/>
      </defs>
      <use xlink:href="#DejaVuSans-24"/>
      <use xlink:href="#DejaVuSans-4e" transform="translate(68.40625 0)"/>
      <use xlink:href="#DejaVuSans-55" transform="translate(126.3125 0)"/>
      <use xlink:href="#DejaVuSans-52" transform="translate(165.21875 0)"/>
      <use xlink:href="#DejaVuSans-57" transform="translate(226.40625 0)"/>
      <use xlink:href="#DejaVuSans-4c" transform="translate(265.609375 0)"/>
      <use xlink:href="#DejaVuSans-55" transform="translate(293.390625 0)"/>
      <use xlink:href="#DejaVuSans-4c" transform="translate(334.5 0)"/>
     </g>
    </g>
    <g id="patch_5">
     <path d="M 15.3 492.895234 
L 33.3 492.895234 
L 33.3 486.595234 
L 15.3 486.595234 
z
" style="fill: #bdc3c7; stroke: #888888; stroke-linejoin: miter"/>
    </g>
    <g id="text_4">
     <!-- Neighbors -->
     <g transform="translate(40.5 492.895234) scale(0.09 -0.09)">
      <defs>
       <path id="DejaVuSans-31" d="M 628 4666 
L 1478 4666 
L 3547 763 
L 3547 4666 
L 4159 4666 
L 4159 0 
L 3309 0 
L 1241 3903 
L 1241 0 
L 628 0 
L 628 4666 
z
" transform="scale(0.015625)"/>
       <path id="DejaVuSans-48" d="M 3597 1894 
L 3597 1613 
L 953 1613 
Q 991 1019 1311 708 
Q 1631 397 2203 397 
Q 2534 397 2845 478 
Q 3156 559 3463 722 
L 3463 178 
Q 3153 47 2828 -22 
Q 2503 -91 2169 -91 
Q 1331 -91 842 396 
Q 353 884 353 1716 
Q 353 2575 817 3079 
Q 1281 3584 2069 3584 
Q 2775 3584 3186 3129 
Q 3597 2675 3597 1894 
z
M 3022 2063 
Q 3016 2534 2758 2815 
Q 2500 3097 2075 3097 
Q 1594 3097 1305 2825 
Q 1016 2553 972 2059 
L 3022 2063 
z
" transform="scale(0.015625)"/>
       <path id="DejaVuSans-4a" d="M 2906 1791 
Q 2906 2416 2648 2759 
Q 2391 3103 1925 3103 
Q 1463 3103 1205 2759 
Q 947 2416 947 1791 
Q 947 1169 1205 825 
Q 1463 481 1925 481 
Q 2391 481 2648 825 
Q 2906 1169 2906 1791 
z
M 3481 434 
Q 3481 -459 3084 -895 
Q 2688 -1331 1869 -1331 
Q 1566 -1331 1297 -1286 
Q 1028 -1241 775 -1147 
L 775 -588 
Q 1028 -725 1275 -790 
Q 1522 -856 1778 -856 
Q 2344 -856 2625 -561 
Q 2906 -266 2906 331 
L 2906 616 
Q 2728 306 2450 153 
Q 2172 0 1784 0 
Q 1141 0 747 490 
Q 353 981 353 1791 
Q 353 2603 747 3093 
Q 1141 3584 1784 3584 
Q 2172 3584 2450 3431 
Q 2728 3278 2906 2969 
L 2906 3500 
L 3481 3500 
L 3481 434 
z
" transform="scale(0.015625)"/>
       <path id="DejaVuSans-4b" d="M 3513 2113 
L 3513 0 
L 2938 0 
L 2938 2094 
Q 2938 2591 2744 2837 
Q 2550 3084 2163 3084 
Q 1697 3084 1428 2787 
Q 1159 2491 1159 1978 
L 1159 0 
L 581 0 
L 581 4863 
L 1159 4863 
L 1159 2956 
Q 1366 3272 1645 3428 
Q 1925 3584 2291 3584 
Q 2894 3584 3203 3211 
Q 3513 2838 3513 2113 
z
" transform="scale(0.015625)"/>
       <path id="DejaVuSans-45" d="M 3116 1747 
Q 3116 2381 2855 2742 
Q 2594 3103 2138 3103 
Q 1681 3103 1420 2742 
Q 1159 2381 1159 1747 
Q 1159 1113 1420 752 
Q 1681 391 2138 391 
Q 2594 391 2855 752 
Q 3116 1113 3116 1747 
z
M 1159 2969 
Q 1341 3281 1617 3432 
Q 1894 3584 2278 3584 
Q 2916 3584 3314 3078 
Q 3713 2572 3713 1747 
Q 3713 922 3314 415 
Q 2916 -91 2278 -91 
Q 1894 -91 1617 61 
Q 1341 213 1159 525 
L 1159 0 
L 581 0 
L 581 4863 
L 1159 4863 
L 1159 2969 
z
" transform="scale(0.015625)"/>
       <path id="DejaVuSans-56" d="M 2834 3397 
L 2834 2853 
Q 2591 2978 2328 3040 
Q 2066 3103 1784 3103 
Q 1356 3103 1142 2972 
Q 928 2841 928 2578 
Q 928 2378 1081 2264 
Q 1234 2150 1697 2047 
L 1894 2003 
Q 2506 1872 2764 1633 
Q 3022 1394 3022 966 
Q 3022 478 2636 193 
Q 2250 -91 1575 -91 
Q 1294 -91 989 -36 
Q 684 19 347 128 
L 347 722 
Q 666 556 975 473 
Q 1284 391 1588 391 
Q 1994 391 2212 530 
Q 2431 669 2431 922 
Q 2431 1156 2273 1281 
Q 2116 1406 1581 1522 
L 1381 1569 
Q 847 1681 609 1914 
Q 372 2147 372 2553 
Q 372 3047 722 3315 
Q 1072 3584 1716 3584 
Q 2034 3584 2315 3537 
Q 2597 3491 2834 3397 
z
" transform="scale(0.015625)"/>
      </defs>
      <use xlink:href="#DejaVuSans-31"/>
      <use xlink:href="#DejaVuSans-48" transform="translate(74.8125 0)"/>
      <use xlink:href="#DejaVuSans-4c" transform="translate(136.34375 0)"/>
      <use xlink:href="#DejaVuSans-4a" transform="translate(164.125 0)"/>
      <use xlink:href="#DejaVuSans-4b" transform="translate(227.609375 0)"/>
      <use xlink:href="#DejaVuSans-45" transform="translate(290.984375 0)"/>
      <use xlink:href="#DejaVuSans-52" transform="translate(354.46875 0)"/>
      <use xlink:href="#DejaVuSans-55" transform="translate(415.65625 0)"/>
      <use xlink:href="#DejaVuSans-56" transform="translate(456.765625 0)"/>
     </g>
    </g>
   </g>
  </g>
 </g>
 <defs>
  <clipPath id="p2e444b9667">
   <rect x="7.2" y="30.117344" width="419.173648" height="473.04"/>
  </clipPath>
 </defs>
</svg>
