<?xml version="1.0" encoding="utf-8" standalone="no"?>
<!DOCTYPE svg PUBLIC "-//W3C//DTD SVG 1.1//EN"
  "http://www.w3.org/Graphics/SVG/1.1/DTD/svg11.dtd">
<svg xmlns:xlink="http://www.w3.org/1999/xlink" width="485.611282pt" height="510.357344pt" viewBox="0 0 485.611282 510.357344" xmlns="http://www.w3.org/2000/svg" version="1.1">
 <metadata>
  <rdf:RDF xmlns:dc="http://purl.org/dc/elements/1.1/" xmlns:cc="http://creativecommons.org/ns#" xmlns:rdf="http://www.w3.org/1999/02/22-rdf-syntax-ns#">
   <cc:Work>
    <dc:type rdf:resource="http://purl.org/dc/dcmitype/StillImage"/>
    <dc:date>2026-06-19T08:14:13.863101</dc:date>
    <dc:format>image/svg+xml</dc:format>
    <dc:creator>
     <cc:Agent>
      <dc:title>Matplotlib v3.11.0, https://matplotlib.org/</dc:title>
     </cc:Agent>
    </dc:creator>
   </cc:Work>
  </rdf:RDF>
 </metadata>
 <defs>
  <style type="text/css">*{stroke-linejoin: round; stroke-linecap: butt}</style>
 </defs>
 <g id="figure_1">
  <g id="patch_1">
   <path d="M 0 510.357344 
L 485.611282 510.357344 
L 485.611282 0 
L 0 0 
z
" style="fill: #d6eaf8"/>
  </g>
  <g id="axes_1">
   <g id="PatchCollection_1">
    <path d="M 136.725439 230.622939 
L 137.397897 230.536677 
L 138.238469 230.019104 
L 139.247156 229.501532 
L 139.583385 229.070222 
L 139.751499 228.380125 
L 140.087728 228.380125 
L 140.592071 228.725174 
L 140.9283 228.897698 
L 141.432643 228.552649 
L 141.768872 228.207601 
L 141.768872 227.690029 
L 141.432643 227.172457 
L 142.105101 226.223574 
L 142.945673 226.309836 
L 143.450016 226.913671 
L 143.786245 228.035077 
L 143.786245 228.897698 
L 143.618131 229.674056 
L 143.281902 230.364152 
L 142.777559 230.967987 
L 141.936987 231.571821 
L 141.936987 231.658083 
L 141.936987 232.175655 
L 142.105101 232.693228 
L 142.44133 232.865752 
L 143.786245 232.003131 
L 144.458703 231.830607 
L 144.794932 231.399297 
L 144.794932 230.27789 
L 145.635504 230.709201 
L 145.635504 231.658083 
L 145.467389 232.693228 
L 145.467389 233.64211 
L 146.307962 234.073421 
L 146.812305 233.469586 
L 146.812305 232.34818 
L 146.64419 231.313035 
L 147.148534 231.571821 
L 147.652877 231.830607 
L 147.989106 232.003131 
L 148.15722 231.658083 
L 148.15722 230.967987 
L 147.820991 230.450414 
L 147.316648 230.019104 
L 146.980419 229.587794 
L 146.980419 229.329008 
L 146.980419 228.552649 
L 146.980419 228.207601 
L 146.64419 227.862553 
L 145.971733 227.172457 
L 145.635504 226.827408 
L 145.467389 226.05105 
L 145.299275 225.274692 
L 145.131161 224.757119 
L 144.458703 225.015905 
L 144.963046 225.447216 
L 145.131161 226.223574 
L 144.963046 228.207601 
L 144.626817 227.690029 
L 144.290589 226.827408 
L 143.95436 226.05105 
L 143.281902 225.706002 
L 143.281902 225.360954 
L 143.281902 224.498333 
L 143.786245 222.945616 
L 144.458703 222.169258 
L 145.467389 221.392899 
L 146.139847 220.357755 
L 145.971733 219.063824 
L 146.476076 218.805038 
L 147.652877 218.546252 
L 147.989106 218.201204 
L 148.15722 217.597369 
L 148.661564 216.303439 
L 148.829678 215.613342 
L 149.334021 215.613342 
L 149.165907 215.182032 
L 148.829678 214.66446 
L 148.493449 214.233149 
L 148.661564 213.801839 
L 148.829678 213.111743 
L 149.334021 212.421646 
L 149.67025 212.076598 
L 150.006479 211.472764 
L 150.006479 210.006309 
L 149.502136 207.763496 
L 148.997792 206.124517 
L 147.989106 203.967966 
L 147.484763 202.070201 
L 147.989106 200.948794 
L 148.661564 200.948794 
L 150.510822 201.293842 
L 151.18328 201.552628 
L 151.687623 202.070201 
L 152.023852 202.674035 
L 152.360081 203.105345 
L 153.200653 203.364131 
L 153.873111 203.019083 
L 154.545568 202.501511 
L 155.386141 202.156463 
L 156.058598 202.501511 
L 156.731056 202.932821 
L 157.403514 203.277869 
L 157.907857 203.70918 
L 158.4122 204.399276 
L 157.739742 205.175634 
L 157.739742 206.124517 
L 158.075971 206.900875 
L 158.748429 207.50471 
L 158.244086 209.574999 
L 158.075971 210.782667 
L 158.244086 211.386502 
L 159.252772 211.472764 
L 159.92523 211.904074 
L 160.429573 212.680433 
L 163.287518 219.75392 
L 165.473006 222.773092 
L 166.145464 223.635713 
L 166.986036 223.980761 
L 167.490379 224.325809 
L 169.171523 226.05105 
L 169.675867 226.827408 
L 169.675867 227.690029 
L 169.675867 228.98396 
L 169.507752 230.105366 
L 169.171523 230.795463 
L 169.003409 231.830607 
L 169.339638 233.038276 
L 170.348324 235.194827 
L 170.516439 237.00633 
L 170.18021 238.300261 
L 169.003409 239.162881 
L 167.322265 239.421668 
L 166.481693 239.594192 
L 166.145464 240.111764 
L 165.64112 240.715598 
L 165.136777 241.146908 
L 163.791862 241.319433 
L 163.455633 241.750743 
L 163.959976 242.872149 
L 163.455633 243.475984 
L 161.606374 244.59739 
L 160.765802 244.856177 
L 159.252772 244.942439 
L 158.580315 245.201225 
L 156.89917 246.495155 
L 156.562941 246.926466 
L 156.731056 247.357776 
L 156.89917 247.789086 
L 156.89917 248.134134 
L 156.562941 248.479183 
L 156.058598 248.651707 
L 155.722369 248.479183 
L 155.218026 248.134134 
L 155.049912 247.789086 
L 154.377454 246.408893 
L 154.20934 244.683652 
L 153.704996 243.130936 
L 152.528195 242.527101 
L 151.18328 241.923267 
L 150.847051 240.37055 
L 151.18328 236.920068 
L 150.342708 237.610164 
L 149.67025 238.300261 
L 148.997792 238.817833 
L 147.820991 238.990357 
L 146.812305 238.817833 
L 140.9283 235.453613 
L 138.238469 232.865752 
L 137.229783 231.830607 
z
" clip-path="url(#pc8d6161f1d)" style="fill: #e74c3c; stroke: #ffffff; stroke-width: 0.6"/>
    <path d="M 160.093344 257.62296 
L 160.429573 257.191649 
L 160.765802 256.846601 
L 161.43826 257.277912 
L 161.606374 257.191649 
L 161.774489 256.760339 
L 161.606374 256.587815 
L 161.774489 256.070243 
L 161.606374 255.811457 
L 161.606374 255.638933 
L 161.942603 255.12136 
L 162.446946 254.948836 
L 163.791862 254.517526 
L 164.296205 254.086216 
L 164.464319 253.654905 
L 164.800548 252.360975 
L 164.968663 252.015927 
L 166.481693 251.843402 
L 167.15415 251.670878 
L 167.490379 251.239568 
L 167.658493 250.89452 
L 167.826608 250.549472 
L 168.162837 249.859375 
L 168.835294 249.341803 
L 170.684553 248.479183 
L 171.357011 247.789086 
L 172.533812 247.09899 
L 173.038155 247.789086 
L 173.374384 248.565445 
L 173.710613 249.255541 
L 174.38307 249.514327 
L 174.551185 249.859375 
L 174.214956 250.46321 
L 171.357011 252.878547 
L 170.18021 253.482381 
L 168.66718 253.741168 
L 168.66718 254.086216 
L 169.507752 254.172478 
L 169.843981 254.517526 
L 169.675867 254.948836 
L 168.835294 255.12136 
L 168.66718 255.380146 
L 169.171523 255.811457 
L 170.348324 256.587815 
L 171.020782 256.242767 
L 171.357011 256.760339 
L 171.188896 257.709222 
L 170.348324 259.175677 
L 170.348324 259.865773 
L 170.012095 260.383345 
L 169.339638 260.728393 
L 170.18021 260.98718 
L 171.020782 260.297083 
L 172.365697 257.364174 
L 173.374384 256.242767 
L 173.878727 255.552671 
L 174.046842 254.517526 
L 174.046842 253.223595 
L 174.214956 252.015927 
L 174.887414 251.239568 
L 175.727986 251.412092 
L 176.400444 252.447237 
L 177.072901 253.741168 
L 177.577245 254.603788 
L 178.081588 255.380146 
L 178.417817 256.156505 
L 178.585931 257.019125 
L 178.754046 258.744366 
L 178.92216 259.779511 
L 178.92216 260.210821 
L 178.92216 260.814655 
L 178.754046 261.763538 
L 178.585931 262.367372 
L 178.754046 262.626159 
L 179.426503 263.575041 
L 179.594618 264.092613 
L 179.426503 264.696448 
L 179.090274 265.041496 
L 178.754046 265.300282 
L 178.585931 265.472806 
L 178.081588 265.731592 
L 177.072901 265.731592 
L 176.232329 266.07664 
L 176.064215 267.370571 
L 177.745359 266.249165 
L 178.585931 265.817854 
L 179.594618 265.990378 
L 179.930846 266.680475 
L 179.762732 268.664502 
L 179.930846 269.527122 
L 179.090274 271.338625 
L 178.585931 271.597412 
L 177.40913 271.252363 
L 177.577245 271.94246 
L 178.417817 272.632556 
L 178.585931 273.322652 
L 178.585931 274.012749 
L 178.249702 274.789107 
L 177.913473 275.479204 
L 177.745359 275.824252 
L 176.232329 276.341824 
L 175.055528 275.824252 
L 174.046842 275.047893 
L 172.870041 274.789107 
L 173.710613 275.73799 
L 173.710613 276.1693 
L 173.20627 276.859396 
L 172.870041 276.859396 
L 172.197583 275.73799 
L 170.684553 275.392942 
L 167.826608 275.479204 
L 169.339638 274.789107 
L 169.171523 273.840225 
L 170.18021 273.926487 
L 172.533812 274.789107 
L 172.870041 273.840225 
L 173.374384 273.150128 
L 174.046842 272.718818 
L 176.568558 271.511149 
L 177.241016 270.907315 
L 177.241016 270.389743 
L 176.400444 270.044695 
L 175.559871 270.476005 
L 174.719299 271.252363 
L 174.046842 271.597412 
L 171.357011 273.322652 
L 171.525125 273.495177 
L 171.525125 273.667701 
L 170.516439 273.581439 
L 169.339638 271.94246 
L 168.330951 271.597412 
L 171.525125 270.476005 
L 173.038155 269.527122 
L 173.20627 268.405716 
L 172.533812 269.182074 
L 171.69324 269.44086 
L 169.171523 269.527122 
L 168.499066 269.613384 
L 167.994722 269.872171 
L 167.490379 270.044695 
L 166.817921 269.872171 
L 166.481693 269.44086 
L 166.145464 268.837026 
L 165.473006 265.386544 
L 165.473006 264.092613 
L 165.64112 263.575041 
L 164.968663 263.316255 
L 164.968663 262.798683 
L 165.136777 262.108586 
L 165.136777 261.41849 
L 164.632434 260.814655 
L 163.959976 260.469607 
L 163.623747 260.124559 
L 163.959976 259.693249 
L 163.959976 259.348201 
L 162.95129 258.744366 
z
" clip-path="url(#pc8d6161f1d)" style="fill: #e74c3c; stroke: #ffffff; stroke-width: 0.6"/>
    <path d="M 159.084658 114.773008 
L 159.252772 114.600484 
L 159.420887 114.514222 
L 159.757116 114.42796 
L 161.43826 113.306553 
L 163.623747 112.961505 
L 167.994722 113.047767 
L 172.197583 113.996649 
L 174.719299 114.169173 
L 175.727986 113.392815 
L 178.249702 114.514222 
L 180.267075 115.980676 
L 188.840911 124.175571 
L 189.849598 124.779405 
L 190.858284 125.124453 
L 192.371314 125.210716 
L 192.035085 125.81455 
L 191.362627 125.987074 
L 189.849598 125.987074 
L 190.522055 127.367267 
L 191.530742 128.488673 
L 192.707543 129.17877 
L 195.565488 129.696342 
L 196.910403 130.300176 
L 199.095891 131.939155 
L 200.777035 132.888038 
L 201.281378 133.319348 
L 201.785722 134.009444 
L 202.12195 134.958327 
L 202.12195 135.734685 
L 201.449493 136.165996 
L 201.449493 136.511044 
L 201.281378 138.753857 
L 201.449493 139.616478 
L 201.953836 140.13405 
L 202.626294 140.479098 
L 203.298751 140.651622 
L 202.626294 141.859291 
L 202.626294 142.204339 
L 202.794408 142.808173 
L 202.962523 143.153222 
L 203.130637 143.412008 
L 203.298751 143.670794 
L 203.298751 144.102104 
L 203.466866 144.274628 
L 203.298751 144.447152 
L 202.962523 144.878463 
L 202.626294 145.223511 
L 202.12195 145.396035 
L 201.281378 145.568559 
L 201.449493 145.309773 
L 201.617607 144.533414 
L 200.104577 144.705938 
L 198.759662 145.568559 
L 197.414747 146.689966 
L 196.40606 147.811372 
L 195.901717 149.105303 
L 195.565488 152.987095 
L 195.565488 154.02224 
L 195.061145 156.868887 
L 195.397374 161.009466 
L 195.229259 164.632472 
L 193.548115 166.271451 
L 192.371314 165.581354 
L 191.194513 164.201161 
L 190.522055 162.562182 
L 190.185826 161.527038 
L 189.345254 160.836941 
L 185.982966 160.146845 
L 184.974279 158.852914 
L 185.814851 158.852914 
L 186.655423 158.594128 
L 187.327881 158.076556 
L 187.832224 156.782625 
L 188.504682 156.610101 
L 189.17714 156.523839 
L 189.681483 156.265053 
L 191.362627 154.367288 
L 192.539428 153.418405 
L 193.716229 152.900833 
L 193.38 152.555785 
L 193.211886 152.124475 
L 193.043772 151.606902 
L 193.043772 151.003068 
L 192.875657 150.65802 
L 192.539428 150.312972 
L 192.203199 149.967923 
L 192.035085 149.450351 
L 192.371314 148.846517 
L 192.707543 148.415207 
L 193.211886 147.897634 
L 193.38 147.207538 
L 193.38 145.827345 
L 193.211886 145.137249 
L 192.371314 144.36089 
L 193.884344 142.204339 
L 193.884344 141.773029 
L 193.38 141.169194 
L 193.38 137.546188 
L 194.052458 137.546188 
L 194.556801 137.20114 
L 194.89303 136.76983 
L 195.229259 136.165996 
L 195.397374 135.90721 
L 195.229259 134.872065 
L 195.397374 134.527017 
L 195.733602 134.354493 
L 196.069831 134.181969 
L 196.237946 134.009444 
L 196.742289 133.233086 
L 196.910403 132.284204 
L 196.574174 131.594107 
L 194.89303 131.162797 
L 193.884344 130.645225 
L 189.513369 130.04139 
L 188.672797 129.523818 
L 188.168453 128.661197 
L 187.66411 127.367267 
L 187.832224 127.108481 
L 187.832224 126.67717 
L 187.832224 126.24586 
L 187.159767 125.555764 
L 186.991652 124.951929 
L 186.823538 124.693143 
L 186.655423 124.606881 
L 186.319195 124.865667 
L 186.15108 125.124453 
L 185.814851 125.210716 
L 184.974279 125.124453 
L 184.133707 124.865667 
L 183.797478 124.348095 
L 184.133707 123.571737 
L 183.293135 121.846496 
L 181.275762 118.309752 
L 179.930846 116.843297 
L 179.090274 116.325725 
L 178.081588 115.894414 
L 177.072901 115.894414 
L 176.232329 116.325725 
L 175.391757 116.670773 
L 174.38307 116.411987 
L 171.525125 115.549366 
L 170.684553 115.463104 
L 168.835294 115.463104 
L 168.330951 115.29058 
L 166.986036 114.42796 
L 166.145464 114.082911 
L 165.304892 113.910387 
L 161.606374 114.169173 
L 160.093344 114.773008 
z
" clip-path="url(#pc8d6161f1d)" style="fill: #e74c3c; stroke: #ffffff; stroke-width: 0.6"/>
    <path d="M 280.967616 281.776333 
L 280.967616 281.345023 
L 281.471959 280.913713 
L 281.808188 280.309878 
L 282.144417 279.53352 
L 281.976302 278.584637 
L 282.312531 278.670899 
L 282.480645 278.843424 
L 282.816874 279.015948 
L 282.984989 279.274734 
L 285.674819 283.846622 
L 286.347277 284.277933 
L 287.187849 285.226815 
L 288.028421 286.434484 
L 288.36465 287.383366 
L 289.037108 290.833848 
L 289.541451 291.696469 
L 290.382023 292.645351 
L 293.071854 298.07986 
L 293.071854 298.597433 
L 293.408083 299.028743 
L 293.576197 300.15015 
L 293.576197 302.392963 
L 293.912426 304.894562 
L 294.752998 306.361017 
L 296.097914 307.3099 
L 299.964545 308.862616 
L 301.64569 310.242809 
L 304.671749 313.607029 
L 304.503635 313.865815 
L 304.335521 314.383387 
L 304.167406 314.642174 
L 304.671749 315.159746 
L 305.007978 316.453677 
L 305.344207 318.006394 
L 305.344207 319.990421 
L 305.176093 320.594255 
L 305.007978 320.766779 
L 304.335521 320.594255 
L 304.167406 320.249207 
L 303.831177 318.523966 
L 303.663063 318.610228 
L 303.15872 318.869014 
L 302.822491 317.575083 
L 301.477575 315.159746 
L 300.973232 313.003195 
L 300.637003 312.313098 
L 298.955859 310.415333 
L 298.451516 309.897761 
L 297.947172 309.638975 
L 292.567511 308.517568 
L 291.39071 307.827472 
L 290.886367 307.3099 
L 287.524078 305.153348 
L 286.85162 304.894562 
L 286.85162 304.37699 
L 287.187849 303.94568 
L 287.355964 303.514369 
L 287.860307 303.083059 
L 288.028421 303.083059 
L 288.532765 303.859418 
L 289.87768 304.463252 
L 290.382023 305.23961 
L 289.205222 305.067086 
L 288.700879 304.894562 
L 289.037108 305.498397 
L 289.541451 306.015969 
L 290.045794 306.274755 
L 290.718252 306.274755 
L 291.222595 306.619803 
L 292.063168 307.396162 
L 292.567511 307.654948 
L 293.071854 307.74121 
L 293.912426 307.827472 
L 294.248655 307.654948 
L 294.080541 307.137375 
L 291.39071 304.118204 
L 291.054481 303.255583 
L 291.222595 301.87539 
L 291.558824 300.926508 
L 292.063168 300.063887 
L 292.231282 299.287529 
L 292.231282 298.07986 
L 291.895053 296.699668 
L 291.39071 295.491999 
L 290.718252 294.71564 
L 290.550138 294.974427 
L 290.045794 295.405737 
L 290.045794 294.198068 
L 288.36465 292.731613 
L 288.36465 291.523945 
L 287.692193 291.437683 
L 287.187849 291.178896 
L 286.85162 290.833848 
L 287.187849 290.143752 
L 286.179163 289.453656 
L 285.842934 288.591035 
L 285.506705 286.26196 
L 284.498018 283.846622 
L 284.16179 283.587836 
L 283.825561 283.76036 
L 283.489332 284.019146 
L 282.984989 284.191671 
L 283.321217 281.690071 
L 282.984989 280.999975 
L 281.976302 281.776333 
L 282.480645 281.086237 
L 282.64876 280.827451 
L 282.984989 280.654927 
L 282.312531 280.482403 
L 281.976302 280.827451 
L 281.640073 281.431285 
z
" clip-path="url(#pc8d6161f1d)" style="fill: #e74c3c; stroke: #ffffff; stroke-width: 0.6"/>
    <path d="M 331.233828 355.961695 
L 331.233828 355.530385 
L 331.233828 353.718882 
L 331.401943 353.201309 
L 331.906286 353.028785 
L 333.755545 353.201309 
L 334.259888 353.028785 
L 335.604803 351.734854 
L 335.604803 351.389806 
L 335.10046 351.044758 
L 335.10046 350.69971 
L 336.109147 350.182138 
L 336.445376 350.009613 
L 336.109147 349.923351 
L 335.941032 349.837089 
L 335.772918 349.664565 
L 335.772918 349.319517 
L 336.61349 348.888207 
L 338.12652 348.111848 
L 339.135206 347.939324 
L 339.303321 347.7668 
L 339.807664 346.990442 
L 340.480122 346.559132 
L 340.480122 345.955297 
L 340.312007 345.265201 
L 340.312007 344.747628 
L 341.152579 344.40258 
L 342.497495 344.316318 
L 343.506181 343.97127 
L 344.010525 343.194912 
L 344.346754 341.987243 
L 344.851097 341.383409 
L 345.691669 341.124622 
L 346.700355 340.952098 
L 348.549614 340.262002 
L 349.726415 339.054333 
L 350.230758 337.415354 
L 349.558301 335.345065 
L 348.213385 334.396183 
L 344.851097 334.309921 
L 343.506181 333.533562 
L 342.665609 332.843466 
L 342.833724 332.670942 
L 343.338067 331.722059 
L 343.674296 331.463273 
L 344.010525 331.290749 
L 344.346754 331.118225 
L 344.178639 330.773177 
L 343.506181 329.738032 
L 345.019211 330.169342 
L 345.35544 330.428128 
L 345.523554 329.824294 
L 345.859783 329.392984 
L 346.196012 329.22046 
L 346.700355 329.392984 
L 346.86847 329.134198 
L 347.036584 329.047936 
L 347.204699 329.047936 
L 347.204699 328.702888 
L 346.86847 328.530363 
L 346.700355 328.444101 
L 346.532241 328.271577 
L 346.364127 327.926529 
L 348.717729 327.926529 
L 349.89453 327.754005 
L 351.071331 327.236433 
L 351.239445 327.495219 
L 351.239445 327.667743 
L 351.239445 327.754005 
L 351.407559 327.926529 
L 350.398873 329.910556 
L 349.89453 330.428128 
L 349.726415 329.910556 
L 349.558301 329.479246 
L 349.390186 329.22046 
L 348.885843 329.047936 
L 349.053957 329.738032 
L 349.390186 330.428128 
L 349.89453 330.773177 
L 350.566987 330.428128 
L 350.735102 331.118225 
L 351.239445 335.000017 
L 351.407559 335.776375 
L 352.080017 337.070306 
L 351.239445 337.24283 
L 350.903216 338.105451 
L 350.735102 339.226857 
L 350.566987 340.17574 
L 350.062644 340.779574 
L 349.390186 341.469671 
L 348.717729 342.073505 
L 348.045271 342.332291 
L 347.540928 342.763601 
L 346.027898 345.782773 
L 343.506181 347.853062 
L 343.169953 348.111848 
L 342.665609 348.111848 
L 339.807664 349.319517 
L 338.630863 349.578303 
L 337.958405 350.182138 
L 336.781604 352.166165 
L 336.445376 352.511213 
L 335.10046 353.632619 
L 334.596117 353.891406 
L 333.58743 354.06393 
L 332.746858 354.49524 
z
" clip-path="url(#pc8d6161f1d)" style="fill: #e74c3c; stroke: #ffffff; stroke-width: 0.6"/>
    <path d="M 214.226189 189.648466 
L 215.40299 188.440797 
L 216.075448 186.45677 
L 216.747905 182.66124 
L 216.411677 182.66124 
L 218.092821 182.66124 
L 218.765279 182.747502 
L 219.269622 183.006288 
L 218.765279 183.782646 
L 218.597164 184.559005 
L 218.597164 185.507887 
L 218.597164 186.543032 
L 219.437736 185.594149 
L 219.942079 186.02546 
L 220.278308 187.060604 
L 220.782652 187.578176 
L 221.623224 187.836963 
L 227.507229 192.408851 
L 229.356487 193.357734 
L 231.37386 193.875306 
L 233.559348 193.961568 
L 234.39992 194.134092 
L 235.072378 194.737926 
L 237.594094 198.102146 
L 240.283925 200.862532 
L 243.309984 203.019083 
L 244.6549 203.881704 
L 245.327358 204.658062 
L 245.495472 205.606945 
L 245.159243 209.920047 
L 244.991129 210.782667 
L 244.823014 211.213978 
L 244.6549 211.73155 
L 244.318671 212.076598 
L 243.814328 212.249122 
L 243.646213 212.421646 
L 243.478099 213.370529 
L 243.646213 214.319411 
L 244.150557 215.613342 
L 244.486785 216.475963 
L 244.150557 218.8913 
L 243.982442 219.926445 
L 242.805641 221.737948 
L 242.637527 222.428044 
L 242.469412 225.964788 
L 242.637527 227.948815 
L 243.309984 229.587794 
L 241.796955 228.897698 
L 240.956383 227.258719 
L 240.452039 225.447216 
L 239.779582 223.980761 
L 238.939009 223.463189 
L 236.921636 222.600568 
L 236.081064 222.082996 
L 235.072378 220.961589 
L 235.240492 220.444017 
L 235.91295 220.357755 
L 240.620154 221.134113 
L 240.956383 221.047851 
L 241.124497 220.702803 
L 241.292611 220.271493 
L 241.460726 219.926445 
L 242.301298 219.236348 
L 242.469412 218.718776 
L 242.637527 218.02868 
L 242.637527 216.821011 
L 242.301298 217.166059 
L 241.62884 217.942417 
L 241.124497 218.373728 
L 240.956383 217.856155 
L 240.956383 216.562225 
L 241.292611 214.233149 
L 241.62884 213.370529 
L 241.796955 213.111743 
L 241.965069 212.766695 
L 243.309984 211.559026 
L 243.646213 211.213978 
L 243.982442 208.281068 
L 243.982442 207.159661 
L 243.14187 204.830586 
L 241.62884 203.622917 
L 239.947696 202.760297 
L 238.434666 201.552628 
L 234.568034 195.945595 
L 233.391233 194.996713 
L 231.710089 194.306616 
L 228.011572 193.530258 
L 225.994199 192.581375 
L 223.136254 189.907252 
L 221.286995 189.303417 
L 220.278308 189.217155 
L 218.42905 188.785845 
L 217.588478 188.613321 
L 216.579791 188.872107 
L 214.898647 189.82099 
z
" clip-path="url(#pc8d6161f1d)" style="fill: #e74c3c; stroke: #ffffff; stroke-width: 0.6"/>
    <path d="M 110.835818 124.520619 
L 111.340161 124.520619 
L 111.67639 124.693143 
L 112.012619 124.865667 
L 112.348848 125.210716 
L 118.400967 129.006246 
L 119.745883 130.904011 
L 120.754569 130.731487 
L 121.427027 130.558963 
L 122.940057 131.249059 
L 124.116858 131.249059 
L 125.125544 130.731487 
L 126.134231 130.127652 
L 126.638574 129.782604 
L 127.311032 129.437556 
L 127.64726 129.265032 
L 127.815375 128.833722 
L 128.319718 128.316149 
L 128.487833 127.712315 
L 129.16029 127.108481 
L 129.832748 125.987074 
L 130.67332 125.469502 
L 130.505206 124.865667 
L 129.328405 124.175571 
L 127.479146 123.830523 
L 127.815375 123.226688 
L 128.992176 121.760234 
L 129.328405 121.156399 
L 129.664634 118.999848 
L 130.505206 119.603682 
L 131.345778 120.638827 
L 132.018236 121.673972 
L 132.18635 122.622854 
L 133.195037 123.140426 
L 136.893554 124.606881 
L 137.90224 124.348095 
L 140.087728 124.865667 
L 142.44133 125.296978 
L 143.95436 125.38324 
L 144.626817 124.434357 
L 145.635504 124.003047 
L 146.980419 124.606881 
L 147.989106 124.779405 
L 149.67025 124.089309 
L 151.855738 124.434357 
L 153.368767 123.916785 
L 154.881797 123.31295 
L 155.722369 123.140426 
L 158.748429 123.140426 
L 159.420887 122.795378 
L 159.92523 122.277806 
L 160.261459 121.58771 
L 160.597688 120.983875 
L 161.43826 120.725089 
L 161.43826 121.673972 
L 161.270145 122.709116 
L 161.102031 123.744261 
L 161.942603 125.555764 
L 161.942603 126.504646 
L 161.606374 127.367267 
L 160.765802 127.712315 
L 160.429573 127.626053 
L 159.589001 126.935957 
L 159.084658 126.67717 
L 158.580315 126.590908 
L 155.554255 126.763432 
L 152.69631 127.367267 
L 146.307962 128.661197 
L 143.786245 128.661197 
L 133.867494 131.076535 
L 133.026922 131.249059 
L 132.18635 131.507845 
L 130.841435 132.715514 
L 129.832748 132.9743 
L 128.992176 133.491872 
L 127.983489 134.009444 
L 127.142917 134.613279 
L 126.806688 134.958327 
L 125.798002 135.044589 
L 125.293659 135.217113 
L 123.4444 135.044589 
L 121.595141 134.440755 
L 120.41834 133.319348 
L 118.400967 132.111679 
L 113.525649 127.108481 
L 111.340161 125.296978 
z
" clip-path="url(#pc8d6161f1d)" style="fill: #e74c3c; stroke: #ffffff; stroke-width: 0.6"/>
    <path d="M 358.132136 415.051198 
L 358.132136 414.792412 
L 358.300251 414.447364 
L 359.645166 414.274839 
L 360.317624 413.757267 
L 360.653853 412.635861 
L 360.821967 411.686978 
L 360.149509 410.996882 
L 359.645166 410.479309 
L 359.645166 409.961737 
L 361.32631 410.738095 
L 362.334997 410.393047 
L 363.007455 410.047999 
L 363.679912 409.616689 
L 365.024828 409.185379 
L 365.361057 408.150234 
L 366.369743 407.201351 
L 366.874086 406.252469 
L 367.882773 406.511255 
L 368.891459 405.993683 
L 370.236375 405.993683 
L 370.740718 405.907421 
L 371.076947 405.734897 
L 371.58129 405.303586 
L 372.253748 404.354704 
L 372.758091 403.923394 
L 372.926206 404.095918 
L 373.09432 405.217324 
L 373.934892 406.079945 
L 374.775464 407.373876 
L 376.12038 407.97771 
L 378.978325 408.926592 
L 379.987011 408.236496 
L 380.995698 407.718924 
L 383.3493 407.115089 
L 384.526101 405.734897 
L 385.366673 403.75087 
L 387.720275 399.955339 
L 388.392733 399.006457 
L 389.401419 398.402623 
L 390.410106 398.833933 
L 390.746335 399.782815 
L 390.57822 400.904222 
L 389.737648 406.424993 
L 389.401419 407.805186 
L 386.37536 411.686978 
L 384.86233 416.172604 
L 383.853643 416.690177 
L 380.32324 418.242894 
L 378.305867 417.897845 
L 377.801524 418.07037 
L 377.297181 418.329156 
L 376.456609 419.019252 
L 376.12038 419.019252 
L 376.12038 418.587942 
L 376.456609 418.329156 
L 375.784151 417.811583 
L 374.775464 417.639059 
L 372.253748 419.105514 
L 370.740718 419.019252 
L 367.882773 419.709348 
L 365.8654 418.846728 
L 362.83934 418.50168 
L 362.166883 418.674204 
L 361.494425 419.019252 
L 361.158196 419.450562 
L 360.990082 419.881873 
L 360.821967 420.313183 
L 360.485738 420.226921 
L 359.981395 419.881873 
L 359.308937 419.105514 
L 359.140823 418.587942 
L 359.140823 417.725321 
L 358.972708 416.517653 
z
" clip-path="url(#pc8d6161f1d)" style="fill: #e74c3c; stroke: #ffffff; stroke-width: 0.6"/>
    <path d="M 262.1388 228.811436 
L 262.1388 228.466387 
L 262.306914 228.035077 
L 263.315601 226.827408 
L 263.65183 226.741146 
L 264.324288 226.827408 
L 264.660516 226.999933 
L 266.005432 228.207601 
L 267.182233 228.725174 
L 267.686576 228.98396 
L 268.190919 229.587794 
L 268.695263 232.865752 
L 268.863377 233.814634 
L 269.36772 234.332207 
L 270.040178 235.022303 
L 270.712636 235.884924 
L 271.385093 237.43764 
L 272.730009 239.852978 
L 275.251725 243.648508 
L 276.092297 244.338604 
L 277.941556 245.287487 
L 278.782128 246.063845 
L 279.958929 248.479183 
L 280.295158 248.824231 
L 280.799501 249.169279 
L 282.816874 251.412092 
L 283.153103 252.188451 
L 283.993675 255.12136 
L 281.808188 254.431264 
L 280.799501 254.345002 
L 279.790815 254.431264 
L 277.605327 254.862574 
L 276.932869 255.293884 
L 276.092297 255.983981 
L 274.915496 256.156505 
L 273.738695 255.293884 
L 273.234352 254.25874 
L 274.243039 253.741168 
L 274.915496 253.568643 
L 275.924183 253.051071 
L 276.764755 252.360975 
L 277.269098 251.670878 
L 278.10967 251.670878 
L 278.614014 250.290686 
L 278.277785 248.651707 
L 277.437213 247.789086 
L 276.092297 247.5303 
L 275.083611 246.753942 
L 272.561894 242.699625 
L 272.225665 241.233171 
L 271.385093 239.93924 
L 271.048864 239.249143 
L 270.88075 237.610164 
L 270.040178 236.402496 
L 268.863377 235.626137 
L 267.350347 235.539875 
L 267.518462 235.022303 
L 267.518462 234.418469 
L 267.350347 233.728372 
L 267.350347 233.124538 
L 267.014118 232.520704 
L 266.846004 232.261917 
L 266.509775 232.089393 
L 264.324288 230.27789 
L 262.979372 229.587794 
L 262.475029 229.242746 
z
" clip-path="url(#pc8d6161f1d)" style="fill: #e74c3c; stroke: #ffffff; stroke-width: 0.6"/>
    <path d="M 383.181186 345.610249 
L 383.181186 345.092677 
L 384.189872 344.488842 
L 383.853643 344.057532 
L 383.853643 343.885008 
L 384.189872 343.367436 
L 384.357987 342.677339 
L 384.189872 342.159767 
L 384.189872 341.642195 
L 384.694215 341.210885 
L 385.534788 342.332291 
L 385.871016 342.591077 
L 386.711588 342.677339 
L 386.711588 342.591077 
L 386.879703 342.332291 
L 387.384046 342.073505 
L 387.552161 341.987243 
L 387.888389 341.987243 
L 388.728962 342.246029 
L 389.06519 342.332291 
L 390.241991 342.763601 
L 392.595593 344.40258 
L 393.772394 344.488842 
L 393.436165 344.143794 
L 393.099937 343.367436 
L 394.612966 344.143794 
L 395.453539 344.316318 
L 395.957882 344.057532 
L 396.63034 344.661366 
L 397.302797 345.006415 
L 398.143369 345.092677 
L 399.32017 345.092677 
L 399.656399 345.265201 
L 399.992628 345.610249 
L 400.496971 346.386607 
L 401.001315 346.645394 
L 402.010001 346.645394 
L 402.34623 346.90418 
L 402.682459 347.7668 
L 402.514344 348.801945 
L 402.010001 349.664565 
L 401.169429 350.009613 
L 400.328857 349.750827 
L 398.143369 347.594276 
L 397.302797 346.817918 
L 396.462225 346.386607 
L 395.621653 346.214083 
L 394.444852 346.127821 
L 393.940509 346.214083 
L 393.268051 346.472869 
L 392.931822 346.559132 
L 392.427479 346.472869 
L 392.09125 346.214083 
L 391.755021 345.955297 
L 391.418792 345.782773 
L 390.410106 346.041559 
L 388.560847 346.990442 
L 387.384046 347.249228 
L 387.047817 347.162966 
L 386.711588 346.90418 
L 386.37536 346.645394 
L 386.207245 346.559132 
L 384.357987 346.127821 
L 383.517414 345.955297 
z
" clip-path="url(#pc8d6161f1d)" style="fill: #e74c3c; stroke: #ffffff; stroke-width: 0.6"/>
    <path d="M 327.703426 322.664544 
L 327.87154 322.578282 
L 328.039654 322.405758 
L 328.039654 322.233234 
L 328.039654 321.974448 
L 328.543998 321.974448 
L 329.38457 321.715662 
L 329.720799 321.6294 
L 330.225142 321.801924 
L 331.570057 322.664544 
L 332.074401 322.837068 
L 333.083087 322.92333 
L 333.58743 323.009592 
L 334.764231 324.130999 
L 334.932346 324.562309 
L 335.10046 325.42493 
L 335.10046 325.85624 
L 335.268575 325.85624 
L 335.941032 325.85624 
L 336.109147 325.85624 
L 336.109147 326.028764 
L 336.445376 326.546336 
L 337.285948 326.891384 
L 338.967092 326.977647 
L 339.975778 327.236433 
L 339.63955 326.546336 
L 340.648236 326.805122 
L 343.506181 327.926529 
L 339.975778 331.118225 
L 339.807664 330.686915 
L 339.807664 330.600653 
L 339.303321 330.428128 
L 339.303321 329.565508 
L 338.462749 329.738032 
L 337.285948 330.08308 
L 333.755545 329.22046 
L 333.419316 328.78915 
L 332.578744 327.926529 
L 332.242515 328.530363 
L 331.738172 329.047936 
L 331.233828 329.306722 
L 330.8976 329.22046 
L 331.233828 328.099053 
L 331.233828 327.495219 
L 330.729485 327.236433 
z
" clip-path="url(#pc8d6161f1d)" style="fill: #e74c3c; stroke: #ffffff; stroke-width: 0.6"/>
    <path d="M 249.025875 283.156526 
L 249.025875 282.811478 
L 250.37079 282.380168 
L 250.707019 282.293906 
L 250.538905 281.776333 
L 250.202676 281.345023 
L 250.37079 281.086237 
L 249.866447 280.741189 
L 249.362104 280.137354 
L 249.362104 279.447258 
L 249.698333 278.929686 
L 250.202676 279.015948 
L 250.707019 278.929686 
L 251.043248 278.670899 
L 251.211362 278.584637 
L 251.715706 278.757162 
L 251.88382 279.015948 
L 252.220049 279.706044 
L 252.724392 280.223616 
L 253.39685 280.482403 
L 254.069308 280.654927 
L 255.077994 280.654927 
L 254.90988 280.913713 
L 254.90988 281.086237 
L 254.741765 281.258761 
L 254.405536 281.345023 
L 257.599711 284.622981 
L 259.785198 285.916912 
L 260.289541 286.089436 
L 260.961999 287.728415 
L 262.643143 289.022345 
L 266.677889 290.4888 
L 266.005432 291.265159 
L 264.828631 290.92011 
L 262.811258 289.798704 
L 260.457656 289.62618 
L 259.617084 289.108607 
L 259.953312 288.073463 
L 259.11274 287.469628 
L 258.272168 286.607008 
L 257.431596 286.175698 
L 256.759138 286.607008 
L 255.077994 284.881767 
L 253.39685 283.587836 
L 251.379477 282.984002 
z
" clip-path="url(#pc8d6161f1d)" style="fill: #e74c3c; stroke: #ffffff; stroke-width: 0.6"/>
    <path d="M 318.120903 264.955234 
L 318.120903 264.610186 
L 318.961475 263.575041 
L 319.465819 262.022324 
L 319.633933 260.210821 
L 319.465819 258.658104 
L 319.465819 257.450436 
L 319.970162 256.674077 
L 320.810734 256.242767 
L 321.651306 255.897719 
L 321.987535 255.638933 
L 322.15565 255.380146 
L 322.491878 255.207622 
L 322.828107 255.293884 
L 323.500565 256.587815 
L 323.668679 256.760339 
L 323.668679 257.277912 
L 324.173023 257.968008 
L 324.341137 258.313056 
L 324.173023 258.744366 
L 324.004908 259.779511 
L 323.836794 260.210821 
L 321.987535 263.575041 
L 321.819421 262.971207 
L 321.987535 262.453634 
L 322.323764 261.41849 
L 321.987535 262.022324 
L 321.315077 264.092613 
L 321.146963 264.610186 
z
" clip-path="url(#pc8d6161f1d)" style="fill: #e74c3c; stroke: #ffffff; stroke-width: 0.6"/>
    <path d="M 158.580315 253.741168 
L 158.580315 253.051071 
L 158.580315 252.533499 
L 159.084658 252.447237 
L 159.589001 252.619761 
L 160.261459 252.706023 
L 160.429573 252.188451 
L 160.933917 252.015927 
L 163.455633 250.290686 
L 163.623747 250.118161 
L 164.464319 249.686851 
L 164.968663 249.514327 
L 166.817921 249.514327 
L 166.649807 250.031899 
L 166.313578 250.290686 
L 165.473006 250.549472 
L 165.136777 250.549472 
L 164.968663 250.376948 
L 164.800548 250.290686 
L 164.296205 250.549472 
L 163.959976 251.067044 
L 163.455633 252.447237 
L 162.95129 253.051071 
L 162.446946 253.482381 
L 159.92523 254.69005 
L 159.084658 254.776312 
L 158.916543 254.431264 
z
" clip-path="url(#pc8d6161f1d)" style="fill: #e74c3c; stroke: #ffffff; stroke-width: 0.6"/>
    <path d="M 177.913473 210.523881 
L 178.417817 209.488737 
L 179.426503 208.712378 
L 180.603304 208.194806 
L 181.275762 208.108544 
L 182.788792 207.50471 
L 183.461249 207.418448 
L 185.478622 207.50471 
L 187.495996 207.159661 
L 188.168453 207.159661 
L 188.840911 207.418448 
L 190.017712 208.108544 
L 191.866971 208.539854 
L 191.362627 209.143689 
L 186.319195 211.386502 
L 185.310508 211.386502 
L 183.797478 210.696405 
L 183.461249 211.127716 
L 182.956906 211.73155 
L 182.284448 212.16286 
L 181.780105 211.904074 
L 180.939533 211.472764 
L 180.098961 211.386502 
L 179.258389 211.472764 
L 178.585931 211.386502 
z
" clip-path="url(#pc8d6161f1d)" style="fill: #e74c3c; stroke: #ffffff; stroke-width: 0.6"/>
    <path d="M 96.546092 175.587752 
L 96.714206 174.811393 
L 97.050435 173.862511 
L 97.554779 172.827366 
L 98.563465 172.051008 
L 99.067808 171.878484 
L 99.235923 172.482318 
L 99.404037 173.517463 
L 99.235923 173.948773 
L 99.067808 173.689987 
L 98.899694 173.862511 
L 98.227236 174.035035 
L 98.227236 173.603725 
L 98.563465 172.827366 
L 98.395351 172.56858 
L 97.722893 173.172414 
L 97.386664 173.603725 
L 97.050435 173.948773 
L 97.050435 174.638869 
L 97.554779 175.070179 
L 98.227236 175.328966 
L 98.73158 175.760276 
L 98.563465 176.019062 
L 97.21855 175.846538 
L 96.714206 175.846538 
z
" clip-path="url(#pc8d6161f1d)" style="fill: #e74c3c; stroke: #ffffff; stroke-width: 0.6"/>
    <path d="M 387.384046 389.948942 
L 387.888389 389.517632 
L 388.897076 389.172583 
L 389.737648 388.655011 
L 390.57822 387.619867 
L 391.250678 387.102294 
L 391.755021 387.36108 
L 392.259364 388.137439 
L 392.763708 388.568749 
L 393.772394 389.086321 
L 394.612966 389.517632 
L 395.11731 390.035204 
L 394.949195 391.070348 
L 393.940509 391.587921 
L 392.259364 391.846707 
L 391.418792 392.623065 
L 390.914449 392.709327 
L 389.401419 393.571948 
L 388.897076 394.08952 
L 388.392733 394.08952 
L 388.392733 393.571948 
L 388.392733 392.968113 
L 388.056504 391.932969 
L 387.552161 390.984086 
z
" clip-path="url(#pc8d6161f1d)" style="fill: #e74c3c; stroke: #ffffff; stroke-width: 0.6"/>
    <path d="M 191.194513 136.597306 
L 191.194513 136.33852 
L 191.362627 136.424782 
L 191.698856 136.252258 
L 191.866971 135.993472 
L 192.203199 135.820947 
L 192.707543 135.90721 
L 193.043772 136.165996 
L 193.043772 136.33852 
L 193.043772 136.424782 
L 193.043772 136.33852 
L 192.875657 136.33852 
L 192.707543 136.424782 
L 192.875657 136.511044 
L 192.707543 136.597306 
L 192.707543 137.20114 
L 192.875657 137.804975 
L 192.539428 137.977499 
L 192.371314 137.977499 
L 192.203199 137.977499 
L 191.866971 137.804975 
L 191.698856 137.20114 
L 191.362627 136.856092 
z
" clip-path="url(#pc8d6161f1d)" style="fill: #e74c3c; stroke: #ffffff; stroke-width: 0.6"/>
    <path d="M 162.446946 130.04139 
L 162.446946 129.61008 
L 162.615061 129.437556 
L 164.128091 129.092508 
L 164.296205 129.351294 
L 163.791862 129.868866 
L 163.791862 130.04139 
L 164.128091 129.868866 
L 164.296205 129.696342 
L 164.464319 129.437556 
L 164.968663 129.006246 
L 165.136777 129.17877 
L 164.632434 129.696342 
L 164.632434 129.955128 
L 164.632434 130.213914 
L 164.296205 130.558963 
L 164.128091 131.162797 
L 163.791862 131.594107 
L 163.623747 131.594107 
L 163.455633 131.421583 
L 163.287518 131.249059 
L 162.783175 130.4727 
z
" clip-path="url(#pc8d6161f1d)" style="fill: #e74c3c; stroke: #ffffff; stroke-width: 0.6"/>
    <path d="M 300.13266 278.843424 
L 300.300774 278.153327 
L 301.141346 277.808279 
L 302.150033 277.549493 
L 304.503635 276.859396 
L 306.184779 276.859396 
L 306.857237 277.118183 
L 307.865923 277.894541 
L 307.36158 278.670899 
L 307.193466 279.360996 
L 306.689122 279.706044 
L 305.680436 279.706044 
L 305.680436 279.96483 
L 306.016665 280.39614 
L 305.176093 280.39614 
L 303.999292 280.051092 
L 303.494948 279.274734 
L 302.654376 279.706044 
L 301.141346 279.706044 
L 300.300774 279.96483 
z
" clip-path="url(#pc8d6161f1d)" style="fill: #e74c3c; stroke: #ffffff; stroke-width: 0.6"/>
    <path d="M 166.481693 245.805059 
L 166.817921 245.373749 
L 167.826608 244.856177 
L 168.66718 244.16608 
L 169.507752 243.821032 
L 170.516439 243.562246 
L 171.357011 243.648508 
L 171.525125 243.821032 
L 172.029469 244.16608 
L 172.197583 244.511128 
L 172.197583 244.942439 
L 171.861354 245.287487 
L 171.357011 245.114963 
L 170.852668 244.769915 
L 170.516439 244.59739 
L 169.675867 244.683652 
L 169.171523 244.856177 
L 168.330951 245.891321 
L 167.322265 246.495155 
L 166.817921 246.322631 
z
" clip-path="url(#pc8d6161f1d)" style="fill: #e74c3c; stroke: #ffffff; stroke-width: 0.6"/>
    <path d="M 262.475029 354.667764 
L 262.475029 354.236454 
L 262.643143 354.236454 
L 262.979372 354.322716 
L 263.315601 354.49524 
L 263.147487 354.236454 
L 262.979372 353.373833 
L 263.147487 353.201309 
L 263.315601 353.546357 
L 263.819944 354.408978 
L 263.988059 354.754026 
L 264.156173 355.35786 
L 263.819944 355.789171 
L 263.147487 355.789171 
L 262.811258 355.35786 
z
" clip-path="url(#pc8d6161f1d)" style="fill: #e74c3c; stroke: #ffffff; stroke-width: 0.6"/>
    <path d="M 161.774489 190.597348 
L 161.774489 190.511086 
L 162.110717 190.2523 
L 162.446946 190.079776 
L 162.783175 190.079776 
L 163.287518 190.079776 
L 163.959976 190.079776 
L 164.464319 189.734728 
L 164.968663 189.217155 
L 164.968663 189.303417 
L 164.800548 189.82099 
L 164.296205 190.424824 
L 163.791862 190.597348 
L 163.119404 190.597348 
L 162.615061 190.597348 
z
" clip-path="url(#pc8d6161f1d)" style="fill: #e74c3c; stroke: #ffffff; stroke-width: 0.6"/>
    <path d="M 156.562941 249.859375 
L 157.235399 249.514327 
L 158.4122 249.341803 
L 159.589001 248.737969 
L 160.597688 248.479183 
L 161.102031 249.169279 
L 160.429573 249.169279 
L 160.093344 249.600589 
L 160.093344 250.290686 
L 160.429573 250.980782 
L 159.757116 250.808258 
L 158.580315 250.980782 
L 157.907857 250.980782 
L 157.403514 250.721996 
L 156.731056 250.290686 
z
" clip-path="url(#pc8d6161f1d)" style="fill: #e74c3c; stroke: #ffffff; stroke-width: 0.6"/>
    <path d="M 225.321741 248.134134 
L 225.321741 247.444038 
L 226.162313 247.875348 
L 226.498542 248.479183 
L 226.834771 249.255541 
L 227.339114 249.859375 
L 227.843457 250.376948 
L 228.347801 250.549472 
L 228.852144 250.89452 
L 229.188373 251.670878 
L 228.347801 251.670878 
L 227.843457 251.412092 
L 225.826084 248.824231 
z
" clip-path="url(#pc8d6161f1d)" style="fill: #e74c3c; stroke: #ffffff; stroke-width: 0.6"/>
    <path d="M 364.856713 333.706086 
L 364.856713 333.4473 
L 365.697285 333.361038 
L 366.369743 333.274776 
L 367.546544 333.533562 
L 368.555231 334.051135 
L 369.059574 334.741231 
L 368.723345 334.741231 
L 366.705972 334.137397 
L 365.8654 333.87861 
z
" clip-path="url(#pc8d6161f1d)" style="fill: #e74c3c; stroke: #ffffff; stroke-width: 0.6"/>
    <path d="M 232.046318 257.277912 
L 232.046318 256.587815 
L 233.223119 257.364174 
L 235.91295 263.575041 
L 235.576721 263.920089 
L 234.904263 263.143731 
L 234.063691 261.332228 
L 233.223119 260.210821 
L 232.718776 258.658104 
L 232.214432 257.795484 
z
" clip-path="url(#pc8d6161f1d)" style="fill: #e74c3c; stroke: #ffffff; stroke-width: 0.6"/>
    <path d="M 162.615061 171.533435 
L 162.95129 171.102125 
L 163.623747 171.274649 
L 163.959976 171.792222 
L 165.809235 174.897655 
L 165.809235 175.328966 
L 165.304892 175.242704 
L 164.632434 174.552607 
L 163.959976 173.258676 
L 162.95129 172.223532 
z
" clip-path="url(#pc8d6161f1d)" style="fill: #e74c3c; stroke: #ffffff; stroke-width: 0.6"/>
    <path d="M 259.11274 345.006415 
L 259.280855 344.920153 
L 259.448969 345.437725 
L 259.617084 345.782773 
L 259.785198 346.041559 
L 259.953312 346.645394 
L 259.953312 346.990442 
L 259.617084 346.559132 
L 259.280855 345.782773 
z
" clip-path="url(#pc8d6161f1d)" style="fill: #e74c3c; stroke: #ffffff; stroke-width: 0.6"/>
    <path d="M 213.721846 235.367351 
L 213.721846 234.504731 
L 214.226189 234.332207 
L 214.562418 234.763517 
L 214.730532 235.022303 
L 214.730532 235.367351 
L 214.730532 236.057448 
L 214.394303 236.316234 
L 213.88996 236.057448 
z
" clip-path="url(#pc8d6161f1d)" style="fill: #e74c3c; stroke: #ffffff; stroke-width: 0.6"/>
    <path d="M 177.072901 144.102104 
L 177.072901 143.153222 
L 177.40913 143.412008 
L 178.754046 144.447152 
L 178.92216 144.705938 
L 178.754046 145.137249 
L 177.40913 146.689966 
L 177.577245 145.482297 
L 177.40913 144.792201 
z
" clip-path="url(#pc8d6161f1d)" style="fill: #e74c3c; stroke: #ffffff; stroke-width: 0.6"/>
    <path d="M 326.190396 337.070306 
L 326.694739 334.913755 
L 328.039654 333.4473 
L 329.552684 332.153369 
L 330.8976 330.428128 
L 330.729485 331.808321 
L 329.38457 333.964872 
L 327.703426 335.9489 
z
" clip-path="url(#pc8d6161f1d)" style="fill: #e74c3c; stroke: #ffffff; stroke-width: 0.6"/>
    <path d="M 267.014118 290.143752 
L 268.527148 290.316276 
L 270.544521 290.833848 
L 272.225665 291.782731 
L 273.066238 292.9904 
L 271.385093 292.386565 
L 269.36772 292.041517 
L 267.686576 291.351421 
z
" clip-path="url(#pc8d6161f1d)" style="fill: #e74c3c; stroke: #ffffff; stroke-width: 0.6"/>
    <path d="M 162.783175 245.805059 
L 162.783175 245.114963 
L 163.455633 244.856177 
L 164.968663 244.683652 
L 165.136777 244.683652 
L 164.968663 245.114963 
L 164.464319 245.805059 
L 163.623747 246.236369 
z
" clip-path="url(#pc8d6161f1d)" style="fill: #e74c3c; stroke: #ffffff; stroke-width: 0.6"/>
    <path d="M 352.752475 308.345044 
L 356.282878 308.690092 
L 358.804594 308.431306 
L 359.813281 308.690092 
L 359.813281 309.03514 
L 355.61042 309.897761 
L 353.593047 309.897761 
z
" clip-path="url(#pc8d6161f1d)" style="fill: #e74c3c; stroke: #ffffff; stroke-width: 0.6"/>
    <path d="M 291.726939 271.166101 
L 292.063168 270.476005 
L 292.399396 270.389743 
L 292.567511 270.648529 
L 292.567511 271.166101 
L 292.399396 271.856198 
L 292.063168 272.028722 
z
" clip-path="url(#pc8d6161f1d)" style="fill: #e74c3c; stroke: #ffffff; stroke-width: 0.6"/>
    <path d="M 262.306914 352.597475 
L 262.475029 351.303544 
L 262.643143 351.389806 
L 262.643143 352.252427 
L 262.643143 352.683737 
L 262.475029 352.769999 
z
" clip-path="url(#pc8d6161f1d)" style="fill: #e74c3c; stroke: #ffffff; stroke-width: 0.6"/>
    <path d="M 361.662539 335.431327 
L 361.998768 334.051135 
L 362.671226 333.619824 
L 363.175569 333.964872 
L 362.503111 335.258803 
z
" clip-path="url(#pc8d6161f1d)" style="fill: #e74c3c; stroke: #ffffff; stroke-width: 0.6"/>
    <path d="M 82.928824 284.277933 
L 83.265052 284.450457 
L 84.441853 285.744387 
L 84.946197 286.348222 
L 84.778082 286.434484 
z
" clip-path="url(#pc8d6161f1d)" style="fill: #e74c3c; stroke: #ffffff; stroke-width: 0.6"/>
    <path d="M 97.21855 182.920026 
L 97.21855 182.747502 
L 97.722893 183.265074 
L 97.722893 183.52386 
z
" clip-path="url(#pc8d6161f1d)" style="fill: #e74c3c; stroke: #ffffff; stroke-width: 0.6"/>
    <path d="M 85.618654 287.728415 
L 85.618654 287.55589 
L 86.627341 288.332249 
L 86.627341 288.418511 
z
" clip-path="url(#pc8d6161f1d)" style="fill: #e74c3c; stroke: #ffffff; stroke-width: 0.6"/>
   </g>
   <g id="text_1">
    <!-- Bahamas -->
    <g style="fill: #1a252f" transform="translate(199.151501 20.117344) scale(0.17 -0.17)">
     <defs>
      <path id="DejaVuSans-Bold-25" d="M 2456 2859 
Q 2741 2859 2887 2984 
Q 3034 3109 3034 3353 
Q 3034 3594 2887 3720 
Q 2741 3847 2456 3847 
L 1791 3847 
L 1791 2859 
L 2456 2859 
z
M 2497 819 
Q 2859 819 3042 972 
Q 3225 1125 3225 1434 
Q 3225 1738 3044 1889 
Q 2863 2041 2497 2041 
L 1791 2041 
L 1791 819 
L 2497 819 
z
M 3616 2497 
Q 4003 2384 4215 2081 
Q 4428 1778 4428 1338 
Q 4428 663 3972 331 
Q 3516 0 2584 0 
L 588 0 
L 588 4666 
L 2394 4666 
Q 3366 4666 3802 4372 
Q 4238 4078 4238 3431 
Q 4238 3091 4078 2852 
Q 3919 2613 3616 2497 
z
" transform="scale(0.015625)"/>
      <path id="DejaVuSans-Bold-44" d="M 2106 1575 
Q 1756 1575 1579 1456 
Q 1403 1338 1403 1106 
Q 1403 894 1545 773 
Q 1688 653 1941 653 
Q 2256 653 2472 879 
Q 2688 1106 2688 1447 
L 2688 1575 
L 2106 1575 
z
M 3816 1997 
L 3816 0 
L 2688 0 
L 2688 519 
Q 2463 200 2181 54 
Q 1900 -91 1497 -91 
Q 953 -91 614 226 
Q 275 544 275 1050 
Q 275 1666 698 1953 
Q 1122 2241 2028 2241 
L 2688 2241 
L 2688 2328 
Q 2688 2594 2478 2717 
Q 2269 2841 1825 2841 
Q 1466 2841 1156 2769 
Q 847 2697 581 2553 
L 581 3406 
Q 941 3494 1303 3539 
Q 1666 3584 2028 3584 
Q 2975 3584 3395 3211 
Q 3816 2838 3816 1997 
z
" transform="scale(0.015625)"/>
      <path id="DejaVuSans-Bold-4b" d="M 4056 2131 
L 4056 0 
L 2931 0 
L 2931 347 
L 2931 1625 
Q 2931 2084 2911 2256 
Q 2891 2428 2841 2509 
Q 2775 2619 2662 2680 
Q 2550 2741 2406 2741 
Q 2056 2741 1856 2470 
Q 1656 2200 1656 1722 
L 1656 0 
L 538 0 
L 538 4863 
L 1656 4863 
L 1656 2988 
Q 1909 3294 2193 3439 
Q 2478 3584 2822 3584 
Q 3428 3584 3742 3212 
Q 4056 2841 4056 2131 
z
" transform="scale(0.015625)"/>
      <path id="DejaVuSans-Bold-50" d="M 3781 2919 
Q 3994 3244 4286 3414 
Q 4578 3584 4928 3584 
Q 5531 3584 5847 3212 
Q 6163 2841 6163 2131 
L 6163 0 
L 5038 0 
L 5038 1825 
Q 5041 1866 5042 1909 
Q 5044 1953 5044 2034 
Q 5044 2406 4934 2573 
Q 4825 2741 4581 2741 
Q 4263 2741 4089 2478 
Q 3916 2216 3909 1719 
L 3909 0 
L 2784 0 
L 2784 1825 
Q 2784 2406 2684 2573 
Q 2584 2741 2328 2741 
Q 2006 2741 1831 2477 
Q 1656 2213 1656 1722 
L 1656 0 
L 531 0 
L 531 3500 
L 1656 3500 
L 1656 2988 
Q 1863 3284 2130 3434 
Q 2397 3584 2719 3584 
Q 3081 3584 3359 3409 
Q 3638 3234 3781 2919 
z
" transform="scale(0.015625)"/>
      <path id="DejaVuSans-Bold-56" d="M 3272 3391 
L 3272 2541 
Q 2913 2691 2578 2766 
Q 2244 2841 1947 2841 
Q 1628 2841 1473 2761 
Q 1319 2681 1319 2516 
Q 1319 2381 1436 2309 
Q 1553 2238 1856 2203 
L 2053 2175 
Q 2913 2066 3209 1816 
Q 3506 1566 3506 1031 
Q 3506 472 3093 190 
Q 2681 -91 1863 -91 
Q 1516 -91 1145 -36 
Q 775 19 384 128 
L 384 978 
Q 719 816 1070 734 
Q 1422 653 1784 653 
Q 2113 653 2278 743 
Q 2444 834 2444 1013 
Q 2444 1163 2330 1236 
Q 2216 1309 1875 1350 
L 1678 1375 
Q 931 1469 631 1722 
Q 331 1975 331 2491 
Q 331 3047 712 3315 
Q 1094 3584 1881 3584 
Q 2191 3584 2531 3537 
Q 2872 3491 3272 3391 
z
" transform="scale(0.015625)"/>
     </defs>
     <use xlink:href="#DejaVuSans-Bold-25"/>
     <use xlink:href="#DejaVuSans-Bold-44" transform="translate(76.21875 0)"/>
     <use xlink:href="#DejaVuSans-Bold-4b" transform="translate(143.703125 0)"/>
     <use xlink:href="#DejaVuSans-Bold-44" transform="translate(214.890625 0)"/>
     <use xlink:href="#DejaVuSans-Bold-50" transform="translate(282.375 0)"/>
     <use xlink:href="#DejaVuSans-Bold-44" transform="translate(386.578125 0)"/>
     <use xlink:href="#DejaVuSans-Bold-56" transform="translate(454.0625 0)"/>
    </g>
   </g>
   <g id="legend_1">
    <g id="patch_2">
     <path d="M 13.5 498.657344 
L 88.097344 498.657344 
Q 89.897344 498.657344 89.897344 496.857344 
L 89.897344 470.755937 
Q 89.897344 468.955937 88.097344 468.955937 
L 13.5 468.955937 
Q 11.7 468.955937 11.7 470.755937 
L 11.7 496.857344 
Q 11.7 498.657344 13.5 498.657344 
z
" style="fill: #ffffff; opacity: 0.85; stroke: #cccccc; stroke-linejoin: miter"/>
    </g>
    <g id="patch_3">
     <path d="M 15.3 479.394531 
L 33.3 479.394531 
L 33.3 473.094531 
L 15.3 473.094531 
z
" style="fill: #e74c3c; stroke: #888888; stroke-linejoin: miter"/>
    </g>
    <g id="text_2">
     <!-- Bahamas -->
     <g transform="translate(40.5 479.394531) scale(0.09 -0.09)">
      <defs>
       <path id="DejaVuSans-25" d="M 1259 2228 
L 1259 519 
L 2272 519 
Q 2781 519 3026 730 
Q 3272 941 3272 1375 
Q 3272 1813 3026 2020 
Q 2781 2228 2272 2228 
L 1259 2228 
z
M 1259 4147 
L 1259 2741 
L 2194 2741 
Q 2656 2741 2882 2914 
Q 3109 3088 3109 3444 
Q 3109 3797 2882 3972 
Q 2656 4147 2194 4147 
L 1259 4147 
z
M 628 4666 
L 2241 4666 
Q 2963 4666 3353 4366 
Q 3744 4066 3744 3513 
Q 3744 3084 3544 2831 
Q 3344 2578 2956 2516 
Q 3422 2416 3680 2098 
Q 3938 1781 3938 1306 
Q 3938 681 3513 340 
Q 3088 0 2303 0 
L 628 0 
L 628 4666 
z
" transform="scale(0.015625)"/>
       <path id="DejaVuSans-44" d="M 2194 1759 
Q 1497 1759 1228 1600 
Q 959 1441 959 1056 
Q 959 750 1161 570 
Q 1363 391 1709 391 
Q 2188 391 2477 730 
Q 2766 1069 2766 1631 
L 2766 1759 
L 2194 1759 
z
M 3341 1997 
L 3341 0 
L 2766 0 
L 2766 531 
Q 2569 213 2275 61 
Q 1981 -91 1556 -91 
Q 1019 -91 701 211 
Q 384 513 384 1019 
Q 384 1609 779 1909 
Q 1175 2209 1959 2209 
L 2766 2209 
L 2766 2266 
Q 2766 2663 2505 2880 
Q 2244 3097 1772 3097 
Q 1472 3097 1187 3025 
Q 903 2953 641 2809 
L 641 3341 
Q 956 3463 1253 3523 
Q 1550 3584 1831 3584 
Q 2591 3584 2966 3190 
Q 3341 2797 3341 1997 
z
" transform="scale(0.015625)"/>
       <path id="DejaVuSans-4b" d="M 3513 2113 
L 3513 0 
L 2938 0 
L 2938 2094 
Q 2938 2591 2744 2837 
Q 2550 3084 2163 3084 
Q 1697 3084 1428 2787 
Q 1159 2491 1159 1978 
L 1159 0 
L 581 0 
L 581 4863 
L 1159 4863 
L 1159 2956 
Q 1366 3272 1645 3428 
Q 1925 3584 2291 3584 
Q 2894 3584 3203 3211 
Q 3513 2838 3513 2113 
z
" transform="scale(0.015625)"/>
       <path id="DejaVuSans-50" d="M 3328 2828 
Q 3544 3216 3844 3400 
Q 4144 3584 4550 3584 
Q 5097 3584 5394 3201 
Q 5691 2819 5691 2113 
L 5691 0 
L 5113 0 
L 5113 2094 
Q 5113 2597 4934 2840 
Q 4756 3084 4391 3084 
Q 3944 3084 3684 2787 
Q 3425 2491 3425 1978 
L 3425 0 
L 2847 0 
L 2847 2094 
Q 2847 2600 2669 2842 
Q 2491 3084 2119 3084 
Q 1678 3084 1418 2786 
Q 1159 2488 1159 1978 
L 1159 0 
L 581 0 
L 581 3500 
L 1159 3500 
L 1159 2956 
Q 1356 3278 1631 3431 
Q 1906 3584 2284 3584 
Q 2666 3584 2933 3390 
Q 3200 3197 3328 2828 
z
" transform="scale(0.015625)"/>
       <path id="DejaVuSans-56" d="M 2834 3397 
L 2834 2853 
Q 2591 2978 2328 3040 
Q 2066 3103 1784 3103 
Q 1356 3103 1142 2972 
Q 928 2841 928 2578 
Q 928 2378 1081 2264 
Q 1234 2150 1697 2047 
L 1894 2003 
Q 2506 1872 2764 1633 
Q 3022 1394 3022 966 
Q 3022 478 2636 193 
Q 2250 -91 1575 -91 
Q 1294 -91 989 -36 
Q 684 19 347 128 
L 347 722 
Q 666 556 975 473 
Q 1284 391 1588 391 
Q 1994 391 2212 530 
Q 2431 669 2431 922 
Q 2431 1156 2273 1281 
Q 2116 1406 1581 1522 
L 1381 1569 
Q 847 1681 609 1914 
Q 372 2147 372 2553 
Q 372 3047 722 3315 
Q 1072 3584 1716 3584 
Q 2034 3584 2315 3537 
Q 2597 3491 2834 3397 
z
" transform="scale(0.015625)"/>
      </defs>
      <use xlink:href="#DejaVuSans-25"/>
      <use xlink:href="#DejaVuSans-44" transform="translate(68.609375 0)"/>
      <use xlink:href="#DejaVuSans-4b" transform="translate(129.890625 0)"/>
      <use xlink:href="#DejaVuSans-44" transform="translate(193.265625 0)"/>
      <use xlink:href="#DejaVuSans-50" transform="translate(254.546875 0)"/>
      <use xlink:href="#DejaVuSans-44" transform="translate(351.953125 0)"/>
      <use xlink:href="#DejaVuSans-56" transform="translate(413.234375 0)"/>
     </g>
    </g>
    <g id="patch_4">
     <path d="M 15.3 492.895234 
L 33.3 492.895234 
L 33.3 486.595234 
L 15.3 486.595234 
z
" style="fill: #bdc3c7; stroke: #888888; stroke-linejoin: miter"/>
    </g>
    <g id="text_3">
     <!-- Neighbors -->
     <g transform="translate(40.5 492.895234) scale(0.09 -0.09)">
      <defs>
       <path id="DejaVuSans-31" d="M 628 4666 
L 1478 4666 
L 3547 763 
L 3547 4666 
L 4159 4666 
L 4159 0 
L 3309 0 
L 1241 3903 
L 1241 0 
L 628 0 
L 628 4666 
z
" transform="scale(0.015625)"/>
       <path id="DejaVuSans-48" d="M 3597 1894 
L 3597 1613 
L 953 1613 
Q 991 1019 1311 708 
Q 1631 397 2203 397 
Q 2534 397 2845 478 
Q 3156 559 3463 722 
L 3463 178 
Q 3153 47 2828 -22 
Q 2503 -91 2169 -91 
Q 1331 -91 842 396 
Q 353 884 353 1716 
Q 353 2575 817 3079 
Q 1281 3584 2069 3584 
Q 2775 3584 3186 3129 
Q 3597 2675 3597 1894 
z
M 3022 2063 
Q 3016 2534 2758 2815 
Q 2500 3097 2075 3097 
Q 1594 3097 1305 2825 
Q 1016 2553 972 2059 
L 3022 2063 
z
" transform="scale(0.015625)"/>
       <path id="DejaVuSans-4c" d="M 603 3500 
L 1178 3500 
L 1178 0 
L 603 0 
L 603 3500 
z
M 603 4863 
L 1178 4863 
L 1178 4134 
L 603 4134 
L 603 4863 
z
" transform="scale(0.015625)"/>
       <path id="DejaVuSans-4a" d="M 2906 1791 
Q 2906 2416 2648 2759 
Q 2391 3103 1925 3103 
Q 1463 3103 1205 2759 
Q 947 2416 947 1791 
Q 947 1169 1205 825 
Q 1463 481 1925 481 
Q 2391 481 2648 825 
Q 2906 1169 2906 1791 
z
M 3481 434 
Q 3481 -459 3084 -895 
Q 2688 -1331 1869 -1331 
Q 1566 -1331 1297 -1286 
Q 1028 -1241 775 -1147 
L 775 -588 
Q 1028 -725 1275 -790 
Q 1522 -856 1778 -856 
Q 2344 -856 2625 -561 
Q 2906 -266 2906 331 
L 2906 616 
Q 2728 306 2450 153 
Q 2172 0 1784 0 
Q 1141 0 747 490 
Q 353 981 353 1791 
Q 353 2603 747 3093 
Q 1141 3584 1784 3584 
Q 2172 3584 2450 3431 
Q 2728 3278 2906 2969 
L 2906 3500 
L 3481 3500 
L 3481 434 
z
" transform="scale(0.015625)"/>
       <path id="DejaVuSans-45" d="M 3116 1747 
Q 3116 2381 2855 2742 
Q 2594 3103 2138 3103 
Q 1681 3103 1420 2742 
Q 1159 2381 1159 1747 
Q 1159 1113 1420 752 
Q 1681 391 2138 391 
Q 2594 391 2855 752 
Q 3116 1113 3116 1747 
z
M 1159 2969 
Q 1341 3281 1617 3432 
Q 1894 3584 2278 3584 
Q 2916 3584 3314 3078 
Q 3713 2572 3713 1747 
Q 3713 922 3314 415 
Q 2916 -91 2278 -91 
Q 1894 -91 1617 61 
Q 1341 213 1159 525 
L 1159 0 
L 581 0 
L 581 4863 
L 1159 4863 
L 1159 2969 
z
" transform="scale(0.015625)"/>
       <path id="DejaVuSans-52" d="M 1959 3097 
Q 1497 3097 1228 2736 
Q 959 2375 959 1747 
Q 959 1119 1226 758 
Q 1494 397 1959 397 
Q 2419 397 2687 759 
Q 2956 1122 2956 1747 
Q 2956 2369 2687 2733 
Q 2419 3097 1959 3097 
z
M 1959 3584 
Q 2709 3584 3137 3096 
Q 3566 2609 3566 1747 
Q 3566 888 3137 398 
Q 2709 -91 1959 -91 
Q 1206 -91 779 398 
Q 353 888 353 1747 
Q 353 2609 779 3096 
Q 1206 3584 1959 3584 
z
" transform="scale(0.015625)"/>
       <path id="DejaVuSans-55" d="M 2631 2963 
Q 2534 3019 2420 3045 
Q 2306 3072 2169 3072 
Q 1681 3072 1420 2755 
Q 1159 2438 1159 1844 
L 1159 0 
L 581 0 
L 581 3500 
L 1159 3500 
L 1159 2956 
Q 1341 3275 1631 3429 
Q 1922 3584 2338 3584 
Q 2397 3584 2469 3576 
Q 2541 3569 2628 3553 
L 2631 2963 
z
" transform="scale(0.015625)"/>
      </defs>
      <use xlink:href="#DejaVuSans-31"/>
      <use xlink:href="#DejaVuSans-48" transform="translate(74.8125 0)"/>
      <use xlink:href="#DejaVuSans-4c" transform="translate(136.34375 0)"/>
      <use xlink:href="#DejaVuSans-4a" transform="translate(164.125 0)"/>
      <use xlink:href="#DejaVuSans-4b" transform="translate(227.609375 0)"/>
      <use xlink:href="#DejaVuSans-45" transform="translate(290.984375 0)"/>
      <use xlink:href="#DejaVuSans-52" transform="translate(354.46875 0)"/>
      <use xlink:href="#DejaVuSans-55" transform="translate(415.65625 0)"/>
      <use xlink:href="#DejaVuSans-56" transform="translate(456.765625 0)"/>
     </g>
    </g>
   </g>
  </g>
 </g>
 <defs>
  <clipPath id="pc8d6161f1d">
   <rect x="7.2" y="30.117344" width="471.211282" height="473.04"/>
  </clipPath>
 </defs>
</svg>
