<?xml version="1.0" encoding="utf-8" standalone="no"?>
<!DOCTYPE svg PUBLIC "-//W3C//DTD SVG 1.1//EN"
  "http://www.w3.org/Graphics/SVG/1.1/DTD/svg11.dtd">
<svg xmlns:xlink="http://www.w3.org/1999/xlink" width="482.602733pt" height="510.357344pt" viewBox="0 0 482.602733 510.357344" xmlns="http://www.w3.org/2000/svg" version="1.1">
 <metadata>
  <rdf:RDF xmlns:dc="http://purl.org/dc/elements/1.1/" xmlns:cc="http://creativecommons.org/ns#" xmlns:rdf="http://www.w3.org/1999/02/22-rdf-syntax-ns#">
   <cc:Work>
    <dc:type rdf:resource="http://purl.org/dc/dcmitype/StillImage"/>
    <dc:date>2026-06-19T08:36:33.534664</dc:date>
    <dc:format>image/svg+xml</dc:format>
    <dc:creator>
     <cc:Agent>
      <dc:title>Matplotlib v3.11.0, https://matplotlib.org/</dc:title>
     </cc:Agent>
    </dc:creator>
   </cc:Work>
  </rdf:RDF>
 </metadata>
 <defs>
  <style type="text/css">*{stroke-linejoin: round; stroke-linecap: butt}</style>
 </defs>
 <g id="figure_1">
  <g id="patch_1">
   <path d="M 0 510.357344 
L 482.602733 510.357344 
L 482.602733 0 
L 0 0 
z
" style="fill: #d6eaf8"/>
  </g>
  <g id="axes_1">
   <g id="PatchCollection_1">
    <path d="M 162.515068 456.838531 
L 164.030189 453.090725 
L 164.787749 450.092479 
L 164.030189 440.722963 
L 164.787749 438.099498 
L 166.30287 436.225595 
L 174.636037 438.849059 
L 179.1814 436.600375 
L 183.726763 433.60213 
L 189.029687 432.477788 
L 189.029687 433.227349 
L 197.362854 438.474279 
L 201.908217 440.348182 
L 204.180899 441.472524 
L 205.69602 443.346427 
L 210.998944 439.22384 
L 218.57455 437.349937 
L 226.907716 438.099498 
L 233.725761 440.348182 
L 233.725761 441.847305 
L 227.665276 442.222085 
L 223.119913 443.721208 
L 214.786747 447.843795 
L 210.241383 449.342918 
L 166.30287 455.714189 
z
" clip-path="url(#pf38c2a8570)" style="fill: #bdc3c7; stroke: #ffffff; stroke-width: 0.5"/>
    <path d="M 132.212645 308.050607 
L 138.273129 304.677581 
L 143.576053 303.178459 
L 151.151659 303.553239 
L 154.181901 305.801923 
L 156.454583 305.427143 
L 152.66678 302.803678 
L 151.151659 300.929775 
L 155.697022 302.054117 
L 163.272628 306.551485 
L 170.848234 311.048853 
L 174.636037 315.921001 
L 171.605794 316.295782 
L 170.090673 315.921001 
L 167.817991 316.670563 
L 166.30287 318.919247 
L 159.484825 316.295782 
L 157.212144 314.796659 
L 154.939462 311.048853 
L 154.181901 313.297537 
L 152.66678 311.798414 
L 148.121417 312.547975 
L 144.333614 312.173195 
L 142.060932 309.174949 
L 135.242887 311.423633 
z
" clip-path="url(#pf38c2a8570)" style="fill: #bdc3c7; stroke: #ffffff; stroke-width: 0.5"/>
    <path d="M 182.211642 313.672317 
L 185.241885 308.800169 
L 189.029687 307.301046 
L 192.81749 306.176704 
L 192.05993 304.677581 
L 193.575051 303.553239 
L 201.150656 305.427143 
L 204.180899 306.176704 
L 207.211141 307.675827 
L 210.998944 309.54973 
L 211.756504 311.798414 
L 209.483823 312.173195 
L 203.423338 310.299291 
L 201.908217 311.048853 
L 204.180899 314.047098 
L 202.665778 319.294027 
L 195.847732 315.546221 
L 185.241885 316.670563 
z
" clip-path="url(#pf38c2a8570)" style="fill: #bdc3c7; stroke: #ffffff; stroke-width: 0.5"/>
   </g>
   <g id="PatchCollection_2">
    <path d="M 201.150656 300.929775 
L 203.423338 298.30631 
L 207.211141 297.931529 
L 209.483823 294.933284 
L 210.998944 292.309819 
L 211.756504 288.936793 
L 216.301868 286.313329 
L 219.33211 287.437671 
L 223.877473 286.313329 
L 226.150155 287.06289 
L 232.9682 285.938548 
L 239.786245 286.688109 
L 242.058927 288.936793 
L 241.301367 290.061135 
L 239.028685 289.686355 
L 235.998443 288.936793 
L 232.9682 290.435916 
L 232.21064 291.935039 
L 229.937958 293.434161 
L 228.422837 294.183723 
L 226.907716 293.808942 
L 225.392595 293.059381 
L 223.877473 292.6846 
L 222.362352 292.6846 
L 222.362352 293.434161 
L 220.089671 295.308065 
L 218.57455 296.807187 
L 217.059428 296.432407 
L 215.544307 299.055871 
L 212.514065 301.679336 
L 208.726262 301.304555 
L 205.69602 301.304555 
z
" clip-path="url(#pf38c2a8570)" style="fill: #e74c3c; stroke: #ffffff; stroke-width: 0.6"/>
    <path d="M 257.967699 288.187232 
L 263.270623 281.066399 
L 264.785744 277.318593 
L 264.028184 272.821225 
L 264.785744 272.821225 
L 265.543305 273.196005 
L 265.543305 273.945567 
L 266.300865 274.320347 
L 278.421834 273.945567 
L 282.209637 272.821225 
L 280.694516 276.194251 
L 276.906713 278.442935 
L 273.11891 279.567277 
L 270.846229 279.942057 
L 269.331108 281.815961 
L 265.543305 285.188987 
L 260.997941 287.812451 
z
" clip-path="url(#pf38c2a8570)" style="fill: #e74c3c; stroke: #ffffff; stroke-width: 0.6"/>
    <path d="M 223.877473 307.675827 
L 226.150155 307.301046 
L 227.665276 306.926265 
L 228.422837 306.926265 
L 229.180397 306.551485 
L 231.453079 306.926265 
L 231.453079 308.800169 
L 231.453079 311.798414 
L 230.695519 312.173195 
L 229.937958 310.299291 
L 227.665276 309.174949 
L 224.635034 308.425388 
z
" clip-path="url(#pf38c2a8570)" style="fill: #e74c3c; stroke: #ffffff; stroke-width: 0.6"/>
    <path d="M 237.513564 283.315083 
L 238.271124 281.815961 
L 237.513564 279.567277 
L 238.271124 277.693373 
L 239.028685 276.943812 
L 239.786245 277.318593 
L 239.786245 279.567277 
L 239.786245 280.691619 
L 239.028685 282.940303 
L 238.271124 284.064645 
z
" clip-path="url(#pf38c2a8570)" style="fill: #e74c3c; stroke: #ffffff; stroke-width: 0.6"/>
    <path d="M 264.785744 221.101493 
L 283.724758 221.101493 
L 291.300364 223.724958 
L 294.330606 231.220571 
L 292.057925 230.84579 
L 279.936955 225.973642 
L 270.846229 225.22408 
L 267.058426 224.099738 
z
" clip-path="url(#pf38c2a8570)" style="fill: #e74c3c; stroke: #ffffff; stroke-width: 0.6"/>
    <path d="M 188.272127 288.562013 
L 189.029687 286.688109 
L 195.090172 285.563767 
L 197.362854 285.938548 
L 198.120414 286.688109 
L 198.877975 288.187232 
L 197.362854 289.311574 
L 191.302369 288.562013 
z
" clip-path="url(#pf38c2a8570)" style="fill: #e74c3c; stroke: #ffffff; stroke-width: 0.6"/>
   </g>
   <g id="text_1">
    <g id="patch_2">
     <path d="M 164.75341 450.682775 
L 218.639191 450.682775 
Q 220.039191 450.682775 220.039191 449.282775 
L 220.039191 442.282228 
Q 220.039191 440.882228 218.639191 440.882228 
L 164.75341 440.882228 
Q 163.35341 440.882228 163.35341 442.282228 
L 163.35341 449.282775 
Q 163.35341 450.682775 164.75341 450.682775 
z
" clip-path="url(#pf38c2a8570)" style="fill: #ffffff; opacity: 0.6"/>
    </g>
    <g clip-path="url(#pf38c2a8570)">
     <!-- U.S. Virgin Is. -->
     <g style="fill: #1a252f" transform="translate(164.75341 447.601134) scale(0.07 -0.07)">
      <defs>
       <path id="DejaVuSans-Bold-38" d="M 588 4666 
L 1791 4666 
L 1791 1869 
Q 1791 1291 1980 1042 
Q 2169 794 2597 794 
Q 3028 794 3217 1042 
Q 3406 1291 3406 1869 
L 3406 4666 
L 4609 4666 
L 4609 1869 
Q 4609 878 4112 393 
Q 3616 -91 2597 -91 
Q 1581 -91 1084 393 
Q 588 878 588 1869 
L 588 4666 
z
" transform="scale(0.015625)"/>
       <path id="DejaVuSans-Bold-11" d="M 653 1209 
L 1778 1209 
L 1778 0 
L 653 0 
L 653 1209 
z
" transform="scale(0.015625)"/>
       <path id="DejaVuSans-Bold-36" d="M 3834 4519 
L 3834 3531 
Q 3450 3703 3084 3790 
Q 2719 3878 2394 3878 
Q 1963 3878 1756 3759 
Q 1550 3641 1550 3391 
Q 1550 3203 1689 3098 
Q 1828 2994 2194 2919 
L 2706 2816 
Q 3484 2659 3812 2340 
Q 4141 2022 4141 1434 
Q 4141 663 3683 286 
Q 3225 -91 2284 -91 
Q 1841 -91 1394 -6 
Q 947 78 500 244 
L 500 1259 
Q 947 1022 1364 901 
Q 1781 781 2169 781 
Q 2563 781 2772 912 
Q 2981 1044 2981 1288 
Q 2981 1506 2839 1625 
Q 2697 1744 2272 1838 
L 1806 1941 
Q 1106 2091 782 2419 
Q 459 2747 459 3303 
Q 459 4000 909 4375 
Q 1359 4750 2203 4750 
Q 2588 4750 2994 4692 
Q 3400 4634 3834 4519 
z
" transform="scale(0.015625)"/>
       <path id="DejaVuSans-Bold-3" transform="scale(0.015625)"/>
       <path id="DejaVuSans-Bold-39" d="M 31 4666 
L 1241 4666 
L 2478 1222 
L 3713 4666 
L 4922 4666 
L 3194 0 
L 1759 0 
L 31 4666 
z
" transform="scale(0.015625)"/>
       <path id="DejaVuSans-Bold-4c" d="M 538 3500 
L 1656 3500 
L 1656 0 
L 538 0 
L 538 3500 
z
M 538 4863 
L 1656 4863 
L 1656 3950 
L 538 3950 
L 538 4863 
z
" transform="scale(0.015625)"/>
       <path id="DejaVuSans-Bold-55" d="M 3138 2547 
Q 2991 2616 2845 2648 
Q 2700 2681 2553 2681 
Q 2122 2681 1889 2404 
Q 1656 2128 1656 1613 
L 1656 0 
L 538 0 
L 538 3500 
L 1656 3500 
L 1656 2925 
Q 1872 3269 2151 3426 
Q 2431 3584 2822 3584 
Q 2878 3584 2943 3579 
Q 3009 3575 3134 3559 
L 3138 2547 
z
" transform="scale(0.015625)"/>
       <path id="DejaVuSans-Bold-4a" d="M 2919 594 
Q 2688 288 2409 144 
Q 2131 0 1766 0 
Q 1125 0 706 504 
Q 288 1009 288 1791 
Q 288 2575 706 3076 
Q 1125 3578 1766 3578 
Q 2131 3578 2409 3434 
Q 2688 3291 2919 2981 
L 2919 3500 
L 4044 3500 
L 4044 353 
Q 4044 -491 3511 -936 
Q 2978 -1381 1966 -1381 
Q 1638 -1381 1331 -1331 
Q 1025 -1281 716 -1178 
L 716 -306 
Q 1009 -475 1290 -558 
Q 1572 -641 1856 -641 
Q 2406 -641 2662 -400 
Q 2919 -159 2919 353 
L 2919 594 
z
M 2181 2772 
Q 1834 2772 1640 2515 
Q 1447 2259 1447 1791 
Q 1447 1309 1634 1061 
Q 1822 813 2181 813 
Q 2531 813 2725 1069 
Q 2919 1325 2919 1791 
Q 2919 2259 2725 2515 
Q 2531 2772 2181 2772 
z
" transform="scale(0.015625)"/>
       <path id="DejaVuSans-Bold-51" d="M 4056 2131 
L 4056 0 
L 2931 0 
L 2931 347 
L 2931 1631 
Q 2931 2084 2911 2256 
Q 2891 2428 2841 2509 
Q 2775 2619 2662 2680 
Q 2550 2741 2406 2741 
Q 2056 2741 1856 2470 
Q 1656 2200 1656 1722 
L 1656 0 
L 538 0 
L 538 3500 
L 1656 3500 
L 1656 2988 
Q 1909 3294 2193 3439 
Q 2478 3584 2822 3584 
Q 3428 3584 3742 3212 
Q 4056 2841 4056 2131 
z
" transform="scale(0.015625)"/>
       <path id="DejaVuSans-Bold-2c" d="M 588 4666 
L 1791 4666 
L 1791 0 
L 588 0 
L 588 4666 
z
" transform="scale(0.015625)"/>
       <path id="DejaVuSans-Bold-56" d="M 3272 3391 
L 3272 2541 
Q 2913 2691 2578 2766 
Q 2244 2841 1947 2841 
Q 1628 2841 1473 2761 
Q 1319 2681 1319 2516 
Q 1319 2381 1436 2309 
Q 1553 2238 1856 2203 
L 2053 2175 
Q 2913 2066 3209 1816 
Q 3506 1566 3506 1031 
Q 3506 472 3093 190 
Q 2681 -91 1863 -91 
Q 1516 -91 1145 -36 
Q 775 19 384 128 
L 384 978 
Q 719 816 1070 734 
Q 1422 653 1784 653 
Q 2113 653 2278 743 
Q 2444 834 2444 1013 
Q 2444 1163 2330 1236 
Q 2216 1309 1875 1350 
L 1678 1375 
Q 931 1469 631 1722 
Q 331 1975 331 2491 
Q 331 3047 712 3315 
Q 1094 3584 1881 3584 
Q 2191 3584 2531 3537 
Q 2872 3491 3272 3391 
z
" transform="scale(0.015625)"/>
      </defs>
      <use xlink:href="#DejaVuSans-Bold-38"/>
      <use xlink:href="#DejaVuSans-Bold-11" transform="translate(81.203125 0)"/>
      <use xlink:href="#DejaVuSans-Bold-36" transform="translate(119.1875 0)"/>
      <use xlink:href="#DejaVuSans-Bold-11" transform="translate(191.203125 0)"/>
      <use xlink:href="#DejaVuSans-Bold-3" transform="translate(229.1875 0)"/>
      <use xlink:href="#DejaVuSans-Bold-39" transform="translate(264 0)"/>
      <use xlink:href="#DejaVuSans-Bold-4c" transform="translate(339.640625 0)"/>
      <use xlink:href="#DejaVuSans-Bold-55" transform="translate(373.921875 0)"/>
      <use xlink:href="#DejaVuSans-Bold-4a" transform="translate(423.234375 0)"/>
      <use xlink:href="#DejaVuSans-Bold-4c" transform="translate(494.8125 0)"/>
      <use xlink:href="#DejaVuSans-Bold-51" transform="translate(529.09375 0)"/>
      <use xlink:href="#DejaVuSans-Bold-3" transform="translate(600.28125 0)"/>
      <use xlink:href="#DejaVuSans-Bold-2c" transform="translate(635.09375 0)"/>
      <use xlink:href="#DejaVuSans-Bold-56" transform="translate(672.296875 0)"/>
      <use xlink:href="#DejaVuSans-Bold-11" transform="translate(731.8125 0)"/>
     </g>
    </g>
   </g>
   <g id="text_2">
    <!-- British Virgin Is. -->
    <g style="fill: #1a252f" transform="translate(163.679101 20.117344) scale(0.17 -0.17)">
     <defs>
      <path id="DejaVuSans-Bold-25" d="M 2456 2859 
Q 2741 2859 2887 2984 
Q 3034 3109 3034 3353 
Q 3034 3594 2887 3720 
Q 2741 3847 2456 3847 
L 1791 3847 
L 1791 2859 
L 2456 2859 
z
M 2497 819 
Q 2859 819 3042 972 
Q 3225 1125 3225 1434 
Q 3225 1738 3044 1889 
Q 2863 2041 2497 2041 
L 1791 2041 
L 1791 819 
L 2497 819 
z
M 3616 2497 
Q 4003 2384 4215 2081 
Q 4428 1778 4428 1338 
Q 4428 663 3972 331 
Q 3516 0 2584 0 
L 588 0 
L 588 4666 
L 2394 4666 
Q 3366 4666 3802 4372 
Q 4238 4078 4238 3431 
Q 4238 3091 4078 2852 
Q 3919 2613 3616 2497 
z
" transform="scale(0.015625)"/>
      <path id="DejaVuSans-Bold-57" d="M 1759 4494 
L 1759 3500 
L 2913 3500 
L 2913 2700 
L 1759 2700 
L 1759 1216 
Q 1759 972 1856 886 
Q 1953 800 2241 800 
L 2816 800 
L 2816 0 
L 1856 0 
Q 1194 0 917 276 
Q 641 553 641 1216 
L 641 2700 
L 84 2700 
L 84 3500 
L 641 3500 
L 641 4494 
L 1759 4494 
z
" transform="scale(0.015625)"/>
      <path id="DejaVuSans-Bold-4b" d="M 4056 2131 
L 4056 0 
L 2931 0 
L 2931 347 
L 2931 1625 
Q 2931 2084 2911 2256 
Q 2891 2428 2841 2509 
Q 2775 2619 2662 2680 
Q 2550 2741 2406 2741 
Q 2056 2741 1856 2470 
Q 1656 2200 1656 1722 
L 1656 0 
L 538 0 
L 538 4863 
L 1656 4863 
L 1656 2988 
Q 1909 3294 2193 3439 
Q 2478 3584 2822 3584 
Q 3428 3584 3742 3212 
Q 4056 2841 4056 2131 
z
" transform="scale(0.015625)"/>
     </defs>
     <use xlink:href="#DejaVuSans-Bold-25"/>
     <use xlink:href="#DejaVuSans-Bold-55" transform="translate(76.21875 0)"/>
     <use xlink:href="#DejaVuSans-Bold-4c" transform="translate(125.53125 0)"/>
     <use xlink:href="#DejaVuSans-Bold-57" transform="translate(159.8125 0)"/>
     <use xlink:href="#DejaVuSans-Bold-4c" transform="translate(207.609375 0)"/>
     <use xlink:href="#DejaVuSans-Bold-56" transform="translate(241.890625 0)"/>
     <use xlink:href="#DejaVuSans-Bold-4b" transform="translate(301.40625 0)"/>
     <use xlink:href="#DejaVuSans-Bold-3" transform="translate(372.59375 0)"/>
     <use xlink:href="#DejaVuSans-Bold-39" transform="translate(407.40625 0)"/>
     <use xlink:href="#DejaVuSans-Bold-4c" transform="translate(483.046875 0)"/>
     <use xlink:href="#DejaVuSans-Bold-55" transform="translate(517.328125 0)"/>
     <use xlink:href="#DejaVuSans-Bold-4a" transform="translate(566.640625 0)"/>
     <use xlink:href="#DejaVuSans-Bold-4c" transform="translate(638.21875 0)"/>
     <use xlink:href="#DejaVuSans-Bold-51" transform="translate(672.5 0)"/>
     <use xlink:href="#DejaVuSans-Bold-3" transform="translate(743.6875 0)"/>
     <use xlink:href="#DejaVuSans-Bold-2c" transform="translate(778.5 0)"/>
     <use xlink:href="#DejaVuSans-Bold-56" transform="translate(815.703125 0)"/>
     <use xlink:href="#DejaVuSans-Bold-11" transform="translate(875.21875 0)"/>
    </g>
   </g>
   <g id="line2d_1">
    <path d="M 273.21228 326.628623 
" clip-path="url(#pf38c2a8570)" style="fill: none; stroke: #ffffff; stroke-width: 1.5; stroke-linecap: square"/>
    <defs>
     <path id="m3746176570" d="M 0 2.5 
C 0.663008 2.5 1.29895 2.236584 1.767767 1.767767 
C 2.236584 1.29895 2.5 0.663008 2.5 0 
C 2.5 -0.663008 2.236584 -1.29895 1.767767 -1.767767 
C 1.29895 -2.236584 0.663008 -2.5 0 -2.5 
C -0.663008 -2.5 -1.29895 -2.236584 -1.767767 -1.767767 
C -2.236584 -1.29895 -2.5 -0.663008 -2.5 0 
C -2.5 0.663008 -2.236584 1.29895 -1.767767 1.767767 
C -1.29895 2.236584 -0.663008 2.5 0 2.5 
z
" style="stroke: #1a252f; stroke-width: 0.8"/>
    </defs>
    <g clip-path="url(#pf38c2a8570)">
     <use xlink:href="#m3746176570" x="273.21228" y="326.628623" style="fill: #ffffff; stroke: #1a252f; stroke-width: 0.8"/>
    </g>
   </g>
   <g id="text_3">
    <g clip-path="url(#pf38c2a8570)">
     <!-- Road Town -->
     <g style="fill: #ffffff" transform="translate(295.846296 328.577158) scale(0.075 -0.075)">
      <defs>
       <path id="DejaVuSans-Bold-35" d="M 2297 2597 
Q 2675 2597 2839 2737 
Q 3003 2878 3003 3200 
Q 3003 3519 2839 3656 
Q 2675 3794 2297 3794 
L 1791 3794 
L 1791 2597 
L 2297 2597 
z
M 1791 1766 
L 1791 0 
L 588 0 
L 588 4666 
L 2425 4666 
Q 3347 4666 3776 4356 
Q 4206 4047 4206 3378 
Q 4206 2916 3982 2619 
Q 3759 2322 3309 2181 
Q 3556 2125 3751 1926 
Q 3947 1728 4147 1325 
L 4800 0 
L 3519 0 
L 2950 1159 
Q 2778 1509 2601 1637 
Q 2425 1766 2131 1766 
L 1791 1766 
z
" transform="scale(0.015625)"/>
       <path id="DejaVuSans-Bold-52" d="M 2203 2784 
Q 1831 2784 1636 2517 
Q 1441 2250 1441 1747 
Q 1441 1244 1636 976 
Q 1831 709 2203 709 
Q 2569 709 2762 976 
Q 2956 1244 2956 1747 
Q 2956 2250 2762 2517 
Q 2569 2784 2203 2784 
z
M 2203 3584 
Q 3106 3584 3614 3096 
Q 4122 2609 4122 1747 
Q 4122 884 3614 396 
Q 3106 -91 2203 -91 
Q 1297 -91 786 396 
Q 275 884 275 1747 
Q 275 2609 786 3096 
Q 1297 3584 2203 3584 
z
" transform="scale(0.015625)"/>
       <path id="DejaVuSans-Bold-44" d="M 2106 1575 
Q 1756 1575 1579 1456 
Q 1403 1338 1403 1106 
Q 1403 894 1545 773 
Q 1688 653 1941 653 
Q 2256 653 2472 879 
Q 2688 1106 2688 1447 
L 2688 1575 
L 2106 1575 
z
M 3816 1997 
L 3816 0 
L 2688 0 
L 2688 519 
Q 2463 200 2181 54 
Q 1900 -91 1497 -91 
Q 953 -91 614 226 
Q 275 544 275 1050 
Q 275 1666 698 1953 
Q 1122 2241 2028 2241 
L 2688 2241 
L 2688 2328 
Q 2688 2594 2478 2717 
Q 2269 2841 1825 2841 
Q 1466 2841 1156 2769 
Q 847 2697 581 2553 
L 581 3406 
Q 941 3494 1303 3539 
Q 1666 3584 2028 3584 
Q 2975 3584 3395 3211 
Q 3816 2838 3816 1997 
z
" transform="scale(0.015625)"/>
       <path id="DejaVuSans-Bold-47" d="M 2919 2988 
L 2919 4863 
L 4044 4863 
L 4044 0 
L 2919 0 
L 2919 506 
Q 2688 197 2409 53 
Q 2131 -91 1766 -91 
Q 1119 -91 703 423 
Q 288 938 288 1747 
Q 288 2556 703 3070 
Q 1119 3584 1766 3584 
Q 2128 3584 2408 3439 
Q 2688 3294 2919 2988 
z
M 2181 722 
Q 2541 722 2730 984 
Q 2919 1247 2919 1747 
Q 2919 2247 2730 2509 
Q 2541 2772 2181 2772 
Q 1825 2772 1636 2509 
Q 1447 2247 1447 1747 
Q 1447 1247 1636 984 
Q 1825 722 2181 722 
z
" transform="scale(0.015625)"/>
       <path id="DejaVuSans-Bold-37" d="M 31 4666 
L 4331 4666 
L 4331 3756 
L 2784 3756 
L 2784 0 
L 1581 0 
L 1581 3756 
L 31 3756 
L 31 4666 
z
" transform="scale(0.015625)"/>
       <path id="DejaVuSans-Bold-5a" d="M 225 3500 
L 1313 3500 
L 1900 1088 
L 2491 3500 
L 3425 3500 
L 4013 1113 
L 4603 3500 
L 5691 3500 
L 4769 0 
L 3547 0 
L 2956 2406 
L 2369 0 
L 1147 0 
L 225 3500 
z
" transform="scale(0.015625)"/>
      </defs>
      <use xlink:href="#DejaVuSans-Bold-35"/>
      <use xlink:href="#DejaVuSans-Bold-52" transform="translate(77 0)"/>
      <use xlink:href="#DejaVuSans-Bold-44" transform="translate(145.703125 0)"/>
      <use xlink:href="#DejaVuSans-Bold-47" transform="translate(213.1875 0)"/>
      <use xlink:href="#DejaVuSans-Bold-3" transform="translate(284.765625 0)"/>
      <use xlink:href="#DejaVuSans-Bold-37" transform="translate(319.578125 0)"/>
      <use xlink:href="#DejaVuSans-Bold-52" transform="translate(374.515625 0)"/>
      <use xlink:href="#DejaVuSans-Bold-5a" transform="translate(443.21875 0)"/>
      <use xlink:href="#DejaVuSans-Bold-51" transform="translate(535.609375 0)"/>
     </g>
    </g>
   </g>
   <g id="legend_1">
    <g id="patch_3">
     <path d="M 13.5 498.657344 
L 112.93875 498.657344 
Q 114.73875 498.657344 114.73875 496.857344 
L 114.73875 470.755937 
Q 114.73875 468.955937 112.93875 468.955937 
L 13.5 468.955937 
Q 11.7 468.955937 11.7 470.755937 
L 11.7 496.857344 
Q 11.7 498.657344 13.5 498.657344 
z
" style="fill: #ffffff; opacity: 0.85; stroke: #cccccc; stroke-linejoin: miter"/>
    </g>
    <g id="patch_4">
     <path d="M 15.3 479.394531 
L 33.3 479.394531 
L 33.3 473.094531 
L 15.3 473.094531 
z
" style="fill: #e74c3c; stroke: #888888; stroke-linejoin: miter"/>
    </g>
    <g id="text_4">
     <!-- British Virgin Is. -->
     <g transform="translate(40.5 479.394531) scale(0.09 -0.09)">
      <defs>
       <path id="DejaVuSans-25" d="M 1259 2228 
L 1259 519 
L 2272 519 
Q 2781 519 3026 730 
Q 3272 941 3272 1375 
Q 3272 1813 3026 2020 
Q 2781 2228 2272 2228 
L 1259 2228 
z
M 1259 4147 
L 1259 2741 
L 2194 2741 
Q 2656 2741 2882 2914 
Q 3109 3088 3109 3444 
Q 3109 3797 2882 3972 
Q 2656 4147 2194 4147 
L 1259 4147 
z
M 628 4666 
L 2241 4666 
Q 2963 4666 3353 4366 
Q 3744 4066 3744 3513 
Q 3744 3084 3544 2831 
Q 3344 2578 2956 2516 
Q 3422 2416 3680 2098 
Q 3938 1781 3938 1306 
Q 3938 681 3513 340 
Q 3088 0 2303 0 
L 628 0 
L 628 4666 
z
" transform="scale(0.015625)"/>
       <path id="DejaVuSans-55" d="M 2631 2963 
Q 2534 3019 2420 3045 
Q 2306 3072 2169 3072 
Q 1681 3072 1420 2755 
Q 1159 2438 1159 1844 
L 1159 0 
L 581 0 
L 581 3500 
L 1159 3500 
L 1159 2956 
Q 1341 3275 1631 3429 
Q 1922 3584 2338 3584 
Q 2397 3584 2469 3576 
Q 2541 3569 2628 3553 
L 2631 2963 
z
" transform="scale(0.015625)"/>
       <path id="DejaVuSans-4c" d="M 603 3500 
L 1178 3500 
L 1178 0 
L 603 0 
L 603 3500 
z
M 603 4863 
L 1178 4863 
L 1178 4134 
L 603 4134 
L 603 4863 
z
" transform="scale(0.015625)"/>
       <path id="DejaVuSans-57" d="M 1172 4494 
L 1172 3500 
L 2356 3500 
L 2356 3053 
L 1172 3053 
L 1172 1153 
Q 1172 725 1289 603 
Q 1406 481 1766 481 
L 2356 481 
L 2356 0 
L 1766 0 
Q 1100 0 847 248 
Q 594 497 594 1153 
L 594 3053 
L 172 3053 
L 172 3500 
L 594 3500 
L 594 4494 
L 1172 4494 
z
" transform="scale(0.015625)"/>
       <path id="DejaVuSans-56" d="M 2834 3397 
L 2834 2853 
Q 2591 2978 2328 3040 
Q 2066 3103 1784 3103 
Q 1356 3103 1142 2972 
Q 928 2841 928 2578 
Q 928 2378 1081 2264 
Q 1234 2150 1697 2047 
L 1894 2003 
Q 2506 1872 2764 1633 
Q 3022 1394 3022 966 
Q 3022 478 2636 193 
Q 2250 -91 1575 -91 
Q 1294 -91 989 -36 
Q 684 19 347 128 
L 347 722 
Q 666 556 975 473 
Q 1284 391 1588 391 
Q 1994 391 2212 530 
Q 2431 669 2431 922 
Q 2431 1156 2273 1281 
Q 2116 1406 1581 1522 
L 1381 1569 
Q 847 1681 609 1914 
Q 372 2147 372 2553 
Q 372 3047 722 3315 
Q 1072 3584 1716 3584 
Q 2034 3584 2315 3537 
Q 2597 3491 2834 3397 
z
" transform="scale(0.015625)"/>
       <path id="DejaVuSans-4b" d="M 3513 2113 
L 3513 0 
L 2938 0 
L 2938 2094 
Q 2938 2591 2744 2837 
Q 2550 3084 2163 3084 
Q 1697 3084 1428 2787 
Q 1159 2491 1159 1978 
L 1159 0 
L 581 0 
L 581 4863 
L 1159 4863 
L 1159 2956 
Q 1366 3272 1645 3428 
Q 1925 3584 2291 3584 
Q 2894 3584 3203 3211 
Q 3513 2838 3513 2113 
z
" transform="scale(0.015625)"/>
       <path id="DejaVuSans-3" transform="scale(0.015625)"/>
       <path id="DejaVuSans-39" d="M 1831 0 
L 50 4666 
L 709 4666 
L 2188 738 
L 3669 4666 
L 4325 4666 
L 2547 0 
L 1831 0 
z
" transform="scale(0.015625)"/>
       <path id="DejaVuSans-4a" d="M 2906 1791 
Q 2906 2416 2648 2759 
Q 2391 3103 1925 3103 
Q 1463 3103 1205 2759 
Q 947 2416 947 1791 
Q 947 1169 1205 825 
Q 1463 481 1925 481 
Q 2391 481 2648 825 
Q 2906 1169 2906 1791 
z
M 3481 434 
Q 3481 -459 3084 -895 
Q 2688 -1331 1869 -1331 
Q 1566 -1331 1297 -1286 
Q 1028 -1241 775 -1147 
L 775 -588 
Q 1028 -725 1275 -790 
Q 1522 -856 1778 -856 
Q 2344 -856 2625 -561 
Q 2906 -266 2906 331 
L 2906 616 
Q 2728 306 2450 153 
Q 2172 0 1784 0 
Q 1141 0 747 490 
Q 353 981 353 1791 
Q 353 2603 747 3093 
Q 1141 3584 1784 3584 
Q 2172 3584 2450 3431 
Q 2728 3278 2906 2969 
L 2906 3500 
L 3481 3500 
L 3481 434 
z
" transform="scale(0.015625)"/>
       <path id="DejaVuSans-51" d="M 3513 2113 
L 3513 0 
L 2938 0 
L 2938 2094 
Q 2938 2591 2744 2837 
Q 2550 3084 2163 3084 
Q 1697 3084 1428 2787 
Q 1159 2491 1159 1978 
L 1159 0 
L 581 0 
L 581 3500 
L 1159 3500 
L 1159 2956 
Q 1366 3272 1645 3428 
Q 1925 3584 2291 3584 
Q 2894 3584 3203 3211 
Q 3513 2838 3513 2113 
z
" transform="scale(0.015625)"/>
       <path id="DejaVuSans-2c" d="M 628 4666 
L 1259 4666 
L 1259 0 
L 628 0 
L 628 4666 
z
" transform="scale(0.015625)"/>
       <path id="DejaVuSans-11" d="M 684 794 
L 1344 794 
L 1344 0 
L 684 0 
L 684 794 
z
" transform="scale(0.015625)"/>
      </defs>
      <use xlink:href="#DejaVuSans-25"/>
      <use xlink:href="#DejaVuSans-55" transform="translate(68.609375 0)"/>
      <use xlink:href="#DejaVuSans-4c" transform="translate(109.71875 0)"/>
      <use xlink:href="#DejaVuSans-57" transform="translate(137.5 0)"/>
      <use xlink:href="#DejaVuSans-4c" transform="translate(176.703125 0)"/>
      <use xlink:href="#DejaVuSans-56" transform="translate(204.484375 0)"/>
      <use xlink:href="#DejaVuSans-4b" transform="translate(256.578125 0)"/>
      <use xlink:href="#DejaVuSans-3" transform="translate(319.953125 0)"/>
      <use xlink:href="#DejaVuSans-39" transform="translate(351.734375 0)"/>
      <use xlink:href="#DejaVuSans-4c" transform="translate(417.9375 0)"/>
      <use xlink:href="#DejaVuSans-55" transform="translate(445.71875 0)"/>
      <use xlink:href="#DejaVuSans-4a" transform="translate(485.078125 0)"/>
      <use xlink:href="#DejaVuSans-4c" transform="translate(548.5625 0)"/>
      <use xlink:href="#DejaVuSans-51" transform="translate(576.34375 0)"/>
      <use xlink:href="#DejaVuSans-3" transform="translate(639.71875 0)"/>
      <use xlink:href="#DejaVuSans-2c" transform="translate(671.5 0)"/>
      <use xlink:href="#DejaVuSans-56" transform="translate(701 0)"/>
      <use xlink:href="#DejaVuSans-11" transform="translate(753.09375 0)"/>
     </g>
    </g>
    <g id="patch_5">
     <path d="M 15.3 492.895234 
L 33.3 492.895234 
L 33.3 486.595234 
L 15.3 486.595234 
z
" style="fill: #bdc3c7; stroke: #888888; stroke-linejoin: miter"/>
    </g>
    <g id="text_5">
     <!-- Neighbors -->
     <g transform="translate(40.5 492.895234) scale(0.09 -0.09)">
      <defs>
       <path id="DejaVuSans-31" d="M 628 4666 
L 1478 4666 
L 3547 763 
L 3547 4666 
L 4159 4666 
L 4159 0 
L 3309 0 
L 1241 3903 
L 1241 0 
L 628 0 
L 628 4666 
z
" transform="scale(0.015625)"/>
       <path id="DejaVuSans-48" d="M 3597 1894 
L 3597 1613 
L 953 1613 
Q 991 1019 1311 708 
Q 1631 397 2203 397 
Q 2534 397 2845 478 
Q 3156 559 3463 722 
L 3463 178 
Q 3153 47 2828 -22 
Q 2503 -91 2169 -91 
Q 1331 -91 842 396 
Q 353 884 353 1716 
Q 353 2575 817 3079 
Q 1281 3584 2069 3584 
Q 2775 3584 3186 3129 
Q 3597 2675 3597 1894 
z
M 3022 2063 
Q 3016 2534 2758 2815 
Q 2500 3097 2075 3097 
Q 1594 3097 1305 2825 
Q 1016 2553 972 2059 
L 3022 2063 
z
" transform="scale(0.015625)"/>
       <path id="DejaVuSans-45" d="M 3116 1747 
Q 3116 2381 2855 2742 
Q 2594 3103 2138 3103 
Q 1681 3103 1420 2742 
Q 1159 2381 1159 1747 
Q 1159 1113 1420 752 
Q 1681 391 2138 391 
Q 2594 391 2855 752 
Q 3116 1113 3116 1747 
z
M 1159 2969 
Q 1341 3281 1617 3432 
Q 1894 3584 2278 3584 
Q 2916 3584 3314 3078 
Q 3713 2572 3713 1747 
Q 3713 922 3314 415 
Q 2916 -91 2278 -91 
Q 1894 -91 1617 61 
Q 1341 213 1159 525 
L 1159 0 
L 581 0 
L 581 4863 
L 1159 4863 
L 1159 2969 
z
" transform="scale(0.015625)"/>
       <path id="DejaVuSans-52" d="M 1959 3097 
Q 1497 3097 1228 2736 
Q 959 2375 959 1747 
Q 959 1119 1226 758 
Q 1494 397 1959 397 
Q 2419 397 2687 759 
Q 2956 1122 2956 1747 
Q 2956 2369 2687 2733 
Q 2419 3097 1959 3097 
z
M 1959 3584 
Q 2709 3584 3137 3096 
Q 3566 2609 3566 1747 
Q 3566 888 3137 398 
Q 2709 -91 1959 -91 
Q 1206 -91 779 398 
Q 353 888 353 1747 
Q 353 2609 779 3096 
Q 1206 3584 1959 3584 
z
" transform="scale(0.015625)"/>
      </defs>
      <use xlink:href="#DejaVuSans-31"/>
      <use xlink:href="#DejaVuSans-48" transform="translate(74.8125 0)"/>
      <use xlink:href="#DejaVuSans-4c" transform="translate(136.34375 0)"/>
      <use xlink:href="#DejaVuSans-4a" transform="translate(164.125 0)"/>
      <use xlink:href="#DejaVuSans-4b" transform="translate(227.609375 0)"/>
      <use xlink:href="#DejaVuSans-45" transform="translate(290.984375 0)"/>
      <use xlink:href="#DejaVuSans-52" transform="translate(354.46875 0)"/>
      <use xlink:href="#DejaVuSans-55" transform="translate(415.65625 0)"/>
      <use xlink:href="#DejaVuSans-56" transform="translate(456.765625 0)"/>
     </g>
    </g>
   </g>
  </g>
 </g>
 <defs>
  <clipPath id="pf38c2a8570">
   <rect x="7.2" y="30.117344" width="468.202733" height="473.04"/>
  </clipPath>
 </defs>
</svg>
