<?xml version="1.0" encoding="utf-8" standalone="no"?>
<!DOCTYPE svg PUBLIC "-//W3C//DTD SVG 1.1//EN"
  "http://www.w3.org/Graphics/SVG/1.1/DTD/svg11.dtd">
<svg xmlns:xlink="http://www.w3.org/1999/xlink" width="536.626923pt" height="510.357344pt" viewBox="0 0 536.626923 510.357344" xmlns="http://www.w3.org/2000/svg" version="1.1">
 <metadata>
  <rdf:RDF xmlns:dc="http://purl.org/dc/elements/1.1/" xmlns:cc="http://creativecommons.org/ns#" xmlns:rdf="http://www.w3.org/1999/02/22-rdf-syntax-ns#">
   <cc:Work>
    <dc:type rdf:resource="http://purl.org/dc/dcmitype/StillImage"/>
    <dc:date>2026-06-19T08:14:06.037570</dc:date>
    <dc:format>image/svg+xml</dc:format>
    <dc:creator>
     <cc:Agent>
      <dc:title>Matplotlib v3.11.0, https://matplotlib.org/</dc:title>
     </cc:Agent>
    </dc:creator>
   </cc:Work>
  </rdf:RDF>
 </metadata>
 <defs>
  <style type="text/css">*{stroke-linejoin: round; stroke-linecap: butt}</style>
 </defs>
 <g id="figure_1">
  <g id="patch_1">
   <path d="M 0 510.357344 
L 536.626923 510.357344 
L 536.626923 0 
L 0 0 
z
" style="fill: #d6eaf8"/>
  </g>
  <g id="axes_1">
   <g id="PatchCollection_1">
    <path d="M -550.060894 688.428035 
L -550.060894 686.00627 
L -548.917114 684.122675 
L -542.626326 679.010061 
L -541.482546 677.126466 
L -538.623097 673.628361 
L -534.619868 666.093982 
L -531.760419 657.752348 
L -530.616639 660.443198 
L -530.616639 663.941302 
L -528.90097 670.399342 
L -528.90097 673.628361 
L -529.47286 676.050126 
L -530.04475 678.471891 
L -530.04475 680.893656 
L -528.90097 684.39176 
L -524.325851 691.118884 
L -520.894512 694.078819 
L -518.035063 696.500584 
L -508.312936 700.536858 
L -502.594037 704.304048 
L -495.731359 706.994898 
L -493.4438 709.147577 
L -491.156241 711.838427 
L -488.868681 717.489212 
L -486.581122 719.910976 
L -484.293563 720.449146 
L -476.858995 720.180061 
L -474.571436 719.910976 
L -472.283876 718.565551 
L -468.852537 718.296466 
L -448.836393 718.296466 
L -446.548834 718.834636 
L -443.689384 720.987316 
L -441.401825 721.525486 
L -440.829935 721.256401 
L -438.542376 719.103721 
L -437.398596 718.296466 
L -435.682927 717.758297 
L -435.111037 717.758297 
L -433.967257 718.296466 
L -429.964028 722.601826 
L -428.820249 722.870911 
L -428.248359 720.180061 
L -426.532689 718.296466 
L -426.532689 717.220127 
L -426.532689 716.143787 
L -427.104579 714.529277 
L -427.676469 713.991107 
L -427.676469 708.878493 
L -427.676469 707.533068 
L -425.38891 704.034963 
L -423.10135 702.420453 
L -420.813791 703.227708 
L -419.670011 707.802153 
L -417.954342 709.685747 
L -417.382452 710.762087 
L -417.382452 711.838427 
L -417.954342 713.991107 
L -417.382452 715.067447 
L -416.810562 716.143787 
L -416.238672 717.220127 
L -415.666782 717.758297 
L -414.523003 718.296466 
L -413.379223 718.834636 
L -411.663554 719.103721 
L -408.232215 719.372806 
L -406.516545 718.834636 
L -404.800876 715.605617 
L -400.225757 713.991107 
L -397.366308 712.376597 
L -394.506859 712.107512 
L -392.791189 715.067447 
L -394.506859 717.489212 
L -395.650638 719.641891 
L -396.794418 722.332741 
L -396.794418 725.292676 
L -397.366308 726.638101 
L -400.225757 729.598035 
L -401.369537 731.48163 
L -396.794418 729.598035 
L -395.078748 729.32895 
L -392.791189 730.40529 
L -391.075519 732.0198 
L -390.50363 733.903395 
L -389.93174 735.24882 
L -388.21607 735.78699 
L -387.072291 735.517905 
L -383.640952 733.903395 
L -381.925282 733.63431 
L -379.637723 734.441565 
L -372.775045 737.939669 
L -363.624807 740.630519 
L -359.621579 743.052284 
L -357.905909 746.819473 
L -359.049689 750.855748 
L -361.337248 753.546598 
L -367.628036 757.582872 
L -367.628036 758.659212 
L -363.624807 758.659212 
L -360.193468 758.121042 
L -357.334019 756.506532 
L -353.90268 753.815683 
L -352.187011 750.855748 
L -352.7589 747.626728 
L -353.33079 744.935879 
L -353.33079 742.245029 
L -349.327561 739.016009 
L -341.892994 740.092349 
L -328.167638 745.743133 
L -321.30496 750.048493 
L -309.295273 762.157317 
L -303.576375 766.193591 
L -293.854247 771.037121 
L -292.138578 771.844376 
L -288.135349 771.306206 
L -282.988341 768.346271 
L -279.557002 767.269931 
L -274.409993 769.422611 
L -268.691095 774.26614 
L -262.400306 777.226075 
L -255.537628 773.997055 
L -258.397078 773.72797 
L -262.400306 772.113461 
L -264.687866 771.844376 
L -265.259756 770.768036 
L -266.975425 766.193591 
L -268.119205 765.386336 
L -270.406764 764.848166 
L -274.981883 763.233657 
L -277.269442 763.233657 
L -278.985112 763.771826 
L -284.70401 766.193591 
L -288.135349 766.462676 
L -291.566688 765.655421 
L -293.854247 763.771826 
L -296.141807 761.350062 
L -299.001256 759.466467 
L -305.863934 756.506532 
L -308.723383 754.353852 
L -311.582832 746.819473 
L -314.442281 743.859539 
L -315.586061 741.706859 
L -315.586061 737.132414 
L -315.586061 735.78699 
L -313.298502 730.40529 
L -312.154722 724.485421 
L -310.439053 722.332741 
L -301.288815 720.718231 
L -297.857476 720.449146 
L -294.426137 721.525486 
L -292.710468 724.485421 
L -290.422908 728.25261 
L -288.135349 730.40529 
L -284.13212 728.79078 
L -282.416451 728.25261 
L -280.128891 729.86712 
L -277.269442 731.212545 
L -273.838103 730.40529 
L -277.269442 729.32895 
L -278.413222 728.521695 
L -281.272671 726.369016 
L -282.988341 726.369016 
L -284.13212 726.369016 
L -287.563459 725.561761 
L -288.707239 725.561761 
L -288.707239 725.292676 
L -289.279129 723.139996 
L -290.994798 720.718231 
L -291.566688 719.910976 
L -292.138578 719.372806 
L -294.998027 718.834636 
L -295.569917 718.296466 
L -296.141807 717.758297 
L -300.145036 711.300257 
L -300.716925 709.147577 
L -301.288815 706.725813 
L -300.145036 705.918558 
L -296.713697 705.111303 
L -295.569917 704.034963 
L -296.141807 703.227708 
L -298.429366 701.613198 
L -299.001256 700.267773 
L -298.429366 697.038754 
L -297.285586 694.078819 
L -293.854247 688.69712 
L -288.707239 678.471891 
L -284.13212 663.672217 
L -283.56023 659.905028 
L -282.988341 659.097773 
L -280.700781 659.366858 
L -277.841332 660.443198 
L -273.838103 660.174113 
L -277.841332 656.676008 
L -278.413222 652.908819 
L -276.125662 650.756139 
L -273.266213 651.025224 
L -269.834874 652.101564 
L -264.115976 653.446989 
L -262.972196 652.908819 
L -260.684637 651.563394 
L -259.540857 650.487054 
L -256.681408 646.450779 
L -256.109518 645.105355 
L -257.825188 643.75993 
L -259.540857 644.2981 
L -261.256527 646.181694 
L -262.400306 649.948884 
L -264.115976 650.487054 
L -265.831645 649.679799 
L -270.406764 646.988949 
L -273.266213 646.450779 
L -284.70401 648.065289 
L -286.991569 647.796204 
L -288.135349 646.181694 
L -288.135349 642.414505 
L -286.991569 639.99274 
L -284.70401 637.30189 
L -281.272671 635.687381 
L -278.413222 636.494635 
L -280.128891 633.534701 
L -282.988341 632.189276 
L -285.84779 631.651106 
L -286.991569 630.574766 
L -286.991569 627.614831 
L -284.70401 620.080452 
L -283.56023 609.047969 
L -281.272671 604.473524 
L -277.269442 601.513589 
L -276.125662 604.204439 
L -273.838103 605.280779 
L -268.691095 607.164374 
L -266.975425 608.509799 
L -262.972196 613.622413 
L -261.256527 614.698753 
L -260.684637 614.967838 
L -259.540857 616.044178 
L -258.397078 616.582348 
L -257.253298 616.313263 
L -252.106289 612.815158 
L -250.39062 612.276988 
L -245.243611 611.469733 
L -244.099832 611.738818 
L -241.240382 613.891498 
L -237.809043 615.775093 
L -239.524713 612.815158 
L -242.384162 609.586138 
L -247.531171 604.742609 
L -249.24684 602.859014 
L -250.96251 596.13189 
L -252.106289 593.710125 
L -246.959281 593.97921 
L -242.956052 595.324635 
L -238.952823 595.324635 
L -236.093374 592.633785 
L -234.949594 593.171955 
L -234.949594 593.44104 
L -234.377704 593.171955 
L -233.805815 592.633785 
L -237.237154 591.28836 
L -242.956052 589.942936 
L -245.815501 588.328426 
L -247.531171 586.713916 
L -249.24684 584.830321 
L -250.39062 582.408556 
L -249.81873 578.641367 
L -247.531171 568.685223 
L -246.387391 562.496269 
L -245.243611 560.343589 
L -243.527942 558.459994 
L -232.090145 549.58019 
L -214.93345 538.816791 
L -209.786442 536.664111 
L -179.47628 530.475157 
L -155.456907 529.667902 
L -110.27761 517.828164 
L -66.242093 506.25751 
L -42.22272 501.144895 
L -32.500592 497.108621 
L -30.213033 497.108621 
L -2.762321 488.497902 
L 2.384688 485.807052 
L 10.963035 476.658163 
L 14.394374 470.738294 
L 12.106815 466.971104 
L 13.250594 465.625679 
L 17.825713 462.93483 
L 25.260281 456.207705 
L 26.975951 455.131365 
L 27.54784 453.785941 
L 33.266739 445.444307 
L 45.276425 434.411823 
L 48.135874 430.106463 
L 48.707764 428.761038 
L 49.279654 427.415614 
L 49.279654 423.917509 
L 50.423434 422.302999 
L 53.854773 419.612149 
L 54.998552 418.53581 
L 56.142332 416.9213 
L 63.5769 408.310581 
L 67.008239 401.852541 
L 68.723909 398.085352 
L 68.723909 394.587247 
L 70.439578 391.627312 
L 73.299027 388.936463 
L 79.589815 385.169273 
L 118.478324 352.071822 
L 151.647935 308.480057 
L 155.079274 300.945677 
L 153.935494 294.487638 
L 157.366833 289.375024 
L 159.082503 282.647899 
L 159.082503 275.11352 
L 155.079274 260.044762 
L 156.223053 257.353912 
L 160.226282 256.277572 
L 170.520299 261.390187 
L 179.098647 262.735612 
L 182.529986 264.350122 
L 187.676994 268.386396 
L 191.680223 270.000906 
L 193.395893 271.346331 
L 194.539672 274.57535 
L 195.683452 274.844435 
L 197.971011 275.11352 
L 199.114791 275.382605 
L 199.686681 276.458945 
L 199.686681 277.80437 
L 200.258571 278.88071 
L 201.97424 280.764305 
L 202.54613 282.378815 
L 204.2618 286.953259 
L 204.2618 291.258619 
L 205.977469 294.487638 
L 207.121249 301.752932 
L 206.549359 303.367442 
L 204.2618 305.251037 
L 204.2618 306.058292 
L 204.2618 308.480057 
L 204.833689 310.094566 
L 210.552588 310.363651 
L 217.415266 311.709076 
L 223.706054 310.632736 
L 226.565503 310.632736 
L 228.853063 312.785416 
L 232.284402 323.010645 
L 233.428181 325.97058 
L 235.715741 329.199599 
L 246.009758 338.348488 
L 249.441097 340.770253 
L 250.584876 341.846593 
L 251.156766 343.461103 
L 252.300546 347.497377 
L 253.444326 348.842802 
L 259.735114 349.650057 
L 267.169682 345.075613 
L 282.038817 331.083194 
L 283.182597 328.930514 
L 284.326377 322.20339 
L 284.898267 319.243455 
L 288.901495 313.861756 
L 290.045275 310.901821 
L 289.473385 307.941887 
L 284.326377 310.094566 
L 284.326377 306.865547 
L 285.470156 305.251037 
L 286.042046 304.443782 
L 290.045275 300.676592 
L 291.760945 297.985743 
L 292.904724 295.294893 
L 294.620394 289.105939 
L 294.620394 284.800579 
L 293.476614 283.993324 
L 291.189055 284.262409 
L 288.329606 283.186069 
L 285.470156 278.611625 
L 284.326377 272.960841 
L 283.754487 254.124893 
L 283.182597 250.626788 
L 282.038817 247.397768 
L 279.179368 241.477899 
L 278.035588 238.517964 
L 278.035588 235.827115 
L 279.751258 234.48169 
L 285.470156 232.059925 
L 288.329606 230.445415 
L 293.476614 225.332801 
L 296.336063 223.718291 
L 299.767402 222.641951 
L 302.626851 222.911036 
L 305.486301 223.449206 
L 308.34575 223.180121 
L 310.633309 221.565611 
L 311.777089 219.143846 
L 311.777089 216.722082 
L 312.348979 214.031232 
L 316.352207 210.533127 
L 318.067877 209.725873 
L 319.211657 208.649533 
L 320.355436 207.573193 
L 321.499216 206.227768 
L 322.642996 209.456788 
L 322.642996 215.645742 
L 323.786775 221.296526 
L 322.642996 233.94352 
L 323.214886 247.128683 
L 324.358665 253.317638 
L 330.077564 265.695546 
L 331.793233 271.884501 
L 333.508903 287.491429 
L 334.652682 289.913194 
L 336.940242 291.258619 
L 346.090479 294.756723 
L 349.521818 295.294893 
L 354.096937 294.756723 
L 355.240716 295.294893 
L 358.100165 297.447573 
L 359.243945 298.254828 
L 362.675284 297.985743 
L 363.819064 298.523913 
L 366.678513 300.407508 
L 370.681742 302.022017 
L 374.113081 302.291102 
L 376.40064 299.600253 
L 375.82875 296.371233 
L 373.541191 292.873128 
L 367.822293 287.760514 
L 364.390954 282.916984 
L 362.103394 276.458945 
L 361.531505 269.731821 
L 361.531505 263.542867 
L 362.675284 257.353912 
L 363.247174 254.393978 
L 362.103394 250.626788 
L 351.809377 220.758356 
L 347.806148 214.838487 
L 346.090479 213.493062 
L 343.80292 212.685807 
L 342.08725 211.071297 
L 342.08725 207.304108 
L 344.946699 207.573193 
L 347.234259 207.304108 
L 348.949928 205.958683 
L 350.665598 200.576984 
L 352.381267 199.231559 
L 354.668826 199.500644 
L 356.384496 201.653323 
L 356.956386 202.729663 
L 357.528276 202.998748 
L 360.959615 202.998748 
L 362.675284 203.267833 
L 364.390954 203.806003 
L 365.534733 204.613258 
L 367.250403 207.842278 
L 370.109852 208.649533 
L 373.541191 208.918618 
L 375.82875 208.380448 
L 377.54442 207.035023 
L 383.263318 201.653323 
L 383.835208 200.846069 
L 390.125996 195.195284 
L 395.273005 188.737245 
L 396.988674 187.660905 
L 400.420013 187.122735 
L 403.279463 185.77731 
L 406.138912 183.893715 
L 407.282691 182.010121 
L 408.426471 179.588356 
L 409.570251 173.130317 
L 409.570251 167.210447 
L 410.142141 165.865022 
L 411.85781 162.636003 
L 413.00159 161.290578 
L 414.717259 160.214238 
L 415.289149 159.137898 
L 414.145369 156.985218 
L 407.854581 159.676068 
L 402.135683 159.676068 
L 396.988674 157.254303 
L 382.691428 145.14548 
L 382.119539 143.53097 
L 382.691428 142.185545 
L 382.691428 141.109205 
L 380.975759 140.84012 
L 380.403869 141.109205 
L 376.97253 143.800055 
L 376.40064 141.91646 
L 376.40064 139.76378 
L 377.54442 137.072931 
L 378.6882 131.960316 
L 379.831979 129.807636 
L 380.975759 128.193127 
L 381.547649 127.116787 
L 383.263318 125.233192 
L 391.269776 120.389662 
L 393.557335 117.160643 
L 395.273005 114.738878 
L 406.138912 106.666329 
L 411.85781 94.557505 
L 415.289149 91.597571 
L 417.576708 95.095675 
L 411.85781 105.320904 
L 415.289149 109.895349 
L 415.861039 108.280839 
L 416.432929 103.975479 
L 417.576708 102.360969 
L 422.723717 106.935414 
L 426.155056 108.549924 
L 439.880412 109.357179 
L 444.455531 109.088094 
L 449.030649 107.742669 
L 453.605768 103.706394 
L 458.180887 97.248355 
L 461.040336 90.252146 
L 462.756005 83.794106 
L 464.471675 76.797897 
L 465.043565 73.837963 
L 466.759234 71.147113 
L 469.046794 69.263518 
L 483.34404 61.460054 
L 486.203489 58.500119 
L 486.775379 55.002015 
L 487.347268 47.73672 
L 488.491048 44.507701 
L 498.213175 28.631687 
L 500.500735 21.904563 
L 497.641285 17.061034 
L 494.209946 18.406459 
L 493.066167 16.253779 
L 494.781836 13.293844 
L 499.356955 11.679334 
L 502.216404 10.064825 
L 509.650972 -1.236744 
L 513.082311 -4.196679 
L 515.36987 -5.273019 
L 517.65743 -5.811189 
L 519.944989 -5.003934 
L 522.232548 -3.927594 
L 523.948218 -3.658509 
L 525.091998 -5.273019 
L 524.520108 -10.385633 
L 522.232548 -10.923803 
L 519.373099 -9.309293 
L 515.36987 -9.040208 
L 515.36987 -9.847463 
L 519.944989 -12.269228 
L 522.232548 -14.960078 
L 522.804438 -15.498248 
L 523.948218 -15.767333 
L 527.379557 -15.498248 
L 528.523337 -16.574588 
L 529.095226 -17.112757 
L 529.095226 -17.920012 
L 530.239006 -23.032627 
L 530.810896 -23.839882 
L 531.382786 -25.185307 
L 533.098455 -27.068901 
L 547.395701 -37.8323 
L 549.683261 -40.254065 
L 552.54271 -42.406745 
L 555.402159 -43.75217 
L 557.689718 -45.366679 
L 558.833498 -48.864784 
L 558.833498 -51.824719 
L 559.405388 -54.784653 
L 560.549167 -57.206418 
L 562.836727 -58.013673 
L 565.696176 -60.166353 
L 575.418303 -73.351516 
L 577.705862 -75.773281 
L 579.421532 -77.925961 
L 580.565312 -80.885895 
L 580.565312 -84.92217 
L 580.565312 -90.303869 
L 580.565312 -91.918379 
L 581.137201 -92.994719 
L 583.424761 -95.685569 
L 583.996651 -97.300079 
L 583.424761 -103.489033 
L 583.996651 -106.179883 
L 588.571769 -108.332562 
L 589.715549 -110.754327 
L 591.431219 -116.943281 
L 591.431219 -120.441386 
L 592.003108 -122.055896 
L 593.146888 -122.594066 
L 593.718778 -123.132236 
L 595.434447 -125.554001 
L 596.578227 -127.437595 
L 597.722007 -128.78302 
L 599.437676 -129.85936 
L 601.153346 -130.128445 
L 601.725236 -129.590275 
L 603.440905 -125.823085 
L 610.303583 -121.517726 
L 610.875473 -119.903216 
L 613.163032 -108.332562 
L 610.303583 -109.947072 
L 608.587914 -110.485242 
L 608.016024 -109.947072 
L 606.872244 -104.834458 
L 606.872244 -104.027203 
L 608.587914 -102.412693 
L 610.875473 -101.605438 
L 613.163032 -100.260013 
L 614.306812 -96.761909 
L 613.734922 -90.572954 
L 612.019253 -86.267595 
L 606.872244 -78.733216 
L 604.012795 -73.351516 
L 601.725236 -66.355307 
L 602.297125 -60.704523 
L 608.587914 -59.090013 
L 612.019253 -60.973608 
L 614.878702 -63.933542 
L 616.594371 -66.624392 
L 618.310041 -67.969817 
L 620.02571 -68.777072 
L 627.460278 -75.504196 
L 632.607287 -79.271386 
L 633.751066 -81.424065 
L 634.322956 -86.805765 
L 634.894846 -87.61302 
L 636.038626 -87.882105 
L 637.182405 -88.68936 
L 639.469965 -92.994719 
L 645.188863 -98.914588 
L 645.760753 -101.336353 
L 645.188863 -104.565373 
L 641.185634 -111.561582 
L 641.757524 -114.790602 
L 642.901304 -116.674197 
L 644.045083 -116.943281 
L 645.760753 -116.405112 
L 647.476422 -115.866942 
L 648.620202 -116.405112 
L 649.763982 -117.750536 
L 650.335872 -118.826876 
L 649.763982 -119.365046 
L 648.620202 -120.172301 
L 648.048312 -121.786811 
L 648.620202 -123.670406 
L 649.192092 -124.746746 
L 650.907761 -125.015831 
L 652.623431 -124.477661 
L 654.3391 -123.939491 
L 655.48288 -123.670406 
L 657.19855 -124.477661 
L 659.486109 -126.361255 
L 660.629889 -126.361255 
L 661.773668 -125.554001 
L 665.776897 -123.939491 
L 666.920677 -123.670406 
L 667.492567 -122.863151 
L 676.070914 -118.019621 
L 676.642804 -117.212366 
L 677.214694 -115.866942 
L 677.786584 -113.176092 
L 676.642804 -105.641713 
L 676.070914 -104.027203 
L 673.783355 -102.950863 
L 673.211465 -99.990928 
L 673.211465 -96.761909 
L 674.355245 -94.071059 
L 680.074143 -86.53668 
L 680.646033 -83.84583 
L 681.217923 -73.889686 
L 681.789813 -71.198837 
L 683.505482 -67.969817 
L 685.793041 -66.624392 
L 692.08383 -66.893477 
L 694.371389 -66.086222 
L 696.658948 -64.202627 
L 700.090287 -60.435438 
L 704.093516 -56.668248 
L 706.952965 -54.515568 
L 709.812415 -53.708313 
L 712.099974 -54.515568 
L 713.815643 -56.130078 
L 717.818872 -62.588117 
L 720.106432 -65.548052 
L 721.250211 -65.548052 
L 721.822101 -63.126287 
L 722.393991 -58.551843 
L 722.965881 -58.551843 
L 726.39722 -54.784653 
L 725.82533 -55.053738 
L 725.25344 -54.246483 
L 725.25344 -53.439228 
L 725.25344 -52.631974 
L 725.82533 -52.362889 
L 728.112889 -51.824719 
L 728.684779 -51.555634 
L 730.972338 -49.402954 
L 732.688008 -48.595699 
L 734.403677 -48.326614 
L 736.691237 -49.402954 
L 738.406906 -49.672039 
L 740.122576 -48.864784 
L 744.125805 -44.559424 
L 745.841474 -41.868575 
L 746.985254 -38.37047 
L 748.129034 -38.37047 
L 748.700923 -39.715895 
L 749.844703 -40.52315 
L 750.416593 -40.254065 
L 751.560373 -39.44681 
L 752.132262 -38.37047 
L 752.132262 -37.29413 
L 752.132262 -35.67962 
L 752.704152 -34.065111 
L 753.276042 -32.450601 
L 754.419822 -29.759751 
L 754.991712 -28.683411 
L 754.419822 -27.068901 
L 753.276042 -25.723477 
L 752.704152 -24.378052 
L 753.847932 -20.072692 
L 752.704152 -9.578378 
L 751.560373 -7.156614 
L 749.272813 -6.887529 
L 744.125805 -7.694784 
L 740.694466 -6.887529 
L 737.835017 -4.734849 
L 733.259898 -0.698574 
L 732.116118 1.992275 
L 732.688008 4.41404 
L 736.119347 8.450315 
L 738.978796 14.639269 
L 741.266356 15.715609 
L 741.838245 16.522864 
L 741.838245 18.137374 
L 742.410135 19.482798 
L 742.410135 20.828223 
L 741.838245 22.711818 
L 740.694466 24.057243 
L 738.978796 24.595413 
L 737.835017 25.133583 
L 737.263127 27.017178 
L 738.406906 29.708027 
L 740.694466 30.246197 
L 742.982025 31.322537 
L 744.125805 35.358812 
L 742.982025 37.780576 
L 740.694466 40.202341 
L 734.975567 43.431361 
L 714.959423 50.158485 
L 710.956194 54.463845 
L 713.815643 53.925675 
L 722.965881 49.8894 
L 726.96911 49.082145 
L 738.406906 48.81306 
L 749.272813 47.467635 
L 756.707381 48.543975 
L 759.56683 48.27489 
L 760.71061 46.391296 
L 759.56683 42.355021 
L 760.71061 41.278681 
L 762.426279 41.547766 
L 764.713839 42.085936 
L 767.001398 42.355021 
L 769.860847 42.085936 
L 777.295415 40.740511 
L 778.439195 39.664171 
L 779.582975 37.511492 
L 781.870534 35.627897 
L 786.445653 32.667962 
L 791.592661 25.940838 
L 794.45211 24.326328 
L 795.024 23.519073 
L 796.16778 23.249988 
L 798.455339 23.788158 
L 803.602348 29.438942 
L 804.174237 30.784367 
L 804.174237 32.667962 
L 804.174237 34.013387 
L 807.033687 35.627897 
L 807.033687 37.511492 
L 807.033687 40.740511 
L 807.605576 44.507701 
L 814.468255 53.387505 
L 815.612034 54.19476 
L 815.612034 55.2711 
L 811.036915 61.460054 
L 808.177466 62.805479 
L 804.746127 63.881819 
L 801.314788 64.150904 
L 798.455339 63.074564 
L 795.59589 63.881819 
L 785.873763 63.074564 
L 783.014314 63.881819 
L 781.298644 65.765413 
L 781.298644 67.918093 
L 782.442424 68.725348 
L 783.014314 69.801688 
L 788.161322 82.179597 
L 789.305102 83.255936 
L 789.876992 83.525021 
L 791.020771 82.986851 
L 792.736441 82.717767 
L 795.024 81.910512 
L 801.314788 78.950577 
L 804.174237 78.412407 
L 805.318017 78.681492 
L 806.461797 80.026917 
L 808.177466 80.565087 
L 809.321246 80.296002 
L 811.036915 79.488747 
L 812.752585 79.219662 
L 813.896365 80.026917 
L 815.612034 82.448682 
L 816.755814 82.986851 
L 818.471483 82.179597 
L 819.615263 80.565087 
L 819.615263 78.950577 
L 819.043373 77.336067 
L 820.187153 74.645217 
L 820.759043 73.568878 
L 821.902822 72.223453 
L 821.902822 71.147113 
L 820.759043 68.187178 
L 821.330933 66.303583 
L 823.618492 64.419989 
L 830.48117 63.881819 
L 837.343848 60.921884 
L 840.775187 61.729139 
L 848.781645 66.034498 
L 849.925424 66.303583 
L 850.497314 65.496328 
L 852.212984 63.612734 
L 853.356763 63.074564 
L 855.072433 63.881819 
L 856.788102 64.689074 
L 857.931882 65.227243 
L 860.791331 66.034498 
L 876.804247 75.452472 
L 882.523145 80.026917 
L 884.810704 81.372342 
L 887.670154 82.717767 
L 889.957713 84.063191 
L 891.101493 86.215871 
L 889.957713 87.830381 
L 888.813933 88.637636 
L 888.242043 89.175806 
L 887.670154 89.983061 
L 885.954484 98.862865 
L 884.810704 102.360969 
L 884.238814 105.589989 
L 885.382594 109.088094 
L 886.526374 109.088094 
L 888.242043 105.051819 
L 888.813933 103.168224 
L 889.957713 101.822799 
L 891.101493 100.20829 
L 890.529603 95.90293 
L 891.101493 94.28842 
L 895.676611 91.328486 
L 899.10795 91.328486 
L 901.967399 93.481165 
L 909.401967 102.630054 
L 912.833306 105.589989 
L 915.120866 106.666329 
L 919.695984 107.473584 
L 922.555433 109.626264 
L 924.842993 112.855283 
L 925.986773 116.622473 
L 927.130552 115.815218 
L 927.702442 115.007963 
L 927.702442 113.931623 
L 927.702442 112.317113 
L 935.13701 117.967898 
L 937.996459 118.775153 
L 941.427798 120.389662 
L 944.287247 123.618682 
L 944.859137 127.116787 
L 941.999688 128.731296 
L 943.715357 130.076721 
L 946.002917 130.883976 
L 948.862366 130.883976 
L 950.578035 129.807636 
L 951.149925 127.654957 
L 950.006146 126.040447 
L 950.006146 124.695022 
L 951.721815 123.349597 
L 955.725044 123.349597 
L 963.159612 127.385872 
L 968.30662 127.654957 
L 980.316307 121.735087 
L 984.319536 120.927832 
L 987.178985 122.273257 
L 989.466544 124.695022 
L 992.897883 129.807636 
L 996.329222 133.305741 
L 998.044892 135.189336 
L 998.616782 137.880185 
L 998.044892 141.37829 
L 996.901112 146.759989 
L 996.329222 149.450839 
L 997.473002 156.716133 
L 996.901112 160.752408 
L 993.469773 163.981428 
L 985.463315 172.323062 
L 979.172527 175.821166 
L 950.006146 186.584565 
L 920.267874 195.195284 
L 914.548976 198.693389 
L 911.117637 200.307899 
L 907.114408 201.384238 
L 903.683069 201.653323 
L 901.39551 201.115153 
L 896.248501 198.962474 
L 891.673382 198.424304 
L 888.242043 197.347964 
L 886.526374 197.347964 
L 884.810704 198.155219 
L 879.663696 201.653323 
L 876.232357 203.806003 
L 875.088577 203.806003 
L 872.801018 202.191493 
L 871.657238 201.115153 
L 868.797789 196.271624 
L 863.65078 189.813585 
L 858.503772 187.39182 
L 855.072433 186.31548 
L 853.928653 187.122735 
L 852.212984 186.584565 
L 848.781645 188.737245 
L 844.206526 193.042604 
L 842.490856 192.235349 
L 841.918967 192.773519 
L 841.347077 194.388029 
L 841.918967 196.271624 
L 835.628178 194.926199 
L 829.90928 198.424304 
L 821.330933 208.380448 
L 818.471483 210.264042 
L 817.327704 211.609467 
L 816.755814 213.223977 
L 816.755814 215.107572 
L 817.899594 215.914827 
L 818.471483 216.183912 
L 823.046602 218.874762 
L 823.618492 219.682016 
L 824.762272 221.296526 
L 826.477941 225.870971 
L 830.48117 231.79084 
L 834.484399 236.903455 
L 839.631407 241.477899 
L 845.350306 245.514174 
L 847.065975 247.397768 
L 848.781645 248.474108 
L 849.925424 248.743193 
L 851.641094 248.743193 
L 855.072433 249.281363 
L 856.216213 249.819533 
L 856.788102 250.626788 
L 857.931882 253.586723 
L 858.503772 254.663063 
L 859.647552 255.739402 
L 860.791331 256.277572 
L 863.65078 257.622997 
L 864.22267 254.663063 
L 865.93834 254.124893 
L 868.797789 254.932148 
L 871.085348 256.277572 
L 872.801018 258.430252 
L 873.372908 260.582932 
L 872.801018 262.466527 
L 870.513458 264.619206 
L 869.941569 266.502801 
L 871.657238 268.386396 
L 873.372908 270.000906 
L 874.516687 271.077246 
L 875.660467 272.153586 
L 878.519916 270.539076 
L 883.095035 267.310056 
L 884.810704 268.117311 
L 888.813933 268.655481 
L 891.101493 269.462736 
L 889.957713 271.615416 
L 891.673382 274.57535 
L 897.964171 281.57156 
L 897.964171 282.647899 
L 896.820391 284.262409 
L 895.104721 285.338749 
L 893.389052 285.069664 
L 892.245272 284.262409 
L 889.385823 283.724239 
L 890.529603 286.415089 
L 889.957713 288.836854 
L 888.242043 290.989534 
L 886.526374 292.604043 
L 884.238814 294.218553 
L 881.951255 294.756723 
L 875.660467 294.487638 
L 872.801018 295.025808 
L 867.654009 296.371233 
L 864.79456 296.909403 
L 857.931882 296.909403 
L 853.928653 296.371233 
L 851.641094 294.487638 
L 849.353535 297.447573 
L 848.209755 298.254828 
L 833.912509 302.291102 
L 821.330933 303.367442 
L 817.327704 304.712867 
L 796.16778 315.207181 
L 792.736441 315.476266 
L 783.014314 312.516331 
L 780.154864 311.978161 
L 778.439195 311.170906 
L 772.148407 305.520122 
L 769.860847 304.174697 
L 768.717068 303.636527 
L 767.573288 303.367442 
L 767.001398 302.829272 
L 765.857618 299.600253 
L 765.285729 299.062083 
L 762.998169 298.792998 
L 757.851161 296.909403 
L 753.847932 296.102148 
L 752.704152 295.563978 
L 749.272813 293.142213 
L 747.557144 290.451364 
L 745.841474 287.222344 
L 743.553915 284.262409 
L 740.694466 284.531494 
L 737.263127 286.953259 
L 734.403677 289.644109 
L 732.688008 291.258619 
L 733.831788 292.604043 
L 736.691237 294.487638 
L 737.263127 296.371233 
L 737.263127 302.829272 
L 737.835017 304.443782 
L 740.122576 306.865547 
L 740.694466 308.749142 
L 739.550686 310.632736 
L 738.406906 312.247246 
L 734.975567 314.399926 
L 733.831788 315.476266 
L 733.259898 316.821691 
L 732.116118 317.898031 
L 732.116118 319.243455 
L 732.688008 320.05071 
L 734.975567 322.74156 
L 736.119347 324.086985 
L 734.975567 323.8179 
L 733.259898 324.086985 
L 726.96911 326.777835 
L 725.25344 325.43241 
L 722.965881 324.625155 
L 718.390762 324.89424 
L 716.103203 324.625155 
L 710.384304 323.8179 
L 705.809186 322.74156 
L 702.377847 320.319795 
L 693.227609 310.901821 
L 680.646033 304.174697 
L 674.355245 300.138423 
L 673.211465 298.523913 
L 672.639575 296.909403 
L 670.923906 295.833063 
L 668.636346 295.563978 
L 666.920677 295.833063 
L 664.633118 298.254828 
L 662.917448 299.062083 
L 633.751066 299.600253 
L 624.600829 297.178488 
L 618.310041 297.178488 
L 605.728464 299.600253 
L 599.437676 298.254828 
L 593.718778 294.218553 
L 590.859329 293.680383 
L 585.71232 297.985743 
L 582.852871 298.792998 
L 579.993422 299.062083 
L 575.418303 297.447573 
L 571.415074 299.331168 
L 569.699405 299.331168 
L 562.836727 289.105939 
L 560.549167 288.836854 
L 559.977278 290.989534 
L 556.545939 294.218553 
L 555.402159 296.640318 
L 555.402159 298.254828 
L 555.974049 299.331168 
L 556.545939 300.407508 
L 554.830269 301.752932 
L 552.54271 302.560187 
L 550.25515 301.752932 
L 548.539481 301.752932 
L 545.108142 305.789207 
L 543.392472 306.327377 
L 541.676803 306.058292 
L 539.961133 305.251037 
L 535.957904 298.254828 
L 535.386015 296.371233 
L 534.814125 295.563978 
L 533.670345 295.294893 
L 532.526565 295.294893 
L 531.382786 295.294893 
L 527.379557 290.989534 
L 523.376328 291.796788 
L 518.801209 294.218553 
L 514.226091 295.563978 
L 511.938531 295.294893 
L 505.075853 293.142213 
L 501.072624 293.142213 
L 499.356955 292.873128 
L 497.641285 291.796788 
L 496.497506 295.294893 
L 495.353726 297.178488 
L 493.638057 298.523913 
L 490.778607 300.407508 
L 483.34404 307.941887 
L 481.05648 309.018227 
L 478.768921 308.210972 
L 477.053251 306.058292 
L 475.909472 303.636527 
L 475.337582 300.945677 
L 474.193802 299.869338 
L 472.478133 298.792998 
L 468.474904 297.447573 
L 461.612226 296.909403 
L 458.752777 296.102148 
L 457.037107 293.680383 
L 456.465217 291.258619 
L 454.749548 289.913194 
L 453.033878 290.182279 
L 450.746319 292.334958 
L 449.602539 297.447573 
L 449.602539 302.560187 
L 449.030649 307.403717 
L 442.739861 312.516331 
L 442.167971 314.669011 
L 441.596082 316.283521 
L 439.308522 316.821691 
L 437.592853 316.014436 
L 436.449073 314.669011 
L 435.305293 314.130841 
L 428.442615 320.319795 
L 427.298836 321.934305 
L 426.155056 322.74156 
L 423.295607 323.8179 
L 421.579937 325.163325 
L 420.436158 328.930514 
L 419.864268 331.621364 
L 417.576708 345.882868 
L 415.861039 352.609992 
L 413.00159 358.798946 
L 411.28592 360.682541 
L 405.567022 363.642476 
L 404.423242 364.718815 
L 404.423242 368.486005 
L 407.282691 370.638685 
L 410.142141 372.52228 
L 412.4297 374.944044 
L 412.4297 380.056659 
L 406.710802 398.623522 
L 405.567022 405.081561 
L 405.567022 411.270515 
L 406.138912 415.037705 
L 410.142141 424.724764 
L 410.142141 426.339274 
L 410.142141 429.568293 
L 410.142141 431.182803 
L 410.71403 433.335483 
L 413.00159 437.909927 
L 414.145369 441.138947 
L 414.717259 443.022542 
L 413.57348 444.367967 
L 411.85781 445.175222 
L 410.71403 444.637052 
L 408.998361 444.098882 
L 407.282691 443.829797 
L 403.851352 447.327901 
L 400.991903 454.593196 
L 395.844895 478.541758 
L 395.844895 481.501693 
L 398.132454 484.461627 
L 400.991903 485.268882 
L 400.991903 486.614307 
L 395.844895 493.879601 
L 394.701115 496.839536 
L 394.129225 503.56666 
L 392.985445 506.526595 
L 390.125996 507.602935 
L 383.835208 508.41019 
L 372.969301 512.984634 
L 368.394183 513.791889 
L 363.819064 511.639209 
L 359.815835 505.450255 
L 357.528276 504.912085 
L 354.668826 508.94836 
L 351.809377 514.599144 
L 350.093708 516.751824 
L 340.94347 522.940778 
L 338.655911 525.362543 
L 336.368352 528.860647 
L 335.796462 530.744242 
L 335.224572 532.358752 
L 334.652682 533.973262 
L 333.508903 535.856857 
L 331.221343 537.740451 
L 330.077564 538.278621 
L 329.505674 538.816791 
L 330.649453 540.969471 
L 334.652682 546.35117 
L 335.796462 549.58019 
L 334.080792 553.34738 
L 332.365123 554.692804 
L 330.649453 554.961889 
L 328.933784 555.500059 
L 327.790004 557.652739 
L 328.361894 558.998164 
L 330.077564 562.227184 
L 330.649453 563.841693 
L 329.505674 567.070713 
L 328.361894 570.568818 
L 327.790004 573.797837 
L 330.077564 576.219602 
L 332.365123 576.219602 
L 335.796462 574.605092 
L 337.512131 574.066922 
L 339.227801 574.336007 
L 340.94347 574.874177 
L 343.23103 575.681432 
L 344.946699 576.757772 
L 347.234259 579.448622 
L 349.521818 583.215811 
L 351.237487 586.713916 
L 351.809377 589.673851 
L 349.521818 592.633785 
L 346.090479 593.97921 
L 339.227801 594.51738 
L 335.796462 596.67006 
L 329.505674 603.397184 
L 327.218114 605.011694 
L 324.358665 606.088034 
L 317.495987 612.007903 
L 314.636538 613.891498 
L 308.34575 613.353328 
L 306.63008 614.429668 
L 305.486301 617.927773 
L 305.486301 621.425877 
L 306.05819 623.847642 
L 305.486301 625.731237 
L 300.911182 627.076662 
L 288.901495 628.691171 
L 283.754487 631.651106 
L 281.466927 637.84006 
L 279.751258 646.450779 
L 279.751258 649.410714 
L 280.323148 650.756139 
L 282.038817 653.446989 
L 282.610707 655.061498 
L 282.610707 660.174113 
L 282.610707 661.519538 
L 284.326377 665.286727 
L 286.042046 665.286727 
L 288.329606 664.210387 
L 292.332834 663.672217 
L 293.476614 664.748557 
L 294.620394 666.901237 
L 294.620394 669.323002 
L 294.048504 671.475682 
L 292.332834 674.704701 
L 291.760945 677.395551 
L 291.760945 680.086401 
L 292.332834 683.31542 
L 292.332834 686.54444 
L 290.045275 688.428035 
L 281.466927 691.926139 
L 272.88858 693.002479 
L 271.17291 693.540649 
L 269.457241 694.886074 
L 268.313461 696.231499 
L 267.169682 697.576924 
L 266.597792 699.460519 
L 267.169682 700.536858 
L 267.741571 701.613198 
L 267.741571 703.765878 
L 268.313461 708.609408 
L 266.597792 719.641891 
L 263.166453 727.983525 
L 259.163224 734.979735 
L 256.875665 737.670584 
L 251.156766 741.975944 
L 249.441097 744.666794 
L 249.441097 748.703068 
L 250.584876 751.932088 
L 250.584876 755.430192 
L 249.441097 758.659212 
L 246.581647 761.080977 
L 243.150308 761.888232 
L 239.718969 760.811892 
L 227.137393 751.932088 
L 223.134164 750.048493 
L 219.702825 749.510323 
L 216.843376 750.317578 
L 192.824003 760.273722 
L 192.824003 760.542807 
L 189.392664 762.695487 
L 187.676994 763.233657 
L 185.389435 762.695487 
L 184.245655 761.080977 
L 182.529986 759.197382 
L 180.814316 757.851957 
L 175.095418 755.968362 
L 168.80463 756.237447 
L 145.929036 759.735552 
L 143.069587 761.080977 
L 139.066358 764.040911 
L 129.916121 776.149735 
L 104.181078 793.102088 
L 100.749739 793.909343 
L 96.174621 791.756663 
L 88.168163 782.338689 
L 84.736824 780.18601 
L 81.305485 780.18601 
L 77.874146 780.993265 
L 71.583358 783.684114 
L 64.72068 783.415029 
L 52.710993 774.26614 
L 45.276425 771.575291 
L 36.126188 769.691696 
L 28.69162 769.153526 
L 26.404061 768.346271 
L 21.257052 764.309996 
L 15.538154 761.619147 
L 9.247366 761.080977 
L 2.956577 762.157317 
L -2.762321 764.040911 
L -5.62177 764.040911 
L -5.62177 762.695487 
L -5.04988 761.080977 
L 0.097128 757.313787 
L 2.384688 754.892022 
L 4.100357 751.932088 
L 5.244137 748.164898 
L 5.244137 744.666794 
L 3.528467 742.514114 
L 0.669018 740.899604 
L -2.762321 739.554179 
L -5.62177 739.016009 
L -13.628228 739.285094 
L -16.487677 738.746924 
L -19.347126 737.670584 
L -21.634686 737.401499 
L -24.494135 738.477839 
L -26.209804 739.823264 
L -27.353584 741.437774 
L -28.497364 742.783199 
L -30.213033 743.590454 
L -31.356813 743.590454 
L -35.360042 742.245029 
L -82.826898 739.823264 
L -86.830127 740.630519 
L -89.117686 742.514114 
L -91.405246 744.666794 
L -94.264695 746.819473 
L -97.124144 747.895813 
L -106.846271 748.703068 
L -110.8495 750.048493 
L -129.149975 758.659212 
L -132.009424 761.080977 
L -133.153204 765.117251 
L -132.581314 766.462676 
L -128.578085 766.462676 
L -127.434305 767.808101 
L -128.006195 769.691696 
L -128.578085 771.575291 
L -133.153204 781.531434 
L -141.731551 805.479997 
L -142.875331 807.363592 
L -145.16289 808.439932 
L -149.166119 808.978101 
L -161.747695 808.978101 
L -172.041712 812.207121 
L -185.767068 828.890389 
L -195.489196 831.312154 
L -200.064314 829.966729 
L -208.070772 826.468625 
L -212.074001 825.392285 
L -214.93345 825.1232 
L -217.792899 825.392285 
L -230.946365 830.504899 
L -234.377704 835.886599 
L -236.665264 836.962938 
L -238.380933 833.195749 
L -238.952823 830.504899 
L -239.524713 828.083134 
L -241.240382 826.73771 
L -244.099832 826.73771 
L -250.39062 828.621304 
L -253.821959 829.159474 
L -257.253298 829.159474 
L -260.684637 828.083134 
L -281.844561 818.66516 
L -285.2759 818.396075 
L -320.73307 827.544964 
L -330.455197 827.814049 
L -335.602205 828.621304 
L -339.605434 830.773984 
L -348.755672 838.308363 
L -350.471341 840.730128 
L -350.471341 843.690063 
L -350.471341 845.035487 
L -351.615121 845.573657 
L -352.7589 845.573657 
L -354.47457 844.228233 
L -355.04646 843.959148 
L -356.762129 845.035487 
L -356.762129 845.304572 
L -360.193468 846.649997 
L -360.765358 846.649997 
L -362.481028 846.111827 
L -363.624807 846.111827 
L -365.340477 846.919082 
L -368.199926 849.879017 
L -370.487485 850.686272 
L -372.203155 850.417187 
L -373.918824 849.340847 
L -375.062604 847.995422 
L -376.206384 847.188167 
L -377.922053 847.188167 
L -378.493943 847.726337 
L -379.065833 848.802677 
L -380.781502 850.686272 
L -387.072291 853.915292 
L -395.078748 853.108037 
L -401.941426 849.340847 
L -408.232215 844.766403 
L -415.094893 835.617514 
L -417.382452 833.195749 
L -419.670011 832.388494 
L -427.676469 830.504899 
L -429.964028 831.043069 
L -431.679698 831.581239 
L -433.395367 831.043069 
L -433.967257 827.814049 
L -434.539147 824.04686 
L -442.545605 812.476206 
L -445.976944 805.749082 
L -448.264503 802.520062 
L -451.123952 800.905552 
L -460.27419 799.829212 
L -463.705529 798.483788 
L -467.136868 796.062023 
L -470.568207 789.873069 
L -473.427656 787.182219 
L -479.146554 784.491369 
L -480.862224 782.607774 
L -483.149783 779.378755 
L -486.009232 769.960781 
L -487.724902 767.269931 
L -490.584351 765.924506 
L -494.01569 765.924506 
L -496.875139 766.193591 
L -500.306478 765.924506 
L -503.165927 763.771826 
L -506.025377 757.044702 
L -507.169156 755.968362 
L -510.028605 757.582872 
L -511.172385 757.313787 
L -511.172385 752.739343 
L -512.316165 751.124833 
L -526.613411 739.016009 
L -529.47286 734.979735 
L -531.188529 731.750715 
L -532.332309 728.79078 
L -532.332309 721.525486 
L -531.188529 708.878493 
L -532.332309 705.918558 
L -535.191758 704.842218 
L -542.054436 704.573133 
L -544.341996 704.034963 
L -546.057665 702.420453 
L -547.201445 700.536858 
L -548.345224 698.653264 
L -548.917114 696.500584 
L -549.489004 695.424244 
L -548.917114 694.078819 
z
" clip-path="url(#p1065e9cc65)" style="fill: #bdc3c7; stroke: #ffffff; stroke-width: 0.5"/>
    <path d="M -2043.837145 -37.025045 
L -2042.121476 -39.44681 
L -2040.977696 -42.944915 
L -2040.405806 -46.981189 
L -2040.405806 -48.326614 
L -2040.977696 -51.017464 
L -2040.977696 -52.362889 
L -2039.833916 -54.246483 
L -2038.118247 -55.322823 
L -2037.546357 -56.668248 
L -2037.546357 -59.090013 
L -2038.690137 -62.588117 
L -2039.262026 -65.278967 
L -2038.118247 -71.737006 
L -2037.546357 -75.504196 
L -2037.546357 -77.387791 
L -2036.402577 -78.733216 
L -2034.115018 -79.271386 
L -2032.399348 -78.464131 
L -2032.399348 -77.925961 
L -2031.255569 -77.118706 
L -2030.111789 -76.311451 
L -2027.82423 -76.311451 
L -2027.82423 -76.580536 
L -2025.53667 -78.195046 
L -2023.821001 -78.195046 
L -2022.105331 -78.195046 
L -2020.389662 -77.387791 
L -2019.245882 -76.311451 
L -2013.526984 -58.282758 
L -2011.811314 -55.322823 
L -2008.379975 -52.631974 
L -2003.804857 -50.479294 
L -2002.089187 -49.672039 
L -1998.657848 -48.595699 
L -1996.370289 -48.326614 
L -1991.79517 -48.864784 
L -1989.507611 -48.326614 
L -1984.360602 -44.559424 
L -1981.501153 -43.214 
L -1971.779026 -40.52315 
L -1966.632017 -38.101385 
L -1963.772568 -37.29413 
L -1960.913119 -37.8323 
L -1950.619102 -45.097594 
L -1947.759653 -45.097594 
L -1947.759653 -44.021255 
L -1947.759653 -40.52315 
L -1947.187763 -39.177725 
L -1946.043983 -38.37047 
L -1944.328314 -38.101385 
L -1942.612644 -38.101385 
L -1940.896975 -37.8323 
L -1937.465636 -35.67962 
L -1935.749966 -32.719686 
L -1935.178076 -24.916222 
L -1935.178076 -23.301712 
L -1934.606187 -21.418117 
L -1932.318627 -18.189097 
L -1932.318627 -16.843673 
L -1932.318627 -15.498248 
L -1932.890517 -14.152823 
L -1932.890517 -13.883738 
L -1933.462407 -12.538313 
L -1933.462407 -7.963868 
L -1932.890517 -6.618444 
L -1931.746737 -4.196679 
L -1930.602958 -4.196679 
L -1930.031068 -5.273019 
L -1927.743508 -6.080274 
L -1926.027839 -5.811189 
L -1919.165161 -4.196679 
L -1916.305712 -4.734849 
L -1912.302483 -9.309293 
L -1908.871144 -9.847463 
L -1903.724135 -5.811189 
L -1901.436576 -5.003934 
L -1894.002008 -6.618444 
L -1892.286339 -5.811189 
L -1891.142559 -3.658509 
L -1890.570669 -0.429489 
L -1890.570669 3.3377 
L -1892.286339 4.683125 
L -1894.573898 5.759465 
L -1896.289567 8.450315 
L -1896.861457 11.948419 
L -1894.002008 14.370184 
L -1891.142559 16.791949 
L -1889.998779 19.751883 
L -1891.142559 25.940838 
L -1891.142559 35.089727 
L -1892.286339 40.202341 
L -1892.286339 43.431361 
L -1893.430118 46.391296 
L -1896.861457 47.467635 
L -1899.720907 48.005805 
L -1902.580356 49.620315 
L -1908.871144 62.805479 
L -1910.014924 64.689074 
L -1910.586813 66.572668 
L -1910.014924 68.456263 
L -1909.443034 69.801688 
L -1908.299254 71.685283 
L -1906.583585 75.452472 
L -1905.439805 76.528812 
L -1903.724135 77.336067 
L -1900.864686 77.066982 
L -1899.149017 77.336067 
L -1895.717678 79.757832 
L -1892.286339 83.255936 
L -1889.998779 87.292211 
L -1888.28311 91.328486 
L -1885.423661 92.404825 
L -1881.420432 91.059401 
L -1873.985864 86.484956 
L -1871.126415 84.332276 
L -1869.410745 81.372342 
L -1867.695076 78.143322 
L -1867.123186 74.645217 
L -1865.407516 67.379923 
L -1860.832398 64.958158 
L -1854.541609 63.881819 
L -1848.250821 60.921884 
L -1842.531923 57.154694 
L -1825.375228 50.696655 
L -1820.228219 48.543975 
L -1816.22499 47.73672 
L -1812.793651 48.543975 
L -1810.506092 51.772995 
L -1809.934202 53.65659 
L -1808.790423 54.73293 
L -1807.646643 55.540185 
L -1805.930973 55.809269 
L -1804.215304 56.616524 
L -1804.215304 57.692864 
L -1804.787194 59.307374 
L -1804.787194 60.921884 
L -1801.927745 68.187178 
L -1799.068295 70.878028 
L -1795.636956 71.416198 
L -1794.493177 70.608943 
L -1793.921287 70.608943 
L -1791.633728 68.187178 
L -1789.346168 67.379923 
L -1787.630499 68.187178 
L -1785.914829 69.801688 
L -1785.342939 71.685283 
L -1783.62727 73.299793 
L -1780.195931 75.183387 
L -1777.908371 74.914302 
L -1776.192702 73.030708 
L -1774.477032 69.532603 
L -1773.905143 68.456263 
L -1769.330024 65.765413 
L -1768.186244 64.419989 
L -1767.614354 62.805479 
L -1767.042465 61.460054 
L -1765.326795 60.383714 
L -1760.179787 55.809269 
L -1759.036007 49.8894 
L -1759.036007 42.893191 
L -1756.748448 36.435152 
L -1752.745219 31.591622 
L -1740.735532 22.711818 
L -1736.732303 18.406459 
L -1735.016634 13.293844 
L -1735.588524 0.915936 
L -1734.444744 -7.425699 
L -1730.441515 -4.734849 
L -1721.863168 1.185021 
L -1720.147498 1.992275 
L -1716.144269 1.185021 
L -1715.572379 -0.698574 
L -1717.288049 -2.043999 
L -1719.575608 -1.236744 
L -1717.859939 -3.658509 
L -1714.4286 -3.658509 
L -1696.128125 3.068615 
L -1692.696786 5.221295 
L -1685.834108 12.217504 
L -1666.961743 49.8894 
L -1663.530404 53.925675 
L -1660.099065 56.616524 
L -1658.955286 57.692864 
L -1650.376938 62.805479 
L -1646.373709 65.765413 
L -1643.51426 69.801688 
L -1641.226701 74.914302 
L -1640.082921 77.336067 
L -1635.507802 79.219662 
L -1606.913311 101.822799 
L -1600.050633 105.051819 
L -1593.759844 106.397244 
L -1590.900395 108.280839 
L -1582.893937 115.546133 
L -1568.024802 131.960316 
L -1552.011886 157.523388 
L -1546.292988 171.246722 
L -1530.851962 197.617049 
L -1521.129835 214.569402 
L -1520.557945 217.798422 
L -1519.986055 218.874762 
L -1517.126606 222.103781 
L -1515.982827 223.718291 
L -1515.982827 225.601886 
L -1517.126606 230.17633 
L -1517.126606 233.94352 
L -1515.410937 240.401559 
L -1512.551488 264.619206 
L -1513.123377 268.117311 
L -1514.267157 271.077246 
L -1515.410937 274.306265 
L -1513.695267 281.57156 
L -1513.695267 283.724239 
L -1508.548259 298.523913 
L -1508.548259 303.367442 
L -1508.548259 305.251037 
L -1510.835818 310.632736 
L -1511.979598 312.516331 
L -1513.123377 313.592671 
L -1515.410937 316.283521 
L -1515.982827 317.628946 
L -1515.982827 318.97437 
L -1514.839047 323.010645 
L -1515.982827 324.625155 
L -1517.126606 325.163325 
L -1517.126606 325.43241 
L -1518.270386 325.97058 
L -1519.986055 326.777835 
L -1522.845505 331.083194 
L -1524.561174 333.774044 
L -1524.561174 336.464894 
L -1523.417395 341.577508 
L -1517.698496 356.108096 
L -1518.270386 360.144371 
L -1521.701725 357.991691 
L -1524.561174 362.566136 
L -1526.276844 369.562345 
L -1526.848734 374.944044 
L -1526.848734 380.863914 
L -1527.420623 383.554763 
L -1529.708183 383.823848 
L -1531.423852 385.707443 
L -1532.567632 388.667378 
L -1533.711412 390.820058 
L -1533.139522 393.779992 
L -1532.567632 396.470842 
L -1526.276844 409.92509 
L -1525.704954 412.07777 
L -1522.845505 415.84496 
L -1517.698496 420.957574 
L -1513.695267 426.339274 
L -1515.982827 431.182803 
L -1510.835818 430.106463 
L -1518.270386 446.520646 
L -1519.414166 452.978686 
L -1516.554716 472.621889 
L -1515.410937 475.850908 
L -1514.839047 479.079928 
L -1518.270386 517.559079 
L -1517.126606 524.017118 
L -1511.979598 535.318687 
L -1504.54503 545.274831 
L -1485.672665 563.841693 
L -1483.956996 564.648948 
L -1481.097547 565.187118 
L -1478.238097 565.456203 
L -1477.666208 565.994373 
L -1475.378648 568.147053 
L -1473.662979 568.685223 
L -1471.947309 568.416138 
L -1467.94408 566.532543 
L -1465.656521 567.608883 
L -1465.656521 568.685223 
L -1465.656521 570.030648 
L -1465.656521 571.376073 
L -1459.937623 575.681432 
L -1458.221953 578.372282 
L -1453.646835 587.252086 
L -1455.362504 591.019275 
L -1455.362504 593.97921 
L -1454.218724 596.939145 
L -1442.780928 611.738818 
L -1441.065258 613.084243 
L -1437.633919 615.775093 
L -1436.490139 616.851433 
L -1435.91825 618.465942 
L -1435.91825 621.694962 
L -1435.34636 623.309472 
L -1434.20258 625.193067 
L -1431.343131 628.691171 
L -1430.771241 630.574766 
L -1431.343131 631.920191 
L -1433.0588 635.149211 
L -1433.0588 637.032805 
L -1431.915021 640.261825 
L -1424.480453 649.410714 
L -1420.477224 659.366858 
L -1417.617775 663.403133 
L -1415.902105 667.439407 
L -1414.758326 669.053917 
L -1411.326987 673.090191 
L -1410.755097 674.704701 
L -1409.039427 678.202806 
L -1409.039427 681.431826 
L -1409.611317 688.15895 
L -1408.467538 691.657054 
L -1406.751868 694.886074 
L -1404.464309 696.769669 
L -1402.748639 695.155159 
L -1401.604859 695.155159 
L -1397.601631 702.958623 
L -1395.885961 710.223917 
L -1393.026512 714.529277 
L -1392.454622 716.681957 
L -1391.882732 722.063656 
L -1391.310842 724.485421 
L -1389.023283 726.638101 
L -1387.879503 728.521695 
L -1388.451393 730.40529 
L -1387.879503 732.55797 
L -1386.735724 739.016009 
L -1383.304385 747.895813 
L -1381.588715 755.161107 
L -1381.588715 759.197382 
L -1382.732495 760.811892 
L -1383.876275 762.426402 
L -1383.304385 769.422611 
L -1384.448164 771.844376 
L -1390.167063 771.844376 
L -1391.310842 772.382546 
L -1393.026512 774.535225 
L -1393.598402 775.073395 
L -1401.03297 774.80431 
L -1403.892419 773.997055 
L -1410.183207 771.575291 
L -1411.326987 770.498951 
L -1411.898877 768.884441 
L -1411.326987 765.924506 
L -1412.470766 763.502741 
L -1414.186436 761.888232 
L -1416.473995 760.273722 
L -1418.189665 758.659212 
L -1418.761555 753.008428 
L -1414.758326 750.048493 
L -1409.039427 747.895813 
L -1405.036198 743.321369 
L -1407.895648 742.783199 
L -1410.755097 743.321369 
L -1413.614546 744.935879 
L -1418.761555 748.972153 
L -1419.905334 749.510323 
L -1420.477224 748.433983 
L -1421.621004 745.743133 
L -1426.768012 735.24882 
L -1430.199351 729.598035 
L -1433.63069 726.907186 
L -1434.77447 729.059865 
L -1433.0588 733.365225 
L -1427.339902 742.783199 
L -1427.339902 744.935879 
L -1427.911792 749.510323 
L -1427.339902 751.663003 
L -1426.768012 753.815683 
L -1426.196122 756.237447 
L -1426.768012 758.659212 
L -1432.486911 763.233657 
L -1439.921478 761.350062 
L -1453.646835 754.353852 
L -1457.650063 754.622937 
L -1464.512741 757.851957 
L -1467.372191 758.659212 
L -1474.234869 758.121042 
L -1476.522428 758.390127 
L -1478.809987 759.735552 
L -1487.388335 770.229866 
L -1491.963454 773.997055 
L -1497.682352 772.920715 
L -1497.682352 772.113461 
L -1498.826132 770.498951 
L -1499.969911 769.422611 
L -1501.113691 770.229866 
L -1500.541801 771.844376 
L -1499.969911 774.26614 
L -1499.969911 775.611565 
L -1499.969911 777.49516 
L -1502.82936 781.531434 
L -1505.11692 787.182219 
L -1507.404479 783.953199 
L -1512.551488 779.378755 
L -1514.839047 776.149735 
L -1516.554716 772.920715 
L -1521.701725 755.699277 
L -1524.561174 749.510323 
L -1529.136293 744.397709 
L -1535.427081 740.092349 
L -1554.299446 733.09614 
L -1581.178268 716.143787 
L -1588.040946 713.183852 
L -1591.472285 712.107512 
L -1594.903624 711.838427 
L -1597.763073 711.031172 
L -1599.478743 709.416662 
L -1602.338192 705.380388 
L -1605.197641 701.613198 
L -1609.20087 698.384179 
L -1613.204099 695.424244 
L -1618.351107 693.271564 
L -1620.638667 694.078819 
L -1628.645124 695.424244 
L -1631.504573 695.155159 
L -1634.935913 693.271564 
L -1637.223472 690.31163 
L -1640.082921 683.31542 
L -1642.94237 680.355486 
L -1655.523947 669.861172 
L -1657.811506 667.977577 
L -1658.955286 665.824897 
L -1657.239616 665.555812 
L -1657.239616 665.017642 
L -1657.239616 664.479472 
L -1657.811506 663.672217 
L -1659.527175 661.788623 
L -1662.386625 659.635943 
L -1668.677413 656.137838 
L -1690.981116 646.988949 
L -1716.144269 636.494635 
L -1721.863168 633.265616 
L -1725.866396 630.036596 
L -1737.876083 616.582348 
L -1739.591752 615.775093 
L -1743.023091 614.967838 
L -1746.454431 613.353328 
L -1748.1701 610.931563 
L -1748.1701 607.971629 
L -1750.457659 607.433459 
L -1753.317109 606.357119 
L -1757.892227 603.666269 
L -1760.751676 605.549864 
L -1765.326795 605.818949 
L -1767.614354 607.971629 
L -1768.758134 604.204439 
L -1768.758134 599.091825 
L -1769.901914 594.51738 
L -1772.189473 592.633785 
L -1773.333253 592.095615 
L -1775.048922 591.019275 
L -1777.336482 588.328426 
L -1780.767821 579.179537 
L -1781.9116 577.565027 
L -1784.19916 576.488687 
L -1791.633728 575.950517 
L -1793.921287 574.605092 
L -1795.065067 572.990582 
L -1797.924516 570.837903 
L -1806.502863 569.492478 
L -1809.934202 567.877968 
L -1815.081211 567.070713 
L -1819.08444 565.456203 
L -1825.375228 561.150844 
L -1828.806567 556.576399 
L -1836.813025 544.736661 
L -1841.388143 540.431301 
L -1848.822711 538.816791 
L -1855.685389 538.009536 
L -1859.688618 535.587772 
L -1856.829169 528.322477 
L -1860.260508 527.784307 
L -1860.260508 525.631628 
L -1852.25405 515.944569 
L -1849.966491 513.791889 
L -1847.678931 512.984634 
L -1845.963262 511.101039 
L -1845.963262 507.064765 
L -1847.107042 499.261301 
L -1848.250821 497.377706 
L -1852.82594 493.610516 
L -1853.39783 491.726921 
L -1856.829169 471.007379 
L -1857.972948 467.778359 
L -1860.260508 465.087509 
L -1865.407516 460.513065 
L -1865.979406 459.436725 
L -1866.551296 457.822215 
L -1867.695076 456.745875 
L -1870.554525 455.93862 
L -1872.270194 455.131365 
L -1873.413974 454.324111 
L -1873.985864 453.516856 
L -1875.129644 451.095091 
L -1882.564211 440.869862 
L -1887.71122 436.026333 
L -1888.855 434.680908 
L -1889.998779 430.913718 
L -1893.430118 426.339274 
L -1894.573898 419.343064 
L -1895.717678 415.84496 
L -1898.577127 412.346855 
L -1910.014924 404.543391 
L -1914.018152 402.659796 
L -1915.733822 401.583456 
L -1916.305712 400.507116 
L -1919.165161 396.201757 
L -1923.16839 391.089143 
L -1925.455949 389.205548 
L -1932.890517 387.860123 
L -1934.606187 386.245613 
L -1934.606187 383.554763 
L -1932.890517 379.787574 
L -1930.031068 377.096724 
L -1929.459178 376.020384 
L -1931.174847 375.482214 
L -1935.178076 376.020384 
L -1936.893746 376.558554 
L -1937.465636 377.096724 
L -1939.181305 377.903979 
L -1943.184534 376.558554 
L -1947.187763 374.674959 
L -1949.475322 373.329534 
L -1951.190992 370.90777 
L -1952.334771 368.21692 
L -1952.334771 365.256985 
L -1952.334771 357.453521 
L -1951.762882 354.762672 
L -1949.475322 353.686332 
L -1939.753195 354.224502 
L -1936.321856 353.686332 
L -1934.034297 350.457312 
L -1931.174847 349.111887 
L -1928.315398 348.573717 
L -1925.455949 349.111887 
L -1927.171619 345.882868 
L -1930.602958 346.151952 
L -1934.606187 348.035547 
L -1936.321856 349.111887 
L -1940.325085 348.842802 
L -1940.896975 346.421037 
L -1940.325085 342.653848 
L -1940.325085 338.348488 
L -1942.040754 336.195809 
L -1950.619102 330.814109 
L -1952.906661 328.123259 
L -1956.338 325.97058 
L -1959.769339 325.163325 
L -1963.200678 327.316005 
L -1964.916348 324.086985 
L -1966.632017 318.97437 
L -1967.203907 314.130841 
L -1966.060127 311.978161 
L -1968.347687 311.439991 
L -1969.491466 309.287312 
L -1969.491466 306.865547 
L -1970.063356 304.443782 
L -1971.779026 302.560187 
L -1973.494695 302.291102 
L -1974.066585 301.214762 
L -1973.494695 297.985743 
L -1971.779026 293.680383 
L -1971.207136 291.527704 
L -1971.207136 288.567769 
L -1970.635246 286.415089 
L -1967.203907 284.262409 
L -1966.632017 282.10973 
L -1966.060127 277.535285 
L -1963.200678 267.310056 
L -1961.485009 263.004697 
L -1963.772568 263.811952 
L -1966.632017 263.273782 
L -1968.919577 261.121102 
L -1970.063356 258.161167 
L -1969.491466 254.932148 
L -1967.775797 251.972213 
L -1966.060127 250.357703 
L -1963.200678 251.972213 
L -1962.056899 249.819533 
L -1960.913119 247.935938 
L -1959.769339 246.321428 
L -1958.05367 245.514174 
L -1962.056899 244.706919 
L -1965.488238 246.052344 
L -1967.775797 246.052344 
L -1968.919577 241.746984 
L -1969.491466 233.674435 
L -1967.775797 231.79084 
L -1963.200678 231.25267 
L -1963.200678 230.17633 
L -1964.344458 229.907245 
L -1966.632017 229.09999 
L -1965.488238 226.947311 
L -1966.060127 225.870971 
L -1968.919577 224.794631 
L -1970.635246 224.525546 
L -1971.779026 225.063716 
L -1972.350916 224.794631 
L -1973.494695 222.641951 
L -1973.494695 220.489271 
L -1972.350916 217.798422 
L -1972.350916 216.183912 
L -1972.922806 215.645742 
L -1974.638475 215.376657 
L -1975.782255 214.838487 
L -1976.354145 212.685807 
L -1978.069814 213.493062 
L -1979.785484 214.031232 
L -1983.788712 213.762147 
L -1985.504382 213.223977 
L -1984.360602 211.878552 
L -1982.644933 210.533127 
L -1982.073043 210.533127 
L -1982.073043 208.380448 
L -1982.644933 207.573193 
L -1983.788712 207.035023 
L -1985.504382 205.689598 
L -1987.220051 204.882343 
L -1988.935721 205.151428 
L -1990.65139 206.227768 
L -1991.79517 207.304108 
L -1993.51084 205.151428 
L -1994.654619 202.998748 
L -1995.226509 200.846069 
L -1996.370289 198.424304 
L -1999.801628 194.118944 
L -2000.945407 190.62084 
L -2003.232967 185.23914 
L -2004.948636 183.08646 
L -2006.092416 179.319271 
L -2005.520526 177.973846 
L -2004.948636 177.973846 
L -2004.376746 178.242931 
L -2003.804857 177.704761 
L -2002.089187 176.090251 
L -2000.373518 174.475741 
L -1998.657848 172.592147 
L -1997.514068 167.479532 
L -1995.226509 162.366918 
L -1995.226509 159.137898 
L -1995.226509 157.523388 
L -1996.942179 154.294369 
L -1997.514068 153.218029 
L -1996.942179 151.334434 
L -1995.226509 148.374499 
L -1995.226509 146.759989 
L -1995.798399 144.60731 
L -1999.229738 137.342016 
L -2002.661077 132.767571 
L -2003.232967 130.614891 
L -2003.804857 127.116787 
L -2002.661077 113.393453 
L -2003.804857 109.626264 
L -2007.236196 103.168224 
L -2008.379975 99.67012 
L -2008.951865 86.215871 
L -2007.808085 86.754041 
L -2006.092416 87.292211 
L -2003.804857 87.023126 
L -2002.661077 86.215871 
L -2002.661077 84.601361 
L -2003.804857 83.525021 
L -2004.948636 82.986851 
L -2006.092416 82.179597 
L -2004.376746 63.612734 
L -2008.379975 31.591622 
L -2009.523755 28.631687 
L -2011.811314 25.671753 
L -2014.098874 22.173648 
L -2016.958323 15.177439 
L -2022.677221 4.683125 
L -2024.392891 -1.774914 
L -2026.68045 -4.196679 
L -2031.827459 -7.694784 
L -2036.402577 -12.807398 
L -2039.833916 -19.803607 
L -2042.121476 -27.068901 
L -2043.265255 -34.065111 
z
" clip-path="url(#p1065e9cc65)" style="fill: #bdc3c7; stroke: #ffffff; stroke-width: 0.5"/>
    <path d="M -2120.470383 -35.948705 
L -2116.467154 -34.603281 
L -2113.035815 -35.948705 
L -2107.888807 -35.67962 
L -2105.601247 -34.065111 
L -2100.454239 -33.526941 
L -2097.59479 -33.796026 
L -2095.30723 -35.948705 
L -2093.591561 -38.90864 
L -2091.875891 -38.90864 
L -2089.588332 -38.90864 
L -2090.160222 -40.254065 
L -2090.160222 -41.59949 
L -2089.016442 -41.330405 
L -2087.300773 -40.792235 
L -2086.156993 -37.29413 
L -2085.013213 -34.872366 
L -2083.297544 -33.526941 
L -2079.866205 -31.912431 
L -2079.866205 -30.567006 
L -2078.722425 -30.028836 
L -2077.578645 -28.683411 
L -2078.150535 -26.799816 
L -2079.866205 -24.647137 
L -2078.150535 -21.956287 
L -2077.578645 -20.610862 
L -2077.006756 -19.265437 
L -2078.722425 -18.458182 
L -2081.009984 -17.920012 
L -2082.153764 -16.305503 
L -2084.441324 -15.229163 
L -2085.013213 -12.807398 
L -2087.872663 -14.421908 
L -2088.444552 -18.189097 
L -2091.875891 -18.189097 
L -2094.735341 -17.112757 
L -2097.0229 -14.152823 
L -2099.310459 -11.731058 
L -2101.598019 -11.461973 
L -2103.885578 -9.578378 
L -2105.601247 -8.771123 
L -2106.745027 -8.232953 
L -2109.032586 -16.036418 
L -2107.888807 -18.727267 
L -2108.460697 -22.763542 
L -2111.320146 -23.570797 
L -2115.323375 -24.647137 
L -2118.182824 -24.378052 
L -2119.326603 -26.530731 
L -2119.898493 -29.221581 
z
" clip-path="url(#p1065e9cc65)" style="fill: #bdc3c7; stroke: #ffffff; stroke-width: 0.5"/>
    <path d="M -2035.258798 149.181754 
L -2035.258798 148.643584 
L -2032.971238 147.298159 
L -2032.971238 145.14548 
L -2033.543128 136.534761 
L -2032.971238 129.269466 
L -2033.543128 127.654957 
L -2034.115018 126.578617 
L -2035.258798 125.502277 
L -2035.258798 124.695022 
L -2035.258798 123.349597 
L -2034.686908 122.004172 
L -2034.115018 120.927832 
L -2035.258798 119.851492 
L -2033.543128 119.044238 
L -2032.399348 119.851492 
L -2031.827459 121.466002 
L -2030.111789 122.004172 
L -2028.968009 121.735087 
L -2028.39612 120.658747 
L -2027.25234 119.582407 
L -2026.68045 118.775153 
L -2023.821001 117.967898 
L -2020.389662 118.236983 
L -2017.530213 119.044238 
L -2014.670764 120.927832 
L -2013.526984 123.349597 
L -2010.667535 124.695022 
L -2009.523755 126.309532 
L -2012.383204 131.691231 
L -2012.955094 137.880185 
L -2013.526984 140.84012 
L -2017.530213 148.105414 
L -2018.102103 151.065349 
L -2026.68045 149.450839 
L -2032.971238 149.450839 
L -2032.971238 149.719924 
L -2032.971238 150.258094 
L -2033.543128 150.258094 
L -2034.686908 149.989009 
z
" clip-path="url(#p1065e9cc65)" style="fill: #bdc3c7; stroke: #ffffff; stroke-width: 0.5"/>
    <path d="M 850.497314 245.514174 
L 850.497314 244.437834 
L 863.078891 244.437834 
L 864.79456 243.899664 
L 865.93834 242.823324 
L 867.082119 241.746984 
L 868.225899 241.208814 
L 871.085348 241.746984 
L 872.801018 243.899664 
L 873.944797 246.859598 
L 876.804247 248.743193 
L 878.519916 246.052344 
L 883.095035 246.321428 
L 887.098264 247.935938 
L 891.101493 249.819533 
L 891.101493 250.895873 
L 888.242043 251.164958 
L 887.098264 252.241298 
L 886.526374 254.124893 
L 886.526374 256.277572 
L 883.666925 253.586723 
L 882.523145 253.048553 
L 881.951255 253.855808 
L 881.379365 255.201233 
L 880.807475 256.277572 
L 879.091806 255.739402 
L 876.804247 253.855808 
L 874.516687 252.779468 
L 871.657238 252.241298 
L 869.941569 251.972213 
L 868.797789 251.703128 
L 867.654009 250.357703 
L 867.082119 249.819533 
L 861.363221 248.743193 
z
" clip-path="url(#p1065e9cc65)" style="fill: #bdc3c7; stroke: #ffffff; stroke-width: 0.5"/>
    <path d="M 645.760753 -158.113282 
L 646.332643 -160.804132 
L 646.904533 -161.880472 
L 646.904533 -169.145766 
L 647.476422 -170.491191 
L 648.620202 -171.298445 
L 650.907761 -172.1057 
L 652.623431 -172.912955 
L 656.05477 -176.94923 
L 660.057999 -179.370995 
L 661.773668 -180.17825 
L 664.061228 -180.447334 
L 676.070914 -182.600014 
L 679.502253 -181.523674 
L 681.217923 -178.832825 
L 681.789813 -175.065635 
L 680.074143 -162.956811 
L 678.358474 -158.113282 
L 676.070914 -155.153347 
L 673.211465 -156.498772 
L 670.352016 -155.153347 
L 661.201779 -153.538837 
L 658.914219 -152.462498 
L 658.342329 -151.655243 
L 653.767211 -149.771648 
L 652.623431 -148.695308 
L 651.479651 -146.811713 
L 650.907761 -145.197203 
L 649.763982 -143.582694 
L 648.048312 -142.237269 
L 646.904533 -146.004458 
z
" clip-path="url(#p1065e9cc65)" style="fill: #bdc3c7; stroke: #ffffff; stroke-width: 0.5"/>
    <path d="M -1408.467538 547.158425 
L -1408.467538 545.813 
L -1407.323758 544.736661 
L -1405.608088 543.929406 
L -1404.464309 543.122151 
L -1402.748639 540.700386 
L -1402.748639 538.278621 
L -1403.320529 535.856857 
L -1403.892419 533.166007 
L -1403.892419 531.551497 
L -1402.748639 529.936987 
L -1401.03297 528.860647 
L -1399.88919 529.129732 
L -1398.74541 529.936987 
L -1398.74541 530.744242 
L -1398.17352 532.627837 
L -1398.17352 533.704177 
L -1395.885961 536.933196 
L -1394.742181 539.085876 
L -1393.026512 545.813 
L -1392.454622 553.616465 
L -1393.026512 555.500059 
L -1394.742181 556.845484 
L -1398.17352 557.921824 
L -1401.03297 558.190909 
L -1403.320529 557.114569 
L -1406.179978 553.88555 
L -1407.895648 552.001955 
L -1407.895648 550.65653 
L -1407.895648 549.849275 
z
" clip-path="url(#p1065e9cc65)" style="fill: #bdc3c7; stroke: #ffffff; stroke-width: 0.5"/>
    <path d="M 738.406906 316.014436 
L 739.550686 313.861756 
L 742.410135 311.978161 
L 745.841474 310.363651 
L 748.129034 309.556397 
L 750.988483 309.825481 
L 756.707381 311.709076 
L 759.56683 311.978161 
L 761.2825 312.785416 
L 762.998169 314.669011 
L 765.285729 318.167116 
L 766.429508 319.51254 
L 768.145178 320.319795 
L 769.288957 320.857965 
L 771.576517 320.857965 
L 779.011085 323.27973 
L 779.582975 324.89424 
L 780.726754 327.316005 
L 772.148407 327.04692 
L 761.2825 327.04692 
L 753.847932 327.04692 
L 748.700923 326.239665 
L 747.557144 325.163325 
L 738.978796 317.898031 
z
" clip-path="url(#p1065e9cc65)" style="fill: #bdc3c7; stroke: #ffffff; stroke-width: 0.5"/>
    <path d="M -268.691095 558.998164 
L -268.691095 550.925615 
L -266.403535 545.813 
L -260.684637 547.96568 
L -257.825188 553.078295 
L -256.109518 559.805419 
L -255.537628 587.521171 
L -254.393849 599.36091 
L -250.96251 608.509799 
L -250.96251 609.317053 
L -250.96251 610.662478 
L -250.96251 611.469733 
L -252.678179 610.662478 
L -254.393849 610.124308 
L -255.537628 610.662478 
L -256.681408 612.007903 
L -257.825188 613.622413 
L -259.540857 611.469733 
L -261.828417 605.011694 
L -263.544086 603.666269 
L -266.975425 602.051759 
L -267.547315 598.82274 
L -266.403535 591.82653 
L -265.831645 585.368491 
z
" clip-path="url(#p1065e9cc65)" style="fill: #bdc3c7; stroke: #ffffff; stroke-width: 0.5"/>
    <path d="M 691.51194 -72.275176 
L 691.51194 -73.620601 
L 693.227609 -74.696941 
L 694.943279 -75.235111 
L 702.949737 -75.773281 
L 705.237296 -76.311451 
L 706.952965 -77.925961 
L 708.096745 -80.347726 
L 706.381076 -81.962235 
L 700.662177 -82.23132 
L 700.090287 -84.384 
L 702.377847 -86.267595 
L 708.668635 -87.07485 
L 710.956194 -88.68936 
L 714.959423 -83.576745 
L 717.818872 -78.733216 
L 717.246982 -73.889686 
L 710.956194 -69.046157 
L 706.952965 -67.700732 
L 702.377847 -67.700732 
L 697.230838 -68.507987 
L 693.227609 -69.853412 
L 692.08383 -70.929752 
z
" clip-path="url(#p1065e9cc65)" style="fill: #bdc3c7; stroke: #ffffff; stroke-width: 0.5"/>
    <path d="M 613.163032 -157.306027 
L 620.5976 -171.56753 
L 622.885159 -172.64387 
L 628.604058 -173.989295 
L 630.891617 -175.065635 
L 637.182405 -182.600014 
L 639.469965 -180.447334 
L 640.041855 -176.680145 
L 640.041855 -172.912955 
L 638.326185 -170.491191 
L 635.466736 -173.18204 
L 633.179177 -172.1057 
L 632.035397 -169.145766 
L 633.751066 -166.185831 
L 618.881931 -162.418641 
L 619.45382 -160.804132 
L 620.5976 -159.996877 
L 621.74138 -159.189622 
L 620.5976 -157.306027 
L 619.45382 -156.767857 
L 617.166261 -156.498772 
L 614.878702 -156.767857 
z
" clip-path="url(#p1065e9cc65)" style="fill: #bdc3c7; stroke: #ffffff; stroke-width: 0.5"/>
    <path d="M 897.964171 273.229926 
L 898.53606 272.960841 
L 900.25173 272.691756 
L 902.539289 272.691756 
L 911.117637 273.768095 
L 914.548976 274.844435 
L 916.264645 276.997115 
L 915.692755 279.41888 
L 912.261416 280.226135 
L 905.970628 280.226135 
L 903.683069 282.647899 
L 902.539289 282.647899 
L 901.967399 282.10973 
L 901.967399 281.57156 
L 901.39551 278.34254 
L 900.82362 277.535285 
L 899.10795 275.920775 
L 898.53606 275.11352 
z
" clip-path="url(#p1065e9cc65)" style="fill: #bdc3c7; stroke: #ffffff; stroke-width: 0.5"/>
    <path d="M -2101.026129 -2.043999 
L -2097.59479 -5.003934 
L -2095.30723 -10.116548 
L -2091.875891 -11.461973 
L -2089.588332 -13.345568 
L -2089.588332 -10.654718 
L -2090.732112 -9.309293 
L -2091.875891 -7.694784 
L -2091.875891 -5.542104 
L -2091.875891 -4.734849 
L -2091.875891 -2.043999 
L -2090.732112 0.646851 
L -2091.304002 3.068615 
L -2093.019671 5.49038 
L -2094.735341 6.02855 
L -2097.0229 3.87587 
L -2098.16668 1.454105 
L -2099.882349 0.915936 
z
" clip-path="url(#p1065e9cc65)" style="fill: #bdc3c7; stroke: #ffffff; stroke-width: 0.5"/>
    <path d="M -1862.548067 517.020909 
L -1862.548067 516.213654 
L -1862.548067 514.330059 
L -1858.544838 504.643 
L -1856.257279 501.41398 
L -1853.39783 500.33764 
L -1851.68216 501.144895 
L -1851.11027 503.297575 
L -1851.68216 504.373915 
L -1851.11027 506.526595 
L -1851.68216 510.024699 
L -1853.96972 512.177379 
L -1856.829169 513.253719 
L -1859.116728 515.137314 
L -1860.260508 515.944569 
L -1861.404288 516.751824 
z
" clip-path="url(#p1065e9cc65)" style="fill: #bdc3c7; stroke: #ffffff; stroke-width: 0.5"/>
    <path d="M 821.330933 59.845544 
L 822.474712 58.500119 
L 824.190382 57.154694 
L 826.477941 56.616524 
L 830.48117 56.616524 
L 832.768729 57.154694 
L 833.340619 58.769204 
L 832.196839 60.383714 
L 830.48117 60.921884 
L 829.33739 61.190969 
L 826.477941 61.998224 
L 825.906051 62.267309 
L 824.190382 61.998224 
L 823.046602 61.729139 
L 821.902822 60.921884 
z
" clip-path="url(#p1065e9cc65)" style="fill: #bdc3c7; stroke: #ffffff; stroke-width: 0.5"/>
    <path d="M 344.374809 152.679859 
L 344.374809 150.258094 
L 348.949928 137.880185 
L 350.093708 136.265676 
L 354.668826 132.229401 
L 357.528276 131.153061 
L 358.672055 134.651166 
L 360.387725 142.45463 
L 360.387725 146.490904 
L 357.528276 149.450839 
L 355.812606 149.450839 
L 352.953157 147.298159 
L 351.237487 147.567244 
L 348.378038 150.258094 
z
" clip-path="url(#p1065e9cc65)" style="fill: #bdc3c7; stroke: #ffffff; stroke-width: 0.5"/>
    <path d="M -1867.123186 505.988425 
L -1865.979406 503.835745 
L -1863.119957 502.49032 
L -1861.976177 504.10483 
L -1862.548067 505.988425 
L -1863.691847 506.79568 
L -1865.979406 507.33385 
z
" clip-path="url(#p1065e9cc65)" style="fill: #bdc3c7; stroke: #ffffff; stroke-width: 0.5"/>
   </g>
   <g id="PatchCollection_2">
    <path d="M 160.226282 256.277572 
L 200.258571 257.622997 
L 212.268257 255.470317 
L 223.134164 249.281363 
L 238.57519 243.630579 
L 244.294088 241.746984 
L 247.725427 238.248879 
L 250.012987 233.674435 
L 255.731885 228.023651 
L 275.176139 212.685807 
L 280.895038 208.918618 
L 307.77386 192.773519 
L 328.361894 184.1628 
L 332.365123 183.62463 
L 335.224572 184.970055 
L 335.224572 186.85365 
L 332.937013 188.737245 
L 328.361894 190.889925 
L 326.646225 193.042604 
L 324.358665 199.231559 
L 323.786775 201.115153 
L 322.642996 203.267833 
L 317.495987 208.111363 
L 316.352207 210.533127 
L 312.348979 214.031232 
L 311.777089 216.722082 
L 311.777089 219.143846 
L 310.633309 221.565611 
L 308.34575 223.180121 
L 305.486301 223.449206 
L 302.626851 222.911036 
L 299.767402 222.641951 
L 296.336063 223.718291 
L 293.476614 225.332801 
L 288.329606 230.445415 
L 285.470156 232.059925 
L 279.751258 234.48169 
L 278.035588 235.827115 
L 278.035588 238.517964 
L 279.179368 241.477899 
L 282.038817 247.397768 
L 283.182597 250.626788 
L 283.754487 254.124893 
L 284.326377 272.960841 
L 285.470156 278.611625 
L 288.329606 283.186069 
L 291.189055 284.262409 
L 293.476614 283.993324 
L 294.620394 284.800579 
L 294.620394 289.105939 
L 292.904724 295.294893 
L 291.760945 297.985743 
L 290.045275 300.676592 
L 286.042046 304.443782 
L 285.470156 305.251037 
L 284.326377 306.865547 
L 284.326377 310.094566 
L 289.473385 307.941887 
L 290.045275 310.901821 
L 288.901495 313.861756 
L 284.898267 319.243455 
L 284.326377 322.20339 
L 283.182597 328.930514 
L 282.038817 331.083194 
L 267.169682 345.075613 
L 259.735114 349.650057 
L 253.444326 348.842802 
L 252.300546 347.497377 
L 251.156766 343.461103 
L 250.584876 341.846593 
L 249.441097 340.770253 
L 246.009758 338.348488 
L 235.715741 329.199599 
L 233.428181 325.97058 
L 232.284402 323.010645 
L 228.853063 312.785416 
L 226.565503 310.632736 
L 223.706054 310.632736 
L 217.415266 311.709076 
L 210.552588 310.363651 
L 204.833689 310.094566 
L 204.2618 308.480057 
L 204.2618 306.058292 
L 204.2618 305.251037 
L 206.549359 303.367442 
L 207.121249 301.752932 
L 205.977469 294.487638 
L 204.2618 291.258619 
L 204.2618 286.953259 
L 202.54613 282.378815 
L 201.97424 280.764305 
L 200.258571 278.88071 
L 199.686681 277.80437 
L 199.686681 276.458945 
L 199.114791 275.382605 
L 197.971011 275.11352 
L 195.683452 274.844435 
L 194.539672 274.57535 
L 193.395893 271.346331 
L 191.680223 270.000906 
L 187.676994 268.386396 
L 182.529986 264.350122 
L 179.098647 262.735612 
L 170.520299 261.390187 
z
" clip-path="url(#p1065e9cc65)" style="fill: #e74c3c; stroke: #ffffff; stroke-width: 0.6"/>
    <path d="M 322.642996 233.94352 
L 323.786775 221.296526 
L 326.646225 224.525546 
L 329.505674 222.641951 
L 332.937013 219.143846 
L 336.368352 217.260252 
L 339.799691 216.452997 
L 339.799691 214.569402 
L 338.655911 212.147637 
L 337.512131 209.456788 
L 338.084021 208.111363 
L 338.655911 207.573193 
L 340.371581 207.304108 
L 342.08725 207.304108 
L 342.08725 211.071297 
L 343.80292 212.685807 
L 346.090479 213.493062 
L 347.806148 214.838487 
L 351.809377 220.758356 
L 362.103394 250.626788 
L 363.247174 254.393978 
L 362.675284 257.353912 
L 361.531505 263.542867 
L 361.531505 269.731821 
L 362.103394 276.458945 
L 364.390954 282.916984 
L 367.822293 287.760514 
L 373.541191 292.873128 
L 375.82875 296.371233 
L 376.40064 299.600253 
L 374.113081 302.291102 
L 370.681742 302.022017 
L 366.678513 300.407508 
L 363.819064 298.523913 
L 362.675284 297.985743 
L 359.243945 298.254828 
L 358.100165 297.447573 
L 355.240716 295.294893 
L 354.096937 294.756723 
L 349.521818 295.294893 
L 346.090479 294.756723 
L 336.940242 291.258619 
L 334.652682 289.913194 
L 333.508903 287.491429 
L 331.793233 271.884501 
L 330.077564 265.695546 
L 324.358665 253.317638 
L 323.214886 247.128683 
z
" clip-path="url(#p1065e9cc65)" style="fill: #e74c3c; stroke: #ffffff; stroke-width: 0.6"/>
   </g>
   <g id="text_1">
    <!-- Brunei -->
    <g style="fill: #1a252f" transform="translate(236.862133 20.117344) scale(0.17 -0.17)">
     <defs>
      <path id="DejaVuSans-Bold-25" d="M 2456 2859 
Q 2741 2859 2887 2984 
Q 3034 3109 3034 3353 
Q 3034 3594 2887 3720 
Q 2741 3847 2456 3847 
L 1791 3847 
L 1791 2859 
L 2456 2859 
z
M 2497 819 
Q 2859 819 3042 972 
Q 3225 1125 3225 1434 
Q 3225 1738 3044 1889 
Q 2863 2041 2497 2041 
L 1791 2041 
L 1791 819 
L 2497 819 
z
M 3616 2497 
Q 4003 2384 4215 2081 
Q 4428 1778 4428 1338 
Q 4428 663 3972 331 
Q 3516 0 2584 0 
L 588 0 
L 588 4666 
L 2394 4666 
Q 3366 4666 3802 4372 
Q 4238 4078 4238 3431 
Q 4238 3091 4078 2852 
Q 3919 2613 3616 2497 
z
" transform="scale(0.015625)"/>
      <path id="DejaVuSans-Bold-55" d="M 3138 2547 
Q 2991 2616 2845 2648 
Q 2700 2681 2553 2681 
Q 2122 2681 1889 2404 
Q 1656 2128 1656 1613 
L 1656 0 
L 538 0 
L 538 3500 
L 1656 3500 
L 1656 2925 
Q 1872 3269 2151 3426 
Q 2431 3584 2822 3584 
Q 2878 3584 2943 3579 
Q 3009 3575 3134 3559 
L 3138 2547 
z
" transform="scale(0.015625)"/>
      <path id="DejaVuSans-Bold-58" d="M 500 1363 
L 500 3500 
L 1625 3500 
L 1625 3150 
Q 1625 2866 1622 2436 
Q 1619 2006 1619 1863 
Q 1619 1441 1641 1255 
Q 1663 1069 1716 984 
Q 1784 875 1895 815 
Q 2006 756 2150 756 
Q 2500 756 2700 1025 
Q 2900 1294 2900 1772 
L 2900 3500 
L 4019 3500 
L 4019 0 
L 2900 0 
L 2900 506 
Q 2647 200 2364 54 
Q 2081 -91 1741 -91 
Q 1134 -91 817 281 
Q 500 653 500 1363 
z
" transform="scale(0.015625)"/>
      <path id="DejaVuSans-Bold-51" d="M 4056 2131 
L 4056 0 
L 2931 0 
L 2931 347 
L 2931 1631 
Q 2931 2084 2911 2256 
Q 2891 2428 2841 2509 
Q 2775 2619 2662 2680 
Q 2550 2741 2406 2741 
Q 2056 2741 1856 2470 
Q 1656 2200 1656 1722 
L 1656 0 
L 538 0 
L 538 3500 
L 1656 3500 
L 1656 2988 
Q 1909 3294 2193 3439 
Q 2478 3584 2822 3584 
Q 3428 3584 3742 3212 
Q 4056 2841 4056 2131 
z
" transform="scale(0.015625)"/>
      <path id="DejaVuSans-Bold-48" d="M 4031 1759 
L 4031 1441 
L 1416 1441 
Q 1456 1047 1700 850 
Q 1944 653 2381 653 
Q 2734 653 3104 758 
Q 3475 863 3866 1075 
L 3866 213 
Q 3469 63 3072 -14 
Q 2675 -91 2278 -91 
Q 1328 -91 801 392 
Q 275 875 275 1747 
Q 275 2603 792 3093 
Q 1309 3584 2216 3584 
Q 3041 3584 3536 3087 
Q 4031 2591 4031 1759 
z
M 2881 2131 
Q 2881 2450 2695 2645 
Q 2509 2841 2209 2841 
Q 1884 2841 1681 2658 
Q 1478 2475 1428 2131 
L 2881 2131 
z
" transform="scale(0.015625)"/>
      <path id="DejaVuSans-Bold-4c" d="M 538 3500 
L 1656 3500 
L 1656 0 
L 538 0 
L 538 3500 
z
M 538 4863 
L 1656 4863 
L 1656 3950 
L 538 3950 
L 538 4863 
z
" transform="scale(0.015625)"/>
     </defs>
     <use xlink:href="#DejaVuSans-Bold-25"/>
     <use xlink:href="#DejaVuSans-Bold-55" transform="translate(76.21875 0)"/>
     <use xlink:href="#DejaVuSans-Bold-58" transform="translate(125.53125 0)"/>
     <use xlink:href="#DejaVuSans-Bold-51" transform="translate(196.71875 0)"/>
     <use xlink:href="#DejaVuSans-Bold-48" transform="translate(267.90625 0)"/>
     <use xlink:href="#DejaVuSans-Bold-4c" transform="translate(335.734375 0)"/>
    </g>
   </g>
   <g id="legend_1">
    <g id="patch_2">
     <path d="M 13.5 498.657344 
L 88.097344 498.657344 
Q 89.897344 498.657344 89.897344 496.857344 
L 89.897344 470.755937 
Q 89.897344 468.955937 88.097344 468.955937 
L 13.5 468.955937 
Q 11.7 468.955937 11.7 470.755937 
L 11.7 496.857344 
Q 11.7 498.657344 13.5 498.657344 
z
" style="fill: #ffffff; opacity: 0.85; stroke: #cccccc; stroke-linejoin: miter"/>
    </g>
    <g id="patch_3">
     <path d="M 15.3 479.394531 
L 33.3 479.394531 
L 33.3 473.094531 
L 15.3 473.094531 
z
" style="fill: #e74c3c; stroke: #888888; stroke-linejoin: miter"/>
    </g>
    <g id="text_2">
     <!-- Brunei -->
     <g transform="translate(40.5 479.394531) scale(0.09 -0.09)">
      <defs>
       <path id="DejaVuSans-25" d="M 1259 2228 
L 1259 519 
L 2272 519 
Q 2781 519 3026 730 
Q 3272 941 3272 1375 
Q 3272 1813 3026 2020 
Q 2781 2228 2272 2228 
L 1259 2228 
z
M 1259 4147 
L 1259 2741 
L 2194 2741 
Q 2656 2741 2882 2914 
Q 3109 3088 3109 3444 
Q 3109 3797 2882 3972 
Q 2656 4147 2194 4147 
L 1259 4147 
z
M 628 4666 
L 2241 4666 
Q 2963 4666 3353 4366 
Q 3744 4066 3744 3513 
Q 3744 3084 3544 2831 
Q 3344 2578 2956 2516 
Q 3422 2416 3680 2098 
Q 3938 1781 3938 1306 
Q 3938 681 3513 340 
Q 3088 0 2303 0 
L 628 0 
L 628 4666 
z
" transform="scale(0.015625)"/>
       <path id="DejaVuSans-55" d="M 2631 2963 
Q 2534 3019 2420 3045 
Q 2306 3072 2169 3072 
Q 1681 3072 1420 2755 
Q 1159 2438 1159 1844 
L 1159 0 
L 581 0 
L 581 3500 
L 1159 3500 
L 1159 2956 
Q 1341 3275 1631 3429 
Q 1922 3584 2338 3584 
Q 2397 3584 2469 3576 
Q 2541 3569 2628 3553 
L 2631 2963 
z
" transform="scale(0.015625)"/>
       <path id="DejaVuSans-58" d="M 544 1381 
L 544 3500 
L 1119 3500 
L 1119 1403 
Q 1119 906 1312 657 
Q 1506 409 1894 409 
Q 2359 409 2629 706 
Q 2900 1003 2900 1516 
L 2900 3500 
L 3475 3500 
L 3475 0 
L 2900 0 
L 2900 538 
Q 2691 219 2414 64 
Q 2138 -91 1772 -91 
Q 1169 -91 856 284 
Q 544 659 544 1381 
z
M 1991 3584 
L 1991 3584 
z
" transform="scale(0.015625)"/>
       <path id="DejaVuSans-51" d="M 3513 2113 
L 3513 0 
L 2938 0 
L 2938 2094 
Q 2938 2591 2744 2837 
Q 2550 3084 2163 3084 
Q 1697 3084 1428 2787 
Q 1159 2491 1159 1978 
L 1159 0 
L 581 0 
L 581 3500 
L 1159 3500 
L 1159 2956 
Q 1366 3272 1645 3428 
Q 1925 3584 2291 3584 
Q 2894 3584 3203 3211 
Q 3513 2838 3513 2113 
z
" transform="scale(0.015625)"/>
       <path id="DejaVuSans-48" d="M 3597 1894 
L 3597 1613 
L 953 1613 
Q 991 1019 1311 708 
Q 1631 397 2203 397 
Q 2534 397 2845 478 
Q 3156 559 3463 722 
L 3463 178 
Q 3153 47 2828 -22 
Q 2503 -91 2169 -91 
Q 1331 -91 842 396 
Q 353 884 353 1716 
Q 353 2575 817 3079 
Q 1281 3584 2069 3584 
Q 2775 3584 3186 3129 
Q 3597 2675 3597 1894 
z
M 3022 2063 
Q 3016 2534 2758 2815 
Q 2500 3097 2075 3097 
Q 1594 3097 1305 2825 
Q 1016 2553 972 2059 
L 3022 2063 
z
" transform="scale(0.015625)"/>
       <path id="DejaVuSans-4c" d="M 603 3500 
L 1178 3500 
L 1178 0 
L 603 0 
L 603 3500 
z
M 603 4863 
L 1178 4863 
L 1178 4134 
L 603 4134 
L 603 4863 
z
" transform="scale(0.015625)"/>
      </defs>
      <use xlink:href="#DejaVuSans-25"/>
      <use xlink:href="#DejaVuSans-55" transform="translate(68.609375 0)"/>
      <use xlink:href="#DejaVuSans-58" transform="translate(109.71875 0)"/>
      <use xlink:href="#DejaVuSans-51" transform="translate(173.09375 0)"/>
      <use xlink:href="#DejaVuSans-48" transform="translate(236.46875 0)"/>
      <use xlink:href="#DejaVuSans-4c" transform="translate(298 0)"/>
     </g>
    </g>
    <g id="patch_4">
     <path d="M 15.3 492.895234 
L 33.3 492.895234 
L 33.3 486.595234 
L 15.3 486.595234 
z
" style="fill: #bdc3c7; stroke: #888888; stroke-linejoin: miter"/>
    </g>
    <g id="text_3">
     <!-- Neighbors -->
     <g transform="translate(40.5 492.895234) scale(0.09 -0.09)">
      <defs>
       <path id="DejaVuSans-31" d="M 628 4666 
L 1478 4666 
L 3547 763 
L 3547 4666 
L 4159 4666 
L 4159 0 
L 3309 0 
L 1241 3903 
L 1241 0 
L 628 0 
L 628 4666 
z
" transform="scale(0.015625)"/>
       <path id="DejaVuSans-4a" d="M 2906 1791 
Q 2906 2416 2648 2759 
Q 2391 3103 1925 3103 
Q 1463 3103 1205 2759 
Q 947 2416 947 1791 
Q 947 1169 1205 825 
Q 1463 481 1925 481 
Q 2391 481 2648 825 
Q 2906 1169 2906 1791 
z
M 3481 434 
Q 3481 -459 3084 -895 
Q 2688 -1331 1869 -1331 
Q 1566 -1331 1297 -1286 
Q 1028 -1241 775 -1147 
L 775 -588 
Q 1028 -725 1275 -790 
Q 1522 -856 1778 -856 
Q 2344 -856 2625 -561 
Q 2906 -266 2906 331 
L 2906 616 
Q 2728 306 2450 153 
Q 2172 0 1784 0 
Q 1141 0 747 490 
Q 353 981 353 1791 
Q 353 2603 747 3093 
Q 1141 3584 1784 3584 
Q 2172 3584 2450 3431 
Q 2728 3278 2906 2969 
L 2906 3500 
L 3481 3500 
L 3481 434 
z
" transform="scale(0.015625)"/>
       <path id="DejaVuSans-4b" d="M 3513 2113 
L 3513 0 
L 2938 0 
L 2938 2094 
Q 2938 2591 2744 2837 
Q 2550 3084 2163 3084 
Q 1697 3084 1428 2787 
Q 1159 2491 1159 1978 
L 1159 0 
L 581 0 
L 581 4863 
L 1159 4863 
L 1159 2956 
Q 1366 3272 1645 3428 
Q 1925 3584 2291 3584 
Q 2894 3584 3203 3211 
Q 3513 2838 3513 2113 
z
" transform="scale(0.015625)"/>
       <path id="DejaVuSans-45" d="M 3116 1747 
Q 3116 2381 2855 2742 
Q 2594 3103 2138 3103 
Q 1681 3103 1420 2742 
Q 1159 2381 1159 1747 
Q 1159 1113 1420 752 
Q 1681 391 2138 391 
Q 2594 391 2855 752 
Q 3116 1113 3116 1747 
z
M 1159 2969 
Q 1341 3281 1617 3432 
Q 1894 3584 2278 3584 
Q 2916 3584 3314 3078 
Q 3713 2572 3713 1747 
Q 3713 922 3314 415 
Q 2916 -91 2278 -91 
Q 1894 -91 1617 61 
Q 1341 213 1159 525 
L 1159 0 
L 581 0 
L 581 4863 
L 1159 4863 
L 1159 2969 
z
" transform="scale(0.015625)"/>
       <path id="DejaVuSans-52" d="M 1959 3097 
Q 1497 3097 1228 2736 
Q 959 2375 959 1747 
Q 959 1119 1226 758 
Q 1494 397 1959 397 
Q 2419 397 2687 759 
Q 2956 1122 2956 1747 
Q 2956 2369 2687 2733 
Q 2419 3097 1959 3097 
z
M 1959 3584 
Q 2709 3584 3137 3096 
Q 3566 2609 3566 1747 
Q 3566 888 3137 398 
Q 2709 -91 1959 -91 
Q 1206 -91 779 398 
Q 353 888 353 1747 
Q 353 2609 779 3096 
Q 1206 3584 1959 3584 
z
" transform="scale(0.015625)"/>
       <path id="DejaVuSans-56" d="M 2834 3397 
L 2834 2853 
Q 2591 2978 2328 3040 
Q 2066 3103 1784 3103 
Q 1356 3103 1142 2972 
Q 928 2841 928 2578 
Q 928 2378 1081 2264 
Q 1234 2150 1697 2047 
L 1894 2003 
Q 2506 1872 2764 1633 
Q 3022 1394 3022 966 
Q 3022 478 2636 193 
Q 2250 -91 1575 -91 
Q 1294 -91 989 -36 
Q 684 19 347 128 
L 347 722 
Q 666 556 975 473 
Q 1284 391 1588 391 
Q 1994 391 2212 530 
Q 2431 669 2431 922 
Q 2431 1156 2273 1281 
Q 2116 1406 1581 1522 
L 1381 1569 
Q 847 1681 609 1914 
Q 372 2147 372 2553 
Q 372 3047 722 3315 
Q 1072 3584 1716 3584 
Q 2034 3584 2315 3537 
Q 2597 3491 2834 3397 
z
" transform="scale(0.015625)"/>
      </defs>
      <use xlink:href="#DejaVuSans-31"/>
      <use xlink:href="#DejaVuSans-48" transform="translate(74.8125 0)"/>
      <use xlink:href="#DejaVuSans-4c" transform="translate(136.34375 0)"/>
      <use xlink:href="#DejaVuSans-4a" transform="translate(164.125 0)"/>
      <use xlink:href="#DejaVuSans-4b" transform="translate(227.609375 0)"/>
      <use xlink:href="#DejaVuSans-45" transform="translate(290.984375 0)"/>
      <use xlink:href="#DejaVuSans-52" transform="translate(354.46875 0)"/>
      <use xlink:href="#DejaVuSans-55" transform="translate(415.65625 0)"/>
      <use xlink:href="#DejaVuSans-56" transform="translate(456.765625 0)"/>
     </g>
    </g>
   </g>
  </g>
 </g>
 <defs>
  <clipPath id="p1065e9cc65">
   <rect x="7.2" y="30.117344" width="522.226923" height="473.04"/>
  </clipPath>
 </defs>
</svg>
