<?xml version="1.0" encoding="utf-8" standalone="no"?>
<!DOCTYPE svg PUBLIC "-//W3C//DTD SVG 1.1//EN"
  "http://www.w3.org/Graphics/SVG/1.1/DTD/svg11.dtd">
<svg xmlns:xlink="http://www.w3.org/1999/xlink" width="498.530754pt" height="510.357344pt" viewBox="0 0 498.530754 510.357344" xmlns="http://www.w3.org/2000/svg" version="1.1">
 <metadata>
  <rdf:RDF xmlns:dc="http://purl.org/dc/elements/1.1/" xmlns:cc="http://creativecommons.org/ns#" xmlns:rdf="http://www.w3.org/1999/02/22-rdf-syntax-ns#">
   <cc:Work>
    <dc:type rdf:resource="http://purl.org/dc/dcmitype/StillImage"/>
    <dc:date>2026-06-19T08:36:34.241619</dc:date>
    <dc:format>image/svg+xml</dc:format>
    <dc:creator>
     <cc:Agent>
      <dc:title>Matplotlib v3.11.0, https://matplotlib.org/</dc:title>
     </cc:Agent>
    </dc:creator>
   </cc:Work>
  </rdf:RDF>
 </metadata>
 <defs>
  <style type="text/css">*{stroke-linejoin: round; stroke-linecap: butt}</style>
 </defs>
 <g id="figure_1">
  <g id="patch_1">
   <path d="M 0 510.357344 
L 498.530754 510.357344 
L 498.530754 0 
L 0 0 
z
" style="fill: #d6eaf8"/>
  </g>
  <g id="axes_1">
   <g id="PatchCollection_1">
    <path d="M 271.143644 360.736408 
L 271.143644 359.875483 
L 271.143644 359.186744 
L 272.555145 356.60397 
L 272.90802 355.743045 
L 272.90802 354.365566 
L 271.496519 350.921867 
L 272.555145 350.577497 
L 273.260895 349.888757 
L 273.613771 348.855648 
L 273.613771 347.650353 
L 273.966646 346.617244 
L 274.319521 345.928504 
L 274.672396 345.411949 
L 275.025272 344.895395 
L 274.672396 343.173545 
L 273.966646 341.107326 
L 272.90802 339.557662 
L 271.496519 338.868922 
L 272.20227 338.696737 
L 274.319521 337.663627 
L 272.90802 336.974888 
L 272.20227 336.974888 
L 275.025272 334.736484 
L 275.731022 334.736484 
L 275.731022 335.597408 
L 276.083897 335.941778 
L 276.083897 336.286148 
L 276.436773 336.974888 
L 278.201149 335.769593 
L 279.61265 336.630518 
L 280.318401 338.524552 
L 278.9069 339.729847 
L 280.318401 341.623881 
L 281.729902 342.65699 
L 285.258654 344.551025 
L 284.200029 345.239764 
L 285.964405 345.584134 
L 287.023031 346.272874 
L 288.434532 348.855648 
L 291.257534 352.127162 
L 293.02191 353.160271 
L 294.433411 352.988086 
L 294.786287 353.504641 
L 295.139162 353.849011 
L 295.139162 354.021196 
L 295.844913 354.365566 
L 295.492037 354.537751 
L 296.197788 355.054305 
L 296.903538 355.743045 
L 297.256414 355.743045 
L 298.315039 355.57086 
L 298.667915 355.743045 
L 298.667915 356.087415 
L 298.315039 356.776155 
L 298.667915 357.120525 
L 302.549543 364.868846 
L 302.902418 365.213216 
L 303.255293 365.213216 
L 303.608168 365.557586 
L 303.961044 366.246326 
L 303.961044 366.762881 
L 304.313919 367.10725 
L 304.666794 367.45162 
L 305.372545 367.623805 
L 304.666794 369.17347 
L 303.961044 370.034394 
L 301.843792 371.756244 
L 302.549543 372.444983 
L 301.490917 374.166833 
L 301.138042 375.716497 
L 300.079416 376.921792 
L 298.667915 377.438346 
L 297.962164 377.610531 
L 296.550663 377.954901 
L 295.844913 378.127086 
L 295.139162 377.954901 
L 294.080536 377.610531 
L 293.374786 377.438346 
L 290.198908 377.438346 
L 287.375906 377.093976 
L 284.905779 376.233052 
L 282.435652 375.199942 
L 278.554024 371.928429 
L 277.142523 370.206579 
L 277.142523 366.762881 
L 276.083897 366.074141 
L 274.319521 365.557586 
L 272.90802 364.868846 
L 272.90802 364.352292 
L 272.20227 362.113888 
L 271.849394 361.769518 
L 271.496519 361.252963 
z
" clip-path="url(#p4f2bcf8491)" style="fill: #e74c3c; stroke: #ffffff; stroke-width: 0.6"/>
    <path d="M 117.290026 159.107855 
L 117.642902 157.55819 
L 120.113029 154.803232 
L 121.52453 153.942307 
L 122.936031 153.770122 
L 124.347532 153.770122 
L 125.053282 153.770122 
L 126.111908 153.081382 
L 128.582035 150.842978 
L 130.346411 149.982054 
L 132.816538 148.604574 
L 134.93379 147.915834 
L 140.932669 144.988691 
L 142.697046 144.644321 
L 143.755672 144.988691 
L 144.814297 145.849615 
L 147.284424 145.67743 
L 148.695925 146.193985 
L 149.754551 146.882725 
L 150.107426 147.571465 
L 150.107426 149.982054 
L 150.460302 150.498608 
L 152.930429 151.015163 
L 153.283304 151.359533 
L 153.636179 151.876088 
L 155.04768 153.081382 
L 155.400555 153.770122 
L 155.400555 154.803232 
L 154.694805 155.836341 
L 151.166052 159.796595 
L 150.813177 159.796595 
L 150.107426 160.140964 
L 148.34305 160.829704 
L 147.990175 161.174074 
L 147.284424 162.207184 
L 141.285545 164.962142 
L 138.462543 167.717101 
L 136.698166 170.299875 
L 134.228039 172.021725 
L 129.993536 172.538279 
L 126.111908 172.538279 
L 125.053282 172.882649 
L 124.347532 173.227019 
L 123.288906 173.227019 
L 122.23028 172.19391 
L 121.877405 170.988615 
L 121.877405 164.273403 
L 120.465904 161.862814 
L 120.113029 161.518444 
L 118.348652 161.174074 
L 117.995777 160.829704 
z
" clip-path="url(#p4f2bcf8491)" style="fill: #e74c3c; stroke: #ffffff; stroke-width: 0.6"/>
    <path d="M 352.304956 261.385703 
L 352.304956 259.491669 
L 352.657831 257.597635 
L 353.716457 256.220155 
L 355.127958 255.703601 
L 357.245209 253.981751 
L 356.186584 245.028135 
L 356.892334 241.756621 
L 357.245209 242.617546 
L 357.598085 243.134101 
L 359.009586 243.995025 
L 360.773962 244.85595 
L 363.244089 245.716875 
L 365.361341 245.88906 
L 366.419966 245.028135 
L 367.125717 243.478471 
L 368.890093 243.134101 
L 374.536098 244.51158 
L 375.594723 245.028135 
L 376.653349 245.716875 
L 377.006224 246.405614 
L 377.711975 248.471834 
L 378.06485 248.816203 
L 379.829227 249.504943 
L 380.182102 251.226793 
L 379.829227 255.187046 
L 380.182102 255.359231 
L 380.887852 256.220155 
L 381.240728 257.42545 
L 380.887852 257.942005 
L 380.534977 258.286375 
L 380.182102 259.319484 
L 380.182102 260.180409 
L 378.417726 261.385703 
L 373.124596 265.690327 
L 369.595844 267.584361 
L 367.831467 268.100916 
L 362.185463 268.445286 
L 361.126837 268.273101 
L 360.068212 267.928731 
L 358.65671 266.723436 
L 357.598085 266.379066 
L 354.069332 264.657217 
L 352.657831 263.624107 
z
" clip-path="url(#p4f2bcf8491)" style="fill: #e74c3c; stroke: #ffffff; stroke-width: 0.6"/>
    <path d="M 323.369184 350.921867 
L 323.722059 349.544388 
L 324.427809 348.339093 
L 324.780685 347.133799 
L 324.074934 345.928504 
L 325.486435 345.067579 
L 326.192186 343.862285 
L 325.486435 342.65699 
L 324.074934 342.484805 
L 324.427809 341.107326 
L 326.545061 339.385477 
L 327.956562 336.974888 
L 327.603687 336.630518 
L 327.603687 336.458333 
L 327.250812 336.113963 
L 328.662313 335.597408 
L 330.073814 334.736484 
L 330.073814 335.080853 
L 330.073814 336.113963 
L 330.779564 335.425223 
L 331.132439 335.253038 
L 331.485315 334.736484 
L 332.191065 335.425223 
L 331.485315 336.113963 
L 332.896816 336.802703 
L 335.014067 336.286148 
L 336.072693 336.974888 
L 336.778444 338.180182 
L 336.778444 339.729847 
L 336.778444 342.484805 
L 337.83707 348.339093 
L 337.83707 351.094052 
L 336.072693 353.676826 
L 335.719818 353.849011 
L 333.955442 354.193381 
L 333.602566 354.365566 
L 333.249691 354.88212 
L 332.543941 356.087415 
L 332.191065 356.431785 
L 330.779564 356.60397 
L 329.368063 356.2596 
L 327.250812 355.054305 
L 325.13356 353.332456 
L 324.074934 352.127162 
z
" clip-path="url(#p4f2bcf8491)" style="fill: #e74c3c; stroke: #ffffff; stroke-width: 0.6"/>
    <path d="M 349.481953 186.657444 
L 349.481953 183.558115 
L 351.599205 182.008451 
L 356.186584 178.909122 
L 356.892334 179.770046 
L 358.65671 181.319711 
L 359.009586 182.180636 
L 358.65671 182.525005 
L 358.303835 183.7303 
L 357.598085 184.763409 
L 357.598085 185.107779 
L 357.95096 185.279964 
L 358.303835 185.624334 
L 357.95096 191.650807 
L 358.303835 193.544841 
L 358.65671 194.233581 
L 360.068212 195.438875 
L 360.421087 196.127615 
L 360.068212 197.160724 
L 359.715336 199.226944 
L 359.715336 200.260053 
L 359.362461 200.776608 
L 358.65671 201.465348 
L 358.303835 201.981902 
L 358.303835 202.498457 
L 358.65671 203.359382 
L 358.65671 203.875937 
L 359.009586 204.048122 
L 358.303835 204.909046 
L 357.598085 205.253416 
L 356.892334 205.597786 
L 355.480833 206.114341 
L 354.422207 198.366019 
L 353.010706 195.438875 
L 350.893455 196.471985 
L 350.540579 194.92232 
L 350.187704 193.028286 
L 350.540579 191.134252 
L 351.599205 190.101142 
L 351.599205 189.412403 
L 350.187704 189.068033 
L 349.834829 188.034923 
z
" clip-path="url(#p4f2bcf8491)" style="fill: #e74c3c; stroke: #ffffff; stroke-width: 0.6"/>
    <path d="M 208.331846 201.465348 
L 209.390472 199.226944 
L 215.036476 197.160724 
L 216.095102 197.332909 
L 217.153728 197.849464 
L 218.565229 198.538204 
L 220.68248 200.604423 
L 222.093981 201.293163 
L 222.799732 201.293163 
L 228.445736 200.432238 
L 229.504362 200.604423 
L 233.033115 202.326272 
L 233.738865 202.498457 
L 241.854996 203.187197 
L 243.972248 204.048122 
L 246.0895 205.597786 
L 247.148125 206.286526 
L 247.501001 205.769971 
L 247.501001 209.385854 
L 246.442375 209.558039 
L 239.38487 209.730224 
L 231.974489 206.286526 
L 227.739986 205.253416 
L 223.858358 206.803081 
L 222.446857 208.52493 
L 219.623854 213.690478 
L 218.918104 217.478546 
L 217.859478 216.273252 
L 216.447977 212.485183 
L 216.095102 211.624259 
L 215.389351 210.935519 
L 214.683601 210.074594 
L 214.683601 208.697115 
L 214.683601 207.664005 
L 214.330725 206.803081 
L 213.624975 206.286526 
L 212.919224 206.114341 
L 210.449097 205.425601 
L 209.037596 203.703752 
z
" clip-path="url(#p4f2bcf8491)" style="fill: #e74c3c; stroke: #ffffff; stroke-width: 0.6"/>
    <path d="M 143.402796 182.525005 
L 143.755672 180.286601 
L 144.814297 178.564752 
L 146.225798 177.359457 
L 147.6373 176.842903 
L 150.813177 176.842903 
L 151.871803 176.154163 
L 151.518928 174.776684 
L 154.34193 173.227019 
L 154.694805 172.538279 
L 155.400555 172.538279 
L 156.106306 174.087944 
L 157.164932 173.915759 
L 158.576433 172.538279 
L 159.635059 173.054834 
L 160.693685 174.087944 
L 161.04656 174.948868 
L 160.340809 175.465423 
L 160.340809 175.809793 
L 161.04656 176.842903 
L 162.458061 177.703827 
L 163.869562 178.220382 
L 164.222437 178.736937 
L 164.575312 180.114416 
L 164.928188 181.491896 
L 164.928188 182.525005 
L 163.163811 183.7303 
L 161.04656 184.591225 
L 158.223558 185.107779 
L 155.753431 185.279964 
L 155.04768 185.452149 
L 154.34193 186.485259 
L 153.636179 186.657444 
L 152.930429 186.485259 
L 146.931549 184.07467 
L 145.872923 183.558115 
L 145.167173 182.869375 
L 144.814297 181.836266 
z
" clip-path="url(#p4f2bcf8491)" style="fill: #e74c3c; stroke: #ffffff; stroke-width: 0.6"/>
    <path d="M 199.157089 376.405237 
L 199.509964 374.339018 
L 200.921465 371.756244 
L 202.685842 369.690024 
L 205.155968 367.968175 
L 211.154848 364.868846 
L 212.919224 364.180107 
L 215.036476 364.007922 
L 217.153728 364.524477 
L 218.212353 365.729771 
L 219.270979 367.279435 
L 220.68248 370.723134 
L 221.741106 375.716497 
L 221.741106 377.093976 
L 221.035356 378.127086 
L 221.388231 379.332381 
L 221.741106 380.537675 
L 222.093981 381.570785 
L 221.388231 382.603894 
L 217.859478 385.875408 
L 213.624975 387.425072 
L 210.096222 386.908517 
L 206.567469 385.186668 
L 200.921465 380.36549 
L 199.509964 378.471456 
z
" clip-path="url(#p4f2bcf8491)" style="fill: #e74c3c; stroke: #ffffff; stroke-width: 0.6"/>
    <path d="M 176.220196 385.875408 
L 176.573072 384.842298 
L 176.925947 383.981374 
L 176.573072 383.120449 
L 176.220196 382.259524 
L 177.631697 382.259524 
L 177.278822 380.36549 
L 178.337448 379.67675 
L 180.101824 379.504565 
L 181.513325 378.815826 
L 182.571951 379.848935 
L 183.277702 381.226415 
L 183.630577 382.948264 
L 183.630577 384.670113 
L 183.277702 386.391963 
L 182.571951 387.080702 
L 181.513325 387.597257 
L 181.16045 388.630367 
L 180.101824 388.630367 
L 179.396074 387.597257 
L 177.631697 386.391963 
L 176.925947 385.186668 
z
" clip-path="url(#p4f2bcf8491)" style="fill: #e74c3c; stroke: #ffffff; stroke-width: 0.6"/>
   </g>
   <g id="text_1">
    <!-- Cabo Verde -->
    <g style="fill: #1a252f" transform="translate(194.48819 20.117344) scale(0.17 -0.17)">
     <defs>
      <path id="DejaVuSans-Bold-26" d="M 4288 256 
Q 3956 84 3597 -3 
Q 3238 -91 2847 -91 
Q 1681 -91 1000 561 
Q 319 1213 319 2328 
Q 319 3447 1000 4098 
Q 1681 4750 2847 4750 
Q 3238 4750 3597 4662 
Q 3956 4575 4288 4403 
L 4288 3438 
Q 3953 3666 3628 3772 
Q 3303 3878 2944 3878 
Q 2300 3878 1931 3465 
Q 1563 3053 1563 2328 
Q 1563 1606 1931 1193 
Q 2300 781 2944 781 
Q 3303 781 3628 887 
Q 3953 994 4288 1222 
L 4288 256 
z
" transform="scale(0.015625)"/>
      <path id="DejaVuSans-Bold-44" d="M 2106 1575 
Q 1756 1575 1579 1456 
Q 1403 1338 1403 1106 
Q 1403 894 1545 773 
Q 1688 653 1941 653 
Q 2256 653 2472 879 
Q 2688 1106 2688 1447 
L 2688 1575 
L 2106 1575 
z
M 3816 1997 
L 3816 0 
L 2688 0 
L 2688 519 
Q 2463 200 2181 54 
Q 1900 -91 1497 -91 
Q 953 -91 614 226 
Q 275 544 275 1050 
Q 275 1666 698 1953 
Q 1122 2241 2028 2241 
L 2688 2241 
L 2688 2328 
Q 2688 2594 2478 2717 
Q 2269 2841 1825 2841 
Q 1466 2841 1156 2769 
Q 847 2697 581 2553 
L 581 3406 
Q 941 3494 1303 3539 
Q 1666 3584 2028 3584 
Q 2975 3584 3395 3211 
Q 3816 2838 3816 1997 
z
" transform="scale(0.015625)"/>
      <path id="DejaVuSans-Bold-45" d="M 2400 722 
Q 2759 722 2948 984 
Q 3138 1247 3138 1747 
Q 3138 2247 2948 2509 
Q 2759 2772 2400 2772 
Q 2041 2772 1848 2508 
Q 1656 2244 1656 1747 
Q 1656 1250 1848 986 
Q 2041 722 2400 722 
z
M 1656 2988 
Q 1888 3294 2169 3439 
Q 2450 3584 2816 3584 
Q 3463 3584 3878 3070 
Q 4294 2556 4294 1747 
Q 4294 938 3878 423 
Q 3463 -91 2816 -91 
Q 2450 -91 2169 54 
Q 1888 200 1656 506 
L 1656 0 
L 538 0 
L 538 4863 
L 1656 4863 
L 1656 2988 
z
" transform="scale(0.015625)"/>
      <path id="DejaVuSans-Bold-52" d="M 2203 2784 
Q 1831 2784 1636 2517 
Q 1441 2250 1441 1747 
Q 1441 1244 1636 976 
Q 1831 709 2203 709 
Q 2569 709 2762 976 
Q 2956 1244 2956 1747 
Q 2956 2250 2762 2517 
Q 2569 2784 2203 2784 
z
M 2203 3584 
Q 3106 3584 3614 3096 
Q 4122 2609 4122 1747 
Q 4122 884 3614 396 
Q 3106 -91 2203 -91 
Q 1297 -91 786 396 
Q 275 884 275 1747 
Q 275 2609 786 3096 
Q 1297 3584 2203 3584 
z
" transform="scale(0.015625)"/>
      <path id="DejaVuSans-Bold-3" transform="scale(0.015625)"/>
      <path id="DejaVuSans-Bold-39" d="M 31 4666 
L 1241 4666 
L 2478 1222 
L 3713 4666 
L 4922 4666 
L 3194 0 
L 1759 0 
L 31 4666 
z
" transform="scale(0.015625)"/>
      <path id="DejaVuSans-Bold-48" d="M 4031 1759 
L 4031 1441 
L 1416 1441 
Q 1456 1047 1700 850 
Q 1944 653 2381 653 
Q 2734 653 3104 758 
Q 3475 863 3866 1075 
L 3866 213 
Q 3469 63 3072 -14 
Q 2675 -91 2278 -91 
Q 1328 -91 801 392 
Q 275 875 275 1747 
Q 275 2603 792 3093 
Q 1309 3584 2216 3584 
Q 3041 3584 3536 3087 
Q 4031 2591 4031 1759 
z
M 2881 2131 
Q 2881 2450 2695 2645 
Q 2509 2841 2209 2841 
Q 1884 2841 1681 2658 
Q 1478 2475 1428 2131 
L 2881 2131 
z
" transform="scale(0.015625)"/>
      <path id="DejaVuSans-Bold-55" d="M 3138 2547 
Q 2991 2616 2845 2648 
Q 2700 2681 2553 2681 
Q 2122 2681 1889 2404 
Q 1656 2128 1656 1613 
L 1656 0 
L 538 0 
L 538 3500 
L 1656 3500 
L 1656 2925 
Q 1872 3269 2151 3426 
Q 2431 3584 2822 3584 
Q 2878 3584 2943 3579 
Q 3009 3575 3134 3559 
L 3138 2547 
z
" transform="scale(0.015625)"/>
      <path id="DejaVuSans-Bold-47" d="M 2919 2988 
L 2919 4863 
L 4044 4863 
L 4044 0 
L 2919 0 
L 2919 506 
Q 2688 197 2409 53 
Q 2131 -91 1766 -91 
Q 1119 -91 703 423 
Q 288 938 288 1747 
Q 288 2556 703 3070 
Q 1119 3584 1766 3584 
Q 2128 3584 2408 3439 
Q 2688 3294 2919 2988 
z
M 2181 722 
Q 2541 722 2730 984 
Q 2919 1247 2919 1747 
Q 2919 2247 2730 2509 
Q 2541 2772 2181 2772 
Q 1825 2772 1636 2509 
Q 1447 2247 1447 1747 
Q 1447 1247 1636 984 
Q 1825 722 2181 722 
z
" transform="scale(0.015625)"/>
     </defs>
     <use xlink:href="#DejaVuSans-Bold-26"/>
     <use xlink:href="#DejaVuSans-Bold-44" transform="translate(73.390625 0)"/>
     <use xlink:href="#DejaVuSans-Bold-45" transform="translate(140.875 0)"/>
     <use xlink:href="#DejaVuSans-Bold-52" transform="translate(212.453125 0)"/>
     <use xlink:href="#DejaVuSans-Bold-3" transform="translate(281.15625 0)"/>
     <use xlink:href="#DejaVuSans-Bold-39" transform="translate(315.96875 0)"/>
     <use xlink:href="#DejaVuSans-Bold-48" transform="translate(387.890625 0)"/>
     <use xlink:href="#DejaVuSans-Bold-55" transform="translate(455.71875 0)"/>
     <use xlink:href="#DejaVuSans-Bold-47" transform="translate(505.03125 0)"/>
     <use xlink:href="#DejaVuSans-Bold-48" transform="translate(576.609375 0)"/>
    </g>
   </g>
   <g id="line2d_1">
    <path d="M 318.275341 414.562869 
" clip-path="url(#p4f2bcf8491)" style="fill: none; stroke: #ffffff; stroke-width: 1.5; stroke-linecap: square"/>
    <defs>
     <path id="m509cb3e1d7" d="M 0 2.5 
C 0.663008 2.5 1.29895 2.236584 1.767767 1.767767 
C 2.236584 1.29895 2.5 0.663008 2.5 0 
C 2.5 -0.663008 2.236584 -1.29895 1.767767 -1.767767 
C 1.29895 -2.236584 0.663008 -2.5 0 -2.5 
C -0.663008 -2.5 -1.29895 -2.236584 -1.767767 -1.767767 
C -2.236584 -1.29895 -2.5 -0.663008 -2.5 0 
C -2.5 0.663008 -2.236584 1.29895 -1.767767 1.767767 
C -1.29895 2.236584 -0.663008 2.5 0 2.5 
z
" style="stroke: #1a252f; stroke-width: 0.8"/>
    </defs>
    <g clip-path="url(#p4f2bcf8491)">
     <use xlink:href="#m509cb3e1d7" x="318.275341" y="414.562869" style="fill: #ffffff; stroke: #1a252f; stroke-width: 0.8"/>
    </g>
   </g>
   <g id="text_2">
    <g clip-path="url(#p4f2bcf8491)">
     <!-- Praia -->
     <g style="fill: #ffffff" transform="translate(332.036594 416.511405) scale(0.075 -0.075)">
      <defs>
       <path id="DejaVuSans-Bold-33" d="M 588 4666 
L 2584 4666 
Q 3475 4666 3951 4270 
Q 4428 3875 4428 3144 
Q 4428 2409 3951 2014 
Q 3475 1619 2584 1619 
L 1791 1619 
L 1791 0 
L 588 0 
L 588 4666 
z
M 1791 3794 
L 1791 2491 
L 2456 2491 
Q 2806 2491 2997 2661 
Q 3188 2831 3188 3144 
Q 3188 3456 2997 3625 
Q 2806 3794 2456 3794 
L 1791 3794 
z
" transform="scale(0.015625)"/>
       <path id="DejaVuSans-Bold-4c" d="M 538 3500 
L 1656 3500 
L 1656 0 
L 538 0 
L 538 3500 
z
M 538 4863 
L 1656 4863 
L 1656 3950 
L 538 3950 
L 538 4863 
z
" transform="scale(0.015625)"/>
      </defs>
      <use xlink:href="#DejaVuSans-Bold-33"/>
      <use xlink:href="#DejaVuSans-Bold-55" transform="translate(73.296875 0)"/>
      <use xlink:href="#DejaVuSans-Bold-44" transform="translate(122.609375 0)"/>
      <use xlink:href="#DejaVuSans-Bold-4c" transform="translate(190.09375 0)"/>
      <use xlink:href="#DejaVuSans-Bold-44" transform="translate(224.375 0)"/>
     </g>
    </g>
   </g>
   <g id="legend_1">
    <g id="patch_2">
     <path d="M 13.5 498.657344 
L 93.969844 498.657344 
Q 95.769844 498.657344 95.769844 496.857344 
L 95.769844 470.755937 
Q 95.769844 468.955937 93.969844 468.955937 
L 13.5 468.955937 
Q 11.7 468.955937 11.7 470.755937 
L 11.7 496.857344 
Q 11.7 498.657344 13.5 498.657344 
z
" style="fill: #ffffff; opacity: 0.85; stroke: #cccccc; stroke-linejoin: miter"/>
    </g>
    <g id="patch_3">
     <path d="M 15.3 479.394531 
L 33.3 479.394531 
L 33.3 473.094531 
L 15.3 473.094531 
z
" style="fill: #e74c3c; stroke: #888888; stroke-linejoin: miter"/>
    </g>
    <g id="text_3">
     <!-- Cabo Verde -->
     <g transform="translate(40.5 479.394531) scale(0.09 -0.09)">
      <defs>
       <path id="DejaVuSans-26" d="M 4122 4306 
L 4122 3641 
Q 3803 3938 3442 4084 
Q 3081 4231 2675 4231 
Q 1875 4231 1450 3742 
Q 1025 3253 1025 2328 
Q 1025 1406 1450 917 
Q 1875 428 2675 428 
Q 3081 428 3442 575 
Q 3803 722 4122 1019 
L 4122 359 
Q 3791 134 3420 21 
Q 3050 -91 2638 -91 
Q 1578 -91 968 557 
Q 359 1206 359 2328 
Q 359 3453 968 4101 
Q 1578 4750 2638 4750 
Q 3056 4750 3426 4639 
Q 3797 4528 4122 4306 
z
" transform="scale(0.015625)"/>
       <path id="DejaVuSans-44" d="M 2194 1759 
Q 1497 1759 1228 1600 
Q 959 1441 959 1056 
Q 959 750 1161 570 
Q 1363 391 1709 391 
Q 2188 391 2477 730 
Q 2766 1069 2766 1631 
L 2766 1759 
L 2194 1759 
z
M 3341 1997 
L 3341 0 
L 2766 0 
L 2766 531 
Q 2569 213 2275 61 
Q 1981 -91 1556 -91 
Q 1019 -91 701 211 
Q 384 513 384 1019 
Q 384 1609 779 1909 
Q 1175 2209 1959 2209 
L 2766 2209 
L 2766 2266 
Q 2766 2663 2505 2880 
Q 2244 3097 1772 3097 
Q 1472 3097 1187 3025 
Q 903 2953 641 2809 
L 641 3341 
Q 956 3463 1253 3523 
Q 1550 3584 1831 3584 
Q 2591 3584 2966 3190 
Q 3341 2797 3341 1997 
z
" transform="scale(0.015625)"/>
       <path id="DejaVuSans-45" d="M 3116 1747 
Q 3116 2381 2855 2742 
Q 2594 3103 2138 3103 
Q 1681 3103 1420 2742 
Q 1159 2381 1159 1747 
Q 1159 1113 1420 752 
Q 1681 391 2138 391 
Q 2594 391 2855 752 
Q 3116 1113 3116 1747 
z
M 1159 2969 
Q 1341 3281 1617 3432 
Q 1894 3584 2278 3584 
Q 2916 3584 3314 3078 
Q 3713 2572 3713 1747 
Q 3713 922 3314 415 
Q 2916 -91 2278 -91 
Q 1894 -91 1617 61 
Q 1341 213 1159 525 
L 1159 0 
L 581 0 
L 581 4863 
L 1159 4863 
L 1159 2969 
z
" transform="scale(0.015625)"/>
       <path id="DejaVuSans-52" d="M 1959 3097 
Q 1497 3097 1228 2736 
Q 959 2375 959 1747 
Q 959 1119 1226 758 
Q 1494 397 1959 397 
Q 2419 397 2687 759 
Q 2956 1122 2956 1747 
Q 2956 2369 2687 2733 
Q 2419 3097 1959 3097 
z
M 1959 3584 
Q 2709 3584 3137 3096 
Q 3566 2609 3566 1747 
Q 3566 888 3137 398 
Q 2709 -91 1959 -91 
Q 1206 -91 779 398 
Q 353 888 353 1747 
Q 353 2609 779 3096 
Q 1206 3584 1959 3584 
z
" transform="scale(0.015625)"/>
       <path id="DejaVuSans-3" transform="scale(0.015625)"/>
       <path id="DejaVuSans-39" d="M 1831 0 
L 50 4666 
L 709 4666 
L 2188 738 
L 3669 4666 
L 4325 4666 
L 2547 0 
L 1831 0 
z
" transform="scale(0.015625)"/>
       <path id="DejaVuSans-48" d="M 3597 1894 
L 3597 1613 
L 953 1613 
Q 991 1019 1311 708 
Q 1631 397 2203 397 
Q 2534 397 2845 478 
Q 3156 559 3463 722 
L 3463 178 
Q 3153 47 2828 -22 
Q 2503 -91 2169 -91 
Q 1331 -91 842 396 
Q 353 884 353 1716 
Q 353 2575 817 3079 
Q 1281 3584 2069 3584 
Q 2775 3584 3186 3129 
Q 3597 2675 3597 1894 
z
M 3022 2063 
Q 3016 2534 2758 2815 
Q 2500 3097 2075 3097 
Q 1594 3097 1305 2825 
Q 1016 2553 972 2059 
L 3022 2063 
z
" transform="scale(0.015625)"/>
       <path id="DejaVuSans-55" d="M 2631 2963 
Q 2534 3019 2420 3045 
Q 2306 3072 2169 3072 
Q 1681 3072 1420 2755 
Q 1159 2438 1159 1844 
L 1159 0 
L 581 0 
L 581 3500 
L 1159 3500 
L 1159 2956 
Q 1341 3275 1631 3429 
Q 1922 3584 2338 3584 
Q 2397 3584 2469 3576 
Q 2541 3569 2628 3553 
L 2631 2963 
z
" transform="scale(0.015625)"/>
       <path id="DejaVuSans-47" d="M 2906 2969 
L 2906 4863 
L 3481 4863 
L 3481 0 
L 2906 0 
L 2906 525 
Q 2725 213 2448 61 
Q 2172 -91 1784 -91 
Q 1150 -91 751 415 
Q 353 922 353 1747 
Q 353 2572 751 3078 
Q 1150 3584 1784 3584 
Q 2172 3584 2448 3432 
Q 2725 3281 2906 2969 
z
M 947 1747 
Q 947 1113 1208 752 
Q 1469 391 1925 391 
Q 2381 391 2643 752 
Q 2906 1113 2906 1747 
Q 2906 2381 2643 2742 
Q 2381 3103 1925 3103 
Q 1469 3103 1208 2742 
Q 947 2381 947 1747 
z
" transform="scale(0.015625)"/>
      </defs>
      <use xlink:href="#DejaVuSans-26"/>
      <use xlink:href="#DejaVuSans-44" transform="translate(69.828125 0)"/>
      <use xlink:href="#DejaVuSans-45" transform="translate(131.109375 0)"/>
      <use xlink:href="#DejaVuSans-52" transform="translate(194.59375 0)"/>
      <use xlink:href="#DejaVuSans-3" transform="translate(255.78125 0)"/>
      <use xlink:href="#DejaVuSans-39" transform="translate(287.5625 0)"/>
      <use xlink:href="#DejaVuSans-48" transform="translate(348.203125 0)"/>
      <use xlink:href="#DejaVuSans-55" transform="translate(409.734375 0)"/>
      <use xlink:href="#DejaVuSans-47" transform="translate(449.09375 0)"/>
      <use xlink:href="#DejaVuSans-48" transform="translate(512.578125 0)"/>
     </g>
    </g>
    <g id="patch_4">
     <path d="M 15.3 492.895234 
L 33.3 492.895234 
L 33.3 486.595234 
L 15.3 486.595234 
z
" style="fill: #bdc3c7; stroke: #888888; stroke-linejoin: miter"/>
    </g>
    <g id="text_4">
     <!-- Neighbors -->
     <g transform="translate(40.5 492.895234) scale(0.09 -0.09)">
      <defs>
       <path id="DejaVuSans-31" d="M 628 4666 
L 1478 4666 
L 3547 763 
L 3547 4666 
L 4159 4666 
L 4159 0 
L 3309 0 
L 1241 3903 
L 1241 0 
L 628 0 
L 628 4666 
z
" transform="scale(0.015625)"/>
       <path id="DejaVuSans-4c" d="M 603 3500 
L 1178 3500 
L 1178 0 
L 603 0 
L 603 3500 
z
M 603 4863 
L 1178 4863 
L 1178 4134 
L 603 4134 
L 603 4863 
z
" transform="scale(0.015625)"/>
       <path id="DejaVuSans-4a" d="M 2906 1791 
Q 2906 2416 2648 2759 
Q 2391 3103 1925 3103 
Q 1463 3103 1205 2759 
Q 947 2416 947 1791 
Q 947 1169 1205 825 
Q 1463 481 1925 481 
Q 2391 481 2648 825 
Q 2906 1169 2906 1791 
z
M 3481 434 
Q 3481 -459 3084 -895 
Q 2688 -1331 1869 -1331 
Q 1566 -1331 1297 -1286 
Q 1028 -1241 775 -1147 
L 775 -588 
Q 1028 -725 1275 -790 
Q 1522 -856 1778 -856 
Q 2344 -856 2625 -561 
Q 2906 -266 2906 331 
L 2906 616 
Q 2728 306 2450 153 
Q 2172 0 1784 0 
Q 1141 0 747 490 
Q 353 981 353 1791 
Q 353 2603 747 3093 
Q 1141 3584 1784 3584 
Q 2172 3584 2450 3431 
Q 2728 3278 2906 2969 
L 2906 3500 
L 3481 3500 
L 3481 434 
z
" transform="scale(0.015625)"/>
       <path id="DejaVuSans-4b" d="M 3513 2113 
L 3513 0 
L 2938 0 
L 2938 2094 
Q 2938 2591 2744 2837 
Q 2550 3084 2163 3084 
Q 1697 3084 1428 2787 
Q 1159 2491 1159 1978 
L 1159 0 
L 581 0 
L 581 4863 
L 1159 4863 
L 1159 2956 
Q 1366 3272 1645 3428 
Q 1925 3584 2291 3584 
Q 2894 3584 3203 3211 
Q 3513 2838 3513 2113 
z
" transform="scale(0.015625)"/>
       <path id="DejaVuSans-56" d="M 2834 3397 
L 2834 2853 
Q 2591 2978 2328 3040 
Q 2066 3103 1784 3103 
Q 1356 3103 1142 2972 
Q 928 2841 928 2578 
Q 928 2378 1081 2264 
Q 1234 2150 1697 2047 
L 1894 2003 
Q 2506 1872 2764 1633 
Q 3022 1394 3022 966 
Q 3022 478 2636 193 
Q 2250 -91 1575 -91 
Q 1294 -91 989 -36 
Q 684 19 347 128 
L 347 722 
Q 666 556 975 473 
Q 1284 391 1588 391 
Q 1994 391 2212 530 
Q 2431 669 2431 922 
Q 2431 1156 2273 1281 
Q 2116 1406 1581 1522 
L 1381 1569 
Q 847 1681 609 1914 
Q 372 2147 372 2553 
Q 372 3047 722 3315 
Q 1072 3584 1716 3584 
Q 2034 3584 2315 3537 
Q 2597 3491 2834 3397 
z
" transform="scale(0.015625)"/>
      </defs>
      <use xlink:href="#DejaVuSans-31"/>
      <use xlink:href="#DejaVuSans-48" transform="translate(74.8125 0)"/>
      <use xlink:href="#DejaVuSans-4c" transform="translate(136.34375 0)"/>
      <use xlink:href="#DejaVuSans-4a" transform="translate(164.125 0)"/>
      <use xlink:href="#DejaVuSans-4b" transform="translate(227.609375 0)"/>
      <use xlink:href="#DejaVuSans-45" transform="translate(290.984375 0)"/>
      <use xlink:href="#DejaVuSans-52" transform="translate(354.46875 0)"/>
      <use xlink:href="#DejaVuSans-55" transform="translate(415.65625 0)"/>
      <use xlink:href="#DejaVuSans-56" transform="translate(456.765625 0)"/>
     </g>
    </g>
   </g>
  </g>
 </g>
 <defs>
  <clipPath id="p4f2bcf8491">
   <rect x="7.2" y="30.117344" width="484.130754" height="473.04"/>
  </clipPath>
 </defs>
</svg>
