<?xml version="1.0" encoding="utf-8" standalone="no"?>
<!DOCTYPE svg PUBLIC "-//W3C//DTD SVG 1.1//EN"
  "http://www.w3.org/Graphics/SVG/1.1/DTD/svg11.dtd">
<svg xmlns:xlink="http://www.w3.org/1999/xlink" width="870.4pt" height="505.348567pt" viewBox="0 0 870.4 505.348567" xmlns="http://www.w3.org/2000/svg" version="1.1">
 <metadata>
  <rdf:RDF xmlns:dc="http://purl.org/dc/elements/1.1/" xmlns:cc="http://creativecommons.org/ns#" xmlns:rdf="http://www.w3.org/1999/02/22-rdf-syntax-ns#">
   <cc:Work>
    <dc:type rdf:resource="http://purl.org/dc/dcmitype/StillImage"/>
    <dc:date>2026-06-19T08:14:07.867777</dc:date>
    <dc:format>image/svg+xml</dc:format>
    <dc:creator>
     <cc:Agent>
      <dc:title>Matplotlib v3.11.0, https://matplotlib.org/</dc:title>
     </cc:Agent>
    </dc:creator>
   </cc:Work>
  </rdf:RDF>
 </metadata>
 <defs>
  <style type="text/css">*{stroke-linejoin: round; stroke-linecap: butt}</style>
 </defs>
 <g id="figure_1">
  <g id="patch_1">
   <path d="M 0 505.348567 
L 870.4 505.348567 
L 870.4 0 
L 0 0 
z
" style="fill: #d6eaf8"/>
  </g>
  <g id="axes_1">
   <g id="PatchCollection_1">
    <path d="M 680.950468 365.077051 
L 681.155773 362.799338 
L 684.030047 360.72869 
L 685.056574 360.72869 
L 684.645963 361.039288 
L 684.440658 361.55695 
L 684.851269 361.971079 
L 685.261879 362.695806 
L 684.440658 362.902871 
L 683.619437 363.006403 
L 683.208826 363.420533 
L 683.003521 363.73113 
L 682.59291 363.73113 
L 682.59291 363.317 
L 682.1823 363.317 
L 681.976994 363.524065 
L 681.771689 363.627598 
L 681.771689 363.938195 
L 682.387605 364.352325 
L 683.208826 364.455857 
L 683.208826 364.766454 
L 682.387605 364.766454 
z
" clip-path="url(#p48d76b2afe)" style="fill: #bdc3c7; stroke: #ffffff; stroke-width: 0.5"/>
    <path d="M 684.645963 365.284116 
L 684.851269 364.248792 
L 685.261879 363.938195 
L 685.877795 363.627598 
L 687.109627 362.592274 
L 687.520238 362.385209 
L 688.136154 362.488741 
L 688.341459 361.867547 
L 688.136154 361.453417 
L 687.520238 361.039288 
L 686.699017 361.660482 
L 686.493711 361.55695 
L 686.288406 361.14282 
L 686.288406 360.72869 
L 688.75207 360.72869 
L 688.75207 365.284116 
L 687.930849 365.284116 
L 686.288406 365.594713 
L 684.851269 365.698246 
z
" clip-path="url(#p48d76b2afe)" style="fill: #bdc3c7; stroke: #ffffff; stroke-width: 0.5"/>
   </g>
   <g id="PatchCollection_2">
    <path d="M 126.83141 244.875928 
L 126.83141 243.944136 
L 127.036715 242.908812 
L 127.24202 242.494683 
L 127.447326 241.977021 
L 127.857936 241.562891 
L 128.268547 241.459359 
L 128.473852 241.562891 
L 128.679158 241.873488 
L 128.884463 242.287618 
L 128.884463 242.494683 
L 129.295074 242.908812 
L 129.91099 243.012345 
L 130.3216 243.115877 
L 130.937516 243.115877 
L 131.758737 242.701747 
L 132.579959 241.977021 
L 132.579959 241.148761 
L 131.553432 240.527567 
L 132.579959 240.009905 
L 133.40118 240.009905 
L 134.017096 240.631099 
L 134.017096 241.769956 
L 138.739118 239.285178 
L 142.845225 238.042789 
L 147.567247 235.868609 
L 150.646827 233.590896 
L 151.262743 233.383831 
L 151.878659 233.383831 
L 152.69988 233.487363 
L 152.905185 233.694428 
L 152.69988 234.21209 
L 154.547628 235.040349 
L 155.77946 234.62622 
L 157.216597 233.79796 
L 158.85904 233.383831 
L 159.680261 233.694428 
L 160.706788 234.21209 
L 161.322704 235.040349 
L 161.733314 235.661544 
L 161.938619 236.075673 
L 163.581062 234.936817 
L 164.402283 235.040349 
L 165.223505 231.727312 
L 164.607589 232.452039 
L 163.991673 233.487363 
L 163.375757 234.108558 
L 162.554535 233.383831 
L 162.143925 232.244974 
L 162.34923 231.313183 
L 162.143925 230.588456 
L 160.912093 230.070794 
L 161.528009 228.724873 
L 161.733314 228.310743 
L 160.706788 228.207211 
L 159.474956 227.793081 
L 158.448429 227.275419 
L 157.832513 226.654224 
L 157.421902 225.825965 
L 157.011292 224.790641 
L 156.395376 223.962382 
L 155.574155 223.755317 
L 155.984765 223.237655 
L 156.600681 222.305863 
L 157.216597 221.167007 
L 157.421902 220.131683 
L 157.627208 218.682229 
L 157.832513 217.43984 
L 158.653734 214.747998 
L 158.653734 214.540933 
L 159.680261 212.987947 
L 159.885566 212.884414 
L 160.501482 212.780882 
L 160.706788 212.573817 
L 160.912093 212.26322 
L 161.322704 211.434961 
L 161.322704 211.124364 
L 162.554535 209.364313 
L 163.375757 208.432521 
L 164.402283 207.811327 
L 164.402283 207.293665 
L 163.375757 207.293665 
L 164.196978 206.568938 
L 166.660642 206.051276 
L 167.687168 205.430081 
L 168.50839 204.49829 
L 169.124306 203.152368 
L 169.534916 201.806447 
L 168.713695 201.08172 
L 168.713695 200.564058 
L 169.329611 200.771123 
L 169.945527 201.08172 
L 170.766748 200.460526 
L 171.587969 200.356993 
L 172.203885 200.667591 
L 172.614496 201.392317 
L 173.230412 199.114604 
L 173.435717 198.49341 
L 174.051633 198.286345 
L 175.488771 198.182813 
L 175.899381 197.872216 
L 175.899381 197.251021 
L 176.104687 196.215697 
L 176.515297 195.49097 
L 177.131213 195.801567 
L 177.952434 196.319229 
L 178.56835 196.008632 
L 179.184266 195.283905 
L 179.800182 194.766243 
L 179.184266 194.041517 
L 178.773656 193.627387 
L 177.952434 193.420322 
L 176.925908 193.523855 
L 177.336518 193.006192 
L 177.747129 192.592063 
L 178.15774 192.281466 
L 178.773656 192.177933 
L 179.594877 192.48853 
L 180.210793 193.31679 
L 180.416098 194.041517 
L 181.032014 194.352114 
L 181.853235 194.248581 
L 182.469151 193.834452 
L 185.959342 191.349674 
L 186.780563 192.177933 
L 187.191174 190.935544 
L 188.2177 190.31435 
L 190.681364 190.107285 
L 191.502586 189.90022 
L 195.608692 187.933105 
L 197.45644 187.208378 
L 198.482966 187.208378 
L 199.098882 187.31191 
L 199.714798 187.622507 
L 200.330714 187.622507 
L 200.741325 187.518975 
L 201.562546 187.001313 
L 201.973157 186.794248 
L 201.973157 186.276586 
L 201.562546 186.483651 
L 201.151936 186.794248 
L 201.151936 186.587183 
L 201.151936 186.380119 
L 200.741325 186.276586 
L 201.973157 185.551859 
L 203.204989 185.13773 
L 206.079263 185.034197 
L 206.284569 184.7236 
L 207.10579 182.756484 
L 207.5164 182.549419 
L 209.774759 182.549419 
L 209.569454 182.963549 
L 209.569454 183.170614 
L 209.364148 183.377679 
L 210.59598 183.584744 
L 211.211896 182.963549 
L 211.622507 182.031757 
L 212.033117 181.307031 
L 213.059644 180.996433 
L 213.67556 181.203498 
L 214.291476 181.72116 
L 215.318003 182.13529 
L 214.907392 182.756484 
L 215.523308 182.549419 
L 216.344529 182.031757 
L 216.960445 181.514095 
L 217.16575 180.478771 
L 217.986972 179.236382 
L 219.218804 177.993994 
L 220.24533 177.579864 
L 220.861246 177.269267 
L 223.940826 175.405683 
L 224.967353 174.888021 
L 226.199185 174.888021 
L 227.020406 175.198619 
L 227.841627 175.819813 
L 227.841627 176.233943 
L 227.225711 176.648072 
L 227.020406 177.372799 
L 227.225711 178.201058 
L 227.636322 179.029318 
L 228.252238 179.339915 
L 228.868154 178.925785 
L 229.278764 178.304591 
L 229.689375 177.890461 
L 228.662848 177.062202 
L 228.868154 176.233943 
L 229.689375 175.509216 
L 230.921207 174.991554 
L 233.179565 174.577424 
L 233.795481 174.370359 
L 234.411397 173.852697 
L 234.822008 173.749165 
L 235.437924 173.852697 
L 236.259145 174.370359 
L 236.669756 174.577424 
L 237.080366 174.370359 
L 237.490977 174.059762 
L 237.901588 173.852697 
L 238.312198 174.163295 
L 238.722809 174.784489 
L 238.312198 174.991554 
L 237.696282 175.095086 
L 237.490977 175.405683 
L 237.696282 176.026878 
L 238.106893 176.233943 
L 238.517504 176.026878 
L 239.13342 175.405683 
L 238.928114 176.648072 
L 239.954641 176.648072 
L 241.186473 175.923345 
L 241.802389 174.370359 
L 242.62361 173.024438 
L 244.471358 173.024438 
L 246.524411 173.335035 
L 247.961548 173.127971 
L 249.19338 172.610308 
L 254.326013 172.920906 
L 259.663952 172.196179 
L 260.895784 171.678517 
L 262.127615 171.678517 
L 264.591279 170.332596 
L 265.823111 169.918466 
L 266.233722 169.711401 
L 266.849638 168.883142 
L 267.054943 168.676077 
L 267.670859 168.572545 
L 268.286775 168.36548 
L 269.107996 167.847818 
L 270.955744 166.501897 
L 271.776966 165.984235 
L 274.035324 165.673637 
L 276.704293 164.534781 
L 280.605094 163.913586 
L 282.452842 163.085327 
L 286.353643 164.017119 
L 287.585475 163.913586 
L 289.227918 163.499457 
L 289.843834 163.395924 
L 291.280971 163.18886 
L 291.896887 163.085327 
L 292.512803 162.878262 
L 293.128719 162.77473 
L 293.539329 162.981795 
L 295.797688 164.534781 
L 297.44013 164.94891 
L 301.135626 165.36304 
L 302.778069 165.77717 
L 304.009901 165.36304 
L 313.043335 165.36304 
L 314.480472 165.466572 
L 315.301693 165.259508 
L 316.122915 164.94891 
L 316.738831 165.259508 
L 317.354746 165.259508 
L 318.175968 165.259508 
L 318.791884 165.36304 
L 319.202494 165.570105 
L 320.229021 166.398364 
L 321.460853 167.123091 
L 321.666158 168.36548 
L 321.460853 169.711401 
L 321.255548 170.850258 
L 320.844937 171.264387 
L 320.434326 171.471452 
L 320.434326 171.678517 
L 321.255548 172.092646 
L 321.871464 172.092646 
L 322.487379 171.989114 
L 323.308601 171.678517 
L 323.513906 171.36792 
L 323.924517 169.814934 
L 324.129822 169.297271 
L 324.540433 168.883142 
L 324.951043 168.779609 
L 325.566959 168.676077 
L 330.288982 167.847818 
L 330.904898 167.640753 
L 331.520814 166.916026 
L 332.957951 166.605429 
L 335.62692 166.191299 
L 336.448141 165.880702 
L 338.7065 164.845378 
L 339.938332 163.810054 
L 342.607301 162.257068 
L 343.428522 162.050003 
L 344.455049 162.464133 
L 343.839133 163.085327 
L 342.19669 163.810054 
L 339.527721 164.431248 
L 336.448141 166.294832 
L 335.62692 167.019559 
L 335.62692 167.433688 
L 338.295889 168.054883 
L 341.375469 171.885582 
L 343.428522 172.920906 
L 344.660354 172.920906 
L 345.070965 172.610308 
L 345.481575 171.989114 
L 346.302797 170.95379 
L 346.713407 170.436128 
L 347.329323 168.986674 
L 347.534628 168.676077 
L 348.150544 168.572545 
L 349.382376 168.261947 
L 349.792987 168.261947 
L 352.051346 168.676077 
L 352.461956 168.676077 
L 352.667261 168.572545 
L 352.872567 168.779609 
L 352.872567 169.711401 
L 353.283177 171.057322 
L 354.309704 171.36792 
L 355.541536 171.160855 
L 356.773368 170.850258 
L 365.806802 169.090207 
L 367.038634 169.090207 
L 369.707603 169.607869 
L 371.14474 169.504336 
L 372.376572 168.986674 
L 373.403099 168.158415 
L 373.813709 166.916026 
L 372.787183 165.77717 
L 373.403099 165.466572 
L 374.22432 165.36304 
L 375.045541 165.466572 
L 375.456152 165.77717 
L 375.456152 166.191299 
L 375.045541 166.605429 
L 373.608404 169.504336 
L 375.045541 170.746725 
L 375.250847 170.850258 
L 377.3039 174.577424 
L 378.535732 175.405683 
L 379.356953 175.509216 
L 381.615312 175.923345 
L 382.436533 176.233943 
L 383.052449 176.751605 
L 383.668365 177.476332 
L 384.489586 178.097526 
L 385.516113 178.408123 
L 388.595692 178.408123 
L 389.416914 178.615188 
L 390.238135 179.339915 
L 391.059356 179.857577 
L 392.085883 180.168174 
L 393.112409 180.478771 
L 394.960157 180.478771 
L 396.807905 180.168174 
L 400.09279 178.822253 
L 399.68218 177.372799 
L 400.708706 177.269267 
L 403.582981 178.822253 
L 405.020118 179.236382 
L 406.25195 179.029318 
L 406.457255 177.579864 
L 407.073171 177.890461 
L 407.689087 178.304591 
L 408.099698 178.822253 
L 408.305003 179.443447 
L 409.536835 181.72116 
L 409.74214 182.13529 
L 411.795194 183.377679 
L 412.205804 183.481211 
L 413.232331 183.377679 
L 413.642941 183.584744 
L 413.848247 183.791808 
L 413.848247 184.102406 
L 413.848247 184.30947 
L 414.874773 183.895341 
L 416.927827 182.13529 
L 420.418017 181.203498 
L 420.828628 181.307031 
L 420.828628 181.72116 
L 420.212712 182.238822 
L 419.186185 182.963549 
L 417.954353 182.342355 
L 417.338437 182.860017 
L 416.517216 185.034197 
L 417.133132 186.069521 
L 417.543743 186.380119 
L 418.159658 186.794248 
L 418.775574 186.897781 
L 421.033933 187.208378 
L 422.06046 187.518975 
L 425.345345 189.90022 
L 425.55065 190.210818 
L 425.755955 190.417882 
L 426.166566 190.521415 
L 426.371871 190.417882 
L 426.782482 190.107285 
L 426.987787 189.796688 
L 427.193093 189.693155 
L 428.424924 189.486091 
L 428.835535 189.796688 
L 430.272672 196.008632 
L 430.272672 196.112165 
L 431.093894 196.319229 
L 431.915115 196.733359 
L 432.531031 197.147489 
L 433.146947 197.872216 
L 433.762863 198.90754 
L 434.584084 200.771123 
L 434.994695 201.702915 
L 436.637137 203.255901 
L 436.842443 203.566498 
L 437.663664 203.773563 
L 439.306106 203.773563 
L 439.922022 203.980628 
L 441.564465 206.25834 
L 441.76977 206.983067 
L 442.385686 207.397197 
L 446.491793 211.020831 
L 448.134235 211.84909 
L 449.776678 211.538493 
L 450.392594 212.159688 
L 451.41912 212.884414 
L 452.445647 213.298544 
L 452.856257 212.573817 
L 453.472173 212.573817 
L 456.551753 213.195012 
L 457.57828 213.195012 
L 458.194196 212.780882 
L 458.399501 212.366752 
L 458.399501 212.056155 
L 459.220722 212.056155 
L 459.836638 212.159688 
L 460.65786 212.67735 
L 461.273776 212.780882 
L 462.505608 212.67735 
L 464.558661 211.84909 
L 465.790493 211.538493 
L 467.022325 211.538493 
L 470.101904 211.84909 
L 475.850453 212.573817 
L 478.519422 212.366752 
L 478.724728 212.987947 
L 479.95656 216.611581 
L 480.161865 216.404516 
L 480.572476 216.197451 
L 481.188392 216.922178 
L 481.804308 216.508049 
L 482.625529 214.540933 
L 481.804308 213.505609 
L 481.393697 213.091479 
L 480.983086 212.780882 
L 480.983086 212.366752 
L 482.625529 212.573817 
L 484.473277 214.437401 
L 490.837742 216.611581 
L 491.453658 217.232776 
L 492.069574 218.061035 
L 493.0961 218.992826 
L 494.533237 219.821086 
L 495.559764 220.338748 
L 496.791596 220.752877 
L 500.281786 221.374072 
L 501.308313 221.270539 
L 501.308313 221.684669 
L 501.308313 222.512928 
L 501.308313 222.927058 
L 501.924229 222.616461 
L 502.129534 222.409396 
L 502.540145 223.03059 
L 503.156061 224.272979 
L 503.566671 224.790641 
L 503.977282 225.101238 
L 505.003809 225.722433 
L 505.414419 226.03303 
L 505.82503 226.343627 
L 506.440946 226.343627 
L 507.056862 226.240095 
L 507.672778 226.240095 
L 509.520526 227.068354 
L 510.341747 227.378951 
L 513.216021 227.586016 
L 513.831937 227.793081 
L 513.831937 228.414275 
L 513.831937 229.139002 
L 514.242548 229.656664 
L 514.653159 229.760197 
L 516.090296 229.760197 
L 515.884991 229.863729 
L 515.679685 230.070794 
L 516.295601 230.588456 
L 517.116823 230.899053 
L 517.732739 231.106118 
L 518.348654 231.313183 
L 518.55396 231.313183 
L 519.375181 231.002586 
L 519.991097 231.62378 
L 520.607013 233.176766 
L 521.838845 234.21209 
L 522.04415 234.62622 
L 522.454761 235.765076 
L 523.481287 237.62866 
L 523.891898 238.146322 
L 524.507814 238.456919 
L 525.329035 238.871048 
L 527.998005 241.562891 
L 528.20331 242.080553 
L 529.024531 243.840604 
L 529.435142 244.358266 
L 530.051058 244.254734 
L 530.461668 243.633539 
L 530.666974 239.078113 
L 531.077584 238.456919 
L 531.6935 238.146322 
L 533.130638 238.353386 
L 534.157164 238.456919 
L 533.541248 239.078113 
L 531.898806 239.38871 
L 531.488195 239.906372 
L 531.488195 241.045229 
L 531.6935 241.873488 
L 532.104111 242.494683 
L 532.514722 243.115877 
L 533.130638 243.737071 
L 533.746553 243.944136 
L 535.183691 243.944136 
L 535.799607 244.358266 
L 536.210217 245.290058 
L 536.415523 246.325382 
L 536.415523 247.050108 
L 536.620828 247.774835 
L 537.236744 248.292497 
L 538.057965 248.706627 
L 539.700408 249.224289 
L 539.905713 249.224289 
L 540.726934 248.810159 
L 541.34285 249.120757 
L 541.753461 249.534886 
L 542.164072 249.741951 
L 545.654262 249.224289 
L 546.680789 249.327821 
L 547.707315 249.845483 
L 550.170979 251.39847 
L 550.170979 250.57021 
L 550.58159 250.156081 
L 552.018727 249.741951 
L 552.224032 250.363145 
L 552.634643 250.673743 
L 553.045254 250.777275 
L 553.661169 250.673743 
L 553.661169 250.363145 
L 553.455864 249.949016 
L 553.250559 249.741951 
L 554.07178 250.052548 
L 554.893001 250.673743 
L 556.124833 251.916132 
L 555.303612 252.019664 
L 554.687696 251.709067 
L 554.277085 251.605534 
L 554.07178 252.744391 
L 554.277085 253.779715 
L 555.098307 255.746831 
L 555.303612 256.678622 
L 555.508917 257.299817 
L 556.330139 257.610414 
L 557.972581 257.817479 
L 559.409718 258.542206 
L 559.820329 258.645738 
L 560.23094 258.542206 
L 560.64155 258.231608 
L 560.846856 257.921011 
L 560.846856 257.817479 
L 560.846856 257.506881 
L 560.64155 256.678622 
L 560.025634 255.953895 
L 558.588497 255.332701 
L 557.972581 254.504442 
L 557.15136 252.744391 
L 556.946055 251.294937 
L 556.535444 250.880807 
L 556.330139 250.57021 
L 555.098307 250.156081 
L 554.893001 249.949016 
L 554.893001 249.327821 
L 554.482391 248.499562 
L 553.866475 248.085433 
L 552.839948 248.499562 
L 552.018727 247.671303 
L 551.402811 248.39603 
L 550.58159 247.878368 
L 548.939147 245.911252 
L 546.886094 244.151201 
L 546.270178 243.219409 
L 545.859567 243.012345 
L 545.038346 243.426474 
L 545.654262 242.39115 
L 546.475483 241.252294 
L 547.50201 240.631099 
L 548.323231 240.734632 
L 550.376284 242.39115 
L 550.58159 242.908812 
L 550.9922 244.461798 
L 551.197506 244.772396 
L 557.15136 249.224289 
L 558.383192 249.741951 
L 561.257466 250.673743 
L 562.078688 251.294937 
L 562.899909 252.123196 
L 564.747657 253.676182 
L 565.568878 253.98678 
L 569.059068 256.471557 
L 569.88029 256.885687 
L 570.701511 257.196284 
L 571.522732 257.196284 
L 572.549259 256.885687 
L 571.933343 258.128076 
L 572.343954 258.852803 
L 572.95987 259.370465 
L 573.165175 259.888127 
L 572.95987 261.130516 
L 571.728038 262.579969 
L 571.317427 263.615293 
L 570.701511 263.304696 
L 569.88029 262.269372 
L 569.469679 261.958775 
L 565.774183 260.302256 
L 564.952962 259.991659 
L 563.926435 259.888127 
L 563.926435 259.991659 
L 563.72113 260.198724 
L 563.515825 260.405789 
L 563.515825 260.509321 
L 563.310519 260.716386 
L 563.105214 260.612854 
L 562.694604 260.405789 
L 562.283993 260.198724 
L 561.668077 259.57753 
L 561.052161 259.473997 
L 559.820329 259.57753 
L 559.409718 260.198724 
L 559.615024 260.819918 
L 560.23094 261.130516 
L 560.846856 261.337581 
L 561.257466 261.648178 
L 561.668077 262.062307 
L 562.283993 262.372905 
L 562.899909 262.579969 
L 564.542351 262.372905 
L 565.568878 262.890567 
L 565.774183 263.925891 
L 565.363573 264.857682 
L 564.542351 265.375344 
L 564.337046 265.893006 
L 564.542351 266.92833 
L 565.158267 268.067187 
L 565.363573 268.481317 
L 565.979489 268.584849 
L 567.416626 268.377784 
L 568.237847 268.481317 
L 567.827237 269.516641 
L 568.237847 269.413108 
L 569.674984 268.688381 
L 569.88029 268.584849 
L 570.2909 268.274252 
L 570.906816 268.170719 
L 571.317427 267.34246 
L 572.138648 264.029423 
L 573.575785 261.337581 
L 573.986396 260.716386 
L 575.012923 260.509321 
L 576.039449 261.130516 
L 582.198609 268.688381 
L 583.225136 269.516641 
L 583.225136 269.620173 
L 584.046357 270.241367 
L 586.09941 271.173159 
L 589.384295 271.897886 
L 590.000211 272.415548 
L 589.5896 273.243807 
L 590.821432 273.243807 
L 590.410822 274.589728 
L 590.000211 275.210923 
L 589.384295 275.417988 
L 587.331242 275.52152 
L 586.510021 275.832117 
L 585.894105 276.453312 
L 585.688799 277.281571 
L 586.510021 278.834557 
L 589.384295 277.281571 
L 589.384295 278.834557 
L 589.794906 278.420428 
L 590.000211 277.799233 
L 590.205516 277.074506 
L 590.410822 276.246247 
L 590.000211 276.246247 
L 590.821432 275.107391 
L 591.026738 274.486196 
L 591.232043 273.761469 
L 594.722233 275.003858 
L 594.927539 274.900326 
L 595.543455 274.693261 
L 595.74876 274.796793 
L 596.775287 275.417988 
L 598.212424 275.832117 
L 598.82834 275.832117 
L 599.649561 276.246247 
L 600.470782 277.074506 
L 600.881393 278.006298 
L 600.470782 278.316895 
L 599.444256 278.52396 
L 596.364676 279.973414 
L 596.569981 279.145154 
L 595.954065 278.52396 
L 595.338149 278.52396 
L 595.543455 279.145154 
L 595.338149 280.180478 
L 595.954065 280.594608 
L 597.185897 280.69814 
L 598.007119 281.11227 
L 598.82834 281.733465 
L 599.854866 282.251127 
L 600.881393 282.458191 
L 602.113225 282.561724 
L 602.113225 282.147594 
L 600.881393 281.733465 
L 600.470782 281.422867 
L 600.265477 280.905205 
L 599.854866 279.973414 
L 599.854866 279.662816 
L 600.881393 279.145154 
L 601.90792 279.145154 
L 603.345057 279.559284 
L 604.576889 280.387543 
L 605.39811 281.319335 
L 605.603415 281.319335 
L 605.603415 279.973414 
L 606.014026 279.973414 
L 605.808721 282.458191 
L 605.192805 283.286451 
L 602.113225 283.389983 
L 602.113225 283.804113 
L 603.345057 283.804113 
L 602.729141 284.11471 
L 602.523836 284.218242 
L 602.934446 285.046501 
L 603.550362 285.046501 
L 604.166278 284.735904 
L 604.987499 284.632372 
L 605.39811 285.046501 
L 606.014026 286.185358 
L 606.424637 286.28889 
L 606.835247 286.185358 
L 607.245858 285.874761 
L 607.451163 285.564164 
L 607.656469 285.253566 
L 607.861774 285.046501 
L 608.067079 285.046501 
L 608.47769 285.150034 
L 608.8883 285.046501 
L 610.530743 284.11471 
L 611.146659 283.804113 
L 610.325438 283.493515 
L 608.47769 283.286451 
L 607.656469 282.975853 
L 607.040553 282.147594 
L 606.835247 281.215802 
L 607.245858 280.387543 
L 608.272385 279.973414 
L 615.04746 280.180478 
L 616.484597 280.69814 
L 617.305819 281.319335 
L 619.153566 282.044062 
L 619.358872 282.251127 
L 620.590704 283.286451 
L 621.411925 283.907645 
L 627.365779 286.185358 
L 629.213527 287.427747 
L 629.624138 288.877201 
L 629.624138 289.394863 
L 629.624138 290.637251 
L 629.829443 291.361978 
L 630.445359 292.086705 
L 630.85597 291.983173 
L 631.471886 291.361978 
L 632.293107 290.844316 
L 632.909023 290.740784 
L 633.730244 290.947849 
L 634.34616 291.258446 
L 634.756771 291.776108 
L 634.962076 292.29377 
L 634.962076 293.122029 
L 635.372687 293.122029 
L 635.577992 292.811432 
L 635.577992 292.500835 
L 635.783297 292.190238 
L 636.193908 293.122029 
L 636.604519 293.329094 
L 637.015129 292.914964 
L 637.015129 291.776108 
L 637.42574 291.87964 
L 639.068182 291.87964 
L 639.684098 291.776108 
L 640.094709 291.569043 
L 640.91593 290.740784 
L 641.326541 290.533719 
L 642.147762 290.637251 
L 642.763678 290.740784 
L 643.379594 291.051381 
L 643.790205 292.086705 
L 644.406121 292.190238 
L 644.611426 291.983173 
L 644.406121 291.361978 
L 647.280395 289.29133 
L 647.691006 289.29133 
L 648.512227 289.70546 
L 648.717532 289.912525 
L 648.922838 290.326654 
L 649.538754 290.430187 
L 650.359975 290.119589 
L 652.413028 290.119589 
L 654.055471 290.326654 
L 655.081997 291.361978 
L 655.697913 293.432626 
L 657.956272 293.018497 
L 659.188104 293.846756 
L 661.241157 296.849196 
L 660.009325 299.333974 
L 659.598714 299.748103 
L 658.982798 300.265765 
L 658.777493 300.679895 
L 658.777493 301.094024 
L 658.572188 301.922284 
L 658.366883 302.336413 
L 657.956272 303.06114 
L 657.135051 303.785867 
L 656.313829 304.407061 
L 655.287303 304.407061 
L 655.081997 303.785867 
L 654.876692 302.854075 
L 654.466081 302.232881 
L 653.64486 302.750543 
L 653.23425 302.439946 
L 652.823639 302.336413 
L 652.618334 302.439946 
L 652.207723 302.750543 
L 652.618334 302.750543 
L 653.028944 302.854075 
L 653.23425 303.164673 
L 653.439555 303.578802 
L 651.797112 303.682335 
L 651.797112 304.407061 
L 652.413028 305.442385 
L 653.028944 306.581242 
L 653.439555 306.581242 
L 654.055471 305.545918 
L 655.492608 305.131788 
L 657.135051 305.028256 
L 658.366883 305.235321 
L 660.830546 306.47771 
L 661.241157 306.684774 
L 661.241157 307.616566 
L 661.446462 308.23776 
L 661.857073 308.65189 
L 662.678294 308.65189 
L 662.267684 310.101344 
L 661.446462 310.101344 
L 660.625241 309.480149 
L 659.80402 309.06602 
L 659.393409 308.858955 
L 659.188104 308.548358 
L 658.982798 308.134228 
L 658.777493 307.720098 
L 658.366883 307.409501 
L 658.161577 307.305969 
L 655.081997 307.720098 
L 654.055471 308.134228 
L 650.15467 307.720098 
L 650.56528 308.444825 
L 650.56528 309.169552 
L 649.949364 310.722538 
L 649.949364 311.033135 
L 649.949364 311.861395 
L 649.744059 312.586122 
L 649.538754 313.207316 
L 649.949364 313.724978 
L 650.56528 315.070899 
L 652.823639 316.313288 
L 653.64486 316.623885 
L 654.055471 316.002691 
L 654.671387 314.65677 
L 657.545661 312.379057 
L 658.161577 311.136668 
L 658.982798 311.861395 
L 659.598714 312.793186 
L 659.598714 313.82851 
L 659.188104 314.967367 
L 660.625241 314.760302 
L 661.241157 314.967367 
L 661.035852 315.588561 
L 660.830546 316.209756 
L 661.446462 316.623885 
L 662.678294 317.038015 
L 662.472989 315.692094 
L 665.757874 316.416821 
L 666.579095 315.381496 
L 666.989706 315.381496 
L 667.195011 315.692094 
L 667.605622 316.002691 
L 668.016233 316.313288 
L 668.632149 316.623885 
L 669.042759 315.381496 
L 668.016233 314.967367 
L 667.605622 314.863834 
L 666.989706 314.967367 
L 667.810927 313.932043 
L 669.042759 313.517913 
L 670.479896 313.517913 
L 671.711728 313.621446 
L 672.738255 314.035575 
L 673.764782 314.863834 
L 674.175392 315.485029 
L 672.94356 315.795626 
L 673.354171 316.623885 
L 673.764782 317.452145 
L 673.970087 317.452145 
L 674.175392 317.141547 
L 674.380697 316.623885 
L 674.996613 317.866274 
L 676.228445 318.176871 
L 679.51333 317.866274 
L 678.486804 317.141547 
L 676.433751 316.106223 
L 675.201919 315.795626 
L 676.02314 314.967367 
L 677.460277 314.65677 
L 678.897414 314.65677 
L 679.923941 314.967367 
L 679.51333 314.449705 
L 680.334552 314.553237 
L 683.003521 315.070899 
L 683.824742 315.485029 
L 684.030047 315.899159 
L 683.003521 316.209756 
L 683.003521 316.623885 
L 684.645963 317.038015 
L 684.851269 316.934483 
L 684.851269 316.83095 
L 684.851269 316.727418 
L 685.056574 316.623885 
L 685.67249 317.141547 
L 686.699017 316.83095 
L 687.520238 316.83095 
L 688.136154 318.280404 
L 688.136154 317.969807 
L 688.546765 317.452145 
L 688.546765 317.038015 
L 689.16268 317.452145 
L 689.573291 317.659209 
L 689.983902 317.659209 
L 690.394512 317.452145 
L 689.573291 316.623885 
L 694.295313 316.002691 
L 695.32184 316.416821 
L 695.937756 316.727418 
L 696.553672 316.83095 
L 696.964283 317.038015 
L 697.169588 317.659209 
L 697.580199 317.969807 
L 698.40142 317.969807 
L 699.838557 317.866274 
L 700.865084 318.487469 
L 701.686305 319.41926 
L 702.712832 320.040455 
L 707.229549 320.558117 
L 708.256075 320.972246 
L 709.282602 321.593441 
L 708.666686 321.904038 
L 708.461381 322.00757 
L 709.282602 323.457024 
L 709.282602 324.181751 
L 709.487907 324.388816 
L 709.693212 324.388816 
L 710.103823 324.595881 
L 710.309128 324.906478 
L 710.719739 325.113543 
L 712.772792 325.838269 
L 712.978098 326.666529 
L 714.004624 327.494788 
L 716.673593 329.151306 
L 717.084204 329.772501 
L 717.70012 331.01489 
L 719.547868 333.6032 
L 719.958478 333.810265 
L 720.163784 334.224394 
L 723.038058 337.226834 
L 723.448669 337.433899 
L 724.26989 337.537431 
L 725.501722 337.951561 
L 727.144165 338.883353 
L 728.375997 340.125742 
L 728.786607 341.36813 
L 729.197218 341.36813 
L 730.018439 340.539871 
L 731.044966 340.539871 
L 732.482103 340.850468 
L 733.50863 340.954001 
L 734.535156 340.539871 
L 735.356377 339.918677 
L 736.588209 339.401015 
L 737.820041 339.297482 
L 738.435957 339.504547 
L 739.051873 339.918677 
L 740.0784 340.954001 
L 742.131453 342.19639 
L 742.747369 343.128181 
L 743.15798 344.163505 
L 743.56859 345.198829 
L 743.56859 346.441218 
L 743.15798 347.78714 
L 741.926148 348.511866 
L 740.694316 349.029528 
L 739.873094 349.857788 
L 738.846568 350.478982 
L 738.435957 350.686047 
L 738.025347 350.996644 
L 737.820041 353.170825 
L 735.972293 354.827343 
L 733.91924 354.723811 
L 731.455576 354.102616 
L 728.786607 353.999084 
L 725.296417 354.723811 
L 722.832753 354.930876 
L 718.110731 356.069732 
L 715.852372 355.655602 
L 714.209929 356.380329 
L 710.514434 355.759135 
L 706.203022 356.587394 
L 704.765885 356.690927 
L 703.328748 357.312121 
L 702.507526 358.14038 
L 701.481 359.175704 
L 700.659778 359.900431 
L 699.222641 360.314561 
L 697.990809 360.314561 
L 697.169588 360.418093 
L 696.758977 360.935755 
L 696.348367 362.178144 
L 695.527145 363.73113 
L 693.679398 364.352325 
L 691.626344 364.662922 
L 691.215734 363.938195 
L 690.805123 363.73113 
L 690.599818 363.73113 
L 690.394512 364.248792 
L 690.394512 364.766454 
L 688.957375 365.284116 
L 688.75207 365.284116 
L 688.75207 360.72869 
L 686.288406 360.72869 
L 686.493711 360.418093 
L 686.699017 360.107496 
L 687.520238 359.589834 
L 688.341459 359.382769 
L 688.957375 358.14038 
L 689.367986 357.415653 
L 688.957375 356.794459 
L 688.957375 355.241473 
L 687.725543 355.448538 
L 687.109627 356.276797 
L 686.904322 356.897991 
L 686.493711 357.622718 
L 685.877795 357.415653 
L 685.467185 357.105056 
L 684.440658 357.415653 
L 684.235353 358.14038 
L 684.030047 358.761575 
L 684.235353 359.382769 
L 684.645963 359.486301 
L 684.851269 359.589834 
L 685.056574 359.486301 
L 685.261879 359.279237 
L 685.467185 359.072172 
L 685.467185 359.279237 
L 685.877795 359.900431 
L 685.056574 360.314561 
L 685.056574 360.72869 
L 684.030047 360.72869 
L 681.155773 362.799338 
L 680.950468 365.077051 
L 677.870888 365.801778 
L 672.327644 366.215908 
L 671.711728 366.112375 
L 669.86398 365.698246 
L 669.248064 365.387649 
L 668.837454 365.284116 
L 668.632149 365.387649 
L 668.221538 366.008843 
L 667.810927 366.215908 
L 666.37379 366.422973 
L 664.526042 366.31944 
L 662.678294 366.008843 
L 661.651768 365.284116 
L 659.598714 365.594713 
L 657.340356 364.352325 
L 655.081997 362.592274 
L 653.028944 361.55695 
L 651.797112 361.453417 
L 647.691006 361.55695 
L 646.664479 361.453417 
L 644.406121 360.832223 
L 643.174289 360.72869 
L 640.91593 360.935755 
L 639.889404 361.246352 
L 639.068182 361.764014 
L 638.246961 361.867547 
L 630.650664 360.003964 
L 625.518031 359.486301 
L 623.054368 359.589834 
L 618.332345 360.832223 
L 616.279292 361.14282 
L 612.173186 361.14282 
L 610.941354 361.246352 
L 608.47769 362.178144 
L 607.245858 362.385209 
L 600.060172 361.971079 
L 592.66918 362.592274 
L 591.437348 363.213468 
L 590.205516 363.213468 
L 588.973684 362.902871 
L 587.741853 362.799338 
L 586.920631 363.213468 
L 585.072883 364.662922 
L 583.841051 365.284116 
L 582.403914 365.698246 
L 575.012923 366.008843 
L 573.575785 365.801778 
L 570.701511 364.559389 
L 569.264374 364.352325 
L 568.443152 364.973519 
L 568.237847 364.973519 
L 567.827237 364.559389 
L 567.211321 364.455857 
L 566.595405 364.662922 
L 566.184794 365.284116 
L 564.747657 364.869987 
L 563.105214 364.662922 
L 561.668077 365.077051 
L 560.64155 366.215908 
L 562.283993 366.215908 
L 562.283993 366.630037 
L 561.257466 366.630037 
L 559.615024 367.251232 
L 558.588497 367.458297 
L 553.250559 367.561829 
L 549.760368 368.493621 
L 547.707315 368.700686 
L 545.243651 368.493621 
L 541.753461 369.425412 
L 540.521629 369.528945 
L 539.905713 369.425412 
L 539.084492 369.011283 
L 538.468576 368.493621 
L 538.057965 367.768894 
L 538.057965 366.73357 
L 539.289797 364.662922 
L 539.289797 364.041727 
L 539.700408 363.938195 
L 540.316324 363.834663 
L 540.726934 363.627598 
L 541.137545 363.317 
L 541.548156 362.695806 
L 541.958766 362.385209 
L 541.753461 361.764014 
L 542.164072 361.246352 
L 543.190598 360.314561 
L 544.42243 358.450977 
L 544.627735 358.14038 
L 544.627735 357.726251 
L 547.50201 355.241473 
L 547.296705 354.723811 
L 546.475483 353.895552 
L 546.680789 353.584954 
L 547.091399 353.584954 
L 548.733842 354.102616 
L 549.349758 353.481422 
L 550.376284 353.170825 
L 550.58159 352.96376 
L 550.786895 352.54963 
L 551.813422 350.996644 
L 552.839948 350.37545 
L 555.303612 349.029528 
L 556.124833 347.580075 
L 557.15136 346.855348 
L 562.899909 344.059973 
L 564.131741 343.956441 
L 564.952962 343.438779 
L 565.774183 341.264598 
L 566.595405 340.539871 
L 566.80071 340.539871 
L 567.006015 340.539871 
L 567.416626 340.539871 
L 567.006015 341.264598 
L 567.416626 341.575195 
L 568.032542 341.678728 
L 569.059068 341.36813 
L 569.674984 340.850468 
L 570.2909 340.125742 
L 570.701511 339.19395 
L 570.906816 338.262158 
L 571.317427 337.848029 
L 573.575785 336.398575 
L 573.781091 333.396135 
L 574.191701 332.982006 
L 574.602312 332.567876 
L 575.423533 330.393695 
L 573.575785 327.59832 
L 573.165175 327.080658 
L 571.522732 325.941802 
L 569.469679 325.217075 
L 568.853763 325.113543 
L 569.264374 325.838269 
L 569.059068 326.252399 
L 567.827237 325.527672 
L 567.006015 325.113543 
L 566.390099 324.492348 
L 566.184794 323.042895 
L 566.390099 322.628765 
L 566.80071 322.4217 
L 567.416626 322.214635 
L 567.827237 322.00757 
L 569.059068 320.351052 
L 569.059068 319.936922 
L 566.80071 318.591001 
L 565.774183 318.383936 
L 565.363573 319.522793 
L 564.337046 318.383936 
L 563.310519 316.83095 
L 562.078688 315.485029 
L 560.64155 314.967367 
L 558.999108 315.070899 
L 557.15136 315.485029 
L 555.714223 316.106223 
L 554.893001 317.038015 
L 554.277085 316.623885 
L 554.07178 316.623885 
L 553.661169 316.83095 
L 553.250559 317.038015 
L 552.634643 317.141547 
L 552.429338 317.348612 
L 552.018727 317.452145 
L 551.402811 317.452145 
L 550.376284 317.24508 
L 547.50201 316.209756 
L 545.243651 317.348612 
L 544.627735 317.452145 
L 543.806514 316.83095 
L 543.601209 316.623885 
L 542.985293 316.520353 
L 541.34285 316.623885 
L 540.93224 316.520353 
L 539.905713 316.209756 
L 539.495102 316.002691 
L 539.289797 316.106223 
L 538.468576 316.209756 
L 535.799607 316.002691 
L 534.77308 315.692094 
L 533.130638 314.65677 
L 532.104111 314.346172 
L 530.051058 314.035575 
L 528.819226 314.346172 
L 527.998005 315.070899 
L 527.176783 315.795626 
L 526.355562 316.209756 
L 522.660066 316.313288 
L 520.812318 315.795626 
L 520.196402 314.449705 
L 519.785792 314.449705 
L 519.375181 315.381496 
L 517.527433 313.103784 
L 516.706212 312.793186 
L 515.47438 312.586122 
L 514.858464 311.861395 
L 513.831937 309.894279 
L 513.216021 309.169552 
L 512.189495 308.23776 
L 510.957663 307.513034 
L 510.136442 307.513034 
L 509.520526 307.823631 
L 509.31522 307.513034 
L 509.31522 306.995372 
L 509.109915 306.581242 
L 508.493999 305.752983 
L 508.083388 305.131788 
L 507.878083 304.614126 
L 507.467473 303.682335 
L 503.566671 300.783427 
L 502.74545 300.576362 
L 500.692397 300.679895 
L 500.076481 300.265765 
L 499.460565 299.333974 
L 498.639344 297.677455 
L 497.818123 296.952728 
L 495.765069 295.399742 
L 495.354459 295.29621 
L 494.943848 294.675015 
L 494.533237 292.604367 
L 494.327932 288.670136 
L 493.917321 286.910085 
L 493.0961 285.150034 
L 492.480184 283.493515 
L 492.68549 281.733465 
L 493.301405 282.354659 
L 493.917321 282.354659 
L 494.533237 281.940529 
L 494.738543 281.11227 
L 494.327932 280.491076 
L 492.480184 279.869881 
L 492.069574 279.455752 
L 491.864268 278.316895 
L 491.248352 276.349779 
L 491.248352 275.210923 
L 491.043047 274.175599 
L 489.811215 272.312016 
L 489.60591 271.380224 
L 489.195299 269.309576 
L 488.374078 267.34246 
L 487.347551 265.685942 
L 486.115719 264.443553 
L 485.089193 263.822358 
L 484.267971 263.511761 
L 481.188392 263.097631 
L 480.572476 262.787034 
L 480.161865 262.372905 
L 480.572476 261.544645 
L 481.188392 261.855243 
L 482.009613 262.062307 
L 483.652055 261.958775 
L 483.857361 261.75171 
L 483.44675 261.026983 
L 482.830834 260.095192 
L 482.420224 259.681062 
L 481.804308 259.266932 
L 480.572476 258.645738 
L 479.751254 258.335141 
L 479.340644 258.438673 
L 478.930033 258.645738 
L 478.314117 259.059868 
L 475.645148 259.57753 
L 472.976179 259.888127 
L 472.770874 259.991659 
L 472.360263 260.302256 
L 472.154958 260.612854 
L 471.949652 260.923451 
L 471.744347 261.130516 
L 471.333736 261.234048 
L 469.691294 261.130516 
L 468.870072 260.923451 
L 468.254156 260.923451 
L 467.638241 261.130516 
L 467.432935 260.716386 
L 466.406409 261.234048 
L 465.379882 261.441113 
L 462.916218 261.544645 
L 461.684386 261.75171 
L 458.810112 263.201164 
L 456.346448 263.822358 
L 454.088089 264.029423 
L 451.829731 263.822358 
L 447.313014 262.476437 
L 446.286487 261.855243 
L 445.259961 260.923451 
L 444.438739 260.819918 
L 441.564465 261.130516 
L 440.332633 261.130516 
L 439.100801 260.716386 
L 438.484885 260.405789 
L 438.074274 259.888127 
L 437.253053 258.438673 
L 436.637137 257.921011 
L 436.431832 258.438673 
L 436.226527 259.059868 
L 435.815916 259.473997 
L 435.2 259.473997 
L 434.789389 259.266932 
L 434.173473 258.74927 
L 433.762863 258.542206 
L 431.299199 257.817479 
L 431.093894 257.713946 
L 430.683283 257.299817 
L 430.272672 256.782155 
L 430.067367 256.057428 
L 429.656756 255.539766 
L 428.835535 255.229169 
L 424.934734 255.125636 
L 421.033933 253.98678 
L 419.596796 254.090312 
L 418.98088 255.022104 
L 418.570269 256.057428 
L 417.543743 255.953895 
L 416.311911 255.332701 
L 415.080079 254.815039 
L 415.080079 254.400909 
L 416.106605 253.98678 
L 416.106605 253.57265 
L 415.285384 253.365585 
L 415.080079 252.640858 
L 415.080079 251.812599 
L 415.080079 251.087872 
L 414.053552 251.812599 
L 413.027025 252.123196 
L 412.000499 252.123196 
L 410.563362 251.916132 
L 409.536835 251.502002 
L 408.715614 251.294937 
L 408.305003 251.39847 
L 408.099698 251.916132 
L 408.510308 252.330261 
L 409.126224 252.640858 
L 409.536835 252.744391 
L 408.920919 253.469118 
L 407.689087 252.951456 
L 406.867866 251.812599 
L 406.457255 250.880807 
L 406.25195 249.534886 
L 405.841339 248.39603 
L 405.225423 247.56777 
L 404.198897 247.257173 
L 402.967065 247.050108 
L 400.708706 246.118317 
L 398.245042 245.600655 
L 396.6026 244.254734 
L 393.728325 243.322942 
L 391.880578 241.769956 
L 385.721418 235.040349 
L 385.516113 234.833285 
L 385.516113 234.522687 
L 385.516113 234.108558 
L 385.310807 233.79796 
L 385.105502 233.79796 
L 384.284281 233.901493 
L 384.078975 233.79796 
L 383.463059 233.280298 
L 383.257754 232.866169 
L 383.257754 232.141442 
L 384.078975 232.348507 
L 385.105502 232.244974 
L 386.132029 231.934377 
L 386.95325 231.313183 
L 385.926723 231.520248 
L 385.721418 231.727312 
L 385.926723 231.106118 
L 386.132029 230.588456 
L 386.337334 230.174326 
L 386.337334 229.656664 
L 385.926723 229.449599 
L 385.310807 229.656664 
L 384.694891 229.553132 
L 384.900197 228.828405 
L 383.668365 228.828405 
L 383.052449 228.310743 
L 382.847143 227.586016 
L 383.668365 226.654224 
L 382.436533 225.825965 
L 381.820617 225.308303 
L 381.410006 224.583576 
L 380.999396 225.204771 
L 380.38348 225.411836 
L 379.356953 225.308303 
L 378.535732 224.997706 
L 378.330426 226.240095 
L 378.946342 227.068354 
L 380.588785 228.310743 
L 381.410006 229.449599 
L 382.231228 230.899053 
L 382.436533 232.348507 
L 382.231228 233.79796 
L 379.767564 232.866169 
L 372.581877 233.073234 
L 365.601497 232.555572 
L 357.389284 233.487363 
L 352.461956 232.969701 
L 351.230124 232.659104 
L 349.177071 231.520248 
L 346.918713 231.106118 
L 346.097491 230.484923 
L 345.481575 229.553132 
L 344.044438 226.44716 
L 343.839133 225.825965 
L 343.839133 224.894174 
L 344.249743 222.202331 
L 344.044438 222.098799 
L 342.401995 219.717553 
L 341.78608 219.199891 
L 340.964858 219.096359 
L 340.348942 219.303424 
L 339.938332 219.924618 
L 339.938332 220.649345 
L 340.759553 223.341187 
L 340.759553 230.795521 
L 340.348942 232.659104 
L 339.11711 232.555572 
L 339.938332 231.20965 
L 339.733026 229.346067 
L 338.911805 227.482484 
L 338.295889 227.068354 
L 336.858752 227.689549 
L 336.448141 227.896613 
L 336.242836 228.414275 
L 336.242836 229.553132 
L 336.037531 230.070794 
L 335.421615 230.381391 
L 335.011004 230.174326 
L 334.600393 229.760197 
L 333.984477 229.656664 
L 333.573867 229.967261 
L 333.573867 230.381391 
L 333.368561 230.691988 
L 332.752645 230.899053 
L 330.699592 229.967261 
L 329.46776 225.929498 
L 327.209402 224.997706 
L 324.540433 224.997706 
L 323.924517 224.790641 
L 322.692685 223.962382 
L 322.076769 223.755317 
L 321.666158 223.962382 
L 320.844937 224.790641 
L 320.229021 224.997706 
L 320.023716 224.997706 
L 320.023716 225.204771 
L 319.81841 225.308303 
L 319.4078 225.411836 
L 319.202494 225.308303 
L 319.202494 224.790641 
L 318.791884 224.583576 
L 316.533525 223.755317 
L 316.122915 223.548252 
L 315.506999 223.341187 
L 314.891083 223.237655 
L 314.480472 223.962382 
L 314.069861 224.169447 
L 312.632724 224.272979 
L 311.400892 224.169447 
L 310.579671 223.755317 
L 310.16906 223.755317 
L 310.16906 224.480044 
L 309.75845 224.687109 
L 308.731923 224.583576 
L 308.731923 224.790641 
L 308.937228 224.997706 
L 309.142534 225.411836 
L 308.526618 225.411836 
L 305.857649 225.101238 
L 305.036427 224.790641 
L 303.59929 223.134123 
L 302.983374 222.305863 
L 302.778069 221.374072 
L 301.751542 220.338748 
L 293.744635 217.129243 
L 292.923413 216.715113 
L 292.102192 215.990387 
L 291.486276 215.679789 
L 290.45975 215.576257 
L 289.843834 215.369192 
L 289.638528 215.058595 
L 289.022612 213.919739 
L 289.022612 213.609141 
L 288.201391 213.609141 
L 287.174864 213.505609 
L 286.148338 213.091479 
L 285.532422 212.056155 
L 285.943033 211.020831 
L 286.558949 210.503169 
L 287.585475 210.089039 
L 288.201391 209.881975 
L 294.771161 210.089039 
L 296.824215 209.571377 
L 298.466657 209.778442 
L 300.1091 209.67491 
L 301.135626 209.467845 
L 302.778069 209.778442 
L 304.009901 209.985507 
L 306.884175 209.467845 
L 309.142534 208.536053 
L 309.75845 208.639586 
L 310.374366 208.328989 
L 311.606198 208.328989 
L 312.222113 208.121924 
L 313.043335 207.914859 
L 313.864556 207.190132 
L 314.275167 206.67247 
L 314.891083 206.465405 
L 314.685777 205.119484 
L 315.096388 204.601822 
L 314.891083 203.566498 
L 315.301693 201.909979 
L 315.301693 201.185253 
L 314.480472 200.978188 
L 313.659251 200.874655 
L 312.016808 199.632266 
L 310.990282 198.700475 
L 308.937228 197.251021 
L 307.089481 196.526294 
L 301.956848 194.662711 
L 299.903794 194.766243 
L 295.387077 195.180373 
L 289.433223 196.215697 
L 287.585475 195.387438 
L 283.684674 194.248581 
L 279.373262 194.352114 
L 276.909599 194.559179 
L 275.677767 194.766243 
L 274.445935 194.559179 
L 272.598187 194.145049 
L 268.902691 194.662711 
L 265.823111 193.937984 
L 265.207195 194.041517 
L 264.180669 194.559179 
L 263.564753 194.766243 
L 260.895784 194.145049 
L 258.84273 194.662711 
L 252.888876 193.006192 
L 251.657044 193.109725 
L 250.425212 193.627387 
L 249.809296 194.662711 
L 249.603991 195.801567 
L 249.603991 197.043956 
L 249.398686 198.182813 
L 248.372159 198.700475 
L 246.524411 199.425202 
L 243.034221 202.324109 
L 242.418305 202.738239 
L 241.186473 202.841771 
L 240.159946 203.152368 
L 236.464451 205.119484 
L 234.616703 206.361873 
L 232.97426 208.018391 
L 229.689375 214.230336 
L 228.457543 215.576257 
L 226.609795 215.783322 
L 224.762047 215.162127 
L 223.940826 215.162127 
L 223.119605 215.369192 
L 223.119605 215.472725 
L 223.119605 216.404516 
L 222.914299 216.611581 
L 222.708994 216.611581 
L 222.503689 216.508049 
L 222.093078 216.611581 
L 221.887773 216.611581 
L 221.682468 216.611581 
L 221.477162 216.818646 
L 221.477162 217.646905 
L 221.477162 217.85397 
L 219.424109 219.199891 
L 218.808193 219.924618 
L 218.397582 220.44228 
L 218.397582 220.752877 
L 218.397582 220.959942 
L 218.397582 221.270539 
L 217.986972 222.098799 
L 217.781666 222.512928 
L 217.16575 222.927058 
L 216.960445 222.719993 
L 216.960445 222.512928 
L 216.960445 223.237655 
L 216.549835 223.651785 
L 216.139224 223.03059 
L 215.728613 222.823525 
L 215.318003 222.927058 
L 215.112697 223.85885 
L 214.291476 224.894174 
L 211.417202 225.204771 
L 208.542927 224.790641 
L 205.873958 223.755317 
L 206.489874 223.237655 
L 206.284569 222.616461 
L 205.873958 221.995266 
L 205.463347 221.270539 
L 205.052737 221.270539 
L 204.231515 222.823525 
L 202.999683 224.376512 
L 201.151936 225.411836 
L 199.714798 225.825965 
L 199.714798 225.6189 
L 199.920104 225.204771 
L 200.125409 224.997706 
L 193.760944 225.929498 
L 193.350333 225.825965 
L 193.145028 225.6189 
L 192.939723 225.204771 
L 192.939723 224.790641 
L 192.939723 224.583576 
L 192.323807 224.790641 
L 191.707891 225.6189 
L 190.88667 225.825965 
L 186.369953 225.6189 
L 185.138121 225.825965 
L 182.879762 228.103678 
L 182.674457 228.62134 
L 182.263846 230.277859 
L 182.058541 230.899053 
L 182.263846 231.313183 
L 182.469151 231.62378 
L 182.469151 232.555572 
L 181.853235 232.03791 
L 181.23732 232.141442 
L 180.826709 232.866169 
L 180.826709 233.79796 
L 181.23732 234.62622 
L 181.853235 234.936817 
L 182.469151 234.729752 
L 183.290373 234.21209 
L 182.879762 235.558011 
L 181.032014 237.007465 
L 180.416098 238.249854 
L 180.621404 238.560451 
L 181.032014 238.871048 
L 181.23732 239.285178 
L 181.032014 239.906372 
L 180.416098 240.424034 
L 179.800182 240.941697 
L 179.184266 241.252294 
L 178.56835 241.355826 
L 177.541824 241.148761 
L 175.283465 240.009905 
L 174.051633 239.699308 
L 172.819801 240.009905 
L 170.561443 241.355826 
L 169.534916 241.769956 
L 168.919 241.873488 
L 167.687168 241.769956 
L 167.276558 241.769956 
L 166.660642 242.080553 
L 165.223505 242.908812 
L 163.581062 243.426474 
L 156.805986 249.120757 
L 154.342323 250.466678 
L 151.878659 250.673743 
L 151.262743 249.431354 
L 153.521101 244.565331 
L 153.931712 242.184085 
L 152.69988 240.424034 
L 150.441522 240.009905 
L 147.772552 240.424034 
L 143.255835 241.769956 
L 140.997477 242.80528 
L 135.248928 246.635979 
L 132.990569 247.153641 
L 130.526906 247.153641 
L 128.063242 246.428914 
L 127.447326 245.80772 
z
" clip-path="url(#p48d76b2afe)" style="fill: #e74c3c; stroke: #ffffff; stroke-width: 0.6"/>
    <path d="M 227.020406 259.059868 
L 227.431016 259.059868 
L 228.046932 259.681062 
L 230.921207 261.75171 
L 231.331818 262.579969 
L 232.153039 263.304696 
L 233.179565 263.822358 
L 234.206092 264.029423 
L 236.669756 264.029423 
L 236.669756 263.822358 
L 238.312198 262.372905 
L 239.338725 261.75171 
L 239.749336 261.441113 
L 239.954641 260.923451 
L 240.159946 261.026983 
L 240.365252 261.337581 
L 240.365252 261.958775 
L 239.954641 262.787034 
L 240.365252 263.201164 
L 241.391778 261.337581 
L 240.981168 260.612854 
L 239.338725 260.302256 
L 238.722809 259.681062 
L 233.795481 250.98434 
L 232.97426 248.603095 
L 233.590176 245.911252 
L 236.05384 244.047669 
L 236.464451 243.219409 
L 236.875061 242.598215 
L 238.106893 241.769956 
L 239.338725 241.148761 
L 240.365252 240.941697 
L 239.54403 240.631099 
L 238.928114 240.527567 
L 238.312198 240.527567 
L 237.696282 240.21697 
L 237.696282 240.009905 
L 238.106893 239.906372 
L 238.517504 239.492243 
L 245.908495 240.424034 
L 250.630518 241.562891 
L 253.915403 242.494683 
L 254.736624 242.908812 
L 255.557845 243.633539 
L 255.968456 244.565331 
L 255.763151 245.704187 
L 255.35254 246.428914 
L 255.557845 247.153641 
L 256.379067 248.085433 
L 258.84273 250.259613 
L 259.663952 250.156081 
L 260.279868 250.466678 
L 260.485173 251.191405 
L 260.895784 251.916132 
L 261.101089 252.537326 
L 261.101089 252.951456 
L 260.895784 253.676182 
L 260.279868 254.815039 
L 259.869257 254.815039 
L 260.074562 255.332701 
L 260.279868 255.850363 
L 260.074562 256.368025 
L 259.869257 256.885687 
L 261.101089 257.713946 
L 261.717005 258.024544 
L 262.538226 258.128076 
L 262.538226 258.645738 
L 262.127615 259.370465 
L 262.538226 260.095192 
L 263.359447 260.819918 
L 264.180669 261.130516 
L 263.564753 262.062307 
L 262.332921 263.304696 
L 261.101089 264.443553 
L 260.074562 264.961215 
L 259.048036 265.16828 
L 251.657044 268.791914 
L 247.345632 270.3449 
L 243.239526 270.862562 
L 242.62361 270.551965 
L 242.007694 270.034303 
L 238.312198 269.93077 
L 237.901588 269.723705 
L 236.669756 269.309576 
L 236.05384 269.102511 
L 234.000787 269.102511 
L 233.384871 268.895446 
L 231.537123 266.410668 
L 230.921207 265.789474 
L 229.278764 264.650617 
L 228.662848 264.029423 
L 228.252238 262.787034 
L 227.841627 261.130516 
L 227.225711 259.57753 
z
" clip-path="url(#p48d76b2afe)" style="fill: #e74c3c; stroke: #ffffff; stroke-width: 0.6"/>
    <path d="M 525.944951 230.070794 
L 526.971478 230.070794 
L 527.792699 230.588456 
L 528.61392 231.20965 
L 529.435142 231.727312 
L 530.461668 231.727312 
L 531.077584 231.416715 
L 531.488195 230.899053 
L 532.309416 230.484923 
L 533.130638 230.174326 
L 533.951859 230.277859 
L 534.77308 230.484923 
L 535.388996 230.899053 
L 535.594301 231.106118 
L 536.004912 231.934377 
L 536.415523 232.141442 
L 536.826133 232.03791 
L 537.647355 231.416715 
L 538.057965 231.313183 
L 538.673881 231.62378 
L 540.521629 232.762636 
L 541.137545 232.969701 
L 541.958766 232.659104 
L 542.369377 232.141442 
L 542.985293 232.03791 
L 544.011819 232.969701 
L 544.42243 233.79796 
L 544.42243 234.522687 
L 544.42243 235.350947 
L 543.190598 238.146322 
L 543.190598 238.663984 
L 544.011819 239.699308 
L 542.985293 239.699308 
L 542.369377 240.009905 
L 541.137545 240.941697 
L 541.548156 239.80284 
L 541.137545 239.38871 
L 540.521629 239.492243 
L 540.111018 240.527567 
L 540.111018 240.734632 
L 540.316324 241.148761 
L 540.521629 241.562891 
L 540.111018 241.769956 
L 539.700408 241.769956 
L 539.495102 241.459359 
L 539.289797 241.045229 
L 538.673881 240.113437 
L 538.26327 239.492243 
L 538.057965 238.974581 
L 537.236744 238.456919 
L 536.415523 238.767516 
L 535.183691 238.560451 
L 533.951859 237.939257 
L 533.130638 237.421595 
L 533.130638 236.8004 
L 533.335943 236.179206 
L 533.541248 235.558011 
L 533.746553 234.833285 
L 533.541248 234.419155 
L 532.925332 234.108558 
L 531.898806 233.79796 
L 532.104111 234.315623 
L 532.104111 234.833285 
L 532.104111 235.454479 
L 531.898806 235.868609 
L 531.488195 234.62622 
L 531.077584 234.62622 
L 530.461668 235.558011 
L 529.640447 235.765076 
L 528.61392 235.454479 
L 528.20331 234.419155 
L 527.792699 233.694428 
L 526.766173 232.866169 
L 526.150257 231.830845 
L 526.355562 230.484923 
z
" clip-path="url(#p48d76b2afe)" style="fill: #e74c3c; stroke: #ffffff; stroke-width: 0.6"/>
    <path d="M 520.401708 224.169447 
L 521.428234 223.755317 
L 522.04415 223.03059 
L 522.660066 221.995266 
L 522.865372 221.063475 
L 522.865372 218.785762 
L 522.660066 218.061035 
L 522.04415 217.025711 
L 522.865372 217.129243 
L 523.891898 217.43984 
L 524.507814 218.061035 
L 524.713119 218.889294 
L 524.507814 219.406956 
L 523.891898 220.02815 
L 523.481287 220.85641 
L 523.891898 221.788201 
L 524.302509 221.995266 
L 525.739646 221.891734 
L 526.355562 222.098799 
L 526.766173 222.616461 
L 526.971478 223.237655 
L 527.382089 223.651785 
L 528.20331 223.755317 
L 527.587394 223.341187 
L 527.792699 222.927058 
L 527.998005 222.616461 
L 528.408615 222.305863 
L 528.61392 222.098799 
L 529.024531 222.823525 
L 529.640447 223.134123 
L 530.256363 223.134123 
L 530.666974 222.409396 
L 531.077584 223.44472 
L 530.461668 223.962382 
L 529.435142 224.169447 
L 528.61392 224.583576 
L 529.229836 224.790641 
L 529.845752 225.101238 
L 530.256363 225.515368 
L 530.666974 225.825965 
L 531.28289 226.03303 
L 532.309416 226.240095 
L 532.925332 226.654224 
L 531.6935 229.242535 
L 530.872279 230.277859 
L 530.256363 229.656664 
L 530.051058 229.760197 
L 529.229836 229.967261 
L 529.024531 230.070794 
L 528.819226 229.553132 
L 528.819226 229.346067 
L 528.20331 228.828405 
L 527.998005 227.586016 
L 526.766173 227.171886 
L 525.944951 227.586016 
L 526.355562 229.139002 
L 525.739646 228.828405 
L 523.686593 227.689549 
L 523.275982 227.275419 
L 522.865372 226.44716 
L 521.017624 225.101238 
z
" clip-path="url(#p48d76b2afe)" style="fill: #e74c3c; stroke: #ffffff; stroke-width: 0.6"/>
    <path d="M 483.44675 205.223016 
L 483.44675 203.152368 
L 483.652055 203.359433 
L 484.062666 203.566498 
L 484.267971 202.324109 
L 484.883887 202.220577 
L 485.499803 202.531174 
L 485.910414 202.531174 
L 486.52633 202.427641 
L 488.989994 202.945303 
L 490.427131 203.773563 
L 492.069574 203.980628 
L 493.712016 203.773563 
L 495.149153 203.980628 
L 496.380985 203.877095 
L 497.407512 203.152368 
L 498.228733 202.324109 
L 499.25526 201.909979 
L 500.487092 202.013512 
L 501.924229 202.427641 
L 502.950756 203.048836 
L 503.566671 203.980628 
L 503.361366 203.877095 
L 502.950756 203.566498 
L 503.156061 204.394757 
L 507.056862 208.328989 
L 507.262167 208.846651 
L 507.056862 209.467845 
L 506.646251 209.467845 
L 506.030335 209.157248 
L 505.619725 209.053715 
L 498.639344 210.710234 
L 498.639344 210.296104 
L 498.639344 210.089039 
L 498.844649 209.985507 
L 498.844649 209.67491 
L 499.049954 209.26078 
L 499.25526 209.053715 
L 499.460565 209.053715 
L 499.871176 209.157248 
L 500.076481 209.053715 
L 500.281786 208.432521 
L 500.076481 207.914859 
L 499.460565 207.604262 
L 498.844649 208.018391 
L 497.612817 208.432521 
L 496.17568 208.639586 
L 493.506711 208.639586 
L 492.274879 208.225456 
L 490.632436 207.190132 
L 488.374078 206.67247 
L 486.731635 206.154808 
L 485.705109 205.533614 
L 486.52633 204.808887 
L 485.705109 203.877095 
L 484.473277 204.705354 
z
" clip-path="url(#p48d76b2afe)" style="fill: #e74c3c; stroke: #ffffff; stroke-width: 0.6"/>
    <path d="M 505.209114 211.538493 
L 506.030335 210.606702 
L 507.262167 210.296104 
L 509.109915 210.296104 
L 510.957663 209.571377 
L 511.778884 209.571377 
L 512.189495 210.296104 
L 513.421327 209.67491 
L 514.858464 210.089039 
L 516.295601 211.020831 
L 517.322128 212.056155 
L 517.938044 212.780882 
L 518.348654 213.712674 
L 518.759265 214.644465 
L 518.96457 216.715113 
L 519.169876 217.336308 
L 520.401708 218.682229 
L 521.017624 218.682229 
L 521.838845 218.992826 
L 522.454761 219.096359 
L 521.428234 220.02815 
L 520.196402 219.614021 
L 517.322128 217.85397 
L 516.090296 217.543373 
L 514.653159 217.543373 
L 513.216021 217.336308 
L 511.778884 216.197451 
L 513.010716 215.369192 
L 512.600106 214.333868 
L 511.368274 213.816206 
L 510.752358 214.333868 
L 510.752358 214.85153 
L 510.547052 215.472725 
L 510.136442 215.886854 
L 509.520526 215.783322 
L 509.109915 215.058595 
L 509.109915 214.333868 
L 509.31522 213.816206 
L 509.931136 214.023271 
L 509.931136 212.987947 
L 509.109915 211.745558 
L 507.672778 211.227896 
L 506.440946 212.056155 
L 506.030335 211.745558 
L 505.82503 211.642026 
L 505.619725 211.642026 
z
" clip-path="url(#p48d76b2afe)" style="fill: #e74c3c; stroke: #ffffff; stroke-width: 0.6"/>
    <path d="M 429.862062 188.243702 
L 429.862062 187.208378 
L 431.504504 186.690716 
L 432.531031 186.587183 
L 433.557557 187.001313 
L 436.431832 190.417882 
L 437.663664 191.349674 
L 440.332633 192.177933 
L 442.590992 193.937984 
L 444.84935 194.869776 
L 446.081182 196.008632 
L 446.902403 197.458086 
L 447.313014 198.49341 
L 446.081182 197.354554 
L 445.670571 197.251021 
L 445.259961 197.147489 
L 444.644045 196.940424 
L 443.822823 196.422762 
L 443.001602 195.698035 
L 441.153854 193.523855 
L 440.127328 193.937984 
L 439.100801 193.730919 
L 438.074274 193.31679 
L 436.842443 192.281466 
L 436.431832 192.177933 
L 436.226527 191.867336 
L 436.021221 191.246142 
L 435.815916 190.935544 
L 434.994695 190.31435 
L 434.789389 190.107285 
L 434.173473 189.693155 
L 433.968168 188.864896 
L 433.352252 188.036637 
L 432.325726 187.622507 
L 430.683283 188.347234 
z
" clip-path="url(#p48d76b2afe)" style="fill: #e74c3c; stroke: #ffffff; stroke-width: 0.6"/>
    <path d="M 453.266868 297.263325 
L 455.730532 297.159793 
L 458.194196 298.712779 
L 460.452554 300.88696 
L 461.889692 302.750543 
L 461.479081 302.647011 
L 460.65786 302.750543 
L 460.863165 303.06114 
L 461.06847 303.992932 
L 459.426028 303.164673 
L 458.399501 302.129349 
L 456.346448 299.851636 
L 456.346448 299.333974 
L 457.372975 299.748103 
L 458.194196 300.47283 
L 458.810112 301.197557 
L 459.426028 301.922284 
L 458.810112 300.679895 
L 457.57828 299.126909 
L 456.141143 297.88452 
L 454.909311 297.677455 
L 454.909311 298.091585 
L 454.909311 298.402182 
L 455.114616 298.505714 
L 455.114616 298.609247 
L 455.319921 298.919844 
L 454.4987 298.712779 
L 454.088089 298.402182 
L 453.677479 297.88452 
z
" clip-path="url(#p48d76b2afe)" style="fill: #e74c3c; stroke: #ffffff; stroke-width: 0.6"/>
    <path d="M 375.866763 164.017119 
L 376.072068 163.18886 
L 376.482679 162.671198 
L 377.098595 162.464133 
L 378.125121 162.3606 
L 378.330426 162.464133 
L 378.741037 163.085327 
L 378.946342 163.18886 
L 379.562258 163.292392 
L 380.999396 163.18886 
L 381.204701 163.18886 
L 381.615312 162.981795 
L 382.025922 162.981795 
L 382.231228 163.499457 
L 382.025922 163.913586 
L 381.615312 164.120651 
L 381.204701 164.327716 
L 380.79409 164.741846 
L 380.178174 164.638313 
L 379.151648 164.224184 
L 378.125121 163.810054 
L 377.098595 164.017119 
L 376.893289 163.706522 
L 376.687984 163.706522 
z
" clip-path="url(#p48d76b2afe)" style="fill: #e74c3c; stroke: #ffffff; stroke-width: 0.6"/>
    <path d="M 353.693788 168.261947 
L 354.309704 167.537221 
L 357.799894 165.259508 
L 358.826421 165.052443 
L 359.852948 165.052443 
L 361.08478 165.36304 
L 360.879474 165.052443 
L 360.468864 164.431248 
L 360.263558 164.017119 
L 360.674169 163.706522 
L 360.879474 164.120651 
L 361.700696 164.94891 
L 361.700696 164.017119 
L 362.316612 164.017119 
L 362.727222 164.94891 
L 363.137833 165.36304 
L 363.137833 165.673637 
L 362.521917 166.191299 
L 361.700696 166.708961 
L 360.879474 166.605429 
L 360.468864 166.294832 
L 359.647642 166.191299 
L 357.799894 166.294832 
L 356.362757 166.812494 
z
" clip-path="url(#p48d76b2afe)" style="fill: #e74c3c; stroke: #ffffff; stroke-width: 0.6"/>
    <path d="M 288.406696 262.683502 
L 289.227918 262.476437 
L 290.254444 261.441113 
L 290.87036 261.337581 
L 291.486276 260.923451 
L 291.896887 260.509321 
L 292.307497 260.198724 
L 293.744635 259.57753 
L 294.565856 259.57753 
L 295.181772 259.266932 
L 295.592383 258.74927 
L 295.797688 258.335141 
L 296.002993 258.024544 
L 296.002993 257.921011 
L 296.413604 258.438673 
L 296.618909 259.473997 
L 295.592383 260.302256 
L 293.334024 261.130516 
L 291.691582 261.958775 
L 291.280971 262.062307 
L 290.87036 262.269372 
L 290.665055 262.579969 
L 289.843834 262.787034 
L 288.612002 262.890567 
z
" clip-path="url(#p48d76b2afe)" style="fill: #e74c3c; stroke: #ffffff; stroke-width: 0.6"/>
    <path d="M 423.908207 182.652952 
L 423.908207 182.031757 
L 424.729429 181.824693 
L 424.524123 181.410563 
L 424.524123 180.892901 
L 424.934734 180.685836 
L 425.345345 181.410563 
L 425.140039 182.342355 
L 425.55065 182.549419 
L 426.577177 182.756484 
L 426.987787 183.274146 
L 427.193093 183.688276 
L 428.014314 184.102406 
L 428.424924 184.516535 
L 427.809008 185.034197 
L 426.987787 185.241262 
L 426.577177 184.827132 
L 426.577177 184.413003 
L 426.371871 184.205938 
L 426.166566 184.102406 
L 425.961261 184.102406 
L 425.55065 183.998873 
L 424.318818 183.274146 
z
" clip-path="url(#p48d76b2afe)" style="fill: #e74c3c; stroke: #ffffff; stroke-width: 0.6"/>
    <path d="M 391.675272 167.330156 
L 391.675272 166.812494 
L 392.085883 166.398364 
L 392.496494 166.294832 
L 392.907104 166.294832 
L 393.52302 166.398364 
L 393.52302 166.812494 
L 393.933631 167.226623 
L 394.754852 167.95135 
L 395.165463 168.469012 
L 395.165463 168.676077 
L 395.370768 169.090207 
L 395.370768 169.400804 
L 395.165463 169.814934 
L 394.754852 169.814934 
L 394.344241 169.607869 
L 394.138936 169.090207 
L 393.933631 168.676077 
L 393.317715 168.469012 
L 392.496494 168.054883 
L 392.291188 167.95135 
L 392.291188 167.640753 
L 392.085883 167.537221 
z
" clip-path="url(#p48d76b2afe)" style="fill: #e74c3c; stroke: #ffffff; stroke-width: 0.6"/>
    <path d="M 320.023716 260.716386 
L 320.023716 259.473997 
L 320.639632 259.1634 
L 322.076769 259.473997 
L 322.692685 258.956335 
L 323.308601 258.024544 
L 323.924517 257.403349 
L 324.540433 257.610414 
L 325.156349 257.921011 
L 325.97757 257.713946 
L 326.798791 257.196284 
L 327.004097 256.678622 
L 327.414707 255.643298 
L 328.235928 254.918571 
L 330.083676 253.779715 
L 330.494287 253.57265 
L 330.699592 253.883247 
L 330.904898 254.193844 
L 330.699592 254.400909 
L 330.494287 254.504442 
L 328.235928 256.678622 
L 323.719211 259.784594 
L 321.871464 260.509321 
z
" clip-path="url(#p48d76b2afe)" style="fill: #e74c3c; stroke: #ffffff; stroke-width: 0.6"/>
    <path d="M 496.586291 322.00757 
L 497.407512 321.386376 
L 498.434038 321.593441 
L 499.25526 322.214635 
L 499.871176 322.83583 
L 500.692397 323.974686 
L 501.103008 324.492348 
L 502.129534 325.01001 
L 502.33484 323.974686 
L 502.74545 323.767621 
L 503.566671 324.181751 
L 504.182587 325.01001 
L 504.387893 326.148867 
L 504.387893 326.977126 
L 503.771977 327.184191 
L 502.74545 326.459464 
L 502.129534 326.045334 
L 501.103008 325.838269 
L 500.487092 325.42414 
L 499.66587 323.767621 
L 498.639344 323.042895 
z
" clip-path="url(#p48d76b2afe)" style="fill: #e74c3c; stroke: #ffffff; stroke-width: 0.6"/>
    <path d="M 359.852948 161.532341 
L 360.058253 161.221744 
L 361.290085 161.325276 
L 362.932527 161.946471 
L 364.780275 162.3606 
L 368.475771 162.77473 
L 368.475771 162.981795 
L 368.475771 163.292392 
L 368.06516 163.395924 
L 367.65455 163.18886 
L 367.243939 163.18886 
L 367.038634 163.602989 
L 366.833329 163.706522 
L 365.601497 163.18886 
L 364.985581 162.981795 
L 364.57497 162.878262 
L 363.343138 162.981795 
L 362.727222 162.981795 
L 361.290085 162.3606 
L 360.674169 162.257068 
L 360.263558 161.635873 
z
" clip-path="url(#p48d76b2afe)" style="fill: #e74c3c; stroke: #ffffff; stroke-width: 0.6"/>
    <path d="M 416.311911 178.201058 
L 416.927827 177.372799 
L 418.159658 176.95867 
L 418.98088 177.165734 
L 419.39149 177.786929 
L 419.39149 178.304591 
L 419.186185 178.511656 
L 418.364964 178.822253 
L 417.954353 179.236382 
L 418.364964 179.54698 
L 418.775574 179.650512 
L 418.775574 179.961109 
L 418.364964 180.478771 
L 417.749048 180.478771 
L 417.133132 180.168174 
L 416.722521 179.54698 
L 416.927827 179.236382 
L 417.338437 178.925785 
L 417.338437 178.615188 
L 416.927827 178.511656 
z
" clip-path="url(#p48d76b2afe)" style="fill: #e74c3c; stroke: #ffffff; stroke-width: 0.6"/>
    <path d="M 382.641838 166.708961 
L 382.847143 166.605429 
L 383.463059 166.708961 
L 383.257754 166.087767 
L 383.668365 165.77717 
L 384.489586 165.673637 
L 384.900197 165.673637 
L 386.132029 165.570105 
L 386.747945 165.570105 
L 387.569166 165.673637 
L 387.569166 165.984235 
L 386.95325 166.087767 
L 386.542639 166.087767 
L 385.105502 166.191299 
L 384.489586 166.708961 
L 383.668365 167.019559 
L 382.847143 167.226623 
L 382.847143 167.123091 
z
" clip-path="url(#p48d76b2afe)" style="fill: #e74c3c; stroke: #ffffff; stroke-width: 0.6"/>
    <path d="M 403.582981 172.092646 
L 403.582981 171.885582 
L 403.788286 171.989114 
L 403.993591 171.678517 
L 403.993591 170.850258 
L 404.609507 170.746725 
L 405.430729 171.471452 
L 405.430729 171.989114 
L 405.636034 172.403244 
L 406.046645 173.231503 
L 405.841339 173.438568 
L 405.430729 172.920906 
L 405.225423 172.610308 
L 405.020118 172.713841 
L 404.609507 172.713841 
L 404.198897 172.713841 
L 403.788286 172.403244 
z
" clip-path="url(#p48d76b2afe)" style="fill: #e74c3c; stroke: #ffffff; stroke-width: 0.6"/>
    <path d="M 298.671962 258.335141 
L 298.877268 258.438673 
L 299.493184 259.059868 
L 300.314405 258.956335 
L 301.135626 258.335141 
L 301.340932 258.024544 
L 301.135626 257.921011 
L 301.340932 257.817479 
L 302.983374 257.092752 
L 303.393985 256.989219 
L 304.215206 256.782155 
L 304.215206 257.092752 
L 303.393985 257.817479 
L 302.367458 258.438673 
L 300.51971 259.888127 
L 299.493184 259.888127 
L 298.877268 259.1634 
z
" clip-path="url(#p48d76b2afe)" style="fill: #e74c3c; stroke: #ffffff; stroke-width: 0.6"/>
    <path d="M 396.191989 169.504336 
L 396.397295 168.883142 
L 396.6026 168.469012 
L 397.013211 168.054883 
L 397.423821 167.433688 
L 397.834432 167.433688 
L 398.245042 168.158415 
L 398.860958 168.883142 
L 399.476874 169.400804 
L 400.298096 169.504336 
L 401.324622 169.607869 
L 401.529928 169.711401 
L 401.324622 169.918466 
L 400.914012 170.332596 
L 399.68218 170.95379 
L 398.655653 170.643193 
z
" clip-path="url(#p48d76b2afe)" style="fill: #e74c3c; stroke: #ffffff; stroke-width: 0.6"/>
    <path d="M 389.211608 175.819813 
L 389.622219 175.612748 
L 389.827524 175.405683 
L 390.238135 175.509216 
L 390.648746 175.819813 
L 393.52302 174.473892 
L 394.754852 174.370359 
L 395.781379 174.991554 
L 395.576073 175.198619 
L 394.960157 175.716281 
L 394.754852 175.819813 
L 395.165463 176.13041 
L 395.576073 176.441008 
L 395.781379 176.95867 
L 395.781379 177.579864 
L 390.03283 176.54454 
z
" clip-path="url(#p48d76b2afe)" style="fill: #e74c3c; stroke: #ffffff; stroke-width: 0.6"/>
    <path d="M 461.479081 303.992932 
L 462.300302 303.889399 
L 463.326829 303.889399 
L 464.14805 304.199997 
L 464.558661 304.614126 
L 465.379882 304.924723 
L 466.611714 305.028256 
L 467.638241 305.442385 
L 467.638241 306.270645 
L 467.022325 307.202436 
L 466.611714 307.513034 
L 466.611714 307.098904 
L 466.406409 306.891839 
L 464.969271 306.581242 
L 462.094997 304.614126 
z
" clip-path="url(#p48d76b2afe)" style="fill: #e74c3c; stroke: #ffffff; stroke-width: 0.6"/>
    <path d="M 443.822823 290.119589 
L 445.670571 289.808992 
L 447.107709 290.740784 
L 449.366067 293.122029 
L 448.544846 293.432626 
L 447.518319 293.432626 
L 446.697098 293.225562 
L 445.875877 292.604367 
L 446.286487 292.604367 
L 447.313014 292.604367 
L 447.107709 291.983173 
L 446.697098 291.569043 
L 446.286487 291.465511 
L 445.875877 291.776108 
L 444.438739 290.637251 
z
" clip-path="url(#p48d76b2afe)" style="fill: #e74c3c; stroke: #ffffff; stroke-width: 0.6"/>
    <path d="M 368.886382 164.017119 
L 368.886382 163.18886 
L 369.296992 162.567665 
L 370.323519 162.153535 
L 370.939435 162.050003 
L 371.14474 162.257068 
L 371.14474 162.671198 
L 370.939435 163.085327 
L 370.73413 163.085327 
L 370.528824 163.085327 
L 370.528824 163.602989 
L 370.323519 163.602989 
L 369.502298 163.499457 
L 369.091687 163.706522 
L 369.091687 164.120651 
z
" clip-path="url(#p48d76b2afe)" style="fill: #e74c3c; stroke: #ffffff; stroke-width: 0.6"/>
    <path d="M 529.845752 217.43984 
L 531.28289 217.232776 
L 532.514722 218.164567 
L 533.335943 219.717553 
L 534.157164 222.305863 
L 534.978385 223.341187 
L 536.004912 224.272979 
L 536.826133 225.411836 
L 535.594301 225.411836 
L 534.157164 223.962382 
L 531.898806 220.338748 
L 532.309416 219.510488 
L 531.6935 218.682229 
L 530.666974 217.85397 
z
" clip-path="url(#p48d76b2afe)" style="fill: #e74c3c; stroke: #ffffff; stroke-width: 0.6"/>
    <path d="M 488.168772 318.901598 
L 488.579383 319.108663 
L 488.784688 319.41926 
L 489.195299 319.522793 
L 489.60591 319.522793 
L 490.01652 319.212196 
L 490.01652 318.694533 
L 489.811215 318.383936 
L 490.01652 318.591001 
L 490.01652 318.694533 
L 490.01652 318.901598 
L 488.579383 318.591001 
L 488.374078 318.487469 
L 488.168772 318.591001 
z
" clip-path="url(#p48d76b2afe)" style="fill: #e74c3c; stroke: #ffffff; stroke-width: 0.6"/>
    <path d="M 355.336231 159.254628 
L 355.746841 158.944031 
L 356.978673 158.736966 
L 358.41581 159.668758 
L 358.826421 159.668758 
L 359.237032 159.77229 
L 359.442337 160.289952 
L 358.826421 160.807614 
L 358.210505 160.704082 
L 357.594589 160.497017 
L 356.978673 160.393485 
L 356.362757 160.082887 
L 355.952147 159.668758 
L 355.746841 159.461693 
z
" clip-path="url(#p48d76b2afe)" style="fill: #e74c3c; stroke: #ffffff; stroke-width: 0.6"/>
    <path d="M 492.069574 315.795626 
L 492.68549 315.277964 
L 494.738543 314.863834 
L 495.559764 314.035575 
L 495.765069 314.24264 
L 495.970375 314.449705 
L 496.586291 314.139108 
L 496.996901 314.139108 
L 498.228733 314.449705 
L 497.407512 315.381496 
L 494.738543 316.002691 
L 493.917321 316.623885 
L 492.890795 316.106223 
z
" clip-path="url(#p48d76b2afe)" style="fill: #e74c3c; stroke: #ffffff; stroke-width: 0.6"/>
    <path d="M 479.340644 204.49829 
L 479.340644 204.187692 
L 479.340644 203.152368 
L 479.545949 203.048836 
L 480.36717 203.255901 
L 480.983086 203.152368 
L 480.983086 202.738239 
L 481.188392 202.531174 
L 481.599002 202.738239 
L 481.599002 203.152368 
L 481.188392 203.773563 
L 480.983086 204.187692 
L 479.95656 204.601822 
z
" clip-path="url(#p48d76b2afe)" style="fill: #e74c3c; stroke: #ffffff; stroke-width: 0.6"/>
    <path d="M 468.048851 309.06602 
L 468.870072 308.030696 
L 469.280683 307.513034 
L 469.896599 307.513034 
L 470.101904 308.030696 
L 470.30721 308.65189 
L 470.30721 309.480149 
L 473.181484 309.376617 
L 474.208011 309.997811 
L 474.823927 311.550797 
L 474.413316 311.550797 
L 473.386789 310.826071 
L 469.280683 310.411941 
z
" clip-path="url(#p48d76b2afe)" style="fill: #e74c3c; stroke: #ffffff; stroke-width: 0.6"/>
    <path d="M 318.381273 232.348507 
L 318.381273 231.934377 
L 318.791884 231.62378 
L 319.4078 231.830845 
L 320.023716 232.141442 
L 320.229021 232.348507 
L 320.639632 232.762636 
L 320.844937 233.590896 
L 320.434326 233.694428 
L 319.81841 233.280298 
L 319.202494 233.383831 
L 318.791884 233.280298 
L 318.586578 232.866169 
z
" clip-path="url(#p48d76b2afe)" style="fill: #e74c3c; stroke: #ffffff; stroke-width: 0.6"/>
    <path d="M 264.796585 201.806447 
L 265.00189 197.975748 
L 264.796585 197.458086 
L 264.796585 197.147489 
L 265.00189 197.043956 
L 265.412501 197.354554 
L 265.617806 197.768683 
L 265.617806 197.975748 
L 265.823111 198.700475 
L 266.028417 200.149929 
L 265.617806 201.288785 
L 265.412501 201.702915 
L 265.207195 202.013512 
z
" clip-path="url(#p48d76b2afe)" style="fill: #e74c3c; stroke: #ffffff; stroke-width: 0.6"/>
    <path d="M 661.241157 311.757862 
L 661.241157 310.722538 
L 663.910126 310.204876 
L 664.731347 310.308409 
L 665.141958 310.722538 
L 665.963179 312.275524 
L 666.37379 313.000251 
L 666.579095 313.724978 
L 665.552569 313.724978 
L 663.704821 313.207316 
L 662.678294 313.000251 
L 661.857073 312.586122 
z
" clip-path="url(#p48d76b2afe)" style="fill: #e74c3c; stroke: #ffffff; stroke-width: 0.6"/>
    <path d="M 411.384583 177.890461 
L 412.205804 177.372799 
L 413.232331 177.062202 
L 414.053552 177.062202 
L 415.080079 177.579864 
L 415.490689 177.476332 
L 415.490689 178.304591 
L 414.874773 178.925785 
L 413.642941 178.097526 
L 413.027025 178.304591 
L 412.41111 179.13285 
L 411.795194 179.443447 
z
" clip-path="url(#p48d76b2afe)" style="fill: #e74c3c; stroke: #ffffff; stroke-width: 0.6"/>
    <path d="M 461.06847 195.180373 
L 462.094997 194.973308 
L 467.432935 195.387438 
L 468.254156 195.9051 
L 468.254156 196.526294 
L 467.022325 197.251021 
L 466.611714 196.422762 
L 465.790493 196.112165 
L 462.300302 195.9051 
L 461.889692 195.594503 
z
" clip-path="url(#p48d76b2afe)" style="fill: #e74c3c; stroke: #ffffff; stroke-width: 0.6"/>
    <path d="M 453.266868 197.147489 
L 453.677479 196.940424 
L 455.935837 196.836892 
L 455.319921 197.458086 
L 454.293395 198.07928 
L 453.882784 198.07928 
L 453.882784 197.665151 
L 453.677479 197.354554 
z
" clip-path="url(#p48d76b2afe)" style="fill: #e74c3c; stroke: #ffffff; stroke-width: 0.6"/>
    <path d="M 203.204989 238.353386 
L 203.820905 238.042789 
L 205.463347 238.456919 
L 206.489874 238.663984 
L 206.900484 238.767516 
L 206.489874 238.871048 
L 205.463347 238.871048 
L 204.231515 238.767516 
z
" clip-path="url(#p48d76b2afe)" style="fill: #e74c3c; stroke: #ffffff; stroke-width: 0.6"/>
    <path d="M 485.705109 318.591001 
L 485.705109 318.280404 
L 485.910414 318.176871 
L 486.321025 318.280404 
L 487.142246 318.591001 
L 487.142246 318.901598 
L 486.115719 319.005131 
z
" clip-path="url(#p48d76b2afe)" style="fill: #e74c3c; stroke: #ffffff; stroke-width: 0.6"/>
    <path d="M 475.850453 312.793186 
L 477.082285 312.586122 
L 478.314117 313.000251 
L 480.161865 314.449705 
L 479.340644 315.277964 
L 477.903506 314.863834 
L 476.671675 313.724978 
z
" clip-path="url(#p48d76b2afe)" style="fill: #e74c3c; stroke: #ffffff; stroke-width: 0.6"/>
    <path d="M 256.789677 239.492243 
L 258.226814 239.181646 
L 260.279868 240.113437 
L 261.306394 240.838164 
L 260.485173 241.148761 
L 259.048036 241.252294 
L 257.405593 240.527567 
z
" clip-path="url(#p48d76b2afe)" style="fill: #e74c3c; stroke: #ffffff; stroke-width: 0.6"/>
   </g>
   <g id="text_1">
    <g id="patch_2">
     <path d="M 636.828333 367.854637 
L 728.343489 367.854637 
Q 729.743489 367.854637 729.743489 366.454637 
L 729.743489 359.454637 
Q 729.743489 358.054637 728.343489 358.054637 
L 636.828333 358.054637 
Q 635.428333 358.054637 635.428333 359.454637 
L 635.428333 366.454637 
Q 635.428333 367.854637 636.828333 367.854637 
z
" clip-path="url(#p48d76b2afe)" style="fill: #ffffff; opacity: 0.6"/>
    </g>
    <g clip-path="url(#p48d76b2afe)">
     <!-- USNB Guantanamo Bay -->
     <g style="fill: #1a252f" transform="translate(636.828333 364.772996) scale(0.07 -0.07)">
      <defs>
       <path id="DejaVuSans-Bold-38" d="M 588 4666 
L 1791 4666 
L 1791 1869 
Q 1791 1291 1980 1042 
Q 2169 794 2597 794 
Q 3028 794 3217 1042 
Q 3406 1291 3406 1869 
L 3406 4666 
L 4609 4666 
L 4609 1869 
Q 4609 878 4112 393 
Q 3616 -91 2597 -91 
Q 1581 -91 1084 393 
Q 588 878 588 1869 
L 588 4666 
z
" transform="scale(0.015625)"/>
       <path id="DejaVuSans-Bold-36" d="M 3834 4519 
L 3834 3531 
Q 3450 3703 3084 3790 
Q 2719 3878 2394 3878 
Q 1963 3878 1756 3759 
Q 1550 3641 1550 3391 
Q 1550 3203 1689 3098 
Q 1828 2994 2194 2919 
L 2706 2816 
Q 3484 2659 3812 2340 
Q 4141 2022 4141 1434 
Q 4141 663 3683 286 
Q 3225 -91 2284 -91 
Q 1841 -91 1394 -6 
Q 947 78 500 244 
L 500 1259 
Q 947 1022 1364 901 
Q 1781 781 2169 781 
Q 2563 781 2772 912 
Q 2981 1044 2981 1288 
Q 2981 1506 2839 1625 
Q 2697 1744 2272 1838 
L 1806 1941 
Q 1106 2091 782 2419 
Q 459 2747 459 3303 
Q 459 4000 909 4375 
Q 1359 4750 2203 4750 
Q 2588 4750 2994 4692 
Q 3400 4634 3834 4519 
z
" transform="scale(0.015625)"/>
       <path id="DejaVuSans-Bold-31" d="M 588 4666 
L 1931 4666 
L 3628 1466 
L 3628 4666 
L 4769 4666 
L 4769 0 
L 3425 0 
L 1728 3200 
L 1728 0 
L 588 0 
L 588 4666 
z
" transform="scale(0.015625)"/>
       <path id="DejaVuSans-Bold-25" d="M 2456 2859 
Q 2741 2859 2887 2984 
Q 3034 3109 3034 3353 
Q 3034 3594 2887 3720 
Q 2741 3847 2456 3847 
L 1791 3847 
L 1791 2859 
L 2456 2859 
z
M 2497 819 
Q 2859 819 3042 972 
Q 3225 1125 3225 1434 
Q 3225 1738 3044 1889 
Q 2863 2041 2497 2041 
L 1791 2041 
L 1791 819 
L 2497 819 
z
M 3616 2497 
Q 4003 2384 4215 2081 
Q 4428 1778 4428 1338 
Q 4428 663 3972 331 
Q 3516 0 2584 0 
L 588 0 
L 588 4666 
L 2394 4666 
Q 3366 4666 3802 4372 
Q 4238 4078 4238 3431 
Q 4238 3091 4078 2852 
Q 3919 2613 3616 2497 
z
" transform="scale(0.015625)"/>
       <path id="DejaVuSans-Bold-3" transform="scale(0.015625)"/>
       <path id="DejaVuSans-Bold-2a" d="M 4781 347 
Q 4331 128 3847 18 
Q 3363 -91 2847 -91 
Q 1681 -91 1000 561 
Q 319 1213 319 2328 
Q 319 3456 1012 4103 
Q 1706 4750 2913 4750 
Q 3378 4750 3804 4662 
Q 4231 4575 4609 4403 
L 4609 3438 
Q 4219 3659 3833 3768 
Q 3447 3878 3059 3878 
Q 2341 3878 1952 3476 
Q 1563 3075 1563 2328 
Q 1563 1588 1938 1184 
Q 2313 781 3003 781 
Q 3191 781 3352 804 
Q 3513 828 3641 878 
L 3641 1784 
L 2906 1784 
L 2906 2591 
L 4781 2591 
L 4781 347 
z
" transform="scale(0.015625)"/>
       <path id="DejaVuSans-Bold-58" d="M 500 1363 
L 500 3500 
L 1625 3500 
L 1625 3150 
Q 1625 2866 1622 2436 
Q 1619 2006 1619 1863 
Q 1619 1441 1641 1255 
Q 1663 1069 1716 984 
Q 1784 875 1895 815 
Q 2006 756 2150 756 
Q 2500 756 2700 1025 
Q 2900 1294 2900 1772 
L 2900 3500 
L 4019 3500 
L 4019 0 
L 2900 0 
L 2900 506 
Q 2647 200 2364 54 
Q 2081 -91 1741 -91 
Q 1134 -91 817 281 
Q 500 653 500 1363 
z
" transform="scale(0.015625)"/>
       <path id="DejaVuSans-Bold-44" d="M 2106 1575 
Q 1756 1575 1579 1456 
Q 1403 1338 1403 1106 
Q 1403 894 1545 773 
Q 1688 653 1941 653 
Q 2256 653 2472 879 
Q 2688 1106 2688 1447 
L 2688 1575 
L 2106 1575 
z
M 3816 1997 
L 3816 0 
L 2688 0 
L 2688 519 
Q 2463 200 2181 54 
Q 1900 -91 1497 -91 
Q 953 -91 614 226 
Q 275 544 275 1050 
Q 275 1666 698 1953 
Q 1122 2241 2028 2241 
L 2688 2241 
L 2688 2328 
Q 2688 2594 2478 2717 
Q 2269 2841 1825 2841 
Q 1466 2841 1156 2769 
Q 847 2697 581 2553 
L 581 3406 
Q 941 3494 1303 3539 
Q 1666 3584 2028 3584 
Q 2975 3584 3395 3211 
Q 3816 2838 3816 1997 
z
" transform="scale(0.015625)"/>
       <path id="DejaVuSans-Bold-51" d="M 4056 2131 
L 4056 0 
L 2931 0 
L 2931 347 
L 2931 1631 
Q 2931 2084 2911 2256 
Q 2891 2428 2841 2509 
Q 2775 2619 2662 2680 
Q 2550 2741 2406 2741 
Q 2056 2741 1856 2470 
Q 1656 2200 1656 1722 
L 1656 0 
L 538 0 
L 538 3500 
L 1656 3500 
L 1656 2988 
Q 1909 3294 2193 3439 
Q 2478 3584 2822 3584 
Q 3428 3584 3742 3212 
Q 4056 2841 4056 2131 
z
" transform="scale(0.015625)"/>
       <path id="DejaVuSans-Bold-57" d="M 1759 4494 
L 1759 3500 
L 2913 3500 
L 2913 2700 
L 1759 2700 
L 1759 1216 
Q 1759 972 1856 886 
Q 1953 800 2241 800 
L 2816 800 
L 2816 0 
L 1856 0 
Q 1194 0 917 276 
Q 641 553 641 1216 
L 641 2700 
L 84 2700 
L 84 3500 
L 641 3500 
L 641 4494 
L 1759 4494 
z
" transform="scale(0.015625)"/>
       <path id="DejaVuSans-Bold-50" d="M 3781 2919 
Q 3994 3244 4286 3414 
Q 4578 3584 4928 3584 
Q 5531 3584 5847 3212 
Q 6163 2841 6163 2131 
L 6163 0 
L 5038 0 
L 5038 1825 
Q 5041 1866 5042 1909 
Q 5044 1953 5044 2034 
Q 5044 2406 4934 2573 
Q 4825 2741 4581 2741 
Q 4263 2741 4089 2478 
Q 3916 2216 3909 1719 
L 3909 0 
L 2784 0 
L 2784 1825 
Q 2784 2406 2684 2573 
Q 2584 2741 2328 2741 
Q 2006 2741 1831 2477 
Q 1656 2213 1656 1722 
L 1656 0 
L 531 0 
L 531 3500 
L 1656 3500 
L 1656 2988 
Q 1863 3284 2130 3434 
Q 2397 3584 2719 3584 
Q 3081 3584 3359 3409 
Q 3638 3234 3781 2919 
z
" transform="scale(0.015625)"/>
       <path id="DejaVuSans-Bold-52" d="M 2203 2784 
Q 1831 2784 1636 2517 
Q 1441 2250 1441 1747 
Q 1441 1244 1636 976 
Q 1831 709 2203 709 
Q 2569 709 2762 976 
Q 2956 1244 2956 1747 
Q 2956 2250 2762 2517 
Q 2569 2784 2203 2784 
z
M 2203 3584 
Q 3106 3584 3614 3096 
Q 4122 2609 4122 1747 
Q 4122 884 3614 396 
Q 3106 -91 2203 -91 
Q 1297 -91 786 396 
Q 275 884 275 1747 
Q 275 2609 786 3096 
Q 1297 3584 2203 3584 
z
" transform="scale(0.015625)"/>
       <path id="DejaVuSans-Bold-5c" d="M 78 3500 
L 1197 3500 
L 2138 1125 
L 2938 3500 
L 4056 3500 
L 2584 -331 
Q 2363 -916 2067 -1148 
Q 1772 -1381 1288 -1381 
L 641 -1381 
L 641 -647 
L 991 -647 
Q 1275 -647 1404 -556 
Q 1534 -466 1606 -231 
L 1638 -134 
L 78 3500 
z
" transform="scale(0.015625)"/>
      </defs>
      <use xlink:href="#DejaVuSans-Bold-38"/>
      <use xlink:href="#DejaVuSans-Bold-36" transform="translate(81.203125 0)"/>
      <use xlink:href="#DejaVuSans-Bold-31" transform="translate(153.21875 0)"/>
      <use xlink:href="#DejaVuSans-Bold-25" transform="translate(236.90625 0)"/>
      <use xlink:href="#DejaVuSans-Bold-3" transform="translate(313.125 0)"/>
      <use xlink:href="#DejaVuSans-Bold-2a" transform="translate(347.9375 0)"/>
      <use xlink:href="#DejaVuSans-Bold-58" transform="translate(430.015625 0)"/>
      <use xlink:href="#DejaVuSans-Bold-44" transform="translate(501.203125 0)"/>
      <use xlink:href="#DejaVuSans-Bold-51" transform="translate(568.6875 0)"/>
      <use xlink:href="#DejaVuSans-Bold-57" transform="translate(639.875 0)"/>
      <use xlink:href="#DejaVuSans-Bold-44" transform="translate(687.671875 0)"/>
      <use xlink:href="#DejaVuSans-Bold-51" transform="translate(755.15625 0)"/>
      <use xlink:href="#DejaVuSans-Bold-44" transform="translate(826.34375 0)"/>
      <use xlink:href="#DejaVuSans-Bold-50" transform="translate(893.828125 0)"/>
      <use xlink:href="#DejaVuSans-Bold-52" transform="translate(998.03125 0)"/>
      <use xlink:href="#DejaVuSans-Bold-3" transform="translate(1066.734375 0)"/>
      <use xlink:href="#DejaVuSans-Bold-25" transform="translate(1101.546875 0)"/>
      <use xlink:href="#DejaVuSans-Bold-44" transform="translate(1177.765625 0)"/>
      <use xlink:href="#DejaVuSans-Bold-5c" transform="translate(1242.171875 0)"/>
     </g>
    </g>
   </g>
   <g id="text_2">
    <!-- Cuba -->
    <g style="fill: #1a252f" transform="translate(411.090547 20.117344) scale(0.17 -0.17)">
     <defs>
      <path id="DejaVuSans-Bold-26" d="M 4288 256 
Q 3956 84 3597 -3 
Q 3238 -91 2847 -91 
Q 1681 -91 1000 561 
Q 319 1213 319 2328 
Q 319 3447 1000 4098 
Q 1681 4750 2847 4750 
Q 3238 4750 3597 4662 
Q 3956 4575 4288 4403 
L 4288 3438 
Q 3953 3666 3628 3772 
Q 3303 3878 2944 3878 
Q 2300 3878 1931 3465 
Q 1563 3053 1563 2328 
Q 1563 1606 1931 1193 
Q 2300 781 2944 781 
Q 3303 781 3628 887 
Q 3953 994 4288 1222 
L 4288 256 
z
" transform="scale(0.015625)"/>
      <path id="DejaVuSans-Bold-45" d="M 2400 722 
Q 2759 722 2948 984 
Q 3138 1247 3138 1747 
Q 3138 2247 2948 2509 
Q 2759 2772 2400 2772 
Q 2041 2772 1848 2508 
Q 1656 2244 1656 1747 
Q 1656 1250 1848 986 
Q 2041 722 2400 722 
z
M 1656 2988 
Q 1888 3294 2169 3439 
Q 2450 3584 2816 3584 
Q 3463 3584 3878 3070 
Q 4294 2556 4294 1747 
Q 4294 938 3878 423 
Q 3463 -91 2816 -91 
Q 2450 -91 2169 54 
Q 1888 200 1656 506 
L 1656 0 
L 538 0 
L 538 4863 
L 1656 4863 
L 1656 2988 
z
" transform="scale(0.015625)"/>
     </defs>
     <use xlink:href="#DejaVuSans-Bold-26"/>
     <use xlink:href="#DejaVuSans-Bold-58" transform="translate(73.390625 0)"/>
     <use xlink:href="#DejaVuSans-Bold-45" transform="translate(144.578125 0)"/>
     <use xlink:href="#DejaVuSans-Bold-44" transform="translate(216.15625 0)"/>
    </g>
   </g>
   <g id="legend_1">
    <g id="patch_3">
     <path d="M 13.5 493.648567 
L 88.097344 493.648567 
Q 89.897344 493.648567 89.897344 491.848567 
L 89.897344 465.747161 
Q 89.897344 463.947161 88.097344 463.947161 
L 13.5 463.947161 
Q 11.7 463.947161 11.7 465.747161 
L 11.7 491.848567 
Q 11.7 493.648567 13.5 493.648567 
z
" style="fill: #ffffff; opacity: 0.85; stroke: #cccccc; stroke-linejoin: miter"/>
    </g>
    <g id="patch_4">
     <path d="M 15.3 474.385755 
L 33.3 474.385755 
L 33.3 468.085755 
L 15.3 468.085755 
z
" style="fill: #e74c3c; stroke: #888888; stroke-linejoin: miter"/>
    </g>
    <g id="text_3">
     <!-- Cuba -->
     <g transform="translate(40.5 474.385755) scale(0.09 -0.09)">
      <defs>
       <path id="DejaVuSans-26" d="M 4122 4306 
L 4122 3641 
Q 3803 3938 3442 4084 
Q 3081 4231 2675 4231 
Q 1875 4231 1450 3742 
Q 1025 3253 1025 2328 
Q 1025 1406 1450 917 
Q 1875 428 2675 428 
Q 3081 428 3442 575 
Q 3803 722 4122 1019 
L 4122 359 
Q 3791 134 3420 21 
Q 3050 -91 2638 -91 
Q 1578 -91 968 557 
Q 359 1206 359 2328 
Q 359 3453 968 4101 
Q 1578 4750 2638 4750 
Q 3056 4750 3426 4639 
Q 3797 4528 4122 4306 
z
" transform="scale(0.015625)"/>
       <path id="DejaVuSans-58" d="M 544 1381 
L 544 3500 
L 1119 3500 
L 1119 1403 
Q 1119 906 1312 657 
Q 1506 409 1894 409 
Q 2359 409 2629 706 
Q 2900 1003 2900 1516 
L 2900 3500 
L 3475 3500 
L 3475 0 
L 2900 0 
L 2900 538 
Q 2691 219 2414 64 
Q 2138 -91 1772 -91 
Q 1169 -91 856 284 
Q 544 659 544 1381 
z
M 1991 3584 
L 1991 3584 
z
" transform="scale(0.015625)"/>
       <path id="DejaVuSans-45" d="M 3116 1747 
Q 3116 2381 2855 2742 
Q 2594 3103 2138 3103 
Q 1681 3103 1420 2742 
Q 1159 2381 1159 1747 
Q 1159 1113 1420 752 
Q 1681 391 2138 391 
Q 2594 391 2855 752 
Q 3116 1113 3116 1747 
z
M 1159 2969 
Q 1341 3281 1617 3432 
Q 1894 3584 2278 3584 
Q 2916 3584 3314 3078 
Q 3713 2572 3713 1747 
Q 3713 922 3314 415 
Q 2916 -91 2278 -91 
Q 1894 -91 1617 61 
Q 1341 213 1159 525 
L 1159 0 
L 581 0 
L 581 4863 
L 1159 4863 
L 1159 2969 
z
" transform="scale(0.015625)"/>
       <path id="DejaVuSans-44" d="M 2194 1759 
Q 1497 1759 1228 1600 
Q 959 1441 959 1056 
Q 959 750 1161 570 
Q 1363 391 1709 391 
Q 2188 391 2477 730 
Q 2766 1069 2766 1631 
L 2766 1759 
L 2194 1759 
z
M 3341 1997 
L 3341 0 
L 2766 0 
L 2766 531 
Q 2569 213 2275 61 
Q 1981 -91 1556 -91 
Q 1019 -91 701 211 
Q 384 513 384 1019 
Q 384 1609 779 1909 
Q 1175 2209 1959 2209 
L 2766 2209 
L 2766 2266 
Q 2766 2663 2505 2880 
Q 2244 3097 1772 3097 
Q 1472 3097 1187 3025 
Q 903 2953 641 2809 
L 641 3341 
Q 956 3463 1253 3523 
Q 1550 3584 1831 3584 
Q 2591 3584 2966 3190 
Q 3341 2797 3341 1997 
z
" transform="scale(0.015625)"/>
      </defs>
      <use xlink:href="#DejaVuSans-26"/>
      <use xlink:href="#DejaVuSans-58" transform="translate(69.828125 0)"/>
      <use xlink:href="#DejaVuSans-45" transform="translate(133.203125 0)"/>
      <use xlink:href="#DejaVuSans-44" transform="translate(196.6875 0)"/>
     </g>
    </g>
    <g id="patch_5">
     <path d="M 15.3 487.886458 
L 33.3 487.886458 
L 33.3 481.586458 
L 15.3 481.586458 
z
" style="fill: #bdc3c7; stroke: #888888; stroke-linejoin: miter"/>
    </g>
    <g id="text_4">
     <!-- Neighbors -->
     <g transform="translate(40.5 487.886458) scale(0.09 -0.09)">
      <defs>
       <path id="DejaVuSans-31" d="M 628 4666 
L 1478 4666 
L 3547 763 
L 3547 4666 
L 4159 4666 
L 4159 0 
L 3309 0 
L 1241 3903 
L 1241 0 
L 628 0 
L 628 4666 
z
" transform="scale(0.015625)"/>
       <path id="DejaVuSans-48" d="M 3597 1894 
L 3597 1613 
L 953 1613 
Q 991 1019 1311 708 
Q 1631 397 2203 397 
Q 2534 397 2845 478 
Q 3156 559 3463 722 
L 3463 178 
Q 3153 47 2828 -22 
Q 2503 -91 2169 -91 
Q 1331 -91 842 396 
Q 353 884 353 1716 
Q 353 2575 817 3079 
Q 1281 3584 2069 3584 
Q 2775 3584 3186 3129 
Q 3597 2675 3597 1894 
z
M 3022 2063 
Q 3016 2534 2758 2815 
Q 2500 3097 2075 3097 
Q 1594 3097 1305 2825 
Q 1016 2553 972 2059 
L 3022 2063 
z
" transform="scale(0.015625)"/>
       <path id="DejaVuSans-4c" d="M 603 3500 
L 1178 3500 
L 1178 0 
L 603 0 
L 603 3500 
z
M 603 4863 
L 1178 4863 
L 1178 4134 
L 603 4134 
L 603 4863 
z
" transform="scale(0.015625)"/>
       <path id="DejaVuSans-4a" d="M 2906 1791 
Q 2906 2416 2648 2759 
Q 2391 3103 1925 3103 
Q 1463 3103 1205 2759 
Q 947 2416 947 1791 
Q 947 1169 1205 825 
Q 1463 481 1925 481 
Q 2391 481 2648 825 
Q 2906 1169 2906 1791 
z
M 3481 434 
Q 3481 -459 3084 -895 
Q 2688 -1331 1869 -1331 
Q 1566 -1331 1297 -1286 
Q 1028 -1241 775 -1147 
L 775 -588 
Q 1028 -725 1275 -790 
Q 1522 -856 1778 -856 
Q 2344 -856 2625 -561 
Q 2906 -266 2906 331 
L 2906 616 
Q 2728 306 2450 153 
Q 2172 0 1784 0 
Q 1141 0 747 490 
Q 353 981 353 1791 
Q 353 2603 747 3093 
Q 1141 3584 1784 3584 
Q 2172 3584 2450 3431 
Q 2728 3278 2906 2969 
L 2906 3500 
L 3481 3500 
L 3481 434 
z
" transform="scale(0.015625)"/>
       <path id="DejaVuSans-4b" d="M 3513 2113 
L 3513 0 
L 2938 0 
L 2938 2094 
Q 2938 2591 2744 2837 
Q 2550 3084 2163 3084 
Q 1697 3084 1428 2787 
Q 1159 2491 1159 1978 
L 1159 0 
L 581 0 
L 581 4863 
L 1159 4863 
L 1159 2956 
Q 1366 3272 1645 3428 
Q 1925 3584 2291 3584 
Q 2894 3584 3203 3211 
Q 3513 2838 3513 2113 
z
" transform="scale(0.015625)"/>
       <path id="DejaVuSans-52" d="M 1959 3097 
Q 1497 3097 1228 2736 
Q 959 2375 959 1747 
Q 959 1119 1226 758 
Q 1494 397 1959 397 
Q 2419 397 2687 759 
Q 2956 1122 2956 1747 
Q 2956 2369 2687 2733 
Q 2419 3097 1959 3097 
z
M 1959 3584 
Q 2709 3584 3137 3096 
Q 3566 2609 3566 1747 
Q 3566 888 3137 398 
Q 2709 -91 1959 -91 
Q 1206 -91 779 398 
Q 353 888 353 1747 
Q 353 2609 779 3096 
Q 1206 3584 1959 3584 
z
" transform="scale(0.015625)"/>
       <path id="DejaVuSans-55" d="M 2631 2963 
Q 2534 3019 2420 3045 
Q 2306 3072 2169 3072 
Q 1681 3072 1420 2755 
Q 1159 2438 1159 1844 
L 1159 0 
L 581 0 
L 581 3500 
L 1159 3500 
L 1159 2956 
Q 1341 3275 1631 3429 
Q 1922 3584 2338 3584 
Q 2397 3584 2469 3576 
Q 2541 3569 2628 3553 
L 2631 2963 
z
" transform="scale(0.015625)"/>
       <path id="DejaVuSans-56" d="M 2834 3397 
L 2834 2853 
Q 2591 2978 2328 3040 
Q 2066 3103 1784 3103 
Q 1356 3103 1142 2972 
Q 928 2841 928 2578 
Q 928 2378 1081 2264 
Q 1234 2150 1697 2047 
L 1894 2003 
Q 2506 1872 2764 1633 
Q 3022 1394 3022 966 
Q 3022 478 2636 193 
Q 2250 -91 1575 -91 
Q 1294 -91 989 -36 
Q 684 19 347 128 
L 347 722 
Q 666 556 975 473 
Q 1284 391 1588 391 
Q 1994 391 2212 530 
Q 2431 669 2431 922 
Q 2431 1156 2273 1281 
Q 2116 1406 1581 1522 
L 1381 1569 
Q 847 1681 609 1914 
Q 372 2147 372 2553 
Q 372 3047 722 3315 
Q 1072 3584 1716 3584 
Q 2034 3584 2315 3537 
Q 2597 3491 2834 3397 
z
" transform="scale(0.015625)"/>
      </defs>
      <use xlink:href="#DejaVuSans-31"/>
      <use xlink:href="#DejaVuSans-48" transform="translate(74.8125 0)"/>
      <use xlink:href="#DejaVuSans-4c" transform="translate(136.34375 0)"/>
      <use xlink:href="#DejaVuSans-4a" transform="translate(164.125 0)"/>
      <use xlink:href="#DejaVuSans-4b" transform="translate(227.609375 0)"/>
      <use xlink:href="#DejaVuSans-45" transform="translate(290.984375 0)"/>
      <use xlink:href="#DejaVuSans-52" transform="translate(354.46875 0)"/>
      <use xlink:href="#DejaVuSans-55" transform="translate(415.65625 0)"/>
      <use xlink:href="#DejaVuSans-56" transform="translate(456.765625 0)"/>
     </g>
    </g>
   </g>
  </g>
 </g>
 <defs>
  <clipPath id="p48d76b2afe">
   <rect x="7.2" y="30.117344" width="856" height="468.031223"/>
  </clipPath>
 </defs>
</svg>
