<?xml version="1.0" encoding="utf-8" standalone="no"?>
<!DOCTYPE svg PUBLIC "-//W3C//DTD SVG 1.1//EN"
  "http://www.w3.org/Graphics/SVG/1.1/DTD/svg11.dtd">
<svg xmlns:xlink="http://www.w3.org/1999/xlink" width="618.641567pt" height="510.357344pt" viewBox="0 0 618.641567 510.357344" xmlns="http://www.w3.org/2000/svg" version="1.1">
 <metadata>
  <rdf:RDF xmlns:dc="http://purl.org/dc/elements/1.1/" xmlns:cc="http://creativecommons.org/ns#" xmlns:rdf="http://www.w3.org/1999/02/22-rdf-syntax-ns#">
   <cc:Work>
    <dc:type rdf:resource="http://purl.org/dc/dcmitype/StillImage"/>
    <dc:date>2026-06-19T08:14:12.228383</dc:date>
    <dc:format>image/svg+xml</dc:format>
    <dc:creator>
     <cc:Agent>
      <dc:title>Matplotlib v3.11.0, https://matplotlib.org/</dc:title>
     </cc:Agent>
    </dc:creator>
   </cc:Work>
  </rdf:RDF>
 </metadata>
 <defs>
  <style type="text/css">*{stroke-linejoin: round; stroke-linecap: butt}</style>
 </defs>
 <g id="figure_1">
  <g id="patch_1">
   <path d="M 0 510.357344 
L 618.641567 510.357344 
L 618.641567 0 
L 0 0 
z
" style="fill: #d6eaf8"/>
  </g>
  <g id="axes_1">
   <g id="PatchCollection_1">
    <path d="M 375.26495 275.672545 
L 376.551665 273.828627 
L 379.125096 273.091059 
L 381.055169 271.247141 
L 382.985242 271.247141 
L 383.6286 272.353492 
L 382.341884 277.14768 
L 381.698527 279.360383 
L 383.6286 278.991599 
L 387.488746 275.672545 
L 391.99225 278.991599 
L 393.922323 277.14768 
L 395.852396 277.516464 
L 397.139112 277.14768 
L 397.78247 274.566194 
L 402.285974 271.247141 
L 404.216047 271.984708 
L 405.502762 273.459843 
L 407.432835 273.091059 
L 410.006266 271.247141 
L 410.649624 270.140789 
L 411.936339 269.034438 
L 410.649624 267.190519 
L 410.649624 263.871466 
L 411.292982 259.814845 
L 413.866412 259.814845 
L 414.50977 261.658763 
L 415.796486 262.027547 
L 416.439843 264.240249 
L 417.083201 264.977817 
L 417.083201 266.084168 
L 418.369917 266.084168 
L 419.656632 268.296871 
L 418.369917 270.140789 
L 417.083201 270.509573 
L 417.083201 270.878357 
L 415.796486 272.722276 
L 412.579697 270.140789 
L 411.292982 271.247141 
L 410.006266 272.722276 
L 408.076193 274.19741 
L 405.502762 274.934978 
L 404.216047 273.459843 
L 402.929331 272.722276 
L 400.3559 273.828627 
L 399.069185 274.934978 
L 397.78247 277.516464 
L 402.285974 279.360383 
L 403.572689 280.835518 
L 402.929331 285.629706 
L 405.502762 287.473625 
L 408.719551 287.842409 
L 408.719551 291.530246 
L 406.789478 291.89903 
L 404.859404 293.742949 
L 406.14612 294.8493 
L 409.362908 294.111733 
L 414.50977 295.218084 
L 413.223055 297.062003 
L 411.292982 298.905921 
L 409.362908 299.643489 
L 406.14612 298.537137 
L 401.642616 293.742949 
L 398.425827 291.89903 
L 394.565681 291.161463 
L 395.209039 291.161463 
L 395.852396 290.792679 
L 396.495754 290.792679 
L 397.139112 290.792679 
L 396.495754 289.686328 
L 395.852396 289.317544 
L 394.565681 289.317544 
L 393.922323 289.317544 
L 393.278966 288.579976 
L 391.99225 288.211193 
L 391.348892 288.211193 
L 390.705535 288.579976 
L 391.99225 288.94876 
L 392.635608 289.317544 
L 392.635608 290.423895 
L 393.922323 290.423895 
L 394.565681 290.423895 
L 394.565681 291.161463 
L 390.705535 290.423895 
L 382.985242 290.792679 
L 380.411811 291.89903 
L 380.411811 288.579976 
L 382.341884 288.94876 
L 382.985242 286.367274 
L 379.768454 285.260923 
L 379.768454 284.154572 
L 381.055169 282.679437 
L 380.411811 281.204302 
L 377.195023 279.360383 
L 376.551665 278.622815 
L 375.908307 277.885248 
z
M 386.845388 284.892139 
L 387.488746 285.260923 
L 387.488746 285.629706 
L 388.132104 285.260923 
L 389.418819 284.892139 
L 389.418819 282.679437 
L 388.132104 282.679437 
L 387.488746 283.04822 
L 387.488746 283.785788 
z
" clip-path="url(#p4963b2fc3b)" style="fill: #bdc3c7; stroke: #ffffff; stroke-width: 0.5"/>
    <path d="M 124.998798 270.140789 
L 125.642156 266.084168 
L 127.572229 264.609033 
L 131.432375 267.190519 
L 136.579237 273.091059 
L 139.152668 275.303762 
L 143.012814 276.778897 
L 150.089749 276.410113 
L 156.523326 273.091059 
L 162.313545 267.928087 
L 166.173692 262.027547 
L 168.747123 255.38944 
L 170.677196 251.701602 
L 173.250627 249.4889 
L 173.893984 248.382548 
L 174.537342 247.644981 
L 175.1807 246.907414 
L 176.467415 247.276197 
L 177.754131 248.382548 
L 179.040846 248.751332 
L 180.970919 248.382548 
L 182.257635 250.595251 
L 184.831065 252.43917 
L 187.404496 252.807953 
L 189.334569 252.43917 
L 191.908 250.595251 
L 193.194716 248.013765 
L 194.481431 245.063495 
L 199.628293 245.801062 
L 200.915008 251.701602 
L 202.201724 254.651872 
L 203.488439 256.864575 
L 206.705228 258.33971 
L 211.208732 259.814845 
L 215.068878 261.658763 
L 218.285667 263.502682 
L 220.21574 265.346601 
L 220.859098 268.296871 
L 220.859098 270.509573 
L 222.145813 272.353492 
L 224.075886 273.091059 
L 225.362602 273.091059 
L 229.866106 271.615924 
L 232.439536 270.140789 
L 233.082894 269.034438 
L 234.36961 266.821736 
L 235.656325 266.084168 
L 236.943041 266.821736 
L 238.229756 268.296871 
L 240.803187 270.140789 
L 243.376618 270.140789 
L 245.950049 268.665654 
L 249.166837 265.346601 
L 252.383626 262.027547 
L 255.600414 260.552412 
L 259.460561 257.970926 
L 261.390634 256.127007 
L 263.320707 255.758223 
L 267.824211 256.495791 
L 272.327715 257.233358 
L 276.831219 257.233358 
L 279.40465 256.127007 
L 280.691365 255.38944 
L 281.978081 253.545521 
L 285.838227 250.226467 
L 289.055016 250.226467 
L 290.985089 251.332818 
L 293.55852 252.43917 
L 296.13195 252.43917 
L 297.418666 253.176737 
L 299.992097 256.127007 
L 301.92217 258.33971 
L 304.495601 260.183628 
L 308.999105 261.289979 
L 310.28582 260.552412 
L 310.929178 259.446061 
L 311.572536 257.602142 
L 313.502609 256.127007 
L 317.362755 252.070386 
L 318.64947 251.701602 
L 321.866259 252.070386 
L 326.369763 251.332818 
L 329.586552 250.964035 
L 330.229909 251.701602 
L 330.229909 254.283088 
L 330.873267 257.602142 
L 332.159983 259.077277 
L 334.090056 261.289979 
L 336.663487 263.871466 
L 337.306844 265.346601 
L 337.306844 269.034438 
L 337.306844 272.722276 
L 337.306844 276.778897 
L 336.020129 281.941869 
L 334.733413 285.629706 
L 335.376771 288.579976 
L 337.306844 290.792679 
L 339.236917 290.792679 
L 341.810348 290.055111 
L 343.097064 286.367274 
L 343.740421 280.09795 
L 345.027137 279.360383 
L 346.313852 277.885248 
L 347.600568 276.410113 
L 349.530641 277.885248 
L 349.530641 283.04822 
L 350.173999 285.99849 
L 352.747429 287.104841 
L 355.964218 285.629706 
L 357.250933 282.679437 
L 358.537649 281.573085 
L 360.467722 281.941869 
L 363.041153 283.417004 
L 364.327868 283.04822 
L 365.614584 282.310653 
L 367.544657 283.04822 
L 369.47473 283.785788 
L 373.334876 285.99849 
L 375.26495 286.367274 
L 377.195023 286.367274 
L 380.411811 288.579976 
L 380.411811 291.89903 
L 376.551665 293.374165 
L 372.048161 298.168354 
L 370.761445 300.74984 
L 369.47473 304.437677 
L 368.188015 308.125515 
L 368.188015 312.182136 
L 368.188015 316.238757 
L 368.188015 318.082676 
L 366.257941 318.820243 
L 364.971226 319.557811 
L 364.327868 323.614432 
L 363.041153 324.720783 
L 360.467722 325.827134 
L 354.677503 325.827134 
L 352.104072 326.195918 
L 350.817356 328.039837 
L 348.887283 330.621323 
L 346.95721 332.834026 
L 344.383779 333.940377 
L 338.59356 335.046728 
L 333.446698 337.628214 
L 328.943194 338.734565 
L 326.369763 335.415512 
L 326.369763 341.684835 
L 321.222901 344.635105 
L 307.712389 347.585375 
L 305.138958 348.691727 
L 303.852243 349.798078 
L 301.278812 351.273213 
L 298.705381 352.01078 
L 285.838227 350.166861 
L 272.971073 352.01078 
L 270.397642 352.748348 
L 267.824211 354.223483 
L 259.460561 361.967941 
L 257.530487 365.655779 
L 253.670341 365.655779 
L 249.810195 366.393346 
L 248.523479 367.868481 
L 247.236764 367.130914 
L 246.593406 363.81186 
L 249.166837 361.967941 
L 249.810195 363.074292 
L 253.026983 363.074292 
L 253.026983 357.173753 
L 246.593406 356.436185 
L 244.663333 358.648888 
L 243.376618 360.86159 
L 242.73326 359.755239 
L 240.159829 358.648888 
L 239.516471 360.124023 
L 234.36961 358.648888 
L 231.152821 356.067401 
L 229.866106 354.223483 
L 229.866106 351.273213 
L 228.57939 351.641996 
L 227.292675 351.641996 
L 226.649317 351.641996 
L 225.362602 351.641996 
L 224.719244 351.273213 
L 224.075886 352.379564 
L 223.432528 353.485915 
L 222.789171 354.223483 
L 220.21574 354.592266 
L 218.929024 357.91132 
L 215.712236 357.173753 
L 213.138805 356.804969 
L 211.85209 358.280104 
L 212.495447 361.599157 
L 209.922016 362.336725 
L 202.845082 363.443076 
L 195.124789 361.967941 
L 188.047854 358.648888 
L 179.040846 353.117131 
L 175.824057 351.641996 
L 171.963911 350.535645 
L 164.243619 349.798078 
L 161.02683 348.691727 
L 158.453399 346.847808 
L 151.376464 340.947268 
L 150.089749 339.840917 
L 148.803033 333.571593 
L 148.159676 332.465242 
L 148.159676 330.252539 
L 144.299529 318.820243 
L 142.369456 317.345108 
L 138.50931 314.763622 
L 136.579237 312.919703 
L 135.292521 310.707001 
L 134.005806 308.125515 
L 134.005806 305.175245 
L 135.292521 302.593759 
L 132.075733 296.693219 
L 131.432375 294.480516 
L 131.432375 289.686328 
L 130.789017 285.629706 
L 126.928871 278.991599 
L 125.642156 275.672545 
z
" clip-path="url(#p4963b2fc3b)" style="fill: #bdc3c7; stroke: #ffffff; stroke-width: 0.5"/>
    <path d="M 397.78247 277.516464 
L 399.069185 274.934978 
L 400.3559 273.828627 
L 402.929331 272.722276 
L 404.216047 273.459843 
L 405.502762 274.934978 
L 408.076193 274.19741 
L 410.006266 272.722276 
L 411.292982 271.247141 
L 412.579697 270.140789 
L 415.796486 272.722276 
L 417.726559 273.459843 
L 419.656632 274.19741 
L 421.586705 274.934978 
L 424.160136 274.934978 
L 426.733567 273.459843 
L 429.950355 273.459843 
L 431.880429 274.566194 
L 433.810502 275.672545 
L 435.740575 275.303762 
L 437.02729 274.566194 
L 437.670648 273.459843 
L 440.244079 275.672545 
L 442.81751 278.622815 
L 444.747583 284.523355 
L 446.677656 288.579976 
L 449.251087 291.89903 
L 451.18116 293.374165 
L 449.251087 293.742949 
L 444.104225 293.374165 
L 439.600721 291.89903 
L 437.670648 289.686328 
L 435.740575 288.579976 
L 426.090209 290.055111 
L 417.726559 292.267814 
L 415.796486 293.374165 
L 414.50977 295.218084 
L 409.362908 294.111733 
L 406.14612 294.8493 
L 404.859404 293.742949 
L 406.789478 291.89903 
L 408.719551 291.530246 
L 408.719551 287.842409 
L 405.502762 287.473625 
L 402.929331 285.629706 
L 403.572689 280.835518 
L 402.285974 279.360383 
z
" clip-path="url(#p4963b2fc3b)" style="fill: #bdc3c7; stroke: #ffffff; stroke-width: 0.5"/>
    <path d="M 390.705535 288.579976 
L 391.348892 288.211193 
L 391.99225 288.211193 
L 393.278966 288.579976 
L 393.922323 289.317544 
L 394.565681 289.317544 
L 395.852396 289.317544 
L 396.495754 289.686328 
L 397.139112 290.792679 
L 396.495754 290.792679 
L 395.852396 290.792679 
L 395.209039 291.161463 
L 394.565681 291.161463 
L 394.565681 290.423895 
L 393.922323 290.423895 
L 392.635608 290.423895 
L 392.635608 289.317544 
L 391.99225 288.94876 
z
" clip-path="url(#p4963b2fc3b)" style="fill: #bdc3c7; stroke: #ffffff; stroke-width: 0.5"/>
    <path d="M 386.845388 284.892139 
L 387.488746 283.785788 
L 387.488746 283.04822 
L 388.132104 282.679437 
L 389.418819 282.679437 
L 389.418819 284.892139 
L 388.132104 285.260923 
L 387.488746 285.629706 
L 387.488746 285.260923 
z
" clip-path="url(#p4963b2fc3b)" style="fill: #bdc3c7; stroke: #ffffff; stroke-width: 0.5"/>
    <path d="M 203.488439 250.226467 
L 203.488439 247.644981 
L 203.488439 246.169846 
L 209.278659 246.907414 
L 215.068878 248.751332 
L 219.572382 251.701602 
L 224.075886 253.545521 
L 231.152821 251.701602 
L 235.656325 247.644981 
L 239.516471 242.113225 
L 242.089902 235.106334 
L 243.376618 226.993091 
L 243.376618 212.241742 
L 242.73326 205.972418 
L 240.803187 198.965527 
L 245.306691 199.703094 
L 252.383626 204.128499 
L 256.243772 205.234851 
L 267.180853 207.447553 
L 280.048007 206.709986 
L 301.92217 209.660256 
L 305.138958 211.13539 
L 331.516625 214.08566 
L 372.691519 207.447553 
L 387.488746 198.965527 
L 395.209039 194.908906 
L 404.216047 196.384041 
L 413.866412 193.433771 
L 440.244079 183.107826 
L 447.321014 177.944854 
L 456.971379 174.257016 
L 465.978388 165.037423 
L 471.125249 163.931071 
L 481.418973 160.980801 
L 491.069338 158.030532 
L 498.146273 153.236343 
L 530.957517 137.747426 
L 537.391094 135.165939 
L 539.321167 134.797156 
L 538.677809 135.534723 
L 538.034452 136.272291 
L 537.391094 137.009858 
L 537.391094 137.747426 
L 536.747736 144.016749 
L 536.104379 145.491884 
L 534.817663 145.860668 
L 530.314159 146.598235 
L 529.670801 147.335803 
L 512.300143 158.399315 
L 496.859558 172.044314 
L 458.258095 195.27769 
L 453.111233 199.703094 
L 449.251087 205.234851 
L 446.034298 212.241742 
L 444.104225 215.192012 
L 441.530794 217.03593 
L 437.02729 217.404714 
L 432.523786 216.298363 
L 428.66364 215.929579 
L 424.803494 217.773498 
L 420.29999 225.149173 
L 417.726559 229.205794 
L 417.083201 232.893631 
L 415.796486 249.857683 
L 418.369917 251.701602 
L 425.446851 259.077277 
L 426.733567 261.289979 
L 428.020282 264.240249 
L 429.950355 266.821736 
L 435.740575 271.984708 
L 435.097217 272.722276 
L 427.376925 270.878357 
L 422.873421 272.722276 
L 420.29999 272.353492 
L 418.369917 271.615924 
L 417.083201 270.878357 
L 417.083201 270.509573 
L 418.369917 270.140789 
L 419.656632 268.296871 
L 418.369917 266.084168 
L 417.083201 266.084168 
L 417.083201 264.977817 
L 416.439843 264.240249 
L 415.796486 262.027547 
L 414.50977 261.658763 
L 413.866412 259.814845 
L 411.292982 259.814845 
L 410.649624 263.871466 
L 410.649624 267.190519 
L 411.936339 269.034438 
L 410.649624 270.140789 
L 410.006266 271.247141 
L 407.432835 273.091059 
L 405.502762 273.459843 
L 404.216047 271.984708 
L 402.285974 271.247141 
L 397.78247 274.566194 
L 397.139112 277.14768 
L 395.852396 277.516464 
L 393.922323 277.14768 
L 391.99225 278.991599 
L 387.488746 275.672545 
L 383.6286 278.991599 
L 381.698527 279.360383 
L 382.341884 277.14768 
L 383.6286 272.353492 
L 382.985242 271.247141 
L 381.055169 271.247141 
L 379.125096 273.091059 
L 376.551665 273.828627 
L 375.26495 275.672545 
L 375.908307 277.885248 
L 376.551665 278.622815 
L 374.621592 279.360383 
L 372.048161 278.991599 
L 371.404803 279.360383 
L 368.831372 279.360383 
L 364.971226 275.672545 
L 362.397795 276.778897 
L 360.467722 278.622815 
L 358.537649 278.254032 
L 355.964218 276.410113 
L 355.32086 273.091059 
L 354.034145 271.247141 
L 352.747429 270.140789 
L 351.460714 270.140789 
L 350.817356 271.247141 
L 350.817356 273.459843 
L 349.530641 273.828627 
L 347.600568 272.722276 
L 345.670495 272.722276 
L 344.383779 272.722276 
L 343.097064 273.459843 
L 341.810348 277.516464 
L 341.166991 278.991599 
L 340.523633 281.941869 
L 340.523633 284.154572 
L 340.523633 285.260923 
L 338.59356 284.892139 
L 337.950202 282.679437 
L 339.236917 277.516464 
L 340.523633 273.459843 
L 340.523633 269.034438 
L 340.523633 265.346601 
L 339.236917 263.133898 
L 335.376771 257.233358 
L 333.446698 253.545521 
L 331.516625 249.120116 
L 330.873267 246.169846 
L 330.229909 243.58836 
L 328.943194 242.482009 
L 326.369763 242.850792 
L 324.43969 244.694711 
L 323.152974 246.907414 
L 321.866259 248.013765 
L 316.719397 249.4889 
L 313.502609 249.4889 
L 311.572536 250.595251 
L 308.355747 250.226467 
L 303.208885 249.120116 
L 298.062024 248.382548 
L 294.845235 246.907414 
L 289.055016 244.325927 
L 283.264796 245.432279 
L 280.691365 246.53863 
L 276.187861 250.964035 
L 274.257788 251.332818 
L 272.327715 248.751332 
L 269.110926 249.857683 
L 265.25078 252.070386 
L 260.747276 253.176737 
L 257.530487 255.020656 
L 253.026983 257.233358 
L 249.810195 261.289979 
L 245.306691 263.502682 
L 243.376618 263.871466 
L 241.446545 264.240249 
L 239.516471 263.871466 
L 235.012967 263.502682 
L 233.082894 263.871466 
L 231.796179 264.609033 
L 229.866106 266.821736 
L 229.222748 268.665654 
L 226.005959 268.296871 
L 224.719244 263.871466 
L 221.502455 260.552412 
L 218.285667 258.33971 
L 211.85209 256.864575 
L 209.278659 255.758223 
L 206.705228 254.651872 
L 204.775155 252.43917 
z
" clip-path="url(#p4963b2fc3b)" style="fill: #bdc3c7; stroke: #ffffff; stroke-width: 0.5"/>
    <path d="M 183.54435 246.907414 
L 186.761139 245.432279 
L 190.621285 245.063495 
L 190.621285 245.801062 
L 189.977927 248.013765 
L 188.047854 249.857683 
L 186.117781 250.226467 
L 184.187708 248.013765 
z
" clip-path="url(#p4963b2fc3b)" style="fill: #bdc3c7; stroke: #ffffff; stroke-width: 0.5"/>
   </g>
   <g id="PatchCollection_2">
    <path d="M 199.628293 245.801062 
L 203.488439 246.169846 
L 203.488439 247.644981 
L 203.488439 250.226467 
L 204.775155 252.43917 
L 206.705228 254.651872 
L 209.278659 255.758223 
L 211.85209 256.864575 
L 218.285667 258.33971 
L 221.502455 260.552412 
L 224.719244 263.871466 
L 226.005959 268.296871 
L 229.222748 268.665654 
L 229.866106 266.821736 
L 231.796179 264.609033 
L 233.082894 263.871466 
L 235.012967 263.502682 
L 239.516471 263.871466 
L 241.446545 264.240249 
L 243.376618 263.871466 
L 245.306691 263.502682 
L 249.810195 261.289979 
L 253.026983 257.233358 
L 257.530487 255.020656 
L 260.747276 253.176737 
L 265.25078 252.070386 
L 269.110926 249.857683 
L 272.327715 248.751332 
L 274.257788 251.332818 
L 276.187861 250.964035 
L 280.691365 246.53863 
L 283.264796 245.432279 
L 289.055016 244.325927 
L 294.845235 246.907414 
L 298.062024 248.382548 
L 303.208885 249.120116 
L 308.355747 250.226467 
L 311.572536 250.595251 
L 313.502609 249.4889 
L 316.719397 249.4889 
L 321.866259 248.013765 
L 323.152974 246.907414 
L 324.43969 244.694711 
L 326.369763 242.850792 
L 328.943194 242.482009 
L 330.229909 243.58836 
L 330.873267 246.169846 
L 331.516625 249.120116 
L 333.446698 253.545521 
L 335.376771 257.233358 
L 339.236917 263.133898 
L 340.523633 265.346601 
L 340.523633 269.034438 
L 340.523633 273.459843 
L 339.236917 277.516464 
L 337.950202 282.679437 
L 338.59356 284.892139 
L 340.523633 285.260923 
L 340.523633 284.154572 
L 340.523633 281.941869 
L 341.166991 278.991599 
L 341.810348 277.516464 
L 343.097064 273.459843 
L 344.383779 272.722276 
L 345.670495 272.722276 
L 347.600568 272.722276 
L 349.530641 273.828627 
L 350.817356 273.459843 
L 350.817356 271.247141 
L 351.460714 270.140789 
L 352.747429 270.140789 
L 354.034145 271.247141 
L 355.32086 273.091059 
L 355.964218 276.410113 
L 358.537649 278.254032 
L 360.467722 278.622815 
L 362.397795 276.778897 
L 364.971226 275.672545 
L 368.831372 279.360383 
L 371.404803 279.360383 
L 372.048161 278.991599 
L 374.621592 279.360383 
L 376.551665 278.622815 
L 377.195023 279.360383 
L 380.411811 281.204302 
L 381.055169 282.679437 
L 379.768454 284.154572 
L 379.768454 285.260923 
L 382.985242 286.367274 
L 382.341884 288.94876 
L 380.411811 288.579976 
L 377.195023 286.367274 
L 375.26495 286.367274 
L 373.334876 285.99849 
L 369.47473 283.785788 
L 367.544657 283.04822 
L 365.614584 282.310653 
L 364.327868 283.04822 
L 363.041153 283.417004 
L 360.467722 281.941869 
L 358.537649 281.573085 
L 357.250933 282.679437 
L 355.964218 285.629706 
L 352.747429 287.104841 
L 350.173999 285.99849 
L 349.530641 283.04822 
L 349.530641 277.885248 
L 347.600568 276.410113 
L 346.313852 277.885248 
L 345.027137 279.360383 
L 343.740421 280.09795 
L 343.097064 286.367274 
L 341.810348 290.055111 
L 339.236917 290.792679 
L 337.306844 290.792679 
L 335.376771 288.579976 
L 334.733413 285.629706 
L 336.020129 281.941869 
L 337.306844 276.778897 
L 337.306844 272.722276 
L 337.306844 269.034438 
L 337.306844 265.346601 
L 336.663487 263.871466 
L 334.090056 261.289979 
L 332.159983 259.077277 
L 330.873267 257.602142 
L 330.229909 254.283088 
L 330.229909 251.701602 
L 329.586552 250.964035 
L 326.369763 251.332818 
L 321.866259 252.070386 
L 318.64947 251.701602 
L 317.362755 252.070386 
L 313.502609 256.127007 
L 311.572536 257.602142 
L 310.929178 259.446061 
L 310.28582 260.552412 
L 308.999105 261.289979 
L 304.495601 260.183628 
L 301.92217 258.33971 
L 299.992097 256.127007 
L 297.418666 253.176737 
L 296.13195 252.43917 
L 293.55852 252.43917 
L 290.985089 251.332818 
L 289.055016 250.226467 
L 285.838227 250.226467 
L 281.978081 253.545521 
L 280.691365 255.38944 
L 279.40465 256.127007 
L 276.831219 257.233358 
L 272.327715 257.233358 
L 267.824211 256.495791 
L 263.320707 255.758223 
L 261.390634 256.127007 
L 259.460561 257.970926 
L 255.600414 260.552412 
L 252.383626 262.027547 
L 249.166837 265.346601 
L 245.950049 268.665654 
L 243.376618 270.140789 
L 240.803187 270.140789 
L 238.229756 268.296871 
L 236.943041 266.821736 
L 235.656325 266.084168 
L 234.36961 266.821736 
L 233.082894 269.034438 
L 232.439536 270.140789 
L 229.866106 271.615924 
L 225.362602 273.091059 
L 224.075886 273.091059 
L 222.145813 272.353492 
L 220.859098 270.509573 
L 220.859098 268.296871 
L 220.21574 265.346601 
L 218.285667 263.502682 
L 215.068878 261.658763 
L 211.208732 259.814845 
L 206.705228 258.33971 
L 203.488439 256.864575 
L 202.201724 254.651872 
L 200.915008 251.701602 
z
" clip-path="url(#p4963b2fc3b)" style="fill: #e74c3c; stroke: #ffffff; stroke-width: 0.6"/>
    <path d="M 415.796486 272.722276 
L 417.083201 270.878357 
L 418.369917 271.615924 
L 420.29999 272.353492 
L 422.873421 272.722276 
L 427.376925 270.878357 
L 435.097217 272.722276 
L 435.740575 271.984708 
L 437.670648 273.459843 
L 437.02729 274.566194 
L 435.740575 275.303762 
L 433.810502 275.672545 
L 431.880429 274.566194 
L 429.950355 273.459843 
L 426.733567 273.459843 
L 424.160136 274.934978 
L 421.586705 274.934978 
L 419.656632 274.19741 
L 417.726559 273.459843 
z
" clip-path="url(#p4963b2fc3b)" style="fill: #e74c3c; stroke: #ffffff; stroke-width: 0.6"/>
    <path d="M 180.970919 248.382548 
L 183.54435 246.907414 
L 184.187708 248.013765 
L 186.117781 250.226467 
L 188.047854 249.857683 
L 189.977927 248.013765 
L 190.621285 245.801062 
L 190.621285 245.063495 
L 192.551358 244.694711 
L 194.481431 245.063495 
L 193.194716 248.013765 
L 191.908 250.595251 
L 189.334569 252.43917 
L 187.404496 252.807953 
L 184.831065 252.43917 
L 182.257635 250.595251 
z
" clip-path="url(#p4963b2fc3b)" style="fill: #e74c3c; stroke: #ffffff; stroke-width: 0.6"/>
   </g>
   <g id="text_1">
    <g id="patch_2">
     <path d="M 373.565378 284.998224 
L 407.845691 284.998224 
Q 409.245691 284.998224 409.245691 283.598224 
L 409.245691 276.597677 
Q 409.245691 275.197677 407.845691 275.197677 
L 373.565378 275.197677 
Q 372.165378 275.197677 372.165378 276.597677 
L 372.165378 283.598224 
Q 372.165378 284.998224 373.565378 284.998224 
z
" clip-path="url(#p4963b2fc3b)" style="fill: #ffffff; opacity: 0.6"/>
    </g>
    <g clip-path="url(#p4963b2fc3b)">
     <!-- Dhekelia -->
     <g style="fill: #1a252f" transform="translate(373.565378 281.916583) scale(0.07 -0.07)">
      <defs>
       <path id="DejaVuSans-Bold-27" d="M 1791 3756 
L 1791 909 
L 2222 909 
Q 2959 909 3348 1275 
Q 3738 1641 3738 2338 
Q 3738 3031 3350 3393 
Q 2963 3756 2222 3756 
L 1791 3756 
z
M 588 4666 
L 1856 4666 
Q 2919 4666 3439 4514 
Q 3959 4363 4331 4000 
Q 4659 3684 4818 3271 
Q 4978 2859 4978 2338 
Q 4978 1809 4818 1395 
Q 4659 981 4331 666 
Q 3956 303 3431 151 
Q 2906 0 1856 0 
L 588 0 
L 588 4666 
z
" transform="scale(0.015625)"/>
       <path id="DejaVuSans-Bold-4b" d="M 4056 2131 
L 4056 0 
L 2931 0 
L 2931 347 
L 2931 1625 
Q 2931 2084 2911 2256 
Q 2891 2428 2841 2509 
Q 2775 2619 2662 2680 
Q 2550 2741 2406 2741 
Q 2056 2741 1856 2470 
Q 1656 2200 1656 1722 
L 1656 0 
L 538 0 
L 538 4863 
L 1656 4863 
L 1656 2988 
Q 1909 3294 2193 3439 
Q 2478 3584 2822 3584 
Q 3428 3584 3742 3212 
Q 4056 2841 4056 2131 
z
" transform="scale(0.015625)"/>
       <path id="DejaVuSans-Bold-48" d="M 4031 1759 
L 4031 1441 
L 1416 1441 
Q 1456 1047 1700 850 
Q 1944 653 2381 653 
Q 2734 653 3104 758 
Q 3475 863 3866 1075 
L 3866 213 
Q 3469 63 3072 -14 
Q 2675 -91 2278 -91 
Q 1328 -91 801 392 
Q 275 875 275 1747 
Q 275 2603 792 3093 
Q 1309 3584 2216 3584 
Q 3041 3584 3536 3087 
Q 4031 2591 4031 1759 
z
M 2881 2131 
Q 2881 2450 2695 2645 
Q 2509 2841 2209 2841 
Q 1884 2841 1681 2658 
Q 1478 2475 1428 2131 
L 2881 2131 
z
" transform="scale(0.015625)"/>
       <path id="DejaVuSans-Bold-4e" d="M 538 4863 
L 1656 4863 
L 1656 2216 
L 2944 3500 
L 4244 3500 
L 2534 1894 
L 4378 0 
L 3022 0 
L 1656 1459 
L 1656 0 
L 538 0 
L 538 4863 
z
" transform="scale(0.015625)"/>
       <path id="DejaVuSans-Bold-4f" d="M 538 4863 
L 1656 4863 
L 1656 0 
L 538 0 
L 538 4863 
z
" transform="scale(0.015625)"/>
       <path id="DejaVuSans-Bold-4c" d="M 538 3500 
L 1656 3500 
L 1656 0 
L 538 0 
L 538 3500 
z
M 538 4863 
L 1656 4863 
L 1656 3950 
L 538 3950 
L 538 4863 
z
" transform="scale(0.015625)"/>
       <path id="DejaVuSans-Bold-44" d="M 2106 1575 
Q 1756 1575 1579 1456 
Q 1403 1338 1403 1106 
Q 1403 894 1545 773 
Q 1688 653 1941 653 
Q 2256 653 2472 879 
Q 2688 1106 2688 1447 
L 2688 1575 
L 2106 1575 
z
M 3816 1997 
L 3816 0 
L 2688 0 
L 2688 519 
Q 2463 200 2181 54 
Q 1900 -91 1497 -91 
Q 953 -91 614 226 
Q 275 544 275 1050 
Q 275 1666 698 1953 
Q 1122 2241 2028 2241 
L 2688 2241 
L 2688 2328 
Q 2688 2594 2478 2717 
Q 2269 2841 1825 2841 
Q 1466 2841 1156 2769 
Q 847 2697 581 2553 
L 581 3406 
Q 941 3494 1303 3539 
Q 1666 3584 2028 3584 
Q 2975 3584 3395 3211 
Q 3816 2838 3816 1997 
z
" transform="scale(0.015625)"/>
      </defs>
      <use xlink:href="#DejaVuSans-Bold-27"/>
      <use xlink:href="#DejaVuSans-Bold-4b" transform="translate(83.015625 0)"/>
      <use xlink:href="#DejaVuSans-Bold-48" transform="translate(154.203125 0)"/>
      <use xlink:href="#DejaVuSans-Bold-4e" transform="translate(222.03125 0)"/>
      <use xlink:href="#DejaVuSans-Bold-48" transform="translate(285.84375 0)"/>
      <use xlink:href="#DejaVuSans-Bold-4f" transform="translate(353.671875 0)"/>
      <use xlink:href="#DejaVuSans-Bold-4c" transform="translate(387.953125 0)"/>
      <use xlink:href="#DejaVuSans-Bold-44" transform="translate(422.234375 0)"/>
     </g>
    </g>
   </g>
   <g id="text_2">
    <g id="patch_3">
     <path d="M 237.698238 311.55038 
L 265.010269 311.55038 
Q 266.410269 311.55038 266.410269 310.15038 
L 266.410269 303.15038 
Q 266.410269 301.75038 265.010269 301.75038 
L 237.698238 301.75038 
Q 236.298238 301.75038 236.298238 303.15038 
L 236.298238 310.15038 
Q 236.298238 311.55038 237.698238 311.55038 
z
" clip-path="url(#p4963b2fc3b)" style="fill: #ffffff; opacity: 0.6"/>
    </g>
    <g clip-path="url(#p4963b2fc3b)">
     <!-- Cyprus -->
     <g style="fill: #1a252f" transform="translate(237.698238 308.468739) scale(0.07 -0.07)">
      <defs>
       <path id="DejaVuSans-Bold-26" d="M 4288 256 
Q 3956 84 3597 -3 
Q 3238 -91 2847 -91 
Q 1681 -91 1000 561 
Q 319 1213 319 2328 
Q 319 3447 1000 4098 
Q 1681 4750 2847 4750 
Q 3238 4750 3597 4662 
Q 3956 4575 4288 4403 
L 4288 3438 
Q 3953 3666 3628 3772 
Q 3303 3878 2944 3878 
Q 2300 3878 1931 3465 
Q 1563 3053 1563 2328 
Q 1563 1606 1931 1193 
Q 2300 781 2944 781 
Q 3303 781 3628 887 
Q 3953 994 4288 1222 
L 4288 256 
z
" transform="scale(0.015625)"/>
       <path id="DejaVuSans-Bold-5c" d="M 78 3500 
L 1197 3500 
L 2138 1125 
L 2938 3500 
L 4056 3500 
L 2584 -331 
Q 2363 -916 2067 -1148 
Q 1772 -1381 1288 -1381 
L 641 -1381 
L 641 -647 
L 991 -647 
Q 1275 -647 1404 -556 
Q 1534 -466 1606 -231 
L 1638 -134 
L 78 3500 
z
" transform="scale(0.015625)"/>
       <path id="DejaVuSans-Bold-53" d="M 1656 506 
L 1656 -1331 
L 538 -1331 
L 538 3500 
L 1656 3500 
L 1656 2988 
Q 1888 3294 2169 3439 
Q 2450 3584 2816 3584 
Q 3463 3584 3878 3070 
Q 4294 2556 4294 1747 
Q 4294 938 3878 423 
Q 3463 -91 2816 -91 
Q 2450 -91 2169 54 
Q 1888 200 1656 506 
z
M 2400 2772 
Q 2041 2772 1848 2508 
Q 1656 2244 1656 1747 
Q 1656 1250 1848 986 
Q 2041 722 2400 722 
Q 2759 722 2948 984 
Q 3138 1247 3138 1747 
Q 3138 2247 2948 2509 
Q 2759 2772 2400 2772 
z
" transform="scale(0.015625)"/>
       <path id="DejaVuSans-Bold-55" d="M 3138 2547 
Q 2991 2616 2845 2648 
Q 2700 2681 2553 2681 
Q 2122 2681 1889 2404 
Q 1656 2128 1656 1613 
L 1656 0 
L 538 0 
L 538 3500 
L 1656 3500 
L 1656 2925 
Q 1872 3269 2151 3426 
Q 2431 3584 2822 3584 
Q 2878 3584 2943 3579 
Q 3009 3575 3134 3559 
L 3138 2547 
z
" transform="scale(0.015625)"/>
       <path id="DejaVuSans-Bold-58" d="M 500 1363 
L 500 3500 
L 1625 3500 
L 1625 3150 
Q 1625 2866 1622 2436 
Q 1619 2006 1619 1863 
Q 1619 1441 1641 1255 
Q 1663 1069 1716 984 
Q 1784 875 1895 815 
Q 2006 756 2150 756 
Q 2500 756 2700 1025 
Q 2900 1294 2900 1772 
L 2900 3500 
L 4019 3500 
L 4019 0 
L 2900 0 
L 2900 506 
Q 2647 200 2364 54 
Q 2081 -91 1741 -91 
Q 1134 -91 817 281 
Q 500 653 500 1363 
z
" transform="scale(0.015625)"/>
       <path id="DejaVuSans-Bold-56" d="M 3272 3391 
L 3272 2541 
Q 2913 2691 2578 2766 
Q 2244 2841 1947 2841 
Q 1628 2841 1473 2761 
Q 1319 2681 1319 2516 
Q 1319 2381 1436 2309 
Q 1553 2238 1856 2203 
L 2053 2175 
Q 2913 2066 3209 1816 
Q 3506 1566 3506 1031 
Q 3506 472 3093 190 
Q 2681 -91 1863 -91 
Q 1516 -91 1145 -36 
Q 775 19 384 128 
L 384 978 
Q 719 816 1070 734 
Q 1422 653 1784 653 
Q 2113 653 2278 743 
Q 2444 834 2444 1013 
Q 2444 1163 2330 1236 
Q 2216 1309 1875 1350 
L 1678 1375 
Q 931 1469 631 1722 
Q 331 1975 331 2491 
Q 331 3047 712 3315 
Q 1094 3584 1881 3584 
Q 2191 3584 2531 3537 
Q 2872 3491 3272 3391 
z
" transform="scale(0.015625)"/>
      </defs>
      <use xlink:href="#DejaVuSans-Bold-26"/>
      <use xlink:href="#DejaVuSans-Bold-5c" transform="translate(73.390625 0)"/>
      <use xlink:href="#DejaVuSans-Bold-53" transform="translate(138.578125 0)"/>
      <use xlink:href="#DejaVuSans-Bold-55" transform="translate(210.15625 0)"/>
      <use xlink:href="#DejaVuSans-Bold-58" transform="translate(259.46875 0)"/>
      <use xlink:href="#DejaVuSans-Bold-56" transform="translate(330.65625 0)"/>
     </g>
    </g>
   </g>
   <g id="text_3">
    <g id="patch_4">
     <path d="M 381.503225 215.297823 
L 419.769162 215.297823 
Q 421.169162 215.297823 421.169162 213.897823 
L 421.169162 206.897823 
Q 421.169162 205.497823 419.769162 205.497823 
L 381.503225 205.497823 
Q 380.103225 205.497823 380.103225 206.897823 
L 380.103225 213.897823 
Q 380.103225 215.297823 381.503225 215.297823 
z
" clip-path="url(#p4963b2fc3b)" style="fill: #ffffff; opacity: 0.6"/>
    </g>
    <g clip-path="url(#p4963b2fc3b)">
     <!-- N. Cyprus -->
     <g style="fill: #1a252f" transform="translate(381.503225 212.216182) scale(0.07 -0.07)">
      <defs>
       <path id="DejaVuSans-Bold-31" d="M 588 4666 
L 1931 4666 
L 3628 1466 
L 3628 4666 
L 4769 4666 
L 4769 0 
L 3425 0 
L 1728 3200 
L 1728 0 
L 588 0 
L 588 4666 
z
" transform="scale(0.015625)"/>
       <path id="DejaVuSans-Bold-11" d="M 653 1209 
L 1778 1209 
L 1778 0 
L 653 0 
L 653 1209 
z
" transform="scale(0.015625)"/>
       <path id="DejaVuSans-Bold-3" transform="scale(0.015625)"/>
      </defs>
      <use xlink:href="#DejaVuSans-Bold-31"/>
      <use xlink:href="#DejaVuSans-Bold-11" transform="translate(83.6875 0)"/>
      <use xlink:href="#DejaVuSans-Bold-3" transform="translate(121.671875 0)"/>
      <use xlink:href="#DejaVuSans-Bold-26" transform="translate(156.484375 0)"/>
      <use xlink:href="#DejaVuSans-Bold-5c" transform="translate(229.875 0)"/>
      <use xlink:href="#DejaVuSans-Bold-53" transform="translate(295.0625 0)"/>
      <use xlink:href="#DejaVuSans-Bold-55" transform="translate(366.640625 0)"/>
      <use xlink:href="#DejaVuSans-Bold-58" transform="translate(415.953125 0)"/>
      <use xlink:href="#DejaVuSans-Bold-56" transform="translate(487.140625 0)"/>
     </g>
    </g>
   </g>
   <g id="text_4">
    <!-- Cyprus U.N. Buffer Zone -->
    <g style="fill: #1a252f" transform="translate(193.614534 20.117344) scale(0.17 -0.17)">
     <defs>
      <path id="DejaVuSans-Bold-38" d="M 588 4666 
L 1791 4666 
L 1791 1869 
Q 1791 1291 1980 1042 
Q 2169 794 2597 794 
Q 3028 794 3217 1042 
Q 3406 1291 3406 1869 
L 3406 4666 
L 4609 4666 
L 4609 1869 
Q 4609 878 4112 393 
Q 3616 -91 2597 -91 
Q 1581 -91 1084 393 
Q 588 878 588 1869 
L 588 4666 
z
" transform="scale(0.015625)"/>
      <path id="DejaVuSans-Bold-25" d="M 2456 2859 
Q 2741 2859 2887 2984 
Q 3034 3109 3034 3353 
Q 3034 3594 2887 3720 
Q 2741 3847 2456 3847 
L 1791 3847 
L 1791 2859 
L 2456 2859 
z
M 2497 819 
Q 2859 819 3042 972 
Q 3225 1125 3225 1434 
Q 3225 1738 3044 1889 
Q 2863 2041 2497 2041 
L 1791 2041 
L 1791 819 
L 2497 819 
z
M 3616 2497 
Q 4003 2384 4215 2081 
Q 4428 1778 4428 1338 
Q 4428 663 3972 331 
Q 3516 0 2584 0 
L 588 0 
L 588 4666 
L 2394 4666 
Q 3366 4666 3802 4372 
Q 4238 4078 4238 3431 
Q 4238 3091 4078 2852 
Q 3919 2613 3616 2497 
z
" transform="scale(0.015625)"/>
      <path id="DejaVuSans-Bold-13aa" d="M 2841 4863 
L 2841 4128 
L 2222 4128 
Q 1984 4128 1891 4044 
Q 1797 3956 1797 3744 
L 1797 3500 
L 3078 3500 
L 3078 3744 
Q 3078 4316 3397 4588 
Q 3716 4863 4384 4863 
L 5241 4863 
L 5241 4128 
L 4622 4128 
Q 4384 4128 4291 4044 
Q 4197 3956 4197 3744 
L 4197 3500 
L 5153 3500 
L 5153 2700 
L 4197 2700 
L 4197 0 
L 3078 0 
L 3078 2700 
L 1797 2700 
L 1797 0 
L 678 0 
L 678 2700 
L 122 2700 
L 122 3500 
L 678 3500 
L 678 3744 
Q 678 4316 997 4588 
Q 1316 4863 1984 4863 
L 2841 4863 
z
" transform="scale(0.015625)"/>
      <path id="DejaVuSans-Bold-3d" d="M 359 4666 
L 4281 4666 
L 4281 3938 
L 1778 909 
L 4353 909 
L 4353 0 
L 288 0 
L 288 728 
L 2791 3756 
L 359 3756 
L 359 4666 
z
" transform="scale(0.015625)"/>
      <path id="DejaVuSans-Bold-52" d="M 2203 2784 
Q 1831 2784 1636 2517 
Q 1441 2250 1441 1747 
Q 1441 1244 1636 976 
Q 1831 709 2203 709 
Q 2569 709 2762 976 
Q 2956 1244 2956 1747 
Q 2956 2250 2762 2517 
Q 2569 2784 2203 2784 
z
M 2203 3584 
Q 3106 3584 3614 3096 
Q 4122 2609 4122 1747 
Q 4122 884 3614 396 
Q 3106 -91 2203 -91 
Q 1297 -91 786 396 
Q 275 884 275 1747 
Q 275 2609 786 3096 
Q 1297 3584 2203 3584 
z
" transform="scale(0.015625)"/>
      <path id="DejaVuSans-Bold-51" d="M 4056 2131 
L 4056 0 
L 2931 0 
L 2931 347 
L 2931 1631 
Q 2931 2084 2911 2256 
Q 2891 2428 2841 2509 
Q 2775 2619 2662 2680 
Q 2550 2741 2406 2741 
Q 2056 2741 1856 2470 
Q 1656 2200 1656 1722 
L 1656 0 
L 538 0 
L 538 3500 
L 1656 3500 
L 1656 2988 
Q 1909 3294 2193 3439 
Q 2478 3584 2822 3584 
Q 3428 3584 3742 3212 
Q 4056 2841 4056 2131 
z
" transform="scale(0.015625)"/>
     </defs>
     <use xlink:href="#DejaVuSans-Bold-26"/>
     <use xlink:href="#DejaVuSans-Bold-5c" transform="translate(73.390625 0)"/>
     <use xlink:href="#DejaVuSans-Bold-53" transform="translate(138.578125 0)"/>
     <use xlink:href="#DejaVuSans-Bold-55" transform="translate(210.15625 0)"/>
     <use xlink:href="#DejaVuSans-Bold-58" transform="translate(259.46875 0)"/>
     <use xlink:href="#DejaVuSans-Bold-56" transform="translate(330.65625 0)"/>
     <use xlink:href="#DejaVuSans-Bold-3" transform="translate(390.171875 0)"/>
     <use xlink:href="#DejaVuSans-Bold-38" transform="translate(424.984375 0)"/>
     <use xlink:href="#DejaVuSans-Bold-11" transform="translate(506.1875 0)"/>
     <use xlink:href="#DejaVuSans-Bold-31" transform="translate(544.171875 0)"/>
     <use xlink:href="#DejaVuSans-Bold-11" transform="translate(627.859375 0)"/>
     <use xlink:href="#DejaVuSans-Bold-3" transform="translate(665.84375 0)"/>
     <use xlink:href="#DejaVuSans-Bold-25" transform="translate(700.65625 0)"/>
     <use xlink:href="#DejaVuSans-Bold-58" transform="translate(776.875 0)"/>
     <use xlink:href="#DejaVuSans-Bold-13aa" transform="translate(848.0625 0)"/>
     <use xlink:href="#DejaVuSans-Bold-48" transform="translate(929.0625 0)"/>
     <use xlink:href="#DejaVuSans-Bold-55" transform="translate(996.890625 0)"/>
     <use xlink:href="#DejaVuSans-Bold-3" transform="translate(1046.203125 0)"/>
     <use xlink:href="#DejaVuSans-Bold-3d" transform="translate(1081.015625 0)"/>
     <use xlink:href="#DejaVuSans-Bold-52" transform="translate(1153.53125 0)"/>
     <use xlink:href="#DejaVuSans-Bold-51" transform="translate(1222.234375 0)"/>
     <use xlink:href="#DejaVuSans-Bold-48" transform="translate(1293.421875 0)"/>
    </g>
   </g>
   <g id="legend_1">
    <g id="patch_5">
     <path d="M 13.5 498.657344 
L 151.568437 498.657344 
Q 153.368437 498.657344 153.368437 496.857344 
L 153.368437 470.755937 
Q 153.368437 468.955937 151.568437 468.955937 
L 13.5 468.955937 
Q 11.7 468.955937 11.7 470.755937 
L 11.7 496.857344 
Q 11.7 498.657344 13.5 498.657344 
z
" style="fill: #ffffff; opacity: 0.85; stroke: #cccccc; stroke-linejoin: miter"/>
    </g>
    <g id="patch_6">
     <path d="M 15.3 479.394531 
L 33.3 479.394531 
L 33.3 473.094531 
L 15.3 473.094531 
z
" style="fill: #e74c3c; stroke: #888888; stroke-linejoin: miter"/>
    </g>
    <g id="text_5">
     <!-- Cyprus U.N. Buffer Zone -->
     <g transform="translate(40.5 479.394531) scale(0.09 -0.09)">
      <defs>
       <path id="DejaVuSans-26" d="M 4122 4306 
L 4122 3641 
Q 3803 3938 3442 4084 
Q 3081 4231 2675 4231 
Q 1875 4231 1450 3742 
Q 1025 3253 1025 2328 
Q 1025 1406 1450 917 
Q 1875 428 2675 428 
Q 3081 428 3442 575 
Q 3803 722 4122 1019 
L 4122 359 
Q 3791 134 3420 21 
Q 3050 -91 2638 -91 
Q 1578 -91 968 557 
Q 359 1206 359 2328 
Q 359 3453 968 4101 
Q 1578 4750 2638 4750 
Q 3056 4750 3426 4639 
Q 3797 4528 4122 4306 
z
" transform="scale(0.015625)"/>
       <path id="DejaVuSans-5c" d="M 2059 -325 
Q 1816 -950 1584 -1140 
Q 1353 -1331 966 -1331 
L 506 -1331 
L 506 -850 
L 844 -850 
Q 1081 -850 1212 -737 
Q 1344 -625 1503 -206 
L 1606 56 
L 191 3500 
L 800 3500 
L 1894 763 
L 2988 3500 
L 3597 3500 
L 2059 -325 
z
" transform="scale(0.015625)"/>
       <path id="DejaVuSans-53" d="M 1159 525 
L 1159 -1331 
L 581 -1331 
L 581 3500 
L 1159 3500 
L 1159 2969 
Q 1341 3281 1617 3432 
Q 1894 3584 2278 3584 
Q 2916 3584 3314 3078 
Q 3713 2572 3713 1747 
Q 3713 922 3314 415 
Q 2916 -91 2278 -91 
Q 1894 -91 1617 61 
Q 1341 213 1159 525 
z
M 3116 1747 
Q 3116 2381 2855 2742 
Q 2594 3103 2138 3103 
Q 1681 3103 1420 2742 
Q 1159 2381 1159 1747 
Q 1159 1113 1420 752 
Q 1681 391 2138 391 
Q 2594 391 2855 752 
Q 3116 1113 3116 1747 
z
" transform="scale(0.015625)"/>
       <path id="DejaVuSans-55" d="M 2631 2963 
Q 2534 3019 2420 3045 
Q 2306 3072 2169 3072 
Q 1681 3072 1420 2755 
Q 1159 2438 1159 1844 
L 1159 0 
L 581 0 
L 581 3500 
L 1159 3500 
L 1159 2956 
Q 1341 3275 1631 3429 
Q 1922 3584 2338 3584 
Q 2397 3584 2469 3576 
Q 2541 3569 2628 3553 
L 2631 2963 
z
" transform="scale(0.015625)"/>
       <path id="DejaVuSans-58" d="M 544 1381 
L 544 3500 
L 1119 3500 
L 1119 1403 
Q 1119 906 1312 657 
Q 1506 409 1894 409 
Q 2359 409 2629 706 
Q 2900 1003 2900 1516 
L 2900 3500 
L 3475 3500 
L 3475 0 
L 2900 0 
L 2900 538 
Q 2691 219 2414 64 
Q 2138 -91 1772 -91 
Q 1169 -91 856 284 
Q 544 659 544 1381 
z
M 1991 3584 
L 1991 3584 
z
" transform="scale(0.015625)"/>
       <path id="DejaVuSans-56" d="M 2834 3397 
L 2834 2853 
Q 2591 2978 2328 3040 
Q 2066 3103 1784 3103 
Q 1356 3103 1142 2972 
Q 928 2841 928 2578 
Q 928 2378 1081 2264 
Q 1234 2150 1697 2047 
L 1894 2003 
Q 2506 1872 2764 1633 
Q 3022 1394 3022 966 
Q 3022 478 2636 193 
Q 2250 -91 1575 -91 
Q 1294 -91 989 -36 
Q 684 19 347 128 
L 347 722 
Q 666 556 975 473 
Q 1284 391 1588 391 
Q 1994 391 2212 530 
Q 2431 669 2431 922 
Q 2431 1156 2273 1281 
Q 2116 1406 1581 1522 
L 1381 1569 
Q 847 1681 609 1914 
Q 372 2147 372 2553 
Q 372 3047 722 3315 
Q 1072 3584 1716 3584 
Q 2034 3584 2315 3537 
Q 2597 3491 2834 3397 
z
" transform="scale(0.015625)"/>
       <path id="DejaVuSans-3" transform="scale(0.015625)"/>
       <path id="DejaVuSans-38" d="M 556 4666 
L 1191 4666 
L 1191 1831 
Q 1191 1081 1462 751 
Q 1734 422 2344 422 
Q 2950 422 3222 751 
Q 3494 1081 3494 1831 
L 3494 4666 
L 4128 4666 
L 4128 1753 
Q 4128 841 3676 375 
Q 3225 -91 2344 -91 
Q 1459 -91 1007 375 
Q 556 841 556 1753 
L 556 4666 
z
" transform="scale(0.015625)"/>
       <path id="DejaVuSans-11" d="M 684 794 
L 1344 794 
L 1344 0 
L 684 0 
L 684 794 
z
" transform="scale(0.015625)"/>
       <path id="DejaVuSans-31" d="M 628 4666 
L 1478 4666 
L 3547 763 
L 3547 4666 
L 4159 4666 
L 4159 0 
L 3309 0 
L 1241 3903 
L 1241 0 
L 628 0 
L 628 4666 
z
" transform="scale(0.015625)"/>
       <path id="DejaVuSans-25" d="M 1259 2228 
L 1259 519 
L 2272 519 
Q 2781 519 3026 730 
Q 3272 941 3272 1375 
Q 3272 1813 3026 2020 
Q 2781 2228 2272 2228 
L 1259 2228 
z
M 1259 4147 
L 1259 2741 
L 2194 2741 
Q 2656 2741 2882 2914 
Q 3109 3088 3109 3444 
Q 3109 3797 2882 3972 
Q 2656 4147 2194 4147 
L 1259 4147 
z
M 628 4666 
L 2241 4666 
Q 2963 4666 3353 4366 
Q 3744 4066 3744 3513 
Q 3744 3084 3544 2831 
Q 3344 2578 2956 2516 
Q 3422 2416 3680 2098 
Q 3938 1781 3938 1306 
Q 3938 681 3513 340 
Q 3088 0 2303 0 
L 628 0 
L 628 4666 
z
" transform="scale(0.015625)"/>
       <path id="DejaVuSans-13ae" d="M 4531 4863 
L 4531 4384 
L 3981 4384 
Q 3672 4384 3551 4259 
Q 3431 4134 3431 3809 
L 3431 3500 
L 4378 3500 
L 4378 3053 
L 3431 3053 
L 3431 0 
L 2853 0 
L 2853 3053 
L 1275 3053 
L 1275 0 
L 697 0 
L 697 3053 
L 147 3053 
L 147 3500 
L 697 3500 
L 697 3744 
Q 697 4328 969 4595 
Q 1241 4863 1831 4863 
L 2375 4863 
L 2375 4384 
L 1825 4384 
Q 1516 4384 1394 4259 
Q 1275 4134 1275 3809 
L 1275 3500 
L 2853 3500 
L 2853 3744 
Q 2853 4328 3125 4595 
Q 3397 4863 3988 4863 
L 4531 4863 
z
" transform="scale(0.015625)"/>
       <path id="DejaVuSans-48" d="M 3597 1894 
L 3597 1613 
L 953 1613 
Q 991 1019 1311 708 
Q 1631 397 2203 397 
Q 2534 397 2845 478 
Q 3156 559 3463 722 
L 3463 178 
Q 3153 47 2828 -22 
Q 2503 -91 2169 -91 
Q 1331 -91 842 396 
Q 353 884 353 1716 
Q 353 2575 817 3079 
Q 1281 3584 2069 3584 
Q 2775 3584 3186 3129 
Q 3597 2675 3597 1894 
z
M 3022 2063 
Q 3016 2534 2758 2815 
Q 2500 3097 2075 3097 
Q 1594 3097 1305 2825 
Q 1016 2553 972 2059 
L 3022 2063 
z
" transform="scale(0.015625)"/>
       <path id="DejaVuSans-3d" d="M 359 4666 
L 4025 4666 
L 4025 4184 
L 1075 531 
L 4097 531 
L 4097 0 
L 288 0 
L 288 481 
L 3238 4134 
L 359 4134 
L 359 4666 
z
" transform="scale(0.015625)"/>
       <path id="DejaVuSans-52" d="M 1959 3097 
Q 1497 3097 1228 2736 
Q 959 2375 959 1747 
Q 959 1119 1226 758 
Q 1494 397 1959 397 
Q 2419 397 2687 759 
Q 2956 1122 2956 1747 
Q 2956 2369 2687 2733 
Q 2419 3097 1959 3097 
z
M 1959 3584 
Q 2709 3584 3137 3096 
Q 3566 2609 3566 1747 
Q 3566 888 3137 398 
Q 2709 -91 1959 -91 
Q 1206 -91 779 398 
Q 353 888 353 1747 
Q 353 2609 779 3096 
Q 1206 3584 1959 3584 
z
" transform="scale(0.015625)"/>
       <path id="DejaVuSans-51" d="M 3513 2113 
L 3513 0 
L 2938 0 
L 2938 2094 
Q 2938 2591 2744 2837 
Q 2550 3084 2163 3084 
Q 1697 3084 1428 2787 
Q 1159 2491 1159 1978 
L 1159 0 
L 581 0 
L 581 3500 
L 1159 3500 
L 1159 2956 
Q 1366 3272 1645 3428 
Q 1925 3584 2291 3584 
Q 2894 3584 3203 3211 
Q 3513 2838 3513 2113 
z
" transform="scale(0.015625)"/>
      </defs>
      <use xlink:href="#DejaVuSans-26"/>
      <use xlink:href="#DejaVuSans-5c" transform="translate(69.828125 0)"/>
      <use xlink:href="#DejaVuSans-53" transform="translate(129.015625 0)"/>
      <use xlink:href="#DejaVuSans-55" transform="translate(192.5 0)"/>
      <use xlink:href="#DejaVuSans-58" transform="translate(233.609375 0)"/>
      <use xlink:href="#DejaVuSans-56" transform="translate(296.984375 0)"/>
      <use xlink:href="#DejaVuSans-3" transform="translate(349.078125 0)"/>
      <use xlink:href="#DejaVuSans-38" transform="translate(380.859375 0)"/>
      <use xlink:href="#DejaVuSans-11" transform="translate(454.046875 0)"/>
      <use xlink:href="#DejaVuSans-31" transform="translate(485.828125 0)"/>
      <use xlink:href="#DejaVuSans-11" transform="translate(560.640625 0)"/>
      <use xlink:href="#DejaVuSans-3" transform="translate(592.421875 0)"/>
      <use xlink:href="#DejaVuSans-25" transform="translate(624.203125 0)"/>
      <use xlink:href="#DejaVuSans-58" transform="translate(692.8125 0)"/>
      <use xlink:href="#DejaVuSans-13ae" transform="translate(756.1875 0)"/>
      <use xlink:href="#DejaVuSans-48" transform="translate(825.078125 0)"/>
      <use xlink:href="#DejaVuSans-55" transform="translate(886.609375 0)"/>
      <use xlink:href="#DejaVuSans-3" transform="translate(927.71875 0)"/>
      <use xlink:href="#DejaVuSans-3d" transform="translate(959.5 0)"/>
      <use xlink:href="#DejaVuSans-52" transform="translate(1028 0)"/>
      <use xlink:href="#DejaVuSans-51" transform="translate(1089.1875 0)"/>
      <use xlink:href="#DejaVuSans-48" transform="translate(1152.5625 0)"/>
     </g>
    </g>
    <g id="patch_7">
     <path d="M 15.3 492.895234 
L 33.3 492.895234 
L 33.3 486.595234 
L 15.3 486.595234 
z
" style="fill: #bdc3c7; stroke: #888888; stroke-linejoin: miter"/>
    </g>
    <g id="text_6">
     <!-- Neighbors -->
     <g transform="translate(40.5 492.895234) scale(0.09 -0.09)">
      <defs>
       <path id="DejaVuSans-4c" d="M 603 3500 
L 1178 3500 
L 1178 0 
L 603 0 
L 603 3500 
z
M 603 4863 
L 1178 4863 
L 1178 4134 
L 603 4134 
L 603 4863 
z
" transform="scale(0.015625)"/>
       <path id="DejaVuSans-4a" d="M 2906 1791 
Q 2906 2416 2648 2759 
Q 2391 3103 1925 3103 
Q 1463 3103 1205 2759 
Q 947 2416 947 1791 
Q 947 1169 1205 825 
Q 1463 481 1925 481 
Q 2391 481 2648 825 
Q 2906 1169 2906 1791 
z
M 3481 434 
Q 3481 -459 3084 -895 
Q 2688 -1331 1869 -1331 
Q 1566 -1331 1297 -1286 
Q 1028 -1241 775 -1147 
L 775 -588 
Q 1028 -725 1275 -790 
Q 1522 -856 1778 -856 
Q 2344 -856 2625 -561 
Q 2906 -266 2906 331 
L 2906 616 
Q 2728 306 2450 153 
Q 2172 0 1784 0 
Q 1141 0 747 490 
Q 353 981 353 1791 
Q 353 2603 747 3093 
Q 1141 3584 1784 3584 
Q 2172 3584 2450 3431 
Q 2728 3278 2906 2969 
L 2906 3500 
L 3481 3500 
L 3481 434 
z
" transform="scale(0.015625)"/>
       <path id="DejaVuSans-4b" d="M 3513 2113 
L 3513 0 
L 2938 0 
L 2938 2094 
Q 2938 2591 2744 2837 
Q 2550 3084 2163 3084 
Q 1697 3084 1428 2787 
Q 1159 2491 1159 1978 
L 1159 0 
L 581 0 
L 581 4863 
L 1159 4863 
L 1159 2956 
Q 1366 3272 1645 3428 
Q 1925 3584 2291 3584 
Q 2894 3584 3203 3211 
Q 3513 2838 3513 2113 
z
" transform="scale(0.015625)"/>
       <path id="DejaVuSans-45" d="M 3116 1747 
Q 3116 2381 2855 2742 
Q 2594 3103 2138 3103 
Q 1681 3103 1420 2742 
Q 1159 2381 1159 1747 
Q 1159 1113 1420 752 
Q 1681 391 2138 391 
Q 2594 391 2855 752 
Q 3116 1113 3116 1747 
z
M 1159 2969 
Q 1341 3281 1617 3432 
Q 1894 3584 2278 3584 
Q 2916 3584 3314 3078 
Q 3713 2572 3713 1747 
Q 3713 922 3314 415 
Q 2916 -91 2278 -91 
Q 1894 -91 1617 61 
Q 1341 213 1159 525 
L 1159 0 
L 581 0 
L 581 4863 
L 1159 4863 
L 1159 2969 
z
" transform="scale(0.015625)"/>
      </defs>
      <use xlink:href="#DejaVuSans-31"/>
      <use xlink:href="#DejaVuSans-48" transform="translate(74.8125 0)"/>
      <use xlink:href="#DejaVuSans-4c" transform="translate(136.34375 0)"/>
      <use xlink:href="#DejaVuSans-4a" transform="translate(164.125 0)"/>
      <use xlink:href="#DejaVuSans-4b" transform="translate(227.609375 0)"/>
      <use xlink:href="#DejaVuSans-45" transform="translate(290.984375 0)"/>
      <use xlink:href="#DejaVuSans-52" transform="translate(354.46875 0)"/>
      <use xlink:href="#DejaVuSans-55" transform="translate(415.65625 0)"/>
      <use xlink:href="#DejaVuSans-56" transform="translate(456.765625 0)"/>
     </g>
    </g>
   </g>
  </g>
 </g>
 <defs>
  <clipPath id="p4963b2fc3b">
   <rect x="7.2" y="30.117344" width="604.241567" height="473.04"/>
  </clipPath>
 </defs>
</svg>
