<?xml version="1.0" encoding="utf-8" standalone="no"?>
<!DOCTYPE svg PUBLIC "-//W3C//DTD SVG 1.1//EN"
  "http://www.w3.org/Graphics/SVG/1.1/DTD/svg11.dtd">
<svg xmlns:xlink="http://www.w3.org/1999/xlink" width="590.747045pt" height="510.356016pt" viewBox="0 0 590.747045 510.356016" xmlns="http://www.w3.org/2000/svg" version="1.1">
 <metadata>
  <rdf:RDF xmlns:dc="http://purl.org/dc/elements/1.1/" xmlns:cc="http://creativecommons.org/ns#" xmlns:rdf="http://www.w3.org/1999/02/22-rdf-syntax-ns#">
   <cc:Work>
    <dc:type rdf:resource="http://purl.org/dc/dcmitype/StillImage"/>
    <dc:date>2026-06-19T08:36:05.854606</dc:date>
    <dc:format>image/svg+xml</dc:format>
    <dc:creator>
     <cc:Agent>
      <dc:title>Matplotlib v3.11.0, https://matplotlib.org/</dc:title>
     </cc:Agent>
    </dc:creator>
   </cc:Work>
  </rdf:RDF>
 </metadata>
 <defs>
  <style type="text/css">*{stroke-linejoin: round; stroke-linecap: butt}</style>
 </defs>
 <g id="figure_1">
  <g id="patch_1">
   <path d="M 0 510.356016 
L 590.747045 510.356016 
L 590.747045 -0 
L 0 -0 
z
" style="fill: #d6eaf8"/>
  </g>
  <g id="axes_1">
   <g id="PatchCollection_1">
    <path d="M 368.147327 240.986823 
L 369.221479 239.450943 
L 371.369783 238.836591 
L 372.981011 237.300711 
L 374.592239 237.300711 
L 375.129315 238.222239 
L 374.055163 242.215526 
L 373.518087 244.058582 
L 375.129315 243.751406 
L 378.351771 240.986823 
L 382.111304 243.751406 
L 383.722532 242.215526 
L 385.33376 242.522702 
L 386.407912 242.215526 
L 386.944988 240.065295 
L 390.70452 237.300711 
L 392.315749 237.915063 
L 393.389901 239.143767 
L 395.001129 238.836591 
L 397.149433 237.300711 
L 397.686509 236.379183 
L 398.760661 235.457655 
L 397.686509 233.921775 
L 397.686509 231.157192 
L 398.223585 227.778256 
L 400.371889 227.778256 
L 400.908965 229.314136 
L 401.983117 229.621312 
L 402.520193 231.464368 
L 403.05727 232.07872 
L 403.05727 233.000248 
L 404.131422 233.000248 
L 405.205574 234.843303 
L 404.131422 236.379183 
L 403.05727 236.686359 
L 403.05727 236.993535 
L 401.983117 238.529415 
L 399.297737 236.379183 
L 398.223585 237.300711 
L 397.149433 238.529415 
L 395.538205 239.758119 
L 393.389901 240.372471 
L 392.315749 239.143767 
L 391.241597 238.529415 
L 389.093292 239.450943 
L 388.01914 240.372471 
L 386.944988 242.522702 
L 390.70452 244.058582 
L 391.778673 245.287286 
L 391.241597 249.280574 
L 393.389901 250.816453 
L 396.075281 251.123629 
L 396.075281 254.195389 
L 394.464053 254.502565 
L 392.852825 256.038445 
L 393.926977 256.959973 
L 396.612357 256.345621 
L 400.908965 257.267149 
L 399.834813 258.803029 
L 398.223585 260.338908 
L 396.612357 260.95326 
L 393.926977 260.031732 
L 390.167444 256.038445 
L 387.482064 254.502565 
L 384.259608 253.888213 
L 384.796684 253.888213 
L 385.33376 253.581037 
L 385.870836 253.581037 
L 386.407912 253.581037 
L 385.870836 252.659509 
L 385.33376 252.352333 
L 384.259608 252.352333 
L 383.722532 252.352333 
L 383.185456 251.737981 
L 382.111304 251.430805 
L 381.574228 251.430805 
L 381.037152 251.737981 
L 382.111304 252.045157 
L 382.64838 252.352333 
L 382.64838 253.273861 
L 383.722532 253.273861 
L 384.259608 253.273861 
L 384.259608 253.888213 
L 381.037152 253.273861 
L 374.592239 253.581037 
L 372.443935 254.502565 
L 372.443935 251.737981 
L 374.055163 252.045157 
L 374.592239 249.894926 
L 371.906859 248.973398 
L 371.906859 248.05187 
L 372.981011 246.823166 
L 372.443935 245.594462 
L 369.758555 244.058582 
L 369.221479 243.44423 
L 368.684403 242.829878 
z
M 377.814695 248.666222 
L 378.351771 248.973398 
L 378.351771 249.280574 
L 378.888848 248.973398 
L 379.963 248.666222 
L 379.963 246.823166 
L 378.888848 246.823166 
L 378.351771 247.130342 
L 378.351771 247.744694 
z
" clip-path="url(#p7a60651ff5)" style="fill: #bdc3c7; stroke: #ffffff; stroke-width: 0.5"/>
    <path d="M 224.748023 219.791681 
L 224.748023 217.641449 
L 224.748023 216.412745 
L 229.581707 217.027097 
L 234.415391 218.562977 
L 238.174924 221.020385 
L 241.934456 222.556265 
L 247.842293 221.020385 
L 251.601825 217.641449 
L 254.824281 213.03381 
L 256.972585 207.197467 
L 258.046737 200.439595 
L 258.046737 188.152557 
L 257.509661 182.930565 
L 255.898433 177.094222 
L 259.657966 177.708574 
L 265.565802 181.394686 
L 268.788258 182.316213 
L 277.918551 184.159269 
L 288.660072 183.544917 
L 306.920658 186.002325 
L 309.606038 187.231029 
L 331.626156 189.688437 
L 365.999022 184.159269 
L 378.351771 177.094222 
L 384.796684 173.715286 
L 392.315749 174.94399 
L 400.371889 172.486583 
L 422.392007 163.885656 
L 428.299844 159.585192 
L 436.355984 156.513432 
L 443.875049 148.834033 
L 448.171657 147.912505 
L 456.764874 145.455098 
L 464.821015 142.99769 
L 470.728851 139.004403 
L 498.119729 126.103012 
L 503.49049 123.95278 
L 505.101718 123.645604 
L 504.564642 124.259956 
L 504.027566 124.874308 
L 503.49049 125.48866 
L 503.49049 126.103012 
L 502.953414 131.325003 
L 502.416338 132.553707 
L 501.342186 132.860883 
L 497.582653 133.475235 
L 497.045577 134.089587 
L 482.544524 143.304866 
L 469.654699 154.670377 
L 437.430136 174.022462 
L 433.133528 177.708574 
L 429.911072 182.316213 
L 427.225692 188.152557 
L 425.614463 190.609965 
L 423.466159 192.145844 
L 419.706627 192.45302 
L 415.947095 191.531492 
L 412.724638 191.224316 
L 409.502182 192.760196 
L 405.74265 198.903716 
L 403.594346 202.282651 
L 403.05727 205.354411 
L 401.983117 219.484505 
L 404.131422 221.020385 
L 410.039258 227.163904 
L 411.11341 229.00696 
L 412.187562 231.464368 
L 413.79879 233.614599 
L 418.632475 237.915063 
L 418.095399 238.529415 
L 411.650486 236.993535 
L 407.890954 238.529415 
L 405.74265 238.222239 
L 404.131422 237.607887 
L 403.05727 236.993535 
L 403.05727 236.686359 
L 404.131422 236.379183 
L 405.205574 234.843303 
L 404.131422 233.000248 
L 403.05727 233.000248 
L 403.05727 232.07872 
L 402.520193 231.464368 
L 401.983117 229.621312 
L 400.908965 229.314136 
L 400.371889 227.778256 
L 398.223585 227.778256 
L 397.686509 231.157192 
L 397.686509 233.921775 
L 398.760661 235.457655 
L 397.686509 236.379183 
L 397.149433 237.300711 
L 395.001129 238.836591 
L 393.389901 239.143767 
L 392.315749 237.915063 
L 390.70452 237.300711 
L 386.944988 240.065295 
L 386.407912 242.215526 
L 385.33376 242.522702 
L 383.722532 242.215526 
L 382.111304 243.751406 
L 378.351771 240.986823 
L 375.129315 243.751406 
L 373.518087 244.058582 
L 374.055163 242.215526 
L 375.129315 238.222239 
L 374.592239 237.300711 
L 372.981011 237.300711 
L 371.369783 238.836591 
L 369.221479 239.450943 
L 368.147327 240.986823 
L 368.684403 242.829878 
L 369.221479 243.44423 
L 367.610251 244.058582 
L 365.461946 243.751406 
L 364.92487 244.058582 
L 362.776566 244.058582 
L 359.55411 240.986823 
L 357.405806 241.908351 
L 355.794578 243.44423 
L 354.183349 243.137054 
L 352.035045 241.601175 
L 351.497969 238.836591 
L 350.423817 237.300711 
L 349.349665 236.379183 
L 348.275513 236.379183 
L 347.738437 237.300711 
L 347.738437 239.143767 
L 346.664285 239.450943 
L 345.053057 238.529415 
L 343.441829 238.529415 
L 342.367676 238.529415 
L 341.293524 239.143767 
L 340.219372 242.522702 
L 339.682296 243.751406 
L 339.14522 246.208814 
L 339.14522 248.05187 
L 339.14522 248.973398 
L 337.533992 248.666222 
L 336.996916 246.823166 
L 338.071068 242.522702 
L 339.14522 239.143767 
L 339.14522 235.457655 
L 339.14522 232.385896 
L 338.071068 230.54284 
L 334.848612 225.628024 
L 333.237384 222.556265 
L 331.626156 218.870153 
L 331.08908 216.412745 
L 330.552003 214.262514 
L 329.477851 213.340986 
L 327.329547 213.648162 
L 325.718319 215.184042 
L 324.644167 217.027097 
L 323.570015 217.948625 
L 319.273407 219.177329 
L 316.588026 219.177329 
L 314.976798 220.098857 
L 312.291418 219.791681 
L 307.99481 218.870153 
L 303.698201 218.255801 
L 301.012821 217.027097 
L 296.179137 214.876866 
L 291.345452 215.798394 
L 289.197148 216.719921 
L 285.437616 220.406033 
L 283.826388 220.713209 
L 282.215159 218.562977 
L 279.529779 219.484505 
L 276.307323 221.327561 
L 272.547791 222.249089 
L 269.86241 223.784969 
L 266.102878 225.628024 
L 263.417498 229.00696 
L 259.657966 230.850016 
L 258.046737 231.157192 
L 256.435509 231.464368 
L 254.824281 231.157192 
L 251.064749 230.850016 
L 249.453521 231.157192 
L 248.379369 231.771544 
L 246.768141 233.614599 
L 246.231064 235.150479 
L 243.545684 234.843303 
L 242.471532 231.157192 
L 239.786152 228.392608 
L 237.100772 226.549552 
L 231.730011 225.320848 
L 229.581707 224.399321 
L 227.433403 223.477793 
L 225.822175 221.634737 
z
" clip-path="url(#p7a60651ff5)" style="fill: #bdc3c7; stroke: #ffffff; stroke-width: 0.5"/>
    <path d="M 208.098665 217.027097 
L 210.784046 215.798394 
L 214.006502 215.491218 
L 214.006502 216.10557 
L 213.469426 217.948625 
L 211.858198 219.484505 
L 210.246969 219.791681 
L 208.635741 217.948625 
z
" clip-path="url(#p7a60651ff5)" style="fill: #bdc3c7; stroke: #ffffff; stroke-width: 0.5"/>
    <path d="M 221.525566 216.10557 
L 224.748023 216.412745 
L 224.748023 217.641449 
L 224.748023 219.791681 
L 225.822175 221.634737 
L 227.433403 223.477793 
L 229.581707 224.399321 
L 231.730011 225.320848 
L 237.100772 226.549552 
L 239.786152 228.392608 
L 242.471532 231.157192 
L 243.545684 234.843303 
L 246.231064 235.150479 
L 246.768141 233.614599 
L 248.379369 231.771544 
L 249.453521 231.157192 
L 251.064749 230.850016 
L 254.824281 231.157192 
L 256.435509 231.464368 
L 258.046737 231.157192 
L 259.657966 230.850016 
L 263.417498 229.00696 
L 266.102878 225.628024 
L 269.86241 223.784969 
L 272.547791 222.249089 
L 276.307323 221.327561 
L 279.529779 219.484505 
L 282.215159 218.562977 
L 283.826388 220.713209 
L 285.437616 220.406033 
L 289.197148 216.719921 
L 291.345452 215.798394 
L 296.179137 214.876866 
L 301.012821 217.027097 
L 303.698201 218.255801 
L 307.99481 218.870153 
L 312.291418 219.791681 
L 314.976798 220.098857 
L 316.588026 219.177329 
L 319.273407 219.177329 
L 323.570015 217.948625 
L 324.644167 217.027097 
L 325.718319 215.184042 
L 327.329547 213.648162 
L 329.477851 213.340986 
L 330.552003 214.262514 
L 331.08908 216.412745 
L 331.626156 218.870153 
L 333.237384 222.556265 
L 334.848612 225.628024 
L 338.071068 230.54284 
L 339.14522 232.385896 
L 339.14522 235.457655 
L 339.14522 239.143767 
L 338.071068 242.522702 
L 336.996916 246.823166 
L 337.533992 248.666222 
L 339.14522 248.973398 
L 339.14522 248.05187 
L 339.14522 246.208814 
L 339.682296 243.751406 
L 340.219372 242.522702 
L 341.293524 239.143767 
L 342.367676 238.529415 
L 343.441829 238.529415 
L 345.053057 238.529415 
L 346.664285 239.450943 
L 347.738437 239.143767 
L 347.738437 237.300711 
L 348.275513 236.379183 
L 349.349665 236.379183 
L 350.423817 237.300711 
L 351.497969 238.836591 
L 352.035045 241.601175 
L 354.183349 243.137054 
L 355.794578 243.44423 
L 357.405806 241.908351 
L 359.55411 240.986823 
L 362.776566 244.058582 
L 364.92487 244.058582 
L 365.461946 243.751406 
L 367.610251 244.058582 
L 369.221479 243.44423 
L 369.758555 244.058582 
L 372.443935 245.594462 
L 372.981011 246.823166 
L 371.906859 248.05187 
L 371.906859 248.973398 
L 374.592239 249.894926 
L 374.055163 252.045157 
L 372.443935 251.737981 
L 369.758555 249.894926 
L 368.147327 249.894926 
L 366.536098 249.58775 
L 363.313642 247.744694 
L 361.702414 247.130342 
L 360.091186 246.51599 
L 359.017034 247.130342 
L 357.942882 247.437518 
L 355.794578 246.208814 
L 354.183349 245.901638 
L 353.109197 246.823166 
L 352.035045 249.280574 
L 349.349665 250.509278 
L 347.201361 249.58775 
L 346.664285 247.130342 
L 346.664285 242.829878 
L 345.053057 241.601175 
L 343.978905 242.829878 
L 342.904753 244.058582 
L 341.8306 244.672934 
L 341.293524 249.894926 
L 340.219372 252.966685 
L 338.071068 253.581037 
L 336.45984 253.581037 
L 334.848612 251.737981 
L 334.311536 249.280574 
L 335.385688 246.208814 
L 336.45984 241.908351 
L 336.45984 238.529415 
L 336.45984 235.457655 
L 336.45984 232.385896 
L 335.922764 231.157192 
L 333.77446 229.00696 
L 332.163232 227.163904 
L 331.08908 225.9352 
L 330.552003 223.170617 
L 330.552003 221.020385 
L 330.014927 220.406033 
L 327.329547 220.713209 
L 323.570015 221.327561 
L 320.884635 221.020385 
L 319.810483 221.327561 
L 316.588026 224.706497 
L 314.976798 225.9352 
L 314.439722 227.47108 
L 313.902646 228.392608 
L 312.828494 229.00696 
L 309.068962 228.085432 
L 306.920658 226.549552 
L 305.309429 224.706497 
L 303.161125 222.249089 
L 302.086973 221.634737 
L 299.938669 221.634737 
L 297.790365 220.713209 
L 296.179137 219.791681 
L 293.493756 219.791681 
L 290.2713 222.556265 
L 289.197148 224.092145 
L 288.122996 224.706497 
L 285.974692 225.628024 
L 282.215159 225.628024 
L 278.455627 225.013672 
L 274.696095 224.399321 
L 273.084867 224.706497 
L 271.473639 226.242376 
L 268.251182 228.392608 
L 265.565802 229.621312 
L 262.880422 232.385896 
L 260.195042 235.150479 
L 258.046737 236.379183 
L 255.898433 236.379183 
L 253.750129 234.843303 
L 252.675977 233.614599 
L 251.601825 233.000248 
L 250.527673 233.614599 
L 249.453521 235.457655 
L 248.916445 236.379183 
L 246.768141 237.607887 
L 243.008608 238.836591 
L 241.934456 238.836591 
L 240.323228 238.222239 
L 239.249076 236.686359 
L 239.249076 234.843303 
L 238.712 232.385896 
L 237.100772 230.850016 
L 234.415391 229.314136 
L 231.192935 227.778256 
L 227.433403 226.549552 
L 224.748023 225.320848 
L 223.673871 223.477793 
L 222.599718 221.020385 
z
" clip-path="url(#p7a60651ff5)" style="fill: #bdc3c7; stroke: #ffffff; stroke-width: 0.5"/>
    <path d="M 401.983117 238.529415 
L 403.05727 236.993535 
L 404.131422 237.607887 
L 405.74265 238.222239 
L 407.890954 238.529415 
L 411.650486 236.993535 
L 418.095399 238.529415 
L 418.632475 237.915063 
L 420.243703 239.143767 
L 419.706627 240.065295 
L 418.632475 240.679647 
L 417.021247 240.986823 
L 415.410019 240.065295 
L 413.79879 239.143767 
L 411.11341 239.143767 
L 408.965106 240.372471 
L 406.816802 240.372471 
L 405.205574 239.758119 
L 403.594346 239.143767 
z
" clip-path="url(#p7a60651ff5)" style="fill: #bdc3c7; stroke: #ffffff; stroke-width: 0.5"/>
    <path d="M 205.950361 218.255801 
L 208.098665 217.027097 
L 208.635741 217.948625 
L 210.246969 219.791681 
L 211.858198 219.484505 
L 213.469426 217.948625 
L 214.006502 216.10557 
L 214.006502 215.491218 
L 215.61773 215.184042 
L 217.228958 215.491218 
L 216.154806 217.948625 
L 215.080654 220.098857 
L 212.93235 221.634737 
L 211.321122 221.941913 
L 209.172817 221.634737 
L 207.024513 220.098857 
z
" clip-path="url(#p7a60651ff5)" style="fill: #bdc3c7; stroke: #ffffff; stroke-width: 0.5"/>
    <path d="M 231.730011 309.794239 
L 232.804163 308.565535 
L 234.952468 308.872711 
L 237.637848 309.487063 
L 238.712 306.722479 
L 240.860304 306.415303 
L 241.39738 305.800951 
L 241.934456 304.879423 
L 242.471532 303.957895 
L 243.008608 304.265071 
L 244.08276 304.265071 
L 244.619836 304.265071 
L 245.693988 304.265071 
L 246.768141 303.957895 
L 246.768141 306.415303 
L 247.842293 307.951183 
L 250.527673 310.101415 
L 254.824281 311.330118 
L 255.361357 310.101415 
L 257.509661 311.022942 
L 258.046737 311.94447 
L 259.12089 310.101415 
L 260.732118 308.258359 
L 266.102878 308.872711 
L 266.102878 313.787526 
L 263.417498 313.787526 
L 262.880422 312.865998 
L 260.732118 314.401878 
L 261.269194 317.166462 
L 262.343346 317.780814 
L 263.417498 316.55211 
L 266.639954 315.937758 
L 269.86241 315.937758 
L 269.325334 317.780814 
L 269.325334 322.695629 
L 272.010715 326.996093 
L 272.010715 327.91762 
L 259.12089 327.91762 
L 259.12089 326.996093 
L 259.657966 323.309981 
L 255.361357 315.01623 
L 254.824281 311.94447 
L 246.231064 309.794239 
L 243.008608 309.487063 
L 239.786152 309.794239 
L 232.267087 312.558822 
z
" clip-path="url(#p7a60651ff5)" style="fill: #bdc3c7; stroke: #ffffff; stroke-width: 0.5"/>
   </g>
   <g id="PatchCollection_2">
    <path d="M 159.224745 236.379183 
L 159.761821 233.000248 
L 161.373049 231.771544 
L 164.595506 233.921775 
L 168.892114 238.836591 
L 171.040418 240.679647 
L 174.262874 241.908351 
L 180.170711 241.601175 
L 185.541471 238.836591 
L 190.375156 234.536127 
L 193.597612 229.621312 
L 195.745916 224.092145 
L 197.357144 221.020385 
L 199.505449 219.177329 
L 200.042525 218.255801 
L 200.579601 217.641449 
L 201.116677 217.027097 
L 202.190829 217.334273 
L 203.264981 218.255801 
L 204.339133 218.562977 
L 205.950361 218.255801 
L 207.024513 220.098857 
L 209.172817 221.634737 
L 211.321122 221.941913 
L 212.93235 221.634737 
L 215.080654 220.098857 
L 216.154806 217.948625 
L 217.228958 215.491218 
L 221.525566 216.10557 
L 222.599718 221.020385 
L 223.673871 223.477793 
L 224.748023 225.320848 
L 227.433403 226.549552 
L 231.192935 227.778256 
L 234.415391 229.314136 
L 237.100772 230.850016 
L 238.712 232.385896 
L 239.249076 234.843303 
L 239.249076 236.686359 
L 240.323228 238.222239 
L 241.934456 238.836591 
L 243.008608 238.836591 
L 246.768141 237.607887 
L 248.916445 236.379183 
L 249.453521 235.457655 
L 250.527673 233.614599 
L 251.601825 233.000248 
L 252.675977 233.614599 
L 253.750129 234.843303 
L 255.898433 236.379183 
L 258.046737 236.379183 
L 260.195042 235.150479 
L 262.880422 232.385896 
L 265.565802 229.621312 
L 268.251182 228.392608 
L 271.473639 226.242376 
L 273.084867 224.706497 
L 274.696095 224.399321 
L 278.455627 225.013672 
L 282.215159 225.628024 
L 285.974692 225.628024 
L 288.122996 224.706497 
L 289.197148 224.092145 
L 290.2713 222.556265 
L 293.493756 219.791681 
L 296.179137 219.791681 
L 297.790365 220.713209 
L 299.938669 221.634737 
L 302.086973 221.634737 
L 303.161125 222.249089 
L 305.309429 224.706497 
L 306.920658 226.549552 
L 309.068962 228.085432 
L 312.828494 229.00696 
L 313.902646 228.392608 
L 314.439722 227.47108 
L 314.976798 225.9352 
L 316.588026 224.706497 
L 319.810483 221.327561 
L 320.884635 221.020385 
L 323.570015 221.327561 
L 327.329547 220.713209 
L 330.014927 220.406033 
L 330.552003 221.020385 
L 330.552003 223.170617 
L 331.08908 225.9352 
L 332.163232 227.163904 
L 333.77446 229.00696 
L 335.922764 231.157192 
L 336.45984 232.385896 
L 336.45984 235.457655 
L 336.45984 238.529415 
L 336.45984 241.908351 
L 335.385688 246.208814 
L 334.311536 249.280574 
L 334.848612 251.737981 
L 336.45984 253.581037 
L 338.071068 253.581037 
L 340.219372 252.966685 
L 341.293524 249.894926 
L 341.8306 244.672934 
L 342.904753 244.058582 
L 343.978905 242.829878 
L 345.053057 241.601175 
L 346.664285 242.829878 
L 346.664285 247.130342 
L 347.201361 249.58775 
L 349.349665 250.509278 
L 352.035045 249.280574 
L 353.109197 246.823166 
L 354.183349 245.901638 
L 355.794578 246.208814 
L 357.942882 247.437518 
L 359.017034 247.130342 
L 360.091186 246.51599 
L 361.702414 247.130342 
L 363.313642 247.744694 
L 366.536098 249.58775 
L 368.147327 249.894926 
L 369.758555 249.894926 
L 372.443935 251.737981 
L 372.443935 254.502565 
L 369.221479 255.731269 
L 365.461946 259.724556 
L 364.387794 261.874788 
L 363.313642 264.946548 
L 362.23949 268.018307 
L 362.23949 271.397243 
L 362.23949 274.776179 
L 362.23949 276.312058 
L 360.628262 276.92641 
L 359.55411 277.540762 
L 359.017034 280.919698 
L 357.942882 281.841226 
L 355.794578 282.762754 
L 350.960893 282.762754 
L 348.812589 283.06993 
L 347.738437 284.60581 
L 346.127209 286.756041 
L 344.515981 288.599097 
L 342.367676 289.520625 
L 337.533992 290.442153 
L 333.237384 292.592385 
L 329.477851 293.513912 
L 327.329547 290.749329 
L 327.329547 295.97132 
L 323.032939 298.428728 
L 311.754342 300.886136 
L 309.606038 301.807664 
L 308.531886 302.729191 
L 306.383581 303.957895 
L 304.235277 304.572247 
L 293.493756 303.036367 
L 282.752236 304.572247 
L 280.603931 305.186599 
L 278.455627 306.415303 
L 271.473639 312.865998 
L 269.86241 315.937758 
L 266.639954 315.937758 
L 263.417498 316.55211 
L 262.343346 317.780814 
L 261.269194 317.166462 
L 260.732118 314.401878 
L 262.880422 312.865998 
L 263.417498 313.787526 
L 266.102878 313.787526 
L 266.102878 308.872711 
L 260.732118 308.258359 
L 259.12089 310.101415 
L 258.046737 311.94447 
L 257.509661 311.022942 
L 255.361357 310.101415 
L 254.824281 311.330118 
L 250.527673 310.101415 
L 247.842293 307.951183 
L 246.768141 306.415303 
L 246.768141 303.957895 
L 245.693988 304.265071 
L 244.619836 304.265071 
L 244.08276 304.265071 
L 243.008608 304.265071 
L 242.471532 303.957895 
L 241.934456 304.879423 
L 241.39738 305.800951 
L 240.860304 306.415303 
L 238.712 306.722479 
L 237.637848 309.487063 
L 234.952468 308.872711 
L 232.804163 308.565535 
L 231.730011 309.794239 
L 232.267087 312.558822 
L 230.118783 313.173174 
L 224.210947 314.094702 
L 217.766034 312.865998 
L 211.858198 310.101415 
L 204.339133 305.493775 
L 201.653753 304.265071 
L 198.431296 303.343543 
L 191.986384 302.729191 
L 189.301004 301.807664 
L 187.1527 300.271784 
L 181.244863 295.356968 
L 180.170711 294.43544 
L 179.096559 289.213449 
L 178.559483 288.291921 
L 178.559483 286.448865 
L 175.337027 276.92641 
L 173.725798 275.697707 
L 170.503342 273.547475 
L 168.892114 272.011595 
L 167.817962 270.168539 
L 166.74381 268.018307 
L 166.74381 265.5609 
L 167.817962 263.410668 
L 165.132582 258.495853 
L 164.595506 256.652797 
L 164.595506 252.659509 
L 164.05843 249.280574 
L 160.835973 243.751406 
L 159.761821 240.986823 
z
" clip-path="url(#p7a60651ff5)" style="fill: #e74c3c; stroke: #ffffff; stroke-width: 0.6"/>
    <path d="M 386.944988 242.522702 
L 388.01914 240.372471 
L 389.093292 239.450943 
L 391.241597 238.529415 
L 392.315749 239.143767 
L 393.389901 240.372471 
L 395.538205 239.758119 
L 397.149433 238.529415 
L 398.223585 237.300711 
L 399.297737 236.379183 
L 401.983117 238.529415 
L 403.594346 239.143767 
L 405.205574 239.758119 
L 406.816802 240.372471 
L 408.965106 240.372471 
L 411.11341 239.143767 
L 413.79879 239.143767 
L 415.410019 240.065295 
L 417.021247 240.986823 
L 418.632475 240.679647 
L 419.706627 240.065295 
L 420.243703 239.143767 
L 422.392007 240.986823 
L 424.540311 243.44423 
L 426.151539 248.359046 
L 427.762768 251.737981 
L 429.911072 254.502565 
L 431.5223 255.731269 
L 429.911072 256.038445 
L 425.614463 255.731269 
L 421.854931 254.502565 
L 420.243703 252.659509 
L 418.632475 251.737981 
L 410.576334 252.966685 
L 403.594346 254.809741 
L 401.983117 255.731269 
L 400.908965 257.267149 
L 396.612357 256.345621 
L 393.926977 256.959973 
L 392.852825 256.038445 
L 394.464053 254.502565 
L 396.075281 254.195389 
L 396.075281 251.123629 
L 393.389901 250.816453 
L 391.241597 249.280574 
L 391.778673 245.287286 
L 390.70452 244.058582 
z
" clip-path="url(#p7a60651ff5)" style="fill: #e74c3c; stroke: #ffffff; stroke-width: 0.6"/>
    <path d="M 381.037152 251.737981 
L 381.574228 251.430805 
L 382.111304 251.430805 
L 383.185456 251.737981 
L 383.722532 252.352333 
L 384.259608 252.352333 
L 385.33376 252.352333 
L 385.870836 252.659509 
L 386.407912 253.581037 
L 385.870836 253.581037 
L 385.33376 253.581037 
L 384.796684 253.888213 
L 384.259608 253.888213 
L 384.259608 253.273861 
L 383.722532 253.273861 
L 382.64838 253.273861 
L 382.64838 252.352333 
L 382.111304 252.045157 
z
" clip-path="url(#p7a60651ff5)" style="fill: #e74c3c; stroke: #ffffff; stroke-width: 0.6"/>
    <path d="M 377.814695 248.666222 
L 378.351771 247.744694 
L 378.351771 247.130342 
L 378.888848 246.823166 
L 379.963 246.823166 
L 379.963 248.666222 
L 378.888848 248.973398 
L 378.351771 249.280574 
L 378.351771 248.973398 
z
" clip-path="url(#p7a60651ff5)" style="fill: #e74c3c; stroke: #ffffff; stroke-width: 0.6"/>
   </g>
   <g id="text_1">
    <g id="patch_2">
     <path d="M 363.896995 249.573208 
L 398.177308 249.573208 
Q 399.577308 249.573208 399.577308 248.173208 
L 399.577308 241.172661 
Q 399.577308 239.772661 398.177308 239.772661 
L 363.896995 239.772661 
Q 362.496995 239.772661 362.496995 241.172661 
L 362.496995 248.173208 
Q 362.496995 249.573208 363.896995 249.573208 
z
" clip-path="url(#p7a60651ff5)" style="fill: #ffffff; opacity: 0.6"/>
    </g>
    <g clip-path="url(#p7a60651ff5)">
     <!-- Dhekelia -->
     <g style="fill: #1a252f" transform="translate(363.896995 246.491567) scale(0.07 -0.07)">
      <defs>
       <path id="DejaVuSans-Bold-27" d="M 1791 3756 
L 1791 909 
L 2222 909 
Q 2959 909 3348 1275 
Q 3738 1641 3738 2338 
Q 3738 3031 3350 3393 
Q 2963 3756 2222 3756 
L 1791 3756 
z
M 588 4666 
L 1856 4666 
Q 2919 4666 3439 4514 
Q 3959 4363 4331 4000 
Q 4659 3684 4818 3271 
Q 4978 2859 4978 2338 
Q 4978 1809 4818 1395 
Q 4659 981 4331 666 
Q 3956 303 3431 151 
Q 2906 0 1856 0 
L 588 0 
L 588 4666 
z
" transform="scale(0.015625)"/>
       <path id="DejaVuSans-Bold-4b" d="M 4056 2131 
L 4056 0 
L 2931 0 
L 2931 347 
L 2931 1625 
Q 2931 2084 2911 2256 
Q 2891 2428 2841 2509 
Q 2775 2619 2662 2680 
Q 2550 2741 2406 2741 
Q 2056 2741 1856 2470 
Q 1656 2200 1656 1722 
L 1656 0 
L 538 0 
L 538 4863 
L 1656 4863 
L 1656 2988 
Q 1909 3294 2193 3439 
Q 2478 3584 2822 3584 
Q 3428 3584 3742 3212 
Q 4056 2841 4056 2131 
z
" transform="scale(0.015625)"/>
       <path id="DejaVuSans-Bold-48" d="M 4031 1759 
L 4031 1441 
L 1416 1441 
Q 1456 1047 1700 850 
Q 1944 653 2381 653 
Q 2734 653 3104 758 
Q 3475 863 3866 1075 
L 3866 213 
Q 3469 63 3072 -14 
Q 2675 -91 2278 -91 
Q 1328 -91 801 392 
Q 275 875 275 1747 
Q 275 2603 792 3093 
Q 1309 3584 2216 3584 
Q 3041 3584 3536 3087 
Q 4031 2591 4031 1759 
z
M 2881 2131 
Q 2881 2450 2695 2645 
Q 2509 2841 2209 2841 
Q 1884 2841 1681 2658 
Q 1478 2475 1428 2131 
L 2881 2131 
z
" transform="scale(0.015625)"/>
       <path id="DejaVuSans-Bold-4e" d="M 538 4863 
L 1656 4863 
L 1656 2216 
L 2944 3500 
L 4244 3500 
L 2534 1894 
L 4378 0 
L 3022 0 
L 1656 1459 
L 1656 0 
L 538 0 
L 538 4863 
z
" transform="scale(0.015625)"/>
       <path id="DejaVuSans-Bold-4f" d="M 538 4863 
L 1656 4863 
L 1656 0 
L 538 0 
L 538 4863 
z
" transform="scale(0.015625)"/>
       <path id="DejaVuSans-Bold-4c" d="M 538 3500 
L 1656 3500 
L 1656 0 
L 538 0 
L 538 3500 
z
M 538 4863 
L 1656 4863 
L 1656 3950 
L 538 3950 
L 538 4863 
z
" transform="scale(0.015625)"/>
       <path id="DejaVuSans-Bold-44" d="M 2106 1575 
Q 1756 1575 1579 1456 
Q 1403 1338 1403 1106 
Q 1403 894 1545 773 
Q 1688 653 1941 653 
Q 2256 653 2472 879 
Q 2688 1106 2688 1447 
L 2688 1575 
L 2106 1575 
z
M 3816 1997 
L 3816 0 
L 2688 0 
L 2688 519 
Q 2463 200 2181 54 
Q 1900 -91 1497 -91 
Q 953 -91 614 226 
Q 275 544 275 1050 
Q 275 1666 698 1953 
Q 1122 2241 2028 2241 
L 2688 2241 
L 2688 2328 
Q 2688 2594 2478 2717 
Q 2269 2841 1825 2841 
Q 1466 2841 1156 2769 
Q 847 2697 581 2553 
L 581 3406 
Q 941 3494 1303 3539 
Q 1666 3584 2028 3584 
Q 2975 3584 3395 3211 
Q 3816 2838 3816 1997 
z
" transform="scale(0.015625)"/>
      </defs>
      <use xlink:href="#DejaVuSans-Bold-27"/>
      <use xlink:href="#DejaVuSans-Bold-4b" transform="translate(83.015625 0)"/>
      <use xlink:href="#DejaVuSans-Bold-48" transform="translate(154.203125 0)"/>
      <use xlink:href="#DejaVuSans-Bold-4e" transform="translate(222.03125 0)"/>
      <use xlink:href="#DejaVuSans-Bold-48" transform="translate(285.84375 0)"/>
      <use xlink:href="#DejaVuSans-Bold-4f" transform="translate(353.671875 0)"/>
      <use xlink:href="#DejaVuSans-Bold-4c" transform="translate(387.953125 0)"/>
      <use xlink:href="#DejaVuSans-Bold-44" transform="translate(422.234375 0)"/>
     </g>
    </g>
   </g>
   <g id="text_2">
    <g id="patch_3">
     <path d="M 370.194313 191.516677 
L 408.46025 191.516677 
Q 409.86025 191.516677 409.86025 190.116677 
L 409.86025 183.116677 
Q 409.86025 181.716677 408.46025 181.716677 
L 370.194313 181.716677 
Q 368.794313 181.716677 368.794313 183.116677 
L 368.794313 190.116677 
Q 368.794313 191.516677 370.194313 191.516677 
z
" clip-path="url(#p7a60651ff5)" style="fill: #ffffff; opacity: 0.6"/>
    </g>
    <g clip-path="url(#p7a60651ff5)">
     <!-- N. Cyprus -->
     <g style="fill: #1a252f" transform="translate(370.194313 188.435036) scale(0.07 -0.07)">
      <defs>
       <path id="DejaVuSans-Bold-31" d="M 588 4666 
L 1931 4666 
L 3628 1466 
L 3628 4666 
L 4769 4666 
L 4769 0 
L 3425 0 
L 1728 3200 
L 1728 0 
L 588 0 
L 588 4666 
z
" transform="scale(0.015625)"/>
       <path id="DejaVuSans-Bold-11" d="M 653 1209 
L 1778 1209 
L 1778 0 
L 653 0 
L 653 1209 
z
" transform="scale(0.015625)"/>
       <path id="DejaVuSans-Bold-3" transform="scale(0.015625)"/>
       <path id="DejaVuSans-Bold-26" d="M 4288 256 
Q 3956 84 3597 -3 
Q 3238 -91 2847 -91 
Q 1681 -91 1000 561 
Q 319 1213 319 2328 
Q 319 3447 1000 4098 
Q 1681 4750 2847 4750 
Q 3238 4750 3597 4662 
Q 3956 4575 4288 4403 
L 4288 3438 
Q 3953 3666 3628 3772 
Q 3303 3878 2944 3878 
Q 2300 3878 1931 3465 
Q 1563 3053 1563 2328 
Q 1563 1606 1931 1193 
Q 2300 781 2944 781 
Q 3303 781 3628 887 
Q 3953 994 4288 1222 
L 4288 256 
z
" transform="scale(0.015625)"/>
       <path id="DejaVuSans-Bold-5c" d="M 78 3500 
L 1197 3500 
L 2138 1125 
L 2938 3500 
L 4056 3500 
L 2584 -331 
Q 2363 -916 2067 -1148 
Q 1772 -1381 1288 -1381 
L 641 -1381 
L 641 -647 
L 991 -647 
Q 1275 -647 1404 -556 
Q 1534 -466 1606 -231 
L 1638 -134 
L 78 3500 
z
" transform="scale(0.015625)"/>
       <path id="DejaVuSans-Bold-53" d="M 1656 506 
L 1656 -1331 
L 538 -1331 
L 538 3500 
L 1656 3500 
L 1656 2988 
Q 1888 3294 2169 3439 
Q 2450 3584 2816 3584 
Q 3463 3584 3878 3070 
Q 4294 2556 4294 1747 
Q 4294 938 3878 423 
Q 3463 -91 2816 -91 
Q 2450 -91 2169 54 
Q 1888 200 1656 506 
z
M 2400 2772 
Q 2041 2772 1848 2508 
Q 1656 2244 1656 1747 
Q 1656 1250 1848 986 
Q 2041 722 2400 722 
Q 2759 722 2948 984 
Q 3138 1247 3138 1747 
Q 3138 2247 2948 2509 
Q 2759 2772 2400 2772 
z
" transform="scale(0.015625)"/>
       <path id="DejaVuSans-Bold-55" d="M 3138 2547 
Q 2991 2616 2845 2648 
Q 2700 2681 2553 2681 
Q 2122 2681 1889 2404 
Q 1656 2128 1656 1613 
L 1656 0 
L 538 0 
L 538 3500 
L 1656 3500 
L 1656 2925 
Q 1872 3269 2151 3426 
Q 2431 3584 2822 3584 
Q 2878 3584 2943 3579 
Q 3009 3575 3134 3559 
L 3138 2547 
z
" transform="scale(0.015625)"/>
       <path id="DejaVuSans-Bold-58" d="M 500 1363 
L 500 3500 
L 1625 3500 
L 1625 3150 
Q 1625 2866 1622 2436 
Q 1619 2006 1619 1863 
Q 1619 1441 1641 1255 
Q 1663 1069 1716 984 
Q 1784 875 1895 815 
Q 2006 756 2150 756 
Q 2500 756 2700 1025 
Q 2900 1294 2900 1772 
L 2900 3500 
L 4019 3500 
L 4019 0 
L 2900 0 
L 2900 506 
Q 2647 200 2364 54 
Q 2081 -91 1741 -91 
Q 1134 -91 817 281 
Q 500 653 500 1363 
z
" transform="scale(0.015625)"/>
       <path id="DejaVuSans-Bold-56" d="M 3272 3391 
L 3272 2541 
Q 2913 2691 2578 2766 
Q 2244 2841 1947 2841 
Q 1628 2841 1473 2761 
Q 1319 2681 1319 2516 
Q 1319 2381 1436 2309 
Q 1553 2238 1856 2203 
L 2053 2175 
Q 2913 2066 3209 1816 
Q 3506 1566 3506 1031 
Q 3506 472 3093 190 
Q 2681 -91 1863 -91 
Q 1516 -91 1145 -36 
Q 775 19 384 128 
L 384 978 
Q 719 816 1070 734 
Q 1422 653 1784 653 
Q 2113 653 2278 743 
Q 2444 834 2444 1013 
Q 2444 1163 2330 1236 
Q 2216 1309 1875 1350 
L 1678 1375 
Q 931 1469 631 1722 
Q 331 1975 331 2491 
Q 331 3047 712 3315 
Q 1094 3584 1881 3584 
Q 2191 3584 2531 3537 
Q 2872 3491 3272 3391 
z
" transform="scale(0.015625)"/>
      </defs>
      <use xlink:href="#DejaVuSans-Bold-31"/>
      <use xlink:href="#DejaVuSans-Bold-11" transform="translate(83.6875 0)"/>
      <use xlink:href="#DejaVuSans-Bold-3" transform="translate(121.671875 0)"/>
      <use xlink:href="#DejaVuSans-Bold-26" transform="translate(156.484375 0)"/>
      <use xlink:href="#DejaVuSans-Bold-5c" transform="translate(229.875 0)"/>
      <use xlink:href="#DejaVuSans-Bold-53" transform="translate(295.0625 0)"/>
      <use xlink:href="#DejaVuSans-Bold-55" transform="translate(366.640625 0)"/>
      <use xlink:href="#DejaVuSans-Bold-58" transform="translate(415.953125 0)"/>
      <use xlink:href="#DejaVuSans-Bold-56" transform="translate(487.140625 0)"/>
     </g>
    </g>
   </g>
   <g id="text_3">
    <g id="patch_4">
     <path d="M 363.671064 243.736864 
L 458.958564 243.736864 
Q 460.358564 243.736864 460.358564 242.336864 
L 460.358564 235.336317 
Q 460.358564 233.936317 458.958564 233.936317 
L 363.671064 233.936317 
Q 362.271064 233.936317 362.271064 235.336317 
L 362.271064 242.336864 
Q 362.271064 243.736864 363.671064 243.736864 
z
" clip-path="url(#p7a60651ff5)" style="fill: #ffffff; opacity: 0.6"/>
    </g>
    <g clip-path="url(#p7a60651ff5)">
     <!-- Cyprus U.N. Buffer Zone -->
     <g style="fill: #1a252f" transform="translate(363.671064 240.655224) scale(0.07 -0.07)">
      <defs>
       <path id="DejaVuSans-Bold-38" d="M 588 4666 
L 1791 4666 
L 1791 1869 
Q 1791 1291 1980 1042 
Q 2169 794 2597 794 
Q 3028 794 3217 1042 
Q 3406 1291 3406 1869 
L 3406 4666 
L 4609 4666 
L 4609 1869 
Q 4609 878 4112 393 
Q 3616 -91 2597 -91 
Q 1581 -91 1084 393 
Q 588 878 588 1869 
L 588 4666 
z
" transform="scale(0.015625)"/>
       <path id="DejaVuSans-Bold-25" d="M 2456 2859 
Q 2741 2859 2887 2984 
Q 3034 3109 3034 3353 
Q 3034 3594 2887 3720 
Q 2741 3847 2456 3847 
L 1791 3847 
L 1791 2859 
L 2456 2859 
z
M 2497 819 
Q 2859 819 3042 972 
Q 3225 1125 3225 1434 
Q 3225 1738 3044 1889 
Q 2863 2041 2497 2041 
L 1791 2041 
L 1791 819 
L 2497 819 
z
M 3616 2497 
Q 4003 2384 4215 2081 
Q 4428 1778 4428 1338 
Q 4428 663 3972 331 
Q 3516 0 2584 0 
L 588 0 
L 588 4666 
L 2394 4666 
Q 3366 4666 3802 4372 
Q 4238 4078 4238 3431 
Q 4238 3091 4078 2852 
Q 3919 2613 3616 2497 
z
" transform="scale(0.015625)"/>
       <path id="DejaVuSans-Bold-13aa" d="M 2841 4863 
L 2841 4128 
L 2222 4128 
Q 1984 4128 1891 4044 
Q 1797 3956 1797 3744 
L 1797 3500 
L 3078 3500 
L 3078 3744 
Q 3078 4316 3397 4588 
Q 3716 4863 4384 4863 
L 5241 4863 
L 5241 4128 
L 4622 4128 
Q 4384 4128 4291 4044 
Q 4197 3956 4197 3744 
L 4197 3500 
L 5153 3500 
L 5153 2700 
L 4197 2700 
L 4197 0 
L 3078 0 
L 3078 2700 
L 1797 2700 
L 1797 0 
L 678 0 
L 678 2700 
L 122 2700 
L 122 3500 
L 678 3500 
L 678 3744 
Q 678 4316 997 4588 
Q 1316 4863 1984 4863 
L 2841 4863 
z
" transform="scale(0.015625)"/>
       <path id="DejaVuSans-Bold-3d" d="M 359 4666 
L 4281 4666 
L 4281 3938 
L 1778 909 
L 4353 909 
L 4353 0 
L 288 0 
L 288 728 
L 2791 3756 
L 359 3756 
L 359 4666 
z
" transform="scale(0.015625)"/>
       <path id="DejaVuSans-Bold-52" d="M 2203 2784 
Q 1831 2784 1636 2517 
Q 1441 2250 1441 1747 
Q 1441 1244 1636 976 
Q 1831 709 2203 709 
Q 2569 709 2762 976 
Q 2956 1244 2956 1747 
Q 2956 2250 2762 2517 
Q 2569 2784 2203 2784 
z
M 2203 3584 
Q 3106 3584 3614 3096 
Q 4122 2609 4122 1747 
Q 4122 884 3614 396 
Q 3106 -91 2203 -91 
Q 1297 -91 786 396 
Q 275 884 275 1747 
Q 275 2609 786 3096 
Q 1297 3584 2203 3584 
z
" transform="scale(0.015625)"/>
       <path id="DejaVuSans-Bold-51" d="M 4056 2131 
L 4056 0 
L 2931 0 
L 2931 347 
L 2931 1631 
Q 2931 2084 2911 2256 
Q 2891 2428 2841 2509 
Q 2775 2619 2662 2680 
Q 2550 2741 2406 2741 
Q 2056 2741 1856 2470 
Q 1656 2200 1656 1722 
L 1656 0 
L 538 0 
L 538 3500 
L 1656 3500 
L 1656 2988 
Q 1909 3294 2193 3439 
Q 2478 3584 2822 3584 
Q 3428 3584 3742 3212 
Q 4056 2841 4056 2131 
z
" transform="scale(0.015625)"/>
      </defs>
      <use xlink:href="#DejaVuSans-Bold-26"/>
      <use xlink:href="#DejaVuSans-Bold-5c" transform="translate(73.390625 0)"/>
      <use xlink:href="#DejaVuSans-Bold-53" transform="translate(138.578125 0)"/>
      <use xlink:href="#DejaVuSans-Bold-55" transform="translate(210.15625 0)"/>
      <use xlink:href="#DejaVuSans-Bold-58" transform="translate(259.46875 0)"/>
      <use xlink:href="#DejaVuSans-Bold-56" transform="translate(330.65625 0)"/>
      <use xlink:href="#DejaVuSans-Bold-3" transform="translate(390.171875 0)"/>
      <use xlink:href="#DejaVuSans-Bold-38" transform="translate(424.984375 0)"/>
      <use xlink:href="#DejaVuSans-Bold-11" transform="translate(506.1875 0)"/>
      <use xlink:href="#DejaVuSans-Bold-31" transform="translate(544.171875 0)"/>
      <use xlink:href="#DejaVuSans-Bold-11" transform="translate(627.859375 0)"/>
      <use xlink:href="#DejaVuSans-Bold-3" transform="translate(665.84375 0)"/>
      <use xlink:href="#DejaVuSans-Bold-25" transform="translate(700.65625 0)"/>
      <use xlink:href="#DejaVuSans-Bold-58" transform="translate(776.875 0)"/>
      <use xlink:href="#DejaVuSans-Bold-13aa" transform="translate(848.0625 0)"/>
      <use xlink:href="#DejaVuSans-Bold-48" transform="translate(929.0625 0)"/>
      <use xlink:href="#DejaVuSans-Bold-55" transform="translate(996.890625 0)"/>
      <use xlink:href="#DejaVuSans-Bold-3" transform="translate(1046.203125 0)"/>
      <use xlink:href="#DejaVuSans-Bold-3d" transform="translate(1081.015625 0)"/>
      <use xlink:href="#DejaVuSans-Bold-52" transform="translate(1153.53125 0)"/>
      <use xlink:href="#DejaVuSans-Bold-51" transform="translate(1222.234375 0)"/>
      <use xlink:href="#DejaVuSans-Bold-48" transform="translate(1293.421875 0)"/>
     </g>
    </g>
   </g>
   <g id="text_4">
    <g id="patch_5">
     <path d="M 243.305285 320.377267 
L 273.235754 320.377267 
Q 274.635754 320.377267 274.635754 318.977267 
L 274.635754 311.97672 
Q 274.635754 310.57672 273.235754 310.57672 
L 243.305285 310.57672 
Q 241.905285 310.57672 241.905285 311.97672 
L 241.905285 318.977267 
Q 241.905285 320.377267 243.305285 320.377267 
z
" clip-path="url(#p7a60651ff5)" style="fill: #ffffff; opacity: 0.6"/>
    </g>
    <g clip-path="url(#p7a60651ff5)">
     <!-- Akrotiri -->
     <g style="fill: #1a252f" transform="translate(243.305285 317.295627) scale(0.07 -0.07)">
      <defs>
       <path id="DejaVuSans-Bold-24" d="M 3419 850 
L 1538 850 
L 1241 0 
L 31 0 
L 1759 4666 
L 3194 4666 
L 4922 0 
L 3713 0 
L 3419 850 
z
M 1838 1716 
L 3116 1716 
L 2478 3572 
L 1838 1716 
z
" transform="scale(0.015625)"/>
       <path id="DejaVuSans-Bold-57" d="M 1759 4494 
L 1759 3500 
L 2913 3500 
L 2913 2700 
L 1759 2700 
L 1759 1216 
Q 1759 972 1856 886 
Q 1953 800 2241 800 
L 2816 800 
L 2816 0 
L 1856 0 
Q 1194 0 917 276 
Q 641 553 641 1216 
L 641 2700 
L 84 2700 
L 84 3500 
L 641 3500 
L 641 4494 
L 1759 4494 
z
" transform="scale(0.015625)"/>
      </defs>
      <use xlink:href="#DejaVuSans-Bold-24"/>
      <use xlink:href="#DejaVuSans-Bold-4e" transform="translate(77.390625 0)"/>
      <use xlink:href="#DejaVuSans-Bold-55" transform="translate(143.890625 0)"/>
      <use xlink:href="#DejaVuSans-Bold-52" transform="translate(193.203125 0)"/>
      <use xlink:href="#DejaVuSans-Bold-57" transform="translate(261.90625 0)"/>
      <use xlink:href="#DejaVuSans-Bold-4c" transform="translate(309.703125 0)"/>
      <use xlink:href="#DejaVuSans-Bold-55" transform="translate(343.984375 0)"/>
      <use xlink:href="#DejaVuSans-Bold-4c" transform="translate(393.296875 0)"/>
     </g>
    </g>
   </g>
   <g id="text_5">
    <!-- Cyprus -->
    <g style="fill: #1a252f" transform="translate(262.208913 20.116016) scale(0.17 -0.17)">
     <use xlink:href="#DejaVuSans-Bold-26"/>
     <use xlink:href="#DejaVuSans-Bold-5c" transform="translate(73.390625 0)"/>
     <use xlink:href="#DejaVuSans-Bold-53" transform="translate(138.578125 0)"/>
     <use xlink:href="#DejaVuSans-Bold-55" transform="translate(210.15625 0)"/>
     <use xlink:href="#DejaVuSans-Bold-58" transform="translate(259.46875 0)"/>
     <use xlink:href="#DejaVuSans-Bold-56" transform="translate(330.65625 0)"/>
    </g>
   </g>
   <g id="line2d_1">
    <path d="M 300.575373 231.341427 
" clip-path="url(#p7a60651ff5)" style="fill: none; stroke: #ffffff; stroke-width: 1.5; stroke-linecap: square"/>
    <defs>
     <path id="m43d1fed215" d="M 0 2.5 
C 0.663008 2.5 1.29895 2.236584 1.767767 1.767767 
C 2.236584 1.29895 2.5 0.663008 2.5 0 
C 2.5 -0.663008 2.236584 -1.29895 1.767767 -1.767767 
C 1.29895 -2.236584 0.663008 -2.5 0 -2.5 
C -0.663008 -2.5 -1.29895 -2.236584 -1.767767 -1.767767 
C -2.236584 -1.29895 -2.5 -0.663008 -2.5 0 
C -2.5 0.663008 -2.236584 1.29895 -1.767767 1.767767 
C -1.29895 2.236584 -0.663008 2.5 0 2.5 
z
" style="stroke: #1a252f; stroke-width: 0.8"/>
    </defs>
    <g clip-path="url(#p7a60651ff5)">
     <use xlink:href="#m43d1fed215" x="300.575373" y="231.341427" style="fill: #ffffff; stroke: #1a252f; stroke-width: 0.8"/>
    </g>
   </g>
   <g id="text_6">
    <g clip-path="url(#p7a60651ff5)">
     <!-- Nicosia -->
     <g style="fill: #ffffff" transform="translate(319.578466 233.289963) scale(0.075 -0.075)">
      <defs>
       <path id="DejaVuSans-Bold-46" d="M 3366 3391 
L 3366 2478 
Q 3138 2634 2908 2709 
Q 2678 2784 2431 2784 
Q 1963 2784 1702 2511 
Q 1441 2238 1441 1747 
Q 1441 1256 1702 982 
Q 1963 709 2431 709 
Q 2694 709 2930 787 
Q 3166 866 3366 1019 
L 3366 103 
Q 3103 6 2833 -42 
Q 2563 -91 2291 -91 
Q 1344 -91 809 395 
Q 275 881 275 1747 
Q 275 2613 809 3098 
Q 1344 3584 2291 3584 
Q 2566 3584 2833 3536 
Q 3100 3488 3366 3391 
z
" transform="scale(0.015625)"/>
      </defs>
      <use xlink:href="#DejaVuSans-Bold-31"/>
      <use xlink:href="#DejaVuSans-Bold-4c" transform="translate(83.6875 0)"/>
      <use xlink:href="#DejaVuSans-Bold-46" transform="translate(117.96875 0)"/>
      <use xlink:href="#DejaVuSans-Bold-52" transform="translate(177.25 0)"/>
      <use xlink:href="#DejaVuSans-Bold-56" transform="translate(245.953125 0)"/>
      <use xlink:href="#DejaVuSans-Bold-4c" transform="translate(305.46875 0)"/>
      <use xlink:href="#DejaVuSans-Bold-44" transform="translate(339.75 0)"/>
     </g>
    </g>
   </g>
   <g id="legend_1">
    <g id="patch_6">
     <path d="M 13.5 498.656016 
L 88.097344 498.656016 
Q 89.897344 498.656016 89.897344 496.856016 
L 89.897344 470.754609 
Q 89.897344 468.954609 88.097344 468.954609 
L 13.5 468.954609 
Q 11.7 468.954609 11.7 470.754609 
L 11.7 496.856016 
Q 11.7 498.656016 13.5 498.656016 
z
" style="fill: #ffffff; opacity: 0.85; stroke: #cccccc; stroke-linejoin: miter"/>
    </g>
    <g id="patch_7">
     <path d="M 15.3 479.393203 
L 33.3 479.393203 
L 33.3 473.093203 
L 15.3 473.093203 
z
" style="fill: #e74c3c; stroke: #888888; stroke-linejoin: miter"/>
    </g>
    <g id="text_7">
     <!-- Cyprus -->
     <g transform="translate(40.5 479.393203) scale(0.09 -0.09)">
      <defs>
       <path id="DejaVuSans-26" d="M 4122 4306 
L 4122 3641 
Q 3803 3938 3442 4084 
Q 3081 4231 2675 4231 
Q 1875 4231 1450 3742 
Q 1025 3253 1025 2328 
Q 1025 1406 1450 917 
Q 1875 428 2675 428 
Q 3081 428 3442 575 
Q 3803 722 4122 1019 
L 4122 359 
Q 3791 134 3420 21 
Q 3050 -91 2638 -91 
Q 1578 -91 968 557 
Q 359 1206 359 2328 
Q 359 3453 968 4101 
Q 1578 4750 2638 4750 
Q 3056 4750 3426 4639 
Q 3797 4528 4122 4306 
z
" transform="scale(0.015625)"/>
       <path id="DejaVuSans-5c" d="M 2059 -325 
Q 1816 -950 1584 -1140 
Q 1353 -1331 966 -1331 
L 506 -1331 
L 506 -850 
L 844 -850 
Q 1081 -850 1212 -737 
Q 1344 -625 1503 -206 
L 1606 56 
L 191 3500 
L 800 3500 
L 1894 763 
L 2988 3500 
L 3597 3500 
L 2059 -325 
z
" transform="scale(0.015625)"/>
       <path id="DejaVuSans-53" d="M 1159 525 
L 1159 -1331 
L 581 -1331 
L 581 3500 
L 1159 3500 
L 1159 2969 
Q 1341 3281 1617 3432 
Q 1894 3584 2278 3584 
Q 2916 3584 3314 3078 
Q 3713 2572 3713 1747 
Q 3713 922 3314 415 
Q 2916 -91 2278 -91 
Q 1894 -91 1617 61 
Q 1341 213 1159 525 
z
M 3116 1747 
Q 3116 2381 2855 2742 
Q 2594 3103 2138 3103 
Q 1681 3103 1420 2742 
Q 1159 2381 1159 1747 
Q 1159 1113 1420 752 
Q 1681 391 2138 391 
Q 2594 391 2855 752 
Q 3116 1113 3116 1747 
z
" transform="scale(0.015625)"/>
       <path id="DejaVuSans-55" d="M 2631 2963 
Q 2534 3019 2420 3045 
Q 2306 3072 2169 3072 
Q 1681 3072 1420 2755 
Q 1159 2438 1159 1844 
L 1159 0 
L 581 0 
L 581 3500 
L 1159 3500 
L 1159 2956 
Q 1341 3275 1631 3429 
Q 1922 3584 2338 3584 
Q 2397 3584 2469 3576 
Q 2541 3569 2628 3553 
L 2631 2963 
z
" transform="scale(0.015625)"/>
       <path id="DejaVuSans-58" d="M 544 1381 
L 544 3500 
L 1119 3500 
L 1119 1403 
Q 1119 906 1312 657 
Q 1506 409 1894 409 
Q 2359 409 2629 706 
Q 2900 1003 2900 1516 
L 2900 3500 
L 3475 3500 
L 3475 0 
L 2900 0 
L 2900 538 
Q 2691 219 2414 64 
Q 2138 -91 1772 -91 
Q 1169 -91 856 284 
Q 544 659 544 1381 
z
M 1991 3584 
L 1991 3584 
z
" transform="scale(0.015625)"/>
       <path id="DejaVuSans-56" d="M 2834 3397 
L 2834 2853 
Q 2591 2978 2328 3040 
Q 2066 3103 1784 3103 
Q 1356 3103 1142 2972 
Q 928 2841 928 2578 
Q 928 2378 1081 2264 
Q 1234 2150 1697 2047 
L 1894 2003 
Q 2506 1872 2764 1633 
Q 3022 1394 3022 966 
Q 3022 478 2636 193 
Q 2250 -91 1575 -91 
Q 1294 -91 989 -36 
Q 684 19 347 128 
L 347 722 
Q 666 556 975 473 
Q 1284 391 1588 391 
Q 1994 391 2212 530 
Q 2431 669 2431 922 
Q 2431 1156 2273 1281 
Q 2116 1406 1581 1522 
L 1381 1569 
Q 847 1681 609 1914 
Q 372 2147 372 2553 
Q 372 3047 722 3315 
Q 1072 3584 1716 3584 
Q 2034 3584 2315 3537 
Q 2597 3491 2834 3397 
z
" transform="scale(0.015625)"/>
      </defs>
      <use xlink:href="#DejaVuSans-26"/>
      <use xlink:href="#DejaVuSans-5c" transform="translate(69.828125 0)"/>
      <use xlink:href="#DejaVuSans-53" transform="translate(129.015625 0)"/>
      <use xlink:href="#DejaVuSans-55" transform="translate(192.5 0)"/>
      <use xlink:href="#DejaVuSans-58" transform="translate(233.609375 0)"/>
      <use xlink:href="#DejaVuSans-56" transform="translate(296.984375 0)"/>
     </g>
    </g>
    <g id="patch_8">
     <path d="M 15.3 492.893906 
L 33.3 492.893906 
L 33.3 486.593906 
L 15.3 486.593906 
z
" style="fill: #bdc3c7; stroke: #888888; stroke-linejoin: miter"/>
    </g>
    <g id="text_8">
     <!-- Neighbors -->
     <g transform="translate(40.5 492.893906) scale(0.09 -0.09)">
      <defs>
       <path id="DejaVuSans-31" d="M 628 4666 
L 1478 4666 
L 3547 763 
L 3547 4666 
L 4159 4666 
L 4159 0 
L 3309 0 
L 1241 3903 
L 1241 0 
L 628 0 
L 628 4666 
z
" transform="scale(0.015625)"/>
       <path id="DejaVuSans-48" d="M 3597 1894 
L 3597 1613 
L 953 1613 
Q 991 1019 1311 708 
Q 1631 397 2203 397 
Q 2534 397 2845 478 
Q 3156 559 3463 722 
L 3463 178 
Q 3153 47 2828 -22 
Q 2503 -91 2169 -91 
Q 1331 -91 842 396 
Q 353 884 353 1716 
Q 353 2575 817 3079 
Q 1281 3584 2069 3584 
Q 2775 3584 3186 3129 
Q 3597 2675 3597 1894 
z
M 3022 2063 
Q 3016 2534 2758 2815 
Q 2500 3097 2075 3097 
Q 1594 3097 1305 2825 
Q 1016 2553 972 2059 
L 3022 2063 
z
" transform="scale(0.015625)"/>
       <path id="DejaVuSans-4c" d="M 603 3500 
L 1178 3500 
L 1178 0 
L 603 0 
L 603 3500 
z
M 603 4863 
L 1178 4863 
L 1178 4134 
L 603 4134 
L 603 4863 
z
" transform="scale(0.015625)"/>
       <path id="DejaVuSans-4a" d="M 2906 1791 
Q 2906 2416 2648 2759 
Q 2391 3103 1925 3103 
Q 1463 3103 1205 2759 
Q 947 2416 947 1791 
Q 947 1169 1205 825 
Q 1463 481 1925 481 
Q 2391 481 2648 825 
Q 2906 1169 2906 1791 
z
M 3481 434 
Q 3481 -459 3084 -895 
Q 2688 -1331 1869 -1331 
Q 1566 -1331 1297 -1286 
Q 1028 -1241 775 -1147 
L 775 -588 
Q 1028 -725 1275 -790 
Q 1522 -856 1778 -856 
Q 2344 -856 2625 -561 
Q 2906 -266 2906 331 
L 2906 616 
Q 2728 306 2450 153 
Q 2172 0 1784 0 
Q 1141 0 747 490 
Q 353 981 353 1791 
Q 353 2603 747 3093 
Q 1141 3584 1784 3584 
Q 2172 3584 2450 3431 
Q 2728 3278 2906 2969 
L 2906 3500 
L 3481 3500 
L 3481 434 
z
" transform="scale(0.015625)"/>
       <path id="DejaVuSans-4b" d="M 3513 2113 
L 3513 0 
L 2938 0 
L 2938 2094 
Q 2938 2591 2744 2837 
Q 2550 3084 2163 3084 
Q 1697 3084 1428 2787 
Q 1159 2491 1159 1978 
L 1159 0 
L 581 0 
L 581 4863 
L 1159 4863 
L 1159 2956 
Q 1366 3272 1645 3428 
Q 1925 3584 2291 3584 
Q 2894 3584 3203 3211 
Q 3513 2838 3513 2113 
z
" transform="scale(0.015625)"/>
       <path id="DejaVuSans-45" d="M 3116 1747 
Q 3116 2381 2855 2742 
Q 2594 3103 2138 3103 
Q 1681 3103 1420 2742 
Q 1159 2381 1159 1747 
Q 1159 1113 1420 752 
Q 1681 391 2138 391 
Q 2594 391 2855 752 
Q 3116 1113 3116 1747 
z
M 1159 2969 
Q 1341 3281 1617 3432 
Q 1894 3584 2278 3584 
Q 2916 3584 3314 3078 
Q 3713 2572 3713 1747 
Q 3713 922 3314 415 
Q 2916 -91 2278 -91 
Q 1894 -91 1617 61 
Q 1341 213 1159 525 
L 1159 0 
L 581 0 
L 581 4863 
L 1159 4863 
L 1159 2969 
z
" transform="scale(0.015625)"/>
       <path id="DejaVuSans-52" d="M 1959 3097 
Q 1497 3097 1228 2736 
Q 959 2375 959 1747 
Q 959 1119 1226 758 
Q 1494 397 1959 397 
Q 2419 397 2687 759 
Q 2956 1122 2956 1747 
Q 2956 2369 2687 2733 
Q 2419 3097 1959 3097 
z
M 1959 3584 
Q 2709 3584 3137 3096 
Q 3566 2609 3566 1747 
Q 3566 888 3137 398 
Q 2709 -91 1959 -91 
Q 1206 -91 779 398 
Q 353 888 353 1747 
Q 353 2609 779 3096 
Q 1206 3584 1959 3584 
z
" transform="scale(0.015625)"/>
      </defs>
      <use xlink:href="#DejaVuSans-31"/>
      <use xlink:href="#DejaVuSans-48" transform="translate(74.8125 0)"/>
      <use xlink:href="#DejaVuSans-4c" transform="translate(136.34375 0)"/>
      <use xlink:href="#DejaVuSans-4a" transform="translate(164.125 0)"/>
      <use xlink:href="#DejaVuSans-4b" transform="translate(227.609375 0)"/>
      <use xlink:href="#DejaVuSans-45" transform="translate(290.984375 0)"/>
      <use xlink:href="#DejaVuSans-52" transform="translate(354.46875 0)"/>
      <use xlink:href="#DejaVuSans-55" transform="translate(415.65625 0)"/>
      <use xlink:href="#DejaVuSans-56" transform="translate(456.765625 0)"/>
     </g>
    </g>
   </g>
  </g>
 </g>
 <defs>
  <clipPath id="p7a60651ff5">
   <rect x="7.2" y="30.116016" width="576.347045" height="473.04"/>
  </clipPath>
 </defs>
</svg>
