<?xml version="1.0" encoding="utf-8" standalone="no"?>
<!DOCTYPE svg PUBLIC "-//W3C//DTD SVG 1.1//EN"
  "http://www.w3.org/Graphics/SVG/1.1/DTD/svg11.dtd">
<svg xmlns:xlink="http://www.w3.org/1999/xlink" width="415.644102pt" height="510.357344pt" viewBox="0 0 415.644102 510.357344" xmlns="http://www.w3.org/2000/svg" version="1.1">
 <metadata>
  <rdf:RDF xmlns:dc="http://purl.org/dc/elements/1.1/" xmlns:cc="http://creativecommons.org/ns#" xmlns:rdf="http://www.w3.org/1999/02/22-rdf-syntax-ns#">
   <cc:Work>
    <dc:type rdf:resource="http://purl.org/dc/dcmitype/StillImage"/>
    <dc:date>2026-06-19T08:36:05.734429</dc:date>
    <dc:format>image/svg+xml</dc:format>
    <dc:creator>
     <cc:Agent>
      <dc:title>Matplotlib v3.11.0, https://matplotlib.org/</dc:title>
     </cc:Agent>
    </dc:creator>
   </cc:Work>
  </rdf:RDF>
 </metadata>
 <defs>
  <style type="text/css">*{stroke-linejoin: round; stroke-linecap: butt}</style>
 </defs>
 <g id="figure_1">
  <g id="patch_1">
   <path d="M 0 510.357344 
L 415.644102 510.357344 
L 415.644102 0 
L 0 0 
z
" style="fill: #d6eaf8"/>
  </g>
  <g id="axes_1">
   <g id="PatchCollection_1">
    <path d="M -112.794699 255.362603 
L -112.037634 250.592521 
L -109.766441 248.857946 
L -105.224055 251.893453 
L -99.16754 258.831754 
L -96.139283 261.433617 
L -91.596897 263.168193 
L -83.269189 262.734549 
L -75.698546 258.831754 
L -68.884967 252.76074 
L -64.342581 245.822438 
L -61.314323 238.016849 
L -59.04313 233.68041 
L -56.014873 231.078547 
L -55.257808 229.777616 
L -54.500744 228.910328 
L -53.74368 228.04304 
L -52.229551 228.476684 
L -50.715422 229.777616 
L -49.201294 230.21126 
L -46.930101 229.777616 
L -45.415972 232.379479 
L -42.387715 234.547698 
L -39.359457 234.981342 
L -37.088264 234.547698 
L -34.060007 232.379479 
L -32.545878 229.343972 
L -31.031749 225.874821 
L -24.975235 226.742109 
L -23.461106 233.68041 
L -21.946977 237.149561 
L -20.432849 239.751424 
L -16.647527 241.486 
L -11.348076 243.220575 
L -6.80569 245.388795 
L -3.020369 247.557014 
L -0.749176 249.725233 
L 0.007889 253.194384 
L 0.007889 255.796247 
L 1.522017 257.964467 
L 3.79321 258.831754 
L 5.307339 258.831754 
L 10.60679 257.097179 
L 13.635047 255.362603 
L 14.392111 254.061672 
L 15.90624 251.459809 
L 17.420369 250.592521 
L 18.934497 251.459809 
L 20.448626 253.194384 
L 23.476883 255.362603 
L 26.505141 255.362603 
L 29.533398 253.628028 
L 33.31872 249.725233 
L 37.104042 245.822438 
L 40.889363 244.087863 
L 45.431749 241.052356 
L 47.702942 238.884137 
L 49.974135 238.450493 
L 55.273586 239.317781 
L 60.573036 240.185068 
L 65.872487 240.185068 
L 68.900744 238.884137 
L 70.414873 238.016849 
L 71.929001 235.84863 
L 76.471387 231.945835 
L 80.256709 231.945835 
L 82.527902 233.246767 
L 85.55616 234.547698 
L 88.584417 234.547698 
L 90.098546 235.414986 
L 93.126803 238.884137 
L 95.397996 241.486 
L 98.426253 243.654219 
L 103.725704 244.955151 
L 105.239833 244.087863 
L 105.996897 242.786931 
L 106.753961 240.618712 
L 109.025154 238.884137 
L 113.56754 234.114054 
L 115.081669 233.68041 
L 118.866991 234.114054 
L 124.166441 233.246767 
L 127.951763 232.813123 
L 128.708827 233.68041 
L 128.708827 236.715917 
L 129.465892 240.618712 
L 130.98002 242.353288 
L 133.251213 244.955151 
L 136.279471 247.990658 
L 137.036535 249.725233 
L 137.036535 254.061672 
L 137.036535 258.39811 
L 137.036535 263.168193 
L 135.522406 269.239207 
L 134.008278 273.575646 
L 134.765342 277.044796 
L 137.036535 279.64666 
L 139.307728 279.64666 
L 142.335985 278.779372 
L 143.850114 274.442933 
L 144.607178 267.070988 
L 146.121307 266.2037 
L 147.635436 264.469124 
L 149.149564 262.734549 
L 151.420758 264.469124 
L 151.420758 270.540138 
L 152.177822 274.009289 
L 155.206079 275.310221 
L 158.991401 273.575646 
L 160.50553 270.106495 
L 162.019658 268.805563 
L 164.290851 269.239207 
L 167.319109 270.973782 
L 168.833237 270.540138 
L 170.347366 269.672851 
L 172.618559 270.540138 
L 174.889752 271.407426 
L 179.432138 274.009289 
L 181.703331 274.442933 
L 183.974524 274.442933 
L 187.759846 277.044796 
L 187.759846 280.947591 
L 183.21746 282.682167 
L 177.91801 288.319537 
L 176.403881 291.355044 
L 174.889752 295.691482 
L 173.375624 300.027921 
L 173.375624 304.798003 
L 173.375624 309.568086 
L 173.375624 311.736305 
L 171.10443 312.603593 
L 169.590302 313.470881 
L 168.833237 318.240963 
L 167.319109 319.541895 
L 164.290851 320.842826 
L 157.477272 320.842826 
L 154.449015 321.27647 
L 152.934886 323.444689 
L 150.663693 326.480196 
L 148.3925 329.08206 
L 145.364243 330.382991 
L 138.550664 331.683923 
L 132.494149 334.71943 
L 127.194699 336.020361 
L 124.166441 332.117567 
L 124.166441 339.489512 
L 118.109926 342.958663 
L 102.211575 346.427814 
L 99.183318 347.728745 
L 97.669189 349.029677 
L 94.640932 350.764252 
L 91.612674 351.63154 
L 76.471387 349.463321 
L 61.330101 351.63154 
L 58.301843 352.498828 
L 55.273586 354.233403 
L 45.431749 363.339924 
L 43.160556 367.676363 
L 38.61817 367.676363 
L 34.075784 368.543651 
L 32.561656 370.278226 
L 31.047527 369.410938 
L 30.290462 365.508144 
L 33.31872 363.339924 
L 34.075784 364.640856 
L 37.861106 364.640856 
L 37.861106 357.702554 
L 30.290462 356.835267 
L 28.019269 359.43713 
L 26.505141 362.038993 
L 25.748076 360.738061 
L 22.719819 359.43713 
L 21.962755 361.171705 
L 15.90624 359.43713 
L 12.120918 356.401623 
L 10.60679 354.233403 
L 10.60679 350.764252 
L 9.092661 351.197896 
L 7.578532 351.197896 
L 6.821468 351.197896 
L 5.307339 351.197896 
L 4.550275 350.764252 
L 3.79321 352.065184 
L 3.036146 353.366116 
L 2.279082 354.233403 
L -0.749176 354.667047 
L -2.263304 358.569842 
L -6.048626 357.702554 
L -9.076883 357.26891 
L -10.591012 359.003486 
L -9.833948 362.906281 
L -12.862205 363.773568 
L -21.189913 365.0745 
L -30.274685 363.339924 
L -38.602393 359.43713 
L -49.201294 352.932472 
L -52.986615 351.197896 
L -57.529001 349.896965 
L -66.613774 349.029677 
L -70.399095 347.728745 
L -73.427353 345.560526 
L -81.75506 338.622224 
L -83.269189 337.321293 
L -84.783318 329.949347 
L -85.540382 328.648416 
L -85.540382 326.046552 
L -90.082768 312.603593 
L -92.353961 310.869017 
L -96.896347 307.83351 
L -99.16754 305.665291 
L -100.681669 303.063428 
L -102.195798 300.027921 
L -102.195798 296.55877 
L -100.681669 293.523263 
L -104.466991 286.584961 
L -105.224055 283.983098 
L -105.224055 278.345728 
L -105.981119 273.575646 
L -110.523505 265.770056 
L -112.037634 261.867261 
z
" clip-path="url(#pfb75ff135e)" style="fill: #bdc3c7; stroke: #ffffff; stroke-width: 0.5"/>
    <path d="M 208.200583 264.035481 
L 209.714712 260.999974 
L 211.228841 259.699042 
L 214.257098 258.39811 
L 215.771227 259.265398 
L 217.285355 260.999974 
L 220.313613 260.132686 
L 222.584806 258.39811 
L 224.098935 256.663535 
L 225.613063 255.362603 
L 229.398385 258.39811 
L 231.669578 259.265398 
L 233.940771 260.132686 
L 236.211964 260.999974 
L 239.240221 260.999974 
L 242.268479 259.265398 
L 246.053801 259.265398 
L 248.324994 260.56633 
L 250.596187 261.867261 
L 252.86738 261.433617 
L 254.381508 260.56633 
L 255.138573 259.265398 
L 258.16683 261.867261 
L 261.195087 265.336412 
L 263.46628 272.274714 
L 265.737473 277.044796 
L 268.765731 280.947591 
L 271.036924 282.682167 
L 268.765731 283.11581 
L 262.709216 282.682167 
L 257.409766 280.947591 
L 255.138573 278.345728 
L 252.86738 277.044796 
L 241.511414 278.779372 
L 231.669578 281.381235 
L 229.398385 282.682167 
L 227.884256 284.850386 
L 221.827742 283.549454 
L 218.04242 284.416742 
L 216.528291 283.11581 
L 218.799484 280.947591 
L 221.070677 280.513947 
L 221.070677 276.177509 
L 217.285355 275.743865 
L 214.257098 273.575646 
L 215.014162 267.938275 
L 213.500034 266.2037 
z
" clip-path="url(#pfb75ff135e)" style="fill: #bdc3c7; stroke: #ffffff; stroke-width: 0.5"/>
    <path d="M 199.872876 277.044796 
L 200.62994 276.611153 
L 201.387004 276.611153 
L 202.901133 277.044796 
L 203.658197 277.912084 
L 204.415262 277.912084 
L 205.92939 277.912084 
L 206.686455 278.345728 
L 207.443519 279.64666 
L 206.686455 279.64666 
L 205.92939 279.64666 
L 205.172326 280.080303 
L 204.415262 280.080303 
L 204.415262 279.213016 
L 203.658197 279.213016 
L 202.144069 279.213016 
L 202.144069 277.912084 
L 201.387004 277.47844 
z
" clip-path="url(#pfb75ff135e)" style="fill: #bdc3c7; stroke: #ffffff; stroke-width: 0.5"/>
    <path d="M 195.330489 272.708358 
L 196.087554 271.407426 
L 196.087554 270.540138 
L 196.844618 270.106495 
L 198.358747 270.106495 
L 198.358747 272.708358 
L 196.844618 273.142002 
L 196.087554 273.575646 
L 196.087554 273.142002 
z
" clip-path="url(#pfb75ff135e)" style="fill: #bdc3c7; stroke: #ffffff; stroke-width: 0.5"/>
    <path d="M -20.432849 231.945835 
L -20.432849 228.910328 
L -20.432849 227.175753 
L -13.619269 228.04304 
L -6.80569 230.21126 
L -1.50624 233.68041 
L 3.79321 235.84863 
L 12.120918 233.68041 
L 17.420369 228.910328 
L 21.962755 222.40567 
L 24.991012 214.166437 
L 26.505141 204.626272 
L 26.505141 187.280517 
L 25.748076 179.908572 
L 23.476883 171.669339 
L 28.776334 172.536626 
L 37.104042 177.740353 
L 41.646428 179.041284 
L 54.516521 181.643147 
L 69.657808 180.77586 
L 95.397996 184.24501 
L 99.183318 185.979586 
L 130.222956 189.448737 
L 178.675074 181.643147 
L 196.087554 171.669339 
L 205.172326 166.899256 
L 215.771227 168.633832 
L 227.127192 165.164681 
L 258.16683 153.022653 
L 266.494538 146.951639 
L 277.850503 142.6152 
L 288.449404 131.774103 
L 294.505919 130.473172 
L 306.618948 127.004021 
L 317.974913 123.53487 
L 326.302621 117.8975 
L 364.912903 99.684458 
L 372.483546 96.648951 
L 374.754739 96.215307 
L 373.997675 97.082595 
L 373.24061 97.949882 
L 372.483546 98.81717 
L 372.483546 99.684458 
L 371.726482 107.056403 
L 370.969417 108.790979 
L 369.455289 109.224623 
L 364.155838 110.09191 
L 363.398774 110.959198 
L 342.958037 123.968514 
L 324.788492 140.013337 
L 279.364632 167.3329 
L 273.308117 172.536626 
L 268.765731 179.041284 
L 264.980409 187.280517 
L 262.709216 190.749668 
L 259.680959 192.917888 
L 254.381508 193.351531 
L 249.082058 192.0506 
L 244.539672 191.616956 
L 239.997286 193.785175 
L 234.697835 202.458053 
L 231.669578 207.228135 
L 230.912514 211.564574 
L 229.398385 231.512191 
L 232.426642 233.68041 
L 240.75435 242.353288 
L 242.268479 244.955151 
L 243.782607 248.424302 
L 246.053801 251.459809 
L 252.86738 257.530823 
L 252.110315 258.39811 
L 243.025543 256.229891 
L 237.726093 258.39811 
L 234.697835 257.964467 
L 232.426642 257.097179 
L 230.912514 256.229891 
L 230.912514 255.796247 
L 232.426642 255.362603 
L 233.940771 253.194384 
L 232.426642 250.592521 
L 230.912514 250.592521 
L 230.912514 249.291589 
L 230.155449 248.424302 
L 229.398385 245.822438 
L 227.884256 245.388795 
L 227.127192 243.220575 
L 224.098935 243.220575 
L 223.34187 247.990658 
L 223.34187 251.893453 
L 224.855999 254.061672 
L 223.34187 255.362603 
L 222.584806 256.663535 
L 219.556548 258.831754 
L 217.285355 259.265398 
L 215.771227 257.530823 
L 213.500034 256.663535 
L 208.200583 260.56633 
L 207.443519 263.601837 
L 205.92939 264.035481 
L 203.658197 263.601837 
L 201.387004 265.770056 
L 196.087554 261.867261 
L 191.545168 265.770056 
L 189.273975 266.2037 
L 190.031039 263.601837 
L 191.545168 257.964467 
L 190.788103 256.663535 
L 188.51691 256.663535 
L 186.245717 258.831754 
L 183.21746 259.699042 
L 181.703331 261.867261 
L 182.460396 264.469124 
L 183.21746 265.336412 
L 180.946267 266.2037 
L 177.91801 265.770056 
L 177.160945 266.2037 
L 174.132688 266.2037 
L 169.590302 261.867261 
L 166.562044 263.168193 
L 164.290851 265.336412 
L 162.019658 264.902768 
L 158.991401 262.734549 
L 158.234337 258.831754 
L 156.720208 256.663535 
L 155.206079 255.362603 
L 153.691951 255.362603 
L 152.934886 256.663535 
L 152.934886 259.265398 
L 151.420758 259.699042 
L 149.149564 258.39811 
L 146.878371 258.39811 
L 145.364243 258.39811 
L 143.850114 259.265398 
L 142.335985 264.035481 
L 141.578921 265.770056 
L 140.821857 269.239207 
L 140.821857 271.84107 
L 140.821857 273.142002 
L 138.550664 272.708358 
L 137.793599 270.106495 
L 139.307728 264.035481 
L 140.821857 259.265398 
L 140.821857 254.061672 
L 140.821857 249.725233 
L 139.307728 247.12337 
L 134.765342 240.185068 
L 132.494149 235.84863 
L 130.222956 230.644903 
L 129.465892 227.175753 
L 128.708827 224.140246 
L 127.194699 222.839314 
L 124.166441 223.272958 
L 121.895248 225.441177 
L 120.381119 228.04304 
L 118.866991 229.343972 
L 112.810476 231.078547 
L 109.025154 231.078547 
L 106.753961 232.379479 
L 102.96864 231.945835 
L 96.912125 230.644903 
L 90.85561 229.777616 
L 87.070288 228.04304 
L 80.256709 225.007533 
L 73.44313 226.308465 
L 70.414873 227.609396 
L 65.115422 232.813123 
L 62.844229 233.246767 
L 60.573036 230.21126 
L 56.787715 231.512191 
L 52.245328 234.114054 
L 46.945878 235.414986 
L 43.160556 237.583205 
L 37.861106 240.185068 
L 34.075784 244.955151 
L 28.776334 247.557014 
L 26.505141 247.990658 
L 24.233948 248.424302 
L 21.962755 247.990658 
L 16.663304 247.557014 
L 14.392111 247.990658 
L 12.877983 248.857946 
L 10.60679 251.459809 
L 9.849725 253.628028 
L 6.064403 253.194384 
L 4.550275 247.990658 
L 0.764953 244.087863 
L -3.020369 241.486 
L -10.591012 239.751424 
L -13.619269 238.450493 
L -16.647527 237.149561 
L -18.91872 234.547698 
z
" clip-path="url(#pfb75ff135e)" style="fill: #bdc3c7; stroke: #ffffff; stroke-width: 0.5"/>
    <path d="M -43.901843 228.04304 
L -40.116521 226.308465 
L -35.574135 225.874821 
L -35.574135 226.742109 
L -36.3312 229.343972 
L -38.602393 231.512191 
L -40.873586 231.945835 
L -43.144779 229.343972 
z
" clip-path="url(#pfb75ff135e)" style="fill: #bdc3c7; stroke: #ffffff; stroke-width: 0.5"/>
    <path d="M -24.975235 226.742109 
L -20.432849 227.175753 
L -20.432849 228.910328 
L -20.432849 231.945835 
L -18.91872 234.547698 
L -16.647527 237.149561 
L -13.619269 238.450493 
L -10.591012 239.751424 
L -3.020369 241.486 
L 0.764953 244.087863 
L 4.550275 247.990658 
L 6.064403 253.194384 
L 9.849725 253.628028 
L 10.60679 251.459809 
L 12.877983 248.857946 
L 14.392111 247.990658 
L 16.663304 247.557014 
L 21.962755 247.990658 
L 24.233948 248.424302 
L 26.505141 247.990658 
L 28.776334 247.557014 
L 34.075784 244.955151 
L 37.861106 240.185068 
L 43.160556 237.583205 
L 46.945878 235.414986 
L 52.245328 234.114054 
L 56.787715 231.512191 
L 60.573036 230.21126 
L 62.844229 233.246767 
L 65.115422 232.813123 
L 70.414873 227.609396 
L 73.44313 226.308465 
L 80.256709 225.007533 
L 87.070288 228.04304 
L 90.85561 229.777616 
L 96.912125 230.644903 
L 102.96864 231.945835 
L 106.753961 232.379479 
L 109.025154 231.078547 
L 112.810476 231.078547 
L 118.866991 229.343972 
L 120.381119 228.04304 
L 121.895248 225.441177 
L 124.166441 223.272958 
L 127.194699 222.839314 
L 128.708827 224.140246 
L 129.465892 227.175753 
L 130.222956 230.644903 
L 132.494149 235.84863 
L 134.765342 240.185068 
L 139.307728 247.12337 
L 140.821857 249.725233 
L 140.821857 254.061672 
L 140.821857 259.265398 
L 139.307728 264.035481 
L 137.793599 270.106495 
L 138.550664 272.708358 
L 140.821857 273.142002 
L 140.821857 271.84107 
L 140.821857 269.239207 
L 141.578921 265.770056 
L 142.335985 264.035481 
L 143.850114 259.265398 
L 145.364243 258.39811 
L 146.878371 258.39811 
L 149.149564 258.39811 
L 151.420758 259.699042 
L 152.934886 259.265398 
L 152.934886 256.663535 
L 153.691951 255.362603 
L 155.206079 255.362603 
L 156.720208 256.663535 
L 158.234337 258.831754 
L 158.991401 262.734549 
L 162.019658 264.902768 
L 164.290851 265.336412 
L 166.562044 263.168193 
L 169.590302 261.867261 
L 174.132688 266.2037 
L 177.160945 266.2037 
L 177.91801 265.770056 
L 180.946267 266.2037 
L 183.21746 265.336412 
L 183.974524 266.2037 
L 187.759846 268.371919 
L 188.51691 270.106495 
L 187.002782 271.84107 
L 187.002782 273.142002 
L 190.788103 274.442933 
L 190.031039 277.47844 
L 187.759846 277.044796 
L 183.974524 274.442933 
L 181.703331 274.442933 
L 179.432138 274.009289 
L 174.889752 271.407426 
L 172.618559 270.540138 
L 170.347366 269.672851 
L 168.833237 270.540138 
L 167.319109 270.973782 
L 164.290851 269.239207 
L 162.019658 268.805563 
L 160.50553 270.106495 
L 158.991401 273.575646 
L 155.206079 275.310221 
L 152.177822 274.009289 
L 151.420758 270.540138 
L 151.420758 264.469124 
L 149.149564 262.734549 
L 147.635436 264.469124 
L 146.121307 266.2037 
L 144.607178 267.070988 
L 143.850114 274.442933 
L 142.335985 278.779372 
L 139.307728 279.64666 
L 137.036535 279.64666 
L 134.765342 277.044796 
L 134.008278 273.575646 
L 135.522406 269.239207 
L 137.036535 263.168193 
L 137.036535 258.39811 
L 137.036535 254.061672 
L 137.036535 249.725233 
L 136.279471 247.990658 
L 133.251213 244.955151 
L 130.98002 242.353288 
L 129.465892 240.618712 
L 128.708827 236.715917 
L 128.708827 233.68041 
L 127.951763 232.813123 
L 124.166441 233.246767 
L 118.866991 234.114054 
L 115.081669 233.68041 
L 113.56754 234.114054 
L 109.025154 238.884137 
L 106.753961 240.618712 
L 105.996897 242.786931 
L 105.239833 244.087863 
L 103.725704 244.955151 
L 98.426253 243.654219 
L 95.397996 241.486 
L 93.126803 238.884137 
L 90.098546 235.414986 
L 88.584417 234.547698 
L 85.55616 234.547698 
L 82.527902 233.246767 
L 80.256709 231.945835 
L 76.471387 231.945835 
L 71.929001 235.84863 
L 70.414873 238.016849 
L 68.900744 238.884137 
L 65.872487 240.185068 
L 60.573036 240.185068 
L 55.273586 239.317781 
L 49.974135 238.450493 
L 47.702942 238.884137 
L 45.431749 241.052356 
L 40.889363 244.087863 
L 37.104042 245.822438 
L 33.31872 249.725233 
L 29.533398 253.628028 
L 26.505141 255.362603 
L 23.476883 255.362603 
L 20.448626 253.194384 
L 18.934497 251.459809 
L 17.420369 250.592521 
L 15.90624 251.459809 
L 14.392111 254.061672 
L 13.635047 255.362603 
L 10.60679 257.097179 
L 5.307339 258.831754 
L 3.79321 258.831754 
L 1.522017 257.964467 
L 0.007889 255.796247 
L 0.007889 253.194384 
L -0.749176 249.725233 
L -3.020369 247.557014 
L -6.80569 245.388795 
L -11.348076 243.220575 
L -16.647527 241.486 
L -20.432849 239.751424 
L -21.946977 237.149561 
L -23.461106 233.68041 
z
" clip-path="url(#pfb75ff135e)" style="fill: #bdc3c7; stroke: #ffffff; stroke-width: 0.5"/>
    <path d="M 229.398385 258.39811 
L 230.912514 256.229891 
L 232.426642 257.097179 
L 234.697835 257.964467 
L 237.726093 258.39811 
L 243.025543 256.229891 
L 252.110315 258.39811 
L 252.86738 257.530823 
L 255.138573 259.265398 
L 254.381508 260.56633 
L 252.86738 261.433617 
L 250.596187 261.867261 
L 248.324994 260.56633 
L 246.053801 259.265398 
L 242.268479 259.265398 
L 239.240221 260.999974 
L 236.211964 260.999974 
L 233.940771 260.132686 
L 231.669578 259.265398 
z
" clip-path="url(#pfb75ff135e)" style="fill: #bdc3c7; stroke: #ffffff; stroke-width: 0.5"/>
    <path d="M -46.930101 229.777616 
L -43.901843 228.04304 
L -43.144779 229.343972 
L -40.873586 231.945835 
L -38.602393 231.512191 
L -36.3312 229.343972 
L -35.574135 226.742109 
L -35.574135 225.874821 
L -33.302942 225.441177 
L -31.031749 225.874821 
L -32.545878 229.343972 
L -34.060007 232.379479 
L -37.088264 234.547698 
L -39.359457 234.981342 
L -42.387715 234.547698 
L -45.415972 232.379479 
z
" clip-path="url(#pfb75ff135e)" style="fill: #bdc3c7; stroke: #ffffff; stroke-width: 0.5"/>
   </g>
   <g id="PatchCollection_2">
    <defs>
     <path id="m697cfc53cf" d="M 181.703331 -248.490082 
L 183.21746 -250.658302 
L 186.245717 -251.525589 
L 188.51691 -253.693809 
L 190.788103 -253.693809 
L 191.545168 -252.392877 
L 190.031039 -246.755507 
L 189.273975 -244.153644 
L 191.545168 -244.587288 
L 196.087554 -248.490082 
L 201.387004 -244.587288 
L 203.658197 -246.755507 
L 205.92939 -246.321863 
L 207.443519 -246.755507 
L 208.200583 -249.791014 
L 213.500034 -253.693809 
L 215.771227 -252.826521 
L 217.285355 -251.091946 
L 219.556548 -251.525589 
L 222.584806 -253.693809 
L 223.34187 -254.99474 
L 224.855999 -256.295672 
L 223.34187 -258.463891 
L 223.34187 -262.366686 
L 224.098935 -267.136768 
L 227.127192 -267.136768 
L 227.884256 -264.968549 
L 229.398385 -264.534905 
L 230.155449 -261.933042 
L 230.912514 -261.065754 
L 230.912514 -259.764823 
L 232.426642 -259.764823 
L 233.940771 -257.16296 
L 232.426642 -254.99474 
L 230.912514 -254.561096 
L 230.912514 -254.127453 
L 229.398385 -251.959233 
L 225.613063 -254.99474 
L 224.098935 -253.693809 
L 222.584806 -251.959233 
L 220.313613 -250.224658 
L 217.285355 -249.35737 
L 215.771227 -251.091946 
L 214.257098 -251.959233 
L 211.228841 -250.658302 
L 209.714712 -249.35737 
L 208.200583 -246.321863 
L 213.500034 -244.153644 
L 215.014162 -242.419068 
L 214.257098 -236.781698 
L 217.285355 -234.613479 
L 221.070677 -234.179835 
L 221.070677 -229.843396 
L 218.799484 -229.409753 
L 216.528291 -227.241533 
L 218.04242 -225.940602 
L 221.827742 -226.807889 
L 227.884256 -225.506958 
L 226.370128 -223.338739 
L 224.098935 -221.170519 
L 221.827742 -220.303232 
L 218.04242 -221.604163 
L 212.742969 -227.241533 
L 208.957648 -229.409753 
L 204.415262 -230.27704 
L 205.172326 -230.27704 
L 205.92939 -230.710684 
L 206.686455 -230.710684 
L 207.443519 -230.710684 
L 206.686455 -232.011616 
L 205.92939 -232.44526 
L 204.415262 -232.44526 
L 203.658197 -232.44526 
L 202.901133 -233.312547 
L 201.387004 -233.746191 
L 200.62994 -233.746191 
L 199.872876 -233.312547 
L 201.387004 -232.878904 
L 202.144069 -232.44526 
L 202.144069 -231.144328 
L 203.658197 -231.144328 
L 204.415262 -231.144328 
L 204.415262 -230.27704 
L 199.872876 -231.144328 
L 190.788103 -230.710684 
L 187.759846 -229.409753 
L 187.759846 -233.312547 
L 190.031039 -232.878904 
L 190.788103 -235.914411 
L 187.002782 -237.215342 
L 187.002782 -238.516274 
L 188.51691 -240.250849 
L 187.759846 -241.985425 
L 183.974524 -244.153644 
L 183.21746 -245.020932 
L 182.460396 -245.888219 
z
M 195.330489 -237.648986 
L 196.087554 -237.215342 
L 196.087554 -236.781698 
L 196.844618 -237.215342 
L 198.358747 -237.648986 
L 198.358747 -240.250849 
L 196.844618 -240.250849 
L 196.087554 -239.817205 
L 196.087554 -238.949918 
z
" style="stroke: #ffffff; stroke-width: 0.6"/>
    </defs>
    <g clip-path="url(#pfb75ff135e)">
     <use xlink:href="#m697cfc53cf" x="0" y="510.357344" style="fill: #e74c3c; stroke: #ffffff; stroke-width: 0.6"/>
    </g>
   </g>
   <g id="text_1">
    <g id="patch_2">
     <path d="M 22.236723 303.193345 
L 49.548754 303.193345 
Q 50.948754 303.193345 50.948754 301.793345 
L 50.948754 294.793345 
Q 50.948754 293.393345 49.548754 293.393345 
L 22.236723 293.393345 
Q 20.836723 293.393345 20.836723 294.793345 
L 20.836723 301.793345 
Q 20.836723 303.193345 22.236723 303.193345 
z
" clip-path="url(#pfb75ff135e)" style="fill: #ffffff; opacity: 0.6"/>
    </g>
    <g clip-path="url(#pfb75ff135e)">
     <!-- Cyprus -->
     <g style="fill: #1a252f" transform="translate(22.236723 300.111705) scale(0.07 -0.07)">
      <defs>
       <path id="DejaVuSans-Bold-26" d="M 4288 256 
Q 3956 84 3597 -3 
Q 3238 -91 2847 -91 
Q 1681 -91 1000 561 
Q 319 1213 319 2328 
Q 319 3447 1000 4098 
Q 1681 4750 2847 4750 
Q 3238 4750 3597 4662 
Q 3956 4575 4288 4403 
L 4288 3438 
Q 3953 3666 3628 3772 
Q 3303 3878 2944 3878 
Q 2300 3878 1931 3465 
Q 1563 3053 1563 2328 
Q 1563 1606 1931 1193 
Q 2300 781 2944 781 
Q 3303 781 3628 887 
Q 3953 994 4288 1222 
L 4288 256 
z
" transform="scale(0.015625)"/>
       <path id="DejaVuSans-Bold-5c" d="M 78 3500 
L 1197 3500 
L 2138 1125 
L 2938 3500 
L 4056 3500 
L 2584 -331 
Q 2363 -916 2067 -1148 
Q 1772 -1381 1288 -1381 
L 641 -1381 
L 641 -647 
L 991 -647 
Q 1275 -647 1404 -556 
Q 1534 -466 1606 -231 
L 1638 -134 
L 78 3500 
z
" transform="scale(0.015625)"/>
       <path id="DejaVuSans-Bold-53" d="M 1656 506 
L 1656 -1331 
L 538 -1331 
L 538 3500 
L 1656 3500 
L 1656 2988 
Q 1888 3294 2169 3439 
Q 2450 3584 2816 3584 
Q 3463 3584 3878 3070 
Q 4294 2556 4294 1747 
Q 4294 938 3878 423 
Q 3463 -91 2816 -91 
Q 2450 -91 2169 54 
Q 1888 200 1656 506 
z
M 2400 2772 
Q 2041 2772 1848 2508 
Q 1656 2244 1656 1747 
Q 1656 1250 1848 986 
Q 2041 722 2400 722 
Q 2759 722 2948 984 
Q 3138 1247 3138 1747 
Q 3138 2247 2948 2509 
Q 2759 2772 2400 2772 
z
" transform="scale(0.015625)"/>
       <path id="DejaVuSans-Bold-55" d="M 3138 2547 
Q 2991 2616 2845 2648 
Q 2700 2681 2553 2681 
Q 2122 2681 1889 2404 
Q 1656 2128 1656 1613 
L 1656 0 
L 538 0 
L 538 3500 
L 1656 3500 
L 1656 2925 
Q 1872 3269 2151 3426 
Q 2431 3584 2822 3584 
Q 2878 3584 2943 3579 
Q 3009 3575 3134 3559 
L 3138 2547 
z
" transform="scale(0.015625)"/>
       <path id="DejaVuSans-Bold-58" d="M 500 1363 
L 500 3500 
L 1625 3500 
L 1625 3150 
Q 1625 2866 1622 2436 
Q 1619 2006 1619 1863 
Q 1619 1441 1641 1255 
Q 1663 1069 1716 984 
Q 1784 875 1895 815 
Q 2006 756 2150 756 
Q 2500 756 2700 1025 
Q 2900 1294 2900 1772 
L 2900 3500 
L 4019 3500 
L 4019 0 
L 2900 0 
L 2900 506 
Q 2647 200 2364 54 
Q 2081 -91 1741 -91 
Q 1134 -91 817 281 
Q 500 653 500 1363 
z
" transform="scale(0.015625)"/>
       <path id="DejaVuSans-Bold-56" d="M 3272 3391 
L 3272 2541 
Q 2913 2691 2578 2766 
Q 2244 2841 1947 2841 
Q 1628 2841 1473 2761 
Q 1319 2681 1319 2516 
Q 1319 2381 1436 2309 
Q 1553 2238 1856 2203 
L 2053 2175 
Q 2913 2066 3209 1816 
Q 3506 1566 3506 1031 
Q 3506 472 3093 190 
Q 2681 -91 1863 -91 
Q 1516 -91 1145 -36 
Q 775 19 384 128 
L 384 978 
Q 719 816 1070 734 
Q 1422 653 1784 653 
Q 2113 653 2278 743 
Q 2444 834 2444 1013 
Q 2444 1163 2330 1236 
Q 2216 1309 1875 1350 
L 1678 1375 
Q 931 1469 631 1722 
Q 331 1975 331 2491 
Q 331 3047 712 3315 
Q 1094 3584 1881 3584 
Q 2191 3584 2531 3537 
Q 2872 3491 3272 3391 
z
" transform="scale(0.015625)"/>
      </defs>
      <use xlink:href="#DejaVuSans-Bold-26"/>
      <use xlink:href="#DejaVuSans-Bold-5c" transform="translate(73.390625 0)"/>
      <use xlink:href="#DejaVuSans-Bold-53" transform="translate(138.578125 0)"/>
      <use xlink:href="#DejaVuSans-Bold-55" transform="translate(210.15625 0)"/>
      <use xlink:href="#DejaVuSans-Bold-58" transform="translate(259.46875 0)"/>
      <use xlink:href="#DejaVuSans-Bold-56" transform="translate(330.65625 0)"/>
     </g>
    </g>
   </g>
   <g id="text_2">
    <g id="patch_3">
     <path d="M 192.425704 190.012298 
L 230.691642 190.012298 
Q 232.091642 190.012298 232.091642 188.612298 
L 232.091642 181.612298 
Q 232.091642 180.212298 230.691642 180.212298 
L 192.425704 180.212298 
Q 191.025704 180.212298 191.025704 181.612298 
L 191.025704 188.612298 
Q 191.025704 190.012298 192.425704 190.012298 
z
" clip-path="url(#pfb75ff135e)" style="fill: #ffffff; opacity: 0.6"/>
    </g>
    <g clip-path="url(#pfb75ff135e)">
     <!-- N. Cyprus -->
     <g style="fill: #1a252f" transform="translate(192.425704 186.930658) scale(0.07 -0.07)">
      <defs>
       <path id="DejaVuSans-Bold-31" d="M 588 4666 
L 1931 4666 
L 3628 1466 
L 3628 4666 
L 4769 4666 
L 4769 0 
L 3425 0 
L 1728 3200 
L 1728 0 
L 588 0 
L 588 4666 
z
" transform="scale(0.015625)"/>
       <path id="DejaVuSans-Bold-11" d="M 653 1209 
L 1778 1209 
L 1778 0 
L 653 0 
L 653 1209 
z
" transform="scale(0.015625)"/>
       <path id="DejaVuSans-Bold-3" transform="scale(0.015625)"/>
      </defs>
      <use xlink:href="#DejaVuSans-Bold-31"/>
      <use xlink:href="#DejaVuSans-Bold-11" transform="translate(83.6875 0)"/>
      <use xlink:href="#DejaVuSans-Bold-3" transform="translate(121.671875 0)"/>
      <use xlink:href="#DejaVuSans-Bold-26" transform="translate(156.484375 0)"/>
      <use xlink:href="#DejaVuSans-Bold-5c" transform="translate(229.875 0)"/>
      <use xlink:href="#DejaVuSans-Bold-53" transform="translate(295.0625 0)"/>
      <use xlink:href="#DejaVuSans-Bold-55" transform="translate(366.640625 0)"/>
      <use xlink:href="#DejaVuSans-Bold-58" transform="translate(415.953125 0)"/>
      <use xlink:href="#DejaVuSans-Bold-56" transform="translate(487.140625 0)"/>
     </g>
    </g>
   </g>
   <g id="text_3">
    <g id="patch_4">
     <path d="M 194.908628 263.732028 
L 290.196128 263.732028 
Q 291.596128 263.732028 291.596128 262.332028 
L 291.596128 255.331481 
Q 291.596128 253.931481 290.196128 253.931481 
L 194.908628 253.931481 
Q 193.508628 253.931481 193.508628 255.331481 
L 193.508628 262.332028 
Q 193.508628 263.732028 194.908628 263.732028 
z
" clip-path="url(#pfb75ff135e)" style="fill: #ffffff; opacity: 0.6"/>
    </g>
    <g clip-path="url(#pfb75ff135e)">
     <!-- Cyprus U.N. Buffer Zone -->
     <g style="fill: #1a252f" transform="translate(194.908628 260.650387) scale(0.07 -0.07)">
      <defs>
       <path id="DejaVuSans-Bold-38" d="M 588 4666 
L 1791 4666 
L 1791 1869 
Q 1791 1291 1980 1042 
Q 2169 794 2597 794 
Q 3028 794 3217 1042 
Q 3406 1291 3406 1869 
L 3406 4666 
L 4609 4666 
L 4609 1869 
Q 4609 878 4112 393 
Q 3616 -91 2597 -91 
Q 1581 -91 1084 393 
Q 588 878 588 1869 
L 588 4666 
z
" transform="scale(0.015625)"/>
       <path id="DejaVuSans-Bold-25" d="M 2456 2859 
Q 2741 2859 2887 2984 
Q 3034 3109 3034 3353 
Q 3034 3594 2887 3720 
Q 2741 3847 2456 3847 
L 1791 3847 
L 1791 2859 
L 2456 2859 
z
M 2497 819 
Q 2859 819 3042 972 
Q 3225 1125 3225 1434 
Q 3225 1738 3044 1889 
Q 2863 2041 2497 2041 
L 1791 2041 
L 1791 819 
L 2497 819 
z
M 3616 2497 
Q 4003 2384 4215 2081 
Q 4428 1778 4428 1338 
Q 4428 663 3972 331 
Q 3516 0 2584 0 
L 588 0 
L 588 4666 
L 2394 4666 
Q 3366 4666 3802 4372 
Q 4238 4078 4238 3431 
Q 4238 3091 4078 2852 
Q 3919 2613 3616 2497 
z
" transform="scale(0.015625)"/>
       <path id="DejaVuSans-Bold-13aa" d="M 2841 4863 
L 2841 4128 
L 2222 4128 
Q 1984 4128 1891 4044 
Q 1797 3956 1797 3744 
L 1797 3500 
L 3078 3500 
L 3078 3744 
Q 3078 4316 3397 4588 
Q 3716 4863 4384 4863 
L 5241 4863 
L 5241 4128 
L 4622 4128 
Q 4384 4128 4291 4044 
Q 4197 3956 4197 3744 
L 4197 3500 
L 5153 3500 
L 5153 2700 
L 4197 2700 
L 4197 0 
L 3078 0 
L 3078 2700 
L 1797 2700 
L 1797 0 
L 678 0 
L 678 2700 
L 122 2700 
L 122 3500 
L 678 3500 
L 678 3744 
Q 678 4316 997 4588 
Q 1316 4863 1984 4863 
L 2841 4863 
z
" transform="scale(0.015625)"/>
       <path id="DejaVuSans-Bold-48" d="M 4031 1759 
L 4031 1441 
L 1416 1441 
Q 1456 1047 1700 850 
Q 1944 653 2381 653 
Q 2734 653 3104 758 
Q 3475 863 3866 1075 
L 3866 213 
Q 3469 63 3072 -14 
Q 2675 -91 2278 -91 
Q 1328 -91 801 392 
Q 275 875 275 1747 
Q 275 2603 792 3093 
Q 1309 3584 2216 3584 
Q 3041 3584 3536 3087 
Q 4031 2591 4031 1759 
z
M 2881 2131 
Q 2881 2450 2695 2645 
Q 2509 2841 2209 2841 
Q 1884 2841 1681 2658 
Q 1478 2475 1428 2131 
L 2881 2131 
z
" transform="scale(0.015625)"/>
       <path id="DejaVuSans-Bold-3d" d="M 359 4666 
L 4281 4666 
L 4281 3938 
L 1778 909 
L 4353 909 
L 4353 0 
L 288 0 
L 288 728 
L 2791 3756 
L 359 3756 
L 359 4666 
z
" transform="scale(0.015625)"/>
       <path id="DejaVuSans-Bold-52" d="M 2203 2784 
Q 1831 2784 1636 2517 
Q 1441 2250 1441 1747 
Q 1441 1244 1636 976 
Q 1831 709 2203 709 
Q 2569 709 2762 976 
Q 2956 1244 2956 1747 
Q 2956 2250 2762 2517 
Q 2569 2784 2203 2784 
z
M 2203 3584 
Q 3106 3584 3614 3096 
Q 4122 2609 4122 1747 
Q 4122 884 3614 396 
Q 3106 -91 2203 -91 
Q 1297 -91 786 396 
Q 275 884 275 1747 
Q 275 2609 786 3096 
Q 1297 3584 2203 3584 
z
" transform="scale(0.015625)"/>
       <path id="DejaVuSans-Bold-51" d="M 4056 2131 
L 4056 0 
L 2931 0 
L 2931 347 
L 2931 1631 
Q 2931 2084 2911 2256 
Q 2891 2428 2841 2509 
Q 2775 2619 2662 2680 
Q 2550 2741 2406 2741 
Q 2056 2741 1856 2470 
Q 1656 2200 1656 1722 
L 1656 0 
L 538 0 
L 538 3500 
L 1656 3500 
L 1656 2988 
Q 1909 3294 2193 3439 
Q 2478 3584 2822 3584 
Q 3428 3584 3742 3212 
Q 4056 2841 4056 2131 
z
" transform="scale(0.015625)"/>
      </defs>
      <use xlink:href="#DejaVuSans-Bold-26"/>
      <use xlink:href="#DejaVuSans-Bold-5c" transform="translate(73.390625 0)"/>
      <use xlink:href="#DejaVuSans-Bold-53" transform="translate(138.578125 0)"/>
      <use xlink:href="#DejaVuSans-Bold-55" transform="translate(210.15625 0)"/>
      <use xlink:href="#DejaVuSans-Bold-58" transform="translate(259.46875 0)"/>
      <use xlink:href="#DejaVuSans-Bold-56" transform="translate(330.65625 0)"/>
      <use xlink:href="#DejaVuSans-Bold-3" transform="translate(390.171875 0)"/>
      <use xlink:href="#DejaVuSans-Bold-38" transform="translate(424.984375 0)"/>
      <use xlink:href="#DejaVuSans-Bold-11" transform="translate(506.1875 0)"/>
      <use xlink:href="#DejaVuSans-Bold-31" transform="translate(544.171875 0)"/>
      <use xlink:href="#DejaVuSans-Bold-11" transform="translate(627.859375 0)"/>
      <use xlink:href="#DejaVuSans-Bold-3" transform="translate(665.84375 0)"/>
      <use xlink:href="#DejaVuSans-Bold-25" transform="translate(700.65625 0)"/>
      <use xlink:href="#DejaVuSans-Bold-58" transform="translate(776.875 0)"/>
      <use xlink:href="#DejaVuSans-Bold-13aa" transform="translate(848.0625 0)"/>
      <use xlink:href="#DejaVuSans-Bold-48" transform="translate(929.0625 0)"/>
      <use xlink:href="#DejaVuSans-Bold-55" transform="translate(996.890625 0)"/>
      <use xlink:href="#DejaVuSans-Bold-3" transform="translate(1046.203125 0)"/>
      <use xlink:href="#DejaVuSans-Bold-3d" transform="translate(1081.015625 0)"/>
      <use xlink:href="#DejaVuSans-Bold-52" transform="translate(1153.53125 0)"/>
      <use xlink:href="#DejaVuSans-Bold-51" transform="translate(1222.234375 0)"/>
      <use xlink:href="#DejaVuSans-Bold-48" transform="translate(1293.421875 0)"/>
     </g>
    </g>
   </g>
   <g id="text_4">
    <!-- Dhekelia -->
    <g style="fill: #1a252f" transform="translate(166.195957 20.117344) scale(0.17 -0.17)">
     <defs>
      <path id="DejaVuSans-Bold-27" d="M 1791 3756 
L 1791 909 
L 2222 909 
Q 2959 909 3348 1275 
Q 3738 1641 3738 2338 
Q 3738 3031 3350 3393 
Q 2963 3756 2222 3756 
L 1791 3756 
z
M 588 4666 
L 1856 4666 
Q 2919 4666 3439 4514 
Q 3959 4363 4331 4000 
Q 4659 3684 4818 3271 
Q 4978 2859 4978 2338 
Q 4978 1809 4818 1395 
Q 4659 981 4331 666 
Q 3956 303 3431 151 
Q 2906 0 1856 0 
L 588 0 
L 588 4666 
z
" transform="scale(0.015625)"/>
      <path id="DejaVuSans-Bold-4b" d="M 4056 2131 
L 4056 0 
L 2931 0 
L 2931 347 
L 2931 1625 
Q 2931 2084 2911 2256 
Q 2891 2428 2841 2509 
Q 2775 2619 2662 2680 
Q 2550 2741 2406 2741 
Q 2056 2741 1856 2470 
Q 1656 2200 1656 1722 
L 1656 0 
L 538 0 
L 538 4863 
L 1656 4863 
L 1656 2988 
Q 1909 3294 2193 3439 
Q 2478 3584 2822 3584 
Q 3428 3584 3742 3212 
Q 4056 2841 4056 2131 
z
" transform="scale(0.015625)"/>
      <path id="DejaVuSans-Bold-4e" d="M 538 4863 
L 1656 4863 
L 1656 2216 
L 2944 3500 
L 4244 3500 
L 2534 1894 
L 4378 0 
L 3022 0 
L 1656 1459 
L 1656 0 
L 538 0 
L 538 4863 
z
" transform="scale(0.015625)"/>
      <path id="DejaVuSans-Bold-4f" d="M 538 4863 
L 1656 4863 
L 1656 0 
L 538 0 
L 538 4863 
z
" transform="scale(0.015625)"/>
      <path id="DejaVuSans-Bold-4c" d="M 538 3500 
L 1656 3500 
L 1656 0 
L 538 0 
L 538 3500 
z
M 538 4863 
L 1656 4863 
L 1656 3950 
L 538 3950 
L 538 4863 
z
" transform="scale(0.015625)"/>
      <path id="DejaVuSans-Bold-44" d="M 2106 1575 
Q 1756 1575 1579 1456 
Q 1403 1338 1403 1106 
Q 1403 894 1545 773 
Q 1688 653 1941 653 
Q 2256 653 2472 879 
Q 2688 1106 2688 1447 
L 2688 1575 
L 2106 1575 
z
M 3816 1997 
L 3816 0 
L 2688 0 
L 2688 519 
Q 2463 200 2181 54 
Q 1900 -91 1497 -91 
Q 953 -91 614 226 
Q 275 544 275 1050 
Q 275 1666 698 1953 
Q 1122 2241 2028 2241 
L 2688 2241 
L 2688 2328 
Q 2688 2594 2478 2717 
Q 2269 2841 1825 2841 
Q 1466 2841 1156 2769 
Q 847 2697 581 2553 
L 581 3406 
Q 941 3494 1303 3539 
Q 1666 3584 2028 3584 
Q 2975 3584 3395 3211 
Q 3816 2838 3816 1997 
z
" transform="scale(0.015625)"/>
     </defs>
     <use xlink:href="#DejaVuSans-Bold-27"/>
     <use xlink:href="#DejaVuSans-Bold-4b" transform="translate(83.015625 0)"/>
     <use xlink:href="#DejaVuSans-Bold-48" transform="translate(154.203125 0)"/>
     <use xlink:href="#DejaVuSans-Bold-4e" transform="translate(222.03125 0)"/>
     <use xlink:href="#DejaVuSans-Bold-48" transform="translate(285.84375 0)"/>
     <use xlink:href="#DejaVuSans-Bold-4f" transform="translate(353.671875 0)"/>
     <use xlink:href="#DejaVuSans-Bold-4c" transform="translate(387.953125 0)"/>
     <use xlink:href="#DejaVuSans-Bold-44" transform="translate(422.234375 0)"/>
    </g>
   </g>
   <g id="legend_1">
    <g id="patch_5">
     <path d="M 13.5 498.657344 
L 88.097344 498.657344 
Q 89.897344 498.657344 89.897344 496.857344 
L 89.897344 470.755937 
Q 89.897344 468.955937 88.097344 468.955937 
L 13.5 468.955937 
Q 11.7 468.955937 11.7 470.755937 
L 11.7 496.857344 
Q 11.7 498.657344 13.5 498.657344 
z
" style="fill: #ffffff; opacity: 0.85; stroke: #cccccc; stroke-linejoin: miter"/>
    </g>
    <g id="patch_6">
     <path d="M 15.3 479.394531 
L 33.3 479.394531 
L 33.3 473.094531 
L 15.3 473.094531 
z
" style="fill: #e74c3c; stroke: #888888; stroke-linejoin: miter"/>
    </g>
    <g id="text_5">
     <!-- Dhekelia -->
     <g transform="translate(40.5 479.394531) scale(0.09 -0.09)">
      <defs>
       <path id="DejaVuSans-27" d="M 1259 4147 
L 1259 519 
L 2022 519 
Q 2988 519 3436 956 
Q 3884 1394 3884 2338 
Q 3884 3275 3436 3711 
Q 2988 4147 2022 4147 
L 1259 4147 
z
M 628 4666 
L 1925 4666 
Q 3281 4666 3915 4102 
Q 4550 3538 4550 2338 
Q 4550 1131 3912 565 
Q 3275 0 1925 0 
L 628 0 
L 628 4666 
z
" transform="scale(0.015625)"/>
       <path id="DejaVuSans-4b" d="M 3513 2113 
L 3513 0 
L 2938 0 
L 2938 2094 
Q 2938 2591 2744 2837 
Q 2550 3084 2163 3084 
Q 1697 3084 1428 2787 
Q 1159 2491 1159 1978 
L 1159 0 
L 581 0 
L 581 4863 
L 1159 4863 
L 1159 2956 
Q 1366 3272 1645 3428 
Q 1925 3584 2291 3584 
Q 2894 3584 3203 3211 
Q 3513 2838 3513 2113 
z
" transform="scale(0.015625)"/>
       <path id="DejaVuSans-48" d="M 3597 1894 
L 3597 1613 
L 953 1613 
Q 991 1019 1311 708 
Q 1631 397 2203 397 
Q 2534 397 2845 478 
Q 3156 559 3463 722 
L 3463 178 
Q 3153 47 2828 -22 
Q 2503 -91 2169 -91 
Q 1331 -91 842 396 
Q 353 884 353 1716 
Q 353 2575 817 3079 
Q 1281 3584 2069 3584 
Q 2775 3584 3186 3129 
Q 3597 2675 3597 1894 
z
M 3022 2063 
Q 3016 2534 2758 2815 
Q 2500 3097 2075 3097 
Q 1594 3097 1305 2825 
Q 1016 2553 972 2059 
L 3022 2063 
z
" transform="scale(0.015625)"/>
       <path id="DejaVuSans-4e" d="M 581 4863 
L 1159 4863 
L 1159 1991 
L 2875 3500 
L 3609 3500 
L 1753 1863 
L 3688 0 
L 2938 0 
L 1159 1709 
L 1159 0 
L 581 0 
L 581 4863 
z
" transform="scale(0.015625)"/>
       <path id="DejaVuSans-4f" d="M 603 4863 
L 1178 4863 
L 1178 0 
L 603 0 
L 603 4863 
z
" transform="scale(0.015625)"/>
       <path id="DejaVuSans-4c" d="M 603 3500 
L 1178 3500 
L 1178 0 
L 603 0 
L 603 3500 
z
M 603 4863 
L 1178 4863 
L 1178 4134 
L 603 4134 
L 603 4863 
z
" transform="scale(0.015625)"/>
       <path id="DejaVuSans-44" d="M 2194 1759 
Q 1497 1759 1228 1600 
Q 959 1441 959 1056 
Q 959 750 1161 570 
Q 1363 391 1709 391 
Q 2188 391 2477 730 
Q 2766 1069 2766 1631 
L 2766 1759 
L 2194 1759 
z
M 3341 1997 
L 3341 0 
L 2766 0 
L 2766 531 
Q 2569 213 2275 61 
Q 1981 -91 1556 -91 
Q 1019 -91 701 211 
Q 384 513 384 1019 
Q 384 1609 779 1909 
Q 1175 2209 1959 2209 
L 2766 2209 
L 2766 2266 
Q 2766 2663 2505 2880 
Q 2244 3097 1772 3097 
Q 1472 3097 1187 3025 
Q 903 2953 641 2809 
L 641 3341 
Q 956 3463 1253 3523 
Q 1550 3584 1831 3584 
Q 2591 3584 2966 3190 
Q 3341 2797 3341 1997 
z
" transform="scale(0.015625)"/>
      </defs>
      <use xlink:href="#DejaVuSans-27"/>
      <use xlink:href="#DejaVuSans-4b" transform="translate(77 0)"/>
      <use xlink:href="#DejaVuSans-48" transform="translate(140.375 0)"/>
      <use xlink:href="#DejaVuSans-4e" transform="translate(201.90625 0)"/>
      <use xlink:href="#DejaVuSans-48" transform="translate(256.25 0)"/>
      <use xlink:href="#DejaVuSans-4f" transform="translate(317.78125 0)"/>
      <use xlink:href="#DejaVuSans-4c" transform="translate(345.5625 0)"/>
      <use xlink:href="#DejaVuSans-44" transform="translate(373.34375 0)"/>
     </g>
    </g>
    <g id="patch_7">
     <path d="M 15.3 492.895234 
L 33.3 492.895234 
L 33.3 486.595234 
L 15.3 486.595234 
z
" style="fill: #bdc3c7; stroke: #888888; stroke-linejoin: miter"/>
    </g>
    <g id="text_6">
     <!-- Neighbors -->
     <g transform="translate(40.5 492.895234) scale(0.09 -0.09)">
      <defs>
       <path id="DejaVuSans-31" d="M 628 4666 
L 1478 4666 
L 3547 763 
L 3547 4666 
L 4159 4666 
L 4159 0 
L 3309 0 
L 1241 3903 
L 1241 0 
L 628 0 
L 628 4666 
z
" transform="scale(0.015625)"/>
       <path id="DejaVuSans-4a" d="M 2906 1791 
Q 2906 2416 2648 2759 
Q 2391 3103 1925 3103 
Q 1463 3103 1205 2759 
Q 947 2416 947 1791 
Q 947 1169 1205 825 
Q 1463 481 1925 481 
Q 2391 481 2648 825 
Q 2906 1169 2906 1791 
z
M 3481 434 
Q 3481 -459 3084 -895 
Q 2688 -1331 1869 -1331 
Q 1566 -1331 1297 -1286 
Q 1028 -1241 775 -1147 
L 775 -588 
Q 1028 -725 1275 -790 
Q 1522 -856 1778 -856 
Q 2344 -856 2625 -561 
Q 2906 -266 2906 331 
L 2906 616 
Q 2728 306 2450 153 
Q 2172 0 1784 0 
Q 1141 0 747 490 
Q 353 981 353 1791 
Q 353 2603 747 3093 
Q 1141 3584 1784 3584 
Q 2172 3584 2450 3431 
Q 2728 3278 2906 2969 
L 2906 3500 
L 3481 3500 
L 3481 434 
z
" transform="scale(0.015625)"/>
       <path id="DejaVuSans-45" d="M 3116 1747 
Q 3116 2381 2855 2742 
Q 2594 3103 2138 3103 
Q 1681 3103 1420 2742 
Q 1159 2381 1159 1747 
Q 1159 1113 1420 752 
Q 1681 391 2138 391 
Q 2594 391 2855 752 
Q 3116 1113 3116 1747 
z
M 1159 2969 
Q 1341 3281 1617 3432 
Q 1894 3584 2278 3584 
Q 2916 3584 3314 3078 
Q 3713 2572 3713 1747 
Q 3713 922 3314 415 
Q 2916 -91 2278 -91 
Q 1894 -91 1617 61 
Q 1341 213 1159 525 
L 1159 0 
L 581 0 
L 581 4863 
L 1159 4863 
L 1159 2969 
z
" transform="scale(0.015625)"/>
       <path id="DejaVuSans-52" d="M 1959 3097 
Q 1497 3097 1228 2736 
Q 959 2375 959 1747 
Q 959 1119 1226 758 
Q 1494 397 1959 397 
Q 2419 397 2687 759 
Q 2956 1122 2956 1747 
Q 2956 2369 2687 2733 
Q 2419 3097 1959 3097 
z
M 1959 3584 
Q 2709 3584 3137 3096 
Q 3566 2609 3566 1747 
Q 3566 888 3137 398 
Q 2709 -91 1959 -91 
Q 1206 -91 779 398 
Q 353 888 353 1747 
Q 353 2609 779 3096 
Q 1206 3584 1959 3584 
z
" transform="scale(0.015625)"/>
       <path id="DejaVuSans-55" d="M 2631 2963 
Q 2534 3019 2420 3045 
Q 2306 3072 2169 3072 
Q 1681 3072 1420 2755 
Q 1159 2438 1159 1844 
L 1159 0 
L 581 0 
L 581 3500 
L 1159 3500 
L 1159 2956 
Q 1341 3275 1631 3429 
Q 1922 3584 2338 3584 
Q 2397 3584 2469 3576 
Q 2541 3569 2628 3553 
L 2631 2963 
z
" transform="scale(0.015625)"/>
       <path id="DejaVuSans-56" d="M 2834 3397 
L 2834 2853 
Q 2591 2978 2328 3040 
Q 2066 3103 1784 3103 
Q 1356 3103 1142 2972 
Q 928 2841 928 2578 
Q 928 2378 1081 2264 
Q 1234 2150 1697 2047 
L 1894 2003 
Q 2506 1872 2764 1633 
Q 3022 1394 3022 966 
Q 3022 478 2636 193 
Q 2250 -91 1575 -91 
Q 1294 -91 989 -36 
Q 684 19 347 128 
L 347 722 
Q 666 556 975 473 
Q 1284 391 1588 391 
Q 1994 391 2212 530 
Q 2431 669 2431 922 
Q 2431 1156 2273 1281 
Q 2116 1406 1581 1522 
L 1381 1569 
Q 847 1681 609 1914 
Q 372 2147 372 2553 
Q 372 3047 722 3315 
Q 1072 3584 1716 3584 
Q 2034 3584 2315 3537 
Q 2597 3491 2834 3397 
z
" transform="scale(0.015625)"/>
      </defs>
      <use xlink:href="#DejaVuSans-31"/>
      <use xlink:href="#DejaVuSans-48" transform="translate(74.8125 0)"/>
      <use xlink:href="#DejaVuSans-4c" transform="translate(136.34375 0)"/>
      <use xlink:href="#DejaVuSans-4a" transform="translate(164.125 0)"/>
      <use xlink:href="#DejaVuSans-4b" transform="translate(227.609375 0)"/>
      <use xlink:href="#DejaVuSans-45" transform="translate(290.984375 0)"/>
      <use xlink:href="#DejaVuSans-52" transform="translate(354.46875 0)"/>
      <use xlink:href="#DejaVuSans-55" transform="translate(415.65625 0)"/>
      <use xlink:href="#DejaVuSans-56" transform="translate(456.765625 0)"/>
     </g>
    </g>
   </g>
  </g>
 </g>
 <defs>
  <clipPath id="pfb75ff135e">
   <rect x="7.2" y="30.117344" width="401.244102" height="473.04"/>
  </clipPath>
 </defs>
</svg>
