<?xml version="1.0" encoding="utf-8" standalone="no"?>
<!DOCTYPE svg PUBLIC "-//W3C//DTD SVG 1.1//EN"
  "http://www.w3.org/Graphics/SVG/1.1/DTD/svg11.dtd">
<svg xmlns:xlink="http://www.w3.org/1999/xlink" width="464.312189pt" height="510.357344pt" viewBox="0 0 464.312189 510.357344" xmlns="http://www.w3.org/2000/svg" version="1.1">
 <metadata>
  <rdf:RDF xmlns:dc="http://purl.org/dc/elements/1.1/" xmlns:cc="http://creativecommons.org/ns#" xmlns:rdf="http://www.w3.org/1999/02/22-rdf-syntax-ns#">
   <cc:Work>
    <dc:type rdf:resource="http://purl.org/dc/dcmitype/StillImage"/>
    <dc:date>2026-06-19T08:36:19.070695</dc:date>
    <dc:format>image/svg+xml</dc:format>
    <dc:creator>
     <cc:Agent>
      <dc:title>Matplotlib v3.11.0, https://matplotlib.org/</dc:title>
     </cc:Agent>
    </dc:creator>
   </cc:Work>
  </rdf:RDF>
 </metadata>
 <defs>
  <style type="text/css">*{stroke-linejoin: round; stroke-linecap: butt}</style>
 </defs>
 <g id="figure_1">
  <g id="patch_1">
   <path d="M 0 510.357344 
L 464.312189 510.357344 
L 464.312189 0 
L 0 0 
z
" style="fill: #d6eaf8"/>
  </g>
  <g id="axes_1">
   <g id="PatchCollection_1">
    <path d="M -935.363777 751.69337 
L -934.925683 750.223821 
L -933.173308 748.544337 
L -933.173308 748.334402 
L -932.735215 747.074789 
L -931.859027 746.444982 
L -931.420933 745.60524 
L -930.98284 743.086014 
L -930.106652 741.8264 
L -928.792371 739.727045 
L -921.782871 732.589237 
L -920.906683 731.329624 
L -920.468589 730.070011 
L -920.030496 729.020334 
L -919.592402 728.390527 
L -916.087652 727.76072 
L -913.897183 726.711043 
L -912.582902 725.45143 
L -911.26862 723.771945 
L -911.26862 721.252719 
L -911.706714 720.622913 
L -913.020995 719.3633 
L -913.459089 718.733493 
L -913.459089 717.054009 
L -913.459089 715.794396 
L -913.020995 714.744718 
L -911.706714 713.275169 
L -910.830527 712.435427 
L -909.516245 712.015556 
L -908.640058 711.38575 
L -908.640058 709.706265 
L -910.392433 709.076459 
L -911.26862 708.446652 
L -912.144808 706.977104 
L -913.020995 706.137362 
L -913.897183 704.877748 
L -914.335277 703.4082 
L -914.335277 702.568458 
L -913.020995 700.259167 
L -913.020995 698.579683 
L -913.020995 698.159812 
L -914.335277 697.530005 
L -914.335277 697.110134 
L -914.335277 696.480327 
L -913.897183 695.640585 
L -913.459089 695.010779 
L -913.459089 692.911424 
L -913.459089 691.861746 
L -913.020995 691.022004 
L -911.26862 690.182262 
L -909.516245 689.762391 
L -908.201964 688.922649 
L -908.640058 688.292842 
L -909.078152 687.872971 
L -905.573401 684.723938 
L -903.382933 684.304067 
L -890.24012 687.243164 
L -888.925839 687.033229 
L -887.173464 685.56368 
L -886.297276 685.143809 
L -885.421088 685.143809 
L -883.668713 685.353745 
L -875.344932 684.514003 
L -874.468744 683.674261 
L -874.468744 683.25439 
L -874.906838 682.414647 
L -872.716369 682.204712 
L -870.525901 683.464325 
L -868.773526 684.933874 
L -867.021151 685.773616 
L -864.392588 685.353745 
L -862.640213 684.304067 
L -860.887838 683.674261 
L -858.697369 684.094132 
L -854.754525 687.243164 
L -852.125963 691.65181 
L -849.4974 695.010779 
L -843.802181 695.640585 
L -842.4879 695.43065 
L -842.049806 695.220714 
L -836.792681 690.812068 
L -835.4784 689.972326 
L -833.726025 689.132584 
L -831.535556 688.712713 
L -827.592712 688.082907 
L -820.583212 688.082907 
L -818.392743 687.4531 
L -815.764181 685.983551 
L -803.935649 675.066904 
L -801.307086 672.127807 
L -799.554711 669.398645 
L -799.116618 666.459548 
L -798.678524 663.52045 
L -800.430899 627.41154 
L -802.183274 591.512566 
L -803.935649 560.442108 
L -804.373743 550.99501 
L -800.430899 532.520684 
L -785.535711 489.483902 
L -778.088117 482.765965 
L -775.459555 478.567254 
L -775.021461 477.097706 
L -775.459555 474.158608 
L -775.459555 472.68906 
L -775.459555 472.059253 
L -774.145273 470.79964 
L -773.70718 470.169833 
L -772.830992 464.921445 
L -772.830992 459.253186 
L -778.526211 431.961568 
L -779.402398 426.71318 
L -778.526211 422.304534 
L -768.011961 407.399112 
L -763.192929 398.161949 
L -761.00246 395.642723 
L -759.250085 393.753303 
L -744.354898 383.466462 
L -742.164429 382.836656 
L -740.850148 383.256527 
L -725.95496 396.482465 
L -722.45021 398.791756 
L -721.135928 400.261304 
L -720.259741 402.150724 
L -720.697835 405.719628 
L -720.697835 407.609048 
L -719.383553 408.028919 
L -718.069272 407.189177 
L -716.754991 403.200402 
L -715.002616 401.940788 
L -713.250241 401.730853 
L -711.497866 402.150724 
L -710.183584 401.940788 
L -708.869303 400.051369 
L -707.993115 397.742078 
L -707.993115 396.272529 
L -707.555022 394.802981 
L -705.364553 392.703625 
L -698.793146 387.665173 
L -696.602678 384.51614 
L -695.72649 380.31743 
L -696.164584 378.42801 
L -700.107428 375.908784 
L -700.983615 374.229299 
L -700.983615 372.759751 
L -693.097928 349.037037 
L -692.659834 345.258197 
L -693.974115 342.529035 
L -696.164584 340.219745 
L -697.478865 336.860776 
L -697.040771 334.131614 
L -681.70749 300.12206 
L -681.269396 297.602833 
L -681.70749 295.293543 
L -684.336052 290.25509 
L -685.21224 287.735864 
L -684.774146 282.697411 
L -685.650334 277.868894 
L -685.650334 275.349668 
L -684.774146 272.410571 
L -683.459865 269.471473 
L -681.70749 266.532376 
L -679.955115 264.223085 
L -675.136083 261.074052 
L -672.507521 260.024375 
L -664.183739 256.875342 
L -660.678989 252.676631 
L -660.678989 251.626954 
L -660.240896 249.317663 
L -660.240896 248.687857 
L -660.240896 247.638179 
L -658.926614 246.378566 
L -654.545677 243.859339 
L -651.917114 241.130178 
L -651.040927 238.19108 
L -649.726645 231.263208 
L -647.536177 225.804884 
L -646.659989 224.545271 
L -645.345708 223.495594 
L -642.717145 222.026045 
L -641.402864 220.976367 
L -640.526676 219.296883 
L -640.088583 217.827335 
L -639.650489 214.258431 
L -638.336208 210.899462 
L -615.555332 172.481262 
L -614.679144 171.221648 
L -613.364863 170.801777 
L -611.174394 170.591842 
L -609.860113 170.171971 
L -608.983926 168.912358 
L -608.545832 167.652745 
L -608.107738 166.183196 
L -607.231551 163.034163 
L -607.231551 162.404356 
L -606.793457 161.984485 
L -605.479176 161.354679 
L -605.041082 161.144743 
L -601.974425 160.095066 
L -565.17455 154.846678 
L -564.298362 154.846678 
L -562.984081 155.056613 
L -562.107893 155.476484 
L -561.231706 156.106291 
L -560.355518 156.526162 
L -556.850768 157.575839 
L -555.098393 156.736097 
L -553.784112 154.426807 
L -551.593643 140.571062 
L -551.593643 137.422029 
L -552.031737 135.53261 
L -555.098393 130.704092 
L -555.098393 127.974931 
L -553.784112 125.875575 
L -551.593643 123.986156 
L -550.717455 122.096736 
L -550.717455 121.047058 
L -551.155549 119.997381 
L -552.031737 118.107961 
L -552.46983 115.588735 
L -540.641299 74.651308 
L -522.241361 48.619303 
L -521.365173 45.260335 
L -520.92708 38.122527 
L -520.488986 35.6033 
L -515.231861 23.217105 
L -513.041392 17.758781 
L -513.479486 11.460715 
L -515.669955 5.372585 
L -516.108048 2.223552 
L -516.546142 -0.925481 
L -515.669955 -3.444707 
L -504.717611 -37.454262 
L -502.527142 -37.454262 
L -501.650954 -39.763552 
L -499.898579 -41.023165 
L -498.146204 -41.443037 
L -495.517642 -41.652972 
L -493.765267 -42.072843 
L -489.822423 -43.752327 
L -487.631954 -44.172198 
L -481.936735 -44.172198 
L -481.060548 -44.382134 
L -479.308172 -45.641747 
L -477.993891 -45.851683 
L -469.67011 -45.851683 
L -465.727266 -45.431811 
L -457.841578 -43.122521 
L -453.898734 -42.492714 
L -453.022547 -42.072843 
L -450.832078 -39.133746 
L -449.955891 -38.294004 
L -449.079703 -37.874133 
L -447.765422 -37.454262 
L -446.45114 -37.454262 
L -446.013047 -37.664197 
L -444.260672 -39.133746 
L -442.94639 -39.133746 
L -440.755922 -38.92381 
L -439.879734 -39.133746 
L -438.565453 -40.183423 
L -437.251171 -41.652972 
L -436.374984 -43.752327 
L -435.93689 -46.271554 
L -435.93689 -49.210651 
L -435.498796 -51.729877 
L -434.184515 -54.249103 
L -432.43214 -56.978265 
L -428.92739 -59.497492 
L -424.984546 -60.547169 
L -415.784577 -60.337234 
L -413.156015 -61.176976 
L -411.40364 -61.596847 
L -408.336983 -59.07762 
L -406.146514 -57.608072 
L -401.765577 -51.100071 
L -399.575108 -49.210651 
L -399.137014 -48.160973 
L -399.137014 -46.271554 
L -399.137014 -43.542392 
L -398.698921 -42.072843 
L -396.946546 -41.233101 
L -392.127514 -37.034391 
L -391.68942 -36.194648 
L -390.813233 -33.885358 
L -389.937045 -30.94626 
L -389.498952 -29.476712 
L -387.746577 -28.846905 
L -386.432295 -28.63697 
L -385.556108 -28.007163 
L -384.241826 -27.167421 
L -384.241826 -25.907808 
L -383.803733 -22.758775 
L -383.365639 -20.65942 
L -382.051358 -19.189871 
L -379.860889 -17.720322 
L -378.546608 -19.189871 
L -374.16567 -29.686647 
L -367.15617 -46.271554 
L -359.270482 -64.535944 
L -351.822888 -83.220206 
L -343.9372 -102.114403 
L -338.680075 -114.080728 
L -336.489607 -112.191308 
L -335.175325 -110.091953 
L -332.984856 -105.473371 
L -332.108669 -105.0535 
L -331.232481 -104.843565 
L -330.794388 -104.423693 
L -330.794388 -104.003822 
L -330.794388 -102.534274 
L -330.794388 -102.324338 
L -330.356294 -101.274661 
L -329.9182 -100.434919 
L -329.480106 -100.015048 
L -328.165825 -99.595176 
L -326.851544 -98.755434 
L -326.41345 -97.915692 
L -326.41345 -96.656079 
L -325.537263 -95.606402 
L -324.661075 -94.766659 
L -311.518262 -89.308336 
L -309.327793 -88.888465 
L -302.318293 -90.148078 
L -299.689731 -89.938142 
L -297.499262 -89.0984 
L -296.623074 -87.628852 
L -295.746887 -85.739432 
L -295.308793 -85.109625 
L -294.870699 -81.750657 
L -293.994512 -80.491044 
L -293.118324 -79.441366 
L -291.804043 -78.601624 
L -290.489762 -77.761882 
L -289.613574 -76.082398 
L -288.299293 -71.463816 
L -287.423105 -69.154526 
L -286.108824 -67.475041 
L -283.918355 -65.795557 
L -277.785043 -62.436589 
L -276.470761 -61.386911 
L -275.594574 -58.657749 
L -275.15648 -57.608072 
L -273.404105 -56.558394 
L -272.527918 -56.348459 
L -271.65173 -56.76833 
L -265.518417 -56.558394 
L -256.318448 -57.608072 
L -251.937511 -58.867685 
L -244.051823 -62.85646 
L -241.861354 -62.646524 
L -239.670885 -62.016718 
L -237.480417 -61.806782 
L -235.289948 -62.016718 
L -232.661385 -62.436589 
L -225.651885 -65.585622 
L -219.956666 -66.005493 
L -217.766197 -67.475041 
L -213.823354 -71.253881 
L -209.004322 -73.563172 
L -206.37576 -75.242656 
L -204.623385 -77.342011 
L -204.185291 -79.651302 
L -204.623385 -81.960593 
L -204.185291 -84.059948 
L -202.87101 -85.529496 
L -202.432916 -85.109625 
L -198.051978 -84.689754 
L -194.547228 -83.850012 
L -193.671041 -83.430141 
L -190.604384 -81.750657 
L -188.413916 -79.441366 
L -186.223447 -76.92214 
L -184.471072 -74.192978 
L -180.966322 -63.906138 
L -178.337759 -59.287556 
L -175.709196 -59.497492 
L -172.64254 -63.696202 
L -171.328259 -65.165751 
L -168.261603 -65.585622 
L -161.690196 -64.535944 
L -159.061634 -64.74588 
L -149.423571 -67.475041 
L -144.166446 -69.784332 
L -141.975977 -72.723429 
L -141.099789 -75.242656 
L -138.909321 -75.242656 
L -136.718852 -73.773107 
L -134.966477 -72.303558 
L -132.337914 -69.364461 
L -131.461727 -68.524719 
L -131.023633 -68.314784 
L -124.452226 -66.425364 
L -121.38557 -66.005493 
L -115.690351 -67.05517 
L -114.37607 -67.265106 
L -110.433226 -67.475041 
L -106.928476 -66.215428 
L -103.423726 -64.116073 
L -97.290413 -58.447814 
L -95.099945 -57.608072 
L -92.909476 -57.188201 
L -90.719007 -58.027943 
L -86.776163 -61.176976 
L -84.585694 -61.596847 
L -82.395225 -61.176976 
L -79.328569 -60.757105 
L -77.576194 -60.757105 
L -71.442881 -62.646524 
L -69.252413 -62.646524 
L -58.738162 -59.917363 
L -53.042944 -57.818007 
L -48.662006 -54.87891 
L -39.023943 -46.271554 
L -30.700162 -38.713875 
L -23.690662 -34.935035 
L -10.985943 -28.846905 
L -7.481192 -27.797228 
L 3.471152 -26.117743 
L 11.794933 -23.178646 
L 19.242527 -17.720322 
L 31.947246 -3.444707 
L 44.651965 11.25078 
L 54.290028 27.835686 
L 63.051903 43.160979 
L 66.556653 46.729883 
L 82.766122 57.226659 
L 104.232717 70.662533 
L 116.937436 81.159309 
L 126.137405 88.926923 
L 130.956436 93.75544 
L 134.89928 99.213764 
L 138.842124 105.721765 
L 148.480186 126.085511 
L 154.613499 135.112738 
L 164.251562 141.200869 
L 171.261062 144.139966 
L 177.832468 147.918805 
L 183.527687 152.957258 
L 191.851469 166.393131 
L 201.489531 179.829005 
L 207.18475 186.127071 
L 200.17525 195.99404 
L 196.232406 204.181526 
L 180.022937 226.434691 
L 178.270562 230.843337 
L 177.394375 232.312886 
L 174.327718 233.782434 
L 173.013437 235.251983 
L 168.194406 244.489146 
L 158.118249 258.764762 
L 153.299218 265.482698 
L 151.984936 266.742312 
L 150.232561 268.21186 
L 148.91828 269.051602 
L 147.165905 269.471473 
L 146.289718 270.10128 
L 145.851624 271.780764 
L 144.537342 273.460248 
L 139.718311 275.559603 
L 137.965936 276.819217 
L 135.775467 280.807992 
L 134.461186 290.25509 
L 130.518342 301.381673 
L 130.956436 308.309545 
L 134.023092 322.585161 
L 135.337373 336.021034 
L 134.89928 359.953684 
L 134.461186 365.202072 
L 132.270717 368.770976 
L 132.708811 369.610718 
L 133.584998 370.870331 
L 136.651655 371.920009 
L 151.108749 374.859106 
L 151.546843 375.488913 
L 151.984936 376.328655 
L 152.42303 376.958461 
L 153.737311 377.168397 
L 154.175405 376.53859 
L 154.613499 375.908784 
L 155.489686 375.698848 
L 162.499187 375.278977 
L 166.003937 374.439235 
L 169.508687 370.660395 
L 173.013437 369.610718 
L 179.584843 368.770976 
L 185.718156 370.240524 
L 188.346719 370.240524 
L 189.661 369.820653 
L 194.041937 367.931234 
L 195.356219 367.721298 
L 197.546687 367.931234 
L 198.422875 367.721298 
L 202.365719 366.461685 
L 204.994281 366.881556 
L 207.18475 367.511363 
L 208.937125 367.511363 
L 211.565688 366.461685 
L 219.451376 361.003361 
L 230.40372 357.644393 
L 235.222751 357.224522 
L 236.098938 357.224522 
L 244.860814 359.323877 
L 247.489376 359.323877 
L 250.117939 360.163619 
L 253.184595 367.091492 
L 254.93697 368.770976 
L 258.003626 369.400782 
L 262.822658 369.820653 
L 265.889314 370.870331 
L 267.641689 371.080267 
L 269.394064 370.45046 
L 270.708345 368.980911 
L 271.584533 367.721298 
L 273.775002 368.56104 
L 272.022627 371.080267 
L 270.708345 376.328655 
L 269.832158 378.42801 
L 268.079783 380.107494 
L 262.822658 382.206849 
L 261.070283 384.096269 
L 259.756001 386.615495 
L 259.317908 388.71485 
L 258.879814 390.60427 
L 256.689345 392.703625 
L 252.308408 396.272529 
L 250.994126 398.161949 
L 249.679845 401.310982 
L 248.803657 406.349434 
L 247.92747 408.658725 
L 246.175095 410.75808 
L 243.984626 412.227629 
L 241.356064 412.857436 
L 240.041782 414.117049 
L 240.041782 416.636275 
L 242.670345 422.304534 
L 245.737001 427.342987 
L 252.308408 434.060923 
L 254.498876 436.58015 
L 255.813158 439.939118 
L 257.127439 451.275636 
L 259.756001 459.253186 
L 262.822658 466.810865 
L 266.327408 470.589705 
L 277.717846 478.357319 
L 280.784502 481.296416 
L 282.974971 484.86532 
L 284.289252 489.064031 
L 285.603533 493.052806 
L 287.794002 498.931 
L 291.298752 502.289969 
L 295.67969 504.179388 
L 300.936815 505.01913 
L 305.755846 507.118486 
L 307.946315 511.107261 
L 311.451065 531.051135 
L 313.20344 535.879652 
L 315.832003 538.81875 
L 319.336753 539.658492 
L 320.21294 540.288298 
L 321.089128 541.547911 
L 322.403409 544.067138 
L 323.279597 545.536686 
L 324.593878 546.586364 
L 326.784347 548.265848 
L 328.098628 549.315526 
L 330.727191 554.983785 
L 331.603378 557.293076 
L 331.603378 561.281851 
L 332.479566 563.801077 
L 333.793847 565.690497 
L 340.365253 569.469336 
L 349.565222 575.137595 
L 351.755691 575.347531 
L 354.822348 574.297853 
L 357.012816 574.087917 
L 358.327098 575.137595 
L 367.96516 583.744952 
L 378.917504 593.821857 
L 394.250786 608.097472 
L 402.574567 615.865087 
L 407.393599 618.804184 
L 417.469755 622.163152 
L 427.984006 625.732056 
L 438.498256 629.30096 
L 449.4506 632.869864 
L 459.96485 636.438768 
L 470.917194 640.007672 
L 481.431444 643.576576 
L 492.383788 647.14548 
L 502.898039 650.924319 
L 513.850383 654.493223 
L 524.364633 658.062127 
L 535.316977 661.631031 
L 545.831227 665.199935 
L 556.783571 668.768838 
L 567.297821 672.337742 
L 578.250165 675.906646 
L 588.764416 679.685486 
L 599.278666 683.044454 
L 609.354822 686.613358 
L 619.430979 689.972326 
L 629.945229 693.54123 
L 640.021386 697.110134 
L 650.097542 700.469102 
L 660.173699 704.038006 
L 670.687949 707.60691 
L 680.764105 710.965879 
L 690.840262 714.534782 
L 701.354512 718.103686 
L 711.430669 721.462655 
L 721.506825 725.031559 
L 732.021075 728.600463 
L 742.097232 731.959431 
L 752.173388 735.528335 
L 760.059076 738.047561 
L 767.068576 741.8264 
L 778.02092 741.8264 
L 795.106577 741.8264 
L 814.382702 741.8264 
L 833.220734 741.8264 
L 849.430203 741.8264 
L 871.334891 741.8264 
L 888.858642 741.8264 
L 882.725329 747.49466 
L 877.03011 753.372854 
L 870.896797 759.251049 
L 865.201578 765.129244 
L 859.068266 770.797503 
L 853.373047 776.675697 
L 847.239734 782.553892 
L 841.544515 788.432087 
L 835.411203 794.100346 
L 834.535015 795.359959 
L 829.715984 799.97854 
L 823.582671 805.856735 
L 817.887452 811.73493 
L 811.75414 817.403189 
L 806.058921 823.281383 
L 799.925608 829.159578 
L 794.230389 835.037773 
L 788.097077 840.706032 
L 782.401858 846.584227 
L 776.268545 852.462421 
L 770.573326 858.340616 
L 764.440014 864.218811 
L 758.744795 869.88707 
L 752.611482 875.765264 
L 746.916263 881.643459 
L 740.782951 887.521654 
L 735.087732 893.189913 
L 728.954419 899.068107 
L 723.2592 904.946302 
L 720.630638 907.255593 
L 715.373512 912.713916 
L 709.678294 918.17224 
L 707.487825 920.481531 
L 704.859262 923.000757 
L 699.602137 928.249145 
L 692.154543 936.016759 
L 684.706949 943.784374 
L 677.259355 951.551988 
L 669.811761 959.319603 
L 662.364167 967.087217 
L 654.916573 974.854831 
L 647.46898 982.622446 
L 640.021386 990.39006 
L 627.316667 1004.875611 
L 614.173854 1019.571098 
L 601.031041 1034.056649 
L 589.202509 1047.072651 
L 587.888228 1048.752135 
L 574.745415 1063.237686 
L 562.040696 1077.723238 
L 548.897883 1092.418724 
L 535.755071 1106.904275 
L 528.74557 1114.67189 
L 519.107508 1125.378601 
L 515.602758 1126.84815 
L 509.031351 1126.428279 
L 502.898039 1126.008408 
L 496.326632 1125.588537 
L 490.19332 1125.378601 
L 483.621913 1124.95873 
L 477.4886 1124.538859 
L 477.050507 1124.538859 
L 471.355288 1124.118988 
L 464.783881 1123.909053 
L 458.650569 1123.489182 
L 452.079162 1123.069311 
L 445.94585 1122.64944 
L 439.812537 1122.229569 
L 433.241131 1122.019633 
L 427.107818 1121.599762 
L 420.536412 1121.179891 
L 414.403099 1120.76002 
L 408.269786 1120.550084 
L 400.822192 1120.130213 
L 396.441255 1121.179891 
L 385.927005 1124.95873 
L 381.984161 1125.798472 
L 370.155629 1128.527634 
L 360.95566 1130.836925 
L 347.374754 1133.985958 
L 338.612878 1137.974733 
L 325.031972 1144.692669 
L 311.012971 1151.410606 
L 297.432065 1158.128543 
L 287.355908 1166.735899 
L 278.155939 1174.293578 
L 277.279752 1175.553191 
L 276.403564 1176.812805 
L 274.651189 1181.011515 
L 272.460721 1189.828807 
L 270.708345 1193.817582 
L 267.203595 1197.806357 
L 266.765502 1198.016292 
L 262.384564 1200.95539 
L 257.127439 1203.054745 
L 248.803657 1204.734229 
L 230.40372 1207.883262 
L 211.565688 1211.032295 
L 197.546687 1213.551521 
L 188.346719 1213.551521 
L 177.832468 1213.761457 
L 173.889624 1214.811134 
L 169.508687 1216.910489 
L 162.499187 1222.578749 
L 154.175405 1227.827137 
L 151.984936 1229.926492 
L 151.108749 1232.235783 
L 151.108749 1236.014622 
L 150.670655 1237.694106 
L 148.91828 1238.953719 
L 147.165905 1241.472946 
L 141.032592 1244.831914 
L 135.775467 1243.782236 
L 130.518342 1240.843139 
L 124.823123 1238.953719 
L 119.565998 1242.102752 
L 117.813623 1242.522623 
L 116.061248 1242.102752 
L 112.994592 1240.843139 
L 110.804123 1240.633204 
L 101.16606 1243.15243 
L 98.099404 1243.15243 
L 91.966091 1245.04185 
L 77.947091 1245.881592 
L 65.680466 1246.511398 
L 59.547153 1245.671656 
L 53.41384 1243.362365 
L 48.156715 1238.953719 
L 40.271027 1227.827137 
L 37.204371 1224.888039 
L 35.013902 1223.628426 
L 29.318683 1221.739007 
L 27.128215 1220.479393 
L 25.813933 1219.21978 
L 23.623465 1215.440941 
L 20.994902 1211.872037 
L 13.547308 1206.833584 
L 10.918746 1203.26468 
L 3.033058 1208.303133 
L -7.043099 1212.291908 
L -19.747818 1217.330361 
L -35.519193 1223.628426 
L -36.395381 1224.258233 
L -36.833474 1226.147652 
L -37.709662 1226.777459 
L -47.347725 1230.346363 
L -59.61435 1234.545073 
L -60.052444 1234.755009 
L -60.490537 1234.545073 
L -60.490537 1234.335138 
L -61.804819 1234.125202 
L -61.804819 1234.755009 
L -61.804819 1235.594751 
L -62.242912 1236.224558 
L -67.938131 1238.953719 
L -79.766663 1244.831914 
L -90.280913 1250.080302 
L -100.795163 1255.118755 
L -102.985632 1258.267788 
L -105.614195 1264.775789 
L -108.680851 1273.803016 
L -110.87132 1277.791791 
L -113.061789 1280.730889 
L -122.699851 1289.758116 
L -130.585539 1297.105859 
L -134.090289 1301.094634 
L -136.718852 1309.28212 
L -138.471227 1312.641088 
L -142.414071 1312.851024 
L -144.604539 1311.59141 
L -145.480727 1309.911926 
L -145.918821 1308.232442 
L -147.233102 1306.762893 
L -150.737852 1305.50328 
L -166.071134 1305.083409 
L -164.756852 1302.774118 
L -165.63304 1301.514505 
L -166.947321 1301.30457 
L -167.823509 1301.724441 
L -172.64254 1304.663538 
L -177.023478 1304.663538 
L -181.842509 1303.613861 
L -192.794853 1298.575408 
L -194.547228 1297.735666 
L -195.423416 1297.52573 
L -202.432916 1298.995279 
L -204.623385 1298.995279 
L -206.37576 1298.365472 
L -208.128135 1297.945601 
L -213.38526 1298.995279 
L -216.451916 1299.205215 
L -225.651885 1296.685988 
L -237.480417 1293.32702 
L -240.108979 1292.067407 
L -241.861354 1289.968052 
L -244.928011 1285.559406 
L -244.928011 1286.399148 
L -245.366104 1288.288567 
L -245.366104 1289.128309 
L -252.375605 1288.498503 
L -252.813698 1288.078632 
L -253.251792 1287.448825 
L -253.251792 1287.028954 
L -255.004167 1287.658761 
L -255.880355 1287.868696 
L -257.194636 1287.658761 
L -258.947011 1287.23889 
L -259.385105 1286.399148 
L -259.823198 1285.559406 
L -260.699386 1284.299792 
L -262.889855 1282.410373 
L -263.766042 1281.990502 
L -264.64223 1282.620308 
L -265.080324 1283.669986 
L -265.080324 1284.719663 
L -265.080324 1285.34947 
L -271.213636 1288.078632 
L -278.223136 1288.708438 
L -290.927855 1287.23889 
L -304.070668 1285.769341 
L -308.013512 1285.979277 
L -311.518262 1287.028954 
L -313.270637 1286.819019 
L -315.8992 1284.299792 
L -319.40395 1283.250115 
L -321.156325 1282.200437 
L -322.9087 1280.101082 
L -325.975356 1274.852694 
L -328.603919 1272.543403 
L -332.108669 1270.234112 
L -344.375294 1262.256562 
L -355.765732 1254.698884 
L -368.470451 1246.301463 
L -379.422795 1238.953719 
L -389.498952 1232.445718 
L -403.517952 1223.418491 
L -415.346483 1215.650876 
L -427.175015 1207.883262 
L -433.746421 1203.474616 
L -434.184515 1203.26468 
L -435.060703 1203.26468 
L -435.498796 1203.26468 
L -435.93689 1202.634874 
L -436.813078 1199.695777 
L -437.251171 1198.646099 
L -438.127359 1197.386486 
L -439.003547 1197.17655 
L -441.194015 1197.386486 
L -442.070203 1196.756679 
L -444.260672 1193.397711 
L -445.136859 1192.557969 
L -450.393984 1191.298356 
L -459.15586 1186.88971 
L -466.16536 1184.790354 
L -489.822423 1185.00029 
L -490.69861 1184.790354 
L -492.450985 1183.740677 
L -493.765267 1183.530741 
L -512.603298 1183.950612 
L -535.384174 1184.370483 
L -536.698455 1184.160548 
L -538.888924 1183.11087 
L -540.203205 1182.690999 
L -541.517486 1182.690999 
L -545.46033 1183.320806 
L -563.422175 1183.530741 
L -563.860268 1183.530741 
L -566.488831 1182.690999 
L -569.117393 1181.011515 
L -573.936425 1176.812805 
L -576.126894 1175.553191 
L -577.003081 1173.663772 
L -577.003081 1171.564416 
L -576.564987 1169.04519 
L -576.564987 1166.735899 
L -578.317362 1163.796802 
L -578.755456 1161.697447 
L -594.964925 1143.642992 
L -598.031582 1138.394604 
L -599.345863 1132.516409 
L -598.469675 1106.484404 
L -598.031582 1104.80492 
L -593.21255 1098.71679 
L -592.336363 1096.407499 
L -592.336363 1093.678337 
L -593.650644 1090.73924 
L -595.841113 1086.120659 
L -596.279207 1083.601432 
L -595.403019 1080.662335 
L -592.336363 1075.833818 
L -592.774456 1074.78414 
L -599.345863 1072.054978 
L -607.231551 1067.016526 
L -610.736301 1066.176784 
L -612.926769 1066.80659 
L -615.117238 1067.856268 
L -617.745801 1068.486075 
L -620.812457 1067.646332 
L -626.069582 1063.237686 
L -628.698145 1061.768138 
L -630.888614 1061.138331 
L -633.517176 1060.71846 
L -636.145739 1060.71846 
L -638.336208 1061.138331 
L -640.96477 1063.027751 
L -645.783801 1068.486075 
L -648.850458 1070.58543 
L -651.47902 1071.005301 
L -653.669489 1069.955623 
L -655.859958 1067.856268 
L -659.802802 1061.348267 
L -660.240896 1060.298589 
L -659.802802 1058.619105 
L -658.926614 1057.359492 
L -658.050427 1056.099879 
L -657.174239 1054.63033 
L -658.050427 1053.160781 
L -658.926614 1050.641555 
L -663.307552 1046.862716 
L -673.383708 1040.984521 
L -678.640834 1036.995746 
L -679.955115 1034.47652 
L -680.831302 1027.338712 
L -682.583677 1023.979744 
L -692.659834 1009.704128 
L -693.536021 1006.974966 
L -693.974115 1005.295482 
L -693.536021 1004.035869 
L -693.536021 1002.56632 
L -693.097928 1000.886836 
L -693.536021 999.417287 
L -695.288396 997.317932 
L -696.164584 995.848384 
L -696.164584 994.378835 
L -695.72649 993.119222 
L -694.412209 990.39006 
L -694.412209 988.920511 
L -695.72649 982.202575 
L -696.602678 979.893284 
L -698.793146 977.164122 
L -700.983615 975.064767 
L -702.73599 972.755476 
L -705.364553 966.667346 
L -709.745491 959.109667 
L -710.183584 956.590441 
L -710.183584 949.242697 
L -711.059772 946.093665 
L -715.878803 937.486308 
L -716.754991 934.967082 
L -718.069272 927.829274 
L -720.697835 920.901402 
L -722.012116 915.862949 
L -722.888303 910.614561 
L -723.764491 910.19469 
L -725.516866 908.515206 
L -725.95496 906.205915 
L -726.831147 904.736366 
L -735.154929 899.278043 
L -736.907304 898.438301 
L -739.535866 898.01843 
L -744.792991 898.01843 
L -746.98346 897.598559 
L -748.297741 896.338946 
L -749.173929 891.300493 
L -749.612023 890.670686 
L -750.050116 889.411073 
L -750.050116 888.781267 
L -750.050116 888.571331 
L -748.735835 887.731589 
L -748.297741 887.521654 
L -748.735835 885.002427 
L -749.173929 882.903072 
L -750.050116 881.013652 
L -750.926304 879.334168 
L -758.811992 873.665909 
L -775.897648 869.467199 
L -776.335742 869.047328 
L -777.21193 868.627457 
L -778.088117 868.207585 
L -778.964305 865.898295 
L -779.402398 865.268488 
L -784.22143 861.489649 
L -785.535711 860.0201 
L -786.411899 859.180358 
L -787.288086 858.970422 
L -788.164274 857.710809 
L -788.602367 854.771712 
L -788.602367 853.512099 
L -788.602367 849.523324 
L -789.040461 847.004098 
L -790.354742 844.904742 
L -792.107117 843.855065 
L -793.859493 844.904742 
L -796.049961 845.324613 
L -798.678524 843.645129 
L -801.74518 839.446419 
L -807.440399 834.827837 
L -808.316587 834.617902 
L -808.75468 833.988095 
L -808.75468 822.231706 
L -809.630868 818.032995 
L -811.383243 814.674027 
L -826.716525 798.928863 
L -830.221275 796.829508 
L -831.535556 796.619572 
L -834.164118 796.199701 
L -835.4784 795.989765 
L -841.611712 791.371184 
L -845.116463 785.91286 
L -846.868838 784.023441 
L -848.183119 783.393634 
L -851.687869 782.343956 
L -855.192619 780.034666 
L -856.5069 779.614795 
L -864.392588 780.454537 
L -867.021151 779.614795 
L -868.335432 778.775053 
L -870.087807 776.465762 
L -870.963994 775.416084 
L -872.278276 774.786278 
L -874.468744 774.156471 
L -875.783026 773.316729 
L -877.973495 772.476987 
L -881.040151 772.686922 
L -886.297276 773.7366 
L -887.173464 774.156471 
L -890.24012 776.255826 
L -891.554401 776.255826 
L -898.563901 774.576342 
L -900.75437 772.476987 
L -902.506745 770.167696 
L -904.697214 768.488212 
L -905.573401 768.278276 
L -909.516245 767.64847 
L -913.020995 766.178921 
L -913.897183 765.968986 
L -917.840027 767.018663 
L -918.716214 767.228599 
L -919.154308 768.278276 
L -920.906683 768.068341 
L -923.535246 766.808728 
L -927.039996 766.388857 
L -927.916183 765.968986 
L -928.354277 765.339179 
L -928.792371 764.079566 
L -929.230465 763.029888 
L -930.98284 761.770275 
L -932.297121 759.880855 
z
" clip-path="url(#pf6e43dc174)" style="fill: #bdc3c7; stroke: #ffffff; stroke-width: 0.5"/>
    <path d="M 240.041782 416.636275 
L 240.041782 414.117049 
L 241.356064 412.857436 
L 243.984626 412.227629 
L 246.175095 410.75808 
L 247.92747 408.658725 
L 248.803657 406.349434 
L 249.679845 401.310982 
L 250.994126 398.161949 
L 252.308408 396.272529 
L 256.689345 392.703625 
L 258.879814 390.60427 
L 259.317908 388.71485 
L 259.756001 386.615495 
L 261.070283 384.096269 
L 262.822658 382.206849 
L 268.079783 380.107494 
L 269.832158 378.42801 
L 270.708345 376.328655 
L 272.022627 371.080267 
L 273.775002 368.56104 
L 305.755846 317.546708 
L 312.327253 307.679739 
L 313.641534 309.569158 
L 315.393909 310.828771 
L 318.022472 311.038707 
L 317.146284 306.21019 
L 318.898659 308.309545 
L 321.965315 312.928127 
L 324.155784 315.447353 
L 325.908159 316.077159 
L 328.536722 319.646063 
L 330.727191 320.485805 
L 333.355753 320.905676 
L 336.860503 323.634838 
L 339.050972 324.684516 
L 339.489066 322.585161 
L 341.241441 321.115612 
L 342.555722 320.905676 
L 342.993816 323.005032 
L 341.241441 334.551486 
L 342.117628 338.54026 
L 344.308097 342.3191 
L 347.374754 345.048262 
L 348.250941 345.468133 
L 350.003316 345.888004 
L 350.879504 346.51781 
L 351.317597 347.147617 
L 352.193785 349.037037 
L 353.94616 351.556263 
L 354.822348 354.915231 
L 357.889004 359.533813 
L 363.146129 369.820653 
L 374.97466 381.577043 
L 383.736536 392.913561 
L 395.126973 402.570595 
L 407.831693 411.597823 
L 416.593568 419.365437 
L 422.72688 423.144276 
L 438.060162 435.950343 
L 441.564912 438.049698 
L 446.822037 441.198731 
L 452.079162 443.298087 
L 461.279131 442.66828 
L 470.4791 443.927893 
L 475.736225 444.977571 
L 480.993351 444.137829 
L 484.936194 442.66828 
L 492.383788 440.568925 
L 495.888538 439.519247 
L 500.70757 439.939118 
L 508.593257 441.198731 
L 513.850383 441.408667 
L 521.73607 440.988796 
L 525.678914 437.629827 
L 524.802727 435.530472 
L 526.555102 435.530472 
L 539.697914 427.342987 
L 541.888383 426.503245 
L 545.393133 425.453567 
L 556.783571 418.105824 
L 565.107353 410.338209 
L 567.297821 409.288532 
L 569.48829 409.498467 
L 571.678759 410.338209 
L 573.869228 410.75808 
L 576.059697 410.75808 
L 580.440634 409.708403 
L 585.697759 407.609048 
L 589.202509 405.299757 
L 592.269166 402.990466 
L 596.21201 398.371885 
L 597.526291 397.532142 
L 606.72626 394.38311 
L 608.040541 393.753303 
L 609.792916 392.073819 
L 610.669104 390.394335 
L 612.421479 389.134722 
L 614.611947 388.504915 
L 615.926229 387.875108 
L 618.116698 384.306204 
L 619.869073 383.466462 
L 622.059541 383.466462 
L 623.811916 383.886333 
L 625.564292 384.51614 
L 627.316667 385.985689 
L 628.630948 387.665173 
L 629.507135 389.134722 
L 630.383323 390.184399 
L 632.573792 390.394335 
L 632.135698 388.085044 
L 633.888073 388.085044 
L 645.278511 393.333432 
L 649.659448 393.963239 
L 653.602292 395.012916 
L 655.792761 395.852658 
L 660.611792 396.902336 
L 664.554636 396.062594 
L 673.316511 393.753303 
L 676.821261 394.173174 
L 679.887918 396.062594 
L 685.145043 401.730853 
L 688.649793 404.460015 
L 693.030731 406.139499 
L 697.849762 406.769305 
L 702.668793 406.55937 
L 706.611637 405.509692 
L 708.802106 404.66995 
L 712.306856 402.360659 
L 716.2497 401.730853 
L 719.75445 400.261304 
L 724.573481 400.051369 
L 726.76395 399.631498 
L 728.078231 398.791756 
L 732.459169 395.432787 
L 742.973419 390.60427 
L 747.792451 386.615495 
L 753.48767 384.306204 
L 753.925763 383.466462 
L 755.240045 381.577043 
L 755.678138 380.947236 
L 756.554326 380.527365 
L 758.306701 380.31743 
L 759.182888 380.107494 
L 770.573326 375.908784 
L 779.773295 368.980911 
L 785.906608 363.942459 
L 789.849452 359.323877 
L 791.601827 358.2742 
L 797.297046 356.594715 
L 798.611327 355.754973 
L 801.677983 353.235747 
L 814.382702 346.937681 
L 816.573171 345.888004 
L 819.201734 345.468133 
L 822.706484 345.888004 
L 829.27789 344.418455 
L 833.220734 345.048262 
L 852.058766 354.915231 
L 856.00161 355.754973 
L 863.01111 352.186069 
L 878.344391 351.766198 
L 884.915798 352.815876 
L 907.25858 351.346327 
L 910.76333 350.29665 
L 912.515705 348.827101 
L 915.144267 345.048262 
L 917.77283 343.998584 
L 917.77283 342.948906 
L 918.210924 342.109164 
L 919.087111 341.689293 
L 921.27758 341.689293 
L 922.591861 341.689293 
L 924.78233 340.849551 
L 926.972799 340.639616 
L 928.28708 340.009809 
L 929.163268 339.170067 
L 929.601361 338.330325 
L 929.601361 337.490583 
L 930.039455 336.650841 
L 931.79183 334.971357 
L 933.106111 334.131614 
L 936.610861 333.291872 
L 945.372737 332.45213 
L 949.753674 331.402453 
L 952.820331 329.303097 
L 955.010799 328.673291 
L 962.458393 328.883226 
L 969.0298 327.413678 
L 971.220269 327.203742 
L 979.54405 329.093162 
L 983.924988 330.982582 
L 988.744019 333.711743 
L 999.696363 337.280647 
L 1001.448738 337.490583 
L 1003.639207 337.490583 
L 1005.829676 337.280647 
L 1005.829676 351.346327 
L 1005.829676 365.412007 
L 1005.829676 379.267752 
L 1005.829676 393.333432 
L 1005.829676 407.189177 
L 1005.829676 421.254857 
L 1005.829676 435.110601 
L 1005.829676 449.176281 
L 1005.829676 463.032026 
L 1005.829676 477.097706 
L 1005.829676 490.95345 
L 1005.829676 505.01913 
L 1005.829676 518.874875 
L 1005.829676 532.940555 
L 1005.829676 547.006235 
L 1005.829676 560.86198 
L 998.382082 572.198498 
L 990.934488 583.535016 
L 983.924988 594.871534 
L 976.477394 605.998117 
L 969.0298 617.334635 
L 962.0203 628.671153 
L 954.572706 640.007672 
L 947.125112 651.34419 
L 940.115612 662.680708 
L 932.668018 674.017227 
L 925.220424 685.143809 
L 918.210924 696.480327 
L 910.76333 707.816846 
L 903.315736 719.153364 
L 896.306235 730.489882 
L 888.858642 741.8264 
L 871.334891 741.8264 
L 849.430203 741.8264 
L 833.220734 741.8264 
L 814.382702 741.8264 
L 795.106577 741.8264 
L 778.02092 741.8264 
L 767.068576 741.8264 
L 760.059076 738.047561 
L 752.173388 735.528335 
L 742.097232 731.959431 
L 732.021075 728.600463 
L 721.506825 725.031559 
L 711.430669 721.462655 
L 701.354512 718.103686 
L 690.840262 714.534782 
L 680.764105 710.965879 
L 670.687949 707.60691 
L 660.173699 704.038006 
L 650.097542 700.469102 
L 640.021386 697.110134 
L 629.945229 693.54123 
L 619.430979 689.972326 
L 609.354822 686.613358 
L 599.278666 683.044454 
L 588.764416 679.685486 
L 578.250165 675.906646 
L 567.297821 672.337742 
L 556.783571 668.768838 
L 545.831227 665.199935 
L 535.316977 661.631031 
L 524.364633 658.062127 
L 513.850383 654.493223 
L 502.898039 650.924319 
L 492.383788 647.14548 
L 481.431444 643.576576 
L 470.917194 640.007672 
L 459.96485 636.438768 
L 449.4506 632.869864 
L 438.498256 629.30096 
L 427.984006 625.732056 
L 417.469755 622.163152 
L 407.393599 618.804184 
L 402.574567 615.865087 
L 394.250786 608.097472 
L 378.917504 593.821857 
L 367.96516 583.744952 
L 358.327098 575.137595 
L 357.012816 574.087917 
L 354.822348 574.297853 
L 351.755691 575.347531 
L 349.565222 575.137595 
L 340.365253 569.469336 
L 333.793847 565.690497 
L 332.479566 563.801077 
L 331.603378 561.281851 
L 331.603378 557.293076 
L 330.727191 554.983785 
L 328.098628 549.315526 
L 326.784347 548.265848 
L 324.593878 546.586364 
L 323.279597 545.536686 
L 322.403409 544.067138 
L 321.089128 541.547911 
L 320.21294 540.288298 
L 319.336753 539.658492 
L 315.832003 538.81875 
L 313.20344 535.879652 
L 311.451065 531.051135 
L 307.946315 511.107261 
L 305.755846 507.118486 
L 300.936815 505.01913 
L 295.67969 504.179388 
L 291.298752 502.289969 
L 287.794002 498.931 
L 285.603533 493.052806 
L 284.289252 489.064031 
L 282.974971 484.86532 
L 280.784502 481.296416 
L 277.717846 478.357319 
L 266.327408 470.589705 
L 262.822658 466.810865 
L 259.756001 459.253186 
L 257.127439 451.275636 
L 255.813158 439.939118 
L 254.498876 436.58015 
L 252.308408 434.060923 
L 245.737001 427.342987 
L 242.670345 422.304534 
z
" clip-path="url(#pf6e43dc174)" style="fill: #bdc3c7; stroke: #ffffff; stroke-width: 0.5"/>
    <path d="M -517.42233 -142.841894 
L -517.42233 -145.571056 
L -516.108048 -147.670411 
L -507.346173 -156.277768 
L -505.155704 -159.846672 
L -499.022392 -177.901127 
L -496.393829 -181.679966 
L -492.450985 -184.409128 
L -494.20336 -189.867451 
L -493.765267 -195.11584 
L -487.19386 -218.838554 
L -485.879579 -221.567715 
L -479.746266 -227.865781 
L -476.67961 -233.114169 
L -470.546297 -249.48914 
L -465.289172 -265.024369 
L -461.346328 -276.360887 
L -459.15586 -279.50992 
L -453.898734 -284.758308 
L -453.022547 -287.907341 
L -453.022547 -290.636503 
L -455.213016 -295.674955 
L -456.089203 -298.194181 
L -455.651109 -300.923343 
L -455.213016 -303.022698 
L -455.213016 -305.331989 
L -456.089203 -307.431344 
L -456.089203 -307.851215 
L -457.841578 -310.160506 
L -460.032047 -312.049926 
L -461.346328 -314.359217 
L -462.222516 -317.088378 
L -462.222516 -318.767863 
L -460.908235 -323.806315 
L -460.470141 -326.115606 
L -460.470141 -330.314316 
L -460.470141 -332.413672 
L -459.15586 -334.722962 
L -457.403484 -336.402447 
L -453.460641 -339.341544 
L -452.146359 -341.021028 
L -449.079703 -348.578707 
L -448.641609 -355.92645 
L -448.203515 -356.556257 
L -447.327328 -357.395999 
L -447.327328 -358.025806 
L -447.327328 -358.655612 
L -448.203515 -359.915225 
L -448.203515 -360.335096 
L -448.203515 -365.373549 
L -448.203515 -366.843097 
L -449.517797 -368.312646 
L -450.832078 -369.572259 
L -451.270172 -371.041808 
L -448.203515 -375.240518 
L -447.765422 -377.549809 
L -448.203515 -379.8591 
L -450.393984 -383.218068 
L -450.832078 -384.267746 
L -450.393984 -385.317424 
L -449.517797 -386.367101 
L -447.327328 -386.577037 
L -445.136859 -385.737295 
L -443.384484 -384.477681 
L -441.194015 -383.637939 
L -438.127359 -383.218068 
L -436.813078 -382.798197 
L -431.994046 -379.8591 
L -431.117859 -379.649164 
L -424.546452 -380.698842 
L -422.355984 -380.488906 
L -418.851234 -380.698842 
L -413.156015 -384.267746 
L -409.651265 -384.477681 
L -398.260827 -381.328649 
L -391.251327 -389.306198 
L -390.375139 -391.825425 
L -389.498952 -394.554587 
L -386.870389 -399.383104 
L -386.432295 -401.90233 
L -385.556108 -407.150718 
L -385.994201 -409.250073 
L -387.308483 -414.918332 
L -386.870389 -416.387881 
L -385.556108 -417.227623 
L -369.346639 -422.05614 
L -364.527607 -422.895882 
L -359.708576 -425.415108 
L -354.451451 -434.652271 
L -350.070513 -436.961562 
L -347.441951 -436.331756 
L -343.9372 -432.762852 
L -341.308638 -431.92311 
L -338.241982 -432.552916 
L -336.051513 -434.442336 
L -332.108669 -439.270853 
L -323.784888 -444.729177 
L -320.718231 -445.778854 
L -318.089669 -445.778854 
L -316.775387 -444.519241 
L -316.775387 -442.419886 
L -316.775387 -439.90066 
L -316.337294 -437.171498 
L -314.584919 -437.381433 
L -312.39445 -439.060917 
L -311.080168 -441.370208 
L -311.080168 -442.629821 
L -311.518262 -443.469563 
L -311.518262 -444.309306 
L -311.080168 -445.358983 
L -310.203981 -445.568919 
L -305.823043 -446.828532 
L -304.070668 -445.778854 
L -302.318293 -443.889434 
L -300.127824 -442.629821 
L -297.061168 -443.049692 
L -295.308793 -444.939112 
L -294.870699 -447.458338 
L -294.870699 -449.977565 
L -294.432606 -452.496791 
L -292.242137 -454.386211 
L -286.108824 -457.325308 
L -283.918355 -459.214728 
L -280.413605 -464.463116 
L -272.966011 -483.567248 
L -269.461261 -488.395765 
L -252.375605 -502.461445 
L -251.937511 -501.201832 
L -251.061323 -499.942219 
L -250.185136 -495.953444 
L -244.928011 -488.815636 
L -244.489917 -487.556023 
L -244.489917 -485.036797 
L -244.051823 -483.777184 
L -241.861354 -480.838087 
L -241.423261 -479.998344 
L -240.985167 -477.898989 
L -229.594729 -460.684276 
L -220.832854 -441.370208 
L -212.509072 -426.884657 
L -209.442416 -416.387881 
L -208.128135 -413.868655 
L -209.442416 -409.040138 
L -207.251947 -405.471234 
L -204.185291 -401.90233 
L -202.432916 -398.12349 
L -201.556728 -393.294973 
L -200.680541 -389.096263 
L -197.175791 -381.958455 
L -196.737697 -379.439229 
L -196.299603 -374.400776 
L -195.423416 -371.88155 
L -193.671041 -368.312646 
L -192.794853 -363.274194 
L -192.356759 -361.174838 
L -188.413916 -352.147611 
L -185.785353 -342.490577 
L -187.099634 -343.330319 
L -184.909165 -337.66206 
L -184.032978 -334.932898 
L -184.032978 -331.363994 
L -186.223447 -329.054703 
L -184.471072 -323.386444 
L -184.909165 -320.237411 
L -185.785353 -321.077153 
L -185.347259 -319.187734 
L -184.471072 -318.557927 
L -183.15679 -318.557927 
L -182.280603 -318.138056 
L -182.718697 -313.72941 
L -182.280603 -312.679732 
L -181.842509 -311.420119 
L -181.404415 -310.580377 
L -180.966322 -309.5307 
L -180.528228 -307.851215 
L -180.966322 -303.022698 
L -180.528228 -301.55315 
L -180.090134 -300.293537 
L -179.213947 -298.404117 
L -178.775853 -296.724633 
L -179.213947 -295.255084 
L -179.65204 -292.106051 
L -179.65204 -290.426567 
L -176.14729 -274.261532 
L -175.709196 -268.593273 
L -175.271103 -266.703853 
L -172.204446 -260.615723 
L -168.261603 -244.450687 
L -165.63304 -240.042041 
L -158.62354 -235.633395 
L -157.309259 -233.743976 
L -156.433071 -232.904234 
L -152.052133 -231.014814 
L -150.737852 -229.965136 
L -150.737852 -228.285652 
L -151.175946 -227.026039 
L -152.052133 -225.766426 
L -152.490227 -224.296877 
L -152.052133 -222.827329 
L -150.299758 -221.147844 
L -149.861665 -220.098167 
L -149.861665 -216.739198 
L -148.985477 -214.849779 
L -145.918821 -211.070939 
L -147.671196 -211.070939 
L -149.423571 -209.811326 
L -149.861665 -207.921906 
L -148.985477 -206.032487 
L -148.547383 -207.082164 
L -147.233102 -208.341777 
L -145.918821 -208.761649 
L -145.042633 -207.711971 
L -145.042633 -205.40268 
L -147.671196 -204.353003 
L -150.299758 -203.933131 
L -151.61404 -203.933131 
L -151.175946 -202.673518 
L -148.985477 -199.31455 
L -148.547383 -195.11584 
L -148.10929 -194.276097 
L -146.356915 -193.646291 
L -143.728352 -193.22642 
L -141.099789 -193.646291 
L -139.785508 -194.695968 
L -138.909321 -196.165517 
L -136.718852 -196.375453 
L -134.090289 -195.955582 
L -132.337914 -195.11584 
L -129.271258 -191.127065 
L -123.137945 -170.763319 
L -122.699851 -170.343448 
L -120.509383 -169.503706 
L -119.633195 -169.083835 
L -119.633195 -166.774544 
L -118.757008 -164.675189 
L -117.88082 -162.995704 
L -116.566539 -161.736091 
L -118.318914 -155.018155 
L -118.757008 -144.311443 
L -118.757008 -143.891572 
L -117.442726 -143.05183 
L -117.004633 -142.631959 
L -117.004633 -140.742539 
L -115.690351 -139.692861 
L -113.937976 -139.692861 
L -112.185601 -140.532603 
L -111.309414 -138.223313 
L -109.557039 -137.803442 
L -107.804664 -138.433248 
L -105.176101 -138.853119 
L -104.299913 -139.482926 
L -103.423726 -140.952475 
L -103.423726 -142.422023 
L -103.423726 -143.471701 
L -104.299913 -144.521378 
L -103.86182 -145.361121 
L -102.109445 -146.410798 
L -99.918976 -150.609509 
L -99.480882 -152.918799 
L -102.109445 -157.11751 
L -103.423726 -162.155962 
L -104.299913 -163.835447 
L -106.052289 -164.045382 
L -106.928476 -161.946027 
L -107.804664 -160.896349 
L -108.680851 -163.625511 
L -109.118945 -165.934802 
L -108.680851 -172.442803 
L -109.118945 -173.702416 
L -109.557039 -176.221642 
L -109.557039 -177.481256 
L -109.557039 -178.950804 
L -108.680851 -179.580611 
L -107.804664 -179.790546 
L -107.36657 -180.630288 
L -106.490382 -184.828999 
L -105.614195 -186.088612 
L -103.86182 -184.828999 
L -102.985632 -184.828999 
L -102.985632 -185.668741 
L -102.109445 -188.187967 
L -101.233257 -188.187967 
L -101.233257 -187.768096 
L -101.233257 -186.508483 
L -99.918976 -187.558161 
L -98.604695 -190.287322 
L -97.290413 -191.546936 
L -95.538038 -188.397903 
L -92.909476 -185.878676 
L -81.519038 -176.431578 
L -79.766663 -175.3819 
L -77.1381 -174.752094 
L -75.823819 -174.542158 
L -74.947632 -173.702416 
L -73.195257 -172.652739 
L -72.319069 -171.393125 
L -71.880975 -169.923577 
L -72.319069 -168.663964 
L -73.195257 -167.194415 
L -75.385725 -165.514931 
L -76.261913 -164.255318 
L -77.1381 -163.20564 
L -78.890475 -158.377123 
L -77.576194 -158.587058 
L -76.700007 -158.377123 
L -75.823819 -157.537381 
L -75.823819 -156.277768 
L -75.823819 -155.857897 
L -77.1381 -155.438026 
L -77.1381 -155.018155 
L -77.1381 -154.388348 
L -76.700007 -153.968477 
L -76.261913 -153.548606 
L -75.823819 -152.498928 
L -72.757163 -150.399573 
L -72.319069 -149.349895 
L -71.880975 -147.880347 
L -70.566694 -144.521378 
L -69.690506 -143.05183 
L -69.690506 -141.582281 
L -70.1286 -139.902797 
L -70.1286 -138.433248 
L -69.690506 -136.9637 
L -68.376225 -137.593506 
L -66.62385 -137.173635 
L -65.309569 -136.333893 
L -64.871475 -135.07428 
L -64.433381 -134.024602 
L -63.995288 -133.814667 
L -63.557194 -133.604731 
L -63.1191 -132.764989 
L -63.1191 -131.715312 
L -63.995288 -129.825892 
L -63.995288 -128.98615 
L -62.681006 -126.676859 
L -60.052444 -125.417246 
L -50.852475 -122.058277 
L -49.1001 -121.218535 
L -48.223912 -120.588729 
L -47.347725 -118.279438 
L -45.59535 -118.699309 
L -42.528693 -121.0086 
L -39.900131 -122.058277 
L -38.147756 -124.577504 
L -36.395381 -127.306666 
L -34.643006 -129.406021 
L -35.081099 -127.306666 
L -34.643006 -125.627181 
L -33.328724 -124.787439 
L -31.138255 -125.20731 
L -30.700162 -126.256988 
L -31.138255 -127.726537 
L -30.700162 -128.776214 
L -28.509693 -129.406021 
L -27.195412 -129.406021 
L -26.757318 -129.615956 
L -25.443037 -128.566279 
L -25.88113 -128.146408 
L -25.88113 -127.306666 
L -25.88113 -126.466923 
L -24.128755 -126.047052 
L -23.252568 -125.627181 
L -23.252568 -124.997375 
L -22.814474 -124.367568 
L -21.500193 -124.367568 
L -20.624005 -124.577504 
L -19.747818 -125.20731 
L -19.309724 -126.047052 
L -18.87163 -126.886794 
L -19.309724 -127.726537 
L -19.747818 -128.776214 
L -19.747818 -131.085505 
L -19.309724 -130.455698 
L -18.433536 -129.196085 
L -17.995443 -128.566279 
L -14.928786 -127.726537 
L -14.490693 -126.676859 
L -14.490693 -125.627181 
L -14.490693 -124.577504 
L -14.052599 -123.317891 
L -13.176411 -122.89802 
L -12.300224 -122.89802 
L -11.86213 -123.317891 
L -10.547849 -123.317891 
L -8.35738 -123.107955 
L -7.043099 -122.478148 
L -6.605005 -121.428471 
L -6.166911 -116.599954 
L -5.728817 -115.550276 
L -2.224067 -114.080728 
L -2.662161 -116.180083 
L -1.785974 -116.809889 
L 1.718777 -116.599954 
L 2.15687 -115.970147 
L 2.594964 -114.92047 
L 2.15687 -114.290663 
L 0.404495 -114.92047 
L -0.471692 -114.080728 
L 5.223527 -107.992597 
L 5.223527 -108.412468 
L 5.66162 -108.622404 
L 6.537808 -108.412468 
L 6.975902 -107.362791 
L 6.975902 -106.313113 
L 6.975902 -102.954145 
L 6.099714 -100.224983 
L 6.099714 -98.755434 
L 6.975902 -97.07595 
L 10.042558 -94.976595 
L 10.918746 -93.507046 
L 10.918746 -90.98782 
L 12.233027 -91.827562 
L 13.547308 -92.457369 
L 14.861589 -92.457369 
L 16.175871 -92.037498 
L 16.175871 -94.346788 
L 18.804433 -93.087175 
L 25.37584 -93.507046 
L 28.88059 -91.617627 
L 32.823434 -88.888465 
L 36.328184 -87.838787 
L 44.213871 -87.628852 
L 58.670965 -84.479819 
L 59.985247 -83.850012 
L 61.299528 -81.960593 
L 63.489997 -77.342011 
L 64.804278 -75.242656 
L 70.499497 -71.463816 
L 74.004247 -68.94459 
L 77.070903 -65.375686 
L 78.823278 -61.176976 
L 79.261372 -56.558394 
L 80.575653 -54.668974 
L 82.328028 -53.409361 
L 84.518497 -52.569619 
L 85.394685 -51.519942 
L 85.832779 -50.470264 
L 88.023247 -47.741102 
L 89.775622 -42.70265 
L 92.404185 -39.763552 
L 98.099404 -34.935035 
L 101.16606 -31.156196 
L 102.042248 -29.476712 
L 102.918435 -27.167421 
L 103.794623 -23.178646 
L 104.232717 -21.709097 
L 105.546998 -20.239549 
L 107.299373 -18.979936 
L 111.242217 -16.670645 
L 113.432685 -14.781225 
L 115.185061 -12.471934 
L 119.565998 -4.284449 
L 120.880279 0.963939 
L 121.756467 2.853359 
L 129.642155 5.16265 
L 131.39453 5.16265 
L 135.337373 3.693101 
L 136.651655 3.483165 
L 137.527842 4.112972 
L 140.156405 8.101747 
L 141.90878 10.201102 
L 142.784967 10.830909 
L 144.537342 11.25078 
L 145.851624 11.040844 
L 148.480186 10.411038 
L 149.356374 10.411038 
L 151.546843 11.040844 
L 155.92778 13.979942 
L 157.680155 14.609748 
L 158.994437 15.44949 
L 159.43253 17.758781 
L 159.870624 20.278007 
L 160.308718 22.167427 
L 165.565843 26.156202 
L 166.44203 27.835686 
L 166.880124 27.835686 
L 169.508687 31.614526 
L 170.384874 33.29401 
L 170.822968 33.503945 
L 171.699156 33.923816 
L 172.137249 34.133752 
L 172.575343 35.6033 
L 173.451531 38.332462 
L 174.327718 39.592075 
L 175.641999 40.011946 
L 176.956281 39.38214 
L 178.270562 38.752333 
L 178.708656 38.752333 
L 179.14675 39.592075 
L 181.337218 41.061624 
L 182.213406 41.691431 
L 182.6515 42.951044 
L 183.089593 45.890141 
L 183.527687 46.939819 
L 186.594343 49.039174 
L 187.032437 49.039174 
L 187.470531 50.928594 
L 188.346719 50.718658 
L 189.222906 50.088852 
L 189.222906 49.668981 
L 188.346719 49.039174 
L 186.594343 46.939819 
L 186.15625 46.100077 
L 186.15625 45.890141 
L 185.718156 45.680206 
L 185.280062 45.260335 
L 185.280062 44.420592 
L 185.718156 44.210657 
L 187.470531 44.420592 
L 187.908625 44.420592 
L 187.908625 41.061624 
L 186.15625 39.592075 
L 184.403875 38.542398 
L 181.775312 38.332462 
L 180.461031 38.122527 
L 180.899125 37.282785 
L 182.213406 36.652978 
L 183.527687 36.652978 
L 187.908625 40.011946 
L 192.289562 46.100077 
L 194.041937 46.939819 
L 196.232406 48.199432 
L 197.108594 51.348465 
L 197.108594 56.386917 
L 198.422875 60.585628 
L 199.299063 62.475047 
L 200.613344 63.104854 
L 201.927625 64.574403 
L 202.803813 67.723436 
L 204.994281 81.999051 
L 206.308563 85.148084 
L 207.18475 91.026279 
L 207.18475 91.656085 
L 207.18475 92.075956 
L 211.127594 94.175311 
L 213.756157 95.015054 
L 219.013282 95.434925 
L 221.641844 95.015054 
L 222.956126 93.965376 
L 223.832313 92.285892 
L 224.708501 90.396472 
L 226.022782 90.816343 
L 226.460876 91.656085 
L 226.898969 92.705763 
L 227.337063 93.75544 
L 227.775157 94.385247 
L 228.651344 94.805118 
L 229.527532 95.434925 
L 229.527532 96.904473 
L 230.40372 98.374022 
L 236.537032 103.62241 
L 240.91797 110.760218 
L 242.670345 111.809895 
L 244.860814 112.019831 
L 247.051282 113.069509 
L 248.803657 114.119186 
L 250.117939 115.588735 
L 250.994126 117.478155 
L 252.308408 124.406027 
L 254.060783 129.024608 
L 254.498876 131.333899 
L 254.93697 134.902803 
L 255.375064 136.792223 
L 256.251251 138.051836 
L 258.003626 138.471707 
L 259.756001 138.051836 
L 261.070283 137.212094 
L 262.822658 136.582287 
L 264.575033 139.941256 
L 266.765502 141.830675 
L 270.270252 142.880353 
L 274.651189 143.300224 
L 274.213096 143.93003 
L 272.898814 145.81945 
L 274.213096 145.81945 
L 275.089283 145.609515 
L 276.403564 144.979708 
L 275.965471 144.769773 
L 278.594033 143.300224 
L 280.346408 141.62074 
L 281.222596 139.73132 
L 281.66069 138.681642 
L 281.66069 137.8419 
L 281.66069 137.212094 
L 282.974971 136.582287 
L 282.098783 135.322674 
L 282.098783 134.063061 
L 282.536877 133.013383 
L 282.974971 132.173641 
L 286.479721 134.692867 
L 288.232096 136.372352 
L 288.67019 137.631965 
L 289.546377 138.891578 
L 290.860658 139.941256 
L 292.17494 140.990933 
L 293.489221 142.040611 
L 294.365409 143.510159 
L 294.365409 147.288999 
L 294.803502 149.178419 
L 297.870159 155.056613 
L 297.432065 156.106291 
L 270.708345 167.442809 
L 269.394064 167.442809 
L 268.079783 166.393131 
L 266.765502 166.183196 
L 265.013127 167.86268 
L 261.94647 174.790552 
L 256.689345 179.619069 
L 257.127439 183.397909 
L 258.44172 187.386684 
L 257.565533 190.745652 
L 256.251251 191.375459 
L 252.308408 192.215201 
L 251.43222 193.264878 
L 249.679845 195.574169 
L 245.737001 196.833782 
L 245.298907 196.833782 
L 243.546532 199.353009 
L 224.708501 182.348231 
L 219.013282 179.829005 
L 215.946625 178.989263 
L 213.756157 179.409134 
L 207.18475 186.127071 
L 201.489531 179.829005 
L 191.851469 166.393131 
L 183.527687 152.957258 
L 177.832468 147.918805 
L 171.261062 144.139966 
L 164.251562 141.200869 
L 154.613499 135.112738 
L 148.480186 126.085511 
L 138.842124 105.721765 
L 134.89928 99.213764 
L 130.956436 93.75544 
L 126.137405 88.926923 
L 116.937436 81.159309 
L 104.232717 70.662533 
L 82.766122 57.226659 
L 66.556653 46.729883 
L 63.051903 43.160979 
L 54.290028 27.835686 
L 44.651965 11.25078 
L 31.947246 -3.444707 
L 19.242527 -17.720322 
L 11.794933 -23.178646 
L 3.471152 -26.117743 
L -7.481192 -27.797228 
L -10.985943 -28.846905 
L -23.690662 -34.935035 
L -30.700162 -38.713875 
L -39.023943 -46.271554 
L -48.662006 -54.87891 
L -53.042944 -57.818007 
L -58.738162 -59.917363 
L -69.252413 -62.646524 
L -71.442881 -62.646524 
L -77.576194 -60.757105 
L -79.328569 -60.757105 
L -82.395225 -61.176976 
L -84.585694 -61.596847 
L -86.776163 -61.176976 
L -90.719007 -58.027943 
L -92.909476 -57.188201 
L -95.099945 -57.608072 
L -97.290413 -58.447814 
L -103.423726 -64.116073 
L -106.928476 -66.215428 
L -110.433226 -67.475041 
L -114.37607 -67.265106 
L -115.690351 -67.05517 
L -121.38557 -66.005493 
L -124.452226 -66.425364 
L -131.023633 -68.314784 
L -131.461727 -68.524719 
L -132.337914 -69.364461 
L -134.966477 -72.303558 
L -136.718852 -73.773107 
L -138.909321 -75.242656 
L -141.099789 -75.242656 
L -141.975977 -72.723429 
L -144.166446 -69.784332 
L -149.423571 -67.475041 
L -159.061634 -64.74588 
L -161.690196 -64.535944 
L -168.261603 -65.585622 
L -171.328259 -65.165751 
L -172.64254 -63.696202 
L -175.709196 -59.497492 
L -178.337759 -59.287556 
L -180.966322 -63.906138 
L -184.471072 -74.192978 
L -186.223447 -76.92214 
L -188.413916 -79.441366 
L -190.604384 -81.750657 
L -193.671041 -83.430141 
L -194.547228 -83.850012 
L -198.051978 -84.689754 
L -202.432916 -85.109625 
L -202.87101 -85.529496 
L -204.185291 -84.059948 
L -204.623385 -81.960593 
L -204.185291 -79.651302 
L -204.623385 -77.342011 
L -206.37576 -75.242656 
L -209.004322 -73.563172 
L -213.823354 -71.253881 
L -217.766197 -67.475041 
L -219.956666 -66.005493 
L -225.651885 -65.585622 
L -232.661385 -62.436589 
L -235.289948 -62.016718 
L -237.480417 -61.806782 
L -239.670885 -62.016718 
L -241.861354 -62.646524 
L -244.051823 -62.85646 
L -251.937511 -58.867685 
L -256.318448 -57.608072 
L -265.518417 -56.558394 
L -271.65173 -56.76833 
L -272.527918 -56.348459 
L -273.404105 -56.558394 
L -275.15648 -57.608072 
L -275.594574 -58.657749 
L -276.470761 -61.386911 
L -277.785043 -62.436589 
L -283.918355 -65.795557 
L -286.108824 -67.475041 
L -287.423105 -69.154526 
L -288.299293 -71.463816 
L -289.613574 -76.082398 
L -290.489762 -77.761882 
L -291.804043 -78.601624 
L -293.118324 -79.441366 
L -293.994512 -80.491044 
L -294.870699 -81.750657 
L -295.308793 -85.109625 
L -295.746887 -85.739432 
L -296.623074 -87.628852 
L -297.499262 -89.0984 
L -299.689731 -89.938142 
L -302.318293 -90.148078 
L -309.327793 -88.888465 
L -311.518262 -89.308336 
L -324.661075 -94.766659 
L -325.537263 -95.606402 
L -326.41345 -96.656079 
L -326.41345 -97.915692 
L -326.851544 -98.755434 
L -328.165825 -99.595176 
L -329.480106 -100.015048 
L -329.9182 -100.434919 
L -330.356294 -101.274661 
L -330.794388 -102.324338 
L -330.794388 -102.534274 
L -330.794388 -104.003822 
L -330.794388 -104.423693 
L -331.232481 -104.843565 
L -332.108669 -105.0535 
L -332.984856 -105.473371 
L -335.175325 -110.091953 
L -336.489607 -112.191308 
L -338.680075 -114.080728 
L -343.9372 -102.114403 
L -351.822888 -83.220206 
L -359.270482 -64.535944 
L -367.15617 -46.271554 
L -374.16567 -29.686647 
L -378.546608 -19.189871 
L -379.860889 -17.720322 
L -382.051358 -19.189871 
L -383.365639 -20.65942 
L -383.803733 -22.758775 
L -384.241826 -25.907808 
L -384.241826 -27.167421 
L -385.556108 -28.007163 
L -386.432295 -28.63697 
L -387.746577 -28.846905 
L -389.498952 -29.476712 
L -389.937045 -30.94626 
L -390.813233 -33.885358 
L -391.68942 -36.194648 
L -392.127514 -37.034391 
L -396.946546 -41.233101 
L -398.698921 -42.072843 
L -399.137014 -43.542392 
L -399.137014 -46.271554 
L -399.137014 -48.160973 
L -399.575108 -49.210651 
L -401.765577 -51.100071 
L -406.146514 -57.608072 
L -408.336983 -59.07762 
L -411.40364 -61.596847 
L -413.156015 -61.176976 
L -415.784577 -60.337234 
L -424.984546 -60.547169 
L -428.92739 -59.497492 
L -432.43214 -56.978265 
L -434.184515 -54.249103 
L -435.498796 -51.729877 
L -435.93689 -49.210651 
L -435.93689 -46.271554 
L -436.374984 -43.752327 
L -437.251171 -41.652972 
L -438.565453 -40.183423 
L -439.879734 -39.133746 
L -440.755922 -38.92381 
L -442.94639 -39.133746 
L -444.260672 -39.133746 
L -446.013047 -37.664197 
L -446.45114 -37.454262 
L -447.765422 -37.454262 
L -449.079703 -37.874133 
L -449.955891 -38.294004 
L -450.832078 -39.133746 
L -453.022547 -42.072843 
L -453.898734 -42.492714 
L -457.841578 -43.122521 
L -465.727266 -45.431811 
L -469.67011 -45.851683 
L -477.993891 -45.851683 
L -479.308172 -45.641747 
L -481.060548 -44.382134 
L -481.936735 -44.172198 
L -487.631954 -44.172198 
L -489.822423 -43.752327 
L -493.765267 -42.072843 
L -495.517642 -41.652972 
L -498.146204 -41.443037 
L -499.898579 -41.023165 
L -501.650954 -39.763552 
L -502.527142 -37.454262 
L -504.717611 -37.454262 
L -507.784267 -60.337234 
L -509.536642 -75.662527 
L -511.289017 -91.197756 
L -512.603298 -103.374016 
L -513.479486 -110.301888 
L -516.108048 -131.085505 
z
" clip-path="url(#pf6e43dc174)" style="fill: #bdc3c7; stroke: #ffffff; stroke-width: 0.5"/>
    <path d="M -91.595194 -223.037264 
L -91.157101 -225.55649 
L -90.280913 -227.026039 
L -88.528538 -227.235975 
L -85.899976 -225.346555 
L -85.023788 -224.716748 
L -83.271413 -224.716748 
L -82.833319 -225.766426 
L -84.585694 -227.865781 
L -85.023788 -229.965136 
L -85.023788 -230.385007 
L -82.833319 -231.434685 
L -79.766663 -231.854556 
L -78.452382 -231.644621 
L -78.014288 -231.644621 
L -77.576194 -233.114169 
L -78.452382 -235.213524 
L -79.766663 -236.893009 
L -81.080944 -237.522815 
L -85.461882 -237.31288 
L -86.776163 -237.942686 
L -88.090444 -240.042041 
L -83.709507 -239.832106 
L -78.890475 -238.782428 
L -74.509538 -236.893009 
L -71.880975 -235.213524 
L -71.004788 -234.583718 
L -69.690506 -232.904234 
L -69.252413 -232.064492 
L -70.1286 -230.175072 
L -71.004788 -228.915459 
L -71.442881 -227.44591 
L -70.566694 -226.606168 
L -69.252413 -226.396232 
L -68.376225 -226.816104 
L -67.061944 -227.44591 
L -67.500038 -227.865781 
L -67.938131 -228.705523 
L -67.938131 -229.545265 
L -67.061944 -229.965136 
L -65.747663 -229.125394 
L -65.309569 -227.655846 
L -65.309569 -227.44591 
L -66.185756 -217.369005 
L -65.747663 -215.479585 
L -64.871475 -214.010037 
L -64.871475 -213.590166 
L -62.681006 -210.021262 
L -62.242912 -208.971584 
L -60.928631 -208.971584 
L -53.919131 -206.872229 
L -52.166756 -210.441133 
L -51.290568 -211.070939 
L -50.414381 -211.49081 
L -52.166756 -212.120617 
L -54.357225 -212.750423 
L -55.671506 -214.219972 
L -54.795319 -215.479585 
L -52.60485 -216.319327 
L -49.538193 -216.529263 
L -47.347725 -216.319327 
L -46.033443 -215.899456 
L -44.719162 -215.689521 
L -44.281068 -215.479585 
L -43.842975 -215.26965 
L -42.966787 -214.639843 
L -42.528693 -213.590166 
L -42.528693 -212.540488 
L -42.0906 -211.49081 
L -40.776318 -211.070939 
L -39.462037 -210.861004 
L -36.833474 -208.971584 
L -35.081099 -208.761649 
L -33.328724 -208.551713 
L -32.890631 -208.341777 
L -31.576349 -203.303325 
L -32.452537 -200.994034 
L -34.204912 -200.154292 
L -36.833474 -201.413905 
L -37.709662 -201.623841 
L -38.585849 -201.833776 
L -44.719162 -200.364228 
L -47.347725 -200.154292 
L -49.976287 -200.994034 
L -53.919131 -203.093389 
L -56.985787 -203.51326 
L -62.681006 -202.253647 
L -63.995288 -202.463583 
L -64.871475 -202.673518 
L -65.309569 -203.093389 
L -65.747663 -203.933131 
L -66.62385 -204.562938 
L -66.62385 -204.772874 
L -67.061944 -205.192745 
L -68.376225 -203.303325 
L -69.690506 -202.253647 
L -71.880975 -202.043712 
L -74.947632 -202.673518 
L -79.766663 -204.562938 
L -80.204757 -204.562938 
L -81.957132 -204.982809 
L -84.585694 -204.353003 
L -85.899976 -205.822551 
L -86.776163 -206.872229 
L -89.842819 -216.319327 
L -88.528538 -216.319327 
L -87.652351 -215.899456 
L -87.652351 -215.479585 
L -87.214257 -215.479585 
L -88.090444 -214.639843 
L -87.214257 -214.010037 
L -86.338069 -213.170295 
L -86.338069 -212.750423 
L -85.899976 -212.330552 
L -85.461882 -211.070939 
L -84.585694 -211.070939 
L -83.709507 -211.700746 
L -81.957132 -211.070939 
L -80.204757 -210.021262 
L -78.890475 -209.391455 
L -77.576194 -209.601391 
L -72.319069 -211.070939 
L -74.509538 -215.059714 
L -77.576194 -218.418683 
L -81.080944 -220.518038 
L -85.023788 -221.35778 
L -89.404726 -220.518038 
L -90.719007 -220.937909 
z
" clip-path="url(#pf6e43dc174)" style="fill: #bdc3c7; stroke: #ffffff; stroke-width: 0.5"/>
    <path d="M -83.271413 -255.57727 
L -83.271413 -257.46669 
L -82.395225 -259.35611 
L -80.204757 -260.195852 
L -77.576194 -260.405787 
L -76.261913 -261.245529 
L -76.700007 -262.295207 
L -77.1381 -263.344885 
L -77.1381 -264.814433 
L -76.700007 -266.074046 
L -75.823819 -266.703853 
L -72.757163 -264.184627 
L -71.880975 -263.764756 
L -71.004788 -263.55482 
L -68.814319 -262.505142 
L -67.500038 -261.035594 
L -68.376225 -259.775981 
L -70.566694 -259.146174 
L -72.319069 -257.46669 
L -72.757163 -255.57727 
L -71.880975 -254.947464 
L -71.004788 -254.317657 
L -70.1286 -253.477915 
L -68.814319 -252.638173 
L -68.376225 -251.588495 
L -70.566694 -250.958689 
L -74.071444 -252.008366 
L -77.1381 -253.68785 
L -81.957132 -254.317657 
z
" clip-path="url(#pf6e43dc174)" style="fill: #bdc3c7; stroke: #ffffff; stroke-width: 0.5"/>
   </g>
   <g id="PatchCollection_2">
    <defs>
     <path id="ma58055f278" d="M 130.518342 -208.975671 
L 134.461186 -220.102254 
L 135.775467 -229.549352 
L 137.965936 -233.538127 
L 139.718311 -234.79774 
L 144.537342 -236.897095 
L 145.851624 -238.57658 
L 146.289718 -240.256064 
L 147.165905 -240.88587 
L 148.91828 -241.305741 
L 150.232561 -242.145484 
L 151.984936 -243.615032 
L 153.299218 -244.874645 
L 158.118249 -251.592582 
L 168.194406 -265.868198 
L 173.013437 -275.105361 
L 174.327718 -276.574909 
L 177.394375 -278.044458 
L 178.270562 -279.514007 
L 180.022937 -283.922653 
L 196.232406 -306.175818 
L 200.17525 -314.363304 
L 207.18475 -324.230273 
L 213.756157 -330.94821 
L 215.946625 -331.368081 
L 219.013282 -330.528339 
L 224.708501 -328.009113 
L 243.546532 -311.004335 
L 245.298907 -313.523561 
L 245.737001 -313.523561 
L 249.679845 -314.783175 
L 251.43222 -317.092465 
L 252.308408 -318.142143 
L 256.251251 -318.981885 
L 257.565533 -319.611692 
L 258.44172 -322.97066 
L 257.127439 -326.959435 
L 256.689345 -330.738274 
L 261.94647 -335.566791 
L 265.013127 -342.494664 
L 266.765502 -344.174148 
L 268.079783 -343.964212 
L 269.394064 -342.914535 
L 270.708345 -342.914535 
L 297.432065 -354.251053 
L 299.18444 -352.99144 
L 300.498721 -350.892085 
L 301.374909 -348.372858 
L 302.68919 -346.273503 
L 314.517722 -332.627694 
L 317.146284 -328.009113 
L 318.898659 -326.329628 
L 321.089128 -325.699822 
L 322.841503 -327.16937 
L 322.841503 -322.760724 
L 323.279597 -320.661369 
L 323.717691 -318.562014 
L 324.593878 -316.88253 
L 325.908159 -315.412981 
L 326.784347 -313.943433 
L 327.222441 -311.844077 
L 327.222441 -307.01556 
L 327.660534 -304.496334 
L 328.536722 -302.81685 
L 332.917659 -296.308849 
L 333.355753 -294.209493 
L 332.917659 -287.071686 
L 333.793847 -277.624587 
L 333.355753 -273.635812 
L 331.603378 -270.066908 
L 328.974816 -266.917875 
L 325.470066 -264.81852 
L 324.593878 -264.608585 
L 321.527222 -263.978778 
L 318.022472 -262.299294 
L 315.393909 -261.879423 
L 310.136784 -261.669487 
L 307.946315 -261.039681 
L 304.003471 -258.310519 
L 294.803502 -246.974001 
L 293.927315 -246.55413 
L 293.489221 -246.344194 
L 292.17494 -245.714387 
L 291.298752 -245.294516 
L 290.860658 -244.454774 
L 290.422565 -242.565355 
L 289.546377 -241.935548 
L 287.794002 -241.305741 
L 281.222596 -240.88587 
L 279.470221 -240.256064 
L 277.717846 -238.996451 
L 275.965471 -238.156709 
L 272.460721 -239.416322 
L 270.270252 -238.996451 
L 258.879814 -235.007676 
L 255.813158 -233.118256 
L 253.184595 -229.969223 
L 244.42272 -214.433995 
L 243.546532 -213.384317 
L 242.670345 -212.75451 
L 238.727501 -211.494897 
L 237.41322 -211.494897 
L 234.784657 -212.124704 
L 231.279907 -211.914768 
L 230.40372 -212.124704 
L 229.965626 -212.544575 
L 228.651344 -214.224059 
L 227.775157 -214.64393 
L 225.146594 -214.433995 
L 223.832313 -213.384317 
L 223.832313 -212.544575 
L 225.584688 -212.964446 
L 226.022782 -210.235284 
L 226.022782 -210.025349 
L 226.022782 -207.086251 
L 226.898969 -204.567025 
L 230.841813 -202.887541 
L 233.032282 -200.788186 
L 234.784657 -200.158379 
L 236.537032 -200.57825 
L 238.289407 -202.257734 
L 239.603688 -202.677605 
L 240.91797 -202.46767 
L 241.794157 -201.837863 
L 243.108439 -201.627928 
L 243.984626 -202.257734 
L 244.860814 -203.727283 
L 243.984626 -204.77696 
L 242.670345 -205.406767 
L 242.232251 -206.036574 
L 243.108439 -208.135929 
L 245.737001 -209.815413 
L 251.43222 -212.124704 
L 259.317908 -212.964446 
L 261.94647 -213.804188 
L 263.260752 -214.64393 
L 264.136939 -215.693608 
L 265.45122 -216.113479 
L 266.765502 -215.063801 
L 267.641689 -214.64393 
L 270.708345 -214.64393 
L 287.794002 -214.853866 
L 290.422565 -215.483672 
L 293.051127 -215.273737 
L 295.67969 -213.804188 
L 297.870159 -214.224059 
L 299.18444 -216.113479 
L 300.060627 -217.583027 
L 301.374909 -218.002898 
L 302.251096 -216.743285 
L 304.003471 -209.605477 
L 304.003471 -209.395542 
L 305.317753 -207.506122 
L 306.632034 -206.456445 
L 310.574878 -204.357089 
L 312.327253 -202.677605 
L 305.755846 -192.810636 
L 273.775002 -141.796303 
L 271.584533 -142.636046 
L 270.708345 -141.376432 
L 269.394064 -139.906884 
L 267.641689 -139.277077 
L 265.889314 -139.487013 
L 262.822658 -140.53669 
L 258.003626 -140.956561 
L 254.93697 -141.586368 
L 253.184595 -143.265852 
L 250.117939 -150.193724 
L 247.489376 -151.033467 
L 244.860814 -151.033467 
L 236.098938 -153.132822 
L 235.222751 -153.132822 
L 230.40372 -152.712951 
L 219.451376 -149.353982 
L 211.565688 -143.895659 
L 208.937125 -142.845981 
L 207.18475 -142.845981 
L 204.994281 -143.475788 
L 202.365719 -143.895659 
L 198.422875 -142.636046 
L 197.546687 -142.42611 
L 195.356219 -142.636046 
L 194.041937 -142.42611 
L 189.661 -140.53669 
L 188.346719 -140.116819 
L 185.718156 -140.116819 
L 179.584843 -141.586368 
L 173.013437 -140.746626 
L 169.508687 -139.696948 
L 166.003937 -135.918109 
L 162.499187 -135.078367 
L 155.489686 -134.658496 
L 154.613499 -134.44856 
L 154.175405 -133.818754 
L 153.737311 -133.188947 
L 152.42303 -133.398883 
L 151.984936 -134.028689 
L 151.546843 -134.868431 
L 151.108749 -135.498238 
L 136.651655 -138.437335 
L 133.584998 -139.487013 
L 132.708811 -140.746626 
L 132.270717 -141.586368 
L 134.461186 -145.155272 
L 134.89928 -150.40366 
L 135.337373 -174.33631 
L 134.023092 -187.772183 
L 130.956436 -202.047799 
z
" style="stroke: #ffffff; stroke-width: 0.6"/>
    </defs>
    <g clip-path="url(#pf6e43dc174)">
     <use xlink:href="#ma58055f278" x="0" y="510.357344" style="fill: #e74c3c; stroke: #ffffff; stroke-width: 0.6"/>
    </g>
   </g>
   <g id="text_1">
    <!-- Djibouti -->
    <g style="fill: #1a252f" transform="translate(194.32047 20.117344) scale(0.17 -0.17)">
     <defs>
      <path id="DejaVuSans-Bold-27" d="M 1791 3756 
L 1791 909 
L 2222 909 
Q 2959 909 3348 1275 
Q 3738 1641 3738 2338 
Q 3738 3031 3350 3393 
Q 2963 3756 2222 3756 
L 1791 3756 
z
M 588 4666 
L 1856 4666 
Q 2919 4666 3439 4514 
Q 3959 4363 4331 4000 
Q 4659 3684 4818 3271 
Q 4978 2859 4978 2338 
Q 4978 1809 4818 1395 
Q 4659 981 4331 666 
Q 3956 303 3431 151 
Q 2906 0 1856 0 
L 588 0 
L 588 4666 
z
" transform="scale(0.015625)"/>
      <path id="DejaVuSans-Bold-4d" d="M 538 3500 
L 1656 3500 
L 1656 63 
Q 1656 -641 1318 -1011 
Q 981 -1381 341 -1381 
L -213 -1381 
L -213 -647 
L -19 -647 
Q 300 -647 419 -503 
Q 538 -359 538 63 
L 538 3500 
z
M 538 4863 
L 1656 4863 
L 1656 3950 
L 538 3950 
L 538 4863 
z
" transform="scale(0.015625)"/>
      <path id="DejaVuSans-Bold-4c" d="M 538 3500 
L 1656 3500 
L 1656 0 
L 538 0 
L 538 3500 
z
M 538 4863 
L 1656 4863 
L 1656 3950 
L 538 3950 
L 538 4863 
z
" transform="scale(0.015625)"/>
      <path id="DejaVuSans-Bold-45" d="M 2400 722 
Q 2759 722 2948 984 
Q 3138 1247 3138 1747 
Q 3138 2247 2948 2509 
Q 2759 2772 2400 2772 
Q 2041 2772 1848 2508 
Q 1656 2244 1656 1747 
Q 1656 1250 1848 986 
Q 2041 722 2400 722 
z
M 1656 2988 
Q 1888 3294 2169 3439 
Q 2450 3584 2816 3584 
Q 3463 3584 3878 3070 
Q 4294 2556 4294 1747 
Q 4294 938 3878 423 
Q 3463 -91 2816 -91 
Q 2450 -91 2169 54 
Q 1888 200 1656 506 
L 1656 0 
L 538 0 
L 538 4863 
L 1656 4863 
L 1656 2988 
z
" transform="scale(0.015625)"/>
      <path id="DejaVuSans-Bold-52" d="M 2203 2784 
Q 1831 2784 1636 2517 
Q 1441 2250 1441 1747 
Q 1441 1244 1636 976 
Q 1831 709 2203 709 
Q 2569 709 2762 976 
Q 2956 1244 2956 1747 
Q 2956 2250 2762 2517 
Q 2569 2784 2203 2784 
z
M 2203 3584 
Q 3106 3584 3614 3096 
Q 4122 2609 4122 1747 
Q 4122 884 3614 396 
Q 3106 -91 2203 -91 
Q 1297 -91 786 396 
Q 275 884 275 1747 
Q 275 2609 786 3096 
Q 1297 3584 2203 3584 
z
" transform="scale(0.015625)"/>
      <path id="DejaVuSans-Bold-58" d="M 500 1363 
L 500 3500 
L 1625 3500 
L 1625 3150 
Q 1625 2866 1622 2436 
Q 1619 2006 1619 1863 
Q 1619 1441 1641 1255 
Q 1663 1069 1716 984 
Q 1784 875 1895 815 
Q 2006 756 2150 756 
Q 2500 756 2700 1025 
Q 2900 1294 2900 1772 
L 2900 3500 
L 4019 3500 
L 4019 0 
L 2900 0 
L 2900 506 
Q 2647 200 2364 54 
Q 2081 -91 1741 -91 
Q 1134 -91 817 281 
Q 500 653 500 1363 
z
" transform="scale(0.015625)"/>
      <path id="DejaVuSans-Bold-57" d="M 1759 4494 
L 1759 3500 
L 2913 3500 
L 2913 2700 
L 1759 2700 
L 1759 1216 
Q 1759 972 1856 886 
Q 1953 800 2241 800 
L 2816 800 
L 2816 0 
L 1856 0 
Q 1194 0 917 276 
Q 641 553 641 1216 
L 641 2700 
L 84 2700 
L 84 3500 
L 641 3500 
L 641 4494 
L 1759 4494 
z
" transform="scale(0.015625)"/>
     </defs>
     <use xlink:href="#DejaVuSans-Bold-27"/>
     <use xlink:href="#DejaVuSans-Bold-4d" transform="translate(83.015625 0)"/>
     <use xlink:href="#DejaVuSans-Bold-4c" transform="translate(117.296875 0)"/>
     <use xlink:href="#DejaVuSans-Bold-45" transform="translate(151.578125 0)"/>
     <use xlink:href="#DejaVuSans-Bold-52" transform="translate(223.15625 0)"/>
     <use xlink:href="#DejaVuSans-Bold-58" transform="translate(291.859375 0)"/>
     <use xlink:href="#DejaVuSans-Bold-57" transform="translate(363.046875 0)"/>
     <use xlink:href="#DejaVuSans-Bold-4c" transform="translate(410.84375 0)"/>
    </g>
   </g>
   <g id="line2d_1">
    <path d="M 293.850539 324.830409 
" clip-path="url(#pf6e43dc174)" style="fill: none; stroke: #ffffff; stroke-width: 1.5; stroke-linecap: square"/>
    <defs>
     <path id="m5608236cf0" d="M 0 2.5 
C 0.663008 2.5 1.29895 2.236584 1.767767 1.767767 
C 2.236584 1.29895 2.5 0.663008 2.5 0 
C 2.5 -0.663008 2.236584 -1.29895 1.767767 -1.767767 
C 1.29895 -2.236584 0.663008 -2.5 0 -2.5 
C -0.663008 -2.5 -1.29895 -2.236584 -1.767767 -1.767767 
C -2.236584 -1.29895 -2.5 -0.663008 -2.5 0 
C -2.5 0.663008 -2.236584 1.29895 -1.767767 1.767767 
C -1.29895 2.236584 -0.663008 2.5 0 2.5 
z
" style="stroke: #1a252f; stroke-width: 0.8"/>
    </defs>
    <g clip-path="url(#pf6e43dc174)">
     <use xlink:href="#m5608236cf0" x="293.850539" y="324.830409" style="fill: #ffffff; stroke: #1a252f; stroke-width: 0.8"/>
    </g>
   </g>
   <g id="text_2">
    <g clip-path="url(#pf6e43dc174)">
     <!-- Djibouti -->
     <g style="fill: #ffffff" transform="translate(309.068821 326.778944) scale(0.075 -0.075)">
      <use xlink:href="#DejaVuSans-Bold-27"/>
      <use xlink:href="#DejaVuSans-Bold-4d" transform="translate(83.015625 0)"/>
      <use xlink:href="#DejaVuSans-Bold-4c" transform="translate(117.296875 0)"/>
      <use xlink:href="#DejaVuSans-Bold-45" transform="translate(151.578125 0)"/>
      <use xlink:href="#DejaVuSans-Bold-52" transform="translate(223.15625 0)"/>
      <use xlink:href="#DejaVuSans-Bold-58" transform="translate(291.859375 0)"/>
      <use xlink:href="#DejaVuSans-Bold-57" transform="translate(363.046875 0)"/>
      <use xlink:href="#DejaVuSans-Bold-4c" transform="translate(410.84375 0)"/>
     </g>
    </g>
   </g>
   <g id="legend_1">
    <g id="patch_2">
     <path d="M 13.5 498.657344 
L 88.097344 498.657344 
Q 89.897344 498.657344 89.897344 496.857344 
L 89.897344 470.755937 
Q 89.897344 468.955937 88.097344 468.955937 
L 13.5 468.955937 
Q 11.7 468.955937 11.7 470.755937 
L 11.7 496.857344 
Q 11.7 498.657344 13.5 498.657344 
z
" style="fill: #ffffff; opacity: 0.85; stroke: #cccccc; stroke-linejoin: miter"/>
    </g>
    <g id="patch_3">
     <path d="M 15.3 479.394531 
L 33.3 479.394531 
L 33.3 473.094531 
L 15.3 473.094531 
z
" style="fill: #e74c3c; stroke: #888888; stroke-linejoin: miter"/>
    </g>
    <g id="text_3">
     <!-- Djibouti -->
     <g transform="translate(40.5 479.394531) scale(0.09 -0.09)">
      <defs>
       <path id="DejaVuSans-27" d="M 1259 4147 
L 1259 519 
L 2022 519 
Q 2988 519 3436 956 
Q 3884 1394 3884 2338 
Q 3884 3275 3436 3711 
Q 2988 4147 2022 4147 
L 1259 4147 
z
M 628 4666 
L 1925 4666 
Q 3281 4666 3915 4102 
Q 4550 3538 4550 2338 
Q 4550 1131 3912 565 
Q 3275 0 1925 0 
L 628 0 
L 628 4666 
z
" transform="scale(0.015625)"/>
       <path id="DejaVuSans-4d" d="M 603 3500 
L 1178 3500 
L 1178 -63 
Q 1178 -731 923 -1031 
Q 669 -1331 103 -1331 
L -116 -1331 
L -116 -844 
L 38 -844 
Q 366 -844 484 -692 
Q 603 -541 603 -63 
L 603 3500 
z
M 603 4863 
L 1178 4863 
L 1178 4134 
L 603 4134 
L 603 4863 
z
" transform="scale(0.015625)"/>
       <path id="DejaVuSans-4c" d="M 603 3500 
L 1178 3500 
L 1178 0 
L 603 0 
L 603 3500 
z
M 603 4863 
L 1178 4863 
L 1178 4134 
L 603 4134 
L 603 4863 
z
" transform="scale(0.015625)"/>
       <path id="DejaVuSans-45" d="M 3116 1747 
Q 3116 2381 2855 2742 
Q 2594 3103 2138 3103 
Q 1681 3103 1420 2742 
Q 1159 2381 1159 1747 
Q 1159 1113 1420 752 
Q 1681 391 2138 391 
Q 2594 391 2855 752 
Q 3116 1113 3116 1747 
z
M 1159 2969 
Q 1341 3281 1617 3432 
Q 1894 3584 2278 3584 
Q 2916 3584 3314 3078 
Q 3713 2572 3713 1747 
Q 3713 922 3314 415 
Q 2916 -91 2278 -91 
Q 1894 -91 1617 61 
Q 1341 213 1159 525 
L 1159 0 
L 581 0 
L 581 4863 
L 1159 4863 
L 1159 2969 
z
" transform="scale(0.015625)"/>
       <path id="DejaVuSans-52" d="M 1959 3097 
Q 1497 3097 1228 2736 
Q 959 2375 959 1747 
Q 959 1119 1226 758 
Q 1494 397 1959 397 
Q 2419 397 2687 759 
Q 2956 1122 2956 1747 
Q 2956 2369 2687 2733 
Q 2419 3097 1959 3097 
z
M 1959 3584 
Q 2709 3584 3137 3096 
Q 3566 2609 3566 1747 
Q 3566 888 3137 398 
Q 2709 -91 1959 -91 
Q 1206 -91 779 398 
Q 353 888 353 1747 
Q 353 2609 779 3096 
Q 1206 3584 1959 3584 
z
" transform="scale(0.015625)"/>
       <path id="DejaVuSans-58" d="M 544 1381 
L 544 3500 
L 1119 3500 
L 1119 1403 
Q 1119 906 1312 657 
Q 1506 409 1894 409 
Q 2359 409 2629 706 
Q 2900 1003 2900 1516 
L 2900 3500 
L 3475 3500 
L 3475 0 
L 2900 0 
L 2900 538 
Q 2691 219 2414 64 
Q 2138 -91 1772 -91 
Q 1169 -91 856 284 
Q 544 659 544 1381 
z
M 1991 3584 
L 1991 3584 
z
" transform="scale(0.015625)"/>
       <path id="DejaVuSans-57" d="M 1172 4494 
L 1172 3500 
L 2356 3500 
L 2356 3053 
L 1172 3053 
L 1172 1153 
Q 1172 725 1289 603 
Q 1406 481 1766 481 
L 2356 481 
L 2356 0 
L 1766 0 
Q 1100 0 847 248 
Q 594 497 594 1153 
L 594 3053 
L 172 3053 
L 172 3500 
L 594 3500 
L 594 4494 
L 1172 4494 
z
" transform="scale(0.015625)"/>
      </defs>
      <use xlink:href="#DejaVuSans-27"/>
      <use xlink:href="#DejaVuSans-4d" transform="translate(77 0)"/>
      <use xlink:href="#DejaVuSans-4c" transform="translate(104.78125 0)"/>
      <use xlink:href="#DejaVuSans-45" transform="translate(132.5625 0)"/>
      <use xlink:href="#DejaVuSans-52" transform="translate(196.046875 0)"/>
      <use xlink:href="#DejaVuSans-58" transform="translate(257.234375 0)"/>
      <use xlink:href="#DejaVuSans-57" transform="translate(320.609375 0)"/>
      <use xlink:href="#DejaVuSans-4c" transform="translate(359.8125 0)"/>
     </g>
    </g>
    <g id="patch_4">
     <path d="M 15.3 492.895234 
L 33.3 492.895234 
L 33.3 486.595234 
L 15.3 486.595234 
z
" style="fill: #bdc3c7; stroke: #888888; stroke-linejoin: miter"/>
    </g>
    <g id="text_4">
     <!-- Neighbors -->
     <g transform="translate(40.5 492.895234) scale(0.09 -0.09)">
      <defs>
       <path id="DejaVuSans-31" d="M 628 4666 
L 1478 4666 
L 3547 763 
L 3547 4666 
L 4159 4666 
L 4159 0 
L 3309 0 
L 1241 3903 
L 1241 0 
L 628 0 
L 628 4666 
z
" transform="scale(0.015625)"/>
       <path id="DejaVuSans-48" d="M 3597 1894 
L 3597 1613 
L 953 1613 
Q 991 1019 1311 708 
Q 1631 397 2203 397 
Q 2534 397 2845 478 
Q 3156 559 3463 722 
L 3463 178 
Q 3153 47 2828 -22 
Q 2503 -91 2169 -91 
Q 1331 -91 842 396 
Q 353 884 353 1716 
Q 353 2575 817 3079 
Q 1281 3584 2069 3584 
Q 2775 3584 3186 3129 
Q 3597 2675 3597 1894 
z
M 3022 2063 
Q 3016 2534 2758 2815 
Q 2500 3097 2075 3097 
Q 1594 3097 1305 2825 
Q 1016 2553 972 2059 
L 3022 2063 
z
" transform="scale(0.015625)"/>
       <path id="DejaVuSans-4a" d="M 2906 1791 
Q 2906 2416 2648 2759 
Q 2391 3103 1925 3103 
Q 1463 3103 1205 2759 
Q 947 2416 947 1791 
Q 947 1169 1205 825 
Q 1463 481 1925 481 
Q 2391 481 2648 825 
Q 2906 1169 2906 1791 
z
M 3481 434 
Q 3481 -459 3084 -895 
Q 2688 -1331 1869 -1331 
Q 1566 -1331 1297 -1286 
Q 1028 -1241 775 -1147 
L 775 -588 
Q 1028 -725 1275 -790 
Q 1522 -856 1778 -856 
Q 2344 -856 2625 -561 
Q 2906 -266 2906 331 
L 2906 616 
Q 2728 306 2450 153 
Q 2172 0 1784 0 
Q 1141 0 747 490 
Q 353 981 353 1791 
Q 353 2603 747 3093 
Q 1141 3584 1784 3584 
Q 2172 3584 2450 3431 
Q 2728 3278 2906 2969 
L 2906 3500 
L 3481 3500 
L 3481 434 
z
" transform="scale(0.015625)"/>
       <path id="DejaVuSans-4b" d="M 3513 2113 
L 3513 0 
L 2938 0 
L 2938 2094 
Q 2938 2591 2744 2837 
Q 2550 3084 2163 3084 
Q 1697 3084 1428 2787 
Q 1159 2491 1159 1978 
L 1159 0 
L 581 0 
L 581 4863 
L 1159 4863 
L 1159 2956 
Q 1366 3272 1645 3428 
Q 1925 3584 2291 3584 
Q 2894 3584 3203 3211 
Q 3513 2838 3513 2113 
z
" transform="scale(0.015625)"/>
       <path id="DejaVuSans-55" d="M 2631 2963 
Q 2534 3019 2420 3045 
Q 2306 3072 2169 3072 
Q 1681 3072 1420 2755 
Q 1159 2438 1159 1844 
L 1159 0 
L 581 0 
L 581 3500 
L 1159 3500 
L 1159 2956 
Q 1341 3275 1631 3429 
Q 1922 3584 2338 3584 
Q 2397 3584 2469 3576 
Q 2541 3569 2628 3553 
L 2631 2963 
z
" transform="scale(0.015625)"/>
       <path id="DejaVuSans-56" d="M 2834 3397 
L 2834 2853 
Q 2591 2978 2328 3040 
Q 2066 3103 1784 3103 
Q 1356 3103 1142 2972 
Q 928 2841 928 2578 
Q 928 2378 1081 2264 
Q 1234 2150 1697 2047 
L 1894 2003 
Q 2506 1872 2764 1633 
Q 3022 1394 3022 966 
Q 3022 478 2636 193 
Q 2250 -91 1575 -91 
Q 1294 -91 989 -36 
Q 684 19 347 128 
L 347 722 
Q 666 556 975 473 
Q 1284 391 1588 391 
Q 1994 391 2212 530 
Q 2431 669 2431 922 
Q 2431 1156 2273 1281 
Q 2116 1406 1581 1522 
L 1381 1569 
Q 847 1681 609 1914 
Q 372 2147 372 2553 
Q 372 3047 722 3315 
Q 1072 3584 1716 3584 
Q 2034 3584 2315 3537 
Q 2597 3491 2834 3397 
z
" transform="scale(0.015625)"/>
      </defs>
      <use xlink:href="#DejaVuSans-31"/>
      <use xlink:href="#DejaVuSans-48" transform="translate(74.8125 0)"/>
      <use xlink:href="#DejaVuSans-4c" transform="translate(136.34375 0)"/>
      <use xlink:href="#DejaVuSans-4a" transform="translate(164.125 0)"/>
      <use xlink:href="#DejaVuSans-4b" transform="translate(227.609375 0)"/>
      <use xlink:href="#DejaVuSans-45" transform="translate(290.984375 0)"/>
      <use xlink:href="#DejaVuSans-52" transform="translate(354.46875 0)"/>
      <use xlink:href="#DejaVuSans-55" transform="translate(415.65625 0)"/>
      <use xlink:href="#DejaVuSans-56" transform="translate(456.765625 0)"/>
     </g>
    </g>
   </g>
  </g>
 </g>
 <defs>
  <clipPath id="pf6e43dc174">
   <rect x="7.2" y="30.117344" width="449.912189" height="473.04"/>
  </clipPath>
 </defs>
</svg>
