<?xml version="1.0" encoding="utf-8" standalone="no"?>
<!DOCTYPE svg PUBLIC "-//W3C//DTD SVG 1.1//EN"
  "http://www.w3.org/Graphics/SVG/1.1/DTD/svg11.dtd">
<svg xmlns:xlink="http://www.w3.org/1999/xlink" width="580.868478pt" height="510.357344pt" viewBox="0 0 580.868478 510.357344" xmlns="http://www.w3.org/2000/svg" version="1.1">
 <metadata>
  <rdf:RDF xmlns:dc="http://purl.org/dc/elements/1.1/" xmlns:cc="http://creativecommons.org/ns#" xmlns:rdf="http://www.w3.org/1999/02/22-rdf-syntax-ns#">
   <cc:Work>
    <dc:type rdf:resource="http://purl.org/dc/dcmitype/StillImage"/>
    <dc:date>2026-06-19T08:14:05.372492</dc:date>
    <dc:format>image/svg+xml</dc:format>
    <dc:creator>
     <cc:Agent>
      <dc:title>Matplotlib v3.11.0, https://matplotlib.org/</dc:title>
     </cc:Agent>
    </dc:creator>
   </cc:Work>
  </rdf:RDF>
 </metadata>
 <defs>
  <style type="text/css">*{stroke-linejoin: round; stroke-linecap: butt}</style>
 </defs>
 <g id="figure_1">
  <g id="patch_1">
   <path d="M 0 510.357344 
L 580.868478 510.357344 
L 580.868478 0 
L 0 0 
z
" style="fill: #d6eaf8"/>
  </g>
  <g id="axes_1">
   <g id="PatchCollection_1">
    <path d="M -106.565929 296.857625 
L -103.258972 292.271349 
L -103.589668 291.779963 
L -103.920363 290.797189 
L -102.266885 289.65062 
L -101.274798 285.22814 
L -99.952015 284.245367 
L -99.62132 283.75398 
L -99.62132 282.607411 
L -99.952015 281.297047 
L -100.613407 280.641864 
L -100.613407 279.495295 
L -99.952015 278.676318 
L -96.975754 276.874566 
L -92.67671 275.236611 
L -91.023232 274.90902 
L -89.039058 275.400406 
L -88.046971 275.400406 
L -87.716275 274.581429 
L -87.054884 273.926246 
L -86.062797 273.598655 
L -85.07071 273.43486 
L -79.779579 273.762451 
L -76.141926 274.581429 
L -64.236881 279.986682 
L -58.945751 280.150478 
L -58.615055 280.314273 
L -58.284359 280.969455 
L -57.953664 281.297047 
L -57.953664 281.952229 
L -57.292272 281.952229 
L -56.630881 281.624638 
L -55.969489 281.460842 
L -53.323924 282.935002 
L -52.331837 283.426389 
L -48.032793 283.590184 
L -47.040706 283.75398 
L -46.048619 284.245367 
L -44.064445 285.883322 
L -43.403053 286.210913 
L -42.410966 286.374709 
L -42.080271 286.047118 
L -41.749575 285.719527 
L -41.418879 285.555731 
L -40.426792 285.719527 
L -39.10401 286.210913 
L -38.442618 286.210913 
L -37.781227 286.047118 
L -36.78914 285.064344 
L -36.127748 284.900549 
L -36.127748 284.736753 
L -35.135661 283.262593 
L -34.47427 282.935002 
L -33.812879 282.935002 
L -32.820792 282.935002 
L -32.1594 282.935002 
L -27.860356 281.624638 
L -26.868269 281.460842 
L -23.561312 282.27982 
L -23.561312 284.081571 
L -25.214791 285.22814 
L -27.860356 284.900549 
L -27.860356 285.555731 
L -29.84453 284.900549 
L -31.498009 284.572958 
L -33.482183 284.736753 
L -35.466357 285.555731 
L -34.804966 285.883322 
L -33.151487 286.7023 
L -31.828705 287.029891 
L -31.498009 287.685073 
L -31.498009 288.340256 
L -31.167313 289.159234 
L -29.513835 289.978211 
L -26.537574 289.486825 
L -25.214791 290.142007 
L -21.907834 288.17646 
L -17.939486 287.685073 
L -3.388876 288.831642 
L -1.735397 289.323029 
L 1.902255 291.12478 
L 3.886429 291.616167 
L 11.49243 291.288576 
L 15.130082 291.616167 
L 18.106344 292.926531 
L 19.759822 293.909305 
L 21.4133 294.400692 
L 22.736083 294.564487 
L 25.050953 294.0731 
L 31.664867 292.926531 
L 39.601563 294.892078 
L 39.270867 296.366238 
L 40.924346 296.038647 
L 43.239216 295.219669 
L 44.892694 295.219669 
L 46.215477 295.711056 
L 52.82939 296.857625 
L 56.467043 296.038647 
L 58.781913 293.909305 
L 60.766087 290.960985 
L 62.08887 287.521278 
L 64.403739 284.736753 
L 67.38 284.081571 
L 82.592002 285.555731 
L 83.253393 285.22814 
L 83.584089 284.900549 
L 83.584089 284.409162 
L 83.914785 284.245367 
L 84.576176 284.245367 
L 84.906872 284.572958 
L 84.906872 284.736753 
L 85.237567 284.900549 
L 87.221741 287.029891 
L 88.213828 287.521278 
L 89.536611 287.193687 
L 90.528698 285.555731 
L 90.528698 283.262593 
L 90.528698 277.365953 
L 90.528698 276.219384 
L 91.19009 274.90902 
L 91.851481 274.090042 
L 92.182177 273.43486 
L 91.851481 272.288291 
L 90.859394 271.633108 
L 86.891046 269.667562 
L 85.568263 269.339971 
L 83.584089 269.339971 
L 82.261306 269.012379 
L 80.607828 267.374424 
L 78.954349 265.408877 
L 76.970175 263.934717 
L 74.986001 264.262308 
L 71.679044 262.296761 
L 71.017653 261.477784 
L 70.025566 259.676032 
L 65.395826 252.305232 
L 64.073044 250.994868 
L 62.419565 249.356912 
L 60.435391 248.210343 
L 58.781913 247.718956 
L 57.128434 246.899979 
L 47.538259 236.417063 
L 46.876868 233.960129 
L 50.845216 232.322173 
L 54.482869 232.158378 
L 56.467043 231.503196 
L 57.128434 230.029036 
L 56.797739 228.227284 
L 55.474956 227.244511 
L 53.821477 226.589329 
L 52.167999 225.770351 
L 51.175912 224.459986 
L 48.861042 220.528893 
L 48.530346 219.054733 
L 48.861042 218.563346 
L 49.191738 218.399551 
L 48.861042 218.235755 
L 49.191738 217.744368 
L 49.853129 216.925391 
L 50.845216 214.632253 
L 51.506608 213.813275 
L 52.498695 213.321888 
L 54.152173 212.994297 
L 55.474956 212.830502 
L 56.467043 212.994297 
L 55.14426 210.537364 
L 54.482869 209.882181 
L 52.498695 209.718386 
L 51.506608 208.899408 
L 51.175912 207.097657 
L 51.175912 204.968315 
L 51.506608 203.821746 
L 52.167999 204.476928 
L 52.82939 204.968315 
L 53.821477 205.13211 
L 54.813564 205.13211 
L 55.805652 204.313132 
L 55.805652 203.65795 
L 55.474956 202.838972 
L 55.14426 200.545834 
L 55.14426 200.218243 
L 56.467043 200.545834 
L 57.128434 200.70963 
L 57.789826 201.364812 
L 58.451217 201.856199 
L 59.774 201.856199 
L 58.120521 198.252697 
L 57.128434 197.76131 
L 52.167999 197.433719 
L 51.175912 196.614741 
L 50.183825 195.304376 
L 49.191738 193.830216 
L 47.207564 192.519852 
L 41.585737 189.899123 
L 36.625302 186.950803 
L 34.971823 186.459416 
L 33.318345 185.804234 
L 30.011388 183.019709 
L 29.349997 182.855914 
L 28.688605 183.183505 
L 22.736083 181.217958 
L 22.074692 181.054163 
L 20.090518 180.562776 
L 19.098431 180.562776 
L 18.767735 180.726571 
L 18.106344 181.217958 
L 17.444952 181.709345 
L 16.783561 181.87314 
L 15.130082 181.545549 
L 13.145908 180.726571 
L 11.161734 179.580002 
L 10.169647 178.597229 
L 8.185473 180.39898 
L 4.217125 180.890367 
L -4.711659 180.39898 
L -6.365137 179.907594 
L -7.357224 179.907594 
L -8.018615 179.416207 
L -9.672094 177.614456 
L -10.333485 177.123069 
L -11.656268 176.304091 
L -12.317659 174.338544 
L -12.317659 172.372998 
L -12.648355 171.226429 
L -9.341398 165.984971 
L -9.010702 164.838402 
L -8.018615 164.838402 
L -3.05818 162.545264 
L -3.05818 161.890082 
L -8.349311 161.890082 
L -6.695833 160.743513 
L -5.042354 160.579717 
L -3.05818 160.743513 
L -1.404702 160.579717 
L 9.838952 155.502055 
L 13.145908 153.045121 
L 15.130082 150.588188 
L 16.12217 151.898552 
L 17.114257 152.226144 
L 19.759822 151.898552 
L 21.082605 152.226144 
L 23.397475 153.045121 
L 24.720257 153.208917 
L 25.712344 153.208917 
L 26.373736 153.045121 
L 28.35791 152.553735 
L 29.680693 152.389939 
L 31.003475 152.553735 
L 32.326258 153.045121 
L 33.318345 154.027895 
L 33.979736 152.389939 
L 35.633215 151.570961 
L 37.948085 151.24337 
L 39.601563 151.898552 
L 41.916433 150.915779 
L 44.892694 150.260597 
L 48.199651 149.76921 
L 50.845216 149.933006 
L 60.104695 152.226144 
L 62.419565 153.536508 
L 64.403739 154.519281 
L 70.025566 156.157237 
L 70.356262 156.648624 
L 72.00974 158.941762 
L 74.655305 160.579717 
L 77.300871 161.562491 
L 78.623654 160.579717 
L 80.277132 161.562491 
L 82.922698 162.545264 
L 85.568263 163.200446 
L 86.891046 162.872855 
L 87.221741 164.510811 
L 91.851481 168.6057 
L 91.851481 169.260882 
L 91.520785 168.933291 
L 89.867307 168.6057 
L 91.19009 171.390224 
L 91.520785 171.881611 
L 93.174264 172.209202 
L 93.504959 172.045407 
L 93.174264 171.226429 
L 94.497046 169.916064 
L 94.166351 169.752269 
L 93.504959 169.916064 
L 93.174264 169.916064 
L 93.174264 169.752269 
L 93.504959 169.260882 
L 93.504959 168.933291 
L 93.835655 169.260882 
L 93.835655 168.6057 
L 93.504959 168.278109 
L 93.174264 167.295335 
L 93.835655 167.295335 
L 95.158438 167.950518 
L 96.811916 168.114313 
L 98.465395 167.622926 
L 99.457482 166.148766 
L 100.118873 165.329789 
L 102.103047 165.165993 
L 103.42583 166.312562 
L 102.433743 168.6057 
L 104.087221 169.588473 
L 105.7407 169.588473 
L 109.378352 169.097086 
L 109.709048 169.097086 
L 110.039744 169.260882 
L 110.701135 169.588473 
L 112.023918 170.898838 
L 113.016005 171.226429 
L 115.992266 171.226429 
L 116.984353 171.390224 
L 117.315049 171.881611 
L 117.645744 172.372998 
L 118.307136 172.700589 
L 119.629918 173.683362 
L 120.622005 173.847158 
L 121.283397 173.519567 
L 121.614092 172.864384 
L 122.275484 172.045407 
L 123.267571 171.881611 
L 124.921049 170.571247 
L 127.566615 170.571247 
L 132.196354 171.881611 
L 134.511224 172.209202 
L 135.172615 172.700589 
L 134.84192 173.847158 
L 133.849833 174.338544 
L 132.857746 174.50234 
L 130.21218 174.50234 
L 131.204267 176.304091 
L 132.857746 176.467887 
L 134.511224 175.9765 
L 135.834007 175.812705 
L 137.487485 177.123069 
L 138.479572 177.778251 
L 139.140964 177.45066 
L 139.471659 176.140296 
L 139.471659 175.485113 
L 137.15679 174.993727 
L 136.495398 174.338544 
L 136.164703 173.519567 
L 136.495398 172.536793 
L 137.15679 171.881611 
L 138.148877 172.045407 
L 140.463746 172.536793 
L 144.432095 172.700589 
L 145.424182 175.321318 
L 145.754877 176.959273 
L 145.424182 178.597229 
L 145.424182 181.054163 
L 145.754877 183.3473 
L 148.400443 189.407736 
L 149.39253 196.942332 
L 149.39253 201.364812 
L 148.400443 203.494155 
L 147.739051 204.149337 
L 146.746964 207.097657 
L 145.754877 207.752839 
L 143.440008 209.226999 
L 142.778616 209.718386 
L 143.109312 211.683933 
L 144.76279 213.977071 
L 145.093486 214.468457 
L 148.069747 217.580573 
L 154.022269 220.365097 
L 155.345052 221.02028 
L 155.014356 226.753124 
L 154.352965 228.39108 
L 153.360878 230.192831 
L 150.053921 232.322173 
L 148.731139 233.632538 
L 146.085573 237.399836 
L 142.117225 241.822316 
L 140.794442 242.641294 
L 136.164703 243.951658 
L 134.511224 244.934432 
L 134.84192 246.736183 
L 136.495398 246.408592 
L 138.810268 245.589614 
L 140.794442 245.75341 
L 141.786529 246.408592 
L 143.109312 249.193116 
L 143.770703 250.17589 
L 146.085573 251.977641 
L 146.746964 252.960414 
L 147.07766 254.762165 
L 147.408356 258.693259 
L 148.069747 262.460557 
L 147.739051 264.262308 
L 147.408356 266.064059 
L 146.746964 267.702015 
L 145.754877 269.503766 
L 144.432095 270.650335 
L 141.786529 272.124495 
L 141.455833 272.452086 
L 141.125138 272.615882 
L 139.802355 274.090042 
L 137.818181 277.365953 
L 136.826094 278.512522 
L 133.188441 279.822887 
L 126.243832 278.512522 
L 122.936875 279.3315 
L 121.283397 280.478069 
L 121.944788 282.116024 
L 130.542876 290.633394 
L 130.873572 291.452371 
L 131.204267 292.926531 
L 130.873572 293.581714 
L 129.881485 293.909305 
L 129.550789 294.892078 
L 130.21218 296.693829 
L 131.534963 297.512807 
L 135.172615 298.495581 
L 135.834007 299.150763 
L 137.487485 301.11631 
L 138.148877 302.099083 
L 141.455833 304.392221 
L 146.416269 306.193972 
L 147.739051 307.176745 
L 148.731139 307.831928 
L 148.731139 308.159519 
L 147.739051 309.96127 
L 147.739051 310.125066 
L 143.770703 317.168275 
L 142.778616 318.970026 
L 142.778616 320.935573 
L 142.778616 321.75455 
L 143.770703 324.539075 
L 144.101399 325.685644 
L 144.101399 327.3236 
L 144.101399 330.108124 
L 143.770703 331.74608 
L 142.778616 334.6944 
L 141.125138 333.711626 
L 134.84192 325.358053 
L 131.865659 322.737324 
L 128.889398 320.771777 
L 121.614092 318.151048 
L 118.637831 316.676888 
L 115.66157 315.530319 
L 112.023918 315.530319 
L 104.748613 316.676888 
L 95.158438 316.676888 
L 81.599915 316.840684 
L 74.655305 318.151048 
L 72.671131 317.168275 
L 71.679044 316.676888 
L 71.017653 317.168275 
L 71.679044 320.771777 
L 70.686957 321.75455 
L 69.69487 321.75455 
L 67.38 320.771777 
L 65.726522 320.607981 
L 55.14426 321.590755 
L 52.82939 321.426959 
L 53.160086 321.918346 
L 53.160086 323.064915 
L 53.490782 323.392506 
L 52.167999 323.392506 
L 51.506608 323.22871 
L 50.845216 322.737324 
L 48.199651 324.375279 
L 43.239216 323.883893 
L 40.924346 324.866666 
L 38.27878 323.392506 
L 35.302519 322.082142 
L 31.664867 321.263164 
L 22.074692 320.116595 
L 19.429126 320.28039 
L 18.767735 320.116595 
L 16.12217 318.478639 
L 15.460778 318.151048 
L 3.225038 316.185501 
L -2.396789 316.676888 
L -3.05818 316.513092 
L -2.727484 315.202728 
L -1.404702 314.711341 
L 1.902255 314.711341 
L 1.902255 314.219955 
L -4.380963 313.564772 
L -11.656268 313.564772 
L -13.971138 314.219955 
L -16.947399 315.85791 
L -17.939486 316.185501 
L -18.600877 315.694115 
L -19.592964 314.056159 
L -20.254356 313.400977 
L -21.577138 314.219955 
L -22.23853 316.021706 
L -22.899921 317.495866 
L -23.892008 316.840684 
L -24.5534 316.840684 
L -25.545487 317.495866 
L -26.537574 317.004479 
L -26.868269 315.694115 
L -26.537574 314.219955 
L -27.860356 314.547546 
L -28.852443 317.168275 
L -30.175226 318.151048 
L -30.175226 316.840684 
L -29.84453 315.694115 
L -29.183139 313.400977 
L -29.84453 314.056159 
L -30.836617 315.366523 
L -31.498009 316.185501 
L -31.498009 315.85791 
L -32.1594 315.694115 
L -33.151487 315.530319 
L -33.482183 315.694115 
L -33.482183 316.021706 
L -33.482183 316.513092 
L -33.482183 316.840684 
L -37.450531 320.116595 
L -44.064445 323.064915 
L -45.717923 324.702871 
L -47.371402 327.487395 
L -43.403053 331.582284 
L -42.741662 333.056444 
L -42.410966 335.021991 
L -42.741662 335.677173 
L -43.733749 336.004764 
L -50.016967 336.004764 
L -50.678358 335.840969 
L -51.670446 335.349582 
L -52.331837 334.6944 
L -52.662533 333.384035 
L -58.615055 324.866666 
L -58.945751 324.539075 
L -59.607142 324.211484 
L -59.937838 324.047688 
L -60.268533 323.720097 
L -60.268533 323.392506 
L -60.268533 323.064915 
L -60.599229 322.737324 
L -62.252707 321.099368 
L -71.181491 314.547546 
L -72.834969 313.728568 
L -75.480535 313.237181 
L -76.803317 312.745795 
L -77.795405 312.090612 
L -78.1261 311.107839 
L -78.456796 310.125066 
L -78.787492 309.797474 
L -79.779579 309.797474 
L -80.771666 309.469883 
L -83.086535 308.48711 
L -83.747927 308.159519 
L -84.409318 308.814701 
L -86.062797 308.159519 
L -88.046971 308.978497 
L -90.031145 310.125066 
L -92.015319 310.780248 
L -93.668797 310.452657 
L -95.652971 309.633679 
L -97.637145 308.650905 
L -98.298537 307.831928 
L -98.959928 306.685359 
L -102.597581 304.883608 
L -103.258972 303.081856 
L -103.589668 301.280105 
L -104.251059 299.969741 
z
" clip-path="url(#p18ca1a3116)" style="fill: #bdc3c7; stroke: #ffffff; stroke-width: 0.5"/>
    <path d="M 2.894342 248.70173 
L 3.225038 247.718956 
L 4.217125 246.408592 
L 5.870603 245.262023 
L 7.854777 244.606841 
L 9.838952 244.27925 
L 11.823126 244.606841 
L 24.720257 250.012094 
L 31.003475 251.977641 
L 37.948085 255.581143 
L 44.561998 258.365668 
L 47.207564 261.641579 
L 47.868955 263.770921 
L 48.199651 266.227855 
L 47.868955 268.684788 
L 46.876868 270.650335 
L 45.884781 270.977926 
L 45.22339 270.322744 
L 44.231303 268.684788 
L 43.569911 268.029606 
L 42.90852 267.702015 
L 40.924346 267.702015 
L 32.656954 265.736468 
L 29.680693 265.572673 
L 27.035127 264.91749 
L 18.767735 259.676032 
L 10.500343 257.382894 
L 8.516169 255.908734 
L 6.531995 253.288005 
L 4.878516 252.141436 
L 4.217125 251.65005 
L 3.555734 250.831072 
L 3.225038 249.848299 
z
" clip-path="url(#p18ca1a3116)" style="fill: #bdc3c7; stroke: #ffffff; stroke-width: 0.5"/>
    <path d="M 33.979736 138.631112 
L 34.310432 138.631112 
L 34.641128 138.467316 
L 35.302519 137.97593 
L 39.270867 136.50177 
L 43.900607 136.010383 
L 46.546172 135.846587 
L 48.530346 136.010383 
L 50.183825 136.829361 
L 52.167999 137.97593 
L 60.766087 141.415636 
L 64.403739 143.708774 
L 63.411652 146.001912 
L 62.08887 145.34673 
L 54.152173 144.363957 
L 50.514521 142.889797 
L 46.215477 141.907023 
L 44.561998 141.251841 
L 43.569911 141.415636 
L 42.577824 141.743228 
L 41.585737 141.907023 
L 39.601563 141.579432 
L 37.286693 140.760454 
L 35.302519 139.777681 
z
" clip-path="url(#p18ca1a3116)" style="fill: #bdc3c7; stroke: #ffffff; stroke-width: 0.5"/>
    <path d="M -34.804966 329.452942 
L -34.47427 328.470168 
L -34.143574 327.978782 
L -33.482183 328.142577 
L -32.820792 328.79776 
L -31.828705 327.978782 
L -31.167313 328.306373 
L -30.836617 328.961555 
L -30.175226 329.452942 
L -27.529661 329.452942 
L -25.876182 329.452942 
L -24.222704 329.944329 
L -22.899921 330.599511 
L -22.899921 332.073671 
L -23.892008 332.728853 
L -25.876182 332.892649 
L -29.513835 332.728853 
L -30.836617 332.401262 
L -32.490096 331.582284 
z
" clip-path="url(#p18ca1a3116)" style="fill: #bdc3c7; stroke: #ffffff; stroke-width: 0.5"/>
    <path d="M -42.741662 280.150478 
L -42.741662 277.529749 
L -40.757488 276.546975 
L -37.781227 276.710771 
L -35.466357 278.021135 
L -35.466357 280.150478 
L -37.450531 281.460842 
L -40.426792 281.460842 
z
" clip-path="url(#p18ca1a3116)" style="fill: #bdc3c7; stroke: #ffffff; stroke-width: 0.5"/>
   </g>
   <g id="PatchCollection_2">
    <path d="M 121.283397 280.478069 
L 122.936875 279.3315 
L 126.243832 278.512522 
L 133.188441 279.822887 
L 136.826094 278.512522 
L 137.818181 277.365953 
L 139.802355 274.090042 
L 141.125138 272.615882 
L 141.455833 272.452086 
L 141.786529 272.124495 
L 144.432095 270.650335 
L 145.754877 269.503766 
L 146.746964 267.702015 
L 147.408356 266.064059 
L 147.739051 264.262308 
L 148.069747 262.460557 
L 147.408356 258.693259 
L 147.07766 254.762165 
L 146.746964 252.960414 
L 146.085573 251.977641 
L 143.770703 250.17589 
L 143.109312 249.193116 
L 141.786529 246.408592 
L 140.794442 245.75341 
L 138.810268 245.589614 
L 136.495398 246.408592 
L 134.84192 246.736183 
L 134.511224 244.934432 
L 136.164703 243.951658 
L 140.794442 242.641294 
L 142.117225 241.822316 
L 146.085573 237.399836 
L 148.731139 233.632538 
L 150.053921 232.322173 
L 153.360878 230.192831 
L 154.352965 228.39108 
L 155.014356 226.753124 
L 155.345052 221.02028 
L 154.022269 220.365097 
L 148.069747 217.580573 
L 145.093486 214.468457 
L 144.76279 213.977071 
L 143.109312 211.683933 
L 142.778616 209.718386 
L 143.440008 209.226999 
L 145.754877 207.752839 
L 146.746964 207.097657 
L 147.739051 204.149337 
L 148.400443 203.494155 
L 149.39253 201.364812 
L 149.39253 196.942332 
L 148.400443 189.407736 
L 145.754877 183.3473 
L 145.424182 181.054163 
L 145.424182 178.597229 
L 145.754877 176.959273 
L 145.424182 175.321318 
L 144.432095 172.700589 
L 146.085573 173.02818 
L 147.739051 173.847158 
L 147.408356 172.045407 
L 145.754877 168.278109 
L 146.085573 167.295335 
L 146.085573 166.476357 
L 143.440008 166.476357 
L 143.109312 165.329789 
L 144.101399 163.855628 
L 145.754877 162.217673 
L 146.085573 161.890082 
L 146.416269 161.890082 
L 147.408356 161.890082 
L 148.069747 161.562491 
L 149.061834 160.415922 
L 149.723226 159.924535 
L 150.715313 159.433148 
L 151.7074 159.269353 
L 152.368791 158.941762 
L 153.360878 157.958988 
L 153.030182 156.648624 
L 152.699487 155.66585 
L 153.360878 154.846873 
L 154.352965 154.519281 
L 155.014356 154.683077 
L 156.337139 155.174464 
L 156.998531 155.338259 
L 157.329226 155.010668 
L 157.990618 154.19169 
L 158.321313 154.027895 
L 167.580792 153.208917 
L 170.226358 153.536508 
L 172.541228 154.355486 
L 181.139315 158.941762 
L 183.784881 159.433148 
L 186.099751 158.450375 
L 188.083925 159.924535 
L 189.406708 160.415922 
L 193.375056 160.579717 
L 194.697838 160.415922 
L 194.697838 159.596944 
L 194.697838 158.61417 
L 195.35923 157.631397 
L 196.351317 157.14001 
L 197.343404 158.122784 
L 198.335491 160.579717 
L 198.996882 160.252126 
L 199.327578 159.760739 
L 199.988969 159.105557 
L 199.988969 158.450375 
L 199.327578 158.286579 
L 198.996882 158.122784 
L 198.996882 157.958988 
L 198.996882 157.303806 
L 200.319665 157.795193 
L 201.642448 157.795193 
L 202.634535 157.467602 
L 204.288013 157.303806 
L 205.2801 156.484828 
L 206.933579 153.372713 
L 207.925666 152.553735 
L 209.248449 152.226144 
L 212.22471 150.751984 
L 213.878188 150.588188 
L 215.531667 150.915779 
L 216.854449 151.734757 
L 217.515841 153.045121 
L 217.185145 154.519281 
L 218.838623 155.338259 
L 219.500015 155.338259 
L 219.169319 153.700304 
L 218.838623 153.208917 
L 223.468363 154.027895 
L 224.791146 153.864099 
L 227.436711 153.208917 
L 228.428798 153.208917 
L 229.420885 154.027895 
L 233.719929 158.777966 
L 234.050625 159.760739 
L 233.389233 160.579717 
L 237.026886 160.579717 
L 238.349669 161.234899 
L 241.656625 164.18322 
L 244.963582 165.984971 
L 248.601235 167.13154 
L 252.569583 167.786722 
L 258.19141 167.786722 
L 258.852801 167.622926 
L 259.183497 166.967744 
L 260.175584 166.148766 
L 261.498366 165.493584 
L 262.490454 165.165993 
L 266.128106 166.312562 
L 271.749933 172.209202 
L 275.05689 175.812705 
L 276.379672 176.959273 
L 278.363846 177.778251 
L 280.017325 178.269638 
L 284.316369 178.761025 
L 287.623325 179.907594 
L 293.906543 181.217958 
L 295.229326 181.217958 
L 296.221413 180.890367 
L 296.882805 180.071389 
L 300.189761 176.467887 
L 302.173936 175.648909 
L 307.134371 175.812705 
L 309.449241 175.485113 
L 310.772023 175.648909 
L 312.094806 176.467887 
L 315.401763 179.907594 
L 316.39385 182.036936 
L 316.063154 184.493869 
L 314.740371 189.899123 
L 316.39385 190.718101 
L 317.385937 192.356056 
L 317.055241 196.778536 
L 317.385937 198.744083 
L 318.047328 200.218243 
L 323.999851 209.390795 
L 326.976112 212.175319 
L 327.306807 212.50291 
L 330.283069 213.813275 
L 332.267243 213.485684 
L 335.904895 212.011524 
L 337.558374 211.683933 
L 341.857418 211.520137 
L 343.510896 211.192546 
L 345.49507 210.373568 
L 348.140636 208.571817 
L 349.132723 208.408021 
L 350.12481 208.571817 
L 352.108984 209.55459 
L 353.431766 209.718386 
L 355.415941 209.226999 
L 356.408028 209.063204 
L 357.069419 209.063204 
L 357.73081 209.226999 
L 358.061506 209.55459 
L 358.061506 210.045977 
L 358.392202 210.537364 
L 359.053593 210.373568 
L 360.04568 209.718386 
L 365.336811 212.011524 
L 366.990289 212.994297 
L 367.982376 211.02875 
L 369.635855 209.390795 
L 373.934899 207.097657 
L 376.580464 206.278679 
L 377.241856 207.425248 
L 376.580464 209.718386 
L 374.926986 212.50291 
L 376.91116 213.158093 
L 378.895334 213.158093 
L 380.879508 212.666706 
L 382.532987 211.683933 
L 383.194378 213.813275 
L 381.871595 215.615026 
L 380.218117 217.089186 
L 379.556725 218.727142 
L 379.22603 220.528893 
L 377.903247 222.003053 
L 376.580464 223.313418 
L 374.59629 223.804804 
L 367.320985 222.330644 
L 359.384289 222.985826 
L 357.400115 222.49444 
L 354.093158 220.856484 
L 342.518809 219.382324 
L 341.196026 219.709915 
L 340.534635 221.02028 
L 340.203939 225.606555 
L 339.542548 229.537649 
L 339.873243 231.011809 
L 340.86533 231.666991 
L 341.857418 232.485969 
L 346.817853 231.666991 
L 348.802027 232.322173 
L 350.786201 231.666991 
L 355.085245 233.304947 
L 357.400115 233.141151 
L 356.738723 232.649765 
L 356.077332 232.158378 
L 355.415941 231.830787 
L 354.423853 231.666991 
L 354.423853 231.011809 
L 359.053593 230.684218 
L 360.707071 231.011809 
L 362.36055 232.158378 
L 363.352637 235.270494 
L 365.006115 236.417063 
L 366.659594 236.744654 
L 369.635855 237.23604 
L 378.233943 239.529178 
L 381.871595 240.511952 
L 383.194378 240.348156 
L 385.178552 239.365383 
L 384.517161 238.7102 
L 383.194378 238.055018 
L 383.194378 237.072245 
L 384.847856 236.580858 
L 386.501335 237.891223 
L 388.154813 241.003338 
L 389.477596 241.822316 
L 390.800379 242.149907 
L 392.123161 242.641294 
L 392.784553 243.787863 
L 393.77664 242.805089 
L 396.09151 241.822316 
L 397.083597 241.003338 
L 396.422205 240.18436 
L 396.752901 240.020565 
L 397.744988 240.020565 
L 398.406379 239.692974 
L 399.398466 238.7102 
L 399.729162 238.382609 
L 400.059858 238.382609 
L 403.366815 238.546405 
L 405.350989 238.873996 
L 407.004467 239.529178 
L 408.32725 240.348156 
L 408.657946 240.675747 
L 408.657946 241.003338 
L 408.657946 241.330929 
L 408.988641 241.658521 
L 410.972815 242.313703 
L 411.303511 242.313703 
L 414.610468 242.968885 
L 416.594642 243.132681 
L 417.256033 243.296476 
L 417.586729 243.460272 
L 418.24812 243.951658 
L 419.240207 244.443045 
L 420.56299 244.606841 
L 421.555077 244.934432 
L 432.468035 254.925961 
L 436.105687 259.676032 
L 441.727514 263.934717 
L 445.695862 266.719242 
L 447.018645 267.210628 
L 447.34934 267.702015 
L 451.648384 271.633108 
L 456.939515 274.90902 
L 459.585081 278.676318 
L 458.923689 282.607411 
L 450.325602 295.711056 
L 449.66421 296.202443 
L 449.002819 296.857625 
L 448.672123 297.840398 
L 449.002819 301.280105 
L 448.672123 302.099083 
L 447.680036 303.900834 
L 446.357253 304.556016 
L 444.373079 304.883608 
L 442.05821 304.883608 
L 440.404731 304.228425 
L 436.767079 301.935287 
L 435.444296 301.443901 
L 434.121513 302.426674 
L 434.121513 304.06463 
L 434.782905 305.866381 
L 433.790817 307.831928 
L 432.79873 309.306088 
L 432.137339 311.107839 
L 430.814556 316.676888 
L 430.153165 317.659661 
L 429.161078 318.151048 
L 421.224381 318.642435 
L 419.901599 318.151048 
L 419.570903 314.547546 
L 417.256033 309.96127 
L 414.279772 305.374994 
L 411.634207 302.099083 
L 408.657946 300.133536 
L 405.020293 298.495581 
L 401.051945 298.004194 
L 396.752901 299.805945 
L 389.808292 300.133536 
L 388.154813 299.805945 
L 384.186465 298.495581 
L 382.202291 298.167989 
L 380.879508 297.676603 
L 378.233943 295.383465 
L 375.919073 294.892078 
L 374.265594 295.219669 
L 372.612116 295.874852 
L 370.627942 295.874852 
L 368.643768 294.892078 
L 366.990289 296.693829 
L 355.085245 297.512807 
L 351.447592 298.823172 
L 349.463418 298.986967 
L 344.502983 295.383465 
L 342.518809 294.400692 
L 341.196026 294.236896 
L 340.534635 295.055874 
L 340.534635 296.202443 
L 340.86533 297.185216 
L 340.534635 298.167989 
L 339.542548 298.495581 
L 338.219765 298.495581 
L 337.227678 298.167989 
L 336.566287 297.840398 
L 335.243504 295.219669 
L 334.251417 294.564487 
L 333.590025 294.236896 
L 319.700807 292.762736 
L 317.055241 292.762736 
L 316.724546 292.926531 
L 315.071067 293.254123 
L 312.094806 294.728283 
L 309.779936 296.366238 
L 308.787849 296.693829 
L 306.472979 297.512807 
L 305.480892 298.004194 
L 304.488805 298.659376 
L 302.173936 300.461127 
L 300.851153 302.918061 
L 300.189761 305.866381 
L 299.52837 306.685359 
L 297.544196 307.668132 
L 297.2135 308.48711 
L 296.552109 309.469883 
L 293.575848 312.418203 
L 291.260978 315.038932 
L 290.268891 316.021706 
L 289.6075 315.85791 
L 287.29263 315.85791 
L 285.639151 316.185501 
L 284.316369 316.840684 
L 282.993586 315.85791 
L 281.009412 315.366523 
L 269.435063 315.530319 
L 267.450889 316.185501 
L 263.482541 318.314844 
L 261.498366 318.80623 
L 255.215149 318.80623 
L 253.56167 318.151048 
L 253.56167 317.33207 
L 254.223061 316.676888 
L 254.884453 316.021706 
L 255.545844 315.530319 
L 255.215149 314.38375 
L 254.553757 313.892363 
L 253.892366 313.564772 
L 253.230974 312.581999 
L 251.577496 311.43543 
L 250.916105 310.452657 
L 251.2468 309.469883 
L 251.908192 309.142292 
L 252.569583 308.814701 
L 252.900279 308.159519 
L 253.230974 306.193972 
L 253.56167 304.06463 
L 253.230974 302.262879 
L 252.569583 301.11631 
L 250.585409 298.659376 
L 249.593322 297.676603 
L 247.278452 296.857625 
L 245.624974 296.530034 
L 243.310104 296.202443 
L 241.32593 296.857625 
L 240.333843 298.495581 
L 240.664538 300.461127 
L 240.333843 301.280105 
L 237.688277 304.06463 
L 237.026886 304.556016 
L 236.034799 304.883608 
L 235.042712 304.719812 
L 233.058538 304.228425 
L 232.066451 304.06463 
L 231.405059 304.392221 
L 230.082277 305.374994 
L 229.420885 305.53879 
L 228.098102 305.374994 
L 227.767407 305.53879 
L 226.77532 306.521563 
L 226.77532 306.849154 
L 226.113928 307.995723 
L 225.783233 308.48711 
L 225.783233 308.814701 
L 224.46045 309.306088 
L 224.129754 309.469883 
L 221.484189 312.418203 
L 220.161406 313.237181 
L 218.177232 313.400977 
L 217.185145 313.073386 
L 216.523754 312.254408 
L 216.193058 311.271634 
L 215.531667 310.452657 
L 214.539579 309.797474 
L 213.547492 309.306088 
L 209.579144 308.48711 
L 207.59497 308.48711 
L 206.272187 308.978497 
L 205.610796 310.452657 
L 205.610796 311.271634 
L 204.618709 312.745795 
L 204.618709 313.728568 
L 204.618709 315.038932 
L 205.2801 315.694115 
L 205.610796 316.349297 
L 206.272187 317.495866 
L 207.925666 322.737324 
L 208.256361 323.556302 
L 208.587057 324.702871 
L 206.602883 327.487395 
L 204.949405 331.418489 
L 196.351317 344.194542 
L 195.689926 346.323885 
L 195.35923 347.142863 
L 194.367143 347.798045 
L 192.713664 348.780818 
L 191.390882 349.763592 
L 190.72949 350.582569 
L 190.068099 351.729138 
L 189.406708 353.367094 
L 188.745316 353.203298 
L 188.41462 353.039503 
L 188.083925 352.711912 
L 188.083925 353.367094 
L 187.753229 353.694685 
L 187.422533 354.022276 
L 188.083925 354.022276 
L 187.753229 354.841254 
L 187.422533 355.332641 
L 186.761142 355.824027 
L 186.099751 355.987823 
L 185.769055 356.315414 
L 185.107664 358.280961 
L 184.776968 358.936143 
L 183.454185 360.574099 
L 180.477924 369.74665 
L 179.485837 371.548401 
L 175.848185 376.953655 
L 174.856097 376.462268 
L 173.86401 375.64329 
L 173.86401 375.315699 
L 173.202619 374.496721 
L 166.588705 364.013805 
L 165.265923 362.37585 
L 161.958966 361.065485 
L 154.683661 362.048259 
L 151.7074 361.229281 
L 152.368791 360.574099 
L 155.345052 357.625779 
L 156.006444 356.315414 
L 156.006444 354.186072 
L 155.675748 352.711912 
L 154.022269 349.927387 
L 153.030182 348.453227 
L 153.030182 347.96184 
L 153.030182 346.815271 
L 153.360878 343.047974 
L 152.699487 341.410018 
L 151.376704 339.444471 
L 147.739051 336.659947 
L 142.778616 334.6944 
L 143.770703 331.74608 
L 144.101399 330.108124 
L 144.101399 327.3236 
L 144.101399 325.685644 
L 143.770703 324.539075 
L 142.778616 321.75455 
L 142.778616 320.935573 
L 142.778616 318.970026 
L 143.770703 317.168275 
L 147.739051 310.125066 
L 147.739051 309.96127 
L 148.731139 308.159519 
L 148.731139 307.831928 
L 147.739051 307.176745 
L 146.416269 306.193972 
L 141.455833 304.392221 
L 138.148877 302.099083 
L 137.487485 301.11631 
L 135.834007 299.150763 
L 135.172615 298.495581 
L 131.534963 297.512807 
L 130.21218 296.693829 
L 129.550789 294.892078 
L 129.881485 293.909305 
L 130.873572 293.581714 
L 131.204267 292.926531 
L 130.873572 291.452371 
L 130.542876 290.633394 
L 121.944788 282.116024 
z
" clip-path="url(#p18ca1a3116)" style="fill: #e74c3c; stroke: #ffffff; stroke-width: 0.6"/>
    <path d="M 417.256033 319.461413 
L 418.578816 319.133821 
L 420.232294 319.297617 
L 421.885773 320.116595 
L 423.208556 321.099368 
L 424.200643 321.590755 
L 428.499687 322.082142 
L 433.460122 321.918346 
L 434.452209 322.409733 
L 435.444296 323.720097 
L 436.436383 325.521848 
L 437.097774 327.3236 
L 437.097774 328.142577 
L 435.774992 327.814986 
L 432.79873 326.340826 
L 431.145252 326.013235 
L 429.491774 326.340826 
L 426.846208 327.159804 
L 425.19273 327.487395 
L 421.885773 326.504622 
L 419.570903 324.375279 
L 418.24812 321.918346 
z
" clip-path="url(#p18ca1a3116)" style="fill: #e74c3c; stroke: #ffffff; stroke-width: 0.6"/>
    <path d="M 164.273836 381.703726 
L 164.273836 379.574384 
L 165.265923 377.281246 
L 166.25801 375.315699 
L 167.580792 375.970882 
L 168.903575 376.953655 
L 171.218445 379.246793 
L 169.564967 379.738179 
L 167.580792 382.031317 
L 165.927314 382.6865 
z
" clip-path="url(#p18ca1a3116)" style="fill: #e74c3c; stroke: #ffffff; stroke-width: 0.6"/>
   </g>
   <g id="text_1">
    <g id="patch_2">
     <path d="M 86.792098 248.19675 
L 105.519286 248.19675 
Q 106.919286 248.19675 106.919286 246.79675 
L 106.919286 239.796203 
Q 106.919286 238.396203 105.519286 238.396203 
L 86.792098 238.396203 
Q 85.392098 238.396203 85.392098 239.796203 
L 85.392098 246.79675 
Q 85.392098 248.19675 86.792098 248.19675 
z
" clip-path="url(#p18ca1a3116)" style="fill: #ffffff; opacity: 0.6"/>
    </g>
    <g clip-path="url(#p18ca1a3116)">
     <!-- Haiti -->
     <g style="fill: #1a252f" transform="translate(86.792098 245.115109) scale(0.07 -0.07)">
      <defs>
       <path id="DejaVuSans-Bold-2b" d="M 588 4666 
L 1791 4666 
L 1791 2888 
L 3566 2888 
L 3566 4666 
L 4769 4666 
L 4769 0 
L 3566 0 
L 3566 1978 
L 1791 1978 
L 1791 0 
L 588 0 
L 588 4666 
z
" transform="scale(0.015625)"/>
       <path id="DejaVuSans-Bold-44" d="M 2106 1575 
Q 1756 1575 1579 1456 
Q 1403 1338 1403 1106 
Q 1403 894 1545 773 
Q 1688 653 1941 653 
Q 2256 653 2472 879 
Q 2688 1106 2688 1447 
L 2688 1575 
L 2106 1575 
z
M 3816 1997 
L 3816 0 
L 2688 0 
L 2688 519 
Q 2463 200 2181 54 
Q 1900 -91 1497 -91 
Q 953 -91 614 226 
Q 275 544 275 1050 
Q 275 1666 698 1953 
Q 1122 2241 2028 2241 
L 2688 2241 
L 2688 2328 
Q 2688 2594 2478 2717 
Q 2269 2841 1825 2841 
Q 1466 2841 1156 2769 
Q 847 2697 581 2553 
L 581 3406 
Q 941 3494 1303 3539 
Q 1666 3584 2028 3584 
Q 2975 3584 3395 3211 
Q 3816 2838 3816 1997 
z
" transform="scale(0.015625)"/>
       <path id="DejaVuSans-Bold-4c" d="M 538 3500 
L 1656 3500 
L 1656 0 
L 538 0 
L 538 3500 
z
M 538 4863 
L 1656 4863 
L 1656 3950 
L 538 3950 
L 538 4863 
z
" transform="scale(0.015625)"/>
       <path id="DejaVuSans-Bold-57" d="M 1759 4494 
L 1759 3500 
L 2913 3500 
L 2913 2700 
L 1759 2700 
L 1759 1216 
Q 1759 972 1856 886 
Q 1953 800 2241 800 
L 2816 800 
L 2816 0 
L 1856 0 
Q 1194 0 917 276 
Q 641 553 641 1216 
L 641 2700 
L 84 2700 
L 84 3500 
L 641 3500 
L 641 4494 
L 1759 4494 
z
" transform="scale(0.015625)"/>
      </defs>
      <use xlink:href="#DejaVuSans-Bold-2b"/>
      <use xlink:href="#DejaVuSans-Bold-44" transform="translate(83.6875 0)"/>
      <use xlink:href="#DejaVuSans-Bold-4c" transform="translate(151.171875 0)"/>
      <use xlink:href="#DejaVuSans-Bold-57" transform="translate(185.453125 0)"/>
      <use xlink:href="#DejaVuSans-Bold-4c" transform="translate(233.25 0)"/>
     </g>
    </g>
   </g>
   <g id="text_2">
    <!-- Dominican Rep. -->
    <g style="fill: #1a252f" transform="translate(215.393848 20.117344) scale(0.17 -0.17)">
     <defs>
      <path id="DejaVuSans-Bold-27" d="M 1791 3756 
L 1791 909 
L 2222 909 
Q 2959 909 3348 1275 
Q 3738 1641 3738 2338 
Q 3738 3031 3350 3393 
Q 2963 3756 2222 3756 
L 1791 3756 
z
M 588 4666 
L 1856 4666 
Q 2919 4666 3439 4514 
Q 3959 4363 4331 4000 
Q 4659 3684 4818 3271 
Q 4978 2859 4978 2338 
Q 4978 1809 4818 1395 
Q 4659 981 4331 666 
Q 3956 303 3431 151 
Q 2906 0 1856 0 
L 588 0 
L 588 4666 
z
" transform="scale(0.015625)"/>
      <path id="DejaVuSans-Bold-52" d="M 2203 2784 
Q 1831 2784 1636 2517 
Q 1441 2250 1441 1747 
Q 1441 1244 1636 976 
Q 1831 709 2203 709 
Q 2569 709 2762 976 
Q 2956 1244 2956 1747 
Q 2956 2250 2762 2517 
Q 2569 2784 2203 2784 
z
M 2203 3584 
Q 3106 3584 3614 3096 
Q 4122 2609 4122 1747 
Q 4122 884 3614 396 
Q 3106 -91 2203 -91 
Q 1297 -91 786 396 
Q 275 884 275 1747 
Q 275 2609 786 3096 
Q 1297 3584 2203 3584 
z
" transform="scale(0.015625)"/>
      <path id="DejaVuSans-Bold-50" d="M 3781 2919 
Q 3994 3244 4286 3414 
Q 4578 3584 4928 3584 
Q 5531 3584 5847 3212 
Q 6163 2841 6163 2131 
L 6163 0 
L 5038 0 
L 5038 1825 
Q 5041 1866 5042 1909 
Q 5044 1953 5044 2034 
Q 5044 2406 4934 2573 
Q 4825 2741 4581 2741 
Q 4263 2741 4089 2478 
Q 3916 2216 3909 1719 
L 3909 0 
L 2784 0 
L 2784 1825 
Q 2784 2406 2684 2573 
Q 2584 2741 2328 2741 
Q 2006 2741 1831 2477 
Q 1656 2213 1656 1722 
L 1656 0 
L 531 0 
L 531 3500 
L 1656 3500 
L 1656 2988 
Q 1863 3284 2130 3434 
Q 2397 3584 2719 3584 
Q 3081 3584 3359 3409 
Q 3638 3234 3781 2919 
z
" transform="scale(0.015625)"/>
      <path id="DejaVuSans-Bold-51" d="M 4056 2131 
L 4056 0 
L 2931 0 
L 2931 347 
L 2931 1631 
Q 2931 2084 2911 2256 
Q 2891 2428 2841 2509 
Q 2775 2619 2662 2680 
Q 2550 2741 2406 2741 
Q 2056 2741 1856 2470 
Q 1656 2200 1656 1722 
L 1656 0 
L 538 0 
L 538 3500 
L 1656 3500 
L 1656 2988 
Q 1909 3294 2193 3439 
Q 2478 3584 2822 3584 
Q 3428 3584 3742 3212 
Q 4056 2841 4056 2131 
z
" transform="scale(0.015625)"/>
      <path id="DejaVuSans-Bold-46" d="M 3366 3391 
L 3366 2478 
Q 3138 2634 2908 2709 
Q 2678 2784 2431 2784 
Q 1963 2784 1702 2511 
Q 1441 2238 1441 1747 
Q 1441 1256 1702 982 
Q 1963 709 2431 709 
Q 2694 709 2930 787 
Q 3166 866 3366 1019 
L 3366 103 
Q 3103 6 2833 -42 
Q 2563 -91 2291 -91 
Q 1344 -91 809 395 
Q 275 881 275 1747 
Q 275 2613 809 3098 
Q 1344 3584 2291 3584 
Q 2566 3584 2833 3536 
Q 3100 3488 3366 3391 
z
" transform="scale(0.015625)"/>
      <path id="DejaVuSans-Bold-3" transform="scale(0.015625)"/>
      <path id="DejaVuSans-Bold-35" d="M 2297 2597 
Q 2675 2597 2839 2737 
Q 3003 2878 3003 3200 
Q 3003 3519 2839 3656 
Q 2675 3794 2297 3794 
L 1791 3794 
L 1791 2597 
L 2297 2597 
z
M 1791 1766 
L 1791 0 
L 588 0 
L 588 4666 
L 2425 4666 
Q 3347 4666 3776 4356 
Q 4206 4047 4206 3378 
Q 4206 2916 3982 2619 
Q 3759 2322 3309 2181 
Q 3556 2125 3751 1926 
Q 3947 1728 4147 1325 
L 4800 0 
L 3519 0 
L 2950 1159 
Q 2778 1509 2601 1637 
Q 2425 1766 2131 1766 
L 1791 1766 
z
" transform="scale(0.015625)"/>
      <path id="DejaVuSans-Bold-48" d="M 4031 1759 
L 4031 1441 
L 1416 1441 
Q 1456 1047 1700 850 
Q 1944 653 2381 653 
Q 2734 653 3104 758 
Q 3475 863 3866 1075 
L 3866 213 
Q 3469 63 3072 -14 
Q 2675 -91 2278 -91 
Q 1328 -91 801 392 
Q 275 875 275 1747 
Q 275 2603 792 3093 
Q 1309 3584 2216 3584 
Q 3041 3584 3536 3087 
Q 4031 2591 4031 1759 
z
M 2881 2131 
Q 2881 2450 2695 2645 
Q 2509 2841 2209 2841 
Q 1884 2841 1681 2658 
Q 1478 2475 1428 2131 
L 2881 2131 
z
" transform="scale(0.015625)"/>
      <path id="DejaVuSans-Bold-53" d="M 1656 506 
L 1656 -1331 
L 538 -1331 
L 538 3500 
L 1656 3500 
L 1656 2988 
Q 1888 3294 2169 3439 
Q 2450 3584 2816 3584 
Q 3463 3584 3878 3070 
Q 4294 2556 4294 1747 
Q 4294 938 3878 423 
Q 3463 -91 2816 -91 
Q 2450 -91 2169 54 
Q 1888 200 1656 506 
z
M 2400 2772 
Q 2041 2772 1848 2508 
Q 1656 2244 1656 1747 
Q 1656 1250 1848 986 
Q 2041 722 2400 722 
Q 2759 722 2948 984 
Q 3138 1247 3138 1747 
Q 3138 2247 2948 2509 
Q 2759 2772 2400 2772 
z
" transform="scale(0.015625)"/>
      <path id="DejaVuSans-Bold-11" d="M 653 1209 
L 1778 1209 
L 1778 0 
L 653 0 
L 653 1209 
z
" transform="scale(0.015625)"/>
     </defs>
     <use xlink:href="#DejaVuSans-Bold-27"/>
     <use xlink:href="#DejaVuSans-Bold-52" transform="translate(83.015625 0)"/>
     <use xlink:href="#DejaVuSans-Bold-50" transform="translate(151.71875 0)"/>
     <use xlink:href="#DejaVuSans-Bold-4c" transform="translate(255.921875 0)"/>
     <use xlink:href="#DejaVuSans-Bold-51" transform="translate(290.203125 0)"/>
     <use xlink:href="#DejaVuSans-Bold-4c" transform="translate(361.390625 0)"/>
     <use xlink:href="#DejaVuSans-Bold-46" transform="translate(395.671875 0)"/>
     <use xlink:href="#DejaVuSans-Bold-44" transform="translate(454.953125 0)"/>
     <use xlink:href="#DejaVuSans-Bold-51" transform="translate(522.4375 0)"/>
     <use xlink:href="#DejaVuSans-Bold-3" transform="translate(593.625 0)"/>
     <use xlink:href="#DejaVuSans-Bold-35" transform="translate(628.4375 0)"/>
     <use xlink:href="#DejaVuSans-Bold-48" transform="translate(705.4375 0)"/>
     <use xlink:href="#DejaVuSans-Bold-53" transform="translate(773.265625 0)"/>
     <use xlink:href="#DejaVuSans-Bold-11" transform="translate(844.84375 0)"/>
    </g>
   </g>
   <g id="legend_1">
    <g id="patch_3">
     <path d="M 13.5 498.657344 
L 113.1975 498.657344 
Q 114.9975 498.657344 114.9975 496.857344 
L 114.9975 470.755937 
Q 114.9975 468.955937 113.1975 468.955937 
L 13.5 468.955937 
Q 11.7 468.955937 11.7 470.755937 
L 11.7 496.857344 
Q 11.7 498.657344 13.5 498.657344 
z
" style="fill: #ffffff; opacity: 0.85; stroke: #cccccc; stroke-linejoin: miter"/>
    </g>
    <g id="patch_4">
     <path d="M 15.3 479.394531 
L 33.3 479.394531 
L 33.3 473.094531 
L 15.3 473.094531 
z
" style="fill: #e74c3c; stroke: #888888; stroke-linejoin: miter"/>
    </g>
    <g id="text_3">
     <!-- Dominican Rep. -->
     <g transform="translate(40.5 479.394531) scale(0.09 -0.09)">
      <defs>
       <path id="DejaVuSans-27" d="M 1259 4147 
L 1259 519 
L 2022 519 
Q 2988 519 3436 956 
Q 3884 1394 3884 2338 
Q 3884 3275 3436 3711 
Q 2988 4147 2022 4147 
L 1259 4147 
z
M 628 4666 
L 1925 4666 
Q 3281 4666 3915 4102 
Q 4550 3538 4550 2338 
Q 4550 1131 3912 565 
Q 3275 0 1925 0 
L 628 0 
L 628 4666 
z
" transform="scale(0.015625)"/>
       <path id="DejaVuSans-52" d="M 1959 3097 
Q 1497 3097 1228 2736 
Q 959 2375 959 1747 
Q 959 1119 1226 758 
Q 1494 397 1959 397 
Q 2419 397 2687 759 
Q 2956 1122 2956 1747 
Q 2956 2369 2687 2733 
Q 2419 3097 1959 3097 
z
M 1959 3584 
Q 2709 3584 3137 3096 
Q 3566 2609 3566 1747 
Q 3566 888 3137 398 
Q 2709 -91 1959 -91 
Q 1206 -91 779 398 
Q 353 888 353 1747 
Q 353 2609 779 3096 
Q 1206 3584 1959 3584 
z
" transform="scale(0.015625)"/>
       <path id="DejaVuSans-50" d="M 3328 2828 
Q 3544 3216 3844 3400 
Q 4144 3584 4550 3584 
Q 5097 3584 5394 3201 
Q 5691 2819 5691 2113 
L 5691 0 
L 5113 0 
L 5113 2094 
Q 5113 2597 4934 2840 
Q 4756 3084 4391 3084 
Q 3944 3084 3684 2787 
Q 3425 2491 3425 1978 
L 3425 0 
L 2847 0 
L 2847 2094 
Q 2847 2600 2669 2842 
Q 2491 3084 2119 3084 
Q 1678 3084 1418 2786 
Q 1159 2488 1159 1978 
L 1159 0 
L 581 0 
L 581 3500 
L 1159 3500 
L 1159 2956 
Q 1356 3278 1631 3431 
Q 1906 3584 2284 3584 
Q 2666 3584 2933 3390 
Q 3200 3197 3328 2828 
z
" transform="scale(0.015625)"/>
       <path id="DejaVuSans-4c" d="M 603 3500 
L 1178 3500 
L 1178 0 
L 603 0 
L 603 3500 
z
M 603 4863 
L 1178 4863 
L 1178 4134 
L 603 4134 
L 603 4863 
z
" transform="scale(0.015625)"/>
       <path id="DejaVuSans-51" d="M 3513 2113 
L 3513 0 
L 2938 0 
L 2938 2094 
Q 2938 2591 2744 2837 
Q 2550 3084 2163 3084 
Q 1697 3084 1428 2787 
Q 1159 2491 1159 1978 
L 1159 0 
L 581 0 
L 581 3500 
L 1159 3500 
L 1159 2956 
Q 1366 3272 1645 3428 
Q 1925 3584 2291 3584 
Q 2894 3584 3203 3211 
Q 3513 2838 3513 2113 
z
" transform="scale(0.015625)"/>
       <path id="DejaVuSans-46" d="M 3122 3366 
L 3122 2828 
Q 2878 2963 2633 3030 
Q 2388 3097 2138 3097 
Q 1578 3097 1268 2742 
Q 959 2388 959 1747 
Q 959 1106 1268 751 
Q 1578 397 2138 397 
Q 2388 397 2633 464 
Q 2878 531 3122 666 
L 3122 134 
Q 2881 22 2623 -34 
Q 2366 -91 2075 -91 
Q 1284 -91 818 406 
Q 353 903 353 1747 
Q 353 2603 823 3093 
Q 1294 3584 2113 3584 
Q 2378 3584 2631 3529 
Q 2884 3475 3122 3366 
z
" transform="scale(0.015625)"/>
       <path id="DejaVuSans-44" d="M 2194 1759 
Q 1497 1759 1228 1600 
Q 959 1441 959 1056 
Q 959 750 1161 570 
Q 1363 391 1709 391 
Q 2188 391 2477 730 
Q 2766 1069 2766 1631 
L 2766 1759 
L 2194 1759 
z
M 3341 1997 
L 3341 0 
L 2766 0 
L 2766 531 
Q 2569 213 2275 61 
Q 1981 -91 1556 -91 
Q 1019 -91 701 211 
Q 384 513 384 1019 
Q 384 1609 779 1909 
Q 1175 2209 1959 2209 
L 2766 2209 
L 2766 2266 
Q 2766 2663 2505 2880 
Q 2244 3097 1772 3097 
Q 1472 3097 1187 3025 
Q 903 2953 641 2809 
L 641 3341 
Q 956 3463 1253 3523 
Q 1550 3584 1831 3584 
Q 2591 3584 2966 3190 
Q 3341 2797 3341 1997 
z
" transform="scale(0.015625)"/>
       <path id="DejaVuSans-3" transform="scale(0.015625)"/>
       <path id="DejaVuSans-35" d="M 2841 2188 
Q 3044 2119 3236 1894 
Q 3428 1669 3622 1275 
L 4263 0 
L 3584 0 
L 2988 1197 
Q 2756 1666 2539 1819 
Q 2322 1972 1947 1972 
L 1259 1972 
L 1259 0 
L 628 0 
L 628 4666 
L 2053 4666 
Q 2853 4666 3247 4331 
Q 3641 3997 3641 3322 
Q 3641 2881 3436 2590 
Q 3231 2300 2841 2188 
z
M 1259 4147 
L 1259 2491 
L 2053 2491 
Q 2509 2491 2742 2702 
Q 2975 2913 2975 3322 
Q 2975 3731 2742 3939 
Q 2509 4147 2053 4147 
L 1259 4147 
z
" transform="scale(0.015625)"/>
       <path id="DejaVuSans-48" d="M 3597 1894 
L 3597 1613 
L 953 1613 
Q 991 1019 1311 708 
Q 1631 397 2203 397 
Q 2534 397 2845 478 
Q 3156 559 3463 722 
L 3463 178 
Q 3153 47 2828 -22 
Q 2503 -91 2169 -91 
Q 1331 -91 842 396 
Q 353 884 353 1716 
Q 353 2575 817 3079 
Q 1281 3584 2069 3584 
Q 2775 3584 3186 3129 
Q 3597 2675 3597 1894 
z
M 3022 2063 
Q 3016 2534 2758 2815 
Q 2500 3097 2075 3097 
Q 1594 3097 1305 2825 
Q 1016 2553 972 2059 
L 3022 2063 
z
" transform="scale(0.015625)"/>
       <path id="DejaVuSans-53" d="M 1159 525 
L 1159 -1331 
L 581 -1331 
L 581 3500 
L 1159 3500 
L 1159 2969 
Q 1341 3281 1617 3432 
Q 1894 3584 2278 3584 
Q 2916 3584 3314 3078 
Q 3713 2572 3713 1747 
Q 3713 922 3314 415 
Q 2916 -91 2278 -91 
Q 1894 -91 1617 61 
Q 1341 213 1159 525 
z
M 3116 1747 
Q 3116 2381 2855 2742 
Q 2594 3103 2138 3103 
Q 1681 3103 1420 2742 
Q 1159 2381 1159 1747 
Q 1159 1113 1420 752 
Q 1681 391 2138 391 
Q 2594 391 2855 752 
Q 3116 1113 3116 1747 
z
" transform="scale(0.015625)"/>
       <path id="DejaVuSans-11" d="M 684 794 
L 1344 794 
L 1344 0 
L 684 0 
L 684 794 
z
" transform="scale(0.015625)"/>
      </defs>
      <use xlink:href="#DejaVuSans-27"/>
      <use xlink:href="#DejaVuSans-52" transform="translate(77 0)"/>
      <use xlink:href="#DejaVuSans-50" transform="translate(138.1875 0)"/>
      <use xlink:href="#DejaVuSans-4c" transform="translate(235.59375 0)"/>
      <use xlink:href="#DejaVuSans-51" transform="translate(263.375 0)"/>
      <use xlink:href="#DejaVuSans-4c" transform="translate(326.75 0)"/>
      <use xlink:href="#DejaVuSans-46" transform="translate(354.53125 0)"/>
      <use xlink:href="#DejaVuSans-44" transform="translate(409.515625 0)"/>
      <use xlink:href="#DejaVuSans-51" transform="translate(470.796875 0)"/>
      <use xlink:href="#DejaVuSans-3" transform="translate(534.171875 0)"/>
      <use xlink:href="#DejaVuSans-35" transform="translate(565.953125 0)"/>
      <use xlink:href="#DejaVuSans-48" transform="translate(630.953125 0)"/>
      <use xlink:href="#DejaVuSans-53" transform="translate(692.484375 0)"/>
      <use xlink:href="#DejaVuSans-11" transform="translate(755.96875 0)"/>
     </g>
    </g>
    <g id="patch_5">
     <path d="M 15.3 492.895234 
L 33.3 492.895234 
L 33.3 486.595234 
L 15.3 486.595234 
z
" style="fill: #bdc3c7; stroke: #888888; stroke-linejoin: miter"/>
    </g>
    <g id="text_4">
     <!-- Neighbors -->
     <g transform="translate(40.5 492.895234) scale(0.09 -0.09)">
      <defs>
       <path id="DejaVuSans-31" d="M 628 4666 
L 1478 4666 
L 3547 763 
L 3547 4666 
L 4159 4666 
L 4159 0 
L 3309 0 
L 1241 3903 
L 1241 0 
L 628 0 
L 628 4666 
z
" transform="scale(0.015625)"/>
       <path id="DejaVuSans-4a" d="M 2906 1791 
Q 2906 2416 2648 2759 
Q 2391 3103 1925 3103 
Q 1463 3103 1205 2759 
Q 947 2416 947 1791 
Q 947 1169 1205 825 
Q 1463 481 1925 481 
Q 2391 481 2648 825 
Q 2906 1169 2906 1791 
z
M 3481 434 
Q 3481 -459 3084 -895 
Q 2688 -1331 1869 -1331 
Q 1566 -1331 1297 -1286 
Q 1028 -1241 775 -1147 
L 775 -588 
Q 1028 -725 1275 -790 
Q 1522 -856 1778 -856 
Q 2344 -856 2625 -561 
Q 2906 -266 2906 331 
L 2906 616 
Q 2728 306 2450 153 
Q 2172 0 1784 0 
Q 1141 0 747 490 
Q 353 981 353 1791 
Q 353 2603 747 3093 
Q 1141 3584 1784 3584 
Q 2172 3584 2450 3431 
Q 2728 3278 2906 2969 
L 2906 3500 
L 3481 3500 
L 3481 434 
z
" transform="scale(0.015625)"/>
       <path id="DejaVuSans-4b" d="M 3513 2113 
L 3513 0 
L 2938 0 
L 2938 2094 
Q 2938 2591 2744 2837 
Q 2550 3084 2163 3084 
Q 1697 3084 1428 2787 
Q 1159 2491 1159 1978 
L 1159 0 
L 581 0 
L 581 4863 
L 1159 4863 
L 1159 2956 
Q 1366 3272 1645 3428 
Q 1925 3584 2291 3584 
Q 2894 3584 3203 3211 
Q 3513 2838 3513 2113 
z
" transform="scale(0.015625)"/>
       <path id="DejaVuSans-45" d="M 3116 1747 
Q 3116 2381 2855 2742 
Q 2594 3103 2138 3103 
Q 1681 3103 1420 2742 
Q 1159 2381 1159 1747 
Q 1159 1113 1420 752 
Q 1681 391 2138 391 
Q 2594 391 2855 752 
Q 3116 1113 3116 1747 
z
M 1159 2969 
Q 1341 3281 1617 3432 
Q 1894 3584 2278 3584 
Q 2916 3584 3314 3078 
Q 3713 2572 3713 1747 
Q 3713 922 3314 415 
Q 2916 -91 2278 -91 
Q 1894 -91 1617 61 
Q 1341 213 1159 525 
L 1159 0 
L 581 0 
L 581 4863 
L 1159 4863 
L 1159 2969 
z
" transform="scale(0.015625)"/>
       <path id="DejaVuSans-55" d="M 2631 2963 
Q 2534 3019 2420 3045 
Q 2306 3072 2169 3072 
Q 1681 3072 1420 2755 
Q 1159 2438 1159 1844 
L 1159 0 
L 581 0 
L 581 3500 
L 1159 3500 
L 1159 2956 
Q 1341 3275 1631 3429 
Q 1922 3584 2338 3584 
Q 2397 3584 2469 3576 
Q 2541 3569 2628 3553 
L 2631 2963 
z
" transform="scale(0.015625)"/>
       <path id="DejaVuSans-56" d="M 2834 3397 
L 2834 2853 
Q 2591 2978 2328 3040 
Q 2066 3103 1784 3103 
Q 1356 3103 1142 2972 
Q 928 2841 928 2578 
Q 928 2378 1081 2264 
Q 1234 2150 1697 2047 
L 1894 2003 
Q 2506 1872 2764 1633 
Q 3022 1394 3022 966 
Q 3022 478 2636 193 
Q 2250 -91 1575 -91 
Q 1294 -91 989 -36 
Q 684 19 347 128 
L 347 722 
Q 666 556 975 473 
Q 1284 391 1588 391 
Q 1994 391 2212 530 
Q 2431 669 2431 922 
Q 2431 1156 2273 1281 
Q 2116 1406 1581 1522 
L 1381 1569 
Q 847 1681 609 1914 
Q 372 2147 372 2553 
Q 372 3047 722 3315 
Q 1072 3584 1716 3584 
Q 2034 3584 2315 3537 
Q 2597 3491 2834 3397 
z
" transform="scale(0.015625)"/>
      </defs>
      <use xlink:href="#DejaVuSans-31"/>
      <use xlink:href="#DejaVuSans-48" transform="translate(74.8125 0)"/>
      <use xlink:href="#DejaVuSans-4c" transform="translate(136.34375 0)"/>
      <use xlink:href="#DejaVuSans-4a" transform="translate(164.125 0)"/>
      <use xlink:href="#DejaVuSans-4b" transform="translate(227.609375 0)"/>
      <use xlink:href="#DejaVuSans-45" transform="translate(290.984375 0)"/>
      <use xlink:href="#DejaVuSans-52" transform="translate(354.46875 0)"/>
      <use xlink:href="#DejaVuSans-55" transform="translate(415.65625 0)"/>
      <use xlink:href="#DejaVuSans-56" transform="translate(456.765625 0)"/>
     </g>
    </g>
   </g>
  </g>
 </g>
 <defs>
  <clipPath id="p18ca1a3116">
   <rect x="7.2" y="30.117344" width="566.468478" height="473.04"/>
  </clipPath>
 </defs>
</svg>
