<?xml version="1.0" encoding="utf-8" standalone="no"?>
<!DOCTYPE svg PUBLIC "-//W3C//DTD SVG 1.1//EN"
  "http://www.w3.org/Graphics/SVG/1.1/DTD/svg11.dtd">
<svg xmlns:xlink="http://www.w3.org/1999/xlink" width="624.2706pt" height="510.357344pt" viewBox="0 0 624.2706 510.357344" xmlns="http://www.w3.org/2000/svg" version="1.1">
 <metadata>
  <rdf:RDF xmlns:dc="http://purl.org/dc/elements/1.1/" xmlns:cc="http://creativecommons.org/ns#" xmlns:rdf="http://www.w3.org/1999/02/22-rdf-syntax-ns#">
   <cc:Work>
    <dc:type rdf:resource="http://purl.org/dc/dcmitype/StillImage"/>
    <dc:date>2026-06-19T08:36:22.337833</dc:date>
    <dc:format>image/svg+xml</dc:format>
    <dc:creator>
     <cc:Agent>
      <dc:title>Matplotlib v3.11.0, https://matplotlib.org/</dc:title>
     </cc:Agent>
    </dc:creator>
   </cc:Work>
  </rdf:RDF>
 </metadata>
 <defs>
  <style type="text/css">*{stroke-linejoin: round; stroke-linecap: butt}</style>
 </defs>
 <g id="figure_1">
  <g id="patch_1">
   <path d="M 0 510.357344 
L 624.2706 510.357344 
L 624.2706 0 
L 0 0 
z
" style="fill: #d6eaf8"/>
  </g>
  <g id="axes_1">
   <g id="PatchCollection_1">
    <path d="M 473.548634 387.090908 
L 473.548634 383.175591 
L 475.932878 378.339023 
L 479.747669 375.114645 
L 483.56246 372.581205 
L 486.423553 369.587139 
L 486.900402 364.289946 
L 487.854099 364.289946 
L 487.377251 367.284012 
L 486.900402 368.205263 
L 488.330948 368.205263 
L 490.238344 368.435576 
L 491.66889 368.896201 
L 492.145739 369.356826 
L 493.099437 369.817452 
L 496.437379 372.811518 
L 496.914227 373.272143 
L 499.298472 376.496521 
L 500.252169 376.957147 
L 501.682716 377.878398 
L 502.159565 378.339023 
L 502.159565 379.260274 
L 502.159565 381.333089 
L 502.159565 382.25434 
L 506.451204 386.630282 
L 512.173391 387.781846 
L 526.002007 386.860595 
L 526.002007 385.939344 
L 518.849274 386.169657 
L 515.511332 385.709031 
L 514.080786 384.557467 
L 515.511332 382.25434 
L 521.710367 379.029962 
L 522.664065 378.339023 
L 553.182391 376.496521 
L 555.089787 376.726834 
L 557.95088 378.569336 
L 559.381426 378.799649 
L 560.335124 376.496521 
L 563.196217 375.114645 
L 566.534159 373.04183 
L 567.964705 371.199328 
L 570.825799 366.362761 
L 571.779496 365.902135 
L 573.686892 364.750572 
L 574.16374 364.059633 
L 574.640589 362.90807 
L 574.16374 362.217131 
L 573.686892 361.986819 
L 573.210043 361.065568 
L 574.16374 353.925873 
L 574.16374 353.69556 
L 573.210043 351.392433 
L 572.733194 350.701494 
L 573.210043 350.240869 
L 574.16374 346.325552 
L 575.117438 344.48305 
L 576.071136 343.331487 
L 582.270171 337.803981 
L 584.177566 336.422104 
L 586.084962 335.961479 
L 588.469206 336.191792 
L 596.098787 339.876796 
L 597.529334 340.337421 
L 598.483032 339.876796 
L 599.436729 339.41617 
L 600.390427 338.725232 
L 602.297822 336.88273 
L 603.25152 335.270541 
L 603.728369 332.967413 
L 602.774671 329.282409 
L 602.774671 328.361158 
L 601.820974 326.518657 
L 600.867276 325.827718 
L 599.913578 325.597406 
L 598.95988 325.13678 
L 598.483032 323.754904 
L 598.95988 321.912402 
L 600.390427 318.227398 
L 600.867276 315.92427 
L 596.575636 299.572066 
L 596.575636 297.268938 
L 597.052485 292.892996 
L 597.052485 290.820182 
L 596.575636 289.898931 
L 595.621939 288.97768 
L 594.668241 288.517054 
L 594.191392 287.826116 
L 594.191392 286.674552 
L 594.668241 279.304545 
L 594.668241 277.001417 
L 595.14509 275.158915 
L 595.14509 274.237664 
L 595.621939 273.777039 
L 597.529334 272.625475 
L 600.390427 271.243599 
L 603.25152 271.013286 
L 608.973706 271.704224 
L 619.464381 269.631409 
L 624.709718 269.170784 
L 629.478207 271.704224 
L 631.862451 272.395162 
L 633.769846 271.704224 
L 635.200393 270.782973 
L 637.107788 270.55266 
L 639.492032 272.625475 
L 639.968881 273.316413 
L 641.399428 273.546726 
L 642.353125 273.777039 
L 649.029009 273.316413 
L 651.413253 272.625475 
L 653.797498 271.704224 
L 655.228044 270.092035 
L 655.704893 268.01922 
L 657.13544 263.873591 
L 659.042835 260.649212 
L 667.626114 251.20639 
L 672.394603 244.066695 
L 673.825149 243.145444 
L 675.255696 242.454506 
L 676.686242 241.763568 
L 678.593638 240.151378 
L 679.547335 238.308877 
L 680.024184 236.927 
L 680.501033 235.775436 
L 681.93158 234.39356 
L 683.838975 233.472309 
L 693.852801 232.090433 
L 693.852801 233.472309 
L 692.422254 236.466375 
L 692.899103 240.151378 
L 702.43608 246.830448 
L 705.297173 250.745765 
L 705.774022 251.436703 
L 707.681417 252.127641 
L 709.111964 251.897328 
L 710.065661 251.436703 
L 711.973057 251.20639 
L 714.83415 252.588267 
L 716.741545 254.891394 
L 717.695243 257.655147 
L 720.079487 260.4189 
L 722.94058 261.340151 
L 725.801673 261.340151 
L 728.662766 261.570463 
L 730.570162 263.412965 
L 730.570162 263.643278 
L 731.047011 263.412965 
L 732.000708 262.491714 
L 732.954406 260.188587 
L 733.431255 258.115772 
L 732.477557 256.503583 
L 730.570162 256.042958 
L 730.093313 254.661081 
L 730.570162 252.127641 
L 732.000708 247.982012 
L 732.000708 244.987946 
L 732.954406 244.297008 
L 733.908104 244.527321 
L 736.292348 244.757633 
L 738.199743 244.066695 
L 741.060836 241.763568 
L 742.014534 241.99388 
L 742.968232 241.99388 
L 742.968232 241.302942 
L 743.445081 241.302942 
L 743.92193 241.072629 
L 743.445081 239.690753 
L 747.73672 238.308877 
L 749.167267 236.927 
L 750.597813 235.084498 
L 753.458906 233.932934 
L 754.412604 233.702622 
L 756.796848 233.472309 
L 759.181093 232.551058 
L 760.611639 230.708556 
L 760.611639 228.635741 
L 761.565337 226.793239 
L 766.333825 225.411363 
L 768.718069 224.029487 
L 772.056011 221.496046 
L 773.486558 219.423232 
L 774.917104 216.889792 
L 775.870802 214.356351 
L 776.8245 210.90166 
L 778.255046 208.598533 
L 779.685593 206.756031 
L 781.116139 205.374154 
L 781.592988 205.374154 
L 783.023535 205.604467 
L 783.500384 205.374154 
L 783.977233 204.913529 
L 784.454081 203.992278 
L 785.407779 202.840714 
L 785.884628 201.919463 
L 786.361477 201.228525 
L 787.792023 200.7679 
L 791.129965 199.386023 
L 792.083663 198.925398 
L 797.329 198.925398 
L 800.666942 198.464772 
L 804.004884 197.313209 
L 806.865977 195.701019 
L 808.296524 193.397892 
L 807.819675 190.173514 
L 806.389128 187.640073 
L 804.004884 185.336946 
L 801.62064 183.95507 
L 805.435431 181.191317 
L 805.435431 180.270066 
L 805.435431 178.197251 
L 805.435431 177.506313 
L 808.296524 174.051622 
L 808.773373 173.360683 
L 809.250221 166.451301 
L 809.72707 162.535985 
L 810.680768 160.693483 
L 813.065012 161.154108 
L 815.449256 163.687548 
L 817.833501 165.299737 
L 820.694594 163.917861 
L 824.986233 159.311606 
L 825.939931 157.238792 
L 825.939931 157.008479 
L 822.601989 157.008479 
L 823.555687 155.856915 
L 826.41678 153.093162 
L 822.601989 150.329409 
L 822.12514 149.177846 
L 824.032536 148.486907 
L 824.509384 148.256595 
L 824.986233 147.335344 
L 825.939931 142.268463 
L 826.893629 140.195649 
L 828.801024 138.583459 
L 829.277873 138.353147 
L 831.185268 136.97127 
L 833.569512 135.359081 
L 839.768547 129.37095 
L 841.675943 128.219386 
L 849.782373 126.607197 
L 853.120315 126.607197 
L 856.458257 127.528448 
L 859.31935 129.831575 
L 861.703594 133.055954 
L 861.226746 133.286266 
L 860.273048 134.668143 
L 859.796199 134.898456 
L 862.657292 135.359081 
L 863.134141 136.97127 
L 862.657292 138.813772 
L 865.518385 140.656274 
L 866.948932 142.729089 
L 868.856327 147.565656 
L 871.240571 145.953467 
L 874.101664 146.414093 
L 878.870153 148.486907 
L 882.208095 149.177846 
L 891.745072 149.408158 
L 891.268223 150.329409 
L 890.791374 153.093162 
L 892.698769 152.402224 
L 894.129316 153.323475 
L 895.559862 154.475039 
L 897.467258 154.935664 
L 898.897804 154.705351 
L 902.712595 152.632537 
L 907.481084 151.020347 
L 909.865328 148.026282 
L 911.772723 144.571591 
L 913.680119 142.038151 
L 914.633816 143.189714 
L 915.587514 146.874718 
L 916.541212 147.565656 
L 918.925456 147.795969 
L 921.786549 148.486907 
L 923.217095 148.486907 
L 926.078189 147.105031 
L 927.031886 144.110965 
L 926.078189 137.662208 
L 927.031886 136.050019 
L 928.462433 136.050019 
L 930.369828 136.510645 
L 931.800375 137.201583 
L 932.754072 138.122834 
L 935.615165 141.577525 
L 937.522561 142.268463 
L 939.429956 142.038151 
L 942.291049 141.1169 
L 943.244747 140.656274 
L 943.721596 139.965336 
L 944.675294 139.50471 
L 945.628991 139.044085 
L 947.059538 139.274398 
L 947.536387 139.735023 
L 948.013235 139.735023 
L 948.966933 139.044085 
L 948.966933 138.122834 
L 947.536387 136.97127 
L 947.059538 135.819707 
L 945.152142 132.595328 
L 946.582689 131.213452 
L 947.536387 131.213452 
L 950.874329 133.286266 
L 950.874329 133.746892 
L 951.828026 134.207517 
L 952.781724 134.43783 
L 955.165968 134.43783 
L 956.119666 134.668143 
L 956.119666 135.819707 
L 958.50391 136.050019 
L 971.378829 135.359081 
L 970.90198 134.207517 
L 970.90198 133.055954 
L 971.378829 129.831575 
L 973.286224 130.752826 
L 975.19362 133.055954 
L 977.101015 133.516579 
L 976.624166 133.055954 
L 976.147317 131.674077 
L 977.101015 132.134703 
L 977.577864 132.134703 
L 978.054713 132.595328 
L 979.00841 133.516579 
L 980.438957 132.134703 
L 982.823201 130.752826 
L 985.207445 129.831575 
L 988.068538 129.831575 
L 986.637992 129.140637 
L 986.161143 128.449699 
L 985.207445 126.83751 
L 992.837027 126.607197 
L 995.221271 125.455633 
L 995.221271 123.382819 
L 996.651818 123.152506 
L 998.082364 123.382819 
L 999.036062 124.073757 
L 999.512911 125.22532 
L 1000.466608 125.22532 
L 999.512911 121.310004 
L 999.98976 119.697815 
L 1002.374004 118.546251 
L 1004.758248 118.085625 
L 1008.09619 118.315938 
L 1010.480434 119.006876 
L 1011.434132 120.619066 
L 1012.38783 120.619066 
L 1012.864678 118.776564 
L 1013.341527 116.934062 
L 1013.818376 115.552185 
L 1017.156318 114.400622 
L 1020.49426 111.636869 
L 1022.401655 111.176243 
L 1021.924807 110.715618 
L 1021.924807 109.564054 
L 1021.447958 109.333741 
L 1023.355353 109.794367 
L 1024.309051 110.254992 
L 1023.832202 108.41249 
L 1023.832202 106.800301 
L 1024.7859 106.109363 
L 1026.216446 107.491239 
L 1026.216446 105.418425 
L 1026.216446 104.497174 
L 1027.170144 103.575923 
L 1026.216446 102.194046 
L 1026.693295 101.503108 
L 1028.123842 101.503108 
L 1029.554388 101.733421 
L 1030.508086 102.424359 
L 1031.938632 104.957799 
L 1033.369179 105.418425 
L 1036.230272 105.188112 
L 1039.091365 103.575923 
L 1040.99876 101.272795 
L 1042.429307 98.969668 
L 1043.859853 100.351544 
L 1045.767249 100.81217 
L 1047.197795 101.733421 
L 1047.674644 103.575923 
L 1049.58204 102.194046 
L 1051.966284 102.194046 
L 1057.68847 102.654672 
L 1056.257923 103.575923 
L 1056.257923 104.266861 
L 1057.211621 104.957799 
L 1058.642168 105.418425 
L 1059.119016 105.418425 
L 1065.318051 105.418425 
L 1068.655993 104.036548 
L 1070.563389 103.575923 
L 1074.855028 103.806235 
L 1076.762424 103.575923 
L 1075.808726 104.957799 
L 1073.424482 106.109363 
L 1071.993935 107.260927 
L 1070.08654 104.957799 
L 1068.655993 106.569988 
L 1067.225447 109.564054 
L 1066.271749 111.176243 
L 1064.841203 111.867181 
L 1062.933807 113.939996 
L 1061.98011 116.243124 
L 1061.503261 118.085625 
L 1061.026412 118.776564 
L 1059.119016 120.388753 
L 1058.642168 121.310004 
L 1058.165319 122.69188 
L 1058.165319 125.685946 
L 1057.68847 126.83751 
L 1056.734772 128.680012 
L 1055.304226 129.831575 
L 1050.535737 131.674077 
L 1051.012586 130.752826 
L 1051.012586 130.292201 
L 1052.443133 128.910324 
L 1052.443133 129.831575 
L 1052.919981 129.140637 
L 1052.919981 128.449699 
L 1052.919981 127.758761 
L 1052.919981 126.83751 
L 1051.966284 127.528448 
L 1051.489435 127.758761 
L 1050.535737 126.83751 
L 1050.535737 126.146571 
L 1051.966284 125.22532 
L 1053.39683 125.22532 
L 1054.827377 125.685946 
L 1055.781075 126.83751 
L 1055.781075 124.304069 
L 1054.350528 120.849378 
L 1053.873679 118.085625 
L 1053.39683 115.321873 
L 1051.489435 114.861247 
L 1049.105191 115.782498 
L 1047.674644 116.703749 
L 1044.813551 119.006876 
L 1039.091365 126.607197 
L 1037.660818 129.831575 
L 1039.091365 128.449699 
L 1039.568214 127.989073 
L 1041.475609 129.37095 
L 1042.906156 134.898456 
L 1043.859853 136.280332 
L 1045.2904 137.201583 
L 1047.197795 139.044085 
L 1049.105191 139.735023 
L 1051.489435 137.201583 
L 1050.535737 136.510645 
L 1048.151493 134.898456 
L 1046.720946 134.43783 
L 1048.151493 133.516579 
L 1050.058888 133.977205 
L 1051.012586 135.359081 
L 1052.443133 137.201583 
L 1052.443133 134.207517 
L 1053.39683 133.055954 
L 1054.350528 134.43783 
L 1059.595865 158.160042 
L 1060.072714 159.081293 
L 1061.026412 161.614734 
L 1061.98011 168.06349 
L 1068.655993 186.718822 
L 1069.132842 192.016015 
L 1068.655993 196.852583 
L 1064.841203 205.374154 
L 1053.873679 223.108236 
L 1049.105191 228.866054 
L 1048.628342 231.169182 
L 1047.674644 232.781371 
L 1041.475609 237.387626 
L 1038.614516 241.072629 
L 1036.707121 245.448572 
L 1033.846028 258.115772 
L 1028.60069 275.389228 
L 1025.262748 290.820182 
L 1025.739597 297.499251 
L 1025.262748 300.723629 
L 1025.262748 303.487382 
L 1022.401655 310.166452 
L 1020.017411 319.148649 
L 1018.586865 336.88273 
L 1018.586865 340.107108 
L 1019.540562 341.94961 
L 1018.586865 342.870861 
L 1019.540562 344.48305 
L 1023.832202 371.429641 
L 1026.693295 389.163722 
L 1022.401655 425.09251 
L 1022.401655 433.153456 
L 1022.878504 434.535332 
L 1024.7859 438.450649 
L 1025.739597 442.596278 
L 1029.554388 447.893471 
L 1030.508086 451.348162 
L 1030.031237 455.493792 
L 1028.60069 457.796919 
L 1026.216446 458.71817 
L 1021.924807 458.71817 
L 1018.586865 459.409108 
L 1015.248923 460.560672 
L 1012.38783 461.25161 
L 1009.526737 459.639421 
L 1010.480434 458.71817 
L 1013.341527 456.875668 
L 1014.295225 455.954417 
L 1014.295225 454.342228 
L 1013.818376 452.269413 
L 1012.864678 450.196599 
L 1010.003585 447.663159 
L 1010.003585 438.680962 
L 1009.526737 435.226271 
L 1010.003585 434.995958 
L 1010.480434 434.995958 
L 1010.480434 434.535332 
L 1011.434132 434.535332 
L 1016.20262 435.917209 
L 1019.540562 431.771579 
L 1020.49426 425.553135 
L 1018.586865 421.407506 
L 1018.586865 420.486255 
L 1020.017411 419.104379 
L 1020.49426 417.261877 
L 1020.49426 409.661556 
L 1020.971109 409.431244 
L 1021.447958 408.970618 
L 1021.924807 408.27968 
L 1022.401655 407.358429 
L 1021.924807 403.673425 
L 1019.540562 401.370298 
L 1015.725772 400.679359 
L 1012.38783 400.909672 
L 1009.526737 402.521861 
L 1008.573039 405.055301 
L 1008.573039 407.819054 
L 1009.526737 410.122182 
L 1012.38783 411.734371 
L 1012.864678 411.964684 
L 1012.864678 412.425309 
L 1012.864678 414.728437 
L 1013.341527 415.88 
L 1013.818376 416.801251 
L 1014.295225 417.031564 
L 1014.772074 417.722502 
L 1015.248923 419.104379 
L 1015.248923 421.407506 
L 1014.772074 422.328757 
L 1014.295225 423.250008 
L 1014.772074 423.940946 
L 1016.20262 426.013761 
L 1011.910981 428.547201 
L 1004.758248 434.535332 
L 1000.466608 436.377834 
L 994.744422 437.068772 
L 992.360178 437.759711 
L 991.40648 439.602213 
L 991.40648 446.741908 
L 991.883329 446.511595 
L 993.313876 446.511595 
L 994.744422 446.97222 
L 995.69812 446.97222 
L 996.651818 447.202533 
L 997.605515 448.354097 
L 998.559213 454.572541 
L 998.082364 457.566606 
L 997.128667 460.100047 
L 996.651818 462.8638 
L 997.605515 465.39724 
L 1000.466608 466.548803 
L 1004.281399 465.627552 
L 1005.235097 467.700367 
L 1004.758248 469.082244 
L 1004.281399 471.845996 
L 1004.281399 473.227873 
L 1004.281399 474.149124 
L 1005.235097 472.99756 
L 1007.142492 465.857865 
L 1008.09619 464.245676 
L 1009.049888 463.324425 
L 1011.910981 463.785051 
L 1012.38783 464.936614 
L 1006.188795 477.373502 
L 1003.327702 493.495394 
L 1004.281399 510.999163 
L 1005.235097 513.993228 
L 1004.281399 514.453854 
L 1003.327702 514.914479 
L 1003.80455 512.150726 
L 1002.850853 509.847599 
L 999.512911 505.701969 
L 998.082364 502.247278 
L 999.036062 500.635089 
L 1001.420306 499.253213 
L 1002.374004 496.259147 
L 1001.420306 493.95602 
L 999.98976 491.192267 
L 997.605515 488.889139 
L 995.221271 487.737576 
L 990.929632 488.198201 
L 991.40648 490.271016 
L 993.313876 491.42258 
L 995.221271 489.580078 
L 996.174969 489.580078 
L 998.082364 491.883205 
L 999.036062 493.265081 
L 999.512911 495.107583 
L 999.036062 497.410711 
L 997.128667 500.404776 
L 996.651818 502.707904 
L 996.174969 505.241344 
L 993.790725 505.241344 
L 988.068538 503.629155 
L 987.59169 504.08978 
L 989.022236 505.011031 
L 992.360178 506.392908 
L 993.313876 507.544471 
L 993.790725 508.926348 
L 993.790725 510.538537 
L 994.267573 512.381039 
L 993.790725 513.762915 
L 992.837027 516.296356 
L 992.360178 517.217607 
L 992.837027 517.908545 
L 992.837027 518.829796 
L 993.313876 519.520734 
L 993.313876 520.441985 
L 992.360178 521.363236 
L 991.883329 521.823861 
L 990.929632 522.054174 
L 990.452783 522.284487 
L 988.068538 525.508865 
L 987.59169 526.199803 
L 986.161143 526.430116 
L 984.730597 527.58168 
L 983.776899 528.733244 
L 983.30005 529.884807 
L 985.207445 531.036371 
L 987.114841 533.109186 
L 989.022236 535.182 
L 989.975934 537.715441 
L 990.929632 538.406379 
L 992.360178 538.867004 
L 993.790725 539.097317 
L 995.69812 538.867004 
L 995.69812 538.176066 
L 995.221271 537.485128 
L 995.221271 536.333564 
L 995.69812 533.569811 
L 996.651818 532.187935 
L 997.605515 531.727309 
L 999.98976 531.727309 
L 1001.420306 532.878873 
L 1007.619341 557.752649 
L 1007.619341 562.589217 
L 1007.619341 564.201406 
L 1007.619341 565.35297 
L 1007.142492 566.043908 
L 1006.188795 567.195471 
L 1005.711946 566.734846 
L 1003.80455 567.195471 
L 1001.897155 567.656097 
L 1001.897155 568.116722 
L 1000.943457 568.577348 
L 999.512911 570.41985 
L 998.082364 570.880475 
L 996.651818 570.880475 
L 995.221271 571.110788 
L 994.267573 571.801726 
L 993.313876 572.722977 
L 991.883329 576.868607 
L 990.452783 583.317363 
L 989.022236 588.153931 
L 986.161143 587.693305 
L 985.207445 587.693305 
L 980.915806 593.220811 
L 979.962108 595.293626 
L 979.00841 597.596753 
L 979.00841 611.415518 
L 983.30005 629.379912 
L 986.161143 636.289294 
L 989.975934 642.507738 
L 991.40648 645.962429 
L 994.267573 651.029309 
L 995.69812 652.180873 
L 998.082364 653.793062 
L 999.036062 656.326502 
L 999.98976 659.320568 
L 1002.374004 658.859943 
L 1001.897155 657.478066 
L 1003.80455 657.017441 
L 1006.665643 657.708379 
L 1008.573039 658.859943 
L 1007.619341 658.62963 
L 1006.665643 658.859943 
L 1006.188795 658.62963 
L 1005.235097 659.320568 
L 1005.235097 660.011506 
L 1005.235097 660.702445 
L 1005.235097 666.460263 
L 1006.665643 671.296831 
L 1006.188795 674.981835 
L 1001.420306 677.515275 
L 992.837027 679.588089 
L 992.360178 679.818402 
L 983.30005 683.04278 
L 980.438957 686.267159 
L 979.962108 686.727784 
L 976.624166 686.036846 
L 975.670468 686.267159 
L 973.763073 687.649035 
L 972.332527 687.879348 
L 971.378829 687.649035 
L 970.425131 687.18841 
L 962.318701 680.739653 
L 961.841852 678.436526 
L 960.411305 677.515275 
L 958.50391 677.745587 
L 957.073364 679.357777 
L 954.689119 678.897151 
L 951.351177 680.969966 
L 949.920631 679.357777 
L 948.966933 679.357777 
L 947.536387 680.50934 
L 946.10584 679.818402 
L 943.244747 677.515275 
L 941.8142 677.745587 
L 940.860503 677.515275 
L 939.906805 677.515275 
L 937.522561 677.284962 
L 936.092014 678.436526 
L 935.615165 677.515275 
L 932.754072 675.212147 
L 932.277224 674.751522 
L 931.800375 674.060584 
L 931.323526 673.369645 
L 932.277224 672.218082 
L 932.754072 671.987769 
L 934.661468 671.066518 
L 934.184619 667.611827 
L 931.800375 665.769325 
L 928.939282 664.387448 
L 927.985584 663.005572 
L 926.555037 662.084321 
L 920.356002 659.781194 
L 918.925456 658.399317 
L 918.448607 657.478066 
L 917.01806 655.174939 
L 916.064363 654.253688 
L 916.064363 652.411186 
L 916.064363 651.029309 
L 915.587514 650.108058 
L 914.633816 649.41712 
L 913.20327 650.108058 
L 906.050537 654.944626 
L 905.096839 655.405251 
L 903.666293 655.174939 
L 902.235746 654.714313 
L 900.8052 654.023375 
L 899.851502 653.102124 
L 896.990409 649.186807 
L 896.036711 648.726182 
L 895.559862 648.495869 
L 895.083014 648.265557 
L 894.129316 648.035244 
L 887.453432 645.041178 
L 884.592339 644.119927 
L 881.731246 644.119927 
L 879.347002 643.889614 
L 874.101664 640.204611 
L 871.71742 639.053047 
L 867.902629 640.204611 
L 857.888804 646.653367 
L 844.537036 655.865877 
L 841.199094 657.017441 
L 838.338001 656.556815 
L 816.879803 648.726182 
L 797.805849 641.586487 
L 793.037361 639.743985 
L 774.917104 633.064916 
L 761.565337 627.998035 
L 757.273697 625.464595 
L 753.935755 622.009904 
L 750.120965 620.167402 
L 745.352476 622.009904 
L 741.537685 627.076784 
L 739.153441 632.373977 
L 736.292348 637.67117 
L 729.616464 634.907417 
L 726.755371 634.446792 
L 724.847976 633.295228 
L 723.894278 630.992101 
L 722.94058 626.155533 
L 720.079487 622.470529 
L 706.250871 606.348638 
L 704.820324 605.427387 
L 704.343475 605.197074 
L 702.43608 603.815197 
L 701.959231 603.124259 
L 697.190743 601.742383 
L 695.283347 599.899881 
L 690.991708 594.372375 
L 687.176917 592.529873 
L 682.885277 587.693305 
L 677.163091 584.468927 
L 675.255696 582.626425 
L 674.778847 581.474861 
L 673.3483 577.559545 
L 669.056661 575.717043 
L 664.288172 570.650163 
L 651.890102 565.35297 
L 649.982707 563.74078 
L 648.075312 561.667966 
L 646.644765 557.522336 
L 630.908753 545.085448 
L 628.524509 541.86107 
L 624.709718 533.800124 
L 623.279172 532.64856 
L 621.848625 531.957622 
L 618.510683 528.272618 
L 616.603288 525.278553 
L 614.219044 521.132923 
L 613.742195 519.060108 
L 613.265346 517.217607 
L 611.834799 515.605417 
L 608.496857 513.071977 
L 605.158915 508.926348 
L 600.390427 500.174464 
L 595.621939 487.507263 
L 594.191392 485.434448 
L 590.85345 482.440383 
L 563.673066 465.857865 
L 562.242519 463.554738 
L 554.612938 459.409108 
L 550.798147 454.802854 
L 541.738019 450.657224 
L 541.26117 447.663159 
L 542.691717 449.735973 
L 545.075961 451.348162 
L 548.413903 452.730039 
L 551.274996 453.190664 
L 547.937054 449.505661 
L 546.029659 448.123784 
L 544.599112 447.663159 
L 543.168566 446.741908 
L 540.307472 440.984089 
L 539.353775 440.984089 
L 540.784321 446.050969 
L 538.876926 444.208467 
L 535.062135 439.832525 
L 532.677891 437.299085 
L 530.770496 436.608147 
L 522.664065 430.15939 
L 521.710367 429.007827 
L 521.233519 427.62595 
L 520.279821 425.09251 
L 519.802972 426.013761 
L 518.849274 427.165325 
L 518.372426 427.856263 
L 504.06696 410.81312 
L 502.159565 407.358429 
L 502.636414 408.049367 
L 503.113262 408.27968 
L 505.020658 409.200931 
L 505.020658 408.27968 
L 504.543809 408.049367 
L 503.113262 407.358429 
L 503.113262 406.437178 
L 502.636414 405.055301 
L 500.729018 403.212799 
L 497.391076 401.60061 
L 495.006832 400.909672 
L 495.006832 401.830923 
L 498.344774 404.13405 
L 500.252169 405.74624 
L 500.252169 407.358429 
L 498.821623 407.128116 
L 496.914227 405.515927 
L 494.053134 402.752174 
L 478.317123 393.309352 
L 475.456029 390.545599 
z
" clip-path="url(#paac7ec2208)" style="fill: #bdc3c7; stroke: #ffffff; stroke-width: 0.5"/>
    <path d="M 1119.201971 189.482575 
L 1120.155669 189.482575 
L 1120.632518 189.252263 
L 1120.155669 188.561324 
L 1122.539913 187.409761 
L 1123.493611 185.797571 
L 1123.970459 184.415695 
L 1124.924157 183.033819 
L 1126.831553 181.882255 
L 1128.738948 181.882255 
L 1129.692646 183.033819 
L 1130.169494 185.336946 
L 1129.215797 189.02195 
L 1126.831553 190.173514 
L 1120.155669 189.712888 
z
" clip-path="url(#paac7ec2208)" style="fill: #bdc3c7; stroke: #ffffff; stroke-width: 0.5"/>
    <path d="M 996.651818 525.278553 
L 996.651818 520.211672 
L 997.605515 516.066043 
L 999.98976 513.993228 
L 1000.466608 513.993228 
L 1000.466608 514.223541 
L 1000.466608 514.453854 
L 1000.466608 514.914479 
L 999.512911 516.296356 
L 998.559213 518.599483 
L 998.082364 520.90261 
L 997.605515 523.205738 
L 998.559213 528.272618 
L 998.559213 530.11512 
L 997.605515 528.963556 
z
" clip-path="url(#paac7ec2208)" style="fill: #bdc3c7; stroke: #ffffff; stroke-width: 0.5"/>
    <path d="M 1086.77625 492.804456 
L 1086.77625 489.580078 
L 1087.729947 487.27695 
L 1089.637343 486.355699 
L 1091.067889 487.507263 
L 1090.59104 488.428514 
z
" clip-path="url(#paac7ec2208)" style="fill: #bdc3c7; stroke: #ffffff; stroke-width: 0.5"/>
    <path d="M -130.618853 165.069425 
L -128.234609 164.608799 
L -125.850365 161.614734 
L -122.512423 153.553788 
L -120.128179 148.486907 
L -119.174481 146.414093 
L -119.65133 143.65034 
L -122.035574 136.97127 
L -122.035574 136.050019 
L -121.558725 133.977205 
L -122.035574 133.055954 
L -122.989272 129.601263 
L -123.466121 128.449699 
L -123.466121 125.685946 
L -122.989272 124.073757 
L -120.128179 120.849378 
L -118.697632 116.703749 
L -119.174481 108.182178 
L -118.697632 103.806235 
L -116.790237 102.194046 
L -115.35969 101.733421 
L -113.452295 101.503108 
L -112.021748 100.81217 
L -110.591202 99.199981 
L -107.730109 92.981537 
L -124.896667 70.871513 
L -125.850365 68.568386 
L -125.850365 66.034946 
L -125.373516 63.731818 
L -122.989272 59.355876 
L -116.313388 48.300865 
L -112.021748 41.16117 
L -107.25326 32.639598 
L -96.762585 14.675204 
L -86.271911 -3.289189 
L -77.211783 -19.180769 
L -70.535899 -30.23578 
L -68.151655 -34.381409 
L -65.290562 -39.678603 
L -63.860015 -41.521104 
L -61.475771 -42.672668 
L -55.276736 -42.672668 
L -37.15648 -42.672668 
L -19.036223 -42.672668 
L -0.915967 -42.672668 
L 17.681138 -42.672668 
L 34.847696 -42.672668 
L 35.801394 -42.672668 
L 53.92165 -42.902981 
L 72.518755 -42.902981 
L 90.639011 -42.902981 
L 102.560232 -42.902981 
L 104.944476 -43.133294 
L 107.328721 -44.054545 
L 107.805569 -44.745483 
L 108.759267 -46.818298 
L 109.236116 -47.969861 
L 108.282418 -47.509236 
L 107.805569 -47.278923 
L 107.328721 -46.818298 
L 106.375023 -46.818298 
L 105.898174 -49.121425 
L 109.236116 -51.885178 
L 107.328721 -53.497367 
L 107.328721 -54.418618 
L 110.189814 -55.570182 
L 109.712965 -56.952058 
L 105.421325 -59.024873 
L 104.944476 -61.558313 
L 105.898174 -63.400815 
L 107.805569 -64.782691 
L 109.236116 -65.47363 
L 107.328721 -66.164568 
L 106.375023 -67.316132 
L 105.898174 -68.698008 
L 107.328721 -70.310197 
L 107.805569 -69.619259 
L 108.282418 -69.388946 
L 110.189814 -69.158633 
L 109.712965 -69.849572 
L 108.759267 -71.461761 
L 108.282418 -72.152699 
L 108.759267 -72.152699 
L 109.236116 -72.383012 
L 109.236116 -72.613325 
L 109.236116 -73.07395 
L 110.189814 -72.383012 
L 111.143511 -72.152699 
L 112.097209 -72.613325 
L 112.097209 -73.995201 
L 111.143511 -73.534576 
L 109.236116 -74.225514 
L 107.805569 -75.377077 
L 108.759267 -75.837703 
L 111.143511 -76.528641 
L 113.050907 -78.371143 
L 114.004604 -80.674271 
L 113.050907 -82.516772 
L 112.097209 -82.516772 
L 112.097209 -81.365209 
L 111.143511 -81.365209 
L 111.62036 -83.438023 
L 112.574058 -84.128962 
L 114.481453 -83.898649 
L 116.388849 -83.438023 
L 114.958302 -85.971464 
L 114.958302 -86.662402 
L 114.958302 -88.504904 
L 114.481453 -90.347406 
L 113.527756 -90.577718 
L 112.574058 -90.117093 
L 111.143511 -89.88678 
L 110.189814 -90.117093 
L 109.236116 -90.808031 
L 107.805569 -91.498969 
L 103.990779 -91.959595 
L 103.51393 -92.880846 
L 103.51393 -94.03241 
L 103.037081 -95.414286 
L 102.083383 -96.105224 
L 100.652837 -97.026475 
L 99.22229 -97.487101 
L 96.361197 -95.874911 
L 95.407499 -97.256788 
L 94.930651 -100.020541 
L 93.500104 -100.020541 
L 90.162162 -99.09929 
L 89.208464 -98.868977 
L 88.731616 -99.09929 
L 86.82422 -99.559915 
L 84.439976 -99.559915 
L 83.009429 -99.09929 
L 83.486278 -100.481166 
L 84.916825 -101.402417 
L 85.870523 -102.553981 
L 85.870523 -103.935857 
L 83.963127 -104.857108 
L 82.055732 -105.087421 
L 81.102034 -105.548047 
L 82.055732 -107.620861 
L 81.578883 -109.693676 
L 82.532581 -111.996803 
L 83.009429 -114.069618 
L 81.102034 -114.990869 
L 80.625185 -114.299931 
L 80.148336 -113.839305 
L 79.671488 -113.608993 
L 78.240941 -113.37868 
L 78.240941 -114.069618 
L 80.148336 -117.293996 
L 78.240941 -122.360877 
L 69.180813 -135.028078 
L 67.273418 -136.640267 
L 62.981778 -138.943394 
L 60.597534 -140.555583 
L 61.074383 -142.167773 
L 61.074383 -143.089023 
L 59.643836 -144.240587 
L 58.21329 -143.089023 
L 56.782743 -143.089023 
L 47.722615 -145.852776 
L 44.861522 -147.234653 
L 41.046731 -151.149969 
L 38.662487 -152.531846 
L 40.569882 -154.834973 
L 40.093033 -155.756224 
L 38.662487 -156.21685 
L 36.278243 -156.21685 
L 35.801394 -155.525912 
L 36.278243 -154.374348 
L 36.755091 -152.992471 
L 35.324545 -152.531846 
L 34.370847 -152.992471 
L 32.940301 -154.604661 
L 31.986603 -155.295599 
L 27.218115 -157.138101 
L 25.310719 -158.519977 
L 24.83387 -161.28373 
L 24.357021 -162.665607 
L 19.588533 -168.423425 
L 19.111684 -169.574989 
L 18.157986 -172.108429 
L 17.681138 -173.02968 
L 16.250591 -173.259993 
L 12.912649 -173.02968 
L 11.482103 -173.490305 
L 7.190463 -178.557186 
L 5.759916 -180.399688 
L 5.283068 -181.781564 
L 4.32937 -184.315004 
L 3.852521 -185.236255 
L 2.898823 -185.927193 
L 0.03773 -186.618132 
L -0.439119 -187.539383 
L -0.915967 -189.612197 
L -1.392816 -192.145637 
L -2.823363 -194.218452 
L -4.253909 -195.370016 
L -7.591851 -195.600329 
L -11.406642 -195.139703 
L -13.790886 -195.600329 
L -15.221433 -198.824707 
L -17.128828 -199.976271 
L -20.943619 -200.667209 
L -24.281561 -202.049085 
L -23.804712 -204.352213 
L -22.851014 -204.352213 
L 35.324545 -204.1219 
L 35.324545 -241.432564 
L 35.801394 -278.973541 
L 36.755091 -280.125105 
L 39.139336 -281.046356 
L 44.861522 -281.046356 
L 74.42615 -280.816043 
L 103.51393 -280.816043 
L 132.601709 -280.816043 
L 161.689489 -280.816043 
L 190.777269 -280.816043 
L 219.865048 -280.816043 
L 248.952828 -280.816043 
L 278.040607 -280.816043 
L 278.517456 -251.336012 
L 279.471154 -213.33441 
L 279.471154 -174.641869 
L 277.08691 -139.173707 
L 274.702665 -100.941792 
L 273.748968 -86.892715 
L 271.841572 -58.564247 
L 268.026782 -27.011402 
L 268.026782 -20.562645 
L 268.026782 -18.720143 
L 268.980479 -17.107954 
L 269.457328 -17.338267 
L 270.411026 -18.029205 
L 272.318421 -18.48983 
L 273.272119 -18.720143 
L 275.656363 -19.641394 
L 285.670189 -19.180769 
L 289.48498 -19.871707 
L 293.776619 -19.871707 
L 305.69784 -16.877641 
L 310.466329 -18.720143 
L 312.373724 -18.029205 
L 317.142213 -14.113888 
L 321.433852 -15.265452 
L 327.632887 -14.113888 
L 331.924527 -11.350135 
L 332.401376 -8.586382 
L 335.262469 -8.125757 
L 348.614236 0.395815 
L 347.18369 6.383946 
L 347.660539 7.305197 
L 350.998481 7.305197 
L 352.429027 6.844571 
L 352.905876 5.693008 
L 352.905876 4.541444 
L 352.429027 4.541444 
L 352.429027 3.850506 
L 351.952178 3.38988 
L 351.47533 2.929255 
L 351.47533 1.777691 
L 352.429027 1.547378 
L 353.382725 1.777691 
L 354.813271 1.547378 
L 355.29012 0.395815 
L 355.766969 -1.907313 
L 356.720667 -3.289189 
L 358.151213 -4.440753 
L 358.628062 -5.82263 
L 359.104911 -7.895444 
L 358.151213 -11.119823 
L 357.674365 -13.192637 
L 358.628062 -13.192637 
L 358.628062 -11.810761 
L 358.628062 -11.350135 
L 359.58176 -11.350135 
L 361.012306 -12.271386 
L 365.303946 -11.580448 
L 367.211341 -12.271386 
L 363.8734 -15.265452 
L 362.442853 -16.417016 
L 359.58176 -17.568579 
L 358.628062 -18.950456 
L 357.674365 -20.562645 
L 356.720667 -21.714209 
L 351.47533 -24.938587 
L 349.567934 -26.781089 
L 351.47533 -29.084216 
L 353.382725 -27.932653 
L 357.197516 -26.320464 
L 358.628062 -25.399213 
L 362.919702 -21.253583 
L 365.303946 -19.871707 
L 372.456679 -13.883575 
L 386.285295 -7.665131 
L 390.576935 -3.519502 
L 392.007481 -3.058877 
L 397.729668 2.238316 
L 402.498156 4.080818 
L 401.06761 4.771757 
L 400.590761 5.92332 
L 400.590761 7.53551 
L 399.637063 9.378011 
L 398.683365 8.226448 
L 396.77597 9.147699 
L 394.868575 10.299262 
L 392.48433 10.990201 
L 389.623237 11.220513 
L 389.146388 12.141764 
L 384.854749 19.051147 
L 378.655714 25.039278 
L 369.595586 32.178973 
L 365.303946 35.403351 
L 353.859574 44.385548 
L 342.415201 53.367745 
L 330.970829 62.119629 
L 319.526457 71.101826 
L 302.836747 83.99934 
L 298.068259 86.072154 
L 284.716491 90.678409 
L 280.424852 92.751224 
L 279.948003 93.442162 
L 278.040607 94.824039 
L 276.610061 97.357479 
L 274.225817 103.575923 
L 277.08691 106.109363 
L 277.08691 109.794367 
L 275.179514 113.479371 
L 274.225817 115.09156 
L 272.79527 116.703749 
L 269.457328 119.697815 
L 268.50363 121.310004 
L 268.50363 123.843444 
L 268.980479 125.685946 
L 270.411026 127.528448 
L 272.79527 130.752826 
L 274.225817 132.825641 
L 276.610061 138.813772 
L 278.040607 140.656274 
L 279.471154 141.807838 
L 279.948003 142.498776 
L 279.948003 142.959402 
L 280.424852 145.262529 
L 279.948003 146.414093 
L 278.517456 147.795969 
L 278.040607 148.71722 
L 278.517456 155.626602 
L 278.517456 157.92973 
L 278.040607 160.232857 
L 276.610061 161.845046 
L 274.702665 161.845046 
L 271.841572 160.693483 
L 269.934177 160.46317 
L 267.549933 160.693483 
L 266.596235 161.384421 
L 266.119386 162.535985 
L 264.68884 163.917861 
L 260.874049 167.602865 
L 258.966654 169.445367 
L 257.536107 171.978807 
L 256.582409 173.130371 
L 253.721316 173.821309 
L 252.29077 174.74256 
L 251.337072 176.354749 
L 250.860223 178.657876 
L 251.337072 182.803506 
L 247.522281 180.039753 
L 247.522281 180.270066 
L 246.568584 181.421629 
L 246.568584 178.888189 
L 245.138037 179.348815 
L 242.276944 182.34288 
L 239.8927 182.803506 
L 238.462153 182.34288 
L 237.031607 181.421629 
L 235.124211 181.191317 
L 233.693665 181.882255 
L 232.739967 182.34288 
L 229.402025 186.258197 
L 227.49463 187.409761 
L 227.017781 184.87632 
L 225.587234 183.494444 
L 223.679839 183.264131 
L 221.772444 184.646008 
L 220.818746 186.949135 
L 221.772444 188.331012 
L 222.726141 189.712888 
L 223.20299 191.325077 
L 222.249292 192.706954 
L 220.818746 193.628205 
L 219.865048 194.779768 
L 220.818746 196.62227 
L 223.679839 197.082896 
L 224.633537 197.543521 
L 225.110385 198.23446 
L 225.587234 198.695085 
L 226.540932 200.307274 
L 226.540932 200.7679 
L 227.017781 202.840714 
L 227.017781 203.761965 
L 227.49463 204.452904 
L 229.402025 205.143842 
L 229.878874 205.83478 
L 229.878874 207.907595 
L 228.925176 208.828846 
L 214.619711 212.283537 
L 211.281769 213.665413 
L 207.943827 216.429166 
L 205.082734 219.192919 
L 199.360548 229.32668 
L 199.360548 230.478243 
L 199.360548 231.399494 
L 200.314246 233.472309 
L 200.314246 233.702622 
L 200.314246 234.39356 
L 198.40685 235.545124 
L 196.499455 234.623873 
L 192.684664 231.86012 
L 190.30042 231.399494 
L 188.393024 231.399494 
L 182.670838 233.702622 
L 181.240292 234.623873 
L 178.379199 237.387626 
L 165.50428 246.369822 
L 163.596884 248.212324 
L 162.643187 250.054826 
L 161.689489 252.127641 
L 160.735791 253.970143 
L 158.828396 255.352019 
L 155.490454 257.194521 
L 153.583059 258.806711 
L 152.629361 260.879525 
L 152.152512 262.95234 
L 151.675663 265.255467 
L 151.675663 267.328282 
L 153.583059 276.080166 
L 134.509105 268.01922 
L 113.527756 258.806711 
L 100.652837 253.970143 
L 90.162162 251.436703 
L 82.532581 250.054826 
L 72.995604 249.133575 
L 62.981778 250.285139 
L 61.551231 250.745765 
L 46.292068 251.667016 
L 28.648661 251.436703 
L 12.4358 249.594201 
L -7.591851 245.678884 
L -38.587026 231.629807 
L -50.031398 225.18105 
L -66.721108 215.04729 
L -85.795062 200.7679 
L -104.869016 183.95507 
z
" clip-path="url(#paac7ec2208)" style="fill: #bdc3c7; stroke: #ffffff; stroke-width: 0.5"/>
    <path d="M 250.860223 178.657876 
L 251.337072 176.354749 
L 252.29077 174.74256 
L 253.721316 173.821309 
L 256.582409 173.130371 
L 257.536107 171.978807 
L 258.966654 169.445367 
L 260.874049 167.602865 
L 264.68884 163.917861 
L 266.119386 162.535985 
L 266.596235 161.384421 
L 267.549933 160.693483 
L 269.934177 160.46317 
L 271.841572 160.693483 
L 274.702665 161.845046 
L 276.610061 161.845046 
L 278.040607 160.232857 
L 278.517456 157.92973 
L 278.517456 155.626602 
L 278.040607 148.71722 
L 278.517456 147.795969 
L 279.948003 146.414093 
L 280.424852 145.262529 
L 279.948003 142.959402 
L 279.948003 142.498776 
L 279.471154 141.807838 
L 278.040607 140.656274 
L 276.610061 138.813772 
L 274.225817 132.825641 
L 272.79527 130.752826 
L 270.411026 127.528448 
L 268.980479 125.685946 
L 268.50363 123.843444 
L 268.50363 121.310004 
L 269.457328 119.697815 
L 272.79527 116.703749 
L 274.225817 115.09156 
L 275.179514 113.479371 
L 277.08691 109.794367 
L 277.08691 106.109363 
L 274.225817 103.575923 
L 276.610061 97.357479 
L 278.040607 94.824039 
L 279.948003 93.442162 
L 280.424852 92.751224 
L 284.716491 90.678409 
L 298.068259 86.072154 
L 302.836747 83.99934 
L 319.526457 71.101826 
L 330.970829 62.119629 
L 342.415201 53.367745 
L 353.859574 44.385548 
L 365.303946 35.403351 
L 369.595586 32.178973 
L 378.655714 25.039278 
L 384.854749 19.051147 
L 389.146388 12.141764 
L 389.623237 11.220513 
L 392.48433 10.990201 
L 394.868575 10.299262 
L 396.77597 9.147699 
L 398.683365 8.226448 
L 399.637063 9.378011 
L 400.590761 7.53551 
L 400.590761 5.92332 
L 401.06761 4.771757 
L 402.498156 4.080818 
L 403.451854 4.541444 
L 409.17404 8.687073 
L 412.511982 9.838637 
L 415.849924 8.226448 
L 423.479505 0.165502 
L 426.817447 -1.907313 
L 426.340598 -4.21044 
L 427.771145 -4.671066 
L 432.539633 -3.980128 
L 440.646064 -8.586382 
L 441.599761 -10.428884 
L 441.599761 -11.810761 
L 441.122913 -12.271386 
L 439.692366 -12.732012 
L 438.261819 -13.653263 
L 437.784971 -14.804826 
L 438.261819 -15.035139 
L 443.984006 -15.265452 
L 445.891401 -15.95639 
L 448.275645 -17.568579 
L 452.090436 -18.720143 
L 463.534808 -19.641394 
L 465.919053 -20.332332 
L 466.87275 -22.174834 
L 467.826448 -22.405147 
L 468.303297 -22.63546 
L 470.687541 -22.405147 
L 473.071785 -21.714209 
L 478.793971 -18.259518 
L 481.178216 -18.029205 
L 481.178216 -18.720143 
L 479.747669 -20.102019 
L 481.178216 -21.714209 
L 485.946704 -24.477962 
L 483.56246 -21.02327 
L 482.608762 -18.950456 
L 483.56246 -18.029205 
L 484.516157 -16.877641 
L 496.914227 -5.82263 
L 500.729018 -3.980128 
L 505.020658 -4.901379 
L 505.497507 -5.592317 
L 506.928053 -7.895444 
L 507.881751 -8.586382 
L 508.835449 -8.586382 
L 512.173391 -8.586382 
L 513.127088 -9.047008 
L 514.080786 -11.350135 
L 515.988181 -12.501699 
L 518.372426 -12.732012 
L 532.201042 -9.737946 
L 544.122263 -5.592317 
L 556.520333 -4.21044 
L 570.34895 -0.986062 
L 575.117438 -0.525436 
L 580.362775 -0.986062 
L 588.469206 -3.519502 
L 590.85345 -3.980128 
L 591.330299 -4.21044 
L 593.237694 -6.052942 
L 593.714543 -6.283255 
L 594.668241 -6.974193 
L 596.098787 -6.283255 
L 598.006183 -5.362004 
L 598.483032 -4.901379 
L 604.205218 -4.440753 
L 629.955055 -6.74388 
L 634.246695 -6.513568 
L 638.538335 -4.901379 
L 638.538335 -4.671066 
L 641.876277 -2.828564 
L 643.783672 -2.137626 
L 647.121614 -1.907313 
L 649.505858 -2.367938 
L 651.890102 -3.519502 
L 664.288172 -11.350135 
L 667.626114 -14.804826 
L 669.056661 -15.95639 
L 673.825149 -17.798892 
L 678.593638 -18.950456 
L 697.190743 -19.641394 
L 699.098138 -20.102019 
L 700.528685 -20.792958 
L 705.297173 -24.708274 
L 708.158266 -27.70234 
L 709.588813 -30.926718 
L 707.204568 -33.690471 
L 699.098138 -35.072348 
L 694.806498 -35.993599 
L 695.760196 -37.605788 
L 699.098138 -37.836101 
L 709.111964 -35.763286 
L 716.264696 -34.381409 
L 721.510034 -33.920784 
L 727.709069 -32.078282 
L 733.908104 -30.466093 
L 735.815499 -30.005467 
L 737.246046 -29.314529 
L 737.722895 -27.70234 
L 737.722895 -25.859838 
L 738.199743 -24.477962 
L 739.153441 -24.477962 
L 739.153441 -25.399213 
L 739.153441 -25.859838 
L 739.63029 -26.090151 
L 740.107139 -26.320464 
L 742.014534 -26.320464 
L 743.445081 -24.477962 
L 745.829325 -22.63546 
L 748.690418 -20.562645 
L 754.412604 -18.029205 
L 764.42643 -15.495765 
L 771.102314 -15.95639 
L 781.116139 -17.107954 
L 795.421605 -17.338267 
L 803.051186 -20.562645 
L 812.588163 -27.70234 
L 819.264047 -31.387344 
L 829.277873 -31.617657 
L 835.476908 -29.544842 
L 848.351827 -23.556711 
L 864.564687 -18.950456 
L 871.71742 -16.417016 
L 873.624816 -15.035139 
L 873.147967 -13.192637 
L 871.240571 -10.659197 
L 871.240571 -8.586382 
L 871.240571 -5.131691 
L 874.101664 -2.598251 
L 876.962757 -2.137626 
L 879.823851 -3.289189 
L 880.300699 -6.052942 
L 880.777548 -7.204506 
L 882.208095 -7.204506 
L 883.161792 -5.362004 
L 885.546037 -3.749815 
L 888.883979 -4.21044 
L 891.745072 -3.980128 
L 898.420955 -3.058877 
L 899.374653 -4.440753 
L 901.758897 -5.362004 
L 898.897804 -6.513568 
L 895.559862 -7.204506 
L 885.069188 -9.047008 
L 881.254397 -10.88951 
L 877.916455 -12.501699 
L 876.485909 -14.574514 
L 881.731246 -13.42295 
L 899.851502 -9.968259 
L 911.772723 -8.816695 
L 919.879154 -8.35607 
L 922.740247 -7.434819 
L 929.892979 -1.446687 
L 939.429956 6.383946 
L 953.735422 18.590521 
L 967.564038 30.566784 
L 975.670468 37.01554 
L 985.684294 43.233984 
L 988.068538 44.615861 
L 990.452783 45.537112 
L 995.221271 46.458363 
L 996.651818 47.149301 
L 997.128667 48.300865 
L 997.605515 49.452428 
L 996.651818 50.143367 
L 994.744422 50.373679 
L 992.360178 49.452428 
L 987.114841 45.537112 
L 983.30005 44.155235 
L 980.915806 42.543046 
L 979.962108 41.852108 
L 975.670468 41.852108 
L 973.763073 41.391483 
L 972.332527 40.009606 
L 972.809375 39.779293 
L 973.763073 39.318668 
L 974.239922 39.088355 
L 973.286224 37.476166 
L 968.517736 32.409286 
L 968.040887 32.409286 
L 966.133492 33.330537 
L 964.702945 32.178973 
L 962.79555 30.566784 
L 960.888154 29.875845 
L 958.50391 30.106158 
L 957.073364 31.027409 
L 956.119666 32.178973 
L 954.21227 33.560849 
L 953.258573 32.869911 
L 949.920631 31.488035 
L 951.351177 30.106158 
L 952.304875 29.184907 
L 952.304875 28.263656 
L 951.828026 28.033344 
L 950.39748 27.803031 
L 948.966933 27.803031 
L 948.013235 28.033344 
L 947.536387 29.41522 
L 948.490084 31.718347 
L 949.920631 34.251788 
L 951.351177 36.324602 
L 951.351177 36.554915 
L 950.874329 36.554915 
L 950.874329 36.785228 
L 950.39748 37.245853 
L 949.920631 37.245853 
L 945.628991 29.645533 
L 944.198445 28.033344 
L 942.767898 27.803031 
L 940.860503 28.033344 
L 938.953107 28.724282 
L 937.045712 28.724282 
L 935.138317 28.033344 
L 933.230921 28.033344 
L 934.184619 31.027409 
L 935.138317 32.178973 
L 937.522561 32.869911 
L 937.522561 34.021475 
L 937.045712 35.633664 
L 937.045712 37.245853 
L 937.99941 37.245853 
L 938.476259 35.173038 
L 940.860503 34.021475 
L 942.291049 30.106158 
L 943.244747 29.645533 
L 944.675294 30.566784 
L 946.582689 34.942726 
L 948.490084 38.62773 
L 949.443782 41.621795 
L 946.582689 43.003672 
L 945.152142 44.385548 
L 946.10584 47.840239 
L 948.490084 51.525243 
L 950.39748 54.058683 
L 954.21227 55.901185 
L 957.073364 56.592123 
L 958.027061 55.210247 
L 957.073364 51.29493 
L 958.50391 52.676807 
L 960.411305 54.519309 
L 960.888154 56.592123 
L 959.934457 58.664938 
L 961.365003 60.968066 
L 964.226096 61.428691 
L 970.425131 60.737753 
L 970.425131 61.659004 
L 969.471433 61.428691 
L 968.517736 61.659004 
L 967.087189 62.580255 
L 967.087189 63.271193 
L 968.040887 65.57432 
L 969.948282 67.877448 
L 971.855678 69.259324 
L 974.716771 69.950262 
L 977.101015 69.71995 
L 979.962108 68.798699 
L 983.30005 67.647135 
L 985.207445 66.265259 
L 983.30005 64.653069 
L 978.054713 61.659004 
L 977.101015 60.737753 
L 976.624166 59.816502 
L 975.670468 59.125564 
L 974.716771 58.664938 
L 973.286224 58.664938 
L 963.272399 54.979934 
L 961.365003 54.058683 
L 958.50391 49.682741 
L 957.073364 48.531177 
L 958.027061 47.379614 
L 959.457608 46.688676 
L 962.318701 45.537112 
L 974.239922 50.834305 
L 976.147317 53.598058 
L 976.624166 54.979934 
L 978.531562 56.361811 
L 980.915806 57.283062 
L 984.730597 58.204313 
L 986.161143 59.355876 
L 987.59169 60.737753 
L 988.545387 62.580255 
L 987.59169 63.04088 
L 986.637992 63.962131 
L 986.161143 64.422757 
L 986.161143 65.113695 
L 988.068538 65.57432 
L 989.975934 64.422757 
L 991.40648 64.192444 
L 992.360178 68.107761 
L 991.883329 73.174641 
L 992.360178 74.556517 
L 993.313876 75.477768 
L 994.267573 75.477768 
L 995.221271 74.556517 
L 995.221271 72.714015 
L 996.174969 72.714015 
L 997.128667 75.477768 
L 998.082364 74.78683 
L 1000.466608 70.871513 
L 1002.374004 69.489637 
L 1005.235097 68.798699 
L 1010.003585 68.107761 
L 1010.480434 67.416822 
L 1010.480434 64.422757 
L 1010.480434 63.271193 
L 1011.434132 62.810567 
L 1012.38783 62.810567 
L 1013.341527 63.04088 
L 1021.924807 64.883382 
L 1024.309051 64.422757 
L 1024.309051 65.113695 
L 1023.355353 66.034946 
L 1023.355353 66.495571 
L 1023.832202 67.18651 
L 1024.309051 68.107761 
L 1024.309051 72.25339 
L 1023.355353 74.326205 
L 1021.924807 75.247456 
L 1020.49426 74.556517 
L 1019.540562 72.25339 
L 1019.063713 71.562452 
L 1018.110016 71.101826 
L 1016.679469 70.871513 
L 1015.725772 70.871513 
L 1014.772074 71.332139 
L 1013.818376 72.483703 
L 1013.341527 74.556517 
L 1012.38783 75.247456 
L 1011.910981 75.708081 
L 1011.434132 76.399019 
L 1011.434132 77.780896 
L 1011.910981 79.162772 
L 1012.38783 79.393085 
L 1013.341527 78.932459 
L 1014.295225 78.241521 
L 1013.341527 77.089957 
L 1013.341527 76.168706 
L 1013.341527 75.477768 
L 1014.295225 74.556517 
L 1015.248923 74.556517 
L 1015.248923 78.011208 
L 1016.20262 80.314336 
L 1018.110016 81.235587 
L 1020.49426 80.084023 
L 1021.447958 79.393085 
L 1022.401655 77.32027 
L 1023.355353 76.629332 
L 1024.309051 75.938394 
L 1030.031237 73.635266 
L 1030.031237 73.174641 
L 1029.554388 71.792764 
L 1029.077539 70.871513 
L 1028.123842 70.410888 
L 1027.646993 69.489637 
L 1026.693295 68.107761 
L 1026.693295 66.265259 
L 1025.739597 63.731818 
L 1023.832202 62.119629 
L 1021.447958 63.271193 
L 1017.633167 60.968066 
L 1015.725772 60.50744 
L 1013.341527 61.659004 
L 1012.38783 60.737753 
L 1012.864678 60.046815 
L 1013.341527 58.664938 
L 1010.957283 58.434625 
L 1005.235097 56.361811 
L 1004.281399 55.44056 
L 1002.850853 54.058683 
L 999.98976 53.137432 
L 998.082364 51.985869 
L 998.559213 49.452428 
L 1000.943457 48.300865 
L 1002.850853 49.452428 
L 1004.758248 51.29493 
L 1006.188795 52.216181 
L 1007.619341 52.676807 
L 1021.924807 60.046815 
L 1040.045063 66.725884 
L 1046.720946 71.792764 
L 1048.151493 74.326205 
L 1050.535737 83.078089 
L 1052.919981 88.605595 
L 1056.257923 93.902788 
L 1060.549563 97.127166 
L 1076.762424 103.575923 
L 1074.855028 103.806235 
L 1070.563389 103.575923 
L 1068.655993 104.036548 
L 1065.318051 105.418425 
L 1059.119016 105.418425 
L 1058.642168 105.418425 
L 1057.211621 104.957799 
L 1056.257923 104.266861 
L 1056.257923 103.575923 
L 1057.68847 102.654672 
L 1051.966284 102.194046 
L 1049.58204 102.194046 
L 1047.674644 103.575923 
L 1047.197795 101.733421 
L 1045.767249 100.81217 
L 1043.859853 100.351544 
L 1042.429307 98.969668 
L 1040.99876 101.272795 
L 1039.091365 103.575923 
L 1036.230272 105.188112 
L 1033.369179 105.418425 
L 1031.938632 104.957799 
L 1030.508086 102.424359 
L 1029.554388 101.733421 
L 1028.123842 101.503108 
L 1026.693295 101.503108 
L 1026.216446 102.194046 
L 1027.170144 103.575923 
L 1026.216446 104.497174 
L 1026.216446 105.418425 
L 1026.216446 107.491239 
L 1024.7859 106.109363 
L 1023.832202 106.800301 
L 1023.832202 108.41249 
L 1024.309051 110.254992 
L 1023.355353 109.794367 
L 1021.447958 109.333741 
L 1021.924807 109.564054 
L 1021.924807 110.715618 
L 1022.401655 111.176243 
L 1020.49426 111.636869 
L 1017.156318 114.400622 
L 1013.818376 115.552185 
L 1013.341527 116.934062 
L 1012.864678 118.776564 
L 1012.38783 120.619066 
L 1011.434132 120.619066 
L 1010.480434 119.006876 
L 1008.09619 118.315938 
L 1004.758248 118.085625 
L 1002.374004 118.546251 
L 999.98976 119.697815 
L 999.512911 121.310004 
L 1000.466608 125.22532 
L 999.512911 125.22532 
L 999.036062 124.073757 
L 998.082364 123.382819 
L 996.651818 123.152506 
L 995.221271 123.382819 
L 995.221271 125.455633 
L 992.837027 126.607197 
L 985.207445 126.83751 
L 986.161143 128.449699 
L 986.637992 129.140637 
L 988.068538 129.831575 
L 985.207445 129.831575 
L 982.823201 130.752826 
L 980.438957 132.134703 
L 979.00841 133.516579 
L 978.054713 132.595328 
L 977.577864 132.134703 
L 977.101015 132.134703 
L 976.147317 131.674077 
L 976.624166 133.055954 
L 977.101015 133.516579 
L 975.19362 133.055954 
L 973.286224 130.752826 
L 971.378829 129.831575 
L 970.90198 133.055954 
L 970.90198 134.207517 
L 971.378829 135.359081 
L 958.50391 136.050019 
L 956.119666 135.819707 
L 956.119666 134.668143 
L 955.165968 134.43783 
L 952.781724 134.43783 
L 951.828026 134.207517 
L 950.874329 133.746892 
L 950.874329 133.286266 
L 947.536387 131.213452 
L 946.582689 131.213452 
L 945.152142 132.595328 
L 947.059538 135.819707 
L 947.536387 136.97127 
L 948.966933 138.122834 
L 948.966933 139.044085 
L 948.013235 139.735023 
L 947.536387 139.735023 
L 947.059538 139.274398 
L 945.628991 139.044085 
L 944.675294 139.50471 
L 943.721596 139.965336 
L 943.244747 140.656274 
L 942.291049 141.1169 
L 939.429956 142.038151 
L 937.522561 142.268463 
L 935.615165 141.577525 
L 932.754072 138.122834 
L 931.800375 137.201583 
L 930.369828 136.510645 
L 928.462433 136.050019 
L 927.031886 136.050019 
L 926.078189 137.662208 
L 927.031886 144.110965 
L 926.078189 147.105031 
L 923.217095 148.486907 
L 921.786549 148.486907 
L 918.925456 147.795969 
L 916.541212 147.565656 
L 915.587514 146.874718 
L 914.633816 143.189714 
L 913.680119 142.038151 
L 911.772723 144.571591 
L 909.865328 148.026282 
L 907.481084 151.020347 
L 902.712595 152.632537 
L 898.897804 154.705351 
L 897.467258 154.935664 
L 895.559862 154.475039 
L 894.129316 153.323475 
L 892.698769 152.402224 
L 890.791374 153.093162 
L 891.268223 150.329409 
L 891.745072 149.408158 
L 882.208095 149.177846 
L 878.870153 148.486907 
L 874.101664 146.414093 
L 871.240571 145.953467 
L 868.856327 147.565656 
L 866.948932 142.729089 
L 865.518385 140.656274 
L 862.657292 138.813772 
L 863.134141 136.97127 
L 862.657292 135.359081 
L 859.796199 134.898456 
L 860.273048 134.668143 
L 861.226746 133.286266 
L 861.703594 133.055954 
L 859.31935 129.831575 
L 856.458257 127.528448 
L 853.120315 126.607197 
L 849.782373 126.607197 
L 841.675943 128.219386 
L 839.768547 129.37095 
L 833.569512 135.359081 
L 831.185268 136.97127 
L 829.277873 138.353147 
L 828.801024 138.583459 
L 826.893629 140.195649 
L 825.939931 142.268463 
L 824.986233 147.335344 
L 824.509384 148.256595 
L 824.032536 148.486907 
L 822.12514 149.177846 
L 822.601989 150.329409 
L 826.41678 153.093162 
L 823.555687 155.856915 
L 822.601989 157.008479 
L 825.939931 157.008479 
L 825.939931 157.238792 
L 824.986233 159.311606 
L 820.694594 163.917861 
L 817.833501 165.299737 
L 815.449256 163.687548 
L 813.065012 161.154108 
L 810.680768 160.693483 
L 809.72707 162.535985 
L 809.250221 166.451301 
L 808.773373 173.360683 
L 808.296524 174.051622 
L 805.435431 177.506313 
L 805.435431 178.197251 
L 805.435431 180.270066 
L 805.435431 181.191317 
L 801.62064 183.95507 
L 804.004884 185.336946 
L 806.389128 187.640073 
L 807.819675 190.173514 
L 808.296524 193.397892 
L 806.865977 195.701019 
L 804.004884 197.313209 
L 800.666942 198.464772 
L 797.329 198.925398 
L 792.083663 198.925398 
L 791.129965 199.386023 
L 787.792023 200.7679 
L 786.361477 201.228525 
L 785.884628 201.919463 
L 785.407779 202.840714 
L 784.454081 203.992278 
L 783.977233 204.913529 
L 783.500384 205.374154 
L 783.023535 205.604467 
L 781.592988 205.374154 
L 781.116139 205.374154 
L 779.685593 206.756031 
L 778.255046 208.598533 
L 776.8245 210.90166 
L 775.870802 214.356351 
L 774.917104 216.889792 
L 773.486558 219.423232 
L 772.056011 221.496046 
L 768.718069 224.029487 
L 766.333825 225.411363 
L 761.565337 226.793239 
L 760.611639 228.635741 
L 760.611639 230.708556 
L 759.181093 232.551058 
L 756.796848 233.472309 
L 754.412604 233.702622 
L 753.458906 233.932934 
L 750.597813 235.084498 
L 749.167267 236.927 
L 747.73672 238.308877 
L 743.445081 239.690753 
L 743.92193 241.072629 
L 743.445081 241.302942 
L 742.968232 241.302942 
L 742.968232 241.99388 
L 742.014534 241.99388 
L 741.060836 241.763568 
L 738.199743 244.066695 
L 736.292348 244.757633 
L 733.908104 244.527321 
L 732.954406 244.297008 
L 732.000708 244.987946 
L 732.000708 247.982012 
L 730.570162 252.127641 
L 730.093313 254.661081 
L 730.570162 256.042958 
L 732.477557 256.503583 
L 733.431255 258.115772 
L 732.954406 260.188587 
L 732.000708 262.491714 
L 731.047011 263.412965 
L 730.570162 263.643278 
L 730.570162 263.412965 
L 728.662766 261.570463 
L 725.801673 261.340151 
L 722.94058 261.340151 
L 720.079487 260.4189 
L 717.695243 257.655147 
L 716.741545 254.891394 
L 714.83415 252.588267 
L 711.973057 251.20639 
L 710.065661 251.436703 
L 709.111964 251.897328 
L 707.681417 252.127641 
L 705.774022 251.436703 
L 705.297173 250.745765 
L 702.43608 246.830448 
L 692.899103 240.151378 
L 692.422254 236.466375 
L 693.852801 233.472309 
L 693.852801 232.090433 
L 683.838975 233.472309 
L 681.93158 234.39356 
L 680.501033 235.775436 
L 680.024184 236.927 
L 679.547335 238.308877 
L 678.593638 240.151378 
L 676.686242 241.763568 
L 675.255696 242.454506 
L 673.825149 243.145444 
L 672.394603 244.066695 
L 667.626114 251.20639 
L 659.042835 260.649212 
L 657.13544 263.873591 
L 655.704893 268.01922 
L 655.228044 270.092035 
L 653.797498 271.704224 
L 651.413253 272.625475 
L 649.029009 273.316413 
L 642.353125 273.777039 
L 641.399428 273.546726 
L 639.968881 273.316413 
L 639.492032 272.625475 
L 637.107788 270.55266 
L 635.200393 270.782973 
L 633.769846 271.704224 
L 631.862451 272.395162 
L 629.478207 271.704224 
L 624.709718 269.170784 
L 619.464381 269.631409 
L 608.973706 271.704224 
L 603.25152 271.013286 
L 600.390427 271.243599 
L 597.529334 272.625475 
L 595.621939 273.777039 
L 595.14509 274.237664 
L 595.14509 275.158915 
L 594.668241 277.001417 
L 594.668241 279.304545 
L 594.191392 286.674552 
L 594.191392 287.826116 
L 594.668241 288.517054 
L 595.621939 288.97768 
L 596.575636 289.898931 
L 597.052485 290.820182 
L 597.052485 292.892996 
L 596.575636 297.268938 
L 596.575636 299.572066 
L 600.867276 315.92427 
L 600.390427 318.227398 
L 598.95988 321.912402 
L 598.483032 323.754904 
L 598.95988 325.13678 
L 599.913578 325.597406 
L 600.867276 325.827718 
L 601.820974 326.518657 
L 602.774671 328.361158 
L 602.774671 329.282409 
L 603.728369 332.967413 
L 603.25152 335.270541 
L 602.297822 336.88273 
L 600.390427 338.725232 
L 599.436729 339.41617 
L 598.483032 339.876796 
L 597.529334 340.337421 
L 596.098787 339.876796 
L 588.469206 336.191792 
L 586.084962 335.961479 
L 584.177566 336.422104 
L 582.270171 337.803981 
L 576.071136 343.331487 
L 575.117438 344.48305 
L 574.16374 346.325552 
L 573.210043 350.240869 
L 572.733194 350.701494 
L 573.210043 351.392433 
L 574.16374 353.69556 
L 574.16374 353.925873 
L 573.210043 361.065568 
L 573.686892 361.986819 
L 574.16374 362.217131 
L 574.640589 362.90807 
L 574.16374 364.059633 
L 573.686892 364.750572 
L 571.779496 365.902135 
L 570.825799 366.362761 
L 567.964705 371.199328 
L 566.534159 373.04183 
L 563.196217 375.114645 
L 560.335124 376.496521 
L 559.381426 378.799649 
L 557.95088 378.569336 
L 555.089787 376.726834 
L 553.182391 376.496521 
L 522.664065 378.339023 
L 524.094612 377.417772 
L 524.571461 375.805583 
L 525.525158 374.423707 
L 526.955705 373.502456 
L 528.386251 372.811518 
L 528.386251 371.890267 
L 525.048309 371.890267 
L 522.187216 371.199328 
L 520.279821 370.047765 
L 518.372426 368.205263 
L 517.418728 366.823386 
L 517.418728 366.132448 
L 517.895577 363.829321 
L 518.372426 363.599008 
L 522.664065 362.90807 
L 524.094612 362.447444 
L 516.46503 360.37463 
L 511.696542 359.914004 
L 509.312297 360.835255 
L 508.835449 360.835255 
L 508.3586 355.538062 
L 506.451204 350.010556 
L 504.06696 345.404301 
L 501.205867 341.94961 
L 500.729018 339.876796 
L 500.252169 339.646483 
L 499.775321 339.185857 
L 499.298472 339.185857 
L 498.344774 339.41617 
L 497.867925 339.185857 
L 496.914227 338.034294 
L 496.437379 336.88273 
L 496.437379 335.731166 
L 497.867925 334.34929 
L 498.821623 333.658352 
L 501.205867 332.737101 
L 502.159565 331.585537 
L 505.020658 327.900533 
L 505.974356 326.979282 
L 507.404902 327.439908 
L 509.789146 326.748969 
L 514.080786 325.13678 
L 513.603937 323.985216 
L 513.603937 323.294278 
L 514.080786 322.373027 
L 512.173391 320.530525 
L 511.219693 319.839587 
L 509.789146 319.609274 
L 507.404902 320.0699 
L 505.974356 319.839587 
L 505.020658 318.688023 
L 502.636414 320.300213 
L 502.159565 320.991151 
L 501.205867 322.373027 
L 501.205867 324.215529 
L 501.682716 325.13678 
L 501.682716 325.827718 
L 500.252169 326.979282 
L 499.298472 326.979282 
L 495.006832 326.979282 
L 492.622588 327.439908 
L 491.66889 327.439908 
L 490.238344 326.979282 
L 490.238344 326.058031 
L 492.145739 326.058031 
L 492.145739 325.13678 
L 489.761495 324.676155 
L 487.377251 323.754904 
L 484.993006 323.524591 
L 483.085611 325.13678 
L 482.131913 325.13678 
L 482.608762 323.754904 
L 484.039309 320.530525 
L 482.131913 319.839587 
L 481.655064 318.227398 
L 482.131913 314.312081 
L 481.655064 312.239267 
L 479.747669 312.699892 
L 477.840274 314.312081 
L 476.886576 315.693958 
L 477.840274 319.609274 
L 475.932878 323.294278 
L 472.594936 326.058031 
L 468.780146 326.979282 
L 466.395901 326.518657 
L 463.057959 324.676155 
L 460.673715 323.754904 
L 460.673715 322.833653 
L 460.673715 321.912402 
L 460.196866 321.451776 
L 458.76632 321.451776 
L 457.812622 321.221463 
L 455.905227 320.530525 
L 466.395901 315.693958 
L 468.780146 313.160518 
L 468.780146 311.318016 
L 468.780146 309.475514 
L 467.826448 307.863324 
L 466.87275 306.711761 
L 464.965355 306.020823 
L 462.104262 306.942074 
L 461.150564 306.481448 
L 459.720018 303.25707 
L 460.196866 299.572066 
L 463.534808 291.741433 
L 464.011657 289.207992 
L 463.534808 284.141112 
L 464.011657 281.837985 
L 465.442204 280.225796 
L 466.87275 278.843919 
L 467.349599 277.462043 
L 466.395901 275.158915 
L 467.349599 272.855788 
L 469.733843 266.867656 
L 471.16439 264.794842 
L 468.780146 263.873591 
L 464.965355 260.649212 
L 462.581111 258.806711 
L 462.104262 258.346085 
L 460.196866 257.655147 
L 459.243169 257.194521 
L 458.289471 255.582332 
L 457.335773 251.897328 
L 455.905227 250.976077 
L 453.997831 251.20639 
L 452.567285 252.127641 
L 451.613587 253.509517 
L 450.183041 254.430768 
L 448.752494 254.661081 
L 446.36825 253.970143 
L 444.937703 253.970143 
L 443.984006 254.430768 
L 442.07661 255.582332 
L 441.599761 256.042958 
L 440.646064 255.582332 
L 438.738668 254.430768 
L 437.784971 254.200456 
L 435.877575 254.661081 
L 429.67854 257.655147 
L 428.724843 254.430768 
L 426.340598 251.897328 
L 423.956354 249.594201 
L 422.048959 247.291073 
L 420.141563 242.224193 
L 418.711017 240.842317 
L 414.896226 240.612004 
L 408.220342 241.533255 
L 406.312947 241.533255 
L 402.975005 240.842317 
L 402.498156 240.612004 
L 400.590761 240.612004 
L 399.160214 241.072629 
L 399.160214 241.533255 
L 399.160214 244.066695 
L 399.637063 244.757633 
L 400.590761 245.678884 
L 401.06761 246.13951 
L 400.590761 247.982012 
L 399.637063 248.212324 
L 398.206516 247.982012 
L 396.77597 248.67295 
L 395.822272 249.594201 
L 395.345423 250.515452 
L 394.868575 251.436703 
L 393.914877 252.357954 
L 392.48433 252.818579 
L 391.053784 253.048892 
L 389.623237 253.509517 
L 388.66954 255.121707 
L 387.715842 254.891394 
L 386.762144 254.430768 
L 385.331598 254.430768 
L 384.854749 254.430768 
L 384.3779 254.891394 
L 384.3779 255.812645 
L 384.3779 256.503583 
L 383.901051 256.964209 
L 382.947353 256.733896 
L 381.039958 256.042958 
L 379.609411 256.042958 
L 374.364074 257.194521 
L 371.97983 258.115772 
L 369.595586 259.727962 
L 365.780795 259.727962 
L 367.211341 257.88546 
L 367.211341 255.812645 
L 365.780795 252.127641 
L 365.303946 250.745765 
L 365.303946 248.903263 
L 365.780795 247.060761 
L 365.780795 245.678884 
L 365.303946 244.066695 
L 365.303946 243.836382 
L 365.780795 243.836382 
L 365.780795 243.60607 
L 365.780795 243.375757 
L 366.257644 242.915131 
L 364.827097 241.763568 
L 363.8734 241.302942 
L 357.674365 240.842317 
L 347.660539 237.617938 
L 344.322597 237.387626 
L 340.984655 237.848251 
L 340.030957 238.078564 
L 340.030957 237.848251 
L 340.507806 237.157313 
L 340.030957 236.005749 
L 339.554108 235.084498 
L 338.600411 234.39356 
L 337.646713 234.163247 
L 334.78562 233.702622 
L 332.878225 232.320745 
L 332.878225 230.478243 
L 333.831922 228.175116 
L 333.831922 225.871988 
L 332.878225 224.259799 
L 331.924527 224.490112 
L 330.49398 225.411363 
L 328.586585 225.871988 
L 322.864399 225.411363 
L 320.480155 225.871988 
L 319.526457 221.956672 
L 317.619062 217.811043 
L 315.234817 214.356351 
L 311.896875 212.283537 
L 309.512631 212.283537 
L 307.605236 212.974475 
L 306.174689 213.895726 
L 304.744143 214.356351 
L 303.790445 213.4351 
L 303.313596 212.053224 
L 303.313596 210.90166 
L 303.313596 210.210722 
L 302.836747 208.598533 
L 301.406201 206.525718 
L 300.452503 205.143842 
L 296.637712 202.380089 
L 296.160863 201.228525 
L 295.684015 197.082896 
L 294.730317 195.470707 
L 292.822922 194.319143 
L 288.054433 193.858517 
L 286.623887 192.476641 
L 287.100735 191.094765 
L 287.577584 189.712888 
L 287.100735 188.331012 
L 286.623887 187.179448 
L 285.670189 186.027884 
L 285.19334 185.567259 
L 284.239642 185.336946 
L 283.285945 185.797571 
L 281.855398 186.718822 
L 279.948003 190.403826 
L 278.994305 191.55539 
L 272.79527 189.712888 
L 269.457328 187.409761 
L 262.781444 186.027884 
L 258.489805 183.95507 
L 253.244467 183.264131 
L 251.337072 182.803506 
z
" clip-path="url(#paac7ec2208)" style="fill: #bdc3c7; stroke: #ffffff; stroke-width: 0.5"/>
    <path d="M 616.126439 -72.152699 
L 617.080137 -75.377077 
L 620.894927 -78.601456 
L 626.140265 -81.825834 
L 630.431904 -83.668336 
L 638.538335 -87.35334 
L 647.121614 -90.117093 
L 652.8438 -91.729282 
L 656.658591 -92.189908 
L 661.903928 -91.959595 
L 666.195568 -91.729282 
L 672.394603 -91.729282 
L 670.010358 -90.808031 
L 667.149265 -89.426155 
L 664.288172 -90.347406 
L 660.473382 -89.195842 
L 657.612288 -89.88678 
L 655.228044 -89.426155 
L 654.274347 -89.195842 
L 652.366951 -87.813965 
L 651.890102 -87.583653 
L 650.459556 -87.583653 
L 648.55216 -87.123027 
L 646.167916 -85.280525 
L 641.399428 -82.977398 
L 636.630939 -81.134896 
L 631.385602 -77.680205 
L 627.093962 -76.298328 
L 624.232869 -75.837703 
L 621.848625 -73.995201 
L 619.94123 -71.922386 
L 617.080137 -70.079884 
z
" clip-path="url(#paac7ec2208)" style="fill: #bdc3c7; stroke: #ffffff; stroke-width: 0.5"/>
    <path d="M 703.389778 -89.426155 
L 704.343475 -91.959595 
L 706.250871 -95.183973 
L 708.158266 -96.335537 
L 710.54251 -100.020541 
L 711.973057 -101.863043 
L 716.264696 -103.705545 
L 718.648941 -102.784294 
L 721.033185 -101.172105 
L 720.079487 -99.559915 
L 717.218394 -99.329603 
L 716.741545 -97.256788 
L 714.83415 -94.95366 
L 712.449906 -94.723348 
L 710.54251 -92.880846 
L 703.866626 -88.274591 
z
" clip-path="url(#paac7ec2208)" style="fill: #bdc3c7; stroke: #ffffff; stroke-width: 0.5"/>
    <path d="M 564.626764 -44.745483 
L 565.580461 -46.357672 
L 571.779496 -49.121425 
L 575.117438 -49.812363 
L 577.024834 -50.272989 
L 578.45538 -50.733614 
L 580.362775 -50.503301 
L 580.839624 -49.812363 
L 579.885927 -47.509236 
L 580.362775 -45.897047 
L 577.978531 -46.127359 
L 575.594287 -45.436421 
L 572.256345 -44.054545 
L 568.918403 -42.212043 
L 567.011008 -43.824232 
z
" clip-path="url(#paac7ec2208)" style="fill: #bdc3c7; stroke: #ffffff; stroke-width: 0.5"/>
    <path d="M 474.979181 337.113043 
L 476.886576 336.422104 
L 478.793971 336.191792 
L 482.608762 336.422104 
L 483.085611 337.343355 
L 483.085611 339.41617 
L 481.655064 341.488985 
L 478.317123 341.94961 
L 476.886576 341.719297 
L 476.409727 341.488985 
L 475.932878 341.028359 
L 475.932878 340.107108 
L 476.886576 340.107108 
L 476.409727 339.41617 
L 475.456029 338.034294 
z
" clip-path="url(#paac7ec2208)" style="fill: #bdc3c7; stroke: #ffffff; stroke-width: 0.5"/>
    <path d="M 476.886576 330.664286 
L 477.363425 328.361158 
L 478.793971 325.827718 
L 480.224518 324.906467 
L 481.655064 325.597406 
L 483.085611 326.058031 
L 486.423553 325.13678 
L 488.807797 325.13678 
L 488.807797 326.058031 
L 486.423553 327.209595 
L 487.854099 332.506788 
L 485.946704 334.34929 
L 479.747669 332.506788 
z
" clip-path="url(#paac7ec2208)" style="fill: #bdc3c7; stroke: #ffffff; stroke-width: 0.5"/>
    <path d="M 969.471433 -226.692549 
L 970.425131 -226.692549 
L 971.378829 -226.462236 
L 972.332527 -226.231923 
L 973.286224 -225.771298 
L 971.855678 -225.540985 
L 970.90198 -225.540985 
L 969.948282 -226.00161 
z
" clip-path="url(#paac7ec2208)" style="fill: #bdc3c7; stroke: #ffffff; stroke-width: 0.5"/>
   </g>
   <g id="PatchCollection_2">
    <path d="M 151.675663 267.328282 
L 151.675663 265.255467 
L 152.152512 262.95234 
L 152.629361 260.879525 
L 153.583059 258.806711 
L 155.490454 257.194521 
L 158.828396 255.352019 
L 160.735791 253.970143 
L 161.689489 252.127641 
L 162.643187 250.054826 
L 163.596884 248.212324 
L 165.50428 246.369822 
L 178.379199 237.387626 
L 181.240292 234.623873 
L 182.670838 233.702622 
L 188.393024 231.399494 
L 190.30042 231.399494 
L 192.684664 231.86012 
L 196.499455 234.623873 
L 198.40685 235.545124 
L 200.314246 234.39356 
L 200.314246 233.702622 
L 200.314246 233.472309 
L 199.360548 231.399494 
L 199.360548 230.478243 
L 199.360548 229.32668 
L 205.082734 219.192919 
L 207.943827 216.429166 
L 211.281769 213.665413 
L 214.619711 212.283537 
L 228.925176 208.828846 
L 229.878874 207.907595 
L 229.878874 205.83478 
L 229.402025 205.143842 
L 227.49463 204.452904 
L 227.017781 203.761965 
L 227.017781 202.840714 
L 226.540932 200.7679 
L 226.540932 200.307274 
L 225.587234 198.695085 
L 225.110385 198.23446 
L 224.633537 197.543521 
L 223.679839 197.082896 
L 220.818746 196.62227 
L 219.865048 194.779768 
L 220.818746 193.628205 
L 222.249292 192.706954 
L 223.20299 191.325077 
L 222.726141 189.712888 
L 221.772444 188.331012 
L 220.818746 186.949135 
L 221.772444 184.646008 
L 223.679839 183.264131 
L 225.587234 183.494444 
L 227.017781 184.87632 
L 227.49463 187.409761 
L 229.402025 186.258197 
L 232.739967 182.34288 
L 233.693665 181.882255 
L 235.124211 181.191317 
L 237.031607 181.421629 
L 238.462153 182.34288 
L 239.8927 182.803506 
L 242.276944 182.34288 
L 245.138037 179.348815 
L 246.568584 178.888189 
L 246.568584 181.421629 
L 247.522281 180.270066 
L 247.522281 180.039753 
L 251.337072 182.803506 
L 253.244467 183.264131 
L 258.489805 183.95507 
L 262.781444 186.027884 
L 269.457328 187.409761 
L 272.79527 189.712888 
L 278.994305 191.55539 
L 279.948003 190.403826 
L 281.855398 186.718822 
L 283.285945 185.797571 
L 284.239642 185.336946 
L 285.19334 185.567259 
L 285.670189 186.027884 
L 286.623887 187.179448 
L 287.100735 188.331012 
L 287.577584 189.712888 
L 287.100735 191.094765 
L 286.623887 192.476641 
L 288.054433 193.858517 
L 292.822922 194.319143 
L 294.730317 195.470707 
L 295.684015 197.082896 
L 296.160863 201.228525 
L 296.637712 202.380089 
L 300.452503 205.143842 
L 301.406201 206.525718 
L 302.836747 208.598533 
L 303.313596 210.210722 
L 303.313596 210.90166 
L 303.313596 212.053224 
L 303.790445 213.4351 
L 304.744143 214.356351 
L 306.174689 213.895726 
L 307.605236 212.974475 
L 309.512631 212.283537 
L 311.896875 212.283537 
L 315.234817 214.356351 
L 317.619062 217.811043 
L 319.526457 221.956672 
L 320.480155 225.871988 
L 322.864399 225.411363 
L 328.586585 225.871988 
L 330.49398 225.411363 
L 331.924527 224.490112 
L 332.878225 224.259799 
L 333.831922 225.871988 
L 333.831922 228.175116 
L 332.878225 230.478243 
L 332.878225 232.320745 
L 334.78562 233.702622 
L 337.646713 234.163247 
L 338.600411 234.39356 
L 339.554108 235.084498 
L 340.030957 236.005749 
L 340.507806 237.157313 
L 340.030957 237.848251 
L 340.030957 238.078564 
L 340.984655 237.848251 
L 344.322597 237.387626 
L 347.660539 237.617938 
L 357.674365 240.842317 
L 363.8734 241.302942 
L 364.827097 241.763568 
L 366.257644 242.915131 
L 365.780795 243.375757 
L 365.780795 243.60607 
L 365.780795 243.836382 
L 365.303946 243.836382 
L 365.303946 244.066695 
L 365.780795 245.678884 
L 365.780795 247.060761 
L 365.303946 248.903263 
L 365.303946 250.745765 
L 365.780795 252.127641 
L 367.211341 255.812645 
L 367.211341 257.88546 
L 365.780795 259.727962 
L 369.595586 259.727962 
L 371.97983 258.115772 
L 374.364074 257.194521 
L 379.609411 256.042958 
L 381.039958 256.042958 
L 382.947353 256.733896 
L 383.901051 256.964209 
L 384.3779 256.503583 
L 384.3779 255.812645 
L 384.3779 254.891394 
L 384.854749 254.430768 
L 385.331598 254.430768 
L 386.762144 254.430768 
L 387.715842 254.891394 
L 388.66954 255.121707 
L 389.623237 253.509517 
L 391.053784 253.048892 
L 392.48433 252.818579 
L 393.914877 252.357954 
L 394.868575 251.436703 
L 395.345423 250.515452 
L 395.822272 249.594201 
L 396.77597 248.67295 
L 398.206516 247.982012 
L 399.637063 248.212324 
L 400.590761 247.982012 
L 401.06761 246.13951 
L 400.590761 245.678884 
L 399.637063 244.757633 
L 399.160214 244.066695 
L 399.160214 241.533255 
L 399.160214 241.072629 
L 400.590761 240.612004 
L 402.498156 240.612004 
L 402.975005 240.842317 
L 406.312947 241.533255 
L 408.220342 241.533255 
L 414.896226 240.612004 
L 418.711017 240.842317 
L 420.141563 242.224193 
L 422.048959 247.291073 
L 423.956354 249.594201 
L 426.340598 251.897328 
L 428.724843 254.430768 
L 429.67854 257.655147 
L 435.877575 254.661081 
L 437.784971 254.200456 
L 438.738668 254.430768 
L 440.646064 255.582332 
L 441.599761 256.042958 
L 442.07661 255.582332 
L 443.984006 254.430768 
L 444.937703 253.970143 
L 446.36825 253.970143 
L 448.752494 254.661081 
L 450.183041 254.430768 
L 451.613587 253.509517 
L 452.567285 252.127641 
L 453.997831 251.20639 
L 455.905227 250.976077 
L 457.335773 251.897328 
L 458.289471 255.582332 
L 459.243169 257.194521 
L 460.196866 257.655147 
L 462.104262 258.346085 
L 462.581111 258.806711 
L 464.965355 260.649212 
L 468.780146 263.873591 
L 471.16439 264.794842 
L 469.733843 266.867656 
L 467.349599 272.855788 
L 466.395901 275.158915 
L 467.349599 277.462043 
L 466.87275 278.843919 
L 465.442204 280.225796 
L 464.011657 281.837985 
L 463.534808 284.141112 
L 464.011657 289.207992 
L 463.534808 291.741433 
L 460.196866 299.572066 
L 459.720018 303.25707 
L 461.150564 306.481448 
L 462.104262 306.942074 
L 464.965355 306.020823 
L 466.87275 306.711761 
L 467.826448 307.863324 
L 468.780146 309.475514 
L 468.780146 311.318016 
L 468.780146 313.160518 
L 466.395901 315.693958 
L 455.905227 320.530525 
L 454.951529 319.839587 
L 453.997831 318.688023 
L 453.044134 315.693958 
L 449.229343 322.373027 
L 448.275645 326.058031 
L 450.659889 327.900533 
L 452.567285 328.361158 
L 456.858924 332.737101 
L 459.243169 334.34929 
L 459.720018 335.040228 
L 459.720018 336.88273 
L 458.289471 339.646483 
L 455.905227 341.719297 
L 445.891401 346.786178 
L 443.507157 348.858992 
L 443.030308 351.16212 
L 445.891401 353.234935 
L 441.122913 354.386498 
L 423.002656 353.004622 
L 418.711017 352.083371 
L 417.757319 352.083371 
L 415.373075 353.004622 
L 403.928703 354.156186 
L 392.007481 352.083371 
L 388.66954 353.234935 
L 386.762144 352.543996 
L 384.854749 352.083371 
L 384.854749 351.392433 
L 388.192691 351.16212 
L 388.192691 349.089305 
L 386.762144 346.555865 
L 384.3779 344.713363 
L 384.854749 345.864927 
L 386.285295 347.937742 
L 386.762144 349.319618 
L 381.993656 349.319618 
L 379.609411 349.549931 
L 377.702016 350.240869 
L 379.132563 350.931807 
L 380.08626 350.701494 
L 381.516807 350.471182 
L 383.424202 350.240869 
L 383.424202 351.392433 
L 380.08626 352.543996 
L 376.748318 352.543996 
L 374.364074 350.931807 
L 373.410376 347.477116 
L 374.840923 348.168054 
L 375.317772 348.398367 
L 376.748318 346.555865 
L 376.748318 345.864927 
L 374.840923 344.713363 
L 371.97983 341.258672 
L 370.549283 340.107108 
L 371.026132 342.179923 
L 371.502981 343.792112 
L 371.97983 345.173989 
L 371.502981 346.555865 
L 369.595586 345.404301 
L 363.8734 344.022425 
L 361.489155 342.870861 
L 359.58176 338.955545 
L 358.151213 338.264606 
L 356.720667 338.034294 
L 352.429027 337.113043 
L 350.521632 337.113043 
L 345.276295 338.264606 
L 337.646713 338.494919 
L 336.216167 339.185857 
L 336.693015 339.876796 
L 337.646713 340.337421 
L 338.600411 340.567734 
L 339.554108 340.107108 
L 343.368899 341.028359 
L 353.859574 339.876796 
L 355.29012 340.107108 
L 357.197516 341.028359 
L 357.674365 341.94961 
L 359.58176 344.022425 
L 360.535458 344.713363 
L 360.535458 345.864927 
L 358.151213 345.404301 
L 356.243818 344.943676 
L 352.429027 343.792112 
L 352.429027 344.713363 
L 363.396551 347.016491 
L 369.118737 348.858992 
L 371.502981 351.392433 
L 370.549283 353.004622 
L 368.165039 352.543996 
L 365.780795 351.16212 
L 363.8734 349.780243 
L 361.966004 348.858992 
L 327.632887 342.410236 
L 323.341248 340.567734 
L 290.915526 325.13678 
L 275.179514 315.463645 
L 266.119386 311.548328 
L 256.10556 309.245201 
L 251.813921 309.245201 
L 248.475979 308.32395 
L 229.402025 308.554263 
L 221.295595 306.481448 
L 217.480804 305.79051 
L 209.374374 303.026757 
L 204.605885 303.948008 
L 192.207815 304.178321 
L 190.30042 302.566131 
L 188.869873 297.729564 
L 188.393024 294.505185 
L 186.962478 293.123309 
L 184.101385 291.51112 
L 173.133861 285.292676 
L 164.073733 281.147046 
L 153.583059 276.080166 
z
" clip-path="url(#paac7ec2208)" style="fill: #e74c3c; stroke: #ffffff; stroke-width: 0.6"/>
    <path d="M 467.826448 350.701494 
L 467.826448 348.858992 
L 467.826448 347.246803 
L 468.780146 346.555865 
L 470.687541 347.016491 
L 471.641239 349.549931 
L 471.641239 351.622745 
L 472.594936 353.004622 
L 471.16439 353.69556 
L 469.733843 353.004622 
L 468.303297 353.465247 
L 468.303297 352.083371 
z
" clip-path="url(#paac7ec2208)" style="fill: #e74c3c; stroke: #ffffff; stroke-width: 0.6"/>
    <path d="M 460.673715 342.870861 
L 461.627413 342.179923 
L 462.581111 342.179923 
L 464.011657 342.640548 
L 464.488506 344.713363 
L 464.011657 345.864927 
L 463.057959 346.786178 
L 461.150564 345.173989 
z
" clip-path="url(#paac7ec2208)" style="fill: #e74c3c; stroke: #ffffff; stroke-width: 0.6"/>
   </g>
   <g id="text_1">
    <g id="patch_2">
     <path d="M 514.610804 175.61236 
L 552.596741 175.61236 
Q 553.996741 175.61236 553.996741 174.21236 
L 553.996741 167.211813 
Q 553.996741 165.811813 552.596741 165.811813 
L 514.610804 165.811813 
Q 513.210804 165.811813 513.210804 167.211813 
L 513.210804 174.21236 
Q 513.210804 175.61236 514.610804 175.61236 
z
" clip-path="url(#paac7ec2208)" style="fill: #ffffff; opacity: 0.6"/>
    </g>
    <g clip-path="url(#paac7ec2208)">
     <!-- Honduras -->
     <g style="fill: #1a252f" transform="translate(514.610804 172.53072) scale(0.07 -0.07)">
      <defs>
       <path id="DejaVuSans-Bold-2b" d="M 588 4666 
L 1791 4666 
L 1791 2888 
L 3566 2888 
L 3566 4666 
L 4769 4666 
L 4769 0 
L 3566 0 
L 3566 1978 
L 1791 1978 
L 1791 0 
L 588 0 
L 588 4666 
z
" transform="scale(0.015625)"/>
       <path id="DejaVuSans-Bold-52" d="M 2203 2784 
Q 1831 2784 1636 2517 
Q 1441 2250 1441 1747 
Q 1441 1244 1636 976 
Q 1831 709 2203 709 
Q 2569 709 2762 976 
Q 2956 1244 2956 1747 
Q 2956 2250 2762 2517 
Q 2569 2784 2203 2784 
z
M 2203 3584 
Q 3106 3584 3614 3096 
Q 4122 2609 4122 1747 
Q 4122 884 3614 396 
Q 3106 -91 2203 -91 
Q 1297 -91 786 396 
Q 275 884 275 1747 
Q 275 2609 786 3096 
Q 1297 3584 2203 3584 
z
" transform="scale(0.015625)"/>
       <path id="DejaVuSans-Bold-51" d="M 4056 2131 
L 4056 0 
L 2931 0 
L 2931 347 
L 2931 1631 
Q 2931 2084 2911 2256 
Q 2891 2428 2841 2509 
Q 2775 2619 2662 2680 
Q 2550 2741 2406 2741 
Q 2056 2741 1856 2470 
Q 1656 2200 1656 1722 
L 1656 0 
L 538 0 
L 538 3500 
L 1656 3500 
L 1656 2988 
Q 1909 3294 2193 3439 
Q 2478 3584 2822 3584 
Q 3428 3584 3742 3212 
Q 4056 2841 4056 2131 
z
" transform="scale(0.015625)"/>
       <path id="DejaVuSans-Bold-47" d="M 2919 2988 
L 2919 4863 
L 4044 4863 
L 4044 0 
L 2919 0 
L 2919 506 
Q 2688 197 2409 53 
Q 2131 -91 1766 -91 
Q 1119 -91 703 423 
Q 288 938 288 1747 
Q 288 2556 703 3070 
Q 1119 3584 1766 3584 
Q 2128 3584 2408 3439 
Q 2688 3294 2919 2988 
z
M 2181 722 
Q 2541 722 2730 984 
Q 2919 1247 2919 1747 
Q 2919 2247 2730 2509 
Q 2541 2772 2181 2772 
Q 1825 2772 1636 2509 
Q 1447 2247 1447 1747 
Q 1447 1247 1636 984 
Q 1825 722 2181 722 
z
" transform="scale(0.015625)"/>
       <path id="DejaVuSans-Bold-58" d="M 500 1363 
L 500 3500 
L 1625 3500 
L 1625 3150 
Q 1625 2866 1622 2436 
Q 1619 2006 1619 1863 
Q 1619 1441 1641 1255 
Q 1663 1069 1716 984 
Q 1784 875 1895 815 
Q 2006 756 2150 756 
Q 2500 756 2700 1025 
Q 2900 1294 2900 1772 
L 2900 3500 
L 4019 3500 
L 4019 0 
L 2900 0 
L 2900 506 
Q 2647 200 2364 54 
Q 2081 -91 1741 -91 
Q 1134 -91 817 281 
Q 500 653 500 1363 
z
" transform="scale(0.015625)"/>
       <path id="DejaVuSans-Bold-55" d="M 3138 2547 
Q 2991 2616 2845 2648 
Q 2700 2681 2553 2681 
Q 2122 2681 1889 2404 
Q 1656 2128 1656 1613 
L 1656 0 
L 538 0 
L 538 3500 
L 1656 3500 
L 1656 2925 
Q 1872 3269 2151 3426 
Q 2431 3584 2822 3584 
Q 2878 3584 2943 3579 
Q 3009 3575 3134 3559 
L 3138 2547 
z
" transform="scale(0.015625)"/>
       <path id="DejaVuSans-Bold-44" d="M 2106 1575 
Q 1756 1575 1579 1456 
Q 1403 1338 1403 1106 
Q 1403 894 1545 773 
Q 1688 653 1941 653 
Q 2256 653 2472 879 
Q 2688 1106 2688 1447 
L 2688 1575 
L 2106 1575 
z
M 3816 1997 
L 3816 0 
L 2688 0 
L 2688 519 
Q 2463 200 2181 54 
Q 1900 -91 1497 -91 
Q 953 -91 614 226 
Q 275 544 275 1050 
Q 275 1666 698 1953 
Q 1122 2241 2028 2241 
L 2688 2241 
L 2688 2328 
Q 2688 2594 2478 2717 
Q 2269 2841 1825 2841 
Q 1466 2841 1156 2769 
Q 847 2697 581 2553 
L 581 3406 
Q 941 3494 1303 3539 
Q 1666 3584 2028 3584 
Q 2975 3584 3395 3211 
Q 3816 2838 3816 1997 
z
" transform="scale(0.015625)"/>
       <path id="DejaVuSans-Bold-56" d="M 3272 3391 
L 3272 2541 
Q 2913 2691 2578 2766 
Q 2244 2841 1947 2841 
Q 1628 2841 1473 2761 
Q 1319 2681 1319 2516 
Q 1319 2381 1436 2309 
Q 1553 2238 1856 2203 
L 2053 2175 
Q 2913 2066 3209 1816 
Q 3506 1566 3506 1031 
Q 3506 472 3093 190 
Q 2681 -91 1863 -91 
Q 1516 -91 1145 -36 
Q 775 19 384 128 
L 384 978 
Q 719 816 1070 734 
Q 1422 653 1784 653 
Q 2113 653 2278 743 
Q 2444 834 2444 1013 
Q 2444 1163 2330 1236 
Q 2216 1309 1875 1350 
L 1678 1375 
Q 931 1469 631 1722 
Q 331 1975 331 2491 
Q 331 3047 712 3315 
Q 1094 3584 1881 3584 
Q 2191 3584 2531 3537 
Q 2872 3491 3272 3391 
z
" transform="scale(0.015625)"/>
      </defs>
      <use xlink:href="#DejaVuSans-Bold-2b"/>
      <use xlink:href="#DejaVuSans-Bold-52" transform="translate(83.6875 0)"/>
      <use xlink:href="#DejaVuSans-Bold-51" transform="translate(152.390625 0)"/>
      <use xlink:href="#DejaVuSans-Bold-47" transform="translate(223.578125 0)"/>
      <use xlink:href="#DejaVuSans-Bold-58" transform="translate(295.15625 0)"/>
      <use xlink:href="#DejaVuSans-Bold-55" transform="translate(366.34375 0)"/>
      <use xlink:href="#DejaVuSans-Bold-44" transform="translate(415.65625 0)"/>
      <use xlink:href="#DejaVuSans-Bold-56" transform="translate(483.140625 0)"/>
     </g>
    </g>
   </g>
   <g id="text_2">
    <!-- El Salvador -->
    <g style="fill: #1a252f" transform="translate(258.291784 20.117344) scale(0.17 -0.17)">
     <defs>
      <path id="DejaVuSans-Bold-28" d="M 588 4666 
L 3834 4666 
L 3834 3756 
L 1791 3756 
L 1791 2888 
L 3713 2888 
L 3713 1978 
L 1791 1978 
L 1791 909 
L 3903 909 
L 3903 0 
L 588 0 
L 588 4666 
z
" transform="scale(0.015625)"/>
      <path id="DejaVuSans-Bold-4f" d="M 538 4863 
L 1656 4863 
L 1656 0 
L 538 0 
L 538 4863 
z
" transform="scale(0.015625)"/>
      <path id="DejaVuSans-Bold-3" transform="scale(0.015625)"/>
      <path id="DejaVuSans-Bold-36" d="M 3834 4519 
L 3834 3531 
Q 3450 3703 3084 3790 
Q 2719 3878 2394 3878 
Q 1963 3878 1756 3759 
Q 1550 3641 1550 3391 
Q 1550 3203 1689 3098 
Q 1828 2994 2194 2919 
L 2706 2816 
Q 3484 2659 3812 2340 
Q 4141 2022 4141 1434 
Q 4141 663 3683 286 
Q 3225 -91 2284 -91 
Q 1841 -91 1394 -6 
Q 947 78 500 244 
L 500 1259 
Q 947 1022 1364 901 
Q 1781 781 2169 781 
Q 2563 781 2772 912 
Q 2981 1044 2981 1288 
Q 2981 1506 2839 1625 
Q 2697 1744 2272 1838 
L 1806 1941 
Q 1106 2091 782 2419 
Q 459 2747 459 3303 
Q 459 4000 909 4375 
Q 1359 4750 2203 4750 
Q 2588 4750 2994 4692 
Q 3400 4634 3834 4519 
z
" transform="scale(0.015625)"/>
      <path id="DejaVuSans-Bold-59" d="M 97 3500 
L 1216 3500 
L 2088 1081 
L 2956 3500 
L 4078 3500 
L 2700 0 
L 1472 0 
L 97 3500 
z
" transform="scale(0.015625)"/>
     </defs>
     <use xlink:href="#DejaVuSans-Bold-28"/>
     <use xlink:href="#DejaVuSans-Bold-4f" transform="translate(68.3125 0)"/>
     <use xlink:href="#DejaVuSans-Bold-3" transform="translate(102.59375 0)"/>
     <use xlink:href="#DejaVuSans-Bold-36" transform="translate(137.40625 0)"/>
     <use xlink:href="#DejaVuSans-Bold-44" transform="translate(209.421875 0)"/>
     <use xlink:href="#DejaVuSans-Bold-4f" transform="translate(276.90625 0)"/>
     <use xlink:href="#DejaVuSans-Bold-59" transform="translate(311.1875 0)"/>
     <use xlink:href="#DejaVuSans-Bold-44" transform="translate(376.375 0)"/>
     <use xlink:href="#DejaVuSans-Bold-47" transform="translate(443.859375 0)"/>
     <use xlink:href="#DejaVuSans-Bold-52" transform="translate(515.4375 0)"/>
     <use xlink:href="#DejaVuSans-Bold-55" transform="translate(584.140625 0)"/>
    </g>
   </g>
   <g id="line2d_1">
    <path d="M 283.3775 318.644461 
" clip-path="url(#paac7ec2208)" style="fill: none; stroke: #ffffff; stroke-width: 1.5; stroke-linecap: square"/>
    <defs>
     <path id="mb3bf907cf8" d="M 0 2.5 
C 0.663008 2.5 1.29895 2.236584 1.767767 1.767767 
C 2.236584 1.29895 2.5 0.663008 2.5 0 
C 2.5 -0.663008 2.236584 -1.29895 1.767767 -1.767767 
C 1.29895 -2.236584 0.663008 -2.5 0 -2.5 
C -0.663008 -2.5 -1.29895 -2.236584 -1.767767 -1.767767 
C -2.236584 -1.29895 -2.5 -0.663008 -2.5 0 
C -2.5 0.663008 -2.236584 1.29895 -1.767767 1.767767 
C -1.29895 2.236584 -0.663008 2.5 0 2.5 
z
" style="stroke: #1a252f; stroke-width: 0.8"/>
    </defs>
    <g clip-path="url(#paac7ec2208)">
     <use xlink:href="#mb3bf907cf8" x="283.3775" y="318.644461" style="fill: #ffffff; stroke: #1a252f; stroke-width: 0.8"/>
    </g>
   </g>
   <g id="text_3">
    <g clip-path="url(#paac7ec2208)">
     <!-- San Salvador -->
     <g style="fill: #ffffff" transform="translate(301.436958 320.592996) scale(0.075 -0.075)">
      <use xlink:href="#DejaVuSans-Bold-36"/>
      <use xlink:href="#DejaVuSans-Bold-44" transform="translate(72.015625 0)"/>
      <use xlink:href="#DejaVuSans-Bold-51" transform="translate(139.5 0)"/>
      <use xlink:href="#DejaVuSans-Bold-3" transform="translate(210.6875 0)"/>
      <use xlink:href="#DejaVuSans-Bold-36" transform="translate(245.5 0)"/>
      <use xlink:href="#DejaVuSans-Bold-44" transform="translate(317.515625 0)"/>
      <use xlink:href="#DejaVuSans-Bold-4f" transform="translate(385 0)"/>
      <use xlink:href="#DejaVuSans-Bold-59" transform="translate(419.28125 0)"/>
      <use xlink:href="#DejaVuSans-Bold-44" transform="translate(484.46875 0)"/>
      <use xlink:href="#DejaVuSans-Bold-47" transform="translate(551.953125 0)"/>
      <use xlink:href="#DejaVuSans-Bold-52" transform="translate(623.53125 0)"/>
      <use xlink:href="#DejaVuSans-Bold-55" transform="translate(692.234375 0)"/>
     </g>
    </g>
   </g>
   <g id="legend_1">
    <g id="patch_3">
     <path d="M 13.5 498.657344 
L 92.839219 498.657344 
Q 94.639219 498.657344 94.639219 496.857344 
L 94.639219 470.755937 
Q 94.639219 468.955937 92.839219 468.955937 
L 13.5 468.955937 
Q 11.7 468.955937 11.7 470.755937 
L 11.7 496.857344 
Q 11.7 498.657344 13.5 498.657344 
z
" style="fill: #ffffff; opacity: 0.85; stroke: #cccccc; stroke-linejoin: miter"/>
    </g>
    <g id="patch_4">
     <path d="M 15.3 479.394531 
L 33.3 479.394531 
L 33.3 473.094531 
L 15.3 473.094531 
z
" style="fill: #e74c3c; stroke: #888888; stroke-linejoin: miter"/>
    </g>
    <g id="text_4">
     <!-- El Salvador -->
     <g transform="translate(40.5 479.394531) scale(0.09 -0.09)">
      <defs>
       <path id="DejaVuSans-28" d="M 628 4666 
L 3578 4666 
L 3578 4134 
L 1259 4134 
L 1259 2753 
L 3481 2753 
L 3481 2222 
L 1259 2222 
L 1259 531 
L 3634 531 
L 3634 0 
L 628 0 
L 628 4666 
z
" transform="scale(0.015625)"/>
       <path id="DejaVuSans-4f" d="M 603 4863 
L 1178 4863 
L 1178 0 
L 603 0 
L 603 4863 
z
" transform="scale(0.015625)"/>
       <path id="DejaVuSans-3" transform="scale(0.015625)"/>
       <path id="DejaVuSans-36" d="M 3425 4513 
L 3425 3897 
Q 3066 4069 2747 4153 
Q 2428 4238 2131 4238 
Q 1616 4238 1336 4038 
Q 1056 3838 1056 3469 
Q 1056 3159 1242 3001 
Q 1428 2844 1947 2747 
L 2328 2669 
Q 3034 2534 3370 2195 
Q 3706 1856 3706 1288 
Q 3706 609 3251 259 
Q 2797 -91 1919 -91 
Q 1588 -91 1214 -16 
Q 841 59 441 206 
L 441 856 
Q 825 641 1194 531 
Q 1563 422 1919 422 
Q 2459 422 2753 634 
Q 3047 847 3047 1241 
Q 3047 1584 2836 1778 
Q 2625 1972 2144 2069 
L 1759 2144 
Q 1053 2284 737 2584 
Q 422 2884 422 3419 
Q 422 4038 858 4394 
Q 1294 4750 2059 4750 
Q 2388 4750 2728 4690 
Q 3069 4631 3425 4513 
z
" transform="scale(0.015625)"/>
       <path id="DejaVuSans-44" d="M 2194 1759 
Q 1497 1759 1228 1600 
Q 959 1441 959 1056 
Q 959 750 1161 570 
Q 1363 391 1709 391 
Q 2188 391 2477 730 
Q 2766 1069 2766 1631 
L 2766 1759 
L 2194 1759 
z
M 3341 1997 
L 3341 0 
L 2766 0 
L 2766 531 
Q 2569 213 2275 61 
Q 1981 -91 1556 -91 
Q 1019 -91 701 211 
Q 384 513 384 1019 
Q 384 1609 779 1909 
Q 1175 2209 1959 2209 
L 2766 2209 
L 2766 2266 
Q 2766 2663 2505 2880 
Q 2244 3097 1772 3097 
Q 1472 3097 1187 3025 
Q 903 2953 641 2809 
L 641 3341 
Q 956 3463 1253 3523 
Q 1550 3584 1831 3584 
Q 2591 3584 2966 3190 
Q 3341 2797 3341 1997 
z
" transform="scale(0.015625)"/>
       <path id="DejaVuSans-59" d="M 191 3500 
L 800 3500 
L 1894 563 
L 2988 3500 
L 3597 3500 
L 2284 0 
L 1503 0 
L 191 3500 
z
" transform="scale(0.015625)"/>
       <path id="DejaVuSans-47" d="M 2906 2969 
L 2906 4863 
L 3481 4863 
L 3481 0 
L 2906 0 
L 2906 525 
Q 2725 213 2448 61 
Q 2172 -91 1784 -91 
Q 1150 -91 751 415 
Q 353 922 353 1747 
Q 353 2572 751 3078 
Q 1150 3584 1784 3584 
Q 2172 3584 2448 3432 
Q 2725 3281 2906 2969 
z
M 947 1747 
Q 947 1113 1208 752 
Q 1469 391 1925 391 
Q 2381 391 2643 752 
Q 2906 1113 2906 1747 
Q 2906 2381 2643 2742 
Q 2381 3103 1925 3103 
Q 1469 3103 1208 2742 
Q 947 2381 947 1747 
z
" transform="scale(0.015625)"/>
       <path id="DejaVuSans-52" d="M 1959 3097 
Q 1497 3097 1228 2736 
Q 959 2375 959 1747 
Q 959 1119 1226 758 
Q 1494 397 1959 397 
Q 2419 397 2687 759 
Q 2956 1122 2956 1747 
Q 2956 2369 2687 2733 
Q 2419 3097 1959 3097 
z
M 1959 3584 
Q 2709 3584 3137 3096 
Q 3566 2609 3566 1747 
Q 3566 888 3137 398 
Q 2709 -91 1959 -91 
Q 1206 -91 779 398 
Q 353 888 353 1747 
Q 353 2609 779 3096 
Q 1206 3584 1959 3584 
z
" transform="scale(0.015625)"/>
       <path id="DejaVuSans-55" d="M 2631 2963 
Q 2534 3019 2420 3045 
Q 2306 3072 2169 3072 
Q 1681 3072 1420 2755 
Q 1159 2438 1159 1844 
L 1159 0 
L 581 0 
L 581 3500 
L 1159 3500 
L 1159 2956 
Q 1341 3275 1631 3429 
Q 1922 3584 2338 3584 
Q 2397 3584 2469 3576 
Q 2541 3569 2628 3553 
L 2631 2963 
z
" transform="scale(0.015625)"/>
      </defs>
      <use xlink:href="#DejaVuSans-28"/>
      <use xlink:href="#DejaVuSans-4f" transform="translate(63.1875 0)"/>
      <use xlink:href="#DejaVuSans-3" transform="translate(90.96875 0)"/>
      <use xlink:href="#DejaVuSans-36" transform="translate(122.75 0)"/>
      <use xlink:href="#DejaVuSans-44" transform="translate(186.234375 0)"/>
      <use xlink:href="#DejaVuSans-4f" transform="translate(247.515625 0)"/>
      <use xlink:href="#DejaVuSans-59" transform="translate(275.296875 0)"/>
      <use xlink:href="#DejaVuSans-44" transform="translate(334.484375 0)"/>
      <use xlink:href="#DejaVuSans-47" transform="translate(395.765625 0)"/>
      <use xlink:href="#DejaVuSans-52" transform="translate(459.25 0)"/>
      <use xlink:href="#DejaVuSans-55" transform="translate(520.4375 0)"/>
     </g>
    </g>
    <g id="patch_5">
     <path d="M 15.3 492.895234 
L 33.3 492.895234 
L 33.3 486.595234 
L 15.3 486.595234 
z
" style="fill: #bdc3c7; stroke: #888888; stroke-linejoin: miter"/>
    </g>
    <g id="text_5">
     <!-- Neighbors -->
     <g transform="translate(40.5 492.895234) scale(0.09 -0.09)">
      <defs>
       <path id="DejaVuSans-31" d="M 628 4666 
L 1478 4666 
L 3547 763 
L 3547 4666 
L 4159 4666 
L 4159 0 
L 3309 0 
L 1241 3903 
L 1241 0 
L 628 0 
L 628 4666 
z
" transform="scale(0.015625)"/>
       <path id="DejaVuSans-48" d="M 3597 1894 
L 3597 1613 
L 953 1613 
Q 991 1019 1311 708 
Q 1631 397 2203 397 
Q 2534 397 2845 478 
Q 3156 559 3463 722 
L 3463 178 
Q 3153 47 2828 -22 
Q 2503 -91 2169 -91 
Q 1331 -91 842 396 
Q 353 884 353 1716 
Q 353 2575 817 3079 
Q 1281 3584 2069 3584 
Q 2775 3584 3186 3129 
Q 3597 2675 3597 1894 
z
M 3022 2063 
Q 3016 2534 2758 2815 
Q 2500 3097 2075 3097 
Q 1594 3097 1305 2825 
Q 1016 2553 972 2059 
L 3022 2063 
z
" transform="scale(0.015625)"/>
       <path id="DejaVuSans-4c" d="M 603 3500 
L 1178 3500 
L 1178 0 
L 603 0 
L 603 3500 
z
M 603 4863 
L 1178 4863 
L 1178 4134 
L 603 4134 
L 603 4863 
z
" transform="scale(0.015625)"/>
       <path id="DejaVuSans-4a" d="M 2906 1791 
Q 2906 2416 2648 2759 
Q 2391 3103 1925 3103 
Q 1463 3103 1205 2759 
Q 947 2416 947 1791 
Q 947 1169 1205 825 
Q 1463 481 1925 481 
Q 2391 481 2648 825 
Q 2906 1169 2906 1791 
z
M 3481 434 
Q 3481 -459 3084 -895 
Q 2688 -1331 1869 -1331 
Q 1566 -1331 1297 -1286 
Q 1028 -1241 775 -1147 
L 775 -588 
Q 1028 -725 1275 -790 
Q 1522 -856 1778 -856 
Q 2344 -856 2625 -561 
Q 2906 -266 2906 331 
L 2906 616 
Q 2728 306 2450 153 
Q 2172 0 1784 0 
Q 1141 0 747 490 
Q 353 981 353 1791 
Q 353 2603 747 3093 
Q 1141 3584 1784 3584 
Q 2172 3584 2450 3431 
Q 2728 3278 2906 2969 
L 2906 3500 
L 3481 3500 
L 3481 434 
z
" transform="scale(0.015625)"/>
       <path id="DejaVuSans-4b" d="M 3513 2113 
L 3513 0 
L 2938 0 
L 2938 2094 
Q 2938 2591 2744 2837 
Q 2550 3084 2163 3084 
Q 1697 3084 1428 2787 
Q 1159 2491 1159 1978 
L 1159 0 
L 581 0 
L 581 4863 
L 1159 4863 
L 1159 2956 
Q 1366 3272 1645 3428 
Q 1925 3584 2291 3584 
Q 2894 3584 3203 3211 
Q 3513 2838 3513 2113 
z
" transform="scale(0.015625)"/>
       <path id="DejaVuSans-45" d="M 3116 1747 
Q 3116 2381 2855 2742 
Q 2594 3103 2138 3103 
Q 1681 3103 1420 2742 
Q 1159 2381 1159 1747 
Q 1159 1113 1420 752 
Q 1681 391 2138 391 
Q 2594 391 2855 752 
Q 3116 1113 3116 1747 
z
M 1159 2969 
Q 1341 3281 1617 3432 
Q 1894 3584 2278 3584 
Q 2916 3584 3314 3078 
Q 3713 2572 3713 1747 
Q 3713 922 3314 415 
Q 2916 -91 2278 -91 
Q 1894 -91 1617 61 
Q 1341 213 1159 525 
L 1159 0 
L 581 0 
L 581 4863 
L 1159 4863 
L 1159 2969 
z
" transform="scale(0.015625)"/>
       <path id="DejaVuSans-56" d="M 2834 3397 
L 2834 2853 
Q 2591 2978 2328 3040 
Q 2066 3103 1784 3103 
Q 1356 3103 1142 2972 
Q 928 2841 928 2578 
Q 928 2378 1081 2264 
Q 1234 2150 1697 2047 
L 1894 2003 
Q 2506 1872 2764 1633 
Q 3022 1394 3022 966 
Q 3022 478 2636 193 
Q 2250 -91 1575 -91 
Q 1294 -91 989 -36 
Q 684 19 347 128 
L 347 722 
Q 666 556 975 473 
Q 1284 391 1588 391 
Q 1994 391 2212 530 
Q 2431 669 2431 922 
Q 2431 1156 2273 1281 
Q 2116 1406 1581 1522 
L 1381 1569 
Q 847 1681 609 1914 
Q 372 2147 372 2553 
Q 372 3047 722 3315 
Q 1072 3584 1716 3584 
Q 2034 3584 2315 3537 
Q 2597 3491 2834 3397 
z
" transform="scale(0.015625)"/>
      </defs>
      <use xlink:href="#DejaVuSans-31"/>
      <use xlink:href="#DejaVuSans-48" transform="translate(74.8125 0)"/>
      <use xlink:href="#DejaVuSans-4c" transform="translate(136.34375 0)"/>
      <use xlink:href="#DejaVuSans-4a" transform="translate(164.125 0)"/>
      <use xlink:href="#DejaVuSans-4b" transform="translate(227.609375 0)"/>
      <use xlink:href="#DejaVuSans-45" transform="translate(290.984375 0)"/>
      <use xlink:href="#DejaVuSans-52" transform="translate(354.46875 0)"/>
      <use xlink:href="#DejaVuSans-55" transform="translate(415.65625 0)"/>
      <use xlink:href="#DejaVuSans-56" transform="translate(456.765625 0)"/>
     </g>
    </g>
   </g>
  </g>
 </g>
 <defs>
  <clipPath id="paac7ec2208">
   <rect x="7.2" y="30.117344" width="609.8706" height="473.04"/>
  </clipPath>
 </defs>
</svg>
