<?xml version="1.0" encoding="utf-8" standalone="no"?>
<!DOCTYPE svg PUBLIC "-//W3C//DTD SVG 1.1//EN"
  "http://www.w3.org/Graphics/SVG/1.1/DTD/svg11.dtd">
<svg xmlns:xlink="http://www.w3.org/1999/xlink" width="514.723409pt" height="510.357344pt" viewBox="0 0 514.723409 510.357344" xmlns="http://www.w3.org/2000/svg" version="1.1">
 <metadata>
  <rdf:RDF xmlns:dc="http://purl.org/dc/elements/1.1/" xmlns:cc="http://creativecommons.org/ns#" xmlns:rdf="http://www.w3.org/1999/02/22-rdf-syntax-ns#">
   <cc:Work>
    <dc:type rdf:resource="http://purl.org/dc/dcmitype/StillImage"/>
    <dc:date>2026-06-19T08:14:11.811297</dc:date>
    <dc:format>image/svg+xml</dc:format>
    <dc:creator>
     <cc:Agent>
      <dc:title>Matplotlib v3.11.0, https://matplotlib.org/</dc:title>
     </cc:Agent>
    </dc:creator>
   </cc:Work>
  </rdf:RDF>
 </metadata>
 <defs>
  <style type="text/css">*{stroke-linejoin: round; stroke-linecap: butt}</style>
 </defs>
 <g id="figure_1">
  <g id="patch_1">
   <path d="M 0 510.357344 
L 514.723409 510.357344 
L 514.723409 0 
L 0 0 
z
" style="fill: #d6eaf8"/>
  </g>
  <g id="axes_1">
   <g id="PatchCollection_1">
    <path d="M 259.225461 70.877707 
L 259.432545 69.906195 
L 260.467966 70.003347 
L 260.67505 69.226137 
L 261.917554 67.185962 
L 261.089218 67.768869 
L 260.467966 67.866021 
L 259.846714 67.283114 
L 259.63963 66.408753 
L 259.63963 65.631543 
L 260.053798 64.854334 
L 261.089218 63.68852 
L 262.745891 62.522705 
L 263.160059 62.134101 
L 263.160059 61.356891 
L 262.952975 60.676833 
L 262.745891 59.996775 
L 263.160059 59.316716 
L 263.574227 59.705321 
L 263.367143 57.470844 
L 263.367143 56.30503 
L 264.195479 55.819274 
L 264.402563 55.722123 
L 265.437984 54.750611 
L 265.2309 53.87625 
L 265.023815 53.099041 
L 264.816731 51.933226 
L 265.2309 50.961715 
L 266.887572 49.893052 
L 267.30174 48.824388 
L 269.579665 45.229795 
L 270.408001 44.06398 
L 270.82217 42.898166 
L 271.650506 40.372235 
L 272.064674 39.595026 
L 273.307178 37.943456 
L 273.721347 37.263398 
L 274.342599 36.971944 
L 275.170935 36.874793 
L 275.792187 36.583339 
L 276.206356 35.903281 
L 277.655944 28.034035 
L 277.655944 27.451128 
L 277.034692 26.091011 
L 277.034692 25.313802 
L 277.44886 23.953685 
L 278.691364 21.427755 
L 279.105533 20.164789 
L 279.105533 18.998975 
L 278.898449 17.833161 
L 278.691364 16.764498 
L 279.105533 15.501532 
L 279.933869 14.335718 
L 280.969289 13.364206 
L 282.00471 12.198392 
L 282.211794 10.838275 
L 281.590541 9.283856 
L 280.555121 8.118042 
L 279.312617 7.14653 
L 278.070112 6.077867 
L 277.241776 4.6206 
L 277.655944 3.746239 
L 278.691364 2.969029 
L 279.726785 1.803215 
L 279.933869 0.345948 
L 279.519701 -0.625564 
L 278.898449 -1.597076 
L 278.691364 -2.76289 
L 279.312617 -3.734402 
L 281.383457 -5.094519 
L 282.211794 -6.066031 
L 283.247214 -6.940391 
L 284.489719 -6.84324 
L 285.732223 -6.357484 
L 286.767643 -6.454635 
L 286.974727 -7.231845 
L 286.974727 -8.883415 
L 287.388896 -9.27202 
L 288.217232 -9.757776 
L 289.045568 -10.534985 
L 290.288073 -12.283706 
L 295.465175 -17.821324 
L 303.334369 -24.136151 
L 304.783958 -26.176326 
L 306.440631 -29.673768 
L 307.268967 -30.548129 
L 308.097303 -30.936734 
L 308.718555 -31.033885 
L 309.546892 -30.936734 
L 310.375228 -31.033885 
L 312.031901 -32.005397 
L 313.688573 -35.308537 
L 315.55233 -36.3772 
L 315.759414 -36.571503 
L 318.037339 -37.348712 
L 319.279843 -37.931619 
L 320.108179 -38.903131 
L 321.557768 -41.429062 
L 322.386104 -42.10912 
L 324.042777 -42.497725 
L 324.871113 -42.497725 
L 326.941954 -42.497725 
L 327.563206 -43.080632 
L 327.563206 -43.177783 
L 331.911972 -56.973251 
L 333.154476 -58.236217 
L 334.396981 -58.139065 
L 335.639485 -57.556158 
L 336.674906 -57.264705 
L 337.91741 -57.750461 
L 351.999127 -69.700056 
L 353.448716 -70.477266 
L 354.277052 -70.282963 
L 354.69122 -69.311452 
L 355.519556 -65.133951 
L 356.140809 -63.968137 
L 357.383313 -63.093776 
L 358.832902 -62.60802 
L 373.742955 -62.802322 
L 373.742955 -64.065288 
L 373.950039 -65.0368 
L 374.571291 -65.814009 
L 375.192544 -66.68837 
L 375.606712 -66.979823 
L 375.813796 -67.076974 
L 376.227964 -67.271277 
L 376.435048 -71.64308 
L 377.0563 -73.780406 
L 377.677552 -75.917732 
L 378.505889 -77.569302 
L 379.541309 -76.209186 
L 379.955477 -73.391801 
L 380.990898 -72.517441 
L 382.440486 -72.031685 
L 386.375084 -69.894359 
L 391.138017 -68.145637 
L 393.001774 -66.882672 
L 394.037194 -64.551044 
L 394.451363 -61.927962 
L 395.693867 -59.402031 
L 397.557624 -57.556158 
L 402.94181 -56.584647 
L 404.805566 -55.127379 
L 406.048071 -52.79575 
L 406.048071 -50.075517 
L 406.048071 -47.743889 
L 406.255155 -45.509411 
L 407.290575 -41.040457 
L 408.325996 -38.320224 
L 409.361416 -37.445863 
L 410.811004 -37.251561 
L 414.331434 -37.640166 
L 415.988106 -37.737317 
L 416.402275 -37.640166 
L 417.023527 -37.251561 
L 417.437695 -37.251561 
L 417.851863 -37.348712 
L 418.473115 -37.931619 
L 418.680199 -38.02877 
L 419.301452 -37.931619 
L 420.543956 -37.640166 
L 421.165208 -37.640166 
L 422.614797 -37.931619 
L 424.064385 -38.708829 
L 425.099806 -39.777492 
L 425.513974 -41.040457 
L 425.928142 -43.469237 
L 426.756478 -45.41226 
L 428.206067 -46.578075 
L 430.483992 -46.869528 
L 432.140664 -47.743889 
L 433.383169 -49.589761 
L 435.039841 -53.475809 
L 435.454009 -55.030228 
L 435.661094 -56.584647 
L 435.246925 -57.556158 
L 434.004421 -59.013426 
L 433.590253 -59.887787 
L 434.004421 -61.442206 
L 435.039841 -62.899473 
L 438.560271 -66.105463 
L 441.873616 -68.242789 
L 442.0807 -68.534242 
L 442.287784 -69.2143 
L 442.494868 -69.505754 
L 442.909036 -69.602905 
L 443.530288 -69.505754 
L 444.151541 -69.700056 
L 444.979877 -69.700056 
L 445.394045 -69.894359 
L 445.601129 -70.282963 
L 445.808213 -70.865871 
L 446.015297 -71.351627 
L 446.843634 -71.934534 
L 449.328642 -74.169011 
L 449.949895 -74.557616 
L 450.778231 -74.751918 
L 451.399483 -74.751918 
L 451.813651 -74.460464 
L 452.434904 -74.363313 
L 452.849072 -74.557616 
L 453.470324 -75.917732 
L 452.641988 -77.277849 
L 450.571147 -79.706628 
L 447.67197 -83.884129 
L 446.843634 -84.564188 
L 445.394045 -84.855641 
L 445.186961 -85.147095 
L 445.601129 -85.632851 
L 446.63655 -86.41006 
L 447.67197 -87.575874 
L 451.399483 -92.822038 
L 454.712828 -96.125179 
L 458.233258 -99.622621 
L 459.88993 -101.857098 
L 460.718267 -102.537157 
L 461.546603 -103.120064 
L 461.753687 -104.285878 
L 460.925351 -107.686169 
L 460.718267 -108.949135 
L 460.925351 -110.2121 
L 461.339519 -111.377914 
L 463.41036 -115.069659 
L 469.208714 -123.036057 
L 471.279554 -125.270534 
L 471.693723 -126.144894 
L 471.486639 -127.019255 
L 471.07247 -128.476523 
L 470.865386 -130.711 
L 470.865386 -132.945477 
L 471.07247 -134.305594 
L 473.350395 -137.608734 
L 473.764563 -138.385944 
L 473.971647 -138.8717 
L 473.971647 -140.037514 
L 472.936227 -144.700771 
L 472.936227 -147.323853 
L 473.350395 -149.752632 
L 474.5929 -151.598505 
L 475.835404 -152.181412 
L 478.113329 -151.792807 
L 479.355833 -151.98711 
L 479.977086 -152.472865 
L 480.391254 -153.055773 
L 480.805422 -153.832982 
L 481.21959 -154.415889 
L 483.083347 -155.581703 
L 483.497515 -156.067459 
L 483.497515 -157.719029 
L 483.290431 -158.496239 
L 482.047926 -161.799379 
L 481.426674 -162.576589 
L 483.083347 -162.090833 
L 483.911683 -161.993682 
L 484.740019 -162.090833 
L 485.568356 -162.479437 
L 486.189608 -162.868042 
L 487.017944 -163.256647 
L 488.053365 -163.353798 
L 488.674617 -163.159496 
L 490.538373 -162.382286 
L 491.573794 -162.187984 
L 492.40213 -162.382286 
L 498.200484 -165.491124 
L 499.235905 -166.559787 
L 500.064241 -168.40566 
L 500.685493 -170.05723 
L 501.099661 -170.737288 
L 501.720914 -171.028742 
L 502.54925 -171.028742 
L 503.170502 -170.93159 
L 503.998838 -170.93159 
L 504.827175 -171.223044 
L 506.069679 -172.874614 
L 506.690931 -175.400545 
L 507.933436 -186.184326 
L 507.519268 -188.321652 
L 507.519268 -190.653281 
L 508.761772 -193.373514 
L 511.453865 -198.133922 
L 511.660949 -199.105434 
L 511.868033 -200.174097 
L 512.075117 -202.408574 
L 511.453865 -204.157295 
L 511.039697 -205.32311 
L 509.383024 -205.614563 
L 508.968856 -205.808866 
L 509.383024 -206.877529 
L 509.797192 -207.071831 
L 513.317622 -208.723401 
L 513.73179 -209.014855 
L 514.353042 -209.694913 
L 516.009715 -211.735088 
L 516.838051 -212.415146 
L 520.772648 -214.066716 
L 525.328498 -214.746775 
L 529.056011 -216.301194 
L 530.712684 -220.381543 
L 530.919768 -224.073288 
L 531.748104 -227.959336 
L 532.162273 -229.319452 
L 532.783525 -230.290964 
L 532.990609 -231.165325 
L 532.369357 -232.525441 
L 530.712684 -234.177011 
L 530.091432 -235.148523 
L 529.884348 -236.411489 
L 530.298516 -237.577303 
L 531.748104 -239.714629 
L 531.955189 -241.074746 
L 531.748104 -242.143409 
L 531.126852 -244.086432 
L 531.126852 -245.252246 
L 531.955189 -247.19527 
L 534.026029 -247.875328 
L 538.581879 -248.361084 
L 539.617299 -248.84684 
L 540.445636 -249.332596 
L 540.859804 -249.62405 
L 542.102308 -250.595562 
L 542.72356 -251.469922 
L 543.758981 -253.412946 
L 543.758981 -254.190155 
L 543.758981 -254.773063 
L 543.344813 -255.938877 
L 543.344813 -256.716086 
L 544.587317 -260.31068 
L 546.658158 -271.191613 
L 548.728999 -278.3808 
L 550.385671 -281.683941 
L 560.532791 -296.159467 
L 560.946959 -296.839525 
L 561.361127 -297.713886 
L 560.946959 -299.948363 
L 561.154043 -301.114177 
L 561.775295 -302.085689 
L 562.810716 -302.862899 
L 564.881557 -304.125864 
L 565.709893 -305.000225 
L 566.538229 -307.331853 
L 567.987818 -309.760633 
L 569.851574 -312.092261 
L 572.129499 -314.326739 
L 574.20034 -316.07546 
L 576.064097 -316.07546 
L 578.342021 -315.395402 
L 582.276619 -313.743831 
L 583.519123 -313.549529 
L 584.761628 -313.840983 
L 586.004132 -314.521041 
L 587.039553 -315.201099 
L 588.696225 -316.852669 
L 589.317477 -317.144123 
L 590.97415 -317.338425 
L 591.388318 -317.532728 
L 596.56542 -322.195984 
L 597.60084 -322.778892 
L 600.914186 -323.847555 
L 602.15669 -324.527613 
L 604.227531 -326.373485 
L 605.470035 -327.150695 
L 608.576296 -328.219358 
L 609.404633 -328.705114 
L 610.232969 -329.773777 
L 610.854221 -331.133893 
L 611.268389 -332.591161 
L 611.475473 -333.756975 
L 611.475473 -335.214243 
L 611.061305 -336.380057 
L 610.440053 -337.351569 
L 609.404633 -338.323081 
L 609.197549 -338.711686 
L 608.990465 -339.100291 
L 608.78338 -339.488895 
L 608.369212 -339.683198 
L 607.333792 -339.683198 
L 607.126708 -339.780349 
L 606.505456 -340.460407 
L 606.505456 -340.946163 
L 606.71254 -341.52907 
L 608.78338 -344.249303 
L 609.197549 -345.220815 
L 610.440053 -351.049886 
L 611.268389 -352.895759 
L 611.475473 -354.838782 
L 611.268389 -355.227387 
L 611.268389 -355.810294 
L 610.232969 -358.336225 
L 610.025885 -359.404888 
L 611.061305 -360.084946 
L 611.061305 -360.667853 
L 611.889642 -364.845354 
L 612.30381 -365.525413 
L 612.510894 -365.816866 
L 612.717978 -366.205471 
L 613.753398 -367.274134 
L 613.753398 -367.954192 
L 613.546314 -368.439948 
L 612.717978 -368.828553 
L 612.30381 -368.634251 
L 611.475473 -368.245646 
L 610.854221 -367.954192 
L 610.440053 -368.245646 
L 610.025885 -369.41146 
L 609.197549 -370.18867 
L 607.955044 -370.771577 
L 606.919624 -371.548786 
L 607.333792 -371.84024 
L 607.540876 -371.937391 
L 607.540876 -372.423147 
L 606.919624 -372.617449 
L 605.262951 -373.880415 
L 604.848783 -374.36617 
L 604.848783 -374.851926 
L 605.055867 -375.726287 
L 604.848783 -376.309194 
L 603.399195 -377.086404 
L 599.671681 -377.960764 
L 587.867889 -378.349369 
L 587.039553 -378.543671 
L 586.211216 -379.029427 
L 585.589964 -379.903788 
L 585.589964 -380.583846 
L 586.004132 -382.332568 
L 586.004132 -383.401231 
L 585.589964 -384.372742 
L 585.589964 -384.664196 
L 585.589964 -389.035999 
L 582.276619 -404.385886 
L 578.963274 -419.735774 
L 599.464597 -419.930076 
L 600.292933 -419.250018 
L 602.985026 -415.266819 
L 602.985026 -415.169668 
L 603.813363 -414.295307 
L 604.434615 -413.420947 
L 604.434615 -412.449435 
L 604.434615 -411.28362 
L 603.606279 -408.660539 
L 603.399195 -407.98048 
L 604.020447 -407.10612 
L 605.884203 -405.746003 
L 606.919624 -404.774491 
L 606.919624 -402.540014 
L 606.919624 -402.054258 
L 607.126708 -401.762804 
L 607.540876 -401.762804 
L 608.162128 -401.957107 
L 608.162128 -401.3742 
L 608.162128 -400.888444 
L 608.369212 -400.499839 
L 608.990465 -400.59699 
L 610.025885 -401.471351 
L 610.440053 -401.568502 
L 610.854221 -401.3742 
L 611.061305 -401.082746 
L 611.061305 -400.694141 
L 611.268389 -400.402688 
L 612.30381 -399.72263 
L 612.510894 -399.431176 
L 613.546314 -398.848269 
L 615.202987 -399.334025 
L 616.238407 -399.042571 
L 616.445491 -398.071059 
L 615.617155 -396.128036 
L 616.445491 -395.253675 
L 617.273828 -396.613792 
L 617.480912 -396.808094 
L 618.102164 -396.613792 
L 618.516332 -396.128036 
L 618.9305 -395.545129 
L 619.137584 -395.059373 
L 619.551752 -394.087861 
L 620.587173 -393.99071 
L 622.450929 -394.476466 
L 623.072182 -393.2135 
L 624.935938 -386.218615 
L 624.728854 -385.83001 
L 624.314686 -384.95565 
L 624.314686 -384.567045 
L 624.107602 -383.984138 
L 624.314686 -383.886987 
L 624.52177 -383.789835 
L 624.935938 -383.401231 
L 624.935938 -383.692684 
L 625.143022 -383.692684 
L 625.557191 -383.595533 
L 625.764275 -383.401231 
L 625.764275 -383.206928 
L 625.764275 -382.52687 
L 625.764275 -382.235416 
L 626.592611 -380.8753 
L 627.628031 -376.503496 
L 627.420947 -376.017741 
L 627.420947 -371.937391 
L 627.213863 -371.257333 
L 627.006779 -370.285821 
L 627.006779 -369.605762 
L 627.213863 -369.217158 
L 627.420947 -368.925704 
L 627.628031 -368.634251 
L 627.835115 -368.051343 
L 627.420947 -367.662739 
L 627.006779 -367.565588 
L 626.799695 -367.274134 
L 627.006779 -366.496925 
L 627.213863 -366.10832 
L 628.663452 -365.039657 
L 629.905956 -363.582389 
L 630.734292 -362.999482 
L 631.562629 -363.096633 
L 632.390965 -363.776691 
L 633.426385 -363.970994 
L 634.66889 -363.485238 
L 635.70431 -362.513726 
L 635.497226 -362.222272 
L 635.083058 -361.542214 
L 635.083058 -360.862156 
L 635.497226 -360.3764 
L 635.911394 -359.890644 
L 635.911394 -359.502039 
L 635.70431 -359.113435 
L 635.70431 -358.336225 
L 636.325563 -357.559016 
L 637.153899 -356.684655 
L 637.568067 -356.004597 
L 635.911394 -355.810294 
L 635.70431 -355.518841 
L 635.70431 -354.935934 
L 636.118478 -354.353026 
L 636.325563 -354.061573 
L 636.532647 -353.478666 
L 636.118478 -352.99291 
L 635.497226 -352.507154 
L 635.290142 -352.021398 
L 635.290142 -350.661281 
L 635.70431 -349.68977 
L 636.532647 -349.204014 
L 637.360983 -349.106863 
L 637.775151 -348.523955 
L 639.22474 -345.220815 
L 638.810571 -344.637908 
L 637.982235 -343.763547 
L 637.568067 -343.18064 
L 637.775151 -342.986338 
L 638.396403 -342.403431 
L 638.396403 -342.014826 
L 638.189319 -341.723373 
L 637.775151 -341.723373 
L 637.360983 -341.723373 
L 637.153899 -341.626221 
L 636.739731 -340.460407 
L 636.739731 -339.294593 
L 636.739731 -338.128779 
L 637.775151 -335.602848 
L 638.396403 -334.534185 
L 640.053076 -332.591161 
L 640.674328 -330.648137 
L 639.845992 -329.093719 
L 637.153899 -326.179183 
L 636.739731 -325.207671 
L 636.325563 -324.041857 
L 635.911394 -321.127321 
L 635.70431 -320.252961 
L 635.70431 -319.572902 
L 635.911394 -319.087147 
L 636.118478 -318.892844 
L 636.325563 -318.601391 
L 636.532647 -318.018484 
L 636.118478 -317.046972 
L 634.66889 -315.103948 
L 634.461806 -314.229587 
L 634.047638 -310.634994 
L 634.461806 -304.805922 
L 634.875974 -299.851212 
L 636.325563 -296.159467 
L 636.946815 -295.285106 
L 637.360983 -294.313595 
L 637.153899 -292.856327 
L 636.532647 -290.427547 
L 636.532647 -288.290221 
L 641.088496 -279.838068 
L 641.502664 -278.477952 
L 641.29558 -277.50644 
L 640.881412 -276.534928 
L 640.467244 -275.174811 
L 640.467244 -273.717543 
L 640.881412 -272.64888 
L 641.088496 -272.357427 
L 641.709748 -272.065973 
L 642.331001 -271.871671 
L 642.952253 -271.871671 
L 643.573505 -271.677369 
L 643.987673 -271.483066 
L 644.194757 -271.191613 
L 645.437262 -270.608706 
L 645.85143 -269.637194 
L 646.679766 -267.499868 
L 647.508103 -266.625507 
L 648.336439 -265.945449 
L 648.750607 -265.26539 
L 649.164775 -264.196727 
L 649.164775 -262.73946 
L 649.578943 -261.573645 
L 650.200196 -260.504982 
L 658.06939 -253.315795 
L 660.140231 -250.206957 
L 660.968567 -249.818352 
L 660.968567 -249.526899 
L 663.66066 -247.292421 
L 667.595258 -244.960793 
L 669.459015 -244.377886 
L 671.944023 -242.143409 
L 671.115687 -241.851955 
L 658.06939 -238.645966 
L 654.963129 -238.548815 
L 645.230178 -241.657653 
L 641.709748 -241.851955 
L 639.22474 -241.560501 
L 638.603487 -241.366199 
L 637.982235 -240.977594 
L 636.946815 -240.103234 
L 636.325563 -239.714629 
L 634.66889 -239.326024 
L 633.012217 -239.423175 
L 629.698872 -240.200385 
L 627.006779 -240.297536 
L 619.758836 -238.063059 
L 617.480912 -238.257361 
L 600.707102 -242.337711 
L 586.625384 -241.366199 
L 585.797048 -241.366199 
L 585.38288 -241.171897 
L 585.175796 -240.783292 
L 585.175796 -240.200385 
L 584.968712 -239.617478 
L 582.276619 -234.07986 
L 580.412862 -231.651081 
L 575.649928 -227.570731 
L 572.129499 -222.616021 
L 572.336583 -221.74166 
L 577.306601 -217.758461 
L 593.873327 -199.105434 
L 594.287495 -196.579503 
L 595.322916 -194.733631 
L 608.162128 -184.532756 
L 621.001341 -174.331882 
L 621.829677 -174.040428 
L 622.450929 -174.234731 
L 622.865098 -174.331882 
L 623.48635 -174.331882 
L 623.900518 -174.234731 
L 624.728854 -173.748975 
L 627.006779 -172.097405 
L 627.628031 -171.514498 
L 627.835115 -170.834439 
L 628.249284 -170.542986 
L 628.663452 -170.445835 
L 629.07762 -170.05723 
L 629.284704 -169.474323 
L 629.905956 -168.017055 
L 630.11304 -167.336997 
L 630.11304 -166.851241 
L 630.320124 -166.462636 
L 630.941377 -166.171182 
L 633.219301 -165.879729 
L 634.66889 -165.491124 
L 635.911394 -164.616763 
L 636.739731 -163.450949 
L 639.22474 -159.467751 
L 642.538085 -156.261762 
L 643.366421 -155.095947 
L 645.023094 -151.792807 
L 652.685204 -135.374257 
L 656.205634 -123.036057 
L 658.276474 -118.275649 
L 660.968567 -116.332625 
L 662.211072 -116.235474 
L 663.867745 -115.846869 
L 665.110249 -115.555415 
L 665.110249 -109.726344 
L 664.488997 -106.326053 
L 662.832324 -103.120064 
L 660.554399 -100.108377 
L 660.140231 -99.331168 
L 657.03397 -95.153667 
L 656.826886 -94.182155 
L 657.862306 -93.210643 
L 657.655222 -92.433434 
L 657.448138 -92.336282 
L 656.412718 -92.336282 
L 655.99855 -92.239131 
L 655.791466 -91.947678 
L 655.170213 -90.976166 
L 654.963129 -90.587561 
L 652.271036 -88.547386 
L 647.922271 -86.118607 
L 647.093934 -85.341397 
L 645.644346 -84.272734 
L 644.608926 -81.552501 
L 643.780589 -80.192384 
L 643.573505 -79.609477 
L 643.573505 -79.02657 
L 643.780589 -75.72343 
L 643.573505 -75.140523 
L 643.159337 -74.557616 
L 641.709748 -73.877557 
L 641.29558 -73.586104 
L 640.674328 -72.614592 
L 640.26016 -71.545929 
L 639.431824 -67.951335 
L 637.360983 -62.996625 
L 636.325563 -60.567845 
L 635.290142 -57.944763 
L 634.875974 -57.167554 
L 634.047638 -56.584647 
L 630.734292 -54.835925 
L 629.698872 -54.253018 
L 628.870536 -53.378657 
L 628.249284 -51.92139 
L 621.829677 -37.057258 
L 620.380089 -35.114235 
L 620.173005 -34.434176 
L 620.380089 -33.07406 
L 620.380089 -32.491153 
L 620.380089 -31.811095 
L 619.758836 -30.742431 
L 617.480912 -28.022198 
L 616.652575 -27.34214 
L 608.369212 -23.358941 
L 606.091288 -23.456093 
L 605.470035 -22.484581 
L 604.641699 -21.415918 
L 602.985026 -19.764348 
L 602.15669 -19.570045 
L 600.914186 -18.209929 
L 600.085849 -17.52987 
L 600.085849 -17.335568 
L 600.292933 -17.044114 
L 600.292933 -16.752661 
L 600.085849 -16.169754 
L 599.878765 -15.8783 
L 599.671681 -15.392544 
L 599.464597 -15.198242 
L 599.050429 -15.198242 
L 598.429177 -15.586847 
L 598.222093 -15.586847 
L 597.807925 -15.101091 
L 597.60084 -14.712486 
L 597.807925 -14.22673 
L 598.222093 -13.546672 
L 598.636261 -13.060916 
L 599.257513 -12.283706 
L 600.085849 -11.603648 
L 600.914186 -10.729288 
L 601.328354 -9.854927 
L 601.742522 -8.786264 
L 602.15669 -7.911903 
L 602.985026 -7.231845 
L 604.020447 -7.231845 
L 605.884203 -7.037542 
L 606.71254 -7.134694 
L 608.162128 -8.106206 
L 608.990465 -8.106206 
L 609.611717 -6.940391 
L 610.025885 -5.774577 
L 610.854221 -4.705914 
L 611.268389 1.414611 
L 611.682558 2.580425 
L 611.268389 3.454785 
L 610.440053 6.563623 
L 609.404633 9.186705 
L 609.197549 10.061066 
L 609.404633 11.032578 
L 609.611717 11.809787 
L 610.440053 13.169904 
L 610.854221 14.141416 
L 610.854221 14.821474 
L 610.854221 16.570195 
L 610.647137 17.153102 
L 609.818801 18.804673 
L 609.611717 19.776184 
L 609.611717 21.427755 
L 609.404633 22.010662 
L 608.576296 22.302115 
L 608.576296 22.787871 
L 608.162128 23.759383 
L 607.540876 24.633744 
L 607.333792 24.828046 
L 607.126708 25.605255 
L 606.919624 26.576767 
L 606.298372 27.548279 
L 605.677119 28.228337 
L 605.262951 28.325489 
L 605.470035 29.005547 
L 606.298372 29.977059 
L 607.540876 30.754268 
L 610.025885 31.628629 
L 611.268389 32.211536 
L 612.096726 33.085897 
L 612.717978 34.251711 
L 613.132146 35.611827 
L 613.546314 36.874793 
L 613.546314 39.789328 
L 613.753398 42.023806 
L 613.33923 44.161132 
L 613.33923 44.355434 
L 613.33923 45.229795 
L 613.546314 45.909853 
L 613.753398 46.395609 
L 614.167566 46.881365 
L 613.960482 48.435784 
L 614.167566 49.018691 
L 614.581735 49.601598 
L 614.788819 50.281656 
L 615.617155 55.722123 
L 615.617155 56.30503 
L 615.410071 57.762297 
L 615.202987 58.345205 
L 614.995903 58.733809 
L 615.410071 59.705321 
L 615.824239 64.077124 
L 616.652575 66.797358 
L 618.102164 69.226137 
L 620.173005 71.266312 
L 629.284704 77.483988 
L 631.769713 78.358349 
L 632.390965 78.844104 
L 632.805133 79.427012 
L 633.219301 80.884279 
L 633.63347 81.661489 
L 635.70431 84.090268 
L 636.532647 85.741839 
L 636.946815 87.296257 
L 637.568067 90.7937 
L 637.775151 93.999689 
L 637.982235 95.554108 
L 638.810571 96.137015 
L 639.638908 96.039864 
L 640.467244 96.331318 
L 640.881412 97.108527 
L 641.088496 97.982888 
L 641.29558 98.371492 
L 642.123917 98.371492 
L 642.952253 98.468644 
L 643.780589 98.9544 
L 643.780589 99.634458 
L 642.745169 100.120214 
L 641.502664 100.411667 
L 639.22474 101.48033 
L 638.189319 101.674633 
L 637.153899 101.577482 
L 635.290142 101.091726 
L 634.254722 101.091726 
L 637.775151 109.155274 
L 642.745169 116.441613 
L 647.301019 121.396323 
L 647.922271 121.97923 
L 651.856868 126.156731 
L 656.619802 131.208593 
L 662.62524 137.620571 
L 668.21651 143.643944 
L 673.80778 149.375864 
L 677.949462 153.94197 
L 678.36363 154.233423 
L 678.984882 154.330575 
L 679.606134 154.427726 
L 679.813218 154.330575 
L 680.434471 154.039121 
L 680.848639 153.844819 
L 681.262807 153.94197 
L 681.676975 154.330575 
L 682.091143 154.427726 
L 684.576152 154.136272 
L 685.404488 154.524877 
L 686.439909 155.399238 
L 687.475329 156.662203 
L 687.889497 157.730866 
L 688.717834 160.645402 
L 688.924918 160.936855 
L 689.132002 161.228309 
L 689.339086 161.422611 
L 690.167422 161.228309 
L 690.788674 161.034006 
L 691.202842 161.034006 
L 691.824095 161.32546 
L 692.238263 161.811216 
L 693.480767 163.559937 
L 694.309104 165.502961 
L 695.13744 166.668775 
L 695.758692 168.028892 
L 695.758692 169.486159 
L 695.344524 170.846276 
L 693.894935 172.400695 
L 693.687851 173.955114 
L 693.894935 175.898138 
L 693.687851 176.675347 
L 693.894935 177.161103 
L 694.516188 177.258254 
L 695.344524 177.063952 
L 695.965776 177.161103 
L 696.794113 177.258254 
L 696.17286 178.132615 
L 695.758692 178.909824 
L 695.551608 179.589883 
L 695.758692 180.755697 
L 696.587028 182.795872 
L 696.794113 183.961686 
L 696.587028 185.030349 
L 695.551608 186.973373 
L 695.551608 188.333489 
L 695.758692 189.013547 
L 696.587028 190.373664 
L 696.794113 191.442327 
L 696.794113 193.579653 
L 696.794113 194.065409 
L 697.208281 195.231223 
L 698.036617 196.688491 
L 699.072037 197.951456 
L 699.486205 198.534364 
L 699.69329 199.020119 
L 699.900374 199.505875 
L 699.900374 200.67169 
L 700.107458 200.963143 
L 700.935794 201.448899 
L 701.142878 201.643201 
L 701.142878 202.128957 
L 700.72871 202.906167 
L 700.72871 203.489074 
L 701.349962 203.877679 
L 701.76413 204.071981 
L 701.971214 204.363435 
L 702.385383 204.849191 
L 701.76413 205.432098 
L 699.486205 207.180819 
L 698.450785 206.209307 
L 697.208281 205.917854 
L 696.379944 206.500761 
L 695.965776 207.763726 
L 695.344524 209.123843 
L 695.13744 209.70675 
L 695.344524 210.483959 
L 695.551608 210.969715 
L 695.758692 211.552622 
L 695.551608 212.329832 
L 695.344524 212.426983 
L 695.13744 212.426983 
L 694.930356 212.426983 
L 694.723272 212.718436 
L 694.723272 213.107041 
L 694.723272 213.301344 
L 694.723272 213.495646 
L 694.930356 213.981402 
L 695.13744 214.467158 
L 695.13744 214.952914 
L 694.10202 216.215879 
L 694.10202 216.798786 
L 694.10202 218.838961 
L 694.309104 219.227566 
L 694.723272 219.324717 
L 695.13744 219.810473 
L 696.17286 221.559194 
L 698.036617 226.611056 
L 699.486205 232.925883 
L 699.279121 233.800243 
L 698.657869 234.091697 
L 697.415365 233.703092 
L 697.001197 233.800243 
L 694.309104 237.491988 
L 692.031179 234.577453 
L 691.617011 233.605941 
L 691.617011 233.023034 
L 691.824095 232.440127 
L 691.824095 231.954371 
L 691.617011 231.274313 
L 691.202842 230.788557 
L 690.58159 230.594254 
L 689.753254 230.497103 
L 689.132002 230.885708 
L 688.303665 230.497103 
L 687.061161 230.20565 
L 686.232825 229.817045 
L 686.025741 228.942684 
L 685.404488 229.234138 
L 684.783236 229.525591 
L 683.9549 229.525591 
L 683.747816 229.039835 
L 683.540732 228.165475 
L 683.126564 227.77687 
L 682.712395 227.485416 
L 681.262807 226.611056 
L 679.813218 226.1253 
L 678.984882 225.736695 
L 676.914041 222.919311 
L 676.499873 222.627857 
L 675.050285 222.433555 
L 674.429032 222.142101 
L 673.80778 221.850648 
L 673.393612 221.559194 
L 668.009426 220.976287 
L 663.039408 219.519019 
L 660.554399 219.033263 
L 658.06939 219.421868 
L 655.170213 221.170589 
L 653.927709 221.559194 
L 652.892289 222.04495 
L 652.271036 222.142101 
L 652.271036 222.04495 
L 650.821448 221.462043 
L 650.614364 221.364892 
L 650.200196 220.879136 
L 650.200196 220.684834 
L 650.200196 220.39338 
L 650.200196 219.616171 
L 650.200196 219.130415 
L 649.786027 218.74181 
L 649.371859 218.353205 
L 647.508103 217.673147 
L 647.093934 217.478844 
L 646.88685 217.09024 
L 646.472682 216.215879 
L 646.265598 215.827274 
L 645.023094 215.341518 
L 644.194757 215.632972 
L 643.366421 216.021577 
L 641.502664 215.341518 
L 640.881412 216.993089 
L 640.053076 216.701635 
L 639.638908 216.701635 
L 639.017655 217.575996 
L 638.189319 218.547508 
L 637.153899 218.838961 
L 636.532647 217.867449 
L 635.290142 218.158903 
L 634.461806 217.9646 
L 631.769713 215.730123 
L 631.148461 215.632972 
L 630.734292 217.09024 
L 630.11304 217.284542 
L 628.870536 217.478844 
L 626.592611 217.284542 
L 626.799695 215.924426 
L 627.420947 214.272855 
L 626.385527 213.495646 
L 626.178443 212.912739 
L 625.350107 211.844076 
L 624.52177 210.969715 
L 624.314686 211.35832 
L 624.314686 212.038378 
L 624.107602 212.718436 
L 623.693434 213.301344 
L 622.865098 213.495646 
L 619.344668 213.884251 
L 619.137584 213.592797 
L 619.137584 212.329832 
L 619.137584 211.941227 
L 618.723416 211.941227 
L 618.309248 212.038378 
L 617.687996 212.135529 
L 617.066744 211.941227 
L 617.480912 211.746925 
L 618.309248 211.164017 
L 616.859659 210.289657 
L 616.445491 210.483959 
L 616.652575 211.941227 
L 615.824239 211.552622 
L 614.788819 210.386808 
L 613.960482 209.901052 
L 612.510894 209.998203 
L 611.889642 209.70675 
L 612.30381 208.832389 
L 611.061305 208.152331 
L 609.197549 206.015005 
L 607.540876 205.6264 
L 607.333792 206.015005 
L 606.919624 206.500761 
L 606.919624 207.083668 
L 606.919624 207.569424 
L 606.71254 208.05518 
L 606.298372 208.249482 
L 601.742522 209.220994 
L 600.500017 209.998203 
L 600.292933 210.095354 
L 599.464597 209.901052 
L 598.222093 208.832389 
L 597.393756 208.346633 
L 593.666243 207.860877 
L 591.181234 208.832389 
L 590.767066 208.92954 
L 584.554544 208.832389 
L 575.442844 208.735238 
L 565.088641 208.638087 
L 555.976941 208.540936 
L 553.491932 208.540936 
L 544.587317 208.443784 
L 534.647282 208.443784 
L 534.647282 206.986517 
L 534.854366 205.237795 
L 534.647282 204.363435 
L 534.233113 203.683376 
L 533.197693 202.906167 
L 532.369357 202.32326 
L 531.748104 202.031806 
L 531.333936 202.128957 
L 530.5056 202.517562 
L 530.091432 202.517562 
L 529.677264 202.32326 
L 528.848927 201.643201 
L 527.192255 201.351748 
L 525.535582 201.254597 
L 524.91433 201.448899 
L 524.293078 201.934655 
L 523.050573 203.100469 
L 522.636405 203.294772 
L 520.151396 203.586225 
L 518.494724 202.906167 
L 517.666387 202.711864 
L 516.838051 203.100469 
L 516.216799 203.294772 
L 515.181378 203.100469 
L 513.524706 202.517562 
L 512.903454 203.003318 
L 512.282201 203.294772 
L 511.453865 203.19762 
L 510.625529 202.906167 
L 510.211361 203.586225 
L 508.968856 203.294772 
L 507.726352 202.711864 
L 506.690931 202.517562 
L 506.069679 202.809016 
L 505.448427 203.294772 
L 504.620091 203.780527 
L 503.377586 204.071981 
L 495.715475 202.906167 
L 494.265887 202.420411 
L 493.230466 201.643201 
L 491.987962 202.031806 
L 490.952542 201.643201 
L 487.846281 200.67169 
L 485.568356 200.477387 
L 482.462095 201.254597 
L 481.426674 200.963143 
L 479.562917 199.89448 
L 478.734581 199.603027 
L 478.113329 199.700178 
L 477.077909 200.283085 
L 476.456656 200.477387 
L 475.214152 200.574538 
L 473.143311 201.351748 
L 471.900807 201.54605 
L 469.415798 201.448899 
L 467.137873 201.060294 
L 466.102453 201.060294 
L 462.582023 201.351748 
L 458.233258 201.060294 
L 453.884492 201.448899 
L 448.914474 201.254597 
L 446.843634 201.54605 
L 446.015297 201.448899 
L 443.11612 200.477387 
L 441.873616 199.505875 
L 441.252364 199.214422 
L 440.631111 199.117271 
L 439.802775 199.311573 
L 438.353187 199.797329 
L 423.028965 200.380236 
L 422.821881 200.865992 
L 423.028965 201.643201 
L 423.236049 202.420411 
L 422.821881 203.19762 
L 422.407713 203.780527 
L 421.993545 204.460586 
L 421.993545 205.432098 
L 421.993545 206.112156 
L 421.78646 206.889365 
L 421.579376 207.472272 
L 421.165208 208.152331 
L 403.97723 208.152331 
L 386.789252 208.152331 
L 369.601273 208.152331 
L 368.772937 208.152331 
L 356.140809 208.152331 
L 352.413295 208.152331 
L 344.751184 208.152331 
L 343.50868 207.958028 
L 339.988251 206.112156 
L 338.95283 205.917854 
L 337.91741 205.529249 
L 336.467821 204.557737 
L 335.018233 203.294772 
L 334.396981 202.420411 
L 334.189897 201.254597 
L 334.396981 200.088782 
L 334.396981 199.020119 
L 333.775728 198.048608 
L 334.396981 197.368549 
L 334.396981 196.979945 
L 334.811149 196.008433 
L 335.018233 185.321802 
L 336.674906 177.549708 
L 337.710326 175.218079 
L 337.91741 174.246567 
L 338.124494 166.960229 
L 338.745746 164.337147 
L 339.574083 161.908367 
L 340.816587 160.256797 
L 342.059091 158.799529 
L 342.680344 157.24511 
L 342.887428 155.399238 
L 340.609503 147.044236 
L 339.574083 145.684119 
L 339.574083 145.295515 
L 340.195335 145.295515 
L 340.402419 145.198363 
L 341.230755 144.90691 
L 341.230755 144.518305 
L 340.195335 144.615456 
L 339.574083 144.421154 
L 339.159914 144.1297 
L 338.745746 143.741096 
L 338.331578 143.158188 
L 336.88199 140.340804 
L 332.533224 134.997489 
L 330.255299 132.957314 
L 324.664029 129.071267 
L 325.906534 128.876964 
L 327.356122 128.099755 
L 332.119056 124.505161 
L 333.36156 124.019405 
L 334.811149 124.019405 
L 332.947392 123.436498 
L 331.29072 124.116556 
L 329.841131 125.088068 
L 328.391543 125.573824 
L 324.456945 125.962429 
L 323.628609 125.573824 
L 323.421525 124.893766 
L 323.628609 124.116556 
L 324.664029 123.6308 
L 323.007357 119.550451 
L 320.108179 115.761554 
L 319.486927 114.304287 
L 319.072759 112.94417 
L 320.522348 114.401438 
L 320.936516 114.498589 
L 321.1436 114.790043 
L 321.557768 116.053008 
L 321.971936 116.538764 
L 322.593188 116.830218 
L 323.628609 116.927369 
L 325.906534 116.927369 
L 325.285281 116.635915 
L 323.421525 116.150159 
L 322.800272 115.761554 
L 322.593188 115.567252 
L 322.386104 115.275799 
L 321.971936 114.692891 
L 321.557768 113.527077 
L 321.764852 112.069809 
L 322.386104 110.709693 
L 323.421525 109.835332 
L 325.69945 111.778356 
L 326.73487 112.069809 
L 327.356122 110.612542 
L 329.219879 111.584054 
L 330.048215 112.166961 
L 330.462383 112.94417 
L 330.876551 112.361263 
L 330.876551 111.778356 
L 330.669467 111.195449 
L 330.255299 110.612542 
L 330.876551 110.612542 
L 328.184458 109.64103 
L 326.941954 108.86382 
L 326.527786 107.795157 
L 327.356122 107.017948 
L 328.805711 106.532192 
L 330.462383 106.240738 
L 331.704888 106.240738 
L 331.704888 106.046436 
L 331.497804 105.852134 
L 331.29072 105.463529 
L 331.497804 105.366378 
L 331.704888 105.366378 
L 331.704888 105.074924 
L 325.906534 106.046436 
L 324.249861 105.852134 
L 323.214441 104.880622 
L 323.628609 103.423354 
L 324.456945 102.063237 
L 325.69945 101.48033 
L 326.527786 100.60597 
L 329.012795 96.914225 
L 330.669467 96.039864 
L 330.876551 95.748411 
L 331.29072 95.165503 
L 331.083635 94.776899 
L 330.255299 95.165503 
L 329.012795 95.942713 
L 328.598627 96.52562 
L 328.184458 97.205678 
L 327.77029 97.205678 
L 327.77029 96.039864 
L 326.73487 96.817074 
L 324.871113 99.634458 
L 323.835693 100.800272 
L 322.593188 101.383179 
L 320.936516 101.868935 
L 319.901095 101.674633 
L 319.901095 100.314516 
L 319.072759 101.091726 
L 318.037339 100.508819 
L 317.001918 99.440156 
L 316.380666 98.17719 
L 316.794834 96.817074 
L 315.966498 95.942713 
L 315.138162 96.234166 
L 313.688573 97.982888 
L 313.688573 98.17719 
L 313.895657 98.468644 
L 314.516909 98.662946 
L 314.931078 98.760097 
L 315.55233 99.148702 
L 315.55233 99.440156 
L 316.173582 100.800272 
L 316.794834 101.48033 
L 317.830255 102.25754 
L 318.244423 103.229052 
L 317.623171 104.297715 
L 316.794834 104.006261 
L 316.380666 103.90911 
L 315.966498 103.714808 
L 315.138162 103.131901 
L 314.309825 101.868935 
L 314.102741 101.674633 
L 313.895657 101.48033 
L 313.688573 101.286028 
L 313.688573 100.800272 
L 312.860237 100.800272 
L 312.446069 101.091726 
L 312.031901 101.48033 
L 312.031901 102.160389 
L 313.481489 103.034749 
L 313.895657 103.520505 
L 314.102741 104.200564 
L 313.895657 104.686319 
L 313.688573 105.269227 
L 313.688573 106.046436 
L 313.688573 106.532192 
L 314.723994 107.017948 
L 315.138162 107.406553 
L 314.309825 107.795157 
L 313.481489 107.98946 
L 311.410648 108.183762 
L 310.375228 108.086611 
L 308.304387 107.600855 
L 307.476051 107.406553 
L 305.819378 106.532192 
L 305.198126 104.589168 
L 305.40521 102.451842 
L 306.440631 101.091726 
L 306.440631 100.800272 
L 304.991042 101.091726 
L 304.36979 102.063237 
L 303.955622 103.034749 
L 302.091865 104.880622 
L 300.435192 104.589168 
L 299.81394 104.686319 
L 299.81394 103.617656 
L 300.021024 102.840447 
L 299.81394 102.160389 
L 298.985604 101.48033 
L 298.364352 101.383179 
L 297.328931 101.383179 
L 296.293511 101.48033 
L 295.672259 101.674633 
L 294.843922 101.577482 
L 291.737661 99.634458 
L 286.767643 97.302829 
L 285.939307 96.817074 
L 285.939307 95.165503 
L 286.974727 91.765212 
L 287.181812 90.113642 
L 285.318055 88.462072 
L 284.07555 86.519048 
L 283.04013 84.284571 
L 281.590541 76.123871 
L 282.00471 74.666604 
L 283.454298 72.140673 
L 284.07555 70.780556 
L 282.625962 72.140673 
L 282.00471 72.626429 
L 281.590541 71.752068 
L 281.797626 71.07201 
L 282.00471 70.391951 
L 282.211794 69.614742 
L 282.00471 68.837532 
L 281.590541 68.351777 
L 280.348037 67.963172 
L 279.933869 66.99166 
L 279.519701 66.311602 
L 278.898449 65.825846 
L 278.48428 65.631543 
L 278.277196 66.408753 
L 279.933869 69.031835 
L 280.348037 70.391951 
L 280.140953 71.266312 
L 279.519701 71.460614 
L 279.105533 71.07201 
L 278.898449 70.197649 
L 276.206356 67.963172 
L 275.999271 68.740381 
L 276.206356 69.323288 
L 276.41344 69.809044 
L 276.827608 70.003347 
L 276.206356 71.363463 
L 275.999271 71.557766 
L 275.585103 71.460614 
L 274.342599 70.780556 
L 274.135515 70.586254 
L 273.721347 70.100498 
L 272.685926 69.711893 
L 271.85759 69.226137 
L 271.443422 68.157474 
L 270.82217 66.117299 
L 268.130077 62.425554 
L 267.922993 60.093926 
L 266.887572 61.551194 
L 267.30174 63.202764 
L 268.130077 64.951485 
L 269.579665 70.2948 
L 270.200917 70.780556 
L 270.82217 71.07201 
L 271.443422 71.557766 
L 271.650506 73.112185 
L 270.615085 73.792243 
L 263.367143 74.277999 
L 262.745891 73.986545 
L 262.952975 73.306487 
L 263.781311 72.529277 
L 264.402563 71.94637 
L 263.574227 71.654917 
L 262.952975 71.654917 
L 262.538807 71.94637 
L 262.124638 73.112185 
L 261.71047 73.403638 
L 261.089218 73.306487 
L 260.467966 73.112185 
L 259.432545 72.237824 
z
" clip-path="url(#p90cd7b19a1)" style="fill: #bdc3c7; stroke: #ffffff; stroke-width: 0.5"/>
    <path d="M 270.200917 366.508761 
L 271.029254 365.245796 
L 271.443422 365.731552 
L 270.82217 366.800215 
L 271.443422 367.285971 
L 273.307178 367.674575 
L 273.100094 368.160331 
L 273.100094 368.548936 
L 273.100094 368.84039 
L 273.307178 369.228994 
L 274.549683 369.131843 
L 275.378019 370.589111 
L 275.999271 372.532135 
L 276.206356 374.960914 
L 276.620524 375.738124 
L 277.034692 376.418182 
L 277.863028 376.709636 
L 278.277196 377.09824 
L 278.48428 377.972601 
L 278.691364 378.74981 
L 279.726785 379.041264 
L 279.105533 378.069752 
L 279.312617 377.09824 
L 279.519701 376.126728 
L 279.726785 374.960914 
L 279.933869 374.086554 
L 280.762205 374.086554 
L 281.797626 374.280856 
L 282.833046 374.378007 
L 282.833046 373.989402 
L 282.211794 373.697949 
L 281.590541 373.212193 
L 281.176373 372.629286 
L 281.176373 371.949228 
L 281.590541 371.560623 
L 282.211794 371.657774 
L 283.661382 372.240681 
L 284.282634 373.115042 
L 284.696803 374.086554 
L 284.696803 374.960914 
L 285.318055 376.126728 
L 287.388896 378.069752 
L 288.010148 379.041264 
L 288.010148 380.207078 
L 287.59598 382.247253 
L 288.010148 383.024463 
L 288.424316 383.024463 
L 288.6314 381.9558 
L 288.838484 378.458357 
L 289.045568 377.389694 
L 290.495157 375.932426 
L 290.702241 374.960914 
L 290.702241 374.183705 
L 290.702241 373.7951 
L 290.702241 373.600798 
L 291.116409 373.115042 
L 291.530577 372.920739 
L 292.358913 372.629286 
L 292.773082 372.434983 
L 292.773082 371.852076 
L 292.773082 371.172018 
L 292.773082 370.686262 
L 293.394334 370.394809 
L 294.22267 371.949228 
L 294.22267 370.589111 
L 293.394334 369.71475 
L 292.980166 368.743238 
L 293.394334 367.18882 
L 296.914763 364.177133 
L 297.950183 362.136958 
L 303.127285 356.502189 
L 304.576874 354.267712 
L 305.40521 351.838932 
L 305.198126 344.455442 
L 305.612294 343.192477 
L 307.061883 340.666546 
L 307.268967 339.500732 
L 307.268967 338.820674 
L 307.683135 337.654859 
L 307.683135 336.87765 
L 307.476051 336.391894 
L 306.854799 334.934626 
L 306.854799 334.157417 
L 307.061883 333.477359 
L 307.476051 332.894451 
L 307.890219 332.311544 
L 308.097303 331.825788 
L 308.097303 331.340033 
L 307.683135 330.854277 
L 307.683135 330.368521 
L 307.476051 329.202706 
L 305.612294 318.321774 
L 304.783958 316.37875 
L 304.991042 315.892994 
L 305.40521 314.338575 
L 305.40521 314.047122 
L 305.819378 313.852819 
L 307.476051 312.2984 
L 308.097303 312.104098 
L 308.718555 312.492703 
L 309.339808 313.658517 
L 309.546892 315.018634 
L 309.339808 316.184448 
L 308.718555 318.321774 
L 308.925639 319.001832 
L 309.132724 319.68189 
L 309.132724 320.167646 
L 308.511471 320.264797 
L 308.304387 320.556251 
L 308.097303 321.139158 
L 308.304387 321.819216 
L 308.511471 322.304972 
L 308.925639 321.819216 
L 309.132724 321.333461 
L 309.546892 320.944856 
L 310.168144 320.750553 
L 312.031901 320.750553 
L 312.446069 320.944856 
L 312.653153 321.722065 
L 314.102741 323.179333 
L 314.723994 324.247996 
L 314.931078 326.482473 
L 315.345246 326.773927 
L 315.759414 327.06538 
L 316.173582 327.06538 
L 316.380666 326.482473 
L 315.966498 323.956543 
L 316.173582 322.985031 
L 316.794834 321.916368 
L 319.486927 322.693577 
L 320.315264 323.082182 
L 320.522348 323.76224 
L 321.1436 325.705264 
L 321.350684 326.288171 
L 321.764852 325.899566 
L 323.421525 324.247996 
L 323.835693 323.859391 
L 324.664029 323.956543 
L 325.285281 324.247996 
L 325.906534 325.41381 
L 328.598627 324.928054 
L 330.669467 327.06538 
L 332.533224 329.882765 
L 334.396981 331.340033 
L 332.32614 327.551136 
L 331.497804 326.482473 
L 331.29072 325.510961 
L 332.533224 325.025206 
L 333.982813 325.025206 
L 334.811149 325.899566 
L 335.639485 325.41381 
L 336.674906 324.053694 
L 337.296158 323.470787 
L 339.159914 322.207821 
L 339.988251 321.916368 
L 340.816587 321.916368 
L 342.680344 322.596426 
L 343.50868 322.693577 
L 344.337016 322.693577 
L 346.614941 321.916368 
L 346.614941 321.527763 
L 343.715764 321.527763 
L 342.680344 321.236309 
L 341.644923 320.264797 
L 340.609503 320.847705 
L 339.574083 321.430612 
L 338.538662 321.819216 
L 333.982813 322.013519 
L 333.36156 322.304972 
L 330.669467 321.430612 
L 330.048215 320.944856 
L 329.012795 320.167646 
L 328.598627 319.876193 
L 326.73487 319.973344 
L 326.113618 319.68189 
L 323.421525 317.641716 
L 321.350684 316.37875 
L 320.522348 315.601541 
L 320.315264 314.435726 
L 319.901095 314.435726 
L 319.486927 315.115785 
L 319.279843 315.310087 
L 318.451507 315.212936 
L 318.037339 315.310087 
L 316.794834 315.892994 
L 316.380666 315.990145 
L 315.966498 315.310087 
L 315.55233 313.269912 
L 314.931078 312.881307 
L 314.102741 312.006947 
L 311.410648 305.69212 
L 310.582312 304.623457 
L 308.925639 302.777584 
L 307.890219 302.291828 
L 306.854799 302.38898 
L 306.026462 302.291828 
L 305.198126 301.417468 
L 305.198126 300.543107 
L 305.40521 297.434269 
L 305.819378 296.754211 
L 307.061883 296.559909 
L 308.511471 296.268455 
L 309.132724 296.074153 
L 310.168144 295.394094 
L 310.789396 295.102641 
L 311.617732 295.00549 
L 312.031901 295.199792 
L 312.653153 295.394094 
L 313.481489 295.491245 
L 313.895657 295.394094 
L 314.723994 294.811187 
L 315.759414 294.422582 
L 316.58775 293.839675 
L 317.623171 293.451071 
L 318.658591 293.548222 
L 319.694011 294.422582 
L 320.108179 295.782699 
L 319.901095 296.948513 
L 318.865675 297.53142 
L 316.380666 296.948513 
L 315.138162 297.142816 
L 314.309825 298.30863 
L 315.759414 297.822874 
L 317.416087 298.017176 
L 318.658591 298.697235 
L 319.072759 300.251654 
L 319.694011 300.057351 
L 320.315264 299.668746 
L 320.522348 298.988688 
L 320.729432 298.30863 
L 321.350684 299.18299 
L 321.557768 300.834561 
L 321.1436 302.486131 
L 320.729432 303.360491 
L 321.1436 305.012062 
L 321.764852 305.497817 
L 322.593188 305.69212 
L 322.386104 304.817759 
L 322.386104 303.651945 
L 322.800272 302.680433 
L 323.214441 302.194677 
L 323.628609 301.708921 
L 324.249861 299.18299 
L 324.664029 298.30863 
L 323.835693 297.142816 
L 323.628609 295.977001 
L 323.835693 293.159617 
L 323.214441 286.359034 
L 321.1436 280.918568 
L 321.1436 279.558451 
L 320.729432 278.586939 
L 320.315264 278.004032 
L 319.901095 277.323974 
L 320.315264 276.15816 
L 320.936516 274.992346 
L 321.764852 274.409438 
L 322.593188 274.215136 
L 323.628609 274.215136 
L 324.664029 273.923683 
L 325.285281 273.243624 
L 325.69945 272.466415 
L 326.113618 271.883508 
L 327.149038 271.689205 
L 330.462383 271.786357 
L 331.497804 272.07781 
L 332.32614 273.340775 
L 332.740308 275.769555 
L 333.36156 277.03252 
L 333.775728 276.061009 
L 333.982813 275.283799 
L 335.639485 275.478102 
L 336.467821 275.769555 
L 337.503242 276.449613 
L 338.95283 278.198335 
L 339.988251 278.975544 
L 341.023671 279.364149 
L 342.059091 279.558451 
L 342.887428 279.364149 
L 343.50868 278.684091 
L 343.715764 277.906881 
L 343.715764 276.15816 
L 344.129932 275.38095 
L 345.165353 275.186648 
L 346.822025 274.992346 
L 353.241632 274.992346 
L 369.187105 275.089497 
L 370.42961 275.089497 
L 387.617588 275.089497 
L 400.663885 275.186648 
L 404.805566 275.186648 
L 421.993545 275.283799 
L 421.993545 260.128214 
L 421.993545 245.069781 
L 421.78646 233.023034 
L 421.78646 230.011347 
L 421.78646 214.952914 
L 421.78646 210.289657 
L 421.165208 208.152331 
L 421.579376 207.472272 
L 421.78646 206.889365 
L 421.993545 206.112156 
L 421.993545 205.432098 
L 421.993545 204.460586 
L 422.407713 203.780527 
L 422.821881 203.19762 
L 423.236049 202.420411 
L 423.028965 201.643201 
L 422.821881 200.865992 
L 423.028965 200.380236 
L 438.353187 199.797329 
L 439.802775 199.311573 
L 440.631111 199.117271 
L 441.252364 199.214422 
L 441.873616 199.505875 
L 443.11612 200.477387 
L 446.015297 201.448899 
L 446.843634 201.54605 
L 448.914474 201.254597 
L 453.884492 201.448899 
L 458.233258 201.060294 
L 462.582023 201.351748 
L 466.102453 201.060294 
L 467.137873 201.060294 
L 469.415798 201.448899 
L 471.900807 201.54605 
L 473.143311 201.351748 
L 475.214152 200.574538 
L 476.456656 200.477387 
L 477.077909 200.283085 
L 478.113329 199.700178 
L 478.734581 199.603027 
L 479.562917 199.89448 
L 481.426674 200.963143 
L 482.462095 201.254597 
L 485.568356 200.477387 
L 487.846281 200.67169 
L 490.952542 201.643201 
L 491.987962 202.031806 
L 493.230466 201.643201 
L 494.265887 202.420411 
L 495.715475 202.906167 
L 503.377586 204.071981 
L 504.620091 203.780527 
L 505.448427 203.294772 
L 506.069679 202.809016 
L 506.690931 202.517562 
L 507.726352 202.711864 
L 508.968856 203.294772 
L 510.211361 203.586225 
L 510.625529 202.906167 
L 511.453865 203.19762 
L 512.282201 203.294772 
L 512.903454 203.003318 
L 513.524706 202.517562 
L 515.181378 203.100469 
L 516.216799 203.294772 
L 516.838051 203.100469 
L 517.666387 202.711864 
L 518.494724 202.906167 
L 520.151396 203.586225 
L 522.636405 203.294772 
L 523.050573 203.100469 
L 524.293078 201.934655 
L 524.91433 201.448899 
L 525.535582 201.254597 
L 527.192255 201.351748 
L 528.848927 201.643201 
L 529.677264 202.32326 
L 530.091432 202.517562 
L 530.5056 202.517562 
L 531.333936 202.128957 
L 531.748104 202.031806 
L 532.369357 202.32326 
L 533.197693 202.906167 
L 534.233113 203.683376 
L 534.647282 204.363435 
L 534.854366 205.237795 
L 534.647282 206.986517 
L 534.647282 208.443784 
L 534.647282 211.844076 
L 534.647282 213.689948 
L 534.026029 215.050065 
L 531.955189 216.215879 
L 531.54102 216.507333 
L 530.5056 217.575996 
L 530.298516 217.867449 
L 529.677264 218.061752 
L 529.677264 218.547508 
L 530.091432 219.616171 
L 529.884348 220.199078 
L 529.677264 220.587682 
L 529.263096 220.976287 
L 528.848927 221.364892 
L 528.434759 222.04495 
L 528.020591 223.016462 
L 527.399339 223.210764 
L 527.192255 223.405067 
L 527.813507 224.47373 
L 528.227675 225.445242 
L 528.641843 225.930998 
L 528.848927 226.611056 
L 528.848927 227.485416 
L 528.227675 229.622743 
L 527.813507 230.497103 
L 527.192255 231.274313 
L 526.363919 231.662917 
L 526.778087 232.634429 
L 526.778087 233.703092 
L 526.363919 234.771755 
L 526.156834 235.93757 
L 526.363919 238.560651 
L 526.156834 240.017919 
L 525.328498 241.086582 
L 526.156834 242.738152 
L 527.192255 244.292571 
L 527.606423 243.806815 
L 528.227675 244.292571 
L 528.641843 244.97263 
L 528.848927 245.749839 
L 528.434759 246.6242 
L 529.677264 247.207107 
L 530.712684 250.024491 
L 531.54102 250.607398 
L 531.54102 251.093154 
L 531.54102 253.813387 
L 531.54102 254.201992 
L 531.54102 254.687748 
L 531.748104 255.076353 
L 532.162273 255.756411 
L 532.162273 256.047865 
L 531.748104 256.242167 
L 531.126852 257.407981 
L 530.298516 257.990888 
L 529.47018 258.282342 
L 528.641843 258.476644 
L 528.227675 258.768098 
L 528.020591 259.642458 
L 527.606423 260.322517 
L 526.363919 260.419668 
L 526.985171 260.905424 
L 527.606423 261.196877 
L 528.227675 261.585482 
L 528.434759 262.362692 
L 529.056011 262.459843 
L 530.298516 262.26554 
L 532.162273 262.459843 
L 533.404777 262.168389 
L 534.440197 261.779785 
L 535.475618 260.419668 
L 536.511038 260.322517 
L 537.546459 260.031063 
L 537.960627 258.9624 
L 538.374795 258.573795 
L 539.410215 258.282342 
L 540.65272 258.08804 
L 541.68814 258.185191 
L 543.551897 258.865249 
L 545.415653 259.253854 
L 547.072326 259.253854 
L 549.143167 258.865249 
L 549.764419 258.379493 
L 551.006923 256.630772 
L 553.077764 255.756411 
L 553.906101 255.173504 
L 554.734437 254.590597 
L 555.769857 254.493446 
L 556.391109 254.590597 
L 557.012362 254.493446 
L 558.047782 254.299143 
L 558.46195 254.104841 
L 559.083202 253.619085 
L 559.497371 253.424783 
L 559.704455 253.521934 
L 560.325707 253.813387 
L 560.532791 253.910539 
L 561.154043 253.619085 
L 561.361127 253.521934 
L 562.189464 252.161817 
L 562.603632 250.70455 
L 562.603632 250.413096 
L 563.431968 250.218794 
L 574.407424 251.190305 
L 575.442844 251.481759 
L 576.478265 252.064666 
L 577.306601 252.939027 
L 578.134937 253.521934 
L 579.377442 253.619085 
L 581.448283 252.841876 
L 582.483703 252.550422 
L 583.519123 252.647573 
L 585.797048 253.327631 
L 586.4183 253.619085 
L 586.832469 254.00769 
L 587.246637 254.299143 
L 587.867889 254.493446 
L 587.867889 254.784899 
L 588.074973 255.076353 
L 588.489141 255.367806 
L 589.110393 255.65926 
L 589.731646 256.145016 
L 590.145814 256.825074 
L 590.97415 260.419668 
L 591.181234 261.876936 
L 591.181234 266.248739 
L 591.595402 267.706007 
L 592.423739 268.871821 
L 595.322916 270.231938 
L 595.944168 271.397752 
L 596.979588 274.312287 
L 597.60084 275.672404 
L 598.429177 276.935369 
L 599.257513 278.004032 
L 600.500017 279.072695 
L 601.742522 279.752754 
L 602.15669 280.23851 
L 602.15669 281.015719 
L 601.535438 281.501475 
L 600.914186 281.89008 
L 600.500017 282.375836 
L 600.707102 283.055894 
L 601.12127 285.776127 
L 599.050429 288.107755 
L 596.358336 290.439384 
L 594.701663 292.771012 
L 594.701663 295.782699 
L 594.287495 296.948513 
L 589.93873 300.640258 
L 589.731646 301.028863 
L 589.317477 301.223165 
L 588.696225 301.514619 
L 585.797048 301.708921 
L 582.483703 301.320317 
L 579.584526 301.708921 
L 577.927853 304.137701 
L 578.549105 305.303515 
L 578.963274 306.469329 
L 578.75619 307.732295 
L 577.720769 308.898109 
L 573.372004 311.229737 
L 572.129499 312.589854 
L 570.058658 317.15596 
L 568.194902 320.070495 
L 567.987818 321.430612 
L 568.194902 322.887879 
L 568.816154 324.636601 
L 569.023238 326.093869 
L 569.230322 330.174218 
L 569.64449 330.659974 
L 570.265742 330.659974 
L 571.094079 330.757125 
L 571.508247 331.437184 
L 571.301163 332.020091 
L 570.472827 333.088754 
L 570.265742 333.671661 
L 570.472827 334.546022 
L 570.679911 335.128929 
L 570.679911 335.808987 
L 570.265742 336.489045 
L 569.64449 337.071952 
L 568.816154 338.043464 
L 566.331145 341.540907 
L 565.709893 342.901023 
L 565.502809 344.552594 
L 568.194902 347.758583 
L 568.60907 347.952885 
L 569.023238 347.855734 
L 569.64449 347.661431 
L 570.058658 347.369978 
L 570.058658 346.981373 
L 570.265742 346.592768 
L 570.886995 346.398466 
L 572.750751 346.68992 
L 573.372004 346.884222 
L 573.786172 347.272827 
L 574.20034 347.855734 
L 576.478265 347.272827 
L 578.75619 347.661431 
L 580.82703 348.632943 
L 582.276619 350.090211 
L 583.312039 352.130386 
L 583.933291 354.364863 
L 584.34746 356.793643 
L 584.554544 358.930969 
L 585.38288 358.445213 
L 586.4183 358.056608 
L 587.453721 358.056608 
L 588.489141 358.542364 
L 589.317477 358.736666 
L 590.352898 358.445213 
L 591.181234 357.959457 
L 592.216654 357.862306 
L 593.666243 358.348062 
L 595.944168 359.319574 
L 597.807925 360.485388 
L 599.050429 362.234109 
L 601.535438 363.788528 
L 602.15669 364.565738 
L 603.399195 367.285971 
L 604.020447 369.034692 
L 603.606279 370.880565 
L 601.328354 375.932426 
L 600.914186 377.389694 
L 600.914186 378.74981 
L 601.328354 380.207078 
L 601.535438 381.9558 
L 600.914186 383.218765 
L 599.878765 384.384579 
L 599.050429 385.744696 
L 598.843345 387.104812 
L 598.429177 389.533592 
L 597.807925 390.796557 
L 597.807925 391.573767 
L 599.464597 396.139872 
L 600.085849 397.402838 
L 600.292933 398.082896 
L 600.292933 398.568652 
L 599.878765 399.540164 
L 599.878765 400.02592 
L 600.292933 400.705978 
L 600.500017 400.997432 
L 601.535438 401.871792 
L 601.949606 402.649002 
L 602.15669 403.134758 
L 601.949606 404.98063 
L 601.742522 406.243596 
L 601.535438 406.826503 
L 601.328354 407.40941 
L 600.914186 407.895166 
L 600.292933 408.28377 
L 600.085849 408.672375 
L 599.878765 409.352434 
L 600.085849 410.421097 
L 601.12127 411.295457 
L 602.985026 412.655574 
L 603.399195 413.821388 
L 602.985026 414.501446 
L 602.15669 414.987202 
L 601.535438 415.570109 
L 601.328354 416.153016 
L 601.328354 417.513133 
L 600.500017 419.164703 
L 601.328354 419.941913 
L 601.949606 421.010576 
L 601.949606 421.787785 
L 600.085849 422.17639 
L 599.671681 422.662146 
L 599.464597 423.342204 
L 599.050429 423.925111 
L 598.429177 424.313716 
L 598.015009 424.605169 
L 596.772504 424.993774 
L 596.358336 425.47953 
L 596.772504 425.868135 
L 597.807925 426.548193 
L 598.429177 428.879822 
L 599.464597 429.171275 
L 600.707102 429.365577 
L 601.12127 429.754182 
L 599.671681 430.531392 
L 599.050429 431.308601 
L 598.636261 432.571567 
L 598.429177 437.137672 
L 598.222093 438.692091 
L 598.222093 439.177847 
L 598.636261 441.606627 
L 598.222093 442.480987 
L 596.56542 443.258197 
L 596.56542 443.355348 
L 589.731646 445.97843 
L 589.317477 446.367035 
L 589.110393 446.755639 
L 588.903309 447.338547 
L 588.903309 447.921454 
L 588.696225 448.504361 
L 588.696225 448.892966 
L 589.110393 449.184419 
L 589.524561 449.475873 
L 589.731646 449.961629 
L 589.731646 450.544536 
L 589.317477 451.71035 
L 589.110393 454.722037 
L 588.696225 455.499246 
L 588.282057 455.887851 
L 587.453721 456.276456 
L 587.039553 456.567909 
L 587.039553 457.150816 
L 587.453721 458.122328 
L 587.246637 458.608084 
L 586.625384 459.385293 
L 584.554544 460.162503 
L 583.726207 460.74541 
L 583.933291 462.688434 
L 588.282057 466.380179 
L 588.696225 468.226051 
L 588.489141 468.031749 
L 585.797048 468.711807 
L 585.175796 469.003261 
L 584.761628 469.294714 
L 583.519123 470.266226 
L 583.104955 470.751982 
L 582.897871 471.334889 
L 582.897871 472.792157 
L 582.483703 473.375064 
L 581.862451 473.763669 
L 581.448283 474.249425 
L 581.034114 475.318088 
L 580.82703 476.095297 
L 580.412862 476.483902 
L 579.998694 476.581053 
L 579.377442 476.2896 
L 578.549105 475.803844 
L 577.927853 475.803844 
L 577.513685 475.803844 
L 574.821592 476.678204 
L 574.407424 476.678204 
L 574.20034 476.2896 
L 573.993256 475.220937 
L 573.372004 474.832332 
L 572.750751 474.832332 
L 572.336583 475.123785 
L 571.301163 475.706692 
L 570.058658 475.998146 
L 568.60907 475.900995 
L 567.366565 475.51239 
L 566.538229 474.638029 
L 566.538229 474.346576 
L 566.538229 472.112099 
L 566.952397 471.626343 
L 568.194902 471.043436 
L 569.023238 469.294714 
L 569.64449 468.90611 
L 569.851574 468.517505 
L 569.023238 467.448842 
L 568.60907 466.963086 
L 567.987818 466.671632 
L 567.57365 466.283028 
L 567.366565 464.728609 
L 566.952397 464.145701 
L 565.916977 463.077038 
L 565.088641 462.008375 
L 563.846136 459.288142 
L 563.224884 456.956514 
L 562.810716 455.693548 
L 562.189464 454.624885 
L 561.361127 453.847676 
L 560.739875 453.459071 
L 560.532791 453.36192 
L 560.325707 453.653374 
L 559.290286 455.499246 
L 558.669034 456.66506 
L 558.46195 457.247967 
L 558.254866 458.413782 
L 558.047782 458.996689 
L 557.633614 459.676747 
L 553.284848 463.854248 
L 552.87068 464.437155 
L 552.663596 465.70012 
L 552.456512 466.185876 
L 551.83526 466.574481 
L 550.592755 467.060237 
L 549.764419 467.351691 
L 549.350251 467.934598 
L 548.521915 468.90611 
L 547.900662 469.391865 
L 546.036906 470.751982 
L 545.622738 471.237738 
L 545.208569 471.820645 
L 545.001485 472.403552 
L 544.794401 472.792157 
L 544.173149 473.180762 
L 543.966065 473.08361 
L 543.344813 472.403552 
L 543.137729 472.306401 
L 542.309392 472.500703 
L 541.895224 472.500703 
L 540.65272 472.306401 
L 539.617299 472.597855 
L 538.581879 472.500703 
L 528.434759 468.711807 
L 528.020591 468.614656 
L 527.192255 468.711807 
L 526.156834 469.391865 
L 525.535582 469.489017 
L 524.293078 469.197563 
L 520.565564 467.545993 
L 519.32306 467.254539 
L 518.494724 467.448842 
L 517.459303 468.517505 
L 516.838051 469.197563 
L 516.009715 469.197563 
L 515.802631 468.90611 
L 516.216799 468.323202 
L 516.838051 467.837446 
L 517.045135 467.448842 
L 517.252219 466.963086 
L 517.459303 466.380179 
L 517.459303 465.894423 
L 517.666387 465.311516 
L 517.873471 464.82576 
L 518.494724 464.340004 
L 518.28764 463.757097 
L 518.080556 463.659946 
L 517.666387 463.659946 
L 517.252219 463.17419 
L 517.045135 462.785585 
L 516.838051 461.231166 
L 516.216799 460.551108 
L 515.181378 458.802386 
L 514.560126 458.31663 
L 513.317622 458.996689 
L 512.489285 458.996689 
L 512.282201 458.025177 
L 512.075117 457.44227 
L 511.868033 457.053665 
L 511.246781 456.276456 
L 511.039697 455.887851 
L 511.039697 455.499246 
L 511.453865 455.110641 
L 511.453865 454.819188 
L 511.660949 454.430583 
L 511.660949 454.13913 
L 510.625529 453.847676 
L 510.625529 453.556222 
L 510.625529 453.167618 
L 510.625529 452.973315 
L 510.625529 452.876164 
L 510.418445 451.613199 
L 510.211361 451.224594 
L 509.383024 450.350233 
L 508.968856 449.961629 
L 508.554688 448.698663 
L 507.312184 444.521162 
L 506.483847 443.161046 
L 505.655511 442.480987 
L 503.170502 441.703778 
L 502.963418 441.509476 
L 499.028821 438.789242 
L 496.543812 437.720579 
L 493.851719 437.817731 
L 493.230466 438.012033 
L 490.331289 439.955057 
L 490.124205 440.24651 
L 489.710037 440.635115 
L 489.295869 441.412324 
L 489.295869 441.89808 
L 489.295869 442.480987 
L 489.088785 443.063894 
L 488.260449 443.452499 
L 487.225028 443.161046 
L 486.189608 441.995231 
L 485.361272 441.315173 
L 484.740019 441.120871 
L 484.532935 441.89808 
L 485.154188 448.115756 
L 485.568356 450.447384 
L 486.81086 452.293257 
L 489.088785 453.264769 
L 488.674617 454.333432 
L 487.639196 455.887851 
L 487.225028 456.762211 
L 487.225028 457.636572 
L 487.639196 460.065352 
L 487.225028 461.716922 
L 486.396692 463.659946 
L 485.982524 465.505818 
L 486.603776 466.768783 
L 463.824528 471.723494 
L 461.960771 471.529191 
L 460.304098 470.266226 
L 458.440342 467.837446 
L 457.404921 467.060237 
L 456.783669 466.768783 
L 454.919913 467.643144 
L 452.434904 468.420354 
L 450.364063 468.808958 
L 449.121558 469.294714 
L 447.257802 471.140587 
L 446.222381 471.723494 
L 445.186961 471.626343 
L 444.151541 471.043436 
L 442.287784 469.489017 
L 441.873616 469.003261 
L 441.666532 468.517505 
L 441.252364 468.1289 
L 440.424027 467.643144 
L 437.52485 466.768783 
L 435.454009 466.768783 
L 435.246925 466.768783 
L 434.832757 467.934598 
L 436.075262 471.237738 
L 436.282346 472.500703 
L 435.868178 475.706692 
L 435.868178 476.678204 
L 436.282346 477.94117 
L 437.731934 480.272798 
L 438.353187 481.535763 
L 438.560271 482.993031 
L 438.560271 484.158845 
L 438.353187 485.421811 
L 437.939018 486.879079 
L 433.590253 493.679662 
L 433.590253 494.068266 
L 432.969001 496.302743 
L 433.176085 497.66286 
L 434.211505 497.468558 
L 436.48943 495.914139 
L 438.146102 495.331232 
L 439.388607 495.719836 
L 440.216943 496.788499 
L 442.287784 499.703035 
L 446.63655 504.366292 
L 447.464886 505.629257 
L 447.464886 506.892223 
L 446.015297 507.766583 
L 444.772793 507.863734 
L 443.944457 507.863734 
L 443.323204 508.252339 
L 442.701952 509.612456 
L 442.287784 510.681119 
L 442.287784 514.664317 
L 442.0807 514.955771 
L 442.287784 515.150073 
L 442.701952 515.635829 
L 443.323204 516.024434 
L 446.429465 517.38455 
L 447.67197 518.064609 
L 449.949895 520.007632 
L 452.020735 520.979144 
L 454.919913 521.756354 
L 456.990753 522.825017 
L 457.612006 524.670889 
L 456.990753 525.836704 
L 454.505744 527.682576 
L 453.677408 529.139844 
L 450.364063 536.911939 
L 450.156979 538.174904 
L 450.778231 539.437869 
L 452.020735 540.117928 
L 453.26324 540.506532 
L 454.505744 541.186591 
L 454.919913 542.352405 
L 454.29866 543.61537 
L 453.26324 544.878336 
L 452.020735 545.752696 
L 451.192399 546.141301 
L 450.985315 546.238452 
L 449.949895 546.238452 
L 446.63655 545.26694 
L 445.394045 545.169789 
L 442.287784 545.558394 
L 441.045279 545.072638 
L 440.009859 544.101126 
L 435.454009 536.717636 
L 433.383169 535.066066 
L 430.483992 534.677461 
L 428.827319 535.746124 
L 427.791899 537.494846 
L 426.549394 539.146416 
L 424.271469 539.923625 
L 421.993545 540.31223 
L 420.129788 541.478044 
L 418.473115 542.935312 
L 416.402275 544.198277 
L 414.952686 545.461243 
L 413.917266 547.307115 
L 410.189752 557.605141 
L 409.361416 559.256711 
L 408.118912 558.479501 
L 406.876407 557.605141 
L 403.97723 554.690605 
L 403.148894 550.99886 
L 402.527641 549.930197 
L 402.113473 548.958685 
L 401.906389 547.792871 
L 401.906389 546.432755 
L 400.663885 545.072638 
L 398.800128 543.712521 
L 391.75927 537.689148 
L 382.440486 531.374321 
L 382.026318 528.751239 
L 382.026318 527.876878 
L 382.440486 526.905367 
L 382.64757 525.54525 
L 382.233402 524.476587 
L 381.819234 523.407924 
L 380.990898 522.727866 
L 379.748393 521.950656 
L 378.091721 520.687691 
L 377.0563 520.201935 
L 376.849216 519.133272 
L 374.571291 516.704492 
L 373.950039 515.830132 
L 372.914619 514.664317 
L 371.257946 513.012747 
L 365.252508 507.863734 
L 357.797481 502.228966 
L 354.898304 499.800186 
L 347.443277 494.35972 
L 343.922848 491.445184 
L 339.574083 488.142044 
L 329.426963 475.51239 
L 328.184458 473.277913 
L 329.219879 474.055122 
L 330.876551 475.803844 
L 332.119056 476.483902 
L 333.36156 476.581053 
L 334.189897 476.095297 
L 335.018233 475.220937 
L 336.053653 474.055122 
L 335.846569 474.929483 
L 335.639485 475.51239 
L 335.432401 476.192448 
L 335.639485 476.872507 
L 335.846569 476.775355 
L 336.260737 476.581053 
L 336.260737 476.386751 
L 336.467821 476.095297 
L 336.467821 477.16396 
L 336.674906 478.232623 
L 337.089074 478.81553 
L 337.91741 478.426926 
L 339.988251 479.204135 
L 340.402419 479.398437 
L 341.437839 480.758554 
L 341.644923 482.021519 
L 341.852007 482.021519 
L 342.059091 481.438612 
L 342.266176 481.147159 
L 342.680344 481.24431 
L 343.094512 481.535763 
L 343.094512 481.341461 
L 343.094512 481.24431 
L 343.301596 481.24431 
L 343.50868 481.147159 
L 343.715764 483.284485 
L 343.922848 483.964543 
L 344.337016 483.575938 
L 344.751184 483.284485 
L 345.372437 483.187334 
L 345.786605 483.187334 
L 345.579521 483.964543 
L 345.993689 484.158845 
L 346.407857 483.964543 
L 347.029109 483.575938 
L 347.443277 483.090182 
L 347.857446 482.021519 
L 348.271614 481.535763 
L 349.09995 481.24431 
L 350.342454 481.050008 
L 351.584959 481.050008 
L 352.206211 481.147159 
L 353.6558 481.050008 
L 354.277052 480.758554 
L 354.484136 480.078496 
L 353.448716 479.398437 
L 353.034547 479.204135 
L 353.034547 478.135472 
L 351.999127 477.552565 
L 350.549539 477.066809 
L 349.928286 476.095297 
L 349.514118 476.095297 
L 349.928286 477.066809 
L 350.549539 480.078496 
L 349.721202 479.884193 
L 349.307034 479.495589 
L 349.09995 479.009833 
L 348.892866 478.81553 
L 348.271614 478.621228 
L 347.650362 477.552565 
L 347.236193 477.261111 
L 346.822025 477.16396 
L 346.200773 476.969658 
L 345.786605 476.872507 
L 345.579521 476.969658 
L 345.579521 477.358263 
L 345.579521 477.746867 
L 345.579521 478.038321 
L 345.165353 478.426926 
L 344.751184 479.009833 
L 344.5441 479.59274 
L 344.337016 480.078496 
L 343.50868 479.689891 
L 342.680344 479.204135 
L 342.887428 478.621228 
L 342.680344 477.455414 
L 342.680344 476.872507 
L 343.301596 476.581053 
L 343.922848 476.581053 
L 344.5441 476.581053 
L 344.751184 476.095297 
L 344.129932 475.51239 
L 342.680344 475.026634 
L 341.023671 474.735181 
L 339.988251 474.832332 
L 338.745746 472.20925 
L 338.538662 471.723494 
L 337.91741 471.334889 
L 337.710326 471.334889 
L 337.503242 471.917796 
L 337.296158 472.014947 
L 336.467821 472.403552 
L 336.467821 472.500703 
L 335.018233 472.20925 
L 333.568644 473.277913 
L 332.32614 474.540878 
L 330.876551 474.832332 
L 330.462383 474.540878 
L 329.841131 474.055122 
L 329.426963 473.375064 
L 329.426963 472.695006 
L 329.426963 472.500703 
L 330.048215 471.917796 
L 330.255299 471.723494 
L 330.669467 471.626343 
L 330.255299 471.237738 
L 329.634047 470.946284 
L 329.426963 470.946284 
L 329.219879 470.460528 
L 329.426963 469.974773 
L 329.426963 469.586168 
L 329.012795 469.391865 
L 328.598627 469.294714 
L 328.184458 469.294714 
L 327.77029 469.489017 
L 327.77029 469.877621 
L 328.391543 471.237738 
L 328.598627 472.112099 
L 328.184458 472.889308 
L 327.149038 472.500703 
L 324.871113 469.586168 
L 323.835693 468.90611 
L 324.456945 469.78047 
L 325.69945 471.334889 
L 326.113618 472.112099 
L 324.871113 471.237738 
L 323.421525 469.78047 
L 321.971936 468.031749 
L 321.350684 466.574481 
L 321.350684 466.283028 
L 320.936516 464.922911 
L 320.729432 459.676747 
L 320.315264 458.899538 
L 314.516909 453.264769 
L 313.067321 452.390408 
L 311.203564 450.350233 
L 310.375228 449.670175 
L 310.582312 449.475873 
L 310.789396 448.892966 
L 309.546892 448.504361 
L 308.925639 447.532849 
L 308.097303 445.298372 
L 305.612294 442.966743 
L 305.198126 442.383836 
L 304.991042 442.286685 
L 304.36979 441.800929 
L 303.955622 441.218022 
L 303.955622 441.02372 
L 303.334369 440.732266 
L 303.334369 440.149359 
L 303.955622 439.760754 
L 304.162706 439.955057 
L 304.576874 441.02372 
L 305.612294 441.89808 
L 306.854799 442.286685 
L 308.097303 442.189534 
L 307.890219 442.383836 
L 307.890219 442.480987 
L 307.683135 442.578139 
L 308.304387 442.869592 
L 308.718555 442.578139 
L 309.339808 441.412324 
L 309.546892 441.412324 
L 309.96106 442.578139 
L 309.753976 442.67529 
L 309.339808 442.869592 
L 309.339808 443.161046 
L 309.339808 443.54965 
L 309.339808 443.841104 
L 309.753976 443.646802 
L 310.168144 443.161046 
L 309.96106 442.966743 
L 313.067321 442.966743 
L 314.516909 443.355348 
L 315.345246 444.32686 
L 315.138162 445.492674 
L 313.895657 446.561337 
L 314.723994 447.241395 
L 314.931078 447.532849 
L 315.345246 447.727151 
L 316.58775 447.824303 
L 317.001918 447.921454 
L 317.001918 448.212907 
L 317.001918 449.184419 
L 317.209002 449.670175 
L 318.244423 450.447384 
L 318.244423 450.738838 
L 318.658591 451.418896 
L 318.865675 451.904652 
L 319.072759 451.418896 
L 319.279843 451.127443 
L 320.108179 450.835989 
L 320.315264 450.641687 
L 320.108179 449.670175 
L 319.694011 448.504361 
L 319.279843 447.63 
L 318.658591 447.727151 
L 318.037339 446.949942 
L 316.58775 445.97843 
L 316.380666 445.298372 
L 317.001918 444.32686 
L 317.623171 443.938255 
L 317.416087 443.54965 
L 315.55233 440.343661 
L 314.516909 439.274998 
L 313.895657 439.760754 
L 313.067321 439.274998 
L 312.860237 438.983545 
L 312.653153 439.566452 
L 312.653153 440.052208 
L 312.860237 441.412324 
L 311.617732 440.537964 
L 310.168144 437.817731 
L 309.339808 437.429126 
L 308.718555 437.817731 
L 308.511471 438.497789 
L 308.304387 439.080696 
L 308.304387 439.372149 
L 307.683135 439.566452 
L 307.476051 440.052208 
L 307.268967 440.635115 
L 307.268967 441.412324 
L 306.854799 440.926568 
L 306.440631 440.635115 
L 305.819378 440.537964 
L 305.198126 440.537964 
L 306.026462 439.372149 
L 305.819378 438.789242 
L 304.576874 437.817731 
L 303.334369 438.59494 
L 302.298949 438.303486 
L 301.884781 437.234823 
L 301.677697 435.486102 
L 301.884781 434.806044 
L 302.091865 433.834532 
L 302.091865 433.348776 
L 302.091865 430.919996 
L 302.091865 430.337089 
L 301.470613 429.074124 
L 301.263529 428.394066 
L 301.470613 426.548193 
L 301.263529 425.965286 
L 300.435192 423.633658 
L 298.985604 421.787785 
L 295.879343 418.484645 
L 288.6314 408.478073 
L 288.010148 407.40941 
L 287.59598 406.049293 
L 286.974727 404.786328 
L 286.767643 403.523362 
L 287.59598 405.077781 
L 288.010148 406.826503 
L 288.838484 407.798015 
L 289.873904 409.06098 
L 290.909325 408.963829 
L 291.737661 409.352434 
L 292.358913 410.032492 
L 292.980166 411.878364 
L 294.429754 413.238481 
L 294.636838 414.404295 
L 295.051006 414.987202 
L 296.914763 417.221679 
L 297.536015 417.707435 
L 297.950183 418.09604 
L 300.642276 420.330517 
L 301.263529 420.52482 
L 302.920201 421.107727 
L 303.541453 428.199763 
L 303.748538 429.074124 
L 304.576874 428.78267 
L 304.576874 428.199763 
L 304.162706 427.422554 
L 304.36979 427.033949 
L 304.783958 426.742496 
L 305.198126 427.033949 
L 305.612294 427.519705 
L 305.612294 428.005461 
L 306.440631 427.033949 
L 307.890219 426.25674 
L 309.339808 425.770984 
L 310.789396 425.576681 
L 310.582312 426.548193 
L 310.375228 427.519705 
L 310.789396 428.296914 
L 311.617732 428.78267 
L 312.031901 426.839647 
L 312.031901 425.868135 
L 311.617732 425.188077 
L 313.481489 424.993774 
L 318.244423 425.576681 
L 319.901095 425.188077 
L 317.416087 424.313716 
L 316.58775 423.633658 
L 315.966498 422.467843 
L 315.345246 420.330517 
L 315.345246 419.067552 
L 315.55233 418.09604 
L 315.138162 417.998889 
L 313.895657 417.318831 
L 313.688573 417.318831 
L 313.067321 417.318831 
L 312.653153 417.513133 
L 312.446069 417.804587 
L 312.860237 418.678947 
L 312.653153 419.261854 
L 312.446069 419.553308 
L 312.238985 419.74761 
L 310.789396 421.690634 
L 309.546892 422.662146 
L 307.890219 423.147902 
L 306.026462 423.245053 
L 305.612294 423.342204 
L 305.40521 423.439355 
L 304.991042 423.439355 
L 304.576874 423.245053 
L 304.162706 422.856448 
L 304.162706 421.884936 
L 303.748538 421.107727 
L 303.748538 420.52482 
L 303.748538 419.456157 
L 303.541453 419.164703 
L 302.920201 419.067552 
L 302.298949 418.970401 
L 302.091865 418.87325 
L 302.091865 417.998889 
L 302.506033 417.415982 
L 303.334369 417.027377 
L 304.36979 416.930226 
L 304.783958 416.638772 
L 304.783958 415.861563 
L 304.576874 414.987202 
L 304.162706 414.501446 
L 304.162706 414.209993 
L 304.576874 414.01569 
L 306.026462 413.918539 
L 306.440631 413.724237 
L 306.854799 413.238481 
L 307.268967 412.072667 
L 308.097303 410.421097 
L 307.890219 409.449585 
L 306.854799 407.40941 
L 307.061883 407.117956 
L 307.268967 406.826503 
L 307.061883 406.535049 
L 306.440631 406.243596 
L 306.440631 407.40941 
L 306.854799 410.421097 
L 306.647715 411.004004 
L 306.233546 411.586911 
L 305.612294 412.072667 
L 304.991042 412.169818 
L 304.576874 411.975516 
L 304.162706 411.198306 
L 303.748538 411.004004 
L 302.713117 411.295457 
L 302.091865 412.169818 
L 301.677697 412.947027 
L 301.056445 413.335632 
L 298.364352 413.918539 
L 297.328931 413.724237 
L 296.707679 413.044179 
L 296.500595 411.781213 
L 296.707679 410.71255 
L 296.914763 410.226794 
L 296.707679 410.129643 
L 296.293511 409.741038 
L 296.086427 409.352434 
L 295.879343 409.449585 
L 295.465175 409.741038 
L 295.051006 409.935341 
L 294.843922 410.129643 
L 294.636838 410.323945 
L 293.808502 410.226794 
L 292.980166 409.741038 
L 290.909325 408.186619 
L 290.080989 407.895166 
L 289.459736 407.506561 
L 288.838484 406.535049 
L 288.838484 405.369235 
L 289.252652 404.300572 
L 289.045568 404.10627 
L 288.838484 403.911967 
L 288.838484 403.523362 
L 289.873904 402.746153 
L 289.66682 401.386036 
L 288.6314 400.02592 
L 287.59598 399.151559 
L 288.217232 400.90028 
L 288.010148 402.454699 
L 287.803064 403.037607 
L 287.388896 402.940455 
L 287.181812 402.357548 
L 286.767643 398.762954 
L 285.732223 396.237024 
L 280.140953 388.950685 
L 281.590541 390.310801 
L 282.418878 390.796557 
L 283.247214 390.505104 
L 282.418878 390.116499 
L 282.833046 389.33929 
L 283.247214 388.659231 
L 283.661382 388.270627 
L 284.07555 388.173475 
L 283.247214 387.882022 
L 281.590541 389.047836 
L 280.555121 388.756382 
L 280.348037 387.784871 
L 279.933869 386.424754 
L 279.519701 385.453242 
L 278.898449 385.841847 
L 278.48428 385.841847 
L 278.070112 383.801672 
L 277.655944 383.024463 
L 276.827608 381.567195 
L 275.378019 378.166903 
L 274.135515 376.029577 
L 273.307178 373.017891 
L 271.443422 370.686262 
z
" clip-path="url(#p90cd7b19a1)" style="fill: #bdc3c7; stroke: #ffffff; stroke-width: 0.5"/>
    <path d="M 284.696803 370.783413 
L 284.696803 370.200506 
L 284.903887 369.71475 
L 285.525139 368.84039 
L 286.146391 368.257483 
L 287.388896 367.480273 
L 288.010148 366.800215 
L 288.217232 367.383122 
L 288.217232 367.868878 
L 288.010148 368.257483 
L 287.59598 368.451785 
L 287.59598 368.84039 
L 289.66682 369.326146 
L 290.080989 371.269169 
L 289.873904 373.697949 
L 289.873904 375.543821 
L 288.838484 376.22388 
L 288.010148 376.612484 
L 287.388896 376.515333 
L 286.353475 375.932426 
L 285.939307 375.155217 
L 285.939307 374.475158 
L 285.939307 373.697949 
L 285.939307 372.726437 
L 285.732223 372.240681 
L 284.903887 371.463472 
z
" clip-path="url(#p90cd7b19a1)" style="fill: #bdc3c7; stroke: #ffffff; stroke-width: 0.5"/>
    <path d="M 309.339808 286.164732 
L 309.753976 286.164732 
L 309.546892 286.261883 
z
" clip-path="url(#p90cd7b19a1)" style="fill: #bdc3c7; stroke: #ffffff; stroke-width: 0.5"/>
   </g>
   <g id="PatchCollection_2">
    <path d="M 307.683135 264.791471 
L 308.511471 264.402867 
L 309.132724 263.722808 
L 309.753976 262.848448 
L 310.582312 259.933912 
L 311.203564 258.865249 
L 311.824816 258.379493 
L 312.653153 257.990888 
L 313.481489 256.825074 
L 314.102741 255.562109 
L 314.309825 254.493446 
L 314.309825 252.258968 
L 314.516909 251.384608 
L 315.966498 250.607398 
L 318.244423 248.567223 
L 319.279843 247.304258 
L 319.486927 247.207107 
L 319.694011 246.915653 
L 319.901095 246.6242 
L 320.108179 246.235595 
L 320.315264 245.652688 
L 320.936516 244.001118 
L 321.971936 242.252396 
L 323.007357 241.378036 
L 323.835693 241.572338 
L 324.456945 242.252396 
L 325.69945 242.641001 
L 327.149038 242.446699 
L 328.184458 241.960943 
L 329.219879 241.280885 
L 330.462383 240.697978 
L 329.426963 240.697978 
L 326.941954 242.349548 
L 325.906534 242.058094 
L 323.421525 239.726466 
L 322.593188 238.074896 
L 323.214441 236.520477 
L 326.527786 233.217336 
L 326.73487 233.023034 
L 327.149038 232.342976 
L 327.356122 232.051522 
L 328.598627 231.274313 
L 329.012795 230.788557 
L 329.219879 230.399952 
L 329.841131 229.234138 
L 330.048215 228.845533 
L 330.255299 228.651231 
L 330.462383 228.262626 
L 330.669467 226.902509 
L 330.876551 226.513905 
L 331.083635 226.222451 
L 331.29072 225.930998 
L 331.704888 225.34809 
L 333.568644 223.307916 
L 334.189897 221.364892 
L 333.982813 219.033263 
L 332.533224 214.272855 
L 331.911972 213.204192 
L 331.704888 212.718436 
L 331.704888 212.135529 
L 331.704888 211.552622 
L 332.119056 211.164017 
L 332.32614 210.872564 
L 332.533224 210.483959 
L 332.947392 203.391923 
L 332.740308 202.128957 
L 332.32614 201.060294 
L 331.911972 199.797329 
L 332.533224 198.825817 
L 333.775728 198.048608 
L 334.396981 199.020119 
L 334.396981 200.088782 
L 334.189897 201.254597 
L 334.396981 202.420411 
L 335.018233 203.294772 
L 336.467821 204.557737 
L 337.91741 205.529249 
L 338.95283 205.917854 
L 339.988251 206.112156 
L 343.50868 207.958028 
L 344.751184 208.152331 
L 352.413295 208.152331 
L 356.140809 208.152331 
L 368.772937 208.152331 
L 369.601273 208.152331 
L 386.789252 208.152331 
L 403.97723 208.152331 
L 421.165208 208.152331 
L 421.78646 210.289657 
L 421.78646 214.952914 
L 421.78646 230.011347 
L 421.78646 233.023034 
L 421.993545 245.069781 
L 421.993545 260.128214 
L 421.993545 275.283799 
L 404.805566 275.186648 
L 400.663885 275.186648 
L 387.617588 275.089497 
L 370.42961 275.089497 
L 369.187105 275.089497 
L 353.241632 274.992346 
L 346.822025 274.992346 
L 345.165353 275.186648 
L 344.129932 275.38095 
L 343.715764 276.15816 
L 343.715764 277.906881 
L 343.50868 278.684091 
L 342.887428 279.364149 
L 342.059091 279.558451 
L 341.023671 279.364149 
L 339.988251 278.975544 
L 338.95283 278.198335 
L 337.503242 276.449613 
L 336.467821 275.769555 
L 335.639485 275.478102 
L 333.982813 275.283799 
L 333.982813 274.992346 
L 333.982813 274.020834 
L 333.568644 272.563566 
L 333.568644 271.883508 
L 334.189897 271.494903 
L 334.811149 271.203449 
L 335.639485 271.106298 
L 336.467821 271.009147 
L 336.053653 270.717693 
L 335.432401 270.523391 
L 334.604065 270.329089 
L 333.775728 270.231938 
L 333.36156 270.134786 
L 331.911972 269.260426 
L 331.083635 269.066123 
L 328.805711 269.64903 
L 328.184458 269.454728 
L 327.977374 268.871821 
L 328.184458 268.288914 
L 328.598627 267.803158 
L 329.012795 267.511704 
L 327.977374 267.99746 
L 326.527786 269.163275 
L 325.492365 270.42624 
L 325.078197 271.203449 
L 324.664029 271.689205 
L 322.800272 272.07781 
L 321.350684 272.757868 
L 320.729432 272.07781 
L 319.901095 269.260426 
L 319.486927 268.580367 
L 318.865675 267.99746 
L 317.830255 267.511704 
L 316.794834 267.317402 
L 316.173582 267.414553 
L 315.345246 267.803158 
L 313.481489 268.094612 
L 311.824816 268.871821 
L 310.99648 269.066123 
L 310.582312 268.77467 
L 309.132724 267.317402 
L 308.511471 266.734495 
L 308.511471 266.151588 
L 308.304387 265.665832 
z
" clip-path="url(#p90cd7b19a1)" style="fill: #e74c3c; stroke: #ffffff; stroke-width: 0.6"/>
    <path d="M 254.462528 140.632258 
L 254.669612 139.952199 
L 254.876696 139.466443 
L 255.290864 137.037664 
L 255.705032 135.87185 
L 256.326284 134.414582 
L 257.361705 133.44307 
L 258.811293 133.831675 
L 259.432545 133.44307 
L 260.467966 133.44307 
L 262.538807 133.831675 
L 263.574227 133.44307 
L 263.781311 132.568709 
L 263.574227 131.500046 
L 263.160059 130.722837 
L 263.781311 130.334232 
L 264.816731 129.654174 
L 265.645068 128.876964 
L 265.852152 128.196906 
L 266.26632 122.853591 
L 267.094656 120.813416 
L 268.544245 118.384636 
L 270.615085 116.344462 
L 272.89301 115.664403 
L 272.89301 115.858706 
L 272.478842 116.538764 
L 274.342599 116.927369 
L 275.170935 116.927369 
L 275.792187 116.538764 
L 277.034692 116.927369 
L 278.898449 117.218822 
L 280.762205 117.121671 
L 282.418878 116.538764 
L 282.625962 116.733066 
L 282.833046 116.830218 
L 283.247214 116.927369 
L 284.696803 118.870392 
L 285.318055 119.841904 
L 285.525139 121.007718 
L 285.525139 122.173533 
L 285.318055 123.145044 
L 284.903887 124.019405 
L 284.489719 124.796615 
L 282.418878 126.642487 
L 281.797626 128.196906 
L 279.933869 130.528535 
L 279.726785 130.722837 
L 278.48428 133.734524 
L 277.44886 134.608884 
L 277.241776 135.87185 
L 277.034692 136.260454 
L 277.034692 136.454757 
L 275.378019 137.426269 
L 275.170935 138.300629 
L 275.170935 141.020862 
L 274.756767 141.895223 
L 272.064674 144.90691 
L 270.200917 148.112899 
L 269.579665 148.792957 
L 269.165497 148.404352 
L 267.715908 147.821445 
L 267.508824 147.432841 
L 267.094656 147.627143 
L 266.26632 147.335689 
L 264.609647 146.461329 
L 264.195479 146.55848 
L 262.952975 146.849933 
L 262.331722 146.849933 
L 261.71047 146.55848 
L 260.467966 145.78127 
L 259.846714 145.684119 
L 258.604209 145.586968 
L 257.154621 145.295515 
L 256.1192 144.421154 
L 255.705032 142.769584 
L 255.290864 142.089525 
L 254.876696 141.312316 
z
" clip-path="url(#p90cd7b19a1)" style="fill: #e74c3c; stroke: #ffffff; stroke-width: 0.6"/>
    <path d="M 92.729865 416.930226 
L 93.144033 416.833075 
L 93.351117 416.638772 
L 93.558201 416.541621 
L 93.351117 415.861563 
L 93.144033 415.181505 
L 93.351117 414.598597 
L 93.972369 414.209993 
L 94.800706 415.472958 
L 94.593621 416.930226 
L 93.765285 417.610284 
z
" clip-path="url(#p90cd7b19a1)" style="fill: #e74c3c; stroke: #ffffff; stroke-width: 0.6"/>
   </g>
   <g id="text_1">
    <g id="patch_2">
     <path d="M 432.329978 384.524445 
L 457.602165 384.524445 
Q 459.002165 384.524445 459.002165 383.124445 
L 459.002165 376.123898 
Q 459.002165 374.723898 457.602165 374.723898 
L 432.329978 374.723898 
Q 430.929978 374.723898 430.929978 376.123898 
L 430.929978 383.124445 
Q 430.929978 384.524445 432.329978 384.524445 
z
" clip-path="url(#p90cd7b19a1)" style="fill: #ffffff; opacity: 0.6"/>
    </g>
    <g clip-path="url(#p90cd7b19a1)">
     <!-- Gabon -->
     <g style="fill: #1a252f" transform="translate(432.329978 381.442804) scale(0.07 -0.07)">
      <defs>
       <path id="DejaVuSans-Bold-2a" d="M 4781 347 
Q 4331 128 3847 18 
Q 3363 -91 2847 -91 
Q 1681 -91 1000 561 
Q 319 1213 319 2328 
Q 319 3456 1012 4103 
Q 1706 4750 2913 4750 
Q 3378 4750 3804 4662 
Q 4231 4575 4609 4403 
L 4609 3438 
Q 4219 3659 3833 3768 
Q 3447 3878 3059 3878 
Q 2341 3878 1952 3476 
Q 1563 3075 1563 2328 
Q 1563 1588 1938 1184 
Q 2313 781 3003 781 
Q 3191 781 3352 804 
Q 3513 828 3641 878 
L 3641 1784 
L 2906 1784 
L 2906 2591 
L 4781 2591 
L 4781 347 
z
" transform="scale(0.015625)"/>
       <path id="DejaVuSans-Bold-44" d="M 2106 1575 
Q 1756 1575 1579 1456 
Q 1403 1338 1403 1106 
Q 1403 894 1545 773 
Q 1688 653 1941 653 
Q 2256 653 2472 879 
Q 2688 1106 2688 1447 
L 2688 1575 
L 2106 1575 
z
M 3816 1997 
L 3816 0 
L 2688 0 
L 2688 519 
Q 2463 200 2181 54 
Q 1900 -91 1497 -91 
Q 953 -91 614 226 
Q 275 544 275 1050 
Q 275 1666 698 1953 
Q 1122 2241 2028 2241 
L 2688 2241 
L 2688 2328 
Q 2688 2594 2478 2717 
Q 2269 2841 1825 2841 
Q 1466 2841 1156 2769 
Q 847 2697 581 2553 
L 581 3406 
Q 941 3494 1303 3539 
Q 1666 3584 2028 3584 
Q 2975 3584 3395 3211 
Q 3816 2838 3816 1997 
z
" transform="scale(0.015625)"/>
       <path id="DejaVuSans-Bold-45" d="M 2400 722 
Q 2759 722 2948 984 
Q 3138 1247 3138 1747 
Q 3138 2247 2948 2509 
Q 2759 2772 2400 2772 
Q 2041 2772 1848 2508 
Q 1656 2244 1656 1747 
Q 1656 1250 1848 986 
Q 2041 722 2400 722 
z
M 1656 2988 
Q 1888 3294 2169 3439 
Q 2450 3584 2816 3584 
Q 3463 3584 3878 3070 
Q 4294 2556 4294 1747 
Q 4294 938 3878 423 
Q 3463 -91 2816 -91 
Q 2450 -91 2169 54 
Q 1888 200 1656 506 
L 1656 0 
L 538 0 
L 538 4863 
L 1656 4863 
L 1656 2988 
z
" transform="scale(0.015625)"/>
       <path id="DejaVuSans-Bold-52" d="M 2203 2784 
Q 1831 2784 1636 2517 
Q 1441 2250 1441 1747 
Q 1441 1244 1636 976 
Q 1831 709 2203 709 
Q 2569 709 2762 976 
Q 2956 1244 2956 1747 
Q 2956 2250 2762 2517 
Q 2569 2784 2203 2784 
z
M 2203 3584 
Q 3106 3584 3614 3096 
Q 4122 2609 4122 1747 
Q 4122 884 3614 396 
Q 3106 -91 2203 -91 
Q 1297 -91 786 396 
Q 275 884 275 1747 
Q 275 2609 786 3096 
Q 1297 3584 2203 3584 
z
" transform="scale(0.015625)"/>
       <path id="DejaVuSans-Bold-51" d="M 4056 2131 
L 4056 0 
L 2931 0 
L 2931 347 
L 2931 1631 
Q 2931 2084 2911 2256 
Q 2891 2428 2841 2509 
Q 2775 2619 2662 2680 
Q 2550 2741 2406 2741 
Q 2056 2741 1856 2470 
Q 1656 2200 1656 1722 
L 1656 0 
L 538 0 
L 538 3500 
L 1656 3500 
L 1656 2988 
Q 1909 3294 2193 3439 
Q 2478 3584 2822 3584 
Q 3428 3584 3742 3212 
Q 4056 2841 4056 2131 
z
" transform="scale(0.015625)"/>
      </defs>
      <use xlink:href="#DejaVuSans-Bold-2a"/>
      <use xlink:href="#DejaVuSans-Bold-44" transform="translate(82.078125 0)"/>
      <use xlink:href="#DejaVuSans-Bold-45" transform="translate(149.5625 0)"/>
      <use xlink:href="#DejaVuSans-Bold-52" transform="translate(221.140625 0)"/>
      <use xlink:href="#DejaVuSans-Bold-51" transform="translate(289.84375 0)"/>
     </g>
    </g>
   </g>
   <g id="text_2">
    <!-- Eq. Guinea -->
    <g style="fill: #1a252f" transform="translate(205.789283 20.117344) scale(0.17 -0.17)">
     <defs>
      <path id="DejaVuSans-Bold-28" d="M 588 4666 
L 3834 4666 
L 3834 3756 
L 1791 3756 
L 1791 2888 
L 3713 2888 
L 3713 1978 
L 1791 1978 
L 1791 909 
L 3903 909 
L 3903 0 
L 588 0 
L 588 4666 
z
" transform="scale(0.015625)"/>
      <path id="DejaVuSans-Bold-54" d="M 2181 2772 
Q 1825 2772 1636 2509 
Q 1447 2247 1447 1747 
Q 1447 1247 1636 984 
Q 1825 722 2181 722 
Q 2541 722 2730 984 
Q 2919 1247 2919 1747 
Q 2919 2247 2730 2509 
Q 2541 2772 2181 2772 
z
M 2919 506 
Q 2688 197 2409 53 
Q 2131 -91 1766 -91 
Q 1119 -91 703 423 
Q 288 938 288 1747 
Q 288 2556 703 3067 
Q 1119 3578 1766 3578 
Q 2131 3578 2409 3434 
Q 2688 3291 2919 2981 
L 2919 3500 
L 4044 3500 
L 4044 -1331 
L 2919 -1331 
L 2919 506 
z
" transform="scale(0.015625)"/>
      <path id="DejaVuSans-Bold-11" d="M 653 1209 
L 1778 1209 
L 1778 0 
L 653 0 
L 653 1209 
z
" transform="scale(0.015625)"/>
      <path id="DejaVuSans-Bold-3" transform="scale(0.015625)"/>
      <path id="DejaVuSans-Bold-58" d="M 500 1363 
L 500 3500 
L 1625 3500 
L 1625 3150 
Q 1625 2866 1622 2436 
Q 1619 2006 1619 1863 
Q 1619 1441 1641 1255 
Q 1663 1069 1716 984 
Q 1784 875 1895 815 
Q 2006 756 2150 756 
Q 2500 756 2700 1025 
Q 2900 1294 2900 1772 
L 2900 3500 
L 4019 3500 
L 4019 0 
L 2900 0 
L 2900 506 
Q 2647 200 2364 54 
Q 2081 -91 1741 -91 
Q 1134 -91 817 281 
Q 500 653 500 1363 
z
" transform="scale(0.015625)"/>
      <path id="DejaVuSans-Bold-4c" d="M 538 3500 
L 1656 3500 
L 1656 0 
L 538 0 
L 538 3500 
z
M 538 4863 
L 1656 4863 
L 1656 3950 
L 538 3950 
L 538 4863 
z
" transform="scale(0.015625)"/>
      <path id="DejaVuSans-Bold-48" d="M 4031 1759 
L 4031 1441 
L 1416 1441 
Q 1456 1047 1700 850 
Q 1944 653 2381 653 
Q 2734 653 3104 758 
Q 3475 863 3866 1075 
L 3866 213 
Q 3469 63 3072 -14 
Q 2675 -91 2278 -91 
Q 1328 -91 801 392 
Q 275 875 275 1747 
Q 275 2603 792 3093 
Q 1309 3584 2216 3584 
Q 3041 3584 3536 3087 
Q 4031 2591 4031 1759 
z
M 2881 2131 
Q 2881 2450 2695 2645 
Q 2509 2841 2209 2841 
Q 1884 2841 1681 2658 
Q 1478 2475 1428 2131 
L 2881 2131 
z
" transform="scale(0.015625)"/>
     </defs>
     <use xlink:href="#DejaVuSans-Bold-28"/>
     <use xlink:href="#DejaVuSans-Bold-54" transform="translate(68.3125 0)"/>
     <use xlink:href="#DejaVuSans-Bold-11" transform="translate(139.890625 0)"/>
     <use xlink:href="#DejaVuSans-Bold-3" transform="translate(177.875 0)"/>
     <use xlink:href="#DejaVuSans-Bold-2a" transform="translate(212.6875 0)"/>
     <use xlink:href="#DejaVuSans-Bold-58" transform="translate(294.765625 0)"/>
     <use xlink:href="#DejaVuSans-Bold-4c" transform="translate(365.953125 0)"/>
     <use xlink:href="#DejaVuSans-Bold-51" transform="translate(400.234375 0)"/>
     <use xlink:href="#DejaVuSans-Bold-48" transform="translate(471.421875 0)"/>
     <use xlink:href="#DejaVuSans-Bold-44" transform="translate(539.25 0)"/>
    </g>
   </g>
   <g id="legend_1">
    <g id="patch_3">
     <path d="M 13.5 498.657344 
L 91.355625 498.657344 
Q 93.155625 498.657344 93.155625 496.857344 
L 93.155625 470.755937 
Q 93.155625 468.955937 91.355625 468.955937 
L 13.5 468.955937 
Q 11.7 468.955937 11.7 470.755937 
L 11.7 496.857344 
Q 11.7 498.657344 13.5 498.657344 
z
" style="fill: #ffffff; opacity: 0.85; stroke: #cccccc; stroke-linejoin: miter"/>
    </g>
    <g id="patch_4">
     <path d="M 15.3 479.394531 
L 33.3 479.394531 
L 33.3 473.094531 
L 15.3 473.094531 
z
" style="fill: #e74c3c; stroke: #888888; stroke-linejoin: miter"/>
    </g>
    <g id="text_3">
     <!-- Eq. Guinea -->
     <g transform="translate(40.5 479.394531) scale(0.09 -0.09)">
      <defs>
       <path id="DejaVuSans-28" d="M 628 4666 
L 3578 4666 
L 3578 4134 
L 1259 4134 
L 1259 2753 
L 3481 2753 
L 3481 2222 
L 1259 2222 
L 1259 531 
L 3634 531 
L 3634 0 
L 628 0 
L 628 4666 
z
" transform="scale(0.015625)"/>
       <path id="DejaVuSans-54" d="M 947 1747 
Q 947 1113 1208 752 
Q 1469 391 1925 391 
Q 2381 391 2643 752 
Q 2906 1113 2906 1747 
Q 2906 2381 2643 2742 
Q 2381 3103 1925 3103 
Q 1469 3103 1208 2742 
Q 947 2381 947 1747 
z
M 2906 525 
Q 2725 213 2448 61 
Q 2172 -91 1784 -91 
Q 1150 -91 751 415 
Q 353 922 353 1747 
Q 353 2572 751 3078 
Q 1150 3584 1784 3584 
Q 2172 3584 2448 3432 
Q 2725 3281 2906 2969 
L 2906 3500 
L 3481 3500 
L 3481 -1331 
L 2906 -1331 
L 2906 525 
z
" transform="scale(0.015625)"/>
       <path id="DejaVuSans-11" d="M 684 794 
L 1344 794 
L 1344 0 
L 684 0 
L 684 794 
z
" transform="scale(0.015625)"/>
       <path id="DejaVuSans-3" transform="scale(0.015625)"/>
       <path id="DejaVuSans-2a" d="M 3809 666 
L 3809 1919 
L 2778 1919 
L 2778 2438 
L 4434 2438 
L 4434 434 
Q 4069 175 3628 42 
Q 3188 -91 2688 -91 
Q 1594 -91 976 548 
Q 359 1188 359 2328 
Q 359 3472 976 4111 
Q 1594 4750 2688 4750 
Q 3144 4750 3555 4637 
Q 3966 4525 4313 4306 
L 4313 3634 
Q 3963 3931 3569 4081 
Q 3175 4231 2741 4231 
Q 1884 4231 1454 3753 
Q 1025 3275 1025 2328 
Q 1025 1384 1454 906 
Q 1884 428 2741 428 
Q 3075 428 3337 486 
Q 3600 544 3809 666 
z
" transform="scale(0.015625)"/>
       <path id="DejaVuSans-58" d="M 544 1381 
L 544 3500 
L 1119 3500 
L 1119 1403 
Q 1119 906 1312 657 
Q 1506 409 1894 409 
Q 2359 409 2629 706 
Q 2900 1003 2900 1516 
L 2900 3500 
L 3475 3500 
L 3475 0 
L 2900 0 
L 2900 538 
Q 2691 219 2414 64 
Q 2138 -91 1772 -91 
Q 1169 -91 856 284 
Q 544 659 544 1381 
z
M 1991 3584 
L 1991 3584 
z
" transform="scale(0.015625)"/>
       <path id="DejaVuSans-4c" d="M 603 3500 
L 1178 3500 
L 1178 0 
L 603 0 
L 603 3500 
z
M 603 4863 
L 1178 4863 
L 1178 4134 
L 603 4134 
L 603 4863 
z
" transform="scale(0.015625)"/>
       <path id="DejaVuSans-51" d="M 3513 2113 
L 3513 0 
L 2938 0 
L 2938 2094 
Q 2938 2591 2744 2837 
Q 2550 3084 2163 3084 
Q 1697 3084 1428 2787 
Q 1159 2491 1159 1978 
L 1159 0 
L 581 0 
L 581 3500 
L 1159 3500 
L 1159 2956 
Q 1366 3272 1645 3428 
Q 1925 3584 2291 3584 
Q 2894 3584 3203 3211 
Q 3513 2838 3513 2113 
z
" transform="scale(0.015625)"/>
       <path id="DejaVuSans-48" d="M 3597 1894 
L 3597 1613 
L 953 1613 
Q 991 1019 1311 708 
Q 1631 397 2203 397 
Q 2534 397 2845 478 
Q 3156 559 3463 722 
L 3463 178 
Q 3153 47 2828 -22 
Q 2503 -91 2169 -91 
Q 1331 -91 842 396 
Q 353 884 353 1716 
Q 353 2575 817 3079 
Q 1281 3584 2069 3584 
Q 2775 3584 3186 3129 
Q 3597 2675 3597 1894 
z
M 3022 2063 
Q 3016 2534 2758 2815 
Q 2500 3097 2075 3097 
Q 1594 3097 1305 2825 
Q 1016 2553 972 2059 
L 3022 2063 
z
" transform="scale(0.015625)"/>
       <path id="DejaVuSans-44" d="M 2194 1759 
Q 1497 1759 1228 1600 
Q 959 1441 959 1056 
Q 959 750 1161 570 
Q 1363 391 1709 391 
Q 2188 391 2477 730 
Q 2766 1069 2766 1631 
L 2766 1759 
L 2194 1759 
z
M 3341 1997 
L 3341 0 
L 2766 0 
L 2766 531 
Q 2569 213 2275 61 
Q 1981 -91 1556 -91 
Q 1019 -91 701 211 
Q 384 513 384 1019 
Q 384 1609 779 1909 
Q 1175 2209 1959 2209 
L 2766 2209 
L 2766 2266 
Q 2766 2663 2505 2880 
Q 2244 3097 1772 3097 
Q 1472 3097 1187 3025 
Q 903 2953 641 2809 
L 641 3341 
Q 956 3463 1253 3523 
Q 1550 3584 1831 3584 
Q 2591 3584 2966 3190 
Q 3341 2797 3341 1997 
z
" transform="scale(0.015625)"/>
      </defs>
      <use xlink:href="#DejaVuSans-28"/>
      <use xlink:href="#DejaVuSans-54" transform="translate(63.1875 0)"/>
      <use xlink:href="#DejaVuSans-11" transform="translate(126.671875 0)"/>
      <use xlink:href="#DejaVuSans-3" transform="translate(158.453125 0)"/>
      <use xlink:href="#DejaVuSans-2a" transform="translate(190.234375 0)"/>
      <use xlink:href="#DejaVuSans-58" transform="translate(267.71875 0)"/>
      <use xlink:href="#DejaVuSans-4c" transform="translate(331.09375 0)"/>
      <use xlink:href="#DejaVuSans-51" transform="translate(358.875 0)"/>
      <use xlink:href="#DejaVuSans-48" transform="translate(422.25 0)"/>
      <use xlink:href="#DejaVuSans-44" transform="translate(483.78125 0)"/>
     </g>
    </g>
    <g id="patch_5">
     <path d="M 15.3 492.895234 
L 33.3 492.895234 
L 33.3 486.595234 
L 15.3 486.595234 
z
" style="fill: #bdc3c7; stroke: #888888; stroke-linejoin: miter"/>
    </g>
    <g id="text_4">
     <!-- Neighbors -->
     <g transform="translate(40.5 492.895234) scale(0.09 -0.09)">
      <defs>
       <path id="DejaVuSans-31" d="M 628 4666 
L 1478 4666 
L 3547 763 
L 3547 4666 
L 4159 4666 
L 4159 0 
L 3309 0 
L 1241 3903 
L 1241 0 
L 628 0 
L 628 4666 
z
" transform="scale(0.015625)"/>
       <path id="DejaVuSans-4a" d="M 2906 1791 
Q 2906 2416 2648 2759 
Q 2391 3103 1925 3103 
Q 1463 3103 1205 2759 
Q 947 2416 947 1791 
Q 947 1169 1205 825 
Q 1463 481 1925 481 
Q 2391 481 2648 825 
Q 2906 1169 2906 1791 
z
M 3481 434 
Q 3481 -459 3084 -895 
Q 2688 -1331 1869 -1331 
Q 1566 -1331 1297 -1286 
Q 1028 -1241 775 -1147 
L 775 -588 
Q 1028 -725 1275 -790 
Q 1522 -856 1778 -856 
Q 2344 -856 2625 -561 
Q 2906 -266 2906 331 
L 2906 616 
Q 2728 306 2450 153 
Q 2172 0 1784 0 
Q 1141 0 747 490 
Q 353 981 353 1791 
Q 353 2603 747 3093 
Q 1141 3584 1784 3584 
Q 2172 3584 2450 3431 
Q 2728 3278 2906 2969 
L 2906 3500 
L 3481 3500 
L 3481 434 
z
" transform="scale(0.015625)"/>
       <path id="DejaVuSans-4b" d="M 3513 2113 
L 3513 0 
L 2938 0 
L 2938 2094 
Q 2938 2591 2744 2837 
Q 2550 3084 2163 3084 
Q 1697 3084 1428 2787 
Q 1159 2491 1159 1978 
L 1159 0 
L 581 0 
L 581 4863 
L 1159 4863 
L 1159 2956 
Q 1366 3272 1645 3428 
Q 1925 3584 2291 3584 
Q 2894 3584 3203 3211 
Q 3513 2838 3513 2113 
z
" transform="scale(0.015625)"/>
       <path id="DejaVuSans-45" d="M 3116 1747 
Q 3116 2381 2855 2742 
Q 2594 3103 2138 3103 
Q 1681 3103 1420 2742 
Q 1159 2381 1159 1747 
Q 1159 1113 1420 752 
Q 1681 391 2138 391 
Q 2594 391 2855 752 
Q 3116 1113 3116 1747 
z
M 1159 2969 
Q 1341 3281 1617 3432 
Q 1894 3584 2278 3584 
Q 2916 3584 3314 3078 
Q 3713 2572 3713 1747 
Q 3713 922 3314 415 
Q 2916 -91 2278 -91 
Q 1894 -91 1617 61 
Q 1341 213 1159 525 
L 1159 0 
L 581 0 
L 581 4863 
L 1159 4863 
L 1159 2969 
z
" transform="scale(0.015625)"/>
       <path id="DejaVuSans-52" d="M 1959 3097 
Q 1497 3097 1228 2736 
Q 959 2375 959 1747 
Q 959 1119 1226 758 
Q 1494 397 1959 397 
Q 2419 397 2687 759 
Q 2956 1122 2956 1747 
Q 2956 2369 2687 2733 
Q 2419 3097 1959 3097 
z
M 1959 3584 
Q 2709 3584 3137 3096 
Q 3566 2609 3566 1747 
Q 3566 888 3137 398 
Q 2709 -91 1959 -91 
Q 1206 -91 779 398 
Q 353 888 353 1747 
Q 353 2609 779 3096 
Q 1206 3584 1959 3584 
z
" transform="scale(0.015625)"/>
       <path id="DejaVuSans-55" d="M 2631 2963 
Q 2534 3019 2420 3045 
Q 2306 3072 2169 3072 
Q 1681 3072 1420 2755 
Q 1159 2438 1159 1844 
L 1159 0 
L 581 0 
L 581 3500 
L 1159 3500 
L 1159 2956 
Q 1341 3275 1631 3429 
Q 1922 3584 2338 3584 
Q 2397 3584 2469 3576 
Q 2541 3569 2628 3553 
L 2631 2963 
z
" transform="scale(0.015625)"/>
       <path id="DejaVuSans-56" d="M 2834 3397 
L 2834 2853 
Q 2591 2978 2328 3040 
Q 2066 3103 1784 3103 
Q 1356 3103 1142 2972 
Q 928 2841 928 2578 
Q 928 2378 1081 2264 
Q 1234 2150 1697 2047 
L 1894 2003 
Q 2506 1872 2764 1633 
Q 3022 1394 3022 966 
Q 3022 478 2636 193 
Q 2250 -91 1575 -91 
Q 1294 -91 989 -36 
Q 684 19 347 128 
L 347 722 
Q 666 556 975 473 
Q 1284 391 1588 391 
Q 1994 391 2212 530 
Q 2431 669 2431 922 
Q 2431 1156 2273 1281 
Q 2116 1406 1581 1522 
L 1381 1569 
Q 847 1681 609 1914 
Q 372 2147 372 2553 
Q 372 3047 722 3315 
Q 1072 3584 1716 3584 
Q 2034 3584 2315 3537 
Q 2597 3491 2834 3397 
z
" transform="scale(0.015625)"/>
      </defs>
      <use xlink:href="#DejaVuSans-31"/>
      <use xlink:href="#DejaVuSans-48" transform="translate(74.8125 0)"/>
      <use xlink:href="#DejaVuSans-4c" transform="translate(136.34375 0)"/>
      <use xlink:href="#DejaVuSans-4a" transform="translate(164.125 0)"/>
      <use xlink:href="#DejaVuSans-4b" transform="translate(227.609375 0)"/>
      <use xlink:href="#DejaVuSans-45" transform="translate(290.984375 0)"/>
      <use xlink:href="#DejaVuSans-52" transform="translate(354.46875 0)"/>
      <use xlink:href="#DejaVuSans-55" transform="translate(415.65625 0)"/>
      <use xlink:href="#DejaVuSans-56" transform="translate(456.765625 0)"/>
     </g>
    </g>
   </g>
  </g>
 </g>
 <defs>
  <clipPath id="p90cd7b19a1">
   <rect x="7.2" y="30.117344" width="500.323409" height="473.04"/>
  </clipPath>
 </defs>
</svg>
