<?xml version="1.0" encoding="utf-8" standalone="no"?>
<!DOCTYPE svg PUBLIC "-//W3C//DTD SVG 1.1//EN"
  "http://www.w3.org/Graphics/SVG/1.1/DTD/svg11.dtd">
<svg xmlns:xlink="http://www.w3.org/1999/xlink" width="264.837423pt" height="510.356016pt" viewBox="0 0 264.837423 510.356016" xmlns="http://www.w3.org/2000/svg" version="1.1">
 <metadata>
  <rdf:RDF xmlns:dc="http://purl.org/dc/elements/1.1/" xmlns:cc="http://creativecommons.org/ns#" xmlns:rdf="http://www.w3.org/1999/02/22-rdf-syntax-ns#">
   <cc:Work>
    <dc:type rdf:resource="http://purl.org/dc/dcmitype/StillImage"/>
    <dc:date>2026-06-19T08:14:17.503298</dc:date>
    <dc:format>image/svg+xml</dc:format>
    <dc:creator>
     <cc:Agent>
      <dc:title>Matplotlib v3.11.0, https://matplotlib.org/</dc:title>
     </cc:Agent>
    </dc:creator>
   </cc:Work>
  </rdf:RDF>
 </metadata>
 <defs>
  <style type="text/css">*{stroke-linejoin: round; stroke-linecap: butt}</style>
 </defs>
 <g id="figure_1">
  <g id="patch_1">
   <path d="M 0 510.356016 
L 264.837423 510.356016 
L 264.837423 -0 
L 0 -0 
z
" style="fill: #d6eaf8"/>
  </g>
  <g id="axes_1">
   <g id="PatchCollection_1">
    <path d="M 122.845834 199.233209 
L 123.666366 198.14387 
L 124.486899 198.14387 
L 125.307431 198.960874 
L 126.127963 199.233209 
L 127.769028 198.416205 
L 130.504136 196.237528 
L 134.059776 195.420525 
L 134.880309 195.965194 
L 135.700841 196.509863 
L 136.247863 197.326867 
L 137.068395 197.871536 
L 137.888928 198.14387 
L 138.435949 199.777878 
L 137.068395 200.867216 
L 135.15382 201.956554 
L 134.333287 203.045893 
L 134.333287 205.769238 
L 134.606798 207.947915 
L 135.15382 209.854257 
L 136.521374 211.21593 
L 135.700841 206.313908 
L 135.974352 204.407566 
L 141.718079 202.501224 
L 143.632654 202.501224 
L 144.726697 204.6799 
L 144.179676 204.952235 
L 142.812122 205.769238 
L 148.555848 206.858577 
L 149.376381 207.67558 
L 148.829359 209.309588 
L 147.461805 210.671261 
L 145.820741 211.21593 
L 145.820741 212.577603 
L 146.641273 212.849937 
L 148.282338 214.21161 
L 148.829359 214.756279 
L 149.649892 214.483945 
L 151.017446 213.666941 
L 151.837978 213.394606 
L 155.94064 215.028614 
L 159.222769 217.207291 
L 159.49628 218.296629 
L 158.402237 218.841298 
L 156.487662 219.113633 
L 151.837978 218.296629 
L 150.470424 219.113633 
L 150.470424 220.202971 
L 159.769791 225.104993 
L 162.504899 228.100673 
L 158.675748 227.556004 
L 154.573086 225.649662 
L 154.573086 226.739001 
L 156.214151 227.28367 
L 157.855215 228.373008 
L 160.316813 231.096354 
L 160.316813 232.185692 
L 158.949259 232.185692 
L 157.581705 232.185692 
L 156.214151 233.002696 
L 155.120108 234.636703 
L 155.393618 234.909038 
L 155.94064 235.453707 
L 156.214151 235.726042 
L 156.214151 236.81538 
L 155.667129 237.360049 
L 155.393618 238.177053 
L 155.393618 238.994056 
L 155.667129 240.083395 
L 152.932021 238.177053 
L 152.111489 234.636703 
L 152.111489 230.551685 
L 151.564467 226.739001 
L 150.196913 224.015655 
L 148.282338 220.475305 
L 145.820741 218.568963 
L 143.632654 219.113633 
L 145.54723 221.292309 
L 147.735316 223.198651 
L 149.649892 225.921997 
L 150.470424 230.007015 
L 149.10287 233.547365 
L 146.094251 231.096354 
L 140.077014 223.470986 
L 137.068395 223.74332 
L 136.247863 222.926317 
L 135.700841 222.109313 
L 134.059776 220.475305 
L 133.512755 220.202971 
L 132.692222 219.385967 
L 127.769028 211.21593 
L 125.307431 203.045893 
L 124.486899 202.228889 
L 123.666366 201.139551 
L 123.119345 200.322547 
z
" clip-path="url(#pab871537d2)" style="fill: #e74c3c; stroke: #ffffff; stroke-width: 0.6"/>
    <path d="M 111.358381 219.658302 
L 111.631891 218.024294 
L 112.178913 217.479625 
L 112.725934 217.479625 
L 112.999445 216.934956 
L 113.546467 214.756279 
L 113.546467 213.122272 
L 113.819978 211.760599 
L 115.187532 211.21593 
L 113.546467 208.764919 
L 113.546467 205.496904 
L 114.64051 199.233209 
L 114.914021 200.050212 
L 115.461042 200.050212 
L 115.734553 200.050212 
L 116.008064 200.322547 
L 121.47828 201.411885 
L 123.939877 203.045893 
L 125.03392 205.224569 
L 125.854453 209.309588 
L 129.683604 216.390287 
L 129.683604 220.202971 
L 132.145201 221.019975 
L 136.521374 224.832659 
L 140.350525 225.921997 
L 140.897546 227.011335 
L 141.171057 228.373008 
L 140.624035 230.007015 
L 139.803503 231.368688 
L 138.982971 232.458027 
L 137.888928 233.002696 
L 137.068395 233.27503 
L 143.632654 233.002696 
L 144.726697 235.181372 
L 145.820741 237.632384 
L 146.094251 239.266391 
L 145.54723 240.083395 
L 141.171057 240.083395 
L 141.171057 241.172733 
L 143.906165 242.534406 
L 148.829359 242.262071 
L 151.017446 244.440748 
L 150.196913 246.34709 
L 149.649892 249.070436 
L 149.923402 251.249112 
L 152.385 252.88312 
L 152.111489 254.244793 
L 151.837978 256.151135 
L 152.111489 258.87448 
L 149.649892 259.963819 
L 147.188295 257.240473 
L 145.000208 253.972458 
L 140.350525 250.704443 
L 136.247863 243.896079 
L 133.512755 242.262071 
L 132.418712 241.717402 
L 131.87169 240.628064 
L 131.324668 238.721722 
L 131.324668 236.270711 
L 130.777647 234.636703 
L 129.683604 233.27503 
L 128.31605 231.913357 
L 126.948496 231.096354 
L 121.204769 230.007015 
L 119.837215 229.462346 
L 119.016683 227.828339 
L 119.016683 226.194331 
L 120.384237 225.649662 
L 119.563704 223.74332 
L 118.469661 224.015655 
L 117.375618 225.104993 
L 116.008064 225.649662 
L 115.461042 225.377328 
L 113.272956 223.198651 
L 112.452424 222.381647 
L 111.905402 221.564644 
L 111.631891 220.74764 
z
" clip-path="url(#pab871537d2)" style="fill: #e74c3c; stroke: #ffffff; stroke-width: 0.6"/>
    <path d="M 132.145201 309.801046 
L 133.786266 309.801046 
L 133.786266 309.256376 
L 133.512755 308.984042 
L 133.239244 308.711707 
L 135.974352 306.805365 
L 137.341906 306.533031 
L 138.435949 307.622369 
L 137.068395 309.256376 
L 136.521374 309.801046 
L 137.068395 310.618049 
L 137.888928 310.890384 
L 138.70946 310.890384 
L 139.529992 310.890384 
L 135.974352 314.158399 
L 135.974352 315.247737 
L 142.538611 314.430733 
L 144.726697 317.154079 
L 149.376381 317.698748 
L 151.017446 319.60509 
L 151.290956 321.783767 
L 150.470424 323.14544 
L 149.10287 323.417774 
L 148.008827 322.328436 
L 147.188295 321.239098 
L 145.820741 320.694428 
L 144.726697 320.694428 
L 144.179676 321.783767 
L 145.54723 322.328436 
L 146.641273 323.690109 
L 147.188295 325.051782 
L 148.008827 326.14112 
L 148.555848 326.413455 
L 150.196913 325.868785 
L 151.017446 326.14112 
L 151.837978 327.230458 
L 152.111489 328.047462 
L 151.837978 329.1368 
L 151.017446 329.681469 
L 151.017446 330.770808 
L 154.299575 332.404815 
L 154.026064 333.766488 
L 153.205532 334.038823 
L 152.385 333.766488 
L 151.564467 333.766488 
L 148.829359 335.400495 
L 147.461805 335.67283 
L 145.820741 335.128161 
L 145.820741 336.217499 
L 146.641273 336.489834 
L 147.461805 337.034503 
L 148.008827 338.123841 
L 148.282338 339.485514 
L 149.376381 337.579172 
L 150.743935 337.034503 
L 153.752554 337.306837 
L 153.479043 337.851507 
L 153.205532 339.485514 
L 154.846597 340.302518 
L 155.94064 342.481194 
L 156.214151 345.476875 
L 155.667129 347.383217 
L 154.026064 347.655551 
L 152.111489 346.021544 
L 149.376381 341.664191 
L 142.538611 335.128161 
L 139.256482 330.226139 
L 139.529992 326.14112 
L 137.615417 323.690109 
L 135.15382 319.877425 
L 133.512755 315.792406 
L 133.239244 313.06906 
L 132.965733 312.252057 
z
" clip-path="url(#pab871537d2)" style="fill: #e74c3c; stroke: #ffffff; stroke-width: 0.6"/>
    <path d="M 96.588798 225.921997 
L 98.503373 225.649662 
L 101.238481 228.373008 
L 102.059014 228.917677 
L 102.606035 229.190012 
L 104.520611 228.917677 
L 105.067632 228.645343 
L 105.341143 227.828339 
L 105.341143 227.011335 
L 105.614654 226.739001 
L 106.435186 226.466666 
L 107.80274 224.832659 
L 112.999445 223.470986 
L 112.999445 224.560324 
L 112.452424 224.560324 
L 112.452424 225.649662 
L 115.461042 227.828339 
L 116.555086 228.100673 
L 117.375618 228.645343 
L 118.469661 231.096354 
L 119.290194 232.185692 
L 121.204769 233.002696 
L 123.119345 232.730361 
L 125.03392 233.27503 
L 126.401474 235.726042 
L 125.580942 237.632384 
L 124.760409 239.81106 
L 123.939877 241.445068 
L 122.298812 242.262071 
L 120.931258 241.989737 
L 119.837215 241.445068 
L 118.469661 241.172733 
L 117.102107 242.262071 
L 117.92264 242.80674 
L 118.469661 243.079075 
L 119.016683 243.35141 
L 119.837215 243.35141 
L 115.461042 245.530086 
L 114.093488 246.619424 
L 114.64051 244.985417 
L 115.187532 244.440748 
L 114.64051 242.262071 
L 113.546467 240.083395 
L 112.725934 239.266391 
L 111.358381 240.083395 
L 112.178913 240.628064 
L 112.999445 241.717402 
L 113.819978 243.079075 
L 113.546467 244.440748 
L 112.725934 244.713082 
L 109.443805 242.262071 
L 104.794121 241.172733 
L 101.511992 238.994056 
L 100.417949 238.994056 
L 100.417949 237.904718 
L 107.80274 237.904718 
L 106.161675 236.543045 
L 104.2471 235.453707 
L 100.144438 234.636703 
L 98.229862 232.730361 
L 96.862308 229.190012 
z
" clip-path="url(#pab871537d2)" style="fill: #e74c3c; stroke: #ffffff; stroke-width: 0.6"/>
    <path d="M 161.137345 213.122272 
L 161.410856 210.398926 
L 161.957877 209.309588 
L 162.231388 209.309588 
L 162.504899 209.854257 
L 162.77841 210.398926 
L 163.325431 210.126592 
L 163.598942 209.309588 
L 163.598942 208.492584 
L 163.872453 207.403246 
L 163.872453 206.041573 
L 163.598942 201.68422 
L 163.598942 200.322547 
L 162.504899 197.054532 
L 161.957877 194.058852 
L 162.231388 191.607841 
L 164.692985 190.246168 
L 163.872453 191.335506 
L 166.060539 197.871536 
L 168.795647 202.228889 
L 172.077777 205.496904 
L 175.906928 207.947915 
L 174.539374 210.398926 
L 172.351288 210.671261 
L 169.88969 209.854257 
L 168.248626 207.947915 
L 167.701604 209.037253 
L 170.436712 213.122272 
L 172.077777 214.483945 
L 173.445331 213.394606 
L 173.718842 216.390287 
L 173.992352 217.207291 
L 174.539374 218.024294 
L 174.539374 219.113633 
L 173.17182 219.930636 
L 171.530755 220.475305 
L 170.163201 219.930636 
L 169.069158 218.568963 
L 166.881072 214.21161 
L 165.787029 212.849937 
L 164.692985 213.394606 
L 166.33405 218.841298 
L 166.881072 220.74764 
L 167.154582 221.836978 
L 166.607561 221.836978 
L 166.060539 221.564644 
L 165.240007 220.74764 
L 164.966496 220.202971 
L 164.692985 219.658302 
L 164.692985 219.113633 
L 161.957877 215.573283 
z
" clip-path="url(#pab871537d2)" style="fill: #e74c3c; stroke: #ffffff; stroke-width: 0.6"/>
    <path d="M 136.521374 264.321172 
L 138.162438 264.865841 
L 141.444568 266.227514 
L 143.085633 266.499848 
L 145.273719 266.227514 
L 146.367762 266.499848 
L 146.914784 267.316852 
L 148.008827 269.223194 
L 148.829359 269.767863 
L 154.846597 271.401871 
L 155.667129 272.763544 
L 156.214151 274.94222 
L 158.402237 277.120897 
L 158.949259 278.754904 
L 157.855215 280.388912 
L 157.308194 281.47825 
L 157.581705 282.022919 
L 157.581705 282.839923 
L 157.581705 287.469611 
L 157.308194 288.01428 
L 156.761172 289.103618 
L 155.94064 290.465291 
L 155.120108 290.737625 
L 154.573086 290.465291 
L 149.649892 279.844242 
L 148.555848 278.754904 
L 141.718079 277.393231 
L 140.624035 276.848562 
L 139.529992 275.759224 
L 138.982971 273.852882 
L 138.70946 270.857202 
L 137.068395 267.044517 
z
" clip-path="url(#pab871537d2)" style="fill: #e74c3c; stroke: #ffffff; stroke-width: 0.6"/>
    <path d="M 163.051921 186.978153 
L 164.145964 185.61648 
L 166.060539 186.161149 
L 167.154582 187.250487 
L 167.701604 189.429164 
L 168.522136 191.880175 
L 169.342669 193.514183 
L 170.436712 195.14819 
L 170.983734 196.509863 
L 170.983734 197.599201 
L 171.257244 198.68854 
L 172.077777 198.416205 
L 172.898309 197.326867 
L 173.718842 197.326867 
L 174.265863 197.599201 
L 174.812885 198.416205 
L 175.359906 200.050212 
L 175.086396 201.411885 
L 174.539374 202.501224 
L 173.17182 203.045893 
L 170.710223 202.228889 
L 168.522136 199.777878 
L 166.607561 196.782197 
L 165.513518 194.058852 
L 164.966496 189.973833 
L 163.872453 188.884495 
z
" clip-path="url(#pab871537d2)" style="fill: #e74c3c; stroke: #ffffff; stroke-width: 0.6"/>
    <path d="M 145.54723 191.607841 
L 145.54723 189.429164 
L 146.094251 188.61216 
L 147.188295 189.701499 
L 148.282338 191.607841 
L 150.470424 196.782197 
L 155.667129 207.403246 
L 156.214151 207.947915 
L 156.761172 209.854257 
L 156.487662 211.488264 
L 155.393618 211.760599 
L 154.026064 210.943595 
L 152.932021 209.309588 
L 152.385 206.586242 
L 151.564467 204.135231 
L 151.017446 203.318227 
L 149.376381 200.867216 
L 147.461805 197.054532 
L 146.914784 195.692859 
z
" clip-path="url(#pab871537d2)" style="fill: #e74c3c; stroke: #ffffff; stroke-width: 0.6"/>
    <path d="M 176.180439 204.6799 
L 177.000971 203.318227 
L 178.368525 202.773558 
L 181.103633 200.322547 
L 183.291719 200.322547 
L 184.385762 201.139551 
L 184.385762 202.228889 
L 182.197676 204.407566 
L 182.744698 206.041573 
L 182.744698 207.67558 
L 182.197676 208.492584 
L 181.650655 209.581922 
L 180.556611 210.126592 
L 179.462568 210.398926 
L 178.095014 210.126592 
L 177.274482 208.492584 
L 176.453949 206.586242 
z
" clip-path="url(#pab871537d2)" style="fill: #e74c3c; stroke: #ffffff; stroke-width: 0.6"/>
    <path d="M 153.479043 194.331186 
L 153.752554 190.790837 
L 154.846597 189.429164 
L 156.214151 190.790837 
L 156.761172 193.241848 
L 160.043302 200.867216 
L 160.863834 203.045893 
L 161.410856 204.407566 
L 161.410856 206.858577 
L 160.316813 207.67558 
L 158.675748 206.858577 
L 157.034683 204.6799 
L 156.214151 203.318227 
L 154.299575 198.14387 
z
" clip-path="url(#pab871537d2)" style="fill: #e74c3c; stroke: #ffffff; stroke-width: 0.6"/>
    <path d="M 80.451661 232.730361 
L 82.639747 231.368688 
L 84.827834 231.368688 
L 87.01592 232.458027 
L 87.836452 233.547365 
L 88.656985 234.092034 
L 87.836452 234.364369 
L 87.01592 234.364369 
L 80.725172 233.8197 
z
" clip-path="url(#pab871537d2)" style="fill: #e74c3c; stroke: #ffffff; stroke-width: 0.6"/>
   </g>
   <g id="text_1">
    <!-- Faeroe Is. -->
    <g style="fill: #1a252f" transform="translate(85.403087 20.116016) scale(0.17 -0.17)">
     <defs>
      <path id="DejaVuSans-Bold-29" d="M 588 4666 
L 3834 4666 
L 3834 3756 
L 1791 3756 
L 1791 2888 
L 3713 2888 
L 3713 1978 
L 1791 1978 
L 1791 0 
L 588 0 
L 588 4666 
z
" transform="scale(0.015625)"/>
      <path id="DejaVuSans-Bold-44" d="M 2106 1575 
Q 1756 1575 1579 1456 
Q 1403 1338 1403 1106 
Q 1403 894 1545 773 
Q 1688 653 1941 653 
Q 2256 653 2472 879 
Q 2688 1106 2688 1447 
L 2688 1575 
L 2106 1575 
z
M 3816 1997 
L 3816 0 
L 2688 0 
L 2688 519 
Q 2463 200 2181 54 
Q 1900 -91 1497 -91 
Q 953 -91 614 226 
Q 275 544 275 1050 
Q 275 1666 698 1953 
Q 1122 2241 2028 2241 
L 2688 2241 
L 2688 2328 
Q 2688 2594 2478 2717 
Q 2269 2841 1825 2841 
Q 1466 2841 1156 2769 
Q 847 2697 581 2553 
L 581 3406 
Q 941 3494 1303 3539 
Q 1666 3584 2028 3584 
Q 2975 3584 3395 3211 
Q 3816 2838 3816 1997 
z
" transform="scale(0.015625)"/>
      <path id="DejaVuSans-Bold-48" d="M 4031 1759 
L 4031 1441 
L 1416 1441 
Q 1456 1047 1700 850 
Q 1944 653 2381 653 
Q 2734 653 3104 758 
Q 3475 863 3866 1075 
L 3866 213 
Q 3469 63 3072 -14 
Q 2675 -91 2278 -91 
Q 1328 -91 801 392 
Q 275 875 275 1747 
Q 275 2603 792 3093 
Q 1309 3584 2216 3584 
Q 3041 3584 3536 3087 
Q 4031 2591 4031 1759 
z
M 2881 2131 
Q 2881 2450 2695 2645 
Q 2509 2841 2209 2841 
Q 1884 2841 1681 2658 
Q 1478 2475 1428 2131 
L 2881 2131 
z
" transform="scale(0.015625)"/>
      <path id="DejaVuSans-Bold-55" d="M 3138 2547 
Q 2991 2616 2845 2648 
Q 2700 2681 2553 2681 
Q 2122 2681 1889 2404 
Q 1656 2128 1656 1613 
L 1656 0 
L 538 0 
L 538 3500 
L 1656 3500 
L 1656 2925 
Q 1872 3269 2151 3426 
Q 2431 3584 2822 3584 
Q 2878 3584 2943 3579 
Q 3009 3575 3134 3559 
L 3138 2547 
z
" transform="scale(0.015625)"/>
      <path id="DejaVuSans-Bold-52" d="M 2203 2784 
Q 1831 2784 1636 2517 
Q 1441 2250 1441 1747 
Q 1441 1244 1636 976 
Q 1831 709 2203 709 
Q 2569 709 2762 976 
Q 2956 1244 2956 1747 
Q 2956 2250 2762 2517 
Q 2569 2784 2203 2784 
z
M 2203 3584 
Q 3106 3584 3614 3096 
Q 4122 2609 4122 1747 
Q 4122 884 3614 396 
Q 3106 -91 2203 -91 
Q 1297 -91 786 396 
Q 275 884 275 1747 
Q 275 2609 786 3096 
Q 1297 3584 2203 3584 
z
" transform="scale(0.015625)"/>
      <path id="DejaVuSans-Bold-3" transform="scale(0.015625)"/>
      <path id="DejaVuSans-Bold-2c" d="M 588 4666 
L 1791 4666 
L 1791 0 
L 588 0 
L 588 4666 
z
" transform="scale(0.015625)"/>
      <path id="DejaVuSans-Bold-56" d="M 3272 3391 
L 3272 2541 
Q 2913 2691 2578 2766 
Q 2244 2841 1947 2841 
Q 1628 2841 1473 2761 
Q 1319 2681 1319 2516 
Q 1319 2381 1436 2309 
Q 1553 2238 1856 2203 
L 2053 2175 
Q 2913 2066 3209 1816 
Q 3506 1566 3506 1031 
Q 3506 472 3093 190 
Q 2681 -91 1863 -91 
Q 1516 -91 1145 -36 
Q 775 19 384 128 
L 384 978 
Q 719 816 1070 734 
Q 1422 653 1784 653 
Q 2113 653 2278 743 
Q 2444 834 2444 1013 
Q 2444 1163 2330 1236 
Q 2216 1309 1875 1350 
L 1678 1375 
Q 931 1469 631 1722 
Q 331 1975 331 2491 
Q 331 3047 712 3315 
Q 1094 3584 1881 3584 
Q 2191 3584 2531 3537 
Q 2872 3491 3272 3391 
z
" transform="scale(0.015625)"/>
      <path id="DejaVuSans-Bold-11" d="M 653 1209 
L 1778 1209 
L 1778 0 
L 653 0 
L 653 1209 
z
" transform="scale(0.015625)"/>
     </defs>
     <use xlink:href="#DejaVuSans-Bold-29"/>
     <use xlink:href="#DejaVuSans-Bold-44" transform="translate(62.453125 0)"/>
     <use xlink:href="#DejaVuSans-Bold-48" transform="translate(129.9375 0)"/>
     <use xlink:href="#DejaVuSans-Bold-55" transform="translate(197.765625 0)"/>
     <use xlink:href="#DejaVuSans-Bold-52" transform="translate(247.078125 0)"/>
     <use xlink:href="#DejaVuSans-Bold-48" transform="translate(315.78125 0)"/>
     <use xlink:href="#DejaVuSans-Bold-3" transform="translate(383.609375 0)"/>
     <use xlink:href="#DejaVuSans-Bold-2c" transform="translate(418.421875 0)"/>
     <use xlink:href="#DejaVuSans-Bold-56" transform="translate(455.625 0)"/>
     <use xlink:href="#DejaVuSans-Bold-11" transform="translate(515.140625 0)"/>
    </g>
   </g>
   <g id="legend_1">
    <g id="patch_2">
     <path d="M 13.5 498.656016 
L 88.097344 498.656016 
Q 89.897344 498.656016 89.897344 496.856016 
L 89.897344 470.754609 
Q 89.897344 468.954609 88.097344 468.954609 
L 13.5 468.954609 
Q 11.7 468.954609 11.7 470.754609 
L 11.7 496.856016 
Q 11.7 498.656016 13.5 498.656016 
z
" style="fill: #ffffff; opacity: 0.85; stroke: #cccccc; stroke-linejoin: miter"/>
    </g>
    <g id="patch_3">
     <path d="M 15.3 479.393203 
L 33.3 479.393203 
L 33.3 473.093203 
L 15.3 473.093203 
z
" style="fill: #e74c3c; stroke: #888888; stroke-linejoin: miter"/>
    </g>
    <g id="text_2">
     <!-- Faeroe Is. -->
     <g transform="translate(40.5 479.393203) scale(0.09 -0.09)">
      <defs>
       <path id="DejaVuSans-29" d="M 628 4666 
L 3309 4666 
L 3309 4134 
L 1259 4134 
L 1259 2759 
L 3109 2759 
L 3109 2228 
L 1259 2228 
L 1259 0 
L 628 0 
L 628 4666 
z
" transform="scale(0.015625)"/>
       <path id="DejaVuSans-44" d="M 2194 1759 
Q 1497 1759 1228 1600 
Q 959 1441 959 1056 
Q 959 750 1161 570 
Q 1363 391 1709 391 
Q 2188 391 2477 730 
Q 2766 1069 2766 1631 
L 2766 1759 
L 2194 1759 
z
M 3341 1997 
L 3341 0 
L 2766 0 
L 2766 531 
Q 2569 213 2275 61 
Q 1981 -91 1556 -91 
Q 1019 -91 701 211 
Q 384 513 384 1019 
Q 384 1609 779 1909 
Q 1175 2209 1959 2209 
L 2766 2209 
L 2766 2266 
Q 2766 2663 2505 2880 
Q 2244 3097 1772 3097 
Q 1472 3097 1187 3025 
Q 903 2953 641 2809 
L 641 3341 
Q 956 3463 1253 3523 
Q 1550 3584 1831 3584 
Q 2591 3584 2966 3190 
Q 3341 2797 3341 1997 
z
" transform="scale(0.015625)"/>
       <path id="DejaVuSans-48" d="M 3597 1894 
L 3597 1613 
L 953 1613 
Q 991 1019 1311 708 
Q 1631 397 2203 397 
Q 2534 397 2845 478 
Q 3156 559 3463 722 
L 3463 178 
Q 3153 47 2828 -22 
Q 2503 -91 2169 -91 
Q 1331 -91 842 396 
Q 353 884 353 1716 
Q 353 2575 817 3079 
Q 1281 3584 2069 3584 
Q 2775 3584 3186 3129 
Q 3597 2675 3597 1894 
z
M 3022 2063 
Q 3016 2534 2758 2815 
Q 2500 3097 2075 3097 
Q 1594 3097 1305 2825 
Q 1016 2553 972 2059 
L 3022 2063 
z
" transform="scale(0.015625)"/>
       <path id="DejaVuSans-55" d="M 2631 2963 
Q 2534 3019 2420 3045 
Q 2306 3072 2169 3072 
Q 1681 3072 1420 2755 
Q 1159 2438 1159 1844 
L 1159 0 
L 581 0 
L 581 3500 
L 1159 3500 
L 1159 2956 
Q 1341 3275 1631 3429 
Q 1922 3584 2338 3584 
Q 2397 3584 2469 3576 
Q 2541 3569 2628 3553 
L 2631 2963 
z
" transform="scale(0.015625)"/>
       <path id="DejaVuSans-52" d="M 1959 3097 
Q 1497 3097 1228 2736 
Q 959 2375 959 1747 
Q 959 1119 1226 758 
Q 1494 397 1959 397 
Q 2419 397 2687 759 
Q 2956 1122 2956 1747 
Q 2956 2369 2687 2733 
Q 2419 3097 1959 3097 
z
M 1959 3584 
Q 2709 3584 3137 3096 
Q 3566 2609 3566 1747 
Q 3566 888 3137 398 
Q 2709 -91 1959 -91 
Q 1206 -91 779 398 
Q 353 888 353 1747 
Q 353 2609 779 3096 
Q 1206 3584 1959 3584 
z
" transform="scale(0.015625)"/>
       <path id="DejaVuSans-3" transform="scale(0.015625)"/>
       <path id="DejaVuSans-2c" d="M 628 4666 
L 1259 4666 
L 1259 0 
L 628 0 
L 628 4666 
z
" transform="scale(0.015625)"/>
       <path id="DejaVuSans-56" d="M 2834 3397 
L 2834 2853 
Q 2591 2978 2328 3040 
Q 2066 3103 1784 3103 
Q 1356 3103 1142 2972 
Q 928 2841 928 2578 
Q 928 2378 1081 2264 
Q 1234 2150 1697 2047 
L 1894 2003 
Q 2506 1872 2764 1633 
Q 3022 1394 3022 966 
Q 3022 478 2636 193 
Q 2250 -91 1575 -91 
Q 1294 -91 989 -36 
Q 684 19 347 128 
L 347 722 
Q 666 556 975 473 
Q 1284 391 1588 391 
Q 1994 391 2212 530 
Q 2431 669 2431 922 
Q 2431 1156 2273 1281 
Q 2116 1406 1581 1522 
L 1381 1569 
Q 847 1681 609 1914 
Q 372 2147 372 2553 
Q 372 3047 722 3315 
Q 1072 3584 1716 3584 
Q 2034 3584 2315 3537 
Q 2597 3491 2834 3397 
z
" transform="scale(0.015625)"/>
       <path id="DejaVuSans-11" d="M 684 794 
L 1344 794 
L 1344 0 
L 684 0 
L 684 794 
z
" transform="scale(0.015625)"/>
      </defs>
      <use xlink:href="#DejaVuSans-29"/>
      <use xlink:href="#DejaVuSans-44" transform="translate(48.34375 0)"/>
      <use xlink:href="#DejaVuSans-48" transform="translate(109.625 0)"/>
      <use xlink:href="#DejaVuSans-55" transform="translate(171.15625 0)"/>
      <use xlink:href="#DejaVuSans-52" transform="translate(210.0625 0)"/>
      <use xlink:href="#DejaVuSans-48" transform="translate(271.25 0)"/>
      <use xlink:href="#DejaVuSans-3" transform="translate(332.78125 0)"/>
      <use xlink:href="#DejaVuSans-2c" transform="translate(364.5625 0)"/>
      <use xlink:href="#DejaVuSans-56" transform="translate(394.0625 0)"/>
      <use xlink:href="#DejaVuSans-11" transform="translate(446.15625 0)"/>
     </g>
    </g>
    <g id="patch_4">
     <path d="M 15.3 492.893906 
L 33.3 492.893906 
L 33.3 486.593906 
L 15.3 486.593906 
z
" style="fill: #bdc3c7; stroke: #888888; stroke-linejoin: miter"/>
    </g>
    <g id="text_3">
     <!-- Neighbors -->
     <g transform="translate(40.5 492.893906) scale(0.09 -0.09)">
      <defs>
       <path id="DejaVuSans-31" d="M 628 4666 
L 1478 4666 
L 3547 763 
L 3547 4666 
L 4159 4666 
L 4159 0 
L 3309 0 
L 1241 3903 
L 1241 0 
L 628 0 
L 628 4666 
z
" transform="scale(0.015625)"/>
       <path id="DejaVuSans-4c" d="M 603 3500 
L 1178 3500 
L 1178 0 
L 603 0 
L 603 3500 
z
M 603 4863 
L 1178 4863 
L 1178 4134 
L 603 4134 
L 603 4863 
z
" transform="scale(0.015625)"/>
       <path id="DejaVuSans-4a" d="M 2906 1791 
Q 2906 2416 2648 2759 
Q 2391 3103 1925 3103 
Q 1463 3103 1205 2759 
Q 947 2416 947 1791 
Q 947 1169 1205 825 
Q 1463 481 1925 481 
Q 2391 481 2648 825 
Q 2906 1169 2906 1791 
z
M 3481 434 
Q 3481 -459 3084 -895 
Q 2688 -1331 1869 -1331 
Q 1566 -1331 1297 -1286 
Q 1028 -1241 775 -1147 
L 775 -588 
Q 1028 -725 1275 -790 
Q 1522 -856 1778 -856 
Q 2344 -856 2625 -561 
Q 2906 -266 2906 331 
L 2906 616 
Q 2728 306 2450 153 
Q 2172 0 1784 0 
Q 1141 0 747 490 
Q 353 981 353 1791 
Q 353 2603 747 3093 
Q 1141 3584 1784 3584 
Q 2172 3584 2450 3431 
Q 2728 3278 2906 2969 
L 2906 3500 
L 3481 3500 
L 3481 434 
z
" transform="scale(0.015625)"/>
       <path id="DejaVuSans-4b" d="M 3513 2113 
L 3513 0 
L 2938 0 
L 2938 2094 
Q 2938 2591 2744 2837 
Q 2550 3084 2163 3084 
Q 1697 3084 1428 2787 
Q 1159 2491 1159 1978 
L 1159 0 
L 581 0 
L 581 4863 
L 1159 4863 
L 1159 2956 
Q 1366 3272 1645 3428 
Q 1925 3584 2291 3584 
Q 2894 3584 3203 3211 
Q 3513 2838 3513 2113 
z
" transform="scale(0.015625)"/>
       <path id="DejaVuSans-45" d="M 3116 1747 
Q 3116 2381 2855 2742 
Q 2594 3103 2138 3103 
Q 1681 3103 1420 2742 
Q 1159 2381 1159 1747 
Q 1159 1113 1420 752 
Q 1681 391 2138 391 
Q 2594 391 2855 752 
Q 3116 1113 3116 1747 
z
M 1159 2969 
Q 1341 3281 1617 3432 
Q 1894 3584 2278 3584 
Q 2916 3584 3314 3078 
Q 3713 2572 3713 1747 
Q 3713 922 3314 415 
Q 2916 -91 2278 -91 
Q 1894 -91 1617 61 
Q 1341 213 1159 525 
L 1159 0 
L 581 0 
L 581 4863 
L 1159 4863 
L 1159 2969 
z
" transform="scale(0.015625)"/>
      </defs>
      <use xlink:href="#DejaVuSans-31"/>
      <use xlink:href="#DejaVuSans-48" transform="translate(74.8125 0)"/>
      <use xlink:href="#DejaVuSans-4c" transform="translate(136.34375 0)"/>
      <use xlink:href="#DejaVuSans-4a" transform="translate(164.125 0)"/>
      <use xlink:href="#DejaVuSans-4b" transform="translate(227.609375 0)"/>
      <use xlink:href="#DejaVuSans-45" transform="translate(290.984375 0)"/>
      <use xlink:href="#DejaVuSans-52" transform="translate(354.46875 0)"/>
      <use xlink:href="#DejaVuSans-55" transform="translate(415.65625 0)"/>
      <use xlink:href="#DejaVuSans-56" transform="translate(456.765625 0)"/>
     </g>
    </g>
   </g>
  </g>
 </g>
 <defs>
  <clipPath id="pab871537d2">
   <rect x="7.2" y="30.116016" width="250.437423" height="473.04"/>
  </clipPath>
 </defs>
</svg>
