<?xml version="1.0" encoding="utf-8" standalone="no"?>
<!DOCTYPE svg PUBLIC "-//W3C//DTD SVG 1.1//EN"
  "http://www.w3.org/Graphics/SVG/1.1/DTD/svg11.dtd">
<svg xmlns:xlink="http://www.w3.org/1999/xlink" width="475.796822pt" height="510.357344pt" viewBox="0 0 475.796822 510.357344" xmlns="http://www.w3.org/2000/svg" version="1.1">
 <metadata>
  <rdf:RDF xmlns:dc="http://purl.org/dc/elements/1.1/" xmlns:cc="http://creativecommons.org/ns#" xmlns:rdf="http://www.w3.org/1999/02/22-rdf-syntax-ns#">
   <cc:Work>
    <dc:type rdf:resource="http://purl.org/dc/dcmitype/StillImage"/>
    <dc:date>2026-06-19T08:36:35.944500</dc:date>
    <dc:format>image/svg+xml</dc:format>
    <dc:creator>
     <cc:Agent>
      <dc:title>Matplotlib v3.11.0, https://matplotlib.org/</dc:title>
     </cc:Agent>
    </dc:creator>
   </cc:Work>
  </rdf:RDF>
 </metadata>
 <defs>
  <style type="text/css">*{stroke-linejoin: round; stroke-linecap: butt}</style>
 </defs>
 <g id="figure_1">
  <g id="patch_1">
   <path d="M 0 510.357344 
L 475.796822 510.357344 
L 475.796822 0 
L 0 0 
z
" style="fill: #d6eaf8"/>
  </g>
  <g id="axes_1">
   <g id="PatchCollection_1">
    <path d="M 222.914781 314.718482 
L 223.18971 313.469621 
L 223.739568 313.053334 
L 224.289426 313.053334 
L 225.114213 313.469621 
L 225.664071 313.885908 
L 227.313645 315.759199 
L 227.863503 316.175486 
L 229.238148 315.967343 
L 230.062935 315.134769 
L 230.337864 313.677765 
L 229.238148 312.012617 
L 232.537296 311.180043 
L 233.911941 310.347469 
L 234.461799 308.474178 
L 233.087154 307.849748 
L 231.712509 306.600887 
L 230.337864 305.143883 
L 229.788006 303.478735 
L 229.788006 302.229875 
L 230.337864 301.813588 
L 230.887722 302.021731 
L 231.712509 303.062448 
L 232.537296 303.478735 
L 233.637012 303.686879 
L 235.561515 303.478735 
L 234.461799 300.981014 
L 233.911941 300.14844 
L 232.812225 299.315866 
L 234.18687 298.691436 
L 236.93616 298.275149 
L 238.310805 297.650719 
L 238.310805 296.610001 
L 233.911941 295.569284 
L 231.987438 294.11228 
L 231.987438 291.822702 
L 233.637012 290.573841 
L 236.111373 291.406415 
L 238.860663 293.071563 
L 240.785166 293.48785 
L 242.43474 291.822702 
L 241.335024 290.365698 
L 239.135592 288.908694 
L 238.310805 287.451689 
L 238.585734 285.994685 
L 239.68545 285.994685 
L 240.785166 286.202829 
L 241.884882 285.786542 
L 242.43474 284.745824 
L 242.43474 283.705107 
L 241.884882 282.872533 
L 240.785166 282.456246 
L 242.159811 281.623673 
L 247.933319 279.334095 
L 249.307964 280.999242 
L 250.40768 279.542238 
L 251.232467 273.922365 
L 252.607112 275.171225 
L 253.706828 275.379369 
L 256.456118 274.754939 
L 255.081473 271.84093 
L 255.081473 270.592069 
L 262.229627 265.388483 
L 263.604271 267.053631 
L 264.429058 266.221057 
L 265.528774 264.555909 
L 266.62849 263.723335 
L 272.676928 262.682618 
L 273.776644 262.890762 
L 274.326502 263.931479 
L 274.326502 264.972196 
L 274.051573 266.012913 
L 274.326502 267.261774 
L 274.601431 268.094348 
L 275.151289 268.926922 
L 275.701147 269.759496 
L 275.976076 271.008356 
L 275.701147 272.049074 
L 275.151289 273.297934 
L 274.87636 274.130508 
L 275.426218 276.003799 
L 275.426218 277.044517 
L 275.151289 278.085234 
L 274.87636 278.917808 
L 276.251005 278.501521 
L 277.62565 278.085234 
L 279.000295 277.25266 
L 279.550153 275.587512 
L 279.275224 273.714221 
L 278.175508 271.632787 
L 277.62565 269.551352 
L 277.900579 266.221057 
L 276.800863 265.18034 
L 275.976076 263.723335 
L 276.525934 261.225614 
L 277.075792 260.601184 
L 277.900579 260.39304 
L 278.725366 260.184897 
L 279.000295 259.144179 
L 278.725366 257.895319 
L 278.175508 257.895319 
L 277.350721 257.895319 
L 275.701147 256.854601 
L 270.477496 254.773167 
L 266.903419 251.859158 
L 265.253845 248.94515 
L 266.62849 246.863715 
L 268.827922 244.365994 
L 269.652709 239.994981 
L 273.501715 247.696289 
L 275.976076 250.194011 
L 277.62565 246.863715 
L 275.426218 243.949707 
L 274.87636 241.243842 
L 276.251005 239.786838 
L 279.000295 240.827555 
L 277.075792 238.954264 
L 270.202567 235.623969 
L 268.552993 234.583252 
L 268.827922 232.70996 
L 269.652709 230.628526 
L 270.477496 229.171522 
L 271.577212 228.338948 
L 272.12707 228.547091 
L 273.776644 229.587809 
L 274.326502 230.004096 
L 275.151289 230.004096 
L 277.62565 229.171522 
L 278.450437 228.755235 
L 278.725366 227.506374 
L 279.000295 226.257513 
L 279.275224 225.841226 
L 284.498874 225.633083 
L 286.148448 225.008653 
L 287.798022 223.967935 
L 288.34788 222.302788 
L 288.072951 220.63764 
L 285.873519 217.515488 
L 285.048732 215.22591 
L 284.223945 214.393336 
L 283.399159 213.560763 
L 282.849301 213.144476 
L 282.574372 212.520045 
L 281.749585 208.773463 
L 283.12423 209.606037 
L 285.59859 212.520045 
L 286.973235 213.144476 
L 288.622809 213.352619 
L 292.196886 214.809623 
L 298.520253 218.764349 
L 300.169827 218.972492 
L 304.018832 218.972492 
L 305.118548 219.388779 
L 305.668406 220.01321 
L 306.768122 220.63764 
L 307.867838 220.63764 
L 307.867838 219.805066 
L 307.592909 218.348062 
L 308.692625 217.099201 
L 310.342199 216.058484 
L 317.765282 215.434054 
L 319.139927 216.058484 
L 320.239643 217.099201 
L 323.538791 218.139919 
L 324.913435 219.388779 
L 328.212583 223.551648 
L 328.762441 225.42494 
L 329.03737 227.922661 
L 329.312299 229.587809 
L 329.03737 230.836669 
L 327.112867 232.501817 
L 325.738222 233.126247 
L 323.81372 233.542534 
L 321.889217 233.750678 
L 320.239643 233.334391 
L 319.689785 231.877387 
L 318.31514 227.714518 
L 317.215424 226.6738 
L 315.840779 226.881944 
L 314.741063 228.338948 
L 312.541631 231.669243 
L 315.015992 231.669243 
L 315.56585 233.334391 
L 314.741063 238.746121 
L 315.56585 239.578695 
L 320.514572 236.87283 
L 322.164146 237.080973 
L 322.439075 238.329834 
L 322.439075 239.994981 
L 322.164146 241.660129 
L 321.889217 243.117133 
L 322.164146 245.198568 
L 322.439075 246.031142 
L 323.538791 246.031142 
L 323.81372 245.822998 
L 324.363578 244.574137 
L 324.913435 244.365994 
L 325.188364 244.782281 
L 325.463293 246.655572 
L 325.738222 247.280002 
L 326.837938 247.904433 
L 328.212583 247.904433 
L 329.03737 247.280002 
L 329.862157 246.031142 
L 331.236802 246.863715 
L 332.336518 248.112576 
L 332.886376 249.985867 
L 332.886376 252.275445 
L 333.436234 253.940593 
L 334.53595 256.022028 
L 335.635666 257.895319 
L 336.735382 258.727892 
L 338.110027 257.895319 
L 337.560169 256.022028 
L 335.635666 252.691732 
L 336.460453 251.234728 
L 338.110027 251.651015 
L 341.409175 253.524306 
L 340.859317 250.818441 
L 338.934814 249.56958 
L 337.010311 248.737007 
L 335.910595 247.280002 
L 336.460453 246.447429 
L 337.560169 245.614855 
L 338.384956 244.574137 
L 337.835098 243.117133 
L 337.010311 242.492703 
L 334.53595 243.53342 
L 333.436234 243.53342 
L 332.611447 242.492703 
L 332.611447 241.451986 
L 332.611447 240.411268 
L 332.336518 239.162408 
L 332.061589 238.537977 
L 331.511731 237.705403 
L 330.961873 237.705403 
L 330.686944 238.746121 
L 330.412015 239.994981 
L 329.587228 240.619412 
L 328.762441 240.827555 
L 327.937654 240.827555 
L 327.112867 240.411268 
L 327.387796 239.370551 
L 328.762441 237.49726 
L 332.336518 230.420382 
L 333.161305 229.171522 
L 333.986092 228.755235 
L 336.185524 227.090087 
L 337.010311 226.6738 
L 353.231121 225.42494 
L 357.355056 223.967935 
L 359.554488 224.176079 
L 361.75392 224.592366 
L 362.578707 225.42494 
L 363.403494 226.6738 
L 364.50321 231.669243 
L 365.053068 232.501817 
L 365.877854 233.126247 
L 368.352215 237.080973 
L 369.177002 237.913547 
L 370.001789 238.537977 
L 372.201221 239.162408 
L 371.651363 240.411268 
L 370.001789 241.451986 
L 369.451931 242.700846 
L 371.376434 242.700846 
L 372.201221 243.741564 
L 371.376434 245.198568 
L 369.451931 246.031142 
L 360.104346 244.574137 
L 353.50605 240.827555 
L 352.131405 240.411268 
L 351.306618 241.451986 
L 352.406334 244.365994 
L 348.282399 242.700846 
L 343.333678 245.198568 
L 344.708323 247.488146 
L 347.182683 249.361437 
L 350.206902 250.610298 
L 352.406334 251.026585 
L 356.805198 249.985867 
L 358.729701 251.234728 
L 365.877854 252.067302 
L 368.902073 252.899876 
L 371.101505 254.565023 
L 372.201221 257.479032 
L 370.826576 258.936036 
L 367.527428 260.184897 
L 362.303778 261.225614 
L 362.303778 262.058188 
L 366.702641 263.723335 
L 368.627144 263.723335 
L 371.651363 262.682618 
L 373.026008 262.474475 
L 374.675582 262.890762 
L 374.675582 263.723335 
L 372.751079 263.931479 
L 364.778139 267.678061 
L 363.403494 268.094348 
L 358.179843 268.094348 
L 357.080127 268.510635 
L 357.080127 269.551352 
L 355.980411 270.383926 
L 355.155624 270.800213 
L 343.333678 272.257217 
L 337.560169 271.2165 
L 334.53595 271.424643 
L 334.53595 272.257217 
L 335.360737 272.465361 
L 338.110027 273.922365 
L 339.484672 274.338652 
L 343.333678 274.754939 
L 343.333678 275.587512 
L 341.134246 276.211943 
L 336.735382 276.003799 
L 334.53595 276.420086 
L 329.312299 279.750381 
L 327.112867 279.958525 
L 328.762441 280.582955 
L 330.412015 280.582955 
L 335.085808 278.293377 
L 340.309459 278.085234 
L 339.209743 279.542238 
L 337.28524 280.999242 
L 335.085808 282.039959 
L 332.061589 282.872533 
L 326.013151 286.619115 
L 322.439075 288.284263 
L 315.56585 287.035402 
L 311.441915 287.451689 
L 308.692625 288.284263 
L 296.59575 288.07612 
L 294.671247 287.451689 
L 292.196886 284.953968 
L 288.622809 283.496964 
L 286.973235 282.039959 
L 285.323661 281.207386 
L 284.498874 280.374812 
L 284.223945 279.334095 
L 283.949016 277.87709 
L 283.399159 276.836373 
L 282.574372 276.420086 
L 281.749585 277.044517 
L 280.924798 278.917808 
L 280.37494 280.791099 
L 280.100011 281.831816 
L 280.37494 283.496964 
L 281.474656 284.953968 
L 282.849301 286.202829 
L 286.423377 287.243546 
L 289.447596 288.908694 
L 292.196886 290.990128 
L 293.571531 293.48785 
L 292.471815 295.569284 
L 294.671247 296.193714 
L 298.795182 294.944854 
L 301.269543 295.152997 
L 304.018832 295.985571 
L 306.218264 297.650719 
L 306.218264 300.14844 
L 308.417696 301.813588 
L 304.293761 304.519453 
L 303.194046 305.976457 
L 304.018832 306.809031 
L 304.56869 307.849748 
L 304.843619 309.306752 
L 305.668406 313.469621 
L 305.393477 314.718482 
L 304.843619 315.134769 
L 303.743904 315.342912 
L 302.919117 314.718482 
L 300.444756 310.139326 
L 299.619969 308.890465 
L 298.795182 307.849748 
L 297.695466 307.017174 
L 296.320821 306.809031 
L 295.496034 306.600887 
L 294.671247 305.352026 
L 294.121389 305.143883 
L 293.84646 305.352026 
L 293.571531 305.976457 
L 293.296602 306.600887 
L 292.471815 306.809031 
L 291.647028 306.600887 
L 290.547312 306.1846 
L 289.997454 305.976457 
L 288.897738 306.392744 
L 289.172667 307.433461 
L 289.447596 308.474178 
L 289.447596 309.306752 
L 288.34788 310.555613 
L 286.148448 312.012617 
L 285.048732 313.053334 
L 283.674087 314.094052 
L 282.849301 312.637047 
L 282.024514 308.474178 
L 280.649869 310.347469 
L 279.550153 309.306752 
L 279.000295 307.017174 
L 278.450437 305.143883 
L 276.800863 304.311309 
L 275.151289 304.727596 
L 273.776644 304.727596 
L 273.226786 302.646162 
L 271.852141 303.270592 
L 270.752425 303.062448 
L 268.552993 300.77287 
L 268.003135 299.940297 
L 267.453277 299.52401 
L 266.903419 299.315866 
L 266.078632 299.732153 
L 265.803703 300.356584 
L 265.528774 300.981014 
L 264.978916 301.813588 
L 263.8792 302.229875 
L 262.779485 302.438018 
L 261.954698 302.229875 
L 260.854982 301.813588 
L 260.030195 301.189157 
L 259.480337 300.77287 
L 258.930479 300.14844 
L 258.105692 300.14844 
L 257.555834 300.356584 
L 256.456118 301.397301 
L 255.631331 301.813588 
L 255.081473 302.438018 
L 255.356402 303.895022 
L 256.456118 304.727596 
L 258.65555 303.270592 
L 262.779485 304.311309 
L 263.8792 305.143883 
L 264.154129 306.809031 
L 264.154129 308.682322 
L 264.703987 309.306752 
L 266.078632 309.098609 
L 267.178348 308.682322 
L 268.278064 308.474178 
L 269.652709 309.306752 
L 266.903419 312.637047 
L 269.652709 312.428904 
L 271.027354 312.845191 
L 272.12707 313.677765 
L 271.027354 314.718482 
L 268.003135 315.967343 
L 266.903419 317.00806 
L 266.353561 319.297638 
L 267.453277 319.922068 
L 269.37778 319.922068 
L 273.776644 318.256921 
L 275.151289 318.256921 
L 275.426218 319.505781 
L 274.601431 320.546499 
L 270.752425 322.836077 
L 271.577212 324.501224 
L 273.226786 326.166372 
L 274.326502 327.623376 
L 273.226786 329.704811 
L 271.577212 330.121098 
L 269.652709 329.288524 
L 266.353561 327.207089 
L 264.429058 326.998946 
L 262.779485 327.207089 
L 261.129911 326.998946 
L 259.755266 325.333798 
L 259.205408 324.293081 
L 259.205408 323.252364 
L 258.930479 322.211646 
L 258.105692 321.170929 
L 257.280905 320.546499 
L 256.181189 320.338355 
L 255.356402 319.922068 
L 254.531615 318.673208 
L 253.15697 319.297638 
L 250.132751 315.759199 
L 248.758106 315.342912 
L 248.208248 315.967343 
L 247.933319 317.424347 
L 247.65839 319.922068 
L 247.108532 320.754642 
L 246.283745 319.922068 
L 244.9091 317.840634 
L 243.259526 319.089495 
L 244.084313 321.170929 
L 246.558674 324.501224 
L 246.283745 324.501224 
L 245.733887 325.333798 
L 245.184029 326.374516 
L 244.9091 327.623376 
L 245.458958 328.45595 
L 246.283745 328.664094 
L 248.208248 328.872237 
L 250.132751 329.912954 
L 251.232467 331.369958 
L 251.782325 333.24325 
L 251.232467 335.532828 
L 250.957538 335.949114 
L 249.857822 337.197975 
L 249.582893 338.446836 
L 250.40768 338.863123 
L 250.682609 339.487553 
L 252.332183 341.360844 
L 252.882041 341.360844 
L 252.332183 343.650422 
L 250.682609 342.817849 
L 248.208248 339.695697 
L 246.283745 338.654979 
L 242.43474 338.030549 
L 240.785166 336.573545 
L 241.060095 334.075823 
L 240.235308 332.618819 
L 238.585734 331.786245 
L 235.011657 330.745528 
L 233.911941 329.704811 
L 233.637012 328.247807 
L 235.561515 326.166372 
L 234.18687 325.541942 
L 231.712509 326.374516 
L 230.612793 325.750085 
L 230.337864 325.125655 
L 230.337864 323.460507 
L 230.337864 322.836077 
L 227.863503 320.130212 
L 225.114213 318.048777 
L 224.289426 317.216203 
L 223.464639 316.175486 
z
" clip-path="url(#pad7e9a3bf2)" style="fill: #e74c3c; stroke: #ffffff; stroke-width: 0.6"/>
    <path d="M 122.565701 307.225318 
L 123.115559 304.311309 
L 123.940346 303.062448 
L 125.864849 303.478735 
L 129.988784 305.143883 
L 133.287932 305.352026 
L 134.112719 305.976457 
L 134.387648 307.225318 
L 134.387648 308.474178 
L 134.662577 309.514896 
L 136.037222 309.306752 
L 134.937506 305.143883 
L 140.161156 304.519453 
L 145.109878 302.646162 
L 145.109878 301.813588 
L 142.635517 300.356584 
L 140.436085 299.940297 
L 138.786512 299.107723 
L 137.136938 295.985571 
L 143.735233 295.777428 
L 147.30931 296.818145 
L 148.683955 299.315866 
L 149.233813 299.315866 
L 149.508742 298.483292 
L 149.783671 297.858862 
L 150.883387 296.610001 
L 150.883387 298.067006 
L 151.433245 299.107723 
L 151.983103 299.52401 
L 152.80789 298.899579 
L 153.357748 298.067006 
L 154.182535 297.858862 
L 155.007322 298.275149 
L 157.206754 298.691436 
L 158.031541 299.107723 
L 159.131257 300.14844 
L 160.505902 301.397301 
L 161.055759 301.397301 
L 161.880546 300.14844 
L 160.78083 299.315866 
L 160.78083 298.483292 
L 162.705333 298.483292 
L 164.904765 298.067006 
L 166.829268 297.234432 
L 168.478842 295.985571 
L 170.678274 292.238989 
L 170.953203 291.822702 
L 171.228132 291.198272 
L 170.678274 290.157554 
L 169.853487 289.741267 
L 168.753771 290.365698 
L 166.004481 292.863419 
L 162.430404 294.320423 
L 158.581399 294.320423 
L 155.55718 292.447132 
L 161.605617 292.863419 
L 162.980262 292.030845 
L 163.53012 291.614558 
L 165.179694 290.990128 
L 165.454623 290.365698 
L 165.729552 289.32498 
L 166.27941 288.07612 
L 167.104197 287.243546 
L 167.654055 286.619115 
L 166.829268 285.162111 
L 166.829268 284.121394 
L 167.379126 283.28882 
L 167.654055 282.456246 
L 167.379126 281.207386 
L 167.104197 278.501521 
L 167.104197 276.836373 
L 167.928984 274.754939 
L 169.578558 273.297934 
L 171.77799 272.673504 
L 173.427564 273.089791 
L 172.602777 274.130508 
L 172.052919 274.963082 
L 170.678274 276.420086 
L 173.152635 275.795656 
L 173.977422 275.795656 
L 174.52728 276.836373 
L 174.252351 278.085234 
L 172.877706 281.415529 
L 173.702493 282.039959 
L 175.901925 284.121394 
L 175.901925 282.039959 
L 176.726712 280.582955 
L 177.551499 279.750381 
L 178.926144 279.958525 
L 178.101357 278.085234 
L 177.826428 276.62823 
L 178.101357 272.673504 
L 178.376286 271.424643 
L 178.926144 270.800213 
L 179.750931 270.383926 
L 180.575718 270.592069 
L 181.125575 271.008356 
L 181.675433 273.089791 
L 182.225291 273.922365 
L 182.775149 273.922365 
L 183.325007 273.297934 
L 183.874865 273.089791 
L 184.149794 274.338652 
L 184.699652 274.754939 
L 185.24951 274.130508 
L 187.723871 272.049074 
L 187.9988 269.759496 
L 187.723871 267.261774 
L 187.9988 265.388483 
L 185.799368 264.764053 
L 184.149794 265.18034 
L 182.225291 265.80477 
L 180.300789 266.221057 
L 175.901925 265.596626 
L 173.977422 266.221057 
L 174.52728 268.926922 
L 173.702493 270.175782 
L 173.152635 270.175782 
L 172.602777 269.759496 
L 171.77799 269.551352 
L 168.203913 271.84093 
L 167.379126 272.257217 
L 163.805049 272.257217 
L 162.705333 272.673504 
L 162.155475 273.714221 
L 161.880546 274.754939 
L 161.330688 275.587512 
L 159.681115 275.587512 
L 158.856328 273.714221 
L 158.30647 271.632787 
L 156.931825 270.592069 
L 155.282251 269.759496 
L 153.632677 267.886204 
L 152.80789 265.388483 
L 152.80789 262.890762 
L 153.907606 260.809327 
L 155.282251 261.01747 
L 156.656896 262.266331 
L 164.354907 264.555909 
L 166.554339 264.555909 
L 168.203913 263.723335 
L 171.77799 261.01747 
L 173.702493 260.39304 
L 179.476002 261.01747 
L 184.974581 258.936036 
L 186.624155 259.144179 
L 189.648374 262.474475 
L 191.572877 263.307048 
L 195.971741 263.723335 
L 194.597096 261.433757 
L 192.947522 260.184897 
L 190.74809 259.560466 
L 188.823587 259.560466 
L 187.174013 258.727892 
L 182.775149 253.524306 
L 181.950362 253.108019 
L 180.300789 252.483589 
L 179.476002 251.859158 
L 177.551499 248.528863 
L 175.626996 248.32072 
L 164.354907 243.117133 
L 163.255191 242.284559 
L 162.430404 239.578695 
L 162.430404 238.12169 
L 162.980262 237.49726 
L 167.654055 237.49726 
L 171.228132 238.537977 
L 172.052919 237.913547 
L 170.953203 235.415825 
L 169.303629 233.750678 
L 167.379126 232.70996 
L 165.179694 231.877387 
L 162.430404 231.4611 
L 160.230973 231.669243 
L 159.131257 231.669243 
L 156.931825 230.212239 
L 155.832109 230.004096 
L 155.007322 229.587809 
L 154.182535 228.963378 
L 153.632677 227.922661 
L 153.632677 227.090087 
L 153.907606 225.633083 
L 153.632677 224.176079 
L 152.532961 221.470214 
L 153.357748 221.678357 
L 154.182535 221.678357 
L 154.732393 221.26207 
L 155.55718 220.63764 
L 158.031541 222.302788 
L 166.554339 225.841226 
L 169.0287 227.506374 
L 177.001641 234.166965 
L 183.325007 237.289117 
L 189.923303 238.329834 
L 202.570036 235.832112 
L 200.645534 233.750678 
L 195.421883 233.126247 
L 195.971741 230.420382 
L 197.621315 228.338948 
L 199.545818 226.6738 
L 199.820747 225.008653 
L 200.370605 224.384222 
L 201.195392 225.42494 
L 201.470321 226.04937 
L 202.020178 229.171522 
L 206.693971 225.216796 
L 209.168332 224.176079 
L 211.642693 225.008653 
L 211.642693 225.841226 
L 211.092835 226.257513 
L 210.817906 226.465657 
L 210.817906 227.090087 
L 210.542977 227.506374 
L 217.691131 228.755235 
L 219.890563 230.004096 
L 218.790847 230.628526 
L 217.416202 230.836669 
L 214.666912 230.836669 
L 216.866344 233.334391 
L 220.990279 233.334391 
L 235.286586 230.004096 
L 236.661231 229.379665 
L 239.135592 227.090087 
L 240.785166 226.6738 
L 240.785166 227.506374 
L 235.561515 231.4611 
L 233.362083 232.501817 
L 236.93616 234.375108 
L 240.510237 234.375108 
L 248.208248 231.669243 
L 247.65839 230.420382 
L 246.558674 229.379665 
L 245.733887 228.547091 
L 244.634171 228.338948 
L 244.084313 227.506374 
L 244.084313 223.967935 
L 244.084313 222.302788 
L 244.634171 222.510931 
L 246.008816 222.302788 
L 246.558674 222.302788 
L 246.283745 221.886501 
L 246.283745 220.429497 
L 246.008816 219.805066 
L 247.108532 219.805066 
L 248.483177 220.221353 
L 249.857822 220.845784 
L 250.132751 221.886501 
L 250.957538 222.719075 
L 258.65555 226.04937 
L 260.580053 227.506374 
L 261.679769 229.171522 
L 258.380621 228.963378 
L 257.280905 229.587809 
L 256.456118 231.669243 
L 256.731047 233.334391 
L 257.830763 233.542534 
L 258.930479 233.126247 
L 260.030195 233.334391 
L 258.105692 234.583252 
L 254.531615 238.537977 
L 252.882041 239.994981 
L 252.332183 238.746121 
L 251.507396 238.329834 
L 250.682609 238.537977 
L 249.582893 239.162408 
L 249.582893 239.994981 
L 249.857822 240.827555 
L 249.857822 241.451986 
L 249.307964 243.53342 
L 249.857822 243.117133 
L 251.232467 242.700846 
L 251.232467 243.53342 
L 249.033035 246.863715 
L 248.758106 247.696289 
L 248.483177 251.026585 
L 247.933319 251.859158 
L 246.833603 252.483589 
L 244.9091 254.773167 
L 244.084313 255.397597 
L 242.984597 254.773167 
L 242.709668 253.73245 
L 242.709668 252.483589 
L 242.984597 251.026585 
L 240.510237 253.940593 
L 239.135592 254.98131 
L 238.310805 254.35688 
L 233.911941 258.727892 
L 236.111373 258.519749 
L 235.836444 259.76861 
L 233.087154 263.307048 
L 229.788006 269.551352 
L 227.863503 272.049074 
L 222.639852 276.836373 
L 214.666912 288.492407 
L 213.017338 291.822702 
L 212.46748 293.695993 
L 211.642693 295.152997 
L 210.268048 296.193714 
L 206.9689 297.234432 
L 202.020178 300.77287 
L 201.470321 297.234432 
L 201.195392 296.610001 
L 199.270889 296.401858 
L 198.446102 295.985571 
L 197.896244 295.569284 
L 197.621315 294.11228 
L 196.796528 294.11228 
L 195.971741 294.73671 
L 195.696812 295.569284 
L 195.421883 296.818145 
L 196.24667 299.315866 
L 195.971741 300.356584 
L 194.597096 301.397301 
L 187.9988 300.77287 
L 186.074297 301.813588 
L 185.24951 302.021731 
L 184.699652 300.77287 
L 184.974581 300.14844 
L 186.349226 298.691436 
L 186.899084 297.650719 
L 181.950362 299.732153 
L 180.575718 300.77287 
L 179.750931 303.062448 
L 180.300789 304.93574 
L 181.125575 307.017174 
L 181.675433 309.723039 
L 181.400504 311.59633 
L 180.300789 313.053334 
L 174.252351 320.338355 
L 173.427564 321.170929 
L 171.503061 321.170929 
L 169.303629 319.297638 
L 167.654055 319.505781 
L 167.928984 319.713925 
L 167.928984 320.338355 
L 167.928984 321.170929 
L 167.928984 321.587216 
L 167.379126 322.003503 
L 166.829268 321.379073 
L 166.27941 320.754642 
L 164.904765 319.713925 
L 163.53012 317.424347 
L 162.980262 317.00806 
L 162.155475 316.591773 
L 160.78083 315.342912 
L 159.681115 315.342912 
L 159.131257 315.759199 
L 159.131257 316.591773 
L 159.406186 317.424347 
L 161.330688 318.465064 
L 162.430404 320.130212 
L 163.53012 322.41979 
L 163.805049 324.501224 
L 160.78083 328.247807 
L 156.381967 330.745528 
L 152.258032 330.329241 
L 149.783671 325.333798 
L 150.608458 325.541942 
L 151.433245 325.750085 
L 152.258032 325.750085 
L 152.80789 325.333798 
L 151.433245 324.293081 
L 149.508742 322.211646 
L 147.859168 319.713925 
L 147.034381 317.840634 
L 147.859168 317.424347 
L 148.683955 316.175486 
L 149.233813 314.926625 
L 147.859168 314.302195 
L 140.161156 314.094052 
L 139.33637 314.302195 
L 138.786512 315.342912 
L 139.061441 315.759199 
L 140.161156 315.967343 
L 140.985943 316.175486 
L 142.635517 316.799917 
L 144.285091 318.673208 
L 145.934665 320.962786 
L 146.484523 322.836077 
L 142.085659 322.836077 
L 140.985943 322.627933 
L 140.161156 322.211646 
L 139.886228 321.170929 
L 136.312151 316.591773 
L 135.487364 315.759199 
L 134.387648 315.551056 
L 133.562861 315.551056 
L 132.463145 315.342912 
L 131.0885 313.885908 
L 128.614139 310.555613 
L 127.239494 309.306752 
L 123.665417 308.682322 
z
" clip-path="url(#pad7e9a3bf2)" style="fill: #e74c3c; stroke: #ffffff; stroke-width: 0.6"/>
    <path d="M 113.767974 282.456246 
L 115.142619 280.791099 
L 115.967406 279.958525 
L 117.342051 279.750381 
L 120.366269 279.958525 
L 120.916127 279.750381 
L 121.740914 277.668947 
L 123.115559 275.379369 
L 124.215275 274.546795 
L 125.314991 273.922365 
L 125.58992 273.922365 
L 126.414707 273.922365 
L 126.689636 273.922365 
L 127.239494 274.338652 
L 127.514423 274.754939 
L 127.514423 275.379369 
L 127.789352 275.587512 
L 129.438926 276.420086 
L 129.988784 277.25266 
L 129.713855 278.501521 
L 128.064281 279.750381 
L 124.490204 282.039959 
L 123.115559 284.121394 
L 122.84063 285.162111 
L 123.390488 285.370255 
L 128.889068 283.496964 
L 131.0885 281.415529 
L 132.738074 280.582955 
L 133.83779 279.125951 
L 134.662577 276.420086 
L 134.387648 275.379369 
L 133.562861 274.963082 
L 133.287932 274.546795 
L 134.112719 273.089791 
L 134.937506 272.049074 
L 135.762293 272.049074 
L 136.312151 272.673504 
L 136.58708 274.338652 
L 136.58708 275.379369 
L 136.312151 276.62823 
L 135.762293 277.87709 
L 135.487364 278.501521 
L 134.937506 279.750381 
L 134.662577 282.66439 
L 134.662577 284.121394 
L 134.112719 285.578398 
L 132.463145 289.116837 
L 135.762293 289.116837 
L 134.937506 290.157554 
L 134.387648 292.447132 
L 134.112719 293.48785 
L 133.013003 294.11228 
L 129.438926 294.944854 
L 127.239494 295.777428 
L 125.58992 295.569284 
L 122.015843 294.11228 
L 122.290772 292.863419 
L 122.565701 292.447132 
L 121.465985 292.447132 
L 120.916127 291.614558 
L 120.641198 290.573841 
L 120.366269 289.949411 
L 119.541482 289.741267 
L 118.166838 289.533124 
L 117.342051 289.116837 
L 117.067122 288.908694 
L 116.792193 288.492407 
L 116.517264 288.284263 
L 116.242335 288.284263 
L 116.792193 285.578398 
L 116.242335 283.913251 
L 115.142619 282.872533 
z
" clip-path="url(#pad7e9a3bf2)" style="fill: #e74c3c; stroke: #ffffff; stroke-width: 0.6"/>
    <path d="M 312.81656 304.727596 
L 313.366418 303.895022 
L 314.191205 303.062448 
L 315.290921 302.646162 
L 316.390637 302.229875 
L 317.215424 301.813588 
L 317.765282 301.605444 
L 318.040211 301.397301 
L 317.490353 300.981014 
L 317.765282 300.564727 
L 318.864998 300.564727 
L 319.689785 300.981014 
L 320.239643 301.605444 
L 320.514572 302.021731 
L 321.06443 302.229875 
L 321.614288 302.021731 
L 322.164146 301.605444 
L 321.889217 300.77287 
L 322.439075 300.564727 
L 322.714004 300.77287 
L 323.81372 301.813588 
L 323.81372 302.021731 
L 323.538791 302.021731 
L 323.263862 303.062448 
L 322.988933 303.895022 
L 322.164146 304.103166 
L 320.789501 303.478735 
L 319.964714 303.478735 
L 319.964714 303.895022 
L 320.514572 305.143883 
L 320.239643 305.56017 
L 319.414856 305.56017 
L 319.139927 305.976457 
L 319.964714 306.392744 
L 320.789501 305.976457 
L 321.614288 305.352026 
L 321.614288 305.56017 
L 321.339359 306.600887 
L 321.06443 307.849748 
L 321.339359 309.098609 
L 321.889217 310.347469 
L 321.889217 311.180043 
L 321.614288 311.59633 
L 321.614288 312.428904 
L 322.164146 313.469621 
L 321.889217 313.885908 
L 320.239643 313.677765 
L 319.689785 313.053334 
L 320.239643 312.220761 
L 320.239643 311.388187 
L 319.689785 311.388187 
L 318.864998 311.804474 
L 317.765282 311.180043 
L 316.665566 310.347469 
L 315.015992 309.306752 
L 314.741063 308.682322 
L 314.741063 307.641605 
L 314.466134 306.600887 
L 313.366418 305.768313 
z
" clip-path="url(#pad7e9a3bf2)" style="fill: #e74c3c; stroke: #ffffff; stroke-width: 0.6"/>
    <path d="M 178.651215 211.271185 
L 179.476002 210.646754 
L 180.850647 210.438611 
L 181.400504 211.271185 
L 181.950362 212.311902 
L 182.50022 213.560763 
L 184.149794 214.809623 
L 186.074297 215.642197 
L 187.9988 215.850341 
L 189.923303 215.642197 
L 194.047238 214.60148 
L 195.971741 215.22591 
L 196.796528 217.723632 
L 197.346386 218.348062 
L 197.896244 219.596923 
L 197.896244 220.845784 
L 197.071457 221.470214 
L 194.322167 225.008653 
L 192.947522 227.714518 
L 192.672593 228.338948 
L 191.847806 228.130804 
L 189.648374 226.881944 
L 188.823587 226.6738 
L 183.325007 227.714518 
L 182.225291 227.506374 
L 180.850647 226.881944 
L 179.750931 225.633083 
L 179.476002 223.967935 
L 180.575718 222.302788 
L 182.50022 221.26207 
L 186.074297 220.63764 
L 186.899084 221.26207 
L 188.548658 223.551648 
L 189.373445 224.176079 
L 190.473161 223.967935 
L 191.297948 223.759792 
L 192.397664 223.135362 
L 193.222451 222.302788 
L 191.847806 221.053927 
L 187.723871 218.556205 
L 184.699652 217.723632 
L 181.125575 215.017767 
L 180.02586 213.977049 
L 178.926144 212.103758 
z
" clip-path="url(#pad7e9a3bf2)" style="fill: #e74c3c; stroke: #ffffff; stroke-width: 0.6"/>
    <path d="M 216.316486 209.81418 
L 216.591415 208.981607 
L 217.691131 208.773463 
L 219.615634 207.940889 
L 221.540137 208.56532 
L 223.464639 209.81418 
L 225.389142 210.646754 
L 233.087154 209.606037 
L 233.911941 209.81418 
L 233.911941 210.438611 
L 233.911941 210.854898 
L 233.911941 211.479328 
L 234.461799 212.311902 
L 234.736728 213.144476 
L 235.286586 213.768906 
L 236.386302 213.977049 
L 236.93616 213.560763 
L 237.211089 212.728189 
L 237.486018 212.103758 
L 237.760947 211.479328 
L 238.585734 210.854898 
L 239.135592 210.646754 
L 239.68545 210.646754 
L 241.609953 211.271185 
L 242.709668 212.936332 
L 243.534455 215.434054 
L 244.084313 218.139919 
L 242.159811 218.556205 
L 240.235308 219.596923 
L 235.836444 219.805066 
L 234.18687 218.972492 
L 231.43758 214.809623 
L 229.513077 213.977049 
L 220.990279 213.144476 
L 217.691131 212.311902 
L 217.141273 211.895615 
L 216.591415 210.854898 
z
" clip-path="url(#pad7e9a3bf2)" style="fill: #e74c3c; stroke: #ffffff; stroke-width: 0.6"/>
    <path d="M 217.141273 319.922068 
L 217.691131 317.63249 
L 218.515918 318.673208 
L 219.615634 322.003503 
L 223.464639 321.587216 
L 225.114213 322.003503 
L 226.213929 323.668651 
L 225.939 324.293081 
L 225.389142 325.125655 
L 225.114213 325.958229 
L 225.114213 327.207089 
L 226.488858 328.039663 
L 226.213929 329.704811 
L 225.114213 331.369958 
L 223.739568 332.202532 
L 223.18971 332.202532 
L 222.364923 332.826963 
L 221.815066 333.451393 
L 220.990279 335.324684 
L 220.440421 335.324684 
L 219.615634 334.283967 
L 219.615634 332.826963 
L 219.615634 332.618819 
L 219.615634 332.410676 
L 219.615634 332.202532 
L 219.340705 332.202532 
L 220.165492 331.161815 
L 220.990279 329.496667 
L 221.265208 327.623376 
L 220.990279 325.333798 
L 219.890563 323.876794 
L 218.790847 323.04422 
L 217.691131 322.003503 
z
" clip-path="url(#pad7e9a3bf2)" style="fill: #e74c3c; stroke: #ffffff; stroke-width: 0.6"/>
    <path d="M 101.12124 279.958525 
L 101.396169 279.542238 
L 101.946027 279.125951 
L 102.770814 278.917808 
L 103.320672 279.334095 
L 104.970246 279.750381 
L 106.344891 280.999242 
L 106.61982 280.582955 
L 106.894749 278.917808 
L 107.169678 278.293377 
L 107.169678 277.460803 
L 107.719536 276.836373 
L 108.269394 276.420086 
L 109.094181 276.62823 
L 109.644039 277.044517 
L 110.193897 277.87709 
L 110.468826 278.917808 
L 109.644039 279.125951 
L 107.444607 280.791099 
L 107.444607 281.415529 
L 108.269394 281.831816 
L 108.819252 282.039959 
L 109.644039 281.831816 
L 110.468826 281.415529 
L 108.819252 284.537681 
L 106.069962 284.537681 
L 103.320672 282.66439 
z
" clip-path="url(#pad7e9a3bf2)" style="fill: #e74c3c; stroke: #ffffff; stroke-width: 0.6"/>
    <path d="M 215.491699 345.731857 
L 217.691131 343.650422 
L 219.615634 343.234135 
L 219.340705 341.777131 
L 220.71535 339.695697 
L 222.639852 338.863123 
L 225.114213 338.863123 
L 225.389142 340.320127 
L 223.739568 340.944557 
L 223.739568 342.609705 
L 222.364923 343.858566 
L 221.540137 345.523713 
L 223.18971 346.772574 
L 226.213929 346.356287 
L 228.138432 345.31557 
L 228.963219 346.772574 
L 227.038716 348.229578 
L 225.664071 349.894726 
L 224.839284 351.559874 
L 222.914781 350.519156 
L 221.265208 349.478439 
L 219.890563 348.229578 
L 217.96606 348.437722 
L 217.141273 346.980718 
z
" clip-path="url(#pad7e9a3bf2)" style="fill: #e74c3c; stroke: #ffffff; stroke-width: 0.6"/>
    <path d="M 214.666912 221.470214 
L 216.866344 221.26207 
L 219.065776 220.845784 
L 219.615634 218.764349 
L 221.265208 218.764349 
L 222.364923 220.01321 
L 223.464639 221.053927 
L 225.389142 222.510931 
L 225.664071 220.01321 
L 227.313645 220.429497 
L 227.588574 222.302788 
L 229.513077 223.343505 
L 232.262367 223.759792 
L 232.537296 225.216796 
L 230.337864 225.633083 
L 227.313645 227.090087 
L 225.114213 228.547091 
L 222.914781 228.755235 
L 220.71535 227.298231 
L 220.990279 225.42494 
L 222.364923 224.176079 
L 220.71535 223.551648 
L 217.691131 224.176079 
L 215.21677 222.719075 
z
" clip-path="url(#pad7e9a3bf2)" style="fill: #e74c3c; stroke: #ffffff; stroke-width: 0.6"/>
    <path d="M 223.18971 298.483292 
L 223.739568 297.026288 
L 223.464639 296.193714 
L 223.739568 294.73671 
L 224.839284 293.904136 
L 225.389142 294.11228 
L 225.664071 294.944854 
L 225.389142 295.985571 
L 225.664071 296.818145 
L 226.213929 297.234432 
L 226.763787 297.858862 
L 226.763787 299.107723 
L 226.213929 299.940297 
L 225.389142 300.356584 
L 224.839284 300.14844 
L 224.839284 299.732153 
L 224.564355 299.315866 
L 224.289426 298.899579 
L 224.014497 298.899579 
L 223.464639 299.107723 
z
" clip-path="url(#pad7e9a3bf2)" style="fill: #e74c3c; stroke: #ffffff; stroke-width: 0.6"/>
    <path d="M 115.692477 186.29397 
L 115.692477 185.66954 
L 116.242335 185.045109 
L 116.792193 184.420679 
L 116.792193 184.004392 
L 116.242335 182.755531 
L 116.242335 181.714814 
L 117.342051 181.922957 
L 118.441767 182.963675 
L 119.266554 184.420679 
L 119.816411 185.253253 
L 120.09134 186.085826 
L 120.09134 186.502113 
L 121.191056 186.9184 
L 121.465985 187.542831 
L 121.740914 188.167261 
L 121.191056 188.375404 
L 120.09134 187.959118 
L 117.61698 186.710257 
L 116.517264 186.502113 
z
" clip-path="url(#pad7e9a3bf2)" style="fill: #e74c3c; stroke: #ffffff; stroke-width: 0.6"/>
    <path d="M 101.12124 268.094348 
L 101.671098 265.596626 
L 102.220956 263.931479 
L 103.045743 262.890762 
L 104.695317 262.058188 
L 106.344891 262.058188 
L 109.094181 263.307048 
L 110.468826 263.723335 
L 109.36911 264.555909 
L 106.344891 264.347766 
L 104.970246 264.972196 
L 104.420388 266.221057 
L 104.145459 267.678061 
L 104.145459 271.424643 
L 103.320672 271.008356 
L 102.220956 270.383926 
L 101.396169 269.343209 
z
" clip-path="url(#pad7e9a3bf2)" style="fill: #e74c3c; stroke: #ffffff; stroke-width: 0.6"/>
    <path d="M 200.095676 214.809623 
L 203.669752 213.560763 
L 204.769468 213.560763 
L 205.869184 213.977049 
L 208.893403 215.642197 
L 209.443261 215.642197 
L 208.343545 216.474771 
L 207.793687 216.474771 
L 207.793687 217.307345 
L 208.893403 218.764349 
L 208.068616 220.01321 
L 206.144113 220.63764 
L 204.769468 220.63764 
L 203.119894 219.596923 
L 202.020178 218.348062 
L 200.920463 216.682914 
z
" clip-path="url(#pad7e9a3bf2)" style="fill: #e74c3c; stroke: #ffffff; stroke-width: 0.6"/>
    <path d="M 156.107038 210.646754 
L 157.206754 209.606037 
L 159.406186 211.479328 
L 160.505902 212.728189 
L 161.055759 213.144476 
L 162.155475 214.393336 
L 162.430404 215.850341 
L 161.880546 217.099201 
L 161.605617 217.307345 
L 161.330688 216.474771 
L 161.055759 215.850341 
L 161.055759 215.434054 
L 159.956044 215.017767 
L 158.581399 214.60148 
L 156.931825 213.352619 
z
" clip-path="url(#pad7e9a3bf2)" style="fill: #e74c3c; stroke: #ffffff; stroke-width: 0.6"/>
   </g>
   <g id="text_1">
    <!-- Falkland Is. -->
    <g style="fill: #1a252f" transform="translate(183.093333 20.117344) scale(0.17 -0.17)">
     <defs>
      <path id="DejaVuSans-Bold-29" d="M 588 4666 
L 3834 4666 
L 3834 3756 
L 1791 3756 
L 1791 2888 
L 3713 2888 
L 3713 1978 
L 1791 1978 
L 1791 0 
L 588 0 
L 588 4666 
z
" transform="scale(0.015625)"/>
      <path id="DejaVuSans-Bold-44" d="M 2106 1575 
Q 1756 1575 1579 1456 
Q 1403 1338 1403 1106 
Q 1403 894 1545 773 
Q 1688 653 1941 653 
Q 2256 653 2472 879 
Q 2688 1106 2688 1447 
L 2688 1575 
L 2106 1575 
z
M 3816 1997 
L 3816 0 
L 2688 0 
L 2688 519 
Q 2463 200 2181 54 
Q 1900 -91 1497 -91 
Q 953 -91 614 226 
Q 275 544 275 1050 
Q 275 1666 698 1953 
Q 1122 2241 2028 2241 
L 2688 2241 
L 2688 2328 
Q 2688 2594 2478 2717 
Q 2269 2841 1825 2841 
Q 1466 2841 1156 2769 
Q 847 2697 581 2553 
L 581 3406 
Q 941 3494 1303 3539 
Q 1666 3584 2028 3584 
Q 2975 3584 3395 3211 
Q 3816 2838 3816 1997 
z
" transform="scale(0.015625)"/>
      <path id="DejaVuSans-Bold-4f" d="M 538 4863 
L 1656 4863 
L 1656 0 
L 538 0 
L 538 4863 
z
" transform="scale(0.015625)"/>
      <path id="DejaVuSans-Bold-4e" d="M 538 4863 
L 1656 4863 
L 1656 2216 
L 2944 3500 
L 4244 3500 
L 2534 1894 
L 4378 0 
L 3022 0 
L 1656 1459 
L 1656 0 
L 538 0 
L 538 4863 
z
" transform="scale(0.015625)"/>
      <path id="DejaVuSans-Bold-51" d="M 4056 2131 
L 4056 0 
L 2931 0 
L 2931 347 
L 2931 1631 
Q 2931 2084 2911 2256 
Q 2891 2428 2841 2509 
Q 2775 2619 2662 2680 
Q 2550 2741 2406 2741 
Q 2056 2741 1856 2470 
Q 1656 2200 1656 1722 
L 1656 0 
L 538 0 
L 538 3500 
L 1656 3500 
L 1656 2988 
Q 1909 3294 2193 3439 
Q 2478 3584 2822 3584 
Q 3428 3584 3742 3212 
Q 4056 2841 4056 2131 
z
" transform="scale(0.015625)"/>
      <path id="DejaVuSans-Bold-47" d="M 2919 2988 
L 2919 4863 
L 4044 4863 
L 4044 0 
L 2919 0 
L 2919 506 
Q 2688 197 2409 53 
Q 2131 -91 1766 -91 
Q 1119 -91 703 423 
Q 288 938 288 1747 
Q 288 2556 703 3070 
Q 1119 3584 1766 3584 
Q 2128 3584 2408 3439 
Q 2688 3294 2919 2988 
z
M 2181 722 
Q 2541 722 2730 984 
Q 2919 1247 2919 1747 
Q 2919 2247 2730 2509 
Q 2541 2772 2181 2772 
Q 1825 2772 1636 2509 
Q 1447 2247 1447 1747 
Q 1447 1247 1636 984 
Q 1825 722 2181 722 
z
" transform="scale(0.015625)"/>
      <path id="DejaVuSans-Bold-3" transform="scale(0.015625)"/>
      <path id="DejaVuSans-Bold-2c" d="M 588 4666 
L 1791 4666 
L 1791 0 
L 588 0 
L 588 4666 
z
" transform="scale(0.015625)"/>
      <path id="DejaVuSans-Bold-56" d="M 3272 3391 
L 3272 2541 
Q 2913 2691 2578 2766 
Q 2244 2841 1947 2841 
Q 1628 2841 1473 2761 
Q 1319 2681 1319 2516 
Q 1319 2381 1436 2309 
Q 1553 2238 1856 2203 
L 2053 2175 
Q 2913 2066 3209 1816 
Q 3506 1566 3506 1031 
Q 3506 472 3093 190 
Q 2681 -91 1863 -91 
Q 1516 -91 1145 -36 
Q 775 19 384 128 
L 384 978 
Q 719 816 1070 734 
Q 1422 653 1784 653 
Q 2113 653 2278 743 
Q 2444 834 2444 1013 
Q 2444 1163 2330 1236 
Q 2216 1309 1875 1350 
L 1678 1375 
Q 931 1469 631 1722 
Q 331 1975 331 2491 
Q 331 3047 712 3315 
Q 1094 3584 1881 3584 
Q 2191 3584 2531 3537 
Q 2872 3491 3272 3391 
z
" transform="scale(0.015625)"/>
      <path id="DejaVuSans-Bold-11" d="M 653 1209 
L 1778 1209 
L 1778 0 
L 653 0 
L 653 1209 
z
" transform="scale(0.015625)"/>
     </defs>
     <use xlink:href="#DejaVuSans-Bold-29"/>
     <use xlink:href="#DejaVuSans-Bold-44" transform="translate(62.453125 0)"/>
     <use xlink:href="#DejaVuSans-Bold-4f" transform="translate(129.9375 0)"/>
     <use xlink:href="#DejaVuSans-Bold-4e" transform="translate(164.21875 0)"/>
     <use xlink:href="#DejaVuSans-Bold-4f" transform="translate(230.71875 0)"/>
     <use xlink:href="#DejaVuSans-Bold-44" transform="translate(265 0)"/>
     <use xlink:href="#DejaVuSans-Bold-51" transform="translate(332.484375 0)"/>
     <use xlink:href="#DejaVuSans-Bold-47" transform="translate(403.671875 0)"/>
     <use xlink:href="#DejaVuSans-Bold-3" transform="translate(475.25 0)"/>
     <use xlink:href="#DejaVuSans-Bold-2c" transform="translate(510.0625 0)"/>
     <use xlink:href="#DejaVuSans-Bold-56" transform="translate(547.265625 0)"/>
     <use xlink:href="#DejaVuSans-Bold-11" transform="translate(606.78125 0)"/>
    </g>
   </g>
   <g id="line2d_1">
    <path d="M 391.902564 230.004346 
" clip-path="url(#pad7e9a3bf2)" style="fill: none; stroke: #ffffff; stroke-width: 1.5; stroke-linecap: square"/>
    <defs>
     <path id="mf6eabb6d34" d="M 0 2.5 
C 0.663008 2.5 1.29895 2.236584 1.767767 1.767767 
C 2.236584 1.29895 2.5 0.663008 2.5 0 
C 2.5 -0.663008 2.236584 -1.29895 1.767767 -1.767767 
C 1.29895 -2.236584 0.663008 -2.5 0 -2.5 
C -0.663008 -2.5 -1.29895 -2.236584 -1.767767 -1.767767 
C -2.236584 -1.29895 -2.5 -0.663008 -2.5 0 
C -2.5 0.663008 -2.236584 1.29895 -1.767767 1.767767 
C -1.29895 2.236584 -0.663008 2.5 0 2.5 
z
" style="stroke: #1a252f; stroke-width: 0.8"/>
    </defs>
    <g clip-path="url(#pad7e9a3bf2)">
     <use xlink:href="#mf6eabb6d34" x="391.902564" y="230.004346" style="fill: #ffffff; stroke: #1a252f; stroke-width: 0.8"/>
    </g>
   </g>
   <g id="text_2">
    <g clip-path="url(#pad7e9a3bf2)">
     <!-- Stanley -->
     <g style="fill: #ffffff" transform="translate(403.642719 231.952881) scale(0.075 -0.075)">
      <defs>
       <path id="DejaVuSans-Bold-36" d="M 3834 4519 
L 3834 3531 
Q 3450 3703 3084 3790 
Q 2719 3878 2394 3878 
Q 1963 3878 1756 3759 
Q 1550 3641 1550 3391 
Q 1550 3203 1689 3098 
Q 1828 2994 2194 2919 
L 2706 2816 
Q 3484 2659 3812 2340 
Q 4141 2022 4141 1434 
Q 4141 663 3683 286 
Q 3225 -91 2284 -91 
Q 1841 -91 1394 -6 
Q 947 78 500 244 
L 500 1259 
Q 947 1022 1364 901 
Q 1781 781 2169 781 
Q 2563 781 2772 912 
Q 2981 1044 2981 1288 
Q 2981 1506 2839 1625 
Q 2697 1744 2272 1838 
L 1806 1941 
Q 1106 2091 782 2419 
Q 459 2747 459 3303 
Q 459 4000 909 4375 
Q 1359 4750 2203 4750 
Q 2588 4750 2994 4692 
Q 3400 4634 3834 4519 
z
" transform="scale(0.015625)"/>
       <path id="DejaVuSans-Bold-57" d="M 1759 4494 
L 1759 3500 
L 2913 3500 
L 2913 2700 
L 1759 2700 
L 1759 1216 
Q 1759 972 1856 886 
Q 1953 800 2241 800 
L 2816 800 
L 2816 0 
L 1856 0 
Q 1194 0 917 276 
Q 641 553 641 1216 
L 641 2700 
L 84 2700 
L 84 3500 
L 641 3500 
L 641 4494 
L 1759 4494 
z
" transform="scale(0.015625)"/>
       <path id="DejaVuSans-Bold-48" d="M 4031 1759 
L 4031 1441 
L 1416 1441 
Q 1456 1047 1700 850 
Q 1944 653 2381 653 
Q 2734 653 3104 758 
Q 3475 863 3866 1075 
L 3866 213 
Q 3469 63 3072 -14 
Q 2675 -91 2278 -91 
Q 1328 -91 801 392 
Q 275 875 275 1747 
Q 275 2603 792 3093 
Q 1309 3584 2216 3584 
Q 3041 3584 3536 3087 
Q 4031 2591 4031 1759 
z
M 2881 2131 
Q 2881 2450 2695 2645 
Q 2509 2841 2209 2841 
Q 1884 2841 1681 2658 
Q 1478 2475 1428 2131 
L 2881 2131 
z
" transform="scale(0.015625)"/>
       <path id="DejaVuSans-Bold-5c" d="M 78 3500 
L 1197 3500 
L 2138 1125 
L 2938 3500 
L 4056 3500 
L 2584 -331 
Q 2363 -916 2067 -1148 
Q 1772 -1381 1288 -1381 
L 641 -1381 
L 641 -647 
L 991 -647 
Q 1275 -647 1404 -556 
Q 1534 -466 1606 -231 
L 1638 -134 
L 78 3500 
z
" transform="scale(0.015625)"/>
      </defs>
      <use xlink:href="#DejaVuSans-Bold-36"/>
      <use xlink:href="#DejaVuSans-Bold-57" transform="translate(72.015625 0)"/>
      <use xlink:href="#DejaVuSans-Bold-44" transform="translate(119.8125 0)"/>
      <use xlink:href="#DejaVuSans-Bold-51" transform="translate(187.296875 0)"/>
      <use xlink:href="#DejaVuSans-Bold-4f" transform="translate(258.484375 0)"/>
      <use xlink:href="#DejaVuSans-Bold-48" transform="translate(292.765625 0)"/>
      <use xlink:href="#DejaVuSans-Bold-5c" transform="translate(360.59375 0)"/>
     </g>
    </g>
   </g>
   <g id="legend_1">
    <g id="patch_2">
     <path d="M 13.5 498.657344 
L 92.375156 498.657344 
Q 94.175156 498.657344 94.175156 496.857344 
L 94.175156 470.755937 
Q 94.175156 468.955937 92.375156 468.955937 
L 13.5 468.955937 
Q 11.7 468.955937 11.7 470.755937 
L 11.7 496.857344 
Q 11.7 498.657344 13.5 498.657344 
z
" style="fill: #ffffff; opacity: 0.85; stroke: #cccccc; stroke-linejoin: miter"/>
    </g>
    <g id="patch_3">
     <path d="M 15.3 479.394531 
L 33.3 479.394531 
L 33.3 473.094531 
L 15.3 473.094531 
z
" style="fill: #e74c3c; stroke: #888888; stroke-linejoin: miter"/>
    </g>
    <g id="text_3">
     <!-- Falkland Is. -->
     <g transform="translate(40.5 479.394531) scale(0.09 -0.09)">
      <defs>
       <path id="DejaVuSans-29" d="M 628 4666 
L 3309 4666 
L 3309 4134 
L 1259 4134 
L 1259 2759 
L 3109 2759 
L 3109 2228 
L 1259 2228 
L 1259 0 
L 628 0 
L 628 4666 
z
" transform="scale(0.015625)"/>
       <path id="DejaVuSans-44" d="M 2194 1759 
Q 1497 1759 1228 1600 
Q 959 1441 959 1056 
Q 959 750 1161 570 
Q 1363 391 1709 391 
Q 2188 391 2477 730 
Q 2766 1069 2766 1631 
L 2766 1759 
L 2194 1759 
z
M 3341 1997 
L 3341 0 
L 2766 0 
L 2766 531 
Q 2569 213 2275 61 
Q 1981 -91 1556 -91 
Q 1019 -91 701 211 
Q 384 513 384 1019 
Q 384 1609 779 1909 
Q 1175 2209 1959 2209 
L 2766 2209 
L 2766 2266 
Q 2766 2663 2505 2880 
Q 2244 3097 1772 3097 
Q 1472 3097 1187 3025 
Q 903 2953 641 2809 
L 641 3341 
Q 956 3463 1253 3523 
Q 1550 3584 1831 3584 
Q 2591 3584 2966 3190 
Q 3341 2797 3341 1997 
z
" transform="scale(0.015625)"/>
       <path id="DejaVuSans-4f" d="M 603 4863 
L 1178 4863 
L 1178 0 
L 603 0 
L 603 4863 
z
" transform="scale(0.015625)"/>
       <path id="DejaVuSans-4e" d="M 581 4863 
L 1159 4863 
L 1159 1991 
L 2875 3500 
L 3609 3500 
L 1753 1863 
L 3688 0 
L 2938 0 
L 1159 1709 
L 1159 0 
L 581 0 
L 581 4863 
z
" transform="scale(0.015625)"/>
       <path id="DejaVuSans-51" d="M 3513 2113 
L 3513 0 
L 2938 0 
L 2938 2094 
Q 2938 2591 2744 2837 
Q 2550 3084 2163 3084 
Q 1697 3084 1428 2787 
Q 1159 2491 1159 1978 
L 1159 0 
L 581 0 
L 581 3500 
L 1159 3500 
L 1159 2956 
Q 1366 3272 1645 3428 
Q 1925 3584 2291 3584 
Q 2894 3584 3203 3211 
Q 3513 2838 3513 2113 
z
" transform="scale(0.015625)"/>
       <path id="DejaVuSans-47" d="M 2906 2969 
L 2906 4863 
L 3481 4863 
L 3481 0 
L 2906 0 
L 2906 525 
Q 2725 213 2448 61 
Q 2172 -91 1784 -91 
Q 1150 -91 751 415 
Q 353 922 353 1747 
Q 353 2572 751 3078 
Q 1150 3584 1784 3584 
Q 2172 3584 2448 3432 
Q 2725 3281 2906 2969 
z
M 947 1747 
Q 947 1113 1208 752 
Q 1469 391 1925 391 
Q 2381 391 2643 752 
Q 2906 1113 2906 1747 
Q 2906 2381 2643 2742 
Q 2381 3103 1925 3103 
Q 1469 3103 1208 2742 
Q 947 2381 947 1747 
z
" transform="scale(0.015625)"/>
       <path id="DejaVuSans-3" transform="scale(0.015625)"/>
       <path id="DejaVuSans-2c" d="M 628 4666 
L 1259 4666 
L 1259 0 
L 628 0 
L 628 4666 
z
" transform="scale(0.015625)"/>
       <path id="DejaVuSans-56" d="M 2834 3397 
L 2834 2853 
Q 2591 2978 2328 3040 
Q 2066 3103 1784 3103 
Q 1356 3103 1142 2972 
Q 928 2841 928 2578 
Q 928 2378 1081 2264 
Q 1234 2150 1697 2047 
L 1894 2003 
Q 2506 1872 2764 1633 
Q 3022 1394 3022 966 
Q 3022 478 2636 193 
Q 2250 -91 1575 -91 
Q 1294 -91 989 -36 
Q 684 19 347 128 
L 347 722 
Q 666 556 975 473 
Q 1284 391 1588 391 
Q 1994 391 2212 530 
Q 2431 669 2431 922 
Q 2431 1156 2273 1281 
Q 2116 1406 1581 1522 
L 1381 1569 
Q 847 1681 609 1914 
Q 372 2147 372 2553 
Q 372 3047 722 3315 
Q 1072 3584 1716 3584 
Q 2034 3584 2315 3537 
Q 2597 3491 2834 3397 
z
" transform="scale(0.015625)"/>
       <path id="DejaVuSans-11" d="M 684 794 
L 1344 794 
L 1344 0 
L 684 0 
L 684 794 
z
" transform="scale(0.015625)"/>
      </defs>
      <use xlink:href="#DejaVuSans-29"/>
      <use xlink:href="#DejaVuSans-44" transform="translate(48.34375 0)"/>
      <use xlink:href="#DejaVuSans-4f" transform="translate(109.625 0)"/>
      <use xlink:href="#DejaVuSans-4e" transform="translate(137.40625 0)"/>
      <use xlink:href="#DejaVuSans-4f" transform="translate(195.3125 0)"/>
      <use xlink:href="#DejaVuSans-44" transform="translate(223.09375 0)"/>
      <use xlink:href="#DejaVuSans-51" transform="translate(284.375 0)"/>
      <use xlink:href="#DejaVuSans-47" transform="translate(347.75 0)"/>
      <use xlink:href="#DejaVuSans-3" transform="translate(411.234375 0)"/>
      <use xlink:href="#DejaVuSans-2c" transform="translate(443.015625 0)"/>
      <use xlink:href="#DejaVuSans-56" transform="translate(472.515625 0)"/>
      <use xlink:href="#DejaVuSans-11" transform="translate(524.609375 0)"/>
     </g>
    </g>
    <g id="patch_4">
     <path d="M 15.3 492.895234 
L 33.3 492.895234 
L 33.3 486.595234 
L 15.3 486.595234 
z
" style="fill: #bdc3c7; stroke: #888888; stroke-linejoin: miter"/>
    </g>
    <g id="text_4">
     <!-- Neighbors -->
     <g transform="translate(40.5 492.895234) scale(0.09 -0.09)">
      <defs>
       <path id="DejaVuSans-31" d="M 628 4666 
L 1478 4666 
L 3547 763 
L 3547 4666 
L 4159 4666 
L 4159 0 
L 3309 0 
L 1241 3903 
L 1241 0 
L 628 0 
L 628 4666 
z
" transform="scale(0.015625)"/>
       <path id="DejaVuSans-48" d="M 3597 1894 
L 3597 1613 
L 953 1613 
Q 991 1019 1311 708 
Q 1631 397 2203 397 
Q 2534 397 2845 478 
Q 3156 559 3463 722 
L 3463 178 
Q 3153 47 2828 -22 
Q 2503 -91 2169 -91 
Q 1331 -91 842 396 
Q 353 884 353 1716 
Q 353 2575 817 3079 
Q 1281 3584 2069 3584 
Q 2775 3584 3186 3129 
Q 3597 2675 3597 1894 
z
M 3022 2063 
Q 3016 2534 2758 2815 
Q 2500 3097 2075 3097 
Q 1594 3097 1305 2825 
Q 1016 2553 972 2059 
L 3022 2063 
z
" transform="scale(0.015625)"/>
       <path id="DejaVuSans-4c" d="M 603 3500 
L 1178 3500 
L 1178 0 
L 603 0 
L 603 3500 
z
M 603 4863 
L 1178 4863 
L 1178 4134 
L 603 4134 
L 603 4863 
z
" transform="scale(0.015625)"/>
       <path id="DejaVuSans-4a" d="M 2906 1791 
Q 2906 2416 2648 2759 
Q 2391 3103 1925 3103 
Q 1463 3103 1205 2759 
Q 947 2416 947 1791 
Q 947 1169 1205 825 
Q 1463 481 1925 481 
Q 2391 481 2648 825 
Q 2906 1169 2906 1791 
z
M 3481 434 
Q 3481 -459 3084 -895 
Q 2688 -1331 1869 -1331 
Q 1566 -1331 1297 -1286 
Q 1028 -1241 775 -1147 
L 775 -588 
Q 1028 -725 1275 -790 
Q 1522 -856 1778 -856 
Q 2344 -856 2625 -561 
Q 2906 -266 2906 331 
L 2906 616 
Q 2728 306 2450 153 
Q 2172 0 1784 0 
Q 1141 0 747 490 
Q 353 981 353 1791 
Q 353 2603 747 3093 
Q 1141 3584 1784 3584 
Q 2172 3584 2450 3431 
Q 2728 3278 2906 2969 
L 2906 3500 
L 3481 3500 
L 3481 434 
z
" transform="scale(0.015625)"/>
       <path id="DejaVuSans-4b" d="M 3513 2113 
L 3513 0 
L 2938 0 
L 2938 2094 
Q 2938 2591 2744 2837 
Q 2550 3084 2163 3084 
Q 1697 3084 1428 2787 
Q 1159 2491 1159 1978 
L 1159 0 
L 581 0 
L 581 4863 
L 1159 4863 
L 1159 2956 
Q 1366 3272 1645 3428 
Q 1925 3584 2291 3584 
Q 2894 3584 3203 3211 
Q 3513 2838 3513 2113 
z
" transform="scale(0.015625)"/>
       <path id="DejaVuSans-45" d="M 3116 1747 
Q 3116 2381 2855 2742 
Q 2594 3103 2138 3103 
Q 1681 3103 1420 2742 
Q 1159 2381 1159 1747 
Q 1159 1113 1420 752 
Q 1681 391 2138 391 
Q 2594 391 2855 752 
Q 3116 1113 3116 1747 
z
M 1159 2969 
Q 1341 3281 1617 3432 
Q 1894 3584 2278 3584 
Q 2916 3584 3314 3078 
Q 3713 2572 3713 1747 
Q 3713 922 3314 415 
Q 2916 -91 2278 -91 
Q 1894 -91 1617 61 
Q 1341 213 1159 525 
L 1159 0 
L 581 0 
L 581 4863 
L 1159 4863 
L 1159 2969 
z
" transform="scale(0.015625)"/>
       <path id="DejaVuSans-52" d="M 1959 3097 
Q 1497 3097 1228 2736 
Q 959 2375 959 1747 
Q 959 1119 1226 758 
Q 1494 397 1959 397 
Q 2419 397 2687 759 
Q 2956 1122 2956 1747 
Q 2956 2369 2687 2733 
Q 2419 3097 1959 3097 
z
M 1959 3584 
Q 2709 3584 3137 3096 
Q 3566 2609 3566 1747 
Q 3566 888 3137 398 
Q 2709 -91 1959 -91 
Q 1206 -91 779 398 
Q 353 888 353 1747 
Q 353 2609 779 3096 
Q 1206 3584 1959 3584 
z
" transform="scale(0.015625)"/>
       <path id="DejaVuSans-55" d="M 2631 2963 
Q 2534 3019 2420 3045 
Q 2306 3072 2169 3072 
Q 1681 3072 1420 2755 
Q 1159 2438 1159 1844 
L 1159 0 
L 581 0 
L 581 3500 
L 1159 3500 
L 1159 2956 
Q 1341 3275 1631 3429 
Q 1922 3584 2338 3584 
Q 2397 3584 2469 3576 
Q 2541 3569 2628 3553 
L 2631 2963 
z
" transform="scale(0.015625)"/>
      </defs>
      <use xlink:href="#DejaVuSans-31"/>
      <use xlink:href="#DejaVuSans-48" transform="translate(74.8125 0)"/>
      <use xlink:href="#DejaVuSans-4c" transform="translate(136.34375 0)"/>
      <use xlink:href="#DejaVuSans-4a" transform="translate(164.125 0)"/>
      <use xlink:href="#DejaVuSans-4b" transform="translate(227.609375 0)"/>
      <use xlink:href="#DejaVuSans-45" transform="translate(290.984375 0)"/>
      <use xlink:href="#DejaVuSans-52" transform="translate(354.46875 0)"/>
      <use xlink:href="#DejaVuSans-55" transform="translate(415.65625 0)"/>
      <use xlink:href="#DejaVuSans-56" transform="translate(456.765625 0)"/>
     </g>
    </g>
   </g>
  </g>
 </g>
 <defs>
  <clipPath id="pad7e9a3bf2">
   <rect x="7.2" y="30.117344" width="461.396822" height="473.04"/>
  </clipPath>
 </defs>
</svg>
