<?xml version="1.0" encoding="utf-8" standalone="no"?>
<!DOCTYPE svg PUBLIC "-//W3C//DTD SVG 1.1//EN"
  "http://www.w3.org/Graphics/SVG/1.1/DTD/svg11.dtd">
<svg xmlns:xlink="http://www.w3.org/1999/xlink" width="418.815597pt" height="510.357344pt" viewBox="0 0 418.815597 510.357344" xmlns="http://www.w3.org/2000/svg" version="1.1">
 <metadata>
  <rdf:RDF xmlns:dc="http://purl.org/dc/elements/1.1/" xmlns:cc="http://creativecommons.org/ns#" xmlns:rdf="http://www.w3.org/1999/02/22-rdf-syntax-ns#">
   <cc:Work>
    <dc:type rdf:resource="http://purl.org/dc/dcmitype/StillImage"/>
    <dc:date>2026-06-19T08:36:31.887027</dc:date>
    <dc:format>image/svg+xml</dc:format>
    <dc:creator>
     <cc:Agent>
      <dc:title>Matplotlib v3.11.0, https://matplotlib.org/</dc:title>
     </cc:Agent>
    </dc:creator>
   </cc:Work>
  </rdf:RDF>
 </metadata>
 <defs>
  <style type="text/css">*{stroke-linejoin: round; stroke-linecap: butt}</style>
 </defs>
 <g id="figure_1">
  <g id="patch_1">
   <path d="M 0 510.357344 
L 418.815597 510.357344 
L 418.815597 0 
L 0 0 
z
" style="fill: #d6eaf8"/>
  </g>
  <g id="axes_1">
   <g id="PatchCollection_1">
    <path d="M -1775.76241 126.77931 
L 1218.747352 126.77931 
L 1218.23828 127.31801 
L 1218.17839 127.334334 
L 1218.028663 127.350659 
L 1217.938826 127.383307 
L 1217.878936 127.448604 
L 1217.789099 127.595522 
L 1217.759154 127.677144 
L 1217.639372 127.791413 
L 1217.579482 127.873035 
L 1217.579482 127.905683 
L 1217.519591 127.954656 
L 1217.399809 128.183196 
L 1217.07041 128.721896 
L 1216.920683 128.836166 
L 1216.920683 129.032057 
L 1216.770956 129.325893 
L 1216.561338 129.587081 
L 1216.381666 129.685027 
L 1216.201993 129.750324 
L 1215.393468 130.354321 
L 1215.363522 130.419618 
L 1215.303631 130.484915 
L 1215.273686 130.631833 
L 1215.273686 130.746103 
L 1215.273686 130.893021 
L 1215.243741 131.056264 
L 1215.18385 131.186858 
L 1215.094014 131.284804 
L 1214.884396 131.431722 
L 1214.79456 131.513343 
L 1214.734669 131.57864 
L 1214.644833 131.758207 
L 1214.584942 131.790855 
L 1214.46516 131.839828 
L 1214.40527 131.888801 
L 1214.495106 131.986746 
L 1214.525051 132.149989 
L 1214.495106 132.329556 
L 1214.40527 132.476474 
L 1214.46516 132.541771 
L 1214.614887 132.443825 
L 1214.764614 132.394853 
L 1214.884396 132.411177 
L 1214.974232 132.541771 
L 1215.094014 132.443825 
L 1215.303631 132.198962 
L 1215.423413 132.149989 
L 1215.513249 132.133665 
L 1215.603085 132.084692 
L 1215.692922 132.003071 
L 1215.722867 131.921449 
L 1215.752812 131.790855 
L 1215.842649 131.741883 
L 1215.932485 131.725558 
L 1216.022321 131.69291 
L 1216.022321 131.643937 
L 1216.052266 131.513343 
L 1216.082212 131.480695 
L 1216.112157 131.46437 
L 1216.201993 131.448046 
L 1216.231939 131.415398 
L 1216.29183 131.317452 
L 1216.381666 131.072588 
L 1216.441557 130.990967 
L 1216.531393 130.941994 
L 1216.591284 130.909346 
L 1216.651174 130.876697 
L 1216.68112 130.795076 
L 1216.711065 130.713455 
L 1216.800901 130.664482 
L 1216.920683 130.631833 
L 1217.190192 130.419618 
L 1217.369864 130.2727 
L 1217.429755 130.125782 
L 1217.519591 130.060485 
L 1217.938826 129.831945 
L 1217.998717 129.766648 
L 1218.028663 129.701351 
L 1218.058608 129.652378 
L 1218.118499 129.61973 
L 1218.23828 129.61973 
L 1218.268226 129.668702 
L 1218.268226 129.750324 
L 1218.358062 129.978863 
L 1218.328117 130.060485 
L 1218.268226 130.142106 
L 1218.208335 130.207403 
L 1218.118499 130.484915 
L 1217.819045 131.088912 
L 1217.819045 131.137885 
L 1217.84899 131.252155 
L 1217.819045 131.284804 
L 1217.789099 131.301128 
L 1217.699263 131.284804 
L 1217.669318 131.284804 
L 1217.489645 131.545992 
L 1217.699263 131.562316 
L 1217.84899 131.676586 
L 1217.938826 131.856152 
L 1217.938826 132.084692 
L 1218.058608 132.068368 
L 1218.208335 132.101016 
L 1218.328117 132.198962 
L 1218.358062 132.34588 
L 1218.268226 132.411177 
L 1218.148444 132.394853 
L 1217.878936 132.280583 
L 1217.908881 132.34588 
L 1217.968772 132.492798 
L 1217.998717 132.541771 
L 1217.878936 132.509122 
L 1217.819045 132.476474 
L 1217.699263 132.574419 
L 1217.609427 132.541771 
L 1217.579482 132.411177 
L 1217.609427 132.280583 
L 1217.309973 132.264259 
L 1217.190192 132.215286 
L 1217.100355 132.084692 
L 1216.920683 132.149989 
L 1216.741011 132.133665 
L 1216.591284 132.101016 
L 1216.471502 132.084692 
L 1216.381666 132.11734 
L 1216.261884 132.247934 
L 1216.142103 132.280583 
L 1216.052266 132.280583 
L 1215.96243 132.296907 
L 1215.932485 132.362204 
L 1215.902539 132.476474 
L 1215.842649 132.378528 
L 1215.842649 132.34588 
L 1215.782758 132.34588 
L 1215.692922 132.541771 
L 1215.393468 132.77031 
L 1215.273686 132.949877 
L 1215.123959 132.802959 
L 1214.974232 132.786635 
L 1214.614887 132.88458 
L 1214.345379 132.88458 
L 1214.195652 132.933553 
L 1214.07587 133.015174 
L 1213.776416 132.900905 
L 1213.566798 132.88458 
L 1212.908 132.949877 
L 1212.908 132.917229 
L 1212.997836 132.851932 
L 1213.057727 132.721338 
L 1213.117618 132.590744 
L 1213.267344 132.541771 
L 1213.387126 132.476474 
L 1213.327235 132.34588 
L 1213.357181 132.215286 
L 1213.267344 132.149989 
L 1212.997836 132.084692 
L 1212.788218 131.905125 
L 1212.638491 131.80718 
L 1212.5786 131.856152 
L 1212.488764 131.856152 
L 1211.859911 132.133665 
L 1211.710184 132.247934 
L 1211.440675 132.476474 
L 1211.500566 132.639716 
L 1211.440675 132.77031 
L 1211.350839 132.88458 
L 1211.231057 132.949877 
L 1210.961549 132.868256 
L 1210.811822 133.11312 
L 1210.602204 133.798738 
L 1210.811822 133.65182 
L 1210.901658 133.635496 
L 1211.051385 133.668144 
L 1210.961549 133.782414 
L 1210.751931 133.961981 
L 1210.662095 134.059926 
L 1210.602204 134.059926 
L 1210.482423 134.010954 
L 1210.153023 133.913008 
L 1210.063187 133.831387 
L 1210.003296 133.749766 
L 1210.003296 133.684469 
L 1209.973351 133.619172 
L 1209.823624 133.586523 
L 1209.763733 133.521226 
L 1209.733788 133.439605 
L 1209.733788 133.341659 
L 1209.673897 133.341659 
L 1209.673897 133.53755 
L 1209.554115 133.455929 
L 1209.464279 133.439605 
L 1209.374443 133.472253 
L 1209.284607 133.53755 
L 1208.955207 133.864035 
L 1208.895317 133.961981 
L 1208.835426 134.337439 
L 1208.775535 134.402736 
L 1208.685699 134.435384 
L 1208.655753 134.500681 
L 1208.775535 134.598627 
L 1208.476081 134.827166 
L 1208.446136 134.859815 
L 1208.206572 134.876139 
L 1208.116736 134.859815 
L 1207.967009 134.794518 
L 1207.877173 134.680248 
L 1207.787337 134.402736 
L 1207.697501 134.092575 
L 1207.697501 133.831387 
L 1207.607664 133.65182 
L 1207.427992 133.455929 
L 1207.338156 133.243714 
L 1207.398047 132.949877 
L 1207.218374 132.868256 
L 1207.158483 132.802959 
L 1207.128538 132.688689 
L 1206.619466 132.966202 
L 1206.379903 133.015174 
L 1206.14034 132.819283 
L 1206.200231 132.786635 
L 1206.200231 132.753986 
L 1206.110395 132.656041 
L 1206.110395 132.541771 
L 1206.14034 132.492798 
L 1206.200231 132.541771 
L 1206.260122 132.541771 
L 1206.230176 132.362204 
L 1206.320012 132.198962 
L 1206.619466 131.954098 
L 1206.619466 132.149989 
L 1206.679357 132.068368 
L 1206.709303 131.954098 
L 1206.739248 131.888801 
L 1206.829084 131.954098 
L 1206.888975 131.80718 
L 1206.978811 131.57864 
L 1207.008757 131.415398 
L 1206.829084 131.529667 
L 1206.709303 131.513343 
L 1206.619466 131.399073 
L 1206.559576 131.219506 
L 1206.85903 131.088912 
L 1206.948866 131.088912 
L 1207.008757 131.137885 
L 1207.098593 131.284804 
L 1207.158483 131.350101 
L 1207.24832 131.382749 
L 1207.517828 131.415398 
L 1207.787337 131.594964 
L 1207.847228 131.611289 
L 1207.967009 131.594964 
L 1207.996955 131.545992 
L 1208.0269 131.497019 
L 1208.086791 131.415398 
L 1208.535972 130.974643 
L 1208.655753 130.909346 
L 1208.74559 131.007291 
L 1208.775535 131.284804 
L 1208.895317 131.235831 
L 1208.925262 131.170534 
L 1208.895317 130.92567 
L 1208.925262 130.8114 
L 1209.164825 130.419618 
L 1209.19477 130.468591 
L 1209.224716 130.566536 
L 1209.224716 130.631833 
L 1209.284607 130.582861 
L 1209.344497 130.533888 
L 1209.344497 130.468591 
L 1209.344497 130.354321 
L 1209.404388 130.354321 
L 1209.494224 130.484915 
L 1209.584061 130.38697 
L 1209.673897 130.240051 
L 1209.763733 130.142106 
L 1209.853569 130.093133 
L 1209.823624 129.978863 
L 1209.763733 129.831945 
L 1209.733788 129.685027 
L 1209.763733 129.717675 
L 1209.883515 129.750324 
L 1209.91346 129.766648 
L 1209.943405 129.587081 
L 1210.033242 129.587081 
L 1210.093132 129.652378 
L 1210.153023 129.685027 
L 1210.272805 129.668702 
L 1210.482423 129.587081 
L 1210.871713 129.538108 
L 1211.320894 129.358542 
L 1211.560457 129.293245 
L 1211.829965 129.309569 
L 1211.919802 129.293245 
L 1211.919802 129.260596 
L 1211.979692 129.130002 
L 1212.009638 129.081029 
L 1212.069529 129.064705 
L 1212.219256 129.032057 
L 1212.279146 128.999408 
L 1212.428873 128.999408 
L 1212.668437 129.064705 
L 1212.908 129.097354 
L 1213.057727 128.96676 
L 1213.177508 129.081029 
L 1213.237399 129.048381 
L 1213.29729 128.950435 
L 1213.417071 128.901463 
L 1213.476962 128.917787 
L 1213.536853 129.064705 
L 1213.596744 129.081029 
L 1213.656635 129.081029 
L 1213.68658 129.064705 
L 1213.716525 129.064705 
L 1213.776416 129.081029 
L 1213.776416 128.950435 
L 1213.716525 128.803517 
L 1213.656635 128.689247 
L 1213.566798 128.62395 
L 1213.656635 128.542329 
L 1213.746471 128.509681 
L 1213.836307 128.509681 
L 1213.896198 128.558653 
L 1213.956089 128.395411 
L 1214.015979 128.232168 
L 1214.105816 128.134223 
L 1214.225597 128.232168 
L 1214.285488 128.068926 
L 1214.315433 127.922007 
L 1214.345379 127.791413 
L 1214.46516 127.709792 
L 1214.764614 127.726116 
L 1214.884396 127.677144 
L 1214.764614 127.513901 
L 1214.854451 127.513901 
L 1214.944287 127.562874 
L 1215.004178 127.660819 
L 1215.034123 127.775089 
L 1215.123959 127.43228 
L 1215.153905 127.31801 
L 1215.18385 127.43228 
L 1215.273686 127.481253 
L 1215.363522 127.513901 
L 1215.453358 127.579198 
L 1215.513249 127.497577 
L 1215.57314 127.481253 
L 1215.633031 127.54655 
L 1215.662976 127.644495 
L 1215.662976 127.497577 
L 1215.692922 127.448604 
L 1215.752812 127.43228 
L 1215.812703 127.448604 
L 1215.872594 127.415956 
L 1215.872594 127.350659 
L 1215.902539 127.269037 
L 1215.902539 127.252713 
L 1215.932485 127.252713 
L 1215.992376 127.269037 
L 1216.022321 127.301686 
L 1216.052266 127.31801 
L 1216.201993 127.31801 
L 1216.261884 127.301686 
L 1216.29183 127.220065 
L 1216.35172 127.154768 
L 1216.531393 127.056822 
L 1216.800901 126.89358 
L 1216.830847 127.040498 
L 1216.860792 127.269037 
L 1216.920683 127.383307 
L 1217.010519 127.334334 
L 1217.190192 127.154768 
L 1217.309973 127.122119 
L 1217.399809 127.154768 
L 1217.429755 127.20374 
L 1217.399809 127.269037 
L 1217.309973 127.31801 
L 1217.399809 127.350659 
L 1217.519591 127.350659 
L 1217.549536 127.383307 
L 1217.639372 127.236389 
L 1217.938826 126.958877 
L 1217.998717 126.877255 
L 1218.597625 126.583419 
L 1218.747352 126.583419 
z
" clip-path="url(#p914d4e63c1)" style="fill: #bdc3c7; stroke: #ffffff; stroke-width: 0.5"/>
    <path d="M 1195.899014 144.017721 
L 1195.899014 143.936099 
L 1196.018796 143.772857 
L 1196.048741 143.674911 
L 1196.048741 143.544317 
L 1196.018796 143.47902 
L 1195.958905 143.413723 
L 1195.958905 143.315778 
L 1195.98885 143.119887 
L 1196.138577 143.038265 
L 1196.527868 143.021941 
L 1196.737485 142.923996 
L 1196.797376 142.875023 
L 1196.887212 142.777077 
L 1196.887212 142.695456 
L 1196.887212 142.613835 
L 1196.857267 142.515889 
L 1196.857267 142.189404 
L 1196.887212 142.05881 
L 1196.917158 142.042486 
L 1196.947103 142.05881 
L 1197.246557 142.156756 
L 1197.306448 142.156756 
L 1197.396284 142.05881 
L 1197.426229 141.993513 
L 1197.396284 141.928216 
L 1197.366339 141.846595 
L 1197.366339 141.748649 
L 1197.336393 141.552758 
L 1197.306448 141.454813 
L 1197.306448 141.373192 
L 1197.216612 141.324219 
L 1197.156721 141.29157 
L 1197.09683 141.226273 
L 1197.036939 140.997734 
L 1197.126775 140.899788 
L 1197.276502 140.834491 
L 1197.366339 140.654924 
L 1197.396284 140.589627 
L 1197.575956 140.540655 
L 1197.665793 140.491682 
L 1197.695738 140.377412 
L 1197.665793 140.279467 
L 1197.695738 140.181521 
L 1197.785574 140.0999 
L 1197.87541 140.21417 
L 1197.935301 140.181521 
L 1197.995192 140.067251 
L 1197.935301 139.952982 
L 1197.995192 139.822388 
L 1198.085028 139.691794 
L 1198.144919 139.659145 
L 1198.234755 139.757091 
L 1198.294646 139.757091 
L 1198.624045 139.430606 
L 1198.953445 139.202066 
L 1198.98339 139.169417 
L 1199.013335 139.153093 
L 1199.013335 139.10412 
L 1199.043281 139.055148 
L 1199.103172 139.038823 
L 1199.163062 139.038823 
L 1199.222953 139.071472 
L 1199.252899 139.087796 
L 1199.222953 139.10412 
L 1199.163062 139.185742 
L 1199.193008 139.348984 
L 1199.252899 139.528551 
L 1199.312789 139.626497 
L 1199.37268 139.577524 
L 1199.312789 139.44693 
L 1199.282844 139.33266 
L 1199.282844 139.21839 
L 1199.312789 139.10412 
L 1199.37268 139.055148 
L 1199.642189 138.875581 
L 1199.70208 138.842932 
L 1200.031479 138.973526 
L 1200.061424 138.924554 
L 1200.09137 138.810284 
L 1200.121315 138.696014 
L 1200.151261 138.647041 
L 1200.241097 138.614393 
L 1200.271042 138.56542 
L 1200.330933 138.532772 
L 1200.510605 138.500123 
L 1200.540551 138.45115 
L 1200.570496 138.402178 
L 1200.660332 138.353205 
L 1200.690278 138.336881 
L 1200.720223 138.353205 
L 1200.720223 138.483799 
L 1200.720223 138.581744 
L 1200.720223 138.67969 
L 1200.660332 138.761311 
L 1200.600442 138.842932 
L 1200.750169 138.875581 
L 1200.86995 138.810284 
L 1200.959786 138.67969 
L 1201.079568 138.581744 
L 1201.25924 138.712338 
L 1201.498803 138.728663 
L 1201.738367 138.696014 
L 1201.918039 138.647041 
L 1202.157602 138.516447 
L 1202.277384 138.434826 
L 1202.36722 138.336881 
L 1202.457056 138.255259 
L 1202.666674 138.255259 
L 1202.786456 138.173638 
L 1203.055964 138.222611 
L 1203.355418 138.157314 
L 1203.624927 137.994071 
L 1203.684817 137.716559 
L 1203.86449 137.781856 
L 1204.104053 137.91245 
L 1204.283725 138.059368 
L 1204.373562 138.206287 
L 1204.403507 138.320556 
L 1204.493343 138.516447 
L 1204.493343 138.647041 
L 1204.433452 138.744987 
L 1204.223835 138.989851 
L 1204.163944 139.10412 
L 1204.25378 139.153093 
L 1204.25378 139.234715 
L 1204.223835 139.316336 
L 1204.163944 139.365309 
L 1204.25378 139.348984 
L 1204.493343 139.038823 
L 1204.64307 138.973526 
L 1204.822743 138.989851 
L 1205.002415 139.071472 
L 1205.152142 139.185742 
L 1205.241978 139.365309 
L 1205.241978 139.44693 
L 1205.212033 139.5612 
L 1205.241978 139.626497 
L 1205.271923 139.642821 
L 1205.42165 139.789739 
L 1205.451596 139.822388 
L 1205.481541 139.855036 
L 1205.810941 140.132548 
L 1205.900777 140.132548 
L 1205.990613 140.132548 
L 1206.080449 140.165197 
L 1206.230176 140.279467 
L 1206.469739 140.622276 
L 1206.52963 140.687573 
L 1206.709303 140.720221 
L 1206.888975 140.785519 
L 1207.038702 140.916113 
L 1207.128538 141.095679 
L 1207.128538 141.324219 
L 1207.038702 141.52011 
L 1206.948866 141.667028 
L 1206.888975 141.846595 
L 1206.85903 141.94454 
L 1206.85903 142.026162 
L 1206.829084 142.107783 
L 1206.85903 142.189404 
L 1206.91892 142.254701 
L 1207.068647 142.368971 
L 1207.128538 142.417944 
L 1207.128538 142.532214 
L 1207.098593 142.630159 
L 1207.098593 142.728105 
L 1207.158483 142.809726 
L 1207.278265 142.777077 
L 1207.338156 142.809726 
L 1207.30821 142.875023 
L 1207.24832 142.94032 
L 1207.338156 142.989293 
L 1207.398047 143.05459 
L 1207.398047 143.152535 
L 1207.338156 143.283129 
L 1207.30821 143.250481 
L 1207.24832 143.217832 
L 1207.24832 143.250481 
L 1207.278265 143.413723 
L 1207.038702 143.495344 
L 1207.068647 143.756532 
L 1207.218374 144.066693 
L 1207.30821 144.197287 
L 1207.487883 144.213612 
L 1207.547774 144.262584 
L 1207.607664 144.344206 
L 1207.697501 144.458475 
L 1207.727446 144.523772 
L 1207.727446 144.556421 
L 1207.757391 144.589069 
L 1207.817282 144.605394 
L 1207.877173 144.572745 
L 1207.937064 144.507448 
L 1207.967009 144.442151 
L 1207.967009 144.393178 
L 1208.0269 144.393178 
L 1207.996955 144.4748 
L 1207.937064 144.605394 
L 1207.907118 144.670691 
L 1207.907118 144.801285 
L 1207.907118 144.89923 
L 1207.877173 145.029824 
L 1207.817282 145.160418 
L 1207.697501 145.258364 
L 1207.63761 145.323661 
L 1207.218374 145.568525 
L 1207.008757 145.797064 
L 1207.008757 145.601173 
L 1206.769193 145.699119 
L 1206.679357 145.731767 
L 1206.769193 145.568525 
L 1206.769193 145.535876 
L 1206.739248 145.43793 
L 1206.679357 145.421606 
L 1206.649412 145.421606 
L 1206.589521 145.356309 
L 1206.499685 145.356309 
L 1206.260122 145.486903 
L 1206.14034 145.535876 
L 1206.170285 145.731767 
L 1206.020558 145.846037 
L 1205.840886 145.911334 
L 1205.75105 145.89501 
L 1205.75105 145.748091 
L 1205.780995 145.699119 
L 1205.75105 145.66647 
L 1205.631268 145.519552 
L 1205.541432 145.470579 
L 1205.451596 145.454255 
L 1205.36176 145.454255 
L 1205.391705 145.503227 
L 1205.391705 145.535876 
L 1205.36176 145.617497 
L 1205.331814 145.682794 
L 1205.271923 145.715443 
L 1205.182087 145.731767 
L 1205.182087 145.699119 
L 1205.152142 145.650146 
L 1205.122196 145.617497 
L 1205.062306 145.601173 
L 1205.002415 145.601173 
L 1204.912579 145.650146 
L 1204.852688 145.66647 
L 1204.792797 145.699119 
L 1204.732906 145.764416 
L 1204.673016 145.829713 
L 1204.583179 145.862361 
L 1204.463398 145.878685 
L 1204.403507 145.89501 
L 1204.373562 145.927658 
L 1204.313671 145.992955 
L 1204.283725 146.058252 
L 1204.25378 146.188846 
L 1204.223835 146.254143 
L 1204.133998 146.303116 
L 1203.954326 146.368413 
L 1203.894435 146.417386 
L 1203.654872 146.743871 
L 1203.505145 146.874465 
L 1203.355418 146.923437 
L 1203.295527 146.923437 
L 1203.235636 146.988734 
L 1203.055964 146.792843 
L 1202.427111 147.037707 
L 1202.157602 146.988734 
L 1202.037821 146.988734 
L 1201.97793 146.97241 
L 1201.918039 146.923437 
L 1201.888094 146.97241 
L 1201.768312 147.054031 
L 1201.64853 147.070356 
L 1201.558694 147.021383 
L 1201.468858 147.005059 
L 1201.319131 147.08668 
L 1201.229295 147.119329 
L 1201.199349 146.956086 
L 1201.169404 146.907113 
L 1201.109513 146.923437 
L 1201.019677 146.97241 
L 1200.989732 147.021383 
L 1200.929841 147.054031 
L 1200.899896 147.021383 
L 1200.720223 146.85814 
L 1200.720223 146.792843 
L 1200.660332 146.743871 
L 1200.300988 146.629601 
L 1199.612243 146.417386 
L 1199.402626 146.384737 
L 1199.163062 146.31944 
L 1198.713882 146.090901 
L 1198.504264 146.123549 
L 1198.264701 145.992955 
L 1198.144919 145.976631 
L 1197.725683 146.009279 
L 1197.665793 145.992955 
L 1197.575956 145.943982 
L 1197.516066 145.89501 
L 1197.48612 145.829713 
L 1197.426229 145.797064 
L 1196.857267 145.633822 
L 1196.587758 145.503227 
L 1196.408086 145.193067 
L 1196.348195 145.258364 
L 1196.31825 145.160418 
L 1196.288304 144.964527 
L 1196.288304 144.866582 
L 1196.258359 144.801285 
L 1196.228414 144.768636 
L 1196.198468 144.687015 
L 1196.168523 144.572745 
L 1196.138577 144.507448 
L 1195.98885 144.425827 
L 1195.98885 144.36053 
L 1196.018796 144.278909 
L 1195.958905 144.197287 
L 1195.92896 144.115666 
z
" clip-path="url(#p914d4e63c1)" style="fill: #bdc3c7; stroke: #ffffff; stroke-width: 0.5"/>
    <path d="M 1201.708421 155.395725 
L 1201.947984 155.118212 
L 1202.097711 155.06924 
L 1202.277384 155.134537 
L 1202.36722 155.052915 
L 1202.397165 154.8407 
L 1202.457056 154.742754 
L 1202.546892 154.693782 
L 1202.636729 154.693782 
L 1203.115855 154.824376 
L 1203.175746 154.808051 
L 1203.235636 154.742754 
L 1203.235636 154.644809 
L 1203.265582 154.546863 
L 1203.355418 154.481566 
L 1203.4752 154.563188 
L 1203.53509 154.481566 
L 1203.565036 154.318324 
L 1203.565036 154.138757 
L 1203.684817 153.926542 
L 1203.984271 153.795948 
L 1204.313671 153.779624 
L 1204.553234 153.877569 
L 1204.613125 153.600057 
L 1204.673016 153.567408 
L 1204.792797 153.551084 
L 1204.852688 153.53476 
L 1204.882633 153.485787 
L 1204.912579 153.436814 
L 1204.97247 153.42049 
L 1205.062306 153.436814 
L 1205.122196 153.469463 
L 1205.212033 153.469463 
L 1205.301869 153.42049 
L 1205.36176 153.551084 
L 1205.631268 153.567408 
L 1205.691159 153.714327 
L 1205.75105 153.714327 
L 1206.050504 153.763299 
L 1206.14034 153.812272 
L 1206.200231 153.926542 
L 1206.260122 154.106109 
L 1206.230176 154.269351 
L 1206.080449 154.367297 
L 1205.930722 154.465242 
L 1205.900777 154.399945 
L 1205.810941 154.383621 
L 1205.631268 154.350972 
L 1205.661214 154.432594 
L 1205.691159 154.497891 
L 1205.661214 154.563188 
L 1205.571377 154.61216 
L 1205.481541 154.579512 
L 1205.301869 154.563188 
L 1205.092251 154.563188 
L 1204.942524 154.61216 
L 1204.97247 154.546863 
L 1205.002415 154.416269 
L 1205.002415 154.350972 
L 1204.942524 154.383621 
L 1204.882633 154.399945 
L 1204.822743 154.383621 
L 1204.762852 154.350972 
L 1204.822743 154.302 
L 1204.852688 154.236703 
L 1204.882633 154.204054 
L 1204.673016 154.122433 
L 1204.463398 154.220378 
L 1204.104053 154.546863 
L 1203.954326 154.579512 
L 1203.834544 154.579512 
L 1203.744708 154.61216 
L 1203.684817 154.710106 
L 1203.684817 154.905997 
L 1203.684817 154.95497 
L 1203.654872 154.808051 
L 1203.565036 154.873348 
L 1203.53509 154.987618 
L 1203.565036 155.085564 
L 1203.624927 155.134537 
L 1203.744708 155.167185 
L 1203.774654 155.248806 
L 1203.744708 155.49367 
L 1203.744708 155.558967 
L 1203.684817 155.624264 
L 1203.594981 155.673237 
L 1203.53509 155.656913 
L 1203.445254 155.60794 
L 1203.445254 155.509994 
L 1203.4752 155.265131 
L 1203.355418 155.3794 
L 1203.295527 155.395725 
L 1203.175746 155.395725 
L 1203.115855 155.49367 
L 1203.055964 155.575291 
L 1202.996073 155.640588 
L 1202.876292 155.656913 
L 1202.75651 155.640588 
L 1202.516947 155.542643 
L 1202.427111 155.526319 
L 1202.247438 155.656913 
L 1202.127657 155.673237 
L 1202.097711 155.526319 
L 1202.037821 155.526319 
L 1201.97793 155.575291 
L 1201.888094 155.542643 
L 1201.798257 155.477346 
z
" clip-path="url(#p914d4e63c1)" style="fill: #bdc3c7; stroke: #ffffff; stroke-width: 0.5"/>
    <path d="M 1195.270161 136.394295 
L 1195.270161 136.312673 
L 1195.359997 136.328998 
L 1195.389942 136.312673 
L 1195.330052 136.231052 
L 1195.330052 136.084134 
L 1195.330052 135.969864 
L 1195.389942 135.920891 
L 1195.479779 135.888243 
L 1195.509724 135.790297 
L 1195.509724 135.676027 
L 1195.539669 135.594406 
L 1195.59956 135.529109 
L 1195.779233 135.365867 
L 1195.869069 135.333218 
L 1195.869069 135.365867 
L 1195.958905 135.545433 
L 1196.018796 135.594406 
L 1196.048741 135.594406 
L 1196.078687 135.529109 
L 1196.168523 135.267921 
L 1196.228414 135.382191 
L 1196.228414 135.512785 
L 1196.198468 135.627055 
L 1196.108632 135.725 
L 1196.048741 135.904567 
L 1195.809178 136.100458 
L 1195.779233 136.247376 
L 1195.749287 136.214728 
L 1195.719342 136.198404 
L 1195.689396 136.182079 
L 1195.659451 136.116782 
L 1195.569615 136.182079 
L 1195.509724 136.247376 
L 1195.479779 136.328998 
L 1195.479779 136.443267 
z
" clip-path="url(#p914d4e63c1)" style="fill: #bdc3c7; stroke: #ffffff; stroke-width: 0.5"/>
    <path d="M -1767.617262 136.247376 
L -1767.49748 136.312673 
L -1767.407644 136.410619 
L -1767.317808 136.508564 
L -1767.138135 136.524889 
L -1766.898572 136.655483 
L -1766.748845 136.753428 
L -1766.688954 136.884022 
L -1766.838681 137.194183 
L -1766.838681 137.25948 
L -1766.988408 137.308453 
L -1767.168081 137.471695 
L -1767.287862 137.667586 
L -1767.317808 137.847153 
L -1767.437589 137.732883 
L -1767.437589 137.553316 
L -1767.317808 137.357425 
L -1767.198026 137.25948 
L -1767.227971 137.128886 
L -1767.198026 137.063589 
L -1767.138135 137.03094 
L -1767.10819 136.981968 
L -1767.10819 136.851374 
L -1767.10819 136.802401 
L -1767.198026 136.72078 
L -1767.287862 136.671807 
L -1767.467535 136.639158 
L -1767.557371 136.590186 
L -1767.587316 136.524889 
L -1767.587316 136.328998 
z
" clip-path="url(#p914d4e63c1)" style="fill: #bdc3c7; stroke: #ffffff; stroke-width: 0.5"/>
    <path d="M 1212.368983 143.936099 
L 1212.458819 144.001396 
L 1212.51871 144.001396 
L 1212.698382 143.838154 
L 1212.728327 143.838154 
L 1212.788218 143.854478 
L 1212.908 143.870802 
L 1213.027781 143.968748 
L 1213.237399 144.376854 
L 1213.29729 144.458475 
L 1213.417071 144.735988 
L 1213.447017 145.242039 
L 1213.357181 145.633822 
L 1213.087672 145.454255 
L 1213.027781 145.339985 
L 1212.937945 145.078797 
L 1212.908 144.964527 
L 1212.758273 144.752312 
L 1212.698382 144.638042 
L 1212.638491 144.458475 
L 1212.608546 144.572745 
L 1212.638491 144.768636 
L 1212.608546 144.833933 
L 1212.548655 144.850257 
L 1212.51871 144.78496 
L 1212.458819 144.507448 
L 1212.488764 144.229936 
L 1212.458819 144.197287 
L 1212.398928 144.034045 
z
" clip-path="url(#p914d4e63c1)" style="fill: #bdc3c7; stroke: #ffffff; stroke-width: 0.5"/>
    <path d="M 1197.366339 133.211065 
L 1197.366339 133.145768 
L 1197.426229 132.917229 
L 1197.426229 132.819283 
L 1197.48612 132.819283 
L 1197.575956 132.933553 
L 1197.755629 132.851932 
L 1198.055083 132.476474 
L 1198.444373 132.11734 
L 1198.564155 131.905125 
L 1198.444373 131.69291 
L 1198.624045 131.69291 
L 1198.713882 131.774531 
L 1198.743827 131.905125 
L 1198.683936 132.084692 
L 1198.624045 132.182637 
L 1198.474318 132.296907 
L 1198.444373 132.378528 
L 1198.414428 132.427501 
L 1197.905356 132.900905 
L 1197.785574 133.047823 
L 1197.725683 133.211065 
L 1197.635847 133.162093 
L 1197.605902 133.145768 
L 1197.575956 133.194741 
L 1197.48612 133.243714 
L 1197.426229 133.260038 
z
" clip-path="url(#p914d4e63c1)" style="fill: #bdc3c7; stroke: #ffffff; stroke-width: 0.5"/>
    <path d="M -1775.76241 130.370645 
L -1775.76241 129.880918 
L -1775.702519 129.750324 
L -1775.462956 129.570757 
L -1775.43301 129.456487 
L -1775.343174 129.423839 
L -1775.04372 129.309569 
L -1774.923938 129.293245 
L -1774.923938 129.358542 
L -1774.983829 129.374866 
L -1775.013775 129.407514 
L -1775.013775 129.440163 
L -1774.953884 129.489136 
L -1774.953884 129.570757 
L -1775.013775 129.587081 
L -1775.04372 129.603405 
L -1775.103611 129.61973 
L -1775.163502 129.61973 
L -1775.193447 129.668702 
L -1775.253338 129.766648 
L -1775.253338 129.848269 
L -1775.163502 129.897242 
L -1775.103611 129.946215 
L -1775.223392 130.076809 
L -1775.373119 130.207403 
z
" clip-path="url(#p914d4e63c1)" style="fill: #bdc3c7; stroke: #ffffff; stroke-width: 0.5"/>
    <path d="M -1775.76241 134.468033 
L -1775.76241 132.753986 
L -1775.672573 132.590744 
L -1775.073665 131.856152 
L -1774.923938 131.758207 
L -1774.744266 131.69291 
L -1774.624485 131.725558 
L -1774.564594 131.839828 
L -1774.474758 132.11734 
L -1774.444812 132.280583 
L -1774.444812 132.378528 
L -1774.354976 132.46015 
L -1774.26514 132.525447 
L -1774.235194 132.607068 
L -1774.26514 132.688689 
L -1774.564594 133.015174 
L -1774.65443 133.178417 
L -1774.684375 133.276362 
L -1774.684375 133.488578 
L -1774.714321 133.504902 
L -1774.774211 133.504902 
L -1774.834102 133.53755 
L -1775.343174 133.896684 
L -1775.612683 134.157872 
z
" clip-path="url(#p914d4e63c1)" style="fill: #bdc3c7; stroke: #ffffff; stroke-width: 0.5"/>
    <path d="M 1217.339918 150.171964 
L 1217.489645 150.090342 
L 1217.819045 149.959748 
L 1218.148444 149.878127 
L 1218.268226 149.861803 
L 1218.328117 149.9271 
L 1218.358062 149.976073 
L 1218.298171 150.090342 
L 1218.088553 150.139315 
L 1217.998717 150.237261 
L 1217.84899 150.367855 
L 1217.908881 150.449476 
L 1218.028663 150.384179 
L 1218.058608 150.384179 
L 1218.088553 150.498449 
L 1217.938826 150.645367 
L 1217.908881 150.841258 
L 1217.759154 150.890231 
L 1217.699263 150.726988 
L 1217.669318 150.563746 
L 1217.579482 150.482125 
L 1217.519591 150.384179 
L 1217.369864 150.286234 
z
" clip-path="url(#p914d4e63c1)" style="fill: #bdc3c7; stroke: #ffffff; stroke-width: 0.5"/>
    <path d="M -1775.76241 134.451709 
L 1218.747352 132.737662 
L 1218.747352 132.753986 
L 1218.56768 133.145768 
L 1218.507789 133.309011 
L 1218.477844 133.439605 
L 1218.17839 133.929332 
L 1217.968772 134.108899 
L 1217.878936 134.223169 
L 1217.819045 134.370087 
L 1217.878936 134.500681 
L 1218.028663 134.6476 
L 1218.058608 134.794518 
L 1218.148444 134.827166 
L 1218.268226 134.827166 
L 1218.358062 134.794518 
L 1218.477844 134.745545 
L 1218.597625 134.663924 
L 1218.687461 134.565978 
L 1218.747352 134.468033 
z
" clip-path="url(#p914d4e63c1)" style="fill: #bdc3c7; stroke: #ffffff; stroke-width: 0.5"/>
    <path d="M 1216.591284 155.950749 
L 1216.591284 155.852804 
L 1216.651174 155.820155 
L 1216.651174 155.803831 
L 1216.68112 155.72221 
L 1216.741011 155.754858 
L 1216.830847 155.771182 
L 1216.860792 155.787507 
L 1216.830847 155.640588 
L 1216.741011 155.49367 
L 1216.711065 155.3794 
L 1216.890738 155.330428 
L 1216.980574 155.412049 
L 1217.040465 155.575291 
L 1217.07041 155.771182 
L 1217.100355 155.934425 
L 1216.860792 155.999722 
L 1216.741011 155.999722 
L 1216.621229 155.983398 
z
" clip-path="url(#p914d4e63c1)" style="fill: #bdc3c7; stroke: #ffffff; stroke-width: 0.5"/>
    <path d="M 1213.506908 137.585965 
L 1213.536853 137.455371 
L 1213.506908 137.324777 
L 1213.566798 137.226831 
L 1213.926143 137.161534 
L 1213.986034 137.14521 
L 1214.07587 137.14521 
L 1214.165706 137.226831 
L 1214.165706 137.275804 
L 1214.195652 137.618614 
L 1214.165706 137.863477 
L 1214.105816 138.092017 
L 1214.015979 138.271584 
L 1213.896198 138.434826 
L 1213.68658 138.647041 
L 1213.626689 138.581744 
L 1213.626689 138.010396 
L 1213.596744 137.863477 
L 1213.566798 137.716559 
z
" clip-path="url(#p914d4e63c1)" style="fill: #bdc3c7; stroke: #ffffff; stroke-width: 0.5"/>
    <path d="M 1208.266463 141.324219 
L 1208.356299 141.030382 
L 1208.565917 140.883464 
L 1208.625808 140.834491 
L 1208.74559 140.785519 
L 1208.895317 140.883464 
L 1208.985153 141.112004 
L 1209.015098 141.242598 
L 1209.045044 141.373192 
L 1209.074989 141.503786 
L 1209.045044 141.650704 
L 1209.015098 141.764974 
L 1208.955207 141.862919 
L 1208.74559 141.928216 
L 1208.655753 141.960865 
L 1208.506026 142.026162 
L 1208.41619 141.862919 
L 1208.386245 141.699677 
z
" clip-path="url(#p914d4e63c1)" style="fill: #bdc3c7; stroke: #ffffff; stroke-width: 0.5"/>
    <path d="M 1213.68658 142.483241 
L 1213.716525 142.352647 
L 1213.866252 142.434268 
L 1214.015979 142.483241 
L 1214.015979 142.532214 
L 1214.015979 142.564862 
L 1213.956089 142.613835 
L 1213.986034 142.679132 
L 1214.015979 142.760753 
L 1214.015979 142.858699 
L 1214.015979 142.94032 
L 1213.956089 143.038265 
L 1213.896198 142.989293 
L 1213.836307 142.809726 
L 1213.776416 142.728105 
L 1213.716525 142.613835 
z
" clip-path="url(#p914d4e63c1)" style="fill: #bdc3c7; stroke: #ffffff; stroke-width: 0.5"/>
    <path d="M 1206.050504 153.240923 
L 1206.050504 153.126653 
L 1206.14034 152.996059 
L 1206.14034 152.914438 
L 1206.230176 152.816493 
L 1206.409849 152.76752 
L 1206.52963 152.800168 
L 1206.499685 152.947087 
L 1206.559576 153.028708 
L 1206.589521 153.110329 
L 1206.589521 153.175626 
L 1206.559576 153.273572 
L 1206.439794 153.240923 
L 1206.379903 153.338869 
L 1206.349958 153.436814 
L 1206.260122 153.42049 
z
" clip-path="url(#p914d4e63c1)" style="fill: #bdc3c7; stroke: #ffffff; stroke-width: 0.5"/>
    <path d="M 1203.026019 148.376296 
L 1203.085909 148.359972 
L 1203.115855 148.343647 
L 1203.115855 148.310999 
L 1203.085909 148.245702 
L 1203.115855 148.196729 
L 1203.115855 148.164081 
L 1203.115855 148.115108 
L 1203.115855 148.049811 
L 1203.175746 147.870244 
L 1203.265582 147.85392 
L 1203.355418 147.935541 
L 1203.415309 148.115108 
L 1203.385363 148.327323 
L 1203.295527 148.457917 
L 1203.175746 148.490566 
z
" clip-path="url(#p914d4e63c1)" style="fill: #bdc3c7; stroke: #ffffff; stroke-width: 0.5"/>
    <path d="M 1196.887212 133.864035 
L 1196.947103 133.782414 
L 1197.156721 133.668144 
L 1197.09683 133.521226 
L 1197.186666 133.472253 
L 1197.366339 133.488578 
L 1197.48612 133.53755 
L 1197.216612 133.76609 
L 1197.156721 133.864035 
L 1197.246557 133.929332 
L 1197.216612 134.010954 
L 1197.186666 134.076251 
L 1197.156721 134.141548 
L 1197.066885 134.206845 
L 1197.066885 134.141548 
L 1197.006994 134.059926 
z
" clip-path="url(#p914d4e63c1)" style="fill: #bdc3c7; stroke: #ffffff; stroke-width: 0.5"/>
    <path d="M 1194.581417 137.25948 
L 1194.581417 137.177859 
L 1194.791034 137.275804 
L 1194.910816 137.275804 
L 1195.030598 137.177859 
L 1195.150379 137.37375 
L 1195.090488 137.390074 
L 1195.060543 137.422722 
L 1195.060543 137.471695 
L 1194.940761 137.667586 
L 1194.82098 137.781856 
L 1194.731144 137.814505 
L 1194.641308 137.716559 
L 1194.611362 137.553316 
L 1194.671253 137.422722 
L 1194.671253 137.324777 
z
" clip-path="url(#p914d4e63c1)" style="fill: #bdc3c7; stroke: #ffffff; stroke-width: 0.5"/>
    <path d="M 1193.832782 91.208763 
L 1193.952563 91.241412 
L 1194.072345 91.225088 
L 1194.281963 91.061845 
L 1194.43169 91.127142 
L 1194.731144 91.127142 
L 1194.82098 91.176115 
L 1194.880871 91.323033 
L 1194.731144 91.420979 
L 1194.551471 91.469951 
L 1194.401744 91.469951 
L 1194.281963 91.420979 
L 1194.162181 91.38833 
L 1194.012454 91.372006 
L 1193.892673 91.404654 
L 1193.862727 91.257736 
z
" clip-path="url(#p914d4e63c1)" style="fill: #bdc3c7; stroke: #ffffff; stroke-width: 0.5"/>
    <path d="M 1198.953445 149.567966 
L 1198.953445 149.421048 
L 1198.953445 149.355751 
L 1199.073226 149.176184 
L 1199.103172 149.208833 
L 1199.133117 149.225157 
L 1199.163062 149.225157 
L 1199.193008 149.241481 
L 1199.222953 149.355751 
L 1199.252899 149.470021 
L 1199.252899 149.69856 
L 1199.312789 150.171964 
L 1199.193008 150.074018 
L 1199.073226 149.910776 
L 1199.013335 149.731209 
z
" clip-path="url(#p914d4e63c1)" style="fill: #bdc3c7; stroke: #ffffff; stroke-width: 0.5"/>
    <path d="M -1764.11365 155.575291 
L -1764.083705 155.395725 
L -1763.963923 155.216158 
L -1763.72436 155.199834 
L -1763.784251 155.297779 
L -1763.844142 155.314103 
L -1763.904032 155.314103 
L -1764.023814 155.330428 
L -1763.963923 155.477346 
L -1763.844142 155.60794 
L -1763.694415 155.689561 
L -1763.574633 155.656913 
L -1763.604578 155.852804 
L -1763.754305 155.836479 
L -1764.053759 155.656913 
z
" clip-path="url(#p914d4e63c1)" style="fill: #bdc3c7; stroke: #ffffff; stroke-width: 0.5"/>
    <path d="M 1217.789099 131.480695 
L 1217.908881 131.431722 
L 1217.968772 131.415398 
L 1217.998717 131.382749 
L 1217.998717 131.252155 
L 1218.028663 131.219506 
L 1218.118499 131.219506 
L 1218.208335 131.186858 
L 1218.298171 131.121561 
L 1218.358062 131.023615 
L 1218.358062 131.219506 
L 1218.298171 131.366425 
L 1218.208335 131.46437 
L 1218.058608 131.480695 
z
" clip-path="url(#p914d4e63c1)" style="fill: #bdc3c7; stroke: #ffffff; stroke-width: 0.5"/>
    <path d="M 1208.056845 141.683352 
L 1208.146682 141.813946 
L 1208.296409 142.05881 
L 1208.446136 142.17308 
L 1208.595863 142.222053 
L 1208.565917 142.28735 
L 1208.565917 142.319998 
L 1208.535972 142.352647 
L 1208.476081 142.28735 
L 1208.41619 142.319998 
L 1208.386245 142.319998 
L 1208.326354 142.254701 
L 1208.236518 142.238377 
L 1208.086791 141.862919 
z
" clip-path="url(#p914d4e63c1)" style="fill: #bdc3c7; stroke: #ffffff; stroke-width: 0.5"/>
    <path d="M -1766.149937 146.580628 
L -1766.00021 146.303116 
L -1765.700756 146.139873 
L -1765.491138 146.31944 
L -1765.371357 146.450034 
L -1765.341411 146.613277 
L -1765.371357 146.776519 
L -1765.461193 146.85814 
L -1765.760647 146.85814 
L -1765.850483 146.841816 
L -1765.910374 146.792843 
L -1765.940319 146.743871 
L -1766.00021 146.727546 
z
" clip-path="url(#p914d4e63c1)" style="fill: #bdc3c7; stroke: #ffffff; stroke-width: 0.5"/>
    <path d="M 1210.422532 140.687573 
L 1210.422532 140.589627 
L 1210.482423 140.540655 
L 1210.602204 140.622276 
L 1210.63215 140.720221 
L 1210.751931 141.014058 
L 1210.781877 141.160976 
L 1210.69204 141.160976 
L 1210.662095 141.046707 
L 1210.63215 140.948761 
L 1210.572259 140.883464 
L 1210.482423 140.818167 
z
" clip-path="url(#p914d4e63c1)" style="fill: #bdc3c7; stroke: #ffffff; stroke-width: 0.5"/>
    <path d="M 1206.769193 130.827724 
L 1207.008757 130.680806 
L 1207.068647 130.729779 
L 1207.158483 130.746103 
L 1207.218374 130.729779 
L 1207.278265 130.680806 
L 1207.218374 130.778752 
L 1207.158483 130.860373 
L 1207.038702 130.909346 
L 1206.888975 130.893021 
L 1206.829084 130.876697 
L 1206.799139 130.860373 
z
" clip-path="url(#p914d4e63c1)" style="fill: #bdc3c7; stroke: #ffffff; stroke-width: 0.5"/>
    <path d="M -1762.107309 143.642263 
L -1761.927636 143.381075 
L -1761.568291 143.348426 
L -1761.478455 143.397399 
L -1761.298783 143.527993 
L -1761.179001 143.674911 
L -1761.11911 143.838154 
L -1761.208947 144.017721 
L -1761.388619 144.115666 
L -1761.598237 144.115666 
L -1761.807855 144.083018 
L -1762.047418 143.952424 
z
" clip-path="url(#p914d4e63c1)" style="fill: #bdc3c7; stroke: #ffffff; stroke-width: 0.5"/>
    <path d="M -1766.868627 153.012384 
L -1766.77879 152.914438 
L -1766.659009 152.832817 
L -1766.569173 152.76752 
L -1766.449391 152.734871 
L -1766.479337 152.800168 
L -1766.509282 152.865465 
L -1766.569173 152.914438 
L -1766.599118 152.963411 
L -1766.659009 152.996059 
L -1766.748845 153.028708 
L -1766.808736 153.028708 
z
" clip-path="url(#p914d4e63c1)" style="fill: #bdc3c7; stroke: #ffffff; stroke-width: 0.5"/>
    <path d="M -1774.684375 154.089784 
L -1774.624485 153.812272 
L -1774.504703 153.404166 
L -1774.205249 153.436814 
L -1773.995631 153.714327 
L -1774.175304 154.008163 
L -1774.235194 153.681678 
L -1774.414867 153.64903 
L -1774.564594 153.795948 
L -1774.534648 153.975515 
L -1774.474758 154.171406 
L -1774.594539 154.204054 
z
" clip-path="url(#p914d4e63c1)" style="fill: #bdc3c7; stroke: #ffffff; stroke-width: 0.5"/>
    <path d="M 1204.433452 132.753986 
L 1204.493343 132.753986 
L 1204.553234 132.802959 
L 1204.673016 132.819283 
L 1204.882633 132.819283 
L 1204.852688 133.015174 
L 1204.912579 133.11312 
L 1204.882633 133.162093 
L 1204.673016 133.145768 
L 1204.523289 133.211065 
L 1204.463398 133.096796 
z
" clip-path="url(#p914d4e63c1)" style="fill: #bdc3c7; stroke: #ffffff; stroke-width: 0.5"/>
    <path d="M -1762.646326 155.852804 
L -1762.646326 155.820155 
L -1762.61638 155.771182 
L -1762.466653 155.428373 
L -1762.406763 155.3794 
L -1762.376817 155.558967 
L -1762.376817 155.754858 
L -1762.436708 155.803831 
L -1762.526544 155.803831 
L -1762.61638 155.869128 
z
" clip-path="url(#p914d4e63c1)" style="fill: #bdc3c7; stroke: #ffffff; stroke-width: 0.5"/>
    <path d="M -1765.22163 170.169173 
L -1765.191684 170.103876 
L -1765.161739 170.022255 
L -1765.161739 170.103876 
L -1765.131794 170.185497 
L -1765.071903 170.250794 
L -1765.012012 170.299767 
L -1765.041957 170.299767 
L -1765.101848 170.299767 
L -1765.161739 170.23447 
z
" clip-path="url(#p914d4e63c1)" style="fill: #bdc3c7; stroke: #ffffff; stroke-width: 0.5"/>
    <path d="M -1768.096388 144.148315 
L -1767.946661 144.017721 
L -1767.856825 144.050369 
L -1767.707098 144.148315 
L -1767.677152 144.376854 
L -1767.677152 144.507448 
L -1767.826879 144.556421 
L -1767.946661 144.491124 
L -1768.006552 144.376854 
z
" clip-path="url(#p914d4e63c1)" style="fill: #bdc3c7; stroke: #ffffff; stroke-width: 0.5"/>
    <path d="M -1775.76241 130.370645 
L 1218.747352 129.880918 
L 1218.747352 129.897242 
L 1218.627571 130.15843 
L 1218.627571 130.2727 
L 1218.627571 130.354321 
L 1218.657516 130.38697 
L 1218.687461 130.38697 
L 1218.747352 130.370645 
z
" clip-path="url(#p914d4e63c1)" style="fill: #bdc3c7; stroke: #ffffff; stroke-width: 0.5"/>
    <path d="M 1213.147563 128.362762 
L 1213.147563 128.297465 
L 1213.447017 128.297465 
L 1213.566798 128.330114 
L 1213.656635 128.362762 
L 1213.566798 128.428059 
L 1213.447017 128.444384 
L 1213.29729 128.428059 
z
" clip-path="url(#p914d4e63c1)" style="fill: #bdc3c7; stroke: #ffffff; stroke-width: 0.5"/>
    <path d="M 1173.73942 180.06167 
L 1173.769366 179.9474 
L 1173.949038 179.9474 
L 1174.038874 180.012697 
L 1174.098765 180.143291 
L 1174.06882 180.273885 
L 1173.949038 180.355507 
L 1173.799311 180.224913 
z
" clip-path="url(#p914d4e63c1)" style="fill: #bdc3c7; stroke: #ffffff; stroke-width: 0.5"/>
    <path d="M -1763.424906 150.759637 
L -1763.365015 150.645367 
L -1763.275179 150.596394 
L -1763.185343 150.678016 
L -1763.155397 150.775961 
L -1763.215288 150.857582 
L -1763.275179 150.922879 
L -1763.33507 150.906555 
z
" clip-path="url(#p914d4e63c1)" style="fill: #bdc3c7; stroke: #ffffff; stroke-width: 0.5"/>
    <path d="M -1767.198026 153.812272 
L -1767.198026 153.583733 
L -1767.10819 153.453139 
L -1766.988408 153.436814 
L -1766.868627 153.600057 
L -1766.868627 153.861245 
L -1766.988408 154.024487 
L -1767.138135 154.024487 
z
" clip-path="url(#p914d4e63c1)" style="fill: #bdc3c7; stroke: #ffffff; stroke-width: 0.5"/>
    <path d="M -1768.755187 137.439047 
L -1768.755187 137.25948 
L -1768.66535 137.210507 
L -1768.575514 137.243156 
L -1768.515624 137.37375 
L -1768.545569 137.488019 
L -1768.60546 137.553316 
L -1768.695296 137.536992 
z
" clip-path="url(#p914d4e63c1)" style="fill: #bdc3c7; stroke: #ffffff; stroke-width: 0.5"/>
    <path d="M -1768.904914 139.055148 
L -1768.815077 138.924554 
L -1768.66535 138.908229 
L -1768.575514 139.022499 
L -1768.545569 139.202066 
L -1768.575514 139.348984 
L -1768.755187 139.365309 
L -1768.874968 139.234715 
z
" clip-path="url(#p914d4e63c1)" style="fill: #bdc3c7; stroke: #ffffff; stroke-width: 0.5"/>
    <path d="M -1770.252457 142.140431 
L -1770.222511 141.960865 
L -1770.10273 141.813946 
L -1769.923057 141.797622 
L -1769.77333 141.960865 
L -1769.77333 142.156756 
L -1769.923057 142.28735 
L -1770.132675 142.254701 
z
" clip-path="url(#p914d4e63c1)" style="fill: #bdc3c7; stroke: #ffffff; stroke-width: 0.5"/>
    <path d="M -1775.76241 126.77931 
L -1775.76241 126.583419 
L -1775.672573 126.485473 
L -1775.552792 126.403852 
L -1775.253338 126.322231 
L -1775.343174 126.518122 
L -1775.43301 126.632392 
L -1775.582737 126.714013 
z
" clip-path="url(#p914d4e63c1)" style="fill: #bdc3c7; stroke: #ffffff; stroke-width: 0.5"/>
    <path d="M -1761.029274 162.219262 
L -1761.029274 162.153965 
L -1760.999329 162.088668 
L -1760.909493 162.023371 
L -1760.939438 162.088668 
L -1760.969383 162.153965 
L -1760.999329 162.268235 
z
" clip-path="url(#p914d4e63c1)" style="fill: #bdc3c7; stroke: #ffffff; stroke-width: 0.5"/>
   </g>
   <g id="PatchCollection_2">
    <path d="M 293.344746 444.906344 
L 293.404637 444.628832 
L 293.734037 444.563535 
L 294.003545 444.694129 
L 293.883764 444.334995 
L 293.883764 443.828943 
L 294.273054 443.845268 
L 294.632399 443.926889 
L 294.422781 443.633052 
L 294.183218 443.35554 
L 293.9736 443.094352 
L 293.763982 442.865812 
L 293.704091 442.686246 
L 293.913709 442.604624 
L 294.243108 442.441382 
L 294.572508 442.457706 
L 294.602453 442.245491 
L 294.632399 442.0496 
L 294.871962 441.902682 
L 294.901907 441.625169 
L 294.782126 441.494575 
L 294.931853 441.249711 
L 295.081579 440.988523 
L 295.560706 440.825281 
L 296.069778 440.874254 
L 295.949996 440.988523 
L 296.129668 441.200739 
L 296.069778 441.39663 
L 296.399177 441.527224 
L 295.291197 442.229167 
L 294.662344 443.143325 
L 294.812071 443.045379 
L 294.931853 442.947434 
L 295.111525 442.898461 
L 295.321143 442.980082 
L 295.231306 442.653597 
L 295.500815 442.555652 
L 295.620597 442.784191 
L 296.069778 442.147545 
L 296.698631 441.788412 
L 296.878303 441.82106 
L 296.998085 441.967979 
L 296.728576 442.16387 
L 296.339286 442.310788 
L 296.578849 442.539327 
L 296.818413 442.310788 
L 296.788467 442.686246 
L 296.518959 443.012731 
L 296.099723 443.257595 
L 295.890105 443.649377 
L 296.129668 443.502458 
L 296.369232 443.388189 
L 296.129668 443.910565 
L 295.620597 444.269698 
L 295.500815 444.628832 
L 295.440924 445.036938 
L 295.740378 445.134884 
L 296.009887 445.232829 
L 295.920051 444.54721 
L 296.309341 444.106456 
L 296.63874 444.253374 
L 296.848358 444.596183 
L 296.878303 444.938993 
L 296.938194 445.232829 
L 297.237648 445.347099 
L 297.477211 445.232829 
L 298.375573 444.955317 
L 299.094263 444.302347 
L 299.184099 444.465589 
L 299.24399 444.645156 
L 299.184099 444.841047 
L 299.094263 444.938993 
L 299.214044 445.036938 
L 299.363771 444.955317 
L 299.783007 444.12278 
L 300.351969 443.714674 
L 300.351969 443.975862 
L 300.41186 444.220725 
L 300.561587 444.302347 
L 300.292079 444.449265 
L 300.172297 444.645156 
L 300.591533 444.628832 
L 300.920932 444.77575 
L 300.651423 444.906344 
L 300.292079 445.036938 
L 300.80115 445.134884 
L 300.80115 445.379747 
L 300.322024 445.461369 
L 299.842898 445.510341 
L 299.663225 445.42872 
L 299.483553 445.363423 
L 298.764863 445.265478 
L 298.255792 445.624611 
L 298.046174 445.787854 
L 297.776665 445.951096 
L 297.896447 446.049042 
L 298.13601 445.951096 
L 298.375573 445.820502 
L 298.944536 445.494017 
L 299.363771 445.640935 
L 299.004427 445.804178 
L 298.615136 445.934772 
L 299.154153 446.065366 
L 299.094263 446.244933 
L 299.363771 446.293905 
L 299.573389 446.489797 
L 299.872843 446.489797 
L 299.872843 446.522445 
L 299.872843 446.555094 
L 299.363771 446.620391 
L 298.8547 446.832606 
L 299.573389 446.783633 
L 300.262133 446.73466 
L 300.890987 446.620391 
L 301.489894 446.555094 
L 300.950877 446.914227 
L 300.292079 447.093794 
L 300.831096 447.159091 
L 301.370113 447.142767 
L 301.699512 446.881579 
L 301.998966 446.620391 
L 302.028912 446.799957 
L 302.118748 446.9632 
L 302.328366 446.669363 
L 302.597874 446.489797 
L 302.567929 446.326554 
L 302.537983 446.19596 
L 302.717656 446.146987 
L 302.897328 446.163311 
L 302.897328 445.983745 
L 303.077001 445.918448 
L 303.256673 445.853151 
L 303.376454 445.706232 
L 303.705854 445.591963 
L 304.035253 445.477693 
L 304.51438 445.347099 
L 305.023451 445.510341 
L 304.993506 445.608287 
L 304.933615 445.706232 
L 305.382796 445.689908 
L 305.712195 445.445044 
L 306.041595 444.906344 
L 306.550667 444.694129 
L 307.149575 444.710453 
L 307.718537 444.873696 
L 308.107827 445.102235 
L 308.167718 445.575638 
L 308.317445 445.934772 
L 308.497117 446.293905 
L 308.377336 446.750985 
L 308.107827 447.142767 
L 307.628701 447.61617 
L 307.029793 447.534549 
L 306.760284 447.436603 
L 306.550667 447.567197 
L 306.520721 447.73044 
L 306.341049 447.828385 
L 307.029793 448.073249 
L 307.628701 448.416058 
L 306.880066 448.334437 
L 306.161376 448.416058 
L 305.772086 447.648818 
L 304.933615 447.436603 
L 304.604216 447.534549 
L 304.274816 447.632494 
L 303.885526 447.648818 
L 303.496236 447.583521 
L 302.897328 447.469252 
L 302.268475 447.550873 
L 302.717656 447.714115 
L 303.136891 447.958979 
L 303.047055 447.991628 
L 302.927274 448.040601 
L 303.106946 448.203843 
L 303.316564 448.350761 
L 303.106946 448.416058 
L 302.927274 448.448707 
L 302.657765 448.252816 
L 302.418202 448.007952 
L 302.208584 447.958979 
L 302.058857 448.073249 
L 302.058857 448.236492 
L 302.208584 448.546652 
L 301.729458 448.252816 
L 301.19044 448.073249 
L 301.370113 448.301789 
L 301.639621 448.448707 
L 301.819294 448.579301 
L 301.879185 448.726219 
L 301.998966 448.791516 
L 302.118748 448.889462 
L 302.148693 449.118001 
L 302.208584 449.313892 
L 302.867383 449.591405 
L 303.586072 449.68935 
L 304.244871 449.91789 
L 304.90367 450.146429 
L 304.304762 449.705674 
L 304.155035 449.199622 
L 304.51438 449.101677 
L 304.90367 449.052704 
L 305.263014 449.134325 
L 305.592414 449.248595 
L 306.221267 449.297568 
L 306.46083 449.721999 
L 305.891868 450.113781 
L 305.143233 450.146429 
L 305.652305 450.260699 
L 306.041595 450.489238 
L 305.802032 450.799399 
L 305.352851 450.783075 
L 305.023451 450.864696 
L 304.783888 451.060587 
L 304.334707 451.076911 
L 303.855581 450.929993 
L 303.166837 450.946317 
L 302.567929 450.734102 
L 302.268475 450.358644 
L 301.998966 449.999511 
L 301.939075 449.591405 
L 301.90913 449.199622 
L 301.579731 448.987407 
L 301.19044 449.020056 
L 301.310222 449.15065 
L 301.310222 449.346541 
L 301.040714 449.118001 
L 300.74126 449.052704 
L 301.040714 449.428162 
L 301.400058 449.787296 
L 301.370113 450.325996 
L 300.950877 450.603508 
L 300.651423 450.521887 
L 300.351969 450.391293 
L 299.842898 450.358644 
L 299.333826 450.277023 
L 298.91459 449.983187 
L 298.555246 449.640377 
L 298.13601 449.607729 
L 297.776665 449.607729 
L 297.596993 449.215947 
L 297.327484 448.889462 
L 297.147812 448.971083 
L 297.207703 449.166974 
L 297.147812 449.183298 
L 297.087921 449.215947 
L 297.267593 449.444486 
L 297.35743 449.705674 
L 296.96814 449.542432 
L 296.63874 449.134325 
L 296.728576 449.411838 
L 296.818413 449.673026 
L 296.908249 449.819944 
L 296.728576 449.950538 
L 296.698631 450.195402 
L 296.399177 449.999511 
L 296.309341 449.591405 
L 296.159614 449.395513 
L 296.039832 449.787296 
L 296.309341 450.391293 
L 295.979941 450.848372 
L 295.650542 451.027939 
L 295.291197 451.142209 
L 295.201361 451.10956 
L 295.14147 451.060587 
L 294.991743 451.076911 
L 294.842016 451.093236 
L 294.452726 451.093236 
L 294.033491 451.10956 
L 293.704091 451.027939 
L 293.494473 450.701454 
L 293.494473 450.45659 
L 293.58431 450.260699 
L 293.58431 449.901565 
L 293.763982 449.624053 
L 293.9736 449.346541 
L 294.123327 449.085353 
L 293.9736 448.856813 
L 294.332945 448.644598 
L 294.632399 448.334437 
L 294.392835 448.007952 
L 294.36289 447.73044 
L 294.153272 447.681467 
L 293.823873 447.697791 
L 294.243108 447.338658 
L 294.812071 447.289685 
L 294.782126 447.126442 
L 294.812071 446.9632 
L 294.542562 447.028497 
L 294.063436 447.110118 
L 293.913709 446.897903 
L 294.033491 446.84893 
L 294.183218 446.832606 
L 293.704091 446.571418 
L 293.554364 446.163311 
L 293.494473 446.000069 
L 293.524419 445.869475 
L 293.674146 446.000069 
L 293.853818 446.163311 
L 294.243108 445.853151 
L 294.871962 445.575638 
L 294.243108 445.608287 
L 293.793927 445.445044 
L 293.9736 445.31445 
L 294.183218 445.232829 
L 293.853818 445.232829 
L 293.554364 445.232829 
L 293.58431 445.102235 
L 293.614255 444.971641 
z
" clip-path="url(#p914d4e63c1)" style="fill: #e74c3c; stroke: #ffffff; stroke-width: 0.6"/>
    <path d="M 297.02803 444.041159 
L 297.087921 443.926889 
L 297.177757 443.861592 
L 297.267593 443.812619 
L 297.35743 443.747322 
L 297.626938 443.420837 
L 297.806611 443.257595 
L 298.046174 443.127 
L 298.285737 443.045379 
L 298.5253 443.045379 
L 298.435464 443.257595 
L 298.165955 443.437161 
L 298.076119 443.58408 
L 298.734918 443.46981 
L 298.8547 443.486134 
L 298.824754 443.616728 
L 298.734918 443.763646 
L 298.615136 443.89424 
L 298.5253 443.975862 
L 298.225846 444.155428 
L 298.106065 444.269698 
L 298.13601 444.416616 
L 298.225846 444.596183 
L 298.106065 444.694129 
L 297.926392 444.759426 
L 298.016228 444.841047 
L 297.297539 445.085911 
L 297.147812 445.00429 
L 297.147812 444.514562 
L 297.117866 444.383968 
L 297.057976 444.106456 
z
" clip-path="url(#p914d4e63c1)" style="fill: #e74c3c; stroke: #ffffff; stroke-width: 0.6"/>
    <path d="M 296.578849 443.89424 
L 296.608795 443.861592 
L 296.698631 443.518783 
L 296.788467 443.257595 
L 296.938194 443.012731 
L 297.117866 442.833164 
L 297.327484 442.784191 
L 297.35743 442.996406 
L 297.447266 442.980082 
L 297.507157 443.012731 
L 297.477211 443.110676 
L 297.41732 443.143325 
L 297.327484 443.192298 
L 297.267593 443.24127 
L 297.177757 443.388189 
L 297.057976 443.665701 
L 296.908249 443.877916 
L 296.818413 443.959537 
L 296.728576 444.00851 
L 296.63874 443.975862 
z
" clip-path="url(#p914d4e63c1)" style="fill: #e74c3c; stroke: #ffffff; stroke-width: 0.6"/>
    <path d="M 151.164001 418.820188 
L 151.253837 418.67327 
L 151.8228 418.330461 
L 152.032418 418.346785 
L 152.182145 418.477379 
L 152.242035 418.705919 
L 152.301926 418.771216 
L 152.451653 418.78754 
L 152.661271 418.803864 
L 152.751107 418.869161 
L 152.810998 418.934458 
L 152.93078 419.130349 
L 152.571435 419.522131 
L 152.271981 419.473159 
L 152.152199 419.473159 
L 152.032418 419.522131 
L 151.762909 419.489483 
L 151.583237 419.391537 
L 151.43351 419.244619 
L 151.283783 419.065052 
z
" clip-path="url(#p914d4e63c1)" style="fill: #e74c3c; stroke: #ffffff; stroke-width: 0.6"/>
    <path d="M 56.955782 186.346507 
L 57.015673 186.248562 
L 57.105509 186.215913 
L 57.195345 186.199589 
L 57.255236 186.232238 
L 57.255236 186.330183 
L 57.225291 186.379156 
L 57.195345 186.428129 
L 57.1654 186.477101 
L 57.225291 186.542398 
L 57.315127 186.526074 
L 57.404963 186.428129 
L 57.375018 186.28121 
L 57.375018 186.199589 
L 57.434908 186.215913 
L 57.434908 186.428129 
L 57.285181 186.656668 
L 57.105509 186.672992 
L 57.045618 186.62402 
L 56.985727 186.50975 
z
" clip-path="url(#p914d4e63c1)" style="fill: #e74c3c; stroke: #ffffff; stroke-width: 0.6"/>
    <path d="M 302.388256 449.085353 
L 302.388256 449.020056 
L 302.747601 448.92211 
L 303.106946 448.971083 
L 303.526181 449.346541 
L 303.79569 449.493459 
L 303.885526 449.624053 
L 303.825635 449.738323 
L 303.705854 449.721999 
L 303.316564 449.411838 
L 303.166837 449.395513 
L 303.077001 449.346541 
L 302.987164 449.281244 
L 302.867383 449.215947 
L 302.717656 449.183298 
L 302.478093 449.134325 
z
" clip-path="url(#p914d4e63c1)" style="fill: #e74c3c; stroke: #ffffff; stroke-width: 0.6"/>
    <path d="M 292.47633 447.485576 
L 292.626057 447.289685 
L 292.715893 447.224388 
L 292.86562 447.224388 
L 293.015347 447.240712 
L 293.284856 447.354982 
L 293.434583 447.354982 
L 293.704091 447.306009 
L 293.763982 447.338658 
L 293.734037 447.485576 
L 293.674146 447.61617 
L 293.554364 447.681467 
L 293.434583 447.681467 
L 293.284856 447.61617 
L 292.86562 447.61617 
L 292.656002 447.583521 
z
" clip-path="url(#p914d4e63c1)" style="fill: #e74c3c; stroke: #ffffff; stroke-width: 0.6"/>
    <path d="M 138.856443 415.800202 
L 138.976225 415.71858 
L 139.635023 415.587986 
L 139.724859 415.734905 
L 139.844641 415.898147 
L 139.874586 416.094038 
L 139.814696 416.289929 
L 139.694914 416.387875 
L 139.575132 416.387875 
L 139.245733 416.289929 
L 139.066061 416.257281 
L 138.946279 416.159335 
L 138.886388 415.996093 
z
" clip-path="url(#p914d4e63c1)" style="fill: #e74c3c; stroke: #ffffff; stroke-width: 0.6"/>
    <path d="M 366.201898 344.724406 
L 366.231843 344.642785 
L 366.291734 344.610136 
L 366.38157 344.642785 
L 366.411515 344.675433 
L 366.531297 344.822351 
L 366.561242 344.887648 
L 366.501352 344.952945 
L 366.441461 344.96927 
L 366.291734 344.936621 
L 366.261788 344.887648 
z
" clip-path="url(#p914d4e63c1)" style="fill: #e74c3c; stroke: #ffffff; stroke-width: 0.6"/>
    <path d="M 299.872843 446.032717 
L 300.771205 445.65726 
L 301.070659 445.640935 
L 301.070659 445.706232 
L 300.890987 445.804178 
L 300.771205 446.016393 
L 300.621478 446.179636 
L 300.351969 446.098014 
L 300.232188 446.146987 
L 300.112406 446.163311 
L 299.992625 446.130663 
z
" clip-path="url(#p914d4e63c1)" style="fill: #e74c3c; stroke: #ffffff; stroke-width: 0.6"/>
    <path d="M 298.794809 442.523003 
L 299.094263 442.523003 
L 299.483553 442.767867 
L 299.753061 442.784191 
L 299.693171 442.914785 
L 299.603334 442.996406 
L 299.453607 443.029055 
L 299.30388 443.045379 
L 299.154153 442.980082 
L 299.004427 442.865812 
L 298.884645 442.70257 
z
" clip-path="url(#p914d4e63c1)" style="fill: #e74c3c; stroke: #ffffff; stroke-width: 0.6"/>
    <path d="M 366.052171 336.399037 
L 366.171952 336.121525 
L 366.501352 336.088876 
L 366.77086 336.317416 
L 366.860696 336.611252 
L 366.681024 336.790819 
L 366.441461 336.87244 
L 366.171952 336.692874 
z
" clip-path="url(#p914d4e63c1)" style="fill: #e74c3c; stroke: #ffffff; stroke-width: 0.6"/>
    <path d="M 293.614255 440.351878 
L 293.614255 440.155987 
L 293.734037 440.009068 
L 293.943654 439.97642 
L 294.033491 440.09069 
L 294.003545 440.237608 
L 293.853818 440.335553 
L 293.704091 440.449823 
z
" clip-path="url(#p914d4e63c1)" style="fill: #e74c3c; stroke: #ffffff; stroke-width: 0.6"/>
    <path d="M 292.206821 440.662038 
L 292.326603 440.596741 
L 292.536221 440.531444 
L 292.715893 440.531444 
L 292.805729 440.662038 
L 292.685948 440.74366 
L 292.47633 440.776308 
L 292.296658 440.727335 
z
" clip-path="url(#p914d4e63c1)" style="fill: #e74c3c; stroke: #ffffff; stroke-width: 0.6"/>
    <path d="M 76.869471 135.431164 
L 76.989253 135.365867 
L 77.168925 135.398515 
L 77.109034 135.545433 
z
" clip-path="url(#p914d4e63c1)" style="fill: #e74c3c; stroke: #ffffff; stroke-width: 0.6"/>
    <path d="M 174.940646 124.069484 
L 175.000537 124.036835 
L 175.000537 124.118457 
z
" clip-path="url(#p914d4e63c1)" style="fill: #e74c3c; stroke: #ffffff; stroke-width: 0.6"/>
    <path d="M 114.840235 82.279397 
L 114.930071 82.132479 
L 114.989961 82.312046 
z
" clip-path="url(#p914d4e63c1)" style="fill: #e74c3c; stroke: #ffffff; stroke-width: 0.6"/>
    <path d="M 51.954901 177.776275 
L 51.954901 177.759951 
L 51.984846 177.776275 
z
" clip-path="url(#p914d4e63c1)" style="fill: #e74c3c; stroke: #ffffff; stroke-width: 0.6"/>
   </g>
   <g id="text_1">
    <g id="patch_2">
     <path d="M 385.492189 138.584742 
L 397.473126 138.584742 
Q 398.873126 138.584742 398.873126 137.184742 
L 398.873126 130.184195 
Q 398.873126 128.784195 397.473126 128.784195 
L 385.492189 128.784195 
Q 384.092189 128.784195 384.092189 130.184195 
L 384.092189 137.184742 
Q 384.092189 138.584742 385.492189 138.584742 
z
" clip-path="url(#p914d4e63c1)" style="fill: #ffffff; opacity: 0.6"/>
    </g>
    <g clip-path="url(#p914d4e63c1)">
     <!-- Fiji -->
     <g style="fill: #1a252f" transform="translate(385.492189 135.503101) scale(0.07 -0.07)">
      <defs>
       <path id="DejaVuSans-Bold-29" d="M 588 4666 
L 3834 4666 
L 3834 3756 
L 1791 3756 
L 1791 2888 
L 3713 2888 
L 3713 1978 
L 1791 1978 
L 1791 0 
L 588 0 
L 588 4666 
z
" transform="scale(0.015625)"/>
       <path id="DejaVuSans-Bold-4c" d="M 538 3500 
L 1656 3500 
L 1656 0 
L 538 0 
L 538 3500 
z
M 538 4863 
L 1656 4863 
L 1656 3950 
L 538 3950 
L 538 4863 
z
" transform="scale(0.015625)"/>
       <path id="DejaVuSans-Bold-4d" d="M 538 3500 
L 1656 3500 
L 1656 63 
Q 1656 -641 1318 -1011 
Q 981 -1381 341 -1381 
L -213 -1381 
L -213 -647 
L -19 -647 
Q 300 -647 419 -503 
Q 538 -359 538 63 
L 538 3500 
z
M 538 4863 
L 1656 4863 
L 1656 3950 
L 538 3950 
L 538 4863 
z
" transform="scale(0.015625)"/>
      </defs>
      <use xlink:href="#DejaVuSans-Bold-29"/>
      <use xlink:href="#DejaVuSans-Bold-4c" transform="translate(68.3125 0)"/>
      <use xlink:href="#DejaVuSans-Bold-4d" transform="translate(102.59375 0)"/>
      <use xlink:href="#DejaVuSans-Bold-4c" transform="translate(136.875 0)"/>
     </g>
    </g>
   </g>
   <g id="text_2">
    <!-- Fr. S. Antarctic Lands -->
    <g style="fill: #1a252f" transform="translate(107.688033 20.117344) scale(0.17 -0.17)">
     <defs>
      <path id="DejaVuSans-Bold-55" d="M 3138 2547 
Q 2991 2616 2845 2648 
Q 2700 2681 2553 2681 
Q 2122 2681 1889 2404 
Q 1656 2128 1656 1613 
L 1656 0 
L 538 0 
L 538 3500 
L 1656 3500 
L 1656 2925 
Q 1872 3269 2151 3426 
Q 2431 3584 2822 3584 
Q 2878 3584 2943 3579 
Q 3009 3575 3134 3559 
L 3138 2547 
z
" transform="scale(0.015625)"/>
      <path id="DejaVuSans-Bold-11" d="M 653 1209 
L 1778 1209 
L 1778 0 
L 653 0 
L 653 1209 
z
" transform="scale(0.015625)"/>
      <path id="DejaVuSans-Bold-3" transform="scale(0.015625)"/>
      <path id="DejaVuSans-Bold-36" d="M 3834 4519 
L 3834 3531 
Q 3450 3703 3084 3790 
Q 2719 3878 2394 3878 
Q 1963 3878 1756 3759 
Q 1550 3641 1550 3391 
Q 1550 3203 1689 3098 
Q 1828 2994 2194 2919 
L 2706 2816 
Q 3484 2659 3812 2340 
Q 4141 2022 4141 1434 
Q 4141 663 3683 286 
Q 3225 -91 2284 -91 
Q 1841 -91 1394 -6 
Q 947 78 500 244 
L 500 1259 
Q 947 1022 1364 901 
Q 1781 781 2169 781 
Q 2563 781 2772 912 
Q 2981 1044 2981 1288 
Q 2981 1506 2839 1625 
Q 2697 1744 2272 1838 
L 1806 1941 
Q 1106 2091 782 2419 
Q 459 2747 459 3303 
Q 459 4000 909 4375 
Q 1359 4750 2203 4750 
Q 2588 4750 2994 4692 
Q 3400 4634 3834 4519 
z
" transform="scale(0.015625)"/>
      <path id="DejaVuSans-Bold-24" d="M 3419 850 
L 1538 850 
L 1241 0 
L 31 0 
L 1759 4666 
L 3194 4666 
L 4922 0 
L 3713 0 
L 3419 850 
z
M 1838 1716 
L 3116 1716 
L 2478 3572 
L 1838 1716 
z
" transform="scale(0.015625)"/>
      <path id="DejaVuSans-Bold-51" d="M 4056 2131 
L 4056 0 
L 2931 0 
L 2931 347 
L 2931 1631 
Q 2931 2084 2911 2256 
Q 2891 2428 2841 2509 
Q 2775 2619 2662 2680 
Q 2550 2741 2406 2741 
Q 2056 2741 1856 2470 
Q 1656 2200 1656 1722 
L 1656 0 
L 538 0 
L 538 3500 
L 1656 3500 
L 1656 2988 
Q 1909 3294 2193 3439 
Q 2478 3584 2822 3584 
Q 3428 3584 3742 3212 
Q 4056 2841 4056 2131 
z
" transform="scale(0.015625)"/>
      <path id="DejaVuSans-Bold-57" d="M 1759 4494 
L 1759 3500 
L 2913 3500 
L 2913 2700 
L 1759 2700 
L 1759 1216 
Q 1759 972 1856 886 
Q 1953 800 2241 800 
L 2816 800 
L 2816 0 
L 1856 0 
Q 1194 0 917 276 
Q 641 553 641 1216 
L 641 2700 
L 84 2700 
L 84 3500 
L 641 3500 
L 641 4494 
L 1759 4494 
z
" transform="scale(0.015625)"/>
      <path id="DejaVuSans-Bold-44" d="M 2106 1575 
Q 1756 1575 1579 1456 
Q 1403 1338 1403 1106 
Q 1403 894 1545 773 
Q 1688 653 1941 653 
Q 2256 653 2472 879 
Q 2688 1106 2688 1447 
L 2688 1575 
L 2106 1575 
z
M 3816 1997 
L 3816 0 
L 2688 0 
L 2688 519 
Q 2463 200 2181 54 
Q 1900 -91 1497 -91 
Q 953 -91 614 226 
Q 275 544 275 1050 
Q 275 1666 698 1953 
Q 1122 2241 2028 2241 
L 2688 2241 
L 2688 2328 
Q 2688 2594 2478 2717 
Q 2269 2841 1825 2841 
Q 1466 2841 1156 2769 
Q 847 2697 581 2553 
L 581 3406 
Q 941 3494 1303 3539 
Q 1666 3584 2028 3584 
Q 2975 3584 3395 3211 
Q 3816 2838 3816 1997 
z
" transform="scale(0.015625)"/>
      <path id="DejaVuSans-Bold-46" d="M 3366 3391 
L 3366 2478 
Q 3138 2634 2908 2709 
Q 2678 2784 2431 2784 
Q 1963 2784 1702 2511 
Q 1441 2238 1441 1747 
Q 1441 1256 1702 982 
Q 1963 709 2431 709 
Q 2694 709 2930 787 
Q 3166 866 3366 1019 
L 3366 103 
Q 3103 6 2833 -42 
Q 2563 -91 2291 -91 
Q 1344 -91 809 395 
Q 275 881 275 1747 
Q 275 2613 809 3098 
Q 1344 3584 2291 3584 
Q 2566 3584 2833 3536 
Q 3100 3488 3366 3391 
z
" transform="scale(0.015625)"/>
      <path id="DejaVuSans-Bold-2f" d="M 588 4666 
L 1791 4666 
L 1791 909 
L 3903 909 
L 3903 0 
L 588 0 
L 588 4666 
z
" transform="scale(0.015625)"/>
      <path id="DejaVuSans-Bold-47" d="M 2919 2988 
L 2919 4863 
L 4044 4863 
L 4044 0 
L 2919 0 
L 2919 506 
Q 2688 197 2409 53 
Q 2131 -91 1766 -91 
Q 1119 -91 703 423 
Q 288 938 288 1747 
Q 288 2556 703 3070 
Q 1119 3584 1766 3584 
Q 2128 3584 2408 3439 
Q 2688 3294 2919 2988 
z
M 2181 722 
Q 2541 722 2730 984 
Q 2919 1247 2919 1747 
Q 2919 2247 2730 2509 
Q 2541 2772 2181 2772 
Q 1825 2772 1636 2509 
Q 1447 2247 1447 1747 
Q 1447 1247 1636 984 
Q 1825 722 2181 722 
z
" transform="scale(0.015625)"/>
      <path id="DejaVuSans-Bold-56" d="M 3272 3391 
L 3272 2541 
Q 2913 2691 2578 2766 
Q 2244 2841 1947 2841 
Q 1628 2841 1473 2761 
Q 1319 2681 1319 2516 
Q 1319 2381 1436 2309 
Q 1553 2238 1856 2203 
L 2053 2175 
Q 2913 2066 3209 1816 
Q 3506 1566 3506 1031 
Q 3506 472 3093 190 
Q 2681 -91 1863 -91 
Q 1516 -91 1145 -36 
Q 775 19 384 128 
L 384 978 
Q 719 816 1070 734 
Q 1422 653 1784 653 
Q 2113 653 2278 743 
Q 2444 834 2444 1013 
Q 2444 1163 2330 1236 
Q 2216 1309 1875 1350 
L 1678 1375 
Q 931 1469 631 1722 
Q 331 1975 331 2491 
Q 331 3047 712 3315 
Q 1094 3584 1881 3584 
Q 2191 3584 2531 3537 
Q 2872 3491 3272 3391 
z
" transform="scale(0.015625)"/>
     </defs>
     <use xlink:href="#DejaVuSans-Bold-29"/>
     <use xlink:href="#DejaVuSans-Bold-55" transform="translate(61.921875 0)"/>
     <use xlink:href="#DejaVuSans-Bold-11" transform="translate(96.984375 0)"/>
     <use xlink:href="#DejaVuSans-Bold-3" transform="translate(134.96875 0)"/>
     <use xlink:href="#DejaVuSans-Bold-36" transform="translate(169.78125 0)"/>
     <use xlink:href="#DejaVuSans-Bold-11" transform="translate(241.796875 0)"/>
     <use xlink:href="#DejaVuSans-Bold-3" transform="translate(279.78125 0)"/>
     <use xlink:href="#DejaVuSans-Bold-24" transform="translate(314.59375 0)"/>
     <use xlink:href="#DejaVuSans-Bold-51" transform="translate(391.984375 0)"/>
     <use xlink:href="#DejaVuSans-Bold-57" transform="translate(463.171875 0)"/>
     <use xlink:href="#DejaVuSans-Bold-44" transform="translate(510.96875 0)"/>
     <use xlink:href="#DejaVuSans-Bold-55" transform="translate(578.453125 0)"/>
     <use xlink:href="#DejaVuSans-Bold-46" transform="translate(627.765625 0)"/>
     <use xlink:href="#DejaVuSans-Bold-57" transform="translate(687.046875 0)"/>
     <use xlink:href="#DejaVuSans-Bold-4c" transform="translate(734.84375 0)"/>
     <use xlink:href="#DejaVuSans-Bold-46" transform="translate(769.125 0)"/>
     <use xlink:href="#DejaVuSans-Bold-3" transform="translate(828.40625 0)"/>
     <use xlink:href="#DejaVuSans-Bold-2f" transform="translate(863.21875 0)"/>
     <use xlink:href="#DejaVuSans-Bold-44" transform="translate(926.9375 0)"/>
     <use xlink:href="#DejaVuSans-Bold-51" transform="translate(994.421875 0)"/>
     <use xlink:href="#DejaVuSans-Bold-47" transform="translate(1065.609375 0)"/>
     <use xlink:href="#DejaVuSans-Bold-56" transform="translate(1137.1875 0)"/>
    </g>
   </g>
   <g id="legend_1">
    <g id="patch_3">
     <path d="M 13.5 498.657344 
L 136.677656 498.657344 
Q 138.477656 498.657344 138.477656 496.857344 
L 138.477656 470.755937 
Q 138.477656 468.955937 136.677656 468.955937 
L 13.5 468.955937 
Q 11.7 468.955937 11.7 470.755937 
L 11.7 496.857344 
Q 11.7 498.657344 13.5 498.657344 
z
" style="fill: #ffffff; opacity: 0.85; stroke: #cccccc; stroke-linejoin: miter"/>
    </g>
    <g id="patch_4">
     <path d="M 15.3 479.394531 
L 33.3 479.394531 
L 33.3 473.094531 
L 15.3 473.094531 
z
" style="fill: #e74c3c; stroke: #888888; stroke-linejoin: miter"/>
    </g>
    <g id="text_3">
     <!-- Fr. S. Antarctic Lands -->
     <g transform="translate(40.5 479.394531) scale(0.09 -0.09)">
      <defs>
       <path id="DejaVuSans-29" d="M 628 4666 
L 3309 4666 
L 3309 4134 
L 1259 4134 
L 1259 2759 
L 3109 2759 
L 3109 2228 
L 1259 2228 
L 1259 0 
L 628 0 
L 628 4666 
z
" transform="scale(0.015625)"/>
       <path id="DejaVuSans-55" d="M 2631 2963 
Q 2534 3019 2420 3045 
Q 2306 3072 2169 3072 
Q 1681 3072 1420 2755 
Q 1159 2438 1159 1844 
L 1159 0 
L 581 0 
L 581 3500 
L 1159 3500 
L 1159 2956 
Q 1341 3275 1631 3429 
Q 1922 3584 2338 3584 
Q 2397 3584 2469 3576 
Q 2541 3569 2628 3553 
L 2631 2963 
z
" transform="scale(0.015625)"/>
       <path id="DejaVuSans-11" d="M 684 794 
L 1344 794 
L 1344 0 
L 684 0 
L 684 794 
z
" transform="scale(0.015625)"/>
       <path id="DejaVuSans-3" transform="scale(0.015625)"/>
       <path id="DejaVuSans-36" d="M 3425 4513 
L 3425 3897 
Q 3066 4069 2747 4153 
Q 2428 4238 2131 4238 
Q 1616 4238 1336 4038 
Q 1056 3838 1056 3469 
Q 1056 3159 1242 3001 
Q 1428 2844 1947 2747 
L 2328 2669 
Q 3034 2534 3370 2195 
Q 3706 1856 3706 1288 
Q 3706 609 3251 259 
Q 2797 -91 1919 -91 
Q 1588 -91 1214 -16 
Q 841 59 441 206 
L 441 856 
Q 825 641 1194 531 
Q 1563 422 1919 422 
Q 2459 422 2753 634 
Q 3047 847 3047 1241 
Q 3047 1584 2836 1778 
Q 2625 1972 2144 2069 
L 1759 2144 
Q 1053 2284 737 2584 
Q 422 2884 422 3419 
Q 422 4038 858 4394 
Q 1294 4750 2059 4750 
Q 2388 4750 2728 4690 
Q 3069 4631 3425 4513 
z
" transform="scale(0.015625)"/>
       <path id="DejaVuSans-24" d="M 2188 4044 
L 1331 1722 
L 3047 1722 
L 2188 4044 
z
M 1831 4666 
L 2547 4666 
L 4325 0 
L 3669 0 
L 3244 1197 
L 1141 1197 
L 716 0 
L 50 0 
L 1831 4666 
z
" transform="scale(0.015625)"/>
       <path id="DejaVuSans-51" d="M 3513 2113 
L 3513 0 
L 2938 0 
L 2938 2094 
Q 2938 2591 2744 2837 
Q 2550 3084 2163 3084 
Q 1697 3084 1428 2787 
Q 1159 2491 1159 1978 
L 1159 0 
L 581 0 
L 581 3500 
L 1159 3500 
L 1159 2956 
Q 1366 3272 1645 3428 
Q 1925 3584 2291 3584 
Q 2894 3584 3203 3211 
Q 3513 2838 3513 2113 
z
" transform="scale(0.015625)"/>
       <path id="DejaVuSans-57" d="M 1172 4494 
L 1172 3500 
L 2356 3500 
L 2356 3053 
L 1172 3053 
L 1172 1153 
Q 1172 725 1289 603 
Q 1406 481 1766 481 
L 2356 481 
L 2356 0 
L 1766 0 
Q 1100 0 847 248 
Q 594 497 594 1153 
L 594 3053 
L 172 3053 
L 172 3500 
L 594 3500 
L 594 4494 
L 1172 4494 
z
" transform="scale(0.015625)"/>
       <path id="DejaVuSans-44" d="M 2194 1759 
Q 1497 1759 1228 1600 
Q 959 1441 959 1056 
Q 959 750 1161 570 
Q 1363 391 1709 391 
Q 2188 391 2477 730 
Q 2766 1069 2766 1631 
L 2766 1759 
L 2194 1759 
z
M 3341 1997 
L 3341 0 
L 2766 0 
L 2766 531 
Q 2569 213 2275 61 
Q 1981 -91 1556 -91 
Q 1019 -91 701 211 
Q 384 513 384 1019 
Q 384 1609 779 1909 
Q 1175 2209 1959 2209 
L 2766 2209 
L 2766 2266 
Q 2766 2663 2505 2880 
Q 2244 3097 1772 3097 
Q 1472 3097 1187 3025 
Q 903 2953 641 2809 
L 641 3341 
Q 956 3463 1253 3523 
Q 1550 3584 1831 3584 
Q 2591 3584 2966 3190 
Q 3341 2797 3341 1997 
z
" transform="scale(0.015625)"/>
       <path id="DejaVuSans-46" d="M 3122 3366 
L 3122 2828 
Q 2878 2963 2633 3030 
Q 2388 3097 2138 3097 
Q 1578 3097 1268 2742 
Q 959 2388 959 1747 
Q 959 1106 1268 751 
Q 1578 397 2138 397 
Q 2388 397 2633 464 
Q 2878 531 3122 666 
L 3122 134 
Q 2881 22 2623 -34 
Q 2366 -91 2075 -91 
Q 1284 -91 818 406 
Q 353 903 353 1747 
Q 353 2603 823 3093 
Q 1294 3584 2113 3584 
Q 2378 3584 2631 3529 
Q 2884 3475 3122 3366 
z
" transform="scale(0.015625)"/>
       <path id="DejaVuSans-4c" d="M 603 3500 
L 1178 3500 
L 1178 0 
L 603 0 
L 603 3500 
z
M 603 4863 
L 1178 4863 
L 1178 4134 
L 603 4134 
L 603 4863 
z
" transform="scale(0.015625)"/>
       <path id="DejaVuSans-2f" d="M 628 4666 
L 1259 4666 
L 1259 531 
L 3531 531 
L 3531 0 
L 628 0 
L 628 4666 
z
" transform="scale(0.015625)"/>
       <path id="DejaVuSans-47" d="M 2906 2969 
L 2906 4863 
L 3481 4863 
L 3481 0 
L 2906 0 
L 2906 525 
Q 2725 213 2448 61 
Q 2172 -91 1784 -91 
Q 1150 -91 751 415 
Q 353 922 353 1747 
Q 353 2572 751 3078 
Q 1150 3584 1784 3584 
Q 2172 3584 2448 3432 
Q 2725 3281 2906 2969 
z
M 947 1747 
Q 947 1113 1208 752 
Q 1469 391 1925 391 
Q 2381 391 2643 752 
Q 2906 1113 2906 1747 
Q 2906 2381 2643 2742 
Q 2381 3103 1925 3103 
Q 1469 3103 1208 2742 
Q 947 2381 947 1747 
z
" transform="scale(0.015625)"/>
       <path id="DejaVuSans-56" d="M 2834 3397 
L 2834 2853 
Q 2591 2978 2328 3040 
Q 2066 3103 1784 3103 
Q 1356 3103 1142 2972 
Q 928 2841 928 2578 
Q 928 2378 1081 2264 
Q 1234 2150 1697 2047 
L 1894 2003 
Q 2506 1872 2764 1633 
Q 3022 1394 3022 966 
Q 3022 478 2636 193 
Q 2250 -91 1575 -91 
Q 1294 -91 989 -36 
Q 684 19 347 128 
L 347 722 
Q 666 556 975 473 
Q 1284 391 1588 391 
Q 1994 391 2212 530 
Q 2431 669 2431 922 
Q 2431 1156 2273 1281 
Q 2116 1406 1581 1522 
L 1381 1569 
Q 847 1681 609 1914 
Q 372 2147 372 2553 
Q 372 3047 722 3315 
Q 1072 3584 1716 3584 
Q 2034 3584 2315 3537 
Q 2597 3491 2834 3397 
z
" transform="scale(0.015625)"/>
      </defs>
      <use xlink:href="#DejaVuSans-29"/>
      <use xlink:href="#DejaVuSans-55" transform="translate(50.234375 0)"/>
      <use xlink:href="#DejaVuSans-11" transform="translate(82.171875 0)"/>
      <use xlink:href="#DejaVuSans-3" transform="translate(113.953125 0)"/>
      <use xlink:href="#DejaVuSans-36" transform="translate(145.734375 0)"/>
      <use xlink:href="#DejaVuSans-11" transform="translate(209.21875 0)"/>
      <use xlink:href="#DejaVuSans-3" transform="translate(241 0)"/>
      <use xlink:href="#DejaVuSans-24" transform="translate(272.78125 0)"/>
      <use xlink:href="#DejaVuSans-51" transform="translate(341.1875 0)"/>
      <use xlink:href="#DejaVuSans-57" transform="translate(404.5625 0)"/>
      <use xlink:href="#DejaVuSans-44" transform="translate(443.765625 0)"/>
      <use xlink:href="#DejaVuSans-55" transform="translate(505.046875 0)"/>
      <use xlink:href="#DejaVuSans-46" transform="translate(543.953125 0)"/>
      <use xlink:href="#DejaVuSans-57" transform="translate(598.9375 0)"/>
      <use xlink:href="#DejaVuSans-4c" transform="translate(638.140625 0)"/>
      <use xlink:href="#DejaVuSans-46" transform="translate(665.921875 0)"/>
      <use xlink:href="#DejaVuSans-3" transform="translate(720.90625 0)"/>
      <use xlink:href="#DejaVuSans-2f" transform="translate(752.6875 0)"/>
      <use xlink:href="#DejaVuSans-44" transform="translate(808.40625 0)"/>
      <use xlink:href="#DejaVuSans-51" transform="translate(869.6875 0)"/>
      <use xlink:href="#DejaVuSans-47" transform="translate(933.0625 0)"/>
      <use xlink:href="#DejaVuSans-56" transform="translate(996.546875 0)"/>
     </g>
    </g>
    <g id="patch_5">
     <path d="M 15.3 492.895234 
L 33.3 492.895234 
L 33.3 486.595234 
L 15.3 486.595234 
z
" style="fill: #bdc3c7; stroke: #888888; stroke-linejoin: miter"/>
    </g>
    <g id="text_4">
     <!-- Neighbors -->
     <g transform="translate(40.5 492.895234) scale(0.09 -0.09)">
      <defs>
       <path id="DejaVuSans-31" d="M 628 4666 
L 1478 4666 
L 3547 763 
L 3547 4666 
L 4159 4666 
L 4159 0 
L 3309 0 
L 1241 3903 
L 1241 0 
L 628 0 
L 628 4666 
z
" transform="scale(0.015625)"/>
       <path id="DejaVuSans-48" d="M 3597 1894 
L 3597 1613 
L 953 1613 
Q 991 1019 1311 708 
Q 1631 397 2203 397 
Q 2534 397 2845 478 
Q 3156 559 3463 722 
L 3463 178 
Q 3153 47 2828 -22 
Q 2503 -91 2169 -91 
Q 1331 -91 842 396 
Q 353 884 353 1716 
Q 353 2575 817 3079 
Q 1281 3584 2069 3584 
Q 2775 3584 3186 3129 
Q 3597 2675 3597 1894 
z
M 3022 2063 
Q 3016 2534 2758 2815 
Q 2500 3097 2075 3097 
Q 1594 3097 1305 2825 
Q 1016 2553 972 2059 
L 3022 2063 
z
" transform="scale(0.015625)"/>
       <path id="DejaVuSans-4a" d="M 2906 1791 
Q 2906 2416 2648 2759 
Q 2391 3103 1925 3103 
Q 1463 3103 1205 2759 
Q 947 2416 947 1791 
Q 947 1169 1205 825 
Q 1463 481 1925 481 
Q 2391 481 2648 825 
Q 2906 1169 2906 1791 
z
M 3481 434 
Q 3481 -459 3084 -895 
Q 2688 -1331 1869 -1331 
Q 1566 -1331 1297 -1286 
Q 1028 -1241 775 -1147 
L 775 -588 
Q 1028 -725 1275 -790 
Q 1522 -856 1778 -856 
Q 2344 -856 2625 -561 
Q 2906 -266 2906 331 
L 2906 616 
Q 2728 306 2450 153 
Q 2172 0 1784 0 
Q 1141 0 747 490 
Q 353 981 353 1791 
Q 353 2603 747 3093 
Q 1141 3584 1784 3584 
Q 2172 3584 2450 3431 
Q 2728 3278 2906 2969 
L 2906 3500 
L 3481 3500 
L 3481 434 
z
" transform="scale(0.015625)"/>
       <path id="DejaVuSans-4b" d="M 3513 2113 
L 3513 0 
L 2938 0 
L 2938 2094 
Q 2938 2591 2744 2837 
Q 2550 3084 2163 3084 
Q 1697 3084 1428 2787 
Q 1159 2491 1159 1978 
L 1159 0 
L 581 0 
L 581 4863 
L 1159 4863 
L 1159 2956 
Q 1366 3272 1645 3428 
Q 1925 3584 2291 3584 
Q 2894 3584 3203 3211 
Q 3513 2838 3513 2113 
z
" transform="scale(0.015625)"/>
       <path id="DejaVuSans-45" d="M 3116 1747 
Q 3116 2381 2855 2742 
Q 2594 3103 2138 3103 
Q 1681 3103 1420 2742 
Q 1159 2381 1159 1747 
Q 1159 1113 1420 752 
Q 1681 391 2138 391 
Q 2594 391 2855 752 
Q 3116 1113 3116 1747 
z
M 1159 2969 
Q 1341 3281 1617 3432 
Q 1894 3584 2278 3584 
Q 2916 3584 3314 3078 
Q 3713 2572 3713 1747 
Q 3713 922 3314 415 
Q 2916 -91 2278 -91 
Q 1894 -91 1617 61 
Q 1341 213 1159 525 
L 1159 0 
L 581 0 
L 581 4863 
L 1159 4863 
L 1159 2969 
z
" transform="scale(0.015625)"/>
       <path id="DejaVuSans-52" d="M 1959 3097 
Q 1497 3097 1228 2736 
Q 959 2375 959 1747 
Q 959 1119 1226 758 
Q 1494 397 1959 397 
Q 2419 397 2687 759 
Q 2956 1122 2956 1747 
Q 2956 2369 2687 2733 
Q 2419 3097 1959 3097 
z
M 1959 3584 
Q 2709 3584 3137 3096 
Q 3566 2609 3566 1747 
Q 3566 888 3137 398 
Q 2709 -91 1959 -91 
Q 1206 -91 779 398 
Q 353 888 353 1747 
Q 353 2609 779 3096 
Q 1206 3584 1959 3584 
z
" transform="scale(0.015625)"/>
      </defs>
      <use xlink:href="#DejaVuSans-31"/>
      <use xlink:href="#DejaVuSans-48" transform="translate(74.8125 0)"/>
      <use xlink:href="#DejaVuSans-4c" transform="translate(136.34375 0)"/>
      <use xlink:href="#DejaVuSans-4a" transform="translate(164.125 0)"/>
      <use xlink:href="#DejaVuSans-4b" transform="translate(227.609375 0)"/>
      <use xlink:href="#DejaVuSans-45" transform="translate(290.984375 0)"/>
      <use xlink:href="#DejaVuSans-52" transform="translate(354.46875 0)"/>
      <use xlink:href="#DejaVuSans-55" transform="translate(415.65625 0)"/>
      <use xlink:href="#DejaVuSans-56" transform="translate(456.765625 0)"/>
     </g>
    </g>
   </g>
  </g>
 </g>
 <defs>
  <clipPath id="p914d4e63c1">
   <rect x="7.2" y="30.117344" width="404.415597" height="473.04"/>
  </clipPath>
 </defs>
</svg>
