<?xml version="1.0" encoding="utf-8" standalone="no"?>
<!DOCTYPE svg PUBLIC "-//W3C//DTD SVG 1.1//EN"
  "http://www.w3.org/Graphics/SVG/1.1/DTD/svg11.dtd">
<svg xmlns:xlink="http://www.w3.org/1999/xlink" width="463.151467pt" height="510.357344pt" viewBox="0 0 463.151467 510.357344" xmlns="http://www.w3.org/2000/svg" version="1.1">
 <metadata>
  <rdf:RDF xmlns:dc="http://purl.org/dc/elements/1.1/" xmlns:cc="http://creativecommons.org/ns#" xmlns:rdf="http://www.w3.org/1999/02/22-rdf-syntax-ns#">
   <cc:Work>
    <dc:type rdf:resource="http://purl.org/dc/dcmitype/StillImage"/>
    <dc:date>2026-06-19T08:14:14.847703</dc:date>
    <dc:format>image/svg+xml</dc:format>
    <dc:creator>
     <cc:Agent>
      <dc:title>Matplotlib v3.11.0, https://matplotlib.org/</dc:title>
     </cc:Agent>
    </dc:creator>
   </cc:Work>
  </rdf:RDF>
 </metadata>
 <defs>
  <style type="text/css">*{stroke-linejoin: round; stroke-linecap: butt}</style>
 </defs>
 <g id="figure_1">
  <g id="patch_1">
   <path d="M 0 510.357344 
L 463.151467 510.357344 
L 463.151467 0 
L 0 0 
z
" style="fill: #d6eaf8"/>
  </g>
  <g id="axes_1">
   <g id="PatchCollection_1">
    <path d="M -378.871324 237.055425 
L 5853.615819 237.055425 
L 5852.556285 238.06861 
L 5852.431634 238.099312 
L 5852.120007 238.130015 
L 5851.93303 238.19142 
L 5851.808379 238.31423 
L 5851.621403 238.590553 
L 5851.559077 238.744066 
L 5851.309776 238.958984 
L 5851.185125 239.112497 
L 5851.185125 239.173902 
L 5851.060474 239.26601 
L 5850.811172 239.695846 
L 5850.125591 240.70903 
L 5849.813964 240.923948 
L 5849.813964 241.292379 
L 5849.502336 241.845025 
L 5849.066058 242.336266 
L 5848.692105 242.520481 
L 5848.318152 242.643292 
L 5846.635363 243.779286 
L 5846.573038 243.902097 
L 5846.448387 244.024907 
L 5846.386061 244.30123 
L 5846.386061 244.516148 
L 5846.386061 244.792471 
L 5846.323736 245.099496 
L 5846.199085 245.345117 
L 5846.012108 245.529332 
L 5845.57583 245.805655 
L 5845.388854 245.959168 
L 5845.264203 246.081978 
L 5845.077226 246.419707 
L 5844.952575 246.481112 
L 5844.703273 246.573219 
L 5844.578622 246.665327 
L 5844.765599 246.849543 
L 5844.827924 247.156568 
L 5844.765599 247.494296 
L 5844.578622 247.770619 
L 5844.703273 247.89343 
L 5845.014901 247.709214 
L 5845.326528 247.617107 
L 5845.57583 247.647809 
L 5845.762806 247.89343 
L 5846.012108 247.709214 
L 5846.448387 247.248676 
L 5846.697689 247.156568 
L 5846.884665 247.125866 
L 5847.071642 247.033758 
L 5847.258618 246.880245 
L 5847.320944 246.726732 
L 5847.383269 246.481112 
L 5847.570246 246.389004 
L 5847.757222 246.358302 
L 5847.944199 246.296896 
L 5847.944199 246.204789 
L 5848.006524 245.959168 
L 5848.06885 245.897763 
L 5848.131175 245.867061 
L 5848.318152 245.836358 
L 5848.380477 245.774953 
L 5848.505128 245.590737 
L 5848.692105 245.130199 
L 5848.816756 244.976686 
L 5849.003732 244.884579 
L 5849.128383 244.823173 
L 5849.253034 244.761768 
L 5849.31536 244.608255 
L 5849.377685 244.454743 
L 5849.564662 244.362635 
L 5849.813964 244.30123 
L 5850.374893 243.902097 
L 5850.748846 243.625773 
L 5850.873497 243.34945 
L 5851.060474 243.22664 
L 5851.93303 242.796804 
L 5852.057681 242.673994 
L 5852.120007 242.551184 
L 5852.182332 242.459076 
L 5852.306983 242.397671 
L 5852.556285 242.397671 
L 5852.618611 242.489779 
L 5852.618611 242.643292 
L 5852.805587 243.073127 
L 5852.743262 243.22664 
L 5852.618611 243.380153 
L 5852.49396 243.502963 
L 5852.306983 244.024907 
L 5851.683728 245.160902 
L 5851.683728 245.253009 
L 5851.746054 245.467927 
L 5851.683728 245.529332 
L 5851.621403 245.560035 
L 5851.434427 245.529332 
L 5851.372101 245.529332 
L 5850.998148 246.020573 
L 5851.434427 246.051276 
L 5851.746054 246.266194 
L 5851.93303 246.603922 
L 5851.93303 247.033758 
L 5852.182332 247.003055 
L 5852.49396 247.06446 
L 5852.743262 247.248676 
L 5852.805587 247.524999 
L 5852.618611 247.647809 
L 5852.369309 247.617107 
L 5851.808379 247.402189 
L 5851.870705 247.524999 
L 5851.995356 247.801322 
L 5852.057681 247.89343 
L 5851.808379 247.832024 
L 5851.683728 247.770619 
L 5851.434427 247.954835 
L 5851.24745 247.89343 
L 5851.185125 247.647809 
L 5851.24745 247.402189 
L 5850.624195 247.371486 
L 5850.374893 247.279378 
L 5850.187917 247.033758 
L 5849.813964 247.156568 
L 5849.440011 247.125866 
L 5849.128383 247.06446 
L 5848.879081 247.033758 
L 5848.692105 247.095163 
L 5848.442803 247.340783 
L 5848.193501 247.402189 
L 5848.006524 247.402189 
L 5847.819548 247.432891 
L 5847.757222 247.555701 
L 5847.694897 247.770619 
L 5847.570246 247.586404 
L 5847.570246 247.524999 
L 5847.445595 247.524999 
L 5847.258618 247.89343 
L 5846.635363 248.323265 
L 5846.386061 248.660994 
L 5846.074434 248.384671 
L 5845.762806 248.353968 
L 5845.014901 248.538183 
L 5844.453971 248.538183 
L 5844.142344 248.630291 
L 5843.893042 248.783804 
L 5843.269787 248.568886 
L 5842.833508 248.538183 
L 5841.462347 248.660994 
L 5841.462347 248.599589 
L 5841.649324 248.476778 
L 5841.773975 248.231158 
L 5841.898626 247.985537 
L 5842.210253 247.89343 
L 5842.459555 247.770619 
L 5842.334904 247.524999 
L 5842.39723 247.279378 
L 5842.210253 247.156568 
L 5841.649324 247.033758 
L 5841.213045 246.69603 
L 5840.901418 246.511814 
L 5840.776767 246.603922 
L 5840.58979 246.603922 
L 5839.280955 247.125866 
L 5838.969328 247.340783 
L 5838.408398 247.770619 
L 5838.533049 248.077645 
L 5838.408398 248.323265 
L 5838.221422 248.538183 
L 5837.97212 248.660994 
L 5837.41119 248.507481 
L 5837.099563 248.968019 
L 5836.663284 250.257527 
L 5837.099563 249.981204 
L 5837.286539 249.950501 
L 5837.598167 250.011906 
L 5837.41119 250.226824 
L 5836.974912 250.564553 
L 5836.787935 250.748768 
L 5836.663284 250.748768 
L 5836.413982 250.65666 
L 5835.728402 250.472445 
L 5835.541425 250.318932 
L 5835.416774 250.165419 
L 5835.416774 250.042609 
L 5835.354449 249.919799 
L 5835.042821 249.858394 
L 5834.91817 249.735583 
L 5834.855845 249.582071 
L 5834.855845 249.397855 
L 5834.731194 249.397855 
L 5834.731194 249.766286 
L 5834.481892 249.612773 
L 5834.294915 249.582071 
L 5834.107939 249.643476 
L 5833.920962 249.766286 
L 5833.235382 250.380337 
L 5833.110731 250.564553 
L 5832.98608 251.270711 
L 5832.861429 251.393522 
L 5832.674453 251.454927 
L 5832.612127 251.577737 
L 5832.861429 251.761952 
L 5832.238174 252.191788 
L 5832.175849 252.253193 
L 5831.677245 252.283896 
L 5831.490268 252.253193 
L 5831.178641 252.130383 
L 5830.991664 251.915465 
L 5830.804688 251.393522 
L 5830.617711 250.810173 
L 5830.617711 250.318932 
L 5830.430735 249.981204 
L 5830.056782 249.612773 
L 5829.869805 249.21364 
L 5829.994456 248.660994 
L 5829.620503 248.507481 
L 5829.495852 248.384671 
L 5829.433527 248.169753 
L 5828.373993 248.691696 
L 5827.87539 248.783804 
L 5827.376786 248.415373 
L 5827.501437 248.353968 
L 5827.501437 248.292563 
L 5827.31446 248.108348 
L 5827.31446 247.89343 
L 5827.376786 247.801322 
L 5827.501437 247.89343 
L 5827.626088 247.89343 
L 5827.563762 247.555701 
L 5827.750739 247.248676 
L 5828.373993 246.788137 
L 5828.373993 247.156568 
L 5828.498644 247.003055 
L 5828.56097 246.788137 
L 5828.623295 246.665327 
L 5828.810272 246.788137 
L 5828.934923 246.511814 
L 5829.121899 246.081978 
L 5829.184225 245.774953 
L 5828.810272 245.989871 
L 5828.56097 245.959168 
L 5828.373993 245.74425 
L 5828.249342 245.406522 
L 5828.872597 245.160902 
L 5829.059574 245.160902 
L 5829.184225 245.253009 
L 5829.371201 245.529332 
L 5829.495852 245.652143 
L 5829.682829 245.713548 
L 5830.243758 245.774953 
L 5830.804688 246.112681 
L 5830.929339 246.143384 
L 5831.178641 246.112681 
L 5831.240966 246.020573 
L 5831.303292 245.928466 
L 5831.427943 245.774953 
L 5832.362825 244.945984 
L 5832.612127 244.823173 
L 5832.799104 245.007389 
L 5832.861429 245.529332 
L 5833.110731 245.437225 
L 5833.173057 245.314414 
L 5833.110731 244.853876 
L 5833.173057 244.638958 
L 5833.671661 243.902097 
L 5833.733986 243.994204 
L 5833.796312 244.17842 
L 5833.796312 244.30123 
L 5833.920962 244.209122 
L 5834.045613 244.117014 
L 5834.045613 243.994204 
L 5834.045613 243.779286 
L 5834.170264 243.779286 
L 5834.357241 244.024907 
L 5834.544217 243.840691 
L 5834.731194 243.564368 
L 5834.91817 243.380153 
L 5835.105147 243.288045 
L 5835.042821 243.073127 
L 5834.91817 242.796804 
L 5834.855845 242.520481 
L 5834.91817 242.581886 
L 5835.167472 242.643292 
L 5835.229798 242.673994 
L 5835.292123 242.336266 
L 5835.4791 242.336266 
L 5835.603751 242.459076 
L 5835.728402 242.520481 
L 5835.977704 242.489779 
L 5836.413982 242.336266 
L 5837.224214 242.244158 
L 5838.159096 241.90643 
L 5838.6577 241.78362 
L 5839.21863 241.814322 
L 5839.405606 241.78362 
L 5839.405606 241.722215 
L 5839.530257 241.476594 
L 5839.592583 241.384486 
L 5839.717233 241.353784 
L 5840.028861 241.292379 
L 5840.153512 241.230974 
L 5840.465139 241.230974 
L 5840.963743 241.353784 
L 5841.462347 241.415189 
L 5841.773975 241.169569 
L 5842.023277 241.384486 
L 5842.147928 241.323081 
L 5842.272579 241.138866 
L 5842.521881 241.046758 
L 5842.646532 241.077461 
L 5842.771183 241.353784 
L 5842.895834 241.384486 
L 5843.020485 241.384486 
L 5843.08281 241.353784 
L 5843.145136 241.353784 
L 5843.269787 241.384486 
L 5843.269787 241.138866 
L 5843.145136 240.862543 
L 5843.020485 240.647625 
L 5842.833508 240.524815 
L 5843.020485 240.371302 
L 5843.207461 240.309897 
L 5843.394438 240.309897 
L 5843.519089 240.402004 
L 5843.64374 240.094979 
L 5843.768391 239.787953 
L 5843.955367 239.603738 
L 5844.204669 239.787953 
L 5844.32932 239.480928 
L 5844.391646 239.204605 
L 5844.453971 238.958984 
L 5844.703273 238.805471 
L 5845.326528 238.836174 
L 5845.57583 238.744066 
L 5845.326528 238.43704 
L 5845.513505 238.43704 
L 5845.700481 238.529148 
L 5845.825132 238.713364 
L 5845.887457 238.928281 
L 5846.074434 238.283528 
L 5846.136759 238.06861 
L 5846.199085 238.283528 
L 5846.386061 238.375635 
L 5846.573038 238.43704 
L 5846.760014 238.559851 
L 5846.884665 238.406338 
L 5847.009316 238.375635 
L 5847.133967 238.498446 
L 5847.196293 238.682661 
L 5847.196293 238.406338 
L 5847.258618 238.31423 
L 5847.383269 238.283528 
L 5847.50792 238.31423 
L 5847.632571 238.252825 
L 5847.632571 238.130015 
L 5847.694897 237.976502 
L 5847.694897 237.9458 
L 5847.757222 237.9458 
L 5847.881873 237.976502 
L 5847.944199 238.037907 
L 5848.006524 238.06861 
L 5848.318152 238.06861 
L 5848.442803 238.037907 
L 5848.505128 237.884394 
L 5848.629779 237.761584 
L 5849.003732 237.577369 
L 5849.564662 237.270343 
L 5849.626987 237.546666 
L 5849.689313 237.976502 
L 5849.813964 238.19142 
L 5850.00094 238.099312 
L 5850.374893 237.761584 
L 5850.624195 237.700179 
L 5850.811172 237.761584 
L 5850.873497 237.853692 
L 5850.811172 237.976502 
L 5850.624195 238.06861 
L 5850.811172 238.130015 
L 5851.060474 238.130015 
L 5851.122799 238.19142 
L 5851.309776 237.915097 
L 5851.93303 237.393153 
L 5852.057681 237.239641 
L 5853.304191 236.686994 
L 5853.615819 236.686994 
z
" clip-path="url(#p92d8699a65)" style="fill: #bdc3c7; stroke: #ffffff; stroke-width: 0.5"/>
    <path d="M 5806.061466 269.477331 
L 5806.061466 269.323818 
L 5806.310768 269.016792 
L 5806.373094 268.832577 
L 5806.373094 268.586956 
L 5806.310768 268.464146 
L 5806.186117 268.341336 
L 5806.186117 268.157121 
L 5806.248443 267.78869 
L 5806.56007 267.635177 
L 5807.370302 267.604474 
L 5807.80658 267.420259 
L 5807.931231 267.328151 
L 5808.118208 267.143936 
L 5808.118208 266.990423 
L 5808.118208 266.83691 
L 5808.055882 266.652695 
L 5808.055882 266.038644 
L 5808.118208 265.793023 
L 5808.180533 265.762321 
L 5808.242859 265.793023 
L 5808.866114 265.977239 
L 5808.990765 265.977239 
L 5809.177741 265.793023 
L 5809.240067 265.670213 
L 5809.177741 265.547403 
L 5809.115416 265.39389 
L 5809.115416 265.209675 
L 5809.05309 264.841244 
L 5808.990765 264.657028 
L 5808.990765 264.503516 
L 5808.803788 264.411408 
L 5808.679137 264.350003 
L 5808.554486 264.227193 
L 5808.429835 263.797357 
L 5808.616812 263.613141 
L 5808.928439 263.490331 
L 5809.115416 263.152603 
L 5809.177741 263.029793 
L 5809.551694 262.937685 
L 5809.738671 262.845577 
L 5809.800996 262.630659 
L 5809.738671 262.446444 
L 5809.800996 262.262229 
L 5809.987973 262.108716 
L 5810.174949 262.323634 
L 5810.2996 262.262229 
L 5810.424251 262.047311 
L 5810.2996 261.832393 
L 5810.424251 261.586772 
L 5810.611227 261.341152 
L 5810.735878 261.279747 
L 5810.922855 261.463962 
L 5811.047506 261.463962 
L 5811.733086 260.849911 
L 5812.418667 260.420075 
L 5812.480992 260.35867 
L 5812.543318 260.327967 
L 5812.543318 260.23586 
L 5812.605643 260.143752 
L 5812.730294 260.113049 
L 5812.854945 260.113049 
L 5812.979596 260.174454 
L 5813.041922 260.205157 
L 5812.979596 260.23586 
L 5812.854945 260.389372 
L 5812.917271 260.696398 
L 5813.041922 261.034126 
L 5813.166573 261.218342 
L 5813.291224 261.126234 
L 5813.166573 260.880613 
L 5813.104247 260.665695 
L 5813.104247 260.450777 
L 5813.166573 260.23586 
L 5813.291224 260.143752 
L 5813.852153 259.806024 
L 5813.976804 259.744619 
L 5814.662385 259.990239 
L 5814.72471 259.898131 
L 5814.787036 259.683213 
L 5814.849361 259.468296 
L 5814.911687 259.376188 
L 5815.098663 259.314783 
L 5815.160989 259.222675 
L 5815.28564 259.16127 
L 5815.659593 259.099865 
L 5815.721918 259.007757 
L 5815.784244 258.915649 
L 5815.97122 258.823542 
L 5816.033546 258.792839 
L 5816.095871 258.823542 
L 5816.095871 259.069162 
L 5816.095871 259.253378 
L 5816.095871 259.437593 
L 5815.97122 259.591106 
L 5815.846569 259.744619 
L 5816.158197 259.806024 
L 5816.407498 259.683213 
L 5816.594475 259.437593 
L 5816.843777 259.253378 
L 5817.21773 259.498998 
L 5817.716334 259.529701 
L 5818.214938 259.468296 
L 5818.588891 259.376188 
L 5819.087495 259.130567 
L 5819.336797 258.977055 
L 5819.523773 258.792839 
L 5819.71075 258.639326 
L 5820.147028 258.639326 
L 5820.39633 258.485814 
L 5820.95726 258.577921 
L 5821.580515 258.455111 
L 5822.141444 258.148085 
L 5822.266095 257.626142 
L 5822.640048 257.748952 
L 5823.138652 257.994573 
L 5823.512605 258.270896 
L 5823.699581 258.547219 
L 5823.761907 258.762137 
L 5823.948883 259.130567 
L 5823.948883 259.376188 
L 5823.824232 259.560403 
L 5823.387954 260.020942 
L 5823.263303 260.23586 
L 5823.450279 260.327967 
L 5823.450279 260.48148 
L 5823.387954 260.634993 
L 5823.263303 260.727101 
L 5823.450279 260.696398 
L 5823.948883 260.113049 
L 5824.260511 259.990239 
L 5824.634464 260.020942 
L 5825.008417 260.174454 
L 5825.320044 260.389372 
L 5825.507021 260.727101 
L 5825.507021 260.880613 
L 5825.444695 261.095531 
L 5825.507021 261.218342 
L 5825.569346 261.249044 
L 5825.880974 261.525367 
L 5825.943299 261.586772 
L 5826.005625 261.648177 
L 5826.691205 262.170121 
L 5826.878182 262.170121 
L 5827.065158 262.170121 
L 5827.252135 262.231526 
L 5827.563762 262.446444 
L 5828.062366 263.091198 
L 5828.187017 263.214008 
L 5828.56097 263.275413 
L 5828.934923 263.398223 
L 5829.24655 263.643844 
L 5829.433527 263.981572 
L 5829.433527 264.411408 
L 5829.24655 264.779839 
L 5829.059574 265.056162 
L 5828.934923 265.39389 
L 5828.872597 265.578105 
L 5828.872597 265.731618 
L 5828.810272 265.885131 
L 5828.872597 266.038644 
L 5828.997248 266.161454 
L 5829.308876 266.376372 
L 5829.433527 266.46848 
L 5829.433527 266.683398 
L 5829.371201 266.867613 
L 5829.371201 267.051828 
L 5829.495852 267.205341 
L 5829.745154 267.143936 
L 5829.869805 267.205341 
L 5829.80748 267.328151 
L 5829.682829 267.450962 
L 5829.869805 267.543069 
L 5829.994456 267.66588 
L 5829.994456 267.850095 
L 5829.869805 268.095715 
L 5829.80748 268.03431 
L 5829.682829 267.972905 
L 5829.682829 268.03431 
L 5829.745154 268.341336 
L 5829.24655 268.494849 
L 5829.308876 268.98609 
L 5829.620503 269.569438 
L 5829.80748 269.815059 
L 5830.181433 269.845761 
L 5830.306084 269.937869 
L 5830.430735 270.091382 
L 5830.617711 270.3063 
L 5830.680037 270.42911 
L 5830.680037 270.490515 
L 5830.742362 270.55192 
L 5830.867013 270.582623 
L 5830.991664 270.521218 
L 5831.116315 270.398408 
L 5831.178641 270.275597 
L 5831.178641 270.18349 
L 5831.303292 270.18349 
L 5831.240966 270.337002 
L 5831.116315 270.582623 
L 5831.05399 270.705433 
L 5831.05399 270.951054 
L 5831.05399 271.135269 
L 5830.991664 271.38089 
L 5830.867013 271.62651 
L 5830.617711 271.810725 
L 5830.49306 271.933536 
L 5829.620503 272.394074 
L 5829.184225 272.82391 
L 5829.184225 272.455479 
L 5828.685621 272.639695 
L 5828.498644 272.7011 
L 5828.685621 272.394074 
L 5828.685621 272.332669 
L 5828.623295 272.148454 
L 5828.498644 272.117751 
L 5828.436319 272.117751 
L 5828.311668 271.994941 
L 5828.124691 271.994941 
L 5827.626088 272.240561 
L 5827.376786 272.332669 
L 5827.439111 272.7011 
L 5827.127484 272.916018 
L 5826.753531 273.038828 
L 5826.566554 273.008125 
L 5826.566554 272.731802 
L 5826.62888 272.639695 
L 5826.566554 272.57829 
L 5826.317252 272.301966 
L 5826.130276 272.209859 
L 5825.943299 272.179156 
L 5825.756323 272.179156 
L 5825.818648 272.271264 
L 5825.818648 272.332669 
L 5825.756323 272.486182 
L 5825.693997 272.608992 
L 5825.569346 272.670397 
L 5825.38237 272.7011 
L 5825.38237 272.639695 
L 5825.320044 272.547587 
L 5825.257719 272.486182 
L 5825.133068 272.455479 
L 5825.008417 272.455479 
L 5824.82144 272.547587 
L 5824.696789 272.57829 
L 5824.572138 272.639695 
L 5824.447487 272.762505 
L 5824.322836 272.885315 
L 5824.13586 272.94672 
L 5823.886558 272.977423 
L 5823.761907 273.008125 
L 5823.699581 273.069531 
L 5823.57493 273.192341 
L 5823.512605 273.315151 
L 5823.450279 273.560771 
L 5823.387954 273.683582 
L 5823.200977 273.775689 
L 5822.827024 273.8985 
L 5822.702373 273.990607 
L 5822.203769 274.604659 
L 5821.892142 274.850279 
L 5821.580515 274.942387 
L 5821.455864 274.942387 
L 5821.331213 275.065197 
L 5820.95726 274.696766 
L 5819.648424 275.157305 
L 5819.087495 275.065197 
L 5818.838193 275.065197 
L 5818.713542 275.034494 
L 5818.588891 274.942387 
L 5818.526565 275.034494 
L 5818.277263 275.188007 
L 5818.027961 275.21871 
L 5817.840985 275.126602 
L 5817.654008 275.0959 
L 5817.342381 275.249412 
L 5817.155404 275.310818 
L 5817.093079 275.003792 
L 5817.030753 274.911684 
L 5816.906102 274.942387 
L 5816.719126 275.034494 
L 5816.6568 275.126602 
L 5816.532149 275.188007 
L 5816.469824 275.126602 
L 5816.095871 274.819577 
L 5816.095871 274.696766 
L 5815.97122 274.604659 
L 5815.223314 274.389741 
L 5813.789828 273.990607 
L 5813.353549 273.929202 
L 5812.854945 273.806392 
L 5811.920063 273.376556 
L 5811.483784 273.437961 
L 5810.98518 273.192341 
L 5810.735878 273.161638 
L 5809.863322 273.223043 
L 5809.738671 273.192341 
L 5809.551694 273.100233 
L 5809.427043 273.008125 
L 5809.364718 272.885315 
L 5809.240067 272.82391 
L 5808.055882 272.516884 
L 5807.494953 272.271264 
L 5807.121 271.687915 
L 5806.996349 271.810725 
L 5806.934023 271.62651 
L 5806.871698 271.258079 
L 5806.871698 271.073864 
L 5806.809372 270.951054 
L 5806.747047 270.889649 
L 5806.684721 270.736136 
L 5806.622396 270.521218 
L 5806.56007 270.398408 
L 5806.248443 270.244895 
L 5806.248443 270.122085 
L 5806.310768 269.968572 
L 5806.186117 269.815059 
L 5806.123792 269.661546 
z
" clip-path="url(#p92d8699a65)" style="fill: #bdc3c7; stroke: #ffffff; stroke-width: 0.5"/>
    <path d="M 5818.152612 290.877016 
L 5818.651216 290.355073 
L 5818.962844 290.262965 
L 5819.336797 290.385776 
L 5819.523773 290.232263 
L 5819.586099 289.833129 
L 5819.71075 289.648914 
L 5819.897726 289.556806 
L 5820.084703 289.556806 
L 5821.081911 289.802427 
L 5821.206562 289.771724 
L 5821.331213 289.648914 
L 5821.331213 289.464699 
L 5821.393538 289.280483 
L 5821.580515 289.157673 
L 5821.829817 289.311186 
L 5821.954468 289.157673 
L 5822.016793 288.850647 
L 5822.016793 288.512919 
L 5822.266095 288.113786 
L 5822.88935 287.868165 
L 5823.57493 287.837463 
L 5824.073534 288.021678 
L 5824.198185 287.499735 
L 5824.322836 287.43833 
L 5824.572138 287.407627 
L 5824.696789 287.376924 
L 5824.759115 287.284817 
L 5824.82144 287.192709 
L 5824.946091 287.162006 
L 5825.133068 287.192709 
L 5825.257719 287.254114 
L 5825.444695 287.254114 
L 5825.631672 287.162006 
L 5825.756323 287.407627 
L 5826.317252 287.43833 
L 5826.441903 287.714653 
L 5826.566554 287.714653 
L 5827.189809 287.80676 
L 5827.376786 287.898868 
L 5827.501437 288.113786 
L 5827.626088 288.451514 
L 5827.563762 288.75854 
L 5827.252135 288.942755 
L 5826.940507 289.12697 
L 5826.878182 289.00416 
L 5826.691205 288.973458 
L 5826.317252 288.912053 
L 5826.379578 289.065565 
L 5826.441903 289.188376 
L 5826.379578 289.311186 
L 5826.192601 289.403294 
L 5826.005625 289.341888 
L 5825.631672 289.311186 
L 5825.195393 289.311186 
L 5824.883766 289.403294 
L 5824.946091 289.280483 
L 5825.008417 289.034863 
L 5825.008417 288.912053 
L 5824.883766 288.973458 
L 5824.759115 289.00416 
L 5824.634464 288.973458 
L 5824.509813 288.912053 
L 5824.634464 288.819945 
L 5824.696789 288.697135 
L 5824.759115 288.635729 
L 5824.322836 288.482217 
L 5823.886558 288.666432 
L 5823.138652 289.280483 
L 5822.827024 289.341888 
L 5822.577722 289.341888 
L 5822.390746 289.403294 
L 5822.266095 289.587509 
L 5822.266095 289.95594 
L 5822.266095 290.048047 
L 5822.203769 289.771724 
L 5822.016793 289.894535 
L 5821.954468 290.109452 
L 5822.016793 290.293668 
L 5822.141444 290.385776 
L 5822.390746 290.447181 
L 5822.453071 290.600693 
L 5822.390746 291.061232 
L 5822.390746 291.184042 
L 5822.266095 291.306852 
L 5822.079119 291.39896 
L 5821.954468 291.368257 
L 5821.767491 291.27615 
L 5821.767491 291.091934 
L 5821.829817 290.631396 
L 5821.580515 290.846314 
L 5821.455864 290.877016 
L 5821.206562 290.877016 
L 5821.081911 291.061232 
L 5820.95726 291.214745 
L 5820.832609 291.337555 
L 5820.583307 291.368257 
L 5820.334005 291.337555 
L 5819.835401 291.15334 
L 5819.648424 291.122637 
L 5819.274471 291.368257 
L 5819.025169 291.39896 
L 5818.962844 291.122637 
L 5818.838193 291.122637 
L 5818.713542 291.214745 
L 5818.526565 291.15334 
L 5818.339589 291.030529 
z
" clip-path="url(#p92d8699a65)" style="fill: #bdc3c7; stroke: #ffffff; stroke-width: 0.5"/>
    <path d="M 5804.752631 255.139234 
L 5804.752631 254.985721 
L 5804.939607 255.016424 
L 5805.001933 254.985721 
L 5804.877282 254.832209 
L 5804.877282 254.555886 
L 5804.877282 254.340968 
L 5805.001933 254.24886 
L 5805.188909 254.187455 
L 5805.251235 254.003239 
L 5805.251235 253.788322 
L 5805.31356 253.634809 
L 5805.438211 253.511998 
L 5805.812164 253.204973 
L 5805.999141 253.143568 
L 5805.999141 253.204973 
L 5806.186117 253.542701 
L 5806.310768 253.634809 
L 5806.373094 253.634809 
L 5806.435419 253.511998 
L 5806.622396 253.020757 
L 5806.747047 253.235675 
L 5806.747047 253.481296 
L 5806.684721 253.696214 
L 5806.497745 253.880429 
L 5806.373094 254.218157 
L 5805.87449 254.586588 
L 5805.812164 254.862911 
L 5805.749839 254.801506 
L 5805.687513 254.770804 
L 5805.625188 254.740101 
L 5805.562862 254.617291 
L 5805.375886 254.740101 
L 5805.251235 254.862911 
L 5805.188909 255.016424 
L 5805.188909 255.231342 
z
" clip-path="url(#p92d8699a65)" style="fill: #bdc3c7; stroke: #ffffff; stroke-width: 0.5"/>
    <path d="M -361.918789 254.862911 
L -361.669488 254.985721 
L -361.482511 255.169937 
L -361.295535 255.354152 
L -360.921582 255.384855 
L -360.422978 255.630475 
L -360.11135 255.814691 
L -359.986699 256.060311 
L -360.298327 256.64366 
L -360.298327 256.76647 
L -360.609954 256.858578 
L -360.983907 257.165603 
L -361.233209 257.534034 
L -361.295535 257.871762 
L -361.544837 257.656844 
L -361.544837 257.319116 
L -361.295535 256.950685 
L -361.046233 256.76647 
L -361.108558 256.52085 
L -361.046233 256.398039 
L -360.921582 256.336634 
L -360.859256 256.244526 
L -360.859256 255.998906 
L -360.859256 255.906798 
L -361.046233 255.753285 
L -361.233209 255.661178 
L -361.607162 255.599773 
L -361.794139 255.507665 
L -361.856464 255.384855 
L -361.856464 255.016424 
z
" clip-path="url(#p92d8699a65)" style="fill: #bdc3c7; stroke: #ffffff; stroke-width: 0.5"/>
    <path d="M 5840.340488 269.323818 
L 5840.527465 269.446628 
L 5840.652116 269.446628 
L 5841.026069 269.139603 
L 5841.088394 269.139603 
L 5841.213045 269.170305 
L 5841.462347 269.201008 
L 5841.711649 269.385223 
L 5842.147928 270.152787 
L 5842.272579 270.3063 
L 5842.521881 270.828243 
L 5842.584206 271.780023 
L 5842.39723 272.516884 
L 5841.8363 272.179156 
L 5841.711649 271.964238 
L 5841.524673 271.472997 
L 5841.462347 271.258079 
L 5841.15072 270.858946 
L 5841.026069 270.644028 
L 5840.901418 270.3063 
L 5840.839092 270.521218 
L 5840.901418 270.889649 
L 5840.839092 271.012459 
L 5840.714441 271.043161 
L 5840.652116 270.920351 
L 5840.527465 270.398408 
L 5840.58979 269.876464 
L 5840.527465 269.815059 
L 5840.402814 269.508033 
z
" clip-path="url(#p92d8699a65)" style="fill: #bdc3c7; stroke: #ffffff; stroke-width: 0.5"/>
    <path d="M 5809.115416 249.152235 
L 5809.115416 249.029424 
L 5809.240067 248.599589 
L 5809.240067 248.415373 
L 5809.364718 248.415373 
L 5809.551694 248.630291 
L 5809.925647 248.476778 
L 5810.548902 247.770619 
L 5811.359133 247.095163 
L 5811.608435 246.69603 
L 5811.359133 246.296896 
L 5811.733086 246.296896 
L 5811.920063 246.450409 
L 5811.982388 246.69603 
L 5811.857737 247.033758 
L 5811.733086 247.217973 
L 5811.421459 247.432891 
L 5811.359133 247.586404 
L 5811.296808 247.678512 
L 5810.237275 248.568886 
L 5809.987973 248.845209 
L 5809.863322 249.152235 
L 5809.676345 249.060127 
L 5809.61402 249.029424 
L 5809.551694 249.121532 
L 5809.364718 249.21364 
L 5809.240067 249.244342 
z
" clip-path="url(#p92d8699a65)" style="fill: #bdc3c7; stroke: #ffffff; stroke-width: 0.5"/>
    <path d="M -378.871324 243.809989 
L -378.871324 242.888912 
L -378.746673 242.643292 
L -378.248069 242.305563 
L -378.185744 242.090645 
L -377.998767 242.02924 
L -377.375512 241.814322 
L -377.12621 241.78362 
L -377.12621 241.90643 
L -377.250861 241.937133 
L -377.313187 241.998538 
L -377.313187 242.059943 
L -377.188536 242.152051 
L -377.188536 242.305563 
L -377.313187 242.336266 
L -377.375512 242.366968 
L -377.500163 242.397671 
L -377.624814 242.397671 
L -377.68714 242.489779 
L -377.811791 242.673994 
L -377.811791 242.827507 
L -377.624814 242.919615 
L -377.500163 243.011722 
L -377.749465 243.257343 
L -378.061093 243.502963 
z
" clip-path="url(#p92d8699a65)" style="fill: #bdc3c7; stroke: #ffffff; stroke-width: 0.5"/>
    <path d="M -378.871324 251.516332 
L -378.871324 248.292563 
L -378.684348 247.985537 
L -377.437838 246.603922 
L -377.12621 246.419707 
L -376.752257 246.296896 
L -376.502955 246.358302 
L -376.378304 246.573219 
L -376.191328 247.095163 
L -376.129002 247.402189 
L -376.129002 247.586404 
L -375.942026 247.739917 
L -375.755049 247.862727 
L -375.692724 248.01624 
L -375.755049 248.169753 
L -376.378304 248.783804 
L -376.565281 249.09083 
L -376.627606 249.275045 
L -376.627606 249.674178 
L -376.689932 249.704881 
L -376.814583 249.704881 
L -376.939234 249.766286 
L -377.998767 250.441742 
L -378.559697 250.932983 
z
" clip-path="url(#p92d8699a65)" style="fill: #bdc3c7; stroke: #ffffff; stroke-width: 0.5"/>
    <path d="M 5850.686521 281.052197 
L 5850.998148 280.898684 
L 5851.683728 280.653063 
L 5852.369309 280.499551 
L 5852.618611 280.468848 
L 5852.743262 280.591658 
L 5852.805587 280.683766 
L 5852.680936 280.898684 
L 5852.244658 280.990792 
L 5852.057681 281.175007 
L 5851.746054 281.420627 
L 5851.870705 281.57414 
L 5852.120007 281.45133 
L 5852.182332 281.45133 
L 5852.244658 281.666248 
L 5851.93303 281.942571 
L 5851.870705 282.311002 
L 5851.559077 282.403109 
L 5851.434427 282.096084 
L 5851.372101 281.789058 
L 5851.185125 281.635545 
L 5851.060474 281.45133 
L 5850.748846 281.267115 
z
" clip-path="url(#p92d8699a65)" style="fill: #bdc3c7; stroke: #ffffff; stroke-width: 0.5"/>
    <path d="M -378.871324 251.485629 
L 5853.615819 248.26186 
L 5853.615819 248.292563 
L 5853.241866 249.029424 
L 5853.117215 249.33645 
L 5853.054889 249.582071 
L 5852.431634 250.503147 
L 5851.995356 250.840876 
L 5851.808379 251.055794 
L 5851.683728 251.332117 
L 5851.808379 251.577737 
L 5852.120007 251.85406 
L 5852.182332 252.130383 
L 5852.369309 252.191788 
L 5852.618611 252.191788 
L 5852.805587 252.130383 
L 5853.054889 252.038275 
L 5853.304191 251.884763 
L 5853.491168 251.700547 
L 5853.615819 251.516332 
z
" clip-path="url(#p92d8699a65)" style="fill: #bdc3c7; stroke: #ffffff; stroke-width: 0.5"/>
    <path d="M 5849.128383 291.920904 
L 5849.128383 291.736688 
L 5849.253034 291.675283 
L 5849.253034 291.644581 
L 5849.31536 291.491068 
L 5849.440011 291.552473 
L 5849.626987 291.583175 
L 5849.689313 291.613878 
L 5849.626987 291.337555 
L 5849.440011 291.061232 
L 5849.377685 290.846314 
L 5849.751638 290.754206 
L 5849.938615 290.907719 
L 5850.063266 291.214745 
L 5850.125591 291.583175 
L 5850.187917 291.890201 
L 5849.689313 292.013011 
L 5849.440011 292.013011 
L 5849.190709 291.982309 
z
" clip-path="url(#p92d8699a65)" style="fill: #bdc3c7; stroke: #ffffff; stroke-width: 0.5"/>
    <path d="M 5842.708857 257.380521 
L 5842.771183 257.134901 
L 5842.708857 256.88928 
L 5842.833508 256.705065 
L 5843.581414 256.582255 
L 5843.706065 256.551552 
L 5843.893042 256.551552 
L 5844.080018 256.705065 
L 5844.080018 256.797173 
L 5844.142344 257.441926 
L 5844.080018 257.902465 
L 5843.955367 258.332301 
L 5843.768391 258.670029 
L 5843.519089 258.977055 
L 5843.08281 259.376188 
L 5842.958159 259.253378 
L 5842.958159 258.178788 
L 5842.895834 257.902465 
L 5842.833508 257.626142 
z
" clip-path="url(#p92d8699a65)" style="fill: #bdc3c7; stroke: #ffffff; stroke-width: 0.5"/>
    <path d="M 5831.801896 264.411408 
L 5831.988872 263.858762 
L 5832.425151 263.582439 
L 5832.549802 263.490331 
L 5832.799104 263.398223 
L 5833.110731 263.582439 
L 5833.297708 264.012275 
L 5833.360033 264.257895 
L 5833.422359 264.503516 
L 5833.484684 264.749136 
L 5833.422359 265.025459 
L 5833.360033 265.240377 
L 5833.235382 265.424593 
L 5832.799104 265.547403 
L 5832.612127 265.608808 
L 5832.3005 265.731618 
L 5832.113523 265.424593 
L 5832.051198 265.117567 
z
" clip-path="url(#p92d8699a65)" style="fill: #bdc3c7; stroke: #ffffff; stroke-width: 0.5"/>
    <path d="M 5843.08281 266.59129 
L 5843.145136 266.345669 
L 5843.456763 266.499182 
L 5843.768391 266.59129 
L 5843.768391 266.683398 
L 5843.768391 266.744803 
L 5843.64374 266.83691 
L 5843.706065 266.959721 
L 5843.768391 267.113233 
L 5843.768391 267.297449 
L 5843.768391 267.450962 
L 5843.64374 267.635177 
L 5843.519089 267.543069 
L 5843.394438 267.205341 
L 5843.269787 267.051828 
L 5843.145136 266.83691 
z
" clip-path="url(#p92d8699a65)" style="fill: #bdc3c7; stroke: #ffffff; stroke-width: 0.5"/>
    <path d="M 5827.189809 286.824278 
L 5827.189809 286.60936 
L 5827.376786 286.36374 
L 5827.376786 286.210227 
L 5827.563762 286.026012 
L 5827.937715 285.933904 
L 5828.187017 285.995309 
L 5828.124691 286.271632 
L 5828.249342 286.425145 
L 5828.311668 286.578658 
L 5828.311668 286.701468 
L 5828.249342 286.885683 
L 5828.00004 286.824278 
L 5827.87539 287.008494 
L 5827.813064 287.192709 
L 5827.626088 287.162006 
z
" clip-path="url(#p92d8699a65)" style="fill: #bdc3c7; stroke: #ffffff; stroke-width: 0.5"/>
    <path d="M 5820.894934 277.674915 
L 5821.019585 277.644212 
L 5821.081911 277.61351 
L 5821.081911 277.552105 
L 5821.019585 277.429294 
L 5821.081911 277.337187 
L 5821.081911 277.275782 
L 5821.081911 277.183674 
L 5821.081911 277.060864 
L 5821.206562 276.723135 
L 5821.393538 276.692433 
L 5821.580515 276.845946 
L 5821.705166 277.183674 
L 5821.64284 277.582807 
L 5821.455864 277.828428 
L 5821.206562 277.889833 
z
" clip-path="url(#p92d8699a65)" style="fill: #bdc3c7; stroke: #ffffff; stroke-width: 0.5"/>
    <path d="M 5808.118208 250.380337 
L 5808.242859 250.226824 
L 5808.679137 250.011906 
L 5808.554486 249.735583 
L 5808.741463 249.643476 
L 5809.115416 249.674178 
L 5809.364718 249.766286 
L 5808.803788 250.196122 
L 5808.679137 250.380337 
L 5808.866114 250.503147 
L 5808.803788 250.65666 
L 5808.741463 250.77947 
L 5808.679137 250.902281 
L 5808.492161 251.025091 
L 5808.492161 250.902281 
L 5808.36751 250.748768 
z
" clip-path="url(#p92d8699a65)" style="fill: #bdc3c7; stroke: #ffffff; stroke-width: 0.5"/>
    <path d="M 5803.319145 256.76647 
L 5803.319145 256.612957 
L 5803.755423 256.797173 
L 5804.004725 256.797173 
L 5804.254027 256.612957 
L 5804.503329 256.981388 
L 5804.378678 257.012091 
L 5804.316353 257.073496 
L 5804.316353 257.165603 
L 5804.067051 257.534034 
L 5803.817749 257.748952 
L 5803.630772 257.810357 
L 5803.443796 257.626142 
L 5803.38147 257.319116 
L 5803.506121 257.073496 
L 5803.506121 256.88928 
z
" clip-path="url(#p92d8699a65)" style="fill: #bdc3c7; stroke: #ffffff; stroke-width: 0.5"/>
    <path d="M 5801.761007 170.154542 
L 5802.010309 170.215948 
L 5802.259611 170.185245 
L 5802.69589 169.878219 
L 5803.007517 170.00103 
L 5803.630772 170.00103 
L 5803.817749 170.093137 
L 5803.9424 170.36946 
L 5803.630772 170.553676 
L 5803.256819 170.645783 
L 5802.945192 170.645783 
L 5802.69589 170.553676 
L 5802.446588 170.492271 
L 5802.13496 170.461568 
L 5801.885658 170.522973 
L 5801.823333 170.24665 
z
" clip-path="url(#p92d8699a65)" style="fill: #bdc3c7; stroke: #ffffff; stroke-width: 0.5"/>
    <path d="M 5812.418667 279.916202 
L 5812.418667 279.639879 
L 5812.418667 279.517069 
L 5812.667969 279.17934 
L 5812.730294 279.240745 
L 5812.79262 279.271448 
L 5812.854945 279.271448 
L 5812.917271 279.302151 
L 5812.979596 279.517069 
L 5813.041922 279.731986 
L 5813.041922 280.161822 
L 5813.166573 281.052197 
L 5812.917271 280.867981 
L 5812.667969 280.560956 
L 5812.543318 280.223227 
z
" clip-path="url(#p92d8699a65)" style="fill: #bdc3c7; stroke: #ffffff; stroke-width: 0.5"/>
    <path d="M -354.626707 291.214745 
L -354.564381 290.877016 
L -354.315079 290.539288 
L -353.816475 290.508586 
L -353.941126 290.692801 
L -354.065777 290.723504 
L -354.190428 290.723504 
L -354.43973 290.754206 
L -354.315079 291.030529 
L -354.065777 291.27615 
L -353.75415 291.429663 
L -353.504848 291.368257 
L -353.567173 291.736688 
L -353.878801 291.705986 
L -354.502056 291.368257 
z
" clip-path="url(#p92d8699a65)" style="fill: #bdc3c7; stroke: #ffffff; stroke-width: 0.5"/>
    <path d="M 5851.621403 245.897763 
L 5851.870705 245.805655 
L 5851.995356 245.774953 
L 5852.057681 245.713548 
L 5852.057681 245.467927 
L 5852.120007 245.406522 
L 5852.306983 245.406522 
L 5852.49396 245.345117 
L 5852.680936 245.222307 
L 5852.805587 245.038091 
L 5852.805587 245.406522 
L 5852.680936 245.682845 
L 5852.49396 245.867061 
L 5852.182332 245.897763 
z
" clip-path="url(#p92d8699a65)" style="fill: #bdc3c7; stroke: #ffffff; stroke-width: 0.5"/>
    <path d="M 5831.365617 265.086864 
L 5831.552594 265.332485 
L 5831.864221 265.793023 
L 5832.175849 266.007941 
L 5832.487476 266.100049 
L 5832.425151 266.222859 
L 5832.425151 266.284264 
L 5832.362825 266.345669 
L 5832.238174 266.222859 
L 5832.113523 266.284264 
L 5832.051198 266.284264 
L 5831.926547 266.161454 
L 5831.73957 266.130751 
L 5831.427943 265.424593 
z
" clip-path="url(#p92d8699a65)" style="fill: #bdc3c7; stroke: #ffffff; stroke-width: 0.5"/>
    <path d="M -358.86484 274.297633 
L -358.553213 273.775689 
L -357.929958 273.468664 
L -357.493679 273.806392 
L -357.244377 274.052012 
L -357.182052 274.359038 
L -357.244377 274.666064 
L -357.431354 274.819577 
L -358.054609 274.819577 
L -358.241585 274.788874 
L -358.366236 274.696766 
L -358.428562 274.604659 
L -358.553213 274.573956 
z
" clip-path="url(#p92d8699a65)" style="fill: #bdc3c7; stroke: #ffffff; stroke-width: 0.5"/>
    <path d="M 5836.289331 263.214008 
L 5836.289331 263.029793 
L 5836.413982 262.937685 
L 5836.663284 263.091198 
L 5836.72561 263.275413 
L 5836.974912 263.828059 
L 5837.037237 264.104382 
L 5836.850261 264.104382 
L 5836.787935 263.889464 
L 5836.72561 263.705249 
L 5836.600959 263.582439 
L 5836.413982 263.459629 
z
" clip-path="url(#p92d8699a65)" style="fill: #bdc3c7; stroke: #ffffff; stroke-width: 0.5"/>
    <path d="M 5828.685621 244.669661 
L 5829.184225 244.393338 
L 5829.308876 244.485445 
L 5829.495852 244.516148 
L 5829.620503 244.485445 
L 5829.745154 244.393338 
L 5829.620503 244.577553 
L 5829.495852 244.731066 
L 5829.24655 244.823173 
L 5828.934923 244.792471 
L 5828.810272 244.761768 
L 5828.747946 244.731066 
z
" clip-path="url(#p92d8699a65)" style="fill: #bdc3c7; stroke: #ffffff; stroke-width: 0.5"/>
    <path d="M -350.450898 268.771172 
L -350.076946 268.279931 
L -349.32904 268.218526 
L -349.142063 268.310633 
L -348.76811 268.556254 
L -348.518808 268.832577 
L -348.394157 269.139603 
L -348.581134 269.477331 
L -348.955087 269.661546 
L -349.391365 269.661546 
L -349.827644 269.600141 
L -350.326247 269.35452 
z
" clip-path="url(#p92d8699a65)" style="fill: #bdc3c7; stroke: #ffffff; stroke-width: 0.5"/>
    <path d="M -360.360652 286.394442 
L -360.173676 286.210227 
L -359.924374 286.056714 
L -359.737397 285.933904 
L -359.488095 285.872499 
L -359.550421 285.995309 
L -359.612746 286.118119 
L -359.737397 286.210227 
L -359.799723 286.302335 
L -359.924374 286.36374 
L -360.11135 286.425145 
L -360.236001 286.425145 
z
" clip-path="url(#p92d8699a65)" style="fill: #bdc3c7; stroke: #ffffff; stroke-width: 0.5"/>
    <path d="M -376.627606 288.420812 
L -376.502955 287.898868 
L -376.253653 287.131304 
L -375.630398 287.192709 
L -375.19412 287.714653 
L -375.568073 288.267299 
L -375.692724 287.653247 
L -376.066677 287.591842 
L -376.378304 287.868165 
L -376.315979 288.205894 
L -376.191328 288.574324 
L -376.44063 288.635729 
z
" clip-path="url(#p92d8699a65)" style="fill: #bdc3c7; stroke: #ffffff; stroke-width: 0.5"/>
    <path d="M 5823.824232 248.292563 
L 5823.948883 248.292563 
L 5824.073534 248.384671 
L 5824.322836 248.415373 
L 5824.759115 248.415373 
L 5824.696789 248.783804 
L 5824.82144 248.968019 
L 5824.759115 249.060127 
L 5824.322836 249.029424 
L 5824.011209 249.152235 
L 5823.886558 248.937317 
z
" clip-path="url(#p92d8699a65)" style="fill: #bdc3c7; stroke: #ffffff; stroke-width: 0.5"/>
    <path d="M -351.572757 291.736688 
L -351.572757 291.675283 
L -351.510432 291.583175 
L -351.198804 290.938422 
L -351.074153 290.846314 
L -351.011828 291.184042 
L -351.011828 291.552473 
L -351.136479 291.644581 
L -351.323455 291.644581 
L -351.510432 291.767391 
z
" clip-path="url(#p92d8699a65)" style="fill: #bdc3c7; stroke: #ffffff; stroke-width: 0.5"/>
    <path d="M -356.93275 318.662835 
L -356.870424 318.540025 
L -356.808099 318.386512 
L -356.808099 318.540025 
L -356.745773 318.693538 
L -356.621122 318.816348 
L -356.496471 318.908456 
L -356.558797 318.908456 
L -356.683448 318.908456 
L -356.808099 318.785645 
z
" clip-path="url(#p92d8699a65)" style="fill: #bdc3c7; stroke: #ffffff; stroke-width: 0.5"/>
    <path d="M -362.915997 269.722951 
L -362.60437 269.477331 
L -362.417393 269.538736 
L -362.105766 269.722951 
L -362.04344 270.152787 
L -362.04344 270.398408 
L -362.355068 270.490515 
L -362.60437 270.367705 
L -362.729021 270.152787 
z
" clip-path="url(#p92d8699a65)" style="fill: #bdc3c7; stroke: #ffffff; stroke-width: 0.5"/>
    <path d="M -378.871324 243.809989 
L 5853.615819 242.888912 
L 5853.615819 242.919615 
L 5853.366517 243.410856 
L 5853.366517 243.625773 
L 5853.366517 243.779286 
L 5853.428842 243.840691 
L 5853.491168 243.840691 
L 5853.615819 243.809989 
z
" clip-path="url(#p92d8699a65)" style="fill: #bdc3c7; stroke: #ffffff; stroke-width: 0.5"/>
    <path d="M 5841.960951 240.033574 
L 5841.960951 239.910763 
L 5842.584206 239.910763 
L 5842.833508 239.972169 
L 5843.020485 240.033574 
L 5842.833508 240.156384 
L 5842.584206 240.187087 
L 5842.272579 240.156384 
z
" clip-path="url(#p92d8699a65)" style="fill: #bdc3c7; stroke: #ffffff; stroke-width: 0.5"/>
    <path d="M 5759.9406 337.268588 
L 5760.002926 337.05367 
L 5760.376879 337.05367 
L 5760.563855 337.17648 
L 5760.688506 337.422101 
L 5760.626181 337.667721 
L 5760.376879 337.821234 
L 5760.065251 337.575613 
z
" clip-path="url(#p92d8699a65)" style="fill: #bdc3c7; stroke: #ffffff; stroke-width: 0.5"/>
    <path d="M -353.19322 282.157489 
L -353.068569 281.942571 
L -352.881593 281.850463 
L -352.694616 282.003976 
L -352.632291 282.188191 
L -352.756942 282.341704 
L -352.881593 282.464514 
L -353.006244 282.433812 
z
" clip-path="url(#p92d8699a65)" style="fill: #bdc3c7; stroke: #ffffff; stroke-width: 0.5"/>
    <path d="M -361.046233 287.898868 
L -361.046233 287.469032 
L -360.859256 287.223412 
L -360.609954 287.192709 
L -360.360652 287.499735 
L -360.360652 287.990976 
L -360.609954 288.298001 
L -360.921582 288.298001 
z
" clip-path="url(#p92d8699a65)" style="fill: #bdc3c7; stroke: #ffffff; stroke-width: 0.5"/>
    <path d="M -364.287158 257.104198 
L -364.287158 256.76647 
L -364.100182 256.674362 
L -363.913205 256.735767 
L -363.788554 256.981388 
L -363.85088 257.196306 
L -363.975531 257.319116 
L -364.162507 257.288414 
z
" clip-path="url(#p92d8699a65)" style="fill: #bdc3c7; stroke: #ffffff; stroke-width: 0.5"/>
    <path d="M -364.598786 260.143752 
L -364.411809 259.898131 
L -364.100182 259.867429 
L -363.913205 260.082347 
L -363.85088 260.420075 
L -363.913205 260.696398 
L -364.287158 260.727101 
L -364.53646 260.48148 
z
" clip-path="url(#p92d8699a65)" style="fill: #bdc3c7; stroke: #ffffff; stroke-width: 0.5"/>
    <path d="M -367.403433 265.946536 
L -367.341108 265.608808 
L -367.091806 265.332485 
L -366.717853 265.301782 
L -366.406225 265.608808 
L -366.406225 265.977239 
L -366.717853 266.222859 
L -367.154131 266.161454 
z
" clip-path="url(#p92d8699a65)" style="fill: #bdc3c7; stroke: #ffffff; stroke-width: 0.5"/>
    <path d="M -378.871324 237.055425 
L -378.871324 236.686994 
L -378.684348 236.502779 
L -378.435046 236.349266 
L -377.811791 236.195753 
L -377.998767 236.564184 
L -378.185744 236.779102 
L -378.497371 236.932615 
z
" clip-path="url(#p92d8699a65)" style="fill: #bdc3c7; stroke: #ffffff; stroke-width: 0.5"/>
    <path d="M -348.207181 303.710687 
L -348.207181 303.587877 
L -348.144855 303.465067 
L -347.957879 303.342257 
L -348.020204 303.465067 
L -348.08253 303.587877 
L -348.144855 303.802795 
z
" clip-path="url(#p92d8699a65)" style="fill: #bdc3c7; stroke: #ffffff; stroke-width: 0.5"/>
   </g>
   <g id="PatchCollection_2">
    <path d="M 146.719573 263.091198 
L 146.844224 262.231526 
L 147.342828 261.709583 
L 148.028408 261.433259 
L 148.838639 261.218342 
L 149.586545 261.156936 
L 150.396777 261.279747 
L 151.082357 261.586772 
L 151.705612 261.985906 
L 151.830263 262.170121 
L 152.01724 262.415741 
L 152.079565 262.692065 
L 152.141891 263.029793 
L 152.079565 264.227193 
L 152.141891 264.595623 
L 152.578169 265.117567 
L 153.26375 265.301782 
L 154.63491 265.455295 
L 155.008863 265.915834 
L 155.258165 266.744803 
L 155.133514 267.543069 
L 154.510259 267.972905 
L 154.260957 267.9115 
L 153.326075 267.635177 
L 153.014448 267.512367 
L 152.453518 266.775505 
L 152.01724 265.977239 
L 151.892589 265.332485 
L 151.767938 265.209675 
L 151.643287 265.209675 
L 151.518636 265.332485 
L 151.45631 265.5167 
L 151.393985 265.578105 
L 151.020032 265.63951 
L 150.022824 265.977239 
L 149.648871 265.977239 
L 149.399569 265.946536 
L 148.838639 265.731618 
L 147.841432 265.578105 
L 147.654455 265.455295 
L 147.342828 264.380705 
L 147.218177 264.227193 
L 147.0312 264.104382 
L 146.906549 263.797357 
L 146.781898 263.428926 
z
" clip-path="url(#p92d8699a65)" style="fill: #e74c3c; stroke: #ffffff; stroke-width: 0.6"/>
    <path d="M 327.962111 121.061146 
L 327.962111 120.784823 
L 328.024437 120.539202 
L 328.523041 120.354987 
L 330.081178 119.464613 
L 330.704433 119.341802 
L 331.203037 119.43391 
L 331.390013 119.802341 
L 331.639315 120.047961 
L 331.950943 120.201474 
L 332.324896 120.293582 
L 332.636523 120.324284 
L 333.072802 120.416392 
L 333.259778 120.447095 
L 333.446755 120.416392 
L 333.571406 120.324284 
L 333.696057 120.232177 
L 333.758382 120.170771 
L 334.132335 120.140069 
L 334.07001 120.324284 
L 333.197453 121.091848 
L 332.8235 121.245361 
L 332.387221 121.368171 
L 331.701641 121.429576 
L 330.766758 121.398874 
L 330.579782 121.368171 
L 330.455131 121.306766 
L 330.268154 121.276064 
L 330.081178 121.306766 
L 329.956527 121.368171 
L 329.956527 121.920817 
L 329.894201 122.227843 
L 329.707225 122.227843 
L 329.457923 122.135735 
L 328.772343 121.982223 
L 328.460715 121.767305 
L 328.211413 121.521684 
L 328.086762 121.306766 
z
" clip-path="url(#p92d8699a65)" style="fill: #e74c3c; stroke: #ffffff; stroke-width: 0.6"/>
    <path d="M 309.077486 103.49928 
L 309.326788 102.823824 
L 309.887718 102.731716 
L 312.06911 103.100147 
L 312.630039 103.100147 
L 312.75469 103.069444 
L 313.003992 102.915932 
L 313.128643 102.854526 
L 313.128643 102.946634 
L 313.128643 103.008039 
L 313.066318 103.038742 
L 312.941667 103.192255 
L 312.75469 103.49928 
L 313.253294 103.929116 
L 313.377945 104.144034 
L 313.377945 104.543167 
L 313.31562 104.81949 
L 313.066318 104.788788 
L 312.692365 104.481762 
L 312.567714 104.880896 
L 312.318412 105.157219 
L 311.944459 105.218624 
L 311.695157 104.973003 
L 311.570506 104.973003 
L 311.38353 105.187921 
L 310.697949 105.402839 
L 310.510973 105.556352 
L 310.448647 105.863378 
L 310.261671 105.801972 
L 310.012369 105.587054 
L 309.700741 105.372137 
L 309.57609 105.126516 
L 309.389114 104.266844 
L 309.326788 103.929116 
L 309.326788 103.775603 
L 309.139812 103.62209 
z
" clip-path="url(#p92d8699a65)" style="fill: #e74c3c; stroke: #ffffff; stroke-width: 0.6"/>
    <path d="M 374.581581 278.93372 
L 374.955534 278.780207 
L 375.516464 278.995125 
L 376.015068 279.332853 
L 376.26437 279.609176 
L 377.136926 279.946904 
L 377.573205 280.25393 
L 377.448554 280.653063 
L 377.448554 280.622361 
L 377.448554 280.530253 
L 377.448554 280.407443 
L 377.386228 280.284633 
L 377.323903 280.13112 
L 377.136926 280.039012 
L 376.94995 279.946904 
L 376.389021 279.762689 
L 376.26437 279.701284 
L 376.139719 279.609176 
L 376.077393 279.517069 
L 375.890417 279.363556 
L 375.080185 278.93372 
L 374.893209 278.872315 
L 374.830883 278.964422 
L 374.830883 279.117935 
L 374.830883 279.17934 
L 374.768558 279.117935 
L 374.768558 279.025828 
L 374.706232 278.964422 
z
" clip-path="url(#p92d8699a65)" style="fill: #e74c3c; stroke: #ffffff; stroke-width: 0.6"/>
    <path d="M 141.484231 261.126234 
L 141.671208 260.911316 
L 141.982835 260.757803 
L 142.294462 260.757803 
L 142.419113 260.911316 
L 142.481439 261.095531 
L 142.60609 261.095531 
L 142.730741 261.034126 
L 142.793066 260.972721 
L 142.917717 260.942018 
L 143.042368 260.880613 
L 143.167019 260.849911 
L 143.353996 260.972721 
L 143.416321 260.757803 
L 143.540972 260.634993 
L 143.790274 260.60429 
L 144.039576 260.60429 
L 144.226553 260.696398 
L 144.226553 260.880613 
L 143.8526 261.67888 
L 143.603298 262.170121 
L 143.229345 262.477147 
L 142.917717 262.477147 
L 142.481439 262.262229 
L 141.982835 261.893798 
L 141.608882 261.463962 
z
" clip-path="url(#p92d8699a65)" style="fill: #e74c3c; stroke: #ffffff; stroke-width: 0.6"/>
    <path d="M 328.460715 124.837561 
L 328.460715 124.499833 
L 328.523041 124.131402 
L 328.460715 123.793674 
L 328.647692 123.578756 
L 328.834668 123.14892 
L 329.146296 122.841894 
L 329.520249 123.056812 
L 329.76955 123.14892 
L 329.956527 123.302433 
L 330.143503 123.486648 
L 330.081178 123.548053 
L 329.956527 123.578756 
L 329.956527 123.640161 
L 329.894201 123.732269 
L 329.894201 123.793674 
L 329.76955 123.855079 
L 329.582574 123.885781 
L 329.520249 123.916484 
L 329.270947 124.192807 
L 328.896994 124.898966 
L 328.647692 125.144586 
z
" clip-path="url(#p92d8699a65)" style="fill: #e74c3c; stroke: #ffffff; stroke-width: 0.6"/>
    <path d="M 113.811711 245.560035 
L 113.811711 245.437225 
L 113.936362 244.792471 
L 114.123339 244.577553 
L 114.497292 244.516148 
L 114.995896 244.54685 
L 114.93357 244.700363 
L 114.871245 244.792471 
L 115.245198 244.761768 
L 115.432174 244.792471 
L 115.4945 244.853876 
L 115.4945 244.915281 
L 115.619151 245.068794 
L 115.619151 245.160902 
L 115.556825 245.253009 
L 115.432174 245.314414 
L 115.245198 245.406522 
L 115.245198 245.989871 
L 115.182872 246.235491 
L 114.995896 246.143384 
L 114.871245 246.081978 
L 113.936362 245.652143 
z
" clip-path="url(#p92d8699a65)" style="fill: #e74c3c; stroke: #ffffff; stroke-width: 0.6"/>
    <path d="M 114.621943 247.89343 
L 114.684268 247.617107 
L 114.871245 247.402189 
L 115.120547 247.371486 
L 115.432174 247.432891 
L 115.743802 247.586404 
L 115.868453 247.709214 
L 116.055429 248.169753 
L 117.114963 249.582071 
L 116.865661 249.735583 
L 116.242406 250.073312 
L 115.993104 250.134717 
L 115.868453 250.011906 
L 115.743802 250.011906 
L 115.743802 250.196122 
L 115.681476 250.288229 
L 115.556825 250.349635 
L 115.432174 250.380337 
L 115.245198 250.380337 
L 114.93357 250.165419 
L 114.746594 249.551368 
z
" clip-path="url(#p92d8699a65)" style="fill: #e74c3c; stroke: #ffffff; stroke-width: 0.6"/>
    <path d="M 299.105407 267.696582 
L 299.105407 267.481664 
L 299.167733 267.266746 
L 299.354709 266.83691 
L 299.728662 266.46848 
L 300.102615 265.823726 
L 300.72587 265.424593 
L 301.97238 264.841244 
L 302.346333 264.595623 
L 302.782611 264.657028 
L 302.907262 265.025459 
L 302.720286 265.39389 
L 302.408658 265.700916 
L 301.847729 266.345669 
L 301.037497 266.83691 
L 300.476568 267.266746 
L 300.04029 267.757987 
L 299.853313 267.850095 
L 299.541686 267.850095 
L 299.292384 267.78869 
z
" clip-path="url(#p92d8699a65)" style="fill: #e74c3c; stroke: #ffffff; stroke-width: 0.6"/>
    <path d="M 226.99481 206.905509 
L 227.867367 206.045838 
L 228.615273 205.616002 
L 228.989226 205.216868 
L 228.552947 205.401084 
L 227.805041 205.462489 
L 226.99481 205.677407 
L 227.306437 205.462489 
L 227.742716 205.370381 
L 228.490622 205.308976 
L 228.864575 205.094058 
L 229.051551 205.032653 
L 229.176202 205.094058 
L 229.113877 205.278273 
L 229.113877 205.370381 
L 228.739924 205.646704 
L 228.178994 205.984432 
L 227.992018 206.045838 
L 227.867367 206.168648 
L 227.306437 206.721294 
z
" clip-path="url(#p92d8699a65)" style="fill: #e74c3c; stroke: #ffffff; stroke-width: 0.6"/>
    <path d="M 122.474955 248.353968 
L 122.599606 248.108348 
L 122.786583 248.01624 
L 122.973559 248.01624 
L 123.09821 247.954835 
L 123.160536 247.801322 
L 123.285187 247.832024 
L 123.472163 247.954835 
L 123.534489 248.169753 
L 123.534489 248.292563 
L 123.534489 248.538183 
L 123.472163 248.691696 
L 123.285187 248.660994 
L 123.285187 248.783804 
L 123.222861 248.845209 
L 123.09821 248.906614 
L 122.973559 248.906614 
L 122.661932 248.630291 
L 122.537281 248.507481 
z
" clip-path="url(#p92d8699a65)" style="fill: #e74c3c; stroke: #ffffff; stroke-width: 0.6"/>
    <path d="M 320.046773 104.788788 
L 320.607703 104.113331 
L 320.732354 104.113331 
L 320.857005 104.328249 
L 320.981656 104.328249 
L 321.293283 104.236142 
L 321.48026 104.297547 
L 322.041189 104.604572 
L 322.228166 104.850193 
L 322.16584 105.095813 
L 321.854213 105.280029 
L 321.542585 105.372137 
L 320.794679 105.402839 
L 320.483052 105.556352 
L 320.23375 105.863378 
L 320.358401 105.587054 
L 320.23375 105.341434 
L 320.109099 105.065111 
z
" clip-path="url(#p92d8699a65)" style="fill: #e74c3c; stroke: #ffffff; stroke-width: 0.6"/>
    <path d="M 216.461801 235.735215 
L 216.461801 235.428189 
L 216.586452 236.318564 
L 216.835754 236.7484 
L 217.085056 237.669476 
L 217.459009 238.559851 
L 217.895288 239.051092 
L 218.393891 240.094979 
L 218.705519 240.309897 
L 218.518542 240.064276 
L 218.082264 239.051092 
L 217.396684 238.222123 
L 217.334358 238.06861 
L 217.209707 237.853692 
L 217.085056 236.901912 
L 216.960405 236.686994 
L 216.773429 236.533482 
L 216.586452 236.165051 
z
" clip-path="url(#p92d8699a65)" style="fill: #e74c3c; stroke: #ffffff; stroke-width: 0.6"/>
    <path d="M 238.33805 444.635447 
L 238.525026 444.144206 
L 238.898979 444.021396 
L 239.210607 444.205611 
L 239.335258 444.359124 
L 239.459909 444.512637 
L 239.397583 444.604745 
L 239.148281 444.819663 
L 239.085956 444.881068 
L 239.148281 444.91177 
L 239.148281 445.249499 
L 239.210607 445.280201 
L 239.085956 445.495119 
L 238.961305 445.617929 
L 238.774328 445.648632 
L 238.525026 445.495119 
L 238.400375 445.188093 
z
" clip-path="url(#p92d8699a65)" style="fill: #e74c3c; stroke: #ffffff; stroke-width: 0.6"/>
    <path d="M 338.432794 321.026932 
L 338.49512 320.965527 
L 338.682096 320.904122 
L 338.744422 320.904122 
L 338.869073 320.904122 
L 339.243026 321.518173 
L 339.367677 322.31644 
L 338.993724 322.654168 
L 339.243026 322.347143 
L 339.305351 322.162927 
L 338.869073 321.057635 
L 338.806747 320.965527 
L 338.744422 320.934825 
z
" clip-path="url(#p92d8699a65)" style="fill: #e74c3c; stroke: #ffffff; stroke-width: 0.6"/>
    <path d="M 336.126751 132.636012 
L 336.750006 132.666714 
L 336.999308 132.728119 
L 337.24861 132.881632 
L 337.497912 133.464981 
L 337.497912 134.17114 
L 337.24861 134.754488 
L 336.625355 134.877299 
L 336.376053 134.754488 
L 336.251402 134.447463 
L 336.251402 134.109735 
L 336.500704 133.495683 
L 336.438378 133.21936 
z
" clip-path="url(#p92d8699a65)" style="fill: #e74c3c; stroke: #ffffff; stroke-width: 0.6"/>
    <path d="M 310.884926 113.44691 
L 311.196553 113.20129 
L 311.508181 112.894264 
L 311.882134 112.617941 
L 312.318412 112.587239 
L 312.692365 112.986372 
L 312.879341 113.07848 
L 313.128643 112.955669 
L 312.941667 113.508315 
L 312.75469 114.122367 
L 312.567714 114.613608 
L 312.006785 114.828526 
L 311.695157 114.675013 
z
" clip-path="url(#p92d8699a65)" style="fill: #e74c3c; stroke: #ffffff; stroke-width: 0.6"/>
    <path d="M 301.037497 89.038374 
L 301.037497 88.362917 
L 301.41145 87.840974 
L 301.97238 87.626056 
L 302.595635 87.779568 
L 302.346333 87.994486 
L 302.221682 88.025189 
L 301.910054 88.086594 
L 301.785403 88.240107 
L 301.660752 88.792753 
L 301.536101 89.038374 
L 301.349125 89.253291 
L 301.224474 89.253291 
z
" clip-path="url(#p92d8699a65)" style="fill: #e74c3c; stroke: #ffffff; stroke-width: 0.6"/>
    <path d="M 287.949144 258.485814 
L 288.323097 258.424408 
L 288.634724 258.547219 
L 288.759375 258.854244 
L 288.759375 258.915649 
L 288.759375 259.130567 
L 288.759375 259.253378 
L 288.759375 259.16127 
L 288.759375 259.130567 
L 288.69705 258.854244 
L 288.634724 258.700731 
L 288.447748 258.577921 
L 288.198446 258.516516 
z
" clip-path="url(#p92d8699a65)" style="fill: #e74c3c; stroke: #ffffff; stroke-width: 0.6"/>
    <path d="M 205.991118 221.673442 
L 206.053444 221.673442 
L 206.178095 221.765549 
L 206.302746 221.796252 
L 206.365071 221.88836 
L 206.427397 222.103277 
L 206.365071 222.318195 
L 206.24042 222.870842 
L 206.302746 222.533113 
L 206.365071 222.103277 
L 206.302746 221.949765 
L 206.24042 221.826954 
L 206.178095 221.765549 
z
" clip-path="url(#p92d8699a65)" style="fill: #e74c3c; stroke: #ffffff; stroke-width: 0.6"/>
    <path d="M 122.225653 247.463594 
L 122.287979 247.248676 
L 122.474955 246.81884 
L 122.599606 246.603922 
L 122.661932 246.573219 
L 122.724257 246.849543 
L 123.035885 247.432891 
L 123.035885 247.524999 
L 122.911234 247.586404 
L 122.786583 247.709214 
L 122.599606 247.832024 
L 122.350304 247.89343 
L 122.287979 247.678512 
z
" clip-path="url(#p92d8699a65)" style="fill: #e74c3c; stroke: #ffffff; stroke-width: 0.6"/>
    <path d="M 116.304731 351.115443 
L 116.491708 350.747013 
L 116.678684 350.777715 
L 116.803335 350.96193 
L 116.990312 351.207551 
L 117.052637 351.361064 
L 116.990312 351.821602 
L 116.927986 352.312843 
L 116.803335 352.404951 
L 116.74101 352.435653 
L 116.678684 352.435653 
L 116.616359 351.944412 
L 116.429382 351.514577 
z
" clip-path="url(#p92d8699a65)" style="fill: #e74c3c; stroke: #ffffff; stroke-width: 0.6"/>
    <path d="M 369.844844 330.514024 
L 369.969495 330.329809 
L 370.094146 330.329809 
L 370.218797 330.452619 
L 370.281122 330.667537 
L 370.218797 330.667537 
L 370.218797 330.636834 
L 370.218797 330.606132 
L 370.156471 330.575429 
L 370.094146 330.514024 
L 370.03182 330.421916 
L 369.969495 330.421916 
z
" clip-path="url(#p92d8699a65)" style="fill: #e74c3c; stroke: #ffffff; stroke-width: 0.6"/>
    <path d="M 340.240234 258.823542 
L 340.240234 258.700731 
L 340.240234 258.639326 
L 340.302559 258.516516 
L 340.489536 258.20949 
L 340.863489 258.055978 
L 340.364885 258.516516 
L 340.302559 258.639326 
L 340.302559 258.670029 
L 340.42721 258.700731 
L 340.489536 258.731434 
L 340.614187 258.823542 
z
" clip-path="url(#p92d8699a65)" style="fill: #e74c3c; stroke: #ffffff; stroke-width: 0.6"/>
    <path d="M 306.459815 300.609729 
L 306.771443 300.364108 
L 306.958419 300.179893 
L 306.896094 299.964975 
L 306.459815 299.688652 
L 306.584466 299.627247 
L 306.771443 299.719354 
L 307.020745 299.90357 
L 307.08307 300.087785 
L 307.08307 300.333406 
L 306.896094 300.456216 
L 306.709117 300.548324 
z
" clip-path="url(#p92d8699a65)" style="fill: #e74c3c; stroke: #ffffff; stroke-width: 0.6"/>
    <path d="M 296.799364 271.442295 
L 297.54727 272.087049 
L 297.734246 272.301966 
L 298.108199 273.038828 
L 298.918431 273.652879 
L 299.354709 274.297633 
L 299.230058 273.806392 
L 298.918431 273.437961 
L 298.419827 273.069531 
L 298.045874 272.7011 
L 297.609595 271.872131 
L 296.924015 271.565105 
z
" clip-path="url(#p92d8699a65)" style="fill: #e74c3c; stroke: #ffffff; stroke-width: 0.6"/>
    <path d="M 245.505482 242.152051 
L 245.567807 242.152051 
L 245.94176 242.244158 
L 246.50269 242.336266 
L 246.751992 242.459076 
L 247.250596 243.042425 
L 247.437572 243.380153 
L 247.562223 243.779286 
L 247.437572 243.748584 
L 247.001294 242.950317 
L 246.440364 242.520481 
L 245.879435 242.305563 
z
" clip-path="url(#p92d8699a65)" style="fill: #e74c3c; stroke: #ffffff; stroke-width: 0.6"/>
    <path d="M 61.9569 230.208754 
L 62.143876 230.147349 
L 62.268527 230.270159 
L 62.268527 230.454374 
L 62.330853 230.669292 
L 62.268527 230.7614 
L 62.143876 230.853508 
L 62.081551 230.822805 
L 62.206202 230.699995 
L 62.268527 230.485077 
L 62.206202 230.362267 
L 62.143876 230.239456 
z
" clip-path="url(#p92d8699a65)" style="fill: #e74c3c; stroke: #ffffff; stroke-width: 0.6"/>
    <path d="M 300.102615 276.446812 
L 300.538893 276.784541 
L 301.723078 277.429294 
L 301.847729 277.674915 
L 301.97238 277.920535 
L 301.97238 277.85913 
L 301.847729 277.644212 
L 301.598427 277.429294 
L 300.601219 276.968756 
L 300.289592 276.723135 
L 300.164941 276.508217 
z
" clip-path="url(#p92d8699a65)" style="fill: #e74c3c; stroke: #ffffff; stroke-width: 0.6"/>
    <path d="M 260.089647 267.66588 
L 260.276624 267.389557 
L 260.4636 267.450962 
L 260.650577 267.9115 
L 260.650577 267.942203 
L 260.588251 267.850095 
L 260.4636 267.696582 
L 260.401275 267.512367 
L 260.338949 267.66588 
L 260.276624 267.757987 
L 260.151973 267.757987 
z
" clip-path="url(#p92d8699a65)" style="fill: #e74c3c; stroke: #ffffff; stroke-width: 0.6"/>
    <path d="M 259.964996 251.97687 
L 260.151973 251.97687 
L 260.338949 252.038275 
L 260.4636 252.161086 
L 260.588251 252.314599 
L 260.525926 252.345301 
L 260.401275 252.345301 
L 260.338949 252.283896 
L 260.214298 252.253193 
L 260.089647 252.130383 
L 260.027322 252.068978 
z
" clip-path="url(#p92d8699a65)" style="fill: #e74c3c; stroke: #ffffff; stroke-width: 0.6"/>
    <path d="M 242.451532 247.432891 
L 242.451532 247.340783 
L 242.451532 247.279378 
L 242.513858 247.125866 
L 243.012462 247.033758 
L 243.261764 247.279378 
L 243.44874 247.617107 
L 243.511066 247.801322 
L 243.261764 247.586404 
L 243.074787 247.248676 
L 242.825485 247.095163 
z
" clip-path="url(#p92d8699a65)" style="fill: #e74c3c; stroke: #ffffff; stroke-width: 0.6"/>
    <path d="M 222.507374 210.159981 
L 222.694351 209.66874 
L 223.068304 208.901176 
L 222.756676 209.822253 
L 222.632025 210.221386 
L 223.005978 210.129278 
L 223.691559 209.638037 
L 223.504582 209.883658 
L 223.192955 210.129278 
L 222.881327 210.313494 
L 222.5697 210.374899 
z
" clip-path="url(#p92d8699a65)" style="fill: #e74c3c; stroke: #ffffff; stroke-width: 0.6"/>
    <path d="M 179.876736 377.120513 
L 179.876736 376.967001 
L 180.188363 376.874893 
L 180.499991 376.782785 
L 181.247897 376.752083 
L 181.185571 376.874893 
L 181.06092 376.967001 
L 180.998595 377.028406 
L 180.873944 377.120513 
L 180.313014 377.212621 
L 180.126038 377.212621 
z
" clip-path="url(#p92d8699a65)" style="fill: #e74c3c; stroke: #ffffff; stroke-width: 0.6"/>
    <path d="M 170.27861 230.88421 
L 170.340935 230.515779 
L 170.590237 230.392969 
L 170.652563 230.485077 
L 170.839539 230.914913 
L 170.96419 231.068426 
L 171.151167 231.221938 
L 171.151167 231.375451 
L 170.96419 231.498261 
L 170.777214 231.559667 
L 170.403261 231.314046 
z
" clip-path="url(#p92d8699a65)" style="fill: #e74c3c; stroke: #ffffff; stroke-width: 0.6"/>
    <path d="M 72.115955 248.046942 
L 72.240606 248.046942 
L 72.302932 248.13905 
L 72.365257 248.292563 
L 72.365257 248.476778 
L 72.489908 248.660994 
L 72.614559 248.906614 
L 72.614559 249.09083 
L 72.552234 249.09083 
L 72.427583 248.875912 
L 72.240606 248.292563 
z
" clip-path="url(#p92d8699a65)" style="fill: #e74c3c; stroke: #ffffff; stroke-width: 0.6"/>
    <path d="M 236.842238 239.787953 
L 236.966889 239.818656 
L 236.966889 239.849358 
L 236.966889 239.910763 
L 237.216191 239.818656 
L 237.527818 239.880061 
L 237.77712 240.033574 
L 237.901771 240.156384 
L 237.340842 239.972169 
L 237.029214 240.033574 
z
" clip-path="url(#p92d8699a65)" style="fill: #e74c3c; stroke: #ffffff; stroke-width: 0.6"/>
    <path d="M 148.713988 368.247473 
L 148.713988 367.940447 
L 148.776314 367.84834 
L 149.025616 367.786934 
L 149.461894 367.756232 
L 149.898173 367.909745 
L 150.022824 368.186068 
L 149.773522 368.462391 
L 149.025616 368.523796 
L 148.838639 368.431688 
z
" clip-path="url(#p92d8699a65)" style="fill: #e74c3c; stroke: #ffffff; stroke-width: 0.6"/>
    <path d="M 399.823407 363.519278 
L 399.823407 363.396468 
L 400.197359 363.365766 
L 400.758289 362.905227 
L 401.194567 362.782417 
L 401.069916 363.028037 
L 400.446661 363.764899 
L 400.259685 363.734196 
L 400.135034 363.703494 
z
" clip-path="url(#p92d8699a65)" style="fill: #e74c3c; stroke: #ffffff; stroke-width: 0.6"/>
    <path d="M 327.214205 294.622729 
L 327.401182 294.622729 
L 327.525833 294.714837 
L 327.525833 294.899052 
L 327.401182 295.052565 
L 327.463507 294.899052 
L 327.401182 294.806944 
L 327.401182 294.745539 
L 327.338856 294.653432 
z
" clip-path="url(#p92d8699a65)" style="fill: #e74c3c; stroke: #ffffff; stroke-width: 0.6"/>
    <path d="M 224.252488 229.564 
L 224.751092 229.656108 
L 225.000394 229.993836 
L 225.436672 230.822805 
L 225.935276 231.375451 
L 226.059927 231.713179 
L 226.059927 232.20442 
L 225.7483 231.406154 
L 224.813417 229.932431 
z
" clip-path="url(#p92d8699a65)" style="fill: #e74c3c; stroke: #ffffff; stroke-width: 0.6"/>
    <path d="M 217.521335 224.006836 
L 218.705519 224.436672 
L 219.141797 224.52878 
L 219.391099 224.52878 
L 219.51575 224.590185 
L 219.578076 224.682293 
L 219.453425 224.805103 
L 219.141797 224.559482 
L 218.019939 224.344565 
z
" clip-path="url(#p92d8699a65)" style="fill: #e74c3c; stroke: #ffffff; stroke-width: 0.6"/>
    <path d="M 172.086049 214.366232 
L 172.833955 214.427637 
L 173.581861 214.642555 
L 174.205116 215.072391 
L 174.329767 215.747847 
L 174.205116 215.502227 
L 173.955814 215.256606 
L 173.644186 214.980283 
L 173.207908 214.70396 
z
" clip-path="url(#p92d8699a65)" style="fill: #e74c3c; stroke: #ffffff; stroke-width: 0.6"/>
    <path d="M 375.70344 333.46147 
L 375.890417 333.246552 
L 376.077393 333.185147 
L 376.326695 333.246552 
L 376.326695 333.400065 
L 376.202044 333.307957 
L 376.015068 333.307957 
L 375.890417 333.33866 
z
" clip-path="url(#p92d8699a65)" style="fill: #e74c3c; stroke: #ffffff; stroke-width: 0.6"/>
    <path d="M 373.335071 331.005265 
L 373.646699 330.913157 
L 373.77135 331.035968 
L 373.709024 331.250886 
L 373.459722 331.435101 
L 373.646699 331.220183 
L 373.584373 331.128075 
L 373.459722 331.035968 
z
" clip-path="url(#p92d8699a65)" style="fill: #e74c3c; stroke: #ffffff; stroke-width: 0.6"/>
    <path d="M 301.099823 290.969124 
L 301.598427 290.692801 
L 302.034705 290.907719 
L 302.159356 291.306852 
L 301.723078 291.460365 
L 302.034705 291.122637 
L 301.847729 290.938422 
L 301.41145 290.877016 
z
" clip-path="url(#p92d8699a65)" style="fill: #e74c3c; stroke: #ffffff; stroke-width: 0.6"/>
    <path d="M 298.108199 230.945615 
L 298.108199 230.822805 
L 298.23285 230.699995 
L 298.731454 230.63859 
L 298.856105 230.63859 
L 298.731454 230.699995 
L 298.419827 231.037723 
L 298.23285 231.00702 
z
" clip-path="url(#p92d8699a65)" style="fill: #e74c3c; stroke: #ffffff; stroke-width: 0.6"/>
    <path d="M 291.688673 292.227929 
L 291.937975 291.982309 
L 292.187277 292.043714 
L 292.374254 292.320037 
L 292.311928 292.657765 
L 292.249603 292.381442 
L 292.124952 292.197227 
L 291.87565 292.135822 
z
" clip-path="url(#p92d8699a65)" style="fill: #e74c3c; stroke: #ffffff; stroke-width: 0.6"/>
    <path d="M 233.102708 229.256974 
L 233.102708 229.072759 
L 233.414336 229.042057 
L 233.601312 229.164867 
L 233.663638 229.379785 
L 233.476661 229.533298 
L 233.289685 229.533298 
L 233.165034 229.410487 
z
" clip-path="url(#p92d8699a65)" style="fill: #e74c3c; stroke: #ffffff; stroke-width: 0.6"/>
    <path d="M 202.812518 236.349266 
L 203.06182 235.950133 
L 203.560424 235.79662 
L 203.934377 236.042241 
L 204.059028 236.472077 
L 203.872051 236.932615 
L 203.373447 236.87121 
L 202.999494 236.656292 
z
" clip-path="url(#p92d8699a65)" style="fill: #e74c3c; stroke: #ffffff; stroke-width: 0.6"/>
    <path d="M 201.067404 230.178051 
L 201.129729 230.239456 
L 201.316706 230.392969 
L 201.379031 230.607887 
L 201.441357 230.730697 
L 201.379031 230.822805 
L 201.25438 230.485077 
L 201.192055 230.331564 
z
" clip-path="url(#p92d8699a65)" style="fill: #e74c3c; stroke: #ffffff; stroke-width: 0.6"/>
    <path d="M 147.654455 252.161086 
L 147.654455 252.099681 
L 147.654455 252.038275 
L 147.716781 251.915465 
L 147.841432 251.85406 
L 147.903757 251.85406 
L 147.966083 251.823358 
L 147.903757 251.946168 
z
" clip-path="url(#p92d8699a65)" style="fill: #e74c3c; stroke: #ffffff; stroke-width: 0.6"/>
    <path d="M 109.635903 242.950317 
L 109.698229 242.673994 
L 109.947531 242.551184 
L 110.134507 242.766102 
L 110.259158 243.134532 
L 110.259158 243.533666 
L 110.009856 243.533666 
L 109.760554 243.288045 
z
" clip-path="url(#p92d8699a65)" style="fill: #e74c3c; stroke: #ffffff; stroke-width: 0.6"/>
    <path d="M 334.194661 293.67095 
L 334.381637 293.640247 
L 334.506288 293.640247 
L 334.568614 293.701652 
L 334.443963 293.79376 
L 334.319312 293.763057 
L 334.256986 293.763057 
z
" clip-path="url(#p92d8699a65)" style="fill: #e74c3c; stroke: #ffffff; stroke-width: 0.6"/>
    <path d="M 333.883033 284.153155 
L 334.007684 284.153155 
L 334.132335 284.183858 
L 334.381637 284.245263 
L 334.506288 284.368073 
L 334.506288 284.429478 
L 334.506288 284.490884 
z
" clip-path="url(#p92d8699a65)" style="fill: #e74c3c; stroke: #ffffff; stroke-width: 0.6"/>
    <path d="M 310.635624 233.555333 
L 311.009577 233.217605 
L 311.445855 233.125497 
L 311.757483 233.248308 
L 311.695157 233.555333 
L 311.570506 233.27901 
L 311.134228 233.248308 
z
" clip-path="url(#p92d8699a65)" style="fill: #e74c3c; stroke: #ffffff; stroke-width: 0.6"/>
    <path d="M 301.910054 337.422101 
L 301.97238 336.869454 
L 302.346333 336.654537 
L 302.65796 336.900157 
L 303.156564 337.729126 
L 302.720286 338.005449 
L 302.221682 337.851936 
z
" clip-path="url(#p92d8699a65)" style="fill: #e74c3c; stroke: #ffffff; stroke-width: 0.6"/>
    <path d="M 252.17431 245.283712 
L 253.670121 245.160902 
L 254.044074 245.253009 
L 254.418027 245.529332 
L 254.978957 246.143384 
L 253.857098 245.345117 
L 252.922216 245.37582 
z
" clip-path="url(#p92d8699a65)" style="fill: #e74c3c; stroke: #ffffff; stroke-width: 0.6"/>
    <path d="M 240.893395 245.774953 
L 240.955721 245.652143 
L 241.142697 245.713548 
L 241.329674 245.897763 
L 241.454325 246.112681 
L 241.267348 246.051276 
L 241.142697 245.959168 
z
" clip-path="url(#p92d8699a65)" style="fill: #e74c3c; stroke: #ffffff; stroke-width: 0.6"/>
    <path d="M 239.335258 241.537999 
L 239.58456 241.722215 
L 239.896187 242.02924 
L 240.020838 242.366968 
L 239.958513 242.673994 
L 239.896187 242.305563 
L 239.833862 242.182753 
z
" clip-path="url(#p92d8699a65)" style="fill: #e74c3c; stroke: #ffffff; stroke-width: 0.6"/>
    <path d="M 205.056236 205.523894 
L 205.55484 205.585299 
L 205.741816 205.923027 
L 205.679491 206.322161 
L 205.305538 206.659889 
L 205.492514 206.260755 
L 205.617165 205.892325 
z
" clip-path="url(#p92d8699a65)" style="fill: #e74c3c; stroke: #ffffff; stroke-width: 0.6"/>
    <path d="M 198.699035 220.015503 
L 198.948337 220.076908 
L 199.135314 220.230421 
L 199.32229 220.476042 
L 199.384616 220.721662 
L 199.197639 220.445339 
L 199.010663 220.169016 
z
" clip-path="url(#p92d8699a65)" style="fill: #e74c3c; stroke: #ffffff; stroke-width: 0.6"/>
    <path d="M 187.97905 220.015503 
L 188.228352 220.015503 
L 188.290678 220.076908 
L 188.353003 220.230421 
L 188.228352 220.138314 
L 188.166027 220.107611 
L 188.103701 220.076908 
z
" clip-path="url(#p92d8699a65)" style="fill: #e74c3c; stroke: #ffffff; stroke-width: 0.6"/>
    <path d="M 371.589957 330.759645 
L 371.714608 330.759645 
L 371.776934 330.82105 
L 371.839259 330.94386 
L 371.839259 331.097373 
L 371.652283 330.851752 
z
" clip-path="url(#p92d8699a65)" style="fill: #e74c3c; stroke: #ffffff; stroke-width: 0.6"/>
    <path d="M 267.94266 261.832393 
L 268.378938 262.108716 
L 269.002193 262.569254 
L 269.313821 263.060495 
L 269.002193 263.459629 
L 269.18917 263.091198 
z
" clip-path="url(#p92d8699a65)" style="fill: #e74c3c; stroke: #ffffff; stroke-width: 0.6"/>
    <path d="M 253.483145 259.990239 
L 253.794772 259.959537 
L 254.1064 260.051644 
L 254.355702 260.205157 
L 254.542678 260.48148 
L 254.1064 260.143752 
z
" clip-path="url(#p92d8699a65)" style="fill: #e74c3c; stroke: #ffffff; stroke-width: 0.6"/>
    <path d="M 249.556639 244.54685 
L 250.179894 244.669661 
L 251.114776 245.437225 
L 251.800357 245.529332 
L 250.9278 245.467927 
L 250.242219 244.915281 
z
" clip-path="url(#p92d8699a65)" style="fill: #e74c3c; stroke: #ffffff; stroke-width: 0.6"/>
    <path d="M 211.22646 203.927361 
L 212.223668 203.743145 
L 212.59762 203.835253 
L 212.410644 204.295791 
L 212.47297 203.927361 
L 212.161342 203.865956 
z
" clip-path="url(#p92d8699a65)" style="fill: #e74c3c; stroke: #ffffff; stroke-width: 0.6"/>
    <path d="M 210.353903 205.677407 
L 210.914832 205.554597 
L 211.101809 205.493191 
L 210.914832 205.585299 
L 210.727856 205.646704 
L 210.540879 205.677407 
z
" clip-path="url(#p92d8699a65)" style="fill: #e74c3c; stroke: #ffffff; stroke-width: 0.6"/>
    <path d="M 163.173503 213.138129 
L 163.547456 213.199534 
L 164.04606 213.353047 
L 164.357688 213.567965 
L 164.233037 213.874991 
L 163.921409 213.475858 
z
" clip-path="url(#p92d8699a65)" style="fill: #e74c3c; stroke: #ffffff; stroke-width: 0.6"/>
    <path d="M 391.097837 333.737793 
L 391.47179 333.799198 
L 391.783418 333.922009 
L 392.095045 334.167629 
L 392.282022 334.505357 
z
" clip-path="url(#p92d8699a65)" style="fill: #e74c3c; stroke: #ffffff; stroke-width: 0.6"/>
    <path d="M 379.629946 343.685423 
L 380.066225 343.316992 
L 380.066225 343.378398 
L 380.003899 343.501208 
L 379.816923 343.624018 
z
" clip-path="url(#p92d8699a65)" style="fill: #e74c3c; stroke: #ffffff; stroke-width: 0.6"/>
    <path d="M 364.422526 275.188007 
L 364.858804 275.402925 
L 365.357408 275.863464 
L 365.856012 276.446812 
L 366.042988 276.938053 
z
" clip-path="url(#p92d8699a65)" style="fill: #e74c3c; stroke: #ffffff; stroke-width: 0.6"/>
    <path d="M 332.137919 340.737977 
L 332.449547 340.584464 
L 332.8235 340.64587 
L 333.197453 340.707275 
L 333.571406 340.737977 
z
" clip-path="url(#p92d8699a65)" style="fill: #e74c3c; stroke: #ffffff; stroke-width: 0.6"/>
    <path d="M 292.623556 200.611484 
L 292.810532 200.703592 
L 293.309136 201.072022 
L 293.184485 201.194833 
L 293.059834 201.072022 
z
" clip-path="url(#p92d8699a65)" style="fill: #e74c3c; stroke: #ffffff; stroke-width: 0.6"/>
    <path d="M 269.812425 235.950133 
L 269.937076 235.520297 
L 270.186378 235.059759 
L 270.43568 234.629923 
L 270.684982 234.322897 
z
" clip-path="url(#p92d8699a65)" style="fill: #e74c3c; stroke: #ffffff; stroke-width: 0.6"/>
    <path d="M 216.773429 258.393706 
L 216.773429 258.055978 
L 217.022731 259.130567 
L 216.89808 258.884947 
L 216.835754 258.670029 
z
" clip-path="url(#p92d8699a65)" style="fill: #e74c3c; stroke: #ffffff; stroke-width: 0.6"/>
    <path d="M 183.242312 217.037355 
L 183.616265 217.22157 
L 183.927893 217.436488 
L 184.488822 217.989134 
L 183.55394 217.252273 
z
" clip-path="url(#p92d8699a65)" style="fill: #e74c3c; stroke: #ffffff; stroke-width: 0.6"/>
    <path d="M 178.941853 219.73918 
L 179.066504 219.677775 
L 179.253481 219.769883 
L 179.440457 219.954098 
L 179.689759 220.076908 
z
" clip-path="url(#p92d8699a65)" style="fill: #e74c3c; stroke: #ffffff; stroke-width: 0.6"/>
    <path d="M 176.199532 217.129462 
L 176.199532 217.09876 
L 176.199532 217.006652 
L 176.324183 217.252273 
L 176.261857 217.190868 
z
" clip-path="url(#p92d8699a65)" style="fill: #e74c3c; stroke: #ffffff; stroke-width: 0.6"/>
    <path d="M 369.969495 330.636834 
L 370.03182 330.667537 
L 370.094146 330.667537 
L 370.03182 330.698239 
z
" clip-path="url(#p92d8699a65)" style="fill: #e74c3c; stroke: #ffffff; stroke-width: 0.6"/>
    <path d="M 328.39839 321.333958 
L 328.460715 321.333958 
L 328.460715 321.303255 
L 328.585366 321.24185 
z
" clip-path="url(#p92d8699a65)" style="fill: #e74c3c; stroke: #ffffff; stroke-width: 0.6"/>
    <path d="M 219.51575 259.744619 
L 219.827378 259.928834 
L 220.014354 260.205157 
L 220.450633 260.972721 
z
" clip-path="url(#p92d8699a65)" style="fill: #e74c3c; stroke: #ffffff; stroke-width: 0.6"/>
    <path d="M 214.779013 235.090461 
L 215.65157 234.752733 
L 216.150174 234.660625 
L 216.461801 234.936948 
z
" clip-path="url(#p92d8699a65)" style="fill: #e74c3c; stroke: #ffffff; stroke-width: 0.6"/>
    <path d="M 210.603205 231.068426 
L 211.22646 231.498261 
L 211.538087 231.774585 
L 211.475762 231.9588 
z
" clip-path="url(#p92d8699a65)" style="fill: #e74c3c; stroke: #ffffff; stroke-width: 0.6"/>
    <path d="M 129.143783 264.3193 
L 129.393085 264.07368 
L 129.393085 264.257895 
L 129.33076 264.472813 
z
" clip-path="url(#p92d8699a65)" style="fill: #e74c3c; stroke: #ffffff; stroke-width: 0.6"/>
    <path d="M 101.284287 242.121348 
L 101.346612 241.998538 
L 101.65824 242.059943 
L 101.471263 242.182753 
z
" clip-path="url(#p92d8699a65)" style="fill: #e74c3c; stroke: #ffffff; stroke-width: 0.6"/>
    <path d="M 223.005978 231.9588 
L 223.25528 232.143015 
L 224.190163 233.064092 
z
" clip-path="url(#p92d8699a65)" style="fill: #e74c3c; stroke: #ffffff; stroke-width: 0.6"/>
   </g>
   <g id="text_1">
    <!-- Fr. Polynesia -->
    <g style="fill: #1a252f" transform="translate(171.094249 20.117344) scale(0.17 -0.17)">
     <defs>
      <path id="DejaVuSans-Bold-29" d="M 588 4666 
L 3834 4666 
L 3834 3756 
L 1791 3756 
L 1791 2888 
L 3713 2888 
L 3713 1978 
L 1791 1978 
L 1791 0 
L 588 0 
L 588 4666 
z
" transform="scale(0.015625)"/>
      <path id="DejaVuSans-Bold-55" d="M 3138 2547 
Q 2991 2616 2845 2648 
Q 2700 2681 2553 2681 
Q 2122 2681 1889 2404 
Q 1656 2128 1656 1613 
L 1656 0 
L 538 0 
L 538 3500 
L 1656 3500 
L 1656 2925 
Q 1872 3269 2151 3426 
Q 2431 3584 2822 3584 
Q 2878 3584 2943 3579 
Q 3009 3575 3134 3559 
L 3138 2547 
z
" transform="scale(0.015625)"/>
      <path id="DejaVuSans-Bold-11" d="M 653 1209 
L 1778 1209 
L 1778 0 
L 653 0 
L 653 1209 
z
" transform="scale(0.015625)"/>
      <path id="DejaVuSans-Bold-3" transform="scale(0.015625)"/>
      <path id="DejaVuSans-Bold-33" d="M 588 4666 
L 2584 4666 
Q 3475 4666 3951 4270 
Q 4428 3875 4428 3144 
Q 4428 2409 3951 2014 
Q 3475 1619 2584 1619 
L 1791 1619 
L 1791 0 
L 588 0 
L 588 4666 
z
M 1791 3794 
L 1791 2491 
L 2456 2491 
Q 2806 2491 2997 2661 
Q 3188 2831 3188 3144 
Q 3188 3456 2997 3625 
Q 2806 3794 2456 3794 
L 1791 3794 
z
" transform="scale(0.015625)"/>
      <path id="DejaVuSans-Bold-52" d="M 2203 2784 
Q 1831 2784 1636 2517 
Q 1441 2250 1441 1747 
Q 1441 1244 1636 976 
Q 1831 709 2203 709 
Q 2569 709 2762 976 
Q 2956 1244 2956 1747 
Q 2956 2250 2762 2517 
Q 2569 2784 2203 2784 
z
M 2203 3584 
Q 3106 3584 3614 3096 
Q 4122 2609 4122 1747 
Q 4122 884 3614 396 
Q 3106 -91 2203 -91 
Q 1297 -91 786 396 
Q 275 884 275 1747 
Q 275 2609 786 3096 
Q 1297 3584 2203 3584 
z
" transform="scale(0.015625)"/>
      <path id="DejaVuSans-Bold-4f" d="M 538 4863 
L 1656 4863 
L 1656 0 
L 538 0 
L 538 4863 
z
" transform="scale(0.015625)"/>
      <path id="DejaVuSans-Bold-5c" d="M 78 3500 
L 1197 3500 
L 2138 1125 
L 2938 3500 
L 4056 3500 
L 2584 -331 
Q 2363 -916 2067 -1148 
Q 1772 -1381 1288 -1381 
L 641 -1381 
L 641 -647 
L 991 -647 
Q 1275 -647 1404 -556 
Q 1534 -466 1606 -231 
L 1638 -134 
L 78 3500 
z
" transform="scale(0.015625)"/>
      <path id="DejaVuSans-Bold-51" d="M 4056 2131 
L 4056 0 
L 2931 0 
L 2931 347 
L 2931 1631 
Q 2931 2084 2911 2256 
Q 2891 2428 2841 2509 
Q 2775 2619 2662 2680 
Q 2550 2741 2406 2741 
Q 2056 2741 1856 2470 
Q 1656 2200 1656 1722 
L 1656 0 
L 538 0 
L 538 3500 
L 1656 3500 
L 1656 2988 
Q 1909 3294 2193 3439 
Q 2478 3584 2822 3584 
Q 3428 3584 3742 3212 
Q 4056 2841 4056 2131 
z
" transform="scale(0.015625)"/>
      <path id="DejaVuSans-Bold-48" d="M 4031 1759 
L 4031 1441 
L 1416 1441 
Q 1456 1047 1700 850 
Q 1944 653 2381 653 
Q 2734 653 3104 758 
Q 3475 863 3866 1075 
L 3866 213 
Q 3469 63 3072 -14 
Q 2675 -91 2278 -91 
Q 1328 -91 801 392 
Q 275 875 275 1747 
Q 275 2603 792 3093 
Q 1309 3584 2216 3584 
Q 3041 3584 3536 3087 
Q 4031 2591 4031 1759 
z
M 2881 2131 
Q 2881 2450 2695 2645 
Q 2509 2841 2209 2841 
Q 1884 2841 1681 2658 
Q 1478 2475 1428 2131 
L 2881 2131 
z
" transform="scale(0.015625)"/>
      <path id="DejaVuSans-Bold-56" d="M 3272 3391 
L 3272 2541 
Q 2913 2691 2578 2766 
Q 2244 2841 1947 2841 
Q 1628 2841 1473 2761 
Q 1319 2681 1319 2516 
Q 1319 2381 1436 2309 
Q 1553 2238 1856 2203 
L 2053 2175 
Q 2913 2066 3209 1816 
Q 3506 1566 3506 1031 
Q 3506 472 3093 190 
Q 2681 -91 1863 -91 
Q 1516 -91 1145 -36 
Q 775 19 384 128 
L 384 978 
Q 719 816 1070 734 
Q 1422 653 1784 653 
Q 2113 653 2278 743 
Q 2444 834 2444 1013 
Q 2444 1163 2330 1236 
Q 2216 1309 1875 1350 
L 1678 1375 
Q 931 1469 631 1722 
Q 331 1975 331 2491 
Q 331 3047 712 3315 
Q 1094 3584 1881 3584 
Q 2191 3584 2531 3537 
Q 2872 3491 3272 3391 
z
" transform="scale(0.015625)"/>
      <path id="DejaVuSans-Bold-4c" d="M 538 3500 
L 1656 3500 
L 1656 0 
L 538 0 
L 538 3500 
z
M 538 4863 
L 1656 4863 
L 1656 3950 
L 538 3950 
L 538 4863 
z
" transform="scale(0.015625)"/>
      <path id="DejaVuSans-Bold-44" d="M 2106 1575 
Q 1756 1575 1579 1456 
Q 1403 1338 1403 1106 
Q 1403 894 1545 773 
Q 1688 653 1941 653 
Q 2256 653 2472 879 
Q 2688 1106 2688 1447 
L 2688 1575 
L 2106 1575 
z
M 3816 1997 
L 3816 0 
L 2688 0 
L 2688 519 
Q 2463 200 2181 54 
Q 1900 -91 1497 -91 
Q 953 -91 614 226 
Q 275 544 275 1050 
Q 275 1666 698 1953 
Q 1122 2241 2028 2241 
L 2688 2241 
L 2688 2328 
Q 2688 2594 2478 2717 
Q 2269 2841 1825 2841 
Q 1466 2841 1156 2769 
Q 847 2697 581 2553 
L 581 3406 
Q 941 3494 1303 3539 
Q 1666 3584 2028 3584 
Q 2975 3584 3395 3211 
Q 3816 2838 3816 1997 
z
" transform="scale(0.015625)"/>
     </defs>
     <use xlink:href="#DejaVuSans-Bold-29"/>
     <use xlink:href="#DejaVuSans-Bold-55" transform="translate(61.921875 0)"/>
     <use xlink:href="#DejaVuSans-Bold-11" transform="translate(96.984375 0)"/>
     <use xlink:href="#DejaVuSans-Bold-3" transform="translate(134.96875 0)"/>
     <use xlink:href="#DejaVuSans-Bold-33" transform="translate(169.78125 0)"/>
     <use xlink:href="#DejaVuSans-Bold-52" transform="translate(243.078125 0)"/>
     <use xlink:href="#DejaVuSans-Bold-4f" transform="translate(311.78125 0)"/>
     <use xlink:href="#DejaVuSans-Bold-5c" transform="translate(346.0625 0)"/>
     <use xlink:href="#DejaVuSans-Bold-51" transform="translate(411.25 0)"/>
     <use xlink:href="#DejaVuSans-Bold-48" transform="translate(482.4375 0)"/>
     <use xlink:href="#DejaVuSans-Bold-56" transform="translate(550.265625 0)"/>
     <use xlink:href="#DejaVuSans-Bold-4c" transform="translate(609.78125 0)"/>
     <use xlink:href="#DejaVuSans-Bold-44" transform="translate(644.0625 0)"/>
    </g>
   </g>
   <g id="legend_1">
    <g id="patch_2">
     <path d="M 13.5 498.657344 
L 97.801875 498.657344 
Q 99.601875 498.657344 99.601875 496.857344 
L 99.601875 470.755937 
Q 99.601875 468.955937 97.801875 468.955937 
L 13.5 468.955937 
Q 11.7 468.955937 11.7 470.755937 
L 11.7 496.857344 
Q 11.7 498.657344 13.5 498.657344 
z
" style="fill: #ffffff; opacity: 0.85; stroke: #cccccc; stroke-linejoin: miter"/>
    </g>
    <g id="patch_3">
     <path d="M 15.3 479.394531 
L 33.3 479.394531 
L 33.3 473.094531 
L 15.3 473.094531 
z
" style="fill: #e74c3c; stroke: #888888; stroke-linejoin: miter"/>
    </g>
    <g id="text_2">
     <!-- Fr. Polynesia -->
     <g transform="translate(40.5 479.394531) scale(0.09 -0.09)">
      <defs>
       <path id="DejaVuSans-29" d="M 628 4666 
L 3309 4666 
L 3309 4134 
L 1259 4134 
L 1259 2759 
L 3109 2759 
L 3109 2228 
L 1259 2228 
L 1259 0 
L 628 0 
L 628 4666 
z
" transform="scale(0.015625)"/>
       <path id="DejaVuSans-55" d="M 2631 2963 
Q 2534 3019 2420 3045 
Q 2306 3072 2169 3072 
Q 1681 3072 1420 2755 
Q 1159 2438 1159 1844 
L 1159 0 
L 581 0 
L 581 3500 
L 1159 3500 
L 1159 2956 
Q 1341 3275 1631 3429 
Q 1922 3584 2338 3584 
Q 2397 3584 2469 3576 
Q 2541 3569 2628 3553 
L 2631 2963 
z
" transform="scale(0.015625)"/>
       <path id="DejaVuSans-11" d="M 684 794 
L 1344 794 
L 1344 0 
L 684 0 
L 684 794 
z
" transform="scale(0.015625)"/>
       <path id="DejaVuSans-3" transform="scale(0.015625)"/>
       <path id="DejaVuSans-33" d="M 1259 4147 
L 1259 2394 
L 2053 2394 
Q 2494 2394 2734 2622 
Q 2975 2850 2975 3272 
Q 2975 3691 2734 3919 
Q 2494 4147 2053 4147 
L 1259 4147 
z
M 628 4666 
L 2053 4666 
Q 2838 4666 3239 4311 
Q 3641 3956 3641 3272 
Q 3641 2581 3239 2228 
Q 2838 1875 2053 1875 
L 1259 1875 
L 1259 0 
L 628 0 
L 628 4666 
z
" transform="scale(0.015625)"/>
       <path id="DejaVuSans-52" d="M 1959 3097 
Q 1497 3097 1228 2736 
Q 959 2375 959 1747 
Q 959 1119 1226 758 
Q 1494 397 1959 397 
Q 2419 397 2687 759 
Q 2956 1122 2956 1747 
Q 2956 2369 2687 2733 
Q 2419 3097 1959 3097 
z
M 1959 3584 
Q 2709 3584 3137 3096 
Q 3566 2609 3566 1747 
Q 3566 888 3137 398 
Q 2709 -91 1959 -91 
Q 1206 -91 779 398 
Q 353 888 353 1747 
Q 353 2609 779 3096 
Q 1206 3584 1959 3584 
z
" transform="scale(0.015625)"/>
       <path id="DejaVuSans-4f" d="M 603 4863 
L 1178 4863 
L 1178 0 
L 603 0 
L 603 4863 
z
" transform="scale(0.015625)"/>
       <path id="DejaVuSans-5c" d="M 2059 -325 
Q 1816 -950 1584 -1140 
Q 1353 -1331 966 -1331 
L 506 -1331 
L 506 -850 
L 844 -850 
Q 1081 -850 1212 -737 
Q 1344 -625 1503 -206 
L 1606 56 
L 191 3500 
L 800 3500 
L 1894 763 
L 2988 3500 
L 3597 3500 
L 2059 -325 
z
" transform="scale(0.015625)"/>
       <path id="DejaVuSans-51" d="M 3513 2113 
L 3513 0 
L 2938 0 
L 2938 2094 
Q 2938 2591 2744 2837 
Q 2550 3084 2163 3084 
Q 1697 3084 1428 2787 
Q 1159 2491 1159 1978 
L 1159 0 
L 581 0 
L 581 3500 
L 1159 3500 
L 1159 2956 
Q 1366 3272 1645 3428 
Q 1925 3584 2291 3584 
Q 2894 3584 3203 3211 
Q 3513 2838 3513 2113 
z
" transform="scale(0.015625)"/>
       <path id="DejaVuSans-48" d="M 3597 1894 
L 3597 1613 
L 953 1613 
Q 991 1019 1311 708 
Q 1631 397 2203 397 
Q 2534 397 2845 478 
Q 3156 559 3463 722 
L 3463 178 
Q 3153 47 2828 -22 
Q 2503 -91 2169 -91 
Q 1331 -91 842 396 
Q 353 884 353 1716 
Q 353 2575 817 3079 
Q 1281 3584 2069 3584 
Q 2775 3584 3186 3129 
Q 3597 2675 3597 1894 
z
M 3022 2063 
Q 3016 2534 2758 2815 
Q 2500 3097 2075 3097 
Q 1594 3097 1305 2825 
Q 1016 2553 972 2059 
L 3022 2063 
z
" transform="scale(0.015625)"/>
       <path id="DejaVuSans-56" d="M 2834 3397 
L 2834 2853 
Q 2591 2978 2328 3040 
Q 2066 3103 1784 3103 
Q 1356 3103 1142 2972 
Q 928 2841 928 2578 
Q 928 2378 1081 2264 
Q 1234 2150 1697 2047 
L 1894 2003 
Q 2506 1872 2764 1633 
Q 3022 1394 3022 966 
Q 3022 478 2636 193 
Q 2250 -91 1575 -91 
Q 1294 -91 989 -36 
Q 684 19 347 128 
L 347 722 
Q 666 556 975 473 
Q 1284 391 1588 391 
Q 1994 391 2212 530 
Q 2431 669 2431 922 
Q 2431 1156 2273 1281 
Q 2116 1406 1581 1522 
L 1381 1569 
Q 847 1681 609 1914 
Q 372 2147 372 2553 
Q 372 3047 722 3315 
Q 1072 3584 1716 3584 
Q 2034 3584 2315 3537 
Q 2597 3491 2834 3397 
z
" transform="scale(0.015625)"/>
       <path id="DejaVuSans-4c" d="M 603 3500 
L 1178 3500 
L 1178 0 
L 603 0 
L 603 3500 
z
M 603 4863 
L 1178 4863 
L 1178 4134 
L 603 4134 
L 603 4863 
z
" transform="scale(0.015625)"/>
       <path id="DejaVuSans-44" d="M 2194 1759 
Q 1497 1759 1228 1600 
Q 959 1441 959 1056 
Q 959 750 1161 570 
Q 1363 391 1709 391 
Q 2188 391 2477 730 
Q 2766 1069 2766 1631 
L 2766 1759 
L 2194 1759 
z
M 3341 1997 
L 3341 0 
L 2766 0 
L 2766 531 
Q 2569 213 2275 61 
Q 1981 -91 1556 -91 
Q 1019 -91 701 211 
Q 384 513 384 1019 
Q 384 1609 779 1909 
Q 1175 2209 1959 2209 
L 2766 2209 
L 2766 2266 
Q 2766 2663 2505 2880 
Q 2244 3097 1772 3097 
Q 1472 3097 1187 3025 
Q 903 2953 641 2809 
L 641 3341 
Q 956 3463 1253 3523 
Q 1550 3584 1831 3584 
Q 2591 3584 2966 3190 
Q 3341 2797 3341 1997 
z
" transform="scale(0.015625)"/>
      </defs>
      <use xlink:href="#DejaVuSans-29"/>
      <use xlink:href="#DejaVuSans-55" transform="translate(50.234375 0)"/>
      <use xlink:href="#DejaVuSans-11" transform="translate(82.171875 0)"/>
      <use xlink:href="#DejaVuSans-3" transform="translate(113.953125 0)"/>
      <use xlink:href="#DejaVuSans-33" transform="translate(145.734375 0)"/>
      <use xlink:href="#DejaVuSans-52" transform="translate(202.46875 0)"/>
      <use xlink:href="#DejaVuSans-4f" transform="translate(263.65625 0)"/>
      <use xlink:href="#DejaVuSans-5c" transform="translate(291.4375 0)"/>
      <use xlink:href="#DejaVuSans-51" transform="translate(350.625 0)"/>
      <use xlink:href="#DejaVuSans-48" transform="translate(414 0)"/>
      <use xlink:href="#DejaVuSans-56" transform="translate(475.53125 0)"/>
      <use xlink:href="#DejaVuSans-4c" transform="translate(527.625 0)"/>
      <use xlink:href="#DejaVuSans-44" transform="translate(555.40625 0)"/>
     </g>
    </g>
    <g id="patch_4">
     <path d="M 15.3 492.895234 
L 33.3 492.895234 
L 33.3 486.595234 
L 15.3 486.595234 
z
" style="fill: #bdc3c7; stroke: #888888; stroke-linejoin: miter"/>
    </g>
    <g id="text_3">
     <!-- Neighbors -->
     <g transform="translate(40.5 492.895234) scale(0.09 -0.09)">
      <defs>
       <path id="DejaVuSans-31" d="M 628 4666 
L 1478 4666 
L 3547 763 
L 3547 4666 
L 4159 4666 
L 4159 0 
L 3309 0 
L 1241 3903 
L 1241 0 
L 628 0 
L 628 4666 
z
" transform="scale(0.015625)"/>
       <path id="DejaVuSans-4a" d="M 2906 1791 
Q 2906 2416 2648 2759 
Q 2391 3103 1925 3103 
Q 1463 3103 1205 2759 
Q 947 2416 947 1791 
Q 947 1169 1205 825 
Q 1463 481 1925 481 
Q 2391 481 2648 825 
Q 2906 1169 2906 1791 
z
M 3481 434 
Q 3481 -459 3084 -895 
Q 2688 -1331 1869 -1331 
Q 1566 -1331 1297 -1286 
Q 1028 -1241 775 -1147 
L 775 -588 
Q 1028 -725 1275 -790 
Q 1522 -856 1778 -856 
Q 2344 -856 2625 -561 
Q 2906 -266 2906 331 
L 2906 616 
Q 2728 306 2450 153 
Q 2172 0 1784 0 
Q 1141 0 747 490 
Q 353 981 353 1791 
Q 353 2603 747 3093 
Q 1141 3584 1784 3584 
Q 2172 3584 2450 3431 
Q 2728 3278 2906 2969 
L 2906 3500 
L 3481 3500 
L 3481 434 
z
" transform="scale(0.015625)"/>
       <path id="DejaVuSans-4b" d="M 3513 2113 
L 3513 0 
L 2938 0 
L 2938 2094 
Q 2938 2591 2744 2837 
Q 2550 3084 2163 3084 
Q 1697 3084 1428 2787 
Q 1159 2491 1159 1978 
L 1159 0 
L 581 0 
L 581 4863 
L 1159 4863 
L 1159 2956 
Q 1366 3272 1645 3428 
Q 1925 3584 2291 3584 
Q 2894 3584 3203 3211 
Q 3513 2838 3513 2113 
z
" transform="scale(0.015625)"/>
       <path id="DejaVuSans-45" d="M 3116 1747 
Q 3116 2381 2855 2742 
Q 2594 3103 2138 3103 
Q 1681 3103 1420 2742 
Q 1159 2381 1159 1747 
Q 1159 1113 1420 752 
Q 1681 391 2138 391 
Q 2594 391 2855 752 
Q 3116 1113 3116 1747 
z
M 1159 2969 
Q 1341 3281 1617 3432 
Q 1894 3584 2278 3584 
Q 2916 3584 3314 3078 
Q 3713 2572 3713 1747 
Q 3713 922 3314 415 
Q 2916 -91 2278 -91 
Q 1894 -91 1617 61 
Q 1341 213 1159 525 
L 1159 0 
L 581 0 
L 581 4863 
L 1159 4863 
L 1159 2969 
z
" transform="scale(0.015625)"/>
      </defs>
      <use xlink:href="#DejaVuSans-31"/>
      <use xlink:href="#DejaVuSans-48" transform="translate(74.8125 0)"/>
      <use xlink:href="#DejaVuSans-4c" transform="translate(136.34375 0)"/>
      <use xlink:href="#DejaVuSans-4a" transform="translate(164.125 0)"/>
      <use xlink:href="#DejaVuSans-4b" transform="translate(227.609375 0)"/>
      <use xlink:href="#DejaVuSans-45" transform="translate(290.984375 0)"/>
      <use xlink:href="#DejaVuSans-52" transform="translate(354.46875 0)"/>
      <use xlink:href="#DejaVuSans-55" transform="translate(415.65625 0)"/>
      <use xlink:href="#DejaVuSans-56" transform="translate(456.765625 0)"/>
     </g>
    </g>
   </g>
  </g>
 </g>
 <defs>
  <clipPath id="p92d8699a65">
   <rect x="7.2" y="30.117344" width="448.751467" height="473.04"/>
  </clipPath>
 </defs>
</svg>
