<?xml version="1.0" encoding="utf-8" standalone="no"?>
<!DOCTYPE svg PUBLIC "-//W3C//DTD SVG 1.1//EN"
  "http://www.w3.org/Graphics/SVG/1.1/DTD/svg11.dtd">
<svg xmlns:xlink="http://www.w3.org/1999/xlink" width="811.617526pt" height="510.357344pt" viewBox="0 0 811.617526 510.357344" xmlns="http://www.w3.org/2000/svg" version="1.1">
 <metadata>
  <rdf:RDF xmlns:dc="http://purl.org/dc/elements/1.1/" xmlns:cc="http://creativecommons.org/ns#" xmlns:rdf="http://www.w3.org/1999/02/22-rdf-syntax-ns#">
   <cc:Work>
    <dc:type rdf:resource="http://purl.org/dc/dcmitype/StillImage"/>
    <dc:date>2026-06-19T08:14:11.899216</dc:date>
    <dc:format>image/svg+xml</dc:format>
    <dc:creator>
     <cc:Agent>
      <dc:title>Matplotlib v3.11.0, https://matplotlib.org/</dc:title>
     </cc:Agent>
    </dc:creator>
   </cc:Work>
  </rdf:RDF>
 </metadata>
 <defs>
  <style type="text/css">*{stroke-linejoin: round; stroke-linecap: butt}</style>
 </defs>
 <g id="figure_1">
  <g id="patch_1">
   <path d="M 0 510.357344 
L 811.617526 510.357344 
L 811.617526 0 
L 0 0 
z
" style="fill: #d6eaf8"/>
  </g>
  <g id="axes_1">
   <g id="PatchCollection_1">
    <path d="M 74.774127 64.551883 
L 99.534441 57.802722 
L 107.070189 51.83231 
L 129.139165 42.487318 
L 134.521842 38.333988 
L 158.205621 10.039427 
L 163.05003 3.030683 
L 173.277116 -8.650557 
L 194.269557 -45.511361 
L 204.496643 -59.269266 
L 223.87428 -91.717157 
L 224.950816 -93.274655 
L 224.412548 -94.832154 
L 223.336013 -97.168402 
L 227.103887 -102.879231 
L 228.180422 -111.445474 
L 228.71869 -128.058794 
L 229.795225 -129.875876 
L 231.948296 -136.625037 
L 234.101367 -142.855032 
L 235.177902 -153.238357 
L 236.254437 -156.353354 
L 238.407508 -158.170436 
L 243.790185 -159.468352 
L 245.943256 -161.02585 
L 247.019791 -162.583349 
L 247.558059 -164.400431 
L 254.017272 -190.358743 
L 254.555539 -196.588738 
L 255.632075 -199.444152 
L 257.785145 -202.299567 
L 260.476484 -204.895398 
L 263.70609 -206.972063 
L 266.935696 -207.750812 
L 272.318373 -206.71248 
L 273.933177 -206.452897 
L 275.54798 -206.972063 
L 277.162783 -207.491229 
L 281.468924 -210.606227 
L 283.083727 -211.384976 
L 284.698531 -211.904142 
L 286.851601 -211.384976 
L 287.928137 -210.606227 
L 289.004672 -209.567894 
L 291.157743 -206.71248 
L 293.849081 -204.116649 
L 296.54042 -202.818733 
L 299.770026 -202.299567 
L 303.5379 -202.818733 
L 304.614435 -203.597482 
L 305.690971 -204.116649 
L 306.767506 -204.376232 
L 307.844042 -204.116649 
L 309.997112 -203.337899 
L 311.073648 -203.078316 
L 312.150183 -203.337899 
L 318.071128 -205.93373 
L 320.224199 -206.193314 
L 325.068608 -204.895398 
L 326.683411 -204.895398 
L 330.451285 -205.674147 
L 332.604356 -205.414564 
L 339.601836 -203.337899 
L 344.446245 -203.078316 
L 345.522781 -202.55915 
L 349.290655 -201.001651 
L 351.443725 -200.482485 
L 353.596796 -200.482485 
L 355.749867 -201.261234 
L 357.902938 -202.55915 
L 361.132544 -205.674147 
L 363.285615 -206.71248 
L 365.438686 -206.972063 
L 371.897898 -205.674147 
L 374.050969 -205.93373 
L 375.665772 -206.71248 
L 377.280575 -208.269978 
L 381.048449 -213.202058 
L 382.663252 -215.01914 
L 384.816323 -215.797889 
L 386.969394 -215.797889 
L 388.584197 -214.499973 
L 389.122464 -212.942475 
L 390.199 -211.644559 
L 392.352071 -210.86581 
L 394.505142 -210.86581 
L 396.658212 -211.384976 
L 402.579157 -213.980807 
L 405.270496 -214.499973 
L 410.114905 -214.499973 
L 417.112385 -213.461641 
L 419.265456 -213.721224 
L 435.413487 -216.057472 
L 438.643093 -217.355388 
L 439.719628 -217.874554 
L 440.257896 -218.912887 
L 440.257896 -219.951219 
L 439.719628 -220.989551 
L 437.566558 -223.3258 
L 436.490022 -225.402465 
L 437.02829 -227.219546 
L 438.104825 -228.777045 
L 440.257896 -229.296211 
L 442.410967 -228.777045 
L 443.487502 -227.219546 
L 445.102305 -225.402465 
L 446.717108 -224.104549 
L 447.793644 -223.585383 
L 448.870179 -223.844966 
L 449.946715 -224.104549 
L 450.484982 -224.883298 
L 451.561518 -225.921631 
L 451.561518 -226.959963 
L 452.099786 -229.036628 
L 453.176321 -230.334544 
L 454.791124 -231.372876 
L 458.02073 -232.930375 
L 459.635533 -231.892043 
L 461.788604 -229.815378 
L 461.788604 -229.555795 
L 462.86514 -227.47913 
L 464.479943 -225.402465 
L 467.171281 -224.883298 
L 472.01569 -226.181214 
L 497.314272 -224.364132 
L 498.929075 -224.364132 
L 504.311752 -225.662048 
L 505.388288 -225.921631 
L 507.003091 -225.402465 
L 511.309233 -223.585383 
L 512.924036 -223.066216 
L 514.538839 -223.3258 
L 520.459784 -224.883298 
L 522.074587 -225.142881 
L 528.533799 -223.844966 
L 530.148602 -223.844966 
L 531.763405 -223.844966 
L 533.378208 -224.364132 
L 534.454744 -225.142881 
L 538.760885 -227.47913 
L 539.837421 -227.998296 
L 543.067027 -227.998296 
L 552.217578 -224.364132 
L 553.294113 -223.585383 
L 554.370649 -222.54705 
L 553.832381 -220.729968 
L 553.294113 -217.874554 
L 553.832381 -216.576638 
L 554.908916 -216.057472 
L 560.829861 -216.576638 
L 561.906396 -215.797889 
L 562.444664 -214.759557 
L 562.982932 -211.904142 
L 563.5212 -210.86581 
L 565.136003 -210.08706 
L 568.903877 -209.827477 
L 570.51868 -209.567894 
L 571.595215 -208.789145 
L 574.286554 -205.414564 
L 575.363089 -204.376232 
L 578.592695 -202.039984 
L 583.975372 -196.069572 
L 592.587655 -188.022495 
L 597.970332 -185.167081 
L 598.5086 -184.388331 
L 601.199939 -181.273334 
L 602.814742 -180.494584 
L 605.50608 -179.196669 
L 607.120883 -178.417919 
L 607.659151 -177.379587 
L 608.197419 -176.341254 
L 607.120883 -174.005006 
L 606.582616 -172.707091 
L 607.120883 -171.668758 
L 608.735686 -169.851676 
L 609.273954 -168.294178 
L 609.273954 -166.996262 
L 608.735686 -164.400431 
L 609.273954 -161.8046 
L 611.427025 -160.506684 
L 617.34797 -158.689602 
L 618.962773 -158.170436 
L 621.115844 -156.353354 
L 622.192379 -155.315022 
L 622.730647 -154.017106 
L 623.807182 -149.863776 
L 624.883717 -148.306277 
L 625.960253 -147.008362 
L 627.036788 -145.970029 
L 628.113324 -145.19128 
L 629.728127 -144.672114 
L 630.804662 -144.931697 
L 631.881198 -145.19128 
L 634.572536 -146.748779 
L 636.725607 -148.56586 
L 637.802142 -149.604193 
L 640.493481 -153.49794 
L 641.570016 -154.536272 
L 642.646552 -155.315022 
L 644.261355 -155.574605 
L 645.33789 -155.834188 
L 646.952693 -155.574605 
L 646.414426 -153.49794 
L 645.876158 -150.902108 
L 645.33789 -149.085027 
L 645.876158 -147.267945 
L 646.414426 -147.008362 
L 648.029229 -146.229612 
L 648.567496 -145.970029 
L 648.567496 -145.450863 
L 649.105764 -144.931697 
L 649.644032 -144.672114 
L 650.182299 -144.152947 
L 650.720567 -143.893364 
L 651.797103 -143.114615 
L 652.33537 -142.855032 
L 653.411906 -142.855032 
L 653.950173 -143.114615 
L 658.256315 -145.19128 
L 659.33285 -145.450863 
L 662.024189 -145.450863 
L 662.562457 -145.450863 
L 663.638992 -145.710446 
L 667.945134 -147.787111 
L 676.019149 -149.34461 
L 678.17222 -150.382942 
L 678.710488 -150.642525 
L 679.787023 -150.642525 
L 680.863558 -150.382942 
L 680.863558 -148.306277 
L 678.710488 -143.633781 
L 678.17222 -141.03795 
L 679.787023 -139.999617 
L 685.1697 -142.335865 
L 687.322771 -142.076282 
L 688.399306 -141.297533 
L 689.475842 -139.220868 
L 690.014109 -138.442119 
L 694.320251 -135.586704 
L 694.858519 -134.548372 
L 695.396786 -133.250456 
L 695.396786 -130.654625 
L 695.935054 -129.356709 
L 698.088125 -124.42463 
L 698.626393 -122.607548 
L 700.241196 -121.309633 
L 701.317731 -119.752134 
L 705.085605 -116.896719 
L 706.16214 -115.858387 
L 706.16214 -114.560471 
L 706.16214 -113.262556 
L 705.623873 -110.666725 
L 705.623873 -109.368809 
L 706.16214 -108.330476 
L 706.700408 -107.551727 
L 709.391747 -104.177146 
L 710.468282 -101.840898 
L 711.544817 -99.245067 
L 711.544817 -96.389653 
L 711.00655 -95.091737 
L 710.468282 -93.793822 
L 710.468282 -92.495906 
L 710.468282 -91.19799 
L 711.00655 -90.159658 
L 712.083085 -89.121325 
L 714.774424 -87.82341 
L 715.850959 -87.04466 
L 716.927494 -86.006328 
L 718.542297 -83.410497 
L 719.080565 -82.112581 
L 719.080565 -81.074249 
L 719.080565 -79.776333 
L 716.927494 -76.401752 
L 716.389227 -75.103837 
L 715.850959 -73.805921 
L 716.389227 -72.508006 
L 717.465762 -68.614259 
L 720.157101 -68.614259 
L 724.463242 -69.393008 
L 726.616313 -69.393008 
L 727.692848 -68.873842 
L 730.384187 -67.05676 
L 731.460722 -66.537594 
L 734.690328 -65.499261 
L 736.843399 -64.460929 
L 738.458202 -62.90343 
L 739.534738 -61.086348 
L 740.073005 -59.009683 
L 738.99647 -53.298854 
L 738.99647 -52.000939 
L 739.534738 -50.703023 
L 740.073005 -49.145525 
L 740.611273 -48.626358 
L 745.455682 -47.328443 
L 747.608753 -47.588026 
L 749.761824 -49.145525 
L 751.376627 -50.703023 
L 754.067966 -51.741356 
L 756.221037 -52.260522 
L 758.374107 -50.962606 
L 759.450643 -49.924274 
L 759.98891 -48.626358 
L 760.527178 -44.473028 
L 761.065446 -43.175113 
L 762.680249 -41.358031 
L 763.218517 -40.060115 
L 763.756784 -39.021783 
L 763.756784 -33.83012 
L 764.295052 -31.234289 
L 765.371587 -28.898041 
L 766.986391 -27.080959 
L 776.136941 -20.850964 
L 777.751745 -19.033882 
L 778.82828 -16.438051 
L 778.290012 -14.361386 
L 775.598674 -13.84222 
L 770.754264 -14.361386 
L 769.139461 -13.323054 
L 769.677729 -11.246389 
L 773.445603 -7.871808 
L 774.522138 -6.833476 
L 776.136941 -6.573892 
L 777.213477 -6.314309 
L 780.443083 -7.093059 
L 782.057886 -7.093059 
L 783.672689 -6.573892 
L 785.287492 -5.795143 
L 785.82576 -4.756811 
L 786.364028 -3.458895 
L 786.364028 -2.160979 
L 785.287492 1.732767 
L 785.287492 2.7711 
L 785.82576 4.328599 
L 786.364028 4.588182 
L 790.131902 5.886097 
L 791.208437 6.92443 
L 795.514579 11.337343 
L 799.282453 12.894842 
L 799.82072 12.894842 
L 801.435523 12.894842 
L 805.741665 11.337343 
L 808.433003 11.07776 
L 809.509539 11.596926 
L 810.586074 12.635259 
L 812.739145 14.971507 
L 820.813161 19.903586 
L 823.504499 21.980251 
L 825.119302 22.759 
L 828.887176 23.53775 
L 830.501979 24.576082 
L 831.578515 26.133581 
L 832.116782 27.431497 
L 835.884656 39.891486 
L 835.884656 41.448985 
L 838.037727 42.746901 
L 842.882136 48.717313 
L 845.573475 50.793978 
L 854.724026 55.206891 
L 863.336309 61.696469 
L 864.412844 66.368965 
L 867.104183 68.964796 
L 868.180718 71.041461 
L 869.257254 72.858543 
L 871.948592 73.896875 
L 874.101663 74.416042 
L 875.716466 74.416042 
L 875.178198 76.233124 
L 874.101663 77.271456 
L 874.101663 78.309789 
L 874.101663 80.12687 
L 875.178198 80.90562 
L 876.793002 81.424786 
L 877.869537 82.203535 
L 877.869537 84.799367 
L 877.331269 86.097282 
L 874.101663 88.952697 
L 873.025128 90.510195 
L 873.025128 92.067694 
L 872.48686 94.144359 
L 871.948592 95.701858 
L 870.872057 96.74019 
L 868.180718 98.297689 
L 867.642451 101.153103 
L 867.642451 104.268101 
L 869.257254 111.017262 
L 869.795521 114.132259 
L 869.795521 120.881421 
L 871.410325 121.141004 
L 885.405285 126.332666 
L 886.48182 128.409331 
L 885.943552 130.226413 
L 883.790482 131.005162 
L 884.867017 133.081827 
L 886.48182 135.158492 
L 888.096623 136.715991 
L 894.017568 138.792656 
L 896.170639 140.090572 
L 897.785442 142.42682 
L 903.168119 155.405976 
L 903.168119 158.780556 
L 902.091583 165.010551 
L 898.861977 176.691792 
L 898.861977 183.18137 
L 900.47678 187.075117 
L 902.629851 189.670948 
L 905.859457 191.747613 
L 908.550796 194.86261 
L 909.089064 197.718025 
L 909.089064 200.833022 
L 908.550796 207.063017 
L 905.859457 214.071761 
L 901.015048 219.263424 
L 888.096623 226.272168 
L 890.249694 228.08925 
L 892.402765 231.204248 
L 895.094103 237.174659 
L 897.247174 242.625905 
L 900.47678 247.817567 
L 903.168119 250.932565 
L 911.780402 257.422143 
L 912.856937 258.460475 
L 913.933473 260.796723 
L 915.010008 261.575473 
L 916.624811 262.354222 
L 917.701347 262.613805 
L 919.31615 263.132972 
L 920.392685 264.950053 
L 919.854418 267.545885 
L 917.701347 275.852545 
L 918.239614 277.669626 
L 919.31615 277.92921 
L 923.084024 280.005875 
L 924.698827 280.784624 
L 925.237095 281.822956 
L 925.775362 284.937954 
L 926.851898 285.976286 
L 928.466701 287.533785 
L 929.004969 287.533785 
L 930.081504 286.755036 
L 936.540716 281.822956 
L 936.540716 278.967542 
L 937.617252 275.852545 
L 939.232055 273.256713 
L 941.385126 271.958798 
L 943.538196 272.218381 
L 944.614732 273.516296 
L 945.691267 275.073795 
L 946.767803 276.112128 
L 948.382606 276.371711 
L 951.073944 275.852545 
L 954.841818 275.592961 
L 955.918354 276.371711 
L 955.380086 278.448376 
L 955.918354 280.005875 
L 957.533157 280.265458 
L 959.686227 279.746291 
L 960.762763 279.227125 
L 960.762763 282.601706 
L 961.839298 285.45712 
L 965.607172 290.648783 
L 968.836778 293.76378 
L 969.375046 295.061696 
L 969.375046 296.878777 
L 967.221975 299.734192 
L 966.683708 301.291691 
L 967.221975 304.147105 
L 968.298511 305.964187 
L 970.451581 307.521686 
L 971.528117 309.59835 
L 972.066385 315.049596 
L 972.604652 317.385844 
L 975.295991 318.164594 
L 977.449062 319.462509 
L 979.063865 320.760425 
L 980.678668 321.798757 
L 983.370006 322.577507 
L 984.984809 323.096673 
L 984.984809 324.135005 
L 983.908274 325.432921 
L 983.370006 326.21167 
L 985.523077 329.326668 
L 986.599612 331.14375 
L 987.13788 332.182082 
L 987.676148 332.701248 
L 988.752683 333.220415 
L 988.752683 333.739581 
L 987.676148 334.51833 
L 987.676148 335.037496 
L 987.676148 336.335412 
L 987.13788 339.45041 
L 986.599612 341.007908 
L 988.752683 341.527075 
L 990.905754 340.748325 
L 991.98229 338.931243 
L 991.98229 336.335412 
L 993.597093 337.633328 
L 994.13536 339.190826 
L 994.673628 341.007908 
L 994.673628 344.901655 
L 994.13536 345.939988 
L 993.058825 346.459154 
L 991.98229 347.497486 
L 991.444022 347.497486 
L 990.367486 346.97832 
L 989.290951 346.718737 
L 988.214416 347.237903 
L 988.214416 348.016653 
L 988.752683 349.054985 
L 989.829219 349.833734 
L 990.367486 350.612484 
L 989.290951 352.169983 
L 988.752683 353.727481 
L 988.214416 355.28498 
L 988.752683 357.880811 
L 988.214416 358.399977 
L 988.214416 359.178727 
L 987.676148 359.957476 
L 987.676148 360.995809 
L 988.214416 361.255392 
L 988.752683 361.255392 
L 989.290951 361.514975 
L 989.829219 362.293724 
L 990.905754 363.332057 
L 991.444022 364.629972 
L 991.444022 366.187471 
L 991.444022 368.004553 
L 991.444022 369.821635 
L 990.367486 370.859967 
L 990.367486 371.638717 
L 991.98229 374.494131 
L 991.98229 375.792047 
L 990.905754 377.868712 
L 988.752683 378.387878 
L 986.599612 378.907044 
L 985.523077 383.060374 
L 983.908274 383.839123 
L 983.370006 384.877456 
L 983.370006 387.213704 
L 983.908274 387.473287 
L 984.984809 387.992453 
L 986.061345 388.771203 
L 987.13788 390.328702 
L 987.13788 391.8862 
L 986.061345 396.81828 
L 986.061345 398.375778 
L 986.599612 399.414111 
L 986.599612 400.712026 
L 986.599612 402.529108 
L 983.370006 403.827024 
L 982.293471 404.865356 
L 983.908274 405.384523 
L 984.984809 406.163272 
L 986.599612 409.278269 
L 988.214416 410.316602 
L 987.676148 409.018686 
L 988.752683 407.461188 
L 989.829219 406.942021 
L 990.905754 409.537853 
L 990.905754 410.835768 
L 991.98229 413.172016 
L 992.520557 414.729515 
L 993.597093 412.65285 
L 994.13536 411.874101 
L 995.750163 414.469932 
L 995.211896 418.104096 
L 994.673628 422.257426 
L 994.13536 426.410756 
L 989.829219 426.151172 
L 980.1404 422.517009 
L 975.295991 421.997842 
L 962.377566 423.036175 
L 955.918354 424.074507 
L 944.614732 428.487421 
L 938.693787 429.525753 
L 926.851898 429.006587 
L 923.622291 428.227837 
L 914.471741 424.334091 
L 914.471741 424.074507 
L 913.933473 424.074507 
L 912.856937 424.074507 
L 912.31867 424.334091 
L 910.703867 425.372423 
L 905.32119 428.487421 
L 903.168119 429.006587 
L 899.938513 428.747004 
L 890.787962 425.632006 
L 887.020088 425.891589 
L 884.328749 427.189505 
L 879.48434 431.602418 
L 874.101663 434.717415 
L 848.803081 441.466577 
L 846.111743 440.168661 
L 842.343869 433.679083 
L 839.65253 431.602418 
L 833.193318 429.26617 
L 829.963712 428.487421 
L 827.272373 428.487421 
L 824.581035 429.006587 
L 821.889696 430.044919 
L 817.583554 432.381167 
L 816.507019 432.900334 
L 815.968751 432.900334 
L 813.815681 432.900334 
L 813.277413 432.121584 
L 813.277413 431.083252 
L 812.739145 429.785336 
L 808.433003 424.853257 
L 805.741665 423.036175 
L 803.050326 421.738259 
L 799.82072 421.478676 
L 790.131902 421.997842 
L 786.902295 421.478676 
L 786.364028 420.180761 
L 785.82576 418.623262 
L 783.134422 417.584929 
L 778.82828 417.325346 
L 777.213477 416.80618 
L 775.598674 415.248681 
L 775.598674 413.950766 
L 775.598674 412.912433 
L 775.598674 412.393267 
L 771.8308 409.018686 
L 766.448123 405.903689 
L 760.527178 405.903689 
L 758.374107 412.133684 
L 757.83584 414.989098 
L 756.221037 416.546597 
L 753.529698 416.80618 
L 750.83836 415.767848 
L 748.147021 416.027431 
L 745.455682 415.767848 
L 743.302612 414.469932 
L 741.687809 412.133684 
L 740.611273 409.018686 
L 741.149541 406.682438 
L 743.840879 401.231193 
L 744.379147 398.635361 
L 744.379147 395.520364 
L 743.840879 392.66495 
L 741.687809 390.588285 
L 739.534738 390.328702 
L 736.843399 390.588285 
L 734.152061 390.847868 
L 731.460722 389.290369 
L 729.845919 391.107451 
L 728.769384 390.328702 
L 727.692848 390.069118 
L 726.616313 390.328702 
L 725.539778 390.328702 
L 723.386707 390.847868 
L 722.848439 391.107451 
L 722.310171 390.588285 
L 720.695368 389.030786 
L 720.157101 388.771203 
L 719.080565 388.771203 
L 716.389227 389.549952 
L 715.312691 389.809535 
L 713.697888 389.549952 
L 712.083085 388.252037 
L 710.468282 387.992453 
L 709.391747 387.992453 
L 705.085605 389.030786 
L 704.00907 389.290369 
L 704.00907 389.809535 
L 703.470802 390.069118 
L 702.394266 390.069118 
L 701.855999 389.809535 
L 700.779463 389.030786 
L 699.702928 388.51162 
L 699.16466 388.51162 
L 692.705448 386.694538 
L 644.261355 384.877456 
L 591.51112 384.617873 
L 552.217578 384.35829 
L 538.222618 384.35829 
L 485.472383 384.098707 
L 473.092226 384.098707 
L 432.183881 384.098707 
L 425.1864 383.839123 
L 420.880259 384.617873 
L 417.112385 386.434955 
L 407.961834 392.66495 
L 398.811283 396.81828 
L 391.275535 402.788691 
L 390.737268 403.048275 
L 353.058529 420.95951 
L 347.675852 421.997842 
L 321.839002 420.440344 
L 320.762466 420.440344 
L 308.920577 421.219093 
L 305.690971 420.699927 
L 296.54042 417.584929 
L 291.157743 417.065763 
L 279.854121 418.882845 
L 278.777586 419.402011 
L 278.239318 419.921177 
L 277.70105 420.180761 
L 276.086247 419.921177 
L 272.856641 418.623262 
L 271.241838 418.363679 
L 269.627035 418.882845 
L 259.399949 424.334091 
L 247.558059 430.823669 
L 243.251918 432.900334 
L 235.71617 432.900334 
L 227.642154 434.717415 
L 224.950816 434.976999 
L 204.496643 433.679083 
L 199.113966 434.976999 
L 195.88436 437.313247 
L 194.807824 435.236582 
L 194.269557 433.4195 
L 193.193021 430.044919 
L 192.654754 429.006587 
L 189.963415 427.449088 
L 186.733809 424.074507 
L 185.119006 422.257426 
L 184.580738 420.180761 
L 184.580738 413.691183 
L 185.119006 412.393267 
L 186.195541 411.095351 
L 186.733809 409.537853 
L 187.810344 407.980354 
L 195.346092 403.567441 
L 198.575698 403.307858 
L 203.420108 403.827024 
L 208.264517 400.712026 
L 209.87932 399.414111 
L 210.417588 398.116195 
L 211.494123 396.81828 
L 212.032391 395.260781 
L 217.953336 391.107451 
L 220.644674 394.222448 
L 222.797745 400.19286 
L 224.950816 401.490776 
L 224.950816 399.154528 
L 226.565619 397.337446 
L 229.256957 396.558696 
L 231.948296 397.077863 
L 237.330973 399.933277 
L 241.637114 401.231193 
L 246.481524 403.567441 
L 249.172862 403.827024 
L 252.402468 402.269525 
L 255.632075 397.856612 
L 258.323413 396.558696 
L 262.091287 396.558696 
L 264.782626 397.597029 
L 268.012232 398.116195 
L 271.241838 395.779947 
L 272.856641 395.260781 
L 273.933177 396.558696 
L 275.009712 398.375778 
L 276.086247 399.673694 
L 287.389869 395.260781 
L 290.081208 394.482031 
L 293.849081 394.222448 
L 296.002152 393.703282 
L 298.155223 392.145783 
L 300.308294 391.107451 
L 303.5379 391.107451 
L 306.229239 392.66495 
L 309.997112 395.779947 
L 312.688451 397.597029 
L 313.764986 399.154528 
L 315.379789 399.414111 
L 325.068608 399.673694 
L 326.145143 400.19286 
L 327.759947 402.269525 
L 328.836482 402.788691 
L 329.913017 402.529108 
L 333.680891 401.490776 
L 335.295694 400.452443 
L 336.910498 398.635361 
L 339.063568 397.337446 
L 342.293175 398.635361 
L 343.36971 397.856612 
L 343.907978 397.597029 
L 344.984513 397.337446 
L 347.137584 398.894945 
L 348.214119 398.894945 
L 348.752387 398.375778 
L 349.828922 398.635361 
L 350.905458 399.933277 
L 351.981993 402.529108 
L 352.520261 403.827024 
L 353.596796 404.605773 
L 354.673332 405.384523 
L 355.749867 405.644106 
L 357.902938 405.903689 
L 359.517741 405.384523 
L 366.515221 402.529108 
L 369.20656 399.673694 
L 373.512701 393.703282 
L 375.127504 392.405367 
L 376.742307 391.626617 
L 377.818843 390.588285 
L 378.35711 388.51162 
L 377.280575 387.473287 
L 375.665772 386.954121 
L 375.127504 385.915788 
L 376.20404 384.877456 
L 374.589237 381.243292 
L 373.512701 376.570796 
L 372.974433 371.8983 
L 374.050969 368.004553 
L 376.20404 366.966221 
L 377.818843 366.966221 
L 380.510181 366.966221 
L 382.124984 366.966221 
L 384.278055 365.927888 
L 385.892858 364.889556 
L 386.969394 363.332057 
L 387.507661 361.514975 
L 390.737268 364.629972 
L 393.428606 365.408722 
L 395.043409 363.851223 
L 395.581677 359.43831 
L 393.428606 362.034141 
L 391.275535 361.774558 
L 389.122464 360.995809 
L 386.431126 360.476642 
L 384.278055 361.514975 
L 380.510181 364.370389 
L 377.818843 364.889556 
L 376.20404 364.889556 
L 374.050969 365.149139 
L 371.897898 366.187471 
L 371.35963 368.523719 
L 371.35963 377.349545 
L 372.974433 383.319957 
L 372.974433 384.877456 
L 372.974433 387.213704 
L 372.974433 388.51162 
L 372.436166 389.549952 
L 369.20656 392.66495 
L 367.591756 394.222448 
L 360.056009 401.231193 
L 358.441206 402.269525 
L 356.826402 402.529108 
L 355.211599 401.750359 
L 353.596796 400.712026 
L 354.673332 396.03953 
L 349.828922 393.962865 
L 339.601836 392.145783 
L 332.066088 396.81828 
L 329.37475 397.597029 
L 328.836482 397.077863 
L 328.298214 396.03953 
L 327.221679 394.741615 
L 325.606876 394.222448 
L 323.453805 394.741615 
L 321.300734 396.03953 
L 319.147663 396.558696 
L 317.53286 396.03953 
L 315.379789 394.741615 
L 311.611916 392.145783 
L 311.611916 391.367034 
L 311.611916 390.328702 
L 311.611916 389.549952 
L 311.073648 389.030786 
L 309.458845 388.771203 
L 308.382309 388.51162 
L 307.305774 387.992453 
L 306.767506 386.694538 
L 304.614435 382.800791 
L 304.076168 382.281625 
L 303.5379 382.022042 
L 302.461365 381.243292 
L 301.923097 378.128295 
L 301.384829 376.311213 
L 300.308294 376.311213 
L 300.308294 377.349545 
L 300.308294 378.128295 
L 298.693491 381.243292 
L 298.155223 382.281625 
L 297.616955 387.473287 
L 293.310814 390.069118 
L 286.851601 391.107451 
L 285.236798 391.8862 
L 282.54546 393.962865 
L 281.468924 394.222448 
L 279.854121 394.222448 
L 276.086247 393.184116 
L 270.70357 393.184116 
L 269.088767 393.703282 
L 265.859161 395.001198 
L 264.244358 395.260781 
L 262.629555 395.260781 
L 257.785145 394.222448 
L 256.170342 394.741615 
L 254.017272 396.03953 
L 252.940736 396.558696 
L 252.402468 397.077863 
L 251.325933 398.894945 
L 250.787665 400.452443 
L 249.172862 401.490776 
L 243.251918 399.673694 
L 237.869241 396.81828 
L 235.71617 394.741615 
L 234.639634 392.66495 
L 234.101367 392.405367 
L 233.024831 391.8862 
L 231.410028 391.367034 
L 230.87176 390.069118 
L 230.87176 388.51162 
L 231.948296 387.213704 
L 233.563099 386.175372 
L 234.639634 385.915788 
L 234.639634 384.877456 
L 232.486564 384.877456 
L 230.87176 383.57954 
L 230.333493 381.762458 
L 229.795225 379.685794 
L 228.71869 392.145783 
L 227.642154 392.145783 
L 225.489083 389.549952 
L 220.106406 384.877456 
L 219.568139 381.762458 
L 217.415068 383.060374 
L 216.338533 384.877456 
L 215.261997 386.434955 
L 212.570659 386.954121 
L 210.955855 386.434955 
L 209.87932 385.396622 
L 209.341052 383.839123 
L 209.341052 381.762458 
L 211.494123 377.868712 
L 214.185462 374.753714 
L 216.338533 371.11955 
L 215.261997 365.927888 
L 214.723729 370.081218 
L 214.185462 371.11955 
L 213.647194 372.417466 
L 213.108926 373.196215 
L 212.032391 373.715382 
L 209.341052 376.311213 
L 207.726249 377.868712 
L 207.187982 379.945377 
L 207.187982 383.319957 
L 208.264517 388.771203 
L 207.726249 391.107451 
L 203.420108 393.184116 
L 196.960895 398.635361 
L 191.578218 400.452443 
L 188.88688 398.894945 
L 187.810344 394.741615 
L 187.810344 389.549952 
L 188.348612 384.098707 
L 191.039951 378.647461 
L 194.807824 375.792047 
L 200.190501 377.349545 
L 200.190501 375.27288 
L 198.037431 373.455799 
L 194.807824 372.936632 
L 192.116486 373.715382 
L 189.425147 377.609129 
L 187.272077 378.907044 
L 185.657274 378.387878 
L 186.733809 377.089962 
L 186.733809 375.792047 
L 186.733809 374.494131 
L 185.657274 373.196215 
L 188.88688 368.783302 
L 189.425147 366.447054 
L 188.88688 363.851223 
L 187.810344 363.851223 
L 186.733809 365.408722 
L 186.195541 366.187471 
L 185.119006 365.668305 
L 184.580738 363.332057 
L 185.119006 361.514975 
L 185.657274 359.43831 
L 191.039951 351.391233 
L 191.578218 349.574151 
L 191.578218 347.497486 
L 191.039951 343.863323 
L 190.501683 342.046241 
L 191.039951 338.931243 
L 192.654754 332.441665 
L 192.654754 328.547918 
L 192.654754 325.952087 
L 192.116486 324.654172 
L 192.116486 321.020008 
L 192.654754 319.462509 
L 193.731289 318.164594 
L 195.88436 315.828345 
L 196.422628 314.270847 
L 198.575698 310.636683 
L 203.958375 309.338767 
L 210.417588 309.338767 
L 235.177902 309.59835 
L 257.785145 309.857934 
L 291.157743 310.117517 
L 310.53538 310.3771 
L 320.224199 310.3771 
L 323.992073 310.3771 
L 329.37475 310.636683 
L 330.451285 309.857934 
L 330.989553 298.955442 
L 330.989553 296.359611 
L 330.989553 285.45712 
L 331.527821 283.380455 
L 333.680891 282.342123 
L 343.907978 281.30379 
L 350.905458 279.227125 
L 352.520261 279.227125 
L 362.747347 280.265458 
L 364.900418 280.005875 
L 369.744827 278.448376 
L 372.974433 276.631294 
L 376.742307 275.333378 
L 381.048449 275.333378 
L 397.734748 278.967542 
L 403.117425 278.967542 
L 407.961834 277.92921 
L 412.806243 276.112128 
L 417.112385 273.256713 
L 420.341991 269.362967 
L 420.880259 264.950053 
L 421.418527 255.605061 
L 423.571597 252.23048 
L 427.339471 248.596317 
L 430.03081 245.221736 
L 433.798684 243.923821 
L 437.566558 246.779235 
L 444.564038 253.00923 
L 452.099786 258.460475 
L 461.788604 263.392555 
L 466.633013 264.69047 
L 472.553958 265.209637 
L 474.707029 265.988386 
L 479.551438 269.103383 
L 482.242777 269.882133 
L 485.472383 270.401299 
L 487.087186 271.439632 
L 490.316792 275.852545 
L 494.084666 279.486708 
L 499.467343 281.563373 
L 504.85002 282.342123 
L 510.232697 281.563373 
L 515.077107 280.265458 
L 516.69191 281.044207 
L 520.998051 284.937954 
L 522.612854 286.235869 
L 524.765925 287.533785 
L 526.918996 288.052951 
L 531.225138 288.312534 
L 533.378208 288.831701 
L 534.993011 290.648783 
L 536.069547 292.206281 
L 537.68435 293.504197 
L 539.299153 294.542529 
L 544.68183 297.397944 
L 548.449704 298.436276 
L 552.755846 298.695859 
L 561.368129 297.91711 
L 569.442144 299.474609 
L 573.748286 299.474609 
L 576.977892 297.657527 
L 583.975372 292.206281 
L 586.128443 291.167949 
L 588.819782 291.427532 
L 595.278994 289.091284 
L 601.199939 288.831701 
L 607.120883 287.274202 
L 618.424505 286.235869 
L 625.960253 283.120872 
L 630.266395 276.631294 
L 630.804662 268.584217 
L 627.036788 261.31589 
L 625.960253 260.017974 
L 622.192379 258.200892 
L 621.115844 257.16256 
L 621.115844 256.902977 
L 620.039308 255.605061 
L 618.962773 252.749647 
L 618.424505 251.451731 
L 615.733167 249.375066 
L 612.50356 247.557984 
L 608.735686 246.260069 
L 605.50608 245.740902 
L 603.353009 246.000486 
L 600.123403 247.817567 
L 598.5086 248.596317 
L 596.893797 248.8559 
L 594.202459 248.596317 
L 592.587655 248.596317 
L 589.896317 249.375066 
L 582.898837 253.00923 
L 574.286554 254.826312 
L 571.595215 256.124227 
L 562.982932 261.31589 
L 554.370649 264.430887 
L 551.67931 265.209637 
L 548.987972 264.69047 
L 545.220098 263.132972 
L 534.454744 255.345478 
L 533.378208 254.307145 
L 531.763405 252.749647 
L 530.68687 250.672982 
L 529.072067 243.923821 
L 527.457264 241.068406 
L 525.304193 238.472575 
L 522.612854 236.136327 
L 516.153642 233.021329 
L 510.232697 232.761746 
L 503.773485 234.319245 
L 494.622934 239.510907 
L 493.008131 240.030074 
L 490.85506 239.251324 
L 484.934115 235.617161 
L 483.85758 234.319245 
L 480.627974 224.455086 
L 479.551438 221.599672 
L 477.398367 219.003841 
L 475.245297 216.927176 
L 472.01569 214.590928 
L 466.633013 212.773846 
L 451.561518 212.25468 
L 442.949235 208.880099 
L 439.719628 208.620516 
L 428.416007 212.514263 
L 417.650653 219.78259 
L 414.421046 220.56134 
L 412.806243 219.78259 
L 410.114905 215.888843 
L 408.500102 214.590928 
L 402.040889 213.293012 
L 395.043409 216.148426 
L 389.122464 220.820923 
L 384.278055 225.753002 
L 382.663252 228.348833 
L 381.048449 231.723414 
L 379.971914 235.097994 
L 379.971914 236.136327 
L 379.433646 238.212992 
L 378.895378 244.183404 
L 376.742307 244.962153 
L 369.20656 244.962153 
L 360.056009 244.962153 
L 350.905458 244.962153 
L 341.754907 244.962153 
L 332.066088 244.962153 
L 322.915537 244.70257 
L 313.764986 244.70257 
L 304.614435 244.70257 
L 294.925617 244.70257 
L 291.696011 244.70257 
L 285.775066 244.70257 
L 276.624515 244.70257 
L 267.473964 244.70257 
L 257.785145 244.70257 
L 248.634595 244.442987 
L 239.484044 244.442987 
L 230.333493 244.442987 
L 220.644674 244.442987 
L 219.029871 242.106739 
L 218.491603 240.54924 
L 218.491603 236.136327 
L 221.182942 233.800079 
L 224.950816 231.982997 
L 228.71869 228.867999 
L 227.642154 228.348833 
L 226.565619 227.310501 
L 225.489083 226.791334 
L 227.642154 224.974253 
L 228.71869 222.638005 
L 228.71869 220.820923 
L 225.489083 220.56134 
L 226.027351 222.897588 
L 224.950816 226.012585 
L 223.87428 228.08925 
L 221.72121 227.829667 
L 220.644674 231.204248 
L 217.953336 233.280913 
L 215.261997 234.059662 
L 212.032391 233.280913 
L 209.87932 230.425498 
L 208.802785 227.570084 
L 210.417588 221.599672 
L 210.417588 217.705925 
L 210.955855 216.148426 
L 212.032391 214.071761 
L 217.415068 207.841767 
L 218.491603 205.765102 
L 219.568139 206.284268 
L 221.72121 207.3226 
L 222.797745 207.841767 
L 222.259477 207.3226 
L 221.72121 204.726769 
L 226.565619 203.688437 
L 227.103887 206.803434 
L 228.180422 209.658848 
L 229.795225 211.47593 
L 231.948296 210.956764 
L 230.87176 207.582183 
L 230.333493 203.688437 
L 229.795225 200.573439 
L 227.642154 199.535107 
L 228.180422 197.458442 
L 231.410028 182.921787 
L 231.948296 180.585539 
L 228.71869 185.258035 
L 227.103887 188.373032 
L 226.027351 194.603027 
L 224.412548 198.496774 
L 222.259477 201.092605 
L 220.644674 200.573439 
L 219.568139 200.573439 
L 217.953336 202.650104 
L 215.261997 203.428853 
L 212.032391 203.688437 
L 209.341052 204.726769 
L 207.726249 206.024685 
L 207.187982 207.3226 
L 206.649714 208.620516 
L 206.111446 209.918432 
L 205.573178 210.697181 
L 203.420108 211.735513 
L 202.88184 212.514263 
L 201.267037 215.369677 
L 200.190501 216.40801 
L 198.575698 215.62926 
L 198.037431 214.331345 
L 198.037431 212.25468 
L 197.499163 210.697181 
L 196.422628 209.918432 
L 194.269557 208.620516 
L 193.731289 205.505518 
L 193.731289 202.390521 
L 194.807824 200.573439 
L 193.731289 198.237191 
L 193.193021 195.900943 
L 192.654754 190.968864 
L 193.193021 188.373032 
L 193.731289 186.815534 
L 194.269557 185.777201 
L 198.037431 183.18137 
L 199.652234 182.402621 
L 201.805305 182.402621 
L 206.111446 182.921787 
L 208.264517 183.440953 
L 209.341052 184.738869 
L 209.341052 186.815534 
L 211.494123 184.998452 
L 213.108926 182.662204 
L 215.261997 181.364288 
L 218.491603 182.662204 
L 218.491603 179.287623 
L 219.568139 177.730124 
L 221.72121 176.691792 
L 223.336013 175.134293 
L 221.72121 175.913043 
L 219.568139 176.172626 
L 217.953336 175.913043 
L 216.338533 174.355544 
L 223.336013 169.942631 
L 225.489083 167.865966 
L 229.256957 162.933886 
L 231.410028 161.116805 
L 236.254437 159.818889 
L 238.407508 156.963475 
L 240.560579 156.184725 
L 241.637114 156.703891 
L 242.71365 158.001807 
L 244.328453 158.520973 
L 245.404988 157.742224 
L 246.481524 157.223058 
L 249.172862 155.925142 
L 250.249398 155.146393 
L 240.560579 154.88681 
L 236.792705 153.329311 
L 236.792705 149.95473 
L 234.639634 151.252646 
L 233.563099 153.329311 
L 234.101367 155.665559 
L 235.71617 157.223058 
L 234.101367 158.26139 
L 232.486564 158.26139 
L 230.87176 157.482641 
L 229.256957 157.223058 
L 228.180422 157.742224 
L 227.642154 158.780556 
L 227.103887 160.338055 
L 226.565619 161.635971 
L 222.797745 168.385132 
L 221.72121 169.942631 
L 220.106406 170.72138 
L 216.8768 171.500129 
L 214.723729 172.538462 
L 213.647194 174.355544 
L 211.494123 177.989707 
L 210.417588 179.287623 
L 206.649714 180.585539 
L 203.420108 179.806789 
L 200.190501 178.768457 
L 196.960895 178.508874 
L 200.190501 172.019296 
L 200.728769 170.980963 
L 202.88184 170.202214 
L 207.187982 165.529718 
L 205.034911 166.308467 
L 203.420108 169.163881 
L 201.805305 169.942631 
L 198.037431 169.942631 
L 196.960895 170.461797 
L 195.88436 170.980963 
L 197.499163 173.057628 
L 197.499163 174.355544 
L 194.807824 177.470541 
L 194.269557 178.508874 
L 194.269557 180.845122 
L 193.193021 182.143037 
L 190.501683 185.517618 
L 189.963415 186.815534 
L 188.88688 191.228447 
L 189.963415 205.765102 
L 188.88688 205.765102 
L 187.810344 176.172626 
L 187.272077 171.759713 
L 184.580738 164.231802 
L 181.8894 158.780556 
L 180.812864 157.223058 
L 178.659793 156.444308 
L 174.89192 155.405976 
L 173.277116 154.10806 
L 172.738849 151.771812 
L 171.124046 143.465152 
L 170.04751 140.869321 
L 168.970975 139.052239 
L 166.279636 136.196825 
L 165.203101 135.418075 
L 164.126566 135.158492 
L 163.05003 134.639326 
L 163.05003 132.562661 
L 163.05003 131.005162 
L 164.126566 127.890165 
L 164.126566 126.332666 
L 163.588298 123.736835 
L 161.435227 120.881421 
L 157.129085 116.208924 
L 146.363731 111.276845 
L 144.748928 109.459763 
L 143.672393 107.383098 
L 138.289716 99.336021 
L 134.521842 88.952697 
L 128.600897 80.646037 
L 124.294756 76.492707 
L 121.603417 74.675625 
L 118.912079 73.377709 
L 115.682472 72.858543 
L 112.991134 72.079794 
L 106.531922 68.964796 
L 105.993654 67.666881 
L 100.610977 67.926464 
L 96.304835 67.147714 
L 92.536961 67.407297 
L 89.307355 70.003129 
L 90.38389 71.301044 
L 92.536961 71.82021 
L 91.460426 74.156459 
L 89.307355 75.194791 
L 89.845623 75.454374 
L 90.922158 76.75229 
L 91.460426 77.271456 
L 90.38389 79.348121 
L 89.845623 79.607704 
L 89.307355 80.386454 
L 87.692552 79.088538 
L 77.465466 66.628548 
z
" clip-path="url(#p9df943bac4)" style="fill: #bdc3c7; stroke: #ffffff; stroke-width: 0.5"/>
   </g>
   <g id="PatchCollection_2">
    <defs>
     <path id="m348ca2bd98" d="M 180.812864 -227.755638 
L 181.8894 -229.313137 
L 183.504203 -233.985633 
L 185.119006 -235.023965 
L 186.733809 -235.543132 
L 188.88688 -236.581464 
L 190.501683 -237.87938 
L 199.113966 -248.781871 
L 203.420108 -251.896868 
L 203.420108 -250.33937 
L 204.496643 -249.301037 
L 205.573178 -248.522288 
L 207.187982 -247.743538 
L 209.87932 -249.041454 
L 212.570659 -249.301037 
L 214.723729 -248.262705 
L 216.338533 -246.705206 
L 217.415068 -243.849792 
L 215.261997 -243.330625 
L 213.108926 -243.330625 
L 211.494123 -241.25396 
L 213.647194 -239.177295 
L 215.800265 -235.023965 
L 216.8768 -230.351469 
L 216.338533 -227.755638 
L 221.72121 -221.26606 
L 222.797745 -220.227727 
L 230.87176 -219.968144 
L 233.024831 -219.448978 
L 234.639634 -218.151062 
L 235.71617 -217.11273 
L 237.330973 -216.333981 
L 240.560579 -216.074397 
L 242.175382 -215.036065 
L 242.71365 -212.699817 
L 242.71365 -209.844403 
L 242.175382 -207.767738 
L 244.866721 -210.103986 
L 246.481524 -210.363569 
L 248.096327 -208.80607 
L 247.558059 -210.363569 
L 244.328453 -213.218983 
L 243.790185 -213.478566 
L 243.790185 -215.555231 
L 242.71365 -216.853147 
L 241.098847 -217.372313 
L 238.945776 -217.11273 
L 238.945776 -218.151062 
L 243.251918 -218.151062 
L 245.404988 -218.410646 
L 247.019791 -219.448978 
L 248.634595 -216.333981 
L 250.249398 -216.853147 
L 252.402468 -219.189395 
L 254.555539 -220.227727 
L 257.785145 -221.006477 
L 263.167822 -224.900224 
L 265.859161 -225.678973 
L 270.165303 -224.381057 
L 270.70357 -221.26606 
L 270.165303 -217.891479 
L 270.70357 -215.036065 
L 273.394909 -214.257316 
L 277.162783 -215.295648 
L 282.007192 -218.151062 
L 282.007192 -219.448978 
L 280.392389 -219.189395 
L 278.777586 -218.670229 
L 277.70105 -217.891479 
L 276.086247 -216.593564 
L 275.009712 -215.555231 
L 274.471444 -216.333981 
L 273.394909 -220.746894 
L 273.394909 -222.304392 
L 273.394909 -223.861891 
L 272.318373 -224.381057 
L 271.241838 -224.900224 
L 271.241838 -225.678973 
L 270.70357 -226.976889 
L 270.70357 -228.274804 
L 271.241838 -231.130219 
L 272.318373 -232.9473 
L 278.239318 -238.138963 
L 279.315854 -239.177295 
L 279.854121 -240.734794 
L 280.392389 -241.513543 
L 282.007192 -241.25396 
L 284.698531 -240.215628 
L 305.690971 -239.177295 
L 313.226719 -240.994377 
L 316.456325 -241.25396 
L 318.071128 -241.25396 
L 318.609396 -241.25396 
L 319.685931 -240.994377 
L 320.762466 -241.25396 
L 321.839002 -241.773127 
L 322.915537 -242.551876 
L 323.453805 -243.071042 
L 323.992073 -243.590208 
L 327.221679 -243.590208 
L 336.910498 -242.551876 
L 340.140104 -242.811459 
L 348.752387 -245.666873 
L 349.828922 -246.445623 
L 353.058529 -248.522288 
L 354.135064 -248.781871 
L 355.749867 -248.262705 
L 357.902938 -246.18604 
L 359.517741 -245.666873 
L 361.132544 -245.666873 
L 362.747347 -245.926457 
L 364.36215 -246.445623 
L 365.976953 -247.743538 
L 367.591756 -249.301037 
L 369.744827 -252.935201 
L 371.35963 -253.973533 
L 372.974433 -253.973533 
L 374.589237 -253.454367 
L 376.742307 -252.416035 
L 377.818843 -251.377702 
L 379.433646 -250.858536 
L 381.048449 -251.118119 
L 382.663252 -251.637285 
L 383.739787 -251.896868 
L 386.969394 -251.118119 
L 388.584197 -249.301037 
L 390.199 -247.224372 
L 391.813803 -245.666873 
L 396.658212 -243.849792 
L 403.117425 -243.590208 
L 408.500102 -245.666873 
L 410.114905 -251.896868 
L 409.576637 -251.896868 
L 409.038369 -251.896868 
L 408.500102 -249.56062 
L 407.423566 -247.743538 
L 405.808763 -246.18604 
L 404.19396 -245.666873 
L 401.502622 -245.926457 
L 396.658212 -247.483955 
L 393.966874 -247.743538 
L 391.813803 -248.522288 
L 389.660732 -250.33937 
L 385.892858 -253.454367 
L 384.816323 -254.233116 
L 383.20152 -253.973533 
L 382.124984 -253.454367 
L 381.048449 -252.935201 
L 379.433646 -253.454367 
L 378.35711 -253.973533 
L 377.280575 -254.752283 
L 376.742307 -255.011866 
L 374.589237 -255.531032 
L 372.974433 -256.569365 
L 370.821363 -256.828948 
L 368.130024 -256.050198 
L 366.515221 -254.752283 
L 364.36215 -251.896868 
L 362.747347 -250.858536 
L 360.056009 -250.858536 
L 356.288135 -252.675618 
L 353.596796 -252.935201 
L 350.905458 -252.416035 
L 344.446245 -248.781871 
L 339.063568 -247.224372 
L 291.157743 -243.330625 
L 286.313334 -245.147707 
L 283.621995 -245.666873 
L 280.930657 -244.888124 
L 278.239318 -243.590208 
L 273.933177 -240.215628 
L 267.473964 -233.985633 
L 265.859161 -232.9473 
L 264.782626 -232.428134 
L 263.70609 -231.389802 
L 262.629555 -231.130219 
L 261.553019 -231.908968 
L 261.553019 -232.9473 
L 261.553019 -234.764382 
L 262.091287 -236.581464 
L 261.553019 -238.138963 
L 258.861681 -235.802715 
L 258.861681 -234.504799 
L 259.399949 -232.9473 
L 257.785145 -232.168551 
L 257.246878 -231.908968 
L 257.246878 -230.870635 
L 258.323413 -230.611052 
L 258.861681 -230.091886 
L 259.399949 -229.832303 
L 256.70861 -228.274804 
L 251.325933 -227.755638 
L 246.481524 -227.496055 
L 243.251918 -227.755638 
L 231.410028 -230.611052 
L 226.565619 -230.870635 
L 227.642154 -232.168551 
L 229.256957 -236.062298 
L 229.795225 -237.619797 
L 229.256957 -239.696462 
L 227.642154 -242.811459 
L 227.642154 -244.109375 
L 227.103887 -245.147707 
L 224.412548 -247.224372 
L 223.336013 -248.781871 
L 221.72121 -249.820203 
L 221.72121 -250.33937 
L 221.72121 -253.454367 
L 222.797745 -259.943945 
L 222.797745 -262.280193 
L 221.72121 -264.356858 
L 220.644674 -265.914357 
L 230.333493 -265.914357 
L 239.484044 -265.914357 
L 248.634595 -265.914357 
L 257.785145 -265.654774 
L 267.473964 -265.654774 
L 276.624515 -265.654774 
L 285.775066 -265.654774 
L 291.696011 -265.654774 
L 294.925617 -265.654774 
L 304.614435 -265.654774 
L 313.764986 -265.654774 
L 322.915537 -265.654774 
L 332.066088 -265.395191 
L 341.754907 -265.395191 
L 350.905458 -265.395191 
L 360.056009 -265.395191 
L 369.20656 -265.395191 
L 376.742307 -265.395191 
L 378.895378 -266.17394 
L 379.433646 -272.144352 
L 379.971914 -274.221017 
L 379.971914 -275.259349 
L 381.048449 -278.63393 
L 382.663252 -282.008511 
L 384.278055 -284.604342 
L 389.122464 -289.536421 
L 395.043409 -294.208917 
L 402.040889 -297.064332 
L 408.500102 -295.766416 
L 410.114905 -294.4685 
L 412.806243 -290.574754 
L 414.421046 -289.796004 
L 417.650653 -290.574754 
L 428.416007 -297.843081 
L 439.719628 -301.736828 
L 442.949235 -301.477245 
L 451.561518 -298.102664 
L 466.633013 -297.583498 
L 472.01569 -295.766416 
L 475.245297 -293.430168 
L 477.398367 -291.353503 
L 479.551438 -288.757672 
L 480.627974 -285.902257 
L 483.85758 -276.038099 
L 484.934115 -274.740183 
L 490.85506 -271.106019 
L 493.008131 -270.32727 
L 494.622934 -270.846436 
L 503.773485 -276.038099 
L 510.232697 -277.595597 
L 516.153642 -277.336014 
L 522.612854 -274.221017 
L 525.304193 -271.884769 
L 527.457264 -269.288938 
L 529.072067 -266.433523 
L 530.68687 -259.684362 
L 531.763405 -257.607697 
L 533.378208 -256.050198 
L 534.454744 -255.011866 
L 545.220098 -247.224372 
L 548.987972 -245.666873 
L 551.67931 -245.147707 
L 554.370649 -245.926457 
L 562.982932 -249.041454 
L 571.595215 -254.233116 
L 574.286554 -255.531032 
L 582.898837 -257.348114 
L 589.896317 -260.982278 
L 592.587655 -261.761027 
L 594.202459 -261.761027 
L 596.893797 -261.501444 
L 598.5086 -261.761027 
L 600.123403 -262.539776 
L 603.353009 -264.356858 
L 605.50608 -264.616441 
L 608.735686 -264.097275 
L 612.50356 -262.799359 
L 615.733167 -260.982278 
L 618.424505 -258.905613 
L 618.962773 -257.607697 
L 620.039308 -254.752283 
L 621.115844 -253.454367 
L 621.115844 -253.194784 
L 622.192379 -252.156451 
L 625.960253 -250.33937 
L 627.036788 -249.041454 
L 630.804662 -241.773127 
L 630.266395 -233.72605 
L 625.960253 -227.236472 
L 618.424505 -224.121474 
L 607.120883 -223.083142 
L 601.199939 -221.525643 
L 595.278994 -221.26606 
L 588.819782 -218.929812 
L 586.128443 -219.189395 
L 583.975372 -218.151062 
L 576.977892 -212.699817 
L 573.748286 -210.882735 
L 569.442144 -210.882735 
L 561.368129 -212.440234 
L 552.755846 -211.661484 
L 548.449704 -211.921068 
L 544.68183 -212.9594 
L 539.299153 -215.814814 
L 537.68435 -216.853147 
L 536.069547 -218.151062 
L 534.993011 -219.708561 
L 533.378208 -221.525643 
L 531.225138 -222.044809 
L 526.918996 -222.304392 
L 524.765925 -222.823559 
L 522.612854 -224.121474 
L 520.998051 -225.41939 
L 516.69191 -229.313137 
L 515.077107 -230.091886 
L 510.232697 -228.79397 
L 504.85002 -228.015221 
L 499.467343 -228.79397 
L 494.084666 -230.870635 
L 490.316792 -234.504799 
L 487.087186 -238.917712 
L 485.472383 -239.956045 
L 482.242777 -240.475211 
L 479.551438 -241.25396 
L 474.707029 -244.368958 
L 472.553958 -245.147707 
L 466.633013 -245.666873 
L 461.788604 -246.964789 
L 452.099786 -251.896868 
L 444.564038 -257.348114 
L 437.566558 -263.578109 
L 433.798684 -266.433523 
L 430.03081 -265.135608 
L 427.339471 -261.761027 
L 423.571597 -258.126863 
L 421.418527 -254.752283 
L 420.880259 -245.40729 
L 420.341991 -240.994377 
L 417.112385 -237.10063 
L 412.806243 -234.245216 
L 407.961834 -232.428134 
L 403.117425 -231.389802 
L 397.734748 -231.389802 
L 381.048449 -235.023965 
L 376.742307 -235.023965 
L 372.974433 -233.72605 
L 369.744827 -231.908968 
L 364.900418 -230.351469 
L 362.747347 -230.091886 
L 352.520261 -231.130219 
L 350.905458 -231.130219 
L 343.907978 -229.053554 
L 333.680891 -228.015221 
L 331.527821 -226.976889 
L 330.989553 -224.900224 
L 330.989553 -213.997732 
L 330.989553 -211.401901 
L 330.451285 -200.49941 
L 329.37475 -199.720661 
L 323.992073 -199.980244 
L 320.224199 -199.980244 
L 310.53538 -199.980244 
L 291.157743 -200.239827 
L 257.785145 -200.49941 
L 235.177902 -200.758993 
L 210.417588 -201.018576 
L 203.958375 -201.018576 
L 198.575698 -199.720661 
L 196.422628 -196.086497 
L 195.88436 -194.528998 
L 193.731289 -192.19275 
L 192.654754 -190.894835 
L 192.116486 -189.337336 
L 192.116486 -185.703172 
L 189.963415 -187.779837 
L 187.272077 -188.558587 
L 187.272077 -189.596919 
L 187.810344 -190.894835 
L 188.88688 -192.9715 
L 188.348612 -195.307748 
L 185.657274 -202.835658 
L 185.657274 -204.65274 
L 185.657274 -211.921068 
L 185.657274 -213.997732 
L 184.580738 -216.074397 
L 181.8894 -218.929812 
L 181.351132 -221.006477 
L 182.427667 -223.342725 
L 181.8894 -224.121474 
z
" style="stroke: #ffffff; stroke-width: 0.6"/>
    </defs>
    <g clip-path="url(#p9df943bac4)">
     <use xlink:href="#m348ca2bd98" x="0" y="510.357344" style="fill: #e74c3c; stroke: #ffffff; stroke-width: 0.6"/>
    </g>
   </g>
   <g id="text_1">
    <g id="patch_2">
     <path d="M 488.2676 107.610875 
L 519.921818 107.610875 
Q 521.321818 107.610875 521.321818 106.210875 
L 521.321818 99.210329 
Q 521.321818 97.810329 519.921818 97.810329 
L 488.2676 97.810329 
Q 486.8676 97.810329 486.8676 99.210329 
L 486.8676 106.210875 
Q 486.8676 107.610875 488.2676 107.610875 
z
" clip-path="url(#p9df943bac4)" style="fill: #ffffff; opacity: 0.6"/>
    </g>
    <g clip-path="url(#p9df943bac4)">
     <!-- Senegal -->
     <g style="fill: #1a252f" transform="translate(488.2676 104.529235) scale(0.07 -0.07)">
      <defs>
       <path id="DejaVuSans-Bold-36" d="M 3834 4519 
L 3834 3531 
Q 3450 3703 3084 3790 
Q 2719 3878 2394 3878 
Q 1963 3878 1756 3759 
Q 1550 3641 1550 3391 
Q 1550 3203 1689 3098 
Q 1828 2994 2194 2919 
L 2706 2816 
Q 3484 2659 3812 2340 
Q 4141 2022 4141 1434 
Q 4141 663 3683 286 
Q 3225 -91 2284 -91 
Q 1841 -91 1394 -6 
Q 947 78 500 244 
L 500 1259 
Q 947 1022 1364 901 
Q 1781 781 2169 781 
Q 2563 781 2772 912 
Q 2981 1044 2981 1288 
Q 2981 1506 2839 1625 
Q 2697 1744 2272 1838 
L 1806 1941 
Q 1106 2091 782 2419 
Q 459 2747 459 3303 
Q 459 4000 909 4375 
Q 1359 4750 2203 4750 
Q 2588 4750 2994 4692 
Q 3400 4634 3834 4519 
z
" transform="scale(0.015625)"/>
       <path id="DejaVuSans-Bold-48" d="M 4031 1759 
L 4031 1441 
L 1416 1441 
Q 1456 1047 1700 850 
Q 1944 653 2381 653 
Q 2734 653 3104 758 
Q 3475 863 3866 1075 
L 3866 213 
Q 3469 63 3072 -14 
Q 2675 -91 2278 -91 
Q 1328 -91 801 392 
Q 275 875 275 1747 
Q 275 2603 792 3093 
Q 1309 3584 2216 3584 
Q 3041 3584 3536 3087 
Q 4031 2591 4031 1759 
z
M 2881 2131 
Q 2881 2450 2695 2645 
Q 2509 2841 2209 2841 
Q 1884 2841 1681 2658 
Q 1478 2475 1428 2131 
L 2881 2131 
z
" transform="scale(0.015625)"/>
       <path id="DejaVuSans-Bold-51" d="M 4056 2131 
L 4056 0 
L 2931 0 
L 2931 347 
L 2931 1631 
Q 2931 2084 2911 2256 
Q 2891 2428 2841 2509 
Q 2775 2619 2662 2680 
Q 2550 2741 2406 2741 
Q 2056 2741 1856 2470 
Q 1656 2200 1656 1722 
L 1656 0 
L 538 0 
L 538 3500 
L 1656 3500 
L 1656 2988 
Q 1909 3294 2193 3439 
Q 2478 3584 2822 3584 
Q 3428 3584 3742 3212 
Q 4056 2841 4056 2131 
z
" transform="scale(0.015625)"/>
       <path id="DejaVuSans-Bold-4a" d="M 2919 594 
Q 2688 288 2409 144 
Q 2131 0 1766 0 
Q 1125 0 706 504 
Q 288 1009 288 1791 
Q 288 2575 706 3076 
Q 1125 3578 1766 3578 
Q 2131 3578 2409 3434 
Q 2688 3291 2919 2981 
L 2919 3500 
L 4044 3500 
L 4044 353 
Q 4044 -491 3511 -936 
Q 2978 -1381 1966 -1381 
Q 1638 -1381 1331 -1331 
Q 1025 -1281 716 -1178 
L 716 -306 
Q 1009 -475 1290 -558 
Q 1572 -641 1856 -641 
Q 2406 -641 2662 -400 
Q 2919 -159 2919 353 
L 2919 594 
z
M 2181 2772 
Q 1834 2772 1640 2515 
Q 1447 2259 1447 1791 
Q 1447 1309 1634 1061 
Q 1822 813 2181 813 
Q 2531 813 2725 1069 
Q 2919 1325 2919 1791 
Q 2919 2259 2725 2515 
Q 2531 2772 2181 2772 
z
" transform="scale(0.015625)"/>
       <path id="DejaVuSans-Bold-44" d="M 2106 1575 
Q 1756 1575 1579 1456 
Q 1403 1338 1403 1106 
Q 1403 894 1545 773 
Q 1688 653 1941 653 
Q 2256 653 2472 879 
Q 2688 1106 2688 1447 
L 2688 1575 
L 2106 1575 
z
M 3816 1997 
L 3816 0 
L 2688 0 
L 2688 519 
Q 2463 200 2181 54 
Q 1900 -91 1497 -91 
Q 953 -91 614 226 
Q 275 544 275 1050 
Q 275 1666 698 1953 
Q 1122 2241 2028 2241 
L 2688 2241 
L 2688 2328 
Q 2688 2594 2478 2717 
Q 2269 2841 1825 2841 
Q 1466 2841 1156 2769 
Q 847 2697 581 2553 
L 581 3406 
Q 941 3494 1303 3539 
Q 1666 3584 2028 3584 
Q 2975 3584 3395 3211 
Q 3816 2838 3816 1997 
z
" transform="scale(0.015625)"/>
       <path id="DejaVuSans-Bold-4f" d="M 538 4863 
L 1656 4863 
L 1656 0 
L 538 0 
L 538 4863 
z
" transform="scale(0.015625)"/>
      </defs>
      <use xlink:href="#DejaVuSans-Bold-36"/>
      <use xlink:href="#DejaVuSans-Bold-48" transform="translate(72.015625 0)"/>
      <use xlink:href="#DejaVuSans-Bold-51" transform="translate(139.84375 0)"/>
      <use xlink:href="#DejaVuSans-Bold-48" transform="translate(211.03125 0)"/>
      <use xlink:href="#DejaVuSans-Bold-4a" transform="translate(278.859375 0)"/>
      <use xlink:href="#DejaVuSans-Bold-44" transform="translate(350.4375 0)"/>
      <use xlink:href="#DejaVuSans-Bold-4f" transform="translate(417.921875 0)"/>
     </g>
    </g>
   </g>
   <g id="text_2">
    <!-- Gambia -->
    <g style="fill: #1a252f" transform="translate(369.504466 20.117344) scale(0.17 -0.17)">
     <defs>
      <path id="DejaVuSans-Bold-2a" d="M 4781 347 
Q 4331 128 3847 18 
Q 3363 -91 2847 -91 
Q 1681 -91 1000 561 
Q 319 1213 319 2328 
Q 319 3456 1012 4103 
Q 1706 4750 2913 4750 
Q 3378 4750 3804 4662 
Q 4231 4575 4609 4403 
L 4609 3438 
Q 4219 3659 3833 3768 
Q 3447 3878 3059 3878 
Q 2341 3878 1952 3476 
Q 1563 3075 1563 2328 
Q 1563 1588 1938 1184 
Q 2313 781 3003 781 
Q 3191 781 3352 804 
Q 3513 828 3641 878 
L 3641 1784 
L 2906 1784 
L 2906 2591 
L 4781 2591 
L 4781 347 
z
" transform="scale(0.015625)"/>
      <path id="DejaVuSans-Bold-50" d="M 3781 2919 
Q 3994 3244 4286 3414 
Q 4578 3584 4928 3584 
Q 5531 3584 5847 3212 
Q 6163 2841 6163 2131 
L 6163 0 
L 5038 0 
L 5038 1825 
Q 5041 1866 5042 1909 
Q 5044 1953 5044 2034 
Q 5044 2406 4934 2573 
Q 4825 2741 4581 2741 
Q 4263 2741 4089 2478 
Q 3916 2216 3909 1719 
L 3909 0 
L 2784 0 
L 2784 1825 
Q 2784 2406 2684 2573 
Q 2584 2741 2328 2741 
Q 2006 2741 1831 2477 
Q 1656 2213 1656 1722 
L 1656 0 
L 531 0 
L 531 3500 
L 1656 3500 
L 1656 2988 
Q 1863 3284 2130 3434 
Q 2397 3584 2719 3584 
Q 3081 3584 3359 3409 
Q 3638 3234 3781 2919 
z
" transform="scale(0.015625)"/>
      <path id="DejaVuSans-Bold-45" d="M 2400 722 
Q 2759 722 2948 984 
Q 3138 1247 3138 1747 
Q 3138 2247 2948 2509 
Q 2759 2772 2400 2772 
Q 2041 2772 1848 2508 
Q 1656 2244 1656 1747 
Q 1656 1250 1848 986 
Q 2041 722 2400 722 
z
M 1656 2988 
Q 1888 3294 2169 3439 
Q 2450 3584 2816 3584 
Q 3463 3584 3878 3070 
Q 4294 2556 4294 1747 
Q 4294 938 3878 423 
Q 3463 -91 2816 -91 
Q 2450 -91 2169 54 
Q 1888 200 1656 506 
L 1656 0 
L 538 0 
L 538 4863 
L 1656 4863 
L 1656 2988 
z
" transform="scale(0.015625)"/>
      <path id="DejaVuSans-Bold-4c" d="M 538 3500 
L 1656 3500 
L 1656 0 
L 538 0 
L 538 3500 
z
M 538 4863 
L 1656 4863 
L 1656 3950 
L 538 3950 
L 538 4863 
z
" transform="scale(0.015625)"/>
     </defs>
     <use xlink:href="#DejaVuSans-Bold-2a"/>
     <use xlink:href="#DejaVuSans-Bold-44" transform="translate(82.078125 0)"/>
     <use xlink:href="#DejaVuSans-Bold-50" transform="translate(149.5625 0)"/>
     <use xlink:href="#DejaVuSans-Bold-45" transform="translate(253.765625 0)"/>
     <use xlink:href="#DejaVuSans-Bold-4c" transform="translate(325.34375 0)"/>
     <use xlink:href="#DejaVuSans-Bold-44" transform="translate(359.625 0)"/>
    </g>
   </g>
   <g id="legend_1">
    <g id="patch_3">
     <path d="M 13.5 498.657344 
L 88.097344 498.657344 
Q 89.897344 498.657344 89.897344 496.857344 
L 89.897344 470.755937 
Q 89.897344 468.955937 88.097344 468.955937 
L 13.5 468.955937 
Q 11.7 468.955937 11.7 470.755937 
L 11.7 496.857344 
Q 11.7 498.657344 13.5 498.657344 
z
" style="fill: #ffffff; opacity: 0.85; stroke: #cccccc; stroke-linejoin: miter"/>
    </g>
    <g id="patch_4">
     <path d="M 15.3 479.394531 
L 33.3 479.394531 
L 33.3 473.094531 
L 15.3 473.094531 
z
" style="fill: #e74c3c; stroke: #888888; stroke-linejoin: miter"/>
    </g>
    <g id="text_3">
     <!-- Gambia -->
     <g transform="translate(40.5 479.394531) scale(0.09 -0.09)">
      <defs>
       <path id="DejaVuSans-2a" d="M 3809 666 
L 3809 1919 
L 2778 1919 
L 2778 2438 
L 4434 2438 
L 4434 434 
Q 4069 175 3628 42 
Q 3188 -91 2688 -91 
Q 1594 -91 976 548 
Q 359 1188 359 2328 
Q 359 3472 976 4111 
Q 1594 4750 2688 4750 
Q 3144 4750 3555 4637 
Q 3966 4525 4313 4306 
L 4313 3634 
Q 3963 3931 3569 4081 
Q 3175 4231 2741 4231 
Q 1884 4231 1454 3753 
Q 1025 3275 1025 2328 
Q 1025 1384 1454 906 
Q 1884 428 2741 428 
Q 3075 428 3337 486 
Q 3600 544 3809 666 
z
" transform="scale(0.015625)"/>
       <path id="DejaVuSans-44" d="M 2194 1759 
Q 1497 1759 1228 1600 
Q 959 1441 959 1056 
Q 959 750 1161 570 
Q 1363 391 1709 391 
Q 2188 391 2477 730 
Q 2766 1069 2766 1631 
L 2766 1759 
L 2194 1759 
z
M 3341 1997 
L 3341 0 
L 2766 0 
L 2766 531 
Q 2569 213 2275 61 
Q 1981 -91 1556 -91 
Q 1019 -91 701 211 
Q 384 513 384 1019 
Q 384 1609 779 1909 
Q 1175 2209 1959 2209 
L 2766 2209 
L 2766 2266 
Q 2766 2663 2505 2880 
Q 2244 3097 1772 3097 
Q 1472 3097 1187 3025 
Q 903 2953 641 2809 
L 641 3341 
Q 956 3463 1253 3523 
Q 1550 3584 1831 3584 
Q 2591 3584 2966 3190 
Q 3341 2797 3341 1997 
z
" transform="scale(0.015625)"/>
       <path id="DejaVuSans-50" d="M 3328 2828 
Q 3544 3216 3844 3400 
Q 4144 3584 4550 3584 
Q 5097 3584 5394 3201 
Q 5691 2819 5691 2113 
L 5691 0 
L 5113 0 
L 5113 2094 
Q 5113 2597 4934 2840 
Q 4756 3084 4391 3084 
Q 3944 3084 3684 2787 
Q 3425 2491 3425 1978 
L 3425 0 
L 2847 0 
L 2847 2094 
Q 2847 2600 2669 2842 
Q 2491 3084 2119 3084 
Q 1678 3084 1418 2786 
Q 1159 2488 1159 1978 
L 1159 0 
L 581 0 
L 581 3500 
L 1159 3500 
L 1159 2956 
Q 1356 3278 1631 3431 
Q 1906 3584 2284 3584 
Q 2666 3584 2933 3390 
Q 3200 3197 3328 2828 
z
" transform="scale(0.015625)"/>
       <path id="DejaVuSans-45" d="M 3116 1747 
Q 3116 2381 2855 2742 
Q 2594 3103 2138 3103 
Q 1681 3103 1420 2742 
Q 1159 2381 1159 1747 
Q 1159 1113 1420 752 
Q 1681 391 2138 391 
Q 2594 391 2855 752 
Q 3116 1113 3116 1747 
z
M 1159 2969 
Q 1341 3281 1617 3432 
Q 1894 3584 2278 3584 
Q 2916 3584 3314 3078 
Q 3713 2572 3713 1747 
Q 3713 922 3314 415 
Q 2916 -91 2278 -91 
Q 1894 -91 1617 61 
Q 1341 213 1159 525 
L 1159 0 
L 581 0 
L 581 4863 
L 1159 4863 
L 1159 2969 
z
" transform="scale(0.015625)"/>
       <path id="DejaVuSans-4c" d="M 603 3500 
L 1178 3500 
L 1178 0 
L 603 0 
L 603 3500 
z
M 603 4863 
L 1178 4863 
L 1178 4134 
L 603 4134 
L 603 4863 
z
" transform="scale(0.015625)"/>
      </defs>
      <use xlink:href="#DejaVuSans-2a"/>
      <use xlink:href="#DejaVuSans-44" transform="translate(77.484375 0)"/>
      <use xlink:href="#DejaVuSans-50" transform="translate(138.765625 0)"/>
      <use xlink:href="#DejaVuSans-45" transform="translate(236.171875 0)"/>
      <use xlink:href="#DejaVuSans-4c" transform="translate(299.65625 0)"/>
      <use xlink:href="#DejaVuSans-44" transform="translate(327.4375 0)"/>
     </g>
    </g>
    <g id="patch_5">
     <path d="M 15.3 492.895234 
L 33.3 492.895234 
L 33.3 486.595234 
L 15.3 486.595234 
z
" style="fill: #bdc3c7; stroke: #888888; stroke-linejoin: miter"/>
    </g>
    <g id="text_4">
     <!-- Neighbors -->
     <g transform="translate(40.5 492.895234) scale(0.09 -0.09)">
      <defs>
       <path id="DejaVuSans-31" d="M 628 4666 
L 1478 4666 
L 3547 763 
L 3547 4666 
L 4159 4666 
L 4159 0 
L 3309 0 
L 1241 3903 
L 1241 0 
L 628 0 
L 628 4666 
z
" transform="scale(0.015625)"/>
       <path id="DejaVuSans-48" d="M 3597 1894 
L 3597 1613 
L 953 1613 
Q 991 1019 1311 708 
Q 1631 397 2203 397 
Q 2534 397 2845 478 
Q 3156 559 3463 722 
L 3463 178 
Q 3153 47 2828 -22 
Q 2503 -91 2169 -91 
Q 1331 -91 842 396 
Q 353 884 353 1716 
Q 353 2575 817 3079 
Q 1281 3584 2069 3584 
Q 2775 3584 3186 3129 
Q 3597 2675 3597 1894 
z
M 3022 2063 
Q 3016 2534 2758 2815 
Q 2500 3097 2075 3097 
Q 1594 3097 1305 2825 
Q 1016 2553 972 2059 
L 3022 2063 
z
" transform="scale(0.015625)"/>
       <path id="DejaVuSans-4a" d="M 2906 1791 
Q 2906 2416 2648 2759 
Q 2391 3103 1925 3103 
Q 1463 3103 1205 2759 
Q 947 2416 947 1791 
Q 947 1169 1205 825 
Q 1463 481 1925 481 
Q 2391 481 2648 825 
Q 2906 1169 2906 1791 
z
M 3481 434 
Q 3481 -459 3084 -895 
Q 2688 -1331 1869 -1331 
Q 1566 -1331 1297 -1286 
Q 1028 -1241 775 -1147 
L 775 -588 
Q 1028 -725 1275 -790 
Q 1522 -856 1778 -856 
Q 2344 -856 2625 -561 
Q 2906 -266 2906 331 
L 2906 616 
Q 2728 306 2450 153 
Q 2172 0 1784 0 
Q 1141 0 747 490 
Q 353 981 353 1791 
Q 353 2603 747 3093 
Q 1141 3584 1784 3584 
Q 2172 3584 2450 3431 
Q 2728 3278 2906 2969 
L 2906 3500 
L 3481 3500 
L 3481 434 
z
" transform="scale(0.015625)"/>
       <path id="DejaVuSans-4b" d="M 3513 2113 
L 3513 0 
L 2938 0 
L 2938 2094 
Q 2938 2591 2744 2837 
Q 2550 3084 2163 3084 
Q 1697 3084 1428 2787 
Q 1159 2491 1159 1978 
L 1159 0 
L 581 0 
L 581 4863 
L 1159 4863 
L 1159 2956 
Q 1366 3272 1645 3428 
Q 1925 3584 2291 3584 
Q 2894 3584 3203 3211 
Q 3513 2838 3513 2113 
z
" transform="scale(0.015625)"/>
       <path id="DejaVuSans-52" d="M 1959 3097 
Q 1497 3097 1228 2736 
Q 959 2375 959 1747 
Q 959 1119 1226 758 
Q 1494 397 1959 397 
Q 2419 397 2687 759 
Q 2956 1122 2956 1747 
Q 2956 2369 2687 2733 
Q 2419 3097 1959 3097 
z
M 1959 3584 
Q 2709 3584 3137 3096 
Q 3566 2609 3566 1747 
Q 3566 888 3137 398 
Q 2709 -91 1959 -91 
Q 1206 -91 779 398 
Q 353 888 353 1747 
Q 353 2609 779 3096 
Q 1206 3584 1959 3584 
z
" transform="scale(0.015625)"/>
       <path id="DejaVuSans-55" d="M 2631 2963 
Q 2534 3019 2420 3045 
Q 2306 3072 2169 3072 
Q 1681 3072 1420 2755 
Q 1159 2438 1159 1844 
L 1159 0 
L 581 0 
L 581 3500 
L 1159 3500 
L 1159 2956 
Q 1341 3275 1631 3429 
Q 1922 3584 2338 3584 
Q 2397 3584 2469 3576 
Q 2541 3569 2628 3553 
L 2631 2963 
z
" transform="scale(0.015625)"/>
       <path id="DejaVuSans-56" d="M 2834 3397 
L 2834 2853 
Q 2591 2978 2328 3040 
Q 2066 3103 1784 3103 
Q 1356 3103 1142 2972 
Q 928 2841 928 2578 
Q 928 2378 1081 2264 
Q 1234 2150 1697 2047 
L 1894 2003 
Q 2506 1872 2764 1633 
Q 3022 1394 3022 966 
Q 3022 478 2636 193 
Q 2250 -91 1575 -91 
Q 1294 -91 989 -36 
Q 684 19 347 128 
L 347 722 
Q 666 556 975 473 
Q 1284 391 1588 391 
Q 1994 391 2212 530 
Q 2431 669 2431 922 
Q 2431 1156 2273 1281 
Q 2116 1406 1581 1522 
L 1381 1569 
Q 847 1681 609 1914 
Q 372 2147 372 2553 
Q 372 3047 722 3315 
Q 1072 3584 1716 3584 
Q 2034 3584 2315 3537 
Q 2597 3491 2834 3397 
z
" transform="scale(0.015625)"/>
      </defs>
      <use xlink:href="#DejaVuSans-31"/>
      <use xlink:href="#DejaVuSans-48" transform="translate(74.8125 0)"/>
      <use xlink:href="#DejaVuSans-4c" transform="translate(136.34375 0)"/>
      <use xlink:href="#DejaVuSans-4a" transform="translate(164.125 0)"/>
      <use xlink:href="#DejaVuSans-4b" transform="translate(227.609375 0)"/>
      <use xlink:href="#DejaVuSans-45" transform="translate(290.984375 0)"/>
      <use xlink:href="#DejaVuSans-52" transform="translate(354.46875 0)"/>
      <use xlink:href="#DejaVuSans-55" transform="translate(415.65625 0)"/>
      <use xlink:href="#DejaVuSans-56" transform="translate(456.765625 0)"/>
     </g>
    </g>
   </g>
  </g>
 </g>
 <defs>
  <clipPath id="p9df943bac4">
   <rect x="7.2" y="30.117344" width="797.217526" height="473.04"/>
  </clipPath>
 </defs>
</svg>
