<?xml version="1.0" encoding="utf-8" standalone="no"?>
<!DOCTYPE svg PUBLIC "-//W3C//DTD SVG 1.1//EN"
  "http://www.w3.org/Graphics/SVG/1.1/DTD/svg11.dtd">
<svg xmlns:xlink="http://www.w3.org/1999/xlink" width="394.433374pt" height="510.357344pt" viewBox="0 0 394.433374 510.357344" xmlns="http://www.w3.org/2000/svg" version="1.1">
 <metadata>
  <rdf:RDF xmlns:dc="http://purl.org/dc/elements/1.1/" xmlns:cc="http://creativecommons.org/ns#" xmlns:rdf="http://www.w3.org/1999/02/22-rdf-syntax-ns#">
   <cc:Work>
    <dc:type rdf:resource="http://purl.org/dc/dcmitype/StillImage"/>
    <dc:date>2026-06-19T08:36:26.795407</dc:date>
    <dc:format>image/svg+xml</dc:format>
    <dc:creator>
     <cc:Agent>
      <dc:title>Matplotlib v3.11.0, https://matplotlib.org/</dc:title>
     </cc:Agent>
    </dc:creator>
   </cc:Work>
  </rdf:RDF>
 </metadata>
 <defs>
  <style type="text/css">*{stroke-linejoin: round; stroke-linecap: butt}</style>
 </defs>
 <g id="figure_1">
  <g id="patch_1">
   <path d="M 0 510.357344 
L 394.433374 510.357344 
L 394.433374 0 
L 0 0 
z
" style="fill: #d6eaf8"/>
  </g>
  <g id="axes_1">
   <g id="PatchCollection_1">
    <path d="M -723.330552 -1696.511578 
L -723.330552 -1698.462533 
L -721.650721 -1700.901228 
L -716.611229 -1713.094699 
L -716.611229 -1715.045655 
L -715.771313 -1717.484349 
L -714.931398 -1719.435304 
L -714.091483 -1721.38626 
L -713.251567 -1723.824954 
L -714.931398 -1725.775909 
L -718.291059 -1727.726865 
L -719.97089 -1734.555209 
L -718.291059 -1736.506164 
L -714.931398 -1736.506164 
L -713.251567 -1738.944859 
L -712.411652 -1744.309986 
L -709.05199 -1746.748681 
L -706.532244 -1748.699636 
L -705.692329 -1752.113808 
L -702.332668 -1749.187375 
L -698.973006 -1748.211897 
L -696.45326 -1749.187375 
L -693.093599 -1752.113808 
L -691.413768 -1753.577025 
L -690.573852 -1755.040241 
L -689.733937 -1756.503458 
L -688.054106 -1757.966674 
L -685.53436 -1758.942152 
L -683.85453 -1759.429891 
L -679.654953 -1759.429891 
L -679.654953 -1761.868585 
L -683.85453 -1759.91763 
L -688.894022 -1758.942152 
L -693.093599 -1759.429891 
L -693.093599 -1761.868585 
L -699.812921 -1758.454413 
L -703.172583 -1758.942152 
L -705.692329 -1763.819541 
L -694.773429 -1773.574318 
L -687.214191 -1776.98849 
L -677.975122 -1773.574318 
L -674.615461 -1773.574318 
L -670.415884 -1774.549796 
L -667.056222 -1775.525273 
L -664.536476 -1777.963968 
L -661.176815 -1779.427184 
L -658.657069 -1783.329095 
L -657.817153 -1787.718745 
L -656.137323 -1787.718745 
L -651.937746 -1784.304573 
L -645.218423 -1784.792312 
L -639.339015 -1786.743267 
L -635.139438 -1789.6697 
L -640.178931 -1789.181962 
L -642.698677 -1791.132917 
L -646.058338 -1797.473522 
L -646.898254 -1797.473522 
L -650.257915 -1798.936739 
L -651.937746 -1800.887694 
L -650.257915 -1801.375433 
L -647.738169 -1801.863172 
L -638.4991 -1805.277344 
L -628.420116 -1811.617949 
L -621.700793 -1813.081166 
L -620.020962 -1815.51986 
L -617.501216 -1816.983077 
L -614.98147 -1817.470816 
L -612.461724 -1816.007599 
L -604.902485 -1809.179255 
L -600.702909 -1807.716038 
L -596.503332 -1806.740561 
L -587.264263 -1804.301866 
L -583.064686 -1803.814127 
L -577.185278 -1805.765083 
L -568.786125 -1810.154733 
L -559.547056 -1812.593427 
L -551.987817 -1809.179255 
L -539.389087 -1814.544382 
L -537.709256 -1816.495338 
L -536.869341 -1818.934032 
L -535.18951 -1821.372727 
L -532.669764 -1822.835943 
L -527.630272 -1823.811421 
L -526.790357 -1824.786899 
L -525.950441 -1826.250115 
L -525.110526 -1827.225593 
L -512.511795 -1830.152026 
L -511.67188 -1826.737854 
L -509.152134 -1823.811421 
L -504.112642 -1819.421771 
L -500.75298 -1822.835943 
L -499.913065 -1825.274637 
L -500.75298 -1832.102982 
L -499.07315 -1836.004892 
L -494.033657 -1835.517154 
L -487.314334 -1831.615243 
L -483.954673 -1830.152026 
L -482.274842 -1827.713332 
L -481.434927 -1824.29916 
L -479.755096 -1821.372727 
L -474.715604 -1816.495338 
L -472.195858 -1813.568905 
L -470.516027 -1809.179255 
L -468.836196 -1814.056644 
L -468.836196 -1818.446293 
L -470.516027 -1827.225593 
L -470.516027 -1831.615243 
L -469.676112 -1834.541676 
L -467.156366 -1836.492631 
L -462.116874 -1838.931326 
L -467.156366 -1841.37002 
L -471.355943 -1841.857759 
L -478.915181 -1840.882281 
L -483.114758 -1842.345498 
L -488.994165 -1847.710625 
L -492.353827 -1849.173842 
L -488.15425 -1852.100275 
L -464.63662 -1855.026708 
L -462.956789 -1855.514447 
L -461.276958 -1856.977664 
L -460.437043 -1858.928619 
L -461.276958 -1860.879574 
L -462.116874 -1861.367313 
L -467.156366 -1858.928619 
L -481.434927 -1856.977664 
L -480.595012 -1857.953141 
L -479.755096 -1858.44088 
L -478.075265 -1858.928619 
L -478.915181 -1859.904097 
L -481.434927 -1860.879574 
L -483.954673 -1857.465402 
L -488.994165 -1855.514447 
L -499.07315 -1855.026708 
L -497.393319 -1859.416358 
L -496.553403 -1865.756963 
L -495.713488 -1870.146613 
L -492.353827 -1868.683396 
L -489.834081 -1873.073046 
L -491.513911 -1874.536263 
L -493.193742 -1876.487218 
L -494.873573 -1879.413651 
L -494.873573 -1882.827823 
L -493.193742 -1882.827823 
L -489.834081 -1881.852345 
L -488.15425 -1882.827823 
L -482.274842 -1881.852345 
L -475.555519 -1885.266518 
L -441.958905 -1908.677983 
L -441.118989 -1905.263811 
L -438.599243 -1903.800594 
L -436.079497 -1903.312855 
L -433.559751 -1904.776072 
L -436.079497 -1904.288333 
L -436.919413 -1904.776072 
L -436.919413 -1906.239289 
L -436.079497 -1906.727027 
L -434.399667 -1907.702505 
L -433.559751 -1908.677983 
L -437.759328 -1911.604416 
L -438.599243 -1915.018588 
L -437.759328 -1917.945021 
L -436.919413 -1921.359193 
L -435.239582 -1923.797888 
L -431.87992 -1924.773365 
L -424.320682 -1924.285627 
L -416.761444 -1926.236582 
L -410.882036 -1929.650754 
L -405.002629 -1934.528143 
L -399.963137 -1940.381009 
L -394.083729 -1939.405531 
L -390.724068 -1935.015881 
L -389.044237 -1930.138493 
L -385.684575 -1926.236582 
L -385.684575 -1924.285627 
L -387.364406 -1925.261104 
L -389.044237 -1925.748843 
L -390.724068 -1926.236582 
L -392.403898 -1923.797888 
L -393.243814 -1921.359193 
L -393.243814 -1918.920499 
L -392.403898 -1916.481805 
L -394.923644 -1915.018588 
L -397.443391 -1916.481805 
L -398.283306 -1915.018588 
L -399.123221 -1915.018588 
L -399.963137 -1914.530849 
L -399.963137 -1912.579894 
L -388.204322 -1912.092155 
L -386.524491 -1914.04311 
L -390.724068 -1920.383716 
L -388.204322 -1921.846932 
L -384.84466 -1922.334671 
L -378.965253 -1920.383716 
L -379.805168 -1921.359193 
L -380.645083 -1923.310149 
L -380.645083 -1924.285627 
L -377.285422 -1927.699799 
L -373.085845 -1931.113971 
L -368.886268 -1933.552665 
L -359.647199 -1935.50362 
L -354.607707 -1938.430054 
L -350.40813 -1942.819703 
L -348.728299 -1947.209353 
L -347.888384 -1948.184831 
L -346.208553 -1947.209353 
L -344.528723 -1945.258398 
L -344.528723 -1941.844226 
L -345.368638 -1940.381009 
L -350.40813 -1934.528143 
L -350.40813 -1930.138493 
L -349.568215 -1929.163015 
L -347.888384 -1929.163015 
L -345.368638 -1930.138493 
L -345.368638 -1931.113971 
L -345.368638 -1932.577187 
L -345.368638 -1933.552665 
L -343.688807 -1934.528143 
L -342.008977 -1934.528143 
L -337.8094 -1936.479098 
L -336.969484 -1932.577187 
L -331.090077 -1922.334671 
L -331.929992 -1917.945021 
L -330.250161 -1918.43276 
L -326.8905 -1922.334671 
L -325.210669 -1926.236582 
L -321.851008 -1925.261104 
L -320.171177 -1926.724321 
L -317.651431 -1929.163015 
L -314.29177 -1930.138493 
L -305.052701 -1929.163015 
L -302.532954 -1928.187537 
L -283.214901 -1918.43276 
L -273.975832 -1915.506327 
L -258.857356 -1891.607123 
L -247.938456 -1886.729734 
L -248.778371 -1885.754256 
L -249.618287 -1884.778779 
L -250.458202 -1883.803301 
L -251.298117 -1883.315562 
L -251.298117 -1880.876868 
L -248.778371 -1879.90139 
L -246.258625 -1880.389129 
L -244.578794 -1881.852345 
L -242.059048 -1883.315562 
L -238.699387 -1883.315562 
L -233.659895 -1881.852345 
L -225.260741 -1880.389129 
L -210.98218 -1880.876868 
L -206.782603 -1883.315562 
L -202.583026 -1880.876868 
L -198.383449 -1880.389129 
L -195.863703 -1878.438173 
L -195.863703 -1873.073046 
L -196.703619 -1869.658874 
L -199.223365 -1866.244702 
L -200.903195 -1862.342791 
L -198.383449 -1857.465402 
L -197.543534 -1857.465402 
L -195.863703 -1861.855052 
L -195.023788 -1866.732441 
L -194.183873 -1870.634352 
L -190.824211 -1873.073046 
L -188.304465 -1879.90139 
L -174.865819 -1882.340084 
L -152.188104 -1883.315562 
L -148.828443 -1882.340084 
L -134.549882 -1883.315562 
L -125.310813 -1880.389129 
L -119.431405 -1879.90139 
L -105.992759 -1886.241995 
L -94.233944 -1885.266518 
L -82.475129 -1881.364607 
L -74.075976 -1876.974957 
L -71.556229 -1878.438173 
L -69.036483 -1879.413651 
L -63.157076 -1879.413651 
L -63.157076 -1880.389129 
L -63.996991 -1883.803301 
L -63.996991 -1885.266518 
L -61.477245 -1884.29104 
L -55.597838 -1881.852345 
L -52.238176 -1880.876868 
L -40.479361 -1883.315562 
L -28.720546 -1883.315562 
L -24.520969 -1883.803301 
L -18.641562 -1886.241995 
L -13.602069 -1887.705212 
L -11.922239 -1889.168428 
L -10.242408 -1890.631645 
L -6.882746 -1891.119384 
L 0.676492 -1886.241995 
L 3.196238 -1885.266518 
L 21.674376 -1883.315562 
L 25.034037 -1885.266518 
L 29.233614 -1883.315562 
L 32.593276 -1884.778779 
L 35.952937 -1887.217473 
L 39.312599 -1888.68069 
L 67.029806 -1888.68069 
L 67.869721 -1891.607123 
L 66.18989 -1893.558078 
L 65.349975 -1895.996772 
L 67.869721 -1898.923206 
L 67.869721 -1899.898683 
L 67.029806 -1901.849639 
L 67.029806 -1902.825117 
L 74.589044 -1902.825117 
L 77.10879 -1904.288333 
L 77.948705 -1907.702505 
L 79.628536 -1910.628938 
L 82.988197 -1910.1412 
L 90.547436 -1906.727027 
L 95.586928 -1902.825117 
L 109.025574 -1889.168428 
L 113.225151 -1883.315562 
L 114.904981 -1883.315562 
L 115.744897 -1887.217473 
L 117.424727 -1886.241995 
L 119.944473 -1880.876868 
L 132.543204 -1879.413651 
L 179.578464 -1880.876868 
L 186.297787 -1879.413651 
L 187.137703 -1875.024001 
L 184.617956 -1870.634352 
L 180.41838 -1867.22018 
L 182.09821 -1865.269224 
L 183.778041 -1866.732441 
L 188.817533 -1868.195657 
L 191.337279 -1869.171135 
L 193.01711 -1871.122091 
L 193.857025 -1873.073046 
L 195.536856 -1874.536263 
L 198.896518 -1875.024001 
L 208.135587 -1874.048524 
L 212.335163 -1873.073046 
L 229.133471 -1862.83053 
L 236.692709 -1860.391836 
L 256.850678 -1859.416358 
L 262.730085 -1857.953141 
L 265.249831 -1854.05123 
L 267.769577 -1856.002186 
L 284.567885 -1851.612536 
L 286.247715 -1852.100275 
L 289.607377 -1854.538969 
L 292.127123 -1855.026708 
L 294.646869 -1854.538969 
L 299.686361 -1852.100275 
L 316.484668 -1848.686103 
L 335.802722 -1840.882281 
L 340.002299 -1839.419064 
L 392.077051 -1835.029415 
L 392.916967 -1835.029415 
L 399.636289 -1829.664287 
L 403.835866 -1834.053937 
L 410.555189 -1835.029415 
L 417.274512 -1833.566198 
L 421.474089 -1829.664287 
L 423.15392 -1829.664287 
L 425.673666 -1833.566198 
L 428.193412 -1834.541676 
L 439.112312 -1833.078459 
L 467.669434 -1836.004892 
L 474.388757 -1840.394542 
L 488.667318 -1844.784192 
L 494.546726 -1845.271931 
L 504.62571 -1845.271931 
L 506.305541 -1846.247409 
L 506.305541 -1847.710625 
L 507.145456 -1849.173842 
L 508.825287 -1849.661581 
L 510.505117 -1849.173842 
L 516.384525 -1845.271931 
L 517.22444 -1846.735147 
L 518.064356 -1847.222886 
L 519.744186 -1847.222886 
L 520.584102 -1847.222886 
L 519.744186 -1848.198364 
L 517.22444 -1849.661581 
L 517.22444 -1851.612536 
L 525.623594 -1856.489925 
L 529.823171 -1858.44088 
L 533.182832 -1857.465402 
L 536.542494 -1858.928619 
L 537.382409 -1858.44088 
L 538.222324 -1857.465402 
L 544.941647 -1860.879574 
L 552.500886 -1862.342791 
L 559.220209 -1861.367313 
L 565.939531 -1857.465402 
L 555.020632 -1853.075753 
L 550.821055 -1850.637058 
L 548.301309 -1847.222886 
L 550.821055 -1844.784192 
L 551.66097 -1843.808714 
L 552.500886 -1843.320975 
L 551.66097 -1843.320975 
L 550.821055 -1842.833236 
L 550.821055 -1841.37002 
L 553.340801 -1841.37002 
L 555.860547 -1841.857759 
L 559.220209 -1843.320975 
L 560.900039 -1844.784192 
L 564.259701 -1848.686103 
L 565.099616 -1849.661581 
L 566.779447 -1849.173842 
L 569.299193 -1846.247409 
L 570.979024 -1845.271931 
L 571.818939 -1846.735147 
L 571.818939 -1849.173842 
L 570.139108 -1852.100275 
L 568.459278 -1853.563491 
L 568.459278 -1855.026708 
L 571.818939 -1854.538969 
L 573.49877 -1854.538969 
L 575.1786 -1853.563491 
L 575.1786 -1855.026708 
L 576.018516 -1855.026708 
L 576.858431 -1855.026708 
L 575.1786 -1857.465402 
L 577.698347 -1858.44088 
L 584.417669 -1858.928619 
L 586.937416 -1860.391836 
L 589.457162 -1862.342791 
L 591.976908 -1863.318269 
L 609.61513 -1868.683396 
L 615.494538 -1868.195657 
L 615.494538 -1863.318269 
L 618.854199 -1862.83053 
L 622.213861 -1860.879574 
L 624.733607 -1858.44088 
L 627.253353 -1857.465402 
L 643.211745 -1855.026708 
L 644.05166 -1853.563491 
L 644.891576 -1852.100275 
L 645.731491 -1850.637058 
L 644.891576 -1848.198364 
L 644.05166 -1847.710625 
L 642.37183 -1847.710625 
L 640.691999 -1847.222886 
L 639.852083 -1848.198364 
L 637.332337 -1849.661581 
L 635.652507 -1850.149319 
L 633.972676 -1848.686103 
L 633.132761 -1846.735147 
L 631.45293 -1845.271931 
L 628.093268 -1843.320975 
L 632.292845 -1842.345498 
L 634.812591 -1839.419064 
L 637.332337 -1837.955848 
L 640.691999 -1843.320975 
L 643.211745 -1839.906803 
L 646.571406 -1839.419064 
L 653.290729 -1841.37002 
L 656.650391 -1840.882281 
L 667.56929 -1837.468109 
L 681.847852 -1835.517154 
L 692.766751 -1832.102982 
L 696.126413 -1831.615243 
L 698.646159 -1830.152026 
L 703.685651 -1824.786899 
L 709.565059 -1822.835943 
L 714.604551 -1821.860465 
L 718.804128 -1821.372727 
L 723.84362 -1824.786899 
L 731.402858 -1820.884988 
L 743.161673 -1811.617949 
L 743.161673 -1813.568905 
L 740.641927 -1820.884988 
L 739.802012 -1824.29916 
L 738.122181 -1826.250115 
L 738.122181 -1827.713332 
L 738.962096 -1828.688809 
L 742.321758 -1829.664287 
L 744.841504 -1832.59072 
L 754.920488 -1838.443587 
L 759.120065 -1839.419064 
L 759.120065 -1841.37002 
L 757.440234 -1841.37002 
L 757.440234 -1843.320975 
L 761.639811 -1845.271931 
L 766.679303 -1845.75967 
L 779.278034 -1845.271931 
L 790.196934 -1846.247409 
L 795.236426 -1848.198364 
L 798.596087 -1849.661581 
L 801.955749 -1849.173842 
L 806.995241 -1845.75967 
L 811.194818 -1841.37002 
L 813.714564 -1838.443587 
L 816.23431 -1831.127504 
L 817.074225 -1825.274637 
L 817.914141 -1826.250115 
L 819.593971 -1831.615243 
L 819.593971 -1833.078459 
L 819.593971 -1834.541676 
L 820.433887 -1836.004892 
L 821.273802 -1837.468109 
L 823.793548 -1837.955848 
L 827.15321 -1836.98037 
L 829.672956 -1836.004892 
L 836.392279 -1835.029415 
L 849.830924 -1829.664287 
L 859.909909 -1827.713332 
L 865.789316 -1825.762376 
L 869.988893 -1819.90951 
L 892.666608 -1810.154733 
L 901.905677 -1807.716038 
L 911.984661 -1806.740561 
L 922.063646 -1807.716038 
L 929.622884 -1809.666994 
L 932.14263 -1809.666994 
L 933.822461 -1808.691516 
L 935.502291 -1806.740561 
L 937.182122 -1804.789605 
L 940.541784 -1803.814127 
L 941.381699 -1804.301866 
L 942.221614 -1804.789605 
L 943.06153 -1805.765083 
L 944.74136 -1805.765083 
L 945.581276 -1805.277344 
L 946.421191 -1803.814127 
L 946.421191 -1802.350911 
L 948.101022 -1801.863172 
L 954.820345 -1806.740561 
L 958.180006 -1807.716038 
L 963.219498 -1808.203777 
L 979.17789 -1813.568905 
L 985.057298 -1816.983077 
L 987.577044 -1817.958555 
L 990.936705 -1817.958555 
L 993.456452 -1816.007599 
L 995.136282 -1813.081166 
L 997.656028 -1811.617949 
L 1000.175774 -1813.568905 
L 999.335859 -1814.544382 
L 996.816113 -1816.495338 
L 995.976198 -1817.958555 
L 1005.215267 -1821.860465 
L 1013.61442 -1828.688809 
L 1022.013574 -1833.078459 
L 1026.213151 -1830.152026 
L 1025.373235 -1827.225593 
L 1025.373235 -1820.884988 
L 1025.373235 -1817.470816 
L 1032.092558 -1814.544382 
L 1035.45222 -1811.13021 
L 1036.292135 -1805.277344 
L 1036.292135 -1803.814127 
L 1037.13205 -1802.83865 
L 1039.651797 -1803.326389 
L 1042.171543 -1804.789605 
L 1047.211035 -1805.277344 
L 1052.250527 -1806.740561 
L 1054.770273 -1806.740561 
L 1058.96985 -1804.789605 
L 1061.489596 -1803.326389 
L 1061.489596 -1801.863172 
L 1060.649681 -1800.399955 
L 1060.649681 -1797.473522 
L 1062.329511 -1792.596134 
L 1064.009342 -1791.620656 
L 1066.529088 -1790.157439 
L 1069.048834 -1789.6697 
L 1071.56858 -1790.157439 
L 1074.928242 -1791.620656 
L 1075.768157 -1794.05935 
L 1077.447988 -1798.936739 
L 1080.807649 -1800.887694 
L 1085.847142 -1800.887694 
L 1093.40638 -1798.936739 
L 1102.645449 -1794.05935 
L 1105.165195 -1794.547089 
L 1107.684941 -1795.522567 
L 1111.044602 -1795.522567 
L 1117.763925 -1789.181962 
L 1118.603841 -1778.451707 
L 1116.084095 -1767.233713 
L 1111.884518 -1757.966674 
L 1109.364772 -1754.552502 
L 1099.285787 -1744.797725 
L 1097.605957 -1742.359031 
L 1100.965618 -1736.506164 
L 1105.165195 -1732.116515 
L 1110.204687 -1729.190082 
L 1116.084095 -1727.726865 
L 1121.963502 -1727.239126 
L 1126.163079 -1728.702343 
L 1127.84291 -1732.604254 
L 1128.682825 -1739.920337 
L 1130.362656 -1745.773203 
L 1134.562233 -1749.675114 
L 1139.601725 -1751.626069 
L 1144.641217 -1750.650591 
L 1139.601725 -1746.748681 
L 1137.921894 -1742.84677 
L 1138.761809 -1738.944859 
L 1142.961386 -1735.042948 
L 1147.160963 -1732.604254 
L 1160.599609 -1730.165559 
L 1168.998763 -1726.263648 
L 1176.558001 -1720.410782 
L 1185.79707 -1721.38626 
L 1187.476901 -1720.410782 
L 1191.676477 -1718.459827 
L 1193.356308 -1716.99661 
L 1200.915546 -1716.021132 
L 1205.115123 -1715.045655 
L 1207.634869 -1712.119221 
L 1216.034023 -1706.266355 
L 1224.433177 -1703.827661 
L 1243.75123 -1702.364444 
L 1261.389452 -1705.290877 
L 1267.26886 -1703.339922 
L 1271.468437 -1695.5361 
L 1272.308352 -1693.097406 
L 1272.308352 -1691.14645 
L 1271.468437 -1689.683234 
L 1270.628521 -1688.220017 
L 1272.308352 -1685.781323 
L 1274.828098 -1683.342628 
L 1276.507929 -1683.342628 
L 1279.027675 -1683.342628 
L 1281.547421 -1683.342628 
L 1289.106659 -1678.46524 
L 1293.306236 -1675.538807 
L 1302.545305 -1664.320813 
L 1303.385221 -1663.345335 
L 1302.545305 -1661.882119 
L 1302.545305 -1660.906641 
L 1304.225136 -1660.418902 
L 1307.584797 -1660.418902 
L 1309.264628 -1659.931163 
L 1310.104544 -1657.980208 
L 1310.104544 -1656.516991 
L 1310.104544 -1654.566036 
L 1311.784374 -1653.102819 
L 1314.30412 -1653.590558 
L 1317.663782 -1656.029252 
L 1320.183528 -1656.516991 
L 1320.183528 -1663.345335 
L 1326.062935 -1663.345335 
L 1338.661666 -1657.980208 
L 1346.220904 -1658.467946 
L 1351.260396 -1661.39438 
L 1363.019211 -1669.68594 
L 1364.699042 -1667.734985 
L 1366.378873 -1668.222724 
L 1368.058704 -1670.661418 
L 1369.738534 -1673.587851 
L 1373.098196 -1670.173679 
L 1373.938111 -1670.173679 
L 1387.376757 -1662.369857 
L 1389.896503 -1657.00473 
L 1396.615826 -1656.516991 
L 1403.335149 -1657.980208 
L 1407.534726 -1659.931163 
L 1406.69481 -1654.566036 
L 1408.374641 -1649.688647 
L 1410.894387 -1645.298997 
L 1415.093964 -1642.372564 
L 1415.933879 -1640.909347 
L 1416.773795 -1638.958392 
L 1416.773795 -1637.007437 
L 1419.293541 -1636.031959 
L 1422.653202 -1635.54422 
L 1424.333033 -1634.081003 
L 1425.172948 -1632.617787 
L 1426.852779 -1631.15457 
L 1436.091848 -1627.740398 
L 1443.651086 -1628.715876 
L 1462.129224 -1634.568742 
L 1476.407786 -1636.519698 
L 1480.607362 -1639.446131 
L 1483.967024 -1639.93387 
L 1496.565754 -1637.007437 
L 1500.765331 -1635.056481 
L 1505.804823 -1627.252659 
L 1509.164485 -1623.350748 
L 1512.524146 -1623.838487 
L 1519.243469 -1632.130048 
L 1523.443046 -1636.031959 
L 1527.642623 -1637.495175 
L 1534.361946 -1632.130048 
L 1534.361946 -1631.15457 
L 1534.361946 -1630.179092 
L 1534.361946 -1628.715876 
L 1536.041776 -1627.740398 
L 1540.241353 -1627.252659 
L 1545.280845 -1627.252659 
L 1553.679999 -1629.691354 
L 1557.879576 -1628.228137 
L 1586.436698 -1628.715876 
L 1594.835852 -1627.740398 
L 1598.195513 -1628.715876 
L 1599.875344 -1631.15457 
L 1599.875344 -1631.642309 
L 1600.715259 -1636.519698 
L 1599.035429 -1640.909347 
L 1595.675767 -1644.323519 
L 1592.316106 -1645.298997 
L 1593.995936 -1648.22543 
L 1594.835852 -1649.200908 
L 1596.515683 -1650.664125 
L 1593.995936 -1653.590558 
L 1597.355598 -1661.882119 
L 1596.515683 -1668.222724 
L 1598.195513 -1672.124635 
L 1603.235005 -1674.07559 
L 1609.954328 -1674.563329 
L 1614.153905 -1674.07559 
L 1621.713143 -1671.149157 
L 1625.91272 -1670.661418 
L 1630.952212 -1670.661418 
L 1634.311874 -1670.173679 
L 1644.390858 -1664.808552 
L 1651.950097 -1662.369857 
L 1653.629927 -1660.906641 
L 1656.989589 -1657.492469 
L 1659.509335 -1656.516991 
L 1662.029081 -1657.492469 
L 1664.548827 -1659.443424 
L 1666.228658 -1659.931163 
L 1668.748404 -1659.443424 
L 1672.108065 -1656.516991 
L 1674.627811 -1655.541513 
L 1693.945865 -1654.078297 
L 1698.985357 -1652.61508 
L 1703.184934 -1649.688647 
L 1705.70468 -1645.298997 
L 1707.384511 -1640.909347 
L 1709.904257 -1637.007437 
L 1713.263918 -1634.081003 
L 1715.783664 -1634.081003 
L 1724.182818 -1636.031959 
L 1752.73994 -1636.031959 
L 1757.779432 -1634.568742 
L 1756.939517 -1630.666831 
L 1758.619348 -1629.691354 
L 1760.299178 -1629.203615 
L 1762.818925 -1628.228137 
L 1766.178586 -1621.399793 
L 1771.218078 -1616.034665 
L 1775.417655 -1606.279888 
L 1778.777316 -1601.890238 
L 1777.097486 -1600.427022 
L 1776.25757 -1597.500589 
L 1775.417655 -1594.574155 
L 1777.937401 -1593.598678 
L 1777.937401 -1592.135461 
L 1773.737824 -1586.282595 
L 1772.897909 -1582.868423 
L 1777.937401 -1583.356162 
L 1782.136978 -1580.429728 
L 1782.976893 -1575.55234 
L 1778.777316 -1572.625907 
L 1777.097486 -1572.138168 
L 1772.897909 -1570.674951 
L 1780.457147 -1560.920174 
L 1780.457147 -1557.506002 
L 1782.976893 -1555.555046 
L 1797.255454 -1554.09183 
L 1798.935285 -1554.09183 
L 1801.455031 -1555.555046 
L 1803.134862 -1557.018263 
L 1803.974777 -1558.969219 
L 1805.654608 -1559.944696 
L 1819.933169 -1561.895652 
L 1827.492408 -1564.822085 
L 1830.012154 -1572.625907 
L 1830.852069 -1573.601384 
L 1831.691984 -1573.601384 
L 1832.5319 -1573.601384 
L 1832.5319 -1572.625907 
L 1835.891561 -1571.650429 
L 1838.411307 -1571.650429 
L 1840.931053 -1573.113646 
L 1843.450799 -1575.064601 
L 1844.290715 -1574.089123 
L 1844.290715 -1573.601384 
L 1844.290715 -1572.625907 
L 1848.490292 -1571.16269 
L 1862.768853 -1569.211735 
L 1867.808345 -1567.260779 
L 1881.246991 -1558.969219 
L 1886.286483 -1557.993741 
L 1891.325975 -1557.506002 
L 1894.685637 -1556.042785 
L 1898.045298 -1551.165397 
L 1900.565044 -1540.435142 
L 1903.08479 -1536.045492 
L 1907.284367 -1532.63132 
L 1910.644029 -1530.680365 
L 1914.00369 -1530.192626 
L 1919.883098 -1531.168103 
L 1923.242759 -1531.655842 
L 1926.60242 -1533.606798 
L 1929.962082 -1537.508709 
L 1935.841489 -1541.410619 
L 1936.681405 -1542.873836 
L 1938.361236 -1547.263486 
L 1940.041066 -1548.726702 
L 1943.400728 -1550.189919 
L 1954.319627 -1549.214441 
L 1968.598189 -1553.116352 
L 1976.157427 -1554.09183 
L 1982.87675 -1550.677658 
L 1985.396496 -1548.238964 
L 1998.835142 -1542.386097 
L 2006.39438 -1540.922881 
L 2009.754041 -1540.922881 
L 2011.433872 -1536.045492 
L 2015.633449 -1531.655842 
L 2019.833026 -1528.24167 
L 2024.032603 -1527.266192 
L 2029.072095 -1524.827498 
L 2031.591841 -1524.339759 
L 2034.111587 -1524.339759 
L 2035.791418 -1525.802976 
L 2037.471248 -1530.192626 
L 2039.151079 -1531.655842 
L 2044.190571 -1532.143581 
L 2054.269556 -1528.729409 
L 2060.148963 -1527.753931 
L 2066.028371 -1527.753931 
L 2066.028371 -1529.217148 
L 2062.668709 -1532.143581 
L 2060.988879 -1537.508709 
L 2062.668709 -1540.435142 
L 2072.747694 -1547.263486 
L 2076.947271 -1549.214441 
L 2081.146847 -1549.70218 
L 2090.385916 -1548.238964 
L 2095.425409 -1549.214441 
L 2099.624985 -1551.165397 
L 2106.344308 -1557.506002 
L 2109.70397 -1559.456957 
L 2113.903547 -1559.944696 
L 2118.103123 -1559.944696 
L 2121.462785 -1560.432435 
L 2129.022023 -1565.797563 
L 2136.581261 -1563.358868 
L 2140.780838 -1565.797563 
L 2143.300584 -1565.309824 
L 2150.019907 -1564.822085 
L 2151.699738 -1564.334346 
L 2153.379569 -1561.407913 
L 2155.059399 -1558.48148 
L 2157.579145 -1556.530524 
L 2160.098892 -1555.067308 
L 2165.138384 -1553.604091 
L 2171.017791 -1552.628613 
L 2176.897199 -1553.116352 
L 2186.976183 -1554.579569 
L 2186.136268 -1550.677658 
L 2184.456437 -1544.824792 
L 2185.296352 -1539.947403 
L 2185.296352 -1535.070014 
L 2188.656014 -1531.168103 
L 2192.855591 -1528.24167 
L 2197.895083 -1529.217148 
L 2202.934575 -1529.217148 
L 2206.294237 -1525.315237 
L 2207.974067 -1525.315237 
L 2210.493813 -1527.266192 
L 2213.013559 -1526.778454 
L 2218.892967 -1523.364282 
L 2213.853475 -1513.121765 
L 2212.173644 -1510.195332 
L 2212.173644 -1505.805683 
L 2209.653898 -1503.854727 
L 2207.974067 -1502.39151 
L 2206.294237 -1499.465077 
L 2202.09466 -1500.928294 
L 2193.695506 -1499.465077 
L 2186.136268 -1502.39151 
L 2184.456437 -1504.830205 
L 2180.25686 -1504.342466 
L 2175.217368 -1499.465077 
L 2172.697622 -1493.124472 
L 2171.857707 -1482.881956 
L 2171.857707 -1476.053612 
L 2173.537537 -1470.688484 
L 2176.897199 -1466.786574 
L 2185.296352 -1462.396924 
L 2189.495929 -1457.031796 
L 2194.535421 -1449.715713 
L 2194.535421 -1446.301541 
L 2191.17576 -1443.375108 
L 2190.335845 -1439.473197 
L 2192.015675 -1435.083547 
L 2192.855591 -1429.230681 
L 2193.695506 -1427.279726 
L 2194.535421 -1425.816509 
L 2198.734998 -1422.402337 
L 2199.574914 -1419.963643 
L 2198.734998 -1414.598515 
L 2192.855591 -1405.331477 
L 2190.335845 -1398.015394 
L 2186.136268 -1394.113483 
L 2180.25686 -1385.334183 
L 2171.857707 -1385.821922 
L 2163.458553 -1379.969056 
L 2160.938807 -1372.165234 
L 2154.219484 -1368.263323 
L 2133.2216 -1353.143419 
L 2129.022023 -1346.802813 
L 2121.462785 -1345.339597 
L 2116.423293 -1343.87638 
L 2109.70397 -1342.413164 
L 2107.184224 -1341.925425 
L 2106.344308 -1341.437686 
L 2102.984647 -1338.023514 
L 2102.144731 -1337.048036 
L 2101.304816 -1334.609342 
L 2098.78507 -1334.121603 
L 2096.265324 -1334.609342 
L 2092.905662 -1327.780998 
L 2063.508625 -1316.075265 
L 2016.473364 -1295.590233 
L 2011.433872 -1291.200583 
L 1997.995226 -1282.421283 
L 1980.357004 -1275.592939 
L 1973.637681 -1270.715551 
L 1967.758273 -1262.911729 
L 1955.999458 -1244.377652 
L 1949.280135 -1235.598353 
L 1941.720897 -1228.770009 
L 1925.762505 -1220.478448 
L 1916.523436 -1218.039754 
L 1900.565044 -1216.576537 
L 1884.606652 -1212.674626 
L 1879.56716 -1209.748193 
L 1877.047414 -1209.260454 
L 1869.488176 -1209.748193 
L 1824.132746 -1196.579244 
L 1803.974777 -1195.116027 
L 1745.180702 -1174.630995 
L 1729.22231 -1171.216823 
L 1727.542479 -1170.241345 
L 1723.342902 -1162.925262 
L 1722.502987 -1160.974307 
L 1720.823156 -1159.51109 
L 1718.30341 -1158.047874 
L 1713.263918 -1161.462046 
L 1711.584087 -1161.949784 
L 1700.665188 -1161.462046 
L 1691.426119 -1159.998829 
L 1682.18705 -1156.096918 
L 1676.307642 -1152.682746 
L 1649.43035 -1128.295803 
L 1636.83162 -1112.20042 
L 1611.634159 -1087.813477 
L 1607.434582 -1079.521917 
L 1613.31399 -1076.107745 
L 1620.033313 -1073.66905 
L 1622.553059 -1073.66905 
L 1624.23289 -1075.132267 
L 1623.392974 -1077.083222 
L 1620.033313 -1079.521917 
L 1624.23289 -1079.034178 
L 1626.752636 -1077.570961 
L 1629.272382 -1075.132267 
L 1635.151789 -1068.303923 
L 1641.031197 -1063.914273 
L 1644.390858 -1063.914273 
L 1648.590435 -1062.451057 
L 1648.590435 -1056.59819 
L 1645.230774 -1050.745324 
L 1642.711028 -1047.331152 
L 1627.592551 -1043.429241 
L 1621.713143 -1038.064113 
L 1609.954328 -1020.993253 
L 1603.235005 -1015.628126 
L 1595.675767 -1013.189431 
L 1588.956444 -1012.213954 
L 1583.077037 -1020.505514 
L 1593.995936 -1021.968731 
L 1599.875344 -1018.554559 
L 1607.434582 -1022.944209 
L 1615.833736 -1035.625419 
L 1610.794244 -1036.113158 
L 1604.074921 -1035.625419 
L 1584.756867 -1029.772553 
L 1580.557291 -1026.84612 
L 1576.357714 -1022.944209 
L 1572.998052 -1017.579081 
L 1565.438814 -1000.99596 
L 1562.079153 -992.21666 
L 1557.879576 -986.851533 
L 1553.679999 -982.461883 
L 1550.320338 -977.584494 
L 1548.640507 -970.268412 
L 1542.761099 -964.415545 
L 1526.802707 -934.663475 
L 1524.282961 -931.737041 
L 1517.563638 -926.859653 
L 1515.043892 -923.445481 
L 1506.644739 -912.715226 
L 1493.206093 -901.984971 
L 1478.927532 -875.159333 
L 1472.208209 -868.818728 
L 1460.449394 -861.502645 
L 1454.569986 -853.211085 
L 1444.491002 -832.726052 
L 1438.611594 -823.946753 
L 1423.493118 -808.339109 
L 1399.135572 -770.295478 
L 1398.295657 -767.369045 
L 1397.455741 -760.052962 
L 1395.775911 -755.175573 
L 1393.256165 -751.761401 
L 1388.216672 -745.908535 
L 1384.857011 -741.518885 
L 1382.337265 -736.641496 
L 1380.657434 -731.764108 
L 1378.977603 -727.862197 
L 1372.25828 -717.619681 
L 1369.738534 -712.742292 
L 1368.058704 -702.499776 
L 1368.898619 -687.86761 
L 1369.738534 -675.674139 
L 1374.778027 -656.652323 
L 1389.056588 -625.924775 
L 1391.576334 -621.047386 
L 1394.935995 -616.169997 
L 1391.576334 -614.219042 
L 1388.216672 -611.780348 
L 1389.896503 -606.41522 
L 1392.416249 -595.684965 
L 1395.775911 -586.417927 
L 1401.655318 -575.687672 
L 1408.374641 -563.981939 
L 1416.773795 -549.349773 
L 1420.133456 -544.960123 
L 1428.53261 -538.619518 
L 1437.771679 -529.840219 
L 1442.811171 -525.938308 
L 1448.690579 -524.475091 
L 1459.609478 -523.499613 
L 1470.528378 -520.085441 
L 1480.607362 -514.720314 
L 1488.166601 -506.916492 
L 1487.326685 -506.428753 
L 1484.806939 -504.477798 
L 1487.326685 -503.50232 
L 1489.006516 -501.551365 
L 1495.725839 -496.673976 
L 1498.245585 -497.161715 
L 1499.925416 -493.747543 
L 1499.925416 -488.870154 
L 1498.245585 -486.919199 
L 1494.046008 -486.43146 
L 1489.846431 -485.455982 
L 1486.48677 -483.992766 
L 1483.127108 -480.578594 
L 1479.767447 -474.725727 
L 1479.767447 -473.750249 
L 1478.927532 -472.774772 
L 1473.888039 -472.774772 
L 1472.208209 -471.799294 
L 1469.688463 -468.872861 
L 1467.168717 -467.409644 
L 1464.64897 -465.458689 
L 1462.129224 -461.069039 
L 1463.809055 -457.167128 
L 1458.769563 -458.142606 
L 1455.409901 -457.167128 
L 1452.890155 -455.703912 
L 1448.690579 -455.216173 
L 1441.13134 -455.216173 
L 1438.611594 -453.752956 
L 1435.251933 -451.314262 
L 1431.892271 -446.436873 
L 1431.892271 -442.534962 
L 1432.732187 -438.633051 
L 1431.052356 -434.243402 
L 1427.692694 -430.82923 
L 1423.493118 -429.366013 
L 1414.254049 -429.366013 
L 1403.335149 -426.927319 
L 1397.455741 -424.976363 
L 1390.736418 -419.611236 
L 1368.058704 -410.344197 
L 1364.699042 -407.905503 
L 1363.019211 -404.491331 
L 1361.339381 -403.515853 
L 1352.940227 -394.248815 
L 1350.420481 -389.859165 
L 1349.580566 -384.006299 
L 1349.580566 -381.079866 
L 1348.74065 -380.104388 
L 1341.181412 -379.616649 
L 1337.821751 -378.641171 
L 1335.302004 -376.202477 
L 1334.462089 -371.812827 
L 1326.062935 -372.300566 
L 1323.543189 -361.082572 
L 1326.902851 -334.744674 
L 1324.383105 -331.330502 
L 1320.183528 -330.355024 
L 1311.784374 -330.842763 
L 1306.744882 -329.379546 
L 1302.545305 -325.965374 
L 1299.185644 -321.575724 
L 1296.665898 -316.698336 
L 1295.825982 -312.796425 
L 1294.146152 -308.406775 
L 1293.306236 -296.213304 
L 1292.466321 -276.703749 
L 1292.466321 -271.82636 
L 1289.946575 -268.899927 
L 1284.067167 -266.461233 
L 1279.86759 -262.071583 
L 1277.347844 -258.169672 
L 1268.108775 -235.245946 
L 1267.26886 -230.368557 
L 1268.108775 -218.662824 
L 1267.26886 -215.736391 
L 1261.389452 -223.540213 
L 1255.510045 -208.420308 
L 1252.150383 -205.981614 
L 1247.110891 -204.030659 
L 1245.431061 -200.128748 
L 1246.270976 -194.76362 
L 1253.830214 -181.106932 
L 1256.34996 -178.668238 
L 1263.069283 -173.790849 
L 1268.948691 -170.864416 
L 1273.148268 -170.376677 
L 1275.668014 -173.790849 
L 1279.86759 -171.352155 
L 1281.547421 -167.937983 
L 1280.707506 -165.01155 
L 1277.347844 -162.085116 
L 1274.828098 -160.134161 
L 1273.148268 -159.158683 
L 1270.628521 -159.158683 
L 1268.948691 -160.134161 
L 1266.428945 -159.158683 
L 1260.549537 -156.719989 
L 1256.34996 -155.744511 
L 1249.630637 -152.330339 
L 1241.231484 -152.330339 
L 1237.871822 -151.8426 
L 1234.512161 -150.379384 
L 1229.472669 -146.477473 
L 1226.952923 -147.940689 
L 1217.713854 -152.330339 
L 1210.154615 -153.793556 
L 1195.036139 -154.281295 
L 1190.836562 -153.793556 
L 1187.476901 -152.330339 
L 1184.957154 -149.891645 
L 1183.277324 -147.45295 
L 1184.117239 -144.526517 
L 1186.636985 -139.649129 
L 1179.917662 -141.112345 
L 1172.358424 -143.063301 
L 1171.518509 -145.989734 
L 1169.838678 -148.916167 
L 1164.799186 -149.403906 
L 1158.079863 -152.330339 
L 1154.720201 -153.305817 
L 1151.36054 -149.403906 
L 1150.520625 -146.965212 
L 1143.801302 -146.965212 
L 1136.242063 -147.940689 
L 1129.52274 -144.526517 
L 1125.323164 -142.087823 
L 1115.244179 -132.333046 
L 1111.044602 -129.894351 
L 1106.845026 -128.918874 
L 1105.165195 -127.943396 
L 1103.485364 -126.967918 
L 1101.805533 -125.016963 
L 1100.965618 -123.553746 
L 1100.125703 -122.578269 
L 1097.605957 -112.823491 
L 1097.605957 -110.872536 
L 1095.926126 -109.409319 
L 1094.246295 -109.897058 
L 1093.40638 -110.872536 
L 1091.726549 -110.872536 
L 1089.206803 -109.409319 
L 1085.007226 -105.507408 
L 1082.48748 -105.019669 
L 1079.127819 -104.044192 
L 1067.369004 -99.166803 
L 1061.489596 -95.752631 
L 1060.649681 -92.338459 
L 1058.96985 -90.387504 
L 1054.770273 -90.875242 
L 1053.090442 -88.436548 
L 1051.410612 -83.071421 
L 1048.890866 -77.218554 
L 1041.331627 -67.463777 
L 1027.892981 -53.807089 
L 1022.013574 -45.515528 
L 1017.813997 -33.809796 
L 1016.134166 -24.055018 
L 1013.61442 -15.763458 
L 1011.93459 -7.959636 
L 1005.215267 9.598963 
L 1000.175774 17.890524 
L 1000.175774 21.304696 
L 1001.01569 23.74339 
L 1001.855605 26.182085 
L 1001.855605 28.620779 
L 1001.855605 31.059473 
L 1000.175774 32.52269 
L 998.495944 33.498167 
L 993.456452 33.985906 
L 991.776621 34.473645 
L 989.256875 37.400078 
L 980.857721 42.765206 
L 977.49806 46.667117 
L 974.978314 58.860588 
L 972.458567 62.27476 
L 969.098906 64.713455 
L 964.899329 69.103104 
L 964.059414 71.05406 
L 963.219498 76.906926 
L 961.539668 78.857882 
L 959.859837 80.321098 
L 957.340091 81.296576 
L 954.820345 81.784315 
L 952.300599 87.637181 
L 948.940937 90.563614 
L 943.901445 92.026831 
L 939.701868 93.002309 
L 930.462799 90.075876 
L 924.583392 83.247531 
L 918.703984 75.44371 
L 911.984661 69.103104 
L 904.425423 63.737977 
L 899.385931 62.27476 
L 893.506523 61.299283 
L 889.306946 62.27476 
L 881.747708 66.176671 
L 877.548131 67.152149 
L 875.028385 66.66441 
L 869.148978 63.737977 
L 865.789316 63.250238 
L 847.311178 66.66441 
L 843.951517 68.615366 
L 838.912025 79.833359 
L 834.712448 92.51457 
L 827.993125 98.855175 
L 827.15321 99.830653 
L 824.633463 102.269347 
L 818.754056 104.708041 
L 810.354902 106.171258 
L 806.155325 104.708041 
L 801.955749 106.658997 
L 795.236426 102.269347 
L 791.036849 98.855175 
L 786.837272 96.90422 
L 784.317526 97.391958 
L 782.637695 100.318392 
L 780.117949 100.806131 
L 777.598203 99.342914 
L 771.718796 91.051353 
L 764.999473 86.173965 
L 760.799896 85.686226 
L 748.201165 90.075876 
L 727.203281 86.661703 
L 708.725143 88.12492 
L 691.926836 85.198487 
L 668.409206 87.637181 
L 665.049544 90.075876 
L 661.689883 93.490048 
L 656.650391 96.90422 
L 648.251237 102.269347 
L 633.972676 101.781608 
L 624.733607 94.953264 
L 619.694115 95.441003 
L 616.334453 97.391958 
L 607.9353 93.002309 
L 604.575638 88.612659 
L 597.856315 89.100398 
L 589.457162 89.588137 
L 586.0975 92.51457 
L 574.338685 93.977786 
L 557.540378 88.612659 
L 549.141224 85.686226 
L 537.382409 88.12492 
L 520.584102 93.002309 
L 498.746302 87.149442 
L 492.866895 88.12492 
L 486.147572 93.490048 
L 465.989603 96.416481 
L 459.27028 97.391958 
L 417.274512 93.977786 
L 413.914851 94.953264 
L 410.555189 97.879697 
L 403.835866 109.097691 
L 402.995951 111.536385 
L 399.636289 114.950558 
L 397.116543 119.340207 
L 396.276628 123.729857 
L 389.557305 135.43559 
L 374.438829 137.386545 
L 368.559421 149.580017 
L 360.160267 154.945144 
L 357.640521 156.408361 
L 352.601029 158.359316 
L 343.36196 160.798011 
L 333.282976 160.310272 
L 306.405684 156.8961 
L 301.366192 156.8961 
L 298.846446 157.383839 
L 296.3267 159.334794 
L 279.528392 171.040527 
L 263.570001 172.503743 
L 252.651101 179.332087 
L 250.131355 180.307565 
L 241.732201 181.283043 
L 237.532624 182.258521 
L 235.012878 184.209476 
L 231.653217 188.111387 
L 225.773809 199.81712 
L 224.933894 202.255814 
L 221.574232 212.986069 
L 219.054486 217.375719 
L 218.214571 218.351196 
L 216.53474 220.302152 
L 214.014994 221.27763 
L 210.655333 222.740846 
L 210.655333 225.17954 
L 211.495248 227.618235 
L 208.975502 231.520146 
L 201.416264 245.664573 
L 200.576348 248.591006 
L 199.736433 262.247694 
L 194.696941 262.247694 
L 193.01711 255.907089 
L 188.817533 253.468394 
L 183.778041 251.0297 
L 178.738549 251.0297 
L 178.738549 253.956133 
L 176.218803 256.394828 
L 175.378887 259.809 
L 175.378887 264.198649 
L 177.058718 268.10056 
L 175.378887 270.051516 
L 176.218803 274.441166 
L 177.898634 277.367599 
L 178.738549 279.806293 
L 177.898634 282.732726 
L 176.218803 284.683682 
L 174.538972 286.634637 
L 169.49948 288.585593 
L 145.98185 296.877153 
L 142.622188 298.828109 
L 135.902865 301.266803 
L 131.703289 292.487503 
L 121.624304 286.634637 
L 117.424727 283.708204 
L 112.385235 285.659159 
L 107.345743 284.195943 
L 102.306251 281.26951 
L 93.067182 278.343076 
L 88.867605 274.928904 
L 83.828113 267.612821 
L 68.709636 252.980656 
L 64.510059 250.054222 
L 59.470567 250.054222 
L 48.551668 252.005178 
L 36.792852 248.103267 
L 30.07353 240.299445 
L 25.873953 230.544668 
L 20.834461 221.765368 
L 8.23573 214.937024 
L 6.555899 211.035113 
L 5.715984 206.157725 
L 4.036153 200.792597 
L 2.356323 195.915209 
L -6.042831 186.64817 
L -11.082323 173.96696 
L -15.2819 165.18766 
L -20.321392 155.432883 
L -25.360884 151.043233 
L -27.040715 148.604539 
L -24.520969 147.629061 
L -22.841138 147.629061 
L -15.2819 154.457405 
L -12.762154 157.383839 
L -14.441985 159.822533 
L -12.762154 162.261227 
L -8.562577 166.650877 
L -6.042831 165.675399 
L -4.363 164.212183 
L -1.843254 160.310272 
L 3.196238 154.457405 
L 1.516407 154.457405 
L -3.523085 155.920622 
L -6.882746 155.432883 
L -9.402493 151.043233 
L -7.722662 142.263934 
L -9.402493 136.898806 
L -21.161308 126.168551 
L -23.681054 124.705335 
L -39.639446 123.729857 
L -43.839022 122.754379 
L -47.198684 118.852468 
L -49.71843 107.634475 
L -52.238176 101.781608 
L -55.597838 96.416481 
L -57.277668 91.051353 
L -56.437753 86.173965 
L -51.398261 81.296576 
L -47.198684 79.345621 
L -38.79953 75.931449 
L -35.439869 73.492754 
L -32.920123 66.66441 
L -35.439869 54.470939 
L -33.760038 47.642594 
L -26.2008 40.81425 
L -6.882746 42.277467 
L -0.163424 33.985906 
L -5.202916 36.91234 
L -11.082323 39.351034 
L -16.961731 39.351034 
L -21.161308 35.449123 
L -31.240292 39.351034 
L -35.439869 42.765206 
L -37.1197 48.618072 
L -35.439869 66.176671 
L -37.1197 69.590843 
L -45.518853 69.590843 
L -52.238176 60.811544 
L -59.797414 41.789728 
L -64.836907 33.010429 
L -71.556229 25.694346 
L -128.670474 -15.275719 
L -134.549882 -18.202152 
L -140.429289 -19.665369 
L -144.628866 -21.616324 
L -153.867935 -29.420146 
L -158.907427 -31.85884 
L -163.107004 -33.809796 
L -167.306581 -40.63814 
L -168.986412 -47.954223 
L -167.306581 -51.368395 
L -164.786835 -53.807089 
L -156.387681 -66.00056 
L -153.867935 -70.877949 
L -165.62675 -57.709 
L -172.346073 -53.31935 
L -179.905311 -53.31935 
L -179.905311 -51.368395 
L -174.025904 -43.564573 
L -172.346073 -38.687184 
L -171.506158 -35.760751 
L -174.865819 -35.273012 
L -195.023788 -45.027789 
L -202.583026 -47.466484 
L -211.822095 -50.392917 
L -217.701503 -47.954223 
L -210.98218 -46.978745 
L -208.462434 -45.515528 
L -264.736763 -44.052312 
L -268.096425 -42.589095 
L -273.135917 -38.199445 
L -277.335494 -37.711706 
L -281.53507 -39.174923 
L -284.894732 -41.613617 
L -288.254393 -54.294828 
L -289.934224 -60.635433 
L -288.254393 -65.025083 
L -289.934224 -74.77986 
L -292.45397 -97.703587 
L -295.813632 -106.482886 
L -295.813632 -109.897058 
L -296.653547 -116.237663 
L -297.493462 -123.066007 
L -299.173293 -128.431135 
L -300.853124 -130.38209 
L -304.212785 -133.796262 
L -306.732531 -135.259479 
L -308.412362 -138.185912 
L -308.412362 -138.673651 
L -309.252277 -140.624606 
L -309.252277 -142.575562 
L -310.092193 -146.477473 
L -310.932108 -146.477473 
L -311.772023 -146.477473 
L -311.772023 -149.403906 
L -310.932108 -150.867123 
L -308.412362 -153.793556 
L -308.412362 -155.256772 
L -307.572447 -156.23225 
L -307.572447 -157.695467 
L -308.412362 -159.646422 
L -305.892616 -161.109639 
L -300.013208 -167.450244 
L -298.333378 -169.888938 
L -296.653547 -174.278588 
L -294.973716 -187.935276 
L -291.614055 -196.714576 
L -287.414478 -202.567442 
L -266.416594 -220.126041 
L -259.697271 -231.344035 
L -257.177525 -241.586551 
L -252.138033 -254.7555 
L -251.298117 -260.120628 
L -251.298117 -263.047061 
L -252.138033 -265.485755 
L -252.138033 -267.92445 
L -250.458202 -269.875405 
L -242.898964 -271.338622 
L -240.379218 -272.801838 
L -237.019556 -272.801838 
L -234.49981 -271.82636 
L -231.140149 -271.338622 
L -228.620402 -272.801838 
L -225.260741 -273.777316 
L -223.58091 -274.752794 
L -221.061164 -278.166966 
L -219.381333 -284.019832 
L -216.861587 -286.458526 
L -212.662011 -285.970787 
L -200.06328 -280.60566 
L -194.183873 -281.093399 
L -191.664126 -288.409482 
L -189.984296 -291.823654 
L -187.46455 -300.602953 
L -183.264973 -309.382253 
L -179.905311 -319.13703 
L -178.225481 -323.038941 
L -175.705735 -331.330502 
L -176.54565 -331.818241 
L -179.905311 -334.256935 
L -186.624634 -333.769196 
L -192.504042 -331.818241 
L -193.343957 -331.818241 
L -194.183873 -332.305979 
L -197.543534 -328.404068 
L -202.583026 -325.965374 
L -208.462434 -324.989896 
L -212.662011 -324.989896 
L -215.181757 -327.91633 
L -217.701503 -329.867285 
L -226.940572 -353.27875 
L -228.620402 -354.741967 
L -232.819979 -357.6684 
L -233.659895 -359.131617 
L -235.339725 -361.082572 
L -236.179641 -364.496744 
L -237.859471 -366.4477 
L -262.217017 -397.175248 
L -268.93634 -402.052637 
L -272.296001 -403.515853 
L -268.93634 -406.930025 
L -266.416594 -410.344197 
L -266.416594 -413.758369 
L -268.93634 -417.172541 
L -266.416594 -420.586713 
L -262.217017 -435.218879 
L -252.977948 -448.875568 
L -251.298117 -453.265217 
L -252.138033 -455.216173 
L -253.817863 -456.19165 
L -254.657779 -457.167128 
L -256.337609 -459.118084 
L -256.337609 -461.069039 
L -256.337609 -463.995472 
L -256.337609 -470.823816 
L -254.657779 -480.578594 
L -253.817863 -482.529549 
L -252.138033 -486.43146 
L -251.298117 -487.894677 
L -241.219133 -496.186237 
L -237.859471 -498.624931 
L -233.659895 -500.088148 
L -230.300233 -503.014581 
L -226.940572 -506.916492 
L -226.100656 -509.355186 
L -223.58091 -511.306142 
L -212.662011 -513.744836 
L -209.302349 -515.208053 
L -205.942688 -518.134486 
L -203.422942 -520.57318 
L -201.743111 -521.548658 
L -201.743111 -525.938308 
L -200.06328 -530.327958 
L -203.422942 -536.180824 
L -198.383449 -540.082735 
L -193.343957 -546.911079 
L -185.784719 -561.543245 
L -183.264973 -564.469678 
L -182.425057 -567.396111 
L -182.425057 -570.322544 
L -184.944804 -572.2735 
L -183.264973 -577.150888 
L -184.944804 -583.003755 
L -188.304465 -587.881143 
L -191.664126 -591.295315 
L -197.543534 -595.197226 
L -203.422942 -596.660443 
L -209.302349 -596.172704 
L -215.181757 -592.758532 
L -217.701503 -591.783054 
L -221.90108 -592.270793 
L -225.260741 -593.73401 
L -226.940572 -596.172704 
L -227.780487 -598.611398 
L -225.260741 -604.464265 
L -224.420826 -607.390698 
L -227.780487 -612.755825 
L -232.819979 -615.19452 
L -239.539302 -617.145475 
L -245.41871 -620.071908 
L -248.778371 -624.461558 
L -250.458202 -630.314424 
L -249.618287 -636.167291 
L -247.09854 -641.532418 
L -258.01744 -655.189106 
L -263.056932 -658.603278 
L -264.736763 -662.01745 
L -265.576678 -668.358056 
L -265.576678 -674.698661 
L -264.736763 -678.600572 
L -262.217017 -682.990222 
L -261.377102 -689.330827 
L -261.377102 -695.671432 
L -263.056932 -698.597865 
L -273.135917 -701.036559 
L -278.175409 -703.475254 
L -281.53507 -705.913948 
L -284.054816 -712.254553 
L -285.734647 -714.693248 
L -293.293885 -719.082897 
L -297.493462 -722.497069 
L -304.212785 -731.276369 
L -308.412362 -735.17828 
L -315.9716 -755.175573 
L -317.651431 -759.077484 
L -318.491346 -760.052962 
L -268.096425 -757.614267 
L -264.736763 -758.589745 
L -260.537186 -760.052962 
L -256.337609 -761.02844 
L -247.09854 -760.540701 
L -242.898964 -762.003917 
L -237.859471 -758.589745 
L -231.140149 -758.589745 
L -196.703619 -762.491656 
L -193.343957 -763.954873 
L -190.824211 -770.295478 
L -190.824211 -772.246433 
L -191.664126 -774.197389 
L -191.664126 -777.123822 
L -189.984296 -779.562516 
L -187.46455 -784.439905 
L -186.624634 -787.366338 
L -186.624634 -789.317294 
L -188.304465 -792.243727 
L -188.304465 -795.17016 
L -186.624634 -799.072071 
L -184.944804 -800.535287 
L -179.065396 -802.973982 
L -177.385565 -803.949459 
L -171.506158 -812.24102 
L -170.666242 -815.167453 
L -170.666242 -820.044842 
L -169.826327 -822.483536 
L -169.826327 -823.946753 
L -170.666242 -826.873186 
L -170.666242 -828.824141 
L -169.826327 -829.799619 
L -168.146496 -831.750575 
L -167.306581 -832.726052 
L -165.62675 -840.042135 
L -164.786835 -842.48083 
L -165.62675 -845.407263 
L -163.946919 -848.821435 
L -160.587258 -855.16204 
L -169.826327 -871.257422 
L -174.865819 -877.110289 
L -178.225481 -881.987677 
L -180.745227 -884.426372 
L -183.264973 -884.914111 
L -189.14438 -885.889588 
L -191.664126 -886.865066 
L -195.023788 -890.766977 
L -196.703619 -900.521754 
L -198.383449 -904.911404 
L -196.703619 -908.325576 
L -194.183873 -914.666181 
L -191.664126 -917.592614 
L -187.46455 -919.055831 
L -177.385565 -925.396436 
L -174.865819 -925.884175 
L -173.185988 -926.371914 
L -168.986412 -925.884175 
L -163.946919 -926.371914 
L -159.747343 -928.810608 
L -158.907427 -930.761564 
L -158.907427 -933.200258 
L -158.907427 -935.638952 
L -158.067512 -937.589908 
L -156.387681 -939.053124 
L -146.308697 -946.369207 
L -144.628866 -948.320163 
L -140.429289 -955.148507 
L -147.988528 -962.46459 
L -153.867935 -970.75615 
L -154.70785 -980.023189 
L -150.508274 -990.265705 
L -145.468781 -997.581788 
L -144.628866 -1000.99596 
L -145.468781 -1005.873348 
L -147.988528 -1009.775259 
L -150.508274 -1012.701693 
L -153.02802 -1015.628126 
L -153.02802 -1020.505514 
L -152.188104 -1024.895164 
L -146.308697 -1034.162202 
L -144.628866 -1039.52733 
L -144.628866 -1042.941502 
L -145.468781 -1047.818891 
L -147.148612 -1057.573668 
L -150.508274 -1066.840706 
L -150.508274 -1071.230356 
L -150.508274 -1076.595484 
L -150.508274 -1079.521917 
L -149.668358 -1080.985133 
L -149.668358 -1082.936089 
L -150.508274 -1085.862522 
L -150.508274 -1087.813477 
L -150.508274 -1095.12956 
L -146.308697 -1096.105038 
L -145.468781 -1100.006949 
L -146.308697 -1103.90886 
L -148.828443 -1105.372076 
L -152.188104 -1106.347554 
L -154.70785 -1108.786248 
L -156.387681 -1114.639115 
L -161.427173 -1126.344848 
L -164.786835 -1131.709975 
L -172.346073 -1139.026058 
L -174.025904 -1141.952491 
L -174.865819 -1145.854402 
L -172.346073 -1149.756313 
L -171.506158 -1155.12144 
L -166.466666 -1157.560135 
L -152.188104 -1156.096918 
L -145.468781 -1157.072396 
L -142.949035 -1159.998829 
L -133.709966 -1172.680039 
L -131.19022 -1178.045167 
L -132.030136 -1184.873511 
L -131.19022 -1187.312205 
L -127.830559 -1190.726377 
L -120.271321 -1197.554721 
L -118.59149 -1199.505677 
L -116.911659 -1203.895327 
L -108.512505 -1215.601059 
L -105.992759 -1218.527493 
L -101.793183 -1219.015231 
L -86.674706 -1219.50297 
L -84.15496 -1220.966187 
L -70.716314 -1226.331314 
L -63.157076 -1231.696442 
L -55.597838 -1239.012525 
L -48.038599 -1250.230519 
L -47.198684 -1250.718257 
L -44.678938 -1249.74278 
L -42.999107 -1250.230519 
L -42.999107 -1251.693735 
L -42.159192 -1254.132429 
L -42.999107 -1255.595646 
L -42.999107 -1256.083385 
L -40.479361 -1258.03434 
L -37.1197 -1259.497557 
L -29.560461 -1259.985296 
L -29.560461 -1262.42399 
L -21.161308 -1275.592939 
L -21.161308 -1277.543895 
L -21.161308 -1279.49485 
L -22.001223 -1281.933545 
L -20.321392 -1284.859978 
L -14.441985 -1290.712844 
L -2.68317 -1305.832749 
L -5.202916 -1308.759182 
L -8.562577 -1313.148832 
L -18.641562 -1322.903609 
L -28.720546 -1328.756475 
L -40.479361 -1332.658386 
L -58.957499 -1336.560297 
L -62.31716 -1336.560297 
L -63.996991 -1335.097081 
L -65.676822 -1333.633864 
L -69.036483 -1331.682909 
L -72.396145 -1329.731953 
L -74.915891 -1329.244214 
L -81.635214 -1331.682909 
L -84.15496 -1336.072558 
L -85.834791 -1341.925425 
L -86.674706 -1347.290552 
L -87.514621 -1349.729247 
L -89.194452 -1352.167941 
L -90.034367 -1355.094374 
L -88.354537 -1357.533068 
L -86.674706 -1359.971763 
L -85.834791 -1362.898196 
L -79.955383 -1386.309661 
L -77.435637 -1391.674789 
L -83.315045 -1393.625744 
L -87.514621 -1394.113483 
L -89.194452 -1396.064438 
L -87.514621 -1408.745649 
L -88.354537 -1413.623038 
L -91.714198 -1417.03721 
L -96.75369 -1418.988165 
L -100.113352 -1413.135299 
L -108.512505 -1410.696604 
L -124.470897 -1410.208865 
L -132.030136 -1412.159821 
L -140.429289 -1424.353292 
L -147.148612 -1425.32877 
L -148.828443 -1416.549471 
L -154.70785 -1413.623038 
L -168.986412 -1412.64756 
L -175.705735 -1413.623038 
L -180.745227 -1418.012687 
L -184.104888 -1419.475904 
L -186.624634 -1420.451382 
L -191.664126 -1416.549471 
L -200.06328 -1413.135299 
L -207.622518 -1416.549471 
L -214.341841 -1421.914598 
L -221.90108 -1426.304248 
L -225.260741 -1425.816509 
L -229.460318 -1423.865554 
L -232.819979 -1421.426859 
L -234.49981 -1419.475904 
L -235.339725 -1415.573993 
L -233.659895 -1406.306955 
L -234.49981 -1401.429566 
L -237.019556 -1398.015394 
L -239.539302 -1395.088961 
L -247.09854 -1390.699311 
L -263.056932 -1385.334183 
L -268.096425 -1384.846445 
L -276.495578 -1384.846445 
L -279.85524 -1384.358706 
L -283.214901 -1382.40775 
L -288.254393 -1376.554884 
L -291.614055 -1374.11619 
L -292.45397 -1378.505839 
L -294.973716 -1383.383228 
L -297.493462 -1387.285139 
L -300.853124 -1388.748356 
L -303.37287 -1388.748356 
L -306.732531 -1391.18705 
L -308.412362 -1391.18705 
L -310.092193 -1389.723833 
L -310.932108 -1387.772878 
L -310.932108 -1385.821922 
L -312.611939 -1383.870967 
L -315.9716 -1381.432273 
L -320.171177 -1379.969056 
L -325.210669 -1379.481317 
L -329.410246 -1379.481317 
L -333.609823 -1381.432273 
L -333.609823 -1384.358706 
L -330.250161 -1393.625744 
L -342.848892 -1394.113483 
L -346.208553 -1395.5767 
L -352.927876 -1399.966349 
L -356.287538 -1400.941827 
L -363.006861 -1398.015394 
L -378.125337 -1394.601222 
L -384.004745 -1395.088961 
L -386.524491 -1394.113483 
L -387.364406 -1392.650266 
L -388.204322 -1390.699311 
L -389.884152 -1389.236094 
L -397.443391 -1389.236094 
L -399.123221 -1397.527655 
L -399.963137 -1405.331477 
L -404.162713 -1403.380521 
L -405.002629 -1399.966349 
L -406.68246 -1395.5767 
L -408.36229 -1391.674789 
L -413.401782 -1391.674789 
L -416.761444 -1392.162528 
L -420.121105 -1390.699311 
L -422.640851 -1387.772878 
L -425.160598 -1384.358706 
L -432.719836 -1377.042623 
L -433.559751 -1377.042623 
L -443.638736 -1374.11619 
L -463.796704 -1375.579406 
L -462.956789 -1376.067145 
L -462.116874 -1382.895489 
L -462.956789 -1386.7974 
L -464.63662 -1388.748356 
L -473.035773 -1392.162528 
L -475.555519 -1397.039916 
L -475.555519 -1402.405044 
L -473.035773 -1407.770171 
L -463.796704 -1419.963643 
L -457.077381 -1426.304248 
L -450.358058 -1430.206159 
L -446.998397 -1433.132592 
L -444.478651 -1437.034503 
L -443.638736 -1441.911892 
L -445.318566 -1446.301541 
L -449.518143 -1449.227974 
L -453.71772 -1451.17893 
L -458.757212 -1450.691191 
L -462.956789 -1448.740236 
L -466.31645 -1447.764758 
L -468.836196 -1450.203452 
L -469.676112 -1454.593102 
L -468.836196 -1467.274312 
L -471.355943 -1471.663962 
L -473.035773 -1474.590395 
L -480.595012 -1469.713007 
L -484.794588 -1468.24979 
L -488.994165 -1468.24979 
L -490.673996 -1467.762051 
L -492.353827 -1466.298835 
L -498.233234 -1461.421446 
L -502.432811 -1459.470491 
L -538.549172 -1454.105363 
L -542.748748 -1452.642147 
L -551.147902 -1447.277019 
L -555.347479 -1445.813802 
L -563.746633 -1445.326064 
L -567.946209 -1444.838325 
L -572.145786 -1441.911892 
L -573.825617 -1438.985458 
L -576.345363 -1433.132592 
L -578.025194 -1430.206159 
L -583.064686 -1427.279726 
L -588.944093 -1425.32877 
L -593.983586 -1422.890076 
L -596.503332 -1420.93912 
L -599.023078 -1416.549471 
L -603.222655 -1411.672082 
L -607.422231 -1408.745649 
L -611.621808 -1407.282432 
L -615.821385 -1405.331477 
L -619.181047 -1400.941827 
L -623.380623 -1398.015394 
L -626.740285 -1398.990872 
L -626.740285 -1403.380521 
L -630.939862 -1459.470491 
L -630.099946 -1464.347879 
L -627.5802 -1466.298835 
L -618.341131 -1466.786574 
L -614.141554 -1467.762051 
L -612.461724 -1470.200746 
L -614.141554 -1472.63944 
L -618.341131 -1474.590395 
L -619.181047 -1476.541351 
L -618.341131 -1477.516828 
L -611.621808 -1480.443262 
L -611.621808 -1481.906478 
L -610.781893 -1484.345173 
L -609.941978 -1487.271606 
L -607.422231 -1488.247083 
L -605.742401 -1489.222561 
L -601.542824 -1494.09995 
L -589.784009 -1502.879249 
L -586.424347 -1504.342466 
L -585.584432 -1504.830205 
L -578.025194 -1511.17081 
L -573.825617 -1512.634027 
L -568.786125 -1515.56046 
L -567.106294 -1517.023676 
L -566.266379 -1519.462371 
L -566.266379 -1528.729409 
L -567.106294 -1530.192626 
L -567.946209 -1530.680365 
L -569.62604 -1530.192626 
L -572.985702 -1526.778454 
L -575.505448 -1521.413326 
L -578.865109 -1516.535937 
L -584.744517 -1514.097243 
L -589.784009 -1513.121765 
L -602.382739 -1507.756638 
L -604.902485 -1505.317944 
L -607.422231 -1504.830205 
L -619.181047 -1505.317944 
L -624.220539 -1504.342466 
L -623.380623 -1507.756638 
L -620.860877 -1514.097243 
L -620.860877 -1517.999154 
L -619.181047 -1517.999154 
L -615.821385 -1513.609504 
L -614.141554 -1515.56046 
L -614.141554 -1525.315237 
L -614.98147 -1527.266192 
L -614.98147 -1528.729409 
L -614.141554 -1529.217148 
L -610.781893 -1530.192626 
L -603.222655 -1528.24167 
L -601.542824 -1529.217148 
L -599.862993 -1532.63132 
L -591.46384 -1542.386097 
L -587.264263 -1545.800269 
L -579.705024 -1550.189919 
L -576.345363 -1553.604091 
L -574.665532 -1557.506002 
L -576.345363 -1556.530524 
L -578.865109 -1556.530524 
L -580.54494 -1557.506002 
L -583.064686 -1557.506002 
L -583.904601 -1557.018263 
L -583.904601 -1556.530524 
L -588.944093 -1553.604091 
L -594.823501 -1549.214441 
L -598.183162 -1547.751225 
L -603.222655 -1546.288008 
L -610.781893 -1545.800269 
L -618.341131 -1546.775747 
L -624.220539 -1549.70218 
L -625.900369 -1553.116352 
L -626.740285 -1558.48148 
L -628.420116 -1561.895652 
L -631.779777 -1563.358868 
L -640.178931 -1564.334346 
L -641.858761 -1565.797563 
L -639.339015 -1568.236257 
L -635.139438 -1570.674951 
L -630.939862 -1572.625907 
L -626.740285 -1573.601384 
L -624.220539 -1572.625907 
L -622.540708 -1570.187212 
L -622.540708 -1567.260779 
L -625.900369 -1565.797563 
L -623.380623 -1564.334346 
L -620.020962 -1563.358868 
L -616.6613 -1562.383391 
L -614.141554 -1563.358868 
L -613.301639 -1566.285301 
L -614.141554 -1569.699473 
L -614.141554 -1573.113646 
L -610.781893 -1575.064601 
L -614.141554 -1585.307117 
L -614.141554 -1590.184506 
L -613.301639 -1594.574155 
L -611.621808 -1597.988328 
L -608.262147 -1600.427022 
L -605.742401 -1600.914761 
L -602.382739 -1604.816672 
L -593.983586 -1622.375271 
L -592.303755 -1628.715876 
L -593.14367 -1628.715876 
L -594.823501 -1624.326226 
L -597.343247 -1619.936576 
L -600.702909 -1616.522404 
L -604.902485 -1615.059188 
L -609.102062 -1616.522404 
L -611.621808 -1620.424315 
L -614.141554 -1624.813965 
L -617.501216 -1627.252659 
L -620.860877 -1620.912054 
L -621.700793 -1617.497882 
L -619.181047 -1615.059188 
L -624.220539 -1608.230844 
L -626.740285 -1606.767627 
L -630.099946 -1609.206321 
L -629.260031 -1612.132755 
L -632.619692 -1610.669538 
L -640.178931 -1605.30441 
L -636.819269 -1601.4025 
L -639.339015 -1599.451544 
L -647.738169 -1597.500589 
L -648.578084 -1596.037372 
L -650.257915 -1589.209028 
L -651.937746 -1588.721289 
L -654.457492 -1586.770334 
L -657.817153 -1583.356162 
L -661.176815 -1586.770334 
L -661.176815 -1592.135461 
L -662.856645 -1597.01285 
L -667.896138 -1598.963805 
L -671.255799 -1602.377977 
L -670.415884 -1609.206321 
L -667.056222 -1616.522404 
L -663.696561 -1620.912054 
L -663.696561 -1624.326226 
L -663.696561 -1628.715876 
L -662.01673 -1634.568742 
L -659.496984 -1637.982914 
L -657.817153 -1639.93387 
L -656.137323 -1641.884825 
L -653.617576 -1642.860303 
L -652.777661 -1643.348042 
L -646.058338 -1647.249953 
L -640.178931 -1654.566036 
L -636.819269 -1657.492469 
L -630.939862 -1658.955685 
L -629.260031 -1660.906641 
L -628.420116 -1665.296291 
L -628.420116 -1670.173679 
L -633.459608 -1672.612373 
L -634.299523 -1665.784029 
L -638.4991 -1661.882119 
L -643.538592 -1659.931163 
L -649.418 -1658.955685 
L -661.176815 -1660.418902 
L -666.216307 -1659.443424 
L -665.376392 -1654.566036 
L -671.255799 -1649.688647 
L -673.775545 -1648.22543 
L -677.975122 -1648.713169 
L -681.334783 -1651.151864 
L -683.014614 -1655.053774 
L -683.85453 -1659.443424 
L -686.374276 -1664.808552 
L -683.85453 -1664.808552 
L -681.334783 -1665.784029 
L -679.654953 -1667.734985 
L -677.975122 -1670.661418 
L -680.494868 -1674.07559 
L -683.014614 -1676.026546 
L -688.054106 -1677.489762 
L -688.054106 -1679.928456 
L -688.894022 -1683.830367 
L -689.733937 -1685.293584 
L -688.894022 -1686.7568 
L -687.214191 -1688.707756 
L -686.374276 -1690.658711 
L -686.374276 -1693.097406 
L -686.374276 -1695.048361 
L -688.054106 -1696.023839 
L -692.253683 -1696.511578 
L -693.933514 -1697.974794 
L -697.293175 -1702.852183 
L -700.652837 -1704.3154 
L -700.652837 -1702.364444 
L -698.973006 -1699.438011 
L -700.652837 -1697.487055 
L -702.332668 -1696.999317 
L -704.012498 -1697.487055 
L -704.852414 -1701.388966 
L -707.37216 -1701.388966 
L -709.891906 -1699.92575 
L -711.571737 -1698.462533 
L -713.251567 -1696.023839 
L -715.771313 -1690.170973 
L -717.451144 -1687.732278 
L -718.291059 -1688.220017 
L -720.810806 -1695.048361 
z
" clip-path="url(#p96a0329d54)" style="fill: #bdc3c7; stroke: #ffffff; stroke-width: 0.5"/>
    <path d="M 1992.955734 -729.813152 
L 1993.79565 -735.666019 
L 1994.635565 -740.055668 
L 2011.433872 -750.298185 
L 2016.473364 -751.273662 
L 2020.672941 -754.200095 
L 2032.431756 -765.905828 
L 2035.791418 -767.369045 
L 2039.990995 -768.344522 
L 2044.190571 -769.32 
L 2048.390148 -772.734172 
L 2055.949386 -780.050255 
L 2056.789302 -781.513472 
L 2058.469133 -784.927644 
L 2058.469133 -785.903121 
L 2060.148963 -786.39086 
L 2062.668709 -785.903121 
L 2063.508625 -785.903121 
L 2069.388032 -791.268249 
L 2070.227948 -792.731466 
L 2071.067863 -793.706943 
L 2076.107355 -798.584332 
L 2076.947271 -800.047549 
L 2078.627101 -800.535287 
L 2086.18634 -803.949459 
L 2089.546001 -806.388154 
L 2092.065747 -808.826848 
L 2094.585493 -810.777803 
L 2097.945155 -811.753281 
L 2098.78507 -812.24102 
L 2100.464901 -815.167453 
L 2101.304816 -815.655192 
L 2106.344308 -815.167453 
L 2108.024139 -815.655192 
L 2115.583377 -818.581625 
L 2129.022023 -827.848664 
L 2136.581261 -829.31188 
L 2149.179992 -830.775097 
L 2162.618638 -833.70153 
L 2186.976183 -843.456307 
L 2189.495929 -839.554396 
L 2191.17576 -840.529874 
L 2192.015675 -841.017613 
L 2194.535421 -839.554396 
L 2192.015675 -837.603441 
L 2184.456437 -834.189269 
L 2181.096776 -833.213791 
L 2177.737114 -831.750575 
L 2174.377453 -828.336403 
L 2171.857707 -825.897708 
L 2169.337961 -827.360925 
L 2167.65813 -827.360925 
L 2166.818214 -818.093886 
L 2175.217368 -816.63067 
L 2192.855591 -821.508058 
L 2192.855591 -819.557103 
L 2190.335845 -818.093886 
L 2190.335845 -816.142931 
L 2190.335845 -814.191976 
L 2189.495929 -811.753281 
L 2188.656014 -810.290065 
L 2186.976183 -809.314587 
L 2183.616522 -807.85137 
L 2176.057283 -805.900415 
L 2174.377453 -803.949459 
L 2174.377453 -797.608854 
L 2176.897199 -791.268249 
L 2182.776606 -785.903121 
L 2190.335845 -781.513472 
L 2197.055168 -780.050255 
L 2213.013559 -780.050255 
L 2217.213136 -781.513472 
L 2223.932459 -788.341816 
L 2227.292121 -790.292771 
L 2234.011444 -788.341816 
L 2247.450089 -780.537994 
L 2255.849243 -780.050255 
L 2254.169412 -777.123822 
L 2254.169412 -774.685128 
L 2255.009328 -772.734172 
L 2255.849243 -770.295478 
L 2255.009328 -768.832261 
L 2253.329497 -767.369045 
L 2252.489582 -765.905828 
L 2254.169412 -762.003917 
L 2250.809751 -754.200095 
L 2248.290005 -749.810446 
L 2244.930343 -748.347229 
L 2241.570682 -746.884012 
L 2238.21102 -743.46984 
L 2238.21102 -739.080191 
L 2239.890851 -734.690541 
L 2229.811867 -725.911241 
L 2220.572798 -714.693248 
L 2213.013559 -701.036559 
L 2210.493813 -684.941177 
L 2208.813983 -686.404394 
L 2207.134152 -686.892132 
L 2203.77449 -675.1864 
L 2196.215252 -667.382578 
L 2175.217368 -654.701367 
L 2165.978299 -647.385285 
L 2164.298468 -644.458851 
L 2163.458553 -643.483374 
L 2160.938807 -642.020157 
L 2159.258976 -641.044679 
L 2158.419061 -642.507896 
L 2151.699738 -651.287195 
L 2150.019907 -652.750412 
L 2146.660246 -654.213629 
L 2144.980415 -655.189106 
L 2144.1405 -658.11554 
L 2143.300584 -661.041973 
L 2142.460669 -663.968406 
L 2140.780838 -664.943884 
L 2139.101007 -665.431622 
L 2134.901431 -668.358056 
L 2133.2216 -668.845794 
L 2130.701854 -668.845794 
L 2126.502277 -667.382578 
L 2124.822446 -666.894839 
L 2103.824562 -668.358056 
L 2095.425409 -672.259967 
L 2089.546001 -679.088311 
L 2087.026255 -694.695954 
L 2083.666593 -697.134649 
L 2083.666593 -701.524298 
L 2087.86617 -708.840381 
L 2085.346424 -714.693248 
L 2078.627101 -720.546114 
L 2070.227948 -724.935764 
L 2064.34854 -726.39898 
L 2059.309048 -724.935764 
L 2044.190571 -717.131942 
L 2040.83091 -713.71777 
L 2038.311164 -705.913948 
L 2033.271672 -700.061082 
L 2026.552349 -699.573343 
L 2022.352772 -706.889426 
L 2021.512857 -707.377165 
L 2020.672941 -709.815859 
L 2021.512857 -711.279076 
L 2024.032603 -712.742292 
L 2017.31328 -718.595158 
L 2015.633449 -716.156464 
L 2013.953618 -715.180986 
L 2012.273788 -716.156464 
L 2010.593957 -718.595158 
L 2004.714549 -715.180986 
L 2003.034719 -714.693248 
L 2000.514972 -716.156464 
L 1998.835142 -721.521592 
L 1994.635565 -724.935764 
z
" clip-path="url(#p96a0329d54)" style="fill: #bdc3c7; stroke: #ffffff; stroke-width: 0.5"/>
    <path d="M -2501.431376 2511.211589 
L -2496.391884 2507.309678 
L -2483.793154 2500.969073 
L -2478.753661 2502.920028 
L -2473.714169 2507.309678 
L -2470.354508 2508.285156 
L -2467.834762 2507.797417 
L -2461.115439 2505.846461 
L -2456.075947 2502.920028 
L -2448.516708 2500.481334 
L -2442.637301 2498.04264 
L -2438.437724 2499.505856 
L -2429.198655 2498.530378 
L -2424.159163 2498.04264 
L -2419.959586 2493.65299 
L -2414.080178 2493.165251 
L -2411.560432 2491.702034 
L -2406.52094 2491.214296 
L -2401.481448 2487.312385 
L -2390.562548 2476.58213 
L -2386.362971 2472.19248 
L -2384.683141 2469.753786 
L -2383.843225 2465.364136 
L -2383.00331 2463.41318 
L -2378.803733 2460.974486 
L -2377.123902 2459.511269 
L -2372.924326 2457.072575 
L -2367.884833 2456.097097 
L -2363.685257 2454.146142 
L -2362.005426 2448.781014 
L -2357.805849 2450.244231 
L -2335.128134 2450.73197 
L -2320.849573 2445.366842 
L -2315.810081 2448.781014 
L -2317.489912 2456.584836 
L -2325.04915 2462.437703 
L -2341.847457 2472.680219 
L -2346.047034 2480.484041 
L -2351.086526 2485.849168 
L -2356.965934 2493.165251 
L -2363.685257 2499.018117 
L -2367.884833 2500.969073 
L -2371.244495 2503.895506 
L -2373.764241 2509.260633 
L -2373.764241 2515.1135 
L -2372.08441 2519.990888 
L -2371.244495 2522.917322 
L -2372.08441 2525.843755 
L -2374.604156 2527.79471 
L -2376.283987 2530.721143 
L -2377.963818 2537.061749 
L -2385.523056 2552.669392 
L -2388.042802 2565.350603 
L -2388.042802 2570.71573 
L -2390.562548 2575.593119 
L -2394.762125 2580.470507 
L -2409.880602 2597.053629 
L -2413.240263 2603.394234 
L -2415.760009 2606.808406 
L -2423.319247 2604.85745 
L -2435.917978 2610.222578 
L -2441.797385 2612.661272 
L -2445.996962 2614.612228 
L -2449.356624 2613.63675 
L -2451.87637 2609.734839 
L -2452.716285 2607.296145 
L -2451.87637 2603.881973 
L -2454.396116 2602.906495 
L -2456.075947 2600.95554 
L -2456.915862 2598.516845 
L -2457.755777 2593.151718 
L -2457.755777 2591.200762 
L -2461.115439 2586.811113 
L -2470.354508 2577.056335 
L -2472.034339 2572.178947 
L -2473.714169 2565.838341 
L -2477.073831 2561.448692 
L -2481.273408 2557.059042 
L -2482.953238 2553.64487 
L -2484.633069 2540.475921 
L -2485.472984 2538.037226 
L -2488.832646 2532.18436 
L -2492.192307 2525.843755 
L -2499.751546 2517.064455 
z
" clip-path="url(#p96a0329d54)" style="fill: #bdc3c7; stroke: #ffffff; stroke-width: 0.5"/>
    <path d="M -2246.097106 2636.560477 
L -2245.25719 2630.70761 
L -2246.097106 2627.293438 
L -2246.097106 2622.903788 
L -2246.097106 2618.514139 
L -2245.25719 2615.099967 
L -2242.737444 2612.173533 
L -2233.498375 2606.808406 
L -2229.298798 2603.394234 
L -2224.259306 2597.541368 
L -2220.059729 2590.225285 
L -2220.899645 2583.396941 
L -2218.379899 2580.470507 
L -2217.539983 2575.593119 
L -2218.379899 2569.740252 
L -2219.219814 2565.350603 
L -2216.700068 2565.350603 
L -2214.180322 2565.350603 
L -2211.660576 2565.838341 
L -2209.980745 2567.301558 
L -2206.621084 2566.32608 
L -2194.022353 2571.203469 
L -2176.384131 2571.203469 
L -2162.105569 2575.10538 
L -2156.226162 2573.154424 
L -2157.066077 2563.399647 
L -2150.346754 2561.936431 
L -2149.506839 2562.424169 
L -2147.827008 2566.32608 
L -2147.827008 2568.277036 
L -2150.346754 2569.252514 
L -2152.026585 2573.154424 
L -2151.18667 2580.958246 
L -2150.346754 2592.17624 
L -2149.506839 2594.127196 
L -2148.666924 2597.541368 
L -2147.827008 2601.443278 
L -2146.147177 2604.85745 
L -2144.467347 2606.808406 
L -2140.26777 2609.2471 
L -2139.427855 2611.198056 
L -2140.26777 2615.587705 
L -2141.947601 2620.952833 
L -2142.787516 2625.830222 
L -2139.427855 2630.70761 
L -2139.427855 2632.658566 
L -2141.947601 2634.121782 
L -2143.627431 2636.560477 
L -2146.147177 2642.901082 
L -2143.627431 2646.802993 
L -2142.787516 2652.16812 
L -2142.787516 2656.55777 
L -2146.987093 2658.508725 
L -2149.506839 2660.459681 
L -2157.066077 2670.702197 
L -2160.425739 2674.116369 
L -2177.224046 2679.969235 
L -2179.743792 2681.432452 
L -2180.583707 2681.432452 
L -2186.463115 2689.236274 
L -2189.822776 2690.69949 
L -2192.342522 2689.236274 
L -2194.022353 2687.285318 
L -2196.542099 2685.822102 
L -2206.621084 2685.334363 
L -2210.82066 2683.871146 
L -2215.020237 2681.920191 
L -2227.618968 2670.214458 
L -2229.298798 2667.288025 
L -2230.138714 2665.337069 
L -2235.178206 2662.410636 
L -2236.858037 2660.459681 
L -2237.697952 2658.996464 
L -2245.25719 2642.413343 
z
" clip-path="url(#p96a0329d54)" style="fill: #bdc3c7; stroke: #ffffff; stroke-width: 0.5"/>
    <path d="M -1939.527998 2593.151718 
L -1938.688083 2592.17624 
L -1937.848167 2588.762068 
L -1937.008252 2585.347896 
L -1937.008252 2584.372418 
L -1935.328421 2583.884679 
L -1927.769183 2585.347896 
L -1922.729691 2584.860157 
L -1914.330537 2581.445985 
L -1900.891891 2575.10538 
L -1884.093584 2562.911908 
L -1877.374261 2555.595825 
L -1874.0146 2550.718437 
L -1871.494854 2545.841048 
L -1869.815023 2540.475921 
L -1868.135192 2525.843755 
L -1866.455361 2520.966366 
L -1861.415869 2512.187067 
L -1855.536462 2491.702034 
L -1853.856631 2488.287862 
L -1851.336885 2485.849168 
L -1844.617562 2473.167958 
L -1838.738154 2459.023531 
L -1829.499085 2443.903626 
L -1826.979339 2429.759199 
L -1823.619678 2420.979899 
L -1822.779762 2410.737383 
L -1821.099932 2406.835472 
L -1818.580186 2403.909039 
L -1815.220524 2401.470345 
L -1805.981455 2397.080695 
L -1797.582302 2396.105217 
L -1790.023063 2399.031651 
L -1783.30374 2407.323211 
L -1780.783994 2417.077988 
L -1779.944079 2429.759199 
L -1781.62391 2454.633881 
L -1783.30374 2460.486747 
L -1786.663402 2471.704741 
L -1788.343233 2475.606652 
L -1788.343233 2484.87369 
L -1788.343233 2488.287862 
L -1787.503317 2490.238818 
L -1784.983571 2494.140729 
L -1784.983571 2496.091684 
L -1785.823487 2499.018117 
L -1790.023063 2503.407767 
L -1790.862979 2504.870984 
L -1790.862979 2507.797417 
L -1791.702894 2510.236111 
L -1792.542809 2513.162544 
L -1795.902471 2519.015411 
L -1798.422217 2523.892799 
L -1800.941963 2533.647577 
L -1805.981455 2543.402354 
L -1813.540693 2547.792004 
L -1838.738154 2552.181653 
L -1848.817139 2556.083564 
L -1857.216292 2561.936431 
L -1866.455361 2564.375125 
L -1870.654938 2567.301558 
L -1878.214176 2576.568596 
L -1884.933499 2585.835635 
L -1891.652822 2594.127196 
L -1901.731807 2599.004584 
L -1907.611214 2599.004584 
L -1916.850283 2594.614934 
L -1921.04986 2593.151718 
L -1937.008252 2594.127196 
z
" clip-path="url(#p96a0329d54)" style="fill: #bdc3c7; stroke: #ffffff; stroke-width: 0.5"/>
    <path d="M 1727.542479 -535.693085 
L 1730.902141 -542.521429 
L 1730.902141 -546.911079 
L 1729.22231 -550.325251 
L 1730.902141 -551.788467 
L 1733.421887 -553.251684 
L 1735.941633 -553.739423 
L 1738.461379 -552.276206 
L 1740.981125 -553.739423 
L 1742.660956 -554.227162 
L 1748.540363 -554.227162 
L 1746.020617 -566.420633 
L 1746.860533 -573.248977 
L 1749.380279 -576.175411 
L 1751.900025 -577.150888 
L 1756.099602 -580.077322 
L 1761.139094 -585.930188 
L 1762.818925 -585.930188 
L 1765.338671 -583.979232 
L 1769.538247 -587.393404 
L 1772.057994 -585.930188 
L 1777.097486 -589.832099 
L 1782.976893 -592.758532 
L 1789.696216 -594.709487 
L 1794.735708 -593.73401 
L 1797.255454 -596.660443 
L 1799.775201 -597.635921 
L 1803.134862 -597.635921 
L 1807.334439 -594.709487 
L 1809.01427 -594.221749 
L 1813.213846 -593.73401 
L 1815.733592 -593.246271 
L 1817.413423 -591.783054 
L 1819.933169 -589.832099 
L 1818.253339 -587.393404 
L 1819.933169 -581.540538 
L 1823.292831 -571.785761 
L 1819.933169 -571.785761 
L 1816.573508 -569.347067 
L 1814.893677 -565.445156 
L 1814.053762 -561.055506 
L 1812.373931 -559.592289 
L 1804.814693 -554.227162 
L 1797.255454 -543.496907 
L 1793.895793 -541.058213 
L 1788.016385 -537.64404 
L 1785.496639 -534.717607 
L 1784.656724 -535.693085 
L 1782.976893 -537.156302 
L 1782.136978 -538.619518 
L 1777.937401 -533.74213 
L 1774.57774 -531.791174 
L 1772.897909 -522.036397 
L 1772.057994 -515.208053 
L 1764.498755 -514.720314 
L 1762.818925 -520.57318 
L 1758.619348 -523.987352 
L 1755.259686 -522.524136 
L 1753.579856 -522.524136 
L 1752.73994 -523.011875 
L 1750.220194 -522.524136 
L 1748.540363 -525.938308 
L 1744.340787 -527.401524 
L 1740.14121 -525.938308 
L 1738.461379 -522.524136 
L 1731.742056 -527.401524 
L 1728.382395 -530.327958 
z
" clip-path="url(#p96a0329d54)" style="fill: #bdc3c7; stroke: #ffffff; stroke-width: 0.5"/>
    <path d="M 2332.281541 -856.137518 
L 2332.281541 -857.600734 
L 2333.121456 -859.063951 
L 2333.961372 -862.478123 
L 2336.481118 -865.892295 
L 2352.43951 -869.794206 
L 2358.318917 -867.355512 
L 2380.996632 -869.794206 
L 2390.235701 -869.306467 
L 2392.755447 -869.794206 
L 2396.115109 -870.769684 
L 2400.314685 -874.183856 
L 2402.834432 -875.159333 
L 2403.674347 -871.745161 
L 2405.354178 -869.794206 
L 2410.39367 -865.404556 
L 2410.39367 -864.916817 
L 2409.553754 -862.478123 
L 2409.553754 -860.527167 
L 2411.233585 -859.55169 
L 2412.913416 -860.527167 
L 2414.593247 -862.478123 
L 2417.112993 -865.404556 
L 2416.273077 -869.794206 
L 2417.952908 -871.257422 
L 2419.632739 -869.306467 
L 2418.792823 -865.404556 
L 2419.632739 -863.453601 
L 2426.352062 -859.55169 
L 2428.031892 -857.112995 
L 2428.871808 -856.137518 
L 2431.391554 -853.698823 
L 2432.231469 -853.211085 
L 2435.591131 -852.235607 
L 2437.270961 -851.747868 
L 2439.790708 -848.333696 
L 2442.310454 -843.456307 
L 2441.470538 -839.554396 
L 2437.270961 -837.603441 
L 2441.470538 -836.140224 
L 2444.8302 -836.140224 
L 2447.349946 -835.652485 
L 2449.029777 -830.775097 
L 2449.869692 -826.385447 
L 2454.909184 -818.581625 
L 2456.589015 -814.191976 
L 2454.909184 -814.191976 
L 2454.069269 -815.655192 
L 2452.389438 -817.606148 
L 2450.709607 -819.069364 
L 2449.029777 -820.044842 
L 2448.189861 -801.023026 
L 2436.431046 -799.55981 
L 2419.632739 -806.875893 
L 2381.836547 -830.775097 
L 2373.437394 -833.70153 
L 2364.198325 -834.189269 
L 2347.400018 -830.775097 
L 2339.000864 -833.70153 
L 2339.840779 -837.115702 
L 2339.840779 -841.505352 
L 2340.680695 -845.407263 
L 2343.200441 -847.845957 
L 2341.52061 -849.309174 
L 2336.481118 -850.77239 
L 2334.801287 -852.723346 
z
" clip-path="url(#p96a0329d54)" style="fill: #bdc3c7; stroke: #ffffff; stroke-width: 0.5"/>
    <path d="M -1792.542809 2357.086108 
L -1791.702894 2355.622892 
L -1789.183148 2354.647414 
L -1787.503317 2352.20872 
L -1784.983571 2347.81907 
L -1784.143656 2342.941681 
L -1783.30374 2328.797254 
L -1782.463825 2324.895343 
L -1774.064671 2311.238655 
L -1769.865095 2306.361267 
L -1767.345349 2303.434833 
L -1763.145772 2301.483878 
L -1758.946195 2300.5084 
L -1753.066787 2300.020661 
L -1748.867211 2298.557445 
L -1741.307972 2291.241362 
L -1736.26848 2288.314929 
L -1732.068903 2286.851712 
L -1728.709242 2286.363973 
L -1716.950427 2286.363973 
L -1713.590765 2284.900757 
L -1711.071019 2281.486585 
L -1707.711358 2274.658241 
L -1705.191612 2264.903463 
L -1703.511781 2260.026075 
L -1700.992035 2255.636425 
L -1696.792458 2254.660947 
L -1692.592881 2257.58738 
L -1685.873558 2264.415724 
L -1687.553389 2270.268591 
L -1688.393304 2275.145979 
L -1690.073135 2279.04789 
L -1695.112627 2282.462062 
L -1695.952543 2286.851712 
L -1695.112627 2290.753623 
L -1694.272712 2294.655534 
L -1693.432797 2300.020661 
L -1694.272712 2301.971617 
L -1695.952543 2305.873528 
L -1696.792458 2308.312222 
L -1696.792458 2310.750916 
L -1696.792458 2315.628305 
L -1696.792458 2318.066999 
L -1700.152119 2324.895343 
L -1706.871442 2331.235949 
L -1714.430681 2336.113337 
L -1725.34958 2339.03977 
L -1727.869326 2341.478465 
L -1729.549157 2344.404898 
L -1732.908819 2345.868115 
L -1736.26848 2345.868115 
L -1741.307972 2347.331331 
L -1745.507549 2347.81907 
L -1753.906703 2349.770025 
L -1759.78611 2354.647414 
L -1764.825602 2362.451236 
L -1769.025179 2371.230535 
L -1769.865095 2371.230535 
L -1772.384841 2367.328624 
L -1777.424333 2365.865408 
L -1788.343233 2365.377669 
L -1790.023063 2363.914452 
L -1791.702894 2360.50028 
z
" clip-path="url(#p96a0329d54)" style="fill: #bdc3c7; stroke: #ffffff; stroke-width: 0.5"/>
    <path d="M -2755.085816 2397.080695 
L -2754.245901 2388.301396 
L -2747.526578 2379.034357 
L -2739.96734 2371.230535 
L -2734.087932 2366.840886 
L -2729.04844 2370.255058 
L -2723.169032 2370.742797 
L -2717.289625 2372.693752 
L -2708.050556 2368.304102 
L -2703.850979 2370.742797 
L -2699.651402 2374.156969 
L -2697.971571 2377.571141 
L -2697.971571 2382.936268 
L -2696.291741 2389.764612 
L -2694.61191 2394.642001 
L -2689.572418 2397.568434 
L -2689.572418 2402.933561 
L -2696.291741 2411.712861 
L -2699.651402 2418.053466 
L -2697.971571 2423.906333 
L -2695.451825 2434.148849 
L -2697.131656 2439.513976 
L -2698.811487 2447.317798 
L -2703.850979 2455.12162 
L -2708.890471 2466.827352 
L -2713.090048 2476.58213 
L -2714.769879 2482.434996 
L -2716.449709 2482.434996 
L -2718.12954 2479.508563 
L -2723.169032 2476.58213 
L -2724.848863 2471.217002 
L -2726.528694 2456.584836 
L -2729.04844 2453.170664 
L -2730.728271 2448.781014 
L -2735.767763 2441.464932 
L -2737.447593 2435.124326 
L -2745.846747 2420.004422 
L -2746.686662 2412.688339 
L -2748.366493 2407.81095 
L -2749.206409 2403.4213 
L -2752.56607 2400.494867 
z
" clip-path="url(#p96a0329d54)" style="fill: #bdc3c7; stroke: #ffffff; stroke-width: 0.5"/>
    <path d="M -2793.721923 2683.871146 
L -2787.0026 2680.456974 
L -2777.763531 2681.432452 
L -2767.684547 2684.358885 
L -2764.324885 2681.432452 
L -2755.085816 2671.677675 
L -2753.405985 2669.23898 
L -2753.405985 2666.312547 
L -2752.56607 2664.849331 
L -2747.526578 2662.410636 
L -2739.127424 2656.55777 
L -2734.927847 2657.045509 
L -2730.728271 2659.971942 
L -2727.368609 2663.386114 
L -2726.528694 2667.288025 
L -2728.208524 2672.165414 
L -2737.447593 2688.260796 
L -2737.447593 2689.724013 
L -2737.447593 2691.674968 
L -2737.447593 2693.625923 
L -2738.287509 2695.08914 
L -2739.127424 2696.064618 
L -2740.807255 2696.552357 
L -2741.64717 2697.527834 
L -2742.487086 2698.991051 
L -2743.327001 2700.454268 
L -2745.006832 2702.405223 
L -2746.686662 2704.356178 
L -2747.526578 2706.794873 
L -2747.526578 2713.623217 
L -2750.046324 2717.037389 
L -2753.405985 2717.037389 
L -2758.445478 2714.110956 
L -2761.805139 2709.721306 
L -2764.324885 2705.819395 
L -2766.844631 2702.892962 
L -2784.482854 2700.454268 
L -2788.682431 2698.015573 
L -2792.042092 2694.113662 
z
" clip-path="url(#p96a0329d54)" style="fill: #bdc3c7; stroke: #ffffff; stroke-width: 0.5"/>
    <path d="M 1767.858417 -460.093561 
L 1768.698332 -465.946428 
L 1767.858417 -468.385122 
L 1767.858417 -471.311555 
L 1768.698332 -473.262511 
L 1770.378163 -475.701205 
L 1770.378163 -478.139899 
L 1768.698332 -479.115377 
L 1767.858417 -480.090855 
L 1768.698332 -482.529549 
L 1772.057994 -485.455982 
L 1773.737824 -483.992766 
L 1775.417655 -484.968243 
L 1777.937401 -488.382415 
L 1778.777316 -492.772065 
L 1779.617232 -492.772065 
L 1780.457147 -492.284326 
L 1780.457147 -491.796587 
L 1780.457147 -491.308849 
L 1791.376047 -475.213466 
L 1800.615116 -470.336077 
L 1809.854185 -474.237988 
L 1814.053762 -469.848339 
L 1814.053762 -463.507733 
L 1808.174354 -462.044517 
L 1800.615116 -462.044517 
L 1788.856301 -469.3606 
L 1785.496639 -471.311555 
L 1780.457147 -468.385122 
L 1777.937401 -466.921905 
L 1774.57774 -461.556778 
L 1771.218078 -459.118084 
z
" clip-path="url(#p96a0329d54)" style="fill: #bdc3c7; stroke: #ffffff; stroke-width: 0.5"/>
    <path d="M -2601.381305 2585.347896 
L -2601.381305 2575.10538 
L -2600.541389 2564.375125 
L -2593.822066 2554.132609 
L -2582.063251 2550.718437 
L -2571.144351 2554.620348 
L -2561.065367 2561.448692 
L -2548.466637 2571.691208 
L -2545.946891 2578.031813 
L -2544.26706 2584.860157 
L -2547.626721 2590.225285 
L -2552.666213 2593.639457 
L -2559.385536 2600.95554 
L -2564.425029 2604.85745 
L -2569.464521 2606.320667 
L -2575.343928 2608.271623 
L -2581.223336 2606.808406 
L -2593.822066 2598.516845 
z
" clip-path="url(#p96a0329d54)" style="fill: #bdc3c7; stroke: #ffffff; stroke-width: 0.5"/>
    <path d="M 1268.948691 -209.395786 
L 1269.788606 -209.883525 
L 1270.628521 -208.908047 
L 1270.628521 -208.420308 
L 1270.628521 -207.932569 
L 1271.468437 -206.469353 
L 1273.148268 -203.54292 
L 1273.988183 -201.591964 
L 1271.468437 -195.251359 
L 1272.308352 -188.910754 
L 1275.668014 -178.180499 
L 1270.628521 -183.545626 
L 1269.788606 -191.837187 
L 1269.788606 -201.104225 
z
" clip-path="url(#p96a0329d54)" style="fill: #bdc3c7; stroke: #ffffff; stroke-width: 0.5"/>
    <path d="M 185.457872 324.678268 
L 188.817533 324.19053 
L 193.01711 324.678268 
L 198.056602 327.604702 
L 202.256179 330.531135 
L 206.455756 331.506612 
L 212.335163 328.580179 
L 210.655333 334.433046 
L 199.736433 342.724606 
L 198.896518 347.114256 
L 193.857025 342.236867 
L 190.497364 337.359479 
L 187.137703 331.506612 
z
" clip-path="url(#p96a0329d54)" style="fill: #bdc3c7; stroke: #ffffff; stroke-width: 0.5"/>
    <path d="M 1898.885213 -1560.432435 
L 1898.885213 -1563.846607 
L 1901.40496 -1569.211735 
L 1903.924706 -1570.187212 
L 1906.444452 -1567.260779 
L 1908.964198 -1562.383391 
L 1911.483944 -1558.48148 
L 1910.644029 -1557.993741 
L 1908.124282 -1557.506002 
L 1907.284367 -1557.506002 
L 1902.244875 -1557.993741 
z
" clip-path="url(#p96a0329d54)" style="fill: #bdc3c7; stroke: #ffffff; stroke-width: 0.5"/>
    <path d="M -1714.430681 2258.562858 
L -1714.430681 2256.611903 
L -1711.071019 2252.222253 
L -1708.551273 2245.881648 
L -1706.871442 2241.491998 
L -1701.83195 2242.955215 
L -1699.312204 2247.832603 
L -1702.671866 2254.660947 
L -1708.551273 2259.538336 
z
" clip-path="url(#p96a0329d54)" style="fill: #bdc3c7; stroke: #ffffff; stroke-width: 0.5"/>
    <path d="M 2124.822446 -607.390698 
L 2130.701854 -613.243564 
L 2139.940923 -617.145475 
L 2141.620754 -611.292609 
L 2140.780838 -603.488787 
L 2135.741346 -597.148182 
L 2129.022023 -597.635921 
z
" clip-path="url(#p96a0329d54)" style="fill: #bdc3c7; stroke: #ffffff; stroke-width: 0.5"/>
    <path d="M 752.400742 501.239737 
L 757.440234 496.850087 
L 763.319642 508.55582 
L 764.999473 511.969992 
L 758.28015 514.408686 
L 753.240658 509.043558 
z
" clip-path="url(#p96a0329d54)" style="fill: #bdc3c7; stroke: #ffffff; stroke-width: 0.5"/>
    <path d="M 876.708216 539.771107 
L 876.708216 538.30789 
L 878.388047 538.30789 
L 878.388047 539.283368 
L 877.548131 540.258846 
z
" clip-path="url(#p96a0329d54)" style="fill: #bdc3c7; stroke: #ffffff; stroke-width: 0.5"/>
    <path d="M 180.41838 328.580179 
L 180.41838 327.604702 
L 181.258295 328.09244 
L 181.258295 328.580179 
z
" clip-path="url(#p96a0329d54)" style="fill: #bdc3c7; stroke: #ffffff; stroke-width: 0.5"/>
    <path d="M 534.022748 530.016329 
L 534.022748 529.528591 
L 534.862663 529.528591 
z
" clip-path="url(#p96a0329d54)" style="fill: #bdc3c7; stroke: #ffffff; stroke-width: 0.5"/>
   </g>
   <g id="PatchCollection_2">
    <defs>
     <path id="m7a2fbb89a4" d="M 194.696941 -248.10965 
L 199.736433 -248.10965 
L 198.896518 -244.695478 
L 198.896518 -243.232261 
L 198.896518 -239.33035 
L 196.376772 -241.769045 
z
" style="stroke: #ffffff; stroke-width: 0.6"/>
    </defs>
    <g clip-path="url(#p96a0329d54)">
     <use xlink:href="#m7a2fbb89a4" x="0" y="510.357344" style="fill: #e74c3c; stroke: #ffffff; stroke-width: 0.6"/>
    </g>
   </g>
   <g id="text_1">
    <!-- Gibraltar -->
    <g style="fill: #1a252f" transform="translate(154.40989 20.117344) scale(0.17 -0.17)">
     <defs>
      <path id="DejaVuSans-Bold-2a" d="M 4781 347 
Q 4331 128 3847 18 
Q 3363 -91 2847 -91 
Q 1681 -91 1000 561 
Q 319 1213 319 2328 
Q 319 3456 1012 4103 
Q 1706 4750 2913 4750 
Q 3378 4750 3804 4662 
Q 4231 4575 4609 4403 
L 4609 3438 
Q 4219 3659 3833 3768 
Q 3447 3878 3059 3878 
Q 2341 3878 1952 3476 
Q 1563 3075 1563 2328 
Q 1563 1588 1938 1184 
Q 2313 781 3003 781 
Q 3191 781 3352 804 
Q 3513 828 3641 878 
L 3641 1784 
L 2906 1784 
L 2906 2591 
L 4781 2591 
L 4781 347 
z
" transform="scale(0.015625)"/>
      <path id="DejaVuSans-Bold-4c" d="M 538 3500 
L 1656 3500 
L 1656 0 
L 538 0 
L 538 3500 
z
M 538 4863 
L 1656 4863 
L 1656 3950 
L 538 3950 
L 538 4863 
z
" transform="scale(0.015625)"/>
      <path id="DejaVuSans-Bold-45" d="M 2400 722 
Q 2759 722 2948 984 
Q 3138 1247 3138 1747 
Q 3138 2247 2948 2509 
Q 2759 2772 2400 2772 
Q 2041 2772 1848 2508 
Q 1656 2244 1656 1747 
Q 1656 1250 1848 986 
Q 2041 722 2400 722 
z
M 1656 2988 
Q 1888 3294 2169 3439 
Q 2450 3584 2816 3584 
Q 3463 3584 3878 3070 
Q 4294 2556 4294 1747 
Q 4294 938 3878 423 
Q 3463 -91 2816 -91 
Q 2450 -91 2169 54 
Q 1888 200 1656 506 
L 1656 0 
L 538 0 
L 538 4863 
L 1656 4863 
L 1656 2988 
z
" transform="scale(0.015625)"/>
      <path id="DejaVuSans-Bold-55" d="M 3138 2547 
Q 2991 2616 2845 2648 
Q 2700 2681 2553 2681 
Q 2122 2681 1889 2404 
Q 1656 2128 1656 1613 
L 1656 0 
L 538 0 
L 538 3500 
L 1656 3500 
L 1656 2925 
Q 1872 3269 2151 3426 
Q 2431 3584 2822 3584 
Q 2878 3584 2943 3579 
Q 3009 3575 3134 3559 
L 3138 2547 
z
" transform="scale(0.015625)"/>
      <path id="DejaVuSans-Bold-44" d="M 2106 1575 
Q 1756 1575 1579 1456 
Q 1403 1338 1403 1106 
Q 1403 894 1545 773 
Q 1688 653 1941 653 
Q 2256 653 2472 879 
Q 2688 1106 2688 1447 
L 2688 1575 
L 2106 1575 
z
M 3816 1997 
L 3816 0 
L 2688 0 
L 2688 519 
Q 2463 200 2181 54 
Q 1900 -91 1497 -91 
Q 953 -91 614 226 
Q 275 544 275 1050 
Q 275 1666 698 1953 
Q 1122 2241 2028 2241 
L 2688 2241 
L 2688 2328 
Q 2688 2594 2478 2717 
Q 2269 2841 1825 2841 
Q 1466 2841 1156 2769 
Q 847 2697 581 2553 
L 581 3406 
Q 941 3494 1303 3539 
Q 1666 3584 2028 3584 
Q 2975 3584 3395 3211 
Q 3816 2838 3816 1997 
z
" transform="scale(0.015625)"/>
      <path id="DejaVuSans-Bold-4f" d="M 538 4863 
L 1656 4863 
L 1656 0 
L 538 0 
L 538 4863 
z
" transform="scale(0.015625)"/>
      <path id="DejaVuSans-Bold-57" d="M 1759 4494 
L 1759 3500 
L 2913 3500 
L 2913 2700 
L 1759 2700 
L 1759 1216 
Q 1759 972 1856 886 
Q 1953 800 2241 800 
L 2816 800 
L 2816 0 
L 1856 0 
Q 1194 0 917 276 
Q 641 553 641 1216 
L 641 2700 
L 84 2700 
L 84 3500 
L 641 3500 
L 641 4494 
L 1759 4494 
z
" transform="scale(0.015625)"/>
     </defs>
     <use xlink:href="#DejaVuSans-Bold-2a"/>
     <use xlink:href="#DejaVuSans-Bold-4c" transform="translate(82.078125 0)"/>
     <use xlink:href="#DejaVuSans-Bold-45" transform="translate(116.359375 0)"/>
     <use xlink:href="#DejaVuSans-Bold-55" transform="translate(187.9375 0)"/>
     <use xlink:href="#DejaVuSans-Bold-44" transform="translate(237.25 0)"/>
     <use xlink:href="#DejaVuSans-Bold-4f" transform="translate(304.734375 0)"/>
     <use xlink:href="#DejaVuSans-Bold-57" transform="translate(339.015625 0)"/>
     <use xlink:href="#DejaVuSans-Bold-44" transform="translate(386.8125 0)"/>
     <use xlink:href="#DejaVuSans-Bold-55" transform="translate(454.296875 0)"/>
    </g>
   </g>
   <g id="line2d_1">
    <path d="M 229.378936 279.918244 
" clip-path="url(#p96a0329d54)" style="fill: none; stroke: #ffffff; stroke-width: 1.5; stroke-linecap: square"/>
    <defs>
     <path id="m20944d20bb" d="M 0 2.5 
C 0.663008 2.5 1.29895 2.236584 1.767767 1.767767 
C 2.236584 1.29895 2.5 0.663008 2.5 0 
C 2.5 -0.663008 2.236584 -1.29895 1.767767 -1.767767 
C 1.29895 -2.236584 0.663008 -2.5 0 -2.5 
C -0.663008 -2.5 -1.29895 -2.236584 -1.767767 -1.767767 
C -2.236584 -1.29895 -2.5 -0.663008 -2.5 0 
C -2.5 0.663008 -2.236584 1.29895 -1.767767 1.767767 
C -1.29895 2.236584 -0.663008 2.5 0 2.5 
z
" style="stroke: #1a252f; stroke-width: 0.8"/>
    </defs>
    <g clip-path="url(#p96a0329d54)">
     <use xlink:href="#m20944d20bb" x="229.378936" y="279.918244" style="fill: #ffffff; stroke: #1a252f; stroke-width: 0.8"/>
    </g>
   </g>
   <g id="text_2">
    <g clip-path="url(#p96a0329d54)">
     <!-- Gibraltar -->
     <g style="fill: #ffffff" transform="translate(252.785277 281.866779) scale(0.075 -0.075)">
      <use xlink:href="#DejaVuSans-Bold-2a"/>
      <use xlink:href="#DejaVuSans-Bold-4c" transform="translate(82.078125 0)"/>
      <use xlink:href="#DejaVuSans-Bold-45" transform="translate(116.359375 0)"/>
      <use xlink:href="#DejaVuSans-Bold-55" transform="translate(187.9375 0)"/>
      <use xlink:href="#DejaVuSans-Bold-44" transform="translate(237.25 0)"/>
      <use xlink:href="#DejaVuSans-Bold-4f" transform="translate(304.734375 0)"/>
      <use xlink:href="#DejaVuSans-Bold-57" transform="translate(339.015625 0)"/>
      <use xlink:href="#DejaVuSans-Bold-44" transform="translate(386.8125 0)"/>
      <use xlink:href="#DejaVuSans-Bold-55" transform="translate(454.296875 0)"/>
     </g>
    </g>
   </g>
   <g id="legend_1">
    <g id="patch_2">
     <path d="M 13.5 498.657344 
L 88.097344 498.657344 
Q 89.897344 498.657344 89.897344 496.857344 
L 89.897344 470.755937 
Q 89.897344 468.955937 88.097344 468.955937 
L 13.5 468.955937 
Q 11.7 468.955937 11.7 470.755937 
L 11.7 496.857344 
Q 11.7 498.657344 13.5 498.657344 
z
" style="fill: #ffffff; opacity: 0.85; stroke: #cccccc; stroke-linejoin: miter"/>
    </g>
    <g id="patch_3">
     <path d="M 15.3 479.394531 
L 33.3 479.394531 
L 33.3 473.094531 
L 15.3 473.094531 
z
" style="fill: #e74c3c; stroke: #888888; stroke-linejoin: miter"/>
    </g>
    <g id="text_3">
     <!-- Gibraltar -->
     <g transform="translate(40.5 479.394531) scale(0.09 -0.09)">
      <defs>
       <path id="DejaVuSans-2a" d="M 3809 666 
L 3809 1919 
L 2778 1919 
L 2778 2438 
L 4434 2438 
L 4434 434 
Q 4069 175 3628 42 
Q 3188 -91 2688 -91 
Q 1594 -91 976 548 
Q 359 1188 359 2328 
Q 359 3472 976 4111 
Q 1594 4750 2688 4750 
Q 3144 4750 3555 4637 
Q 3966 4525 4313 4306 
L 4313 3634 
Q 3963 3931 3569 4081 
Q 3175 4231 2741 4231 
Q 1884 4231 1454 3753 
Q 1025 3275 1025 2328 
Q 1025 1384 1454 906 
Q 1884 428 2741 428 
Q 3075 428 3337 486 
Q 3600 544 3809 666 
z
" transform="scale(0.015625)"/>
       <path id="DejaVuSans-4c" d="M 603 3500 
L 1178 3500 
L 1178 0 
L 603 0 
L 603 3500 
z
M 603 4863 
L 1178 4863 
L 1178 4134 
L 603 4134 
L 603 4863 
z
" transform="scale(0.015625)"/>
       <path id="DejaVuSans-45" d="M 3116 1747 
Q 3116 2381 2855 2742 
Q 2594 3103 2138 3103 
Q 1681 3103 1420 2742 
Q 1159 2381 1159 1747 
Q 1159 1113 1420 752 
Q 1681 391 2138 391 
Q 2594 391 2855 752 
Q 3116 1113 3116 1747 
z
M 1159 2969 
Q 1341 3281 1617 3432 
Q 1894 3584 2278 3584 
Q 2916 3584 3314 3078 
Q 3713 2572 3713 1747 
Q 3713 922 3314 415 
Q 2916 -91 2278 -91 
Q 1894 -91 1617 61 
Q 1341 213 1159 525 
L 1159 0 
L 581 0 
L 581 4863 
L 1159 4863 
L 1159 2969 
z
" transform="scale(0.015625)"/>
       <path id="DejaVuSans-55" d="M 2631 2963 
Q 2534 3019 2420 3045 
Q 2306 3072 2169 3072 
Q 1681 3072 1420 2755 
Q 1159 2438 1159 1844 
L 1159 0 
L 581 0 
L 581 3500 
L 1159 3500 
L 1159 2956 
Q 1341 3275 1631 3429 
Q 1922 3584 2338 3584 
Q 2397 3584 2469 3576 
Q 2541 3569 2628 3553 
L 2631 2963 
z
" transform="scale(0.015625)"/>
       <path id="DejaVuSans-44" d="M 2194 1759 
Q 1497 1759 1228 1600 
Q 959 1441 959 1056 
Q 959 750 1161 570 
Q 1363 391 1709 391 
Q 2188 391 2477 730 
Q 2766 1069 2766 1631 
L 2766 1759 
L 2194 1759 
z
M 3341 1997 
L 3341 0 
L 2766 0 
L 2766 531 
Q 2569 213 2275 61 
Q 1981 -91 1556 -91 
Q 1019 -91 701 211 
Q 384 513 384 1019 
Q 384 1609 779 1909 
Q 1175 2209 1959 2209 
L 2766 2209 
L 2766 2266 
Q 2766 2663 2505 2880 
Q 2244 3097 1772 3097 
Q 1472 3097 1187 3025 
Q 903 2953 641 2809 
L 641 3341 
Q 956 3463 1253 3523 
Q 1550 3584 1831 3584 
Q 2591 3584 2966 3190 
Q 3341 2797 3341 1997 
z
" transform="scale(0.015625)"/>
       <path id="DejaVuSans-4f" d="M 603 4863 
L 1178 4863 
L 1178 0 
L 603 0 
L 603 4863 
z
" transform="scale(0.015625)"/>
       <path id="DejaVuSans-57" d="M 1172 4494 
L 1172 3500 
L 2356 3500 
L 2356 3053 
L 1172 3053 
L 1172 1153 
Q 1172 725 1289 603 
Q 1406 481 1766 481 
L 2356 481 
L 2356 0 
L 1766 0 
Q 1100 0 847 248 
Q 594 497 594 1153 
L 594 3053 
L 172 3053 
L 172 3500 
L 594 3500 
L 594 4494 
L 1172 4494 
z
" transform="scale(0.015625)"/>
      </defs>
      <use xlink:href="#DejaVuSans-2a"/>
      <use xlink:href="#DejaVuSans-4c" transform="translate(77.484375 0)"/>
      <use xlink:href="#DejaVuSans-45" transform="translate(105.265625 0)"/>
      <use xlink:href="#DejaVuSans-55" transform="translate(168.75 0)"/>
      <use xlink:href="#DejaVuSans-44" transform="translate(209.859375 0)"/>
      <use xlink:href="#DejaVuSans-4f" transform="translate(271.140625 0)"/>
      <use xlink:href="#DejaVuSans-57" transform="translate(298.921875 0)"/>
      <use xlink:href="#DejaVuSans-44" transform="translate(338.125 0)"/>
      <use xlink:href="#DejaVuSans-55" transform="translate(399.40625 0)"/>
     </g>
    </g>
    <g id="patch_4">
     <path d="M 15.3 492.895234 
L 33.3 492.895234 
L 33.3 486.595234 
L 15.3 486.595234 
z
" style="fill: #bdc3c7; stroke: #888888; stroke-linejoin: miter"/>
    </g>
    <g id="text_4">
     <!-- Neighbors -->
     <g transform="translate(40.5 492.895234) scale(0.09 -0.09)">
      <defs>
       <path id="DejaVuSans-31" d="M 628 4666 
L 1478 4666 
L 3547 763 
L 3547 4666 
L 4159 4666 
L 4159 0 
L 3309 0 
L 1241 3903 
L 1241 0 
L 628 0 
L 628 4666 
z
" transform="scale(0.015625)"/>
       <path id="DejaVuSans-48" d="M 3597 1894 
L 3597 1613 
L 953 1613 
Q 991 1019 1311 708 
Q 1631 397 2203 397 
Q 2534 397 2845 478 
Q 3156 559 3463 722 
L 3463 178 
Q 3153 47 2828 -22 
Q 2503 -91 2169 -91 
Q 1331 -91 842 396 
Q 353 884 353 1716 
Q 353 2575 817 3079 
Q 1281 3584 2069 3584 
Q 2775 3584 3186 3129 
Q 3597 2675 3597 1894 
z
M 3022 2063 
Q 3016 2534 2758 2815 
Q 2500 3097 2075 3097 
Q 1594 3097 1305 2825 
Q 1016 2553 972 2059 
L 3022 2063 
z
" transform="scale(0.015625)"/>
       <path id="DejaVuSans-4a" d="M 2906 1791 
Q 2906 2416 2648 2759 
Q 2391 3103 1925 3103 
Q 1463 3103 1205 2759 
Q 947 2416 947 1791 
Q 947 1169 1205 825 
Q 1463 481 1925 481 
Q 2391 481 2648 825 
Q 2906 1169 2906 1791 
z
M 3481 434 
Q 3481 -459 3084 -895 
Q 2688 -1331 1869 -1331 
Q 1566 -1331 1297 -1286 
Q 1028 -1241 775 -1147 
L 775 -588 
Q 1028 -725 1275 -790 
Q 1522 -856 1778 -856 
Q 2344 -856 2625 -561 
Q 2906 -266 2906 331 
L 2906 616 
Q 2728 306 2450 153 
Q 2172 0 1784 0 
Q 1141 0 747 490 
Q 353 981 353 1791 
Q 353 2603 747 3093 
Q 1141 3584 1784 3584 
Q 2172 3584 2450 3431 
Q 2728 3278 2906 2969 
L 2906 3500 
L 3481 3500 
L 3481 434 
z
" transform="scale(0.015625)"/>
       <path id="DejaVuSans-4b" d="M 3513 2113 
L 3513 0 
L 2938 0 
L 2938 2094 
Q 2938 2591 2744 2837 
Q 2550 3084 2163 3084 
Q 1697 3084 1428 2787 
Q 1159 2491 1159 1978 
L 1159 0 
L 581 0 
L 581 4863 
L 1159 4863 
L 1159 2956 
Q 1366 3272 1645 3428 
Q 1925 3584 2291 3584 
Q 2894 3584 3203 3211 
Q 3513 2838 3513 2113 
z
" transform="scale(0.015625)"/>
       <path id="DejaVuSans-52" d="M 1959 3097 
Q 1497 3097 1228 2736 
Q 959 2375 959 1747 
Q 959 1119 1226 758 
Q 1494 397 1959 397 
Q 2419 397 2687 759 
Q 2956 1122 2956 1747 
Q 2956 2369 2687 2733 
Q 2419 3097 1959 3097 
z
M 1959 3584 
Q 2709 3584 3137 3096 
Q 3566 2609 3566 1747 
Q 3566 888 3137 398 
Q 2709 -91 1959 -91 
Q 1206 -91 779 398 
Q 353 888 353 1747 
Q 353 2609 779 3096 
Q 1206 3584 1959 3584 
z
" transform="scale(0.015625)"/>
       <path id="DejaVuSans-56" d="M 2834 3397 
L 2834 2853 
Q 2591 2978 2328 3040 
Q 2066 3103 1784 3103 
Q 1356 3103 1142 2972 
Q 928 2841 928 2578 
Q 928 2378 1081 2264 
Q 1234 2150 1697 2047 
L 1894 2003 
Q 2506 1872 2764 1633 
Q 3022 1394 3022 966 
Q 3022 478 2636 193 
Q 2250 -91 1575 -91 
Q 1294 -91 989 -36 
Q 684 19 347 128 
L 347 722 
Q 666 556 975 473 
Q 1284 391 1588 391 
Q 1994 391 2212 530 
Q 2431 669 2431 922 
Q 2431 1156 2273 1281 
Q 2116 1406 1581 1522 
L 1381 1569 
Q 847 1681 609 1914 
Q 372 2147 372 2553 
Q 372 3047 722 3315 
Q 1072 3584 1716 3584 
Q 2034 3584 2315 3537 
Q 2597 3491 2834 3397 
z
" transform="scale(0.015625)"/>
      </defs>
      <use xlink:href="#DejaVuSans-31"/>
      <use xlink:href="#DejaVuSans-48" transform="translate(74.8125 0)"/>
      <use xlink:href="#DejaVuSans-4c" transform="translate(136.34375 0)"/>
      <use xlink:href="#DejaVuSans-4a" transform="translate(164.125 0)"/>
      <use xlink:href="#DejaVuSans-4b" transform="translate(227.609375 0)"/>
      <use xlink:href="#DejaVuSans-45" transform="translate(290.984375 0)"/>
      <use xlink:href="#DejaVuSans-52" transform="translate(354.46875 0)"/>
      <use xlink:href="#DejaVuSans-55" transform="translate(415.65625 0)"/>
      <use xlink:href="#DejaVuSans-56" transform="translate(456.765625 0)"/>
     </g>
    </g>
   </g>
  </g>
 </g>
 <defs>
  <clipPath id="p96a0329d54">
   <rect x="7.2" y="30.117344" width="380.033374" height="473.04"/>
  </clipPath>
 </defs>
</svg>
