<?xml version="1.0" encoding="utf-8" standalone="no"?>
<!DOCTYPE svg PUBLIC "-//W3C//DTD SVG 1.1//EN"
  "http://www.w3.org/Graphics/SVG/1.1/DTD/svg11.dtd">
<svg xmlns:xlink="http://www.w3.org/1999/xlink" width="542.526841pt" height="510.357344pt" viewBox="0 0 542.526841 510.357344" xmlns="http://www.w3.org/2000/svg" version="1.1">
 <metadata>
  <rdf:RDF xmlns:dc="http://purl.org/dc/elements/1.1/" xmlns:cc="http://creativecommons.org/ns#" xmlns:rdf="http://www.w3.org/1999/02/22-rdf-syntax-ns#">
   <cc:Work>
    <dc:type rdf:resource="http://purl.org/dc/dcmitype/StillImage"/>
    <dc:date>2026-06-19T08:14:05.278870</dc:date>
    <dc:format>image/svg+xml</dc:format>
    <dc:creator>
     <cc:Agent>
      <dc:title>Matplotlib v3.11.0, https://matplotlib.org/</dc:title>
     </cc:Agent>
    </dc:creator>
   </cc:Work>
  </rdf:RDF>
 </metadata>
 <defs>
  <style type="text/css">*{stroke-linejoin: round; stroke-linecap: butt}</style>
 </defs>
 <g id="figure_1">
  <g id="patch_1">
   <path d="M 0 510.357344 
L 542.526841 510.357344 
L 542.526841 0 
L 0 0 
z
" style="fill: #d6eaf8"/>
  </g>
  <g id="axes_1">
   <g id="PatchCollection_1">
    <path d="M 379.738005 316.609089 
L 381.589107 315.323051 
L 385.291311 314.404453 
L 393.06594 315.87421 
L 397.138365 314.404453 
L 398.249026 313.118416 
L 400.470349 309.444023 
L 401.951231 307.790546 
L 402.321451 307.606826 
L 402.691671 307.239387 
L 405.653435 305.58591 
L 407.134317 304.299872 
L 408.244978 302.278956 
L 408.985419 300.44176 
L 409.355639 298.420843 
L 409.72586 296.399927 
L 408.985419 292.174375 
L 408.615198 287.765104 
L 408.244978 285.744188 
L 407.504537 284.64187 
L 404.912994 282.620953 
L 404.172553 281.518636 
L 402.691671 278.395401 
L 401.58101 277.660523 
L 399.359688 277.476803 
L 396.768145 278.395401 
L 394.917043 278.762841 
L 394.546822 276.741925 
L 396.397924 275.639607 
L 401.58101 274.169849 
L 403.061892 273.251251 
L 407.504537 268.290821 
L 410.4663 264.065269 
L 411.947182 262.595511 
L 415.649386 260.207156 
L 416.760048 258.18624 
L 417.500488 256.349043 
L 417.870709 249.918855 
L 416.389827 249.183977 
L 409.72586 246.060743 
L 406.393876 242.570069 
L 406.023655 242.01891 
L 404.172553 239.446835 
L 403.802333 237.2422 
L 404.542774 236.691041 
L 407.134317 235.037564 
L 408.244978 234.302685 
L 409.355639 230.995731 
L 410.09608 230.260853 
L 411.206741 227.872497 
L 411.206741 222.912067 
L 410.09608 214.460963 
L 407.134317 207.663336 
L 406.764096 205.09126 
L 406.764096 202.335466 
L 407.134317 200.498269 
L 406.764096 198.661073 
L 405.653435 195.721558 
L 407.504537 196.088998 
L 409.355639 197.007596 
L 408.985419 194.98668 
L 407.134317 190.761128 
L 407.504537 189.65881 
L 407.504537 188.740212 
L 404.542774 188.740212 
L 404.172553 187.454174 
L 405.283214 185.800697 
L 407.134317 183.963501 
L 407.504537 183.596061 
L 407.874757 183.596061 
L 408.985419 183.596061 
L 409.72586 183.228622 
L 410.836521 181.942584 
L 411.576962 181.391425 
L 412.687623 180.840266 
L 413.798284 180.656547 
L 414.538725 180.289108 
L 415.649386 179.18679 
L 415.279166 177.717032 
L 414.908945 176.614715 
L 415.649386 175.696116 
L 416.760048 175.328677 
L 417.500488 175.512397 
L 418.98137 176.063556 
L 419.721811 176.247275 
L 420.092031 175.879836 
L 420.832472 174.961238 
L 421.202693 174.777518 
L 431.568865 173.85892 
L 434.530628 174.226359 
L 437.122171 175.144957 
L 446.747902 180.289108 
L 449.709665 180.840266 
L 452.301208 179.737949 
L 454.522531 181.391425 
L 456.003413 181.942584 
L 460.446058 182.126304 
L 461.926939 181.942584 
L 461.926939 181.023986 
L 461.926939 179.921668 
L 462.66738 178.81935 
L 463.778042 178.268191 
L 464.888703 179.370509 
L 465.999364 182.126304 
L 466.739805 181.758865 
L 467.110025 181.207706 
L 467.850466 180.472827 
L 467.850466 179.737949 
L 467.110025 179.554229 
L 466.739805 179.370509 
L 466.739805 179.18679 
L 466.739805 178.451911 
L 468.220687 179.00307 
L 469.701568 179.00307 
L 470.81223 178.635631 
L 472.663332 178.451911 
L 473.773993 177.533313 
L 475.625095 174.042639 
L 476.735756 173.124041 
L 478.216638 172.756602 
L 481.548622 171.103125 
L 483.399724 170.919405 
L 485.250826 171.286845 
L 486.731708 172.205443 
L 487.472149 173.6752 
L 487.101928 175.328677 
L 488.953031 176.247275 
L 489.693471 176.247275 
L 489.323251 174.410079 
L 488.953031 173.85892 
L 494.136116 174.777518 
L 495.616998 174.593798 
L 498.578762 173.85892 
L 499.689423 173.85892 
L 500.800084 174.777518 
L 505.61295 180.105388 
L 505.98317 181.207706 
L 505.242729 182.126304 
L 509.315154 182.126304 
L 510.796036 182.861183 
L 514.49824 186.168136 
L 518.200444 188.189053 
L 522.272869 189.47509 
L 526.715514 190.209969 
L 533.009261 190.209969 
L 533.749702 190.026249 
L 534.119922 189.29137 
L 535.230584 188.372772 
L 536.711465 187.637894 
L 537.822127 187.270454 
L 541.894551 188.556492 
L 548.188299 195.170399 
L 551.890503 199.212232 
L 553.371384 200.498269 
L 555.592707 201.416867 
L 557.443809 201.968026 
L 562.256675 202.519185 
L 565.958879 203.805223 
L 572.993067 205.27498 
L 574.473949 205.27498 
L 575.58461 204.907541 
L 576.325051 203.988943 
L 580.027255 199.94711 
L 582.248578 199.028512 
L 587.801884 199.212232 
L 590.393427 198.844792 
L 591.874309 199.028512 
L 593.35519 199.94711 
L 597.057395 203.805223 
L 598.168056 206.193578 
L 597.797836 208.949373 
L 596.316954 215.012122 
L 598.168056 215.93072 
L 599.278717 217.767916 
L 598.908497 222.728347 
L 599.278717 224.932983 
L 600.019158 226.58646 
L 606.683126 236.87476 
L 610.01511 239.997994 
L 610.38533 240.365434 
L 613.717314 241.835191 
L 615.938636 241.467751 
L 620.011061 239.814275 
L 621.862163 239.446835 
L 626.675029 239.263116 
L 628.526131 238.895676 
L 630.747453 237.977078 
L 633.709217 235.956162 
L 634.819878 235.772442 
L 635.930539 235.956162 
L 638.151862 237.05848 
L 639.632744 237.2422 
L 641.854066 236.691041 
L 642.964727 236.507321 
L 643.705168 236.507321 
L 644.445609 236.691041 
L 644.81583 237.05848 
L 644.81583 237.609639 
L 645.18605 238.160798 
L 645.926491 237.977078 
L 647.037152 237.2422 
L 652.960679 239.814275 
L 654.811781 240.916593 
L 655.922442 238.711957 
L 657.773544 236.87476 
L 662.58641 234.302685 
L 665.548173 233.384087 
L 666.288614 234.670124 
L 665.548173 237.2422 
L 663.697071 240.365434 
L 665.918394 241.100312 
L 668.139716 241.100312 
L 670.361039 240.549153 
L 672.212141 239.446835 
L 672.952582 241.835191 
L 671.4717 243.856107 
L 669.620598 245.509584 
L 668.880157 247.34678 
L 668.509937 249.367697 
L 667.029055 251.021173 
L 665.548173 252.490931 
L 663.326851 253.04209 
L 655.182001 251.388613 
L 646.296711 252.123491 
L 644.075389 251.572332 
L 640.373184 249.735136 
L 627.41547 248.081659 
L 625.934588 248.449098 
L 625.194147 249.918855 
L 624.823927 255.063006 
L 624.083486 259.472277 
L 624.453706 261.125754 
L 625.564367 261.860633 
L 626.675029 262.779231 
L 632.228335 261.860633 
L 634.449658 262.595511 
L 636.67098 261.860633 
L 641.483846 263.697829 
L 644.075389 263.51411 
L 643.334948 262.962951 
L 642.594507 262.411792 
L 641.854066 262.044352 
L 640.743405 261.860633 
L 640.743405 261.125754 
L 645.926491 260.758315 
L 647.777593 261.125754 
L 649.628695 262.411792 
L 650.739356 265.902465 
L 652.590458 267.188503 
L 654.441561 267.555942 
L 657.773544 268.107101 
L 667.399275 270.679176 
L 671.4717 271.781494 
L 672.952582 271.597774 
L 675.173904 270.495456 
L 674.433464 269.760578 
L 672.952582 269.025699 
L 672.952582 267.923381 
L 674.803684 267.372222 
L 676.654786 268.84198 
L 678.505888 272.332653 
L 679.98677 273.251251 
L 681.467652 273.618691 
L 682.948533 274.169849 
L 683.688974 275.455887 
L 684.799635 274.353569 
L 687.391178 273.251251 
L 688.50184 272.332653 
L 687.761399 271.414055 
L 688.131619 271.230335 
L 689.242281 271.230335 
L 689.982721 270.862896 
L 691.093383 269.760578 
L 691.463603 269.393139 
L 691.833824 269.393139 
L 695.536028 269.576858 
L 697.75735 269.944297 
L 699.608452 270.679176 
L 701.089334 271.597774 
L 701.459555 271.965214 
L 701.459555 272.332653 
L 701.459555 272.700092 
L 701.829775 273.067532 
L 704.051098 273.80241 
L 704.421318 273.80241 
L 708.123522 274.537289 
L 710.344845 274.721008 
L 711.085286 274.904728 
L 711.455506 275.088448 
L 712.195947 275.639607 
L 713.306608 276.190766 
L 714.78749 276.374485 
L 715.898151 276.741925 
L 728.115425 287.948823 
L 732.18785 293.276693 
L 738.481597 298.053404 
L 742.924242 301.176638 
L 744.405124 301.727797 
L 744.775344 302.278956 
L 749.58821 306.688228 
L 755.511737 310.362621 
L 758.4735 314.588173 
L 757.733059 318.997444 
L 748.107328 333.695017 
L 747.366887 334.246176 
L 746.626446 334.981054 
L 746.256226 336.083372 
L 746.626446 339.941485 
L 746.256226 340.860083 
L 745.145565 342.880999 
L 743.664683 343.615878 
L 741.443361 343.983317 
L 738.851818 343.983317 
L 737.000715 343.248438 
L 732.928291 340.676363 
L 731.447409 340.125204 
L 729.966527 341.227522 
L 729.966527 343.064719 
L 730.706968 345.085635 
L 729.596307 347.290271 
L 728.485646 348.943748 
L 727.745205 350.964664 
L 726.264323 357.211132 
L 725.523882 358.31345 
L 724.413221 358.864609 
L 715.527931 359.415768 
L 714.047049 358.864609 
L 713.676829 354.822776 
L 711.085286 349.678626 
L 707.753302 344.534476 
L 704.791538 340.860083 
L 701.459555 338.655447 
L 697.38713 336.818251 
L 692.944485 336.267092 
L 688.131619 338.288008 
L 680.35699 338.655447 
L 678.505888 338.288008 
L 674.063243 336.818251 
L 671.841921 336.450811 
L 670.361039 335.899652 
L 667.399275 333.327577 
L 664.807732 332.776418 
L 662.95663 333.143858 
L 661.105528 333.878736 
L 658.884206 333.878736 
L 656.662883 332.776418 
L 654.811781 334.797334 
L 641.483846 335.715933 
L 637.411421 337.18569 
L 635.190098 337.36941 
L 629.636792 333.327577 
L 627.41547 332.225259 
L 625.934588 332.04154 
L 625.194147 332.960138 
L 625.194147 334.246176 
L 625.564367 335.348493 
L 625.194147 336.450811 
L 624.083486 336.818251 
L 622.602604 336.818251 
L 621.491943 336.450811 
L 620.751502 336.083372 
L 619.27062 333.143858 
L 618.159959 332.408979 
L 617.419518 332.04154 
L 601.87026 330.388063 
L 598.908497 330.388063 
L 598.538276 330.571782 
L 596.687174 330.939222 
L 593.35519 332.592699 
L 590.763647 334.429895 
L 589.652986 334.797334 
L 587.061443 335.715933 
L 585.950782 336.267092 
L 584.840121 337.00197 
L 582.248578 339.022886 
L 580.767696 341.778681 
L 580.027255 345.085635 
L 579.286814 346.004233 
L 577.065492 347.106551 
L 576.695271 348.025149 
L 575.95483 349.127467 
L 572.622847 352.434421 
L 570.031304 355.373935 
L 568.920642 356.476253 
L 568.180202 356.292534 
L 565.588659 356.292534 
L 563.737556 356.659973 
L 562.256675 357.394852 
L 560.775793 356.292534 
L 558.55447 355.741375 
L 545.596756 355.925094 
L 543.375433 356.659973 
L 538.932788 359.048328 
L 536.711465 359.599487 
L 529.677277 359.599487 
L 527.826175 358.864609 
L 527.826175 357.946011 
L 528.566616 357.211132 
L 529.307057 356.476253 
L 530.047498 355.925094 
L 529.677277 354.639057 
L 528.936836 354.087898 
L 528.196396 353.720459 
L 527.455955 352.618141 
L 525.604853 351.332103 
L 524.864412 350.229785 
L 525.234632 349.127467 
L 525.975073 348.760028 
L 526.715514 348.392589 
L 527.085734 347.65771 
L 527.455955 345.453074 
L 527.826175 343.064719 
L 527.455955 341.043803 
L 526.715514 339.757765 
L 524.494191 337.00197 
L 523.38353 335.899652 
L 520.791987 334.981054 
L 518.940885 334.613615 
L 516.349342 334.246176 
L 514.128019 334.981054 
L 513.017358 336.818251 
L 513.387579 339.022886 
L 513.017358 339.941485 
L 510.055595 343.064719 
L 509.315154 343.615878 
L 508.204493 343.983317 
L 507.093831 343.799597 
L 504.872509 343.248438 
L 503.761848 343.064719 
L 503.021407 343.432158 
L 501.540525 344.534476 
L 500.800084 344.718196 
L 499.319202 344.534476 
L 498.948982 344.718196 
L 497.838321 345.820514 
L 497.838321 346.187953 
L 497.09788 347.47399 
L 496.727659 348.025149 
L 496.727659 348.392589 
L 495.246778 348.943748 
L 494.876557 349.127467 
L 491.914794 352.434421 
L 490.433912 353.353019 
L 488.21259 353.536739 
L 487.101928 353.1693 
L 486.361488 352.250701 
L 485.991267 351.148383 
L 485.250826 350.229785 
L 484.140165 349.494907 
L 483.029504 348.943748 
L 478.586859 348.025149 
L 476.365536 348.025149 
L 474.884654 348.576308 
L 474.144214 350.229785 
L 474.144214 351.148383 
L 473.033552 352.80186 
L 473.033552 353.904178 
L 473.033552 355.373935 
L 473.773993 356.108814 
L 474.144214 356.843693 
L 474.884654 358.12973 
L 476.735756 364.008759 
L 477.105977 364.927357 
L 477.476197 366.213395 
L 475.254875 369.336629 
L 473.403773 373.745901 
L 463.778042 388.076033 
L 463.037601 390.464389 
L 462.66738 391.382987 
L 461.556719 392.117866 
L 459.705617 393.220184 
L 458.224735 394.322502 
L 457.484294 395.2411 
L 456.743854 396.527137 
L 456.003413 398.364334 
L 455.262972 398.180614 
L 454.892751 397.996895 
L 454.522531 397.629455 
L 454.522531 398.364334 
L 454.152311 398.731773 
L 453.78209 399.099212 
L 454.522531 399.099212 
L 454.152311 400.017811 
L 453.78209 400.56897 
L 453.041649 401.120129 
L 452.301208 401.303848 
L 451.930988 401.671288 
L 451.190547 403.875923 
L 450.820327 404.610802 
L 449.339445 406.447999 
L 446.007461 416.736299 
L 444.8968 418.757215 
L 440.824375 424.819964 
L 439.713714 424.268805 
L 438.603053 423.350206 
L 438.603053 422.982767 
L 437.862612 422.064169 
L 430.458203 410.306111 
L 428.977322 408.468915 
L 425.275117 406.999157 
L 417.130268 408.101475 
L 413.798284 407.182877 
L 414.538725 406.447999 
L 417.870709 403.141045 
L 418.61115 401.671288 
L 418.61115 399.282932 
L 418.240929 397.629455 
L 416.389827 394.506221 
L 415.279166 392.852744 
L 415.279166 392.301585 
L 415.279166 391.015548 
L 415.649386 386.789996 
L 414.908945 384.952799 
L 413.428064 382.748163 
L 409.355639 379.624929 
L 403.802333 377.420294 
L 404.912994 374.11334 
L 405.283214 372.276143 
L 405.283214 369.152909 
L 405.283214 367.315713 
L 404.912994 366.029675 
L 403.802333 362.906441 
L 403.802333 361.987843 
L 403.802333 359.783207 
L 404.912994 357.762291 
L 409.355639 349.862346 
L 409.355639 349.678626 
L 410.4663 347.65771 
L 410.4663 347.290271 
L 409.355639 346.555392 
L 407.874757 345.453074 
L 402.321451 343.432158 
L 398.619247 340.860083 
L 397.878806 339.757765 
L 396.027704 337.553129 
L 395.287263 336.818251 
L 391.214838 335.715933 
L 389.733957 334.797334 
L 388.993516 332.776418 
L 389.363736 331.6741 
L 390.474397 331.306661 
L 390.844618 330.571782 
L 390.474397 328.918306 
L 390.104177 327.999707 
L 380.478446 318.446285 
z
" clip-path="url(#p993faf5ad1)" style="fill: #bdc3c7; stroke: #ffffff; stroke-width: 0.5"/>
    <path d="M 711.085286 360.334366 
L 712.566167 359.966927 
L 714.417269 360.150646 
L 716.268372 361.069245 
L 717.749253 362.171563 
L 718.859915 362.722721 
L 723.67278 363.27388 
L 729.226086 363.090161 
L 730.336748 363.64132 
L 731.447409 365.111077 
L 732.55807 367.131993 
L 733.298511 369.152909 
L 733.298511 370.071508 
L 731.817629 369.704068 
L 728.485646 368.050591 
L 726.634543 367.683152 
L 724.783441 368.050591 
L 721.821678 368.96919 
L 719.970576 369.336629 
L 716.268372 368.234311 
L 713.676829 365.845956 
L 712.195947 363.090161 
z
" clip-path="url(#p993faf5ad1)" style="fill: #bdc3c7; stroke: #ffffff; stroke-width: 0.5"/>
    <path d="M 427.86666 430.147834 
L 427.86666 427.759478 
L 428.977322 425.187403 
L 430.087983 422.982767 
L 431.568865 423.717646 
L 433.049746 424.819964 
L 435.641289 427.392039 
L 433.790187 427.943198 
L 431.568865 430.515273 
L 429.717762 431.250151 
z
" clip-path="url(#p993faf5ad1)" style="fill: #bdc3c7; stroke: #ffffff; stroke-width: 0.5"/>
   </g>
   <g id="PatchCollection_2">
    <path d="M 124.656132 334.981054 
L 128.358336 329.836904 
L 127.988116 329.285745 
L 127.617896 328.183427 
L 129.468998 326.897389 
L 130.579659 321.936959 
L 132.060541 320.834641 
L 132.430761 320.283482 
L 132.430761 318.997444 
L 132.060541 317.527687 
L 131.3201 316.792809 
L 131.3201 315.506771 
L 132.060541 314.588173 
L 135.392524 312.567257 
L 140.20539 310.73006 
L 142.056492 310.362621 
L 144.277815 310.91378 
L 145.388476 310.91378 
L 145.758696 309.995182 
L 146.499137 309.260303 
L 147.609798 308.892864 
L 148.72046 308.709144 
L 154.643987 309.076583 
L 158.716411 309.995182 
L 172.044347 316.05793 
L 177.967873 316.24165 
L 178.338094 316.425369 
L 178.708314 317.160248 
L 179.078535 317.527687 
L 179.078535 318.262566 
L 179.818975 318.262566 
L 180.559416 317.895127 
L 181.299857 317.711407 
L 184.261621 319.364884 
L 185.372282 319.916043 
L 190.185147 320.099762 
L 191.295809 320.283482 
L 192.40647 320.834641 
L 194.627792 322.671837 
L 195.368233 323.039277 
L 196.478895 323.222996 
L 196.849115 322.855557 
L 197.219335 322.488118 
L 197.589556 322.304398 
L 198.700217 322.488118 
L 200.181099 323.039277 
L 200.92154 323.039277 
L 201.661981 322.855557 
L 202.772642 321.753239 
L 203.513083 321.56952 
L 203.513083 321.3858 
L 204.623744 319.732323 
L 205.364185 319.364884 
L 206.104626 319.364884 
L 207.215287 319.364884 
L 207.955728 319.364884 
L 212.768593 317.895127 
L 213.879255 317.711407 
L 217.581459 318.630005 
L 217.581459 320.650921 
L 215.730357 321.936959 
L 212.768593 321.56952 
L 212.768593 322.304398 
L 210.547271 321.56952 
L 208.696169 321.20208 
L 206.474846 321.3858 
L 204.253524 322.304398 
L 204.993964 322.671837 
L 206.845066 323.590436 
L 208.325948 323.957875 
L 208.696169 324.692754 
L 208.696169 325.427632 
L 209.066389 326.34623 
L 210.917491 327.264829 
L 214.249475 326.71367 
L 215.730357 327.448548 
L 219.432561 325.243913 
L 223.875206 324.692754 
L 240.164905 325.978791 
L 242.016007 326.52995 
L 246.088432 328.550866 
L 248.309754 329.102025 
L 256.824824 328.734586 
L 260.897249 329.102025 
L 264.229232 330.571782 
L 266.080335 331.6741 
L 267.931437 332.225259 
L 269.412318 332.408979 
L 272.003861 331.85782 
L 279.40827 330.571782 
L 288.29356 332.776418 
L 287.92334 334.429895 
L 289.774442 334.062456 
L 292.365985 333.143858 
L 294.217087 333.143858 
L 295.697969 333.695017 
L 303.102377 334.981054 
L 307.174802 334.062456 
L 309.766345 331.6741 
L 311.987667 328.367147 
L 313.468549 324.509034 
L 316.060092 321.3858 
L 319.392076 320.650921 
L 336.422215 322.304398 
L 337.162656 321.936959 
L 337.532877 321.56952 
L 337.532877 321.018361 
L 337.903097 320.834641 
L 338.643538 320.834641 
L 339.013758 321.20208 
L 339.013758 321.3858 
L 339.383979 321.56952 
L 341.605301 323.957875 
L 342.715963 324.509034 
L 344.196844 324.141595 
L 345.307506 322.304398 
L 345.307506 319.732323 
L 345.307506 313.118416 
L 345.307506 311.832378 
L 346.047946 310.362621 
L 346.788387 309.444023 
L 347.158608 308.709144 
L 346.788387 307.423106 
L 345.677726 306.688228 
L 341.235081 304.483592 
L 339.754199 304.116153 
L 337.532877 304.116153 
L 336.051995 303.748713 
L 334.200893 301.911517 
L 332.349791 299.706881 
L 330.128468 298.053404 
L 327.907146 298.420843 
L 324.204941 296.216208 
L 323.4645 295.297609 
L 322.353839 293.276693 
L 317.170753 285.009309 
L 315.689872 283.539552 
L 313.838769 281.702355 
L 311.617447 280.416318 
L 309.766345 279.865159 
L 307.915243 278.94656 
L 297.17885 267.188503 
L 296.438409 264.432708 
L 300.881055 262.595511 
L 304.953479 262.411792 
L 307.174802 261.676913 
L 307.915243 260.023436 
L 307.545022 258.00252 
L 306.06414 256.900202 
L 304.213038 256.165324 
L 302.361936 255.246725 
L 301.251275 253.776968 
L 298.659732 249.367697 
L 298.289512 247.71422 
L 298.659732 247.163061 
L 299.029952 246.979341 
L 298.659732 246.795621 
L 299.029952 246.244462 
L 299.770393 245.325864 
L 300.881055 242.753789 
L 301.621495 241.835191 
L 302.732157 241.284032 
L 304.583259 240.916593 
L 306.06414 240.732873 
L 307.174802 240.916593 
L 305.69392 238.160798 
L 304.953479 237.425919 
L 302.732157 237.2422 
L 301.621495 236.323601 
L 301.251275 234.302685 
L 301.251275 231.91433 
L 301.621495 230.628292 
L 302.361936 231.363171 
L 303.102377 231.91433 
L 304.213038 232.098049 
L 305.3237 232.098049 
L 306.434361 231.179451 
L 306.434361 230.444572 
L 306.06414 229.525974 
L 305.69392 226.953899 
L 305.69392 226.58646 
L 307.174802 226.953899 
L 307.915243 227.137619 
L 308.655683 227.872497 
L 309.396124 228.423656 
L 310.877006 228.423656 
L 309.025904 224.381824 
L 307.915243 223.830665 
L 302.361936 223.463226 
L 301.251275 222.544627 
L 300.140614 221.07487 
L 299.029952 219.421393 
L 296.80863 217.951636 
L 290.514883 215.012122 
L 284.961576 211.705168 
L 283.110474 211.154009 
L 281.259372 210.41913 
L 277.557168 207.295896 
L 276.816727 207.112177 
L 276.076286 207.479616 
L 269.412318 205.27498 
L 268.671878 205.09126 
L 266.450555 204.540102 
L 265.339894 204.540102 
L 264.969673 204.723821 
L 264.229232 205.27498 
L 263.488792 205.826139 
L 262.748351 206.009859 
L 260.897249 205.642419 
L 258.675926 204.723821 
L 256.454603 203.437784 
L 255.343942 202.335466 
L 253.12262 204.356382 
L 248.679975 204.907541 
L 238.684023 204.356382 
L 236.832921 203.805223 
L 235.72226 203.805223 
L 234.981819 203.254064 
L 233.130717 201.233148 
L 232.390276 200.681989 
L 230.909394 199.763391 
L 230.168953 197.558755 
L 230.168953 195.354119 
L 229.798733 194.068081 
L 233.500937 188.189053 
L 233.871158 186.903015 
L 234.981819 186.903015 
L 240.535125 184.33094 
L 240.535125 183.596061 
L 234.611598 183.596061 
L 236.462701 182.310024 
L 238.313803 182.126304 
L 240.535125 182.310024 
L 242.386227 182.126304 
L 254.973722 176.430995 
L 258.675926 173.6752 
L 260.897249 170.919405 
L 262.00791 172.389163 
L 263.118571 172.756602 
L 266.080335 172.389163 
L 267.561216 172.756602 
L 270.152759 173.6752 
L 271.633641 173.85892 
L 272.744302 173.85892 
L 273.484743 173.6752 
L 275.706066 173.124041 
L 277.186947 172.940321 
L 278.667829 173.124041 
L 280.148711 173.6752 
L 281.259372 174.777518 
L 281.999813 172.940321 
L 283.850915 172.021723 
L 286.442458 171.654284 
L 288.29356 172.389163 
L 290.885103 171.286845 
L 294.217087 170.551966 
L 297.919291 170.000807 
L 300.881055 170.184527 
L 311.247226 172.756602 
L 313.838769 174.226359 
L 316.060092 175.328677 
L 322.353839 177.165873 
L 322.72406 177.717032 
L 324.575162 180.289108 
L 327.536925 182.126304 
L 330.498689 183.228622 
L 331.97957 182.126304 
L 333.830672 183.228622 
L 336.792436 184.33094 
L 339.754199 185.065818 
L 341.235081 184.698379 
L 341.605301 186.535576 
L 346.788387 191.128567 
L 346.788387 191.863446 
L 346.418167 191.496006 
L 344.567065 191.128567 
L 346.047946 194.251801 
L 346.418167 194.80296 
L 348.269269 195.170399 
L 348.639489 194.98668 
L 348.269269 194.068081 
L 349.750151 192.598324 
L 349.37993 192.414605 
L 348.639489 192.598324 
L 348.269269 192.598324 
L 348.269269 192.414605 
L 348.639489 191.863446 
L 348.639489 191.496006 
L 349.00971 191.863446 
L 349.00971 191.128567 
L 348.639489 190.761128 
L 348.269269 189.65881 
L 349.00971 189.65881 
L 350.490591 190.393688 
L 352.341694 190.577408 
L 354.192796 190.026249 
L 355.303457 188.372772 
L 356.043898 187.454174 
L 358.26522 187.270454 
L 359.746102 188.556492 
L 358.635441 191.128567 
L 360.486543 192.230885 
L 362.337645 192.230885 
L 366.41007 191.679726 
L 366.78029 191.679726 
L 367.150511 191.863446 
L 367.890951 192.230885 
L 369.371833 193.700642 
L 370.482494 194.068081 
L 373.814478 194.068081 
L 374.92514 194.251801 
L 375.29536 194.80296 
L 375.66558 195.354119 
L 376.406021 195.721558 
L 377.886903 196.823876 
L 378.997564 197.007596 
L 379.738005 196.640157 
L 380.108225 195.905278 
L 380.848666 194.98668 
L 381.959328 194.80296 
L 383.81043 193.333203 
L 386.772193 193.333203 
L 391.955279 194.80296 
L 394.546822 195.170399 
L 395.287263 195.721558 
L 394.917043 197.007596 
L 393.806381 197.558755 
L 392.69572 197.742474 
L 389.733957 197.742474 
L 390.844618 199.763391 
L 392.69572 199.94711 
L 394.546822 199.395951 
L 396.027704 199.212232 
L 397.878806 200.681989 
L 398.989467 201.416867 
L 399.729908 201.049428 
L 400.100128 199.579671 
L 400.100128 198.844792 
L 397.508585 198.293633 
L 396.768145 197.558755 
L 396.397924 196.640157 
L 396.768145 195.537839 
L 397.508585 194.80296 
L 398.619247 194.98668 
L 401.21079 195.537839 
L 405.653435 195.721558 
L 406.764096 198.661073 
L 407.134317 200.498269 
L 406.764096 202.335466 
L 406.764096 205.09126 
L 407.134317 207.663336 
L 410.09608 214.460963 
L 411.206741 222.912067 
L 411.206741 227.872497 
L 410.09608 230.260853 
L 409.355639 230.995731 
L 408.244978 234.302685 
L 407.134317 235.037564 
L 404.542774 236.691041 
L 403.802333 237.2422 
L 404.172553 239.446835 
L 406.023655 242.01891 
L 406.393876 242.570069 
L 409.72586 246.060743 
L 416.389827 249.183977 
L 417.870709 249.918855 
L 417.500488 256.349043 
L 416.760048 258.18624 
L 415.649386 260.207156 
L 411.947182 262.595511 
L 410.4663 264.065269 
L 407.504537 268.290821 
L 403.061892 273.251251 
L 401.58101 274.169849 
L 396.397924 275.639607 
L 394.546822 276.741925 
L 394.917043 278.762841 
L 396.768145 278.395401 
L 399.359688 277.476803 
L 401.58101 277.660523 
L 402.691671 278.395401 
L 404.172553 281.518636 
L 404.912994 282.620953 
L 407.504537 284.64187 
L 408.244978 285.744188 
L 408.615198 287.765104 
L 408.985419 292.174375 
L 409.72586 296.399927 
L 409.355639 298.420843 
L 408.985419 300.44176 
L 408.244978 302.278956 
L 407.134317 304.299872 
L 405.653435 305.58591 
L 402.691671 307.239387 
L 402.321451 307.606826 
L 401.951231 307.790546 
L 400.470349 309.444023 
L 398.249026 313.118416 
L 397.138365 314.404453 
L 393.06594 315.87421 
L 385.291311 314.404453 
L 381.589107 315.323051 
L 379.738005 316.609089 
L 380.478446 318.446285 
L 390.104177 327.999707 
L 390.474397 328.918306 
L 390.844618 330.571782 
L 390.474397 331.306661 
L 389.363736 331.6741 
L 388.993516 332.776418 
L 389.733957 334.797334 
L 391.214838 335.715933 
L 395.287263 336.818251 
L 396.027704 337.553129 
L 397.878806 339.757765 
L 398.619247 340.860083 
L 402.321451 343.432158 
L 407.874757 345.453074 
L 409.355639 346.555392 
L 410.4663 347.290271 
L 410.4663 347.65771 
L 409.355639 349.678626 
L 409.355639 349.862346 
L 404.912994 357.762291 
L 403.802333 359.783207 
L 403.802333 361.987843 
L 403.802333 362.906441 
L 404.912994 366.029675 
L 405.283214 367.315713 
L 405.283214 369.152909 
L 405.283214 372.276143 
L 404.912994 374.11334 
L 403.802333 377.420294 
L 401.951231 376.317976 
L 394.917043 366.948273 
L 391.585059 364.008759 
L 388.253075 361.804123 
L 380.108225 358.864609 
L 376.776242 357.211132 
L 373.444258 355.925094 
L 369.371833 355.925094 
L 361.226984 357.211132 
L 350.490591 357.211132 
L 335.311554 357.394852 
L 327.536925 358.864609 
L 325.315603 357.762291 
L 324.204941 357.211132 
L 323.4645 357.762291 
L 324.204941 361.804123 
L 323.09428 362.906441 
L 321.983619 362.906441 
L 319.392076 361.804123 
L 317.540974 361.620404 
L 305.69392 362.722721 
L 303.102377 362.539002 
L 303.472597 363.090161 
L 303.472597 364.376198 
L 303.842818 364.743638 
L 302.361936 364.743638 
L 301.621495 364.559918 
L 300.881055 364.008759 
L 297.919291 365.845956 
L 292.365985 365.294797 
L 289.774442 366.397115 
L 286.812678 364.743638 
L 283.480695 363.27388 
L 279.40827 362.355282 
L 268.671878 361.069245 
L 265.710114 361.252964 
L 264.969673 361.069245 
L 262.00791 359.232048 
L 261.267469 358.864609 
L 247.569313 356.659973 
L 241.275566 357.211132 
L 240.535125 357.027412 
L 240.905346 355.557655 
L 242.386227 355.006496 
L 246.088432 355.006496 
L 246.088432 354.455337 
L 239.054243 353.720459 
L 230.909394 353.720459 
L 228.317851 354.455337 
L 224.985867 356.292534 
L 223.875206 356.659973 
L 223.134765 356.108814 
L 222.024104 354.271618 
L 221.283663 353.536739 
L 219.802781 354.455337 
L 219.062341 356.476253 
L 218.3219 358.12973 
L 217.211238 357.394852 
L 216.470798 357.394852 
L 215.360136 358.12973 
L 214.249475 357.578571 
L 213.879255 356.108814 
L 214.249475 354.455337 
L 212.768593 354.822776 
L 211.657932 357.762291 
L 210.17705 358.864609 
L 210.17705 357.394852 
L 210.547271 356.108814 
L 211.287712 353.536739 
L 210.547271 354.271618 
L 209.436609 355.741375 
L 208.696169 356.659973 
L 208.696169 356.292534 
L 207.955728 356.108814 
L 206.845066 355.925094 
L 206.474846 356.108814 
L 206.474846 356.476253 
L 206.474846 357.027412 
L 206.474846 357.394852 
L 202.032201 361.069245 
L 194.627792 364.376198 
L 192.77669 366.213395 
L 190.925588 369.336629 
L 195.368233 373.92962 
L 196.108674 375.583097 
L 196.478895 377.787733 
L 196.108674 378.522612 
L 194.998013 378.890051 
L 187.963825 378.890051 
L 187.223384 378.706331 
L 186.112723 378.155172 
L 185.372282 377.420294 
L 185.002061 375.950536 
L 178.338094 366.397115 
L 177.967873 366.029675 
L 177.227432 365.662236 
L 176.857212 365.478516 
L 176.486992 365.111077 
L 176.486992 364.743638 
L 176.486992 364.376198 
L 176.116771 364.008759 
L 174.265669 362.171563 
L 164.269718 354.822776 
L 162.418615 353.904178 
L 159.456852 353.353019 
L 157.97597 352.80186 
L 156.865309 352.066982 
L 156.495089 350.964664 
L 156.124868 349.862346 
L 155.754648 349.494907 
L 154.643987 349.494907 
L 153.533325 349.127467 
L 150.941782 348.025149 
L 150.201341 347.65771 
L 149.460901 348.392589 
L 147.609798 347.65771 
L 145.388476 348.576308 
L 143.167153 349.862346 
L 140.945831 350.597224 
L 139.094729 350.229785 
L 136.873406 349.311187 
L 134.652084 348.208869 
L 133.911643 347.290271 
L 133.171202 346.004233 
L 129.098777 343.983317 
L 128.358336 341.962401 
L 127.988116 339.941485 
L 127.247675 338.471727 
z
" clip-path="url(#p993faf5ad1)" style="fill: #e74c3c; stroke: #ffffff; stroke-width: 0.6"/>
    <path d="M 247.199093 280.967477 
L 247.569313 279.865159 
L 248.679975 278.395401 
L 250.531077 277.109364 
L 252.752399 276.374485 
L 254.973722 276.007046 
L 257.195044 276.374485 
L 271.633641 282.437234 
L 278.667829 284.64187 
L 286.442458 288.683702 
L 293.846866 291.806936 
L 296.80863 295.481329 
L 297.549071 297.869685 
L 297.919291 300.625479 
L 297.549071 303.381274 
L 296.438409 305.58591 
L 295.327748 305.953349 
L 294.587307 305.218471 
L 293.476646 303.381274 
L 292.736205 302.646395 
L 291.995764 302.278956 
L 289.774442 302.278956 
L 280.518931 300.07432 
L 277.186947 299.890601 
L 274.225184 299.155722 
L 264.969673 293.276693 
L 255.714163 290.704618 
L 253.49284 289.051141 
L 251.271518 286.111627 
L 249.420415 284.825589 
L 248.679975 284.27443 
L 247.939534 283.355832 
L 247.569313 282.253514 
z
" clip-path="url(#p993faf5ad1)" style="fill: #e74c3c; stroke: #ffffff; stroke-width: 0.6"/>
    <path d="M 281.999813 157.507871 
L 282.370033 157.507871 
L 282.740254 157.324151 
L 283.480695 156.772992 
L 287.92334 155.119515 
L 293.106426 154.568356 
L 296.068189 154.384637 
L 298.289512 154.568356 
L 300.140614 155.486955 
L 302.361936 156.772992 
L 311.987667 160.631105 
L 316.060092 163.20318 
L 314.949431 165.775255 
L 313.468549 165.040376 
L 304.583259 163.938059 
L 300.510834 162.284582 
L 295.697969 161.182264 
L 293.846866 160.447385 
L 292.736205 160.631105 
L 291.625544 160.998544 
L 290.514883 161.182264 
L 288.29356 160.814824 
L 285.702017 159.896226 
L 283.480695 158.793908 
z
" clip-path="url(#p993faf5ad1)" style="fill: #e74c3c; stroke: #ffffff; stroke-width: 0.6"/>
    <path d="M 204.993964 371.541265 
L 205.364185 370.438947 
L 205.734405 369.887788 
L 206.474846 370.071508 
L 207.215287 370.806386 
L 208.325948 369.887788 
L 209.066389 370.255227 
L 209.436609 370.990106 
L 210.17705 371.541265 
L 213.138814 371.541265 
L 214.989916 371.541265 
L 216.841018 372.092424 
L 218.3219 372.827302 
L 218.3219 374.480779 
L 217.211238 375.215658 
L 214.989916 375.399377 
L 210.917491 375.215658 
L 209.436609 374.848218 
L 207.585507 373.92962 
z
" clip-path="url(#p993faf5ad1)" style="fill: #e74c3c; stroke: #ffffff; stroke-width: 0.6"/>
    <path d="M 196.108674 316.24165 
L 196.108674 313.302135 
L 198.329997 312.199817 
L 201.661981 312.383537 
L 204.253524 313.853294 
L 204.253524 316.24165 
L 202.032201 317.711407 
L 198.700217 317.711407 
z
" clip-path="url(#p993faf5ad1)" style="fill: #e74c3c; stroke: #ffffff; stroke-width: 0.6"/>
   </g>
   <g id="text_1">
    <!-- Haiti -->
    <g style="fill: #1a252f" transform="translate(248.523264 20.117344) scale(0.17 -0.17)">
     <defs>
      <path id="DejaVuSans-Bold-2b" d="M 588 4666 
L 1791 4666 
L 1791 2888 
L 3566 2888 
L 3566 4666 
L 4769 4666 
L 4769 0 
L 3566 0 
L 3566 1978 
L 1791 1978 
L 1791 0 
L 588 0 
L 588 4666 
z
" transform="scale(0.015625)"/>
      <path id="DejaVuSans-Bold-44" d="M 2106 1575 
Q 1756 1575 1579 1456 
Q 1403 1338 1403 1106 
Q 1403 894 1545 773 
Q 1688 653 1941 653 
Q 2256 653 2472 879 
Q 2688 1106 2688 1447 
L 2688 1575 
L 2106 1575 
z
M 3816 1997 
L 3816 0 
L 2688 0 
L 2688 519 
Q 2463 200 2181 54 
Q 1900 -91 1497 -91 
Q 953 -91 614 226 
Q 275 544 275 1050 
Q 275 1666 698 1953 
Q 1122 2241 2028 2241 
L 2688 2241 
L 2688 2328 
Q 2688 2594 2478 2717 
Q 2269 2841 1825 2841 
Q 1466 2841 1156 2769 
Q 847 2697 581 2553 
L 581 3406 
Q 941 3494 1303 3539 
Q 1666 3584 2028 3584 
Q 2975 3584 3395 3211 
Q 3816 2838 3816 1997 
z
" transform="scale(0.015625)"/>
      <path id="DejaVuSans-Bold-4c" d="M 538 3500 
L 1656 3500 
L 1656 0 
L 538 0 
L 538 3500 
z
M 538 4863 
L 1656 4863 
L 1656 3950 
L 538 3950 
L 538 4863 
z
" transform="scale(0.015625)"/>
      <path id="DejaVuSans-Bold-57" d="M 1759 4494 
L 1759 3500 
L 2913 3500 
L 2913 2700 
L 1759 2700 
L 1759 1216 
Q 1759 972 1856 886 
Q 1953 800 2241 800 
L 2816 800 
L 2816 0 
L 1856 0 
Q 1194 0 917 276 
Q 641 553 641 1216 
L 641 2700 
L 84 2700 
L 84 3500 
L 641 3500 
L 641 4494 
L 1759 4494 
z
" transform="scale(0.015625)"/>
     </defs>
     <use xlink:href="#DejaVuSans-Bold-2b"/>
     <use xlink:href="#DejaVuSans-Bold-44" transform="translate(83.6875 0)"/>
     <use xlink:href="#DejaVuSans-Bold-4c" transform="translate(151.171875 0)"/>
     <use xlink:href="#DejaVuSans-Bold-57" transform="translate(185.453125 0)"/>
     <use xlink:href="#DejaVuSans-Bold-4c" transform="translate(233.25 0)"/>
    </g>
   </g>
   <g id="legend_1">
    <g id="patch_2">
     <path d="M 13.5 498.657344 
L 88.097344 498.657344 
Q 89.897344 498.657344 89.897344 496.857344 
L 89.897344 470.755937 
Q 89.897344 468.955937 88.097344 468.955937 
L 13.5 468.955937 
Q 11.7 468.955937 11.7 470.755937 
L 11.7 496.857344 
Q 11.7 498.657344 13.5 498.657344 
z
" style="fill: #ffffff; opacity: 0.85; stroke: #cccccc; stroke-linejoin: miter"/>
    </g>
    <g id="patch_3">
     <path d="M 15.3 479.394531 
L 33.3 479.394531 
L 33.3 473.094531 
L 15.3 473.094531 
z
" style="fill: #e74c3c; stroke: #888888; stroke-linejoin: miter"/>
    </g>
    <g id="text_2">
     <!-- Haiti -->
     <g transform="translate(40.5 479.394531) scale(0.09 -0.09)">
      <defs>
       <path id="DejaVuSans-2b" d="M 628 4666 
L 1259 4666 
L 1259 2753 
L 3553 2753 
L 3553 4666 
L 4184 4666 
L 4184 0 
L 3553 0 
L 3553 2222 
L 1259 2222 
L 1259 0 
L 628 0 
L 628 4666 
z
" transform="scale(0.015625)"/>
       <path id="DejaVuSans-44" d="M 2194 1759 
Q 1497 1759 1228 1600 
Q 959 1441 959 1056 
Q 959 750 1161 570 
Q 1363 391 1709 391 
Q 2188 391 2477 730 
Q 2766 1069 2766 1631 
L 2766 1759 
L 2194 1759 
z
M 3341 1997 
L 3341 0 
L 2766 0 
L 2766 531 
Q 2569 213 2275 61 
Q 1981 -91 1556 -91 
Q 1019 -91 701 211 
Q 384 513 384 1019 
Q 384 1609 779 1909 
Q 1175 2209 1959 2209 
L 2766 2209 
L 2766 2266 
Q 2766 2663 2505 2880 
Q 2244 3097 1772 3097 
Q 1472 3097 1187 3025 
Q 903 2953 641 2809 
L 641 3341 
Q 956 3463 1253 3523 
Q 1550 3584 1831 3584 
Q 2591 3584 2966 3190 
Q 3341 2797 3341 1997 
z
" transform="scale(0.015625)"/>
       <path id="DejaVuSans-4c" d="M 603 3500 
L 1178 3500 
L 1178 0 
L 603 0 
L 603 3500 
z
M 603 4863 
L 1178 4863 
L 1178 4134 
L 603 4134 
L 603 4863 
z
" transform="scale(0.015625)"/>
       <path id="DejaVuSans-57" d="M 1172 4494 
L 1172 3500 
L 2356 3500 
L 2356 3053 
L 1172 3053 
L 1172 1153 
Q 1172 725 1289 603 
Q 1406 481 1766 481 
L 2356 481 
L 2356 0 
L 1766 0 
Q 1100 0 847 248 
Q 594 497 594 1153 
L 594 3053 
L 172 3053 
L 172 3500 
L 594 3500 
L 594 4494 
L 1172 4494 
z
" transform="scale(0.015625)"/>
      </defs>
      <use xlink:href="#DejaVuSans-2b"/>
      <use xlink:href="#DejaVuSans-44" transform="translate(75.203125 0)"/>
      <use xlink:href="#DejaVuSans-4c" transform="translate(136.484375 0)"/>
      <use xlink:href="#DejaVuSans-57" transform="translate(164.265625 0)"/>
      <use xlink:href="#DejaVuSans-4c" transform="translate(203.46875 0)"/>
     </g>
    </g>
    <g id="patch_4">
     <path d="M 15.3 492.895234 
L 33.3 492.895234 
L 33.3 486.595234 
L 15.3 486.595234 
z
" style="fill: #bdc3c7; stroke: #888888; stroke-linejoin: miter"/>
    </g>
    <g id="text_3">
     <!-- Neighbors -->
     <g transform="translate(40.5 492.895234) scale(0.09 -0.09)">
      <defs>
       <path id="DejaVuSans-31" d="M 628 4666 
L 1478 4666 
L 3547 763 
L 3547 4666 
L 4159 4666 
L 4159 0 
L 3309 0 
L 1241 3903 
L 1241 0 
L 628 0 
L 628 4666 
z
" transform="scale(0.015625)"/>
       <path id="DejaVuSans-48" d="M 3597 1894 
L 3597 1613 
L 953 1613 
Q 991 1019 1311 708 
Q 1631 397 2203 397 
Q 2534 397 2845 478 
Q 3156 559 3463 722 
L 3463 178 
Q 3153 47 2828 -22 
Q 2503 -91 2169 -91 
Q 1331 -91 842 396 
Q 353 884 353 1716 
Q 353 2575 817 3079 
Q 1281 3584 2069 3584 
Q 2775 3584 3186 3129 
Q 3597 2675 3597 1894 
z
M 3022 2063 
Q 3016 2534 2758 2815 
Q 2500 3097 2075 3097 
Q 1594 3097 1305 2825 
Q 1016 2553 972 2059 
L 3022 2063 
z
" transform="scale(0.015625)"/>
       <path id="DejaVuSans-4a" d="M 2906 1791 
Q 2906 2416 2648 2759 
Q 2391 3103 1925 3103 
Q 1463 3103 1205 2759 
Q 947 2416 947 1791 
Q 947 1169 1205 825 
Q 1463 481 1925 481 
Q 2391 481 2648 825 
Q 2906 1169 2906 1791 
z
M 3481 434 
Q 3481 -459 3084 -895 
Q 2688 -1331 1869 -1331 
Q 1566 -1331 1297 -1286 
Q 1028 -1241 775 -1147 
L 775 -588 
Q 1028 -725 1275 -790 
Q 1522 -856 1778 -856 
Q 2344 -856 2625 -561 
Q 2906 -266 2906 331 
L 2906 616 
Q 2728 306 2450 153 
Q 2172 0 1784 0 
Q 1141 0 747 490 
Q 353 981 353 1791 
Q 353 2603 747 3093 
Q 1141 3584 1784 3584 
Q 2172 3584 2450 3431 
Q 2728 3278 2906 2969 
L 2906 3500 
L 3481 3500 
L 3481 434 
z
" transform="scale(0.015625)"/>
       <path id="DejaVuSans-4b" d="M 3513 2113 
L 3513 0 
L 2938 0 
L 2938 2094 
Q 2938 2591 2744 2837 
Q 2550 3084 2163 3084 
Q 1697 3084 1428 2787 
Q 1159 2491 1159 1978 
L 1159 0 
L 581 0 
L 581 4863 
L 1159 4863 
L 1159 2956 
Q 1366 3272 1645 3428 
Q 1925 3584 2291 3584 
Q 2894 3584 3203 3211 
Q 3513 2838 3513 2113 
z
" transform="scale(0.015625)"/>
       <path id="DejaVuSans-45" d="M 3116 1747 
Q 3116 2381 2855 2742 
Q 2594 3103 2138 3103 
Q 1681 3103 1420 2742 
Q 1159 2381 1159 1747 
Q 1159 1113 1420 752 
Q 1681 391 2138 391 
Q 2594 391 2855 752 
Q 3116 1113 3116 1747 
z
M 1159 2969 
Q 1341 3281 1617 3432 
Q 1894 3584 2278 3584 
Q 2916 3584 3314 3078 
Q 3713 2572 3713 1747 
Q 3713 922 3314 415 
Q 2916 -91 2278 -91 
Q 1894 -91 1617 61 
Q 1341 213 1159 525 
L 1159 0 
L 581 0 
L 581 4863 
L 1159 4863 
L 1159 2969 
z
" transform="scale(0.015625)"/>
       <path id="DejaVuSans-52" d="M 1959 3097 
Q 1497 3097 1228 2736 
Q 959 2375 959 1747 
Q 959 1119 1226 758 
Q 1494 397 1959 397 
Q 2419 397 2687 759 
Q 2956 1122 2956 1747 
Q 2956 2369 2687 2733 
Q 2419 3097 1959 3097 
z
M 1959 3584 
Q 2709 3584 3137 3096 
Q 3566 2609 3566 1747 
Q 3566 888 3137 398 
Q 2709 -91 1959 -91 
Q 1206 -91 779 398 
Q 353 888 353 1747 
Q 353 2609 779 3096 
Q 1206 3584 1959 3584 
z
" transform="scale(0.015625)"/>
       <path id="DejaVuSans-55" d="M 2631 2963 
Q 2534 3019 2420 3045 
Q 2306 3072 2169 3072 
Q 1681 3072 1420 2755 
Q 1159 2438 1159 1844 
L 1159 0 
L 581 0 
L 581 3500 
L 1159 3500 
L 1159 2956 
Q 1341 3275 1631 3429 
Q 1922 3584 2338 3584 
Q 2397 3584 2469 3576 
Q 2541 3569 2628 3553 
L 2631 2963 
z
" transform="scale(0.015625)"/>
       <path id="DejaVuSans-56" d="M 2834 3397 
L 2834 2853 
Q 2591 2978 2328 3040 
Q 2066 3103 1784 3103 
Q 1356 3103 1142 2972 
Q 928 2841 928 2578 
Q 928 2378 1081 2264 
Q 1234 2150 1697 2047 
L 1894 2003 
Q 2506 1872 2764 1633 
Q 3022 1394 3022 966 
Q 3022 478 2636 193 
Q 2250 -91 1575 -91 
Q 1294 -91 989 -36 
Q 684 19 347 128 
L 347 722 
Q 666 556 975 473 
Q 1284 391 1588 391 
Q 1994 391 2212 530 
Q 2431 669 2431 922 
Q 2431 1156 2273 1281 
Q 2116 1406 1581 1522 
L 1381 1569 
Q 847 1681 609 1914 
Q 372 2147 372 2553 
Q 372 3047 722 3315 
Q 1072 3584 1716 3584 
Q 2034 3584 2315 3537 
Q 2597 3491 2834 3397 
z
" transform="scale(0.015625)"/>
      </defs>
      <use xlink:href="#DejaVuSans-31"/>
      <use xlink:href="#DejaVuSans-48" transform="translate(74.8125 0)"/>
      <use xlink:href="#DejaVuSans-4c" transform="translate(136.34375 0)"/>
      <use xlink:href="#DejaVuSans-4a" transform="translate(164.125 0)"/>
      <use xlink:href="#DejaVuSans-4b" transform="translate(227.609375 0)"/>
      <use xlink:href="#DejaVuSans-45" transform="translate(290.984375 0)"/>
      <use xlink:href="#DejaVuSans-52" transform="translate(354.46875 0)"/>
      <use xlink:href="#DejaVuSans-55" transform="translate(415.65625 0)"/>
      <use xlink:href="#DejaVuSans-56" transform="translate(456.765625 0)"/>
     </g>
    </g>
   </g>
  </g>
 </g>
 <defs>
  <clipPath id="p993faf5ad1">
   <rect x="7.2" y="30.117344" width="528.126841" height="473.04"/>
  </clipPath>
 </defs>
</svg>
