<?xml version="1.0" encoding="utf-8" standalone="no"?>
<!DOCTYPE svg PUBLIC "-//W3C//DTD SVG 1.1//EN"
  "http://www.w3.org/Graphics/SVG/1.1/DTD/svg11.dtd">
<svg xmlns:xlink="http://www.w3.org/1999/xlink" width="579.690854pt" height="510.357344pt" viewBox="0 0 579.690854 510.357344" xmlns="http://www.w3.org/2000/svg" version="1.1">
 <metadata>
  <rdf:RDF xmlns:dc="http://purl.org/dc/elements/1.1/" xmlns:cc="http://creativecommons.org/ns#" xmlns:rdf="http://www.w3.org/1999/02/22-rdf-syntax-ns#">
   <cc:Work>
    <dc:type rdf:resource="http://purl.org/dc/dcmitype/StillImage"/>
    <dc:date>2026-06-19T08:36:24.592936</dc:date>
    <dc:format>image/svg+xml</dc:format>
    <dc:creator>
     <cc:Agent>
      <dc:title>Matplotlib v3.11.0, https://matplotlib.org/</dc:title>
     </cc:Agent>
    </dc:creator>
   </cc:Work>
  </rdf:RDF>
 </metadata>
 <defs>
  <style type="text/css">*{stroke-linejoin: round; stroke-linecap: butt}</style>
 </defs>
 <g id="figure_1">
  <g id="patch_1">
   <path d="M 0 510.357344 
L 579.690854 510.357344 
L 579.690854 0 
L 0 0 
z
" style="fill: #d6eaf8"/>
  </g>
  <g id="axes_1">
   <g id="PatchCollection_1">
    <path d="M 202.831303 409.78621 
L 202.831303 407.984262 
L 203.921706 405.758327 
L 205.66635 404.274369 
L 207.410994 403.108403 
L 208.719477 401.730443 
L 208.937558 399.292513 
L 209.373719 399.292513 
L 209.155638 400.670473 
L 208.937558 401.094461 
L 209.591799 401.094461 
L 210.464121 401.200458 
L 211.118363 401.412452 
L 211.336443 401.624446 
L 211.772604 401.83644 
L 213.299168 403.2144 
L 213.517248 403.426394 
L 214.607651 404.910351 
L 215.043812 405.122345 
L 215.698053 405.546333 
L 215.916134 405.758327 
L 215.916134 406.182314 
L 215.916134 407.136287 
L 215.916134 407.560275 
L 217.878858 409.574216 
L 220.495825 410.104201 
L 226.820159 409.680213 
L 226.820159 409.256226 
L 223.548952 409.362223 
L 222.022388 409.150229 
L 221.368147 408.620244 
L 222.022388 407.560275 
L 224.857435 406.076317 
L 225.293596 405.758327 
L 239.250749 404.910351 
L 240.123071 405.016348 
L 241.431554 405.864324 
L 242.085795 405.97032 
L 242.521956 404.910351 
L 243.830439 404.274369 
L 245.357003 403.320397 
L 246.011244 402.472421 
L 247.319727 400.246486 
L 247.755888 400.034492 
L 248.628211 399.504507 
L 248.846291 399.186516 
L 249.064372 398.656532 
L 248.846291 398.338541 
L 248.628211 398.232544 
L 248.41013 397.808556 
L 248.846291 394.522651 
L 248.846291 394.416654 
L 248.41013 393.356685 
L 248.192049 393.038694 
L 248.41013 392.8267 
L 248.846291 391.024752 
L 249.282452 390.176777 
L 249.718613 389.646792 
L 252.55366 387.102865 
L 253.425982 386.466884 
L 254.298304 386.25489 
L 255.388706 386.360887 
L 258.877995 388.056838 
L 259.532236 388.268832 
L 259.968397 388.056838 
L 260.404558 387.844844 
L 260.840719 387.526853 
L 261.713041 386.678878 
L 262.149202 385.936899 
L 262.367283 384.87693 
L 261.931122 383.180979 
L 261.931122 382.756991 
L 261.494961 381.909015 
L 261.0588 381.591024 
L 260.622639 381.485027 
L 260.186478 381.273034 
L 259.968397 380.637052 
L 260.186478 379.789076 
L 260.840719 378.093125 
L 261.0588 377.033156 
L 259.096075 369.507373 
L 259.096075 368.447404 
L 259.314156 366.433462 
L 259.314156 365.47949 
L 259.096075 365.055502 
L 258.659914 364.631514 
L 258.223753 364.41952 
L 258.005672 364.101529 
L 258.005672 363.571545 
L 258.223753 360.179643 
L 258.223753 359.119673 
L 258.441833 358.271698 
L 258.441833 357.84771 
L 258.659914 357.635716 
L 259.532236 357.105731 
L 260.840719 356.46975 
L 262.149202 356.363753 
L 264.766168 356.681744 
L 269.56394 355.727771 
L 271.962825 355.515777 
L 274.14363 356.681744 
L 275.234033 356.999735 
L 276.106355 356.681744 
L 276.760596 356.257756 
L 277.632918 356.151759 
L 278.723321 357.105731 
L 278.941402 357.423722 
L 279.595643 357.529719 
L 280.031804 357.635716 
L 283.084931 357.423722 
L 284.175334 357.105731 
L 285.265736 356.681744 
L 285.919978 355.939765 
L 286.138058 354.985793 
L 286.7923 353.077848 
L 287.664622 351.593891 
L 291.590071 347.248016 
L 293.770876 343.962111 
L 294.425118 343.538123 
L 295.079359 343.220132 
L 295.733601 342.902142 
L 296.605923 342.160163 
L 297.042084 341.312187 
L 297.260164 340.676206 
L 297.478245 340.146221 
L 298.132486 339.51024 
L 299.004809 339.086252 
L 303.584499 338.45027 
L 303.584499 339.086252 
L 302.930258 340.464212 
L 303.148338 342.160163 
L 307.509948 345.234074 
L 308.818432 347.036022 
L 309.036512 347.354013 
L 309.908834 347.672004 
L 310.563076 347.566007 
L 310.999237 347.354013 
L 311.871559 347.248016 
L 313.180042 347.883998 
L 314.052364 348.943967 
L 314.488525 350.21593 
L 315.578927 351.487894 
L 316.88741 351.911881 
L 318.195894 351.911881 
L 319.504377 352.017878 
L 320.376699 352.865854 
L 320.376699 352.971851 
L 320.594779 352.865854 
L 321.03094 352.441866 
L 321.467101 351.381897 
L 321.685182 350.427924 
L 321.249021 349.685946 
L 320.376699 349.473952 
L 320.158618 348.83797 
L 320.376699 347.672004 
L 321.03094 345.764059 
L 321.03094 344.386099 
L 321.467101 344.068108 
L 321.903262 344.174105 
L 322.993665 344.280102 
L 323.865987 343.962111 
L 325.17447 342.902142 
L 325.610631 343.008139 
L 326.046792 343.008139 
L 326.046792 342.690148 
L 326.264872 342.690148 
L 326.482953 342.584151 
L 326.264872 341.948169 
L 328.227597 341.312187 
L 328.881839 340.676206 
L 329.53608 339.82823 
L 330.844563 339.298246 
L 331.280724 339.192249 
L 332.371127 339.086252 
L 333.461529 338.662264 
L 334.115771 337.814288 
L 334.115771 336.860316 
L 334.551932 336.012341 
L 336.732737 335.376359 
L 337.82314 334.740377 
L 339.349703 333.574411 
L 340.003945 332.620438 
L 340.658186 331.454472 
L 341.094347 330.288506 
L 341.530508 328.698552 
L 342.18475 327.638582 
L 342.838991 326.790607 
L 343.493233 326.154625 
L 343.711313 326.154625 
L 344.365555 326.260622 
L 344.583635 326.154625 
L 344.801716 325.942631 
L 345.019796 325.518644 
L 345.455957 324.988659 
L 345.674038 324.564671 
L 345.892118 324.24668 
L 346.54636 324.034686 
L 348.072924 323.398705 
L 348.509085 323.186711 
L 350.90797 323.186711 
L 352.434534 322.974717 
L 353.961097 322.444732 
L 355.26958 321.702754 
L 355.923822 320.642784 
L 355.705741 319.158827 
L 355.0515 317.992861 
L 353.961097 316.932891 
L 352.870695 316.29691 
L 354.615339 315.024947 
L 354.615339 314.600959 
L 354.615339 313.646986 
L 354.615339 313.328996 
L 355.923822 311.739041 
L 356.141902 311.421051 
L 356.359983 308.241142 
L 356.578063 306.439194 
L 357.014224 305.591219 
L 358.104627 305.803213 
L 359.19503 306.969179 
L 360.285432 307.711158 
L 361.593915 307.075176 
L 363.55664 304.955237 
L 363.992801 304.001265 
L 363.992801 303.895268 
L 362.466237 303.895268 
L 362.902398 303.365283 
L 364.210881 302.09332 
L 362.466237 300.821357 
L 362.248157 300.291372 
L 363.120479 299.973381 
L 363.338559 299.867384 
L 363.55664 299.443396 
L 363.992801 297.111464 
L 364.428962 296.157491 
L 365.301284 295.415513 
L 365.519364 295.309516 
L 366.391686 294.673534 
L 367.482089 293.931556 
L 370.317136 291.175635 
L 371.189458 290.645651 
L 374.896826 289.903672 
L 376.42339 289.903672 
L 377.949954 290.32766 
L 379.258437 291.387629 
L 380.348839 292.871586 
L 380.130759 292.977583 
L 379.694598 293.613565 
L 379.476517 293.719562 
L 380.785 293.931556 
L 381.003081 294.673534 
L 380.785 295.52151 
L 382.093483 296.369485 
L 382.747725 297.323458 
L 383.620047 299.549393 
L 384.710449 298.807415 
L 386.018932 299.019409 
L 388.199738 299.973381 
L 389.726301 300.291372 
L 394.087911 300.397369 
L 393.869831 300.821357 
L 393.65175 302.09332 
L 394.524072 301.775329 
L 395.178314 302.199317 
L 395.832555 302.729302 
L 396.704877 302.941295 
L 397.359119 302.835299 
L 399.103763 301.881326 
L 401.284568 301.139347 
L 402.374971 299.761387 
L 403.247293 298.171433 
L 404.119615 297.005467 
L 404.555776 297.535452 
L 404.991937 299.231403 
L 405.428098 299.549393 
L 406.5185 299.65539 
L 407.826984 299.973381 
L 408.481225 299.973381 
L 409.789708 299.3374 
L 410.225869 297.959439 
L 409.789708 294.991525 
L 410.225869 294.249546 
L 410.880111 294.249546 
L 411.752433 294.46154 
L 412.406674 294.779531 
L 412.842835 295.203519 
L 414.151318 296.793473 
L 415.02364 297.111464 
L 415.895962 297.005467 
L 417.204446 296.581479 
L 417.640607 296.369485 
L 417.858687 296.051494 
L 418.294848 295.839501 
L 418.731009 295.627507 
L 419.385251 295.733504 
L 419.603331 295.945497 
L 419.821412 295.945497 
L 420.257573 295.627507 
L 420.257573 295.203519 
L 419.603331 294.673534 
L 419.385251 294.143549 
L 418.512929 292.659592 
L 419.16717 292.023611 
L 419.603331 292.023611 
L 421.129895 292.977583 
L 421.129895 293.189577 
L 421.566056 293.401571 
L 422.002217 293.507568 
L 423.092619 293.507568 
L 423.52878 293.613565 
L 423.52878 294.143549 
L 424.619183 294.249546 
L 430.507357 293.931556 
L 430.289276 293.401571 
L 430.289276 292.871586 
L 430.507357 291.387629 
L 431.379679 291.811617 
L 432.252001 292.871586 
L 433.124323 293.08358 
L 432.906242 292.871586 
L 432.688162 292.235605 
L 433.124323 292.447598 
L 433.342403 292.447598 
L 433.560484 292.659592 
L 433.996645 293.08358 
L 434.650886 292.447598 
L 435.741289 291.811617 
L 436.831691 291.387629 
L 438.140175 291.387629 
L 437.485933 291.069638 
L 437.267853 290.751647 
L 436.831691 290.009669 
L 440.32098 289.903672 
L 441.411382 289.373687 
L 441.411382 288.419715 
L 442.065624 288.313718 
L 442.719865 288.419715 
L 443.156026 288.737706 
L 443.374107 289.26769 
L 443.810268 289.26769 
L 443.374107 287.465742 
L 443.592187 286.723764 
L 444.68259 286.193779 
L 445.772992 285.981785 
L 447.299556 286.087782 
L 448.389959 286.405773 
L 448.82612 287.147752 
L 449.262281 287.147752 
L 449.480361 286.299776 
L 449.698442 285.4518 
L 449.916522 284.815819 
L 451.443086 284.285834 
L 452.969649 283.013871 
L 453.841971 282.801877 
L 453.623891 282.589883 
L 453.623891 282.059898 
L 453.40581 281.953901 
L 454.278132 282.165895 
L 454.714293 282.377889 
L 454.496213 281.529914 
L 454.496213 280.787935 
L 454.932374 280.469944 
L 455.586615 281.105926 
L 455.586615 280.151954 
L 455.586615 279.727966 
L 456.022776 279.303978 
L 455.586615 278.667996 
L 455.804696 278.350006 
L 456.458937 278.350006 
L 457.113179 278.456002 
L 457.54934 278.773993 
L 458.203582 279.93996 
L 458.857823 280.151954 
L 460.166306 280.045957 
L 461.474789 279.303978 
L 462.347111 278.244009 
L 463.001353 277.184039 
L 463.655594 277.820021 
L 464.527916 278.032015 
L 465.182158 278.456002 
L 465.400238 279.303978 
L 466.27256 278.667996 
L 467.362963 278.667996 
L 469.979929 278.87999 
L 469.325688 279.303978 
L 469.325688 279.621969 
L 469.761849 279.93996 
L 470.41609 280.151954 
L 470.634171 280.151954 
L 473.469217 280.151954 
L 474.995781 279.515972 
L 475.868103 279.303978 
L 477.830828 279.409975 
L 478.70315 279.303978 
L 478.266989 279.93996 
L 477.176586 280.469944 
L 476.522344 280.999929 
L 475.650022 279.93996 
L 474.995781 280.681938 
L 474.341539 282.059898 
L 473.905378 282.801877 
L 473.251137 283.119868 
L 472.378815 284.07384 
L 471.942654 285.13381 
L 471.724573 285.981785 
L 471.506493 286.299776 
L 470.634171 287.041755 
L 470.41609 287.465742 
L 470.19801 288.101724 
L 470.19801 289.479684 
L 469.979929 290.009669 
L 469.543768 290.857644 
L 468.889527 291.387629 
L 466.708721 292.235605 
L 466.926802 291.811617 
L 466.926802 291.599623 
L 467.581044 290.963641 
L 467.581044 291.387629 
L 467.799124 291.069638 
L 467.799124 290.751647 
L 467.799124 290.433657 
L 467.799124 290.009669 
L 467.362963 290.32766 
L 467.144883 290.433657 
L 466.708721 290.009669 
L 466.708721 289.691678 
L 467.362963 289.26769 
L 468.017205 289.26769 
L 468.671446 289.479684 
L 469.107607 290.009669 
L 469.107607 288.843703 
L 468.453366 287.253748 
L 468.235285 285.981785 
L 468.017205 284.709822 
L 467.144883 284.497828 
L 466.05448 284.921816 
L 465.400238 285.345804 
L 464.091755 286.405773 
L 461.474789 289.903672 
L 460.820548 291.387629 
L 461.474789 290.751647 
L 461.69287 290.539654 
L 462.565192 291.175635 
L 463.219433 293.719562 
L 463.655594 294.355543 
L 464.309836 294.779531 
L 465.182158 295.627507 
L 466.05448 295.945497 
L 467.144883 294.779531 
L 466.708721 294.46154 
L 465.618319 293.719562 
L 464.964077 293.507568 
L 465.618319 293.08358 
L 466.490641 293.295574 
L 466.926802 293.931556 
L 467.581044 294.779531 
L 467.581044 293.401571 
L 468.017205 292.871586 
L 468.453366 293.507568 
L 470.852251 304.425253 
L 471.070332 304.84924 
L 471.506493 306.015207 
L 471.942654 308.983121 
L 474.995781 317.568873 
L 475.213861 320.006803 
L 474.995781 322.232738 
L 473.251137 326.154625 
L 468.235285 334.316389 
L 466.05448 336.966313 
L 465.836399 338.026282 
L 465.400238 338.768261 
L 462.565192 340.8882 
L 461.256709 342.584151 
L 460.384387 344.598093 
L 459.075904 350.427924 
L 456.677018 358.377695 
L 455.150454 365.47949 
L 455.368535 368.553401 
L 455.150454 370.037358 
L 455.150454 371.309321 
L 453.841971 374.383233 
L 452.751569 378.517113 
L 452.097327 386.678878 
L 452.097327 388.162835 
L 452.533488 389.01081 
L 452.097327 389.434798 
L 452.533488 390.176777 
L 454.496213 402.578418 
L 455.804696 410.740183 
L 453.841971 427.275705 
L 453.841971 430.985598 
L 454.060052 431.62158 
L 454.932374 433.423528 
L 455.368535 435.331473 
L 457.113179 437.769402 
L 457.54934 439.359356 
L 457.33126 441.267301 
L 456.677018 442.327271 
L 455.586615 442.751258 
L 453.623891 442.751258 
L 452.097327 443.069249 
L 450.570764 443.599234 
L 449.262281 443.917225 
L 447.953798 443.175246 
L 448.389959 442.751258 
L 449.698442 441.903283 
L 450.134603 441.479295 
L 450.134603 440.737317 
L 449.916522 439.783344 
L 449.480361 438.829372 
L 448.171878 437.663405 
L 448.171878 433.529525 
L 447.953798 431.939571 
L 448.171878 431.833574 
L 448.389959 431.833574 
L 448.389959 431.62158 
L 448.82612 431.62158 
L 451.006925 432.257561 
L 452.533488 430.349616 
L 452.969649 427.487699 
L 452.097327 425.579754 
L 452.097327 425.155766 
L 452.751569 424.519785 
L 452.969649 423.671809 
L 452.969649 420.17391 
L 453.18773 420.067913 
L 453.40581 419.85592 
L 453.623891 419.537929 
L 453.841971 419.113941 
L 453.623891 417.41799 
L 452.533488 416.358021 
L 450.788844 416.04003 
L 449.262281 416.146027 
L 447.953798 416.888005 
L 447.517637 418.053972 
L 447.517637 419.325935 
L 447.953798 420.385904 
L 449.262281 421.127883 
L 449.480361 421.23388 
L 449.480361 421.445874 
L 449.480361 422.505843 
L 449.698442 423.035828 
L 449.916522 423.459815 
L 450.134603 423.565812 
L 450.352683 423.883803 
L 450.570764 424.519785 
L 450.570764 425.579754 
L 450.352683 426.003742 
L 450.134603 426.42773 
L 450.352683 426.745721 
L 451.006925 427.699693 
L 449.0442 428.865659 
L 445.772992 431.62158 
L 443.810268 432.469555 
L 441.193302 432.787546 
L 440.102899 433.105537 
L 439.666738 433.953512 
L 439.666738 437.239418 
L 439.884819 437.133421 
L 440.53906 437.133421 
L 441.193302 437.345414 
L 441.629463 437.345414 
L 442.065624 437.451411 
L 442.501785 437.981396 
L 442.937946 440.843313 
L 442.719865 442.221274 
L 442.283704 443.38724 
L 442.065624 444.659203 
L 442.501785 445.82517 
L 443.810268 446.355154 
L 445.554912 445.931167 
L 445.991073 446.885139 
L 445.772992 447.521121 
L 445.554912 448.793084 
L 445.554912 449.429066 
L 445.554912 449.853053 
L 445.991073 449.323069 
L 446.863395 446.037164 
L 447.299556 445.295185 
L 447.735717 444.871197 
L 449.0442 445.083191 
L 449.262281 445.613176 
L 446.427234 451.33701 
L 445.118751 458.756796 
L 445.554912 466.812564 
L 445.991073 468.190524 
L 445.554912 468.402518 
L 445.118751 468.614512 
L 445.336831 467.342548 
L 444.90067 466.282579 
L 443.374107 464.374634 
L 442.719865 462.78468 
L 443.156026 462.042701 
L 444.246429 461.40672 
L 444.68259 460.02876 
L 444.246429 458.96879 
L 443.592187 457.696827 
L 442.501785 456.636857 
L 441.411382 456.106873 
L 439.448658 456.318867 
L 439.666738 457.272839 
L 440.53906 457.802824 
L 441.411382 456.954848 
L 441.847543 456.954848 
L 442.719865 458.014818 
L 443.156026 458.650799 
L 443.374107 459.498775 
L 443.156026 460.558744 
L 442.283704 461.936704 
L 442.065624 462.996674 
L 441.847543 464.16264 
L 440.757141 464.16264 
L 438.140175 463.420662 
L 437.922094 463.632655 
L 438.576336 464.056643 
L 440.102899 464.692625 
L 440.53906 465.22261 
L 440.757141 465.858591 
L 440.757141 466.60057 
L 440.975221 467.448545 
L 440.757141 468.084527 
L 440.32098 469.250493 
L 440.102899 469.674481 
L 440.32098 469.992472 
L 440.32098 470.41646 
L 440.53906 470.73445 
L 440.53906 471.158438 
L 440.102899 471.582426 
L 439.884819 471.79442 
L 439.448658 471.900417 
L 439.230577 472.006414 
L 438.140175 473.490371 
L 437.922094 473.808362 
L 437.267853 473.914359 
L 436.613611 474.444343 
L 436.17745 474.974328 
L 435.959369 475.504313 
L 436.831691 476.034297 
L 437.704014 476.98827 
L 438.576336 477.942242 
L 439.012497 479.108209 
L 439.448658 479.426199 
L 440.102899 479.638193 
L 440.757141 479.74419 
L 441.629463 479.638193 
L 441.629463 479.320202 
L 441.411382 479.002212 
L 441.411382 478.472227 
L 441.629463 477.200264 
L 442.065624 476.564282 
L 442.501785 476.352288 
L 443.592187 476.352288 
L 444.246429 476.882273 
L 447.081476 488.329942 
L 447.081476 490.555878 
L 447.081476 491.297857 
L 447.081476 491.827841 
L 446.863395 492.145832 
L 446.427234 492.675817 
L 446.209153 492.463823 
L 445.336831 492.675817 
L 444.464509 492.887811 
L 444.464509 493.099805 
L 444.028348 493.311798 
L 443.374107 494.159774 
L 442.719865 494.371768 
L 442.065624 494.371768 
L 441.411382 494.477765 
L 440.975221 494.795756 
L 440.53906 495.219743 
L 439.884819 497.127688 
L 439.230577 500.095603 
L 438.576336 502.321538 
L 437.267853 502.109544 
L 436.831691 502.109544 
L 434.868967 504.653471 
L 434.432806 505.607443 
L 433.996645 506.667413 
L 433.996645 513.027229 
L 435.959369 521.29499 
L 437.267853 524.474899 
L 439.012497 527.336816 
L 439.666738 528.92677 
L 440.975221 531.258703 
L 441.629463 531.788687 
L 442.719865 532.530666 
L 443.156026 533.696632 
L 443.592187 535.074593 
L 444.68259 534.862599 
L 444.464509 534.226617 
L 445.336831 534.014623 
L 446.645314 534.332614 
L 447.517637 534.862599 
L 447.081476 534.756602 
L 446.645314 534.862599 
L 446.427234 534.756602 
L 445.991073 535.074593 
L 445.991073 535.392583 
L 445.991073 535.710574 
L 445.991073 538.360498 
L 446.645314 540.586433 
L 446.427234 542.282384 
L 444.246429 543.448351 
L 440.32098 544.402323 
L 440.102899 544.50832 
L 435.959369 545.992277 
L 434.650886 547.476234 
L 434.432806 547.688228 
L 432.906242 547.370237 
L 432.470081 547.476234 
L 431.597759 548.112216 
L 430.943518 548.218213 
L 430.507357 548.112216 
L 430.071196 547.900222 
L 426.363827 544.932308 
L 426.145746 543.872338 
L 425.491505 543.448351 
L 424.619183 543.554348 
L 423.964941 544.296326 
L 422.874539 544.084332 
L 421.347975 545.038305 
L 420.693734 544.296326 
L 420.257573 544.296326 
L 419.603331 544.826311 
L 418.94909 544.50832 
L 417.640607 543.448351 
L 416.986365 543.554348 
L 416.550204 543.448351 
L 416.114043 543.448351 
L 415.02364 543.342354 
L 414.369399 543.872338 
L 414.151318 543.448351 
L 412.842835 542.388381 
L 412.624755 542.176387 
L 412.406674 541.858397 
L 412.188594 541.540406 
L 412.624755 541.010421 
L 412.842835 540.904424 
L 413.715157 540.480436 
L 413.497077 538.890482 
L 412.406674 538.042507 
L 411.098191 537.406525 
L 410.66203 536.770544 
L 410.007789 536.346556 
L 407.172742 535.286586 
L 406.5185 534.650605 
L 406.30042 534.226617 
L 405.646178 533.166648 
L 405.210017 532.74266 
L 405.210017 531.894684 
L 405.210017 531.258703 
L 404.991937 530.834715 
L 404.555776 530.516724 
L 403.901534 530.834715 
L 400.630327 533.060651 
L 400.194166 533.272645 
L 399.539924 533.166648 
L 398.885683 532.954654 
L 398.231441 532.636663 
L 397.79528 532.212675 
L 396.486797 530.410727 
L 396.050636 530.198733 
L 395.832555 530.092736 
L 395.614475 529.986739 
L 395.178314 529.880743 
L 392.125187 528.502782 
L 390.816704 528.078795 
L 389.508221 528.078795 
L 388.417818 527.972798 
L 386.018932 526.276847 
L 384.92853 525.746862 
L 383.183886 526.276847 
L 378.604195 529.244761 
L 372.497941 533.484638 
L 370.971377 534.014623 
L 369.662894 533.802629 
L 359.849271 530.198733 
L 351.126051 526.912828 
L 348.945246 526.064853 
L 340.658186 522.990941 
L 334.551932 520.659009 
L 332.589207 519.493042 
L 331.062644 517.903088 
L 329.318 517.055113 
L 327.137194 517.903088 
L 325.39255 520.235021 
L 324.302148 522.672951 
L 322.993665 525.11088 
L 319.940538 523.838917 
L 318.632055 523.626923 
L 317.759732 523.096938 
L 317.323571 522.036969 
L 316.88741 519.811033 
L 315.578927 518.115082 
L 309.254593 510.695296 
L 308.600351 510.271309 
L 308.382271 510.165312 
L 307.509948 509.52933 
L 307.291868 509.211339 
L 305.111063 508.575358 
L 304.238741 507.727382 
L 302.276016 505.183456 
L 300.531372 504.33548 
L 298.568648 502.109544 
L 295.951681 500.625587 
L 295.079359 499.777612 
L 294.861279 499.247627 
L 294.207037 497.445679 
L 292.244313 496.597704 
L 290.063508 494.265771 
L 284.393414 491.827841 
L 283.521092 491.085863 
L 282.64877 490.13189 
L 281.994529 488.223945 
L 274.797872 482.500111 
L 273.707469 481.016153 
L 271.962825 477.306261 
L 271.308584 476.776276 
L 270.654342 476.458285 
L 269.127779 474.762334 
L 268.255456 473.384374 
L 267.165054 471.476429 
L 266.946973 470.522456 
L 266.728893 469.674481 
L 266.074651 468.932502 
L 264.548088 467.766536 
L 263.021524 465.858591 
L 260.840719 461.830707 
L 258.659914 456.000876 
L 258.005672 455.046903 
L 256.479109 453.668943 
L 244.04852 446.037164 
L 243.394278 444.977194 
L 239.90499 443.069249 
L 238.160346 440.94931 
L 234.016816 439.041366 
L 233.798736 437.663405 
L 234.452977 438.617378 
L 235.54338 439.359356 
L 237.069943 439.995338 
L 238.378426 440.207332 
L 236.851863 438.511381 
L 235.979541 437.875399 
L 235.325299 437.663405 
L 234.671058 437.239418 
L 233.362575 434.589494 
L 232.926414 434.589494 
L 233.580655 436.921427 
L 232.708333 436.073451 
L 230.963689 434.059509 
L 229.873287 432.893543 
L 229.000965 432.575552 
L 225.293596 429.607638 
L 224.857435 429.077653 
L 224.639354 428.441672 
L 224.203193 427.275705 
L 223.985113 427.699693 
L 223.548952 428.229678 
L 223.330871 428.547669 
L 216.788456 420.703895 
L 215.916134 419.113941 
L 216.134214 419.431932 
L 216.352295 419.537929 
L 217.224617 419.961916 
L 217.224617 419.537929 
L 217.006536 419.431932 
L 216.352295 419.113941 
L 216.352295 418.689953 
L 216.134214 418.053972 
L 215.261892 417.205996 
L 213.735329 416.464017 
L 212.644926 416.146027 
L 212.644926 416.570014 
L 214.17149 417.629984 
L 215.043812 418.371962 
L 215.043812 419.113941 
L 214.38957 419.007944 
L 213.517248 418.265965 
L 212.208765 416.994002 
L 205.012108 412.648128 
L 203.703625 411.376164 
z
" clip-path="url(#ped356fc8e6)" style="fill: #bdc3c7; stroke: #ffffff; stroke-width: 0.5"/>
    <path d="M 498.112315 318.840836 
L 498.548476 318.840836 
L 498.766557 318.734839 
L 498.548476 318.416849 
L 499.638879 317.886864 
L 500.07504 317.144885 
L 500.29312 316.508904 
L 500.729281 315.872922 
L 501.601603 315.342937 
L 502.473925 315.342937 
L 502.910086 315.872922 
L 503.128167 316.932891 
L 502.692006 318.628842 
L 501.601603 319.158827 
L 498.548476 318.946833 
z
" clip-path="url(#ped356fc8e6)" style="fill: #bdc3c7; stroke: #ffffff; stroke-width: 0.5"/>
    <path d="M 442.065624 473.384374 
L 442.065624 471.052441 
L 442.501785 469.144496 
L 443.592187 468.190524 
L 443.810268 468.190524 
L 443.810268 468.296521 
L 443.810268 468.402518 
L 443.810268 468.614512 
L 443.374107 469.250493 
L 442.937946 470.310463 
L 442.719865 471.370432 
L 442.501785 472.430401 
L 442.937946 474.762334 
L 442.937946 475.61031 
L 442.501785 475.080325 
z
" clip-path="url(#ped356fc8e6)" style="fill: #bdc3c7; stroke: #ffffff; stroke-width: 0.5"/>
    <path d="M 483.28284 458.438805 
L 483.28284 456.954848 
L 483.719001 455.894879 
L 484.591323 455.470891 
L 485.245565 456.000876 
L 485.027484 456.424864 
z
" clip-path="url(#ped356fc8e6)" style="fill: #bdc3c7; stroke: #ffffff; stroke-width: 0.5"/>
    <path d="M 55.626958 354.667802 
L 55.626958 353.713829 
L 55.845039 352.65386 
L 56.063119 351.699888 
L 56.49928 350.745915 
L 57.371602 350.003937 
L 58.898166 349.155961 
L 59.770488 348.519979 
L 60.206649 347.672004 
L 60.64281 346.718031 
L 61.078971 345.870056 
L 61.951293 345.02208 
L 67.839467 340.8882 
L 69.14795 339.616236 
L 69.802191 339.192249 
L 72.419158 338.132279 
L 73.29148 338.132279 
L 74.381882 338.344273 
L 76.126526 339.616236 
L 76.998848 340.040224 
L 77.87117 339.51024 
L 77.87117 339.192249 
L 77.87117 339.086252 
L 77.435009 338.132279 
L 77.435009 337.708292 
L 77.435009 337.178307 
L 80.051976 332.514442 
L 81.360459 331.242478 
L 82.887022 329.970515 
L 84.413586 329.334533 
L 90.956001 327.744579 
L 91.392162 327.320591 
L 91.392162 326.366619 
L 91.174082 326.048628 
L 90.30176 325.730637 
L 90.083679 325.412647 
L 90.083679 324.988659 
L 89.865598 324.034686 
L 89.865598 323.822693 
L 89.429437 323.080714 
L 89.211357 322.86872 
L 88.993276 322.550729 
L 88.557115 322.338735 
L 87.248632 322.126741 
L 86.812471 321.278766 
L 87.248632 320.748781 
L 87.902874 320.324794 
L 88.339035 319.688812 
L 88.120954 318.946833 
L 87.684793 318.310852 
L 87.248632 317.67487 
L 87.684793 316.614901 
L 88.557115 315.978919 
L 89.429437 316.084916 
L 90.083679 316.720898 
L 90.30176 317.886864 
L 91.174082 317.356879 
L 92.700645 315.554931 
L 93.136806 315.342937 
L 93.791048 315.024947 
L 94.66337 315.130943 
L 95.317611 315.554931 
L 95.971853 315.766925 
L 97.062255 315.554931 
L 98.370738 314.176971 
L 99.02498 313.964977 
L 99.02498 315.130943 
L 99.461141 314.600959 
L 99.461141 314.494962 
L 101.205785 315.766925 
L 102.078107 315.978919 
L 104.476993 316.29691 
L 106.439717 317.250882 
L 109.492844 317.886864 
L 111.019408 318.946833 
L 113.854455 319.794809 
L 114.290616 319.264824 
L 115.162938 317.568873 
L 115.817179 317.144885 
L 116.25334 316.932891 
L 116.689501 317.038888 
L 116.907582 317.250882 
L 117.343743 317.780867 
L 117.561823 318.310852 
L 117.779904 318.946833 
L 117.561823 319.582815 
L 117.343743 320.218797 
L 117.997984 320.854778 
L 120.17879 321.066772 
L 121.051112 321.596757 
L 121.487273 322.338735 
L 121.705353 324.24668 
L 121.923434 324.776665 
L 123.668078 326.048628 
L 124.104239 326.68461 
L 124.75848 327.638582 
L 124.976561 328.380561 
L 124.976561 328.698552 
L 124.976561 329.228536 
L 125.194641 329.864518 
L 125.630802 330.288506 
L 126.285044 330.076512 
L 126.939285 329.652524 
L 127.811607 329.334533 
L 128.90201 329.334533 
L 130.428574 330.288506 
L 131.518976 331.87846 
L 132.391298 333.786405 
L 132.827459 335.588353 
L 133.917862 335.376359 
L 136.534828 335.588353 
L 137.40715 335.376359 
L 138.061391 334.952371 
L 138.497552 334.846374 
L 138.933713 335.588353 
L 138.933713 336.648322 
L 138.497552 337.708292 
L 138.497552 338.556267 
L 139.369874 339.192249 
L 140.678358 339.404243 
L 141.114519 339.51024 
L 141.55068 339.82823 
L 141.76876 340.252218 
L 141.986841 340.782203 
L 141.76876 341.100194 
L 141.76876 341.206191 
L 142.204921 341.100194 
L 143.731485 340.8882 
L 145.258048 340.994197 
L 149.837739 342.478154 
L 152.672786 342.690148 
L 153.108947 342.902142 
L 153.763188 343.432126 
L 153.545108 343.64412 
L 153.545108 343.750117 
L 153.545108 343.856114 
L 153.327027 343.856114 
L 153.327027 343.962111 
L 153.545108 344.70409 
L 153.545108 345.340071 
L 153.327027 346.188047 
L 153.327027 347.036022 
L 153.545108 347.672004 
L 154.199349 349.367955 
L 154.199349 350.321927 
L 153.545108 351.169903 
L 155.289752 351.169903 
L 156.380154 350.427924 
L 157.470557 350.003937 
L 159.869443 349.473952 
L 160.523684 349.473952 
L 161.396006 349.791943 
L 161.832167 349.89794 
L 162.050248 349.685946 
L 162.050248 349.367955 
L 162.050248 348.943967 
L 162.268328 348.731973 
L 162.486409 348.731973 
L 163.14065 348.731973 
L 163.576811 348.943967 
L 164.012972 349.049964 
L 164.449133 348.307985 
L 165.103375 348.095992 
L 165.757616 347.989995 
L 166.411858 347.778001 
L 166.848019 347.354013 
L 167.066099 346.930025 
L 167.28418 346.506038 
L 167.720341 346.08205 
L 168.374582 345.764059 
L 169.028824 345.870056 
L 169.464985 345.764059 
L 169.683066 344.916083 
L 169.464985 344.70409 
L 169.028824 344.280102 
L 168.810743 343.962111 
L 168.810743 342.796145 
L 168.810743 342.584151 
L 169.464985 342.372157 
L 170.337307 342.372157 
L 170.555388 342.478154 
L 172.081951 342.796145 
L 172.954273 342.796145 
L 176.0074 342.372157 
L 177.752044 342.478154 
L 178.406286 343.114135 
L 179.278608 345.446068 
L 180.15093 346.506038 
L 181.241333 347.566007 
L 182.331735 348.731973 
L 182.767896 350.21593 
L 185.602943 348.83797 
L 186.475265 348.625976 
L 186.911426 348.731973 
L 187.783748 349.261958 
L 188.219909 349.473952 
L 188.437989 349.261958 
L 189.310312 348.731973 
L 189.746473 348.519979 
L 190.400714 348.519979 
L 191.491117 348.83797 
L 192.145358 348.731973 
L 192.7996 348.307985 
L 193.235761 347.672004 
L 193.890002 347.248016 
L 194.762324 347.142019 
L 195.416566 347.566007 
L 195.852727 349.261958 
L 196.288888 350.003937 
L 196.725049 350.21593 
L 197.597371 350.533921 
L 197.815451 350.745915 
L 198.905854 351.593891 
L 200.650498 353.077848 
L 201.740901 353.501836 
L 201.086659 354.455808 
L 199.996257 357.211728 
L 199.560096 358.271698 
L 199.996257 359.331667 
L 199.778176 359.967649 
L 199.123935 360.60363 
L 198.469693 361.345609 
L 198.251612 362.405578 
L 198.469693 364.737511 
L 198.251612 365.903477 
L 196.725049 369.507373 
L 196.506968 371.203324 
L 197.16121 372.687282 
L 197.597371 372.899275 
L 198.905854 372.475288 
L 199.778176 372.793278 
L 200.214337 373.323263 
L 200.650498 374.065242 
L 200.650498 374.913217 
L 200.650498 375.761193 
L 199.560096 376.927159 
L 194.762324 379.153095 
L 194.326163 378.835104 
L 193.890002 378.305119 
L 193.453841 376.927159 
L 191.709197 380.00107 
L 191.273036 381.697021 
L 192.363439 382.544997 
L 193.235761 382.756991 
L 195.198485 384.770933 
L 196.288888 385.512911 
L 196.506968 385.830902 
L 196.506968 386.678878 
L 195.852727 387.950841 
L 194.762324 388.904813 
L 190.182634 391.236746 
L 189.092231 392.190718 
L 188.87415 393.250688 
L 190.182634 394.20466 
L 188.001828 394.734645 
L 179.714769 394.098663 
L 177.752044 393.674676 
L 177.315883 393.674676 
L 176.225481 394.098663 
L 170.991549 394.628648 
L 165.539536 393.674676 
L 164.012972 394.20466 
L 163.14065 393.886669 
L 162.268328 393.674676 
L 162.268328 393.356685 
L 163.794892 393.250688 
L 163.794892 392.296715 
L 163.14065 391.130749 
L 162.050248 390.282773 
L 162.268328 390.812758 
L 162.92257 391.766731 
L 163.14065 392.402712 
L 160.959845 392.402712 
L 159.869443 392.508709 
L 158.99712 392.8267 
L 159.651362 393.144691 
L 160.087523 393.038694 
L 160.741765 392.932697 
L 161.614087 392.8267 
L 161.614087 393.356685 
L 160.087523 393.886669 
L 158.560959 393.886669 
L 157.470557 393.144691 
L 157.034396 391.554737 
L 157.688637 391.872728 
L 157.906718 391.978724 
L 158.560959 391.130749 
L 158.560959 390.812758 
L 157.688637 390.282773 
L 156.380154 388.692819 
L 155.725913 388.162835 
L 155.943993 389.116807 
L 156.162074 389.858786 
L 156.380154 390.494767 
L 156.162074 391.130749 
L 155.289752 390.600764 
L 152.672786 389.964783 
L 151.582383 389.434798 
L 150.710061 387.63285 
L 150.05582 387.314859 
L 149.401578 387.208862 
L 147.438853 386.784874 
L 146.566531 386.784874 
L 144.167646 387.314859 
L 140.678358 387.420856 
L 140.024116 387.738847 
L 140.242197 388.056838 
L 140.678358 388.268832 
L 141.114519 388.374829 
L 141.55068 388.162835 
L 143.295324 388.586822 
L 148.093095 388.056838 
L 148.747336 388.162835 
L 149.619659 388.586822 
L 149.837739 389.01081 
L 150.710061 389.964783 
L 151.146222 390.282773 
L 151.146222 390.812758 
L 150.05582 390.600764 
L 149.183497 390.38877 
L 147.438853 389.858786 
L 147.438853 390.282773 
L 152.454705 391.342743 
L 155.071671 392.190718 
L 156.162074 393.356685 
L 155.725913 394.098663 
L 154.63551 393.886669 
L 153.545108 393.250688 
L 152.672786 392.614706 
L 151.800464 392.190718 
L 136.098667 389.222804 
L 134.135942 388.374829 
L 119.306467 381.273034 
L 112.109811 376.821162 
L 107.966281 375.019214 
L 103.38659 373.959245 
L 101.423866 373.959245 
L 99.897302 373.535257 
L 91.174082 373.641254 
L 87.466713 372.687282 
L 85.722069 372.369291 
L 82.0147 371.097327 
L 79.833895 371.521315 
L 74.163802 371.627312 
L 73.29148 370.885334 
L 72.637238 368.659398 
L 72.419158 367.175441 
L 71.764916 366.539459 
L 70.456433 365.79748 
L 65.440581 362.935563 
L 61.297052 361.027618 
L 56.49928 358.695686 
z
" clip-path="url(#ped356fc8e6)" style="fill: #bdc3c7; stroke: #ffffff; stroke-width: 0.5"/>
    <path d="M 200.214337 393.038694 
L 200.214337 392.190718 
L 200.214337 391.44874 
L 200.650498 391.130749 
L 201.52282 391.342743 
L 201.958981 392.508709 
L 201.958981 393.462682 
L 202.395142 394.098663 
L 201.740901 394.416654 
L 201.086659 394.098663 
L 200.432418 394.310657 
L 200.432418 393.674676 
z
" clip-path="url(#ped356fc8e6)" style="fill: #bdc3c7; stroke: #ffffff; stroke-width: 0.5"/>
    <path d="M 196.943129 389.434798 
L 197.37929 389.116807 
L 197.815451 389.116807 
L 198.469693 389.328801 
L 198.687773 390.282773 
L 198.469693 390.812758 
L 198.033532 391.236746 
L 197.16121 390.494767 
z
" clip-path="url(#ped356fc8e6)" style="fill: #bdc3c7; stroke: #ffffff; stroke-width: 0.5"/>
    <path d="M -73.476704 307.605161 
L -72.386302 307.393167 
L -71.295899 306.015207 
L -69.769336 302.305314 
L -68.678933 299.973381 
L -68.242772 299.019409 
L -68.460852 297.747445 
L -69.551255 294.673534 
L -69.551255 294.249546 
L -69.333175 293.295574 
L -69.551255 292.871586 
L -69.987416 291.281632 
L -70.205497 290.751647 
L -70.205497 289.479684 
L -69.987416 288.737706 
L -68.678933 287.253748 
L -68.024691 285.345804 
L -68.242772 281.423917 
L -68.024691 279.409975 
L -67.152369 278.667996 
L -66.498128 278.456002 
L -65.625806 278.350006 
L -64.971564 278.032015 
L -64.317323 277.290036 
L -63.00884 274.428119 
L -70.859738 264.252413 
L -71.295899 263.192443 
L -71.295899 262.026477 
L -71.077819 260.966507 
L -69.987416 258.952566 
L -66.934289 253.864713 
L -64.971564 250.578807 
L -62.790759 246.656921 
L -57.992988 238.389159 
L -53.195217 230.121398 
L -49.051687 222.807609 
L -45.99856 217.719756 
L -44.908157 215.811811 
L -43.599674 213.373882 
L -42.945433 212.525906 
L -41.85503 211.995922 
L -39.019984 211.995922 
L -30.732924 211.995922 
L -22.445865 211.995922 
L -14.158805 211.995922 
L -5.653665 211.995922 
L 2.197233 211.995922 
L 2.633394 211.995922 
L 10.920454 211.889925 
L 19.425593 211.889925 
L 27.712653 211.889925 
L 33.164666 211.889925 
L 34.255068 211.783928 
L 35.345471 211.35994 
L 35.563551 211.041949 
L 35.999712 210.087977 
L 36.217793 209.557992 
L 35.781632 209.769986 
L 35.563551 209.875983 
L 35.345471 210.087977 
L 34.90931 210.087977 
L 34.691229 209.028007 
L 36.217793 207.756044 
L 35.345471 207.014065 
L 35.345471 206.590078 
L 36.653954 206.060093 
L 36.435873 205.424111 
L 34.473149 204.470139 
L 34.255068 203.304173 
L 34.691229 202.456197 
L 35.563551 201.820215 
L 36.217793 201.502225 
L 35.345471 201.184234 
L 34.90931 200.654249 
L 34.691229 200.018267 
L 35.345471 199.276289 
L 35.563551 199.59428 
L 35.781632 199.700277 
L 36.653954 199.806274 
L 36.435873 199.488283 
L 35.999712 198.746304 
L 35.781632 198.428313 
L 35.999712 198.428313 
L 36.217793 198.322316 
L 36.217793 198.216319 
L 36.217793 198.004326 
L 36.653954 198.322316 
L 37.090115 198.428313 
L 37.526276 198.216319 
L 37.526276 197.580338 
L 37.090115 197.792332 
L 36.217793 197.474341 
L 35.563551 196.944356 
L 35.999712 196.732362 
L 37.090115 196.414371 
L 37.962437 195.566396 
L 38.398598 194.506427 
L 37.962437 193.658451 
L 37.526276 193.658451 
L 37.526276 194.188436 
L 37.090115 194.188436 
L 37.308195 193.234463 
L 37.744356 192.916472 
L 38.616678 193.022469 
L 39.489 193.234463 
L 38.834759 192.068497 
L 38.834759 191.750506 
L 38.834759 190.902531 
L 38.616678 190.054555 
L 38.180517 189.948558 
L 37.744356 190.160552 
L 37.090115 190.266549 
L 36.653954 190.160552 
L 36.217793 189.842561 
L 35.563551 189.52457 
L 33.818907 189.312577 
L 33.600827 188.888589 
L 33.600827 188.358604 
L 33.382746 187.722622 
L 32.946585 187.404632 
L 32.292344 186.980644 
L 31.638102 186.76865 
L 30.329619 187.510629 
L 29.893458 186.874647 
L 29.675377 185.602684 
L 29.021136 185.602684 
L 27.494572 186.026671 
L 27.058411 186.132668 
L 26.840331 186.026671 
L 25.968009 185.814678 
L 24.877606 185.814678 
L 24.223365 186.026671 
L 24.441445 185.39069 
L 25.095687 184.966702 
L 25.531848 184.436717 
L 25.531848 183.800736 
L 24.659526 183.376748 
L 23.787204 183.270751 
L 23.351043 183.058757 
L 23.787204 182.104785 
L 23.569123 181.150812 
L 24.005284 180.090843 
L 24.223365 179.13687 
L 23.351043 178.712883 
L 23.132962 179.030873 
L 22.914882 179.242867 
L 22.696801 179.348864 
L 22.04256 179.454861 
L 22.04256 179.13687 
L 22.914882 177.652913 
L 22.04256 175.320981 
L 17.89903 169.491149 
L 17.026708 168.74917 
L 15.063983 167.689201 
L 13.973581 166.947222 
L 14.191661 166.205244 
L 14.191661 165.781256 
L 13.53742 165.251271 
L 12.883178 165.781256 
L 12.228937 165.781256 
L 8.085407 164.509293 
L 6.776924 163.873311 
L 5.03228 162.071363 
L 3.941877 161.435381 
L 4.814199 160.375412 
L 4.596119 159.951424 
L 3.941877 159.73943 
L 2.851475 159.73943 
L 2.633394 160.057421 
L 2.851475 160.587406 
L 3.069555 161.223388 
L 2.415314 161.435381 
L 1.979153 161.223388 
L 1.324911 160.481409 
L 0.88875 160.163418 
L -1.292055 159.315443 
L -2.164377 158.679461 
L -2.382458 157.407498 
L -2.600538 156.771516 
L -4.781343 154.121593 
L -4.999424 153.591608 
L -5.435585 152.425642 
L -5.653665 152.001654 
L -6.307907 151.895657 
L -7.83447 152.001654 
L -8.488712 151.78966 
L -10.451437 149.457727 
L -11.105678 148.609752 
L -11.323759 147.97377 
L -11.75992 146.807804 
L -11.978 146.383816 
L -12.414161 146.065825 
L -13.722644 145.747834 
L -13.940725 145.323847 
L -14.158805 144.369874 
L -14.376886 143.203908 
L -15.031127 142.249935 
L -15.685369 141.719951 
L -17.211932 141.613954 
L -18.956576 141.825948 
L -20.046979 141.613954 
L -20.701221 140.129997 
L -21.573543 139.600012 
L -23.318187 139.282021 
L -24.84475 138.64604 
L -24.62667 137.58607 
L -24.190509 137.58607 
L 2.415314 137.692067 
L 2.415314 120.520563 
L 2.633394 103.243062 
L 3.069555 102.713077 
L 4.159958 102.289089 
L 6.776924 102.289089 
L 20.297915 102.395086 
L 33.600827 102.395086 
L 46.903738 102.395086 
L 60.206649 102.395086 
L 73.50956 102.395086 
L 86.812471 102.395086 
L 100.115383 102.395086 
L 113.418294 102.395086 
L 113.636374 115.962695 
L 114.072535 133.45219 
L 114.072535 151.259675 
L 112.982133 167.583204 
L 111.89173 185.178696 
L 111.455569 191.644509 
L 110.583247 204.682133 
L 108.838603 219.203713 
L 108.838603 222.171628 
L 108.838603 223.019603 
L 109.274764 223.761582 
L 109.492844 223.655585 
L 109.929006 223.337594 
L 110.801328 223.1256 
L 111.237489 223.019603 
L 112.327891 222.595615 
L 116.907582 222.807609 
L 118.652226 222.489619 
L 120.614951 222.489619 
L 126.066963 223.867579 
L 128.247768 223.019603 
L 129.12009 223.337594 
L 131.300896 225.139542 
L 133.26362 224.609557 
L 136.098667 225.139542 
L 138.061391 226.411505 
L 138.279472 227.683469 
L 139.587955 227.895462 
L 145.694209 231.817349 
L 145.039968 234.57327 
L 145.258048 234.997257 
L 146.784612 234.997257 
L 147.438853 234.785263 
L 147.656934 234.255279 
L 147.656934 233.725294 
L 147.438853 233.725294 
L 147.438853 233.407303 
L 147.220773 233.195309 
L 147.002692 232.983316 
L 147.002692 232.453331 
L 147.438853 232.347334 
L 147.875014 232.453331 
L 148.529256 232.347334 
L 148.747336 231.817349 
L 148.965417 230.75738 
L 149.401578 230.121398 
L 150.05582 229.591413 
L 150.2739 228.955432 
L 150.491981 228.001459 
L 150.05582 226.517502 
L 149.837739 225.56353 
L 150.2739 225.56353 
L 150.2739 226.199511 
L 150.2739 226.411505 
L 150.710061 226.411505 
L 151.364303 225.987518 
L 153.327027 226.305508 
L 154.199349 225.987518 
L 152.672786 224.609557 
L 152.018544 224.079573 
L 150.710061 223.549588 
L 150.2739 222.913606 
L 149.837739 222.171628 
L 149.401578 221.641643 
L 147.002692 220.157686 
L 146.13037 219.30971 
L 147.002692 218.249741 
L 147.875014 218.779726 
L 149.619659 219.521704 
L 150.2739 219.945692 
L 152.236625 221.853637 
L 153.327027 222.489619 
L 156.598235 225.245539 
L 162.92257 228.107456 
L 164.885294 230.015401 
L 165.539536 230.227395 
L 168.156502 232.665325 
L 170.337307 233.5133 
L 169.683066 233.831291 
L 169.464985 234.361276 
L 169.464985 235.103254 
L 169.028824 235.95123 
L 168.592663 235.421245 
L 167.720341 235.845233 
L 166.848019 236.375218 
L 165.757616 236.693208 
L 164.449133 236.799205 
L 164.231053 237.223193 
L 162.268328 240.403101 
L 159.433282 243.159022 
L 155.289752 246.444927 
L 153.327027 247.928884 
L 148.093095 252.062765 
L 142.859163 256.196645 
L 137.62523 260.224529 
L 132.391298 264.35841 
L 124.75848 270.294238 
L 122.577675 271.248211 
L 116.471421 273.368149 
L 114.508696 274.322122 
L 114.290616 274.640113 
L 113.418294 275.276094 
L 112.764052 276.442061 
L 111.67365 279.303978 
L 112.982133 280.469944 
L 112.982133 282.165895 
L 112.109811 283.861846 
L 111.67365 284.603825 
L 111.019408 285.345804 
L 109.492844 286.723764 
L 109.056683 287.465742 
L 109.056683 288.631709 
L 109.274764 289.479684 
L 109.929006 290.32766 
L 111.019408 291.811617 
L 111.67365 292.765589 
L 112.764052 295.52151 
L 113.418294 296.369485 
L 114.072535 296.89947 
L 114.290616 297.217461 
L 114.290616 297.429455 
L 114.508696 298.489424 
L 114.290616 299.019409 
L 113.636374 299.65539 
L 113.418294 300.079378 
L 113.636374 303.259286 
L 113.636374 304.319256 
L 113.418294 305.379225 
L 112.764052 306.121204 
L 111.89173 306.121204 
L 110.583247 305.591219 
L 109.710925 305.485222 
L 108.620522 305.591219 
L 108.184361 305.90921 
L 107.966281 306.439194 
L 107.312039 307.075176 
L 105.567395 308.771127 
L 104.695073 309.619103 
L 104.040832 310.785069 
L 103.604671 311.315054 
L 102.296188 311.633044 
L 101.641946 312.057032 
L 101.205785 312.799011 
L 100.987705 313.85898 
L 101.205785 315.766925 
L 99.461141 314.494962 
L 99.461141 314.600959 
L 99.02498 315.130943 
L 99.02498 313.964977 
L 98.370738 314.176971 
L 97.062255 315.554931 
L 95.971853 315.766925 
L 95.317611 315.554931 
L 94.66337 315.130943 
L 93.791048 315.024947 
L 93.136806 315.342937 
L 92.700645 315.554931 
L 91.174082 317.356879 
L 90.30176 317.886864 
L 90.083679 316.720898 
L 89.429437 316.084916 
L 88.557115 315.978919 
L 87.684793 316.614901 
L 87.248632 317.67487 
L 87.684793 318.310852 
L 88.120954 318.946833 
L 88.339035 319.688812 
L 87.902874 320.324794 
L 87.248632 320.748781 
L 86.812471 321.278766 
L 87.248632 322.126741 
L 88.557115 322.338735 
L 88.993276 322.550729 
L 89.211357 322.86872 
L 89.429437 323.080714 
L 89.865598 323.822693 
L 89.865598 324.034686 
L 90.083679 324.988659 
L 90.083679 325.412647 
L 90.30176 325.730637 
L 91.174082 326.048628 
L 91.392162 326.366619 
L 91.392162 327.320591 
L 90.956001 327.744579 
L 84.413586 329.334533 
L 82.887022 329.970515 
L 81.360459 331.242478 
L 80.051976 332.514442 
L 77.435009 337.178307 
L 77.435009 337.708292 
L 77.435009 338.132279 
L 77.87117 339.086252 
L 77.87117 339.192249 
L 77.87117 339.51024 
L 76.998848 340.040224 
L 76.126526 339.616236 
L 74.381882 338.344273 
L 73.29148 338.132279 
L 72.419158 338.132279 
L 69.802191 339.192249 
L 69.14795 339.616236 
L 67.839467 340.8882 
L 61.951293 345.02208 
L 61.078971 345.870056 
L 60.64281 346.718031 
L 60.206649 347.672004 
L 59.770488 348.519979 
L 58.898166 349.155961 
L 57.371602 350.003937 
L 56.49928 350.745915 
L 56.063119 351.699888 
L 55.845039 352.65386 
L 55.626958 353.713829 
L 55.626958 354.667802 
L 56.49928 358.695686 
L 47.77606 354.985793 
L 38.180517 350.745915 
L 32.292344 348.519979 
L 27.494572 347.354013 
L 24.005284 346.718031 
L 19.643674 346.294044 
L 15.063983 346.824028 
L 14.409742 347.036022 
L 7.431165 347.46001 
L -0.637814 347.354013 
L -8.052551 346.506038 
L -17.211932 344.70409 
L -31.387166 338.238276 
L -36.621098 335.270362 
L -44.253916 330.606497 
L -52.977136 324.034686 
L -61.700357 316.29691 
z
" clip-path="url(#ped356fc8e6)" style="fill: #bdc3c7; stroke: #ffffff; stroke-width: 0.5"/>
   </g>
   <g id="PatchCollection_2">
    <path d="M 100.987705 313.85898 
L 101.205785 312.799011 
L 101.641946 312.057032 
L 102.296188 311.633044 
L 103.604671 311.315054 
L 104.040832 310.785069 
L 104.695073 309.619103 
L 105.567395 308.771127 
L 107.312039 307.075176 
L 107.966281 306.439194 
L 108.184361 305.90921 
L 108.620522 305.591219 
L 109.710925 305.485222 
L 110.583247 305.591219 
L 111.89173 306.121204 
L 112.764052 306.121204 
L 113.418294 305.379225 
L 113.636374 304.319256 
L 113.636374 303.259286 
L 113.418294 300.079378 
L 113.636374 299.65539 
L 114.290616 299.019409 
L 114.508696 298.489424 
L 114.290616 297.429455 
L 114.290616 297.217461 
L 114.072535 296.89947 
L 113.418294 296.369485 
L 112.764052 295.52151 
L 111.67365 292.765589 
L 111.019408 291.811617 
L 109.929006 290.32766 
L 109.274764 289.479684 
L 109.056683 288.631709 
L 109.056683 287.465742 
L 109.492844 286.723764 
L 111.019408 285.345804 
L 111.67365 284.603825 
L 112.109811 283.861846 
L 112.982133 282.165895 
L 112.982133 280.469944 
L 111.67365 279.303978 
L 112.764052 276.442061 
L 113.418294 275.276094 
L 114.290616 274.640113 
L 114.508696 274.322122 
L 116.471421 273.368149 
L 122.577675 271.248211 
L 124.75848 270.294238 
L 132.391298 264.35841 
L 137.62523 260.224529 
L 142.859163 256.196645 
L 148.093095 252.062765 
L 153.327027 247.928884 
L 155.289752 246.444927 
L 159.433282 243.159022 
L 162.268328 240.403101 
L 164.231053 237.223193 
L 164.449133 236.799205 
L 165.757616 236.693208 
L 166.848019 236.375218 
L 167.720341 235.845233 
L 168.592663 235.421245 
L 169.028824 235.95123 
L 169.464985 235.103254 
L 169.464985 234.361276 
L 169.683066 233.831291 
L 170.337307 233.5133 
L 170.773468 233.725294 
L 173.390434 235.633239 
L 174.916998 236.163224 
L 176.443561 235.421245 
L 179.93285 231.711352 
L 181.459413 230.75738 
L 181.241333 229.69741 
L 181.895574 229.485417 
L 184.076379 229.803407 
L 187.783748 227.683469 
L 188.219909 226.835493 
L 188.219909 226.199511 
L 188.001828 225.987518 
L 187.347587 225.775524 
L 186.693345 225.351536 
L 186.475265 224.821551 
L 186.693345 224.715554 
L 189.310312 224.609557 
L 190.182634 224.291566 
L 191.273036 223.549588 
L 193.01768 223.019603 
L 198.251612 222.595615 
L 199.342015 222.277625 
L 199.778176 221.429649 
L 200.214337 221.323652 
L 200.432418 221.217655 
L 201.52282 221.323652 
L 202.613223 221.641643 
L 205.230189 223.231597 
L 206.320591 223.337594 
L 206.320591 223.019603 
L 205.66635 222.383622 
L 206.320591 221.641643 
L 208.501396 220.36968 
L 207.410994 221.959634 
L 206.974833 222.913606 
L 207.410994 223.337594 
L 207.847155 223.867579 
L 213.517248 228.955432 
L 215.261892 229.803407 
L 217.224617 229.37942 
L 217.442697 229.061429 
L 218.096939 228.001459 
L 218.5331 227.683469 
L 218.969261 227.683469 
L 220.495825 227.683469 
L 220.931986 227.471475 
L 221.368147 226.411505 
L 222.240469 225.881521 
L 223.330871 225.775524 
L 229.655206 227.153484 
L 235.107219 229.061429 
L 240.777312 229.69741 
L 247.101647 231.181368 
L 249.282452 231.393361 
L 251.681338 231.181368 
L 255.388706 230.015401 
L 256.479109 229.803407 
L 256.697189 229.69741 
L 257.569511 228.849435 
L 257.787592 228.743438 
L 258.223753 228.425447 
L 258.877995 228.743438 
L 259.750317 229.167426 
L 259.968397 229.37942 
L 262.585363 229.591413 
L 274.361711 228.531444 
L 276.324435 228.637441 
L 278.28716 229.37942 
L 278.28716 229.485417 
L 279.813724 230.333392 
L 280.686046 230.651383 
L 282.212609 230.75738 
L 283.303012 230.545386 
L 284.393414 230.015401 
L 290.063508 226.411505 
L 291.590071 224.821551 
L 292.244313 224.291566 
L 294.425118 223.443591 
L 296.605923 222.913606 
L 305.111063 222.595615 
L 305.983385 222.383622 
L 306.637626 222.065631 
L 308.818432 220.263683 
L 310.126915 218.885723 
L 310.781156 217.401765 
L 309.690754 216.129802 
L 305.983385 215.493821 
L 304.02066 215.069833 
L 304.456821 214.327854 
L 305.983385 214.221857 
L 310.563076 215.17583 
L 313.834283 215.811811 
L 316.233169 216.023805 
L 319.068216 216.871781 
L 321.903262 217.613759 
L 322.775584 217.825753 
L 323.429826 218.143744 
L 323.647906 218.885723 
L 323.647906 219.733698 
L 323.865987 220.36968 
L 324.302148 220.36968 
L 324.302148 219.945692 
L 324.302148 219.733698 
L 324.520228 219.627701 
L 324.738309 219.521704 
L 325.610631 219.521704 
L 326.264872 220.36968 
L 327.355275 221.217655 
L 328.663758 222.171628 
L 331.280724 223.337594 
L 335.860415 224.50356 
L 338.913542 224.291566 
L 343.493233 223.761582 
L 350.035648 223.655585 
L 353.524936 222.171628 
L 357.886547 218.885723 
L 360.939674 217.189772 
L 365.519364 217.083775 
L 368.354411 218.037747 
L 374.242585 220.793668 
L 381.657322 222.913606 
L 384.92853 224.079573 
L 385.800852 224.715554 
L 385.582771 225.56353 
L 384.710449 226.729496 
L 384.710449 227.683469 
L 384.710449 229.273423 
L 386.018932 230.439389 
L 387.327415 230.651383 
L 388.635899 230.121398 
L 388.853979 228.849435 
L 389.07206 228.31945 
L 389.726301 228.31945 
L 390.162462 229.167426 
L 391.252865 229.909404 
L 392.779428 229.69741 
L 394.087911 229.803407 
L 397.141038 230.227395 
L 397.5772 229.591413 
L 398.667602 229.167426 
L 397.359119 228.637441 
L 395.832555 228.31945 
L 391.034784 227.471475 
L 389.29014 226.623499 
L 387.763577 225.881521 
L 387.109335 224.927548 
L 389.508221 225.457533 
L 397.79528 227.047487 
L 403.247293 227.577472 
L 406.954661 227.789465 
L 408.263145 228.213453 
L 411.534352 230.969374 
L 415.895962 234.57327 
L 422.438378 240.191107 
L 428.762713 245.702948 
L 432.470081 248.670863 
L 437.049772 251.53278 
L 438.140175 252.168762 
L 439.230577 252.592749 
L 441.411382 253.016737 
L 442.065624 253.334728 
L 442.283704 253.864713 
L 442.501785 254.394697 
L 442.065624 254.712688 
L 441.193302 254.818685 
L 440.102899 254.394697 
L 437.704014 252.592749 
L 435.959369 251.956768 
L 434.868967 251.214789 
L 434.432806 250.896798 
L 432.470081 250.896798 
L 431.597759 250.684804 
L 430.943518 250.048823 
L 431.161598 249.942826 
L 431.597759 249.730832 
L 431.81584 249.624835 
L 431.379679 248.882856 
L 429.198874 246.550924 
L 428.980793 246.550924 
L 428.108471 246.974912 
L 427.45423 246.444927 
L 426.581907 245.702948 
L 425.709585 245.384957 
L 424.619183 245.490954 
L 423.964941 245.914942 
L 423.52878 246.444927 
L 422.656458 247.080908 
L 422.220297 246.762918 
L 420.693734 246.126936 
L 421.347975 245.490954 
L 421.784136 245.066967 
L 421.784136 244.642979 
L 421.566056 244.536982 
L 420.911814 244.430985 
L 420.257573 244.430985 
L 419.821412 244.536982 
L 419.603331 245.172964 
L 420.039492 246.232933 
L 420.693734 247.398899 
L 421.347975 248.352872 
L 421.347975 248.458869 
L 421.129895 248.458869 
L 421.129895 248.564866 
L 420.911814 248.776859 
L 420.693734 248.776859 
L 418.731009 245.27896 
L 418.076768 244.536982 
L 417.422526 244.430985 
L 416.550204 244.536982 
L 415.677882 244.854973 
L 414.80556 244.854973 
L 413.933238 244.536982 
L 413.060916 244.536982 
L 413.497077 245.914942 
L 413.933238 246.444927 
L 415.02364 246.762918 
L 415.02364 247.292902 
L 414.80556 248.034881 
L 414.80556 248.776859 
L 415.241721 248.776859 
L 415.459801 247.822887 
L 416.550204 247.292902 
L 417.204446 245.490954 
L 417.640607 245.27896 
L 418.294848 245.702948 
L 419.16717 247.71689 
L 420.039492 249.412841 
L 420.475653 250.790801 
L 419.16717 251.426783 
L 418.512929 252.062765 
L 418.94909 253.652719 
L 420.039492 255.34867 
L 420.911814 256.514636 
L 422.656458 257.362612 
L 423.964941 257.680602 
L 424.401102 257.044621 
L 423.964941 255.242673 
L 424.619183 255.878654 
L 425.491505 256.72663 
L 425.709585 257.680602 
L 425.273424 258.634575 
L 425.927666 259.694544 
L 427.236149 259.906538 
L 430.071196 259.588547 
L 430.071196 260.012535 
L 429.635035 259.906538 
L 429.198874 260.012535 
L 428.544632 260.436523 
L 428.544632 260.754514 
L 428.980793 261.814483 
L 429.853115 262.874452 
L 430.725437 263.510434 
L 432.03392 263.828425 
L 433.124323 263.722428 
L 434.432806 263.29844 
L 435.959369 262.768455 
L 436.831691 262.132474 
L 435.959369 261.390495 
L 433.560484 260.012535 
L 433.124323 259.588547 
L 432.906242 259.16456 
L 432.470081 258.846569 
L 432.03392 258.634575 
L 431.379679 258.634575 
L 426.799988 256.938624 
L 425.927666 256.514636 
L 424.619183 254.500694 
L 423.964941 253.97071 
L 424.401102 253.440725 
L 425.055344 253.122734 
L 426.363827 252.592749 
L 431.81584 255.030679 
L 432.688162 256.302642 
L 432.906242 256.938624 
L 433.778564 257.574605 
L 434.868967 257.998593 
L 436.613611 258.422581 
L 437.267853 258.952566 
L 437.922094 259.588547 
L 438.358255 260.436523 
L 437.922094 260.648517 
L 437.485933 261.072504 
L 437.267853 261.284498 
L 437.267853 261.602489 
L 438.140175 261.814483 
L 439.012497 261.284498 
L 439.666738 261.178501 
L 440.102899 262.980449 
L 439.884819 265.312382 
L 440.102899 265.948364 
L 440.53906 266.372351 
L 440.975221 266.372351 
L 441.411382 265.948364 
L 441.411382 265.100388 
L 441.847543 265.100388 
L 442.283704 266.372351 
L 442.719865 266.054361 
L 443.810268 264.252413 
L 444.68259 263.616431 
L 445.991073 263.29844 
L 448.171878 262.980449 
L 448.389959 262.662459 
L 448.389959 261.284498 
L 448.389959 260.754514 
L 448.82612 260.54252 
L 449.262281 260.54252 
L 449.698442 260.648517 
L 453.623891 261.496492 
L 454.714293 261.284498 
L 454.714293 261.602489 
L 454.278132 262.026477 
L 454.278132 262.238471 
L 454.496213 262.556462 
L 454.714293 262.980449 
L 454.714293 264.888394 
L 454.278132 265.842367 
L 453.623891 266.266354 
L 452.969649 265.948364 
L 452.533488 264.888394 
L 452.315408 264.570403 
L 451.879247 264.35841 
L 451.225005 264.252413 
L 450.788844 264.252413 
L 450.352683 264.464406 
L 449.916522 264.994391 
L 449.698442 265.948364 
L 449.262281 266.266354 
L 449.0442 266.478348 
L 448.82612 266.796339 
L 448.82612 267.432321 
L 449.0442 268.068302 
L 449.262281 268.174299 
L 449.698442 267.962305 
L 450.134603 267.644315 
L 449.698442 267.11433 
L 449.698442 266.690342 
L 449.698442 266.372351 
L 450.134603 265.948364 
L 450.570764 265.948364 
L 450.570764 267.538318 
L 451.006925 268.598287 
L 451.879247 269.022275 
L 452.969649 268.49229 
L 453.40581 268.174299 
L 453.841971 267.220327 
L 454.278132 266.902336 
L 454.714293 266.584345 
L 457.33126 265.524376 
L 457.33126 265.312382 
L 457.113179 264.6764 
L 456.895099 264.252413 
L 456.458937 264.040419 
L 456.240857 263.616431 
L 455.804696 262.980449 
L 455.804696 262.132474 
L 455.368535 260.966507 
L 454.496213 260.224529 
L 453.40581 260.754514 
L 451.661166 259.694544 
L 450.788844 259.48255 
L 449.698442 260.012535 
L 449.262281 259.588547 
L 449.480361 259.270556 
L 449.698442 258.634575 
L 448.608039 258.528578 
L 445.991073 257.574605 
L 445.554912 257.150618 
L 444.90067 256.514636 
L 443.592187 256.090648 
L 442.719865 255.560664 
L 442.937946 254.394697 
L 444.028348 253.864713 
L 444.90067 254.394697 
L 445.772992 255.242673 
L 446.427234 255.666661 
L 447.081476 255.878654 
L 453.623891 259.270556 
L 461.91095 262.344468 
L 464.964077 264.6764 
L 465.618319 265.842367 
L 466.708721 269.87025 
L 467.799124 272.414177 
L 469.325688 274.852107 
L 471.288412 276.336064 
L 478.70315 279.303978 
L 477.830828 279.409975 
L 475.868103 279.303978 
L 474.995781 279.515972 
L 473.469217 280.151954 
L 470.634171 280.151954 
L 470.41609 280.151954 
L 469.761849 279.93996 
L 469.325688 279.621969 
L 469.325688 279.303978 
L 469.979929 278.87999 
L 467.362963 278.667996 
L 466.27256 278.667996 
L 465.400238 279.303978 
L 465.182158 278.456002 
L 464.527916 278.032015 
L 463.655594 277.820021 
L 463.001353 277.184039 
L 462.347111 278.244009 
L 461.474789 279.303978 
L 460.166306 280.045957 
L 458.857823 280.151954 
L 458.203582 279.93996 
L 457.54934 278.773993 
L 457.113179 278.456002 
L 456.458937 278.350006 
L 455.804696 278.350006 
L 455.586615 278.667996 
L 456.022776 279.303978 
L 455.586615 279.727966 
L 455.586615 280.151954 
L 455.586615 281.105926 
L 454.932374 280.469944 
L 454.496213 280.787935 
L 454.496213 281.529914 
L 454.714293 282.377889 
L 454.278132 282.165895 
L 453.40581 281.953901 
L 453.623891 282.059898 
L 453.623891 282.589883 
L 453.841971 282.801877 
L 452.969649 283.013871 
L 451.443086 284.285834 
L 449.916522 284.815819 
L 449.698442 285.4518 
L 449.480361 286.299776 
L 449.262281 287.147752 
L 448.82612 287.147752 
L 448.389959 286.405773 
L 447.299556 286.087782 
L 445.772992 285.981785 
L 444.68259 286.193779 
L 443.592187 286.723764 
L 443.374107 287.465742 
L 443.810268 289.26769 
L 443.374107 289.26769 
L 443.156026 288.737706 
L 442.719865 288.419715 
L 442.065624 288.313718 
L 441.411382 288.419715 
L 441.411382 289.373687 
L 440.32098 289.903672 
L 436.831691 290.009669 
L 437.267853 290.751647 
L 437.485933 291.069638 
L 438.140175 291.387629 
L 436.831691 291.387629 
L 435.741289 291.811617 
L 434.650886 292.447598 
L 433.996645 293.08358 
L 433.560484 292.659592 
L 433.342403 292.447598 
L 433.124323 292.447598 
L 432.688162 292.235605 
L 432.906242 292.871586 
L 433.124323 293.08358 
L 432.252001 292.871586 
L 431.379679 291.811617 
L 430.507357 291.387629 
L 430.289276 292.871586 
L 430.289276 293.401571 
L 430.507357 293.931556 
L 424.619183 294.249546 
L 423.52878 294.143549 
L 423.52878 293.613565 
L 423.092619 293.507568 
L 422.002217 293.507568 
L 421.566056 293.401571 
L 421.129895 293.189577 
L 421.129895 292.977583 
L 419.603331 292.023611 
L 419.16717 292.023611 
L 418.512929 292.659592 
L 419.385251 294.143549 
L 419.603331 294.673534 
L 420.257573 295.203519 
L 420.257573 295.627507 
L 419.821412 295.945497 
L 419.603331 295.945497 
L 419.385251 295.733504 
L 418.731009 295.627507 
L 418.294848 295.839501 
L 417.858687 296.051494 
L 417.640607 296.369485 
L 417.204446 296.581479 
L 415.895962 297.005467 
L 415.02364 297.111464 
L 414.151318 296.793473 
L 412.842835 295.203519 
L 412.406674 294.779531 
L 411.752433 294.46154 
L 410.880111 294.249546 
L 410.225869 294.249546 
L 409.789708 294.991525 
L 410.225869 297.959439 
L 409.789708 299.3374 
L 408.481225 299.973381 
L 407.826984 299.973381 
L 406.5185 299.65539 
L 405.428098 299.549393 
L 404.991937 299.231403 
L 404.555776 297.535452 
L 404.119615 297.005467 
L 403.247293 298.171433 
L 402.374971 299.761387 
L 401.284568 301.139347 
L 399.103763 301.881326 
L 397.359119 302.835299 
L 396.704877 302.941295 
L 395.832555 302.729302 
L 395.178314 302.199317 
L 394.524072 301.775329 
L 393.65175 302.09332 
L 393.869831 300.821357 
L 394.087911 300.397369 
L 389.726301 300.291372 
L 388.199738 299.973381 
L 386.018932 299.019409 
L 384.710449 298.807415 
L 383.620047 299.549393 
L 382.747725 297.323458 
L 382.093483 296.369485 
L 380.785 295.52151 
L 381.003081 294.673534 
L 380.785 293.931556 
L 379.476517 293.719562 
L 379.694598 293.613565 
L 380.130759 292.977583 
L 380.348839 292.871586 
L 379.258437 291.387629 
L 377.949954 290.32766 
L 376.42339 289.903672 
L 374.896826 289.903672 
L 371.189458 290.645651 
L 370.317136 291.175635 
L 367.482089 293.931556 
L 366.391686 294.673534 
L 365.519364 295.309516 
L 365.301284 295.415513 
L 364.428962 296.157491 
L 363.992801 297.111464 
L 363.55664 299.443396 
L 363.338559 299.867384 
L 363.120479 299.973381 
L 362.248157 300.291372 
L 362.466237 300.821357 
L 364.210881 302.09332 
L 362.902398 303.365283 
L 362.466237 303.895268 
L 363.992801 303.895268 
L 363.992801 304.001265 
L 363.55664 304.955237 
L 361.593915 307.075176 
L 360.285432 307.711158 
L 359.19503 306.969179 
L 358.104627 305.803213 
L 357.014224 305.591219 
L 356.578063 306.439194 
L 356.359983 308.241142 
L 356.141902 311.421051 
L 355.923822 311.739041 
L 354.615339 313.328996 
L 354.615339 313.646986 
L 354.615339 314.600959 
L 354.615339 315.024947 
L 352.870695 316.29691 
L 353.961097 316.932891 
L 355.0515 317.992861 
L 355.705741 319.158827 
L 355.923822 320.642784 
L 355.26958 321.702754 
L 353.961097 322.444732 
L 352.434534 322.974717 
L 350.90797 323.186711 
L 348.509085 323.186711 
L 348.072924 323.398705 
L 346.54636 324.034686 
L 345.892118 324.24668 
L 345.674038 324.564671 
L 345.455957 324.988659 
L 345.019796 325.518644 
L 344.801716 325.942631 
L 344.583635 326.154625 
L 344.365555 326.260622 
L 343.711313 326.154625 
L 343.493233 326.154625 
L 342.838991 326.790607 
L 342.18475 327.638582 
L 341.530508 328.698552 
L 341.094347 330.288506 
L 340.658186 331.454472 
L 340.003945 332.620438 
L 339.349703 333.574411 
L 337.82314 334.740377 
L 336.732737 335.376359 
L 334.551932 336.012341 
L 334.115771 336.860316 
L 334.115771 337.814288 
L 333.461529 338.662264 
L 332.371127 339.086252 
L 331.280724 339.192249 
L 330.844563 339.298246 
L 329.53608 339.82823 
L 328.881839 340.676206 
L 328.227597 341.312187 
L 326.264872 341.948169 
L 326.482953 342.584151 
L 326.264872 342.690148 
L 326.046792 342.690148 
L 326.046792 343.008139 
L 325.610631 343.008139 
L 325.17447 342.902142 
L 323.865987 343.962111 
L 322.993665 344.280102 
L 321.903262 344.174105 
L 321.467101 344.068108 
L 321.03094 344.386099 
L 321.03094 345.764059 
L 320.376699 347.672004 
L 320.158618 348.83797 
L 320.376699 349.473952 
L 321.249021 349.685946 
L 321.685182 350.427924 
L 321.467101 351.381897 
L 321.03094 352.441866 
L 320.594779 352.865854 
L 320.376699 352.971851 
L 320.376699 352.865854 
L 319.504377 352.017878 
L 318.195894 351.911881 
L 316.88741 351.911881 
L 315.578927 351.487894 
L 314.488525 350.21593 
L 314.052364 348.943967 
L 313.180042 347.883998 
L 311.871559 347.248016 
L 310.999237 347.354013 
L 310.563076 347.566007 
L 309.908834 347.672004 
L 309.036512 347.354013 
L 308.818432 347.036022 
L 307.509948 345.234074 
L 303.148338 342.160163 
L 302.930258 340.464212 
L 303.584499 339.086252 
L 303.584499 338.45027 
L 299.004809 339.086252 
L 298.132486 339.51024 
L 297.478245 340.146221 
L 297.260164 340.676206 
L 297.042084 341.312187 
L 296.605923 342.160163 
L 295.733601 342.902142 
L 295.079359 343.220132 
L 294.425118 343.538123 
L 293.770876 343.962111 
L 291.590071 347.248016 
L 287.664622 351.593891 
L 286.7923 353.077848 
L 286.138058 354.985793 
L 285.919978 355.939765 
L 285.265736 356.681744 
L 284.175334 357.105731 
L 283.084931 357.423722 
L 280.031804 357.635716 
L 279.595643 357.529719 
L 278.941402 357.423722 
L 278.723321 357.105731 
L 277.632918 356.151759 
L 276.760596 356.257756 
L 276.106355 356.681744 
L 275.234033 356.999735 
L 274.14363 356.681744 
L 271.962825 355.515777 
L 269.56394 355.727771 
L 264.766168 356.681744 
L 262.149202 356.363753 
L 260.840719 356.46975 
L 259.532236 357.105731 
L 258.659914 357.635716 
L 258.441833 357.84771 
L 258.441833 358.271698 
L 258.223753 359.119673 
L 258.223753 360.179643 
L 258.005672 363.571545 
L 258.005672 364.101529 
L 258.223753 364.41952 
L 258.659914 364.631514 
L 259.096075 365.055502 
L 259.314156 365.47949 
L 259.314156 366.433462 
L 259.096075 368.447404 
L 259.096075 369.507373 
L 261.0588 377.033156 
L 260.840719 378.093125 
L 260.186478 379.789076 
L 259.968397 380.637052 
L 260.186478 381.273034 
L 260.622639 381.485027 
L 261.0588 381.591024 
L 261.494961 381.909015 
L 261.931122 382.756991 
L 261.931122 383.180979 
L 262.367283 384.87693 
L 262.149202 385.936899 
L 261.713041 386.678878 
L 260.840719 387.526853 
L 260.404558 387.844844 
L 259.968397 388.056838 
L 259.532236 388.268832 
L 258.877995 388.056838 
L 255.388706 386.360887 
L 254.298304 386.25489 
L 253.425982 386.466884 
L 252.55366 387.102865 
L 249.718613 389.646792 
L 249.282452 390.176777 
L 248.846291 391.024752 
L 248.41013 392.8267 
L 248.192049 393.038694 
L 248.41013 393.356685 
L 248.846291 394.416654 
L 248.846291 394.522651 
L 248.41013 397.808556 
L 248.628211 398.232544 
L 248.846291 398.338541 
L 249.064372 398.656532 
L 248.846291 399.186516 
L 248.628211 399.504507 
L 247.755888 400.034492 
L 247.319727 400.246486 
L 246.011244 402.472421 
L 245.357003 403.320397 
L 243.830439 404.274369 
L 242.521956 404.910351 
L 242.085795 405.97032 
L 241.431554 405.864324 
L 240.123071 405.016348 
L 239.250749 404.910351 
L 225.293596 405.758327 
L 225.947837 405.334339 
L 226.165918 404.59236 
L 226.602079 403.956379 
L 227.25632 403.532391 
L 227.910562 403.2144 
L 227.910562 402.790412 
L 226.383998 402.790412 
L 225.075515 402.472421 
L 224.203193 401.942437 
L 223.330871 401.094461 
L 222.89471 400.45848 
L 222.89471 400.140489 
L 223.112791 399.080519 
L 223.330871 398.974522 
L 225.293596 398.656532 
L 225.947837 398.444538 
L 222.458549 397.490565 
L 220.277744 397.278571 
L 219.187342 397.702559 
L 218.969261 397.702559 
L 218.75118 395.26463 
L 217.878858 392.720703 
L 216.788456 390.600764 
L 215.479973 389.01081 
L 215.261892 388.056838 
L 215.043812 387.950841 
L 214.825731 387.738847 
L 214.607651 387.738847 
L 214.17149 387.844844 
L 213.953409 387.738847 
L 213.517248 387.208862 
L 213.299168 386.678878 
L 213.299168 386.148893 
L 213.953409 385.512911 
L 214.38957 385.19492 
L 215.479973 384.770933 
L 215.916134 384.240948 
L 217.224617 382.544997 
L 217.660778 382.121009 
L 218.315019 382.333003 
L 219.405422 382.015012 
L 221.368147 381.273034 
L 221.150066 380.743049 
L 221.150066 380.425058 
L 221.368147 380.00107 
L 220.495825 379.153095 
L 220.059664 378.835104 
L 219.405422 378.729107 
L 218.315019 378.941101 
L 217.660778 378.835104 
L 217.224617 378.305119 
L 216.134214 379.047098 
L 215.916134 379.365089 
L 215.479973 380.00107 
L 215.479973 380.849046 
L 215.698053 381.273034 
L 215.698053 381.591024 
L 215.043812 382.121009 
L 214.607651 382.121009 
L 212.644926 382.121009 
L 211.554524 382.333003 
L 211.118363 382.333003 
L 210.464121 382.121009 
L 210.464121 381.697021 
L 211.336443 381.697021 
L 211.336443 381.273034 
L 210.246041 381.06104 
L 209.155638 380.637052 
L 208.065235 380.531055 
L 207.192913 381.273034 
L 206.756752 381.273034 
L 206.974833 380.637052 
L 207.629074 379.153095 
L 206.756752 378.835104 
L 206.538672 378.093125 
L 206.756752 376.291177 
L 206.538672 375.337205 
L 205.66635 375.549199 
L 204.794028 376.291177 
L 204.357867 376.927159 
L 204.794028 378.729107 
L 203.921706 380.425058 
L 202.395142 381.697021 
L 200.650498 382.121009 
L 199.560096 381.909015 
L 198.033532 381.06104 
L 196.943129 380.637052 
L 196.943129 380.213064 
L 196.943129 379.789076 
L 196.725049 379.577083 
L 196.070807 379.577083 
L 195.634646 379.471086 
L 194.762324 379.153095 
L 199.560096 376.927159 
L 200.650498 375.761193 
L 200.650498 374.913217 
L 200.650498 374.065242 
L 200.214337 373.323263 
L 199.778176 372.793278 
L 198.905854 372.475288 
L 197.597371 372.899275 
L 197.16121 372.687282 
L 196.506968 371.203324 
L 196.725049 369.507373 
L 198.251612 365.903477 
L 198.469693 364.737511 
L 198.251612 362.405578 
L 198.469693 361.345609 
L 199.123935 360.60363 
L 199.778176 359.967649 
L 199.996257 359.331667 
L 199.560096 358.271698 
L 199.996257 357.211728 
L 201.086659 354.455808 
L 201.740901 353.501836 
L 200.650498 353.077848 
L 198.905854 351.593891 
L 197.815451 350.745915 
L 197.597371 350.533921 
L 196.725049 350.21593 
L 196.288888 350.003937 
L 195.852727 349.261958 
L 195.416566 347.566007 
L 194.762324 347.142019 
L 193.890002 347.248016 
L 193.235761 347.672004 
L 192.7996 348.307985 
L 192.145358 348.731973 
L 191.491117 348.83797 
L 190.400714 348.519979 
L 189.746473 348.519979 
L 189.310312 348.731973 
L 188.437989 349.261958 
L 188.219909 349.473952 
L 187.783748 349.261958 
L 186.911426 348.731973 
L 186.475265 348.625976 
L 185.602943 348.83797 
L 182.767896 350.21593 
L 182.331735 348.731973 
L 181.241333 347.566007 
L 180.15093 346.506038 
L 179.278608 345.446068 
L 178.406286 343.114135 
L 177.752044 342.478154 
L 176.0074 342.372157 
L 172.954273 342.796145 
L 172.081951 342.796145 
L 170.555388 342.478154 
L 170.337307 342.372157 
L 169.464985 342.372157 
L 168.810743 342.584151 
L 168.810743 342.796145 
L 168.810743 343.962111 
L 169.028824 344.280102 
L 169.464985 344.70409 
L 169.683066 344.916083 
L 169.464985 345.764059 
L 169.028824 345.870056 
L 168.374582 345.764059 
L 167.720341 346.08205 
L 167.28418 346.506038 
L 167.066099 346.930025 
L 166.848019 347.354013 
L 166.411858 347.778001 
L 165.757616 347.989995 
L 165.103375 348.095992 
L 164.449133 348.307985 
L 164.012972 349.049964 
L 163.576811 348.943967 
L 163.14065 348.731973 
L 162.486409 348.731973 
L 162.268328 348.731973 
L 162.050248 348.943967 
L 162.050248 349.367955 
L 162.050248 349.685946 
L 161.832167 349.89794 
L 161.396006 349.791943 
L 160.523684 349.473952 
L 159.869443 349.473952 
L 157.470557 350.003937 
L 156.380154 350.427924 
L 155.289752 351.169903 
L 153.545108 351.169903 
L 154.199349 350.321927 
L 154.199349 349.367955 
L 153.545108 347.672004 
L 153.327027 347.036022 
L 153.327027 346.188047 
L 153.545108 345.340071 
L 153.545108 344.70409 
L 153.327027 343.962111 
L 153.327027 343.856114 
L 153.545108 343.856114 
L 153.545108 343.750117 
L 153.545108 343.64412 
L 153.763188 343.432126 
L 153.108947 342.902142 
L 152.672786 342.690148 
L 149.837739 342.478154 
L 145.258048 340.994197 
L 143.731485 340.8882 
L 142.204921 341.100194 
L 141.76876 341.206191 
L 141.76876 341.100194 
L 141.986841 340.782203 
L 141.76876 340.252218 
L 141.55068 339.82823 
L 141.114519 339.51024 
L 140.678358 339.404243 
L 139.369874 339.192249 
L 138.497552 338.556267 
L 138.497552 337.708292 
L 138.933713 336.648322 
L 138.933713 335.588353 
L 138.497552 334.846374 
L 138.061391 334.952371 
L 137.40715 335.376359 
L 136.534828 335.588353 
L 133.917862 335.376359 
L 132.827459 335.588353 
L 132.391298 333.786405 
L 131.518976 331.87846 
L 130.428574 330.288506 
L 128.90201 329.334533 
L 127.811607 329.334533 
L 126.939285 329.652524 
L 126.285044 330.076512 
L 125.630802 330.288506 
L 125.194641 329.864518 
L 124.976561 329.228536 
L 124.976561 328.698552 
L 124.976561 328.380561 
L 124.75848 327.638582 
L 124.104239 326.68461 
L 123.668078 326.048628 
L 121.923434 324.776665 
L 121.705353 324.24668 
L 121.487273 322.338735 
L 121.051112 321.596757 
L 120.17879 321.066772 
L 117.997984 320.854778 
L 117.343743 320.218797 
L 117.561823 319.582815 
L 117.779904 318.946833 
L 117.561823 318.310852 
L 117.343743 317.780867 
L 116.907582 317.250882 
L 116.689501 317.038888 
L 116.25334 316.932891 
L 115.817179 317.144885 
L 115.162938 317.568873 
L 114.290616 319.264824 
L 113.854455 319.794809 
L 111.019408 318.946833 
L 109.492844 317.886864 
L 106.439717 317.250882 
L 104.476993 316.29691 
L 102.078107 315.978919 
L 101.205785 315.766925 
z
" clip-path="url(#ped356fc8e6)" style="fill: #e74c3c; stroke: #ffffff; stroke-width: 0.6"/>
    <path d="M 268.037376 198.428313 
L 268.473537 196.944356 
L 270.218181 195.460399 
L 272.617067 193.976442 
L 274.579791 193.128466 
L 278.28716 191.432515 
L 282.212609 190.160552 
L 284.829575 189.418573 
L 286.574219 189.20658 
L 288.973105 189.312577 
L 290.93583 189.418573 
L 293.770876 189.418573 
L 292.680474 189.842561 
L 291.371991 190.478543 
L 290.063508 190.054555 
L 288.318864 190.58454 
L 287.01038 190.266549 
L 285.919978 190.478543 
L 285.483817 190.58454 
L 284.611495 191.220521 
L 284.393414 191.326518 
L 283.739173 191.326518 
L 282.866851 191.538512 
L 281.776448 192.386488 
L 279.595643 193.446457 
L 277.414838 194.294433 
L 275.015952 195.884387 
L 273.053228 196.520368 
L 271.744745 196.732362 
L 270.654342 197.580338 
L 269.78202 198.53431 
L 268.473537 199.382286 
z
" clip-path="url(#ped356fc8e6)" style="fill: #e74c3c; stroke: #ffffff; stroke-width: 0.6"/>
    <path d="M 307.946109 190.478543 
L 308.382271 189.312577 
L 309.254593 187.828619 
L 310.126915 187.298635 
L 311.217317 185.602684 
L 311.871559 184.754708 
L 313.834283 183.906733 
L 314.924686 184.33072 
L 316.015088 185.072699 
L 315.578927 185.814678 
L 314.270444 185.920674 
L 314.052364 186.874647 
L 313.180042 187.934616 
L 312.089639 188.040613 
L 311.217317 188.888589 
L 308.16419 191.008528 
z
" clip-path="url(#ped356fc8e6)" style="fill: #e74c3c; stroke: #ffffff; stroke-width: 0.6"/>
    <path d="M 244.484681 211.041949 
L 244.920842 210.299971 
L 247.755888 209.028007 
L 249.282452 208.710016 
L 250.154774 208.498023 
L 250.809016 208.286029 
L 251.681338 208.392026 
L 251.899418 208.710016 
L 251.463257 209.769986 
L 251.681338 210.511964 
L 250.590935 210.405967 
L 249.500533 210.723958 
L 247.973969 211.35994 
L 246.447405 212.207915 
L 245.575083 211.465937 
z
" clip-path="url(#ped356fc8e6)" style="fill: #e74c3c; stroke: #ffffff; stroke-width: 0.6"/>
    <path d="M 203.485545 386.784874 
L 204.357867 386.466884 
L 205.230189 386.360887 
L 206.974833 386.466884 
L 207.192913 386.890871 
L 207.192913 387.844844 
L 206.538672 388.798816 
L 205.012108 389.01081 
L 204.357867 388.904813 
L 204.139786 388.798816 
L 203.921706 388.586822 
L 203.921706 388.162835 
L 204.357867 388.162835 
L 204.139786 387.844844 
L 203.703625 387.208862 
z
" clip-path="url(#ped356fc8e6)" style="fill: #e74c3c; stroke: #ffffff; stroke-width: 0.6"/>
    <path d="M 204.357867 383.81696 
L 204.575947 382.756991 
L 205.230189 381.591024 
L 205.88443 381.167037 
L 206.538672 381.485027 
L 207.192913 381.697021 
L 208.719477 381.273034 
L 209.80988 381.273034 
L 209.80988 381.697021 
L 208.719477 382.227006 
L 209.373719 384.664936 
L 208.501396 385.512911 
L 205.66635 384.664936 
z
" clip-path="url(#ped356fc8e6)" style="fill: #e74c3c; stroke: #ffffff; stroke-width: 0.6"/>
    <path d="M 429.635035 127.304367 
L 430.071196 127.304367 
L 430.507357 127.410364 
L 430.943518 127.516361 
L 431.379679 127.728355 
L 430.725437 127.834352 
L 430.289276 127.834352 
L 429.853115 127.622358 
z
" clip-path="url(#ped356fc8e6)" style="fill: #e74c3c; stroke: #ffffff; stroke-width: 0.6"/>
   </g>
   <g id="text_1">
    <g id="patch_2">
     <path d="M 311.586397 419.244352 
L 351.611085 419.244352 
Q 353.011085 419.244352 353.011085 417.844352 
L 353.011085 410.843805 
Q 353.011085 409.443805 351.611085 409.443805 
L 311.586397 409.443805 
Q 310.186397 409.443805 310.186397 410.843805 
L 310.186397 417.844352 
Q 310.186397 419.244352 311.586397 419.244352 
z
" clip-path="url(#ped356fc8e6)" style="fill: #ffffff; opacity: 0.6"/>
    </g>
    <g clip-path="url(#ped356fc8e6)">
     <!-- Nicaragua -->
     <g style="fill: #1a252f" transform="translate(311.586397 416.162711) scale(0.07 -0.07)">
      <defs>
       <path id="DejaVuSans-Bold-31" d="M 588 4666 
L 1931 4666 
L 3628 1466 
L 3628 4666 
L 4769 4666 
L 4769 0 
L 3425 0 
L 1728 3200 
L 1728 0 
L 588 0 
L 588 4666 
z
" transform="scale(0.015625)"/>
       <path id="DejaVuSans-Bold-4c" d="M 538 3500 
L 1656 3500 
L 1656 0 
L 538 0 
L 538 3500 
z
M 538 4863 
L 1656 4863 
L 1656 3950 
L 538 3950 
L 538 4863 
z
" transform="scale(0.015625)"/>
       <path id="DejaVuSans-Bold-46" d="M 3366 3391 
L 3366 2478 
Q 3138 2634 2908 2709 
Q 2678 2784 2431 2784 
Q 1963 2784 1702 2511 
Q 1441 2238 1441 1747 
Q 1441 1256 1702 982 
Q 1963 709 2431 709 
Q 2694 709 2930 787 
Q 3166 866 3366 1019 
L 3366 103 
Q 3103 6 2833 -42 
Q 2563 -91 2291 -91 
Q 1344 -91 809 395 
Q 275 881 275 1747 
Q 275 2613 809 3098 
Q 1344 3584 2291 3584 
Q 2566 3584 2833 3536 
Q 3100 3488 3366 3391 
z
" transform="scale(0.015625)"/>
       <path id="DejaVuSans-Bold-44" d="M 2106 1575 
Q 1756 1575 1579 1456 
Q 1403 1338 1403 1106 
Q 1403 894 1545 773 
Q 1688 653 1941 653 
Q 2256 653 2472 879 
Q 2688 1106 2688 1447 
L 2688 1575 
L 2106 1575 
z
M 3816 1997 
L 3816 0 
L 2688 0 
L 2688 519 
Q 2463 200 2181 54 
Q 1900 -91 1497 -91 
Q 953 -91 614 226 
Q 275 544 275 1050 
Q 275 1666 698 1953 
Q 1122 2241 2028 2241 
L 2688 2241 
L 2688 2328 
Q 2688 2594 2478 2717 
Q 2269 2841 1825 2841 
Q 1466 2841 1156 2769 
Q 847 2697 581 2553 
L 581 3406 
Q 941 3494 1303 3539 
Q 1666 3584 2028 3584 
Q 2975 3584 3395 3211 
Q 3816 2838 3816 1997 
z
" transform="scale(0.015625)"/>
       <path id="DejaVuSans-Bold-55" d="M 3138 2547 
Q 2991 2616 2845 2648 
Q 2700 2681 2553 2681 
Q 2122 2681 1889 2404 
Q 1656 2128 1656 1613 
L 1656 0 
L 538 0 
L 538 3500 
L 1656 3500 
L 1656 2925 
Q 1872 3269 2151 3426 
Q 2431 3584 2822 3584 
Q 2878 3584 2943 3579 
Q 3009 3575 3134 3559 
L 3138 2547 
z
" transform="scale(0.015625)"/>
       <path id="DejaVuSans-Bold-4a" d="M 2919 594 
Q 2688 288 2409 144 
Q 2131 0 1766 0 
Q 1125 0 706 504 
Q 288 1009 288 1791 
Q 288 2575 706 3076 
Q 1125 3578 1766 3578 
Q 2131 3578 2409 3434 
Q 2688 3291 2919 2981 
L 2919 3500 
L 4044 3500 
L 4044 353 
Q 4044 -491 3511 -936 
Q 2978 -1381 1966 -1381 
Q 1638 -1381 1331 -1331 
Q 1025 -1281 716 -1178 
L 716 -306 
Q 1009 -475 1290 -558 
Q 1572 -641 1856 -641 
Q 2406 -641 2662 -400 
Q 2919 -159 2919 353 
L 2919 594 
z
M 2181 2772 
Q 1834 2772 1640 2515 
Q 1447 2259 1447 1791 
Q 1447 1309 1634 1061 
Q 1822 813 2181 813 
Q 2531 813 2725 1069 
Q 2919 1325 2919 1791 
Q 2919 2259 2725 2515 
Q 2531 2772 2181 2772 
z
" transform="scale(0.015625)"/>
       <path id="DejaVuSans-Bold-58" d="M 500 1363 
L 500 3500 
L 1625 3500 
L 1625 3150 
Q 1625 2866 1622 2436 
Q 1619 2006 1619 1863 
Q 1619 1441 1641 1255 
Q 1663 1069 1716 984 
Q 1784 875 1895 815 
Q 2006 756 2150 756 
Q 2500 756 2700 1025 
Q 2900 1294 2900 1772 
L 2900 3500 
L 4019 3500 
L 4019 0 
L 2900 0 
L 2900 506 
Q 2647 200 2364 54 
Q 2081 -91 1741 -91 
Q 1134 -91 817 281 
Q 500 653 500 1363 
z
" transform="scale(0.015625)"/>
      </defs>
      <use xlink:href="#DejaVuSans-Bold-31"/>
      <use xlink:href="#DejaVuSans-Bold-4c" transform="translate(83.6875 0)"/>
      <use xlink:href="#DejaVuSans-Bold-46" transform="translate(117.96875 0)"/>
      <use xlink:href="#DejaVuSans-Bold-44" transform="translate(177.25 0)"/>
      <use xlink:href="#DejaVuSans-Bold-55" transform="translate(244.734375 0)"/>
      <use xlink:href="#DejaVuSans-Bold-44" transform="translate(294.046875 0)"/>
      <use xlink:href="#DejaVuSans-Bold-4a" transform="translate(361.53125 0)"/>
      <use xlink:href="#DejaVuSans-Bold-58" transform="translate(433.109375 0)"/>
      <use xlink:href="#DejaVuSans-Bold-44" transform="translate(504.296875 0)"/>
     </g>
    </g>
   </g>
   <g id="text_2">
    <g id="patch_3">
     <path d="M 106.313163 358.985092 
L 150.654882 358.985092 
Q 152.054882 358.985092 152.054882 357.585092 
L 152.054882 350.584545 
Q 152.054882 349.184545 150.654882 349.184545 
L 106.313163 349.184545 
Q 104.913163 349.184545 104.913163 350.584545 
L 104.913163 357.585092 
Q 104.913163 358.985092 106.313163 358.985092 
z
" clip-path="url(#ped356fc8e6)" style="fill: #ffffff; opacity: 0.6"/>
    </g>
    <g clip-path="url(#ped356fc8e6)">
     <!-- El Salvador -->
     <g style="fill: #1a252f" transform="translate(106.313163 355.903451) scale(0.07 -0.07)">
      <defs>
       <path id="DejaVuSans-Bold-28" d="M 588 4666 
L 3834 4666 
L 3834 3756 
L 1791 3756 
L 1791 2888 
L 3713 2888 
L 3713 1978 
L 1791 1978 
L 1791 909 
L 3903 909 
L 3903 0 
L 588 0 
L 588 4666 
z
" transform="scale(0.015625)"/>
       <path id="DejaVuSans-Bold-4f" d="M 538 4863 
L 1656 4863 
L 1656 0 
L 538 0 
L 538 4863 
z
" transform="scale(0.015625)"/>
       <path id="DejaVuSans-Bold-3" transform="scale(0.015625)"/>
       <path id="DejaVuSans-Bold-36" d="M 3834 4519 
L 3834 3531 
Q 3450 3703 3084 3790 
Q 2719 3878 2394 3878 
Q 1963 3878 1756 3759 
Q 1550 3641 1550 3391 
Q 1550 3203 1689 3098 
Q 1828 2994 2194 2919 
L 2706 2816 
Q 3484 2659 3812 2340 
Q 4141 2022 4141 1434 
Q 4141 663 3683 286 
Q 3225 -91 2284 -91 
Q 1841 -91 1394 -6 
Q 947 78 500 244 
L 500 1259 
Q 947 1022 1364 901 
Q 1781 781 2169 781 
Q 2563 781 2772 912 
Q 2981 1044 2981 1288 
Q 2981 1506 2839 1625 
Q 2697 1744 2272 1838 
L 1806 1941 
Q 1106 2091 782 2419 
Q 459 2747 459 3303 
Q 459 4000 909 4375 
Q 1359 4750 2203 4750 
Q 2588 4750 2994 4692 
Q 3400 4634 3834 4519 
z
" transform="scale(0.015625)"/>
       <path id="DejaVuSans-Bold-59" d="M 97 3500 
L 1216 3500 
L 2088 1081 
L 2956 3500 
L 4078 3500 
L 2700 0 
L 1472 0 
L 97 3500 
z
" transform="scale(0.015625)"/>
       <path id="DejaVuSans-Bold-47" d="M 2919 2988 
L 2919 4863 
L 4044 4863 
L 4044 0 
L 2919 0 
L 2919 506 
Q 2688 197 2409 53 
Q 2131 -91 1766 -91 
Q 1119 -91 703 423 
Q 288 938 288 1747 
Q 288 2556 703 3070 
Q 1119 3584 1766 3584 
Q 2128 3584 2408 3439 
Q 2688 3294 2919 2988 
z
M 2181 722 
Q 2541 722 2730 984 
Q 2919 1247 2919 1747 
Q 2919 2247 2730 2509 
Q 2541 2772 2181 2772 
Q 1825 2772 1636 2509 
Q 1447 2247 1447 1747 
Q 1447 1247 1636 984 
Q 1825 722 2181 722 
z
" transform="scale(0.015625)"/>
       <path id="DejaVuSans-Bold-52" d="M 2203 2784 
Q 1831 2784 1636 2517 
Q 1441 2250 1441 1747 
Q 1441 1244 1636 976 
Q 1831 709 2203 709 
Q 2569 709 2762 976 
Q 2956 1244 2956 1747 
Q 2956 2250 2762 2517 
Q 2569 2784 2203 2784 
z
M 2203 3584 
Q 3106 3584 3614 3096 
Q 4122 2609 4122 1747 
Q 4122 884 3614 396 
Q 3106 -91 2203 -91 
Q 1297 -91 786 396 
Q 275 884 275 1747 
Q 275 2609 786 3096 
Q 1297 3584 2203 3584 
z
" transform="scale(0.015625)"/>
      </defs>
      <use xlink:href="#DejaVuSans-Bold-28"/>
      <use xlink:href="#DejaVuSans-Bold-4f" transform="translate(68.3125 0)"/>
      <use xlink:href="#DejaVuSans-Bold-3" transform="translate(102.59375 0)"/>
      <use xlink:href="#DejaVuSans-Bold-36" transform="translate(137.40625 0)"/>
      <use xlink:href="#DejaVuSans-Bold-44" transform="translate(209.421875 0)"/>
      <use xlink:href="#DejaVuSans-Bold-4f" transform="translate(276.90625 0)"/>
      <use xlink:href="#DejaVuSans-Bold-59" transform="translate(311.1875 0)"/>
      <use xlink:href="#DejaVuSans-Bold-44" transform="translate(376.375 0)"/>
      <use xlink:href="#DejaVuSans-Bold-47" transform="translate(443.859375 0)"/>
      <use xlink:href="#DejaVuSans-Bold-52" transform="translate(515.4375 0)"/>
      <use xlink:href="#DejaVuSans-Bold-55" transform="translate(584.140625 0)"/>
     </g>
    </g>
   </g>
   <g id="text_3">
    <g id="patch_4">
     <path d="M 23.766408 235.392661 
L 66.454376 235.392661 
Q 67.854376 235.392661 67.854376 233.992661 
L 67.854376 226.992114 
Q 67.854376 225.592114 66.454376 225.592114 
L 23.766408 225.592114 
Q 22.366408 225.592114 22.366408 226.992114 
L 22.366408 233.992661 
Q 22.366408 235.392661 23.766408 235.392661 
z
" clip-path="url(#ped356fc8e6)" style="fill: #ffffff; opacity: 0.6"/>
    </g>
    <g clip-path="url(#ped356fc8e6)">
     <!-- Guatemala -->
     <g style="fill: #1a252f" transform="translate(23.766408 232.31102) scale(0.07 -0.07)">
      <defs>
       <path id="DejaVuSans-Bold-2a" d="M 4781 347 
Q 4331 128 3847 18 
Q 3363 -91 2847 -91 
Q 1681 -91 1000 561 
Q 319 1213 319 2328 
Q 319 3456 1012 4103 
Q 1706 4750 2913 4750 
Q 3378 4750 3804 4662 
Q 4231 4575 4609 4403 
L 4609 3438 
Q 4219 3659 3833 3768 
Q 3447 3878 3059 3878 
Q 2341 3878 1952 3476 
Q 1563 3075 1563 2328 
Q 1563 1588 1938 1184 
Q 2313 781 3003 781 
Q 3191 781 3352 804 
Q 3513 828 3641 878 
L 3641 1784 
L 2906 1784 
L 2906 2591 
L 4781 2591 
L 4781 347 
z
" transform="scale(0.015625)"/>
       <path id="DejaVuSans-Bold-57" d="M 1759 4494 
L 1759 3500 
L 2913 3500 
L 2913 2700 
L 1759 2700 
L 1759 1216 
Q 1759 972 1856 886 
Q 1953 800 2241 800 
L 2816 800 
L 2816 0 
L 1856 0 
Q 1194 0 917 276 
Q 641 553 641 1216 
L 641 2700 
L 84 2700 
L 84 3500 
L 641 3500 
L 641 4494 
L 1759 4494 
z
" transform="scale(0.015625)"/>
       <path id="DejaVuSans-Bold-48" d="M 4031 1759 
L 4031 1441 
L 1416 1441 
Q 1456 1047 1700 850 
Q 1944 653 2381 653 
Q 2734 653 3104 758 
Q 3475 863 3866 1075 
L 3866 213 
Q 3469 63 3072 -14 
Q 2675 -91 2278 -91 
Q 1328 -91 801 392 
Q 275 875 275 1747 
Q 275 2603 792 3093 
Q 1309 3584 2216 3584 
Q 3041 3584 3536 3087 
Q 4031 2591 4031 1759 
z
M 2881 2131 
Q 2881 2450 2695 2645 
Q 2509 2841 2209 2841 
Q 1884 2841 1681 2658 
Q 1478 2475 1428 2131 
L 2881 2131 
z
" transform="scale(0.015625)"/>
       <path id="DejaVuSans-Bold-50" d="M 3781 2919 
Q 3994 3244 4286 3414 
Q 4578 3584 4928 3584 
Q 5531 3584 5847 3212 
Q 6163 2841 6163 2131 
L 6163 0 
L 5038 0 
L 5038 1825 
Q 5041 1866 5042 1909 
Q 5044 1953 5044 2034 
Q 5044 2406 4934 2573 
Q 4825 2741 4581 2741 
Q 4263 2741 4089 2478 
Q 3916 2216 3909 1719 
L 3909 0 
L 2784 0 
L 2784 1825 
Q 2784 2406 2684 2573 
Q 2584 2741 2328 2741 
Q 2006 2741 1831 2477 
Q 1656 2213 1656 1722 
L 1656 0 
L 531 0 
L 531 3500 
L 1656 3500 
L 1656 2988 
Q 1863 3284 2130 3434 
Q 2397 3584 2719 3584 
Q 3081 3584 3359 3409 
Q 3638 3234 3781 2919 
z
" transform="scale(0.015625)"/>
      </defs>
      <use xlink:href="#DejaVuSans-Bold-2a"/>
      <use xlink:href="#DejaVuSans-Bold-58" transform="translate(82.078125 0)"/>
      <use xlink:href="#DejaVuSans-Bold-44" transform="translate(153.265625 0)"/>
      <use xlink:href="#DejaVuSans-Bold-57" transform="translate(220.75 0)"/>
      <use xlink:href="#DejaVuSans-Bold-48" transform="translate(268.546875 0)"/>
      <use xlink:href="#DejaVuSans-Bold-50" transform="translate(336.375 0)"/>
      <use xlink:href="#DejaVuSans-Bold-44" transform="translate(440.578125 0)"/>
      <use xlink:href="#DejaVuSans-Bold-4f" transform="translate(508.0625 0)"/>
      <use xlink:href="#DejaVuSans-Bold-44" transform="translate(542.34375 0)"/>
     </g>
    </g>
   </g>
   <g id="text_4">
    <!-- Honduras -->
    <g style="fill: #1a252f" transform="translate(243.719646 20.117344) scale(0.17 -0.17)">
     <defs>
      <path id="DejaVuSans-Bold-2b" d="M 588 4666 
L 1791 4666 
L 1791 2888 
L 3566 2888 
L 3566 4666 
L 4769 4666 
L 4769 0 
L 3566 0 
L 3566 1978 
L 1791 1978 
L 1791 0 
L 588 0 
L 588 4666 
z
" transform="scale(0.015625)"/>
      <path id="DejaVuSans-Bold-51" d="M 4056 2131 
L 4056 0 
L 2931 0 
L 2931 347 
L 2931 1631 
Q 2931 2084 2911 2256 
Q 2891 2428 2841 2509 
Q 2775 2619 2662 2680 
Q 2550 2741 2406 2741 
Q 2056 2741 1856 2470 
Q 1656 2200 1656 1722 
L 1656 0 
L 538 0 
L 538 3500 
L 1656 3500 
L 1656 2988 
Q 1909 3294 2193 3439 
Q 2478 3584 2822 3584 
Q 3428 3584 3742 3212 
Q 4056 2841 4056 2131 
z
" transform="scale(0.015625)"/>
      <path id="DejaVuSans-Bold-56" d="M 3272 3391 
L 3272 2541 
Q 2913 2691 2578 2766 
Q 2244 2841 1947 2841 
Q 1628 2841 1473 2761 
Q 1319 2681 1319 2516 
Q 1319 2381 1436 2309 
Q 1553 2238 1856 2203 
L 2053 2175 
Q 2913 2066 3209 1816 
Q 3506 1566 3506 1031 
Q 3506 472 3093 190 
Q 2681 -91 1863 -91 
Q 1516 -91 1145 -36 
Q 775 19 384 128 
L 384 978 
Q 719 816 1070 734 
Q 1422 653 1784 653 
Q 2113 653 2278 743 
Q 2444 834 2444 1013 
Q 2444 1163 2330 1236 
Q 2216 1309 1875 1350 
L 1678 1375 
Q 931 1469 631 1722 
Q 331 1975 331 2491 
Q 331 3047 712 3315 
Q 1094 3584 1881 3584 
Q 2191 3584 2531 3537 
Q 2872 3491 3272 3391 
z
" transform="scale(0.015625)"/>
     </defs>
     <use xlink:href="#DejaVuSans-Bold-2b"/>
     <use xlink:href="#DejaVuSans-Bold-52" transform="translate(83.6875 0)"/>
     <use xlink:href="#DejaVuSans-Bold-51" transform="translate(152.390625 0)"/>
     <use xlink:href="#DejaVuSans-Bold-47" transform="translate(223.578125 0)"/>
     <use xlink:href="#DejaVuSans-Bold-58" transform="translate(295.15625 0)"/>
     <use xlink:href="#DejaVuSans-Bold-55" transform="translate(366.34375 0)"/>
     <use xlink:href="#DejaVuSans-Bold-44" transform="translate(415.65625 0)"/>
     <use xlink:href="#DejaVuSans-Bold-56" transform="translate(483.140625 0)"/>
    </g>
   </g>
   <g id="line2d_1">
    <path d="M 236.407906 338.110397 
" clip-path="url(#ped356fc8e6)" style="fill: none; stroke: #ffffff; stroke-width: 1.5; stroke-linecap: square"/>
    <defs>
     <path id="mab79ca8692" d="M 0 2.5 
C 0.663008 2.5 1.29895 2.236584 1.767767 1.767767 
C 2.236584 1.29895 2.5 0.663008 2.5 0 
C 2.5 -0.663008 2.236584 -1.29895 1.767767 -1.767767 
C 1.29895 -2.236584 0.663008 -2.5 0 -2.5 
C -0.663008 -2.5 -1.29895 -2.236584 -1.767767 -1.767767 
C -2.236584 -1.29895 -2.5 -0.663008 -2.5 0 
C -2.5 0.663008 -2.236584 1.29895 -1.767767 1.767767 
C -1.29895 2.236584 -0.663008 2.5 0 2.5 
z
" style="stroke: #1a252f; stroke-width: 0.8"/>
    </defs>
    <g clip-path="url(#ped356fc8e6)">
     <use xlink:href="#mab79ca8692" x="236.407906" y="338.110397" style="fill: #ffffff; stroke: #1a252f; stroke-width: 0.8"/>
    </g>
   </g>
   <g id="text_5">
    <g clip-path="url(#ped356fc8e6)">
     <!-- Tegucigalpa -->
     <g style="fill: #ffffff" transform="translate(248.131369 340.058932) scale(0.075 -0.075)">
      <defs>
       <path id="DejaVuSans-Bold-37" d="M 31 4666 
L 4331 4666 
L 4331 3756 
L 2784 3756 
L 2784 0 
L 1581 0 
L 1581 3756 
L 31 3756 
L 31 4666 
z
" transform="scale(0.015625)"/>
       <path id="DejaVuSans-Bold-53" d="M 1656 506 
L 1656 -1331 
L 538 -1331 
L 538 3500 
L 1656 3500 
L 1656 2988 
Q 1888 3294 2169 3439 
Q 2450 3584 2816 3584 
Q 3463 3584 3878 3070 
Q 4294 2556 4294 1747 
Q 4294 938 3878 423 
Q 3463 -91 2816 -91 
Q 2450 -91 2169 54 
Q 1888 200 1656 506 
z
M 2400 2772 
Q 2041 2772 1848 2508 
Q 1656 2244 1656 1747 
Q 1656 1250 1848 986 
Q 2041 722 2400 722 
Q 2759 722 2948 984 
Q 3138 1247 3138 1747 
Q 3138 2247 2948 2509 
Q 2759 2772 2400 2772 
z
" transform="scale(0.015625)"/>
      </defs>
      <use xlink:href="#DejaVuSans-Bold-37"/>
      <use xlink:href="#DejaVuSans-Bold-48" transform="translate(54.9375 0)"/>
      <use xlink:href="#DejaVuSans-Bold-4a" transform="translate(122.765625 0)"/>
      <use xlink:href="#DejaVuSans-Bold-58" transform="translate(194.34375 0)"/>
      <use xlink:href="#DejaVuSans-Bold-46" transform="translate(265.53125 0)"/>
      <use xlink:href="#DejaVuSans-Bold-4c" transform="translate(324.8125 0)"/>
      <use xlink:href="#DejaVuSans-Bold-4a" transform="translate(359.09375 0)"/>
      <use xlink:href="#DejaVuSans-Bold-44" transform="translate(430.671875 0)"/>
      <use xlink:href="#DejaVuSans-Bold-4f" transform="translate(498.15625 0)"/>
      <use xlink:href="#DejaVuSans-Bold-53" transform="translate(532.4375 0)"/>
      <use xlink:href="#DejaVuSans-Bold-44" transform="translate(604.015625 0)"/>
     </g>
    </g>
   </g>
   <g id="legend_1">
    <g id="patch_5">
     <path d="M 13.5 498.657344 
L 88.097344 498.657344 
Q 89.897344 498.657344 89.897344 496.857344 
L 89.897344 470.755937 
Q 89.897344 468.955937 88.097344 468.955937 
L 13.5 468.955937 
Q 11.7 468.955937 11.7 470.755937 
L 11.7 496.857344 
Q 11.7 498.657344 13.5 498.657344 
z
" style="fill: #ffffff; opacity: 0.85; stroke: #cccccc; stroke-linejoin: miter"/>
    </g>
    <g id="patch_6">
     <path d="M 15.3 479.394531 
L 33.3 479.394531 
L 33.3 473.094531 
L 15.3 473.094531 
z
" style="fill: #e74c3c; stroke: #888888; stroke-linejoin: miter"/>
    </g>
    <g id="text_6">
     <!-- Honduras -->
     <g transform="translate(40.5 479.394531) scale(0.09 -0.09)">
      <defs>
       <path id="DejaVuSans-2b" d="M 628 4666 
L 1259 4666 
L 1259 2753 
L 3553 2753 
L 3553 4666 
L 4184 4666 
L 4184 0 
L 3553 0 
L 3553 2222 
L 1259 2222 
L 1259 0 
L 628 0 
L 628 4666 
z
" transform="scale(0.015625)"/>
       <path id="DejaVuSans-52" d="M 1959 3097 
Q 1497 3097 1228 2736 
Q 959 2375 959 1747 
Q 959 1119 1226 758 
Q 1494 397 1959 397 
Q 2419 397 2687 759 
Q 2956 1122 2956 1747 
Q 2956 2369 2687 2733 
Q 2419 3097 1959 3097 
z
M 1959 3584 
Q 2709 3584 3137 3096 
Q 3566 2609 3566 1747 
Q 3566 888 3137 398 
Q 2709 -91 1959 -91 
Q 1206 -91 779 398 
Q 353 888 353 1747 
Q 353 2609 779 3096 
Q 1206 3584 1959 3584 
z
" transform="scale(0.015625)"/>
       <path id="DejaVuSans-51" d="M 3513 2113 
L 3513 0 
L 2938 0 
L 2938 2094 
Q 2938 2591 2744 2837 
Q 2550 3084 2163 3084 
Q 1697 3084 1428 2787 
Q 1159 2491 1159 1978 
L 1159 0 
L 581 0 
L 581 3500 
L 1159 3500 
L 1159 2956 
Q 1366 3272 1645 3428 
Q 1925 3584 2291 3584 
Q 2894 3584 3203 3211 
Q 3513 2838 3513 2113 
z
" transform="scale(0.015625)"/>
       <path id="DejaVuSans-47" d="M 2906 2969 
L 2906 4863 
L 3481 4863 
L 3481 0 
L 2906 0 
L 2906 525 
Q 2725 213 2448 61 
Q 2172 -91 1784 -91 
Q 1150 -91 751 415 
Q 353 922 353 1747 
Q 353 2572 751 3078 
Q 1150 3584 1784 3584 
Q 2172 3584 2448 3432 
Q 2725 3281 2906 2969 
z
M 947 1747 
Q 947 1113 1208 752 
Q 1469 391 1925 391 
Q 2381 391 2643 752 
Q 2906 1113 2906 1747 
Q 2906 2381 2643 2742 
Q 2381 3103 1925 3103 
Q 1469 3103 1208 2742 
Q 947 2381 947 1747 
z
" transform="scale(0.015625)"/>
       <path id="DejaVuSans-58" d="M 544 1381 
L 544 3500 
L 1119 3500 
L 1119 1403 
Q 1119 906 1312 657 
Q 1506 409 1894 409 
Q 2359 409 2629 706 
Q 2900 1003 2900 1516 
L 2900 3500 
L 3475 3500 
L 3475 0 
L 2900 0 
L 2900 538 
Q 2691 219 2414 64 
Q 2138 -91 1772 -91 
Q 1169 -91 856 284 
Q 544 659 544 1381 
z
M 1991 3584 
L 1991 3584 
z
" transform="scale(0.015625)"/>
       <path id="DejaVuSans-55" d="M 2631 2963 
Q 2534 3019 2420 3045 
Q 2306 3072 2169 3072 
Q 1681 3072 1420 2755 
Q 1159 2438 1159 1844 
L 1159 0 
L 581 0 
L 581 3500 
L 1159 3500 
L 1159 2956 
Q 1341 3275 1631 3429 
Q 1922 3584 2338 3584 
Q 2397 3584 2469 3576 
Q 2541 3569 2628 3553 
L 2631 2963 
z
" transform="scale(0.015625)"/>
       <path id="DejaVuSans-44" d="M 2194 1759 
Q 1497 1759 1228 1600 
Q 959 1441 959 1056 
Q 959 750 1161 570 
Q 1363 391 1709 391 
Q 2188 391 2477 730 
Q 2766 1069 2766 1631 
L 2766 1759 
L 2194 1759 
z
M 3341 1997 
L 3341 0 
L 2766 0 
L 2766 531 
Q 2569 213 2275 61 
Q 1981 -91 1556 -91 
Q 1019 -91 701 211 
Q 384 513 384 1019 
Q 384 1609 779 1909 
Q 1175 2209 1959 2209 
L 2766 2209 
L 2766 2266 
Q 2766 2663 2505 2880 
Q 2244 3097 1772 3097 
Q 1472 3097 1187 3025 
Q 903 2953 641 2809 
L 641 3341 
Q 956 3463 1253 3523 
Q 1550 3584 1831 3584 
Q 2591 3584 2966 3190 
Q 3341 2797 3341 1997 
z
" transform="scale(0.015625)"/>
       <path id="DejaVuSans-56" d="M 2834 3397 
L 2834 2853 
Q 2591 2978 2328 3040 
Q 2066 3103 1784 3103 
Q 1356 3103 1142 2972 
Q 928 2841 928 2578 
Q 928 2378 1081 2264 
Q 1234 2150 1697 2047 
L 1894 2003 
Q 2506 1872 2764 1633 
Q 3022 1394 3022 966 
Q 3022 478 2636 193 
Q 2250 -91 1575 -91 
Q 1294 -91 989 -36 
Q 684 19 347 128 
L 347 722 
Q 666 556 975 473 
Q 1284 391 1588 391 
Q 1994 391 2212 530 
Q 2431 669 2431 922 
Q 2431 1156 2273 1281 
Q 2116 1406 1581 1522 
L 1381 1569 
Q 847 1681 609 1914 
Q 372 2147 372 2553 
Q 372 3047 722 3315 
Q 1072 3584 1716 3584 
Q 2034 3584 2315 3537 
Q 2597 3491 2834 3397 
z
" transform="scale(0.015625)"/>
      </defs>
      <use xlink:href="#DejaVuSans-2b"/>
      <use xlink:href="#DejaVuSans-52" transform="translate(75.203125 0)"/>
      <use xlink:href="#DejaVuSans-51" transform="translate(136.390625 0)"/>
      <use xlink:href="#DejaVuSans-47" transform="translate(199.765625 0)"/>
      <use xlink:href="#DejaVuSans-58" transform="translate(263.25 0)"/>
      <use xlink:href="#DejaVuSans-55" transform="translate(326.625 0)"/>
      <use xlink:href="#DejaVuSans-44" transform="translate(367.734375 0)"/>
      <use xlink:href="#DejaVuSans-56" transform="translate(429.015625 0)"/>
     </g>
    </g>
    <g id="patch_7">
     <path d="M 15.3 492.895234 
L 33.3 492.895234 
L 33.3 486.595234 
L 15.3 486.595234 
z
" style="fill: #bdc3c7; stroke: #888888; stroke-linejoin: miter"/>
    </g>
    <g id="text_7">
     <!-- Neighbors -->
     <g transform="translate(40.5 492.895234) scale(0.09 -0.09)">
      <defs>
       <path id="DejaVuSans-31" d="M 628 4666 
L 1478 4666 
L 3547 763 
L 3547 4666 
L 4159 4666 
L 4159 0 
L 3309 0 
L 1241 3903 
L 1241 0 
L 628 0 
L 628 4666 
z
" transform="scale(0.015625)"/>
       <path id="DejaVuSans-48" d="M 3597 1894 
L 3597 1613 
L 953 1613 
Q 991 1019 1311 708 
Q 1631 397 2203 397 
Q 2534 397 2845 478 
Q 3156 559 3463 722 
L 3463 178 
Q 3153 47 2828 -22 
Q 2503 -91 2169 -91 
Q 1331 -91 842 396 
Q 353 884 353 1716 
Q 353 2575 817 3079 
Q 1281 3584 2069 3584 
Q 2775 3584 3186 3129 
Q 3597 2675 3597 1894 
z
M 3022 2063 
Q 3016 2534 2758 2815 
Q 2500 3097 2075 3097 
Q 1594 3097 1305 2825 
Q 1016 2553 972 2059 
L 3022 2063 
z
" transform="scale(0.015625)"/>
       <path id="DejaVuSans-4c" d="M 603 3500 
L 1178 3500 
L 1178 0 
L 603 0 
L 603 3500 
z
M 603 4863 
L 1178 4863 
L 1178 4134 
L 603 4134 
L 603 4863 
z
" transform="scale(0.015625)"/>
       <path id="DejaVuSans-4a" d="M 2906 1791 
Q 2906 2416 2648 2759 
Q 2391 3103 1925 3103 
Q 1463 3103 1205 2759 
Q 947 2416 947 1791 
Q 947 1169 1205 825 
Q 1463 481 1925 481 
Q 2391 481 2648 825 
Q 2906 1169 2906 1791 
z
M 3481 434 
Q 3481 -459 3084 -895 
Q 2688 -1331 1869 -1331 
Q 1566 -1331 1297 -1286 
Q 1028 -1241 775 -1147 
L 775 -588 
Q 1028 -725 1275 -790 
Q 1522 -856 1778 -856 
Q 2344 -856 2625 -561 
Q 2906 -266 2906 331 
L 2906 616 
Q 2728 306 2450 153 
Q 2172 0 1784 0 
Q 1141 0 747 490 
Q 353 981 353 1791 
Q 353 2603 747 3093 
Q 1141 3584 1784 3584 
Q 2172 3584 2450 3431 
Q 2728 3278 2906 2969 
L 2906 3500 
L 3481 3500 
L 3481 434 
z
" transform="scale(0.015625)"/>
       <path id="DejaVuSans-4b" d="M 3513 2113 
L 3513 0 
L 2938 0 
L 2938 2094 
Q 2938 2591 2744 2837 
Q 2550 3084 2163 3084 
Q 1697 3084 1428 2787 
Q 1159 2491 1159 1978 
L 1159 0 
L 581 0 
L 581 4863 
L 1159 4863 
L 1159 2956 
Q 1366 3272 1645 3428 
Q 1925 3584 2291 3584 
Q 2894 3584 3203 3211 
Q 3513 2838 3513 2113 
z
" transform="scale(0.015625)"/>
       <path id="DejaVuSans-45" d="M 3116 1747 
Q 3116 2381 2855 2742 
Q 2594 3103 2138 3103 
Q 1681 3103 1420 2742 
Q 1159 2381 1159 1747 
Q 1159 1113 1420 752 
Q 1681 391 2138 391 
Q 2594 391 2855 752 
Q 3116 1113 3116 1747 
z
M 1159 2969 
Q 1341 3281 1617 3432 
Q 1894 3584 2278 3584 
Q 2916 3584 3314 3078 
Q 3713 2572 3713 1747 
Q 3713 922 3314 415 
Q 2916 -91 2278 -91 
Q 1894 -91 1617 61 
Q 1341 213 1159 525 
L 1159 0 
L 581 0 
L 581 4863 
L 1159 4863 
L 1159 2969 
z
" transform="scale(0.015625)"/>
      </defs>
      <use xlink:href="#DejaVuSans-31"/>
      <use xlink:href="#DejaVuSans-48" transform="translate(74.8125 0)"/>
      <use xlink:href="#DejaVuSans-4c" transform="translate(136.34375 0)"/>
      <use xlink:href="#DejaVuSans-4a" transform="translate(164.125 0)"/>
      <use xlink:href="#DejaVuSans-4b" transform="translate(227.609375 0)"/>
      <use xlink:href="#DejaVuSans-45" transform="translate(290.984375 0)"/>
      <use xlink:href="#DejaVuSans-52" transform="translate(354.46875 0)"/>
      <use xlink:href="#DejaVuSans-55" transform="translate(415.65625 0)"/>
      <use xlink:href="#DejaVuSans-56" transform="translate(456.765625 0)"/>
     </g>
    </g>
   </g>
  </g>
 </g>
 <defs>
  <clipPath id="ped356fc8e6">
   <rect x="7.2" y="30.117344" width="565.290854" height="473.04"/>
  </clipPath>
 </defs>
</svg>
