<?xml version="1.0" encoding="utf-8" standalone="no"?>
<!DOCTYPE svg PUBLIC "-//W3C//DTD SVG 1.1//EN"
  "http://www.w3.org/Graphics/SVG/1.1/DTD/svg11.dtd">
<svg xmlns:xlink="http://www.w3.org/1999/xlink" width="672.310595pt" height="510.357344pt" viewBox="0 0 672.310595 510.357344" xmlns="http://www.w3.org/2000/svg" version="1.1">
 <metadata>
  <rdf:RDF xmlns:dc="http://purl.org/dc/elements/1.1/" xmlns:cc="http://creativecommons.org/ns#" xmlns:rdf="http://www.w3.org/1999/02/22-rdf-syntax-ns#">
   <cc:Work>
    <dc:type rdf:resource="http://purl.org/dc/dcmitype/StillImage"/>
    <dc:date>2026-06-19T08:14:16.484639</dc:date>
    <dc:format>image/svg+xml</dc:format>
    <dc:creator>
     <cc:Agent>
      <dc:title>Matplotlib v3.11.0, https://matplotlib.org/</dc:title>
     </cc:Agent>
    </dc:creator>
   </cc:Work>
  </rdf:RDF>
 </metadata>
 <defs>
  <style type="text/css">*{stroke-linejoin: round; stroke-linecap: butt}</style>
 </defs>
 <g id="figure_1">
  <g id="patch_1">
   <path d="M 0 510.357344 
L 672.310595 510.357344 
L 672.310595 0 
L 0 0 
z
" style="fill: #d6eaf8"/>
  </g>
  <g id="axes_1">
   <g id="PatchCollection_1">
    <defs>
     <path id="m76f0d41f46" d="M 169.35843 -268.129619 
L 170.457586 -269.485709 
L 172.655897 -271.113017 
L 173.755053 -272.469107 
L 173.755053 -274.367633 
L 173.755053 -279.249557 
L 174.304631 -280.605647 
L 175.403786 -282.504173 
L 175.403786 -283.860263 
L 175.953364 -284.402699 
L 178.151675 -284.673917 
L 179.800409 -285.487571 
L 180.899564 -287.386096 
L 182.548298 -288.742186 
L 185.296187 -287.928532 
L 186.395343 -292.539238 
L 191.341543 -296.878726 
L 196.837321 -298.506034 
L 200.684366 -295.522636 
L 202.882677 -298.234816 
L 205.630566 -298.234816 
L 208.378455 -297.149944 
L 211.675922 -296.607508 
L 221.568323 -297.69238 
L 224.86579 -297.69238 
L 226.514523 -297.149944 
L 227.613679 -296.607508 
L 229.262412 -296.33629 
L 230.911146 -296.607508 
L 232.559879 -297.69238 
L 232.559879 -298.777252 
L 232.559879 -299.862124 
L 233.659035 -301.489432 
L 236.956502 -306.100138 
L 238.605235 -307.456228 
L 241.353124 -308.812318 
L 247.39848 -309.625972 
L 254.542992 -309.625972 
L 267.183282 -306.913792 
L 277.62526 -304.47283 
L 292.463861 -304.201612 
L 299.058795 -302.574304 
L 309.500773 -301.76065 
L 313.897396 -300.675778 
L 316.645285 -298.777252 
L 321.591485 -300.133342 
L 329.285575 -300.133342 
L 337.529242 -299.319688 
L 343.02502 -297.69238 
L 343.574598 -297.149944 
L 344.124176 -294.9802 
L 345.223331 -294.437764 
L 345.772909 -294.437764 
L 346.872065 -294.708982 
L 347.421643 -295.251418 
L 347.421643 -295.522636 
L 354.016577 -294.437764 
L 355.115732 -293.895328 
L 357.314043 -291.725584 
L 358.413199 -291.183148 
L 363.359399 -290.91193 
L 368.3056 -291.725584 
L 371.053489 -292.26802 
L 373.2518 -291.725584 
L 376.549267 -290.369494 
L 378.198 -290.098276 
L 386.991245 -290.369494 
L 388.639979 -291.454366 
L 391.387868 -291.725584 
L 393.586179 -291.454366 
L 395.234913 -291.183148 
L 396.334068 -289.827058 
L 395.784491 -287.928532 
L 395.784491 -285.758789 
L 397.433224 -284.402699 
L 402.929002 -280.876865 
L 407.875202 -278.164685 
L 408.42478 -276.537377 
L 410.073514 -272.197889 
L 410.623092 -270.841799 
L 412.271825 -270.028145 
L 415.019714 -269.214491 
L 423.263381 -268.672055 
L 425.461693 -268.129619 
L 427.660004 -266.773529 
L 430.957471 -264.061349 
L 433.155782 -262.434041 
L 435.903671 -261.620387 
L 440.849871 -261.891605 
L 443.597761 -259.993079 
L 444.147338 -259.993079 
L 444.696916 -259.179425 
L 445.796072 -258.636989 
L 446.895227 -258.094554 
L 458.436362 -258.094554 
L 459.535517 -257.823336 
L 460.634673 -255.382374 
L 461.184251 -254.839938 
L 472.175807 -252.670194 
L 478.221163 -250.50045 
L 478.770741 -247.245834 
L 483.167363 -242.906346 
L 486.46483 -238.024422 
L 491.41103 -227.446921 
L 492.510186 -224.734741 
L 493.609342 -221.751343 
L 496.357231 -217.954291 
L 499.10512 -214.970893 
L 502.952165 -211.716277 
L 501.303431 -210.631405 
L 493.609342 -208.461661 
L 488.113564 -205.478263 
L 484.816097 -204.664609 
L 482.068208 -205.207045 
L 483.167363 -206.020699 
L 483.716941 -206.563135 
L 484.266519 -208.461661 
L 481.51863 -207.648007 
L 479.320319 -203.850955 
L 476.572429 -203.037301 
L 473.82454 -203.850955 
L 471.076651 -204.935827 
L 468.328762 -205.749481 
L 463.93214 -204.122173 
L 451.841428 -203.037301 
L 443.597761 -204.393391 
L 442.498605 -204.122173 
L 440.849871 -204.122173 
L 439.750716 -204.122173 
L 438.101982 -205.207045 
L 437.552405 -206.834353 
L 437.002827 -208.461661 
L 437.002827 -210.088969 
L 435.354093 -210.902623 
L 434.254938 -211.173841 
L 433.70536 -212.258713 
L 432.606204 -213.072367 
L 432.056626 -214.157239 
L 427.110426 -215.242111 
L 426.01127 -215.784547 
L 423.812959 -216.869419 
L 420.515492 -216.598201 
L 415.019714 -215.242111 
L 412.821403 -214.970893 
L 404.577736 -215.242111 
L 404.577736 -216.326983 
L 421.614648 -217.411855 
L 420.515492 -218.225509 
L 419.965914 -219.039163 
L 417.767603 -219.581599 
L 413.370981 -219.581599 
L 410.073514 -219.581599 
L 406.776047 -221.480125 
L 404.028158 -223.107433 
L 402.379424 -224.192305 
L 401.829847 -222.564997 
L 400.730691 -220.937689 
L 399.081957 -218.767945 
L 398.53238 -217.411855 
L 396.334068 -217.683073 
L 395.784491 -216.598201 
L 395.234913 -212.801149 
L 392.487024 -203.037301 
L 390.288712 -200.325122 
L 388.090401 -198.697814 
L 385.89209 -198.697814 
L 384.792934 -199.24025 
L 383.693779 -200.053904 
L 382.045045 -200.867557 
L 373.2518 -200.867557 
L 373.2518 -201.952429 
L 376.549267 -203.037301 
L 374.900534 -204.393391 
L 372.702222 -207.376789 
L 371.053489 -208.461661 
L 369.404755 -209.275315 
L 365.008133 -209.817751 
L 361.161088 -208.461661 
L 357.314043 -206.291917 
L 355.115732 -201.409993 
L 354.566154 -199.782686 
L 355.66531 -195.443198 
L 354.566154 -194.900762 
L 352.367843 -193.81589 
L 351.268687 -193.273454 
L 351.818265 -192.4598 
L 352.367843 -190.832492 
L 352.367843 -189.74762 
L 350.71911 -190.561274 
L 349.070376 -190.561274 
L 347.421643 -190.018838 
L 346.322487 -188.933966 
L 349.070376 -187.03544 
L 351.818265 -186.493004 
L 354.566154 -186.764222 
L 357.863621 -187.849094 
L 359.512355 -181.61108 
L 358.962777 -178.8989 
L 355.115732 -177.814028 
L 351.818265 -177.814028 
L 349.070376 -178.627682 
L 346.322487 -179.983772 
L 333.13262 -191.917364 
L 330.38473 -195.17198 
L 318.843596 -201.952429 
L 315.546129 -203.308519 
L 311.699085 -203.579737 
L 308.951196 -202.494865 
L 305.653729 -200.325122 
L 302.356262 -200.053904 
L 295.761328 -201.952429 
L 289.166394 -203.037301 
L 268.832015 -201.952429 
L 267.732859 -202.223647 
L 264.435393 -204.393391 
L 258.939614 -206.834353 
L 257.840459 -207.919225 
L 257.290881 -209.275315 
L 255.642147 -213.343585 
L 255.09257 -214.699675 
L 254.542992 -215.784547 
L 251.795103 -216.598201 
L 251.245525 -217.411855 
L 250.695947 -220.666471 
L 251.245525 -224.734741 
L 250.146369 -228.260575 
L 246.299325 -229.616664 
L 235.857346 -229.616664 
L 233.109457 -230.701536 
L 229.81199 -239.109294 
L 228.163257 -240.736602 
L 227.064101 -241.550256 
L 225.415368 -242.36391 
L 224.316212 -242.635128 
L 223.217056 -243.72 
L 222.667479 -245.618526 
L 221.568323 -249.415578 
L 218.820434 -255.111156 
L 214.973389 -257.2809 
L 203.981833 -257.009682 
L 196.837321 -258.094554 
L 194.63901 -258.094554 
L 192.990276 -257.009682 
L 191.891121 -256.196028 
L 190.791965 -256.467246 
L 186.94492 -258.094554 
L 184.746609 -258.636989 
L 179.800409 -259.993079 
L 177.05252 -260.264297 
L 174.304631 -261.077951 
L 172.106319 -262.705259 
L 169.908008 -265.146221 
z
" style="stroke: #ffffff; stroke-width: 0.6"/>
    </defs>
    <g clip-path="url(#p54a9578ed9)">
     <use xlink:href="#m76f0d41f46" x="0" y="510.357344" style="fill: #e74c3c; stroke: #ffffff; stroke-width: 0.6"/>
    </g>
   </g>
   <g id="text_1">
    <!-- Jamaica -->
    <g style="fill: #1a252f" transform="translate(298.974438 20.117344) scale(0.17 -0.17)">
     <defs>
      <path id="DejaVuSans-Bold-2d" d="M 588 4666 
L 1791 4666 
L 1791 453 
Q 1791 -419 1317 -850 
Q 844 -1281 -116 -1281 
L -359 -1281 
L -359 -372 
L -172 -372 
Q 203 -372 395 -162 
Q 588 47 588 453 
L 588 4666 
z
" transform="scale(0.015625)"/>
      <path id="DejaVuSans-Bold-44" d="M 2106 1575 
Q 1756 1575 1579 1456 
Q 1403 1338 1403 1106 
Q 1403 894 1545 773 
Q 1688 653 1941 653 
Q 2256 653 2472 879 
Q 2688 1106 2688 1447 
L 2688 1575 
L 2106 1575 
z
M 3816 1997 
L 3816 0 
L 2688 0 
L 2688 519 
Q 2463 200 2181 54 
Q 1900 -91 1497 -91 
Q 953 -91 614 226 
Q 275 544 275 1050 
Q 275 1666 698 1953 
Q 1122 2241 2028 2241 
L 2688 2241 
L 2688 2328 
Q 2688 2594 2478 2717 
Q 2269 2841 1825 2841 
Q 1466 2841 1156 2769 
Q 847 2697 581 2553 
L 581 3406 
Q 941 3494 1303 3539 
Q 1666 3584 2028 3584 
Q 2975 3584 3395 3211 
Q 3816 2838 3816 1997 
z
" transform="scale(0.015625)"/>
      <path id="DejaVuSans-Bold-50" d="M 3781 2919 
Q 3994 3244 4286 3414 
Q 4578 3584 4928 3584 
Q 5531 3584 5847 3212 
Q 6163 2841 6163 2131 
L 6163 0 
L 5038 0 
L 5038 1825 
Q 5041 1866 5042 1909 
Q 5044 1953 5044 2034 
Q 5044 2406 4934 2573 
Q 4825 2741 4581 2741 
Q 4263 2741 4089 2478 
Q 3916 2216 3909 1719 
L 3909 0 
L 2784 0 
L 2784 1825 
Q 2784 2406 2684 2573 
Q 2584 2741 2328 2741 
Q 2006 2741 1831 2477 
Q 1656 2213 1656 1722 
L 1656 0 
L 531 0 
L 531 3500 
L 1656 3500 
L 1656 2988 
Q 1863 3284 2130 3434 
Q 2397 3584 2719 3584 
Q 3081 3584 3359 3409 
Q 3638 3234 3781 2919 
z
" transform="scale(0.015625)"/>
      <path id="DejaVuSans-Bold-4c" d="M 538 3500 
L 1656 3500 
L 1656 0 
L 538 0 
L 538 3500 
z
M 538 4863 
L 1656 4863 
L 1656 3950 
L 538 3950 
L 538 4863 
z
" transform="scale(0.015625)"/>
      <path id="DejaVuSans-Bold-46" d="M 3366 3391 
L 3366 2478 
Q 3138 2634 2908 2709 
Q 2678 2784 2431 2784 
Q 1963 2784 1702 2511 
Q 1441 2238 1441 1747 
Q 1441 1256 1702 982 
Q 1963 709 2431 709 
Q 2694 709 2930 787 
Q 3166 866 3366 1019 
L 3366 103 
Q 3103 6 2833 -42 
Q 2563 -91 2291 -91 
Q 1344 -91 809 395 
Q 275 881 275 1747 
Q 275 2613 809 3098 
Q 1344 3584 2291 3584 
Q 2566 3584 2833 3536 
Q 3100 3488 3366 3391 
z
" transform="scale(0.015625)"/>
     </defs>
     <use xlink:href="#DejaVuSans-Bold-2d"/>
     <use xlink:href="#DejaVuSans-Bold-44" transform="translate(37.203125 0)"/>
     <use xlink:href="#DejaVuSans-Bold-50" transform="translate(104.6875 0)"/>
     <use xlink:href="#DejaVuSans-Bold-44" transform="translate(208.890625 0)"/>
     <use xlink:href="#DejaVuSans-Bold-4c" transform="translate(276.375 0)"/>
     <use xlink:href="#DejaVuSans-Bold-46" transform="translate(310.65625 0)"/>
     <use xlink:href="#DejaVuSans-Bold-44" transform="translate(369.9375 0)"/>
    </g>
   </g>
   <g id="legend_1">
    <g id="patch_2">
     <path d="M 13.5 498.657344 
L 88.097344 498.657344 
Q 89.897344 498.657344 89.897344 496.857344 
L 89.897344 470.755937 
Q 89.897344 468.955937 88.097344 468.955937 
L 13.5 468.955937 
Q 11.7 468.955937 11.7 470.755937 
L 11.7 496.857344 
Q 11.7 498.657344 13.5 498.657344 
z
" style="fill: #ffffff; opacity: 0.85; stroke: #cccccc; stroke-linejoin: miter"/>
    </g>
    <g id="patch_3">
     <path d="M 15.3 479.394531 
L 33.3 479.394531 
L 33.3 473.094531 
L 15.3 473.094531 
z
" style="fill: #e74c3c; stroke: #888888; stroke-linejoin: miter"/>
    </g>
    <g id="text_2">
     <!-- Jamaica -->
     <g transform="translate(40.5 479.394531) scale(0.09 -0.09)">
      <defs>
       <path id="DejaVuSans-2d" d="M 628 4666 
L 1259 4666 
L 1259 325 
Q 1259 -519 939 -900 
Q 619 -1281 -91 -1281 
L -331 -1281 
L -331 -750 
L -134 -750 
Q 284 -750 456 -515 
Q 628 -281 628 325 
L 628 4666 
z
" transform="scale(0.015625)"/>
       <path id="DejaVuSans-44" d="M 2194 1759 
Q 1497 1759 1228 1600 
Q 959 1441 959 1056 
Q 959 750 1161 570 
Q 1363 391 1709 391 
Q 2188 391 2477 730 
Q 2766 1069 2766 1631 
L 2766 1759 
L 2194 1759 
z
M 3341 1997 
L 3341 0 
L 2766 0 
L 2766 531 
Q 2569 213 2275 61 
Q 1981 -91 1556 -91 
Q 1019 -91 701 211 
Q 384 513 384 1019 
Q 384 1609 779 1909 
Q 1175 2209 1959 2209 
L 2766 2209 
L 2766 2266 
Q 2766 2663 2505 2880 
Q 2244 3097 1772 3097 
Q 1472 3097 1187 3025 
Q 903 2953 641 2809 
L 641 3341 
Q 956 3463 1253 3523 
Q 1550 3584 1831 3584 
Q 2591 3584 2966 3190 
Q 3341 2797 3341 1997 
z
" transform="scale(0.015625)"/>
       <path id="DejaVuSans-50" d="M 3328 2828 
Q 3544 3216 3844 3400 
Q 4144 3584 4550 3584 
Q 5097 3584 5394 3201 
Q 5691 2819 5691 2113 
L 5691 0 
L 5113 0 
L 5113 2094 
Q 5113 2597 4934 2840 
Q 4756 3084 4391 3084 
Q 3944 3084 3684 2787 
Q 3425 2491 3425 1978 
L 3425 0 
L 2847 0 
L 2847 2094 
Q 2847 2600 2669 2842 
Q 2491 3084 2119 3084 
Q 1678 3084 1418 2786 
Q 1159 2488 1159 1978 
L 1159 0 
L 581 0 
L 581 3500 
L 1159 3500 
L 1159 2956 
Q 1356 3278 1631 3431 
Q 1906 3584 2284 3584 
Q 2666 3584 2933 3390 
Q 3200 3197 3328 2828 
z
" transform="scale(0.015625)"/>
       <path id="DejaVuSans-4c" d="M 603 3500 
L 1178 3500 
L 1178 0 
L 603 0 
L 603 3500 
z
M 603 4863 
L 1178 4863 
L 1178 4134 
L 603 4134 
L 603 4863 
z
" transform="scale(0.015625)"/>
       <path id="DejaVuSans-46" d="M 3122 3366 
L 3122 2828 
Q 2878 2963 2633 3030 
Q 2388 3097 2138 3097 
Q 1578 3097 1268 2742 
Q 959 2388 959 1747 
Q 959 1106 1268 751 
Q 1578 397 2138 397 
Q 2388 397 2633 464 
Q 2878 531 3122 666 
L 3122 134 
Q 2881 22 2623 -34 
Q 2366 -91 2075 -91 
Q 1284 -91 818 406 
Q 353 903 353 1747 
Q 353 2603 823 3093 
Q 1294 3584 2113 3584 
Q 2378 3584 2631 3529 
Q 2884 3475 3122 3366 
z
" transform="scale(0.015625)"/>
      </defs>
      <use xlink:href="#DejaVuSans-2d"/>
      <use xlink:href="#DejaVuSans-44" transform="translate(29.5 0)"/>
      <use xlink:href="#DejaVuSans-50" transform="translate(90.78125 0)"/>
      <use xlink:href="#DejaVuSans-44" transform="translate(188.1875 0)"/>
      <use xlink:href="#DejaVuSans-4c" transform="translate(249.46875 0)"/>
      <use xlink:href="#DejaVuSans-46" transform="translate(277.25 0)"/>
      <use xlink:href="#DejaVuSans-44" transform="translate(332.234375 0)"/>
     </g>
    </g>
    <g id="patch_4">
     <path d="M 15.3 492.895234 
L 33.3 492.895234 
L 33.3 486.595234 
L 15.3 486.595234 
z
" style="fill: #bdc3c7; stroke: #888888; stroke-linejoin: miter"/>
    </g>
    <g id="text_3">
     <!-- Neighbors -->
     <g transform="translate(40.5 492.895234) scale(0.09 -0.09)">
      <defs>
       <path id="DejaVuSans-31" d="M 628 4666 
L 1478 4666 
L 3547 763 
L 3547 4666 
L 4159 4666 
L 4159 0 
L 3309 0 
L 1241 3903 
L 1241 0 
L 628 0 
L 628 4666 
z
" transform="scale(0.015625)"/>
       <path id="DejaVuSans-48" d="M 3597 1894 
L 3597 1613 
L 953 1613 
Q 991 1019 1311 708 
Q 1631 397 2203 397 
Q 2534 397 2845 478 
Q 3156 559 3463 722 
L 3463 178 
Q 3153 47 2828 -22 
Q 2503 -91 2169 -91 
Q 1331 -91 842 396 
Q 353 884 353 1716 
Q 353 2575 817 3079 
Q 1281 3584 2069 3584 
Q 2775 3584 3186 3129 
Q 3597 2675 3597 1894 
z
M 3022 2063 
Q 3016 2534 2758 2815 
Q 2500 3097 2075 3097 
Q 1594 3097 1305 2825 
Q 1016 2553 972 2059 
L 3022 2063 
z
" transform="scale(0.015625)"/>
       <path id="DejaVuSans-4a" d="M 2906 1791 
Q 2906 2416 2648 2759 
Q 2391 3103 1925 3103 
Q 1463 3103 1205 2759 
Q 947 2416 947 1791 
Q 947 1169 1205 825 
Q 1463 481 1925 481 
Q 2391 481 2648 825 
Q 2906 1169 2906 1791 
z
M 3481 434 
Q 3481 -459 3084 -895 
Q 2688 -1331 1869 -1331 
Q 1566 -1331 1297 -1286 
Q 1028 -1241 775 -1147 
L 775 -588 
Q 1028 -725 1275 -790 
Q 1522 -856 1778 -856 
Q 2344 -856 2625 -561 
Q 2906 -266 2906 331 
L 2906 616 
Q 2728 306 2450 153 
Q 2172 0 1784 0 
Q 1141 0 747 490 
Q 353 981 353 1791 
Q 353 2603 747 3093 
Q 1141 3584 1784 3584 
Q 2172 3584 2450 3431 
Q 2728 3278 2906 2969 
L 2906 3500 
L 3481 3500 
L 3481 434 
z
" transform="scale(0.015625)"/>
       <path id="DejaVuSans-4b" d="M 3513 2113 
L 3513 0 
L 2938 0 
L 2938 2094 
Q 2938 2591 2744 2837 
Q 2550 3084 2163 3084 
Q 1697 3084 1428 2787 
Q 1159 2491 1159 1978 
L 1159 0 
L 581 0 
L 581 4863 
L 1159 4863 
L 1159 2956 
Q 1366 3272 1645 3428 
Q 1925 3584 2291 3584 
Q 2894 3584 3203 3211 
Q 3513 2838 3513 2113 
z
" transform="scale(0.015625)"/>
       <path id="DejaVuSans-45" d="M 3116 1747 
Q 3116 2381 2855 2742 
Q 2594 3103 2138 3103 
Q 1681 3103 1420 2742 
Q 1159 2381 1159 1747 
Q 1159 1113 1420 752 
Q 1681 391 2138 391 
Q 2594 391 2855 752 
Q 3116 1113 3116 1747 
z
M 1159 2969 
Q 1341 3281 1617 3432 
Q 1894 3584 2278 3584 
Q 2916 3584 3314 3078 
Q 3713 2572 3713 1747 
Q 3713 922 3314 415 
Q 2916 -91 2278 -91 
Q 1894 -91 1617 61 
Q 1341 213 1159 525 
L 1159 0 
L 581 0 
L 581 4863 
L 1159 4863 
L 1159 2969 
z
" transform="scale(0.015625)"/>
       <path id="DejaVuSans-52" d="M 1959 3097 
Q 1497 3097 1228 2736 
Q 959 2375 959 1747 
Q 959 1119 1226 758 
Q 1494 397 1959 397 
Q 2419 397 2687 759 
Q 2956 1122 2956 1747 
Q 2956 2369 2687 2733 
Q 2419 3097 1959 3097 
z
M 1959 3584 
Q 2709 3584 3137 3096 
Q 3566 2609 3566 1747 
Q 3566 888 3137 398 
Q 2709 -91 1959 -91 
Q 1206 -91 779 398 
Q 353 888 353 1747 
Q 353 2609 779 3096 
Q 1206 3584 1959 3584 
z
" transform="scale(0.015625)"/>
       <path id="DejaVuSans-55" d="M 2631 2963 
Q 2534 3019 2420 3045 
Q 2306 3072 2169 3072 
Q 1681 3072 1420 2755 
Q 1159 2438 1159 1844 
L 1159 0 
L 581 0 
L 581 3500 
L 1159 3500 
L 1159 2956 
Q 1341 3275 1631 3429 
Q 1922 3584 2338 3584 
Q 2397 3584 2469 3576 
Q 2541 3569 2628 3553 
L 2631 2963 
z
" transform="scale(0.015625)"/>
       <path id="DejaVuSans-56" d="M 2834 3397 
L 2834 2853 
Q 2591 2978 2328 3040 
Q 2066 3103 1784 3103 
Q 1356 3103 1142 2972 
Q 928 2841 928 2578 
Q 928 2378 1081 2264 
Q 1234 2150 1697 2047 
L 1894 2003 
Q 2506 1872 2764 1633 
Q 3022 1394 3022 966 
Q 3022 478 2636 193 
Q 2250 -91 1575 -91 
Q 1294 -91 989 -36 
Q 684 19 347 128 
L 347 722 
Q 666 556 975 473 
Q 1284 391 1588 391 
Q 1994 391 2212 530 
Q 2431 669 2431 922 
Q 2431 1156 2273 1281 
Q 2116 1406 1581 1522 
L 1381 1569 
Q 847 1681 609 1914 
Q 372 2147 372 2553 
Q 372 3047 722 3315 
Q 1072 3584 1716 3584 
Q 2034 3584 2315 3537 
Q 2597 3491 2834 3397 
z
" transform="scale(0.015625)"/>
      </defs>
      <use xlink:href="#DejaVuSans-31"/>
      <use xlink:href="#DejaVuSans-48" transform="translate(74.8125 0)"/>
      <use xlink:href="#DejaVuSans-4c" transform="translate(136.34375 0)"/>
      <use xlink:href="#DejaVuSans-4a" transform="translate(164.125 0)"/>
      <use xlink:href="#DejaVuSans-4b" transform="translate(227.609375 0)"/>
      <use xlink:href="#DejaVuSans-45" transform="translate(290.984375 0)"/>
      <use xlink:href="#DejaVuSans-52" transform="translate(354.46875 0)"/>
      <use xlink:href="#DejaVuSans-55" transform="translate(415.65625 0)"/>
      <use xlink:href="#DejaVuSans-56" transform="translate(456.765625 0)"/>
     </g>
    </g>
   </g>
  </g>
 </g>
 <defs>
  <clipPath id="p54a9578ed9">
   <rect x="7.2" y="30.117344" width="657.910595" height="473.04"/>
  </clipPath>
 </defs>
</svg>
