<?xml version="1.0" encoding="utf-8" standalone="no"?>
<!DOCTYPE svg PUBLIC "-//W3C//DTD SVG 1.1//EN"
  "http://www.w3.org/Graphics/SVG/1.1/DTD/svg11.dtd">
<svg xmlns:xlink="http://www.w3.org/1999/xlink" width="870.4pt" height="237.546114pt" viewBox="0 0 870.4 237.546114" xmlns="http://www.w3.org/2000/svg" version="1.1">
 <metadata>
  <rdf:RDF xmlns:dc="http://purl.org/dc/elements/1.1/" xmlns:cc="http://creativecommons.org/ns#" xmlns:rdf="http://www.w3.org/1999/02/22-rdf-syntax-ns#">
   <cc:Work>
    <dc:type rdf:resource="http://purl.org/dc/dcmitype/StillImage"/>
    <dc:date>2026-06-19T08:14:15.080636</dc:date>
    <dc:format>image/svg+xml</dc:format>
    <dc:creator>
     <cc:Agent>
      <dc:title>Matplotlib v3.11.0, https://matplotlib.org/</dc:title>
     </cc:Agent>
    </dc:creator>
   </cc:Work>
  </rdf:RDF>
 </metadata>
 <defs>
  <style type="text/css">*{stroke-linejoin: round; stroke-linecap: butt}</style>
 </defs>
 <g id="figure_1">
  <g id="patch_1">
   <path d="M 0 237.546114 
L 870.4 237.546114 
L 870.4 0 
L 0 0 
z
" style="fill: #d6eaf8"/>
  </g>
  <g id="axes_1">
   <g id="PatchCollection_1">
    <path d="M 124.497682 119.939936 
L 124.504729 119.883652 
L 124.518822 119.87703 
L 124.575194 119.843922 
L 124.60338 119.840611 
L 124.617473 119.847233 
L 124.62452 119.853854 
L 124.617473 119.857165 
L 124.596334 119.870408 
L 124.568148 119.896895 
L 124.561101 119.930004 
L 124.589287 119.966423 
L 124.60338 119.969734 
L 124.631566 119.966423 
L 124.659752 119.966423 
L 124.666799 119.986288 
L 124.680892 119.999532 
L 124.702031 120.002843 
L 124.744311 120.002843 
L 124.78659 120.022708 
L 124.800683 120.022708 
L 124.779543 119.999532 
L 124.758404 119.982978 
L 124.737264 119.976356 
L 124.723171 119.963112 
L 124.709078 119.939936 
L 124.730218 119.946558 
L 124.751357 119.946558 
L 124.76545 119.933315 
L 124.76545 119.896895 
L 124.78659 119.91345 
L 124.793636 119.933315 
L 124.793636 119.95318 
L 124.807729 119.973045 
L 124.828869 119.982978 
L 124.842962 119.966423 
L 124.835915 119.939936 
L 124.807729 119.896895 
L 124.800683 119.87703 
L 124.807729 119.860476 
L 124.814776 119.843922 
L 124.835915 119.857165 
L 124.850008 119.853854 
L 124.842962 119.817435 
L 124.864101 119.830678 
L 124.864101 119.847233 
L 124.864101 119.867098 
L 124.871148 119.883652 
L 124.892288 119.896895 
L 124.899334 119.890274 
L 124.906381 119.87703 
L 124.92752 119.867098 
L 124.934567 119.853854 
L 124.941613 119.8373 
L 124.94866 119.824057 
L 124.941613 119.807502 
L 124.92752 119.800881 
L 124.892288 119.790948 
L 124.835915 119.764461 
L 124.76545 119.714798 
L 124.758404 119.708177 
L 124.744311 119.698244 
L 124.723171 119.678379 
L 124.702031 119.668446 
L 124.694985 119.691622 
L 124.680892 119.704866 
L 124.659752 119.701555 
L 124.645659 119.685001 
L 124.638613 119.655203 
L 124.666799 119.638649 
L 124.709078 119.638649 
L 124.807729 119.665135 
L 124.885241 119.724731 
L 125.005032 119.757839 
L 125.033218 119.757839 
L 125.026172 119.777705 
L 125.019125 119.79757 
L 125.012078 119.810813 
L 124.976846 119.824057 
L 124.969799 119.840611 
L 124.962753 119.883652 
L 124.955706 119.976356 
L 124.997985 120.026019 
L 125.068451 120.059127 
L 125.145962 120.105479 
L 125.174148 120.128655 
L 125.202335 120.14852 
L 125.230521 120.161764 
L 125.265753 120.168385 
L 125.286893 120.188251 
L 125.293939 120.227981 
L 125.286893 120.257779 
L 125.258707 120.247846 
L 125.237567 120.257779 
L 125.223474 120.267711 
L 125.202335 120.274333 
L 125.181195 120.274333 
L 125.153009 120.267711 
L 125.138916 120.254468 
L 125.124823 120.241224 
L 125.103683 120.227981 
L 125.08959 120.201494 
L 125.075497 120.194872 
L 125.033218 120.191561 
L 124.835915 120.131966 
L 124.758404 120.095547 
L 124.694985 120.045884 
L 124.645659 119.999532 
L 124.60338 119.973045 
L 124.589287 119.986288 
L 124.568148 119.986288 
L 124.532915 119.973045 
z
" clip-path="url(#pb225f04277)" style="fill: #e74c3c; stroke: #ffffff; stroke-width: 0.6"/>
    <path d="M 772.066056 119.754529 
L 772.066056 119.731353 
L 772.066056 119.724731 
L 772.066056 119.718109 
L 772.073102 119.718109 
L 772.080149 119.72142 
L 772.080149 119.728042 
L 772.080149 119.737974 
L 772.080149 119.747907 
L 772.094242 119.754529 
L 772.129475 119.764461 
L 772.136521 119.764461 
L 772.150614 119.764461 
L 772.157661 119.764461 
L 772.164707 119.764461 
L 772.164707 119.757839 
L 772.164707 119.751218 
L 772.164707 119.741285 
L 772.150614 119.731353 
L 772.143568 119.724731 
L 772.143568 119.72142 
L 772.143568 119.718109 
L 772.143568 119.711487 
L 772.136521 119.694933 
L 772.136521 119.675068 
L 772.136521 119.665135 
L 772.136521 119.651892 
L 772.129475 119.638649 
L 772.122428 119.628716 
L 772.122428 119.625405 
L 772.115381 119.622094 
L 772.108335 119.618784 
L 772.094242 119.615473 
L 772.080149 119.618784 
L 772.080149 119.632027 
L 772.087195 119.665135 
L 772.087195 119.68169 
L 772.087195 119.694933 
L 772.080149 119.708177 
L 772.066056 119.711487 
L 772.066056 119.708177 
L 772.073102 119.701555 
L 772.073102 119.691622 
L 772.073102 119.678379 
L 772.073102 119.668446 
L 772.066056 119.648581 
L 772.066056 119.638649 
L 772.073102 119.618784 
L 772.073102 119.60554 
L 772.080149 119.595608 
L 772.087195 119.588986 
L 772.101288 119.588986 
L 772.108335 119.588986 
L 772.115381 119.595608 
L 772.129475 119.60554 
L 772.136521 119.618784 
L 772.136521 119.622094 
L 772.143568 119.638649 
L 772.143568 119.678379 
L 772.157661 119.718109 
L 772.171754 119.734663 
L 772.171754 119.741285 
L 772.1788 119.744596 
L 772.185847 119.751218 
L 772.185847 119.754529 
L 772.185847 119.76115 
L 772.1788 119.767772 
L 772.1788 119.771083 
L 772.171754 119.774394 
L 772.164707 119.777705 
L 772.157661 119.781015 
L 772.143568 119.781015 
L 772.122428 119.774394 
L 772.087195 119.767772 
L 772.073102 119.76115 
z
" clip-path="url(#pb225f04277)" style="fill: #e74c3c; stroke: #ffffff; stroke-width: 0.6"/>
    <path d="M 120.918049 116.052993 
L 120.925095 115.973532 
L 120.988514 115.913937 
L 121.051933 115.92718 
L 121.073072 115.956978 
L 121.087165 115.976843 
L 121.087165 115.996708 
L 121.094212 116.019884 
L 121.122398 116.026506 
L 121.143538 116.023195 
L 121.164677 116.029817 
L 121.17877 116.046371 
L 121.19991 116.086101 
L 121.228096 116.11921 
L 121.235142 116.135764 
L 121.228096 116.155629 
L 121.206956 116.175494 
L 121.164677 116.19536 
L 121.122398 116.205292 
L 121.073072 116.201981 
L 121.030793 116.175494 
L 121.0167 116.135764 
L 121.051933 116.135764 
L 121.143538 116.162251 
L 121.164677 116.152318 
L 121.164677 116.129142 
L 121.164677 116.102656 
L 121.150584 116.08279 
L 121.136491 116.069547 
L 121.087165 116.046371 
L 121.066026 116.036439 
L 121.051933 116.016573 
L 121.044886 115.973532 
L 121.030793 115.960289 
L 121.009654 115.956978 
L 120.981468 115.9636 
L 120.967375 115.980154 
L 120.953281 116.000019 
L 121.002607 116.096034 
z
" clip-path="url(#pb225f04277)" style="fill: #e74c3c; stroke: #ffffff; stroke-width: 0.6"/>
    <path d="M 96.811895 129.074585 
L 96.811895 129.061342 
L 96.818942 129.048098 
L 96.833035 129.034855 
L 96.9035 129.067963 
L 96.959872 129.111005 
L 97.002151 129.1706 
L 97.009198 129.207019 
L 97.016244 129.226884 
L 97.009198 129.25006 
L 96.981012 129.236817 
L 96.966919 129.213641 
L 96.945779 129.197087 
L 96.917593 129.183843 
L 96.910547 129.180533 
L 96.847128 129.163978 
L 96.840081 129.160667 
L 96.875314 129.1706 
L 96.938733 129.183843 
L 96.945779 129.190465 
L 96.959872 129.200398 
L 96.959872 129.203708 
L 96.995105 129.236817 
L 97.002151 129.230195 
L 97.002151 129.226884 
L 97.009198 129.226884 
L 97.009198 129.216952 
L 96.952826 129.127559 
L 96.931686 129.101072 
L 96.9035 129.087829 
L 96.868268 129.067963 
L 96.833035 129.061342 
L 96.818942 129.087829 
z
" clip-path="url(#pb225f04277)" style="fill: #e74c3c; stroke: #ffffff; stroke-width: 0.6"/>
    <path d="M 764.758812 125.333319 
L 764.758812 125.330008 
L 764.758812 125.323387 
L 764.758812 125.313454 
L 764.758812 125.310143 
L 764.758812 125.306832 
L 764.758812 125.300211 
L 764.765858 125.293589 
L 764.772905 125.290278 
L 764.779952 125.286967 
L 764.794045 125.286967 
L 764.801091 125.286967 
L 764.808138 125.2969 
L 764.815184 125.300211 
L 764.815184 125.303521 
L 764.822231 125.310143 
L 764.822231 125.313454 
L 764.822231 125.320076 
L 764.822231 125.323387 
L 764.815184 125.330008 
L 764.815184 125.33663 
L 764.815184 125.339941 
L 764.808138 125.343252 
L 764.808138 125.346563 
L 764.801091 125.346563 
L 764.794045 125.346563 
L 764.786998 125.343252 
L 764.786998 125.339941 
L 764.779952 125.33663 
L 764.779952 125.333319 
L 764.772905 125.333319 
L 764.765858 125.33663 
z
" clip-path="url(#pb225f04277)" style="fill: #e74c3c; stroke: #ffffff; stroke-width: 0.6"/>
    <path d="M 771.544613 121.989356 
L 771.558706 121.969491 
L 771.586892 121.939693 
L 771.608032 121.896652 
L 771.657358 121.856921 
L 771.671451 121.807259 
L 771.685544 121.787393 
L 771.699637 121.764218 
L 771.706683 121.737731 
L 771.685544 121.714555 
L 771.650311 121.688068 
L 771.615078 121.668203 
L 771.579846 121.65827 
L 771.579846 121.664892 
L 771.579846 121.684757 
L 771.572799 121.684757 
L 771.572799 121.661581 
L 771.565753 121.645027 
L 771.55166 121.628472 
L 771.544613 121.61854 
L 771.572799 121.61854 
L 771.593939 121.648338 
L 771.69259 121.711244 
L 771.71373 121.731109 
L 771.720776 121.744352 
L 771.720776 121.77415 
L 771.685544 121.833745 
L 771.657358 121.853611 
L 771.586892 121.949625 
z
" clip-path="url(#pb225f04277)" style="fill: #e74c3c; stroke: #ffffff; stroke-width: 0.6"/>
    <path d="M 775.490666 126.621242 
L 775.518852 126.568268 
L 775.568178 126.535159 
L 775.568178 126.548403 
L 775.547038 126.561646 
L 775.525898 126.581511 
L 775.511805 126.604687 
L 775.511805 126.631174 
L 775.532945 126.647728 
L 775.554084 126.637796 
L 775.568178 126.61462 
L 775.575224 126.601377 
L 775.589317 126.581511 
L 775.589317 126.528538 
L 775.582271 126.475564 
L 775.554084 126.442455 
L 775.568178 126.429212 
L 775.568178 126.435834 
L 775.575224 126.439145 
L 775.589317 126.442455 
L 775.610457 126.492118 
L 775.610457 126.561646 
L 775.596364 126.627863 
L 775.554084 126.670904 
L 775.504759 126.664283 
z
" clip-path="url(#pb225f04277)" style="fill: #e74c3c; stroke: #ffffff; stroke-width: 0.6"/>
    <path d="M 777.308669 126.161033 
L 777.322762 126.144479 
L 777.350948 126.134546 
L 777.393227 126.144479 
L 777.414366 126.18752 
L 777.449599 126.240493 
L 777.477785 126.296778 
L 777.470739 126.346441 
L 777.456646 126.333197 
L 777.442553 126.323265 
L 777.400273 126.30671 
L 777.400273 126.293467 
L 777.421413 126.296778 
L 777.470739 126.319954 
L 777.463692 126.286845 
L 777.449599 126.257048 
L 777.400273 126.214007 
L 777.365041 126.164344 
L 777.350948 126.147789 
L 777.322762 126.144479 
L 777.322762 126.154411 
L 777.329808 126.161033 
L 777.336855 126.170965 
z
" clip-path="url(#pb225f04277)" style="fill: #e74c3c; stroke: #ffffff; stroke-width: 0.6"/>
    <path d="M 774.426641 124.896286 
L 774.454827 124.939327 
L 774.454827 125.018788 
L 774.454827 125.038653 
L 774.483013 125.091627 
L 774.497106 125.174398 
L 774.497106 125.187641 
L 774.49006 125.204196 
L 774.46892 125.233993 
L 774.44778 125.22075 
L 774.440734 125.207507 
L 774.44778 125.197574 
L 774.46892 125.190952 
L 774.461873 125.204196 
L 774.461873 125.207507 
L 774.46892 125.22075 
L 774.497106 125.187641 
L 774.497106 125.184331 
L 774.49006 125.147911 
L 774.454827 125.078383 
z
" clip-path="url(#pb225f04277)" style="fill: #e74c3c; stroke: #ffffff; stroke-width: 0.6"/>
    <path d="M 771.586892 121.002721 
L 771.678497 120.95968 
L 771.727823 120.946436 
L 771.861707 120.936504 
L 771.8758 120.929882 
L 771.840567 120.91995 
L 771.861707 120.906706 
L 771.882846 120.913328 
L 771.896939 120.933193 
L 771.896939 120.956369 
L 771.882846 120.966301 
L 771.85466 120.966301 
L 771.812381 120.956369 
L 771.770102 120.956369 
L 771.71373 120.95968 
L 771.671451 120.972923 
L 771.636218 120.996099 
L 771.608032 121.006032 
L 771.600985 121.006032 
z
" clip-path="url(#pb225f04277)" style="fill: #e74c3c; stroke: #ffffff; stroke-width: 0.6"/>
    <path d="M 771.072496 117.681933 
L 771.114775 117.698488 
L 771.150008 117.685244 
L 771.178194 117.662068 
L 771.199334 117.632271 
L 771.22752 117.619027 
L 771.305031 117.612405 
L 771.340264 117.599162 
L 771.340264 117.612405 
L 771.340264 117.622338 
L 771.326171 117.642203 
L 771.255706 117.625649 
L 771.192287 117.665379 
L 771.142961 117.711731 
L 771.114775 117.721664 
L 771.100682 117.715042 
L 771.086589 117.705109 
L 771.079543 117.695177 
z
" clip-path="url(#pb225f04277)" style="fill: #e74c3c; stroke: #ffffff; stroke-width: 0.6"/>
    <path d="M 771.544613 120.261089 
L 771.608032 120.251157 
L 771.629171 120.208116 
L 771.629171 120.14852 
L 771.608032 120.085614 
L 771.615078 120.085614 
L 771.615078 120.082303 
L 771.615078 120.078992 
L 771.615078 120.075681 
L 771.636218 120.141899 
L 771.636218 120.208116 
L 771.622125 120.261089 
L 771.572799 120.274333 
L 771.558706 120.271022 
L 771.55166 120.267711 
z
" clip-path="url(#pb225f04277)" style="fill: #e74c3c; stroke: #ffffff; stroke-width: 0.6"/>
    <path d="M 778.210623 126.214007 
L 778.224717 126.214007 
L 778.231763 126.220628 
L 778.23881 126.240493 
L 778.266996 126.26698 
L 778.302228 126.319954 
L 778.330414 126.38286 
L 778.344507 126.442455 
L 778.316321 126.41928 
L 778.302228 126.389482 
L 778.288135 126.353062 
L 778.274042 126.319954 
L 778.23881 126.273602 
L 778.21767 126.247115 
z
" clip-path="url(#pb225f04277)" style="fill: #e74c3c; stroke: #ffffff; stroke-width: 0.6"/>
    <path d="M 772.749568 123.201129 
L 772.791848 123.197818 
L 772.805941 123.201129 
L 772.820034 123.217683 
L 772.820034 123.234237 
L 772.820034 123.250791 
L 772.812987 123.280589 
L 772.777755 123.36336 
L 772.756615 123.346806 
L 772.763662 123.320319 
L 772.805941 123.2839 
L 772.812987 123.24417 
L 772.805941 123.230926 
L 772.784801 123.217683 
z
" clip-path="url(#pb225f04277)" style="fill: #e74c3c; stroke: #ffffff; stroke-width: 0.6"/>
    <path d="M 129.514806 131.57097 
L 129.528899 131.561037 
L 129.627551 131.531239 
L 129.66983 131.531239 
L 129.655737 131.574281 
L 129.641644 131.587524 
L 129.634597 131.607389 
L 129.634597 131.630565 
L 129.641644 131.653741 
L 129.620504 131.653741 
L 129.599365 131.623943 
L 129.571179 131.614011 
L 129.557085 131.607389 
L 129.528899 131.587524 
z
" clip-path="url(#pb225f04277)" style="fill: #e74c3c; stroke: #ffffff; stroke-width: 0.6"/>
    <path d="M 774.919897 125.849812 
L 774.941037 125.853123 
L 774.95513 125.856434 
L 774.962177 125.866367 
L 774.97627 125.876299 
L 774.983316 125.912719 
L 775.018549 125.985558 
L 775.032642 126.07164 
L 775.046735 126.104748 
L 774.997409 126.091505 
L 774.983316 126.051775 
L 774.990363 125.978936 
L 774.983316 125.952449 
z
" clip-path="url(#pb225f04277)" style="fill: #e74c3c; stroke: #ffffff; stroke-width: 0.6"/>
    <path d="M 771.431869 119.8373 
L 771.431869 119.817435 
L 771.445962 119.847233 
L 771.502334 119.886963 
L 771.516427 119.906828 
L 771.523474 119.936626 
L 771.600985 120.042573 
L 771.608032 120.055816 
L 771.516427 119.95318 
L 771.488241 119.900206 
L 771.474148 119.883652 
L 771.438915 119.853854 
z
" clip-path="url(#pb225f04277)" style="fill: #e74c3c; stroke: #ffffff; stroke-width: 0.6"/>
    <path d="M 95.825382 132.445035 
L 95.888801 132.435103 
L 95.881754 132.441725 
L 95.881754 132.448346 
L 95.874708 132.451657 
L 95.839475 132.46159 
L 95.860615 132.484766 
L 95.881754 132.491387 
L 95.90994 132.484766 
L 95.938127 132.474833 
L 95.881754 132.511253 
L 95.832429 132.484766 
z
" clip-path="url(#pb225f04277)" style="fill: #e74c3c; stroke: #ffffff; stroke-width: 0.6"/>
    <path d="M 774.264571 124.787028 
L 774.292757 124.787028 
L 774.30685 124.806893 
L 774.363222 124.849934 
L 774.377315 124.856556 
L 774.398455 124.863178 
L 774.419594 124.876421 
L 774.426641 124.889665 
L 774.405501 124.896286 
L 774.377315 124.883043 
L 774.28571 124.813515 
z
" clip-path="url(#pb225f04277)" style="fill: #e74c3c; stroke: #ffffff; stroke-width: 0.6"/>
    <path d="M 773.137127 122.774028 
L 773.144174 122.760785 
L 773.15122 122.750852 
L 773.165313 122.74092 
L 773.179406 122.734298 
L 773.193499 122.747541 
L 773.306244 122.807137 
L 773.355569 122.843556 
L 773.369662 122.879976 
L 773.263965 122.803826 
L 773.193499 122.770717 
z
" clip-path="url(#pb225f04277)" style="fill: #e74c3c; stroke: #ffffff; stroke-width: 0.6"/>
    <path d="M 127.72499 134.623578 
L 127.746129 134.623578 
L 127.760222 134.623578 
L 127.774315 134.6302 
L 127.795455 134.640132 
L 127.830687 134.623578 
L 127.858874 134.636821 
L 127.872967 134.656687 
L 127.851827 134.666619 
L 127.781362 134.676552 
L 127.746129 134.663308 
z
" clip-path="url(#pb225f04277)" style="fill: #e74c3c; stroke: #ffffff; stroke-width: 0.6"/>
    <path d="M 777.379134 128.508429 
L 777.393227 128.515051 
L 777.40732 128.524983 
L 777.414366 128.534916 
L 777.421413 128.548159 
L 777.414366 128.548159 
L 777.40732 128.548159 
L 777.40732 128.544848 
L 777.400273 128.538227 
L 777.38618 128.524983 
z
" clip-path="url(#pb225f04277)" style="fill: #e74c3c; stroke: #ffffff; stroke-width: 0.6"/>
    <path d="M 771.460055 120.436565 
L 771.488241 120.449808 
L 771.509381 120.509403 
L 771.53052 120.625283 
L 771.523474 120.625283 
L 771.516427 120.618662 
L 771.509381 120.615351 
L 771.502334 120.61204 
L 771.488241 120.565688 
L 771.481194 120.469673 
z
" clip-path="url(#pb225f04277)" style="fill: #e74c3c; stroke: #ffffff; stroke-width: 0.6"/>
    <path d="M 778.943462 128.740189 
L 778.957555 128.733567 
L 778.964601 128.733567 
L 778.971648 128.740189 
L 779.02802 128.753432 
L 779.077346 128.789852 
L 779.098485 128.829582 
L 779.077346 128.846136 
L 779.056206 128.832893 
z
" clip-path="url(#pb225f04277)" style="fill: #e74c3c; stroke: #ffffff; stroke-width: 0.6"/>
    <path d="M 776.561737 127.19402 
L 776.57583 127.207263 
L 776.632202 127.299967 
L 776.653342 127.343008 
L 776.625156 127.395982 
L 776.618109 127.372806 
L 776.625156 127.293345 
L 776.604016 127.266858 
L 776.568784 127.217196 
z
" clip-path="url(#pb225f04277)" style="fill: #e74c3c; stroke: #ffffff; stroke-width: 0.6"/>
    <path d="M 771.53052 121.995977 
L 771.537567 121.999288 
L 771.544613 122.009221 
L 771.544613 122.002599 
L 771.544613 121.999288 
L 771.544613 121.989356 
L 771.544613 121.992666 
L 771.537567 121.992666 
z
" clip-path="url(#pb225f04277)" style="fill: #e74c3c; stroke: #ffffff; stroke-width: 0.6"/>
    <path d="M 771.502334 121.979423 
L 771.516427 121.979423 
L 771.516427 121.986045 
L 771.523474 121.989356 
L 771.53052 121.995977 
L 771.523474 121.995977 
L 771.516427 121.995977 
L 771.509381 121.989356 
z
" clip-path="url(#pb225f04277)" style="fill: #e74c3c; stroke: #ffffff; stroke-width: 0.6"/>
    <path d="M 771.340264 117.546188 
L 771.453008 117.493215 
L 771.488241 117.466728 
L 771.495287 117.47666 
L 771.502334 117.483282 
L 771.502334 117.493215 
L 771.460055 117.503147 
L 771.36845 117.546188 
z
" clip-path="url(#pb225f04277)" style="fill: #e74c3c; stroke: #ffffff; stroke-width: 0.6"/>
    <path d="M 135.779165 146.019541 
L 135.779165 145.976499 
L 135.800304 145.950013 
L 135.821444 145.97981 
L 135.84963 146.036095 
L 135.856677 146.085758 
L 135.814397 146.099001 
L 135.793258 146.062582 
z
" clip-path="url(#pb225f04277)" style="fill: #e74c3c; stroke: #ffffff; stroke-width: 0.6"/>
    <path d="M 118.952069 114.3777 
L 118.959116 114.367768 
L 118.980255 114.364457 
L 119.001395 114.367768 
L 119.022534 114.384322 
L 119.015488 114.397565 
L 118.994348 114.400876 
L 118.966162 114.390944 
z
" clip-path="url(#pb225f04277)" style="fill: #e74c3c; stroke: #ffffff; stroke-width: 0.6"/>
    <path d="M 97.720897 132.362264 
L 97.727943 132.339088 
L 97.756129 132.335777 
L 97.777269 132.349021 
L 97.784315 132.372197 
L 97.770222 132.388751 
L 97.749083 132.388751 
L 97.727943 132.382129 
z
" clip-path="url(#pb225f04277)" style="fill: #e74c3c; stroke: #ffffff; stroke-width: 0.6"/>
    <path d="M 91.301515 132.762878 
L 91.308561 132.756256 
L 91.336747 132.77281 
L 91.379026 132.815851 
L 91.386073 132.822473 
L 91.357887 132.795986 
L 91.329701 132.776121 
L 91.308561 132.77281 
z
" clip-path="url(#pb225f04277)" style="fill: #e74c3c; stroke: #ffffff; stroke-width: 0.6"/>
    <path d="M 98.052083 129.793041 
L 98.052083 129.766554 
L 98.05913 129.746689 
L 98.066176 129.726824 
L 98.073223 129.763243 
L 98.066176 129.78973 
z
" clip-path="url(#pb225f04277)" style="fill: #e74c3c; stroke: #ffffff; stroke-width: 0.6"/>
    <path d="M 91.343794 132.809229 
L 91.35084 132.809229 
L 91.37198 132.819162 
L 91.386073 132.829095 
L 91.379026 132.835716 
L 91.357887 132.825784 
z
" clip-path="url(#pb225f04277)" style="fill: #e74c3c; stroke: #ffffff; stroke-width: 0.6"/>
    <path d="M 91.301515 132.789364 
L 91.308561 132.786054 
L 91.315608 132.795986 
L 91.329701 132.809229 
L 91.315608 132.802608 
z
" clip-path="url(#pb225f04277)" style="fill: #e74c3c; stroke: #ffffff; stroke-width: 0.6"/>
   </g>
   <g id="text_1">
    <!-- Kiribati -->
    <g style="fill: #1a252f" transform="translate(399.7975 20.117344) scale(0.17 -0.17)">
     <defs>
      <path id="DejaVuSans-Bold-2e" d="M 588 4666 
L 1791 4666 
L 1791 2963 
L 3525 4666 
L 4922 4666 
L 2675 2456 
L 5153 0 
L 3647 0 
L 1791 1838 
L 1791 0 
L 588 0 
L 588 4666 
z
" transform="scale(0.015625)"/>
      <path id="DejaVuSans-Bold-4c" d="M 538 3500 
L 1656 3500 
L 1656 0 
L 538 0 
L 538 3500 
z
M 538 4863 
L 1656 4863 
L 1656 3950 
L 538 3950 
L 538 4863 
z
" transform="scale(0.015625)"/>
      <path id="DejaVuSans-Bold-55" d="M 3138 2547 
Q 2991 2616 2845 2648 
Q 2700 2681 2553 2681 
Q 2122 2681 1889 2404 
Q 1656 2128 1656 1613 
L 1656 0 
L 538 0 
L 538 3500 
L 1656 3500 
L 1656 2925 
Q 1872 3269 2151 3426 
Q 2431 3584 2822 3584 
Q 2878 3584 2943 3579 
Q 3009 3575 3134 3559 
L 3138 2547 
z
" transform="scale(0.015625)"/>
      <path id="DejaVuSans-Bold-45" d="M 2400 722 
Q 2759 722 2948 984 
Q 3138 1247 3138 1747 
Q 3138 2247 2948 2509 
Q 2759 2772 2400 2772 
Q 2041 2772 1848 2508 
Q 1656 2244 1656 1747 
Q 1656 1250 1848 986 
Q 2041 722 2400 722 
z
M 1656 2988 
Q 1888 3294 2169 3439 
Q 2450 3584 2816 3584 
Q 3463 3584 3878 3070 
Q 4294 2556 4294 1747 
Q 4294 938 3878 423 
Q 3463 -91 2816 -91 
Q 2450 -91 2169 54 
Q 1888 200 1656 506 
L 1656 0 
L 538 0 
L 538 4863 
L 1656 4863 
L 1656 2988 
z
" transform="scale(0.015625)"/>
      <path id="DejaVuSans-Bold-44" d="M 2106 1575 
Q 1756 1575 1579 1456 
Q 1403 1338 1403 1106 
Q 1403 894 1545 773 
Q 1688 653 1941 653 
Q 2256 653 2472 879 
Q 2688 1106 2688 1447 
L 2688 1575 
L 2106 1575 
z
M 3816 1997 
L 3816 0 
L 2688 0 
L 2688 519 
Q 2463 200 2181 54 
Q 1900 -91 1497 -91 
Q 953 -91 614 226 
Q 275 544 275 1050 
Q 275 1666 698 1953 
Q 1122 2241 2028 2241 
L 2688 2241 
L 2688 2328 
Q 2688 2594 2478 2717 
Q 2269 2841 1825 2841 
Q 1466 2841 1156 2769 
Q 847 2697 581 2553 
L 581 3406 
Q 941 3494 1303 3539 
Q 1666 3584 2028 3584 
Q 2975 3584 3395 3211 
Q 3816 2838 3816 1997 
z
" transform="scale(0.015625)"/>
      <path id="DejaVuSans-Bold-57" d="M 1759 4494 
L 1759 3500 
L 2913 3500 
L 2913 2700 
L 1759 2700 
L 1759 1216 
Q 1759 972 1856 886 
Q 1953 800 2241 800 
L 2816 800 
L 2816 0 
L 1856 0 
Q 1194 0 917 276 
Q 641 553 641 1216 
L 641 2700 
L 84 2700 
L 84 3500 
L 641 3500 
L 641 4494 
L 1759 4494 
z
" transform="scale(0.015625)"/>
     </defs>
     <use xlink:href="#DejaVuSans-Bold-2e"/>
     <use xlink:href="#DejaVuSans-Bold-4c" transform="translate(77.484375 0)"/>
     <use xlink:href="#DejaVuSans-Bold-55" transform="translate(111.765625 0)"/>
     <use xlink:href="#DejaVuSans-Bold-4c" transform="translate(161.078125 0)"/>
     <use xlink:href="#DejaVuSans-Bold-45" transform="translate(195.359375 0)"/>
     <use xlink:href="#DejaVuSans-Bold-44" transform="translate(266.9375 0)"/>
     <use xlink:href="#DejaVuSans-Bold-57" transform="translate(334.421875 0)"/>
     <use xlink:href="#DejaVuSans-Bold-4c" transform="translate(382.21875 0)"/>
    </g>
   </g>
   <g id="legend_1">
    <g id="patch_2">
     <path d="M 13.5 225.846114 
L 88.097344 225.846114 
Q 89.897344 225.846114 89.897344 224.046114 
L 89.897344 197.944708 
Q 89.897344 196.144708 88.097344 196.144708 
L 13.5 196.144708 
Q 11.7 196.144708 11.7 197.944708 
L 11.7 224.046114 
Q 11.7 225.846114 13.5 225.846114 
z
" style="fill: #ffffff; opacity: 0.85; stroke: #cccccc; stroke-linejoin: miter"/>
    </g>
    <g id="patch_3">
     <path d="M 15.3 206.583302 
L 33.3 206.583302 
L 33.3 200.283302 
L 15.3 200.283302 
z
" style="fill: #e74c3c; stroke: #888888; stroke-linejoin: miter"/>
    </g>
    <g id="text_2">
     <!-- Kiribati -->
     <g transform="translate(40.5 206.583302) scale(0.09 -0.09)">
      <defs>
       <path id="DejaVuSans-2e" d="M 628 4666 
L 1259 4666 
L 1259 2694 
L 3353 4666 
L 4166 4666 
L 1850 2491 
L 4331 0 
L 3500 0 
L 1259 2247 
L 1259 0 
L 628 0 
L 628 4666 
z
" transform="scale(0.015625)"/>
       <path id="DejaVuSans-4c" d="M 603 3500 
L 1178 3500 
L 1178 0 
L 603 0 
L 603 3500 
z
M 603 4863 
L 1178 4863 
L 1178 4134 
L 603 4134 
L 603 4863 
z
" transform="scale(0.015625)"/>
       <path id="DejaVuSans-55" d="M 2631 2963 
Q 2534 3019 2420 3045 
Q 2306 3072 2169 3072 
Q 1681 3072 1420 2755 
Q 1159 2438 1159 1844 
L 1159 0 
L 581 0 
L 581 3500 
L 1159 3500 
L 1159 2956 
Q 1341 3275 1631 3429 
Q 1922 3584 2338 3584 
Q 2397 3584 2469 3576 
Q 2541 3569 2628 3553 
L 2631 2963 
z
" transform="scale(0.015625)"/>
       <path id="DejaVuSans-45" d="M 3116 1747 
Q 3116 2381 2855 2742 
Q 2594 3103 2138 3103 
Q 1681 3103 1420 2742 
Q 1159 2381 1159 1747 
Q 1159 1113 1420 752 
Q 1681 391 2138 391 
Q 2594 391 2855 752 
Q 3116 1113 3116 1747 
z
M 1159 2969 
Q 1341 3281 1617 3432 
Q 1894 3584 2278 3584 
Q 2916 3584 3314 3078 
Q 3713 2572 3713 1747 
Q 3713 922 3314 415 
Q 2916 -91 2278 -91 
Q 1894 -91 1617 61 
Q 1341 213 1159 525 
L 1159 0 
L 581 0 
L 581 4863 
L 1159 4863 
L 1159 2969 
z
" transform="scale(0.015625)"/>
       <path id="DejaVuSans-44" d="M 2194 1759 
Q 1497 1759 1228 1600 
Q 959 1441 959 1056 
Q 959 750 1161 570 
Q 1363 391 1709 391 
Q 2188 391 2477 730 
Q 2766 1069 2766 1631 
L 2766 1759 
L 2194 1759 
z
M 3341 1997 
L 3341 0 
L 2766 0 
L 2766 531 
Q 2569 213 2275 61 
Q 1981 -91 1556 -91 
Q 1019 -91 701 211 
Q 384 513 384 1019 
Q 384 1609 779 1909 
Q 1175 2209 1959 2209 
L 2766 2209 
L 2766 2266 
Q 2766 2663 2505 2880 
Q 2244 3097 1772 3097 
Q 1472 3097 1187 3025 
Q 903 2953 641 2809 
L 641 3341 
Q 956 3463 1253 3523 
Q 1550 3584 1831 3584 
Q 2591 3584 2966 3190 
Q 3341 2797 3341 1997 
z
" transform="scale(0.015625)"/>
       <path id="DejaVuSans-57" d="M 1172 4494 
L 1172 3500 
L 2356 3500 
L 2356 3053 
L 1172 3053 
L 1172 1153 
Q 1172 725 1289 603 
Q 1406 481 1766 481 
L 2356 481 
L 2356 0 
L 1766 0 
Q 1100 0 847 248 
Q 594 497 594 1153 
L 594 3053 
L 172 3053 
L 172 3500 
L 594 3500 
L 594 4494 
L 1172 4494 
z
" transform="scale(0.015625)"/>
      </defs>
      <use xlink:href="#DejaVuSans-2e"/>
      <use xlink:href="#DejaVuSans-4c" transform="translate(65.578125 0)"/>
      <use xlink:href="#DejaVuSans-55" transform="translate(93.359375 0)"/>
      <use xlink:href="#DejaVuSans-4c" transform="translate(134.46875 0)"/>
      <use xlink:href="#DejaVuSans-45" transform="translate(162.25 0)"/>
      <use xlink:href="#DejaVuSans-44" transform="translate(225.734375 0)"/>
      <use xlink:href="#DejaVuSans-57" transform="translate(287.015625 0)"/>
      <use xlink:href="#DejaVuSans-4c" transform="translate(326.21875 0)"/>
     </g>
    </g>
    <g id="patch_4">
     <path d="M 15.3 220.084005 
L 33.3 220.084005 
L 33.3 213.784005 
L 15.3 213.784005 
z
" style="fill: #bdc3c7; stroke: #888888; stroke-linejoin: miter"/>
    </g>
    <g id="text_3">
     <!-- Neighbors -->
     <g transform="translate(40.5 220.084005) scale(0.09 -0.09)">
      <defs>
       <path id="DejaVuSans-31" d="M 628 4666 
L 1478 4666 
L 3547 763 
L 3547 4666 
L 4159 4666 
L 4159 0 
L 3309 0 
L 1241 3903 
L 1241 0 
L 628 0 
L 628 4666 
z
" transform="scale(0.015625)"/>
       <path id="DejaVuSans-48" d="M 3597 1894 
L 3597 1613 
L 953 1613 
Q 991 1019 1311 708 
Q 1631 397 2203 397 
Q 2534 397 2845 478 
Q 3156 559 3463 722 
L 3463 178 
Q 3153 47 2828 -22 
Q 2503 -91 2169 -91 
Q 1331 -91 842 396 
Q 353 884 353 1716 
Q 353 2575 817 3079 
Q 1281 3584 2069 3584 
Q 2775 3584 3186 3129 
Q 3597 2675 3597 1894 
z
M 3022 2063 
Q 3016 2534 2758 2815 
Q 2500 3097 2075 3097 
Q 1594 3097 1305 2825 
Q 1016 2553 972 2059 
L 3022 2063 
z
" transform="scale(0.015625)"/>
       <path id="DejaVuSans-4a" d="M 2906 1791 
Q 2906 2416 2648 2759 
Q 2391 3103 1925 3103 
Q 1463 3103 1205 2759 
Q 947 2416 947 1791 
Q 947 1169 1205 825 
Q 1463 481 1925 481 
Q 2391 481 2648 825 
Q 2906 1169 2906 1791 
z
M 3481 434 
Q 3481 -459 3084 -895 
Q 2688 -1331 1869 -1331 
Q 1566 -1331 1297 -1286 
Q 1028 -1241 775 -1147 
L 775 -588 
Q 1028 -725 1275 -790 
Q 1522 -856 1778 -856 
Q 2344 -856 2625 -561 
Q 2906 -266 2906 331 
L 2906 616 
Q 2728 306 2450 153 
Q 2172 0 1784 0 
Q 1141 0 747 490 
Q 353 981 353 1791 
Q 353 2603 747 3093 
Q 1141 3584 1784 3584 
Q 2172 3584 2450 3431 
Q 2728 3278 2906 2969 
L 2906 3500 
L 3481 3500 
L 3481 434 
z
" transform="scale(0.015625)"/>
       <path id="DejaVuSans-4b" d="M 3513 2113 
L 3513 0 
L 2938 0 
L 2938 2094 
Q 2938 2591 2744 2837 
Q 2550 3084 2163 3084 
Q 1697 3084 1428 2787 
Q 1159 2491 1159 1978 
L 1159 0 
L 581 0 
L 581 4863 
L 1159 4863 
L 1159 2956 
Q 1366 3272 1645 3428 
Q 1925 3584 2291 3584 
Q 2894 3584 3203 3211 
Q 3513 2838 3513 2113 
z
" transform="scale(0.015625)"/>
       <path id="DejaVuSans-52" d="M 1959 3097 
Q 1497 3097 1228 2736 
Q 959 2375 959 1747 
Q 959 1119 1226 758 
Q 1494 397 1959 397 
Q 2419 397 2687 759 
Q 2956 1122 2956 1747 
Q 2956 2369 2687 2733 
Q 2419 3097 1959 3097 
z
M 1959 3584 
Q 2709 3584 3137 3096 
Q 3566 2609 3566 1747 
Q 3566 888 3137 398 
Q 2709 -91 1959 -91 
Q 1206 -91 779 398 
Q 353 888 353 1747 
Q 353 2609 779 3096 
Q 1206 3584 1959 3584 
z
" transform="scale(0.015625)"/>
       <path id="DejaVuSans-56" d="M 2834 3397 
L 2834 2853 
Q 2591 2978 2328 3040 
Q 2066 3103 1784 3103 
Q 1356 3103 1142 2972 
Q 928 2841 928 2578 
Q 928 2378 1081 2264 
Q 1234 2150 1697 2047 
L 1894 2003 
Q 2506 1872 2764 1633 
Q 3022 1394 3022 966 
Q 3022 478 2636 193 
Q 2250 -91 1575 -91 
Q 1294 -91 989 -36 
Q 684 19 347 128 
L 347 722 
Q 666 556 975 473 
Q 1284 391 1588 391 
Q 1994 391 2212 530 
Q 2431 669 2431 922 
Q 2431 1156 2273 1281 
Q 2116 1406 1581 1522 
L 1381 1569 
Q 847 1681 609 1914 
Q 372 2147 372 2553 
Q 372 3047 722 3315 
Q 1072 3584 1716 3584 
Q 2034 3584 2315 3537 
Q 2597 3491 2834 3397 
z
" transform="scale(0.015625)"/>
      </defs>
      <use xlink:href="#DejaVuSans-31"/>
      <use xlink:href="#DejaVuSans-48" transform="translate(74.8125 0)"/>
      <use xlink:href="#DejaVuSans-4c" transform="translate(136.34375 0)"/>
      <use xlink:href="#DejaVuSans-4a" transform="translate(164.125 0)"/>
      <use xlink:href="#DejaVuSans-4b" transform="translate(227.609375 0)"/>
      <use xlink:href="#DejaVuSans-45" transform="translate(290.984375 0)"/>
      <use xlink:href="#DejaVuSans-52" transform="translate(354.46875 0)"/>
      <use xlink:href="#DejaVuSans-55" transform="translate(415.65625 0)"/>
      <use xlink:href="#DejaVuSans-56" transform="translate(456.765625 0)"/>
     </g>
    </g>
   </g>
  </g>
 </g>
 <defs>
  <clipPath id="pb225f04277">
   <rect x="7.2" y="30.117344" width="856" height="200.22877"/>
  </clipPath>
 </defs>
</svg>
