<?xml version="1.0" encoding="utf-8" standalone="no"?>
<!DOCTYPE svg PUBLIC "-//W3C//DTD SVG 1.1//EN"
  "http://www.w3.org/Graphics/SVG/1.1/DTD/svg11.dtd">
<svg xmlns:xlink="http://www.w3.org/1999/xlink" width="395.886348pt" height="510.356016pt" viewBox="0 0 395.886348 510.356016" xmlns="http://www.w3.org/2000/svg" version="1.1">
 <metadata>
  <rdf:RDF xmlns:dc="http://purl.org/dc/elements/1.1/" xmlns:cc="http://creativecommons.org/ns#" xmlns:rdf="http://www.w3.org/1999/02/22-rdf-syntax-ns#">
   <cc:Work>
    <dc:type rdf:resource="http://purl.org/dc/dcmitype/StillImage"/>
    <dc:date>2026-06-19T08:36:16.244601</dc:date>
    <dc:format>image/svg+xml</dc:format>
    <dc:creator>
     <cc:Agent>
      <dc:title>Matplotlib v3.11.0, https://matplotlib.org/</dc:title>
     </cc:Agent>
    </dc:creator>
   </cc:Work>
  </rdf:RDF>
 </metadata>
 <defs>
  <style type="text/css">*{stroke-linejoin: round; stroke-linecap: butt}</style>
 </defs>
 <g id="figure_1">
  <g id="patch_1">
   <path d="M -0 510.356016 
L 395.886348 510.356016 
L 395.886348 -0 
L -0 -0 
z
" style="fill: #d6eaf8"/>
  </g>
  <g id="axes_1">
   <g id="PatchCollection_1">
    <path d="M 151.800339 404.712939 
L 156.907056 403.551653 
L 158.366118 403.087139 
L 159.82518 402.15811 
L 160.554711 401.229081 
L 161.284242 399.835537 
L 161.284242 399.60328 
L 160.919476 398.674251 
L 159.095649 392.171049 
L 158.366118 389.383962 
L 157.636587 379.396901 
L 158.001352 378.003358 
L 158.730883 376.1453 
L 159.82518 374.751756 
L 162.013773 372.429184 
L 162.743304 371.267898 
L 162.743304 370.338869 
L 162.378538 368.248554 
L 161.649007 364.764696 
L 161.649007 364.067924 
L 161.649007 361.745352 
L 164.567131 360.119551 
L 166.755724 362.67438 
L 167.85002 363.371152 
L 169.673848 363.371152 
L 170.403379 362.67438 
L 171.497675 360.584065 
L 172.227206 360.119551 
L 172.956737 360.816323 
L 175.14533 363.603409 
L 175.874861 364.300181 
L 178.063454 363.371152 
L 179.157751 362.209866 
L 180.252047 361.04858 
L 182.075875 358.261493 
L 182.805406 355.706664 
L 183.170171 355.009892 
L 183.534937 352.222805 
L 183.170171 351.061519 
L 182.075875 346.880889 
L 182.075875 343.629288 
L 183.534937 336.893828 
L 184.629233 333.874484 
L 186.453061 331.551912 
L 189.006419 329.926111 
L 198.490322 326.67451 
L 205.785632 324.351937 
L 208.703756 323.190651 
L 211.257115 322.029365 
L 212.351411 320.868079 
L 215.634301 317.384221 
L 218.187659 315.75842 
L 218.91719 315.75842 
L 219.646721 315.990677 
L 221.105783 316.687449 
L 224.753438 319.706793 
L 228.401093 323.422908 
L 230.224921 326.209995 
L 230.954452 328.068053 
L 231.319217 328.532568 
L 232.413514 329.461596 
L 233.143045 329.461596 
L 237.520231 330.390625 
L 238.614527 330.158368 
L 238.614527 329.229339 
L 238.614527 328.997082 
L 238.614527 326.209995 
L 238.614527 325.048709 
L 238.249762 324.11968 
L 237.884996 323.422908 
L 238.249762 322.261622 
L 244.08601 312.971333 
L 244.815541 312.506819 
L 245.545072 312.042304 
L 247.368899 311.810047 
L 250.651788 313.20359 
L 251.746085 312.971333 
L 251.746085 312.274561 
L 251.016554 310.881018 
L 250.651788 309.719732 
L 252.475616 308.790703 
L 253.569912 309.255217 
L 254.664209 310.184246 
L 255.758505 310.416504 
L 256.123271 309.951989 
L 257.217567 308.790703 
L 258.676629 309.951989 
L 260.865222 309.951989 
L 265.242408 308.790703 
L 266.70147 309.487475 
L 271.443422 309.487475 
L 275.091077 310.416504 
L 276.914904 310.416504 
L 278.373966 309.487475 
L 279.833028 307.629417 
L 281.29209 306.932645 
L 291.140759 300.893957 
L 292.964586 300.429443 
L 296.977007 300.429443 
L 297.706538 300.197185 
L 301.354193 297.177841 
L 302.448489 296.713327 
L 303.542786 296.945584 
L 309.014268 299.732671 
L 312.297158 300.893957 
L 314.120985 301.126214 
L 315.580047 301.358472 
L 319.227702 300.6617 
L 333.088791 294.855269 
L 336.006915 292.068182 
L 336.736446 291.835925 
L 337.101211 292.532697 
L 337.465977 294.855269 
L 337.465977 295.784298 
L 339.289804 297.642356 
L 340.748866 298.803642 
L 342.572694 299.500414 
L 344.396521 299.732671 
L 354.609955 313.20359 
L 358.25761 316.222934 
L 359.716672 320.171307 
L 360.810969 322.261622 
L 361.175734 322.958394 
L 363.364327 325.048709 
L 372.118699 331.319654 
L 373.212996 331.784169 
L 377.954947 334.338998 
L 381.237837 335.03577 
L 381.602602 335.500284 
L 381.967368 336.197056 
L 382.332133 336.661571 
L 383.061664 336.893828 
L 387.803616 336.661571 
L 388.533147 336.893828 
L 389.262678 337.358342 
L 389.262678 338.287371 
L 389.627443 339.2164 
L 390.356974 339.913172 
L 391.086505 339.913172 
L 392.910333 339.2164 
L 393.275098 339.2164 
L 394.369395 340.145429 
L 395.098926 340.842201 
L 395.098926 341.77123 
L 395.463691 343.629288 
L 396.193222 345.255088 
L 396.557988 346.648632 
L 396.557988 349.900233 
L 397.287519 353.151834 
L 398.381815 356.171178 
L 398.746581 357.100207 
L 398.381815 359.190522 
L 398.746581 360.351808 
L 399.111346 360.351808 
L 399.111346 360.816323 
L 400.570408 361.513094 
L 400.935174 361.977609 
L 401.664705 363.603409 
L 402.759001 368.248554 
L 404.947594 373.59047 
L 405.312359 374.519499 
L 406.406656 374.984014 
L 408.960014 375.216271 
L 410.054311 375.680785 
L 411.878138 378.467872 
L 411.878138 381.719473 
L 410.783842 384.971075 
L 409.32478 387.06139 
L 408.595249 388.68719 
L 407.865718 390.545248 
L 407.500952 391.24202 
L 407.136187 391.706534 
L 405.312359 392.171049 
L 404.947594 392.635563 
L 404.582828 394.261364 
L 404.218063 396.119422 
L 403.853297 397.97748 
L 404.218063 399.835537 
L 404.582828 400.764566 
L 405.312359 402.15811 
L 405.677125 403.087139 
L 405.677125 404.016167 
L 404.947594 406.33874 
L 405.312359 408.429055 
L 405.312359 417.951601 
L 405.677125 418.648373 
L 406.04189 420.041916 
L 406.406656 420.738688 
L 406.04189 421.43546 
L 404.947594 423.06126 
L 404.582828 423.758032 
L 404.582828 426.777376 
L 405.312359 429.564463 
L 404.947594 432.119292 
L 402.394236 434.209607 
L 393.275098 433.512836 
L 390.356974 433.97735 
L 388.533147 434.209607 
L 386.709319 436.067665 
L 385.615023 436.996694 
L 384.885492 440.945067 
L 384.520726 441.409582 
L 384.155961 452.093414 
L 383.42643 457.435331 
L 381.967368 460.222417 
L 380.873071 461.151446 
L 379.778775 460.454675 
L 377.954947 458.828874 
L 377.225416 457.667588 
L 376.495885 456.738559 
L 376.13112 456.041787 
L 376.13112 455.80953 
L 375.036823 455.577273 
L 373.212996 456.041787 
L 372.84823 456.970816 
L 373.212996 458.132102 
L 372.84823 459.293388 
L 371.024403 461.615961 
L 369.200575 463.009504 
L 369.200575 463.241761 
L 367.376748 463.938533 
L 365.188155 463.938533 
L 361.905265 463.474019 
L 360.446203 463.474019 
L 358.25761 464.17079 
L 356.798548 464.403047 
L 355.339486 464.635305 
L 352.421362 464.635305 
L 351.327066 464.17079 
L 349.138473 462.777247 
L 348.044176 462.312732 
L 346.94988 462.080475 
L 344.396521 462.54499 
L 342.207928 462.54499 
L 341.478397 463.241761 
L 340.748866 463.241761 
L 340.748866 462.54499 
L 340.384101 460.919189 
L 340.384101 460.222417 
L 339.289804 459.99016 
L 336.37168 459.525646 
L 332.35926 458.364359 
L 331.264963 458.132102 
L 330.535432 458.132102 
L 327.982074 458.364359 
L 325.793481 459.525646 
L 322.145826 462.777247 
L 319.957233 463.706276 
L 319.227702 463.241761 
L 315.944813 461.383703 
L 315.580047 461.151446 
L 315.580047 460.454675 
L 315.215282 459.757903 
L 314.485751 459.525646 
L 314.120985 459.757903 
L 313.026689 460.919189 
L 312.661923 461.151446 
L 306.096144 463.241761 
L 302.813255 464.867562 
L 302.083724 465.564334 
L 300.259896 466.957877 
L 299.530365 467.886906 
L 299.1656 469.048192 
L 299.1656 471.370764 
L 299.1656 471.835279 
L 298.800834 472.996565 
L 297.341772 475.08688 
L 293.694117 478.570739 
L 292.599821 481.125568 
L 288.5874 483.912655 
L 287.493104 485.306198 
L 287.493104 486.467484 
L 287.493104 487.861028 
L 287.128338 489.486828 
L 285.669276 490.880372 
L 284.939745 490.880372 
L 282.751152 491.344886 
L 277.644435 490.1836 
L 274.726311 491.577143 
L 274.726311 492.041658 
L 274.361546 493.899716 
L 273.99678 494.596487 
L 273.632015 494.828745 
L 272.172953 494.828745 
L 271.443422 494.828745 
L 270.349125 495.757774 
L 268.160532 498.080346 
L 267.066236 498.777118 
L 264.512877 498.080346 
L 259.770926 493.899716 
L 259.40616 493.899716 
L 251.746085 492.73843 
L 249.192726 492.970687 
L 247.004133 493.899716 
L 243.356479 497.848089 
L 241.532651 498.777118 
L 238.249762 499.473889 
L 234.602107 499.473889 
L 233.143045 499.241632 
L 229.49539 498.312603 
L 226.942031 498.080346 
L 219.646721 500.402918 
L 204.691336 501.09969 
L 204.691336 497.383574 
L 203.961805 494.828745 
L 202.137977 493.202944 
L 197.03126 491.577143 
L 191.924543 490.880372 
L 191.559778 490.880372 
L 189.73595 491.344886 
L 186.453061 494.131973 
L 184.629233 494.828745 
L 182.075875 494.36423 
L 180.981578 493.435201 
L 179.522516 492.273915 
L 178.063454 489.022314 
L 176.239627 481.125568 
L 174.051034 472.299793 
L 173.321503 469.977221 
L 172.227206 469.048192 
L 171.13291 469.048192 
L 170.768144 468.815935 
L 169.673848 469.048192 
L 168.214786 468.815935 
L 167.485255 468.35142 
L 165.296662 467.422391 
L 164.567131 465.564334 
L 164.567131 463.241761 
L 164.202366 459.99016 
L 162.743304 456.738559 
L 158.730883 451.396643 
L 157.636587 447.912784 
L 155.812759 440.480553 
L 155.447994 436.299923 
L 155.447994 436.067665 
L 155.812759 433.280579 
L 157.271821 433.745093 
L 158.730883 433.048321 
L 159.82518 431.190263 
L 160.919476 429.332206 
L 161.649007 427.009633 
L 161.649007 425.151575 
L 161.649007 424.919318 
L 160.919476 423.525775 
L 159.82518 421.667717 
L 159.095649 421.203203 
L 157.271821 420.970945 
L 156.54229 420.274174 
L 156.54229 419.577402 
L 156.177525 417.25483 
L 155.812759 416.325801 
L 155.812759 415.861286 
L 154.718463 413.770971 
L 153.988932 412.841942 
L 152.894635 412.377428 
L 152.165104 410.287113 
L 152.165104 406.570997 
z
" clip-path="url(#p74e1bc56db)" style="fill: #bdc3c7; stroke: #ffffff; stroke-width: 0.5"/>
    <path d="M 33.251552 317.848735 
L 33.616317 316.455192 
L 36.534441 313.20359 
L 46.018344 297.874613 
L 46.38311 297.177841 
L 46.38311 295.319784 
L 46.38311 294.390755 
L 47.477406 292.068182 
L 47.842172 291.371411 
L 52.948889 285.332723 
L 54.407951 283.01015 
L 56.596544 281.616607 
L 58.055606 279.758549 
L 59.514668 277.435977 
L 60.608964 274.881147 
L 61.338495 272.790832 
L 62.432792 271.861803 
L 63.891854 270.932774 
L 65.350916 269.539231 
L 65.715681 267.91343 
L 66.445212 264.197315 
L 66.809978 262.339257 
L 68.633805 259.55217 
L 71.187164 256.532826 
L 72.28146 255.37154 
L 74.105288 253.745739 
L 76.293881 252.81671 
L 78.847239 253.977997 
L 80.306301 256.997341 
L 81.035832 260.481199 
L 81.400598 261.874742 
L 81.400598 263.036029 
L 81.035832 263.036029 
L 80.671067 263.7328 
L 79.941536 265.358601 
L 79.941536 266.28763 
L 79.57677 268.377945 
L 79.57677 269.306974 
L 79.941536 270.700517 
L 81.765363 274.881147 
L 85.048253 277.435977 
L 86.87208 278.365006 
L 88.695907 278.597263 
L 89.790204 278.365006 
L 90.154969 278.132749 
L 94.16739 275.810176 
L 94.896921 274.881147 
L 97.450279 273.023089 
L 102.556996 273.255347 
L 105.110355 272.558575 
L 108.75801 267.681173 
L 110.946603 266.055373 
L 113.499961 267.681173 
L 115.688554 269.771488 
L 120.795271 272.790832 
L 122.254333 274.881147 
L 125.172457 281.848864 
L 125.901988 282.545636 
L 126.996285 283.939179 
L 127.725816 285.100465 
L 127.725816 286.029494 
L 126.631519 287.655295 
L 126.631519 288.584324 
L 126.996285 289.513353 
L 128.455347 290.906896 
L 129.184878 291.603668 
L 129.184878 292.764954 
L 129.184878 294.623012 
L 129.184878 295.552041 
L 130.279174 297.874613 
L 131.008705 298.803642 
L 132.103002 299.035899 
L 139.033546 298.803642 
L 140.857374 299.035899 
L 153.259401 308.326189 
L 155.083228 310.184246 
L 155.812759 311.113275 
L 157.636587 313.668105 
L 161.649007 322.029365 
L 162.743304 325.745481 
L 162.743304 328.30031 
L 162.743304 332.713198 
L 163.472835 335.268027 
L 166.755724 343.629288 
L 167.120489 346.416374 
L 167.485255 348.274432 
L 167.485255 349.900233 
L 166.755724 352.455062 
L 165.661428 353.616348 
L 164.931897 354.080863 
L 164.567131 354.777635 
L 163.8376 356.403435 
L 163.8376 357.564721 
L 164.567131 359.190522 
L 164.567131 360.119551 
L 161.649007 361.745352 
L 161.649007 364.067924 
L 161.649007 364.764696 
L 162.378538 368.248554 
L 162.743304 370.338869 
L 162.743304 371.267898 
L 162.013773 372.429184 
L 159.82518 374.751756 
L 158.730883 376.1453 
L 158.001352 378.003358 
L 157.636587 379.396901 
L 158.366118 389.383962 
L 159.095649 392.171049 
L 160.919476 398.674251 
L 161.284242 399.60328 
L 161.284242 399.835537 
L 160.554711 401.229081 
L 159.82518 402.15811 
L 158.366118 403.087139 
L 156.907056 403.551653 
L 151.800339 404.712939 
L 152.165104 406.570997 
L 152.165104 410.287113 
L 152.894635 412.377428 
L 153.988932 412.841942 
L 154.718463 413.770971 
L 155.812759 415.861286 
L 155.812759 416.325801 
L 156.177525 417.25483 
L 156.54229 419.577402 
L 156.54229 420.274174 
L 157.271821 420.970945 
L 159.095649 421.203203 
L 159.82518 421.667717 
L 160.919476 423.525775 
L 161.649007 424.919318 
L 161.649007 425.151575 
L 161.649007 427.009633 
L 160.919476 429.332206 
L 159.82518 431.190263 
L 158.730883 433.048321 
L 157.271821 433.745093 
L 155.812759 433.280579 
L 155.447994 436.067665 
L 155.447994 436.299923 
L 155.812759 440.480553 
L 157.636587 447.912784 
L 158.730883 451.396643 
L 162.743304 456.738559 
L 164.202366 459.99016 
L 164.567131 463.241761 
L 164.567131 465.564334 
L 165.296662 467.422391 
L 167.485255 468.35142 
L 168.214786 468.815935 
L 169.673848 469.048192 
L 170.768144 468.815935 
L 171.13291 469.048192 
L 172.227206 469.048192 
L 173.321503 469.977221 
L 174.051034 472.299793 
L 176.239627 481.125568 
L 178.063454 489.022314 
L 179.522516 492.273915 
L 180.981578 493.435201 
L 182.075875 494.36423 
L 184.629233 494.828745 
L 186.453061 494.131973 
L 189.73595 491.344886 
L 191.559778 490.880372 
L 191.924543 490.880372 
L 197.03126 491.577143 
L 202.137977 493.202944 
L 203.961805 494.828745 
L 204.691336 497.383574 
L 204.691336 501.09969 
L 205.056101 507.602892 
L 204.32657 510.389979 
L 202.502743 512.712551 
L 203.597039 513.409323 
L 203.961805 514.570609 
L 203.961805 515.499638 
L 204.691336 516.660924 
L 207.60946 519.448011 
L 210.162818 522.93187 
L 211.257115 524.789927 
L 211.986646 527.1125 
L 211.986646 529.899586 
L 211.62188 532.454416 
L 210.527584 537.099561 
L 210.527584 538.725361 
L 210.162818 539.886647 
L 210.162818 541.047934 
L 209.798053 542.441477 
L 209.068522 543.138249 
L 207.974225 543.602763 
L 207.244694 544.531792 
L 206.515163 545.925335 
L 205.056101 546.157593 
L 203.961805 547.086622 
L 203.232274 548.247908 
L 203.597039 549.873708 
L 203.232274 550.802737 
L 202.867508 551.499509 
L 201.773212 552.893052 
L 199.219853 554.75111 
L 197.03126 554.054338 
L 194.842667 552.893052 
L 191.924543 552.893052 
L 190.830247 553.822081 
L 190.100716 554.983367 
L 189.73595 556.376911 
L 189.006419 557.770454 
L 187.912123 558.234969 
L 186.088295 558.93174 
L 184.993999 559.860769 
L 184.993999 561.022055 
L 185.358764 564.970428 
L 185.358764 566.363972 
L 184.993999 567.989772 
L 184.629233 569.151058 
L 183.534937 571.241373 
L 181.711109 575.422004 
L 181.711109 576.118775 
L 180.616813 576.815547 
L 179.522516 577.512319 
L 178.42822 578.20909 
L 177.698689 579.602634 
L 177.333923 582.621978 
L 177.698689 585.409065 
L 177.333923 588.196151 
L 176.239627 591.68001 
L 175.874861 592.144524 
L 174.415799 592.609039 
L 173.686268 593.30581 
L 173.686268 594.002582 
L 174.051034 595.628383 
L 174.051034 596.325154 
L 174.780565 598.879984 
L 174.415799 599.576756 
L 172.956737 603.989643 
L 172.591972 604.918672 
L 171.862441 605.383186 
L 169.309082 606.77673 
L 165.296662 608.634788 
L 163.108069 608.867045 
L 157.636587 607.938016 
L 155.812759 608.634788 
L 153.988932 609.563817 
L 150.706042 609.099302 
L 148.882215 610.028331 
L 147.423153 611.654132 
L 146.328856 613.744447 
L 145.599325 616.299276 
L 145.23456 618.621849 
L 143.410732 619.086363 
L 138.304015 619.31862 
L 137.209719 619.550877 
L 137.574484 620.712164 
L 139.033546 629.073424 
L 139.763077 630.002453 
L 141.95167 632.325025 
L 146.693622 640.454028 
L 147.058387 642.776601 
L 146.328856 645.563687 
L 144.505029 647.421745 
L 142.681201 647.421745 
L 141.222139 646.260459 
L 137.209719 644.634658 
L 136.115422 644.402401 
L 135.385891 644.866916 
L 134.65636 645.795945 
L 135.021126 646.492716 
L 135.385891 646.957231 
L 135.750657 648.118517 
L 135.750657 648.815288 
L 135.021126 650.441089 
L 135.021126 650.905604 
L 135.021126 651.370118 
L 135.750657 652.299147 
L 136.115422 652.763661 
L 136.480188 653.924948 
L 136.844953 654.621719 
L 137.209719 655.318491 
L 136.844953 656.712034 
L 135.750657 658.570092 
L 133.562064 659.731378 
L 132.103002 661.124922 
L 131.738236 664.144266 
L 131.008705 663.679751 
L 129.914409 663.447494 
L 129.184878 663.447494 
L 128.455347 663.679751 
L 127.725816 664.60878 
L 127.36105 665.537809 
L 127.725816 666.699095 
L 127.36105 667.395867 
L 125.537223 667.860381 
L 123.34863 666.699095 
L 120.795271 664.144266 
L 116.05332 661.589436 
L 112.040899 660.195893 
L 108.393244 659.034607 
L 106.934182 659.963636 
L 106.569417 660.195893 
L 106.569417 660.892664 
L 105.839886 660.892664 
L 105.110355 659.034607 
L 105.47512 656.712034 
L 107.298948 652.531404 
L 105.47512 651.834632 
L 105.110355 651.137861 
L 106.569417 647.654002 
L 108.393244 640.918543 
L 108.75801 639.292742 
L 108.028479 636.273398 
L 106.934182 635.576626 
L 105.110355 635.344369 
L 102.921762 634.647597 
L 102.921762 634.183083 
L 102.921762 633.718569 
L 102.921762 633.021797 
L 102.192231 632.557282 
L 101.097934 631.860511 
L 100.003638 631.395996 
L 98.17981 631.395996 
L 97.450279 630.699225 
L 97.450279 629.770196 
L 98.909341 627.912138 
L 100.003638 626.983109 
L 101.097934 626.05408 
L 99.274107 624.428279 
L 94.532155 614.905733 
L 93.802624 613.047675 
L 93.073093 611.654132 
L 92.343562 610.95736 
L 89.060673 610.95736 
L 87.236846 610.492845 
L 86.142549 610.028331 
L 87.236846 609.099302 
L 84.318722 607.241244 
L 83.953956 608.170273 
L 83.953956 608.40253 
L 83.589191 609.099302 
L 83.224425 607.938016 
L 82.85966 607.241244 
L 82.130129 606.77673 
L 81.400598 606.312215 
L 81.400598 605.615444 
L 80.671067 603.989643 
L 79.941536 602.5961 
L 79.57677 603.060614 
L 78.482474 601.899328 
L 71.916695 599.576756 
L 66.080447 596.092897 
L 62.797557 593.073553 
L 57.326075 591.215495 
L 54.043185 588.428409 
L 44.194517 577.280061 
L 43.10022 575.422004 
L 42.735455 574.260717 
L 41.276393 567.989772 
L 40.546862 566.363972 
L 36.899207 562.647856 
L 35.80491 561.022055 
L 35.440145 560.325284 
L 35.075379 560.093026 
L 35.075379 559.163998 
L 37.628738 557.538197 
L 39.452565 557.538197 
L 40.911627 558.699483 
L 44.559282 563.11237 
L 45.288813 564.738171 
L 46.747875 567.989772 
L 47.477406 570.080087 
L 47.477406 571.938145 
L 48.571703 572.40266 
L 50.760296 571.938145 
L 52.948889 571.009116 
L 53.67842 569.84783 
L 54.407951 557.538197 
L 54.043185 555.447882 
L 51.489827 553.822081 
L 48.206937 550.105966 
L 45.288813 546.157593 
L 44.924048 543.138249 
L 45.288813 544.067278 
L 45.653579 544.996306 
L 46.018344 546.157593 
L 46.747875 545.925335 
L 47.477406 545.925335 
L 49.665999 548.247908 
L 50.760296 547.551136 
L 51.489827 544.996306 
L 51.854592 541.744705 
L 50.39553 538.957618 
L 47.842172 537.564075 
L 45.288813 538.260847 
L 44.924048 542.20922 
L 44.194517 539.886647 
L 36.899207 529.202815 
L 36.534441 528.041529 
L 36.899207 526.415728 
L 38.358269 525.022185 
L 39.817331 523.860898 
L 41.276393 522.467355 
L 42.005924 520.144783 
L 42.370689 518.054468 
L 42.735455 509.693207 
L 43.10022 507.602892 
L 43.829751 505.977092 
L 45.653579 505.512577 
L 46.747875 505.048063 
L 46.38311 503.886777 
L 45.653579 502.493233 
L 45.288813 501.564204 
L 46.018344 500.635175 
L 46.747875 499.473889 
L 47.112641 498.54486 
L 47.477406 498.312603 
L 46.747875 496.686802 
L 45.288813 494.828745 
L 44.194517 492.970687 
L 45.288813 492.273915 
L 46.747875 491.577143 
L 48.571703 488.557799 
L 50.39553 487.396513 
L 48.936468 489.022314 
L 49.665999 492.273915 
L 48.936468 495.061002 
L 48.936468 497.848089 
L 49.665999 497.848089 
L 50.030765 495.990031 
L 50.030765 496.454545 
L 50.030765 496.91906 
L 50.39553 497.848089 
L 51.489827 495.990031 
L 56.961309 493.435201 
L 58.785137 491.344886 
L 58.785137 487.861028 
L 57.69084 485.073941 
L 56.596544 482.751369 
L 55.867013 479.964282 
L 55.502247 483.44814 
L 54.043185 486.699742 
L 51.489827 490.880372 
L 51.489827 490.1836 
L 51.125061 489.254571 
L 52.219358 488.325542 
L 53.313654 486.235227 
L 54.043185 483.680398 
L 53.67842 480.893311 
L 53.313654 480.196539 
L 51.489827 479.499767 
L 51.125061 479.035253 
L 50.39553 477.409452 
L 50.39553 476.712681 
L 50.760296 476.015909 
L 51.854592 465.564334 
L 51.489827 463.474019 
L 50.760296 462.54499 
L 50.39553 461.383703 
L 50.39553 460.454675 
L 52.584123 459.525646 
L 52.948889 457.899845 
L 52.948889 456.041787 
L 52.948889 454.415987 
L 57.326075 447.680527 
L 58.055606 445.125697 
L 57.69084 442.338611 
L 56.596544 439.783781 
L 55.137482 438.15798 
L 53.313654 437.461209 
L 51.125061 437.461209 
L 49.301234 437.228951 
L 48.206937 435.835408 
L 47.477406 433.280579 
L 47.477406 427.706405 
L 47.112641 426.545119 
L 45.653579 424.919318 
L 45.288813 423.525775 
L 46.747875 425.151575 
L 48.936468 425.151575 
L 50.760296 423.293518 
L 50.39553 419.577402 
L 52.584123 418.416116 
L 55.137482 416.093543 
L 57.326075 413.306457 
L 58.055606 409.590341 
L 57.69084 407.500026 
L 56.961309 406.570997 
L 55.867013 406.106483 
L 54.407951 405.409711 
L 52.948889 404.016167 
L 51.489827 401.229081 
L 50.39553 399.835537 
L 59.149902 400.996823 
L 62.068026 400.067795 
L 62.797557 399.835537 
L 64.98615 395.190393 
L 65.715681 395.190393 
L 65.715681 396.583936 
L 66.080447 397.512965 
L 66.809978 397.512965 
L 67.539509 397.048451 
L 66.809978 393.332335 
L 66.445212 392.403306 
L 65.715681 393.332335 
L 64.98615 392.171049 
L 62.068026 389.383962 
L 64.256619 385.667846 
L 63.891854 381.487216 
L 63.527088 376.842072 
L 63.527088 374.287242 
L 65.350916 374.984014 
L 66.445212 373.125956 
L 66.445212 370.338869 
L 65.715681 367.78404 
L 64.98615 367.78404 
L 52.948889 362.67438 
L 51.489827 361.745352 
L 49.301234 360.816323 
L 42.735455 363.138895 
L 42.370689 361.745352 
L 42.735455 358.029236 
L 41.641158 356.635692 
L 40.911627 355.706664 
L 40.546862 355.009892 
L 40.546862 354.545377 
L 40.546862 353.616348 
L 40.911627 352.919577 
L 41.276393 352.222805 
L 41.276393 351.293776 
L 40.546862 348.042175 
L 41.276393 347.57766 
L 42.005924 347.345403 
L 42.735455 346.880889 
L 43.10022 344.558316 
L 42.370689 343.629288 
L 41.641158 341.538972 
L 41.276393 338.984143 
L 41.276393 336.197056 
L 41.641158 333.874484 
L 43.464986 329.693854 
L 43.464986 328.532568 
L 43.10022 328.068053 
L 41.641158 326.209995 
L 35.80491 322.029365 
L 34.345848 320.171307 
z
" clip-path="url(#p74e1bc56db)" style="fill: #bdc3c7; stroke: #ffffff; stroke-width: 0.5"/>
    <path d="M -10.155542 -181.968825 
L -9.790777 -182.665597 
L -9.426011 -183.130111 
L -9.426011 -184.05914 
L -9.061246 -187.775256 
L -5.778356 -188.007513 
L -4.68406 -188.23977 
L -3.954529 -189.168799 
L -3.954529 -190.330085 
L -5.048825 -191.491372 
L -7.237418 -192.884915 
L -6.507887 -194.046201 
L -5.413591 -194.742973 
L -3.954529 -195.904259 
L -4.319294 -197.994574 
L 1.881719 -197.53006 
L 3.705547 -196.601031 
L 4.435078 -196.833288 
L 4.435078 -197.297802 
L 4.070312 -197.994574 
L 3.340781 -199.15586 
L 3.340781 -199.620375 
L 3.340781 -200.084889 
L 3.705547 -200.549404 
L 6.258905 -202.175204 
L 8.812263 -201.942947 
L 10.636091 -202.407461 
L 10.636091 -206.355834 
L 12.095153 -209.142921 
L 14.648511 -210.07195 
L 16.837104 -209.142921 
L 18.296166 -206.588092 
L 18.296166 -206.355834 
L 20.484759 -205.194548 
L 29.603897 -204.265519 
L 32.157255 -204.962291 
L 33.616317 -206.355834 
L 33.981083 -207.981635 
L 34.710614 -209.607436 
L 35.80491 -210.536465 
L 36.534441 -211.000979 
L 38.723034 -211.465493 
L 42.370689 -211.465493 
L 43.829751 -211.930008 
L 44.924048 -213.091294 
L 45.653579 -214.484837 
L 46.747875 -215.646124 
L 47.842172 -216.342895 
L 48.936468 -216.342895 
L 50.030765 -216.80741 
L 51.489827 -217.968696 
L 52.219358 -219.129982 
L 52.948889 -220.059011 
L 53.67842 -220.98804 
L 56.231778 -222.381583 
L 55.867013 -223.542869 
L 55.137482 -224.704156 
L 55.137482 -225.865442 
L 56.596544 -227.491242 
L 58.785137 -228.884786 
L 61.338495 -230.046072 
L 63.162323 -230.278329 
L 65.350916 -230.278329 
L 71.187164 -231.439615 
L 73.375757 -231.207358 
L 75.56435 -230.510586 
L 77.752943 -229.3493 
L 83.953956 -225.400927 
L 85.777784 -225.16867 
L 94.16739 -228.420271 
L 95.626452 -229.117043 
L 99.638872 -229.813815 
L 106.204651 -229.3493 
L 110.581837 -227.026728 
L 113.499961 -227.491242 
L 116.05332 -228.652529 
L 116.782851 -228.652529 
L 118.606678 -228.420271 
L 118.971444 -227.955757 
L 120.06574 -226.562213 
L 120.795271 -226.097699 
L 121.524802 -226.329956 
L 124.078161 -227.491242 
L 125.901988 -226.794471 
L 131.373471 -222.381583 
L 137.93925 -214.717095 
L 139.033546 -212.62678 
L 141.222139 -206.355834 
L 142.681201 -204.265519 
L 144.505029 -202.871976 
L 148.517449 -201.246175 
L 150.341277 -200.084889 
L 155.812759 -195.439745 
L 157.636587 -194.510716 
L 161.284242 -194.278458 
L 163.472835 -193.349429 
L 164.931897 -191.955886 
L 168.214786 -186.149455 
L 168.944317 -185.684941 
L 170.768144 -184.523655 
L 171.497675 -183.594626 
L 171.862441 -182.43334 
L 171.862441 -179.646253 
L 172.227206 -179.181738 
L 172.227206 -178.252709 
L 173.321503 -176.859166 
L 175.510096 -173.839822 
L 176.604392 -171.981764 
L 177.698689 -171.052735 
L 179.157751 -170.820478 
L 180.616813 -171.052735 
L 181.711109 -172.214022 
L 182.44064 -173.607565 
L 183.170171 -175.001108 
L 184.629233 -175.233365 
L 185.72353 -174.768851 
L 186.453061 -173.375308 
L 186.453061 -172.214022 
L 186.088295 -170.820478 
L 185.72353 -169.426935 
L 186.088295 -162.226961 
L 185.72353 -160.368903 
L 185.358764 -159.207617 
L 184.264468 -156.652787 
L 183.534937 -153.168929 
L 183.899702 -150.846356 
L 186.817826 -145.968954 
L 187.912123 -142.717353 
L 187.912123 -140.859295 
L 186.453061 -139.465752 
L 183.899702 -137.607694 
L 184.629233 -135.749636 
L 186.088295 -134.820607 
L 187.912123 -134.356093 
L 189.73595 -133.427064 
L 191.195012 -132.033521 
L 194.477902 -127.388376 
L 201.043681 -121.814202 
L 204.691336 -116.936801 
L 206.515163 -115.543257 
L 209.798053 -114.149714 
L 214.90477 -112.059399 
L 215.634301 -111.13037 
L 216.728597 -110.201341 
L 217.458128 -109.504569 
L 218.552425 -109.272312 
L 219.646721 -109.736826 
L 221.470549 -111.362627 
L 222.564845 -111.594884 
L 224.023907 -110.433598 
L 227.306797 -105.556196 
L 229.130624 -103.698138 
L 232.413514 -101.375566 
L 234.237341 -100.678794 
L 238.614527 -100.446537 
L 249.192726 -97.427193 
L 252.11085 -95.801393 
L 254.664209 -93.711078 
L 257.217567 -90.923991 
L 258.311864 -89.762705 
L 258.676629 -87.904647 
L 258.311864 -86.278846 
L 257.217567 -85.11756 
L 255.758505 -85.11756 
L 254.664209 -84.653046 
L 253.934678 -83.724017 
L 253.205147 -82.562731 
L 253.205147 -82.330473 
L 253.205147 -81.633702 
L 253.205147 -80.472415 
L 253.205147 -80.007901 
L 252.840381 -79.311129 
L 252.11085 -78.3821 
L 251.746085 -77.685329 
L 251.381319 -75.827271 
L 251.381319 -74.898242 
L 251.016554 -74.20147 
L 249.557492 -73.272441 
L 248.827961 -72.807927 
L 245.909837 -72.57567 
L 245.180306 -72.111155 
L 244.450775 -70.949869 
L 243.721244 -69.556326 
L 244.08601 -68.395039 
L 245.545072 -68.162782 
L 247.004133 -67.930525 
L 247.368899 -67.233753 
L 247.368899 -66.304724 
L 247.368899 -65.607953 
L 249.557492 -64.214409 
L 254.664209 -63.28538 
L 257.217567 -62.124094 
L 260.500457 -60.730551 
L 261.959519 -59.569265 
L 263.053815 -57.246692 
L 262.68905 -54.691863 
L 261.229988 -53.530577 
L 257.217567 -52.369291 
L 254.299443 -51.904776 
L 248.463195 -52.137033 
L 245.545072 -51.208004 
L 244.450775 -50.046718 
L 243.356479 -48.653175 
L 242.991713 -46.795117 
L 244.815541 -46.098345 
L 246.639368 -44.704802 
L 248.463195 -40.988686 
L 249.922257 -40.291915 
L 258.676629 -39.362886 
L 264.877643 -39.8274 
L 266.70147 -39.362886 
L 268.525298 -37.737085 
L 269.619594 -35.414513 
L 269.98436 -33.09194 
L 271.078656 -30.537111 
L 274.726311 -26.820995 
L 279.833028 -25.427452 
L 284.939745 -25.427452 
L 289.316931 -26.356481 
L 293.329352 -27.982281 
L 294.788414 -28.446796 
L 296.612241 -27.982281 
L 305.731379 -23.337137 
L 309.014268 -22.872622 
L 310.108565 -21.943593 
L 312.661923 -15.208134 
L 313.026689 -14.279105 
L 313.391454 -13.350076 
L 313.75622 -11.724275 
L 314.120985 -10.562989 
L 315.215282 -9.63396 
L 316.309578 -8.937188 
L 317.403875 -8.00816 
L 318.498171 -4.059787 
L 320.321999 -2.433986 
L 322.510592 -1.504957 
L 324.699184 -1.2727 
L 326.887777 -1.737214 
L 328.346839 -3.130758 
L 340.019335 -23.337137 
L 340.384101 -25.427452 
L 341.843163 -26.588738 
L 346.220349 -27.517767 
L 348.044176 -28.679053 
L 351.691831 -32.395169 
L 352.786128 -33.324198 
L 355.339486 -33.09194 
L 357.163314 -32.859683 
L 358.622376 -31.930654 
L 365.55292 -24.266166 
L 369.200575 -21.711336 
L 372.483465 -20.085535 
L 380.508306 -19.156507 
L 381.967368 -17.99522 
L 387.074085 -12.421047 
L 386.344554 -10.098475 
L 384.885492 -8.240417 
L 382.332133 -7.079131 
L 380.508306 -6.846873 
L 378.319713 -7.311388 
L 374.672058 -9.866217 
L 372.483465 -10.562989 
L 370.294872 -10.795246 
L 368.471044 -10.098475 
L 367.011982 -8.704931 
L 366.282451 -6.382359 
L 365.917686 -4.059787 
L 365.188155 -2.666243 
L 363.729093 -2.201729 
L 360.446203 -1.969472 
L 359.351907 -1.737214 
L 358.622376 -1.040443 
L 358.25761 0.120844 
L 357.892845 1.978901 
L 357.892845 3.836959 
L 358.25761 4.998245 
L 360.446203 6.856303 
L 360.810969 7.785332 
L 360.810969 8.946618 
L 360.810969 11.036933 
L 360.810969 12.19822 
L 362.634796 16.146592 
L 365.188155 19.630451 
L 368.471044 22.417538 
L 372.483465 24.275596 
L 376.860651 24.74011 
L 378.684478 25.669139 
L 379.414009 27.527197 
L 379.049244 34.262656 
L 379.414009 36.120714 
L 379.778775 36.352972 
L 375.401589 38.211029 
L 374.307292 39.140058 
L 372.84823 41.694888 
L 371.389168 43.552946 
L 371.024403 43.785203 
L 371.024403 44.481975 
L 371.024403 45.178746 
L 371.024403 45.643261 
L 371.389168 45.643261 
L 370.294872 49.823891 
L 369.930106 51.217434 
L 370.294872 52.610978 
L 371.024403 55.630322 
L 371.024403 56.791608 
L 369.565341 58.881923 
L 367.741513 59.346437 
L 365.917686 59.11418 
L 363.729093 59.810952 
L 362.634796 61.436752 
L 361.905265 63.527068 
L 360.446203 64.920611 
L 358.25761 64.920611 
L 356.798548 65.152868 
L 353.515659 65.84964 
L 351.327066 66.778669 
L 350.232769 68.636727 
L 349.868004 70.262527 
L 349.868004 74.2109 
L 349.503238 76.533472 
L 349.138473 76.997987 
L 348.408942 78.856045 
L 348.044176 79.552816 
L 347.679411 83.733447 
L 346.94988 87.914077 
L 345.490818 91.165678 
L 345.126052 94.185022 
L 346.220349 97.901138 
L 348.773707 100.920482 
L 349.138473 102.081768 
L 348.773707 104.40434 
L 348.773707 105.333369 
L 349.138473 107.191427 
L 349.868004 109.049485 
L 350.597535 110.675285 
L 351.691831 112.068829 
L 352.786128 113.230115 
L 355.704252 114.855915 
L 356.798548 116.017202 
L 357.528079 117.643002 
L 357.528079 120.894603 
L 358.25761 122.520404 
L 358.25761 122.752661 
L 358.25761 122.984919 
L 357.892845 123.449433 
L 357.892845 123.913947 
L 357.892845 124.378462 
L 358.25761 124.842976 
L 358.622376 125.307491 
L 358.622376 125.539748 
L 358.622376 126.004263 
L 358.25761 126.23652 
L 358.25761 126.933291 
L 357.892845 127.630063 
L 357.892845 128.326835 
L 359.351907 130.881664 
L 361.175734 137.384867 
L 362.270031 139.939696 
L 363.364327 141.33324 
L 367.011982 142.95904 
L 367.741513 143.655812 
L 369.200575 145.51387 
L 369.930106 146.210642 
L 371.024403 146.442899 
L 373.212996 146.210642 
L 374.307292 146.675156 
L 375.036823 147.371928 
L 376.13112 149.6945 
L 376.495885 149.926757 
L 376.860651 150.623529 
L 377.954947 151.088043 
L 379.778775 150.855786 
L 380.873071 151.088043 
L 382.332133 151.784815 
L 383.061664 152.017072 
L 383.791195 152.713844 
L 391.086505 159.913818 
L 392.545567 161.771876 
L 392.910333 162.933162 
L 392.910333 165.487992 
L 393.275098 166.417021 
L 394.004629 167.34605 
L 396.557988 169.900879 
L 399.111346 173.616995 
L 400.570408 175.010538 
L 402.394236 175.939567 
L 407.500952 177.100853 
L 408.960014 177.797625 
L 409.32478 179.423426 
L 409.32478 181.281483 
L 408.230483 185.694371 
L 406.406656 190.339515 
L 404.218063 193.358859 
L 403.488532 194.055631 
L 401.664705 194.98466 
L 400.935174 195.681432 
L 400.570408 196.610461 
L 399.840877 199.16529 
L 399.111346 200.094319 
L 395.098926 204.274949 
L 393.639864 206.133007 
L 392.180802 206.597522 
L 389.262678 207.294293 
L 388.168381 207.991065 
L 387.43885 209.152351 
L 387.074085 211.010409 
L 385.250257 217.513611 
L 384.520726 219.139412 
L 384.520726 219.371669 
L 383.061664 220.765213 
L 380.14354 222.158756 
L 377.225416 222.855528 
L 369.565341 220.765213 
L 366.647217 221.229727 
L 365.188155 222.158756 
L 364.823389 222.855528 
L 364.093858 223.320042 
L 362.270031 223.087785 
L 360.810969 223.087785 
L 360.081438 223.784557 
L 358.25761 226.339386 
L 357.163314 227.268415 
L 354.609955 228.661958 
L 353.880424 229.35873 
L 353.150893 230.287759 
L 352.786128 230.752274 
L 352.786128 231.449045 
L 353.150893 231.91356 
L 355.339486 237.71999 
L 356.798548 239.810305 
L 358.25761 240.971592 
L 358.622376 241.436106 
L 358.622376 241.900621 
L 358.622376 242.365135 
L 358.25761 242.597392 
L 357.163314 243.990936 
L 354.24519 249.100595 
L 354.974721 250.958653 
L 354.609955 254.210254 
L 354.24519 255.836054 
L 353.150893 261.177971 
L 352.786128 263.965057 
L 353.150893 264.197315 
L 358.25761 269.074717 
L 361.5405 271.397289 
L 362.634796 273.023089 
L 363.364327 274.881147 
L 364.093858 276.971462 
L 363.729093 279.758549 
L 362.270031 284.868208 
L 361.175734 287.190781 
L 360.081438 287.887552 
L 358.622376 288.119809 
L 357.163314 288.816581 
L 355.704252 290.906896 
L 353.880424 296.016555 
L 352.421362 297.874613 
L 350.597535 298.571385 
L 346.585114 298.571385 
L 344.396521 299.732671 
L 342.572694 299.500414 
L 340.748866 298.803642 
L 339.289804 297.642356 
L 337.465977 295.784298 
L 337.465977 294.855269 
L 337.101211 292.532697 
L 336.736446 291.835925 
L 336.006915 292.068182 
L 333.088791 294.855269 
L 319.227702 300.6617 
L 315.580047 301.358472 
L 314.120985 301.126214 
L 312.297158 300.893957 
L 309.014268 299.732671 
L 303.542786 296.945584 
L 302.448489 296.713327 
L 301.354193 297.177841 
L 297.706538 300.197185 
L 296.977007 300.429443 
L 292.964586 300.429443 
L 291.140759 300.893957 
L 281.29209 306.932645 
L 279.833028 307.629417 
L 278.373966 309.487475 
L 276.914904 310.416504 
L 275.091077 310.416504 
L 271.443422 309.487475 
L 266.70147 309.487475 
L 265.242408 308.790703 
L 264.512877 305.074587 
L 260.500457 299.035899 
L 260.500457 295.784298 
L 262.68905 293.461726 
L 268.890063 291.603668 
L 270.713891 289.513353 
L 271.443422 287.423038 
L 270.713891 283.01015 
L 271.078656 280.919835 
L 271.808187 279.526292 
L 275.820608 275.345662 
L 280.927325 266.984401 
L 282.021621 263.7328 
L 282.021621 263.268286 
L 281.29209 262.107 
L 280.927325 261.410228 
L 281.29209 261.177971 
L 282.021621 260.713456 
L 282.021621 260.481199 
L 282.386387 260.016685 
L 282.751152 257.229598 
L 282.751152 256.997341 
L 283.845449 256.068312 
L 284.939745 255.603797 
L 286.034042 254.907025 
L 286.398807 253.745739 
L 285.669276 250.726395 
L 283.845449 249.332852 
L 283.115918 248.868337 
L 280.197794 248.171566 
L 278.009201 248.403823 
L 273.632015 250.261881 
L 272.172953 250.261881 
L 270.349125 249.100595 
L 267.066236 245.152222 
L 265.607174 243.758678 
L 263.053815 242.829649 
L 253.205147 241.436106 
L 250.651788 241.668363 
L 249.192726 241.668363 
L 247.733664 241.203849 
L 246.639368 240.507077 
L 246.639368 240.042563 
L 247.004133 239.578048 
L 247.368899 238.881277 
L 247.733664 236.790961 
L 249.192726 232.145817 
L 249.557492 229.823245 
L 249.557492 227.036158 
L 249.557492 226.339386 
L 248.827961 225.1781 
L 246.639368 225.1781 
L 243.356479 224.481328 
L 242.262182 223.784557 
L 240.438355 222.158756 
L 239.344058 221.461984 
L 238.249762 221.229727 
L 235.696403 221.229727 
L 234.602107 220.765213 
L 231.683983 217.513611 
L 231.319217 213.100724 
L 230.954452 208.920094 
L 229.49539 205.90075 
L 227.671562 205.436235 
L 226.577266 206.597522 
L 225.118204 207.294293 
L 223.294376 206.133007 
L 222.20008 204.507206 
L 220.741018 197.307232 
L 219.281956 194.055631 
L 217.458128 192.662088 
L 210.892349 192.42983 
L 208.703756 191.500802 
L 207.60946 190.80403 
L 199.219853 186.158885 
L 191.924543 181.745998 
L 191.195012 180.584712 
L 191.559778 180.584712 
L 191.924543 178.726654 
L 192.289309 176.868596 
L 191.924543 176.171824 
L 193.383605 175.010538 
L 194.113136 175.242795 
L 194.477902 175.242795 
L 193.748371 173.384738 
L 193.01884 172.455709 
L 191.924543 171.52668 
L 190.100716 169.900879 
L 189.006419 169.436365 
L 187.547357 168.97185 
L 184.993999 169.436365 
L 182.44064 170.365394 
L 174.415799 176.404082 
L 172.227206 177.33311 
L 168.944317 177.33311 
L 168.214786 178.029882 
L 167.485255 179.88794 
L 167.85002 181.281483 
L 168.944317 183.836313 
L 169.673848 186.855657 
L 170.403379 188.2492 
L 171.13291 189.178229 
L 171.862441 189.410486 
L 172.956737 189.178229 
L 174.051034 189.178229 
L 174.780565 190.107258 
L 174.415799 193.591117 
L 172.227206 198.004004 
L 169.309082 202.184634 
L 167.485255 204.274949 
L 166.026193 204.274949 
L 164.931897 204.042692 
L 163.8376 203.810435 
L 163.108069 204.971721 
L 162.013773 207.062036 
L 161.649007 207.991065 
L 160.554711 208.687837 
L 158.730883 209.384608 
L 156.907056 209.384608 
L 155.083228 209.849123 
L 153.624166 212.171695 
L 152.52987 215.887811 
L 154.353697 217.745869 
L 156.54229 219.139412 
L 156.907056 220.765213 
L 157.636587 221.926499 
L 155.083228 225.1781 
L 150.341277 227.036158 
L 141.95167 228.894216 
L 143.045967 223.552299 
L 142.681201 220.300698 
L 141.222139 217.978126 
L 135.021126 214.958782 
L 129.549643 211.010409 
L 126.631519 209.849123 
L 121.160037 209.152351 
L 120.06574 208.920094 
L 118.606678 208.455579 
L 112.77043 202.416891 
L 112.405665 202.184634 
L 109.122775 198.700776 
L 102.921762 194.520146 
L 101.827465 193.358859 
L 101.097934 191.965316 
L 100.368403 190.571773 
L 99.638872 189.642744 
L 98.544576 189.178229 
L 97.450279 189.642744 
L 95.261686 191.965316 
L 94.16739 192.894345 
L 90.519735 193.126602 
L 87.236846 192.894345 
L 84.683487 191.965316 
L 82.85966 190.339515 
L 81.035832 187.784686 
L 77.752943 182.44277 
L 77.023412 182.44277 
L 76.293881 183.139541 
L 74.834819 183.604056 
L 72.646226 183.371798 
L 68.26904 181.978255 
L 66.080447 181.049226 
L 64.621385 179.423426 
L 61.338495 175.242795 
L 60.97373 175.242795 
L 57.69084 172.223451 
L 56.596544 170.597651 
L 54.772716 166.649278 
L 53.67842 164.79122 
L 47.477406 158.752532 
L 43.464986 152.481587 
L 41.641158 151.088043 
L 27.780069 145.049355 
L 25.226711 142.726783 
L 23.402883 139.010667 
L 23.402883 135.062295 
L 25.226711 132.042951 
L 27.780069 132.042951 
L 28.874366 129.720378 
L 29.968662 126.468777 
L 31.062959 124.378462 
L 32.157255 123.913947 
L 35.075379 124.378462 
L 36.169676 124.378462 
L 37.263972 123.68169 
L 39.817331 121.823632 
L 40.546862 121.591375 
L 42.370689 122.520404 
L 44.194517 124.610719 
L 45.653579 127.397806 
L 46.38311 129.720378 
L 47.112641 130.881664 
L 48.206937 129.720378 
L 49.301234 126.701034 
L 50.760296 126.468777 
L 54.407951 128.094578 
L 55.137482 127.630063 
L 55.502247 126.933291 
L 55.137482 126.468777 
L 54.407951 125.772005 
L 54.043185 124.146205 
L 53.67842 122.288147 
L 54.043185 120.430089 
L 54.407951 118.804288 
L 56.961309 116.249459 
L 56.961309 112.533343 
L 54.407951 104.868855 
L 52.219358 100.455967 
L 42.005924 89.30762 
L 36.534441 80.714103 
L 33.616317 76.76573 
L 29.968662 74.2109 
L 28.874366 73.514128 
L 29.968662 72.352842 
L 30.333428 71.423813 
L 29.603897 69.798013 
L 29.603897 68.636727 
L 30.333428 67.47544 
L 31.062959 66.546412 
L 33.251552 66.081897 
L 34.710614 65.84964 
L 36.169676 66.314154 
L 38.723034 68.172212 
L 41.276393 70.494784 
L 42.735455 71.423813 
L 44.194517 71.191556 
L 45.653579 70.727042 
L 50.760296 70.494784 
L 56.596544 70.959299 
L 59.149902 70.727042 
L 61.703261 70.03027 
L 65.715681 67.010926 
L 67.539509 64.920611 
L 68.26904 62.830296 
L 67.539509 60.275466 
L 66.445212 59.11418 
L 65.350916 59.346437 
L 64.621385 60.275466 
L 64.256619 60.507724 
L 63.527088 59.810952 
L 61.703261 57.952894 
L 58.420371 56.094836 
L 58.055606 55.165807 
L 56.231778 52.610978 
L 54.407951 50.985177 
L 54.043185 50.288405 
L 53.67842 47.733576 
L 52.948889 46.57229 
L 52.219358 46.57229 
L 51.125061 47.733576 
L 50.39553 47.965833 
L 49.665999 47.501319 
L 48.571703 46.57229 
L 44.194517 43.320688 
L 42.370689 41.462631 
L 41.641158 39.604573 
L 41.641158 36.817486 
L 40.182096 33.798142 
L 38.358269 31.47557 
L 36.899207 30.082026 
L 35.440145 29.849769 
L 32.157255 30.546541 
L 31.062959 30.546541 
L 29.968662 30.082026 
L 27.780069 29.152997 
L 23.402883 28.223968 
L 21.579056 27.29494 
L 19.755228 25.204624 
L 17.566635 20.327223 
L 16.472339 17.772393 
L 16.472339 14.985306 
L 17.20187 12.19822 
L 18.660932 10.340162 
L 20.119994 8.482104 
L 20.119994 4.765988 
L 18.660932 -1.504957 
L 18.660932 -3.595272 
L 22.308587 -4.756558 
L 23.038118 -5.45333 
L 23.767649 -6.382359 
L 24.49718 -7.543645 
L 24.49718 -8.472674 
L 24.49718 -10.562989 
L 24.861945 -11.492018 
L 25.226711 -12.18879 
L 26.321007 -12.885561 
L 26.685773 -13.350076 
L 31.427724 -21.014564 
L 32.886786 -25.195195 
L 33.616317 -26.588738 
L 34.710614 -27.750024 
L 36.899207 -29.375825 
L 37.993503 -30.769368 
L 38.723034 -33.324198 
L 42.370689 -49.814461 
L 42.735455 -50.511233 
L 43.464986 -50.74349 
L 43.829751 -50.975747 
L 43.829751 -52.369291 
L 43.464986 -53.530577 
L 43.10022 -54.227348 
L 42.370689 -54.92412 
L 41.641158 -55.620892 
L 41.276393 -56.085406 
L 41.276393 -55.853149 
L 41.276393 -55.620892 
L 40.182096 -55.620892 
L 39.0878 -55.853149 
L 36.899207 -57.711207 
L 36.169676 -57.711207 
L 35.440145 -57.47895 
L 34.345848 -57.246692 
L 29.968662 -58.175721 
L 28.874366 -57.943464 
L 27.050538 -57.246692 
L 25.956242 -57.246692 
L 25.591476 -57.943464 
L 25.226711 -59.10475 
L 24.49718 -59.801522 
L 23.402883 -59.569265 
L 14.283746 -53.298319 
L 12.459918 -52.601548 
L 10.271325 -52.369291 
L 7.353202 -51.440262 
L 5.164609 -55.388635 
L 4.799843 -58.175721 
L 7.353202 -59.569265 
L 8.812263 -59.337007 
L 11.000856 -57.014435 
L 12.459918 -56.782178 
L 13.554215 -57.711207 
L 14.648511 -58.872493 
L 16.107573 -61.427323 
L 17.20187 -61.891837 
L 18.296166 -62.356351 
L 19.025697 -63.517638 
L 18.660932 -65.607953 
L 17.566635 -66.536982 
L 15.378042 -65.84021 
L 14.283746 -66.769239 
L 14.283746 -68.162782 
L 14.648511 -69.788583 
L 15.013277 -71.414383 
L 15.378042 -72.807927 
L 15.013277 -74.20147 
L 14.283746 -78.149843 
L 13.91898 -81.633702 
L 13.554215 -82.794988 
L 12.824684 -84.653046 
L 12.095153 -85.582075 
L 11.000856 -86.511103 
L 10.271325 -87.440132 
L 10.271325 -88.833676 
L 11.730387 -89.994962 
L 17.20187 -89.530447 
L 19.390463 -89.994962 
L 20.119994 -92.085277 
L 18.660932 -94.872364 
L 17.931401 -96.730422 
L 20.119994 -97.194936 
L 21.21429 -96.730422 
L 23.402883 -93.943335 
L 24.49718 -93.014306 
L 26.321007 -92.317534 
L 28.5096 -92.085277 
L 32.886786 -92.782049 
L 33.251552 -93.014306 
L 33.616317 -93.711078 
L 33.981083 -94.175592 
L 34.710614 -94.640106 
L 35.075379 -94.407849 
L 35.80491 -93.014306 
L 36.534441 -92.782049 
L 45.288813 -93.246563 
L 45.653579 -93.47882 
L 46.747875 -94.640106 
L 47.112641 -97.891708 
L 46.018344 -100.678794 
L 43.829751 -101.375566 
L 42.370689 -103.930396 
L 21.943821 -109.040055 
L 18.296166 -110.898113 
L 15.742808 -113.917457 
L 15.378042 -115.078743 
L 15.378042 -116.704543 
L 15.013277 -118.098087 
L 13.91898 -118.562601 
L 9.90656 -118.562601 
L 7.717967 -119.027116 
L 5.89414 -120.188402 
L 4.435078 -122.04646 
L 3.340781 -124.136775 
L 8.447498 -126.459347 
L 9.541794 -127.85289 
L 8.812263 -129.478691 
L 6.988436 -131.569006 
L 5.89414 -132.498035 
L 5.164609 -135.052865 
L 6.623671 -138.536723 
L 7.353202 -138.304466 
L 13.554215 -137.375437 
L 16.472339 -140.162524 
L 15.378042 -142.252839 
L 13.91898 -142.94961 
L 12.459918 -143.181868 
L 10.636091 -143.878639 
L 9.90656 -144.807668 
L 9.177029 -145.50444 
L 9.177029 -146.201212 
L 8.447498 -147.362498 
L 7.353202 -147.827012 
L 6.623671 -147.594755 
L 5.529374 -147.130241 
L 4.070312 -146.201212 
L 2.976016 -145.039926 
L 1.516954 -144.110897 
L -0.306874 -143.878639 
L -1.40117 -144.807668 
L -3.224998 -148.05927 
L -4.319294 -148.756041 
L -3.954529 -149.917327 
L -3.589763 -152.472157 
L -3.224998 -155.026986 
L -2.130701 -156.188273 
L -1.036405 -156.885044 
L 1.881719 -160.60116 
L 2.246485 -161.762446 
L 1.881719 -163.852761 
L 0.422657 -165.014047 
L -1.40117 -165.943076 
L -2.860232 -167.104362 
L -3.589763 -168.730163 
L -3.954529 -172.910793 
L -4.68406 -175.001108 
L -7.602184 -178.484967 
L -8.331715 -179.646253 
L -9.790777 -181.272053 
z
" clip-path="url(#p74e1bc56db)" style="fill: #bdc3c7; stroke: #ffffff; stroke-width: 0.5"/>
    <path d="M -51.738809 213.797496 
L -51.738809 211.474923 
L -49.914982 206.133007 
L -46.632092 203.113663 
L -41.16061 201.952377 
L -34.959596 201.952377 
L -30.947176 202.416891 
L -32.771003 191.965316 
L -32.771003 188.481458 
L -32.771003 188.016943 
L -32.041472 183.836313 
L -30.217645 180.352454 
L -25.840459 174.313766 
L -28.393817 173.15248 
L -26.934755 170.829908 
L -13.803197 161.539619 
L -11.249839 160.61059 
L -11.614604 160.146075 
L -11.97937 158.752532 
L -12.344135 158.288018 
L -10.520308 157.358989 
L -4.68406 156.894474 
L -2.130701 157.591246 
L 0.422657 159.449304 
L 1.152188 160.378333 
L 1.516954 161.307362 
L 1.152188 162.23639 
L 1.516954 163.397677 
L 2.246485 165.023477 
L 4.435078 167.578307 
L 4.435078 167.810564 
L 4.799843 168.507336 
L 5.89414 167.578307 
L 6.623671 166.417021 
L 7.353202 165.255734 
L 7.717967 164.326706 
L 8.082733 164.094448 
L 9.177029 163.397677 
L 12.095153 163.397677 
L 12.824684 162.700905 
L 9.541794 156.894474 
L 6.623671 148.765471 
L 2.976016 144.120327 
L 2.246485 143.655812 
L 0.057892 144.120327 
L 0.057892 143.423555 
L 0.787423 142.262269 
L 0.787423 141.33324 
L -0.671639 139.242925 
L -1.40117 138.77841 
L -2.860232 138.546153 
L -3.954529 137.849381 
L -3.954529 136.688095 
L -3.224998 135.526809 
L -2.495467 134.830037 
L -0.671639 133.901008 
L 1.881719 131.113922 
L 3.340781 130.184893 
L 5.529374 129.952635 
L 6.988436 131.346179 
L 8.082733 133.204237 
L 9.541794 134.830037 
L 11.365622 135.526809 
L 13.189449 135.526809 
L 15.378042 134.59778 
L 17.931401 131.578436 
L 20.484759 131.113922 
L 25.226711 132.042951 
L 23.402883 135.062295 
L 23.402883 139.010667 
L 25.226711 142.726783 
L 27.780069 145.049355 
L 41.641158 151.088043 
L 43.464986 152.481587 
L 47.477406 158.752532 
L 53.67842 164.79122 
L 54.772716 166.649278 
L 56.596544 170.597651 
L 57.69084 172.223451 
L 60.97373 175.242795 
L 61.338495 175.242795 
L 64.621385 179.423426 
L 66.080447 181.049226 
L 68.26904 181.978255 
L 72.646226 183.371798 
L 74.834819 183.604056 
L 76.293881 183.139541 
L 77.023412 182.44277 
L 77.752943 182.44277 
L 81.035832 187.784686 
L 82.85966 190.339515 
L 84.683487 191.965316 
L 87.236846 192.894345 
L 90.519735 193.126602 
L 94.16739 192.894345 
L 95.261686 191.965316 
L 97.450279 189.642744 
L 98.544576 189.178229 
L 99.638872 189.642744 
L 100.368403 190.571773 
L 101.097934 191.965316 
L 101.827465 193.358859 
L 102.921762 194.520146 
L 109.122775 198.700776 
L 112.405665 202.184634 
L 112.77043 202.416891 
L 118.606678 208.455579 
L 120.06574 208.920094 
L 121.160037 209.152351 
L 126.631519 209.849123 
L 129.549643 211.010409 
L 135.021126 214.958782 
L 141.222139 217.978126 
L 142.681201 220.300698 
L 143.045967 223.552299 
L 141.95167 228.894216 
L 133.562064 230.287759 
L 129.914409 231.91356 
L 128.820112 232.378074 
L 128.090581 233.771618 
L 128.090581 235.165161 
L 128.090581 236.558704 
L 128.090581 237.71999 
L 125.537223 240.739334 
L 122.254333 239.578048 
L 118.241913 237.255476 
L 114.594258 236.326447 
L 113.499961 237.023219 
L 112.405665 237.71999 
L 110.581837 239.345791 
L 109.487541 240.507077 
L 109.487541 243.294164 
L 110.581837 245.384479 
L 116.418085 250.958653 
L 117.147616 252.352196 
L 117.512382 253.048968 
L 116.05332 256.532826 
L 114.959023 258.623141 
L 114.594258 259.784427 
L 114.594258 262.107 
L 114.959023 263.965057 
L 114.594258 265.823115 
L 113.499961 267.681173 
L 110.946603 266.055373 
L 108.75801 267.681173 
L 105.110355 272.558575 
L 102.556996 273.255347 
L 97.450279 273.023089 
L 94.896921 274.881147 
L 94.16739 275.810176 
L 90.154969 278.132749 
L 89.790204 278.365006 
L 88.695907 278.597263 
L 86.87208 278.365006 
L 85.048253 277.435977 
L 81.765363 274.881147 
L 79.941536 270.700517 
L 79.57677 269.306974 
L 79.57677 268.377945 
L 79.941536 266.28763 
L 79.941536 265.358601 
L 80.671067 263.7328 
L 81.035832 263.036029 
L 81.400598 263.036029 
L 81.400598 261.874742 
L 81.035832 260.481199 
L 80.306301 256.997341 
L 78.847239 253.977997 
L 76.293881 252.81671 
L 74.105288 253.745739 
L 72.28146 255.37154 
L 71.187164 256.532826 
L 68.633805 259.55217 
L 66.809978 262.339257 
L 66.445212 264.197315 
L 65.715681 267.91343 
L 65.350916 269.539231 
L 63.891854 270.932774 
L 62.432792 271.861803 
L 61.338495 272.790832 
L 60.608964 274.881147 
L 59.514668 277.435977 
L 58.055606 279.758549 
L 56.596544 281.616607 
L 54.407951 283.01015 
L 52.948889 285.332723 
L 47.842172 291.371411 
L 47.477406 292.068182 
L 46.38311 294.390755 
L 46.38311 295.319784 
L 46.38311 297.177841 
L 46.018344 297.874613 
L 36.534441 313.20359 
L 33.616317 316.455192 
L 33.251552 317.848735 
L 34.345848 320.171307 
L 35.80491 322.029365 
L 41.641158 326.209995 
L 43.10022 328.068053 
L 43.464986 328.532568 
L 43.464986 329.693854 
L 41.641158 333.874484 
L 41.276393 336.197056 
L 41.276393 338.984143 
L 41.641158 341.538972 
L 42.370689 343.629288 
L 43.10022 344.558316 
L 42.735455 346.880889 
L 42.005924 347.345403 
L 41.276393 347.57766 
L 40.546862 348.042175 
L 41.276393 351.293776 
L 41.276393 352.222805 
L 40.911627 352.919577 
L 40.546862 353.616348 
L 40.546862 354.545377 
L 40.546862 355.009892 
L 40.911627 355.706664 
L 41.641158 356.635692 
L 42.735455 358.029236 
L 42.370689 361.745352 
L 42.735455 363.138895 
L 40.911627 361.513094 
L 36.899207 357.332464 
L 35.440145 356.403435 
L 27.780069 353.848606 
L 26.321007 352.919577 
L 23.767649 351.758291 
L 23.038118 351.293776 
L 21.943821 349.900233 
L 21.943821 349.203461 
L 22.308587 348.506689 
L 21.943821 347.113146 
L 21.21429 346.880889 
L 20.484759 345.95186 
L 19.755228 344.790574 
L 20.119994 344.326059 
L 20.119994 343.629288 
L 19.755228 336.893828 
L 13.91898 331.551912 
L 13.189449 329.693854 
L 14.283746 327.603539 
L 13.189449 326.906767 
L 12.095153 326.209995 
L 10.636091 323.422908 
L 6.623671 323.655166 
L 5.89414 322.029365 
L 5.529374 320.635822 
L 5.164609 320.171307 
L 4.435078 320.171307 
L 3.705547 319.706793 
L 2.246485 316.919706 
L 0.787423 315.293905 
L -3.224998 312.274561 
L -4.319294 310.184246 
L -5.048825 305.539102 
L -5.778356 303.681044 
L -7.237418 302.752015 
L -9.061246 302.752015 
L -10.885073 303.448787 
L -11.614604 304.610073 
L -11.97937 303.913301 
L -12.708901 303.448787 
L -12.708901 302.752015 
L -14.532728 303.681044 
L -15.262259 304.145558 
L -15.627025 304.84233 
L -15.99179 305.074587 
L -16.721321 305.539102 
L -17.450852 304.610073 
L -18.545149 302.752015 
L -21.828038 299.964928 
L -23.2871 298.10687 
L -23.2871 296.248813 
L -24.016631 295.784298 
L -24.746162 294.623012 
L -25.475693 294.158497 
L -25.475693 293.229469 
L -25.110928 291.371411 
L -26.934755 289.74561 
L -29.123348 289.513353 
L -29.488114 292.30044 
L -30.217645 292.30044 
L -30.947176 291.835925 
L -33.135769 292.068182 
L -33.500534 291.835925 
L -34.230065 290.906896 
L -35.324362 289.977867 
L -36.783424 289.048838 
L -37.87772 288.816581 
L -37.512955 288.352067 
L -37.512955 288.119809 
L -37.512955 287.887552 
L -37.148189 287.655295 
L -39.701548 285.797237 
L -40.431079 284.403694 
L -40.066313 283.01015 
L -38.607251 282.545636 
L -30.217645 285.332723 
L -29.123348 285.56498 
L -26.205224 287.190781 
L -24.746162 288.816581 
L -24.016631 286.494009 
L -24.016631 284.868208 
L -26.56999 279.758549 
L -26.56999 278.365006 
L -26.205224 276.274691 
L -29.488114 280.687578 
L -33.8653 281.616607 
L -44.808265 279.990806 
L -44.808265 281.152093 
L -42.984437 282.545636 
L -43.713968 286.494009 
L -41.890141 287.655295 
L -44.078734 286.958523 
L -45.537796 285.56498 
L -45.17303 283.474665 
L -45.902561 281.848864 
L -47.361623 280.919835 
L -48.45592 280.455321 
L -49.550216 278.82952 
L -50.644513 276.971462 
L -51.374044 274.881147 
L -51.374044 272.558575 
L -51.009278 268.145688 
L -51.374044 265.823115 
L -50.279747 264.894086 
L -49.185451 264.429572 
L -48.091154 264.429572 
L -46.996858 265.126344 
L -45.902561 265.126344 
L -45.537796 264.197315 
L -45.537796 263.036029 
L -46.267327 261.642485 
L -44.443499 260.481199 
L -43.349203 259.784427 
L -41.16061 257.694112 
L -40.795844 256.532826 
L -40.066313 254.907025 
L -40.066313 250.958653 
L -41.16061 247.01028 
L -42.619672 244.919965 
L -44.808265 242.829649 
L -48.45592 237.023219 
L -49.550216 233.771618 
L -50.644513 230.287759 
L -50.644513 227.965187 
L -49.914982 226.571643 
L -48.45592 225.410357 
L -47.726389 224.249071 
L -48.45592 221.461984 
L -50.644513 216.584582 
z
" clip-path="url(#p74e1bc56db)" style="fill: #bdc3c7; stroke: #ffffff; stroke-width: 0.5"/>
   </g>
   <g id="PatchCollection_2">
    <defs>
     <path id="mabe14eb710" d="M 109.487541 -267.061852 
L 109.487541 -269.848938 
L 110.581837 -271.010225 
L 112.405665 -272.636025 
L 113.499961 -273.332797 
L 114.594258 -274.029569 
L 118.241913 -273.10054 
L 122.254333 -270.777967 
L 125.537223 -269.616681 
L 128.090581 -272.636025 
L 128.090581 -273.797311 
L 128.090581 -275.190855 
L 128.090581 -276.584398 
L 128.820112 -277.977942 
L 129.914409 -278.442456 
L 133.562064 -280.068257 
L 141.95167 -281.4618 
L 150.341277 -283.319858 
L 155.083228 -285.177916 
L 157.636587 -288.429517 
L 156.907056 -289.590803 
L 156.54229 -291.216604 
L 154.353697 -292.610147 
L 152.52987 -294.468205 
L 153.624166 -298.184321 
L 155.083228 -300.506893 
L 156.907056 -300.971407 
L 158.730883 -300.971407 
L 160.554711 -301.668179 
L 161.649007 -302.364951 
L 162.013773 -303.29398 
L 163.108069 -305.384295 
L 163.8376 -306.545581 
L 164.931897 -306.313324 
L 166.026193 -306.081066 
L 167.485255 -306.081066 
L 169.309082 -308.171381 
L 172.227206 -312.352012 
L 174.415799 -316.764899 
L 174.780565 -320.248757 
L 174.051034 -321.177786 
L 172.956737 -321.177786 
L 171.862441 -320.945529 
L 171.13291 -321.177786 
L 170.403379 -322.106815 
L 169.673848 -323.500359 
L 168.944317 -326.519703 
L 167.85002 -329.074532 
L 167.485255 -330.468076 
L 168.214786 -332.326133 
L 168.944317 -333.022905 
L 172.227206 -333.022905 
L 174.415799 -333.951934 
L 182.44064 -339.990622 
L 184.993999 -340.919651 
L 187.547357 -341.384165 
L 189.006419 -340.919651 
L 190.100716 -340.455137 
L 191.924543 -338.829336 
L 193.01884 -337.900307 
L 193.748371 -336.971278 
L 194.477902 -335.11322 
L 194.113136 -335.11322 
L 193.383605 -335.345477 
L 191.924543 -334.184191 
L 192.289309 -333.48742 
L 191.924543 -331.629362 
L 191.559778 -329.771304 
L 191.195012 -329.771304 
L 191.924543 -328.610018 
L 199.219853 -324.19713 
L 207.60946 -319.551986 
L 208.703756 -318.855214 
L 210.892349 -317.926185 
L 217.458128 -317.693928 
L 219.281956 -316.300385 
L 220.741018 -313.048783 
L 222.20008 -305.848809 
L 223.294376 -304.223009 
L 225.118204 -303.061722 
L 226.577266 -303.758494 
L 227.671562 -304.91978 
L 229.49539 -304.455266 
L 230.954452 -301.435922 
L 231.319217 -297.255292 
L 231.683983 -292.842404 
L 234.602107 -289.590803 
L 235.696403 -289.126289 
L 238.249762 -289.126289 
L 239.344058 -288.894031 
L 240.438355 -288.19726 
L 242.262182 -286.571459 
L 243.356479 -285.874687 
L 246.639368 -285.177916 
L 248.827961 -285.177916 
L 249.557492 -284.01663 
L 249.557492 -283.319858 
L 249.557492 -280.532771 
L 249.192726 -278.210199 
L 247.733664 -273.565054 
L 247.368899 -271.474739 
L 247.004133 -270.777967 
L 246.639368 -270.313453 
L 246.639368 -269.848938 
L 247.733664 -269.152167 
L 249.192726 -268.687652 
L 250.651788 -268.687652 
L 253.205147 -268.91991 
L 263.053815 -267.526366 
L 265.607174 -266.597337 
L 267.066236 -265.203794 
L 270.349125 -261.255421 
L 272.172953 -260.094135 
L 273.632015 -260.094135 
L 278.009201 -261.952193 
L 280.197794 -262.18445 
L 283.115918 -261.487678 
L 283.845449 -261.023164 
L 285.669276 -259.62962 
L 286.398807 -256.610276 
L 286.034042 -255.44899 
L 284.939745 -254.752218 
L 283.845449 -254.287704 
L 282.751152 -253.358675 
L 282.751152 -253.126418 
L 282.386387 -250.339331 
L 282.021621 -249.874817 
L 282.021621 -249.642559 
L 281.29209 -249.178045 
L 280.927325 -248.945788 
L 281.29209 -248.249016 
L 282.021621 -247.08773 
L 282.021621 -246.623215 
L 280.927325 -243.371614 
L 275.820608 -235.010354 
L 271.808187 -230.829724 
L 271.078656 -229.43618 
L 270.713891 -227.345865 
L 271.443422 -222.932978 
L 270.713891 -220.842663 
L 268.890063 -218.752348 
L 262.68905 -216.89429 
L 260.500457 -214.571718 
L 260.500457 -211.320116 
L 264.512877 -205.281428 
L 265.242408 -201.565313 
L 260.865222 -200.404027 
L 258.676629 -200.404027 
L 257.217567 -201.565313 
L 256.123271 -200.404027 
L 255.758505 -199.939512 
L 254.664209 -200.171769 
L 253.569912 -201.100798 
L 252.475616 -201.565313 
L 250.651788 -200.636284 
L 251.016554 -199.474998 
L 251.746085 -198.081454 
L 251.746085 -197.384683 
L 250.651788 -197.152425 
L 247.368899 -198.545969 
L 245.545072 -198.313711 
L 244.815541 -197.849197 
L 244.08601 -197.384683 
L 238.249762 -188.094393 
L 237.884996 -186.933107 
L 238.249762 -186.236335 
L 238.614527 -185.307307 
L 238.614527 -184.14602 
L 238.614527 -181.358934 
L 238.614527 -181.126676 
L 238.614527 -180.197647 
L 237.520231 -179.96539 
L 233.143045 -180.894419 
L 232.413514 -180.894419 
L 231.319217 -181.823448 
L 230.954452 -182.287963 
L 230.224921 -184.14602 
L 228.401093 -186.933107 
L 224.753438 -190.649223 
L 221.105783 -193.668567 
L 219.646721 -194.365339 
L 218.91719 -194.597596 
L 218.187659 -194.597596 
L 215.634301 -192.971795 
L 212.351411 -189.487937 
L 211.257115 -188.326651 
L 208.703756 -187.165364 
L 205.785632 -186.004078 
L 198.490322 -183.681506 
L 189.006419 -180.429905 
L 186.453061 -178.804104 
L 184.629233 -176.481532 
L 183.534937 -173.462188 
L 182.075875 -166.726728 
L 182.075875 -163.475127 
L 183.170171 -159.294497 
L 183.534937 -158.133211 
L 183.170171 -155.346124 
L 182.805406 -154.649352 
L 182.075875 -152.094523 
L 180.252047 -149.307436 
L 179.157751 -148.14615 
L 178.063454 -146.984863 
L 175.874861 -146.055835 
L 175.14533 -146.752606 
L 172.956737 -149.539693 
L 172.227206 -150.236465 
L 171.497675 -149.77195 
L 170.403379 -147.681635 
L 169.673848 -146.984863 
L 167.85002 -146.984863 
L 166.755724 -147.681635 
L 164.567131 -150.236465 
L 164.567131 -151.165494 
L 163.8376 -152.791294 
L 163.8376 -153.95258 
L 164.567131 -155.578381 
L 164.931897 -156.275153 
L 165.661428 -156.739667 
L 166.755724 -157.900953 
L 167.485255 -160.455783 
L 167.485255 -162.081583 
L 167.120489 -163.939641 
L 166.755724 -166.726728 
L 163.472835 -175.087988 
L 162.743304 -177.642818 
L 162.743304 -182.055705 
L 162.743304 -184.610535 
L 161.649007 -188.326651 
L 157.636587 -196.687911 
L 155.812759 -199.24274 
L 155.083228 -200.171769 
L 153.259401 -202.029827 
L 140.857374 -211.320116 
L 139.033546 -211.552374 
L 132.103002 -211.320116 
L 131.008705 -211.552374 
L 130.279174 -212.481402 
L 129.184878 -214.803975 
L 129.184878 -215.733004 
L 129.184878 -217.591062 
L 129.184878 -218.752348 
L 128.455347 -219.449119 
L 126.996285 -220.842663 
L 126.631519 -221.771692 
L 126.631519 -222.700721 
L 127.725816 -224.326521 
L 127.725816 -225.25555 
L 126.996285 -226.416836 
L 125.901988 -227.81038 
L 125.172457 -228.507151 
L 122.254333 -235.474868 
L 120.795271 -237.565183 
L 115.688554 -240.584527 
L 113.499961 -242.674842 
L 114.594258 -244.5329 
L 114.959023 -246.390958 
L 114.594258 -248.249016 
L 114.594258 -250.571588 
L 114.959023 -251.732874 
L 116.05332 -253.82319 
L 117.512382 -257.307048 
L 117.147616 -258.00382 
L 116.418085 -259.397363 
L 110.581837 -264.971537 
z
" style="stroke: #ffffff; stroke-width: 0.6"/>
    </defs>
    <g clip-path="url(#p74e1bc56db)">
     <use xlink:href="#mabe14eb710" x="0" y="510.356016" style="fill: #e74c3c; stroke: #ffffff; stroke-width: 0.6"/>
    </g>
   </g>
   <g id="text_1">
    <g id="patch_2">
     <path d="M 260.992568 401.948724 
L 303.506631 401.948724 
Q 304.906631 401.948724 304.906631 400.548724 
L 304.906631 393.548177 
Q 304.906631 392.148177 303.506631 392.148177 
L 260.992568 392.148177 
Q 259.592568 392.148177 259.592568 393.548177 
L 259.592568 400.548724 
Q 259.592568 401.948724 260.992568 401.948724 
z
" clip-path="url(#p74e1bc56db)" style="fill: #ffffff; opacity: 0.6"/>
    </g>
    <g clip-path="url(#p74e1bc56db)">
     <!-- Macedonia -->
     <g style="fill: #1a252f" transform="translate(260.992568 398.867083) scale(0.07 -0.07)">
      <defs>
       <path id="DejaVuSans-Bold-30" d="M 588 4666 
L 2119 4666 
L 3181 2169 
L 4250 4666 
L 5778 4666 
L 5778 0 
L 4641 0 
L 4641 3413 
L 3566 897 
L 2803 897 
L 1728 3413 
L 1728 0 
L 588 0 
L 588 4666 
z
" transform="scale(0.015625)"/>
       <path id="DejaVuSans-Bold-44" d="M 2106 1575 
Q 1756 1575 1579 1456 
Q 1403 1338 1403 1106 
Q 1403 894 1545 773 
Q 1688 653 1941 653 
Q 2256 653 2472 879 
Q 2688 1106 2688 1447 
L 2688 1575 
L 2106 1575 
z
M 3816 1997 
L 3816 0 
L 2688 0 
L 2688 519 
Q 2463 200 2181 54 
Q 1900 -91 1497 -91 
Q 953 -91 614 226 
Q 275 544 275 1050 
Q 275 1666 698 1953 
Q 1122 2241 2028 2241 
L 2688 2241 
L 2688 2328 
Q 2688 2594 2478 2717 
Q 2269 2841 1825 2841 
Q 1466 2841 1156 2769 
Q 847 2697 581 2553 
L 581 3406 
Q 941 3494 1303 3539 
Q 1666 3584 2028 3584 
Q 2975 3584 3395 3211 
Q 3816 2838 3816 1997 
z
" transform="scale(0.015625)"/>
       <path id="DejaVuSans-Bold-46" d="M 3366 3391 
L 3366 2478 
Q 3138 2634 2908 2709 
Q 2678 2784 2431 2784 
Q 1963 2784 1702 2511 
Q 1441 2238 1441 1747 
Q 1441 1256 1702 982 
Q 1963 709 2431 709 
Q 2694 709 2930 787 
Q 3166 866 3366 1019 
L 3366 103 
Q 3103 6 2833 -42 
Q 2563 -91 2291 -91 
Q 1344 -91 809 395 
Q 275 881 275 1747 
Q 275 2613 809 3098 
Q 1344 3584 2291 3584 
Q 2566 3584 2833 3536 
Q 3100 3488 3366 3391 
z
" transform="scale(0.015625)"/>
       <path id="DejaVuSans-Bold-48" d="M 4031 1759 
L 4031 1441 
L 1416 1441 
Q 1456 1047 1700 850 
Q 1944 653 2381 653 
Q 2734 653 3104 758 
Q 3475 863 3866 1075 
L 3866 213 
Q 3469 63 3072 -14 
Q 2675 -91 2278 -91 
Q 1328 -91 801 392 
Q 275 875 275 1747 
Q 275 2603 792 3093 
Q 1309 3584 2216 3584 
Q 3041 3584 3536 3087 
Q 4031 2591 4031 1759 
z
M 2881 2131 
Q 2881 2450 2695 2645 
Q 2509 2841 2209 2841 
Q 1884 2841 1681 2658 
Q 1478 2475 1428 2131 
L 2881 2131 
z
" transform="scale(0.015625)"/>
       <path id="DejaVuSans-Bold-47" d="M 2919 2988 
L 2919 4863 
L 4044 4863 
L 4044 0 
L 2919 0 
L 2919 506 
Q 2688 197 2409 53 
Q 2131 -91 1766 -91 
Q 1119 -91 703 423 
Q 288 938 288 1747 
Q 288 2556 703 3070 
Q 1119 3584 1766 3584 
Q 2128 3584 2408 3439 
Q 2688 3294 2919 2988 
z
M 2181 722 
Q 2541 722 2730 984 
Q 2919 1247 2919 1747 
Q 2919 2247 2730 2509 
Q 2541 2772 2181 2772 
Q 1825 2772 1636 2509 
Q 1447 2247 1447 1747 
Q 1447 1247 1636 984 
Q 1825 722 2181 722 
z
" transform="scale(0.015625)"/>
       <path id="DejaVuSans-Bold-52" d="M 2203 2784 
Q 1831 2784 1636 2517 
Q 1441 2250 1441 1747 
Q 1441 1244 1636 976 
Q 1831 709 2203 709 
Q 2569 709 2762 976 
Q 2956 1244 2956 1747 
Q 2956 2250 2762 2517 
Q 2569 2784 2203 2784 
z
M 2203 3584 
Q 3106 3584 3614 3096 
Q 4122 2609 4122 1747 
Q 4122 884 3614 396 
Q 3106 -91 2203 -91 
Q 1297 -91 786 396 
Q 275 884 275 1747 
Q 275 2609 786 3096 
Q 1297 3584 2203 3584 
z
" transform="scale(0.015625)"/>
       <path id="DejaVuSans-Bold-51" d="M 4056 2131 
L 4056 0 
L 2931 0 
L 2931 347 
L 2931 1631 
Q 2931 2084 2911 2256 
Q 2891 2428 2841 2509 
Q 2775 2619 2662 2680 
Q 2550 2741 2406 2741 
Q 2056 2741 1856 2470 
Q 1656 2200 1656 1722 
L 1656 0 
L 538 0 
L 538 3500 
L 1656 3500 
L 1656 2988 
Q 1909 3294 2193 3439 
Q 2478 3584 2822 3584 
Q 3428 3584 3742 3212 
Q 4056 2841 4056 2131 
z
" transform="scale(0.015625)"/>
       <path id="DejaVuSans-Bold-4c" d="M 538 3500 
L 1656 3500 
L 1656 0 
L 538 0 
L 538 3500 
z
M 538 4863 
L 1656 4863 
L 1656 3950 
L 538 3950 
L 538 4863 
z
" transform="scale(0.015625)"/>
      </defs>
      <use xlink:href="#DejaVuSans-Bold-30"/>
      <use xlink:href="#DejaVuSans-Bold-44" transform="translate(99.515625 0)"/>
      <use xlink:href="#DejaVuSans-Bold-46" transform="translate(167 0)"/>
      <use xlink:href="#DejaVuSans-Bold-48" transform="translate(226.28125 0)"/>
      <use xlink:href="#DejaVuSans-Bold-47" transform="translate(294.109375 0)"/>
      <use xlink:href="#DejaVuSans-Bold-52" transform="translate(365.6875 0)"/>
      <use xlink:href="#DejaVuSans-Bold-51" transform="translate(434.390625 0)"/>
      <use xlink:href="#DejaVuSans-Bold-4c" transform="translate(505.578125 0)"/>
      <use xlink:href="#DejaVuSans-Bold-44" transform="translate(539.859375 0)"/>
     </g>
    </g>
   </g>
   <g id="text_2">
    <g id="patch_3">
     <path d="M 92.756487 465.122691 
L 122.414612 465.122691 
Q 123.814612 465.122691 123.814612 463.722691 
L 123.814612 456.722144 
Q 123.814612 455.322144 122.414612 455.322144 
L 92.756487 455.322144 
Q 91.356487 455.322144 91.356487 456.722144 
L 91.356487 463.722691 
Q 91.356487 465.122691 92.756487 465.122691 
z
" clip-path="url(#p74e1bc56db)" style="fill: #ffffff; opacity: 0.6"/>
    </g>
    <g clip-path="url(#p74e1bc56db)">
     <!-- Albania -->
     <g style="fill: #1a252f" transform="translate(92.756487 462.04105) scale(0.07 -0.07)">
      <defs>
       <path id="DejaVuSans-Bold-24" d="M 3419 850 
L 1538 850 
L 1241 0 
L 31 0 
L 1759 4666 
L 3194 4666 
L 4922 0 
L 3713 0 
L 3419 850 
z
M 1838 1716 
L 3116 1716 
L 2478 3572 
L 1838 1716 
z
" transform="scale(0.015625)"/>
       <path id="DejaVuSans-Bold-4f" d="M 538 4863 
L 1656 4863 
L 1656 0 
L 538 0 
L 538 4863 
z
" transform="scale(0.015625)"/>
       <path id="DejaVuSans-Bold-45" d="M 2400 722 
Q 2759 722 2948 984 
Q 3138 1247 3138 1747 
Q 3138 2247 2948 2509 
Q 2759 2772 2400 2772 
Q 2041 2772 1848 2508 
Q 1656 2244 1656 1747 
Q 1656 1250 1848 986 
Q 2041 722 2400 722 
z
M 1656 2988 
Q 1888 3294 2169 3439 
Q 2450 3584 2816 3584 
Q 3463 3584 3878 3070 
Q 4294 2556 4294 1747 
Q 4294 938 3878 423 
Q 3463 -91 2816 -91 
Q 2450 -91 2169 54 
Q 1888 200 1656 506 
L 1656 0 
L 538 0 
L 538 4863 
L 1656 4863 
L 1656 2988 
z
" transform="scale(0.015625)"/>
      </defs>
      <use xlink:href="#DejaVuSans-Bold-24"/>
      <use xlink:href="#DejaVuSans-Bold-4f" transform="translate(77.390625 0)"/>
      <use xlink:href="#DejaVuSans-Bold-45" transform="translate(111.671875 0)"/>
      <use xlink:href="#DejaVuSans-Bold-44" transform="translate(183.25 0)"/>
      <use xlink:href="#DejaVuSans-Bold-51" transform="translate(250.734375 0)"/>
      <use xlink:href="#DejaVuSans-Bold-4c" transform="translate(321.921875 0)"/>
      <use xlink:href="#DejaVuSans-Bold-44" transform="translate(356.203125 0)"/>
     </g>
    </g>
   </g>
   <g id="text_3">
    <g id="patch_4">
     <path d="M 195.220404 44.272589 
L 220.595404 44.272589 
Q 221.995404 44.272589 221.995404 42.872589 
L 221.995404 35.872042 
Q 221.995404 34.472042 220.595404 34.472042 
L 195.220404 34.472042 
Q 193.820404 34.472042 193.820404 35.872042 
L 193.820404 42.872589 
Q 193.820404 44.272589 195.220404 44.272589 
z
" clip-path="url(#p74e1bc56db)" style="fill: #ffffff; opacity: 0.6"/>
    </g>
    <g clip-path="url(#p74e1bc56db)">
     <!-- Serbia -->
     <g style="fill: #1a252f" transform="translate(195.220404 41.190948) scale(0.07 -0.07)">
      <defs>
       <path id="DejaVuSans-Bold-36" d="M 3834 4519 
L 3834 3531 
Q 3450 3703 3084 3790 
Q 2719 3878 2394 3878 
Q 1963 3878 1756 3759 
Q 1550 3641 1550 3391 
Q 1550 3203 1689 3098 
Q 1828 2994 2194 2919 
L 2706 2816 
Q 3484 2659 3812 2340 
Q 4141 2022 4141 1434 
Q 4141 663 3683 286 
Q 3225 -91 2284 -91 
Q 1841 -91 1394 -6 
Q 947 78 500 244 
L 500 1259 
Q 947 1022 1364 901 
Q 1781 781 2169 781 
Q 2563 781 2772 912 
Q 2981 1044 2981 1288 
Q 2981 1506 2839 1625 
Q 2697 1744 2272 1838 
L 1806 1941 
Q 1106 2091 782 2419 
Q 459 2747 459 3303 
Q 459 4000 909 4375 
Q 1359 4750 2203 4750 
Q 2588 4750 2994 4692 
Q 3400 4634 3834 4519 
z
" transform="scale(0.015625)"/>
       <path id="DejaVuSans-Bold-55" d="M 3138 2547 
Q 2991 2616 2845 2648 
Q 2700 2681 2553 2681 
Q 2122 2681 1889 2404 
Q 1656 2128 1656 1613 
L 1656 0 
L 538 0 
L 538 3500 
L 1656 3500 
L 1656 2925 
Q 1872 3269 2151 3426 
Q 2431 3584 2822 3584 
Q 2878 3584 2943 3579 
Q 3009 3575 3134 3559 
L 3138 2547 
z
" transform="scale(0.015625)"/>
      </defs>
      <use xlink:href="#DejaVuSans-Bold-36"/>
      <use xlink:href="#DejaVuSans-Bold-48" transform="translate(72.015625 0)"/>
      <use xlink:href="#DejaVuSans-Bold-55" transform="translate(139.84375 0)"/>
      <use xlink:href="#DejaVuSans-Bold-45" transform="translate(189.15625 0)"/>
      <use xlink:href="#DejaVuSans-Bold-4c" transform="translate(260.734375 0)"/>
      <use xlink:href="#DejaVuSans-Bold-44" transform="translate(295.015625 0)"/>
     </g>
    </g>
   </g>
   <g id="text_4">
    <g id="patch_5">
     <path d="M 10.925045 251.097379 
L 58.779889 251.097379 
Q 60.179889 251.097379 60.179889 249.697379 
L 60.179889 242.697379 
Q 60.179889 241.297379 58.779889 241.297379 
L 10.925045 241.297379 
Q 9.525045 241.297379 9.525045 242.697379 
L 9.525045 249.697379 
Q 9.525045 251.097379 10.925045 251.097379 
z
" clip-path="url(#p74e1bc56db)" style="fill: #ffffff; opacity: 0.6"/>
    </g>
    <g clip-path="url(#p74e1bc56db)">
     <!-- Montenegro -->
     <g style="fill: #1a252f" transform="translate(10.925045 248.015739) scale(0.07 -0.07)">
      <defs>
       <path id="DejaVuSans-Bold-57" d="M 1759 4494 
L 1759 3500 
L 2913 3500 
L 2913 2700 
L 1759 2700 
L 1759 1216 
Q 1759 972 1856 886 
Q 1953 800 2241 800 
L 2816 800 
L 2816 0 
L 1856 0 
Q 1194 0 917 276 
Q 641 553 641 1216 
L 641 2700 
L 84 2700 
L 84 3500 
L 641 3500 
L 641 4494 
L 1759 4494 
z
" transform="scale(0.015625)"/>
       <path id="DejaVuSans-Bold-4a" d="M 2919 594 
Q 2688 288 2409 144 
Q 2131 0 1766 0 
Q 1125 0 706 504 
Q 288 1009 288 1791 
Q 288 2575 706 3076 
Q 1125 3578 1766 3578 
Q 2131 3578 2409 3434 
Q 2688 3291 2919 2981 
L 2919 3500 
L 4044 3500 
L 4044 353 
Q 4044 -491 3511 -936 
Q 2978 -1381 1966 -1381 
Q 1638 -1381 1331 -1331 
Q 1025 -1281 716 -1178 
L 716 -306 
Q 1009 -475 1290 -558 
Q 1572 -641 1856 -641 
Q 2406 -641 2662 -400 
Q 2919 -159 2919 353 
L 2919 594 
z
M 2181 2772 
Q 1834 2772 1640 2515 
Q 1447 2259 1447 1791 
Q 1447 1309 1634 1061 
Q 1822 813 2181 813 
Q 2531 813 2725 1069 
Q 2919 1325 2919 1791 
Q 2919 2259 2725 2515 
Q 2531 2772 2181 2772 
z
" transform="scale(0.015625)"/>
      </defs>
      <use xlink:href="#DejaVuSans-Bold-30"/>
      <use xlink:href="#DejaVuSans-Bold-52" transform="translate(99.515625 0)"/>
      <use xlink:href="#DejaVuSans-Bold-51" transform="translate(168.21875 0)"/>
      <use xlink:href="#DejaVuSans-Bold-57" transform="translate(239.40625 0)"/>
      <use xlink:href="#DejaVuSans-Bold-48" transform="translate(287.203125 0)"/>
      <use xlink:href="#DejaVuSans-Bold-51" transform="translate(355.03125 0)"/>
      <use xlink:href="#DejaVuSans-Bold-48" transform="translate(426.21875 0)"/>
      <use xlink:href="#DejaVuSans-Bold-4a" transform="translate(494.046875 0)"/>
      <use xlink:href="#DejaVuSans-Bold-55" transform="translate(565.625 0)"/>
      <use xlink:href="#DejaVuSans-Bold-52" transform="translate(614.9375 0)"/>
     </g>
    </g>
   </g>
   <g id="text_5">
    <!-- Kosovo -->
    <g style="fill: #1a252f" transform="translate(163.38669 20.116016) scale(0.17 -0.17)">
     <defs>
      <path id="DejaVuSans-Bold-2e" d="M 588 4666 
L 1791 4666 
L 1791 2963 
L 3525 4666 
L 4922 4666 
L 2675 2456 
L 5153 0 
L 3647 0 
L 1791 1838 
L 1791 0 
L 588 0 
L 588 4666 
z
" transform="scale(0.015625)"/>
      <path id="DejaVuSans-Bold-56" d="M 3272 3391 
L 3272 2541 
Q 2913 2691 2578 2766 
Q 2244 2841 1947 2841 
Q 1628 2841 1473 2761 
Q 1319 2681 1319 2516 
Q 1319 2381 1436 2309 
Q 1553 2238 1856 2203 
L 2053 2175 
Q 2913 2066 3209 1816 
Q 3506 1566 3506 1031 
Q 3506 472 3093 190 
Q 2681 -91 1863 -91 
Q 1516 -91 1145 -36 
Q 775 19 384 128 
L 384 978 
Q 719 816 1070 734 
Q 1422 653 1784 653 
Q 2113 653 2278 743 
Q 2444 834 2444 1013 
Q 2444 1163 2330 1236 
Q 2216 1309 1875 1350 
L 1678 1375 
Q 931 1469 631 1722 
Q 331 1975 331 2491 
Q 331 3047 712 3315 
Q 1094 3584 1881 3584 
Q 2191 3584 2531 3537 
Q 2872 3491 3272 3391 
z
" transform="scale(0.015625)"/>
      <path id="DejaVuSans-Bold-59" d="M 97 3500 
L 1216 3500 
L 2088 1081 
L 2956 3500 
L 4078 3500 
L 2700 0 
L 1472 0 
L 97 3500 
z
" transform="scale(0.015625)"/>
     </defs>
     <use xlink:href="#DejaVuSans-Bold-2e"/>
     <use xlink:href="#DejaVuSans-Bold-52" transform="translate(75.734375 0)"/>
     <use xlink:href="#DejaVuSans-Bold-56" transform="translate(144.4375 0)"/>
     <use xlink:href="#DejaVuSans-Bold-52" transform="translate(203.953125 0)"/>
     <use xlink:href="#DejaVuSans-Bold-59" transform="translate(272.65625 0)"/>
     <use xlink:href="#DejaVuSans-Bold-52" transform="translate(337.84375 0)"/>
    </g>
   </g>
   <g id="line2d_1">
    <path d="M 225.481784 250.618571 
" clip-path="url(#p74e1bc56db)" style="fill: none; stroke: #ffffff; stroke-width: 1.5; stroke-linecap: square"/>
    <defs>
     <path id="m6b9113e7c5" d="M 0 2.5 
C 0.663008 2.5 1.29895 2.236584 1.767767 1.767767 
C 2.236584 1.29895 2.5 0.663008 2.5 0 
C 2.5 -0.663008 2.236584 -1.29895 1.767767 -1.767767 
C 1.29895 -2.236584 0.663008 -2.5 0 -2.5 
C -0.663008 -2.5 -1.29895 -2.236584 -1.767767 -1.767767 
C -2.236584 -1.29895 -2.5 -0.663008 -2.5 0 
C -2.5 0.663008 -2.236584 1.29895 -1.767767 1.767767 
C -1.29895 2.236584 -0.663008 2.5 0 2.5 
z
" style="stroke: #1a252f; stroke-width: 0.8"/>
    </defs>
    <g clip-path="url(#p74e1bc56db)">
     <use xlink:href="#m6b9113e7c5" x="225.481784" y="250.618571" style="fill: #ffffff; stroke: #1a252f; stroke-width: 0.8"/>
    </g>
   </g>
   <g id="text_6">
    <g clip-path="url(#p74e1bc56db)">
     <!-- Pristina -->
     <g style="fill: #ffffff" transform="translate(238.267726 252.567106) scale(0.075 -0.075)">
      <defs>
       <path id="DejaVuSans-Bold-33" d="M 588 4666 
L 2584 4666 
Q 3475 4666 3951 4270 
Q 4428 3875 4428 3144 
Q 4428 2409 3951 2014 
Q 3475 1619 2584 1619 
L 1791 1619 
L 1791 0 
L 588 0 
L 588 4666 
z
M 1791 3794 
L 1791 2491 
L 2456 2491 
Q 2806 2491 2997 2661 
Q 3188 2831 3188 3144 
Q 3188 3456 2997 3625 
Q 2806 3794 2456 3794 
L 1791 3794 
z
" transform="scale(0.015625)"/>
      </defs>
      <use xlink:href="#DejaVuSans-Bold-33"/>
      <use xlink:href="#DejaVuSans-Bold-55" transform="translate(73.296875 0)"/>
      <use xlink:href="#DejaVuSans-Bold-4c" transform="translate(122.609375 0)"/>
      <use xlink:href="#DejaVuSans-Bold-56" transform="translate(156.890625 0)"/>
      <use xlink:href="#DejaVuSans-Bold-57" transform="translate(216.40625 0)"/>
      <use xlink:href="#DejaVuSans-Bold-4c" transform="translate(264.203125 0)"/>
      <use xlink:href="#DejaVuSans-Bold-51" transform="translate(298.484375 0)"/>
      <use xlink:href="#DejaVuSans-Bold-44" transform="translate(369.671875 0)"/>
     </g>
    </g>
   </g>
   <g id="legend_1">
    <g id="patch_6">
     <path d="M 13.5 498.656016 
L 88.097344 498.656016 
Q 89.897344 498.656016 89.897344 496.856016 
L 89.897344 470.754609 
Q 89.897344 468.954609 88.097344 468.954609 
L 13.5 468.954609 
Q 11.7 468.954609 11.7 470.754609 
L 11.7 496.856016 
Q 11.7 498.656016 13.5 498.656016 
z
" style="fill: #ffffff; opacity: 0.85; stroke: #cccccc; stroke-linejoin: miter"/>
    </g>
    <g id="patch_7">
     <path d="M 15.3 479.393203 
L 33.3 479.393203 
L 33.3 473.093203 
L 15.3 473.093203 
z
" style="fill: #e74c3c; stroke: #888888; stroke-linejoin: miter"/>
    </g>
    <g id="text_7">
     <!-- Kosovo -->
     <g transform="translate(40.5 479.393203) scale(0.09 -0.09)">
      <defs>
       <path id="DejaVuSans-2e" d="M 628 4666 
L 1259 4666 
L 1259 2694 
L 3353 4666 
L 4166 4666 
L 1850 2491 
L 4331 0 
L 3500 0 
L 1259 2247 
L 1259 0 
L 628 0 
L 628 4666 
z
" transform="scale(0.015625)"/>
       <path id="DejaVuSans-52" d="M 1959 3097 
Q 1497 3097 1228 2736 
Q 959 2375 959 1747 
Q 959 1119 1226 758 
Q 1494 397 1959 397 
Q 2419 397 2687 759 
Q 2956 1122 2956 1747 
Q 2956 2369 2687 2733 
Q 2419 3097 1959 3097 
z
M 1959 3584 
Q 2709 3584 3137 3096 
Q 3566 2609 3566 1747 
Q 3566 888 3137 398 
Q 2709 -91 1959 -91 
Q 1206 -91 779 398 
Q 353 888 353 1747 
Q 353 2609 779 3096 
Q 1206 3584 1959 3584 
z
" transform="scale(0.015625)"/>
       <path id="DejaVuSans-56" d="M 2834 3397 
L 2834 2853 
Q 2591 2978 2328 3040 
Q 2066 3103 1784 3103 
Q 1356 3103 1142 2972 
Q 928 2841 928 2578 
Q 928 2378 1081 2264 
Q 1234 2150 1697 2047 
L 1894 2003 
Q 2506 1872 2764 1633 
Q 3022 1394 3022 966 
Q 3022 478 2636 193 
Q 2250 -91 1575 -91 
Q 1294 -91 989 -36 
Q 684 19 347 128 
L 347 722 
Q 666 556 975 473 
Q 1284 391 1588 391 
Q 1994 391 2212 530 
Q 2431 669 2431 922 
Q 2431 1156 2273 1281 
Q 2116 1406 1581 1522 
L 1381 1569 
Q 847 1681 609 1914 
Q 372 2147 372 2553 
Q 372 3047 722 3315 
Q 1072 3584 1716 3584 
Q 2034 3584 2315 3537 
Q 2597 3491 2834 3397 
z
" transform="scale(0.015625)"/>
       <path id="DejaVuSans-59" d="M 191 3500 
L 800 3500 
L 1894 563 
L 2988 3500 
L 3597 3500 
L 2284 0 
L 1503 0 
L 191 3500 
z
" transform="scale(0.015625)"/>
      </defs>
      <use xlink:href="#DejaVuSans-2e"/>
      <use xlink:href="#DejaVuSans-52" transform="translate(60.59375 0)"/>
      <use xlink:href="#DejaVuSans-56" transform="translate(121.78125 0)"/>
      <use xlink:href="#DejaVuSans-52" transform="translate(173.875 0)"/>
      <use xlink:href="#DejaVuSans-59" transform="translate(235.0625 0)"/>
      <use xlink:href="#DejaVuSans-52" transform="translate(294.25 0)"/>
     </g>
    </g>
    <g id="patch_8">
     <path d="M 15.3 492.893906 
L 33.3 492.893906 
L 33.3 486.593906 
L 15.3 486.593906 
z
" style="fill: #bdc3c7; stroke: #888888; stroke-linejoin: miter"/>
    </g>
    <g id="text_8">
     <!-- Neighbors -->
     <g transform="translate(40.5 492.893906) scale(0.09 -0.09)">
      <defs>
       <path id="DejaVuSans-31" d="M 628 4666 
L 1478 4666 
L 3547 763 
L 3547 4666 
L 4159 4666 
L 4159 0 
L 3309 0 
L 1241 3903 
L 1241 0 
L 628 0 
L 628 4666 
z
" transform="scale(0.015625)"/>
       <path id="DejaVuSans-48" d="M 3597 1894 
L 3597 1613 
L 953 1613 
Q 991 1019 1311 708 
Q 1631 397 2203 397 
Q 2534 397 2845 478 
Q 3156 559 3463 722 
L 3463 178 
Q 3153 47 2828 -22 
Q 2503 -91 2169 -91 
Q 1331 -91 842 396 
Q 353 884 353 1716 
Q 353 2575 817 3079 
Q 1281 3584 2069 3584 
Q 2775 3584 3186 3129 
Q 3597 2675 3597 1894 
z
M 3022 2063 
Q 3016 2534 2758 2815 
Q 2500 3097 2075 3097 
Q 1594 3097 1305 2825 
Q 1016 2553 972 2059 
L 3022 2063 
z
" transform="scale(0.015625)"/>
       <path id="DejaVuSans-4c" d="M 603 3500 
L 1178 3500 
L 1178 0 
L 603 0 
L 603 3500 
z
M 603 4863 
L 1178 4863 
L 1178 4134 
L 603 4134 
L 603 4863 
z
" transform="scale(0.015625)"/>
       <path id="DejaVuSans-4a" d="M 2906 1791 
Q 2906 2416 2648 2759 
Q 2391 3103 1925 3103 
Q 1463 3103 1205 2759 
Q 947 2416 947 1791 
Q 947 1169 1205 825 
Q 1463 481 1925 481 
Q 2391 481 2648 825 
Q 2906 1169 2906 1791 
z
M 3481 434 
Q 3481 -459 3084 -895 
Q 2688 -1331 1869 -1331 
Q 1566 -1331 1297 -1286 
Q 1028 -1241 775 -1147 
L 775 -588 
Q 1028 -725 1275 -790 
Q 1522 -856 1778 -856 
Q 2344 -856 2625 -561 
Q 2906 -266 2906 331 
L 2906 616 
Q 2728 306 2450 153 
Q 2172 0 1784 0 
Q 1141 0 747 490 
Q 353 981 353 1791 
Q 353 2603 747 3093 
Q 1141 3584 1784 3584 
Q 2172 3584 2450 3431 
Q 2728 3278 2906 2969 
L 2906 3500 
L 3481 3500 
L 3481 434 
z
" transform="scale(0.015625)"/>
       <path id="DejaVuSans-4b" d="M 3513 2113 
L 3513 0 
L 2938 0 
L 2938 2094 
Q 2938 2591 2744 2837 
Q 2550 3084 2163 3084 
Q 1697 3084 1428 2787 
Q 1159 2491 1159 1978 
L 1159 0 
L 581 0 
L 581 4863 
L 1159 4863 
L 1159 2956 
Q 1366 3272 1645 3428 
Q 1925 3584 2291 3584 
Q 2894 3584 3203 3211 
Q 3513 2838 3513 2113 
z
" transform="scale(0.015625)"/>
       <path id="DejaVuSans-45" d="M 3116 1747 
Q 3116 2381 2855 2742 
Q 2594 3103 2138 3103 
Q 1681 3103 1420 2742 
Q 1159 2381 1159 1747 
Q 1159 1113 1420 752 
Q 1681 391 2138 391 
Q 2594 391 2855 752 
Q 3116 1113 3116 1747 
z
M 1159 2969 
Q 1341 3281 1617 3432 
Q 1894 3584 2278 3584 
Q 2916 3584 3314 3078 
Q 3713 2572 3713 1747 
Q 3713 922 3314 415 
Q 2916 -91 2278 -91 
Q 1894 -91 1617 61 
Q 1341 213 1159 525 
L 1159 0 
L 581 0 
L 581 4863 
L 1159 4863 
L 1159 2969 
z
" transform="scale(0.015625)"/>
       <path id="DejaVuSans-55" d="M 2631 2963 
Q 2534 3019 2420 3045 
Q 2306 3072 2169 3072 
Q 1681 3072 1420 2755 
Q 1159 2438 1159 1844 
L 1159 0 
L 581 0 
L 581 3500 
L 1159 3500 
L 1159 2956 
Q 1341 3275 1631 3429 
Q 1922 3584 2338 3584 
Q 2397 3584 2469 3576 
Q 2541 3569 2628 3553 
L 2631 2963 
z
" transform="scale(0.015625)"/>
      </defs>
      <use xlink:href="#DejaVuSans-31"/>
      <use xlink:href="#DejaVuSans-48" transform="translate(74.8125 0)"/>
      <use xlink:href="#DejaVuSans-4c" transform="translate(136.34375 0)"/>
      <use xlink:href="#DejaVuSans-4a" transform="translate(164.125 0)"/>
      <use xlink:href="#DejaVuSans-4b" transform="translate(227.609375 0)"/>
      <use xlink:href="#DejaVuSans-45" transform="translate(290.984375 0)"/>
      <use xlink:href="#DejaVuSans-52" transform="translate(354.46875 0)"/>
      <use xlink:href="#DejaVuSans-55" transform="translate(415.65625 0)"/>
      <use xlink:href="#DejaVuSans-56" transform="translate(456.765625 0)"/>
     </g>
    </g>
   </g>
  </g>
 </g>
 <defs>
  <clipPath id="p74e1bc56db">
   <rect x="7.2" y="30.116016" width="381.486348" height="473.04"/>
  </clipPath>
 </defs>
</svg>
