<?xml version="1.0" encoding="utf-8" standalone="no"?>
<!DOCTYPE svg PUBLIC "-//W3C//DTD SVG 1.1//EN"
  "http://www.w3.org/Graphics/SVG/1.1/DTD/svg11.dtd">
<svg xmlns:xlink="http://www.w3.org/1999/xlink" width="393.460498pt" height="510.357344pt" viewBox="0 0 393.460498 510.357344" xmlns="http://www.w3.org/2000/svg" version="1.1">
 <metadata>
  <rdf:RDF xmlns:dc="http://purl.org/dc/elements/1.1/" xmlns:cc="http://creativecommons.org/ns#" xmlns:rdf="http://www.w3.org/1999/02/22-rdf-syntax-ns#">
   <cc:Work>
    <dc:type rdf:resource="http://purl.org/dc/dcmitype/StillImage"/>
    <dc:date>2026-06-19T08:13:51.241549</dc:date>
    <dc:format>image/svg+xml</dc:format>
    <dc:creator>
     <cc:Agent>
      <dc:title>Matplotlib v3.11.0, https://matplotlib.org/</dc:title>
     </cc:Agent>
    </dc:creator>
   </cc:Work>
  </rdf:RDF>
 </metadata>
 <defs>
  <style type="text/css">*{stroke-linejoin: round; stroke-linecap: butt}</style>
 </defs>
 <g id="figure_1">
  <g id="patch_1">
   <path d="M 0 510.357344 
L 393.460498 510.357344 
L 393.460498 0 
L 0 0 
z
" style="fill: #d6eaf8"/>
  </g>
  <g id="axes_1">
   <g id="PatchCollection_1">
    <path d="M 23.043239 613.912358 
L 24.604471 612.368914 
L 30.459089 608.179564 
L 33.97186 603.769723 
L 34.362168 601.564802 
L 33.581552 597.154961 
L 33.581552 594.95004 
L 35.923399 590.319706 
L 48.022944 578.192642 
L 49.584175 577.090182 
L 49.974483 577.090182 
L 53.487254 573.782801 
L 53.487254 570.916404 
L 51.535715 568.270499 
L 48.413252 565.404102 
L 49.193867 563.199181 
L 51.926023 559.671308 
L 61.293412 542.693419 
L 62.074028 541.590958 
L 68.318954 527.479466 
L 71.051109 520.644211 
L 73.392956 517.33683 
L 76.51542 505.871242 
L 76.905727 505.209766 
L 76.51542 503.886814 
L 76.51542 503.225338 
L 78.076651 502.343369 
L 87.053733 474.340876 
L 90.566504 454.937574 
L 94.079275 437.739192 
L 94.85989 436.636732 
L 95.250198 430.683446 
L 96.030814 428.919509 
L 95.640506 427.155573 
L 98.372661 416.351461 
L 98.762969 404.665381 
L 99.543585 402.019476 
L 101.104817 401.137508 
L 102.666048 401.578492 
L 105.007895 402.901445 
L 106.569127 403.342429 
L 107.349743 403.121937 
L 111.252822 398.932587 
L 111.643129 397.830127 
L 112.814053 394.522746 
L 113.204361 392.758809 
L 112.814053 391.215365 
L 111.643129 390.553889 
L 112.033437 388.56946 
L 112.814053 380.631745 
L 114.375285 376.442396 
L 114.765593 373.796491 
L 114.375285 371.59157 
L 114.765593 371.150586 
L 115.546208 370.268618 
L 115.936516 369.827634 
L 115.1559 368.945665 
L 115.936516 368.945665 
L 124.52329 369.607142 
L 124.913598 369.38665 
L 126.084521 368.284189 
L 126.865137 368.063697 
L 127.645753 368.063697 
L 129.206984 368.504681 
L 129.9876 368.504681 
L 133.890679 367.181729 
L 135.061603 367.181729 
L 135.842219 367.622713 
L 136.232526 367.843205 
L 137.793758 368.725173 
L 138.574374 370.048126 
L 139.35499 371.59157 
L 140.525913 372.914523 
L 142.087145 373.135015 
L 147.941763 371.59157 
L 153.015766 369.38665 
L 156.528537 368.945665 
L 156.918844 366.961237 
L 159.260692 363.433364 
L 160.041308 361.228443 
L 160.431615 357.921062 
L 160.821923 351.526792 
L 161.602539 348.660395 
L 162.773463 346.896458 
L 163.163771 344.91203 
L 163.944386 343.809569 
L 165.505618 343.589077 
L 165.895926 344.471045 
L 167.847465 347.557934 
L 169.408697 348.660395 
L 169.799005 349.101379 
L 170.189313 348.660395 
L 169.799005 346.234982 
L 170.579621 345.132522 
L 172.140852 344.91203 
L 174.092392 344.471045 
L 176.043931 342.707109 
L 180.337318 338.297267 
L 182.288857 337.856283 
L 183.459781 337.635791 
L 185.021012 337.194807 
L 186.582244 336.533331 
L 187.753168 335.651362 
L 189.704707 333.666934 
L 191.656246 329.257092 
L 193.607786 327.272664 
L 193.607786 328.154632 
L 193.217478 328.816108 
L 192.82717 331.021029 
L 192.436862 331.682505 
L 192.436862 333.446442 
L 190.485323 334.769394 
L 189.704707 335.651362 
L 187.36286 336.753823 
L 191.265939 339.62022 
L 187.753168 344.91203 
L 188.533783 345.793998 
L 191.656246 347.998919 
L 192.046554 354.172697 
L 194.388402 355.716141 
L 194.77871 359.464506 
L 193.607786 361.889919 
L 192.436862 363.874348 
L 192.436862 365.858776 
L 196.339941 367.622713 
L 196.339941 369.38665 
L 197.510865 381.734206 
L 198.291481 383.27765 
L 200.633328 387.687492 
L 199.072096 390.553889 
L 198.291481 390.774381 
L 196.730249 394.081762 
L 195.169017 398.050619 
L 195.559325 399.594064 
L 194.77871 402.901445 
L 189.314399 409.516207 
L 186.582244 413.926048 
L 184.630704 414.367032 
L 178.776086 418.115398 
L 175.263315 421.422779 
L 173.311776 422.304747 
L 170.969928 422.084255 
L 169.018389 423.407207 
L 167.06685 425.612128 
L 166.286234 426.494096 
L 165.505618 426.935081 
L 165.11531 427.376065 
L 165.11531 428.478525 
L 165.505618 429.360493 
L 166.676542 430.02197 
L 166.676542 430.683446 
L 165.895926 430.683446 
L 165.895926 431.785906 
L 166.286234 432.888366 
L 166.676542 436.195748 
L 167.457157 437.959684 
L 167.06685 438.62116 
L 166.676542 438.62116 
L 166.676542 438.400668 
L 166.676542 437.959684 
L 166.286234 438.400668 
L 165.895926 439.723621 
L 165.11531 438.841652 
L 165.505618 441.487557 
L 165.895926 442.369526 
L 164.334694 442.369526 
L 164.334694 443.251494 
L 164.725002 443.251494 
L 165.505618 443.251494 
L 166.286234 444.353954 
L 166.286234 445.01543 
L 167.457157 446.117891 
L 167.457157 446.779367 
L 166.286234 447.220351 
L 165.895926 447.881827 
L 165.505618 448.763796 
L 165.11531 449.645764 
L 165.505618 449.866256 
L 165.895926 450.086748 
L 165.895926 450.30724 
L 166.676542 450.527732 
L 166.676542 451.409701 
L 165.895926 451.850685 
L 165.11531 452.291669 
L 165.895926 453.173637 
L 164.334694 454.055605 
L 164.725002 454.276098 
L 165.11531 454.276098 
L 165.11531 454.937574 
L 164.334694 454.937574 
L 164.334694 455.819542 
L 165.11531 456.481018 
L 165.11531 456.922002 
L 164.725002 457.362987 
L 163.554079 457.583479 
L 163.944386 458.906431 
L 164.334694 459.347415 
L 164.725002 460.008891 
L 165.11531 460.89086 
L 156.528537 458.465447 
L 153.796381 457.803971 
L 151.454534 457.803971 
L 148.722379 456.922002 
L 147.941763 453.614621 
L 147.941763 449.645764 
L 147.161147 446.558875 
L 143.648376 444.353954 
L 140.525913 444.133462 
L 133.890679 444.353954 
L 131.93914 443.692478 
L 128.816677 441.046573 
L 127.255445 440.385097 
L 127.255445 440.164605 
L 125.303906 440.385097 
L 123.742674 441.487557 
L 121.010519 444.794938 
L 117.497748 446.779367 
L 114.375285 448.543304 
L 111.252822 450.527732 
L 109.301282 454.276098 
L 108.130358 461.111352 
L 107.740051 463.316272 
L 106.959435 465.962177 
L 106.569127 466.403161 
L 105.007895 466.844146 
L 104.617588 467.28513 
L 104.22728 468.828574 
L 103.836972 473.017924 
L 103.446664 474.78186 
L 104.617588 475.222844 
L 105.398203 476.104813 
L 105.788511 477.427765 
L 105.398203 479.191702 
L 104.617588 480.735146 
L 100.324201 484.704004 
L 98.762969 486.688432 
L 98.762969 487.790893 
L 100.324201 491.980242 
L 101.104817 494.185163 
L 102.27574 506.532719 
L 102.27574 508.958131 
L 102.27574 511.824528 
L 102.27574 512.045021 
L 102.27574 512.486005 
L 102.27574 512.926989 
L 102.27574 513.367973 
L 102.27574 513.808957 
L 101.885432 517.777814 
L 103.836972 522.849132 
L 105.398203 527.258974 
L 102.27574 529.02291 
L 99.543585 530.12537 
L 98.762969 531.889307 
L 98.372661 532.330291 
L 99.543585 534.535212 
L 103.056356 535.196688 
L 105.007895 535.196688 
L 105.788511 534.976196 
L 106.569127 534.31472 
L 108.520666 532.330291 
L 109.301282 531.668815 
L 110.862514 532.109799 
L 116.717132 534.755704 
L 124.132982 536.519641 
L 126.084521 537.842593 
L 126.865137 539.386038 
L 126.865137 541.590958 
L 126.865137 544.457355 
L 126.474829 545.118831 
L 126.084521 545.339323 
L 125.303906 545.118831 
L 124.913598 544.457355 
L 118.278364 546.0008 
L 115.936516 546.882768 
L 113.984977 548.646705 
L 110.472206 552.615562 
L 101.495124 559.230324 
L 99.543585 561.655737 
L 99.543585 562.096721 
L 97.592046 565.624594 
L 97.201738 569.152467 
L 97.201738 572.900833 
L 96.421122 577.090182 
L 91.737427 585.468881 
L 90.176196 589.878722 
L 91.347119 594.288564 
L 93.688967 596.0525 
L 96.421122 596.493484 
L 99.543585 596.0525 
L 102.27574 595.170532 
L 108.910974 594.288564 
L 122.181442 594.288564 
L 128.816677 591.863151 
L 140.525913 581.720515 
L 146.770839 577.97215 
L 154.186689 577.310674 
L 154.186689 577.531166 
L 154.186689 585.027897 
L 154.186689 586.350849 
L 153.406073 589.217246 
L 151.454534 594.509056 
L 149.502995 598.257421 
L 150.28361 599.139389 
L 150.28361 602.005786 
L 148.722379 604.872183 
L 147.551455 607.959072 
L 147.941763 611.486945 
L 149.112687 615.014818 
L 150.28361 617.440231 
L 151.844842 620.747612 
L 152.625458 624.275485 
L 151.844842 628.023851 
L 146.770839 638.386978 
L 146.380531 642.355835 
L 146.380531 646.324693 
L 145.209608 648.750106 
L 142.087145 651.616502 
L 140.916221 652.939455 
L 139.35499 656.026344 
L 138.964682 658.892741 
L 139.35499 661.97963 
L 138.964682 664.846027 
L 138.184066 665.948487 
L 136.232526 667.712424 
L 135.451911 668.814884 
L 134.671295 670.358329 
L 134.280987 671.681281 
L 133.890679 674.988662 
L 133.110063 678.296043 
L 126.865137 691.525568 
L 122.181442 707.621489 
L 121.400827 710.708378 
L 119.839595 716.000188 
L 119.839595 719.087077 
L 120.229903 720.410029 
L 121.791135 723.055934 
L 122.181442 725.040363 
L 121.791135 726.804299 
L 121.400827 728.127252 
L 120.620211 729.670696 
L 119.839595 731.214141 
L 118.668671 738.049395 
L 117.888056 740.254316 
L 117.888056 744.002681 
L 120.229903 751.940395 
L 120.229903 756.129745 
L 118.278364 760.539586 
L 113.984977 767.815825 
L 112.423745 772.887142 
L 112.423745 774.430587 
L 112.033437 775.533047 
L 111.643129 776.635508 
L 111.252822 777.737968 
L 110.472206 782.147809 
L 110.081898 790.085524 
L 109.69159 792.731429 
L 104.617588 807.063414 
L 103.836972 810.370795 
L 103.446664 817.647033 
L 102.27574 820.954414 
L 100.714509 823.379827 
L 99.933893 826.246224 
L 99.543585 829.774097 
L 99.153277 831.538034 
L 98.372661 832.640494 
L 96.81143 835.065907 
L 95.640506 836.609351 
L 95.250198 837.49132 
L 95.250198 838.373288 
L 94.85989 838.814272 
L 94.079275 838.814272 
L 92.908351 838.814272 
L 92.127735 838.814272 
L 91.347119 836.829843 
L 88.614964 831.538034 
L 87.834348 828.451145 
L 88.224656 819.41097 
L 85.492501 805.960953 
L 81.199114 793.613397 
L 76.51542 779.942889 
L 75.734804 772.887142 
L 75.734804 772.005174 
L 75.734804 771.343698 
L 75.734804 770.46173 
L 75.344496 769.800253 
L 71.051109 757.232205 
L 64.806183 738.049395 
L 60.903104 727.245283 
L 59.73218 725.260855 
L 53.877562 719.969045 
L 53.096946 718.646093 
L 53.096946 717.102648 
L 53.096946 714.897727 
L 54.26787 710.92887 
L 54.26787 709.164933 
L 53.096946 707.621489 
L 51.535715 705.196076 
L 50.755099 702.991155 
L 50.364791 697.478854 
L 48.022944 687.115726 
L 41.38771 668.814884 
L 35.923399 653.821423 
L 31.630013 642.355835 
L 28.507549 631.331232 
L 24.214163 617.660723 
z
" clip-path="url(#p4a730fab42)" style="fill: #bdc3c7; stroke: #ffffff; stroke-width: 0.5"/>
    <path d="M 183.069473 44.160843 
L 183.069473 43.278874 
L 185.021012 42.617398 
L 187.36286 41.294446 
L 188.924091 39.310017 
L 189.314399 36.884604 
L 189.314399 35.561652 
L 188.143475 33.797715 
L 188.143475 32.033779 
L 188.533783 31.15181 
L 191.265939 30.269842 
L 195.559325 22.332127 
L 195.559325 21.670651 
L 195.559325 18.583762 
L 195.169017 16.158349 
L 193.998094 13.07146 
L 192.436862 10.205063 
L 190.875631 8.441127 
L 196.339941 8.661619 
L 199.072096 8.000143 
L 199.852712 6.236206 
L 200.633328 3.590301 
L 203.365483 -0.599048 
L 204.146099 -0.158064 
L 206.487946 -0.599048 
L 208.439486 -1.481016 
L 210.781333 -1.701509 
L 211.952257 -0.158064 
L 211.952257 1.38538 
L 211.952257 3.149317 
L 211.952257 4.692762 
L 213.12318 5.795222 
L 215.07472 6.236206 
L 218.197183 6.236206 
L 221.709954 7.779651 
L 227.95488 12.189492 
L 229.906419 11.969 
L 231.077343 8.000143 
L 231.857959 -1.260524 
L 234.199806 -5.00889 
L 237.712577 -6.11135 
L 240.444732 -5.449874 
L 242.005964 -5.890858 
L 242.78658 -10.521191 
L 245.128427 -11.40316 
L 249.421814 -9.639223 
L 251.763661 -10.521191 
L 251.373353 -14.269557 
L 251.763661 -33.011383 
L 252.153969 -34.995812 
L 252.544277 -35.87778 
L 253.324893 -36.759748 
L 253.715201 -38.082701 
L 252.153969 -39.846637 
L 253.324893 -40.949097 
L 254.886124 -39.405653 
L 256.057048 -38.523685 
L 257.618279 -37.862208 
L 260.350435 -37.641716 
L 261.13105 -37.421224 
L 261.911666 -37.421224 
L 262.692282 -37.862208 
L 263.08259 -38.523685 
L 263.472898 -39.405653 
L 263.863206 -40.287621 
L 265.034129 -40.728605 
L 266.985669 -40.949097 
L 275.182134 -39.846637 
L 277.133674 -39.846637 
L 284.939832 -41.16959 
L 285.720447 -42.27205 
L 285.33014 -45.138447 
L 284.939832 -47.122876 
L 284.159216 -49.107304 
L 283.3786 -51.091733 
L 283.3786 -51.312225 
L 281.817369 -52.635177 
L 280.256137 -53.296654 
L 276.743366 -53.737638 
L 275.572442 -54.840098 
L 275.96275 -54.840098 
L 276.743366 -55.942558 
L 277.133674 -57.926987 
L 277.523982 -59.029447 
L 277.133674 -60.131908 
L 276.743366 -61.013876 
L 276.353058 -61.895844 
L 275.96275 -62.116336 
L 274.011211 -62.998305 
L 273.230595 -63.659781 
L 272.840287 -64.541749 
L 270.888748 -71.597496 
L 270.49844 -73.802416 
L 270.888748 -75.786845 
L 274.011211 -80.858163 
L 274.791827 -86.370464 
L 274.791827 -92.32375 
L 275.96275 -97.836052 
L 277.523982 -100.922941 
L 277.91429 -103.348354 
L 277.91429 -105.994259 
L 278.304598 -108.860656 
L 279.475521 -111.286069 
L 281.427061 -113.711481 
L 282.597984 -116.136894 
L 282.207676 -119.444275 
L 283.3786 -119.444275 
L 284.159216 -119.223783 
L 284.549524 -119.223783 
L 304.455226 -112.609021 
L 311.09046 -112.168037 
L 313.432307 -111.727053 
L 315.383847 -110.845084 
L 317.335386 -109.742624 
L 319.286926 -108.19918 
L 322.409389 -105.332783 
L 323.190005 -103.568846 
L 323.580313 -100.922941 
L 322.409389 -96.733592 
L 322.799697 -95.190147 
L 324.751236 -93.426211 
L 327.093084 -92.32375 
L 327.873699 -92.544242 
L 329.044623 -93.646703 
L 330.605855 -95.410639 
L 332.557394 -96.292608 
L 334.508933 -96.072116 
L 336.070165 -95.631131 
L 338.412012 -95.410639 
L 345.047246 -97.174576 
L 347.389094 -97.174576 
L 365.343257 -94.087687 
L 369.636643 -94.087687 
L 385.639267 -104.00983 
L 392.274501 -106.876227 
L 410.228664 -110.624592 
L 427.402211 -118.341815 
L 430.524674 -119.003291 
L 432.476213 -120.326244 
L 443.014526 -126.720514 
L 450.430376 -129.586911 
L 453.943147 -129.807403 
L 460.968689 -128.925434 
L 481.655007 -122.972148 
L 487.119317 -120.105752 
L 498.438246 -108.419672 
L 501.560709 -105.332783 
L 508.195943 -101.80491 
L 516.002101 -100.922941 
L 533.565956 -101.80491 
L 535.907803 -102.466386 
L 541.762422 -102.90737 
L 558.155353 -97.395068 
L 564.009971 -97.61556 
L 585.867213 -101.584417 
L 620.994923 -108.19918 
L 644.413396 -116.577878 
L 655.342017 -122.972148 
L 659.245096 -124.074609 
L 663.148175 -124.956577 
L 667.051254 -126.720514 
L 674.857411 -131.791831 
L 689.298803 -141.052498 
L 691.250343 -142.375451 
L 693.59219 -143.257419 
L 695.934037 -143.698403 
L 698.666193 -143.918895 
L 703.740195 -145.241848 
L 718.181587 -152.95907 
L 723.25559 -154.943499 
L 743.941908 -157.809896 
L 769.702228 -152.95907 
L 774.385923 -150.974642 
L 776.72777 -150.313165 
L 807.171785 -151.636118 
L 852.057193 -161.999245 
L 864.547045 -164.865642 
L 869.23074 -167.511547 
L 877.427205 -175.008278 
L 882.891516 -181.843532 
L 884.452747 -182.7255 
L 886.404287 -184.268945 
L 887.57521 -182.945992 
L 887.57521 -181.402548 
L 887.57521 -180.079595 
L 887.57521 -179.418119 
L 889.136442 -179.197627 
L 892.258905 -177.654182 
L 893.039521 -177.874675 
L 893.820136 -178.756643 
L 894.210444 -179.197627 
L 894.99106 -178.977135 
L 895.381368 -178.315659 
L 896.161984 -176.992706 
L 896.552292 -176.33123 
L 900.065063 -173.464833 
L 900.845678 -173.244341 
L 901.626294 -171.480404 
L 899.674755 -164.204166 
L 900.845678 -162.440229 
L 902.016602 -161.778753 
L 902.016602 -159.794325 
L 902.016602 -156.266451 
L 902.797218 -154.723007 
L 903.577834 -153.400054 
L 904.358449 -151.85661 
L 904.358449 -149.872181 
L 900.845678 -147.446769 
L 893.820136 -141.052498 
L 882.891516 -129.586911 
L 861.034274 -107.096719 
L 846.592882 -91.882766 
L 843.470419 -89.677846 
L 840.738264 -88.134401 
L 807.171785 -81.299147 
L 800.146243 -80.196686 
L 796.633472 -78.653242 
L 794.681933 -75.786845 
L 784.924236 -57.706495 
L 784.14362 -54.178622 
L 780.630849 -21.325303 
L 780.630849 -19.120382 
L 781.021157 -16.915462 
L 783.753312 -10.521191 
L 792.340086 7.338666 
L 793.511009 11.528016 
L 793.901317 15.717365 
L 794.291625 33.797715 
L 793.901317 37.766572 
L 791.949778 41.73543 
L 788.437007 47.247732 
L 783.363004 54.744462 
L 782.192081 58.713319 
L 781.411465 71.50186 
L 776.72777 87.597781 
L 775.556847 95.535495 
L 775.947154 98.622384 
L 776.337462 120.010115 
L 777.508386 142.941291 
L 777.118078 146.248672 
L 776.337462 149.556053 
L 757.602684 185.275769 
L 753.699605 193.87496 
L 751.357757 197.402833 
L 748.235294 199.387262 
L 721.30405 206.6635 
L 705.691735 216.144659 
L 693.59219 223.420898 
L 681.492646 230.697136 
L 669.393101 237.973374 
L 665.490022 240.398787 
L 657.683864 245.029121 
L 645.58432 252.305359 
L 633.484775 259.581597 
L 621.775539 266.857836 
L 609.675994 274.134074 
L 597.57645 281.189821 
L 585.476905 288.466059 
L 573.767669 295.742297 
L 561.668124 303.018536 
L 549.56858 310.294774 
L 537.859343 317.571013 
L 525.759798 324.626759 
L 513.660254 331.902997 
L 487.119317 348.660395 
L 464.091152 363.433364 
L 454.723763 369.166157 
L 435.988984 381.293221 
L 421.9379 390.112904 
L 403.59343 402.239968 
L 384.858651 414.367032 
L 375.100954 420.981795 
L 366.51418 426.494096 
L 347.779402 438.62116 
L 335.679857 446.558875 
L 319.286926 457.583479 
L 301.723071 469.710543 
L 300.161839 470.151527 
L 298.990916 470.151527 
L 291.965374 468.167098 
L 289.623526 468.167098 
L 287.671987 469.269558 
L 283.768908 466.182669 
L 268.937208 464.418733 
L 265.034129 463.977749 
L 263.08259 462.875288 
L 257.227972 462.213812 
L 254.886124 461.552336 
L 253.324893 460.670368 
L 243.957503 451.409701 
L 236.931961 446.558875 
L 233.41919 442.81051 
L 232.248267 442.149034 
L 231.467651 442.369526 
L 230.296727 443.471986 
L 229.906419 443.692478 
L 229.125804 443.692478 
L 227.95488 443.251494 
L 227.174264 443.031002 
L 223.271185 443.692478 
L 221.709954 443.692478 
L 220.53903 443.692478 
L 220.148722 443.471986 
L 220.148722 443.031002 
L 219.368107 441.487557 
L 214.684412 433.770335 
L 213.513488 431.565414 
L 213.513488 429.140001 
L 213.903796 426.935081 
L 213.12318 425.612128 
L 210.781333 425.391636 
L 209.220101 425.612128 
L 208.049178 425.171144 
L 207.268562 424.289176 
L 206.097638 422.966223 
L 206.487946 423.186715 
L 206.878254 422.525239 
L 206.878254 421.643271 
L 206.878254 420.761302 
L 206.487946 420.54081 
L 204.926715 420.54081 
L 204.536407 420.54081 
L 202.584867 418.556382 
L 201.413944 417.894906 
L 190.095015 415.249001 
L 188.924091 413.926048 
L 188.533783 413.485064 
L 187.753168 413.264572 
L 187.36286 413.485064 
L 186.582244 413.926048 
L 189.314399 409.516207 
L 194.77871 402.901445 
L 195.559325 399.594064 
L 195.169017 398.050619 
L 196.730249 394.081762 
L 198.291481 390.774381 
L 199.072096 390.553889 
L 200.633328 387.687492 
L 198.291481 383.27765 
L 197.510865 381.734206 
L 196.339941 369.38665 
L 196.339941 367.622713 
L 192.436862 365.858776 
L 192.436862 363.874348 
L 193.607786 361.889919 
L 194.77871 359.464506 
L 194.388402 355.716141 
L 192.046554 354.172697 
L 191.656246 347.998919 
L 188.533783 345.793998 
L 187.753168 344.91203 
L 191.265939 339.62022 
L 187.36286 336.753823 
L 189.704707 335.651362 
L 190.485323 334.769394 
L 192.436862 333.446442 
L 192.436862 331.682505 
L 192.82717 331.021029 
L 193.217478 328.816108 
L 193.607786 328.154632 
L 193.607786 327.272664 
L 195.949633 325.729219 
L 198.681788 324.185775 
L 200.633328 322.862822 
L 204.146099 319.996425 
L 205.70733 316.027568 
L 204.536407 313.381663 
L 205.70733 311.617727 
L 208.049178 310.735758 
L 210.781333 310.735758 
L 212.732872 309.85379 
L 215.07472 308.310345 
L 216.635951 306.325917 
L 217.026259 303.900504 
L 216.245643 302.35706 
L 214.294104 301.034107 
L 212.342565 300.152139 
L 210.781333 299.711155 
L 208.049178 298.16771 
L 205.70733 297.726726 
L 204.536407 296.844758 
L 204.926715 293.978361 
L 205.317023 293.537377 
L 206.487946 293.096392 
L 207.268562 292.655408 
L 207.268562 291.332456 
L 207.268562 288.907043 
L 207.268562 287.804583 
L 208.049178 286.702122 
L 210.000717 284.938186 
L 210.781333 283.394741 
L 212.342565 281.189821 
L 215.855336 278.102932 
L 217.416567 275.236535 
L 218.197183 273.913582 
L 220.148722 273.031614 
L 222.100262 272.59063 
L 224.051801 271.708661 
L 227.95488 269.283249 
L 228.735496 269.724233 
L 229.906419 271.488169 
L 230.687035 272.149646 
L 233.028883 272.149646 
L 234.980422 271.047185 
L 236.541654 269.724233 
L 238.102885 269.062757 
L 240.054425 269.503741 
L 245.518735 272.149646 
L 249.421814 273.252106 
L 251.763661 272.811122 
L 252.934585 271.267677 
L 252.934585 268.40128 
L 250.983045 267.29882 
L 246.689659 266.637344 
L 243.567196 264.211931 
L 242.78658 263.329963 
L 242.005964 262.00701 
L 242.005964 261.566026 
L 244.347811 256.935693 
L 245.518735 254.51028 
L 247.470274 252.525851 
L 251.763661 248.556994 
L 255.276432 244.147152 
L 257.618279 242.8242 
L 258.789203 243.044692 
L 261.13105 243.92666 
L 262.692282 243.706168 
L 264.253514 242.8242 
L 265.034129 241.72174 
L 265.034129 240.178295 
L 265.814745 238.414358 
L 268.156592 235.547962 
L 272.840287 231.579104 
L 275.182134 227.169263 
L 278.304598 223.861882 
L 277.91429 222.538929 
L 275.182134 219.893024 
L 274.401519 217.908596 
L 274.011211 215.483183 
L 274.791827 213.939738 
L 275.572442 212.396294 
L 275.96275 210.632357 
L 275.572442 209.750389 
L 274.791827 209.529897 
L 274.011211 209.529897 
L 273.230595 209.309405 
L 272.059671 207.986452 
L 269.717824 204.679071 
L 268.937208 203.797103 
L 268.937208 202.694643 
L 268.937208 201.592182 
L 269.327516 200.930706 
L 269.717824 200.26923 
L 270.108132 199.387262 
L 270.49844 197.182341 
L 270.49844 195.859388 
L 269.717824 194.756928 
L 268.156592 193.433976 
L 267.375977 193.654468 
L 266.595361 193.213484 
L 265.034129 191.229055 
L 263.08259 190.347087 
L 261.521358 189.244626 
L 260.740743 187.48069 
L 259.960127 185.275769 
L 258.398895 184.834785 
L 255.276432 184.614293 
L 252.153969 184.834785 
L 250.20243 185.275769 
L 249.812122 185.496261 
L 249.421814 185.496261 
L 249.031506 185.275769 
L 248.641198 184.834785 
L 247.470274 182.850356 
L 249.421814 180.865928 
L 252.544277 179.322483 
L 254.495816 177.558546 
L 254.886124 175.574118 
L 254.886124 173.589689 
L 254.886124 172.046245 
L 256.837664 170.943784 
L 258.398895 171.60526 
L 259.569819 172.487229 
L 260.350435 171.825753 
L 260.740743 167.636403 
L 258.008587 168.518371 
L 255.276432 168.518371 
L 252.544277 167.636403 
L 250.592738 165.872467 
L 247.860582 161.242133 
L 246.299351 160.139673 
L 243.957503 161.683117 
L 243.957503 162.565085 
L 243.567196 165.21099 
L 243.176888 166.533943 
L 242.396272 167.415911 
L 241.225348 168.077387 
L 234.590114 168.297879 
L 234.199806 168.077387 
L 232.638575 167.195419 
L 232.248267 166.974927 
L 231.467651 167.195419 
L 230.296727 167.856895 
L 229.906419 168.077387 
L 225.222725 167.636403 
L 222.49057 167.415911 
L 219.368107 167.856895 
L 217.026259 167.856895 
L 214.684412 167.195419 
L 212.732872 165.651975 
L 211.952257 165.21099 
L 211.171641 164.990498 
L 209.610409 164.990498 
L 209.220101 162.565085 
L 207.268562 158.596228 
L 206.487946 155.068355 
L 205.317023 153.083926 
L 205.317023 151.981466 
L 205.317023 146.689656 
L 204.926715 145.807688 
L 202.975175 142.500307 
L 202.584867 141.177354 
L 201.804252 138.53145 
L 198.291481 129.270783 
L 199.072096 128.829798 
L 199.072096 128.168322 
L 199.852712 127.506846 
L 199.852712 126.404386 
L 199.852712 125.522417 
L 199.072096 124.860941 
L 199.072096 123.758481 
L 199.852712 123.317497 
L 199.852712 123.097005 
L 199.462404 123.097005 
L 199.072096 121.994544 
L 200.24302 120.230608 
L 200.633328 119.348639 
L 201.413944 118.466671 
L 202.194559 116.482242 
L 201.804252 114.497814 
L 201.023636 112.733877 
L 200.633328 111.190433 
L 200.633328 105.016655 
L 201.413944 103.47321 
L 206.487946 95.755988 
L 208.829794 93.551067 
L 207.65887 90.023194 
L 203.755791 81.644495 
L 205.317023 77.234653 
L 204.536407 75.029733 
L 203.755791 66.651034 
L 204.146099 64.666605 
L 202.975175 63.784637 
L 197.901173 56.728891 
L 195.559325 55.62643 
L 194.388402 54.964954 
L 193.998094 53.642002 
L 193.217478 52.760033 
L 191.265939 53.201018 
L 189.704707 53.642002 
L 189.314399 54.082986 
L 188.143475 53.42151 
L 188.143475 52.098557 
L 188.533783 50.114128 
L 188.924091 48.570684 
L 188.143475 47.909208 
L 184.240397 45.924779 
L 184.630704 45.263303 
L 184.630704 43.94035 
L 185.021012 43.278874 
L 184.240397 43.278874 
z
" clip-path="url(#p4a730fab42)" style="fill: #bdc3c7; stroke: #ffffff; stroke-width: 0.5"/>
   </g>
   <g id="PatchCollection_2">
    <defs>
     <path id="m0fd8b95c44" d="M 115.1559 -143.175615 
L 115.936516 -144.498567 
L 117.10744 -146.042012 
L 117.888056 -147.144472 
L 120.620211 -148.246933 
L 121.400827 -149.569885 
L 121.791135 -151.11333 
L 122.57175 -152.21579 
L 122.181442 -153.097758 
L 122.57175 -153.097758 
L 122.962058 -152.877266 
L 123.352366 -152.21579 
L 126.865137 -159.271536 
L 127.255445 -163.240394 
L 124.913598 -166.547775 
L 127.255445 -168.311711 
L 128.816677 -170.737124 
L 130.768216 -176.249426 
L 131.158524 -178.013362 
L 131.158524 -181.541236 
L 131.548832 -183.305172 
L 133.500371 -186.392061 
L 134.280987 -187.935506 
L 133.890679 -189.699442 
L 139.35499 -193.888792 
L 142.477453 -196.975681 
L 143.648376 -200.944538 
L 143.648376 -202.487982 
L 147.941763 -213.95357 
L 147.161147 -214.835538 
L 148.722379 -216.158491 
L 150.28361 -221.670793 
L 151.844842 -222.773253 
L 151.844842 -224.316698 
L 156.138229 -234.900317 
L 156.528537 -237.546222 
L 156.918844 -242.838032 
L 156.918844 -243.72 
L 156.528537 -245.263445 
L 155.747921 -246.586397 
L 155.357613 -247.688857 
L 156.138229 -248.791318 
L 157.309152 -249.01181 
L 158.480076 -248.791318 
L 160.041308 -248.350334 
L 160.431615 -247.688857 
L 161.212231 -247.688857 
L 162.383155 -248.350334 
L 163.944386 -248.129841 
L 164.725002 -248.129841 
L 166.676542 -248.791318 
L 167.06685 -249.673286 
L 168.237773 -252.098699 
L 168.628081 -253.201159 
L 168.628081 -253.862635 
L 168.628081 -254.083127 
L 167.847465 -254.083127 
L 169.018389 -255.185588 
L 170.189313 -258.272477 
L 170.969928 -259.595429 
L 171.750544 -259.815921 
L 173.311776 -259.815921 
L 174.092392 -260.477398 
L 174.092392 -261.579858 
L 173.311776 -262.241334 
L 172.921468 -262.461826 
L 172.53116 -263.123302 
L 172.53116 -266.210191 
L 174.092392 -271.942985 
L 174.873007 -276.132335 
L 174.482699 -277.455287 
L 172.921468 -280.321684 
L 172.53116 -282.306113 
L 172.53116 -286.715954 
L 172.921468 -287.597922 
L 174.482699 -288.700383 
L 174.873007 -289.582351 
L 174.873007 -293.551208 
L 175.263315 -297.740558 
L 176.434239 -301.047939 
L 179.166394 -303.25286 
L 181.117934 -301.709415 
L 182.679165 -304.575812 
L 184.240397 -308.765161 
L 185.801628 -311.411066 
L 192.046554 -314.718447 
L 193.607786 -317.14386 
L 191.656246 -320.451241 
L 191.656246 -321.112717 
L 193.998094 -320.671733 
L 202.584867 -322.876654 
L 208.049178 -328.388956 
L 210.000717 -329.711908 
L 211.171641 -330.814369 
L 211.561949 -332.578305 
L 211.952257 -338.752083 
L 211.561949 -341.61848 
L 210.781333 -343.823401 
L 209.610409 -345.366845 
L 211.171641 -345.366845 
L 211.952257 -345.146353 
L 212.732872 -344.705369 
L 214.684412 -343.161925 
L 217.026259 -342.500449 
L 219.368107 -342.500449 
L 222.49057 -342.941433 
L 225.222725 -342.720941 
L 229.906419 -342.279956 
L 230.296727 -342.500449 
L 231.467651 -343.161925 
L 232.248267 -343.382417 
L 232.638575 -343.161925 
L 234.199806 -342.279956 
L 234.590114 -342.059464 
L 241.225348 -342.279956 
L 242.396272 -342.941433 
L 243.176888 -343.823401 
L 243.567196 -345.146353 
L 243.957503 -347.792258 
L 243.957503 -348.674227 
L 246.299351 -350.217671 
L 247.860582 -349.115211 
L 250.592738 -344.484877 
L 252.544277 -342.720941 
L 255.276432 -341.838972 
L 258.008587 -341.838972 
L 260.740743 -342.720941 
L 260.350435 -338.531591 
L 259.569819 -337.870115 
L 258.398895 -338.752083 
L 256.837664 -339.413559 
L 254.886124 -338.311099 
L 254.886124 -336.767655 
L 254.886124 -334.783226 
L 254.495816 -332.798797 
L 252.544277 -331.034861 
L 249.421814 -329.491416 
L 247.470274 -327.506988 
L 248.641198 -325.522559 
L 249.031506 -325.081575 
L 249.421814 -324.861083 
L 249.812122 -324.861083 
L 250.20243 -325.081575 
L 252.153969 -325.522559 
L 255.276432 -325.743051 
L 258.398895 -325.522559 
L 259.960127 -325.081575 
L 260.740743 -322.876654 
L 261.521358 -321.112717 
L 263.08259 -320.010257 
L 265.034129 -319.128289 
L 266.595361 -317.14386 
L 267.375977 -316.702876 
L 268.156592 -316.923368 
L 269.717824 -315.600416 
L 270.49844 -314.497955 
L 270.49844 -313.175003 
L 270.108132 -310.970082 
L 269.717824 -310.088114 
L 269.327516 -309.426638 
L 268.937208 -308.765161 
L 268.937208 -307.662701 
L 268.937208 -306.560241 
L 269.717824 -305.678272 
L 272.059671 -302.370891 
L 273.230595 -301.047939 
L 274.011211 -300.827447 
L 274.791827 -300.827447 
L 275.572442 -300.606955 
L 275.96275 -299.724986 
L 275.572442 -297.96105 
L 274.791827 -296.417605 
L 274.011211 -294.874161 
L 274.401519 -292.448748 
L 275.182134 -290.464319 
L 277.91429 -287.818415 
L 278.304598 -286.495462 
L 275.182134 -283.188081 
L 272.840287 -278.77824 
L 268.156592 -274.809382 
L 265.814745 -271.942985 
L 265.034129 -270.179049 
L 265.034129 -268.635604 
L 264.253514 -267.533144 
L 262.692282 -266.651176 
L 261.13105 -266.430683 
L 258.789203 -267.312652 
L 257.618279 -267.533144 
L 255.276432 -266.210191 
L 251.763661 -261.80035 
L 247.470274 -257.831493 
L 245.518735 -255.847064 
L 244.347811 -253.421651 
L 242.005964 -248.791318 
L 242.005964 -248.350334 
L 242.78658 -247.027381 
L 243.567196 -246.145413 
L 246.689659 -243.72 
L 250.983045 -243.058524 
L 252.934585 -241.956063 
L 252.934585 -239.089666 
L 251.763661 -237.546222 
L 249.421814 -237.105238 
L 245.518735 -238.207698 
L 240.054425 -240.853603 
L 238.102885 -241.294587 
L 236.541654 -240.633111 
L 234.980422 -239.310159 
L 233.028883 -238.207698 
L 230.687035 -238.207698 
L 229.906419 -238.869174 
L 228.735496 -240.633111 
L 227.95488 -241.074095 
L 224.051801 -238.648682 
L 222.100262 -237.766714 
L 220.148722 -237.32573 
L 218.197183 -236.443762 
L 217.416567 -235.120809 
L 215.855336 -232.254412 
L 212.342565 -229.167523 
L 210.781333 -226.962602 
L 210.000717 -225.419158 
L 208.049178 -223.655221 
L 207.268562 -222.552761 
L 207.268562 -221.450301 
L 207.268562 -219.024888 
L 207.268562 -217.701935 
L 206.487946 -217.260951 
L 205.317023 -216.819967 
L 204.926715 -216.378983 
L 204.536407 -213.512586 
L 205.70733 -212.630618 
L 208.049178 -212.189634 
L 210.781333 -210.646189 
L 212.342565 -210.205205 
L 214.294104 -209.323237 
L 216.245643 -208.000284 
L 217.026259 -206.45684 
L 216.635951 -204.031427 
L 215.07472 -202.046998 
L 212.732872 -200.503554 
L 210.781333 -199.621585 
L 208.049178 -199.621585 
L 205.70733 -198.739617 
L 204.536407 -196.975681 
L 205.70733 -194.329776 
L 204.146099 -190.360918 
L 200.633328 -187.494521 
L 198.681788 -186.171569 
L 195.949633 -184.628125 
L 193.607786 -183.08468 
L 191.656246 -181.100251 
L 189.704707 -176.69041 
L 187.753168 -174.705981 
L 186.582244 -173.824013 
L 185.021012 -173.162537 
L 183.459781 -172.721553 
L 182.288857 -172.501061 
L 180.337318 -172.060076 
L 176.043931 -167.650235 
L 174.092392 -165.886298 
L 172.140852 -165.445314 
L 170.579621 -165.224822 
L 169.799005 -164.122362 
L 170.189313 -161.696949 
L 169.799005 -161.255965 
L 169.408697 -161.696949 
L 167.847465 -162.799409 
L 165.895926 -165.886298 
L 165.505618 -166.768267 
L 163.944386 -166.547775 
L 163.163771 -165.445314 
L 162.773463 -163.460886 
L 161.602539 -161.696949 
L 160.821923 -158.830552 
L 160.431615 -152.436282 
L 160.041308 -149.128901 
L 159.260692 -146.92398 
L 156.918844 -143.396107 
L 156.528537 -141.411678 
L 153.015766 -140.970694 
L 147.941763 -138.765773 
L 142.087145 -137.222329 
L 140.525913 -137.442821 
L 139.35499 -138.765773 
L 138.574374 -140.309218 
L 137.793758 -141.63217 
L 136.232526 -142.514139 
L 135.842219 -142.734631 
L 135.061603 -143.175615 
L 133.890679 -143.175615 
L 129.9876 -141.852662 
L 129.206984 -141.852662 
L 127.645753 -142.293647 
L 126.865137 -142.293647 
L 126.084521 -142.073155 
L 124.913598 -140.970694 
L 124.52329 -140.750202 
L 115.936516 -141.411678 
L 115.936516 -141.63217 
L 115.936516 -142.293647 
L 115.546208 -142.293647 
L 115.546208 -142.734631 
z
" style="stroke: #ffffff; stroke-width: 0.6"/>
    </defs>
    <g clip-path="url(#p4a730fab42)">
     <use xlink:href="#m0fd8b95c44" x="0" y="510.357344" style="fill: #e74c3c; stroke: #ffffff; stroke-width: 0.6"/>
    </g>
   </g>
   <g id="text_1">
    <!-- Lebanon -->
    <g style="fill: #1a252f" transform="translate(155.786812 20.117344) scale(0.17 -0.17)">
     <defs>
      <path id="DejaVuSans-Bold-2f" d="M 588 4666 
L 1791 4666 
L 1791 909 
L 3903 909 
L 3903 0 
L 588 0 
L 588 4666 
z
" transform="scale(0.015625)"/>
      <path id="DejaVuSans-Bold-48" d="M 4031 1759 
L 4031 1441 
L 1416 1441 
Q 1456 1047 1700 850 
Q 1944 653 2381 653 
Q 2734 653 3104 758 
Q 3475 863 3866 1075 
L 3866 213 
Q 3469 63 3072 -14 
Q 2675 -91 2278 -91 
Q 1328 -91 801 392 
Q 275 875 275 1747 
Q 275 2603 792 3093 
Q 1309 3584 2216 3584 
Q 3041 3584 3536 3087 
Q 4031 2591 4031 1759 
z
M 2881 2131 
Q 2881 2450 2695 2645 
Q 2509 2841 2209 2841 
Q 1884 2841 1681 2658 
Q 1478 2475 1428 2131 
L 2881 2131 
z
" transform="scale(0.015625)"/>
      <path id="DejaVuSans-Bold-45" d="M 2400 722 
Q 2759 722 2948 984 
Q 3138 1247 3138 1747 
Q 3138 2247 2948 2509 
Q 2759 2772 2400 2772 
Q 2041 2772 1848 2508 
Q 1656 2244 1656 1747 
Q 1656 1250 1848 986 
Q 2041 722 2400 722 
z
M 1656 2988 
Q 1888 3294 2169 3439 
Q 2450 3584 2816 3584 
Q 3463 3584 3878 3070 
Q 4294 2556 4294 1747 
Q 4294 938 3878 423 
Q 3463 -91 2816 -91 
Q 2450 -91 2169 54 
Q 1888 200 1656 506 
L 1656 0 
L 538 0 
L 538 4863 
L 1656 4863 
L 1656 2988 
z
" transform="scale(0.015625)"/>
      <path id="DejaVuSans-Bold-44" d="M 2106 1575 
Q 1756 1575 1579 1456 
Q 1403 1338 1403 1106 
Q 1403 894 1545 773 
Q 1688 653 1941 653 
Q 2256 653 2472 879 
Q 2688 1106 2688 1447 
L 2688 1575 
L 2106 1575 
z
M 3816 1997 
L 3816 0 
L 2688 0 
L 2688 519 
Q 2463 200 2181 54 
Q 1900 -91 1497 -91 
Q 953 -91 614 226 
Q 275 544 275 1050 
Q 275 1666 698 1953 
Q 1122 2241 2028 2241 
L 2688 2241 
L 2688 2328 
Q 2688 2594 2478 2717 
Q 2269 2841 1825 2841 
Q 1466 2841 1156 2769 
Q 847 2697 581 2553 
L 581 3406 
Q 941 3494 1303 3539 
Q 1666 3584 2028 3584 
Q 2975 3584 3395 3211 
Q 3816 2838 3816 1997 
z
" transform="scale(0.015625)"/>
      <path id="DejaVuSans-Bold-51" d="M 4056 2131 
L 4056 0 
L 2931 0 
L 2931 347 
L 2931 1631 
Q 2931 2084 2911 2256 
Q 2891 2428 2841 2509 
Q 2775 2619 2662 2680 
Q 2550 2741 2406 2741 
Q 2056 2741 1856 2470 
Q 1656 2200 1656 1722 
L 1656 0 
L 538 0 
L 538 3500 
L 1656 3500 
L 1656 2988 
Q 1909 3294 2193 3439 
Q 2478 3584 2822 3584 
Q 3428 3584 3742 3212 
Q 4056 2841 4056 2131 
z
" transform="scale(0.015625)"/>
      <path id="DejaVuSans-Bold-52" d="M 2203 2784 
Q 1831 2784 1636 2517 
Q 1441 2250 1441 1747 
Q 1441 1244 1636 976 
Q 1831 709 2203 709 
Q 2569 709 2762 976 
Q 2956 1244 2956 1747 
Q 2956 2250 2762 2517 
Q 2569 2784 2203 2784 
z
M 2203 3584 
Q 3106 3584 3614 3096 
Q 4122 2609 4122 1747 
Q 4122 884 3614 396 
Q 3106 -91 2203 -91 
Q 1297 -91 786 396 
Q 275 884 275 1747 
Q 275 2609 786 3096 
Q 1297 3584 2203 3584 
z
" transform="scale(0.015625)"/>
     </defs>
     <use xlink:href="#DejaVuSans-Bold-2f"/>
     <use xlink:href="#DejaVuSans-Bold-48" transform="translate(63.71875 0)"/>
     <use xlink:href="#DejaVuSans-Bold-45" transform="translate(131.546875 0)"/>
     <use xlink:href="#DejaVuSans-Bold-44" transform="translate(203.125 0)"/>
     <use xlink:href="#DejaVuSans-Bold-51" transform="translate(270.609375 0)"/>
     <use xlink:href="#DejaVuSans-Bold-52" transform="translate(341.796875 0)"/>
     <use xlink:href="#DejaVuSans-Bold-51" transform="translate(410.5 0)"/>
    </g>
   </g>
   <g id="legend_1">
    <g id="patch_2">
     <path d="M 13.5 498.657344 
L 88.097344 498.657344 
Q 89.897344 498.657344 89.897344 496.857344 
L 89.897344 470.755937 
Q 89.897344 468.955937 88.097344 468.955937 
L 13.5 468.955937 
Q 11.7 468.955937 11.7 470.755937 
L 11.7 496.857344 
Q 11.7 498.657344 13.5 498.657344 
z
" style="fill: #ffffff; opacity: 0.85; stroke: #cccccc; stroke-linejoin: miter"/>
    </g>
    <g id="patch_3">
     <path d="M 15.3 479.394531 
L 33.3 479.394531 
L 33.3 473.094531 
L 15.3 473.094531 
z
" style="fill: #e74c3c; stroke: #888888; stroke-linejoin: miter"/>
    </g>
    <g id="text_2">
     <!-- Lebanon -->
     <g transform="translate(40.5 479.394531) scale(0.09 -0.09)">
      <defs>
       <path id="DejaVuSans-2f" d="M 628 4666 
L 1259 4666 
L 1259 531 
L 3531 531 
L 3531 0 
L 628 0 
L 628 4666 
z
" transform="scale(0.015625)"/>
       <path id="DejaVuSans-48" d="M 3597 1894 
L 3597 1613 
L 953 1613 
Q 991 1019 1311 708 
Q 1631 397 2203 397 
Q 2534 397 2845 478 
Q 3156 559 3463 722 
L 3463 178 
Q 3153 47 2828 -22 
Q 2503 -91 2169 -91 
Q 1331 -91 842 396 
Q 353 884 353 1716 
Q 353 2575 817 3079 
Q 1281 3584 2069 3584 
Q 2775 3584 3186 3129 
Q 3597 2675 3597 1894 
z
M 3022 2063 
Q 3016 2534 2758 2815 
Q 2500 3097 2075 3097 
Q 1594 3097 1305 2825 
Q 1016 2553 972 2059 
L 3022 2063 
z
" transform="scale(0.015625)"/>
       <path id="DejaVuSans-45" d="M 3116 1747 
Q 3116 2381 2855 2742 
Q 2594 3103 2138 3103 
Q 1681 3103 1420 2742 
Q 1159 2381 1159 1747 
Q 1159 1113 1420 752 
Q 1681 391 2138 391 
Q 2594 391 2855 752 
Q 3116 1113 3116 1747 
z
M 1159 2969 
Q 1341 3281 1617 3432 
Q 1894 3584 2278 3584 
Q 2916 3584 3314 3078 
Q 3713 2572 3713 1747 
Q 3713 922 3314 415 
Q 2916 -91 2278 -91 
Q 1894 -91 1617 61 
Q 1341 213 1159 525 
L 1159 0 
L 581 0 
L 581 4863 
L 1159 4863 
L 1159 2969 
z
" transform="scale(0.015625)"/>
       <path id="DejaVuSans-44" d="M 2194 1759 
Q 1497 1759 1228 1600 
Q 959 1441 959 1056 
Q 959 750 1161 570 
Q 1363 391 1709 391 
Q 2188 391 2477 730 
Q 2766 1069 2766 1631 
L 2766 1759 
L 2194 1759 
z
M 3341 1997 
L 3341 0 
L 2766 0 
L 2766 531 
Q 2569 213 2275 61 
Q 1981 -91 1556 -91 
Q 1019 -91 701 211 
Q 384 513 384 1019 
Q 384 1609 779 1909 
Q 1175 2209 1959 2209 
L 2766 2209 
L 2766 2266 
Q 2766 2663 2505 2880 
Q 2244 3097 1772 3097 
Q 1472 3097 1187 3025 
Q 903 2953 641 2809 
L 641 3341 
Q 956 3463 1253 3523 
Q 1550 3584 1831 3584 
Q 2591 3584 2966 3190 
Q 3341 2797 3341 1997 
z
" transform="scale(0.015625)"/>
       <path id="DejaVuSans-51" d="M 3513 2113 
L 3513 0 
L 2938 0 
L 2938 2094 
Q 2938 2591 2744 2837 
Q 2550 3084 2163 3084 
Q 1697 3084 1428 2787 
Q 1159 2491 1159 1978 
L 1159 0 
L 581 0 
L 581 3500 
L 1159 3500 
L 1159 2956 
Q 1366 3272 1645 3428 
Q 1925 3584 2291 3584 
Q 2894 3584 3203 3211 
Q 3513 2838 3513 2113 
z
" transform="scale(0.015625)"/>
       <path id="DejaVuSans-52" d="M 1959 3097 
Q 1497 3097 1228 2736 
Q 959 2375 959 1747 
Q 959 1119 1226 758 
Q 1494 397 1959 397 
Q 2419 397 2687 759 
Q 2956 1122 2956 1747 
Q 2956 2369 2687 2733 
Q 2419 3097 1959 3097 
z
M 1959 3584 
Q 2709 3584 3137 3096 
Q 3566 2609 3566 1747 
Q 3566 888 3137 398 
Q 2709 -91 1959 -91 
Q 1206 -91 779 398 
Q 353 888 353 1747 
Q 353 2609 779 3096 
Q 1206 3584 1959 3584 
z
" transform="scale(0.015625)"/>
      </defs>
      <use xlink:href="#DejaVuSans-2f"/>
      <use xlink:href="#DejaVuSans-48" transform="translate(53.96875 0)"/>
      <use xlink:href="#DejaVuSans-45" transform="translate(115.5 0)"/>
      <use xlink:href="#DejaVuSans-44" transform="translate(178.984375 0)"/>
      <use xlink:href="#DejaVuSans-51" transform="translate(240.265625 0)"/>
      <use xlink:href="#DejaVuSans-52" transform="translate(303.640625 0)"/>
      <use xlink:href="#DejaVuSans-51" transform="translate(364.828125 0)"/>
     </g>
    </g>
    <g id="patch_4">
     <path d="M 15.3 492.895234 
L 33.3 492.895234 
L 33.3 486.595234 
L 15.3 486.595234 
z
" style="fill: #bdc3c7; stroke: #888888; stroke-linejoin: miter"/>
    </g>
    <g id="text_3">
     <!-- Neighbors -->
     <g transform="translate(40.5 492.895234) scale(0.09 -0.09)">
      <defs>
       <path id="DejaVuSans-31" d="M 628 4666 
L 1478 4666 
L 3547 763 
L 3547 4666 
L 4159 4666 
L 4159 0 
L 3309 0 
L 1241 3903 
L 1241 0 
L 628 0 
L 628 4666 
z
" transform="scale(0.015625)"/>
       <path id="DejaVuSans-4c" d="M 603 3500 
L 1178 3500 
L 1178 0 
L 603 0 
L 603 3500 
z
M 603 4863 
L 1178 4863 
L 1178 4134 
L 603 4134 
L 603 4863 
z
" transform="scale(0.015625)"/>
       <path id="DejaVuSans-4a" d="M 2906 1791 
Q 2906 2416 2648 2759 
Q 2391 3103 1925 3103 
Q 1463 3103 1205 2759 
Q 947 2416 947 1791 
Q 947 1169 1205 825 
Q 1463 481 1925 481 
Q 2391 481 2648 825 
Q 2906 1169 2906 1791 
z
M 3481 434 
Q 3481 -459 3084 -895 
Q 2688 -1331 1869 -1331 
Q 1566 -1331 1297 -1286 
Q 1028 -1241 775 -1147 
L 775 -588 
Q 1028 -725 1275 -790 
Q 1522 -856 1778 -856 
Q 2344 -856 2625 -561 
Q 2906 -266 2906 331 
L 2906 616 
Q 2728 306 2450 153 
Q 2172 0 1784 0 
Q 1141 0 747 490 
Q 353 981 353 1791 
Q 353 2603 747 3093 
Q 1141 3584 1784 3584 
Q 2172 3584 2450 3431 
Q 2728 3278 2906 2969 
L 2906 3500 
L 3481 3500 
L 3481 434 
z
" transform="scale(0.015625)"/>
       <path id="DejaVuSans-4b" d="M 3513 2113 
L 3513 0 
L 2938 0 
L 2938 2094 
Q 2938 2591 2744 2837 
Q 2550 3084 2163 3084 
Q 1697 3084 1428 2787 
Q 1159 2491 1159 1978 
L 1159 0 
L 581 0 
L 581 4863 
L 1159 4863 
L 1159 2956 
Q 1366 3272 1645 3428 
Q 1925 3584 2291 3584 
Q 2894 3584 3203 3211 
Q 3513 2838 3513 2113 
z
" transform="scale(0.015625)"/>
       <path id="DejaVuSans-55" d="M 2631 2963 
Q 2534 3019 2420 3045 
Q 2306 3072 2169 3072 
Q 1681 3072 1420 2755 
Q 1159 2438 1159 1844 
L 1159 0 
L 581 0 
L 581 3500 
L 1159 3500 
L 1159 2956 
Q 1341 3275 1631 3429 
Q 1922 3584 2338 3584 
Q 2397 3584 2469 3576 
Q 2541 3569 2628 3553 
L 2631 2963 
z
" transform="scale(0.015625)"/>
       <path id="DejaVuSans-56" d="M 2834 3397 
L 2834 2853 
Q 2591 2978 2328 3040 
Q 2066 3103 1784 3103 
Q 1356 3103 1142 2972 
Q 928 2841 928 2578 
Q 928 2378 1081 2264 
Q 1234 2150 1697 2047 
L 1894 2003 
Q 2506 1872 2764 1633 
Q 3022 1394 3022 966 
Q 3022 478 2636 193 
Q 2250 -91 1575 -91 
Q 1294 -91 989 -36 
Q 684 19 347 128 
L 347 722 
Q 666 556 975 473 
Q 1284 391 1588 391 
Q 1994 391 2212 530 
Q 2431 669 2431 922 
Q 2431 1156 2273 1281 
Q 2116 1406 1581 1522 
L 1381 1569 
Q 847 1681 609 1914 
Q 372 2147 372 2553 
Q 372 3047 722 3315 
Q 1072 3584 1716 3584 
Q 2034 3584 2315 3537 
Q 2597 3491 2834 3397 
z
" transform="scale(0.015625)"/>
      </defs>
      <use xlink:href="#DejaVuSans-31"/>
      <use xlink:href="#DejaVuSans-48" transform="translate(74.8125 0)"/>
      <use xlink:href="#DejaVuSans-4c" transform="translate(136.34375 0)"/>
      <use xlink:href="#DejaVuSans-4a" transform="translate(164.125 0)"/>
      <use xlink:href="#DejaVuSans-4b" transform="translate(227.609375 0)"/>
      <use xlink:href="#DejaVuSans-45" transform="translate(290.984375 0)"/>
      <use xlink:href="#DejaVuSans-52" transform="translate(354.46875 0)"/>
      <use xlink:href="#DejaVuSans-55" transform="translate(415.65625 0)"/>
      <use xlink:href="#DejaVuSans-56" transform="translate(456.765625 0)"/>
     </g>
    </g>
   </g>
  </g>
 </g>
 <defs>
  <clipPath id="p4a730fab42">
   <rect x="7.2" y="30.117344" width="379.060498" height="473.04"/>
  </clipPath>
 </defs>
</svg>
