<?xml version="1.0" encoding="utf-8" standalone="no"?>
<!DOCTYPE svg PUBLIC "-//W3C//DTD SVG 1.1//EN"
  "http://www.w3.org/Graphics/SVG/1.1/DTD/svg11.dtd">
<svg xmlns:xlink="http://www.w3.org/1999/xlink" width="458.837576pt" height="510.357344pt" viewBox="0 0 458.837576 510.357344" xmlns="http://www.w3.org/2000/svg" version="1.1">
 <metadata>
  <rdf:RDF xmlns:dc="http://purl.org/dc/elements/1.1/" xmlns:cc="http://creativecommons.org/ns#" xmlns:rdf="http://www.w3.org/1999/02/22-rdf-syntax-ns#">
   <cc:Work>
    <dc:type rdf:resource="http://purl.org/dc/dcmitype/StillImage"/>
    <dc:date>2026-06-19T08:14:08.927038</dc:date>
    <dc:format>image/svg+xml</dc:format>
    <dc:creator>
     <cc:Agent>
      <dc:title>Matplotlib v3.11.0, https://matplotlib.org/</dc:title>
     </cc:Agent>
    </dc:creator>
   </cc:Work>
  </rdf:RDF>
 </metadata>
 <defs>
  <style type="text/css">*{stroke-linejoin: round; stroke-linecap: butt}</style>
 </defs>
 <g id="figure_1">
  <g id="patch_1">
   <path d="M 0 510.357344 
L 458.837576 510.357344 
L 458.837576 0 
L 0 0 
z
" style="fill: #d6eaf8"/>
  </g>
  <g id="axes_1">
   <g id="PatchCollection_1">
    <path d="M -901.529109 156.623168 
L -900.489634 155.875408 
L -899.796652 154.192948 
L -899.45016 152.510489 
L -899.796652 151.388849 
L -898.064195 150.454149 
L -895.292264 148.771689 
L -892.866824 147.276169 
L -889.055418 146.154529 
L -881.779099 138.86387 
L -880.739625 138.48999 
L -880.046642 138.86387 
L -879.700151 140.17245 
L -879.35366 141.66797 
L -879.007168 142.60267 
L -877.274711 142.78961 
L -875.195763 141.10715 
L -873.463306 138.86387 
L -872.423832 136.807531 
L -872.423832 134.938131 
L -872.07734 132.507911 
L -871.730849 130.264631 
L -870.344883 129.329932 
L -869.305409 128.395232 
L -869.998392 126.338892 
L -872.07734 123.160912 
L -872.770323 121.478453 
L -873.116815 119.235173 
L -872.770323 117.178833 
L -871.037866 116.431073 
L -869.998392 116.804953 
L -868.958918 117.552713 
L -868.265935 117.926593 
L -867.226461 117.178833 
L -866.87997 115.870253 
L -867.572952 114.374733 
L -868.265935 113.253094 
L -868.612426 112.505334 
L -868.265935 111.570634 
L -867.572952 111.196754 
L -865.494004 111.196754 
L -864.108038 110.822874 
L -864.108038 109.888174 
L -865.840495 107.831834 
L -866.186987 107.084074 
L -865.840495 106.523255 
L -865.494004 105.962435 
L -865.147513 106.149375 
L -864.45453 106.523255 
L -863.068564 106.523255 
L -862.375581 106.897134 
L -862.02909 106.897134 
L -861.336107 105.775495 
L -860.643125 96.989316 
L -860.296633 96.802376 
L -858.564176 94.746036 
L -858.217685 94.372156 
L -857.178211 94.559096 
L -856.485228 95.680736 
L -855.445754 95.867676 
L -854.406279 95.493796 
L -853.020314 93.998276 
L -851.634348 93.624396 
L -849.208909 94.372156 
L -846.090486 91.941936 
L -845.051012 91.381116 
L -842.972064 90.820297 
L -841.932589 90.820297 
L -840.893115 91.381116 
L -839.50715 93.063576 
L -838.467676 95.306856 
L -837.08171 97.176256 
L -835.349253 98.110956 
L -832.923813 98.858716 
L -832.230831 100.915055 
L -832.230831 103.345275 
L -832.230831 105.775495 
L -831.884339 111.009814 
L -829.805391 113.626974 
L -826.686968 114.187794 
L -820.796615 112.692274 
L -818.024684 112.505334 
L -816.985209 113.066154 
L -816.638718 114.374733 
L -816.638718 115.683313 
L -816.292227 116.804953 
L -815.252752 118.113533 
L -814.906261 119.235173 
L -814.906261 120.356813 
L -814.55977 121.852333 
L -813.866787 122.973972 
L -812.480821 125.030312 
L -811.787839 126.151952 
L -811.787839 128.582172 
L -811.787839 131.573211 
L -812.827313 134.190371 
L -814.213278 135.312011 
L -815.945735 135.872831 
L -817.678192 136.994471 
L -818.717666 138.30305 
L -819.064158 139.98551 
L -818.371175 142.04185 
L -815.599244 145.406769 
L -815.252752 148.023929 
L -814.55977 149.893329 
L -811.094856 151.201909 
L -810.055382 153.632128 
L -810.401873 157.931748 
L -811.787839 162.605247 
L -811.441347 165.783227 
L -807.976433 166.530987 
L -803.818537 165.409347 
L -799.66064 164.848527 
L -797.581692 164.474647 
L -795.849235 163.539947 
L -794.116778 163.166067 
L -792.730812 164.287707 
L -792.384321 166.530987 
L -792.384321 169.335086 
L -792.037829 171.578366 
L -789.958881 172.513066 
L -786.840458 173.447766 
L -785.454493 173.260826 
L -784.415019 172.886946 
L -782.682562 171.578366 
L -781.643088 171.017546 
L -778.524665 170.830606 
L -762.586061 174.382466 
L -759.121147 175.877986 
L -755.656233 177.934325 
L -749.76588 182.981705 
L -746.300966 184.851104 
L -737.985173 187.655204 
L -736.252716 187.842144 
L -732.787802 186.533564 
L -724.472008 185.224984 
L -722.39306 185.411924 
L -718.235163 186.907444 
L -715.809724 187.468264 
L -714.077267 186.533564 
L -713.384284 186.159684 
L -712.34481 185.785804 
L -710.265861 185.411924 
L -709.91937 185.224984 
L -708.879896 184.664164 
L -708.533404 184.664164 
L -707.840422 184.851104 
L -706.800947 185.972744 
L -706.454456 186.159684 
L -704.375508 185.598864 
L -700.910594 183.542525 
L -682.200059 180.925365 
L -662.103558 183.916404 
L -660.717593 185.411924 
L -658.292153 189.337664 
L -657.252679 190.459304 
L -656.559696 190.646244 
L -653.094782 191.207064 
L -652.055308 191.394004 
L -651.708816 191.954823 
L -649.976359 194.011163 
L -646.164954 193.824223 
L -642.353549 192.515643 
L -636.809687 189.524604 
L -636.116704 188.776844 
L -635.07723 187.094384 
L -634.384247 186.720504 
L -631.265824 186.346624 
L -630.22635 185.598864 
L -630.22635 184.290284 
L -633.691264 178.121265 
L -634.384247 175.691046 
L -634.037756 173.260826 
L -632.305299 170.082846 
L -631.265824 168.587326 
L -629.879859 167.652627 
L -628.493893 167.465687 
L -626.414945 169.335086 
L -625.375471 169.522026 
L -623.989505 168.961206 
L -616.020203 166.904867 
L -613.941255 165.970167 
L -612.555289 164.661587 
L -611.515815 162.979127 
L -608.743884 154.192948 
L -608.050901 153.071308 
L -607.011427 152.697429 
L -606.664936 152.323549 
L -605.625462 150.267209 
L -605.27897 149.519449 
L -604.239496 148.397809 
L -603.893005 147.463109 
L -603.200022 146.715349 
L -602.160548 145.967589 
L -601.121074 145.780649 
L -591.765806 145.03289 
L -590.033349 144.09819 
L -587.954401 142.60267 
L -585.875452 141.85491 
L -581.371064 141.48103 
L -578.252642 140.73327 
L -574.094745 136.620591 
L -571.669305 135.312011 
L -570.629831 135.125071 
L -567.511409 135.498951 
L -566.471935 135.498951 
L -563.353512 134.564251 
L -563.353512 131.386271 
L -563.353512 127.086652 
L -563.353512 120.730693 
L -563.353512 114.561673 
L -563.353512 108.392654 
L -563.353512 102.223635 
L -563.353512 96.054616 
L -563.353512 89.698657 
L -563.353512 83.529637 
L -563.353512 77.360618 
L -563.353512 71.191599 
L -563.353512 65.02258 
L -563.353512 58.666621 
L -563.353512 52.497602 
L -563.353512 46.328582 
L -563.353512 40.159563 
L -563.353512 33.803604 
L -563.353512 27.634585 
L -563.353512 21.465566 
L -563.353512 15.296546 
L -563.353512 9.127527 
L -563.353512 2.771568 
L -563.353512 -3.397451 
L -563.353512 -9.56647 
L -563.353512 -15.73549 
L -563.353512 -21.904509 
L -563.353512 -28.260468 
L -563.353512 -34.429487 
L -563.353512 -40.598506 
L -563.353512 -46.767526 
L -563.353512 -52.936545 
L -563.353512 -59.292504 
L -563.353512 -65.461523 
L -563.353512 -71.630542 
L -563.353512 -77.799562 
L -563.353512 -83.968581 
L -563.353512 -90.32454 
L -563.353512 -96.493559 
L -563.353512 -102.662578 
L -563.353512 -108.831598 
L -563.353512 -115.000617 
L -563.353512 -121.356576 
L -563.353512 -127.525595 
L -563.353512 -133.694614 
L -563.353512 -139.863634 
L -563.353512 -146.032653 
L -563.353512 -152.388612 
L -563.353512 -158.557631 
L -563.353512 -164.72665 
L -563.353512 -170.89567 
L -563.353512 -175.756109 
L -563.353512 -177.064689 
L -563.353512 -183.420648 
L -563.353512 -189.589667 
L -563.353512 -195.758686 
L -563.353512 -201.927705 
L -563.353512 -208.096725 
L -563.353512 -214.452684 
L -563.353512 -220.621703 
L -563.353512 -226.790722 
L -563.353512 -232.959741 
L -563.353512 -239.128761 
L -563.353512 -245.48472 
L -563.353512 -251.653739 
L -563.353512 -257.822758 
L -563.353512 -263.991777 
L -563.353512 -270.160797 
L -563.353512 -271.656316 
L -563.007021 -269.786917 
L -562.314038 -269.039157 
L -560.581581 -267.730577 
L -558.849124 -264.739537 
L -553.651753 -260.626858 
L -551.226313 -257.448878 
L -550.186839 -256.701118 
L -549.147365 -256.514178 
L -547.414908 -256.327238 
L -546.375434 -255.953358 
L -539.099115 -251.279859 
L -526.625425 -240.62428 
L -525.585951 -239.128761 
L -522.467528 -232.211982 
L -519.695597 -227.912362 
L -518.656123 -225.669082 
L -519.002614 -223.986623 
L -519.695597 -222.117223 
L -519.002614 -220.621703 
L -517.270157 -219.500063 
L -515.191209 -218.752303 
L -515.191209 -215.761264 
L -514.844717 -215.013504 
L -514.151735 -214.452684 
L -512.419278 -213.517984 
L -512.072786 -212.770224 
L -511.726295 -211.835524 
L -512.072786 -211.087764 
L -512.419278 -210.526944 
L -512.419278 -209.592245 
L -512.072786 -208.844485 
L -511.033312 -207.535905 
L -510.686821 -206.601205 
L -509.993838 -203.049345 
L -509.300855 -201.927705 
L -507.91489 -200.806066 
L -505.142959 -199.497486 
L -504.449976 -198.562786 
L -504.103484 -196.319506 
L -502.717519 -196.506446 
L -502.717519 -195.571746 
L -503.410502 -194.263166 
L -503.06401 -193.141527 
L -502.371027 -192.580707 
L -501.331553 -192.954587 
L -500.63857 -193.515407 
L -499.599096 -193.515407 
L -498.559622 -192.393767 
L -501.331553 -190.524367 
L -502.024536 -188.841907 
L -502.024536 -185.663928 
L -497.866639 -181.738188 
L -496.827165 -178.747149 
L -497.520148 -177.625509 
L -499.599096 -176.316929 
L -500.292079 -175.569169 
L -499.945588 -174.447529 
L -498.906114 -173.886709 
L -497.866639 -173.886709 
L -497.173657 -173.138949 
L -496.827165 -171.830369 
L -497.866639 -169.58709 
L -497.866639 -168.27851 
L -497.173657 -167.15687 
L -494.748217 -166.03523 
L -493.708743 -165.10053 
L -492.669268 -163.044191 
L -490.59032 -155.753531 
L -491.629794 -153.697192 
L -491.629794 -152.575552 
L -490.243829 -153.136372 
L -489.550846 -153.697192 
L -488.857863 -153.510252 
L -487.818389 -152.201672 
L -487.818389 -151.827792 
L -485.046458 -145.284893 
L -484.353475 -135.750954 
L -484.699967 -127.712535 
L -484.353475 -125.656195 
L -480.54207 -118.926356 
L -480.888561 -117.243896 
L -485.046458 -111.261817 
L -486.778915 -106.962198 
L -489.204355 -103.036458 
L -494.748217 -95.745799 
L -497.520148 -90.1376 
L -498.906114 -88.45514 
L -501.678045 -86.211861 
L -502.024536 -84.903281 
L -503.410502 -78.921201 
L -503.756993 -75.743222 
L -503.410502 -72.939122 
L -502.717519 -71.443602 
L -501.331553 -69.200323 
L -500.63857 -67.704803 
L -500.985062 -65.087643 
L -503.06401 -57.610044 
L -503.06401 -54.245125 
L -502.371027 -50.132445 
L -501.331553 -46.206706 
L -500.292079 -43.028726 
L -499.599096 -42.280966 
L -498.906114 -41.720146 
L -497.520148 -40.598506 
L -496.480674 -39.476867 
L -495.787691 -35.925007 
L -495.094708 -34.803367 
L -494.748217 -35.177247 
L -492.669268 -36.672767 
L -486.432423 -39.663807 
L -482.274527 -42.841786 
L -479.502596 -44.150366 
L -474.305225 -44.898126 
L -470.147328 -43.215666 
L -466.335923 -40.598506 
L -453.515741 -37.794407 
L -450.74381 -37.794407 
L -442.081526 -40.224626 
L -440.69556 -40.411566 
L -438.27012 -40.037686 
L -436.884155 -40.037686 
L -428.568361 -42.280966 
L -424.410465 -42.467906 
L -421.985025 -42.094026 
L -417.480637 -39.850747 
L -409.164844 -39.663807 
L -403.620981 -37.981347 
L -401.542033 -37.981347 
L -399.116593 -38.916047 
L -393.919222 -42.654846 
L -391.840274 -44.524246 
L -390.8008 -46.393646 
L -390.454308 -48.449985 
L -390.8008 -50.506325 
L -391.493783 -55.553704 
L -391.493783 -57.236164 
L -390.107817 -58.357804 
L -387.682377 -59.479444 
L -384.563955 -60.040264 
L -375.208687 -60.040264 
L -369.318334 -61.535784 
L -363.42798 -65.087643 
L -358.577101 -70.135023 
L -355.112187 -76.117102 
L -351.993764 -84.903281 
L -350.261307 -88.82902 
L -346.103411 -92.9417 
L -345.063936 -95.184979 
L -344.370954 -95.745799 
L -339.866566 -96.680499 
L -338.4806 -97.054379 
L -336.05516 -98.362959 
L -331.204281 -103.410338 
L -327.739367 -108.457718 
L -325.660419 -110.327117 
L -322.541996 -110.887937 
L -318.384099 -109.953237 
L -316.651642 -110.514057 
L -314.919185 -113.505097 
L -313.186729 -117.243896 
L -312.147254 -118.739416 
L -310.414797 -120.234936 
L -309.375323 -121.169636 
L -309.028832 -121.356576 
L -305.217427 -127.899475 
L -304.870935 -129.021115 
L -305.563918 -130.142755 
L -305.563918 -131.264395 
L -304.524444 -132.012155 
L -301.752513 -133.133794 
L -300.713039 -133.881554 
L -300.020056 -135.190134 
L -299.327073 -137.059534 
L -298.980582 -139.676694 
L -299.327073 -142.293853 
L -299.673564 -143.602433 
L -301.05953 -145.658773 
L -300.020056 -147.528173 
L -297.941107 -149.210632 
L -296.555142 -150.893092 
L -295.515668 -152.762492 
L -295.515668 -153.323312 
L -296.20865 -155.005772 
L -296.901633 -156.127411 
L -297.594616 -156.314351 
L -297.941107 -156.688231 
L -297.941107 -158.183751 
L -297.248125 -160.613971 
L -295.862159 -162.857251 
L -291.704262 -168.09157 
L -291.01128 -169.21321 
L -291.01128 -170.33485 
L -290.664788 -172.017309 
L -291.01128 -173.138949 
L -291.357771 -174.073649 
L -291.01128 -175.008349 
L -289.625314 -176.129989 
L -288.932331 -177.064689 
L -289.278823 -178.373269 
L -290.318297 -179.494908 
L -291.01128 -180.616548 
L -290.664788 -181.551248 
L -290.664788 -182.485948 
L -289.625314 -184.168408 
L -287.892857 -190.898247 
L -287.199874 -192.019887 
L -284.774435 -193.141527 
L -283.73496 -194.450106 
L -282.002503 -198.749726 
L -281.309521 -200.058306 
L -280.616538 -200.993006 
L -279.577064 -201.740766 
L -278.191098 -202.301585 
L -277.151624 -203.049345 
L -276.805133 -203.984045 
L -276.458641 -204.918745 
L -276.11215 -205.853445 
L -272.300745 -209.779184 
L -269.875305 -211.087764 
L -267.796356 -210.713884 
L -267.103374 -209.779184 
L -266.410391 -208.657545 
L -266.0639 -208.096725 
L -264.677934 -208.844485 
L -263.984951 -209.592245 
L -256.708632 -213.144104 
L -252.204244 -214.639624 
L -247.353364 -215.013504 
L -242.155994 -213.891864 
L -237.651606 -212.209404 
L -236.26564 -211.835524 
L -234.533183 -212.022464 
L -231.414761 -213.144104 
L -230.028795 -213.517984 
L -228.642829 -212.957164 
L -227.949847 -212.022464 
L -226.21739 -209.779184 
L -225.177916 -208.283665 
L -224.138441 -207.535905 
L -221.36651 -206.227325 
L -218.941071 -204.731805 
L -208.546329 -196.319506 
L -207.853346 -195.197866 
L -206.813872 -193.889287 
L -201.27001 -192.206827 
L -200.577027 -191.272127 
L -199.537553 -189.028847 
L -198.84457 -188.094147 
L -197.805096 -187.533327 
L -196.072639 -186.785567 
L -195.033165 -186.224748 
L -191.568251 -181.177368 
L -187.063863 -177.999389 
L -185.677897 -175.756109 
L -183.94544 -174.634469 
L -178.748069 -175.943049 
L -177.708595 -175.569169 
L -176.669121 -175.008349 
L -175.629647 -174.073649 
L -175.629647 -173.325889 
L -176.32263 -172.204249 
L -175.976138 -171.830369 
L -173.89719 -172.017309 
L -164.195431 -174.821409 
L -158.99806 -175.008349 
L -154.840163 -172.391189 
L -147.910336 -164.16583 
L -144.09893 -160.987851 
L -139.248051 -160.240091 
L -136.47612 -160.800911 
L -134.743663 -161.735611 
L -132.664714 -161.922551 
L -128.506818 -160.240091 
L -121.230499 -157.435991 
L -116.033128 -153.884132 
L -112.568214 -153.136372 
L -105.638386 -153.884132 
L -102.519964 -153.136372 
L -99.748032 -152.388612 
L -96.976101 -152.762492 
L -91.085748 -154.444952 
L -89.353291 -155.192712 
L -83.462937 -159.866211 
L -78.958549 -161.922551 
L -75.493635 -162.483371 
L -71.68223 -161.922551 
L -67.177842 -160.427031 
L -63.366436 -159.679271 
L -43.269936 -161.922551 
L -36.340108 -165.47441 
L -23.866418 -175.569169 
L -21.78747 -182.299008 
L -17.629573 -192.954587 
L -16.590099 -195.571746 
L -13.471676 -209.966124 
L -5.155883 -229.594822 
L -3.076935 -237.072421 
L 0.041488 -242.49368 
L 0.041488 -246.60636 
L 2.813419 -253.336199 
L 3.852893 -256.888058 
L 4.199385 -261.374618 
L 3.15991 -269.413037 
L 3.15991 -272.030196 
L 3.852893 -272.591016 
L 4.545876 -272.777956 
L 7.664298 -273.899596 
L 12.515178 -273.712656 
L 13.901143 -274.460416 
L 17.019566 -276.890636 
L 31.918696 -281.751075 
L 42.659929 -285.302935 
L 47.164317 -286.050695 
L 48.896774 -285.863755 
L 50.975722 -285.489875 
L 52.708179 -285.302935 
L 54.787127 -284.929055 
L 61.023973 -291.658894 
L 61.716955 -292.967474 
L 64.488886 -300.818953 
L 66.914326 -304.183872 
L 69.686257 -306.427152 
L 75.923102 -310.726771 
L 81.813456 -317.082731 
L 82.506439 -318.76519 
L 84.585387 -319.88683 
L 93.247672 -322.87787 
L 94.980129 -323.99951 
L 96.712586 -325.495029 
L 97.75206 -327.551369 
L 99.484517 -337.272248 
L 99.831008 -342.132687 
L 106.414345 -371.482264 
L 106.760836 -374.473303 
L 106.067853 -376.716583 
L 108.839784 -382.137842 
L 108.839784 -382.885602 
L 108.493293 -384.007242 
L 108.839784 -386.063582 
L 110.918733 -389.615441 
L 112.65119 -394.102001 
L 113.344172 -395.0367 
L 114.383647 -394.475881 
L 115.076629 -393.167301 
L 115.769612 -392.045661 
L 117.502069 -391.858721 
L 118.888035 -392.980361 
L 118.888035 -394.662821 
L 118.195052 -396.53222 
L 118.195052 -398.7755 
L 118.541543 -398.40162 
L 119.234526 -398.02774 
L 119.581017 -398.96244 
L 120.274 -399.7102 
L 122.006457 -401.01878 
L 121.313474 -401.01878 
L 122.006457 -402.32736 
L 123.045931 -403.262059 
L 124.085405 -403.262059 
L 125.12488 -402.514299 
L 125.817862 -403.822879 
L 125.12488 -404.570639 
L 124.431897 -405.318399 
L 124.085405 -406.626979 
L 124.431897 -407.561679 
L 125.471371 -407.748619 
L 126.510845 -407.187799 
L 127.203828 -406.253099 
L 127.550319 -407.000859 
L 128.243302 -407.935559 
L 128.589794 -408.496379 
L 129.282776 -407.748619 
L 129.975759 -407.187799 
L 131.015233 -407.374739 
L 132.054707 -407.748619 
L 130.668742 -409.804959 
L 131.708216 -411.113538 
L 135.17313 -412.422118 
L 138.984535 -414.291518 
L 140.716992 -415.600098 
L 142.102958 -417.282558 
L 144.528397 -421.021357 
L 145.914363 -422.329937 
L 146.953837 -418.965017 
L 147.993311 -419.525837 
L 148.686294 -420.834417 
L 149.032786 -421.395237 
L 150.07226 -421.956057 
L 151.458225 -422.516877 
L 152.497699 -422.329937 
L 151.804717 -420.647477 
L 153.190682 -419.899717 
L 153.883665 -420.647477 
L 154.923139 -421.956057 
L 155.616122 -423.077697 
L 157.002087 -423.451577 
L 160.813493 -423.638517 
L 162.892441 -424.386277 
L 164.971389 -425.694856 
L 166.357355 -427.751196 
L 167.050338 -430.181416 
L 166.703846 -430.929176 
L 166.357355 -431.863876 
L 166.357355 -432.611636 
L 166.703846 -432.798576 
L 167.050338 -432.985516 
L 167.396829 -433.546335 
L 167.396829 -434.107155 
L 167.396829 -434.667975 
L 168.089812 -436.350435 
L 169.822269 -438.593715 
L 170.515252 -441.584754 
L 171.554726 -441.584754 
L 172.940691 -440.836995 
L 174.326657 -440.463115 
L 175.366131 -440.836995 
L 179.177536 -444.201914 
L 181.949468 -441.023934 
L 183.335433 -440.463115 
L 184.721399 -441.210874 
L 185.06789 -442.332514 
L 186.453856 -446.445194 
L 186.800347 -446.632134 
L 187.49333 -447.192954 
L 187.49333 -447.379894 
L 188.186313 -447.566834 
L 187.839821 -447.940714 
L 187.49333 -448.501534 
L 187.146838 -448.688474 
L 187.146838 -449.249293 
L 186.800347 -449.997053 
L 186.453856 -450.931753 
L 186.453856 -451.866453 
L 187.49333 -451.679513 
L 189.572278 -451.492573 
L 191.304735 -452.053393 
L 190.611752 -454.109733 
L 194.423158 -455.044433 
L 198.234563 -456.913832 
L 201.699477 -459.344052 
L 203.085442 -462.522032 
L 202.39246 -467.195531 
L 202.39246 -469.625751 
L 203.431934 -470.747391 
L 205.164391 -471.121271 
L 207.243339 -471.869031 
L 209.322287 -472.80373 
L 210.361762 -473.73843 
L 212.094218 -475.42089 
L 213.133693 -477.66417 
L 213.480184 -480.094389 
L 212.787201 -482.524609 
L 212.787201 -483.646249 
L 214.519658 -484.580949 
L 216.945098 -485.328709 
L 218.331063 -485.889529 
L 218.677555 -486.637289 
L 219.370538 -488.319748 
L 219.717029 -488.880568 
L 220.410012 -489.441388 
L 221.449486 -489.628328 
L 222.48896 -490.002208 
L 223.181943 -490.936908 
L 223.874926 -492.245488 
L 223.874926 -493.180188 
L 223.874926 -494.114888 
L 223.528434 -495.423467 
L 223.874926 -496.918987 
L 224.221417 -497.853687 
L 227.33984 -501.966367 
L 228.032822 -502.714127 
L 229.072297 -502.901066 
L 231.497736 -503.274946 
L 232.53721 -503.835766 
L 236.002124 -508.135386 
L 237.38809 -509.443966 
L 240.853004 -511.687245 
L 244.664409 -512.621945 
L 252.633711 -513.369705 
L 258.524065 -511.687245 
L 260.256522 -512.061125 
L 262.33547 -514.117465 
L 264.067927 -514.304405 
L 265.800384 -514.117465 
L 268.225824 -514.117465 
L 271.690738 -515.239105 
L 278.620565 -519.538724 
L 282.778462 -520.847304 
L 285.203902 -521.221184 
L 286.936359 -521.782004 
L 288.322324 -522.903644 
L 289.015307 -525.146924 
L 289.70829 -526.455503 
L 292.13373 -526.642443 
L 296.291626 -526.081623 
L 298.024083 -527.577143 
L 300.103032 -532.063703 
L 301.142506 -532.998403 
L 301.488997 -534.306982 
L 300.796014 -541.971521 
L 302.874963 -545.149501 
L 304.953911 -547.205841 
L 306.339877 -548.140541 
L 306.339877 -548.701361 
L 308.418825 -551.50546 
L 309.111808 -551.87934 
L 320.892515 -552.6271 
L 322.624972 -553.37486 
L 324.010937 -554.87038 
L 326.089886 -556.17896 
L 328.515325 -556.55284 
L 333.712696 -555.24426 
L 336.484627 -555.05732 
L 338.217084 -555.61814 
L 338.910067 -555.24426 
L 339.60305 -555.05732 
L 340.989016 -555.05732 
L 343.067964 -556.17896 
L 346.532878 -558.235299 
L 348.611826 -558.796119 
L 353.462706 -557.487539 
L 355.888145 -557.300599 
L 356.927619 -558.422239 
L 357.620602 -560.104699 
L 359.353059 -560.665519 
L 362.817973 -560.291639 
L 366.282887 -561.974099 
L 368.361835 -562.347979 
L 370.094292 -561.039399 
L 371.133766 -561.600219 
L 377.717103 -561.787159 
L 379.44956 -561.226339 
L 385.339913 -557.300599 
L 388.458336 -556.55284 
L 390.883776 -555.24426 
L 394.34869 -554.87038 
L 395.734655 -554.4965 
L 398.506586 -552.6271 
L 399.199569 -552.25322 
L 401.278517 -551.6924 
L 402.317992 -551.31852 
L 404.050448 -549.07524 
L 404.39694 -548.701361 
L 404.39694 -548.327481 
L 407.515362 -547.953601 
L 408.901328 -547.205841 
L 411.673259 -545.149501 
L 413.752207 -543.840921 
L 415.484664 -543.653981 
L 419.642561 -544.401741 
L 422.068001 -544.214801 
L 424.146949 -543.653981 
L 425.532915 -542.532341 
L 426.91888 -541.410701 
L 429.690811 -538.980482 
L 433.155725 -538.232722 
L 436.620639 -538.419662 
L 440.432044 -538.980482 
L 442.510993 -539.728242 
L 445.975907 -541.410701 
L 447.708364 -541.971521 
L 449.787312 -542.158461 
L 456.024157 -541.223762 
L 458.796088 -541.410701 
L 459.489071 -541.036822 
L 461.221528 -539.915182 
L 461.568019 -539.728242 
L 463.300476 -540.289062 
L 465.725916 -542.158461 
L 467.804864 -542.906221 
L 478.199606 -543.840921 
L 481.318028 -545.149501 
L 484.436451 -544.214801 
L 489.980313 -543.653981 
L 500.721546 -541.036822 
L 503.839969 -539.354362 
L 505.572426 -538.980482 
L 506.265408 -539.354362 
L 507.304883 -539.541302 
L 510.423305 -541.036822 
L 511.809271 -541.410701 
L 512.848745 -540.662942 
L 514.927693 -538.045782 
L 515.274185 -537.484962 
L 515.967167 -537.298022 
L 517.699624 -536.363322 
L 518.392607 -535.989442 
L 519.08559 -535.989442 
L 520.818047 -536.737202 
L 521.857521 -536.737202 
L 522.550504 -535.802502 
L 524.975944 -532.437583 
L 523.936469 -530.381243 
L 528.094366 -516.173805 
L 533.291737 -499.723087 
L 538.142616 -483.272369 
L 541.954022 -470.186571 
L 548.883849 -448.314594 
L 549.230341 -444.949674 
L 547.151392 -419.712777 
L 547.844375 -415.039278 
L 549.576832 -411.113538 
L 558.9321 -400.6449 
L 560.664557 -396.53222 
L 564.475962 -382.698662 
L 568.287367 -372.977783 
L 569.673333 -370.734504 
L 571.752281 -368.865104 
L 577.642635 -364.004664 
L 579.0286 -362.696085 
L 579.375092 -360.826685 
L 579.375092 -358.957285 
L 580.068075 -341.571867 
L 580.761057 -336.898368 
L 586.30492 -324.37339 
L 589.769833 -316.521911 
L 592.195273 -308.109612 
L 592.541765 -299.510373 
L 591.848782 -291.845834 
L 591.848782 -276.516756 
L 591.848782 -257.822758 
L 591.848782 -244.55002 
L 592.195273 -226.977662 
L 592.195273 -203.049345 
L 590.462816 -197.628086 
L 590.116325 -194.823986 
L 590.116325 -191.085187 
L 590.462816 -187.720267 
L 591.50229 -185.476988 
L 592.195273 -183.046768 
L 592.888256 -176.129989 
L 592.888256 -173.699769 
L 592.541765 -172.204249 
L 591.848782 -171.643429 
L 590.809308 -170.89567 
L 589.769833 -169.77403 
L 589.076851 -168.46545 
L 584.918954 -157.249051 
L 584.225971 -154.258012 
L 584.572463 -150.893092 
L 588.383868 -138.181174 
L 582.840006 -135.377074 
L 580.068075 -134.629314 
L 577.296143 -135.564014 
L 568.98035 -141.172213 
L 567.247893 -142.293853 
L 558.585608 -148.275932 
L 548.537358 -155.005772 
L 538.142616 -161.922551 
L 535.717177 -162.670311 
L 532.945245 -162.670311 
L 529.480332 -161.735611 
L 526.7084 -160.427031 
L 517.006642 -151.453912 
L 508.690848 -143.415493 
L 507.304883 -141.172213 
L 505.918917 -135.377074 
L 500.721546 -122.478216 
L 494.13821 -110.327117 
L 487.208382 -101.167059 
L 478.199606 -89.57678 
L 476.120658 -81.164481 
L 476.467149 -69.387263 
L 476.467149 -54.245125 
L 477.506623 -46.580586 
L 478.199606 -43.963426 
L 479.585571 -44.150366 
L 481.318028 -44.337306 
L 483.050485 -45.272006 
L 484.436451 -46.580586 
L 485.475925 -48.076105 
L 486.168908 -46.580586 
L 487.554873 -41.533206 
L 488.940839 -39.476867 
L 491.71277 -36.485827 
L 492.752244 -34.803367 
L 493.445227 -32.560087 
L 493.098736 -29.942928 
L 492.059261 -25.456368 
L 492.752244 -22.839209 
L 494.831193 -18.913469 
L 504.532952 -9.75341 
L 509.383831 -2.649691 
L 510.769797 -1.154172 
L 512.155762 -0.032532 
L 520.471555 2.958508 
L 523.936469 4.080148 
L 531.55928 6.697307 
L 541.261039 10.249167 
L 547.844375 11.557747 
L 558.239117 11.744687 
L 572.445264 11.931627 
L 581.800531 12.118567 
L 590.116325 12.118567 
L 590.116325 10.809987 
L 590.116325 9.501407 
L 589.423342 8.379767 
L 588.730359 7.071187 
L 588.383868 5.388728 
L 588.037376 -2.649691 
L 588.037376 -4.892971 
L 587.690885 -11.62281 
L 589.423342 -21.904509 
L 590.809308 -30.877628 
L 592.541765 -40.785446 
L 592.541765 -43.963426 
L 598.77861 -43.963426 
L 600.511067 -43.776486 
L 602.590015 -41.159326 
L 604.322472 -40.598506 
L 607.094403 -39.850747 
L 611.945282 -40.411566 
L 614.717213 -40.411566 
L 621.647041 -39.289927 
L 627.190904 -38.355227 
L 638.625119 -38.542167 
L 650.752318 -38.916047 
L 664.265482 -39.476867 
L 679.164612 -39.850747 
L 678.125138 -35.364187 
L 676.739172 -20.969809 
L 675.006715 -13.86609 
L 674.660224 -11.43587 
L 673.967241 -9.19259 
L 670.848819 -4.145211 
L 670.502327 -3.210511 
L 670.155836 -0.032532 
L 669.809344 0.902168 
L 668.76987 2.584628 
L 668.423379 5.575668 
L 658.375129 34.738304 
L 651.791792 67.26586 
L 651.791792 69.696079 
L 651.445301 70.817719 
L 650.405827 73.434879 
L 650.405827 74.743459 
L 650.405827 76.052038 
L 650.752318 78.108378 
L 650.752318 79.230018 
L 646.24793 106.897134 
L 645.554947 108.953474 
L 637.585645 121.852333 
L 636.892662 123.534792 
L 636.546171 126.151952 
L 635.506697 128.395232 
L 634.120731 130.264631 
L 631.695292 130.825451 
L 632.041783 131.947091 
L 632.388274 132.134031 
L 633.081257 131.947091 
L 633.77424 131.573211 
L 634.467223 135.498951 
L 633.427749 139.61163 
L 632.041783 143.53737 
L 631.002309 147.089229 
L 629.962835 149.145569 
L 621.647041 157.744808 
L 620.261076 158.679508 
L 617.142653 160.361968 
L 616.103179 161.109727 
L 615.063705 162.418307 
L 613.331248 165.596287 
L 611.945282 167.278747 
L 601.550541 176.438805 
L 598.77861 174.195526 
L 594.967204 174.756346 
L 592.888256 177.186565 
L 594.967204 180.177605 
L 595.660187 179.242905 
L 597.046153 178.121265 
L 598.432118 177.186565 
L 600.164575 176.999625 
L 598.085627 180.738425 
L 594.620713 183.729464 
L 582.493514 190.272364 
L 579.0286 191.020124 
L 575.563686 190.833184 
L 571.059298 190.085424 
L 571.40579 191.020124 
L 571.40579 191.580943 
L 571.752281 191.954823 
L 572.445264 192.328703 
L 572.445264 193.076463 
L 569.326841 194.945863 
L 550.616306 216.44396 
L 546.111918 220.55664 
L 544.725953 221.3044 
L 544.03297 221.86522 
L 544.03297 222.426039 
L 543.339987 224.482379 
L 542.993496 224.856259 
L 541.954022 225.790959 
L 538.142616 231.025278 
L 536.756651 232.146918 
L 533.638228 234.203258 
L 532.252263 235.511838 
L 531.905771 236.446538 
L 531.212789 238.876757 
L 530.173314 239.624517 
L 529.13384 240.185337 
L 528.440857 241.120037 
L 527.747875 243.176377 
L 514.927693 260.561795 
L 502.454003 285.985631 
L 501.414529 290.472191 
L 502.454003 294.77181 
L 498.642598 294.77181 
L 497.603124 295.51957 
L 497.256632 298.51061 
L 498.642598 297.76285 
L 502.107512 296.64121 
L 503.146986 295.33263 
L 503.146986 296.26733 
L 503.146986 297.01509 
L 502.800495 297.76285 
L 501.76102 299.25837 
L 499.335581 302.249409 
L 489.28733 311.409468 
L 486.515399 314.774388 
L 482.011011 322.999746 
L 476.467149 335.524725 
L 462.607493 360.200802 
L 460.528545 364.687361 
L 460.182054 366.369821 
L 459.489071 367.865341 
L 454.984683 372.91272 
L 438.699587 403.010056 
L 435.927656 406.935796 
L 434.195199 408.618255 
L 432.809234 409.179075 
L 431.76976 410.300715 
L 428.651337 416.843614 
L 419.642561 428.620833 
L 412.712733 437.967832 
L 409.940802 439.837231 
L 406.82238 446.38013 
L 401.9715 452.36221 
L 387.765353 465.634948 
L 386.032896 466.382708 
L 380.142543 468.065168 
L 378.063594 469.186807 
L 375.984646 470.682327 
L 375.291663 472.551727 
L 369.401309 479.842386 
L 367.322361 480.590146 
L 366.282887 481.337906 
L 365.589904 483.394246 
L 364.896921 484.328946 
L 364.203939 484.889765 
L 363.857447 485.076705 
L 361.432008 485.637525 
L 359.699551 487.133045 
L 356.927619 490.497965 
L 355.195162 491.245725 
L 351.383757 492.741244 
L 348.958317 494.423704 
L 348.265335 494.610644 
L 347.225861 494.797584 
L 346.186386 494.984524 
L 345.839895 494.984524 
L 344.800421 494.984524 
L 344.107438 494.984524 
L 343.760947 495.732284 
L 343.760947 496.293104 
L 344.107438 496.853924 
L 344.107438 497.227804 
L 342.374981 501.527423 
L 339.60305 503.022943 
L 338.910067 503.770703 
L 338.563576 506.387863 
L 337.524102 507.883382 
L 334.405679 510.126662 
L 331.287257 513.491582 
L 329.901291 515.547921 
L 329.208308 517.417321 
L 328.861817 518.538961 
L 327.12936 521.530001 
L 326.089886 522.090821 
L 325.743394 522.277761 
L 325.743394 522.838581 
L 325.396903 524.14716 
L 325.050412 524.52104 
L 318.813567 527.32514 
L 317.774092 528.82066 
L 317.427601 530.50312 
L 316.388127 532.559459 
L 313.962687 536.672139 
L 302.18198 549.197117 
L 292.13373 562.469855 
L 286.936359 565.647835 
L 286.243376 566.769475 
L 273.076703 578.359753 
L 270.997755 581.537733 
L 270.304772 582.285493 
L 268.572315 583.033253 
L 267.879332 583.594073 
L 264.067927 587.332872 
L 262.33547 589.576152 
L 261.642487 591.632492 
L 261.295996 592.941071 
L 250.554763 601.16643 
L 248.129323 602.47501 
L 245.010901 605.09217 
L 243.278444 605.83993 
L 242.931952 607.52239 
L 240.853004 609.204849 
L 236.002124 611.822009 
L 231.497736 614.999989 
L 228.725805 616.495508 
L 223.181943 617.991028 
L 220.756503 620.234308 
L 219.024046 623.412287 
L 218.331063 626.590267 
L 217.291589 629.020487 
L 215.212641 631.263766 
L 205.510882 639.302185 
L 202.39246 640.236885 
L 201.699477 641.171585 
L 200.313511 643.040985 
L 199.274037 643.788745 
L 198.927546 644.162625 
L 198.927546 644.723445 
L 198.927546 645.284265 
L 198.581054 645.845085 
L 193.730175 647.901424 
L 191.997718 649.957764 
L 190.958244 650.518584 
L 188.879295 650.705524 
L 184.374907 652.574924 
L 182.64245 653.509624 
L 173.980166 662.295802 
L 170.861743 664.912962 
L 163.931915 667.343182 
L 162.892441 668.277882 
L 162.54595 668.464822 
L 160.12051 671.642801 
L 159.427527 672.016681 
L 158.734544 672.390561 
L 158.041562 672.203621 
L 157.002087 671.642801 
L 156.309105 674.446901 
L 153.883665 676.877121 
L 148.686294 680.9898 
L 146.260854 682.29838 
L 145.914363 682.29838 
L 145.567872 682.11144 
L 145.22138 681.73756 
L 144.874889 681.9245 
L 144.181906 683.23308 
L 134.133656 689.962919 
L 133.094182 691.084559 
L 125.817862 694.449478 
L 124.431897 695.758058 
L 123.738914 696.505818 
L 123.392423 697.253578 
L 123.045931 698.001338 
L 122.69944 698.936038 
L 121.659966 699.683798 
L 120.966983 699.870738 
L 118.888035 700.244618 
L 110.572241 704.544237 
L 108.839784 705.105057 
L 106.414345 705.105057 
L 104.335396 705.852817 
L 98.791534 710.339376 
L 97.059077 710.900196 
L 92.208198 711.461016 
L 89.089775 713.330416 
L 79.734508 717.069215 
L 78.695033 717.256155 
L 78.002051 717.816975 
L 77.309068 719.873315 
L 76.616085 720.247195 
L 74.537137 720.621075 
L 65.528361 725.107634 
L 61.716955 726.042334 
L 57.559059 726.229274 
L 49.589757 725.107634 
L 46.817826 725.107634 
L 45.085369 726.042334 
L 43.352912 726.229274 
L 41.273963 725.294574 
L 37.462558 723.238235 
L 24.642377 720.808015 
L 11.475704 720.060255 
L 3.15991 721.368835 
L -4.809392 723.799054 
L -12.085711 727.163974 
L -15.204133 729.407254 
L -17.629573 732.585233 
L -19.36203 736.137093 
L -21.094487 742.306112 
L -21.094487 744.923272 
L -20.747996 746.231852 
L -19.015539 746.979611 
L -18.322556 747.914311 
L -17.976064 748.662071 
L -15.204133 750.718411 
L -13.471676 753.522511 
L -12.432202 754.457211 
L -12.778694 755.39191 
L -12.778694 755.57885 
L -13.125185 755.95273 
L -16.243607 755.01803 
L -18.322556 755.76579 
L -20.401504 756.88743 
L -22.826944 757.44825 
L -25.945366 757.26131 
L -30.796246 755.57885 
L -33.568177 755.20497 
L -38.419056 755.76579 
L -40.844496 755.76579 
L -43.616427 754.270271 
L -46.73485 753.709451 
L -50.199764 751.466171 
L -53.664678 749.970651 
L -61.980471 747.914311 
L -70.642756 747.727371 
L -79.30504 748.849011 
L -84.848903 750.531471 
L -87.274342 751.653111 
L -88.660308 753.335571 
L -87.274342 758.00907 
L -88.313817 760.06541 
L -90.046273 762.12175 
L -91.085748 762.869509 
L -95.590136 766.795249 
L -96.283118 768.477709 
L -95.936627 769.786289 
L -94.897153 770.534048 
L -94.20417 771.094868 
L -93.857679 771.842628 
L -94.20417 772.777328 
L -95.590136 774.085908 
L -96.283118 774.833668 
L -96.976101 774.833668 
L -98.362067 773.338148 
L -100.094524 772.590388 
L -106.67786 772.403448 
L -112.221722 771.094868 
L -114.300671 770.720988 
L -120.537516 771.842628 
L -122.269973 771.655688 
L -130.585766 769.599349 
L -134.743663 767.543009 
L -138.208577 764.551969 
L -139.941034 763.991149 
L -151.721741 762.495629 
L -153.454198 761.74787 
L -154.840163 760.81317 
L -161.077008 758.19601 
L -178.055087 756.70049 
L -180.134035 756.13967 
L -184.291932 754.83109 
L -194.686673 753.709451 
L -211.664751 749.970651 
L -216.169139 749.970651 
L -231.761252 753.522511 
L -233.8402 754.457211 
L -235.572657 755.57885 
L -237.305114 757.07437 
L -237.998097 759.50459 
L -237.305114 761.74787 
L -235.919149 763.243389 
L -233.493709 763.617269 
L -233.493709 764.365029 
L -266.756882 761.37399 
L -267.449865 760.62623 
L -267.796356 757.44825 
L -268.142848 756.70049 
L -270.914779 756.51355 
L -272.300745 755.95273 
L -272.993727 755.20497 
L -272.647236 756.88743 
L -271.954253 757.44825 
L -270.914779 757.82213 
L -270.221796 758.56989 
L -269.182322 760.25235 
L -269.182322 761.00011 
L -269.875305 761.74787 
L -270.221796 761.18705 
L -271.607762 760.62623 
L -274.379693 760.43929 
L -275.765658 760.81317 
L -276.458641 761.18705 
L -277.498115 761.37399 
L -278.884081 761.37399 
L -286.853383 758.94377 
L -289.625314 757.07437 
L -291.01128 756.70049 
L -292.050754 756.13967 
L -292.743737 754.457211 
L -293.090228 753.335571 
L -293.090228 752.587811 
L -292.397245 752.213931 
L -291.01128 752.213931 
L -292.397245 750.905351 
L -294.476193 750.344531 
L -298.980582 749.970651 
L -297.941107 751.466171 
L -296.555142 753.148631 
L -295.169176 754.457211 
L -293.436719 755.20497 
L -295.169176 755.76579 
L -297.594616 755.39191 
L -308.335849 751.653111 
L -310.414797 751.466171 
L -312.840237 751.466171 
L -314.919185 751.840051 
L -316.305151 752.587811 
L -321.502522 756.51355 
L -325.313927 758.38295 
L -329.471824 759.31765 
L -338.4806 758.38295 
L -342.638497 758.56989 
L -350.95429 760.43929 
L -352.686747 761.37399 
L -354.419204 762.495629 
L -357.191135 765.486669 
L -358.577101 767.729949 
L -357.884118 769.599349 
L -356.498152 770.907928 
L -354.765695 771.842628 
L -356.151661 772.964268 
L -358.230609 773.525088 
L -370.704299 775.394488 
L -374.169213 776.890008 
L -376.594653 779.507167 
L -376.941144 781.189627 
L -376.594653 784.928427 
L -377.287636 786.050066 
L -379.366584 789.414986 
L -379.713075 789.788866 
L -385.603429 792.966846 
L -389.414834 794.275425 
L -393.572731 795.210125 
L -397.730628 795.397065 
L -407.778878 793.340725 
L -411.590283 791.284386 
L -413.669232 790.723566 
L -415.74818 791.097446 
L -419.906077 792.779906 
L -423.024499 793.340725 
L -423.717482 793.901545 
L -424.063973 794.649305 
L -424.756956 795.397065 
L -425.449939 795.957885 
L -431.686784 798.575045 
L -435.844681 799.135865 
L -440.002577 798.761985 
L -455.941181 793.153785 
L -459.752586 792.406026 
L -469.107854 791.471326 
L -473.612242 792.032146 
L -477.423647 793.901545 
L -476.730665 793.901545 
L -482.274527 795.397065 
L -484.006984 796.144825 
L -481.581544 796.705645 
L -479.156104 798.388105 
L -478.11663 800.631385 
L -478.809613 802.874664 
L -480.54207 803.622424 
L -497.520148 800.631385 
L -511.033312 802.500784 
L -515.191209 804.183244 
L -518.656123 806.800404 
L -523.853494 813.530243 
L -525.585951 815.212703 
L -527.318407 815.960463 
L -528.704373 816.147403 
L -529.397356 816.895162 
L -530.090339 817.829862 
L -530.783321 818.951502 
L -531.822796 819.325382 
L -534.941218 820.447022 
L -536.327184 821.568662 
L -538.059641 823.064182 
L -539.792098 824.933581 
L -540.138589 826.802981 
L -541.178063 826.616041 
L -543.603503 827.176861 
L -547.414908 828.859321 
L -554.691227 833.71976 
L -557.463158 837.27162 
L -556.077193 840.262659 
L -556.077193 840.823479 
L -557.463158 841.197359 
L -560.23509 842.879819 
L -561.621055 843.066759 
L -563.353512 842.879819 
L -564.739478 842.318999 
L -566.125443 841.758179 
L -572.015797 837.27162 
L -573.401762 835.96304 
L -575.134219 835.21528 
L -590.726332 835.58916 
L -592.112297 835.96304 
L -593.498263 837.45856 
L -594.884228 837.83244 
L -595.923703 837.6455 
L -596.616685 836.89774 
L -596.963177 836.14998 
L -597.65616 835.58916 
L -602.507039 832.78506 
L -609.783358 825.681341 
L -614.634238 823.064182 
L -616.366695 821.942542 
L -617.75266 820.073142 
L -619.485117 818.764562 
L -621.910557 818.577622 
L -623.989505 819.138442 
L -626.068454 820.447022 
L -626.761436 819.886202 
L -627.454419 819.699262 
L -628.493893 819.886202 
L -629.186876 820.447022 
L -628.840385 819.325382 
L -623.296522 811.847783 
L -622.60354 810.539203 
L -623.296522 807.548164 
L -624.682488 803.996304 
L -626.761436 800.631385 
L -628.493893 798.388105 
L -629.879859 797.453405 
L -631.265824 797.079525 
L -637.849161 798.388105 
L -643.739514 798.014225 
L -645.12548 797.640345 
L -646.511446 796.518705 
L -648.243903 793.340725 
L -649.629868 792.406026 
L -649.629868 791.658266 
L -647.204428 791.097446 
L -646.164954 789.601926 
L -645.471971 787.171706 
L -644.432497 784.741487 
L -646.164954 785.676186 
L -648.243903 789.228046 
L -649.283377 790.162746 
L -656.559696 789.601926 
L -657.945661 789.788866 
L -660.717593 790.723566 
L -670.07286 792.219086 
L -672.151808 793.527665 
L -672.4983 794.462365 
L -673.537774 794.649305 
L -674.577248 794.462365 
L -675.270231 793.901545 
L -676.309705 792.592966 
L -676.309705 791.471326 
L -675.270231 790.162746 
L -675.963214 786.423946 
L -675.963214 785.489246 
L -675.963214 784.367607 
L -675.270231 783.806787 
L -674.92374 783.432907 
L -674.230757 782.498207 
L -673.191283 780.254927 
L -673.537774 778.759407 
L -674.92374 774.833668 
L -674.92374 772.590388 
L -674.230757 771.655688 
L -672.844791 770.720988 
L -671.458826 768.851589 
L -675.616722 762.869509 
L -677.002688 762.12175 
L -682.893042 760.62623 
L -691.901818 759.87847 
L -700.564102 760.25235 
L -701.950068 760.81317 
L -702.989542 761.37399 
L -706.454456 762.869509 
L -708.186913 763.991149 
L -708.879896 764.738909 
L -709.91937 765.860549 
L -711.305335 767.356069 
L -711.651827 768.103829 
L -711.651827 769.599349 
L -711.651827 770.720988 
L -710.958844 771.281808 
L -710.265861 771.842628 
L -709.91937 772.590388 
L -708.533404 777.263888 
L -708.186913 778.198587 
L -708.186913 779.320227 
L -709.226387 786.610886 
L -708.879896 788.854166 
L -707.147439 790.162746 
L -708.879896 790.536626 
L -711.305335 789.414986 
L -713.384284 787.358646 
L -715.116741 785.489246 
L -717.195689 781.189627 
L -717.542181 779.881047 
L -717.542181 779.133287 
L -717.195689 777.637767 
L -716.849198 776.703068 
L -717.195689 776.329188 
L -717.542181 776.142248 
L -717.888672 775.955308 
L -718.235163 775.581428 
L -719.274637 772.777328 
L -719.96762 771.468748 
L -722.739551 770.720988 
L -723.779026 769.599349 
L -723.779026 768.103829 
L -723.779026 766.608309 
L -722.739551 765.673609 
L -722.046569 765.486669 
L -721.353586 764.925849 
L -721.007094 763.243389 
L -721.007094 761.74787 
L -720.660603 760.43929 
L -720.314112 759.31765 
L -719.621129 758.19601 
L -721.007094 758.38295 
L -721.700077 758.56989 
L -722.39306 758.94377 
L -723.779026 756.88743 
L -723.779026 755.39191 
L -723.086043 753.896391 
L -721.700077 752.213931 
L -720.314112 750.157591 
L -719.274637 746.231852 
L -718.235163 743.801632 
L -715.116741 741.371412 
L -711.305335 741.558352 
L -708.533404 740.997532 
L -707.147439 736.884853 
L -707.49393 734.828513 
L -709.226387 732.024413 
L -709.91937 730.528894 
L -709.91937 728.285614 
L -712.691301 718.564735 
L -715.116741 713.704296 
L -715.463232 711.647956 
L -716.502706 711.087136 
L -721.007094 705.852817 
L -722.39306 704.918117 
L -723.432534 704.170357 
L -723.779026 703.235657 
L -723.779026 698.749098 
L -723.779026 696.318878 
L -724.472008 694.449478 
L -726.897448 690.710679 
L -729.669379 687.906579 
L -740.064121 680.80286 
L -739.024647 678.93346 
L -739.717629 676.690181 
L -742.143069 672.390561 
L -743.182543 669.586462 
L -745.607983 666.408482 
L -745.954474 665.286842 
L -746.993949 663.791322 
L -751.151845 659.678643 
L -752.884302 658.930883 
L -754.963251 657.996183 
L -756.349216 656.313723 
L -757.38869 654.257383 
L -758.428165 652.761864 
L -756.002725 651.453284 
L -754.616759 651.266344 
L -753.577285 651.640224 
L -752.884302 652.948804 
L -752.191319 654.070444 
L -751.498337 655.192083 
L -750.458863 655.752903 
L -750.805354 657.061483 
L -750.112371 657.996183 
L -747.686931 660.052523 
L -745.954474 662.482742 
L -744.568509 663.604382 
L -743.182543 664.165202 
L -741.796578 663.230502 
L -742.143069 662.108862 
L -744.222018 660.052523 
L -744.915 659.117823 
L -744.915 657.248423 
L -745.261492 656.500663 
L -745.607983 656.126783 
L -746.647457 656.126783 
L -747.34044 655.752903 
L -749.419388 653.696564 
L -750.112371 652.761864 
L -750.458863 651.640224 
L -750.112371 646.779784 
L -750.458863 645.097325 
L -751.844828 643.040985 
L -754.270268 641.919345 
L -757.042199 641.732405 
L -759.81413 642.106285 
L -759.121147 643.975685 
L -758.428165 644.536505 
L -759.467639 644.723445 
L -760.507113 645.284265 
L -762.586061 646.779784 
L -763.625535 645.471205 
L -763.972027 644.349565 
L -764.318518 643.414865 
L -764.318518 642.480165 
L -764.66501 641.545465 
L -765.357992 640.610765 
L -765.704484 639.302185 
L -765.011501 637.619726 
L -765.704484 636.871966 
L -766.743958 633.693986 
L -767.436941 631.076826 
L -767.436941 630.329067 
L -767.090449 629.394367 
L -766.050975 628.085787 
L -765.704484 626.777207 
L -766.050975 625.468627 
L -768.476415 622.664528 
L -768.822906 622.290648 
L -769.169398 621.916768 
L -769.169398 620.982068 
L -768.822906 620.795128 
L -768.129923 620.982068 
L -767.436941 620.982068 
L -767.090449 620.608188 
L -766.743958 620.234308 
L -765.357992 618.925728 
L -764.66501 618.551848 
L -763.972027 618.551848 
L -763.972027 618.177968 
L -763.625535 617.430208 
L -763.625535 616.682448 
L -763.279044 615.934688 
L -763.625535 612.382829 
L -763.279044 611.074249 
L -761.893078 610.139549 
L -759.467639 609.204849 
L -757.38869 608.644029 
L -755.656233 608.830969 
L -756.695708 609.578729 
L -755.309742 611.261189 
L -750.458863 615.560809 
L -746.300966 617.243268 
L -742.836052 616.308568 
L -739.371138 613.878349 
L -727.936922 602.47501 
L -725.511482 598.175391 
L -724.125517 594.062711 
L -722.046569 585.089592 
L -721.700077 580.789973 
L -722.046569 572.938494 
L -722.739551 571.256034 
L -723.779026 568.825815 
L -723.086043 566.956415 
L -721.007094 563.965375 
L -720.660603 559.478816 
L -724.125517 545.084438 
L -725.164991 533.307219 
L -726.897448 528.44678 
L -727.590431 526.01656 
L -727.243939 521.156121 
L -727.590431 518.912841 
L -728.629905 516.669561 
L -729.669379 514.987102 
L -730.708853 513.117702 
L -731.401836 511.622182 
L -731.401836 510.687482 
L -731.401836 509.752782 
L -731.401836 508.631142 
L -733.480784 500.966603 
L -735.213241 497.227804 
L -737.638681 493.489004 
L -741.796578 487.880805 
L -742.836052 486.198345 
L -742.836052 485.450585 
L -747.34044 479.094626 
L -751.844828 474.234187 
L -752.537811 472.551727 
L -753.230794 470.495387 
L -754.616759 468.812928 
L -757.735182 466.008828 
L -761.546587 460.400629 
L -764.318518 458.157349 
L -765.357992 455.540189 
L -766.397466 450.30587 
L -767.783432 448.81035 
L -771.594837 445.632371 
L -772.28782 444.510731 
L -772.980803 443.202151 
L -778.178174 434.602912 
L -778.524665 434.229032 
L -779.564139 431.611872 
L -779.910631 430.864112 
L -781.296596 428.994713 
L -783.375545 423.947333 
L -784.415019 422.077934 
L -790.998355 412.730935 
L -796.195726 402.075356 
L -796.888709 400.579836 
L -797.581692 396.467157 
L -798.621166 392.541417 
L -804.511519 384.876878 
L -806.936959 380.016439 
L -806.590468 375.90376 
L -809.015907 373.09966 
L -814.55977 363.191841 
L -815.252752 360.761622 
L -816.985209 358.518342 
L -823.222054 347.862763 
L -823.568546 346.741123 
L -823.915037 343.750084 
L -824.60802 340.385164 
L -825.301003 339.450464 
L -825.301003 336.459425 
L -830.498374 327.673246 
L -831.884339 323.934446 
L -832.230831 319.634827 
L -834.309779 310.661708 
L -840.546624 296.64121 
L -840.893115 292.71547 
L -841.239607 292.15465 
L -841.586098 291.593831 
L -842.279081 290.846071 
L -842.279081 289.724431 
L -842.279081 288.602791 
L -845.051012 279.442732 
L -844.358029 279.442732 
L -844.704521 277.947212 
L -844.704521 275.143113 
L -845.051012 273.460653 
L -847.476452 267.104694 
L -847.12996 265.983054 
L -848.515926 264.861414 
L -849.208909 262.431194 
L -849.5554 258.318515 
L -852.327331 250.467036 
L -853.020314 249.158456 
L -856.831719 238.128997 
L -857.178211 237.568178 
L -858.910668 235.511838 
L -859.257159 234.390198 
L -859.60365 233.829378 
L -861.336107 231.773038 
L -863.415056 225.043199 
L -864.108038 224.108499 
L -865.147513 222.986859 
L -865.494004 222.05216 
L -865.494004 219.435 
L -865.840495 218.31336 
L -866.533478 216.81784 
L -867.572952 214.200681 
L -867.919444 211.583521 
L -867.226461 209.714121 
L -868.612426 207.283901 
L -874.849272 201.862642 
L -875.888746 200.367122 
L -877.274711 196.067503 
L -877.967694 194.571983 
L -882.472082 188.402964 
L -888.708927 182.794765 
L -889.748401 180.364545 
L -890.787875 176.438805 
L -891.480858 172.513066 
L -891.134367 170.269786 
L -891.480858 169.522026 
L -892.173841 167.652627 
L -892.520332 166.717927 
L -892.866824 166.157107 
L -893.559807 165.970167 
L -894.599281 165.970167 
L -895.292264 165.783227 
L -897.02472 161.109727 
L -898.757177 159.801148 
L -901.182617 157.183988 
z
M 112.304698 272.339013 
L 112.997681 272.712893 
L 114.383647 273.834533 
L 115.769612 274.582293 
L 117.155578 275.703933 
L 119.927509 280.003552 
L 120.620492 281.686012 
L 128.589794 300.566949 
L 131.361725 306.922909 
L 133.094182 309.166188 
L 137.59857 312.904988 
L 138.984535 315.148267 
L 140.370501 320.569527 
L 141.063484 322.065047 
L 142.102958 323.934446 
L 143.142432 324.308326 
L 144.181906 323.934446 
L 146.260854 323.934446 
L 147.993311 324.308326 
L 148.686294 325.056086 
L 148.686294 326.177726 
L 147.300329 327.673246 
L 145.22138 332.907565 
L 145.22138 336.085545 
L 147.64682 342.067624 
L 147.300329 343.750084 
L 148.339803 343.937024 
L 150.418751 344.497844 
L 151.458225 344.497844 
L 152.151208 344.497844 
L 154.230156 343.563144 
L 155.616122 343.563144 
L 156.309105 344.310904 
L 157.002087 347.115003 
L 158.041562 348.797463 
L 159.427527 349.919103 
L 163.238933 351.601563 
L 163.585424 352.910143 
L 163.585424 354.031782 
L 166.357355 356.462002 
L 168.436303 359.639982 
L 168.782795 360.574682 
L 168.782795 361.696321 
L 169.129286 362.631021 
L 169.822269 363.565721 
L 175.712623 368.052281 
L 180.909993 373.84742 
L 183.681925 375.71682 
L 187.146838 376.838459 
L 190.958244 377.399279 
L 191.997718 377.212339 
L 193.730175 376.27764 
L 194.769649 376.0907 
L 195.809123 376.46458 
L 196.502106 377.212339 
L 197.54158 377.960099 
L 198.234563 378.707859 
L 200.313511 379.642559 
L 202.39246 380.203379 
L 213.480184 381.325019 
L 215.905624 382.259719 
L 215.905624 380.016439 
L 215.559132 378.333979 
L 215.559132 376.46458 
L 216.252115 374.2213 
L 216.945098 373.2866 
L 217.638081 372.72578 
L 218.331063 372.16496 
L 219.370538 371.60414 
L 220.06352 370.4825 
L 220.410012 369.92168 
L 221.795977 364.687361 
L 222.142469 363.752661 
L 221.795977 362.817961 
L 220.756503 360.761622 
L 220.410012 360.013862 
L 221.102995 358.705282 
L 229.418788 352.162383 
L 230.458262 350.666863 
L 231.151245 348.236643 
L 231.151245 345.806423 
L 229.765279 344.871724 
L 228.379314 344.123964 
L 227.33984 342.628444 
L 227.686331 340.572104 
L 229.072297 338.889644 
L 231.151245 337.768005 
L 232.883702 337.020245 
L 235.655633 336.646365 
L 236.695107 336.085545 
L 237.38809 335.524725 
L 238.427564 333.842265 
L 239.467038 333.094505 
L 240.853004 331.598985 
L 242.585461 328.421006 
L 243.278444 326.925486 
L 245.357392 325.243026 
L 247.782832 324.869146 
L 252.28722 325.616906 
L 254.712659 324.682206 
L 258.870556 322.251987 
L 260.256522 321.878107 
L 261.988979 322.065047 
L 266.493367 323.934446 
L 269.958281 323.934446 
L 278.620565 320.569527 
L 284.85741 319.260947 
L 291.094255 316.643787 
L 302.18198 309.353128 
L 305.993385 306.922909 
L 313.616196 302.249409 
L 315.002161 301.688589 
L 317.427601 300.940829 
L 318.467075 300.380009 
L 319.160058 299.445309 
L 318.813567 298.32367 
L 317.774092 296.26733 
L 317.774092 294.77181 
L 317.774092 293.65017 
L 317.427601 292.90241 
L 316.041635 291.96771 
L 314.65567 289.911371 
L 315.002161 287.294211 
L 315.348653 284.490111 
L 315.695144 281.872952 
L 315.695144 281.686012 
L 317.427601 278.321092 
L 318.467075 275.143113 
L 320.199532 272.525953 
L 322.971463 270.282673 
L 330.247782 267.852454 
L 331.287257 266.543874 
L 331.287257 264.674474 
L 331.633748 262.992014 
L 333.019714 261.870374 
L 331.633748 260.187915 
L 330.940765 257.570755 
L 330.940765 257.009935 
L 331.287257 254.766655 
L 331.980239 252.336436 
L 333.712696 250.280096 
L 336.484627 249.158456 
L 339.256559 248.223756 
L 342.02849 247.102116 
L 343.067964 246.167416 
L 343.760947 245.232717 
L 344.453929 244.111077 
L 344.107438 242.428617 
L 344.453929 240.746157 
L 346.186386 238.128997 
L 346.532878 236.446538 
L 346.186386 235.885718 
L 344.800421 234.577138 
L 344.453929 233.829378 
L 344.453929 233.081618 
L 344.453929 231.399158 
L 344.453929 230.651398 
L 343.414455 228.408119 
L 340.642524 224.669319 
L 339.60305 220.74358 
L 338.910067 218.87418 
L 337.524102 217.37866 
L 336.138136 216.25702 
L 335.098662 214.94844 
L 334.75217 208.592481 
L 331.633748 207.283901 
L 327.822343 207.283901 
L 324.70392 206.162262 
L 316.734618 197.749963 
L 313.269704 196.254443 
L 311.190756 195.693623 
L 309.80479 194.758923 
L 309.458299 193.450343 
L 309.458299 191.207064 
L 308.418825 190.085424 
L 306.339877 189.150724 
L 304.260928 188.402964 
L 302.874963 188.589904 
L 297.3311 182.981705 
L 293.519695 176.064925 
L 292.480221 174.569406 
L 291.094255 173.447766 
L 289.70829 172.513066 
L 287.975833 171.952246 
L 284.85741 171.391426 
L 284.164428 170.830606 
L 281.392496 165.409347 
L 280.006531 164.287707 
L 275.848634 164.100767 
L 274.80916 162.605247 
L 274.116177 157.931748 
L 273.423194 155.875408 
L 272.38372 154.006008 
L 271.344246 152.510489 
L 269.265298 151.014969 
L 267.879332 151.201909 
L 262.33547 155.127648 
L 260.603013 155.501528 
L 247.089849 156.436228 
L 245.357392 157.183988 
L 243.278444 159.240328 
L 240.853004 163.726887 
L 238.774055 165.409347 
L 237.041599 166.157107 
L 234.616159 166.530987 
L 232.53721 166.157107 
L 230.458262 165.409347 
L 229.418788 165.409347 
L 224.221417 165.970167 
L 223.181943 165.596287 
L 222.142469 167.091807 
L 221.102995 168.587326 
L 218.331063 172.513066 
L 217.984572 173.260826 
L 213.826675 177.934325 
L 210.01527 182.794765 
L 209.668779 183.542525 
L 209.668779 184.477224 
L 209.668779 185.224984 
L 208.629305 185.411924 
L 206.203865 185.411924 
L 205.164391 184.851104 
L 204.124917 183.729464 
L 203.085442 182.607825 
L 201.352985 182.420885 
L 199.96702 183.168645 
L 198.927546 184.664164 
L 198.581054 186.346624 
L 197.54158 188.029084 
L 195.11614 189.150724 
L 184.028416 188.402964 
L 184.721399 190.272364 
L 183.681925 191.207064 
L 182.295959 191.767883 
L 181.256485 192.702583 
L 181.256485 194.198103 
L 181.256485 195.132803 
L 181.256485 195.693623 
L 180.909993 196.067503 
L 180.909993 196.254443 
L 180.909993 197.189143 
L 180.563502 197.563023 
L 180.217011 197.563023 
L 179.870519 197.376083 
L 179.524028 197.563023 
L 177.445079 200.180182 
L 176.405605 201.488762 
L 175.01964 202.049582 
L 173.633674 202.423462 
L 173.980166 203.545102 
L 175.366131 204.853682 
L 176.059114 205.788382 
L 175.366131 205.975322 
L 174.673148 206.536142 
L 173.980166 206.723082 
L 173.633674 205.788382 
L 172.940691 206.723082 
L 173.287183 208.592481 
L 173.287183 209.340241 
L 171.208234 213.452921 
L 165.664372 220.18276 
L 164.971389 220.55664 
L 163.931915 220.93052 
L 162.892441 221.67828 
L 162.199458 222.612979 
L 162.199458 223.547679 
L 162.892441 226.164839 
L 162.892441 227.473419 
L 162.199458 228.221179 
L 161.159984 228.595059 
L 157.348579 229.903639 
L 155.616122 230.838338 
L 155.616122 231.773038 
L 155.269631 234.390198 
L 154.923139 235.324898 
L 154.230156 236.633478 
L 153.190682 237.194298 
L 152.151208 237.381238 
L 151.458225 238.128997 
L 151.111734 238.876757 
L 151.458225 239.624517 
L 152.151208 240.185337 
L 152.497699 241.120037 
L 152.151208 242.428617 
L 151.804717 243.176377 
L 151.458225 243.737197 
L 147.300329 248.036816 
L 146.260854 249.719276 
L 145.914363 251.775616 
L 145.22138 252.149496 
L 143.142432 252.149496 
L 142.449449 252.523376 
L 142.449449 253.831955 
L 141.756466 254.953595 
L 141.063484 255.888295 
L 141.063484 256.262175 
L 140.716992 256.636055 
L 137.59857 258.505455 
L 135.519621 259.440155 
L 132.74769 260.000975 
L 131.015233 260.935674 
L 129.975759 261.309554 
L 127.203828 261.496494 
L 124.431897 262.618134 
L 124.085405 262.992014 
L 120.966983 266.356934 
L 120.274 266.543874 
L 119.581017 266.356934 
L 119.234526 265.609174 
L 118.888035 265.048354 
L 118.195052 265.048354 
L 117.502069 265.422234 
L 116.809086 267.291634 
L 116.116103 268.039394 
L 115.423121 266.730814 
L 114.383647 266.730814 
L 113.690664 267.852454 
L 113.344172 269.721853 
z
" clip-path="url(#p920ff4f233)" style="fill: #bdc3c7; stroke: #ffffff; stroke-width: 0.5"/>
    <path d="M 1129.94991 2182.117805 
L 1129.94991 2180.622286 
L 1131.682367 2179.313706 
L 1133.761315 2176.883486 
L 1134.80079 2176.322666 
L 1135.147281 2175.761846 
L 1137.226229 2173.144687 
L 1138.265704 2172.396927 
L 1141.384126 2171.649167 
L 1144.84904 2172.023047 
L 1153.511325 2174.079386 
L 1158.015713 2178.379006 
L 1160.787644 2179.126766 
L 1159.74817 2182.117805 
L 1157.669221 2184.734965 
L 1155.243782 2186.791305 
L 1152.125359 2187.539065 
L 1151.432376 2187.352125 
L 1149.699919 2186.791305 
L 1138.958686 2186.417425 
L 1137.572721 2186.791305 
L 1134.107807 2186.230485 
L 1132.37535 2185.669665 
L 1130.989384 2184.548025 
L 1130.642893 2183.613325 
z
" clip-path="url(#p920ff4f233)" style="fill: #bdc3c7; stroke: #ffffff; stroke-width: 0.5"/>
    <path d="M 1157.32273 2151.085769 
L 1157.669221 2148.65555 
L 1161.134135 2146.97309 
L 1165.638523 2146.97309 
L 1168.756946 2148.84249 
L 1168.410454 2152.020469 
L 1164.945541 2153.142109 
L 1160.441153 2152.581289 
z
" clip-path="url(#p920ff4f233)" style="fill: #bdc3c7; stroke: #ffffff; stroke-width: 0.5"/>
   </g>
   <g id="PatchCollection_2">
    <defs>
     <path id="m7afe9cdfff" d="M 112.304698 -238.018331 
L 113.344172 -240.63549 
L 113.690664 -242.50489 
L 114.383647 -243.62653 
L 115.423121 -243.62653 
L 116.116103 -242.31795 
L 116.809086 -243.06571 
L 117.502069 -244.93511 
L 118.195052 -245.30899 
L 118.888035 -245.30899 
L 119.234526 -244.74817 
L 119.581017 -244.00041 
L 120.274 -243.81347 
L 120.966983 -244.00041 
L 124.085405 -247.36533 
L 124.431897 -247.739209 
L 127.203828 -248.860849 
L 129.975759 -249.047789 
L 131.015233 -249.421669 
L 132.74769 -250.356369 
L 135.519621 -250.917189 
L 137.59857 -251.851889 
L 140.716992 -253.721289 
L 141.063484 -254.095169 
L 141.063484 -254.469049 
L 141.756466 -255.403748 
L 142.449449 -256.525388 
L 142.449449 -257.833968 
L 143.142432 -258.207848 
L 145.22138 -258.207848 
L 145.914363 -258.581728 
L 146.260854 -260.638068 
L 147.300329 -262.320528 
L 151.458225 -266.620147 
L 151.804717 -267.180967 
L 152.151208 -267.928727 
L 152.497699 -269.237307 
L 152.151208 -270.172007 
L 151.458225 -270.732826 
L 151.111734 -271.480586 
L 151.458225 -272.228346 
L 152.151208 -272.976106 
L 153.190682 -273.163046 
L 154.230156 -273.723866 
L 154.923139 -275.032446 
L 155.269631 -275.967146 
L 155.616122 -278.584305 
L 155.616122 -279.519005 
L 157.348579 -280.453705 
L 161.159984 -281.762285 
L 162.199458 -282.136165 
L 162.892441 -282.883925 
L 162.892441 -284.192505 
L 162.199458 -286.809664 
L 162.199458 -287.744364 
L 162.892441 -288.679064 
L 163.931915 -289.426824 
L 164.971389 -289.800704 
L 165.664372 -290.174584 
L 171.208234 -296.904423 
L 173.287183 -301.017103 
L 173.287183 -301.764862 
L 172.940691 -303.634262 
L 173.633674 -304.568962 
L 173.980166 -303.634262 
L 174.673148 -303.821202 
L 175.366131 -304.382022 
L 176.059114 -304.568962 
L 175.366131 -305.503662 
L 173.980166 -306.812242 
L 173.633674 -307.933882 
L 175.01964 -308.307762 
L 176.405605 -308.868582 
L 177.445079 -310.177161 
L 179.524028 -312.794321 
L 179.870519 -312.981261 
L 180.217011 -312.794321 
L 180.563502 -312.794321 
L 180.909993 -313.168201 
L 180.909993 -314.102901 
L 180.909993 -314.289841 
L 181.256485 -314.663721 
L 181.256485 -315.224541 
L 181.256485 -316.159241 
L 181.256485 -317.65476 
L 182.295959 -318.58946 
L 183.681925 -319.15028 
L 184.721399 -320.08498 
L 184.028416 -321.95438 
L 195.11614 -321.20662 
L 197.54158 -322.32826 
L 198.581054 -324.01072 
L 198.927546 -325.693179 
L 199.96702 -327.188699 
L 201.352985 -327.936459 
L 203.085442 -327.749519 
L 204.124917 -326.627879 
L 205.164391 -325.506239 
L 206.203865 -324.945419 
L 208.629305 -324.945419 
L 209.668779 -325.132359 
L 209.668779 -325.880119 
L 209.668779 -326.814819 
L 210.01527 -327.562579 
L 213.826675 -332.423018 
L 217.984572 -337.096518 
L 218.331063 -337.844278 
L 221.102995 -341.770017 
L 222.142469 -343.265537 
L 223.181943 -344.761057 
L 224.221417 -344.387177 
L 229.418788 -344.947997 
L 230.458262 -344.947997 
L 232.53721 -344.200237 
L 234.616159 -343.826357 
L 237.041599 -344.200237 
L 238.774055 -344.947997 
L 240.853004 -346.630457 
L 243.278444 -351.117016 
L 245.357392 -353.173356 
L 247.089849 -353.921116 
L 260.603013 -354.855816 
L 262.33547 -355.229696 
L 267.879332 -359.155435 
L 269.265298 -359.342375 
L 271.344246 -357.846855 
L 272.38372 -356.351335 
L 273.423194 -354.481936 
L 274.116177 -352.425596 
L 274.80916 -347.752097 
L 275.848634 -346.256577 
L 280.006531 -346.069637 
L 281.392496 -344.947997 
L 284.164428 -339.526738 
L 284.85741 -338.965918 
L 287.975833 -338.405098 
L 289.70829 -337.844278 
L 291.094255 -336.909578 
L 292.480221 -335.787938 
L 293.519695 -334.292418 
L 297.3311 -327.375639 
L 302.874963 -321.76744 
L 304.260928 -321.95438 
L 306.339877 -321.20662 
L 308.418825 -320.27192 
L 309.458299 -319.15028 
L 309.458299 -316.907001 
L 309.80479 -315.598421 
L 311.190756 -314.663721 
L 313.269704 -314.102901 
L 316.734618 -312.607381 
L 324.70392 -304.195082 
L 327.822343 -303.073442 
L 331.633748 -303.073442 
L 334.75217 -301.764862 
L 335.098662 -295.408903 
L 336.138136 -294.100323 
L 337.524102 -292.978684 
L 338.910067 -291.483164 
L 339.60305 -289.613764 
L 340.642524 -285.688025 
L 343.414455 -281.949225 
L 344.453929 -279.705945 
L 344.453929 -278.958185 
L 344.453929 -277.275726 
L 344.453929 -276.527966 
L 344.800421 -275.780206 
L 346.186386 -274.471626 
L 346.532878 -273.910806 
L 346.186386 -272.228346 
L 344.453929 -269.611187 
L 344.107438 -267.928727 
L 344.453929 -266.246267 
L 343.760947 -265.124627 
L 343.067964 -264.189927 
L 342.02849 -263.255227 
L 339.256559 -262.133588 
L 336.484627 -261.198888 
L 333.712696 -260.077248 
L 331.980239 -258.020908 
L 331.287257 -255.590688 
L 330.940765 -253.347409 
L 330.940765 -252.786589 
L 331.633748 -250.169429 
L 333.019714 -248.486969 
L 331.633748 -247.36533 
L 331.287257 -245.68287 
L 331.287257 -243.81347 
L 330.247782 -242.50489 
L 322.971463 -240.07467 
L 320.199532 -237.831391 
L 318.467075 -235.214231 
L 317.427601 -232.036252 
L 315.695144 -228.671332 
L 315.695144 -228.484392 
L 315.348653 -225.867232 
L 315.002161 -223.063133 
L 314.65567 -220.445973 
L 316.041635 -218.389633 
L 317.427601 -217.454933 
L 317.774092 -216.707174 
L 317.774092 -215.585534 
L 317.774092 -214.090014 
L 318.813567 -212.033674 
L 319.160058 -210.912034 
L 318.467075 -209.977334 
L 317.427601 -209.416514 
L 315.002161 -208.668755 
L 313.616196 -208.107935 
L 305.993385 -203.434435 
L 302.18198 -201.004216 
L 291.094255 -193.713556 
L 284.85741 -191.096397 
L 278.620565 -189.787817 
L 269.958281 -186.422897 
L 266.493367 -186.422897 
L 261.988979 -188.292297 
L 260.256522 -188.479237 
L 258.870556 -188.105357 
L 254.712659 -185.675138 
L 252.28722 -184.740438 
L 247.782832 -185.488198 
L 245.357392 -185.114318 
L 243.278444 -183.431858 
L 242.585461 -181.936338 
L 240.853004 -178.758358 
L 239.467038 -177.262839 
L 238.427564 -176.515079 
L 237.38809 -174.832619 
L 236.695107 -174.271799 
L 235.655633 -173.710979 
L 232.883702 -173.337099 
L 231.151245 -172.589339 
L 229.072297 -171.467699 
L 227.686331 -169.78524 
L 227.33984 -167.7289 
L 228.379314 -166.23338 
L 229.765279 -165.48562 
L 231.151245 -164.55092 
L 231.151245 -162.120701 
L 230.458262 -159.690481 
L 229.418788 -158.194961 
L 221.102995 -151.652062 
L 220.410012 -150.343482 
L 220.756503 -149.595722 
L 221.795977 -147.539382 
L 222.142469 -146.604683 
L 221.795977 -145.669983 
L 220.410012 -140.435663 
L 220.06352 -139.874843 
L 219.370538 -138.753204 
L 218.331063 -138.192384 
L 217.638081 -137.631564 
L 216.945098 -137.070744 
L 216.252115 -136.136044 
L 215.559132 -133.892764 
L 215.559132 -132.023364 
L 215.905624 -130.340905 
L 215.905624 -128.097625 
L 213.480184 -129.032325 
L 202.39246 -130.153965 
L 200.313511 -130.714785 
L 198.234563 -131.649485 
L 197.54158 -132.397244 
L 196.502106 -133.145004 
L 195.809123 -133.892764 
L 194.769649 -134.266644 
L 193.730175 -134.079704 
L 191.997718 -133.145004 
L 190.958244 -132.958064 
L 187.146838 -133.518884 
L 183.681925 -134.640524 
L 180.909993 -136.509924 
L 175.712623 -142.305063 
L 169.822269 -146.791623 
L 169.129286 -147.726322 
L 168.782795 -148.661022 
L 168.782795 -149.782662 
L 168.436303 -150.717362 
L 166.357355 -153.895342 
L 163.585424 -156.325561 
L 163.585424 -157.447201 
L 163.238933 -158.755781 
L 159.427527 -160.438241 
L 158.041562 -161.559881 
L 157.002087 -163.24234 
L 156.309105 -166.04644 
L 155.616122 -166.7942 
L 154.230156 -166.7942 
L 152.151208 -165.8595 
L 151.458225 -165.8595 
L 150.418751 -165.8595 
L 148.339803 -166.42032 
L 147.300329 -166.60726 
L 147.64682 -168.28972 
L 145.22138 -174.271799 
L 145.22138 -177.449779 
L 147.300329 -182.684098 
L 148.686294 -184.179618 
L 148.686294 -185.301258 
L 147.993311 -186.049017 
L 146.260854 -186.422897 
L 144.181906 -186.422897 
L 143.142432 -186.049017 
L 142.102958 -186.422897 
L 141.063484 -188.292297 
L 140.370501 -189.787817 
L 138.984535 -195.209076 
L 137.59857 -197.452356 
L 133.094182 -201.191156 
L 131.361725 -203.434435 
L 128.589794 -209.790394 
L 120.620492 -228.671332 
L 119.927509 -230.353792 
L 117.155578 -234.653411 
L 115.769612 -235.775051 
L 114.383647 -236.522811 
L 112.997681 -237.644451 
z
" style="stroke: #ffffff; stroke-width: 0.6"/>
    </defs>
    <g clip-path="url(#p920ff4f233)">
     <use xlink:href="#m7afe9cdfff" x="0" y="510.357344" style="fill: #e74c3c; stroke: #ffffff; stroke-width: 0.6"/>
    </g>
   </g>
   <g id="text_1">
    <g id="patch_2">
     <path d="M 3.187444 145.353134 
L 51.974163 145.353134 
Q 53.374163 145.353134 53.374163 143.953134 
L 53.374163 136.952587 
Q 53.374163 135.552587 51.974163 135.552587 
L 3.187444 135.552587 
Q 1.787444 135.552587 1.787444 136.952587 
L 1.787444 143.953134 
Q 1.787444 145.353134 3.187444 145.353134 
z
" clip-path="url(#p920ff4f233)" style="fill: #ffffff; opacity: 0.6"/>
    </g>
    <g clip-path="url(#p920ff4f233)">
     <!-- South Africa -->
     <g style="fill: #1a252f" transform="translate(3.187444 142.271493) scale(0.07 -0.07)">
      <defs>
       <path id="DejaVuSans-Bold-36" d="M 3834 4519 
L 3834 3531 
Q 3450 3703 3084 3790 
Q 2719 3878 2394 3878 
Q 1963 3878 1756 3759 
Q 1550 3641 1550 3391 
Q 1550 3203 1689 3098 
Q 1828 2994 2194 2919 
L 2706 2816 
Q 3484 2659 3812 2340 
Q 4141 2022 4141 1434 
Q 4141 663 3683 286 
Q 3225 -91 2284 -91 
Q 1841 -91 1394 -6 
Q 947 78 500 244 
L 500 1259 
Q 947 1022 1364 901 
Q 1781 781 2169 781 
Q 2563 781 2772 912 
Q 2981 1044 2981 1288 
Q 2981 1506 2839 1625 
Q 2697 1744 2272 1838 
L 1806 1941 
Q 1106 2091 782 2419 
Q 459 2747 459 3303 
Q 459 4000 909 4375 
Q 1359 4750 2203 4750 
Q 2588 4750 2994 4692 
Q 3400 4634 3834 4519 
z
" transform="scale(0.015625)"/>
       <path id="DejaVuSans-Bold-52" d="M 2203 2784 
Q 1831 2784 1636 2517 
Q 1441 2250 1441 1747 
Q 1441 1244 1636 976 
Q 1831 709 2203 709 
Q 2569 709 2762 976 
Q 2956 1244 2956 1747 
Q 2956 2250 2762 2517 
Q 2569 2784 2203 2784 
z
M 2203 3584 
Q 3106 3584 3614 3096 
Q 4122 2609 4122 1747 
Q 4122 884 3614 396 
Q 3106 -91 2203 -91 
Q 1297 -91 786 396 
Q 275 884 275 1747 
Q 275 2609 786 3096 
Q 1297 3584 2203 3584 
z
" transform="scale(0.015625)"/>
       <path id="DejaVuSans-Bold-58" d="M 500 1363 
L 500 3500 
L 1625 3500 
L 1625 3150 
Q 1625 2866 1622 2436 
Q 1619 2006 1619 1863 
Q 1619 1441 1641 1255 
Q 1663 1069 1716 984 
Q 1784 875 1895 815 
Q 2006 756 2150 756 
Q 2500 756 2700 1025 
Q 2900 1294 2900 1772 
L 2900 3500 
L 4019 3500 
L 4019 0 
L 2900 0 
L 2900 506 
Q 2647 200 2364 54 
Q 2081 -91 1741 -91 
Q 1134 -91 817 281 
Q 500 653 500 1363 
z
" transform="scale(0.015625)"/>
       <path id="DejaVuSans-Bold-57" d="M 1759 4494 
L 1759 3500 
L 2913 3500 
L 2913 2700 
L 1759 2700 
L 1759 1216 
Q 1759 972 1856 886 
Q 1953 800 2241 800 
L 2816 800 
L 2816 0 
L 1856 0 
Q 1194 0 917 276 
Q 641 553 641 1216 
L 641 2700 
L 84 2700 
L 84 3500 
L 641 3500 
L 641 4494 
L 1759 4494 
z
" transform="scale(0.015625)"/>
       <path id="DejaVuSans-Bold-4b" d="M 4056 2131 
L 4056 0 
L 2931 0 
L 2931 347 
L 2931 1625 
Q 2931 2084 2911 2256 
Q 2891 2428 2841 2509 
Q 2775 2619 2662 2680 
Q 2550 2741 2406 2741 
Q 2056 2741 1856 2470 
Q 1656 2200 1656 1722 
L 1656 0 
L 538 0 
L 538 4863 
L 1656 4863 
L 1656 2988 
Q 1909 3294 2193 3439 
Q 2478 3584 2822 3584 
Q 3428 3584 3742 3212 
Q 4056 2841 4056 2131 
z
" transform="scale(0.015625)"/>
       <path id="DejaVuSans-Bold-3" transform="scale(0.015625)"/>
       <path id="DejaVuSans-Bold-24" d="M 3419 850 
L 1538 850 
L 1241 0 
L 31 0 
L 1759 4666 
L 3194 4666 
L 4922 0 
L 3713 0 
L 3419 850 
z
M 1838 1716 
L 3116 1716 
L 2478 3572 
L 1838 1716 
z
" transform="scale(0.015625)"/>
       <path id="DejaVuSans-Bold-49" d="M 2841 4863 
L 2841 4128 
L 2222 4128 
Q 1984 4128 1890 4042 
Q 1797 3956 1797 3744 
L 1797 3500 
L 2753 3500 
L 2753 2700 
L 1797 2700 
L 1797 0 
L 678 0 
L 678 2700 
L 122 2700 
L 122 3500 
L 678 3500 
L 678 3744 
Q 678 4316 997 4589 
Q 1316 4863 1984 4863 
L 2841 4863 
z
" transform="scale(0.015625)"/>
       <path id="DejaVuSans-Bold-55" d="M 3138 2547 
Q 2991 2616 2845 2648 
Q 2700 2681 2553 2681 
Q 2122 2681 1889 2404 
Q 1656 2128 1656 1613 
L 1656 0 
L 538 0 
L 538 3500 
L 1656 3500 
L 1656 2925 
Q 1872 3269 2151 3426 
Q 2431 3584 2822 3584 
Q 2878 3584 2943 3579 
Q 3009 3575 3134 3559 
L 3138 2547 
z
" transform="scale(0.015625)"/>
       <path id="DejaVuSans-Bold-4c" d="M 538 3500 
L 1656 3500 
L 1656 0 
L 538 0 
L 538 3500 
z
M 538 4863 
L 1656 4863 
L 1656 3950 
L 538 3950 
L 538 4863 
z
" transform="scale(0.015625)"/>
       <path id="DejaVuSans-Bold-46" d="M 3366 3391 
L 3366 2478 
Q 3138 2634 2908 2709 
Q 2678 2784 2431 2784 
Q 1963 2784 1702 2511 
Q 1441 2238 1441 1747 
Q 1441 1256 1702 982 
Q 1963 709 2431 709 
Q 2694 709 2930 787 
Q 3166 866 3366 1019 
L 3366 103 
Q 3103 6 2833 -42 
Q 2563 -91 2291 -91 
Q 1344 -91 809 395 
Q 275 881 275 1747 
Q 275 2613 809 3098 
Q 1344 3584 2291 3584 
Q 2566 3584 2833 3536 
Q 3100 3488 3366 3391 
z
" transform="scale(0.015625)"/>
       <path id="DejaVuSans-Bold-44" d="M 2106 1575 
Q 1756 1575 1579 1456 
Q 1403 1338 1403 1106 
Q 1403 894 1545 773 
Q 1688 653 1941 653 
Q 2256 653 2472 879 
Q 2688 1106 2688 1447 
L 2688 1575 
L 2106 1575 
z
M 3816 1997 
L 3816 0 
L 2688 0 
L 2688 519 
Q 2463 200 2181 54 
Q 1900 -91 1497 -91 
Q 953 -91 614 226 
Q 275 544 275 1050 
Q 275 1666 698 1953 
Q 1122 2241 2028 2241 
L 2688 2241 
L 2688 2328 
Q 2688 2594 2478 2717 
Q 2269 2841 1825 2841 
Q 1466 2841 1156 2769 
Q 847 2697 581 2553 
L 581 3406 
Q 941 3494 1303 3539 
Q 1666 3584 2028 3584 
Q 2975 3584 3395 3211 
Q 3816 2838 3816 1997 
z
" transform="scale(0.015625)"/>
      </defs>
      <use xlink:href="#DejaVuSans-Bold-36"/>
      <use xlink:href="#DejaVuSans-Bold-52" transform="translate(72.015625 0)"/>
      <use xlink:href="#DejaVuSans-Bold-58" transform="translate(140.71875 0)"/>
      <use xlink:href="#DejaVuSans-Bold-57" transform="translate(211.90625 0)"/>
      <use xlink:href="#DejaVuSans-Bold-4b" transform="translate(259.703125 0)"/>
      <use xlink:href="#DejaVuSans-Bold-3" transform="translate(330.890625 0)"/>
      <use xlink:href="#DejaVuSans-Bold-24" transform="translate(365.703125 0)"/>
      <use xlink:href="#DejaVuSans-Bold-49" transform="translate(443.09375 0)"/>
      <use xlink:href="#DejaVuSans-Bold-55" transform="translate(486.59375 0)"/>
      <use xlink:href="#DejaVuSans-Bold-4c" transform="translate(535.90625 0)"/>
      <use xlink:href="#DejaVuSans-Bold-46" transform="translate(570.1875 0)"/>
      <use xlink:href="#DejaVuSans-Bold-44" transform="translate(629.46875 0)"/>
     </g>
    </g>
   </g>
   <g id="text_2">
    <!-- Lesotho -->
    <g style="fill: #1a252f" transform="translate(191.385272 20.117344) scale(0.17 -0.17)">
     <defs>
      <path id="DejaVuSans-Bold-2f" d="M 588 4666 
L 1791 4666 
L 1791 909 
L 3903 909 
L 3903 0 
L 588 0 
L 588 4666 
z
" transform="scale(0.015625)"/>
      <path id="DejaVuSans-Bold-48" d="M 4031 1759 
L 4031 1441 
L 1416 1441 
Q 1456 1047 1700 850 
Q 1944 653 2381 653 
Q 2734 653 3104 758 
Q 3475 863 3866 1075 
L 3866 213 
Q 3469 63 3072 -14 
Q 2675 -91 2278 -91 
Q 1328 -91 801 392 
Q 275 875 275 1747 
Q 275 2603 792 3093 
Q 1309 3584 2216 3584 
Q 3041 3584 3536 3087 
Q 4031 2591 4031 1759 
z
M 2881 2131 
Q 2881 2450 2695 2645 
Q 2509 2841 2209 2841 
Q 1884 2841 1681 2658 
Q 1478 2475 1428 2131 
L 2881 2131 
z
" transform="scale(0.015625)"/>
      <path id="DejaVuSans-Bold-56" d="M 3272 3391 
L 3272 2541 
Q 2913 2691 2578 2766 
Q 2244 2841 1947 2841 
Q 1628 2841 1473 2761 
Q 1319 2681 1319 2516 
Q 1319 2381 1436 2309 
Q 1553 2238 1856 2203 
L 2053 2175 
Q 2913 2066 3209 1816 
Q 3506 1566 3506 1031 
Q 3506 472 3093 190 
Q 2681 -91 1863 -91 
Q 1516 -91 1145 -36 
Q 775 19 384 128 
L 384 978 
Q 719 816 1070 734 
Q 1422 653 1784 653 
Q 2113 653 2278 743 
Q 2444 834 2444 1013 
Q 2444 1163 2330 1236 
Q 2216 1309 1875 1350 
L 1678 1375 
Q 931 1469 631 1722 
Q 331 1975 331 2491 
Q 331 3047 712 3315 
Q 1094 3584 1881 3584 
Q 2191 3584 2531 3537 
Q 2872 3491 3272 3391 
z
" transform="scale(0.015625)"/>
     </defs>
     <use xlink:href="#DejaVuSans-Bold-2f"/>
     <use xlink:href="#DejaVuSans-Bold-48" transform="translate(63.71875 0)"/>
     <use xlink:href="#DejaVuSans-Bold-56" transform="translate(131.546875 0)"/>
     <use xlink:href="#DejaVuSans-Bold-52" transform="translate(191.0625 0)"/>
     <use xlink:href="#DejaVuSans-Bold-57" transform="translate(259.765625 0)"/>
     <use xlink:href="#DejaVuSans-Bold-4b" transform="translate(307.5625 0)"/>
     <use xlink:href="#DejaVuSans-Bold-52" transform="translate(378.75 0)"/>
    </g>
   </g>
   <g id="legend_1">
    <g id="patch_3">
     <path d="M 13.5 498.657344 
L 88.097344 498.657344 
Q 89.897344 498.657344 89.897344 496.857344 
L 89.897344 470.755937 
Q 89.897344 468.955937 88.097344 468.955937 
L 13.5 468.955937 
Q 11.7 468.955937 11.7 470.755937 
L 11.7 496.857344 
Q 11.7 498.657344 13.5 498.657344 
z
" style="fill: #ffffff; opacity: 0.85; stroke: #cccccc; stroke-linejoin: miter"/>
    </g>
    <g id="patch_4">
     <path d="M 15.3 479.394531 
L 33.3 479.394531 
L 33.3 473.094531 
L 15.3 473.094531 
z
" style="fill: #e74c3c; stroke: #888888; stroke-linejoin: miter"/>
    </g>
    <g id="text_3">
     <!-- Lesotho -->
     <g transform="translate(40.5 479.394531) scale(0.09 -0.09)">
      <defs>
       <path id="DejaVuSans-2f" d="M 628 4666 
L 1259 4666 
L 1259 531 
L 3531 531 
L 3531 0 
L 628 0 
L 628 4666 
z
" transform="scale(0.015625)"/>
       <path id="DejaVuSans-48" d="M 3597 1894 
L 3597 1613 
L 953 1613 
Q 991 1019 1311 708 
Q 1631 397 2203 397 
Q 2534 397 2845 478 
Q 3156 559 3463 722 
L 3463 178 
Q 3153 47 2828 -22 
Q 2503 -91 2169 -91 
Q 1331 -91 842 396 
Q 353 884 353 1716 
Q 353 2575 817 3079 
Q 1281 3584 2069 3584 
Q 2775 3584 3186 3129 
Q 3597 2675 3597 1894 
z
M 3022 2063 
Q 3016 2534 2758 2815 
Q 2500 3097 2075 3097 
Q 1594 3097 1305 2825 
Q 1016 2553 972 2059 
L 3022 2063 
z
" transform="scale(0.015625)"/>
       <path id="DejaVuSans-56" d="M 2834 3397 
L 2834 2853 
Q 2591 2978 2328 3040 
Q 2066 3103 1784 3103 
Q 1356 3103 1142 2972 
Q 928 2841 928 2578 
Q 928 2378 1081 2264 
Q 1234 2150 1697 2047 
L 1894 2003 
Q 2506 1872 2764 1633 
Q 3022 1394 3022 966 
Q 3022 478 2636 193 
Q 2250 -91 1575 -91 
Q 1294 -91 989 -36 
Q 684 19 347 128 
L 347 722 
Q 666 556 975 473 
Q 1284 391 1588 391 
Q 1994 391 2212 530 
Q 2431 669 2431 922 
Q 2431 1156 2273 1281 
Q 2116 1406 1581 1522 
L 1381 1569 
Q 847 1681 609 1914 
Q 372 2147 372 2553 
Q 372 3047 722 3315 
Q 1072 3584 1716 3584 
Q 2034 3584 2315 3537 
Q 2597 3491 2834 3397 
z
" transform="scale(0.015625)"/>
       <path id="DejaVuSans-52" d="M 1959 3097 
Q 1497 3097 1228 2736 
Q 959 2375 959 1747 
Q 959 1119 1226 758 
Q 1494 397 1959 397 
Q 2419 397 2687 759 
Q 2956 1122 2956 1747 
Q 2956 2369 2687 2733 
Q 2419 3097 1959 3097 
z
M 1959 3584 
Q 2709 3584 3137 3096 
Q 3566 2609 3566 1747 
Q 3566 888 3137 398 
Q 2709 -91 1959 -91 
Q 1206 -91 779 398 
Q 353 888 353 1747 
Q 353 2609 779 3096 
Q 1206 3584 1959 3584 
z
" transform="scale(0.015625)"/>
       <path id="DejaVuSans-57" d="M 1172 4494 
L 1172 3500 
L 2356 3500 
L 2356 3053 
L 1172 3053 
L 1172 1153 
Q 1172 725 1289 603 
Q 1406 481 1766 481 
L 2356 481 
L 2356 0 
L 1766 0 
Q 1100 0 847 248 
Q 594 497 594 1153 
L 594 3053 
L 172 3053 
L 172 3500 
L 594 3500 
L 594 4494 
L 1172 4494 
z
" transform="scale(0.015625)"/>
       <path id="DejaVuSans-4b" d="M 3513 2113 
L 3513 0 
L 2938 0 
L 2938 2094 
Q 2938 2591 2744 2837 
Q 2550 3084 2163 3084 
Q 1697 3084 1428 2787 
Q 1159 2491 1159 1978 
L 1159 0 
L 581 0 
L 581 4863 
L 1159 4863 
L 1159 2956 
Q 1366 3272 1645 3428 
Q 1925 3584 2291 3584 
Q 2894 3584 3203 3211 
Q 3513 2838 3513 2113 
z
" transform="scale(0.015625)"/>
      </defs>
      <use xlink:href="#DejaVuSans-2f"/>
      <use xlink:href="#DejaVuSans-48" transform="translate(53.96875 0)"/>
      <use xlink:href="#DejaVuSans-56" transform="translate(115.5 0)"/>
      <use xlink:href="#DejaVuSans-52" transform="translate(167.59375 0)"/>
      <use xlink:href="#DejaVuSans-57" transform="translate(228.78125 0)"/>
      <use xlink:href="#DejaVuSans-4b" transform="translate(267.984375 0)"/>
      <use xlink:href="#DejaVuSans-52" transform="translate(331.359375 0)"/>
     </g>
    </g>
    <g id="patch_5">
     <path d="M 15.3 492.895234 
L 33.3 492.895234 
L 33.3 486.595234 
L 15.3 486.595234 
z
" style="fill: #bdc3c7; stroke: #888888; stroke-linejoin: miter"/>
    </g>
    <g id="text_4">
     <!-- Neighbors -->
     <g transform="translate(40.5 492.895234) scale(0.09 -0.09)">
      <defs>
       <path id="DejaVuSans-31" d="M 628 4666 
L 1478 4666 
L 3547 763 
L 3547 4666 
L 4159 4666 
L 4159 0 
L 3309 0 
L 1241 3903 
L 1241 0 
L 628 0 
L 628 4666 
z
" transform="scale(0.015625)"/>
       <path id="DejaVuSans-4c" d="M 603 3500 
L 1178 3500 
L 1178 0 
L 603 0 
L 603 3500 
z
M 603 4863 
L 1178 4863 
L 1178 4134 
L 603 4134 
L 603 4863 
z
" transform="scale(0.015625)"/>
       <path id="DejaVuSans-4a" d="M 2906 1791 
Q 2906 2416 2648 2759 
Q 2391 3103 1925 3103 
Q 1463 3103 1205 2759 
Q 947 2416 947 1791 
Q 947 1169 1205 825 
Q 1463 481 1925 481 
Q 2391 481 2648 825 
Q 2906 1169 2906 1791 
z
M 3481 434 
Q 3481 -459 3084 -895 
Q 2688 -1331 1869 -1331 
Q 1566 -1331 1297 -1286 
Q 1028 -1241 775 -1147 
L 775 -588 
Q 1028 -725 1275 -790 
Q 1522 -856 1778 -856 
Q 2344 -856 2625 -561 
Q 2906 -266 2906 331 
L 2906 616 
Q 2728 306 2450 153 
Q 2172 0 1784 0 
Q 1141 0 747 490 
Q 353 981 353 1791 
Q 353 2603 747 3093 
Q 1141 3584 1784 3584 
Q 2172 3584 2450 3431 
Q 2728 3278 2906 2969 
L 2906 3500 
L 3481 3500 
L 3481 434 
z
" transform="scale(0.015625)"/>
       <path id="DejaVuSans-45" d="M 3116 1747 
Q 3116 2381 2855 2742 
Q 2594 3103 2138 3103 
Q 1681 3103 1420 2742 
Q 1159 2381 1159 1747 
Q 1159 1113 1420 752 
Q 1681 391 2138 391 
Q 2594 391 2855 752 
Q 3116 1113 3116 1747 
z
M 1159 2969 
Q 1341 3281 1617 3432 
Q 1894 3584 2278 3584 
Q 2916 3584 3314 3078 
Q 3713 2572 3713 1747 
Q 3713 922 3314 415 
Q 2916 -91 2278 -91 
Q 1894 -91 1617 61 
Q 1341 213 1159 525 
L 1159 0 
L 581 0 
L 581 4863 
L 1159 4863 
L 1159 2969 
z
" transform="scale(0.015625)"/>
       <path id="DejaVuSans-55" d="M 2631 2963 
Q 2534 3019 2420 3045 
Q 2306 3072 2169 3072 
Q 1681 3072 1420 2755 
Q 1159 2438 1159 1844 
L 1159 0 
L 581 0 
L 581 3500 
L 1159 3500 
L 1159 2956 
Q 1341 3275 1631 3429 
Q 1922 3584 2338 3584 
Q 2397 3584 2469 3576 
Q 2541 3569 2628 3553 
L 2631 2963 
z
" transform="scale(0.015625)"/>
      </defs>
      <use xlink:href="#DejaVuSans-31"/>
      <use xlink:href="#DejaVuSans-48" transform="translate(74.8125 0)"/>
      <use xlink:href="#DejaVuSans-4c" transform="translate(136.34375 0)"/>
      <use xlink:href="#DejaVuSans-4a" transform="translate(164.125 0)"/>
      <use xlink:href="#DejaVuSans-4b" transform="translate(227.609375 0)"/>
      <use xlink:href="#DejaVuSans-45" transform="translate(290.984375 0)"/>
      <use xlink:href="#DejaVuSans-52" transform="translate(354.46875 0)"/>
      <use xlink:href="#DejaVuSans-55" transform="translate(415.65625 0)"/>
      <use xlink:href="#DejaVuSans-56" transform="translate(456.765625 0)"/>
     </g>
    </g>
   </g>
  </g>
 </g>
 <defs>
  <clipPath id="p920ff4f233">
   <rect x="7.2" y="30.117344" width="444.437576" height="473.04"/>
  </clipPath>
 </defs>
</svg>
