<?xml version="1.0" encoding="utf-8" standalone="no"?>
<!DOCTYPE svg PUBLIC "-//W3C//DTD SVG 1.1//EN"
  "http://www.w3.org/Graphics/SVG/1.1/DTD/svg11.dtd">
<svg xmlns:xlink="http://www.w3.org/1999/xlink" width="324.128732pt" height="510.357344pt" viewBox="0 0 324.128732 510.357344" xmlns="http://www.w3.org/2000/svg" version="1.1">
 <metadata>
  <rdf:RDF xmlns:dc="http://purl.org/dc/elements/1.1/" xmlns:cc="http://creativecommons.org/ns#" xmlns:rdf="http://www.w3.org/1999/02/22-rdf-syntax-ns#">
   <cc:Work>
    <dc:type rdf:resource="http://purl.org/dc/dcmitype/StillImage"/>
    <dc:date>2026-06-19T08:36:20.029084</dc:date>
    <dc:format>image/svg+xml</dc:format>
    <dc:creator>
     <cc:Agent>
      <dc:title>Matplotlib v3.11.0, https://matplotlib.org/</dc:title>
     </cc:Agent>
    </dc:creator>
   </cc:Work>
  </rdf:RDF>
 </metadata>
 <defs>
  <style type="text/css">*{stroke-linejoin: round; stroke-linecap: butt}</style>
 </defs>
 <g id="figure_1">
  <g id="patch_1">
   <path d="M 0 510.357344 
L 324.128732 510.357344 
L 324.128732 0 
L 0 0 
z
" style="fill: #d6eaf8"/>
  </g>
  <g id="axes_1">
   <g id="PatchCollection_1">
    <path d="M 157.394138 240.006641 
L 162.998412 230.557036 
L 169.225382 223.255069 
L 169.848079 221.536959 
L 170.470776 217.241685 
L 171.093473 214.66452 
L 177.94314 206.503498 
L 179.811231 202.637751 
L 179.811231 191.899564 
L 174.829655 187.174762 
L 168.602685 184.597597 
L 163.621109 176.866103 
L 162.998412 175.147993 
L 162.375714 170.852718 
L 162.998412 171.282245 
L 173.584261 173.85941 
L 184.17011 173.85941 
L 189.151687 171.711773 
L 191.642475 167.416498 
L 193.510566 163.121224 
L 197.869445 158.825949 
L 200.360233 157.107839 
L 202.851021 157.107839 
L 205.341809 157.966894 
L 207.2099 160.114531 
L 207.832597 163.121224 
L 207.2099 166.127916 
L 207.832597 168.705081 
L 211.56878 170.852718 
L 212.814174 170.423191 
L 215.304962 169.134608 
L 215.927659 169.134608 
L 220.909235 170.852718 
L 226.513508 171.282245 
L 229.004296 170.852718 
L 230.872387 169.134608 
L 231.495084 173.429883 
L 233.363175 175.57752 
L 235.231266 177.725157 
L 237.099358 181.161377 
L 237.099358 182.020432 
L 237.099358 182.879487 
L 237.099358 184.16807 
L 238.967449 185.456652 
L 240.83554 184.597597 
L 242.080934 183.309015 
L 244.571722 182.44996 
L 252.666783 194.906256 
L 254.534874 197.912949 
L 253.28948 200.490113 
L 249.553298 203.496806 
L 251.421389 206.07397 
L 252.044086 208.651135 
L 252.044086 211.2283 
L 253.28948 213.805465 
L 254.534874 215.523575 
L 255.780268 215.094047 
L 257.025662 214.234992 
L 259.51645 213.375937 
L 260.139147 213.375937 
L 262.007239 214.234992 
L 263.252633 214.234992 
L 263.87533 213.805465 
L 265.743421 211.657828 
L 273.215785 210.369245 
L 276.32927 212.087355 
L 276.32927 216.38263 
L 273.215785 225.832234 
L 273.838482 227.550344 
L 273.838482 229.268454 
L 273.215785 230.986564 
L 272.593088 231.845619 
L 270.1023 232.275146 
L 269.479603 232.704674 
L 268.234209 235.711366 
L 266.988815 237.429476 
L 268.234209 237.859003 
L 270.724997 237.429476 
L 281.933543 236.140893 
L 285.669726 234.422784 
L 293.14209 229.697981 
L 296.878272 226.691289 
L 299.991757 222.396014 
L 303.727939 214.66452 
L 304.350636 213.375937 
L 306.218727 212.087355 
L 309.95491 210.798773 
L 311.823001 209.939718 
L 314.313789 206.07397 
L 316.804577 200.919641 
L 318.672668 194.906256 
L 318.672668 189.751927 
L 318.049971 186.315707 
L 316.804577 184.16807 
L 315.559183 182.44996 
L 313.068395 181.161377 
L 314.936486 171.282245 
L 314.936486 168.705081 
L 313.691092 166.127916 
L 312.445698 163.121224 
L 311.823001 160.973586 
L 314.313789 160.114531 
L 317.427274 159.255476 
L 318.672668 158.825949 
L 319.295365 159.255476 
L 319.918062 161.832641 
L 319.918062 162.691696 
L 319.295365 163.980278 
L 318.672668 165.698388 
L 318.672668 167.846026 
L 319.918062 168.705081 
L 321.163456 169.993663 
L 323.654244 171.282245 
L 331.126608 172.1413 
L 332.994699 171.711773 
L 335.485488 169.993663 
L 339.22167 165.268861 
L 341.089761 163.550751 
L 345.44864 163.550751 
L 368.48843 172.1413 
L 369.111127 173.000355 
L 369.733824 174.288938 
L 370.356521 175.57752 
L 372.224612 176.007048 
L 377.206188 175.57752 
L 384.055856 172.1413 
L 386.546644 171.711773 
L 389.037432 171.711773 
L 390.905523 172.570828 
L 394.641705 175.57752 
L 393.396311 177.29563 
L 387.792038 181.161377 
L 389.037432 183.309015 
L 397.75519 187.604289 
L 406.472948 196.624366 
L 407.095646 197.912949 
L 407.095646 199.631058 
L 406.472948 201.349168 
L 405.850251 202.637751 
L 407.095646 206.07397 
L 409.586434 207.362553 
L 427.644647 207.79208 
L 431.380829 206.503498 
L 442.589376 198.772004 
L 446.948255 197.483421 
L 450.684437 199.201531 
L 450.06174 206.07397 
L 454.420619 206.503498 
L 458.156802 204.785388 
L 460.64759 202.208223 
L 463.138378 199.201531 
L 466.251863 195.765311 
L 469.365348 194.906256 
L 476.837712 194.906256 
L 479.951197 193.617674 
L 481.196592 191.040509 
L 480.573895 189.322399 
L 478.705803 188.033817 
L 476.837712 187.174762 
L 484.932774 178.154685 
L 488.668956 176.866103 
L 493.027835 177.725157 
L 496.764017 179.01374 
L 504.859079 177.29563 
L 508.595261 176.007048 
L 511.708746 172.570828 
L 512.95414 169.993663 
L 514.199534 164.409806 
L 515.444928 161.403114 
L 519.803807 157.537366 
L 520.426504 156.678311 
L 524.162686 156.678311 
L 531.635051 158.396421 
L 545.334385 158.396421 
L 555.297538 160.544059 
L 557.165629 159.685004 
L 559.03372 155.389729 
L 560.901811 154.101147 
L 575.223842 151.523982 
L 615.076452 153.242092 
L 616.321846 152.812564 
L 621.303422 146.369652 
L 621.926119 144.651542 
L 621.926119 142.503905 
L 621.926119 135.631465 
L 621.303422 134.342883 
L 620.680725 133.483828 
L 618.812634 132.195246 
L 617.56724 130.477136 
L 616.944543 129.188553 
L 616.944543 127.040916 
L 619.435331 126.181861 
L 623.79421 122.745641 
L 625.039604 121.457059 
L 627.530393 120.598004 
L 628.15309 120.598004 
L 627.530393 121.457059 
L 627.530393 124.463751 
L 626.907695 126.181861 
L 625.662301 127.899971 
L 625.039604 129.618081 
L 625.662301 132.624773 
L 627.530393 133.913356 
L 629.398484 133.913356 
L 633.134666 131.765718 
L 636.870848 131.336191 
L 646.834 133.483828 
L 649.947485 132.624773 
L 656.797153 130.047608 
L 659.910638 130.906663 
L 660.533335 132.195246 
L 662.401426 137.779103 
L 663.024123 139.92674 
L 664.892214 141.215323 
L 669.87379 145.510597 
L 672.364578 146.79918 
L 675.478063 146.79918 
L 679.214246 145.940125 
L 682.327731 145.08107 
L 683.573125 143.36296 
L 689.800095 138.20863 
L 692.91358 136.49052 
L 699.14055 134.772411 
L 705.367521 134.772411 
L 715.330673 137.349575 
L 717.821461 136.920048 
L 716.576067 141.64485 
L 719.066855 144.651542 
L 723.425734 147.658235 
L 727.161917 151.094454 
L 722.18034 153.242092 
L 720.312249 159.255476 
L 720.934946 165.698388 
L 725.293826 169.134608 
L 727.784614 169.564136 
L 729.652705 169.993663 
L 730.898099 171.282245 
L 738.99316 179.872795 
L 747.710918 186.315707 
L 749.57901 187.174762 
L 750.824404 186.315707 
L 752.069798 185.886179 
L 753.937889 185.886179 
L 755.80598 186.745234 
L 756.428677 187.604289 
L 757.674071 188.033817 
L 759.542162 188.033817 
L 760.787556 187.174762 
L 765.769132 181.161377 
L 765.769132 179.01374 
L 765.146435 177.725157 
L 764.523738 176.436575 
L 764.523738 174.718465 
L 763.901041 173.429883 
L 763.901041 168.705081 
L 764.523738 168.275553 
L 766.391829 163.980278 
L 766.391829 163.550751 
L 765.769132 163.980278 
L 765.769132 157.966894 
L 766.391829 158.396421 
L 768.882617 154.530674 
L 769.505314 154.101147 
L 771.373405 148.946817 
L 771.996102 148.51729 
L 771.996102 145.08107 
L 771.996102 142.074377 
L 771.996102 139.067685 
L 770.128011 135.201938 
L 767.014526 129.618081 
L 765.146435 127.040916 
L 762.655647 125.322806 
L 760.164859 124.893279 
L 755.80598 126.611389 
L 753.315192 127.470444 
L 743.352039 125.322806 
L 740.861251 122.745641 
L 743.974736 117.591312 
L 745.22013 115.873202 
L 745.22013 114.155092 
L 745.22013 112.436982 
L 745.842827 111.1484 
L 746.465524 109.000762 
L 757.674071 91.390136 
L 757.051374 90.531081 
L 753.315192 84.947224 
L 747.088221 71.631872 
L 744.597433 68.62518 
L 743.352039 67.766125 
L 739.615857 64.329905 
L 735.256978 61.752741 
L 734.011584 60.034631 
L 733.388887 57.027938 
L 732.76619 56.598411 
L 732.76619 54.021246 
L 730.275402 48.437389 
L 717.821461 35.981092 
L 715.95337 33.403928 
L 714.707976 30.397235 
L 714.085279 26.961016 
L 714.085279 23.524796 
L 715.330673 21.806686 
L 716.576067 21.377158 
L 717.198764 21.377158 
L 718.444158 20.947631 
L 720.934946 17.081884 
L 721.557643 16.222829 
L 728.407311 11.498027 
L 730.898099 8.920862 
L 734.011584 4.19606 
L 735.256978 2.47795 
L 738.370463 0.75984 
L 747.710918 -0.95827 
L 747.710918 -1.387797 
L 750.201707 -3.535435 
L 755.80598 -6.542127 
L 762.03295 -12.985039 
L 765.146435 -14.703149 
L 782.581952 -21.575589 
L 806.867136 -25.870863 
L 812.471409 -28.877556 
L 829.284229 -43.481489 
L 831.775017 -47.347237 
L 833.020411 -52.931094 
L 833.020411 -54.219676 
L 833.643108 -55.508259 
L 834.888502 -57.226369 
L 834.888502 -59.803533 
L 834.888502 -67.1055 
L 834.888502 -69.253138 
L 836.133896 -71.830302 
L 838.001987 -76.555105 
L 838.624684 -79.132269 
L 838.624684 -81.279907 
L 836.756593 -83.857072 
L 836.133896 -88.152346 
L 835.511199 -89.440929 
L 835.511199 -90.299984 
L 836.133896 -92.018094 
L 838.001987 -93.736203 
L 843.60626 -95.454313 
L 849.210534 -96.313368 
L 867.268747 -91.588566 
L 870.382232 -89.870456 
L 872.873021 -87.722819 
L 875.986506 -83.857072 
L 882.836173 -80.850379 
L 883.45887 -80.420852 
L 884.704264 -87.293291 
L 885.949658 -89.870456 
L 886.572355 -89.870456 
L 890.308537 -90.299984 
L 891.553931 -91.159039 
L 893.422022 -92.447621 
L 894.044719 -93.736203 
L 897.158205 -99.749588 
L 897.780902 -103.185808 
L 898.403599 -107.051555 
L 899.026296 -111.34683 
L 897.780902 -119.507852 
L 898.403599 -122.514544 
L 900.27169 -124.662181 
L 898.403599 -125.521236 
L 897.780902 -126.380291 
L 895.912811 -129.816511 
L 894.667416 -129.816511 
L 895.290113 -131.964148 
L 900.27169 -142.702335 
L 907.121357 -140.984225 
L 910.857539 -139.266115 
L 913.971024 -136.68895 
L 917.707206 -133.682258 
L 928.915753 -127.239346 
L 930.783844 -125.950764 
L 933.897329 -121.655489 
L 934.520026 -119.507852 
L 935.76542 -118.648797 
L 937.010814 -118.219269 
L 937.633511 -117.360214 
L 938.256208 -116.071632 
L 937.633511 -114.353522 
L 937.010814 -113.923995 
L 936.388117 -114.353522 
L 935.76542 -113.923995 
L 934.520026 -111.34683 
L 933.897329 -110.917302 
L 933.274632 -110.487775 
L 933.897329 -107.051555 
L 935.142723 -105.333445 
L 937.633511 -101.897225 
L 939.501602 -100.608643 
L 945.105876 -98.031478 
L 969.39106 -95.454313 
L 986.826576 -89.440929 
L 988.694667 -89.870456 
L 989.940061 -90.299984 
L 993.676243 -92.877149 
L 1002.394002 -96.742896 
L 1004.88479 -99.749588 
L 1009.243669 -109.62872 
L 1011.734457 -111.34683 
L 1015.470639 -106.622028 
L 1022.320307 -103.185808 
L 1024.811095 -102.326753 
L 1027.301883 -103.185808 
L 1032.283459 -105.333445 
L 1034.774247 -105.762973 
L 1036.019641 -104.903918 
L 1036.642338 -103.185808 
L 1036.642338 -101.467698 
L 1036.642338 -100.179116 
L 1038.510429 -100.179116 
L 1041.001217 -101.03817 
L 1042.246611 -101.03817 
L 1044.114703 -98.461006 
L 1044.7374 -96.313368 
L 1045.982794 -94.595258 
L 1049.096279 -94.165731 
L 1051.587067 -96.742896 
L 1052.832461 -97.601951 
L 1053.455158 -104.044863 
L 1053.455158 -112.205885 
L 1054.077855 -119.078324 
L 1057.19134 -124.232654 
L 1066.531795 -131.964148 
L 1067.154493 -136.68895 
L 1069.022584 -139.695643 
L 1069.645281 -142.702335 
L 1070.890675 -145.2795 
L 1073.381463 -146.138555 
L 1082.099221 -144.849972 
L 1091.439676 -141.413753 
L 1094.553162 -141.84328 
L 1097.04395 -146.138555 
L 1096.421253 -146.568082 
L 1095.798556 -148.286192 
L 1094.553162 -150.433829 
L 1094.553162 -151.722412 
L 1094.553162 -153.870049 
L 1095.798556 -156.876742 
L 1099.534738 -172.769258 
L 1099.534738 -179.641697 
L 1098.912041 -187.802719 
L 1098.912041 -194.675159 
L 1101.402829 -200.259016 
L 1101.402829 -201.547598 
L 1101.402829 -202.836181 
L 1101.402829 -203.695236 
L 1102.025526 -204.124763 
L 1105.761708 -204.554291 
L 1115.72486 -201.547598 
L 1128.801498 -200.259016 
L 1130.046892 -196.822796 
L 1131.292286 -193.386576 
L 1130.669589 -189.950357 
L 1130.046892 -186.084609 
L 1133.160377 -186.084609 
L 1146.237015 -189.520829 
L 1147.482409 -189.950357 
L 1149.973197 -192.957049 
L 1149.973197 -194.245631 
L 1150.595894 -197.681851 
L 1151.218591 -198.540906 
L 1152.463985 -198.540906 
L 1153.709379 -197.681851 
L 1154.332076 -196.393269 
L 1154.954773 -195.963741 
L 1163.049834 -195.534214 
L 1167.408714 -194.675159 
L 1175.503775 -190.379884 
L 1182.976139 -188.232247 
L 1186.712321 -186.084609 
L 1195.43008 -178.782642 
L 1199.166262 -177.49406 
L 1209.752111 -173.198785 
L 1222.828749 -165.896818 
L 1227.187628 -165.037763 
L 1230.92381 -165.037763 
L 1234.037295 -165.896818 
L 1240.264266 -169.333038 
L 1241.50966 -169.762566 
L 1246.491236 -169.762566 
L 1247.73663 -168.903511 
L 1248.359327 -165.896818 
L 1249.604721 -164.608236 
L 1250.227418 -163.749181 
L 1253.9636 -163.749181 
L 1255.831691 -162.460599 
L 1257.077085 -161.601544 
L 1258.322479 -162.031071 
L 1256.454388 -159.453906 
L 1258.945176 -160.312961 
L 1260.813267 -159.883434 
L 1262.058661 -159.024379 
L 1262.058661 -156.017687 
L 1265.172147 -156.876742 
L 1266.417541 -156.017687 
L 1266.417541 -153.870049 
L 1266.417541 -153.010994 
L 1283.853057 -140.554698 
L 1293.193513 -136.68895 
L 1308.760938 -137.548005 
L 1333.046122 -134.111786 
L 1336.782305 -134.970841 
L 1339.273093 -132.823203 
L 1339.89579 -132.823203 
L 1343.009275 -133.252731 
L 1344.877366 -134.970841 
L 1353.595124 -150.004302 
L 1356.708609 -151.722412 
L 1361.690186 -150.863357 
L 1363.558277 -151.292884 
L 1366.671762 -152.581467 
L 1367.917156 -152.581467 
L 1369.785247 -152.151939 
L 1372.898732 -150.433829 
L 1382.861884 -147.427137 
L 1385.97537 -146.99761 
L 1389.711552 -145.709027 
L 1390.956946 -142.702335 
L 1391.579643 -138.836588 
L 1392.825037 -135.829896 
L 1394.693128 -134.541313 
L 1397.806613 -134.111786 
L 1404.033583 -134.111786 
L 1407.147068 -133.252731 
L 1413.374039 -129.386983 
L 1416.487524 -128.098401 
L 1419.601009 -128.527929 
L 1426.450676 -130.675566 
L 1428.941464 -130.675566 
L 1433.300343 -125.091709 
L 1435.791132 -108.340137 
L 1441.395405 -101.467698 
L 1443.263496 -89.440929 
L 1442.640799 -86.434236 
L 1442.018102 -85.145654 
L 1438.904617 -82.138962 
L 1436.413829 -79.991324 
L 1435.168435 -77.41416 
L 1433.923041 -73.97794 
L 1429.564161 -67.535028 
L 1427.69607 -64.098808 
L 1427.073373 -60.662588 
L 1425.827979 -46.917709 
L 1425.205282 -45.199599 
L 1424.582585 -44.770072 
L 1424.582585 -43.481489 
L 1423.959888 -40.474797 
L 1424.582585 -39.186215 
L 1425.827979 -38.32716 
L 1429.564161 -37.897632 
L 1430.809555 -37.468105 
L 1432.677646 -35.749995 
L 1433.923041 -34.031885 
L 1435.168435 -31.884248 
L 1434.545738 -31.025193 
L 1433.923041 -29.307083 
L 1433.300343 -28.018501 
L 1434.545738 -27.588973 
L 1434.545738 -27.159446 
L 1435.168435 -25.870863 
L 1435.791132 -24.152753 
L 1436.413829 -23.293698 
L 1437.036526 -21.575589 
L 1438.28192 -20.716534 
L 1439.527314 -20.287006 
L 1441.395405 -18.568896 
L 1442.640799 -18.139369 
L 1443.263496 -17.280314 
L 1443.263496 -15.991731 
L 1443.263496 -12.985039 
L 1443.263496 -12.125984 
L 1445.754284 -2.67638 
L 1446.999678 1.618895 
L 1446.999678 7.202752 
L 1448.245072 11.498027 
L 1452.603951 15.793301 
L 1454.472042 17.511411 
L 1457.585527 17.940939 
L 1459.453619 18.799994 
L 1461.944407 23.524796 
L 1462.567104 25.242906 
L 1465.057892 27.390543 
L 1463.189801 29.53818 
L 1462.567104 32.115345 
L 1461.32171 36.840147 
L 1461.944407 37.269675 
L 1464.435195 38.987785 
L 1463.189801 43.283059 
L 1466.925983 45.430697 
L 1472.530256 47.148807 
L 1476.889135 51.014554 
L 1465.680589 60.034631 
L 1467.54868 62.182268 
L 1467.54868 63.470851 
L 1466.925983 65.18896 
L 1466.303286 67.336598 
L 1466.303286 67.766125 
L 1464.435195 69.054708 
L 1463.812498 69.484235 
L 1464.435195 70.772817 
L 1465.057892 71.202345 
L 1465.680589 71.631872 
L 1466.303286 72.0614 
L 1465.680589 76.356675 
L 1464.435195 79.792894 
L 1462.567104 82.370059 
L 1460.076316 84.517697 
L 1453.849345 85.806279 
L 1451.981254 87.094861 
L 1451.981254 89.672026 
L 1453.226648 90.960609 
L 1456.340133 92.678718 
L 1458.208225 93.537773 
L 1459.453619 98.262576 
L 1460.699013 99.980685 
L 1458.208225 102.987378 
L 1458.208225 107.282652 
L 1459.453619 112.436982 
L 1460.076316 120.598004 
L 1460.699013 123.175169 
L 1461.944407 125.322806 
L 1464.435195 126.611389 
L 1460.699013 127.899971 
L 1448.245072 129.618081 
L 1434.545738 133.054301 
L 1427.69607 132.195246 
L 1425.205282 125.322806 
L 1422.714494 127.470444 
L 1419.601009 132.624773 
L 1417.732918 134.342883 
L 1415.864827 134.772411 
L 1406.524371 133.483828 
L 1404.65628 132.195246 
L 1402.788189 130.047608 
L 1401.542795 127.470444 
L 1400.920098 124.893279 
L 1399.674704 122.745641 
L 1397.806613 121.027531 
L 1383.484581 115.873202 
L 1376.634914 115.014147 
L 1369.785247 117.591312 
L 1369.16255 120.168477 
L 1369.16255 123.604696 
L 1368.539853 125.752334 
L 1366.671762 127.040916 
L 1359.822094 130.906663 
L 1357.954003 132.624773 
L 1356.708609 133.054301 
L 1356.085912 133.054301 
L 1354.840518 132.195246 
L 1354.217821 130.906663 
L 1352.972427 132.195246 
L 1350.481639 136.49052 
L 1348.613548 138.638158 
L 1351.727033 140.356268 
L 1361.690186 144.222015 
L 1366.049065 142.933432 
L 1377.880308 147.658235 
L 1383.484581 146.79918 
L 1387.220764 148.51729 
L 1390.334249 152.383037 
L 1391.579643 157.537366 
L 1390.956946 162.691696 
L 1393.447734 164.409806 
L 1395.938522 166.557443 
L 1397.183916 169.993663 
L 1397.183916 173.85941 
L 1395.315825 176.866103 
L 1390.334249 179.01374 
L 1388.466158 181.161377 
L 1389.088855 191.470037 
L 1386.598067 193.188146 
L 1380.371096 198.342476 
L 1361.690186 206.933025 
L 1359.199397 203.496806 
L 1357.331306 201.778696 
L 1354.840518 202.637751 
L 1352.972427 205.644443 
L 1353.595124 215.523575 
L 1353.595124 216.38263 
L 1352.34973 216.812157 
L 1351.727033 217.241685 
L 1351.727033 218.959795 
L 1352.34973 219.81885 
L 1352.972427 220.248377 
L 1353.595124 220.677904 
L 1354.217821 221.107432 
L 1359.199397 232.275146 
L 1359.822094 236.140893 
L 1359.199397 239.577113 
L 1356.708609 241.72475 
L 1351.104336 244.731443 
L 1351.727033 249.456245 
L 1349.236245 255.040102 
L 1349.858942 258.905849 
L 1350.481639 259.764904 
L 1351.727033 259.764904 
L 1353.595124 260.194432 
L 1354.840518 261.483014 
L 1354.840518 264.060179 
L 1352.972427 268.355454 
L 1352.972427 269.644036 
L 1355.463215 271.362146 
L 1361.067489 268.355454 
L 1364.180974 268.784981 
L 1366.049065 271.791673 
L 1365.426368 274.798366 
L 1361.690186 279.952695 
L 1357.954003 282.100333 
L 1356.708609 285.96608 
L 1357.954003 289.4023 
L 1361.690186 290.261355 
L 1363.558277 291.549937 
L 1364.180974 292.838519 
L 1363.558277 294.127102 
L 1361.690186 295.415684 
L 1353.595124 298.422377 
L 1351.727033 300.570014 
L 1356.708609 300.999541 
L 1359.199397 301.858596 
L 1361.690186 304.435761 
L 1362.312883 307.012926 
L 1359.199397 307.871981 
L 1354.840518 307.871981 
L 1351.727033 308.301508 
L 1351.104336 309.160563 
L 1349.858942 309.590091 
L 1349.236245 309.160563 
L 1347.990851 308.301508 
L 1345.500063 306.153871 
L 1341.763881 305.724344 
L 1334.291516 306.583398 
L 1328.064546 305.294816 
L 1325.573758 305.724344 
L 1324.328364 308.301508 
L 1323.08297 312.167256 
L 1321.837576 313.455838 
L 1319.969485 313.885365 
L 1318.724091 315.173948 
L 1318.101394 316.892058 
L 1318.101394 318.18064 
L 1318.101394 319.89875 
L 1316.856 321.61686 
L 1315.610606 322.475915 
L 1311.874424 324.194025 
L 1307.515544 327.200717 
L 1305.647453 329.348354 
L 1299.420483 337.938904 
L 1296.929695 340.086541 
L 1294.438907 341.804651 
L 1287.58924 345.670398 
L 1283.853057 347.818036 
L 1283.23036 348.247563 
L 1275.757996 349.965673 
L 1275.135299 350.3952 
L 1273.267208 352.11331 
L 1273.267208 352.972365 
L 1274.512602 353.401893 
L 1274.512602 355.120003 
L 1273.267208 363.281024 
L 1273.267208 363.710552 
L 1272.644511 367.576299 
L 1273.267208 371.871574 
L 1275.135299 378.314486 
L 1278.871481 380.462123 
L 1280.739572 384.757398 
L 1281.362269 390.341255 
L 1277.626087 386.475508 
L 1275.757996 385.186925 
L 1268.908329 383.898343 
L 1257.077085 377.884958 
L 1252.095509 376.596376 
L 1247.73663 377.025904 
L 1240.886963 380.032596 
L 1235.905386 382.180233 
L 1231.546507 382.180233 
L 1217.847173 380.462123 
L 1215.356385 378.744013 
L 1214.733688 382.180233 
L 1214.733688 385.616453 
L 1213.488293 387.76409 
L 1212.865596 388.623145 
L 1211.620202 389.052673 
L 1209.752111 389.911728 
L 1207.261323 389.052673 
L 1203.525141 389.052673 
L 1199.788959 390.341255 
L 1197.298171 392.059365 
L 1195.43008 395.925112 
L 1195.43008 396.35464 
L 1194.807383 398.502277 
L 1194.184686 400.220387 
L 1193.561989 401.079442 
L 1190.448504 403.656607 
L 1185.466927 404.515662 
L 1181.108048 402.368024 
L 1180.485351 401.508969 
L 1177.371866 398.931804 
L 1172.39029 396.784167 
L 1163.049834 397.213695 
L 1140.632742 398.502277 
L 1135.028468 398.07275 
L 1123.197225 396.784167 
L 1120.08374 396.35464 
L 1115.72486 395.925112 
L 1105.761708 398.931804 
L 1099.534738 408.381409 
L 1096.421253 403.656607 
L 1093.930465 403.227079 
L 1091.439676 404.515662 
L 1087.703494 407.092826 
L 1087.080797 407.092826 
L 1083.967312 407.522354 
L 1081.476524 407.092826 
L 1079.608433 407.951881 
L 1076.494948 412.247156 
L 1074.626857 416.542431 
L 1073.381463 420.837705 
L 1072.136069 424.703453 
L 1070.267978 428.998727 
L 1068.399887 432.00542 
L 1067.77719 432.864475 
L 1064.041007 435.012112 
L 1059.682128 435.441639 
L 1057.814037 434.582584 
L 1054.700552 435.871167 
L 1054.077855 437.159749 
L 1052.832461 438.877859 
L 1050.96437 441.025497 
L 1049.718976 444.461716 
L 1048.473582 444.032189 
L 1047.850885 444.032189 
L 1046.605491 444.032189 
L 1043.492006 447.897936 
L 1041.623914 449.186518 
L 1039.755823 449.616046 
L 1036.019641 450.045573 
L 1034.15155 450.475101 
L 1031.660762 454.340848 
L 1030.415368 459.06565 
L 1029.169974 461.213288 
L 1028.547277 463.360925 
L 1025.433792 464.649507 
L 1023.565701 462.50187 
L 1021.69761 457.777068 
L 1019.206822 454.770376 
L 1012.979851 456.058958 
L 1010.489063 455.62943 
L 1007.998275 454.340848 
L 1004.88479 453.052266 
L 1003.639396 451.763683 
L 1003.639396 450.475101 
L 1002.394002 449.186518 
L 1000.525911 448.756991 
L 994.921638 450.045573 
L 974.372636 449.616046 
L 958.182513 449.186518 
L 957.559816 449.186518 
L 955.691725 448.327464 
L 946.35127 440.166442 
L 943.860481 438.877859 
L 940.746996 438.018804 
L 937.633511 437.589277 
L 934.520026 438.448332 
L 932.029238 438.877859 
L 928.915753 438.448332 
L 913.348327 430.716837 
L 908.366751 429.857782 
L 897.158205 432.00542 
L 894.667416 432.00542 
L 882.836173 428.998727 
L 880.345385 428.998727 
L 877.854597 429.428255 
L 875.363809 428.998727 
L 854.19211 422.126288 
L 846.719745 422.126288 
L 845.474351 420.837705 
L 842.983563 418.260541 
L 841.738169 417.831013 
L 831.15232 418.690068 
L 823.679956 416.971958 
L 806.244439 420.837705 
L 799.394772 420.408178 
L 795.658589 419.119596 
L 784.450043 412.247156 
L 770.128011 408.810936 
L 729.652705 405.804244 
L 720.312249 399.361332 
L 715.95337 398.07275 
L 714.085279 397.643222 
L 712.839885 397.643222 
L 710.349097 398.931804 
L 708.481006 398.931804 
L 707.235612 398.07275 
L 703.49943 395.925112 
L 702.254036 395.066057 
L 693.536277 394.207002 
L 683.573125 395.495585 
L 681.082337 395.066057 
L 677.968852 393.777475 
L 672.987275 389.911728 
L 667.383002 389.052673 
L 663.64682 388.623145 
L 656.174456 385.616453 
L 650.570182 380.032596 
L 646.834 371.871574 
L 645.588606 366.287717 
L 642.475121 364.569607 
L 639.361636 364.140079 
L 635.625454 362.851497 
L 633.757363 361.562915 
L 633.134666 360.274332 
L 632.511969 358.556222 
L 632.511969 355.54953 
L 633.134666 352.542838 
L 633.757363 350.824728 
L 634.38006 349.106618 
L 633.757363 345.670398 
L 632.511969 340.086541 
L 629.398484 338.368431 
L 622.548816 337.938904 
L 620.058028 337.079849 
L 618.812634 335.791266 
L 618.189937 334.502684 
L 616.321846 332.355047 
L 614.453755 331.495992 
L 610.094876 330.636937 
L 608.226785 329.777882 
L 610.717573 327.200717 
L 610.717573 325.05308 
L 609.472179 322.475915 
L 608.226785 319.89875 
L 607.604088 313.885365 
L 606.981391 310.878673 
L 605.735997 308.301508 
L 607.604088 304.006234 
L 617.56724 297.992849 
L 621.303422 293.268047 
L 621.303422 289.831827 
L 621.926119 286.395607 
L 617.56724 285.107025 
L 609.472179 286.825135 
L 606.358694 287.254662 
L 588.923177 296.274739 
L 576.469236 297.133794 
L 568.996872 299.710959 
L 561.524508 303.576706 
L 555.297538 308.301508 
L 547.825173 309.590091 
L 545.957082 310.878673 
L 542.2209 313.885365 
L 540.352809 314.314893 
L 537.239324 313.02631 
L 531.635051 308.731036 
L 528.521565 308.301508 
L 527.276171 308.731036 
L 525.40808 308.301508 
L 516.690322 306.583398 
L 512.331443 307.012926 
L 507.349867 308.301508 
L 505.481776 309.160563 
L 504.236381 309.590091 
L 502.36829 309.160563 
L 501.122896 308.301508 
L 499.877502 307.442453 
L 499.254805 306.153871 
L 498.009411 305.724344 
L 494.895926 304.865289 
L 493.027835 305.294816 
L 491.782441 306.583398 
L 490.537047 308.301508 
L 484.310077 314.314893 
L 479.3285 313.885365 
L 473.724227 311.308201 
L 467.497257 310.019618 
L 455.666013 312.167256 
L 443.212073 316.033003 
L 440.721285 317.751113 
L 429.512738 328.918827 
L 427.644647 331.925519 
L 425.776556 340.945596 
L 422.663071 348.67709 
L 422.663071 349.965673 
L 422.663071 352.542838 
L 422.663071 353.83142 
L 421.417677 354.690475 
L 419.549586 355.54953 
L 418.926889 355.979057 
L 415.190707 362.851497 
L 412.699919 365.428662 
L 410.209131 365.858189 
L 407.718343 364.569607 
L 401.491372 364.140079 
L 398.377887 364.569607 
L 392.773614 366.717244 
L 390.905523 366.717244 
L 389.037432 365.858189 
L 385.923947 363.281024 
L 384.678553 362.42197 
L 382.810462 362.42197 
L 379.696976 363.710552 
L 377.828885 363.281024 
L 372.847309 360.70386 
L 370.979218 359.844805 
L 367.243036 361.133387 
L 365.374945 361.133387 
L 364.129551 358.98575 
L 365.374945 357.697167 
L 369.111127 354.260948 
L 369.733824 352.542838 
L 368.48843 349.965673 
L 354.789095 342.234178 
L 352.298307 341.375124 
L 349.184822 341.804651 
L 331.749305 346.529453 
L 324.276941 345.670398 
L 318.672668 341.375124 
L 318.672668 335.791266 
L 320.540759 327.200717 
L 319.918062 322.905442 
L 318.049971 320.757805 
L 312.445698 316.46253 
L 308.709515 310.449146 
L 306.841424 308.301508 
L 306.218727 307.871981 
L 304.973333 307.442453 
L 303.727939 307.871981 
L 298.746363 310.878673 
L 294.387484 315.603475 
L 291.896696 321.61686 
L 291.273999 326.341662 
L 286.91512 326.77119 
L 283.801634 325.482607 
L 281.310846 326.341662 
L 278.197361 330.636937 
L 277.574664 334.073157 
L 277.574664 336.220794 
L 276.951967 337.938904 
L 275.083876 340.516069 
L 267.611512 344.381816 
L 263.252633 345.670398 
L 262.007239 345.670398 
L 259.51645 345.670398 
L 252.044086 343.093233 
L 248.307904 340.945596 
L 241.458237 334.502684 
L 222.777326 328.489299 
L 219.041144 325.05308 
L 216.550356 322.046387 
L 216.550356 319.469223 
L 216.550356 316.892058 
L 217.173053 310.878673 
L 217.79575 308.301508 
L 217.79575 307.012926 
L 217.173053 306.153871 
L 216.550356 306.153871 
L 215.304962 305.724344 
L 215.927659 302.717651 
L 182.924716 292.408992 
L 180.433928 291.979464 
L 171.093473 293.268047 
L 167.979988 292.408992 
L 172.961564 285.96608 
L 174.206958 279.523168 
L 172.338867 273.080256 
L 167.979988 267.496399 
L 162.998412 264.060179 
L 162.998412 261.912542 
L 164.866503 258.046794 
L 164.866503 256.328684 
L 162.998412 252.892465 
L 161.753017 250.744827 
L 161.13032 248.59719 
L 161.753017 244.731443 
L 159.262229 242.154278 
z
" clip-path="url(#p05a7f55f1b)" style="fill: #bdc3c7; stroke: #ffffff; stroke-width: 0.5"/>
    <path d="M -459.075917 510.179419 
L -458.45322 507.172727 
L -454.717038 504.595562 
L -444.131188 499.441232 
L -443.508491 499.011705 
L -441.6404 499.441232 
L -441.017703 499.87076 
L -439.772309 499.441232 
L -436.036127 498.582177 
L -435.41343 496.864068 
L -435.41343 494.286903 
L -435.41343 491.709738 
L -434.168036 484.407771 
L -433.545339 482.260134 
L -431.054551 476.676277 
L -427.941066 469.803837 
L -427.941066 466.797145 
L -430.431854 462.931397 
L -432.922642 460.354233 
L -441.017703 454.770376 
L -442.263097 454.340848 
L -440.395006 452.622738 
L -439.772309 450.904628 
L -440.395006 449.186518 
L -440.395006 447.038881 
L -440.395006 446.179826 
L -441.017703 445.320771 
L -441.017703 444.032189 
L -441.017703 442.743606 
L -440.395006 441.025497 
L -438.526915 438.877859 
L -432.299945 428.5692 
L -426.072975 420.837705 
L -430.431854 416.112903 
L -431.054551 412.676684 
L -428.563763 409.669991 
L -405.523973 388.193618 
L -393.070032 381.321178 
L -391.201941 379.603068 
L -386.843062 374.448739 
L -381.238789 371.442046 
L -379.370698 370.153464 
L -377.502607 367.576299 
L -376.87991 365.428662 
L -376.87991 361.133387 
L -378.125304 359.844805 
L -378.748001 358.556222 
L -379.370698 356.838112 
L -379.370698 355.979057 
L -376.257213 347.388508 
L -375.011818 345.240871 
L -375.011818 344.381816 
L -374.389121 343.093233 
L -373.766424 339.227486 
L -374.389121 336.650321 
L -376.87991 331.925519 
L -377.502607 329.777882 
L -375.011818 320.757805 
L -366.29406 316.033003 
L -348.235846 310.019618 
L -336.404603 301.429069 
L -332.668421 295.415684 
L -334.536512 290.690882 
L -332.045724 286.825135 
L -330.80033 285.107025 
L -326.441451 283.388915 
L -325.818753 282.100333 
L -325.196056 281.670805 
L -322.705268 280.382223 
L -322.705268 276.086948 
L -317.723692 273.939311 
L -306.515146 264.060179 
L -305.892449 263.630651 
L -302.778964 258.046794 
L -297.797387 252.892465 
L -285.966144 244.301915 
L -286.588841 237.859003 
L -285.966144 232.704674 
L -282.229962 229.268454 
L -280.984568 229.268454 
L -279.739174 228.838926 
L -277.248385 225.402707 
L -275.380294 224.543652 
L -274.1349 224.114124 
L -272.266809 222.825542 
L -271.021415 220.248377 
L -272.889506 217.671212 
L -275.380294 215.094047 
L -277.871083 212.94641 
L -280.984568 214.66452 
L -301.533569 216.812157 
L -300.910872 213.375937 
L -298.420084 209.51019 
L -295.929296 206.07397 
L -291.570417 203.496806 
L -291.570417 198.772004 
L -286.588841 197.483421 
L -284.098053 196.194839 
L -281.607265 193.617674 
L -280.361871 191.470037 
L -280.984568 188.463344 
L -282.852659 185.027124 
L -282.852659 182.44996 
L -279.739174 181.161377 
L -278.49378 180.302322 
L -276.625688 179.872795 
L -275.380294 180.302322 
L -273.512203 181.161377 
L -269.153324 182.020432 
L -260.435566 180.302322 
L -256.699384 181.161377 
L -254.208596 182.44996 
L -251.717807 182.879487 
L -247.358928 182.44996 
L -250.472413 189.751927 
L -249.227019 194.047201 
L -245.490837 196.194839 
L -240.509261 197.483421 
L -239.886564 198.342476 
L -239.263867 199.201531 
L -238.64117 200.060586 
L -237.395776 200.490113 
L -236.150382 200.490113 
L -229.923412 197.483421 
L -224.941835 196.624366 
L -219.960259 196.624366 
L -213.110592 197.053894 
L -211.242501 196.624366 
L -208.129016 195.335784 
L -205.638228 191.899564 
L -205.015531 190.610982 
L -204.392834 188.463344 
L -204.392834 186.745234 
L -205.638228 185.886179 
L -206.260925 185.027124 
L -206.883622 183.738542 
L -206.883622 182.020432 
L -205.015531 181.590905 
L -201.902045 182.44996 
L -201.279348 182.879487 
L -200.033954 183.738542 
L -197.543166 184.16807 
L -195.052378 181.590905 
L -194.429681 181.161377 
L -194.429681 180.73185 
L -194.429681 179.872795 
L -194.429681 179.443267 
L -195.675075 177.725157 
L -196.297772 176.436575 
L -196.297772 175.57752 
L -195.052378 175.147993 
L -193.184287 175.57752 
L -191.938893 175.147993 
L -191.316196 173.85941 
L -191.316196 171.282245 
L -191.938893 171.282245 
L -194.429681 169.134608 
L -195.052378 168.705081 
L -188.202711 163.550751 
L -187.580014 162.691696 
L -183.221135 160.114531 
L -176.994164 157.966894 
L -168.276406 155.389729 
L -164.540224 154.960202 
L -166.408315 161.403114 
L -168.276406 163.121224 
L -172.635285 163.121224 
L -173.257982 163.121224 
L -166.408315 166.557443 
L -163.917527 167.846026 
L -160.181345 168.275553 
L -152.70898 166.557443 
L -145.859313 165.268861 
L -142.745828 163.550751 
L -139.632343 160.114531 
L -136.518858 155.389729 
L -134.02807 156.678311 
L -123.44222 157.107839 
L -122.196826 158.396421 
L -121.574129 160.544059 
L -120.951432 163.121224 
L -120.951432 163.980278 
L -98.534339 163.980278 
L -90.439278 162.262169 
L -88.571187 161.403114 
L -87.94849 160.114531 
L -87.325793 158.825949 
L -86.080399 157.107839 
L -84.212308 156.248784 
L -80.476125 154.101147 
L -77.36264 153.242092 
L -76.117246 151.953509 
L -75.494549 150.664927 
L -74.871852 150.235399 
L -65.531397 148.51729 
L -62.417912 148.51729 
L -57.436335 149.805872 
L -55.568244 150.235399 
L -54.945547 151.094454 
L -53.700153 153.671619 
L -52.454759 156.248784 
L -50.586668 157.107839 
L -44.359698 158.825949 
L -33.151152 158.825949 
L -32.528454 158.825949 
L -28.169575 157.966894 
L -27.546878 156.678311 
L -25.678787 152.383037 
L -20.697211 148.946817 
L -15.092938 148.51729 
L -12.60215 151.094454 
L -10.734059 154.530674 
L -10.111362 154.960202 
L -8.865968 156.678311 
L -6.375179 155.819257 
L -5.752482 155.389729 
L -5.129785 154.101147 
L -5.129785 151.953509 
L -5.129785 150.235399 
L -4.507088 148.51729 
L -5.129785 147.658235 
L -5.129785 146.79918 
L -5.752482 145.510597 
L -5.129785 144.222015 
L -4.507088 143.792487 
L -3.884391 143.36296 
L -2.638997 143.36296 
L -2.638997 143.792487 
L -2.638997 145.08107 
L -1.393603 145.940125 
L -0.770906 139.92674 
L -2.0163 139.497213 
L -2.638997 139.067685 
L -5.129785 138.638158 
L -6.997876 138.20863 
L -15.715635 139.497213 
L -18.206423 140.785795 
L -20.697211 142.503905 
L -23.187999 143.792487 
L -26.301484 143.792487 
L -30.037666 142.074377 
L -34.396546 138.638158 
L -35.019243 138.20863 
L -38.132728 137.349575 
L -36.887334 134.772411 
L -37.510031 132.624773 
L -38.132728 130.477136 
L -37.510031 128.759026 
L -36.264637 126.611389 
L -31.905757 124.463751 
L -30.037666 122.745641 
L -28.792272 117.591312 
L -27.546878 115.873202 
L -25.678787 112.436982 
L -23.810696 111.577927 
L -21.942605 111.577927 
L -12.60215 109.859817 
L -10.111362 108.571235 
L -11.979453 104.27596 
L -8.865968 102.987378 
L -4.507088 102.987378 
L -1.393603 104.705488 
L -1.393603 106.423597 
L -0.770906 109.859817 
L -0.770906 112.86651 
L 1.097185 114.155092 
L 3.587973 112.86651 
L 4.21067 107.282652 
L 6.078761 105.564543 
L 7.946852 106.423597 
L 9.814943 108.571235 
L 11.060337 111.577927 
L 12.305731 113.725564 
L 14.173822 114.155092 
L 16.041914 113.725564 
L 17.910005 114.155092 
L 19.155399 116.732257 
L 18.532702 117.591312 
L 16.041914 121.027531 
L 15.419216 122.745641 
L 16.041914 124.893279 
L 17.910005 126.611389 
L 17.910005 128.329498 
L 18.532702 130.047608 
L 27.873157 130.047608 
L 26.005066 128.329498 
L 27.873157 123.175169 
L 32.232036 123.604696 
L 37.836309 126.611389 
L 42.195189 130.906663 
L 39.081703 131.765718 
L 39.081703 133.483828 
L 41.572492 136.060993 
L 42.195189 136.060993 
L 47.176765 139.92674 
L 50.912947 140.785795 
L 57.762614 140.356268 
L 63.989584 138.20863 
L 67.10307 135.201938 
L 70.216555 133.913356 
L 89.520163 136.060993 
L 98.860618 136.060993 
L 101.351406 139.92674 
L 108.201073 139.92674 
L 114.428044 141.215323 
L 162.375714 170.852718 
L 162.998412 175.147993 
L 163.621109 176.866103 
L 168.602685 184.597597 
L 174.829655 187.174762 
L 179.811231 191.899564 
L 179.811231 202.637751 
L 177.94314 206.503498 
L 171.093473 214.66452 
L 170.470776 217.241685 
L 169.848079 221.536959 
L 169.225382 223.255069 
L 162.998412 230.557036 
L 157.394138 240.006641 
L 154.90335 244.731443 
L 151.789865 253.321992 
L 151.167168 261.912542 
L 152.412562 266.207816 
L 154.280653 269.644036 
L 156.148744 273.939311 
L 156.148744 279.09364 
L 154.280653 282.52986 
L 151.789865 285.536552 
L 149.921774 288.113717 
L 149.921774 290.261355 
L 153.657956 291.549937 
L 164.243806 293.268047 
L 167.979988 292.408992 
L 171.093473 293.268047 
L 180.433928 291.979464 
L 182.924716 292.408992 
L 215.927659 302.717651 
L 215.304962 305.724344 
L 216.550356 306.153871 
L 217.173053 306.153871 
L 217.79575 307.012926 
L 217.79575 308.301508 
L 217.173053 310.878673 
L 216.550356 316.892058 
L 216.550356 319.469223 
L 216.550356 322.046387 
L 219.041144 325.05308 
L 222.777326 328.489299 
L 241.458237 334.502684 
L 248.307904 340.945596 
L 252.044086 343.093233 
L 259.51645 345.670398 
L 262.007239 345.670398 
L 263.252633 345.670398 
L 267.611512 344.381816 
L 275.083876 340.516069 
L 276.951967 337.938904 
L 277.574664 336.220794 
L 277.574664 334.073157 
L 278.197361 330.636937 
L 281.310846 326.341662 
L 283.801634 325.482607 
L 286.91512 326.77119 
L 291.273999 326.341662 
L 291.896696 321.61686 
L 294.387484 315.603475 
L 298.746363 310.878673 
L 303.727939 307.871981 
L 304.973333 307.442453 
L 306.218727 307.871981 
L 306.841424 308.301508 
L 308.709515 310.449146 
L 312.445698 316.46253 
L 318.049971 320.757805 
L 319.918062 322.905442 
L 320.540759 327.200717 
L 318.672668 335.791266 
L 318.672668 341.375124 
L 318.049971 349.536145 
L 317.427274 351.683783 
L 316.18188 353.401893 
L 312.445698 357.697167 
L 313.068395 361.562915 
L 314.313789 365.428662 
L 314.313789 368.864882 
L 312.445698 371.871574 
L 309.332213 374.019211 
L 308.709515 376.166849 
L 308.709515 379.173541 
L 308.709515 382.609761 
L 306.841424 385.616453 
L 304.973333 387.76409 
L 304.350636 389.911728 
L 305.59603 395.066057 
L 308.709515 398.502277 
L 316.18188 399.361332 
L 319.918062 402.368024 
L 321.163456 407.522354 
L 321.163456 413.965266 
L 319.295365 420.408178 
L 318.672668 422.126288 
L 317.427274 424.273925 
L 314.313789 424.703453 
L 301.859848 421.69676 
L 295.632878 422.126288 
L 293.14209 421.69676 
L 291.273999 420.837705 
L 290.651302 419.549123 
L 289.405908 418.260541 
L 288.160514 417.401486 
L 280.688149 414.824321 
L 280.065452 411.817629 
L 281.310846 406.663299 
L 280.688149 403.656607 
L 278.197361 401.508969 
L 273.838482 401.508969 
L 257.025662 406.233771 
L 255.780268 407.522354 
L 254.534874 409.240464 
L 252.666783 417.401486 
L 251.421389 419.549123 
L 247.685207 423.41487 
L 245.817116 425.562508 
L 245.817116 427.280617 
L 245.817116 432.864475 
L 245.194419 435.441639 
L 245.194419 438.018804 
L 245.817116 439.736914 
L 246.439813 441.025497 
L 247.685207 442.314079 
L 245.194419 447.468409 
L 247.685207 450.904628 
L 252.666783 453.052266 
L 260.761845 454.340848 
L 263.252633 455.62943 
L 264.498027 458.636123 
L 263.252633 464.21998 
L 262.007239 465.93809 
L 258.271056 468.944782 
L 257.025662 471.521947 
L 256.402965 474.958167 
L 256.402965 477.535331 
L 257.025662 479.682969 
L 258.271056 482.260134 
L 265.743421 489.562101 
L 267.611512 494.286903 
L 265.743421 499.011705 
L 260.761845 502.447925 
L 253.28948 505.02509 
L 247.685207 505.02509 
L 247.685207 499.441232 
L 245.817116 494.71643 
L 238.967449 488.703046 
L 236.476661 485.266826 
L 235.231266 479.682969 
L 235.231266 474.528639 
L 233.985872 470.662892 
L 229.626993 467.6562 
L 226.513508 466.797145 
L 222.777326 466.367617 
L 215.304962 467.6562 
L 204.096415 473.669584 
L 200.360233 474.958167 
L 197.869445 474.528639 
L 193.510566 471.951474 
L 192.265172 471.951474 
L 189.774384 474.099112 
L 189.774384 476.676277 
L 189.774384 479.682969 
L 189.774384 481.830606 
L 187.283596 485.696353 
L 184.17011 486.984936 
L 164.243806 486.555408 
L 159.884926 485.266826 
L 156.771441 482.689661 
L 154.280653 479.682969 
L 151.167168 470.233364 
L 149.299077 468.944782 
L 145.562895 466.797145 
L 144.317501 465.508562 
L 143.694804 464.21998 
L 144.317501 460.354233 
L 143.072107 435.871167 
L 142.44941 434.153057 
L 141.204016 434.582584 
L 138.713228 436.730222 
L 137.467833 438.448332 
L 136.845136 440.166442 
L 135.599742 441.455024 
L 133.731651 442.314079 
L 132.486257 441.884551 
L 128.127378 437.589277 
L 128.127378 434.582584 
L 124.391196 433.294002 
L 116.296135 434.582584 
L 113.182649 437.589277 
L 110.069164 443.602661 
L 108.82377 450.045573 
L 110.069164 453.481793 
L 112.559952 455.199903 
L 112.559952 457.777068 
L 112.559952 460.78376 
L 112.559952 464.649507 
L 115.050741 473.669584 
L 115.050741 476.676277 
L 113.805347 482.260134 
L 108.82377 492.99832 
L 106.332982 502.447925 
L 104.464891 505.02509 
L 102.5968 506.743199 
L 100.728709 507.602254 
L 98.860618 509.320364 
L 97.615224 511.468002 
L 96.992527 514.474694 
L 95.747133 517.051859 
L 83.293192 526.071936 
L 79.55701 530.796738 
L 78.934313 534.232957 
L 79.55701 539.816815 
L 78.934313 542.823507 
L 77.688919 545.400672 
L 75.820828 546.259727 
L 72.084646 547.548309 
L 67.725767 550.984529 
L 67.10307 553.991221 
L 70.216555 563.011298 
L 64.612281 568.165628 
L 63.989584 569.024683 
L 63.989584 569.45421 
L 63.989584 570.313265 
L 64.612281 570.742792 
L 66.480373 572.89043 
L 67.725767 577.185704 
L 68.971161 579.762869 
L 70.839252 580.621924 
L 74.575434 581.480979 
L 76.443525 582.340034 
L 78.311616 586.635309 
L 77.688919 590.930583 
L 73.33004 599.521133 
L 67.725767 606.8231 
L 62.74419 605.534517 
L 57.139917 602.957353 
L 50.29025 605.10499 
L 50.912947 601.239243 
L 51.535644 598.23255 
L 52.781038 595.225858 
L 52.158341 590.930583 
L 51.535644 587.494364 
L 49.667553 584.058144 
L 46.554068 578.474287 
L 45.308674 574.60854 
L 44.06328 572.89043 
L 42.817886 572.031375 
L 32.854733 566.447518 
L 30.363945 565.588463 
L 27.25046 565.158935 
L 27.25046 564.729408 
L 28.495854 563.440825 
L 30.986642 556.138858 
L 35.968218 550.125474 
L 38.459006 544.112089 
L 34.100127 538.098705 
L 31.609339 537.23965 
L 26.627763 537.23965 
L 23.514278 537.23965 
L 22.268884 535.951067 
L 21.02349 533.80343 
L 20.400793 533.373903 
L 19.778096 533.373903 
L 18.532702 533.80343 
L 16.041914 535.951067 
L 14.796519 536.810122 
L 11.683034 536.810122 
L 3.587973 532.08532 
L 0.474488 530.796738 
L -1.393603 529.937683 
L -12.60215 513.186111 
L -17.583726 508.031782 
L -21.942605 505.884144 
L -26.301484 503.736507 
L -30.037666 501.159342 
L -31.905757 497.293595 
L -32.528454 490.850683 
L -31.905757 484.407771 
L -28.792272 471.092419 
L -28.169575 463.790452 
L -28.169575 456.058958 
L -29.414969 450.475101 
L -31.28306 447.038881 
L -36.264637 446.179826 
L -38.755425 446.609354 
L -46.227789 448.327464 
L -50.586668 450.904628 
L -54.32285 454.770376 
L -56.190941 457.777068 
L -55.568244 459.06565 
L -54.32285 459.924705 
L -54.32285 462.50187 
L -54.945547 464.649507 
L -56.813638 466.797145 
L -58.68173 468.515255 
L -63.663306 471.092419 
L -72.381064 482.260134 
L -76.117246 484.837298 
L -83.589611 486.555408 
L -87.325793 488.273518 
L -90.439278 491.709738 
L -92.307369 494.286903 
L -92.930066 496.43454 
L -92.307369 497.723123 
L -88.571187 501.159342 
L -82.966914 511.038474 
L -82.966914 520.488078 
L -86.703096 528.6491 
L -94.17546 535.52154 
L -96.043551 535.951067 
L -99.157036 536.380595 
L -101.025127 537.669177 
L -102.270521 540.67587 
L -102.893218 543.253034 
L -102.893218 546.259727 
L -103.515915 553.561694 
L -104.138612 553.991221 
L -106.006703 557.856968 
L -106.006703 558.286496 
L -107.874795 561.293188 
L -109.120189 562.152243 
L -110.98828 563.011298 
L -123.44222 565.588463 
L -125.933008 567.7361 
L -127.801099 571.601847 
L -127.801099 576.32665 
L -131.537282 576.32665 
L -131.537282 576.756177 
L -132.159979 579.333342 
L -132.159979 580.621924 
L -132.782676 581.480979 
L -134.650767 582.769562 
L -135.896161 582.769562 
L -139.009646 581.910507 
L -143.368525 581.910507 
L -152.086283 578.903814 
L -153.331677 578.903814 
L -155.199768 579.762869 
L -156.445163 579.762869 
L -158.313254 579.333342 
L -158.935951 578.474287 
L -162.049436 573.749485 
L -164.540224 571.17232 
L -167.031012 569.45421 
L -185.089226 565.158935 
L -187.580014 566.447518 
L -189.448105 569.45421 
L -191.316196 572.031375 
L -195.052378 572.460902 
L -200.033954 575.038067 
L -210.619804 582.340034 
L -216.224077 584.487671 
L -228.678018 583.199089 
L -231.168806 584.058144 
L -236.150382 587.064836 
L -246.736231 591.360111 
L -251.717807 592.648693 
L -257.322081 592.648693 
L -262.926354 591.360111 
L -266.662536 588.782946 
L -274.757597 580.192397 
L -276.002991 578.044759 
L -276.625688 575.467595 
L -277.871083 570.742792 
L -279.739174 565.588463 
L -280.984568 563.011298 
L -281.607265 562.152243 
L -293.438508 548.836891 
L -297.17469 547.118782 
L -298.420084 547.548309 
L -299.665478 548.836891 
L -300.910872 549.695946 
L -302.778964 549.695946 
L -304.024358 548.407364 
L -304.647055 547.548309 
L -304.024358 546.689254 
L -304.024358 544.541617 
L -304.024358 541.534924 
L -304.024358 539.387287 
L -304.647055 539.387287 
L -304.024358 538.098705 
L -302.778964 536.380595 
L -301.533569 534.232957 
L -300.910872 532.514848 
L -304.024358 529.937683 
L -317.723692 526.93099 
L -318.969086 522.635716 
L -317.723692 513.615639 
L -314.610207 504.595562 
L -308.383237 492.568793 
L -312.119419 485.696353 
L -318.346389 478.823914 
L -321.459874 473.240057 
L -320.837177 470.233364 
L -316.478298 464.649507 
L -315.232904 460.354233 
L -315.232904 458.206595 
L -315.232904 455.62943 
L -317.100995 453.052266 
L -319.591783 451.763683 
L -345.122361 444.891244 
L -356.953605 444.891244 
L -368.162151 447.038881 
L -382.484183 457.34754 
L -388.088456 458.636123 
L -394.315426 459.06565 
L -399.297002 460.78376 
L -404.901276 465.508562 
L -409.882852 472.381002 
L -413.619034 477.535331 
L -414.241731 480.971551 
L -413.619034 483.548716 
L -412.37364 487.843991 
L -412.37364 488.703046 
L -410.505549 492.99832 
L -409.882852 493.857375 
L -408.014761 495.145958 
L -404.901276 493.427848 
L -403.655882 494.286903 
L -403.033185 499.87076 
L -407.392064 505.02509 
L -418.60061 512.327057 
L -427.318369 523.065243 
L -432.922642 525.642408 
L -438.526915 523.065243 
L -446.621976 523.494771 
L -454.717038 525.212881 
L -458.45322 527.790045 
L -456.585129 522.206188 
L -454.717038 519.629023 
L -454.717038 517.481386 
L -457.830523 513.615639 
z
" clip-path="url(#p05a7f55f1b)" style="fill: #bdc3c7; stroke: #ffffff; stroke-width: 0.5"/>
   </g>
   <g id="PatchCollection_2">
    <defs>
     <path id="m64429cf333" d="M 149.921774 -220.095989 
L 149.921774 -222.243627 
L 151.789865 -224.820791 
L 154.280653 -227.827484 
L 156.148744 -231.263703 
L 156.148744 -236.418033 
L 154.280653 -240.713308 
L 152.412562 -244.149527 
L 151.167168 -248.444802 
L 151.789865 -257.035352 
L 154.90335 -265.625901 
L 157.394138 -270.350703 
L 159.262229 -268.203066 
L 161.753017 -265.625901 
L 161.13032 -261.760154 
L 161.753017 -259.612516 
L 162.998412 -257.464879 
L 164.866503 -254.028659 
L 164.866503 -252.310549 
L 162.998412 -248.444802 
L 162.998412 -246.297165 
L 167.979988 -242.860945 
L 172.338867 -237.277088 
L 174.206958 -230.834176 
L 172.961564 -224.391264 
L 167.979988 -217.948352 
L 164.243806 -217.089297 
L 153.657956 -218.807407 
z
" style="stroke: #ffffff; stroke-width: 0.6"/>
    </defs>
    <g clip-path="url(#p05a7f55f1b)">
     <use xlink:href="#m64429cf333" x="0" y="510.357344" style="fill: #e74c3c; stroke: #ffffff; stroke-width: 0.6"/>
    </g>
   </g>
   <g id="text_1">
    <!-- Liechtenstein -->
    <g style="fill: #1a252f" transform="translate(97.148272 20.117344) scale(0.17 -0.17)">
     <defs>
      <path id="DejaVuSans-Bold-2f" d="M 588 4666 
L 1791 4666 
L 1791 909 
L 3903 909 
L 3903 0 
L 588 0 
L 588 4666 
z
" transform="scale(0.015625)"/>
      <path id="DejaVuSans-Bold-4c" d="M 538 3500 
L 1656 3500 
L 1656 0 
L 538 0 
L 538 3500 
z
M 538 4863 
L 1656 4863 
L 1656 3950 
L 538 3950 
L 538 4863 
z
" transform="scale(0.015625)"/>
      <path id="DejaVuSans-Bold-48" d="M 4031 1759 
L 4031 1441 
L 1416 1441 
Q 1456 1047 1700 850 
Q 1944 653 2381 653 
Q 2734 653 3104 758 
Q 3475 863 3866 1075 
L 3866 213 
Q 3469 63 3072 -14 
Q 2675 -91 2278 -91 
Q 1328 -91 801 392 
Q 275 875 275 1747 
Q 275 2603 792 3093 
Q 1309 3584 2216 3584 
Q 3041 3584 3536 3087 
Q 4031 2591 4031 1759 
z
M 2881 2131 
Q 2881 2450 2695 2645 
Q 2509 2841 2209 2841 
Q 1884 2841 1681 2658 
Q 1478 2475 1428 2131 
L 2881 2131 
z
" transform="scale(0.015625)"/>
      <path id="DejaVuSans-Bold-46" d="M 3366 3391 
L 3366 2478 
Q 3138 2634 2908 2709 
Q 2678 2784 2431 2784 
Q 1963 2784 1702 2511 
Q 1441 2238 1441 1747 
Q 1441 1256 1702 982 
Q 1963 709 2431 709 
Q 2694 709 2930 787 
Q 3166 866 3366 1019 
L 3366 103 
Q 3103 6 2833 -42 
Q 2563 -91 2291 -91 
Q 1344 -91 809 395 
Q 275 881 275 1747 
Q 275 2613 809 3098 
Q 1344 3584 2291 3584 
Q 2566 3584 2833 3536 
Q 3100 3488 3366 3391 
z
" transform="scale(0.015625)"/>
      <path id="DejaVuSans-Bold-4b" d="M 4056 2131 
L 4056 0 
L 2931 0 
L 2931 347 
L 2931 1625 
Q 2931 2084 2911 2256 
Q 2891 2428 2841 2509 
Q 2775 2619 2662 2680 
Q 2550 2741 2406 2741 
Q 2056 2741 1856 2470 
Q 1656 2200 1656 1722 
L 1656 0 
L 538 0 
L 538 4863 
L 1656 4863 
L 1656 2988 
Q 1909 3294 2193 3439 
Q 2478 3584 2822 3584 
Q 3428 3584 3742 3212 
Q 4056 2841 4056 2131 
z
" transform="scale(0.015625)"/>
      <path id="DejaVuSans-Bold-57" d="M 1759 4494 
L 1759 3500 
L 2913 3500 
L 2913 2700 
L 1759 2700 
L 1759 1216 
Q 1759 972 1856 886 
Q 1953 800 2241 800 
L 2816 800 
L 2816 0 
L 1856 0 
Q 1194 0 917 276 
Q 641 553 641 1216 
L 641 2700 
L 84 2700 
L 84 3500 
L 641 3500 
L 641 4494 
L 1759 4494 
z
" transform="scale(0.015625)"/>
      <path id="DejaVuSans-Bold-51" d="M 4056 2131 
L 4056 0 
L 2931 0 
L 2931 347 
L 2931 1631 
Q 2931 2084 2911 2256 
Q 2891 2428 2841 2509 
Q 2775 2619 2662 2680 
Q 2550 2741 2406 2741 
Q 2056 2741 1856 2470 
Q 1656 2200 1656 1722 
L 1656 0 
L 538 0 
L 538 3500 
L 1656 3500 
L 1656 2988 
Q 1909 3294 2193 3439 
Q 2478 3584 2822 3584 
Q 3428 3584 3742 3212 
Q 4056 2841 4056 2131 
z
" transform="scale(0.015625)"/>
      <path id="DejaVuSans-Bold-56" d="M 3272 3391 
L 3272 2541 
Q 2913 2691 2578 2766 
Q 2244 2841 1947 2841 
Q 1628 2841 1473 2761 
Q 1319 2681 1319 2516 
Q 1319 2381 1436 2309 
Q 1553 2238 1856 2203 
L 2053 2175 
Q 2913 2066 3209 1816 
Q 3506 1566 3506 1031 
Q 3506 472 3093 190 
Q 2681 -91 1863 -91 
Q 1516 -91 1145 -36 
Q 775 19 384 128 
L 384 978 
Q 719 816 1070 734 
Q 1422 653 1784 653 
Q 2113 653 2278 743 
Q 2444 834 2444 1013 
Q 2444 1163 2330 1236 
Q 2216 1309 1875 1350 
L 1678 1375 
Q 931 1469 631 1722 
Q 331 1975 331 2491 
Q 331 3047 712 3315 
Q 1094 3584 1881 3584 
Q 2191 3584 2531 3537 
Q 2872 3491 3272 3391 
z
" transform="scale(0.015625)"/>
     </defs>
     <use xlink:href="#DejaVuSans-Bold-2f"/>
     <use xlink:href="#DejaVuSans-Bold-4c" transform="translate(63.71875 0)"/>
     <use xlink:href="#DejaVuSans-Bold-48" transform="translate(98 0)"/>
     <use xlink:href="#DejaVuSans-Bold-46" transform="translate(165.828125 0)"/>
     <use xlink:href="#DejaVuSans-Bold-4b" transform="translate(225.109375 0)"/>
     <use xlink:href="#DejaVuSans-Bold-57" transform="translate(296.296875 0)"/>
     <use xlink:href="#DejaVuSans-Bold-48" transform="translate(344.09375 0)"/>
     <use xlink:href="#DejaVuSans-Bold-51" transform="translate(411.921875 0)"/>
     <use xlink:href="#DejaVuSans-Bold-56" transform="translate(483.109375 0)"/>
     <use xlink:href="#DejaVuSans-Bold-57" transform="translate(542.625 0)"/>
     <use xlink:href="#DejaVuSans-Bold-48" transform="translate(590.421875 0)"/>
     <use xlink:href="#DejaVuSans-Bold-4c" transform="translate(658.25 0)"/>
     <use xlink:href="#DejaVuSans-Bold-51" transform="translate(692.53125 0)"/>
    </g>
   </g>
   <g id="line2d_1">
    <path d="M 121.019447 286.339624 
" clip-path="url(#p05a7f55f1b)" style="fill: none; stroke: #ffffff; stroke-width: 1.5; stroke-linecap: square"/>
    <defs>
     <path id="mf1e2c7a5c4" d="M 0 2.5 
C 0.663008 2.5 1.29895 2.236584 1.767767 1.767767 
C 2.236584 1.29895 2.5 0.663008 2.5 0 
C 2.5 -0.663008 2.236584 -1.29895 1.767767 -1.767767 
C 1.29895 -2.236584 0.663008 -2.5 0 -2.5 
C -0.663008 -2.5 -1.29895 -2.236584 -1.767767 -1.767767 
C -2.236584 -1.29895 -2.5 -0.663008 -2.5 0 
C -2.5 0.663008 -2.236584 1.29895 -1.767767 1.767767 
C -1.29895 2.236584 -0.663008 2.5 0 2.5 
z
" style="stroke: #1a252f; stroke-width: 0.8"/>
    </defs>
    <g clip-path="url(#p05a7f55f1b)">
     <use xlink:href="#mf1e2c7a5c4" x="121.019447" y="286.339624" style="fill: #ffffff; stroke: #1a252f; stroke-width: 0.8"/>
    </g>
   </g>
   <g id="text_2">
    <g clip-path="url(#p05a7f55f1b)">
     <!-- Vaduz -->
     <g style="fill: #ffffff" transform="translate(138.680692 288.288159) scale(0.075 -0.075)">
      <defs>
       <path id="DejaVuSans-Bold-39" d="M 31 4666 
L 1241 4666 
L 2478 1222 
L 3713 4666 
L 4922 4666 
L 3194 0 
L 1759 0 
L 31 4666 
z
" transform="scale(0.015625)"/>
       <path id="DejaVuSans-Bold-44" d="M 2106 1575 
Q 1756 1575 1579 1456 
Q 1403 1338 1403 1106 
Q 1403 894 1545 773 
Q 1688 653 1941 653 
Q 2256 653 2472 879 
Q 2688 1106 2688 1447 
L 2688 1575 
L 2106 1575 
z
M 3816 1997 
L 3816 0 
L 2688 0 
L 2688 519 
Q 2463 200 2181 54 
Q 1900 -91 1497 -91 
Q 953 -91 614 226 
Q 275 544 275 1050 
Q 275 1666 698 1953 
Q 1122 2241 2028 2241 
L 2688 2241 
L 2688 2328 
Q 2688 2594 2478 2717 
Q 2269 2841 1825 2841 
Q 1466 2841 1156 2769 
Q 847 2697 581 2553 
L 581 3406 
Q 941 3494 1303 3539 
Q 1666 3584 2028 3584 
Q 2975 3584 3395 3211 
Q 3816 2838 3816 1997 
z
" transform="scale(0.015625)"/>
       <path id="DejaVuSans-Bold-47" d="M 2919 2988 
L 2919 4863 
L 4044 4863 
L 4044 0 
L 2919 0 
L 2919 506 
Q 2688 197 2409 53 
Q 2131 -91 1766 -91 
Q 1119 -91 703 423 
Q 288 938 288 1747 
Q 288 2556 703 3070 
Q 1119 3584 1766 3584 
Q 2128 3584 2408 3439 
Q 2688 3294 2919 2988 
z
M 2181 722 
Q 2541 722 2730 984 
Q 2919 1247 2919 1747 
Q 2919 2247 2730 2509 
Q 2541 2772 2181 2772 
Q 1825 2772 1636 2509 
Q 1447 2247 1447 1747 
Q 1447 1247 1636 984 
Q 1825 722 2181 722 
z
" transform="scale(0.015625)"/>
       <path id="DejaVuSans-Bold-58" d="M 500 1363 
L 500 3500 
L 1625 3500 
L 1625 3150 
Q 1625 2866 1622 2436 
Q 1619 2006 1619 1863 
Q 1619 1441 1641 1255 
Q 1663 1069 1716 984 
Q 1784 875 1895 815 
Q 2006 756 2150 756 
Q 2500 756 2700 1025 
Q 2900 1294 2900 1772 
L 2900 3500 
L 4019 3500 
L 4019 0 
L 2900 0 
L 2900 506 
Q 2647 200 2364 54 
Q 2081 -91 1741 -91 
Q 1134 -91 817 281 
Q 500 653 500 1363 
z
" transform="scale(0.015625)"/>
       <path id="DejaVuSans-Bold-5d" d="M 366 3500 
L 3419 3500 
L 3419 2719 
L 1575 800 
L 3419 800 
L 3419 0 
L 288 0 
L 288 781 
L 2131 2700 
L 366 2700 
L 366 3500 
z
" transform="scale(0.015625)"/>
      </defs>
      <use xlink:href="#DejaVuSans-Bold-39"/>
      <use xlink:href="#DejaVuSans-Bold-44" transform="translate(71.921875 0)"/>
      <use xlink:href="#DejaVuSans-Bold-47" transform="translate(139.40625 0)"/>
      <use xlink:href="#DejaVuSans-Bold-58" transform="translate(210.984375 0)"/>
      <use xlink:href="#DejaVuSans-Bold-5d" transform="translate(282.171875 0)"/>
     </g>
    </g>
   </g>
   <g id="legend_1">
    <g id="patch_2">
     <path d="M 13.5 498.657344 
L 102.733594 498.657344 
Q 104.533594 498.657344 104.533594 496.857344 
L 104.533594 470.755937 
Q 104.533594 468.955937 102.733594 468.955937 
L 13.5 468.955937 
Q 11.7 468.955937 11.7 470.755937 
L 11.7 496.857344 
Q 11.7 498.657344 13.5 498.657344 
z
" style="fill: #ffffff; opacity: 0.85; stroke: #cccccc; stroke-linejoin: miter"/>
    </g>
    <g id="patch_3">
     <path d="M 15.3 479.394531 
L 33.3 479.394531 
L 33.3 473.094531 
L 15.3 473.094531 
z
" style="fill: #e74c3c; stroke: #888888; stroke-linejoin: miter"/>
    </g>
    <g id="text_3">
     <!-- Liechtenstein -->
     <g transform="translate(40.5 479.394531) scale(0.09 -0.09)">
      <defs>
       <path id="DejaVuSans-2f" d="M 628 4666 
L 1259 4666 
L 1259 531 
L 3531 531 
L 3531 0 
L 628 0 
L 628 4666 
z
" transform="scale(0.015625)"/>
       <path id="DejaVuSans-4c" d="M 603 3500 
L 1178 3500 
L 1178 0 
L 603 0 
L 603 3500 
z
M 603 4863 
L 1178 4863 
L 1178 4134 
L 603 4134 
L 603 4863 
z
" transform="scale(0.015625)"/>
       <path id="DejaVuSans-48" d="M 3597 1894 
L 3597 1613 
L 953 1613 
Q 991 1019 1311 708 
Q 1631 397 2203 397 
Q 2534 397 2845 478 
Q 3156 559 3463 722 
L 3463 178 
Q 3153 47 2828 -22 
Q 2503 -91 2169 -91 
Q 1331 -91 842 396 
Q 353 884 353 1716 
Q 353 2575 817 3079 
Q 1281 3584 2069 3584 
Q 2775 3584 3186 3129 
Q 3597 2675 3597 1894 
z
M 3022 2063 
Q 3016 2534 2758 2815 
Q 2500 3097 2075 3097 
Q 1594 3097 1305 2825 
Q 1016 2553 972 2059 
L 3022 2063 
z
" transform="scale(0.015625)"/>
       <path id="DejaVuSans-46" d="M 3122 3366 
L 3122 2828 
Q 2878 2963 2633 3030 
Q 2388 3097 2138 3097 
Q 1578 3097 1268 2742 
Q 959 2388 959 1747 
Q 959 1106 1268 751 
Q 1578 397 2138 397 
Q 2388 397 2633 464 
Q 2878 531 3122 666 
L 3122 134 
Q 2881 22 2623 -34 
Q 2366 -91 2075 -91 
Q 1284 -91 818 406 
Q 353 903 353 1747 
Q 353 2603 823 3093 
Q 1294 3584 2113 3584 
Q 2378 3584 2631 3529 
Q 2884 3475 3122 3366 
z
" transform="scale(0.015625)"/>
       <path id="DejaVuSans-4b" d="M 3513 2113 
L 3513 0 
L 2938 0 
L 2938 2094 
Q 2938 2591 2744 2837 
Q 2550 3084 2163 3084 
Q 1697 3084 1428 2787 
Q 1159 2491 1159 1978 
L 1159 0 
L 581 0 
L 581 4863 
L 1159 4863 
L 1159 2956 
Q 1366 3272 1645 3428 
Q 1925 3584 2291 3584 
Q 2894 3584 3203 3211 
Q 3513 2838 3513 2113 
z
" transform="scale(0.015625)"/>
       <path id="DejaVuSans-57" d="M 1172 4494 
L 1172 3500 
L 2356 3500 
L 2356 3053 
L 1172 3053 
L 1172 1153 
Q 1172 725 1289 603 
Q 1406 481 1766 481 
L 2356 481 
L 2356 0 
L 1766 0 
Q 1100 0 847 248 
Q 594 497 594 1153 
L 594 3053 
L 172 3053 
L 172 3500 
L 594 3500 
L 594 4494 
L 1172 4494 
z
" transform="scale(0.015625)"/>
       <path id="DejaVuSans-51" d="M 3513 2113 
L 3513 0 
L 2938 0 
L 2938 2094 
Q 2938 2591 2744 2837 
Q 2550 3084 2163 3084 
Q 1697 3084 1428 2787 
Q 1159 2491 1159 1978 
L 1159 0 
L 581 0 
L 581 3500 
L 1159 3500 
L 1159 2956 
Q 1366 3272 1645 3428 
Q 1925 3584 2291 3584 
Q 2894 3584 3203 3211 
Q 3513 2838 3513 2113 
z
" transform="scale(0.015625)"/>
       <path id="DejaVuSans-56" d="M 2834 3397 
L 2834 2853 
Q 2591 2978 2328 3040 
Q 2066 3103 1784 3103 
Q 1356 3103 1142 2972 
Q 928 2841 928 2578 
Q 928 2378 1081 2264 
Q 1234 2150 1697 2047 
L 1894 2003 
Q 2506 1872 2764 1633 
Q 3022 1394 3022 966 
Q 3022 478 2636 193 
Q 2250 -91 1575 -91 
Q 1294 -91 989 -36 
Q 684 19 347 128 
L 347 722 
Q 666 556 975 473 
Q 1284 391 1588 391 
Q 1994 391 2212 530 
Q 2431 669 2431 922 
Q 2431 1156 2273 1281 
Q 2116 1406 1581 1522 
L 1381 1569 
Q 847 1681 609 1914 
Q 372 2147 372 2553 
Q 372 3047 722 3315 
Q 1072 3584 1716 3584 
Q 2034 3584 2315 3537 
Q 2597 3491 2834 3397 
z
" transform="scale(0.015625)"/>
      </defs>
      <use xlink:href="#DejaVuSans-2f"/>
      <use xlink:href="#DejaVuSans-4c" transform="translate(55.71875 0)"/>
      <use xlink:href="#DejaVuSans-48" transform="translate(83.5 0)"/>
      <use xlink:href="#DejaVuSans-46" transform="translate(145.03125 0)"/>
      <use xlink:href="#DejaVuSans-4b" transform="translate(200.015625 0)"/>
      <use xlink:href="#DejaVuSans-57" transform="translate(263.390625 0)"/>
      <use xlink:href="#DejaVuSans-48" transform="translate(302.59375 0)"/>
      <use xlink:href="#DejaVuSans-51" transform="translate(364.125 0)"/>
      <use xlink:href="#DejaVuSans-56" transform="translate(427.5 0)"/>
      <use xlink:href="#DejaVuSans-57" transform="translate(479.59375 0)"/>
      <use xlink:href="#DejaVuSans-48" transform="translate(518.796875 0)"/>
      <use xlink:href="#DejaVuSans-4c" transform="translate(580.328125 0)"/>
      <use xlink:href="#DejaVuSans-51" transform="translate(608.109375 0)"/>
     </g>
    </g>
    <g id="patch_4">
     <path d="M 15.3 492.895234 
L 33.3 492.895234 
L 33.3 486.595234 
L 15.3 486.595234 
z
" style="fill: #bdc3c7; stroke: #888888; stroke-linejoin: miter"/>
    </g>
    <g id="text_4">
     <!-- Neighbors -->
     <g transform="translate(40.5 492.895234) scale(0.09 -0.09)">
      <defs>
       <path id="DejaVuSans-31" d="M 628 4666 
L 1478 4666 
L 3547 763 
L 3547 4666 
L 4159 4666 
L 4159 0 
L 3309 0 
L 1241 3903 
L 1241 0 
L 628 0 
L 628 4666 
z
" transform="scale(0.015625)"/>
       <path id="DejaVuSans-4a" d="M 2906 1791 
Q 2906 2416 2648 2759 
Q 2391 3103 1925 3103 
Q 1463 3103 1205 2759 
Q 947 2416 947 1791 
Q 947 1169 1205 825 
Q 1463 481 1925 481 
Q 2391 481 2648 825 
Q 2906 1169 2906 1791 
z
M 3481 434 
Q 3481 -459 3084 -895 
Q 2688 -1331 1869 -1331 
Q 1566 -1331 1297 -1286 
Q 1028 -1241 775 -1147 
L 775 -588 
Q 1028 -725 1275 -790 
Q 1522 -856 1778 -856 
Q 2344 -856 2625 -561 
Q 2906 -266 2906 331 
L 2906 616 
Q 2728 306 2450 153 
Q 2172 0 1784 0 
Q 1141 0 747 490 
Q 353 981 353 1791 
Q 353 2603 747 3093 
Q 1141 3584 1784 3584 
Q 2172 3584 2450 3431 
Q 2728 3278 2906 2969 
L 2906 3500 
L 3481 3500 
L 3481 434 
z
" transform="scale(0.015625)"/>
       <path id="DejaVuSans-45" d="M 3116 1747 
Q 3116 2381 2855 2742 
Q 2594 3103 2138 3103 
Q 1681 3103 1420 2742 
Q 1159 2381 1159 1747 
Q 1159 1113 1420 752 
Q 1681 391 2138 391 
Q 2594 391 2855 752 
Q 3116 1113 3116 1747 
z
M 1159 2969 
Q 1341 3281 1617 3432 
Q 1894 3584 2278 3584 
Q 2916 3584 3314 3078 
Q 3713 2572 3713 1747 
Q 3713 922 3314 415 
Q 2916 -91 2278 -91 
Q 1894 -91 1617 61 
Q 1341 213 1159 525 
L 1159 0 
L 581 0 
L 581 4863 
L 1159 4863 
L 1159 2969 
z
" transform="scale(0.015625)"/>
       <path id="DejaVuSans-52" d="M 1959 3097 
Q 1497 3097 1228 2736 
Q 959 2375 959 1747 
Q 959 1119 1226 758 
Q 1494 397 1959 397 
Q 2419 397 2687 759 
Q 2956 1122 2956 1747 
Q 2956 2369 2687 2733 
Q 2419 3097 1959 3097 
z
M 1959 3584 
Q 2709 3584 3137 3096 
Q 3566 2609 3566 1747 
Q 3566 888 3137 398 
Q 2709 -91 1959 -91 
Q 1206 -91 779 398 
Q 353 888 353 1747 
Q 353 2609 779 3096 
Q 1206 3584 1959 3584 
z
" transform="scale(0.015625)"/>
       <path id="DejaVuSans-55" d="M 2631 2963 
Q 2534 3019 2420 3045 
Q 2306 3072 2169 3072 
Q 1681 3072 1420 2755 
Q 1159 2438 1159 1844 
L 1159 0 
L 581 0 
L 581 3500 
L 1159 3500 
L 1159 2956 
Q 1341 3275 1631 3429 
Q 1922 3584 2338 3584 
Q 2397 3584 2469 3576 
Q 2541 3569 2628 3553 
L 2631 2963 
z
" transform="scale(0.015625)"/>
      </defs>
      <use xlink:href="#DejaVuSans-31"/>
      <use xlink:href="#DejaVuSans-48" transform="translate(74.8125 0)"/>
      <use xlink:href="#DejaVuSans-4c" transform="translate(136.34375 0)"/>
      <use xlink:href="#DejaVuSans-4a" transform="translate(164.125 0)"/>
      <use xlink:href="#DejaVuSans-4b" transform="translate(227.609375 0)"/>
      <use xlink:href="#DejaVuSans-45" transform="translate(290.984375 0)"/>
      <use xlink:href="#DejaVuSans-52" transform="translate(354.46875 0)"/>
      <use xlink:href="#DejaVuSans-55" transform="translate(415.65625 0)"/>
      <use xlink:href="#DejaVuSans-56" transform="translate(456.765625 0)"/>
     </g>
    </g>
   </g>
  </g>
 </g>
 <defs>
  <clipPath id="p05a7f55f1b">
   <rect x="7.2" y="30.117344" width="309.728732" height="473.04"/>
  </clipPath>
 </defs>
</svg>
