<?xml version="1.0" encoding="utf-8" standalone="no"?>
<!DOCTYPE svg PUBLIC "-//W3C//DTD SVG 1.1//EN"
  "http://www.w3.org/Graphics/SVG/1.1/DTD/svg11.dtd">
<svg xmlns:xlink="http://www.w3.org/1999/xlink" width="308.209119pt" height="510.357344pt" viewBox="0 0 308.209119 510.357344" xmlns="http://www.w3.org/2000/svg" version="1.1">
 <metadata>
  <rdf:RDF xmlns:dc="http://purl.org/dc/elements/1.1/" xmlns:cc="http://creativecommons.org/ns#" xmlns:rdf="http://www.w3.org/1999/02/22-rdf-syntax-ns#">
   <cc:Work>
    <dc:type rdf:resource="http://purl.org/dc/dcmitype/StillImage"/>
    <dc:date>2026-06-19T08:14:13.481882</dc:date>
    <dc:format>image/svg+xml</dc:format>
    <dc:creator>
     <cc:Agent>
      <dc:title>Matplotlib v3.11.0, https://matplotlib.org/</dc:title>
     </cc:Agent>
    </dc:creator>
   </cc:Work>
  </rdf:RDF>
 </metadata>
 <defs>
  <style type="text/css">*{stroke-linejoin: round; stroke-linecap: butt}</style>
 </defs>
 <g id="figure_1">
  <g id="patch_1">
   <path d="M 0 510.357344 
L 308.209119 510.357344 
L 308.209119 0 
L 0 0 
z
" style="fill: #d6eaf8"/>
  </g>
  <g id="axes_1">
   <g id="PatchCollection_1">
    <path d="M -5329.072095 200.212843 
L 3371.947983 200.212843 
L 3370.468795 201.635302 
L 3370.294773 201.678407 
L 3369.859717 201.721511 
L 3369.598684 201.807721 
L 3369.424662 201.98014 
L 3369.163629 202.368083 
L 3369.076618 202.583607 
L 3368.728573 202.885341 
L 3368.554551 203.100865 
L 3368.554551 203.187075 
L 3368.380529 203.316389 
L 3368.032485 203.919856 
L 3367.075363 205.342315 
L 3366.640308 205.644048 
L 3366.640308 206.161306 
L 3366.205252 206.937193 
L 3365.596175 207.626869 
L 3365.074108 207.885498 
L 3364.552042 208.057917 
L 3362.202743 209.652795 
L 3362.115732 209.825214 
L 3361.94171 209.997633 
L 3361.854699 210.385577 
L 3361.854699 210.68731 
L 3361.854699 211.075254 
L 3361.767688 211.506302 
L 3361.593666 211.85114 
L 3361.332632 212.109769 
L 3360.723555 212.497712 
L 3360.462522 212.713236 
L 3360.2885 212.885655 
L 3360.027466 213.359808 
L 3359.853444 213.446018 
L 3359.5054 213.575332 
L 3359.331378 213.704646 
L 3359.592411 213.963275 
L 3359.679422 214.394323 
L 3359.592411 214.868476 
L 3359.331378 215.256419 
L 3359.5054 215.428839 
L 3359.940455 215.17021 
L 3360.375511 215.040895 
L 3360.723555 215.084 
L 3360.984588 215.428839 
L 3361.332632 215.17021 
L 3361.94171 214.523638 
L 3362.289754 214.394323 
L 3362.550787 214.351219 
L 3362.811821 214.221904 
L 3363.072854 214.00638 
L 3363.159865 213.790856 
L 3363.246876 213.446018 
L 3363.507909 213.316703 
L 3363.768942 213.273598 
L 3364.029976 213.187389 
L 3364.029976 213.058074 
L 3364.116987 212.713236 
L 3364.203998 212.627026 
L 3364.291009 212.583922 
L 3364.552042 212.540817 
L 3364.639053 212.454607 
L 3364.813075 212.195978 
L 3365.074108 211.549406 
L 3365.248131 211.333882 
L 3365.509164 211.204568 
L 3365.683186 211.118358 
L 3365.857208 211.032149 
L 3365.944219 210.816625 
L 3366.03123 210.601101 
L 3366.292263 210.471786 
L 3366.640308 210.385577 
L 3367.423407 209.825214 
L 3367.945474 209.437271 
L 3368.119496 209.049328 
L 3368.380529 208.876909 
L 3369.598684 208.273441 
L 3369.772706 208.101022 
L 3369.859717 207.928603 
L 3369.946728 207.799289 
L 3370.120751 207.713079 
L 3370.468795 207.713079 
L 3370.555806 207.842393 
L 3370.555806 208.057917 
L 3370.816839 208.661385 
L 3370.729828 208.876909 
L 3370.555806 209.092433 
L 3370.381784 209.264852 
L 3370.120751 209.997633 
L 3369.25064 211.592511 
L 3369.25064 211.721826 
L 3369.337651 212.023559 
L 3369.25064 212.109769 
L 3369.163629 212.152874 
L 3368.902596 212.109769 
L 3368.815584 212.109769 
L 3368.293518 212.799446 
L 3368.902596 212.84255 
L 3369.337651 213.144284 
L 3369.598684 213.618437 
L 3369.598684 214.221904 
L 3369.946728 214.178799 
L 3370.381784 214.265009 
L 3370.729828 214.523638 
L 3370.816839 214.911581 
L 3370.555806 215.084 
L 3370.207762 215.040895 
L 3369.424662 214.739162 
L 3369.511673 214.911581 
L 3369.685695 215.299524 
L 3369.772706 215.428839 
L 3369.424662 215.342629 
L 3369.25064 215.256419 
L 3368.902596 215.515048 
L 3368.641562 215.428839 
L 3368.554551 215.084 
L 3368.641562 214.739162 
L 3367.771452 214.696057 
L 3367.423407 214.566743 
L 3367.162374 214.221904 
L 3366.640308 214.394323 
L 3366.118241 214.351219 
L 3365.683186 214.265009 
L 3365.335142 214.221904 
L 3365.074108 214.308114 
L 3364.726064 214.652952 
L 3364.37802 214.739162 
L 3364.116987 214.739162 
L 3363.855953 214.782267 
L 3363.768942 214.954686 
L 3363.681931 215.256419 
L 3363.507909 214.997791 
L 3363.507909 214.911581 
L 3363.333887 214.911581 
L 3363.072854 215.428839 
L 3362.202743 216.032306 
L 3361.854699 216.506459 
L 3361.419643 216.118515 
L 3360.984588 216.075411 
L 3359.940455 216.334039 
L 3359.157356 216.334039 
L 3358.7223 216.463354 
L 3358.374256 216.678878 
L 3357.504145 216.377144 
L 3356.895068 216.334039 
L 3354.980824 216.506459 
L 3354.980824 216.420249 
L 3355.241857 216.24783 
L 3355.41588 215.902991 
L 3355.589902 215.558153 
L 3356.024957 215.428839 
L 3356.373001 215.256419 
L 3356.198979 214.911581 
L 3356.28599 214.566743 
L 3356.024957 214.394323 
L 3355.241857 214.221904 
L 3354.63278 213.747751 
L 3354.197725 213.489122 
L 3354.023702 213.618437 
L 3353.762669 213.618437 
L 3351.935437 214.351219 
L 3351.500381 214.652952 
L 3350.717282 215.256419 
L 3350.891304 215.687467 
L 3350.717282 216.032306 
L 3350.456249 216.334039 
L 3350.108204 216.506459 
L 3349.325105 216.290935 
L 3348.890049 216.937507 
L 3348.280972 218.747908 
L 3348.890049 218.359965 
L 3349.151082 218.31686 
L 3349.586138 218.40307 
L 3349.325105 218.704804 
L 3348.716027 219.178956 
L 3348.454994 219.437585 
L 3348.280972 219.437585 
L 3347.932927 219.308271 
L 3346.975806 219.049642 
L 3346.714772 218.834118 
L 3346.54075 218.618594 
L 3346.54075 218.446175 
L 3346.453739 218.273756 
L 3346.018684 218.187546 
L 3345.844662 218.015127 
L 3345.757651 217.799603 
L 3345.757651 217.540974 
L 3345.583629 217.540974 
L 3345.583629 218.058232 
L 3345.235584 217.842707 
L 3344.974551 217.799603 
L 3344.713518 217.885812 
L 3344.452485 218.058232 
L 3343.495363 218.920328 
L 3343.321341 219.178956 
L 3343.147319 220.170367 
L 3342.973296 220.342786 
L 3342.712263 220.428996 
L 3342.625252 220.601415 
L 3342.973296 220.860044 
L 3342.103186 221.463511 
L 3342.016175 221.549721 
L 3341.320086 221.592825 
L 3341.059053 221.549721 
L 3340.623998 221.377301 
L 3340.362964 221.075568 
L 3340.101931 220.342786 
L 3339.840898 219.523795 
L 3339.840898 218.834118 
L 3339.579865 218.359965 
L 3339.057798 217.842707 
L 3338.796765 217.282345 
L 3338.970787 216.506459 
L 3338.448721 216.290935 
L 3338.274699 216.118515 
L 3338.187688 215.816782 
L 3336.708499 216.549563 
L 3336.012411 216.678878 
L 3335.316322 216.16162 
L 3335.490344 216.075411 
L 3335.490344 215.989201 
L 3335.229311 215.730572 
L 3335.229311 215.428839 
L 3335.316322 215.299524 
L 3335.490344 215.428839 
L 3335.664366 215.428839 
L 3335.577355 214.954686 
L 3335.838389 214.523638 
L 3336.708499 213.877066 
L 3336.708499 214.394323 
L 3336.882521 214.178799 
L 3336.969533 213.877066 
L 3337.056544 213.704646 
L 3337.317577 213.877066 
L 3337.491599 213.489122 
L 3337.752632 212.885655 
L 3337.839643 212.454607 
L 3337.317577 212.756341 
L 3336.969533 212.713236 
L 3336.708499 212.411502 
L 3336.534477 211.93735 
L 3337.404588 211.592511 
L 3337.665621 211.592511 
L 3337.839643 211.721826 
L 3338.100676 212.109769 
L 3338.274699 212.282188 
L 3338.535732 212.368398 
L 3339.318831 212.454607 
L 3340.101931 212.92876 
L 3340.275953 212.971865 
L 3340.623998 212.92876 
L 3340.711009 212.799446 
L 3340.79802 212.670131 
L 3340.972042 212.454607 
L 3342.277208 211.290778 
L 3342.625252 211.118358 
L 3342.886285 211.376987 
L 3342.973296 212.109769 
L 3343.321341 211.980454 
L 3343.408352 211.808035 
L 3343.321341 211.161463 
L 3343.408352 210.85973 
L 3344.10444 209.825214 
L 3344.191451 209.954529 
L 3344.278462 210.213157 
L 3344.278462 210.385577 
L 3344.452485 210.256262 
L 3344.626507 210.126948 
L 3344.626507 209.954529 
L 3344.626507 209.652795 
L 3344.800529 209.652795 
L 3345.061562 209.997633 
L 3345.322595 209.739005 
L 3345.583629 209.351061 
L 3345.844662 209.092433 
L 3346.105695 208.963118 
L 3346.018684 208.661385 
L 3345.844662 208.273441 
L 3345.757651 207.885498 
L 3345.844662 207.971708 
L 3346.192706 208.057917 
L 3346.279717 208.101022 
L 3346.366728 207.626869 
L 3346.627761 207.626869 
L 3346.801784 207.799289 
L 3346.975806 207.885498 
L 3347.32385 207.842393 
L 3347.932927 207.626869 
L 3349.064071 207.497555 
L 3350.369237 207.023402 
L 3351.065326 206.850983 
L 3351.848426 206.894088 
L 3352.109459 206.850983 
L 3352.109459 206.764773 
L 3352.283481 206.419935 
L 3352.370492 206.29062 
L 3352.544514 206.247516 
L 3352.97957 206.161306 
L 3353.153592 206.075096 
L 3353.588647 206.075096 
L 3354.284736 206.247516 
L 3354.980824 206.333725 
L 3355.41588 205.988887 
L 3355.763924 206.29062 
L 3355.937946 206.204411 
L 3356.111968 205.945782 
L 3356.460012 205.816468 
L 3356.634035 205.859572 
L 3356.808057 206.247516 
L 3356.982079 206.29062 
L 3357.156101 206.29062 
L 3357.243112 206.247516 
L 3357.330123 206.247516 
L 3357.504145 206.29062 
L 3357.504145 205.945782 
L 3357.330123 205.557839 
L 3357.156101 205.256105 
L 3356.895068 205.083686 
L 3357.156101 204.868162 
L 3357.417134 204.781952 
L 3357.678167 204.781952 
L 3357.85219 204.911267 
L 3358.026212 204.480219 
L 3358.200234 204.049171 
L 3358.461267 203.790542 
L 3358.809311 204.049171 
L 3358.983333 203.618123 
L 3359.070345 203.23018 
L 3359.157356 202.885341 
L 3359.5054 202.669817 
L 3360.375511 202.712922 
L 3360.723555 202.583607 
L 3360.375511 202.152559 
L 3360.636544 202.152559 
L 3360.897577 202.281874 
L 3361.071599 202.540503 
L 3361.15861 202.842236 
L 3361.419643 201.937035 
L 3361.506655 201.635302 
L 3361.593666 201.937035 
L 3361.854699 202.06635 
L 3362.115732 202.152559 
L 3362.376765 202.324979 
L 3362.550787 202.109455 
L 3362.72481 202.06635 
L 3362.898832 202.238769 
L 3362.985843 202.497398 
L 3362.985843 202.109455 
L 3363.072854 201.98014 
L 3363.246876 201.937035 
L 3363.420898 201.98014 
L 3363.59492 201.893931 
L 3363.59492 201.721511 
L 3363.681931 201.505987 
L 3363.681931 201.462883 
L 3363.768942 201.462883 
L 3363.942965 201.505987 
L 3364.029976 201.592197 
L 3364.116987 201.635302 
L 3364.552042 201.635302 
L 3364.726064 201.592197 
L 3364.813075 201.376673 
L 3364.987097 201.204254 
L 3365.509164 200.945625 
L 3366.292263 200.514577 
L 3366.379275 200.90252 
L 3366.466286 201.505987 
L 3366.640308 201.807721 
L 3366.901341 201.678407 
L 3367.423407 201.204254 
L 3367.771452 201.118044 
L 3368.032485 201.204254 
L 3368.119496 201.333568 
L 3368.032485 201.505987 
L 3367.771452 201.635302 
L 3368.032485 201.721511 
L 3368.380529 201.721511 
L 3368.46754 201.807721 
L 3368.728573 201.419778 
L 3369.598684 200.686996 
L 3369.772706 200.471472 
L 3371.512928 199.695586 
L 3371.947983 199.695586 
z
" clip-path="url(#pbef9925d64)" style="fill: #bdc3c7; stroke: #ffffff; stroke-width: 0.5"/>
    <path d="M 3305.558536 245.731515 
L 3305.558536 245.515991 
L 3305.90658 245.084943 
L 3305.993591 244.826314 
L 3305.993591 244.481475 
L 3305.90658 244.309056 
L 3305.732558 244.136637 
L 3305.732558 243.878008 
L 3305.819569 243.36075 
L 3306.254625 243.145226 
L 3307.385768 243.102122 
L 3307.994846 242.843493 
L 3308.168868 242.714178 
L 3308.429901 242.45555 
L 3308.429901 242.240026 
L 3308.429901 242.024502 
L 3308.34289 241.765873 
L 3308.34289 240.903777 
L 3308.429901 240.558938 
L 3308.516912 240.515834 
L 3308.603923 240.558938 
L 3309.474034 240.817567 
L 3309.648056 240.817567 
L 3309.909089 240.558938 
L 3309.996101 240.386519 
L 3309.909089 240.2141 
L 3309.822078 239.998576 
L 3309.822078 239.739947 
L 3309.735067 239.222689 
L 3309.648056 238.964061 
L 3309.648056 238.748537 
L 3309.387023 238.619222 
L 3309.213001 238.533013 
L 3309.038979 238.360593 
L 3308.864957 237.757126 
L 3309.12599 237.498497 
L 3309.561045 237.326078 
L 3309.822078 236.851925 
L 3309.909089 236.679506 
L 3310.431156 236.550192 
L 3310.692189 236.420877 
L 3310.7792 236.119144 
L 3310.692189 235.860515 
L 3310.7792 235.601886 
L 3311.040233 235.386362 
L 3311.301267 235.688096 
L 3311.475289 235.601886 
L 3311.649311 235.300152 
L 3311.475289 234.998419 
L 3311.649311 234.65358 
L 3311.910344 234.308742 
L 3312.084366 234.222532 
L 3312.345399 234.481161 
L 3312.519422 234.481161 
L 3313.476543 233.619065 
L 3314.433665 233.015598 
L 3314.520676 232.929388 
L 3314.607687 232.886284 
L 3314.607687 232.756969 
L 3314.694698 232.627655 
L 3314.868721 232.58455 
L 3315.042743 232.58455 
L 3315.216765 232.67076 
L 3315.303776 232.713864 
L 3315.216765 232.756969 
L 3315.042743 232.972493 
L 3315.129754 233.403541 
L 3315.303776 233.877694 
L 3315.477798 234.136323 
L 3315.65182 234.007008 
L 3315.477798 233.66217 
L 3315.390787 233.360436 
L 3315.390787 233.058703 
L 3315.477798 232.756969 
L 3315.65182 232.627655 
L 3316.43492 232.153502 
L 3316.608942 232.067292 
L 3317.566064 232.412131 
L 3317.653075 232.282816 
L 3317.740086 231.981083 
L 3317.827097 231.679349 
L 3317.914108 231.550035 
L 3318.175141 231.463825 
L 3318.262152 231.334511 
L 3318.436174 231.248301 
L 3318.958241 231.162091 
L 3319.045252 231.032777 
L 3319.132263 230.903463 
L 3319.393296 230.774148 
L 3319.480307 230.731043 
L 3319.567318 230.774148 
L 3319.567318 231.118987 
L 3319.567318 231.377615 
L 3319.567318 231.636244 
L 3319.393296 231.851768 
L 3319.219274 232.067292 
L 3319.654329 232.153502 
L 3320.002374 231.981083 
L 3320.263407 231.636244 
L 3320.611451 231.377615 
L 3321.133518 231.722454 
L 3321.829606 231.765559 
L 3322.525695 231.679349 
L 3323.047761 231.550035 
L 3323.74385 231.205196 
L 3324.091894 230.989672 
L 3324.352927 230.731043 
L 3324.61396 230.515519 
L 3325.223038 230.515519 
L 3325.571082 230.299995 
L 3326.354182 230.42931 
L 3327.224293 230.256891 
L 3328.007392 229.825843 
L 3328.181414 229.093061 
L 3328.703481 229.26548 
L 3329.399569 229.610319 
L 3329.921636 229.998262 
L 3330.182669 230.386205 
L 3330.26968 230.687939 
L 3330.530713 231.205196 
L 3330.530713 231.550035 
L 3330.356691 231.808663 
L 3329.747614 232.455235 
L 3329.573592 232.756969 
L 3329.834625 232.886284 
L 3329.834625 233.101808 
L 3329.747614 233.317332 
L 3329.573592 233.446646 
L 3329.834625 233.403541 
L 3330.530713 232.58455 
L 3330.965769 232.412131 
L 3331.487835 232.455235 
L 3332.009901 232.67076 
L 3332.444957 232.972493 
L 3332.70599 233.446646 
L 3332.70599 233.66217 
L 3332.618979 233.963904 
L 3332.70599 234.136323 
L 3332.793001 234.179428 
L 3333.228056 234.567371 
L 3333.315068 234.65358 
L 3333.402079 234.73979 
L 3334.3592 235.472572 
L 3334.620234 235.472572 
L 3334.881267 235.472572 
L 3335.1423 235.558781 
L 3335.577355 235.860515 
L 3336.273444 236.765716 
L 3336.447466 236.938135 
L 3336.969533 237.024345 
L 3337.491599 237.196764 
L 3337.926654 237.541602 
L 3338.187688 238.015755 
L 3338.187688 238.619222 
L 3337.926654 239.13648 
L 3337.665621 239.524423 
L 3337.491599 239.998576 
L 3337.404588 240.257205 
L 3337.404588 240.472729 
L 3337.317577 240.688253 
L 3337.404588 240.903777 
L 3337.57861 241.076196 
L 3338.013665 241.37793 
L 3338.187688 241.507244 
L 3338.187688 241.808978 
L 3338.100676 242.067606 
L 3338.100676 242.326235 
L 3338.274699 242.541759 
L 3338.622743 242.45555 
L 3338.796765 242.541759 
L 3338.709754 242.714178 
L 3338.535732 242.886598 
L 3338.796765 243.015912 
L 3338.970787 243.188331 
L 3338.970787 243.44696 
L 3338.796765 243.791799 
L 3338.709754 243.705589 
L 3338.535732 243.619379 
L 3338.535732 243.705589 
L 3338.622743 244.136637 
L 3337.926654 244.352161 
L 3338.013665 245.041838 
L 3338.448721 245.860829 
L 3338.709754 246.205667 
L 3339.23182 246.248772 
L 3339.405843 246.378087 
L 3339.579865 246.593611 
L 3339.840898 246.895344 
L 3339.927909 247.067763 
L 3339.927909 247.153973 
L 3340.01492 247.240183 
L 3340.188942 247.283287 
L 3340.362964 247.197078 
L 3340.536986 247.024659 
L 3340.623998 246.852239 
L 3340.623998 246.722925 
L 3340.79802 246.722925 
L 3340.711009 246.938449 
L 3340.536986 247.283287 
L 3340.449975 247.455707 
L 3340.449975 247.800545 
L 3340.449975 248.059174 
L 3340.362964 248.404012 
L 3340.188942 248.748851 
L 3339.840898 249.00748 
L 3339.666876 249.179899 
L 3338.448721 249.826471 
L 3337.839643 250.429938 
L 3337.839643 249.91268 
L 3337.143555 250.171309 
L 3336.882521 250.257519 
L 3337.143555 249.826471 
L 3337.143555 249.740261 
L 3337.056544 249.481632 
L 3336.882521 249.438528 
L 3336.79551 249.438528 
L 3336.621488 249.266108 
L 3336.360455 249.266108 
L 3335.664366 249.610947 
L 3335.316322 249.740261 
L 3335.403333 250.257519 
L 3334.968278 250.559252 
L 3334.446211 250.731672 
L 3334.185178 250.688567 
L 3334.185178 250.300624 
L 3334.272189 250.171309 
L 3334.185178 250.0851 
L 3333.837134 249.697156 
L 3333.576101 249.567842 
L 3333.315068 249.524737 
L 3333.054034 249.524737 
L 3333.141045 249.654052 
L 3333.141045 249.740261 
L 3333.054034 249.955785 
L 3332.967023 250.128204 
L 3332.793001 250.214414 
L 3332.531968 250.257519 
L 3332.531968 250.171309 
L 3332.444957 250.041995 
L 3332.357946 249.955785 
L 3332.183924 249.91268 
L 3332.009901 249.91268 
L 3331.748868 250.041995 
L 3331.574846 250.0851 
L 3331.400824 250.171309 
L 3331.226802 250.343728 
L 3331.05278 250.516148 
L 3330.791747 250.602357 
L 3330.443702 250.645462 
L 3330.26968 250.688567 
L 3330.182669 250.774776 
L 3330.008647 250.947196 
L 3329.921636 251.119615 
L 3329.834625 251.464453 
L 3329.747614 251.636873 
L 3329.48658 251.766187 
L 3328.964514 251.938606 
L 3328.790492 252.067921 
L 3328.094403 252.930017 
L 3327.659348 253.274855 
L 3327.224293 253.404169 
L 3327.05027 253.404169 
L 3326.876248 253.576589 
L 3326.354182 253.059331 
L 3324.526949 253.705903 
L 3323.74385 253.576589 
L 3323.395805 253.576589 
L 3323.221783 253.533484 
L 3323.047761 253.404169 
L 3322.96075 253.533484 
L 3322.612706 253.749008 
L 3322.264662 253.792113 
L 3322.003628 253.662798 
L 3321.742595 253.619693 
L 3321.30754 253.835217 
L 3321.046507 253.921427 
L 3320.959495 253.490379 
L 3320.872484 253.361065 
L 3320.698462 253.404169 
L 3320.437429 253.533484 
L 3320.350418 253.662798 
L 3320.176396 253.749008 
L 3320.089385 253.662798 
L 3319.567318 253.23175 
L 3319.567318 253.059331 
L 3319.393296 252.930017 
L 3318.349163 252.628283 
L 3316.347909 252.067921 
L 3315.738831 251.981711 
L 3315.042743 251.809292 
L 3313.737577 251.205825 
L 3313.128499 251.292034 
L 3312.432411 250.947196 
L 3312.084366 250.904091 
L 3310.866211 250.990301 
L 3310.692189 250.947196 
L 3310.431156 250.817881 
L 3310.257134 250.688567 
L 3310.170123 250.516148 
L 3309.996101 250.429938 
L 3308.34289 249.99889 
L 3307.559791 249.654052 
L 3307.037724 248.83506 
L 3306.863702 249.00748 
L 3306.776691 248.748851 
L 3306.68968 248.231593 
L 3306.68968 247.972964 
L 3306.602669 247.800545 
L 3306.515658 247.714336 
L 3306.428647 247.498812 
L 3306.341636 247.197078 
L 3306.254625 247.024659 
L 3305.819569 246.809135 
L 3305.819569 246.636715 
L 3305.90658 246.421191 
L 3305.732558 246.205667 
L 3305.645547 245.990143 
z
" clip-path="url(#pbef9925d64)" style="fill: #bdc3c7; stroke: #ffffff; stroke-width: 0.5"/>
    <path d="M 3322.438684 275.775562 
L 3323.134772 275.04278 
L 3323.569828 274.913466 
L 3324.091894 275.085885 
L 3324.352927 274.870361 
L 3324.439938 274.309999 
L 3324.61396 274.05137 
L 3324.874994 273.922055 
L 3325.136027 273.922055 
L 3326.528204 274.266894 
L 3326.702226 274.223789 
L 3326.876248 274.05137 
L 3326.876248 273.792741 
L 3326.963259 273.534112 
L 3327.224293 273.361693 
L 3327.572337 273.577217 
L 3327.746359 273.361693 
L 3327.83337 272.930645 
L 3327.83337 272.456492 
L 3328.181414 271.89613 
L 3329.051525 271.551291 
L 3330.008647 271.508186 
L 3330.704735 271.766815 
L 3330.878758 271.034034 
L 3331.05278 270.947824 
L 3331.400824 270.904719 
L 3331.574846 270.861614 
L 3331.661857 270.7323 
L 3331.748868 270.602986 
L 3331.92289 270.559881 
L 3332.183924 270.602986 
L 3332.357946 270.689195 
L 3332.618979 270.689195 
L 3332.880012 270.559881 
L 3333.054034 270.904719 
L 3333.837134 270.947824 
L 3334.011156 271.335767 
L 3334.185178 271.335767 
L 3335.055289 271.465082 
L 3335.316322 271.594396 
L 3335.490344 271.89613 
L 3335.664366 272.370282 
L 3335.577355 272.80133 
L 3335.1423 273.059959 
L 3334.707245 273.318588 
L 3334.620234 273.146169 
L 3334.3592 273.103064 
L 3333.837134 273.016854 
L 3333.924145 273.232379 
L 3334.011156 273.404798 
L 3333.924145 273.577217 
L 3333.663112 273.706531 
L 3333.402079 273.620322 
L 3332.880012 273.577217 
L 3332.270935 273.577217 
L 3331.835879 273.706531 
L 3331.92289 273.534112 
L 3332.009901 273.189274 
L 3332.009901 273.016854 
L 3331.835879 273.103064 
L 3331.661857 273.146169 
L 3331.487835 273.103064 
L 3331.313813 273.016854 
L 3331.487835 272.88754 
L 3331.574846 272.715121 
L 3331.661857 272.628911 
L 3331.05278 272.413387 
L 3330.443702 272.672016 
L 3329.399569 273.534112 
L 3328.964514 273.620322 
L 3328.61647 273.620322 
L 3328.355437 273.706531 
L 3328.181414 273.96516 
L 3328.181414 274.482418 
L 3328.181414 274.611732 
L 3328.094403 274.223789 
L 3327.83337 274.396208 
L 3327.746359 274.697942 
L 3327.83337 274.956571 
L 3328.007392 275.085885 
L 3328.355437 275.172095 
L 3328.442448 275.387619 
L 3328.355437 276.034191 
L 3328.355437 276.20661 
L 3328.181414 276.379029 
L 3327.920381 276.508343 
L 3327.746359 276.465239 
L 3327.485326 276.335924 
L 3327.485326 276.077295 
L 3327.572337 275.430723 
L 3327.224293 275.732457 
L 3327.05027 275.775562 
L 3326.702226 275.775562 
L 3326.528204 276.034191 
L 3326.354182 276.249715 
L 3326.18016 276.422134 
L 3325.832115 276.465239 
L 3325.484071 276.422134 
L 3324.787983 276.163505 
L 3324.526949 276.1204 
L 3324.004883 276.465239 
L 3323.656839 276.508343 
L 3323.569828 276.1204 
L 3323.395805 276.1204 
L 3323.221783 276.249715 
L 3322.96075 276.163505 
L 3322.699717 275.991086 
z
" clip-path="url(#pbef9925d64)" style="fill: #bdc3c7; stroke: #ffffff; stroke-width: 0.5"/>
    <path d="M 3303.731303 225.601572 
L 3303.731303 225.386048 
L 3303.992337 225.429153 
L 3304.079348 225.386048 
L 3303.905326 225.170524 
L 3303.905326 224.782581 
L 3303.905326 224.480847 
L 3304.079348 224.351533 
L 3304.340381 224.265323 
L 3304.427392 224.006694 
L 3304.427392 223.704961 
L 3304.514403 223.489437 
L 3304.688425 223.317017 
L 3305.210492 222.885969 
L 3305.471525 222.79976 
L 3305.471525 222.885969 
L 3305.732558 223.360122 
L 3305.90658 223.489437 
L 3305.993591 223.489437 
L 3306.080602 223.317017 
L 3306.341636 222.627341 
L 3306.515658 222.929074 
L 3306.515658 223.273913 
L 3306.428647 223.575646 
L 3306.167613 223.834275 
L 3305.993591 224.308428 
L 3305.297503 224.825685 
L 3305.210492 225.213629 
L 3305.123481 225.127419 
L 3305.03647 225.084314 
L 3304.949458 225.041209 
L 3304.862447 224.86879 
L 3304.601414 225.041209 
L 3304.427392 225.213629 
L 3304.340381 225.429153 
L 3304.340381 225.730886 
z
" clip-path="url(#pbef9925d64)" style="fill: #bdc3c7; stroke: #ffffff; stroke-width: 0.5"/>
    <path d="M -5305.405084 225.213629 
L -5305.057039 225.386048 
L -5304.796006 225.644677 
L -5304.534973 225.903306 
L -5304.012907 225.94641 
L -5303.316818 226.291249 
L -5302.881763 226.549878 
L -5302.707741 226.894716 
L -5303.142796 227.713707 
L -5303.142796 227.886126 
L -5303.577851 228.015441 
L -5304.099918 228.446489 
L -5304.447962 228.963747 
L -5304.534973 229.437899 
L -5304.883017 229.136166 
L -5304.883017 228.662013 
L -5304.534973 228.144755 
L -5304.186929 227.886126 
L -5304.27394 227.541288 
L -5304.186929 227.368869 
L -5304.012907 227.282659 
L -5303.925896 227.153345 
L -5303.925896 226.808506 
L -5303.925896 226.679192 
L -5304.186929 226.463668 
L -5304.447962 226.334354 
L -5304.970028 226.248144 
L -5305.231062 226.11883 
L -5305.318073 225.94641 
L -5305.318073 225.429153 
z
" clip-path="url(#pbef9925d64)" style="fill: #bdc3c7; stroke: #ffffff; stroke-width: 0.5"/>
    <path d="M 3353.414625 245.515991 
L 3353.675658 245.68841 
L 3353.84968 245.68841 
L 3354.371747 245.257362 
L 3354.458758 245.257362 
L 3354.63278 245.300467 
L 3354.980824 245.343571 
L 3355.328868 245.6022 
L 3355.937946 246.67982 
L 3356.111968 246.895344 
L 3356.460012 247.628126 
L 3356.547023 248.964375 
L 3356.28599 249.99889 
L 3355.502891 249.524737 
L 3355.328868 249.223004 
L 3355.067835 248.533327 
L 3354.980824 248.231593 
L 3354.545769 247.671231 
L 3354.371747 247.369497 
L 3354.197725 246.895344 
L 3354.110714 247.197078 
L 3354.197725 247.714336 
L 3354.110714 247.886755 
L 3353.936691 247.92986 
L 3353.84968 247.75744 
L 3353.675658 247.024659 
L 3353.762669 246.291877 
L 3353.675658 246.205667 
L 3353.501636 245.774619 
z
" clip-path="url(#pbef9925d64)" style="fill: #bdc3c7; stroke: #ffffff; stroke-width: 0.5"/>
    <path d="M 3309.822078 217.196135 
L 3309.822078 217.023716 
L 3309.996101 216.420249 
L 3309.996101 216.16162 
L 3310.170123 216.16162 
L 3310.431156 216.463354 
L 3310.953222 216.24783 
L 3311.823333 215.256419 
L 3312.954477 214.308114 
L 3313.302521 213.747751 
L 3312.954477 213.187389 
L 3313.476543 213.187389 
L 3313.737577 213.402913 
L 3313.824588 213.747751 
L 3313.650566 214.221904 
L 3313.476543 214.480533 
L 3313.041488 214.782267 
L 3312.954477 214.997791 
L 3312.867466 215.127105 
L 3311.388278 216.377144 
L 3311.040233 216.765087 
L 3310.866211 217.196135 
L 3310.605178 217.066821 
L 3310.518167 217.023716 
L 3310.431156 217.153031 
L 3310.170123 217.282345 
L 3309.996101 217.32545 
z
" clip-path="url(#pbef9925d64)" style="fill: #bdc3c7; stroke: #ffffff; stroke-width: 0.5"/>
    <path d="M -5329.072095 209.6959 
L -5329.072095 208.402756 
L -5328.898073 208.057917 
L -5328.201984 207.583765 
L -5328.114973 207.282031 
L -5327.85394 207.195821 
L -5326.983829 206.894088 
L -5326.635785 206.850983 
L -5326.635785 207.023402 
L -5326.809807 207.066507 
L -5326.896818 207.152717 
L -5326.896818 207.238926 
L -5326.722796 207.368241 
L -5326.722796 207.583765 
L -5326.896818 207.626869 
L -5326.983829 207.669974 
L -5327.157851 207.713079 
L -5327.331874 207.713079 
L -5327.418885 207.842393 
L -5327.592907 208.101022 
L -5327.592907 208.316546 
L -5327.331874 208.445861 
L -5327.157851 208.575175 
L -5327.505896 208.920013 
L -5327.940951 209.264852 
z
" clip-path="url(#pbef9925d64)" style="fill: #bdc3c7; stroke: #ffffff; stroke-width: 0.5"/>
    <path d="M -5329.072095 220.515205 
L -5329.072095 215.989201 
L -5328.811062 215.558153 
L -5327.07084 213.618437 
L -5326.635785 213.359808 
L -5326.113719 213.187389 
L -5325.765674 213.273598 
L -5325.591652 213.575332 
L -5325.330619 214.308114 
L -5325.243608 214.739162 
L -5325.243608 214.997791 
L -5324.982575 215.213315 
L -5324.721541 215.385734 
L -5324.63453 215.601258 
L -5324.721541 215.816782 
L -5325.591652 216.678878 
L -5325.852685 217.109926 
L -5325.939696 217.368555 
L -5325.939696 217.928917 
L -5326.026708 217.972022 
L -5326.20073 217.972022 
L -5326.374752 218.058232 
L -5327.85394 219.006537 
L -5328.63704 219.696214 
z
" clip-path="url(#pbef9925d64)" style="fill: #bdc3c7; stroke: #ffffff; stroke-width: 0.5"/>
    <path d="M 3367.858463 261.982025 
L 3368.293518 261.766501 
L 3369.25064 261.421663 
L 3370.207762 261.206139 
L 3370.555806 261.163034 
L 3370.729828 261.335453 
L 3370.816839 261.464767 
L 3370.642817 261.766501 
L 3370.033739 261.895815 
L 3369.772706 262.154444 
L 3369.337651 262.499283 
L 3369.511673 262.714807 
L 3369.859717 262.542388 
L 3369.946728 262.542388 
L 3370.033739 262.844121 
L 3369.598684 263.232064 
L 3369.511673 263.749322 
L 3369.076618 263.878636 
L 3368.902596 263.447588 
L 3368.815584 263.01654 
L 3368.554551 262.801016 
L 3368.380529 262.542388 
L 3367.945474 262.283759 
z
" clip-path="url(#pbef9925d64)" style="fill: #bdc3c7; stroke: #ffffff; stroke-width: 0.5"/>
    <path d="M -5329.072095 220.4721 
L 3371.947983 215.946096 
L 3371.947983 215.989201 
L 3371.425917 217.023716 
L 3371.251894 217.454764 
L 3371.164883 217.799603 
L 3370.294773 219.092747 
L 3369.685695 219.5669 
L 3369.424662 219.868633 
L 3369.25064 220.256576 
L 3369.424662 220.601415 
L 3369.859717 220.989358 
L 3369.946728 221.377301 
L 3370.207762 221.463511 
L 3370.555806 221.463511 
L 3370.816839 221.377301 
L 3371.164883 221.247987 
L 3371.512928 221.032463 
L 3371.773961 220.773834 
L 3371.947983 220.515205 
z
" clip-path="url(#pbef9925d64)" style="fill: #bdc3c7; stroke: #ffffff; stroke-width: 0.5"/>
    <path d="M 3365.683186 277.241125 
L 3365.683186 276.982496 
L 3365.857208 276.896287 
L 3365.857208 276.853182 
L 3365.944219 276.637658 
L 3366.118241 276.723867 
L 3366.379275 276.766972 
L 3366.466286 276.810077 
L 3366.379275 276.422134 
L 3366.118241 276.034191 
L 3366.03123 275.732457 
L 3366.553297 275.603143 
L 3366.81433 275.818667 
L 3366.988352 276.249715 
L 3367.075363 276.766972 
L 3367.162374 277.19802 
L 3366.466286 277.37044 
L 3366.118241 277.37044 
L 3365.770197 277.327335 
z
" clip-path="url(#pbef9925d64)" style="fill: #bdc3c7; stroke: #ffffff; stroke-width: 0.5"/>
    <path d="M 3356.721046 228.748222 
L 3356.808057 228.403384 
L 3356.721046 228.058546 
L 3356.895068 227.799917 
L 3357.939201 227.627498 
L 3358.113223 227.584393 
L 3358.374256 227.584393 
L 3358.635289 227.799917 
L 3358.635289 227.929231 
L 3358.7223 228.834432 
L 3358.635289 229.481004 
L 3358.461267 230.084471 
L 3358.200234 230.558624 
L 3357.85219 230.989672 
L 3357.243112 231.550035 
L 3357.06909 231.377615 
L 3357.06909 229.868947 
L 3356.982079 229.481004 
L 3356.895068 229.093061 
z
" clip-path="url(#pbef9925d64)" style="fill: #bdc3c7; stroke: #ffffff; stroke-width: 0.5"/>
    <path d="M 3341.494108 238.619222 
L 3341.755141 237.843336 
L 3342.364219 237.455393 
L 3342.538241 237.326078 
L 3342.886285 237.196764 
L 3343.321341 237.455393 
L 3343.582374 238.05886 
L 3343.669385 238.403698 
L 3343.756396 238.748537 
L 3343.843407 239.093375 
L 3343.756396 239.481318 
L 3343.669385 239.783052 
L 3343.495363 240.041681 
L 3342.886285 240.2141 
L 3342.625252 240.30031 
L 3342.190197 240.472729 
L 3341.929164 240.041681 
L 3341.842153 239.610633 
z
" clip-path="url(#pbef9925d64)" style="fill: #bdc3c7; stroke: #ffffff; stroke-width: 0.5"/>
    <path d="M 3357.243112 241.679663 
L 3357.330123 241.334825 
L 3357.765178 241.550349 
L 3358.200234 241.679663 
L 3358.200234 241.808978 
L 3358.200234 241.895187 
L 3358.026212 242.024502 
L 3358.113223 242.196921 
L 3358.200234 242.412445 
L 3358.200234 242.671074 
L 3358.200234 242.886598 
L 3358.026212 243.145226 
L 3357.85219 243.015912 
L 3357.678167 242.541759 
L 3357.504145 242.326235 
L 3357.330123 242.024502 
z
" clip-path="url(#pbef9925d64)" style="fill: #bdc3c7; stroke: #ffffff; stroke-width: 0.5"/>
    <path d="M 3335.055289 270.085728 
L 3335.055289 269.783994 
L 3335.316322 269.439156 
L 3335.316322 269.223632 
L 3335.577355 268.965003 
L 3336.099422 268.835689 
L 3336.447466 268.921898 
L 3336.360455 269.309841 
L 3336.534477 269.525366 
L 3336.621488 269.74089 
L 3336.621488 269.913309 
L 3336.534477 270.171938 
L 3336.186433 270.085728 
L 3336.012411 270.344357 
L 3335.9254 270.602986 
L 3335.664366 270.559881 
z
" clip-path="url(#pbef9925d64)" style="fill: #bdc3c7; stroke: #ffffff; stroke-width: 0.5"/>
    <path d="M 3326.267171 257.240497 
L 3326.441193 257.197392 
L 3326.528204 257.154287 
L 3326.528204 257.068078 
L 3326.441193 256.895658 
L 3326.528204 256.766344 
L 3326.528204 256.680134 
L 3326.528204 256.55082 
L 3326.528204 256.378401 
L 3326.702226 255.904248 
L 3326.963259 255.861143 
L 3327.224293 256.076667 
L 3327.398315 256.55082 
L 3327.311304 257.111182 
L 3327.05027 257.456021 
L 3326.702226 257.54223 
z
" clip-path="url(#pbef9925d64)" style="fill: #bdc3c7; stroke: #ffffff; stroke-width: 0.5"/>
    <path d="M 3308.429901 218.920328 
L 3308.603923 218.704804 
L 3309.213001 218.40307 
L 3309.038979 218.015127 
L 3309.300012 217.885812 
L 3309.822078 217.928917 
L 3310.170123 218.058232 
L 3309.387023 218.661699 
L 3309.213001 218.920328 
L 3309.474034 219.092747 
L 3309.387023 219.308271 
L 3309.300012 219.48069 
L 3309.213001 219.653109 
L 3308.951968 219.825528 
L 3308.951968 219.653109 
L 3308.777946 219.437585 
z
" clip-path="url(#pbef9925d64)" style="fill: #bdc3c7; stroke: #ffffff; stroke-width: 0.5"/>
    <path d="M 3301.730049 227.886126 
L 3301.730049 227.670602 
L 3302.339126 227.929231 
L 3302.687171 227.929231 
L 3303.035215 227.670602 
L 3303.383259 228.18786 
L 3303.209237 228.230965 
L 3303.122226 228.317174 
L 3303.122226 228.446489 
L 3302.774182 228.963747 
L 3302.426137 229.26548 
L 3302.165104 229.35169 
L 3301.904071 229.093061 
L 3301.81706 228.662013 
L 3301.991082 228.317174 
L 3301.991082 228.058546 
z
" clip-path="url(#pbef9925d64)" style="fill: #bdc3c7; stroke: #ffffff; stroke-width: 0.5"/>
    <path d="M 3299.554772 106.287479 
L 3299.902816 106.373689 
L 3300.250861 106.330584 
L 3300.859938 105.899536 
L 3301.294993 106.071955 
L 3302.165104 106.071955 
L 3302.426137 106.201269 
L 3302.60016 106.589213 
L 3302.165104 106.847841 
L 3301.643038 106.977156 
L 3301.207982 106.977156 
L 3300.859938 106.847841 
L 3300.511894 106.761632 
L 3300.076838 106.718527 
L 3299.728794 106.804737 
L 3299.641783 106.416793 
z
" clip-path="url(#pbef9925d64)" style="fill: #bdc3c7; stroke: #ffffff; stroke-width: 0.5"/>
    <path d="M 3314.433665 260.387147 
L 3314.433665 259.999204 
L 3314.433665 259.826785 
L 3314.781709 259.352632 
L 3314.868721 259.438842 
L 3314.955732 259.481947 
L 3315.042743 259.481947 
L 3315.129754 259.525051 
L 3315.216765 259.826785 
L 3315.303776 260.128519 
L 3315.303776 260.731986 
L 3315.477798 261.982025 
L 3315.129754 261.723396 
L 3314.781709 261.292348 
L 3314.607687 260.818195 
z
" clip-path="url(#pbef9925d64)" style="fill: #bdc3c7; stroke: #ffffff; stroke-width: 0.5"/>
    <path d="M -5295.224788 276.249715 
L -5295.137777 275.775562 
L -5294.789733 275.301409 
L -5294.093645 275.258304 
L -5294.267667 275.516933 
L -5294.441689 275.560038 
L -5294.615711 275.560038 
L -5294.963755 275.603143 
L -5294.789733 275.991086 
L -5294.441689 276.335924 
L -5294.006633 276.551448 
L -5293.658589 276.465239 
L -5293.7456 276.982496 
L -5294.180656 276.939392 
L -5295.050766 276.465239 
z
" clip-path="url(#pbef9925d64)" style="fill: #bdc3c7; stroke: #ffffff; stroke-width: 0.5"/>
    <path d="M 3369.163629 212.627026 
L 3369.511673 212.497712 
L 3369.685695 212.454607 
L 3369.772706 212.368398 
L 3369.772706 212.023559 
L 3369.859717 211.93735 
L 3370.120751 211.93735 
L 3370.381784 211.85114 
L 3370.642817 211.678721 
L 3370.816839 211.420092 
L 3370.816839 211.93735 
L 3370.642817 212.325293 
L 3370.381784 212.583922 
L 3369.946728 212.627026 
z
" clip-path="url(#pbef9925d64)" style="fill: #bdc3c7; stroke: #ffffff; stroke-width: 0.5"/>
    <path d="M 3340.885031 239.567528 
L 3341.146064 239.912366 
L 3341.581119 240.558938 
L 3342.016175 240.860672 
L 3342.45123 240.989986 
L 3342.364219 241.162406 
L 3342.364219 241.248615 
L 3342.277208 241.334825 
L 3342.103186 241.162406 
L 3341.929164 241.248615 
L 3341.842153 241.248615 
L 3341.66813 241.076196 
L 3341.407097 241.033091 
L 3340.972042 240.041681 
z
" clip-path="url(#pbef9925d64)" style="fill: #bdc3c7; stroke: #ffffff; stroke-width: 0.5"/>
    <path d="M -5301.141541 252.498969 
L -5300.706486 251.766187 
L -5299.836375 251.335139 
L -5299.227298 251.809292 
L -5298.879253 252.15413 
L -5298.792242 252.585178 
L -5298.879253 253.016226 
L -5299.140287 253.23175 
L -5300.010397 253.23175 
L -5300.271431 253.188645 
L -5300.445453 253.059331 
L -5300.532464 252.930017 
L -5300.706486 252.886912 
z
" clip-path="url(#pbef9925d64)" style="fill: #bdc3c7; stroke: #ffffff; stroke-width: 0.5"/>
    <path d="M 3347.758905 236.938135 
L 3347.758905 236.679506 
L 3347.932927 236.550192 
L 3348.280972 236.765716 
L 3348.367983 237.024345 
L 3348.716027 237.800231 
L 3348.803038 238.188174 
L 3348.542005 238.188174 
L 3348.454994 237.886441 
L 3348.367983 237.627812 
L 3348.193961 237.455393 
L 3347.932927 237.282973 
z
" clip-path="url(#pbef9925d64)" style="fill: #bdc3c7; stroke: #ffffff; stroke-width: 0.5"/>
    <path d="M 3337.143555 210.902834 
L 3337.839643 210.514891 
L 3338.013665 210.644206 
L 3338.274699 210.68731 
L 3338.448721 210.644206 
L 3338.622743 210.514891 
L 3338.448721 210.77352 
L 3338.274699 210.989044 
L 3337.926654 211.118358 
L 3337.491599 211.075254 
L 3337.317577 211.032149 
L 3337.230566 210.989044 
z
" clip-path="url(#pbef9925d64)" style="fill: #bdc3c7; stroke: #ffffff; stroke-width: 0.5"/>
    <path d="M -5289.395047 244.740104 
L -5288.87298 244.050427 
L -5287.828847 243.964218 
L -5287.567814 244.093532 
L -5287.045748 244.438371 
L -5286.697703 244.826314 
L -5286.523681 245.257362 
L -5286.784715 245.731515 
L -5287.306781 245.990143 
L -5287.915858 245.990143 
L -5288.524936 245.903934 
L -5289.221025 245.559095 
z
" clip-path="url(#pbef9925d64)" style="fill: #bdc3c7; stroke: #ffffff; stroke-width: 0.5"/>
    <path d="M -5303.229807 269.482261 
L -5302.968774 269.223632 
L -5302.620729 269.008108 
L -5302.359696 268.835689 
L -5302.011652 268.749479 
L -5302.098663 268.921898 
L -5302.185674 269.094317 
L -5302.359696 269.223632 
L -5302.446707 269.352946 
L -5302.620729 269.439156 
L -5302.881763 269.525366 
L -5303.055785 269.525366 
z
" clip-path="url(#pbef9925d64)" style="fill: #bdc3c7; stroke: #ffffff; stroke-width: 0.5"/>
    <path d="M -5325.939696 272.327178 
L -5325.765674 271.594396 
L -5325.41763 270.516776 
L -5324.547519 270.602986 
L -5323.938442 271.335767 
L -5324.460508 272.111654 
L -5324.63453 271.249558 
L -5325.156597 271.163348 
L -5325.591652 271.551291 
L -5325.504641 272.025444 
L -5325.330619 272.542702 
L -5325.678663 272.628911 
z
" clip-path="url(#pbef9925d64)" style="fill: #bdc3c7; stroke: #ffffff; stroke-width: 0.5"/>
    <path d="M 3330.356691 215.989201 
L 3330.530713 215.989201 
L 3330.704735 216.118515 
L 3331.05278 216.16162 
L 3331.661857 216.16162 
L 3331.574846 216.678878 
L 3331.748868 216.937507 
L 3331.661857 217.066821 
L 3331.05278 217.023716 
L 3330.617724 217.196135 
L 3330.443702 216.894402 
z
" clip-path="url(#pbef9925d64)" style="fill: #bdc3c7; stroke: #ffffff; stroke-width: 0.5"/>
    <path d="M -5290.961246 276.982496 
L -5290.961246 276.896287 
L -5290.874235 276.766972 
L -5290.43918 275.861771 
L -5290.265157 275.732457 
L -5290.178146 276.20661 
L -5290.178146 276.723867 
L -5290.352168 276.853182 
L -5290.613202 276.853182 
L -5290.874235 277.025601 
z
" clip-path="url(#pbef9925d64)" style="fill: #bdc3c7; stroke: #ffffff; stroke-width: 0.5"/>
    <path d="M -5298.444198 314.785408 
L -5298.357187 314.612989 
L -5298.270176 314.397465 
L -5298.270176 314.612989 
L -5298.183165 314.828513 
L -5298.009143 315.000932 
L -5297.835121 315.130246 
L -5297.922132 315.130246 
L -5298.096154 315.130246 
L -5298.270176 314.957827 
z
" clip-path="url(#pbef9925d64)" style="fill: #bdc3c7; stroke: #ffffff; stroke-width: 0.5"/>
    <path d="M -5306.797261 246.076353 
L -5306.362206 245.731515 
L -5306.101172 245.817724 
L -5305.666117 246.076353 
L -5305.579106 246.67982 
L -5305.579106 247.024659 
L -5306.014161 247.153973 
L -5306.362206 246.981554 
L -5306.536228 246.67982 
z
" clip-path="url(#pbef9925d64)" style="fill: #bdc3c7; stroke: #ffffff; stroke-width: 0.5"/>
    <path d="M -5329.072095 209.6959 
L 3371.947983 208.402756 
L 3371.947983 208.445861 
L 3371.599939 209.135537 
L 3371.599939 209.437271 
L 3371.599939 209.652795 
L 3371.68695 209.739005 
L 3371.773961 209.739005 
L 3371.947983 209.6959 
z
" clip-path="url(#pbef9925d64)" style="fill: #bdc3c7; stroke: #ffffff; stroke-width: 0.5"/>
    <path d="M 3355.676913 204.394009 
L 3355.676913 204.22159 
L 3356.547023 204.22159 
L 3356.895068 204.3078 
L 3357.156101 204.394009 
L 3356.895068 204.566428 
L 3356.547023 204.609533 
L 3356.111968 204.566428 
z
" clip-path="url(#pbef9925d64)" style="fill: #bdc3c7; stroke: #ffffff; stroke-width: 0.5"/>
    <path d="M 3241.170343 340.906918 
L 3241.257355 340.605185 
L 3241.779421 340.605185 
L 3242.040454 340.777604 
L 3242.214476 341.122442 
L 3242.127465 341.467281 
L 3241.779421 341.682805 
L 3241.344366 341.337966 
z
" clip-path="url(#pbef9925d64)" style="fill: #bdc3c7; stroke: #ffffff; stroke-width: 0.5"/>
    <path d="M -5293.223534 263.533798 
L -5293.049512 263.232064 
L -5292.788478 263.10275 
L -5292.527445 263.318274 
L -5292.440434 263.576903 
L -5292.614456 263.792427 
L -5292.788478 263.964846 
L -5292.962501 263.921741 
z
" clip-path="url(#pbef9925d64)" style="fill: #bdc3c7; stroke: #ffffff; stroke-width: 0.5"/>
    <path d="M -5304.186929 271.594396 
L -5304.186929 270.990929 
L -5303.925896 270.64609 
L -5303.577851 270.602986 
L -5303.229807 271.034034 
L -5303.229807 271.72371 
L -5303.577851 272.154758 
L -5304.012907 272.154758 
z
" clip-path="url(#pbef9925d64)" style="fill: #bdc3c7; stroke: #ffffff; stroke-width: 0.5"/>
    <path d="M -5308.711504 228.360279 
L -5308.711504 227.886126 
L -5308.450471 227.756812 
L -5308.189438 227.843022 
L -5308.015416 228.18786 
L -5308.102427 228.489594 
L -5308.276449 228.662013 
L -5308.537482 228.618908 
z
" clip-path="url(#pbef9925d64)" style="fill: #bdc3c7; stroke: #ffffff; stroke-width: 0.5"/>
    <path d="M -5309.14656 232.627655 
L -5308.885527 232.282816 
L -5308.450471 232.239711 
L -5308.189438 232.541445 
L -5308.102427 233.015598 
L -5308.189438 233.403541 
L -5308.711504 233.446646 
L -5309.059549 233.101808 
z
" clip-path="url(#pbef9925d64)" style="fill: #bdc3c7; stroke: #ffffff; stroke-width: 0.5"/>
    <path d="M -5313.062058 240.774462 
L -5312.975047 240.30031 
L -5312.627003 239.912366 
L -5312.104936 239.869261 
L -5311.669881 240.30031 
L -5311.669881 240.817567 
L -5312.104936 241.162406 
L -5312.714014 241.076196 
z
" clip-path="url(#pbef9925d64)" style="fill: #bdc3c7; stroke: #ffffff; stroke-width: 0.5"/>
    <path d="M -5329.072095 200.212843 
L -5329.072095 199.695586 
L -5328.811062 199.436957 
L -5328.463018 199.221433 
L -5327.592907 199.005909 
L -5327.85394 199.523167 
L -5328.114973 199.8249 
L -5328.550029 200.040424 
z
" clip-path="url(#pbef9925d64)" style="fill: #bdc3c7; stroke: #ffffff; stroke-width: 0.5"/>
    <path d="M -5286.262648 293.793369 
L -5286.262648 293.62095 
L -5286.175637 293.448531 
L -5285.914604 293.276112 
L -5286.001615 293.448531 
L -5286.088626 293.62095 
L -5286.175637 293.922684 
z
" clip-path="url(#pbef9925d64)" style="fill: #bdc3c7; stroke: #ffffff; stroke-width: 0.5"/>
   </g>
   <g id="PatchCollection_2">
    <path d="M 66.136367 355.562551 
L 66.136367 355.045293 
L 66.658433 354.614245 
L 67.354522 354.571141 
L 67.876588 355.045293 
L 68.05061 354.65735 
L 67.963599 354.226302 
L 67.876588 353.752149 
L 67.876588 353.277996 
L 67.006477 353.277996 
L 66.745444 352.243481 
L 66.658433 349.958927 
L 66.745444 349.657193 
L 67.006477 349.139935 
L 67.006477 348.881307 
L 67.006477 348.277839 
L 67.093488 348.019211 
L 67.1805 347.933001 
L 67.267511 347.846791 
L 67.354522 347.674372 
L 67.441533 347.674372 
L 67.528544 347.631267 
L 67.615555 347.588163 
L 67.702566 347.501953 
L 67.528544 346.812276 
L 67.528544 346.467438 
L 67.702566 346.165704 
L 67.789577 345.86397 
L 68.05061 345.605342 
L 68.311643 345.95018 
L 68.311643 346.381228 
L 68.224632 347.329534 
L 68.659688 346.639857 
L 68.746699 345.432922 
L 68.746699 344.139778 
L 68.83371 343.148368 
L 69.094743 342.674215 
L 70.747953 340.777604 
L 71.183009 340.432765 
L 71.618064 340.389661 
L 72.140131 340.691394 
L 72.140131 333.880835 
L 72.314153 333.234263 
L 72.836219 332.070434 
L 73.010241 331.423862 
L 73.184263 331.85491 
L 73.358286 331.85491 
L 73.793341 331.423862 
L 74.489429 331.079023 
L 74.837474 330.60487 
L 74.924485 330.561766 
L 76.229651 330.561766 
L 77.186773 330.303137 
L 77.621828 330.432451 
L 78.056883 330.60487 
L 78.491939 330.734185 
L 79.101016 330.475556 
L 79.797105 329.958298 
L 80.406182 329.268622 
L 80.580204 328.62205 
L 80.754227 327.889268 
L 81.624337 325.475399 
L 82.494448 320.518347 
L 84.060647 317.58722 
L 84.582714 317.113067 
L 85.365813 316.897543 
L 85.800869 316.5096 
L 87.106035 314.095731 
L 87.367068 313.061216 
L 87.628101 311.854281 
L 87.976145 310.733557 
L 88.585223 309.914565 
L 88.585223 310.130089 
L 88.585223 310.302509 
L 88.759245 310.604242 
L 89.281312 309.224888 
L 89.629356 308.750736 
L 90.673489 307.931744 
L 91.021533 307.586906 
L 90.934522 306.767915 
L 91.195555 305.862714 
L 92.935776 302.32812 
L 93.457843 301.509129 
L 94.937031 300.129775 
L 95.546109 299.396994 
L 95.981164 298.621107 
L 96.329208 297.629697 
L 96.50323 296.85381 
L 96.50323 295.77619 
L 96.329208 294.914094 
L 95.894153 294.870989 
L 95.63312 294.138208 
L 95.546109 293.965788 
L 95.372086 293.879579 
L 95.024042 293.836474 
L 94.85002 293.793369 
L 94.501976 293.491636 
L 94.240943 293.103692 
L 93.979909 292.672644 
L 93.892898 292.241596 
L 93.979909 291.896758 
L 94.414965 290.991557 
L 94.588987 290.732928 
L 94.763009 290.38809 
L 94.85002 289.957042 
L 94.85002 289.094946 
L 94.763009 288.836317 
L 94.675998 288.577688 
L 94.675998 288.362164 
L 94.675998 288.060431 
L 94.763009 287.931116 
L 95.198064 287.672487 
L 95.372086 287.500068 
L 95.459098 287.025915 
L 95.546109 286.637972 
L 95.720131 286.379343 
L 96.242197 286.293134 
L 96.590241 285.818981 
L 96.50323 284.82757 
L 95.981164 283.146483 
L 95.63312 282.327492 
L 95.198064 281.551605 
L 94.06692 280.473985 
L 93.892898 280.172252 
L 93.631865 279.310156 
L 93.19681 278.491164 
L 91.021533 275.560038 
L 90.586478 274.741047 
L 90.412455 273.878951 
L 90.586478 272.370282 
L 90.847511 271.594396 
L 90.847511 269.999518 
L 90.847511 269.956414 
L 90.7605 269.783994 
L 90.7605 269.65468 
L 90.7605 269.482261 
L 91.021533 269.266737 
L 91.021533 269.137422 
L 91.195555 268.533955 
L 91.195555 268.275326 
L 91.108544 267.456335 
L 90.499467 265.689038 
L 89.368323 262.542388 
L 87.628101 260.128519 
L 86.061902 257.843964 
L 85.88788 257.068078 
L 85.88788 251.981711 
L 84.930758 247.024659 
L 84.930758 245.343571 
L 85.626847 242.196921 
L 85.800869 241.076196 
L 85.626847 240.688253 
L 85.017769 240.12789 
L 84.756736 238.964061 
L 83.190537 236.765716 
L 83.016514 236.162248 
L 83.016514 235.386362 
L 83.277548 233.791484 
L 83.538581 233.058703 
L 84.756736 230.989672 
L 85.191791 229.955157 
L 85.365813 229.868947 
L 85.626847 230.041367 
L 85.800869 229.825843 
L 85.974891 229.093061 
L 87.802123 226.161934 
L 88.237179 225.773991 
L 88.411201 225.386048 
L 88.498212 225.041209 
L 88.585223 223.834275 
L 89.281312 223.834275 
L 89.803378 222.885969 
L 90.673489 220.687624 
L 90.847511 220.428996 
L 91.456588 219.739319 
L 91.63061 219.523795 
L 91.804633 218.920328 
L 91.978655 218.661699 
L 92.41371 218.230651 
L 92.674743 217.713393 
L 93.109799 216.678878 
L 93.718876 215.730572 
L 94.588987 214.782267 
L 95.285075 213.790856 
L 95.546109 212.627026 
L 95.372086 212.152874 
L 94.937031 211.032149 
L 94.85002 210.514891 
L 94.937031 209.911424 
L 95.285075 209.60969 
L 95.459098 209.739005 
L 95.546109 210.385577 
L 95.894153 209.6959 
L 96.068175 209.006223 
L 96.068175 208.273441 
L 95.894153 207.583765 
L 94.937031 206.161306 
L 94.588987 205.428524 
L 94.501976 204.566428 
L 94.588987 204.264695 
L 94.85002 203.876752 
L 95.024042 203.531913 
L 95.285075 203.273284 
L 95.459098 203.014655 
L 95.459098 202.669817 
L 95.546109 201.247359 
L 95.63312 200.90252 
L 95.807142 200.643891 
L 96.242197 200.557682 
L 97.025297 200.557682 
L 97.895408 200.385263 
L 103.116072 200.90252 
L 103.81216 200.773206 
L 104.073194 200.773206 
L 104.682271 201.290463 
L 105.117326 201.505987 
L 105.552382 201.635302 
L 105.900426 201.549092 
L 106.074448 201.247359 
L 106.24847 200.98873 
L 106.422492 200.773206 
L 106.770537 200.557682 
L 107.118581 200.471472 
L 107.81467 200.385263 
L 108.162714 200.212843 
L 107.901681 200.040424 
L 109.293858 199.350747 
L 110.076957 198.919699 
L 110.512013 198.273127 
L 111.295112 196.893774 
L 111.90419 196.204097 
L 112.426256 195.643734 
L 113.035334 195.255791 
L 114.601533 194.609219 
L 115.471644 193.962647 
L 115.645666 194.091961 
L 115.732677 194.479905 
L 115.732677 195.298896 
L 116.167732 196.721354 
L 116.254743 196.850669 
L 116.254743 197.066193 
L 116.254743 197.238612 
L 116.080721 197.75587 
L 116.080721 198.186918 
L 116.080721 198.531756 
L 116.254743 198.74728 
L 116.602788 198.83349 
L 117.037843 198.704175 
L 117.298876 198.445546 
L 117.472898 198.100708 
L 117.733932 197.842079 
L 118.517031 197.540346 
L 118.865076 197.281717 
L 119.039098 196.893774 
L 118.952087 196.67825 
L 118.517031 196.50583 
L 118.255998 196.204097 
L 117.994965 195.773049 
L 117.994965 195.42821 
L 118.255998 195.212686 
L 122.171496 194.781638 
L 122.345518 194.738533 
L 122.519541 194.652324 
L 122.867585 194.4368 
L 123.041607 195.169581 
L 123.215629 195.42821 
L 123.30264 195.471315 
L 123.30264 195.557525 
L 123.30264 195.945468 
L 123.041607 196.67825 
L 123.128618 196.936878 
L 123.476662 196.721354 
L 123.650685 197.195507 
L 123.824707 197.152402 
L 124.08574 196.721354 
L 123.824707 195.385105 
L 123.911718 195.126477 
L 124.346773 194.738533 
L 124.520795 194.4368 
L 124.433784 194.393695 
L 124.520795 193.747123 
L 124.520795 193.488494 
L 124.607806 193.316075 
L 124.694817 193.100551 
L 124.694817 192.841922 
L 124.520795 192.540189 
L 124.259762 192.324665 
L 124.08574 192.066036 
L 124.259762 191.721197 
L 125.042862 190.902206 
L 125.825961 190.341844 
L 126.086995 190.341844 
L 126.52205 190.514263 
L 126.870094 190.600472 
L 127.218138 190.600472 
L 127.566183 190.643577 
L 128.436293 191.20394 
L 128.95836 191.11773 
L 130.437548 190.255634 
L 130.785592 190.12632 
L 131.133637 190.083215 
L 131.481681 190.04011 
L 132.003747 190.12632 
L 132.177769 190.341844 
L 132.090758 191.20394 
L 132.177769 191.591883 
L 132.264781 191.807407 
L 132.438803 191.893616 
L 132.786847 191.979826 
L 132.960869 192.022931 
L 133.395924 191.979826 
L 133.656958 191.979826 
L 134.266035 192.367769 
L 134.875113 192.367769 
L 134.875113 192.19535 
L 134.614079 191.893616 
L 134.440057 191.462568 
L 134.527068 191.20394 
L 134.788102 190.945311 
L 134.962124 190.686682 
L 134.962124 190.255634 
L 134.353046 190.557368 
L 133.83098 190.988416 
L 133.482936 191.160835 
L 133.656958 190.600472 
L 134.005002 189.997005 
L 134.440057 189.479748 
L 135.049135 189.005595 
L 135.571201 188.660756 
L 136.180279 188.445232 
L 136.702345 188.315918 
L 137.9205 188.315918 
L 138.529578 188.402128 
L 138.790611 188.488337 
L 138.964633 188.660756 
L 138.964633 188.96249 
L 138.964633 189.264224 
L 139.051644 189.479748 
L 139.225666 189.695272 
L 138.964633 190.169424 
L 138.877622 190.600472 
L 138.7036 190.945311 
L 138.268544 191.290149 
L 138.790611 191.721197 
L 139.138655 192.109141 
L 139.486699 192.583293 
L 140.35681 194.393695 
L 140.704854 194.867848 
L 141.226921 195.298896 
L 141.226921 195.040267 
L 141.226921 194.738533 
L 141.226921 194.4368 
L 141.400943 194.264381 
L 141.574965 194.307485 
L 141.835998 194.824743 
L 142.097032 194.954057 
L 142.532087 194.867848 
L 142.706109 194.393695 
L 142.706109 193.833333 
L 142.532087 193.402285 
L 143.228175 193.316075 
L 143.663231 193.790228 
L 144.098286 194.393695 
L 144.533342 194.781638 
L 144.794375 194.609219 
L 144.533342 193.919542 
L 144.011275 192.841922 
L 143.489209 192.626398 
L 142.532087 191.678092 
L 141.923009 191.462568 
L 141.13991 191.505673 
L 140.878877 191.462568 
L 140.443821 191.20394 
L 140.530832 191.03152 
L 140.791865 190.859101 
L 141.052899 190.600472 
L 141.748987 189.565957 
L 141.835998 189.0487 
L 141.574965 188.660756 
L 141.313932 188.660756 
L 140.965888 188.703861 
L 140.704854 188.703861 
L 140.617843 188.488337 
L 140.617843 188.100394 
L 140.965888 187.367612 
L 141.313932 186.462411 
L 141.748987 185.945154 
L 142.79312 185.083058 
L 144.359319 183.315761 
L 144.881386 182.884713 
L 144.968397 183.014027 
L 144.968397 183.143342 
L 145.055408 183.272656 
L 145.055408 183.445075 
L 145.316441 183.272656 
L 146.01253 182.626084 
L 146.969652 181.850198 
L 147.317696 181.591569 
L 147.839762 181.203626 
L 148.535851 181.117416 
L 149.144928 181.117416 
L 149.666995 180.988101 
L 149.31895 180.729473 
L 148.622862 180.557053 
L 148.535851 180.298425 
L 148.796884 179.996691 
L 150.189061 179.651853 
L 152.625371 177.798346 
L 154.452604 176.117259 
L 155.496736 175.815525 
L 156.192825 175.427582 
L 156.540869 175.341372 
L 156.714891 175.427582 
L 156.801903 175.643106 
L 156.801903 175.85863 
L 156.801903 176.548307 
L 156.888914 176.677621 
L 157.149947 177.324193 
L 157.323969 177.582822 
L 157.585002 177.798346 
L 158.020058 178.01387 
L 158.803157 178.358709 
L 159.238213 178.617337 
L 159.238213 178.962176 
L 158.977179 179.263909 
L 158.629135 179.910481 
L 158.281091 180.212215 
L 157.933046 180.427739 
L 157.672013 180.729473 
L 156.62788 182.927818 
L 156.279836 183.789914 
L 156.366847 184.393381 
L 156.62788 184.436486 
L 156.801903 184.091647 
L 157.062936 183.272656 
L 157.323969 183.014027 
L 157.759024 182.841608 
L 158.629135 182.712294 
L 159.499246 182.41056 
L 160.195334 181.979512 
L 160.978434 181.763988 
L 161.761534 182.022617 
L 162.631644 181.677778 
L 162.979689 181.41915 
L 163.0667 180.988101 
L 162.979689 180.815682 
L 162.805666 180.772577 
L 162.631644 180.772577 
L 162.457622 180.729473 
L 162.196589 180.600158 
L 162.109578 180.470844 
L 161.761534 179.694957 
L 161.413489 178.056975 
L 161.413489 177.927661 
L 161.326478 177.841451 
L 160.978434 177.798346 
L 160.804412 177.841451 
L 160.108323 178.186289 
L 160.021312 177.841451 
L 160.108323 177.582822 
L 160.282345 176.93625 
L 159.934301 176.979355 
L 159.673268 176.979355 
L 159.499246 176.85004 
L 159.412235 176.332783 
L 158.977179 176.117259 
L 158.803157 175.901735 
L 158.716146 175.298268 
L 158.977179 174.737905 
L 159.586257 173.7896 
L 160.456368 173.056818 
L 161.5005 172.367141 
L 162.370611 171.54815 
L 162.892677 170.039482 
L 163.240722 169.608434 
L 164.458877 168.401499 
L 164.980943 168.099766 
L 165.50301 167.927346 
L 166.112087 167.841137 
L 166.37312 167.582508 
L 166.460131 166.979041 
L 166.286109 166.461783 
L 165.938065 166.375574 
L 165.677032 166.591098 
L 165.50301 167.022146 
L 165.241976 167.15146 
L 164.893932 167.194565 
L 164.632899 167.022146 
L 164.284855 166.461783 
L 164.371866 166.461783 
L 165.154965 165.254849 
L 168.113342 161.978884 
L 168.461386 161.720255 
L 168.635408 161.806464 
L 168.722419 162.108198 
L 168.896441 162.409932 
L 169.418508 163.013399 
L 169.418508 163.272028 
L 169.331497 164.823801 
L 169.418508 165.211744 
L 169.505519 165.341058 
L 169.679541 165.384163 
L 169.853563 165.513477 
L 169.940574 165.772106 
L 169.853563 165.815211 
L 169.59253 166.461783 
L 168.200353 168.14287 
L 167.852309 168.703233 
L 167.591275 169.479119 
L 167.330242 172.62577 
L 167.417253 172.927503 
L 167.765297 173.099923 
L 168.026331 173.056818 
L 168.80943 172.582665 
L 169.070464 172.410246 
L 169.505519 171.720569 
L 169.766552 170.987787 
L 170.027585 170.341215 
L 170.723674 169.780853 
L 170.984707 169.996377 
L 171.071718 169.737748 
L 171.071718 169.091176 
L 171.158729 168.660128 
L 172.898951 165.254849 
L 173.072973 164.522067 
L 173.159984 164.220333 
L 173.943083 163.401342 
L 174.030095 163.185818 
L 174.030095 162.711665 
L 174.117106 162.496141 
L 174.291128 162.366827 
L 174.726183 162.151303 
L 174.813194 162.065093 
L 175.422272 161.418521 
L 175.596294 161.030578 
L 175.683305 160.68574 
L 175.857327 160.297796 
L 176.205371 160.082272 
L 176.553416 159.823644 
L 176.640427 159.306386 
L 177.68456 160.771949 
L 178.206626 161.202997 
L 178.467659 161.332312 
L 179.250759 161.547836 
L 179.511792 161.720255 
L 179.598803 162.021988 
L 179.598803 162.625456 
L 179.685814 162.970294 
L 180.033858 162.539246 
L 180.033858 161.978884 
L 179.859836 161.461626 
L 179.511792 161.202997 
L 180.207881 160.642635 
L 180.816958 160.728844 
L 181.339025 161.246102 
L 181.513047 162.065093 
L 181.426036 163.83239 
L 181.600058 164.306543 
L 181.948102 163.659971 
L 182.122124 162.884085 
L 182.122124 161.849569 
L 181.861091 160.901264 
L 181.426036 160.51332 
L 181.077991 160.384006 
L 180.816958 160.125377 
L 180.207881 159.565015 
L 179.772825 159.306386 
L 179.424781 159.349491 
L 178.641681 159.823644 
L 178.380648 159.952958 
L 178.032604 159.996063 
L 177.68456 159.952958 
L 177.336515 159.60812 
L 177.162493 159.263281 
L 176.988471 158.918443 
L 176.814449 158.746023 
L 176.11836 159.737434 
L 175.857327 160.039168 
L 175.596294 160.168482 
L 175.422272 159.952958 
L 174.987216 159.047757 
L 174.813194 158.746023 
L 174.900205 158.659814 
L 175.161238 158.401185 
L 175.161238 158.228766 
L 175.161238 157.970137 
L 175.074227 157.840823 
L 174.900205 157.711508 
L 174.552161 156.849412 
L 174.552161 156.676993 
L 174.639172 156.590783 
L 174.639172 156.547679 
L 174.378139 156.28905 
L 174.378139 156.245945 
L 174.378139 155.12522 
L 174.552161 154.263124 
L 174.813194 153.487238 
L 175.335261 152.797561 
L 175.944338 152.452722 
L 176.11836 152.237198 
L 176.205371 151.849255 
L 176.205371 151.073369 
L 176.292382 150.81474 
L 176.553416 150.556111 
L 177.075482 150.340587 
L 178.206626 151.202683 
L 178.989726 151.159578 
L 179.33777 151.073369 
L 179.772825 151.116473 
L 180.033858 151.073369 
L 180.207881 150.771635 
L 180.381903 150.340587 
L 180.468914 149.909539 
L 180.468914 149.564701 
L 180.381903 148.961233 
L 180.207881 148.271557 
L 179.772825 147.668089 
L 179.33777 147.366356 
L 179.685814 147.021517 
L 180.12087 147.193936 
L 181.165002 147.926718 
L 181.339025 148.012928 
L 181.600058 148.099137 
L 181.77408 148.228452 
L 181.948102 148.443976 
L 181.948102 148.745709 
L 181.77408 149.004338 
L 181.600058 149.262967 
L 181.513047 149.564701 
L 181.426036 150.211273 
L 181.077991 151.547521 
L 180.99098 152.194094 
L 180.99098 152.409618 
L 180.99098 152.840666 
L 181.165002 153.142399 
L 181.513047 153.142399 
L 181.687069 152.926875 
L 181.687069 152.668246 
L 181.600058 152.366513 
L 181.687069 152.107884 
L 181.861091 151.97857 
L 182.122124 151.763046 
L 182.383157 151.547521 
L 182.383157 151.331997 
L 182.209135 151.073369 
L 182.035113 150.81474 
L 181.861091 150.469901 
L 181.861091 150.168168 
L 182.035113 149.607805 
L 182.644191 148.702605 
L 182.818213 148.185347 
L 182.818213 147.58188 
L 182.731202 146.978412 
L 182.55718 146.547364 
L 181.600058 146.202526 
L 180.99098 145.814583 
L 180.12087 144.952487 
L 181.948102 143.961076 
L 181.948102 143.616238 
L 180.816958 142.840351 
L 179.859836 142.452408 
L 179.598803 142.236884 
L 178.989726 140.986845 
L 178.55467 139.348862 
L 178.728692 137.926404 
L 179.859836 137.409146 
L 179.598803 137.021203 
L 179.250759 136.891889 
L 179.076737 136.63326 
L 178.989726 135.986688 
L 179.076737 135.46943 
L 179.250759 134.693544 
L 179.598803 134.176286 
L 180.033858 134.348705 
L 180.468914 134.39181 
L 180.642936 133.745238 
L 180.729947 132.624513 
L 180.99098 132.408989 
L 181.165002 132.23657 
L 181.426036 132.23657 
L 181.687069 132.495199 
L 181.513047 132.667618 
L 181.339025 132.883142 
L 181.165002 133.184876 
L 181.339025 133.572819 
L 181.426036 133.486609 
L 181.687069 133.443505 
L 181.861091 133.4004 
L 181.687069 133.702133 
L 181.77408 134.003867 
L 181.948102 134.133181 
L 182.209135 134.003867 
L 182.296146 133.788343 
L 182.296146 133.572819 
L 182.470168 133.357295 
L 182.818213 133.184876 
L 182.383157 132.710723 
L 182.296146 132.495199 
L 183.253268 132.495199 
L 183.601312 132.796932 
L 183.775335 133.443505 
L 183.862346 134.176286 
L 183.949357 134.607334 
L 184.645445 134.305601 
L 184.99349 134.521125 
L 185.167512 135.038382 
L 185.341534 135.641849 
L 185.689578 136.805679 
L 185.776589 137.236727 
L 185.776589 137.409146 
L 185.776589 137.581566 
L 185.8636 137.71088 
L 186.298656 137.883299 
L 186.211644 138.055718 
L 185.950611 138.357452 
L 186.211644 138.87471 
L 186.820722 139.348862 
L 187.603822 139.736806 
L 188.125888 139.86612 
L 188.821977 139.693701 
L 189.518065 139.219548 
L 189.779098 138.616081 
L 189.431054 137.926404 
L 189.605076 137.538461 
L 189.605076 136.202212 
L 189.692087 135.771164 
L 190.214154 134.952173 
L 190.301165 134.607334 
L 189.779098 133.702133 
L 189.605076 133.271085 
L 190.127143 133.055561 
L 190.388176 133.184876 
L 191.084264 134.262496 
L 191.171276 133.788343 
L 191.432309 133.31419 
L 191.693342 132.969352 
L 191.867364 132.710723 
L 192.215408 132.581408 
L 192.650464 132.495199 
L 193.085519 132.495199 
L 193.433563 132.495199 
L 193.433563 132.408989 
L 193.433563 132.107256 
L 193.433563 131.977941 
L 193.95563 132.495199 
L 194.216663 132.667618 
L 194.477696 132.624513 
L 194.390685 132.365884 
L 194.042641 131.503788 
L 193.781608 130.771007 
L 193.433563 130.210644 
L 193.259541 129.908911 
L 193.17253 129.564072 
L 193.17253 129.219234 
L 193.259541 128.529557 
L 193.607586 128.615767 
L 193.868619 128.831291 
L 193.95563 129.133024 
L 194.216663 129.391653 
L 194.216663 129.779596 
L 194.651718 130.124435 
L 195.956884 130.641692 
L 196.217918 130.684797 
L 196.478951 130.641692 
L 196.739984 130.512378 
L 197.001017 130.426168 
L 197.349062 130.469273 
L 197.610095 130.555483 
L 197.871128 130.598588 
L 198.741239 130.339959 
L 199.611349 129.822701 
L 200.394449 129.089919 
L 201.003527 128.314033 
L 200.568471 127.796775 
L 200.916515 127.107099 
L 201.873637 125.943269 
L 201.786626 125.641535 
L 201.438582 125.038068 
L 201.351571 124.650125 
L 201.351571 123.831134 
L 201.438582 123.400086 
L 201.960648 121.37416 
L 202.308693 120.684483 
L 202.91777 119.736177 
L 203.178803 119.348234 
L 203.265814 118.917186 
L 203.352825 118.615453 
L 203.439837 118.313719 
L 203.70087 117.925776 
L 204.048914 117.624042 
L 204.309947 117.494728 
L 204.222936 116.848156 
L 204.57098 115.167068 
L 204.657992 114.520496 
L 204.483969 114.175658 
L 204.048914 113.572191 
L 203.874892 113.270457 
L 203.70087 112.925619 
L 203.613859 112.623885 
L 203.439837 111.50316 
L 203.352825 111.201427 
L 203.004781 110.641064 
L 202.830759 110.554854 
L 202.743748 110.597959 
L 202.569726 110.554854 
L 202.482715 110.296226 
L 202.482715 110.037597 
L 202.656737 109.908282 
L 202.743748 109.778968 
L 202.830759 109.606549 
L 202.830759 109.391025 
L 202.656737 109.089291 
L 202.656737 108.873767 
L 202.91777 108.2703 
L 203.004781 108.18409 
L 202.830759 107.882357 
L 202.569726 107.839252 
L 202.221682 108.011671 
L 201.873637 108.18409 
L 201.873637 107.451309 
L 201.612604 107.020261 
L 200.829504 106.287479 
L 200.48146 105.252964 
L 200.307438 104.908125 
L 200.220427 105.382278 
L 199.176294 104.908125 
L 199.524338 104.649497 
L 199.959394 103.95982 
L 200.220427 103.916715 
L 200.48146 104.046029 
L 200.742493 104.132239 
L 201.351571 104.175344 
L 202.221682 104.347763 
L 202.656737 104.821916 
L 203.439837 106.244374 
L 203.70087 106.416793 
L 204.048914 106.287479 
L 204.396958 106.02885 
L 204.657992 105.770221 
L 204.745003 105.382278 
L 204.832014 104.002925 
L 204.919025 103.87361 
L 205.180058 103.313248 
L 205.180058 103.183933 
L 205.093047 102.839095 
L 205.180058 102.623571 
L 205.35408 102.278732 
L 205.702124 102.063208 
L 206.050169 101.933894 
L 206.311202 102.106313 
L 206.485224 101.63216 
L 206.746257 101.416636 
L 207.00729 101.244217 
L 207.355335 100.856274 
L 207.703379 101.330427 
L 207.964412 100.985588 
L 208.312457 100.339016 
L 208.660501 99.994178 
L 209.008545 100.339016 
L 209.356589 100.166597 
L 209.704634 99.778654 
L 209.791645 99.304501 
L 209.791645 99.088977 
L 209.704634 98.916558 
L 209.617623 98.701034 
L 209.617623 98.442405 
L 209.791645 98.140671 
L 209.965667 97.968252 
L 210.139689 97.882043 
L 210.313711 97.709623 
L 210.574744 97.666519 
L 210.574744 97.537204 
L 210.487733 97.192366 
L 210.2267 96.933737 
L 210.139689 96.890632 
L 209.878656 96.933737 
L 209.617623 96.847527 
L 209.530611 96.718213 
L 209.4436 96.588899 
L 209.356589 96.416479 
L 209.182567 96.287165 
L 208.921534 96.24406 
L 207.964412 96.287165 
L 208.312457 95.813012 
L 209.269578 95.511278 
L 209.617623 95.08023 
L 210.052678 95.338859 
L 210.835778 96.502689 
L 210.922789 96.287165 
L 211.183822 96.502689 
L 211.183822 95.985431 
L 211.0098 95.425069 
L 210.661755 94.994021 
L 210.139689 94.907811 
L 210.2267 94.649182 
L 210.400722 94.476763 
L 210.574744 94.347449 
L 210.661755 94.218134 
L 210.922789 94.08882 
L 210.922789 94.045715 
L 210.922789 93.959506 
L 210.835778 93.787086 
L 210.835778 93.614667 
L 210.922789 93.442248 
L 211.618877 92.580152 
L 212.053933 92.364628 
L 212.488988 92.450837 
L 212.750021 92.623257 
L 213.359099 93.442248 
L 213.533121 93.787086 
L 213.533121 94.519868 
L 213.707143 94.821602 
L 214.142198 95.468174 
L 214.229209 96.114746 
L 214.142198 96.761318 
L 214.31622 97.537204 
L 214.664265 98.442405 
L 214.751276 98.830348 
L 214.577254 98.873453 
L 213.707143 97.795833 
L 213.44611 97.752728 
L 213.272088 97.968252 
L 213.098065 98.269986 
L 212.924043 98.442405 
L 212.66301 98.356195 
L 212.314966 98.054462 
L 212.140944 97.709623 
L 212.140944 97.364785 
L 211.87991 97.494099 
L 211.705888 97.709623 
L 211.531866 97.925147 
L 211.444855 98.226881 
L 211.792899 98.3993 
L 211.705888 98.701034 
L 211.270833 99.433815 
L 211.618877 99.433815 
L 212.140944 99.520025 
L 212.575999 99.692444 
L 212.837032 99.907968 
L 212.750021 100.080388 
L 212.401977 100.382121 
L 212.314966 100.511436 
L 212.314966 100.72696 
L 212.401977 100.985588 
L 212.575999 101.071798 
L 212.750021 100.856274 
L 213.011054 100.425226 
L 213.185076 100.295912 
L 213.359099 100.468331 
L 213.620132 100.856274 
L 213.620132 100.985588 
L 213.44611 101.158008 
L 213.44611 101.330427 
L 213.707143 101.373532 
L 214.229209 101.416636 
L 214.403231 101.373532 
L 214.577254 101.244217 
L 214.751276 100.770064 
L 214.403231 100.080388 
L 214.490243 99.735549 
L 214.925298 99.47692 
L 215.273342 99.649339 
L 215.969431 100.770064 
L 215.969431 101.071798 
L 216.056442 101.373532 
L 216.056442 101.71837 
L 216.317475 102.149418 
L 216.578508 102.408047 
L 216.75253 102.752885 
L 216.75253 103.313248 
L 216.926553 102.968409 
L 217.100575 102.752885 
L 217.361608 102.666676 
L 217.709652 102.623571 
L 218.144708 102.666676 
L 218.231719 102.839095 
L 218.405741 103.011514 
L 218.753785 103.442562 
L 218.927807 103.744296 
L 218.927807 104.046029 
L 218.753785 104.175344 
L 218.405741 104.089134 
L 218.144708 103.95982 
L 217.883674 103.916715 
L 217.622641 104.175344 
L 218.144708 104.692601 
L 218.492752 105.080545 
L 218.753785 105.123649 
L 219.275851 104.520182 
L 219.884929 106.071955 
L 220.058951 106.632317 
L 220.145962 107.321994 
L 220.058951 107.623728 
L 219.797918 107.580623 
L 219.623896 107.321994 
L 219.536885 106.977156 
L 219.536885 106.287479 
L 219.449874 106.977156 
L 219.797918 108.442719 
L 219.623896 109.003082 
L 219.449874 109.26171 
L 219.362863 109.520339 
L 219.362863 109.822073 
L 219.449874 110.123806 
L 219.623896 110.554854 
L 219.797918 110.51175 
L 219.97194 110.33933 
L 220.232973 110.296226 
L 220.581017 110.554854 
L 221.103084 110.985902 
L 221.538139 111.50316 
L 221.712161 111.977313 
L 221.799172 112.279047 
L 221.973195 112.839409 
L 222.060206 113.098038 
L 221.973195 113.442876 
L 221.712161 114.003239 
L 221.538139 114.348077 
L 221.799172 114.218763 
L 221.973195 114.175658 
L 222.234228 114.218763 
L 222.40825 114.348077 
L 222.495261 114.046343 
L 222.669283 113.830819 
L 222.843305 113.615295 
L 222.930316 112.882514 
L 223.104339 112.66699 
L 223.365372 112.623885 
L 223.713416 112.753199 
L 223.626405 113.011828 
L 223.539394 113.098038 
L 223.887438 113.184247 
L 224.235482 113.356667 
L 224.496516 113.572191 
L 225.105593 114.175658 
L 225.192604 114.348077 
L 225.105593 114.994649 
L 225.105593 115.210173 
L 225.453637 115.89985 
L 225.62766 116.158479 
L 225.975704 116.244688 
L 226.323748 116.244688 
L 226.671792 116.244688 
L 226.845815 116.460212 
L 226.845815 116.97747 
L 226.671792 117.106784 
L 226.410759 117.192994 
L 226.323748 117.365413 
L 226.671792 117.839566 
L 227.019837 118.011985 
L 227.367881 118.1413 
L 227.628914 118.356824 
L 227.715925 118.874081 
L 227.802936 119.21892 
L 228.412014 119.908597 
L 228.499025 120.167225 
L 228.586036 121.546579 
L 228.325003 123.61561 
L 228.412014 124.003553 
L 228.499025 124.52081 
L 228.499025 124.908754 
L 228.586036 125.253592 
L 229.282125 126.245003 
L 229.369136 126.676051 
L 229.282125 127.753671 
L 229.369136 128.141614 
L 229.71718 128.357138 
L 229.978213 128.270928 
L 230.239246 128.098509 
L 230.50028 128.141614 
L 230.674302 128.529557 
L 230.674302 128.960605 
L 230.50028 129.822701 
L 230.587291 130.512378 
L 230.935335 131.977941 
L 231.196368 132.710723 
L 231.283379 132.840037 
L 231.544412 133.055561 
L 231.631424 133.184876 
L 231.718435 133.4004 
L 231.631424 133.874553 
L 231.631424 134.090077 
L 231.718435 134.607334 
L 231.805446 134.779753 
L 231.892457 134.865963 
L 231.979468 134.952173 
L 232.066479 134.952173 
L 232.15349 134.995277 
L 232.327512 134.995277 
L 232.327512 135.124592 
L 232.327512 135.253906 
L 232.414523 135.383221 
L 232.501534 135.684954 
L 232.240501 136.54705 
L 232.414523 136.978098 
L 232.588545 137.236727 
L 233.110612 138.443662 
L 233.371645 139.305758 
L 233.632678 144.392124 
L 234.067733 146.288736 
L 234.154745 147.021517 
L 234.154745 147.926718 
L 233.893711 148.6595 
L 233.893711 149.090548 
L 233.8067 149.995749 
L 233.893711 150.513006 
L 234.067733 150.81474 
L 234.676811 151.418207 
L 235.024855 152.150989 
L 235.111866 152.88377 
L 234.763822 154.866591 
L 234.502789 155.642478 
L 234.502789 156.030421 
L 234.502789 156.504574 
L 234.850833 157.711508 
L 235.024855 160.556425 
L 235.633933 161.935779 
L 235.720944 162.84098 
L 235.546922 163.703076 
L 235.024855 164.004809 
L 235.198877 164.306543 
L 235.807955 164.651381 
L 236.155999 164.866905 
L 236.330021 165.211744 
L 236.504043 165.642792 
L 236.765077 167.280774 
L 238.505298 171.203311 
L 238.940353 171.892988 
L 240.071497 173.358551 
L 240.332531 173.7896 
L 240.593564 174.651696 
L 240.854597 174.910324 
L 241.11563 175.125848 
L 241.463675 175.341372 
L 241.724708 175.987944 
L 241.985741 176.806936 
L 242.072752 178.444918 
L 242.072752 178.574233 
L 241.89873 179.005281 
L 241.724708 179.393224 
L 241.724708 179.565643 
L 241.724708 179.738062 
L 241.811719 179.996691 
L 241.724708 180.16911 
L 241.550686 180.815682 
L 241.463675 181.031206 
L 241.550686 181.289835 
L 241.550686 181.505359 
L 241.637697 181.677778 
L 241.463675 181.893302 
L 241.202641 182.195036 
L 241.11563 182.367455 
L 240.941608 183.272656 
L 240.506553 184.522695 
L 240.419542 184.996848 
L 240.332531 185.686525 
L 238.157254 189.867691 
L 237.983232 190.600472 
L 238.244265 190.729787 
L 238.070243 191.074625 
L 236.330021 193.402285 
L 235.720944 194.824743 
L 235.459911 195.169581 
L 235.111866 195.255791 
L 234.676811 195.212686 
L 234.328767 195.212686 
L 233.980722 195.51442 
L 233.458656 194.221276 
L 233.110612 193.833333 
L 232.501534 193.919542 
L 231.283379 192.841922 
L 230.848324 192.324665 
L 230.674302 191.548778 
L 230.587291 190.255634 
L 230.50028 190.04011 
L 230.239246 189.9539 
L 229.891202 189.652167 
L 229.543158 189.307328 
L 229.369136 189.0487 
L 229.195114 188.703861 
L 229.108102 188.272813 
L 229.021091 187.841765 
L 229.021091 187.453822 
L 229.108102 187.022774 
L 229.282125 186.677935 
L 229.369136 186.376202 
L 229.108102 185.988259 
L 228.93408 185.815839 
L 228.760058 185.72963 
L 228.673047 185.72963 
L 228.412014 185.686525 
L 228.325003 185.64342 
L 227.628914 184.695114 
L 227.541903 184.393381 
L 227.715925 183.57439 
L 227.715925 183.143342 
L 227.541903 181.850198 
L 227.541903 181.677778 
L 227.628914 181.548464 
L 227.715925 181.376045 
L 227.541903 181.160521 
L 227.367881 181.117416 
L 226.932826 181.074311 
L 226.323748 181.376045 
L 225.453637 181.505359 
L 223.887438 181.505359 
L 223.104339 181.763988 
L 222.582272 182.281246 
L 221.190095 184.264066 
L 221.190095 184.910639 
L 221.712161 186.376202 
L 221.712161 186.764145 
L 221.712161 187.108983 
L 221.451128 187.79866 
L 221.364117 187.79866 
L 221.538139 188.100394 
L 221.886184 188.402128 
L 222.147217 188.746966 
L 222.321239 189.565957 
L 222.669283 190.428053 
L 222.843305 191.721197 
L 223.017327 192.497084 
L 223.452383 193.186761 
L 223.452383 193.488494 
L 223.365372 193.919542 
L 223.19135 194.35059 
L 222.495261 195.686839 
L 222.234228 196.419621 
L 222.234228 197.281717 
L 222.40825 198.100708 
L 222.756294 198.83349 
L 223.365372 199.436957 
L 224.931571 200.040424 
L 225.62766 200.471472 
L 226.149726 201.290463 
L 226.323748 202.023245 
L 225.801682 204.437114 
L 225.714671 205.428524 
L 225.888693 206.29062 
L 226.323748 206.678564 
L 226.584781 206.850983 
L 226.584781 207.238926 
L 226.49777 208.230337 
L 226.410759 208.575175 
L 226.410759 208.790699 
L 226.410759 209.652795 
L 226.236737 209.997633 
L 225.018582 212.239083 
L 224.322494 213.101179 
L 223.19135 213.963275 
L 223.278361 215.127105 
L 223.452383 215.687467 
L 223.800427 216.24783 
L 224.322494 216.721983 
L 224.84456 216.980611 
L 225.366626 217.066821 
L 226.062715 217.023716 
L 225.279615 217.454764 
L 224.583527 217.713393 
L 223.104339 217.928917 
L 222.495261 218.273756 
L 221.364117 218.40307 
L 220.842051 218.48928 
L 220.406995 218.791013 
L 220.145962 219.178956 
L 218.492752 222.498026 
L 217.361608 225.687782 
L 216.143453 228.662013 
L 215.969431 230.472415 
L 216.056442 230.860358 
L 216.75253 232.067292 
L 217.883674 238.360593 
L 218.057696 239.998576 
L 217.796663 241.765873 
L 216.926553 244.783209 
L 215.708398 248.662641 
L 215.708398 249.093689 
L 215.708398 249.524737 
L 215.88242 249.91268 
L 215.969431 250.0851 
L 216.230464 250.386833 
L 216.317475 250.602357 
L 216.404486 250.904091 
L 216.230464 251.033405 
L 215.969431 251.119615 
L 215.795409 251.292034 
L 215.012309 252.714493 
L 214.403231 257.757754 
L 214.229209 258.102593 
L 213.794154 258.662955 
L 213.620132 259.007794 
L 213.011054 260.731986 
L 211.618877 263.706217 
L 210.400722 268.447745 
L 208.486479 272.80133 
L 207.616368 274.137579 
L 205.441091 282.155073 
L 202.308693 289.957042 
L 201.525593 293.965788 
L 201.438582 294.569256 
L 201.525593 295.517561 
L 200.742493 297.845221 
L 200.568471 297.500382 
L 200.220427 297.112439 
L 199.959394 296.85381 
L 199.69836 297.112439 
L 199.785372 297.414173 
L 200.394449 298.233164 
L 200.568471 298.621107 
L 200.48146 298.965946 
L 198.480205 303.104007 
L 197.088028 306.81102 
L 196.478951 308.707631 
L 195.173785 312.716377 
L 192.737475 321.811491 
L 192.476442 322.199434 
L 192.215408 322.630482 
L 191.954375 323.018425 
L 192.041386 323.363264 
L 192.389431 323.06153 
L 192.563453 323.14774 
L 192.650464 323.492578 
L 192.563453 323.880521 
L 192.389431 324.268464 
L 192.041386 325.001246 
L 191.867364 325.475399 
L 191.867364 326.337495 
L 191.606331 327.199591 
L 190.73622 329.225517 
L 190.649209 329.61346 
L 190.562198 330.389346 
L 190.214154 332.544587 
L 189.866109 333.492892 
L 189.518065 334.096359 
L 186.472678 343.838045 
L 183.340279 350.907232 
L 180.294892 357.933315 
L 179.946847 359.614402 
L 179.163748 361.338594 
L 178.119615 368.106048 
L 177.68456 369.657821 
L 177.597548 372.07169 
L 176.727438 374.873502 
L 175.857327 377.373581 
L 175.24825 381.123699 
L 172.376884 389.65845 
L 172.115851 389.313611 
L 171.941829 389.011878 
L 171.854818 388.968773 
L 171.593785 389.313611 
L 171.332751 389.873974 
L 171.506774 390.003288 
L 171.854818 390.046393 
L 172.289873 390.261917 
L 172.376884 390.951594 
L 171.158729 396.339694 
L 169.853563 399.788078 
L 169.418508 400.52086 
L 169.244486 400.693279 
L 168.896441 400.951908 
L 168.722419 401.038117 
L 168.461386 401.124327 
L 168.374375 401.124327 
L 168.287364 401.253641 
L 168.287364 401.339851 
L 168.374375 401.426061 
L 168.374375 401.555375 
L 168.374375 401.641585 
L 168.200353 402.288157 
L 167.852309 403.107148 
L 167.765297 403.279567 
L 166.37312 406.98658 
L 166.199098 407.158999 
L 165.851054 407.07279 
L 165.328987 406.857266 
L 165.241976 406.98658 
L 165.590021 408.409039 
L 164.980943 412.503995 
L 162.892677 417.461047 
L 162.2836 418.409353 
L 162.2836 418.797296 
L 162.2836 419.573182 
L 162.109578 419.961126 
L 160.891423 420.909431 
L 160.543379 421.685318 
L 160.717401 423.3233 
L 160.456368 423.969872 
L 160.195334 423.668139 
L 160.021312 423.3233 
L 159.934301 422.935357 
L 159.934301 422.547414 
L 159.760279 422.935357 
L 159.760279 423.280195 
L 159.760279 423.668139 
L 159.760279 424.142292 
L 159.673268 424.616444 
L 159.499246 424.831968 
L 158.803157 425.090597 
L 158.368102 425.349226 
L 157.672013 425.952693 
L 156.540869 427.332047 
L 156.279836 427.461361 
L 156.192825 427.332047 
L 156.018803 426.771684 
L 155.670759 426.72858 
L 155.670759 426.771684 
L 155.583748 426.814789 
L 154.19157 427.8062 
L 153.669504 428.280353 
L 153.408471 428.452772 
L 152.712382 428.711401 
L 152.451349 428.88382 
L 152.103305 429.357973 
L 151.842271 429.573497 
L 151.668249 429.530392 
L 151.407216 429.444182 
L 151.146183 429.444182 
L 150.88515 429.745916 
L 150.711128 429.87523 
L 149.057917 430.349383 
L 148.622862 430.306278 
L 147.839762 430.090754 
L 145.403452 429.789021 
L 142.619098 429.832125 
L 138.964633 430.694221 
L 134.179024 432.720147 
L 131.133637 434.228815 
L 127.740205 436.039217 
L 125.390906 438.237562 
L 124.86884 438.5824 
L 124.346773 438.797924 
L 123.824707 438.841029 
L 122.606552 439.918649 
L 120.953341 440.263488 
L 114.079467 440.565221 
L 113.731422 440.651431 
L 113.383378 440.82385 
L 113.035334 440.91006 
L 112.600279 440.82385 
L 112.339245 440.565221 
L 112.165223 439.573811 
L 111.90419 439.142763 
L 111.208101 438.625505 
L 108.597769 437.677199 
L 107.901681 437.159942 
L 107.553636 436.815103 
L 107.292603 436.039217 
L 106.857548 435.694379 
L 105.030315 434.401234 
L 103.464116 433.668453 
L 102.506994 433.409824 
L 99.896662 433.021881 
L 97.373341 432.892566 
L 93.805887 432.20289 
L 93.370832 431.944261 
L 93.022788 430.95285 
L 92.239688 430.133859 
L 92.065666 429.573497 
L 92.500721 429.745916 
L 92.935776 430.090754 
L 93.718876 430.95285 
L 94.153931 431.297689 
L 94.588987 431.297689 
L 94.763009 430.995955 
L 94.675998 430.435593 
L 94.327954 430.521802 
L 93.979909 430.349383 
L 93.370832 429.745916 
L 92.935776 429.487287 
L 92.587732 429.314868 
L 92.152677 429.228658 
L 91.717622 429.228658 
L 90.847511 428.88382 
L 89.455334 427.332047 
L 88.585223 426.944104 
L 87.802123 426.944104 
L 87.54109 426.857894 
L 85.626847 425.607855 
L 85.278802 425.047492 
L 85.191791 423.064671 
L 84.930758 422.202575 
L 83.190537 419.874916 
L 82.929503 419.055925 
L 83.190537 416.77137 
L 82.929503 415.909274 
L 82.66847 415.478226 
L 81.624337 414.400606 
L 81.537326 414.314397 
L 81.363304 414.185082 
L 81.276293 413.969558 
L 81.189282 413.754034 
L 81.102271 413.236777 
L 81.01526 413.021253 
L 80.23216 412.331576 
L 78.57895 411.253956 
L 77.79585 410.478069 
L 77.012751 408.667667 
L 76.577695 404.83134 
L 76.925739 400.43465 
L 76.490684 397.977676 
L 76.577695 397.719048 
L 76.751717 397.244895 
L 76.838728 397.029371 
L 76.751717 396.727637 
L 76.490684 395.951751 
L 76.316662 394.96034 
L 76.14264 394.486187 
L 75.794596 394.012035 
L 76.14264 393.494777 
L 76.14264 391.684375 
L 76.229651 390.908489 
L 76.751717 390.391231 
L 78.404928 389.701554 
L 78.839983 389.141192 
L 78.752972 388.710144 
L 78.404928 388.063572 
L 78.491939 387.589419 
L 78.839983 387.244581 
L 78.926994 387.072161 
L 79.101016 386.641113 
L 79.101016 386.425589 
L 79.014005 386.166961 
L 78.752972 385.822122 
L 78.143894 385.304865 
L 77.708839 384.658293 
L 76.664706 383.709987 
L 76.490684 383.623777 
L 76.316662 383.580673 
L 76.14264 383.537568 
L 75.968618 383.365148 
L 75.881607 383.235834 
L 75.794596 382.675472 
L 75.533562 381.770271 
L 75.446551 379.485716 
L 75.185518 377.589105 
L 74.837474 376.511485 
L 74.141385 375.821808 
L 72.488175 374.614874 
L 72.227142 374.270035 
L 71.879097 373.451044 
L 71.531053 373.14931 
L 71.095998 372.804472 
L 70.225887 371.899271 
L 69.703821 371.123385 
L 69.442787 370.563022 
L 69.355776 370.218184 
L 69.181754 369.183669 
L 68.920721 368.493992 
L 68.746699 367.157743 
L 68.485666 366.424961 
L 68.398655 365.51976 
L 68.224632 365.304236 
L 67.876588 364.873188 
L 67.789577 364.657664 
L 67.615555 364.054197 
L 67.615555 363.45073 
L 67.702566 362.2869 
L 67.441533 359.916136 
L 67.093488 358.709202 
L 66.571422 357.545372 
L 66.484411 357.286743 
L 66.571422 357.028114 
L 66.571422 356.769485 
L 66.3974 356.166018 
z
" clip-path="url(#pbef9925d64)" style="fill: #e74c3c; stroke: #ffffff; stroke-width: 0.6"/>
    <path d="M 186.124633 126.072583 
L 186.385667 125.727745 
L 186.733711 125.813955 
L 187.081755 125.986374 
L 187.429799 125.857059 
L 187.603822 126.029479 
L 187.864855 126.115688 
L 188.038877 126.158793 
L 188.29991 126.072583 
L 188.29991 125.857059 
L 188.212899 125.68464 
L 188.038877 125.469116 
L 187.951866 125.253592 
L 187.951866 124.736334 
L 188.125888 124.434601 
L 188.386921 124.305286 
L 188.821977 124.305286 
L 189.257032 124.434601 
L 189.431054 124.736334 
L 189.431054 125.167382 
L 189.170021 125.59843 
L 189.431054 125.727745 
L 189.605076 126.245003 
L 189.779098 126.84847 
L 189.866109 127.107099 
L 190.127143 127.279518 
L 190.040132 127.710566 
L 189.692087 128.184719 
L 189.605076 128.529557 
L 189.779098 128.701976 
L 190.127143 128.960605 
L 190.388176 129.219234 
L 190.388176 129.520968 
L 190.301165 129.736492 
L 190.040132 129.822701 
L 189.779098 129.908911 
L 189.518065 129.908911 
L 189.431054 129.865806 
L 189.344043 129.736492 
L 189.257032 129.607177 
L 189.257032 129.520968 
L 189.08301 129.564072 
L 188.734966 129.736492 
L 187.864855 129.564072 
L 187.603822 129.434758 
L 187.255777 129.176129 
L 187.081755 129.176129 
L 187.081755 129.520968 
L 186.994744 129.520968 
L 186.907733 129.477863 
L 186.907733 129.434758 
L 186.820722 129.391653 
L 186.559689 129.089919 
L 186.385667 128.529557 
L 186.298656 127.451937 
L 186.385667 126.934679 
L 186.472678 126.503631 
L 186.472678 126.201898 
z
" clip-path="url(#pbef9925d64)" style="fill: #e74c3c; stroke: #ffffff; stroke-width: 0.6"/>
    <path d="M 225.540649 223.144598 
L 225.62766 222.454921 
L 226.236737 221.204882 
L 226.323748 220.860044 
L 226.323748 220.515205 
L 226.410759 219.825528 
L 226.49777 219.351376 
L 226.671792 219.049642 
L 227.193859 218.40307 
L 228.847069 215.816782 
L 228.93408 215.428839 
L 228.93408 215.040895 
L 229.021091 214.652952 
L 229.282125 214.308114 
L 229.543158 214.049485 
L 230.50028 213.532227 
L 230.413269 214.135694 
L 229.543158 215.989201 
L 228.847069 217.928917 
L 227.715925 220.55831 
L 226.845815 221.765245 
L 226.149726 223.273913 
L 225.714671 223.834275 
z
" clip-path="url(#pbef9925d64)" style="fill: #e74c3c; stroke: #ffffff; stroke-width: 0.6"/>
   </g>
   <g id="text_1">
    <!-- Madagascar -->
    <g style="fill: #1a252f" transform="translate(96.243466 20.117344) scale(0.17 -0.17)">
     <defs>
      <path id="DejaVuSans-Bold-30" d="M 588 4666 
L 2119 4666 
L 3181 2169 
L 4250 4666 
L 5778 4666 
L 5778 0 
L 4641 0 
L 4641 3413 
L 3566 897 
L 2803 897 
L 1728 3413 
L 1728 0 
L 588 0 
L 588 4666 
z
" transform="scale(0.015625)"/>
      <path id="DejaVuSans-Bold-44" d="M 2106 1575 
Q 1756 1575 1579 1456 
Q 1403 1338 1403 1106 
Q 1403 894 1545 773 
Q 1688 653 1941 653 
Q 2256 653 2472 879 
Q 2688 1106 2688 1447 
L 2688 1575 
L 2106 1575 
z
M 3816 1997 
L 3816 0 
L 2688 0 
L 2688 519 
Q 2463 200 2181 54 
Q 1900 -91 1497 -91 
Q 953 -91 614 226 
Q 275 544 275 1050 
Q 275 1666 698 1953 
Q 1122 2241 2028 2241 
L 2688 2241 
L 2688 2328 
Q 2688 2594 2478 2717 
Q 2269 2841 1825 2841 
Q 1466 2841 1156 2769 
Q 847 2697 581 2553 
L 581 3406 
Q 941 3494 1303 3539 
Q 1666 3584 2028 3584 
Q 2975 3584 3395 3211 
Q 3816 2838 3816 1997 
z
" transform="scale(0.015625)"/>
      <path id="DejaVuSans-Bold-47" d="M 2919 2988 
L 2919 4863 
L 4044 4863 
L 4044 0 
L 2919 0 
L 2919 506 
Q 2688 197 2409 53 
Q 2131 -91 1766 -91 
Q 1119 -91 703 423 
Q 288 938 288 1747 
Q 288 2556 703 3070 
Q 1119 3584 1766 3584 
Q 2128 3584 2408 3439 
Q 2688 3294 2919 2988 
z
M 2181 722 
Q 2541 722 2730 984 
Q 2919 1247 2919 1747 
Q 2919 2247 2730 2509 
Q 2541 2772 2181 2772 
Q 1825 2772 1636 2509 
Q 1447 2247 1447 1747 
Q 1447 1247 1636 984 
Q 1825 722 2181 722 
z
" transform="scale(0.015625)"/>
      <path id="DejaVuSans-Bold-4a" d="M 2919 594 
Q 2688 288 2409 144 
Q 2131 0 1766 0 
Q 1125 0 706 504 
Q 288 1009 288 1791 
Q 288 2575 706 3076 
Q 1125 3578 1766 3578 
Q 2131 3578 2409 3434 
Q 2688 3291 2919 2981 
L 2919 3500 
L 4044 3500 
L 4044 353 
Q 4044 -491 3511 -936 
Q 2978 -1381 1966 -1381 
Q 1638 -1381 1331 -1331 
Q 1025 -1281 716 -1178 
L 716 -306 
Q 1009 -475 1290 -558 
Q 1572 -641 1856 -641 
Q 2406 -641 2662 -400 
Q 2919 -159 2919 353 
L 2919 594 
z
M 2181 2772 
Q 1834 2772 1640 2515 
Q 1447 2259 1447 1791 
Q 1447 1309 1634 1061 
Q 1822 813 2181 813 
Q 2531 813 2725 1069 
Q 2919 1325 2919 1791 
Q 2919 2259 2725 2515 
Q 2531 2772 2181 2772 
z
" transform="scale(0.015625)"/>
      <path id="DejaVuSans-Bold-56" d="M 3272 3391 
L 3272 2541 
Q 2913 2691 2578 2766 
Q 2244 2841 1947 2841 
Q 1628 2841 1473 2761 
Q 1319 2681 1319 2516 
Q 1319 2381 1436 2309 
Q 1553 2238 1856 2203 
L 2053 2175 
Q 2913 2066 3209 1816 
Q 3506 1566 3506 1031 
Q 3506 472 3093 190 
Q 2681 -91 1863 -91 
Q 1516 -91 1145 -36 
Q 775 19 384 128 
L 384 978 
Q 719 816 1070 734 
Q 1422 653 1784 653 
Q 2113 653 2278 743 
Q 2444 834 2444 1013 
Q 2444 1163 2330 1236 
Q 2216 1309 1875 1350 
L 1678 1375 
Q 931 1469 631 1722 
Q 331 1975 331 2491 
Q 331 3047 712 3315 
Q 1094 3584 1881 3584 
Q 2191 3584 2531 3537 
Q 2872 3491 3272 3391 
z
" transform="scale(0.015625)"/>
      <path id="DejaVuSans-Bold-46" d="M 3366 3391 
L 3366 2478 
Q 3138 2634 2908 2709 
Q 2678 2784 2431 2784 
Q 1963 2784 1702 2511 
Q 1441 2238 1441 1747 
Q 1441 1256 1702 982 
Q 1963 709 2431 709 
Q 2694 709 2930 787 
Q 3166 866 3366 1019 
L 3366 103 
Q 3103 6 2833 -42 
Q 2563 -91 2291 -91 
Q 1344 -91 809 395 
Q 275 881 275 1747 
Q 275 2613 809 3098 
Q 1344 3584 2291 3584 
Q 2566 3584 2833 3536 
Q 3100 3488 3366 3391 
z
" transform="scale(0.015625)"/>
      <path id="DejaVuSans-Bold-55" d="M 3138 2547 
Q 2991 2616 2845 2648 
Q 2700 2681 2553 2681 
Q 2122 2681 1889 2404 
Q 1656 2128 1656 1613 
L 1656 0 
L 538 0 
L 538 3500 
L 1656 3500 
L 1656 2925 
Q 1872 3269 2151 3426 
Q 2431 3584 2822 3584 
Q 2878 3584 2943 3579 
Q 3009 3575 3134 3559 
L 3138 2547 
z
" transform="scale(0.015625)"/>
     </defs>
     <use xlink:href="#DejaVuSans-Bold-30"/>
     <use xlink:href="#DejaVuSans-Bold-44" transform="translate(99.515625 0)"/>
     <use xlink:href="#DejaVuSans-Bold-47" transform="translate(167 0)"/>
     <use xlink:href="#DejaVuSans-Bold-44" transform="translate(238.578125 0)"/>
     <use xlink:href="#DejaVuSans-Bold-4a" transform="translate(306.0625 0)"/>
     <use xlink:href="#DejaVuSans-Bold-44" transform="translate(377.640625 0)"/>
     <use xlink:href="#DejaVuSans-Bold-56" transform="translate(445.125 0)"/>
     <use xlink:href="#DejaVuSans-Bold-46" transform="translate(504.640625 0)"/>
     <use xlink:href="#DejaVuSans-Bold-44" transform="translate(563.921875 0)"/>
     <use xlink:href="#DejaVuSans-Bold-55" transform="translate(631.40625 0)"/>
    </g>
   </g>
   <g id="legend_1">
    <g id="patch_2">
     <path d="M 13.5 498.657344 
L 96.890625 498.657344 
Q 98.690625 498.657344 98.690625 496.857344 
L 98.690625 470.755937 
Q 98.690625 468.955937 96.890625 468.955937 
L 13.5 468.955937 
Q 11.7 468.955937 11.7 470.755937 
L 11.7 496.857344 
Q 11.7 498.657344 13.5 498.657344 
z
" style="fill: #ffffff; opacity: 0.85; stroke: #cccccc; stroke-linejoin: miter"/>
    </g>
    <g id="patch_3">
     <path d="M 15.3 479.394531 
L 33.3 479.394531 
L 33.3 473.094531 
L 15.3 473.094531 
z
" style="fill: #e74c3c; stroke: #888888; stroke-linejoin: miter"/>
    </g>
    <g id="text_2">
     <!-- Madagascar -->
     <g transform="translate(40.5 479.394531) scale(0.09 -0.09)">
      <defs>
       <path id="DejaVuSans-30" d="M 628 4666 
L 1569 4666 
L 2759 1491 
L 3956 4666 
L 4897 4666 
L 4897 0 
L 4281 0 
L 4281 4097 
L 3078 897 
L 2444 897 
L 1241 4097 
L 1241 0 
L 628 0 
L 628 4666 
z
" transform="scale(0.015625)"/>
       <path id="DejaVuSans-44" d="M 2194 1759 
Q 1497 1759 1228 1600 
Q 959 1441 959 1056 
Q 959 750 1161 570 
Q 1363 391 1709 391 
Q 2188 391 2477 730 
Q 2766 1069 2766 1631 
L 2766 1759 
L 2194 1759 
z
M 3341 1997 
L 3341 0 
L 2766 0 
L 2766 531 
Q 2569 213 2275 61 
Q 1981 -91 1556 -91 
Q 1019 -91 701 211 
Q 384 513 384 1019 
Q 384 1609 779 1909 
Q 1175 2209 1959 2209 
L 2766 2209 
L 2766 2266 
Q 2766 2663 2505 2880 
Q 2244 3097 1772 3097 
Q 1472 3097 1187 3025 
Q 903 2953 641 2809 
L 641 3341 
Q 956 3463 1253 3523 
Q 1550 3584 1831 3584 
Q 2591 3584 2966 3190 
Q 3341 2797 3341 1997 
z
" transform="scale(0.015625)"/>
       <path id="DejaVuSans-47" d="M 2906 2969 
L 2906 4863 
L 3481 4863 
L 3481 0 
L 2906 0 
L 2906 525 
Q 2725 213 2448 61 
Q 2172 -91 1784 -91 
Q 1150 -91 751 415 
Q 353 922 353 1747 
Q 353 2572 751 3078 
Q 1150 3584 1784 3584 
Q 2172 3584 2448 3432 
Q 2725 3281 2906 2969 
z
M 947 1747 
Q 947 1113 1208 752 
Q 1469 391 1925 391 
Q 2381 391 2643 752 
Q 2906 1113 2906 1747 
Q 2906 2381 2643 2742 
Q 2381 3103 1925 3103 
Q 1469 3103 1208 2742 
Q 947 2381 947 1747 
z
" transform="scale(0.015625)"/>
       <path id="DejaVuSans-4a" d="M 2906 1791 
Q 2906 2416 2648 2759 
Q 2391 3103 1925 3103 
Q 1463 3103 1205 2759 
Q 947 2416 947 1791 
Q 947 1169 1205 825 
Q 1463 481 1925 481 
Q 2391 481 2648 825 
Q 2906 1169 2906 1791 
z
M 3481 434 
Q 3481 -459 3084 -895 
Q 2688 -1331 1869 -1331 
Q 1566 -1331 1297 -1286 
Q 1028 -1241 775 -1147 
L 775 -588 
Q 1028 -725 1275 -790 
Q 1522 -856 1778 -856 
Q 2344 -856 2625 -561 
Q 2906 -266 2906 331 
L 2906 616 
Q 2728 306 2450 153 
Q 2172 0 1784 0 
Q 1141 0 747 490 
Q 353 981 353 1791 
Q 353 2603 747 3093 
Q 1141 3584 1784 3584 
Q 2172 3584 2450 3431 
Q 2728 3278 2906 2969 
L 2906 3500 
L 3481 3500 
L 3481 434 
z
" transform="scale(0.015625)"/>
       <path id="DejaVuSans-56" d="M 2834 3397 
L 2834 2853 
Q 2591 2978 2328 3040 
Q 2066 3103 1784 3103 
Q 1356 3103 1142 2972 
Q 928 2841 928 2578 
Q 928 2378 1081 2264 
Q 1234 2150 1697 2047 
L 1894 2003 
Q 2506 1872 2764 1633 
Q 3022 1394 3022 966 
Q 3022 478 2636 193 
Q 2250 -91 1575 -91 
Q 1294 -91 989 -36 
Q 684 19 347 128 
L 347 722 
Q 666 556 975 473 
Q 1284 391 1588 391 
Q 1994 391 2212 530 
Q 2431 669 2431 922 
Q 2431 1156 2273 1281 
Q 2116 1406 1581 1522 
L 1381 1569 
Q 847 1681 609 1914 
Q 372 2147 372 2553 
Q 372 3047 722 3315 
Q 1072 3584 1716 3584 
Q 2034 3584 2315 3537 
Q 2597 3491 2834 3397 
z
" transform="scale(0.015625)"/>
       <path id="DejaVuSans-46" d="M 3122 3366 
L 3122 2828 
Q 2878 2963 2633 3030 
Q 2388 3097 2138 3097 
Q 1578 3097 1268 2742 
Q 959 2388 959 1747 
Q 959 1106 1268 751 
Q 1578 397 2138 397 
Q 2388 397 2633 464 
Q 2878 531 3122 666 
L 3122 134 
Q 2881 22 2623 -34 
Q 2366 -91 2075 -91 
Q 1284 -91 818 406 
Q 353 903 353 1747 
Q 353 2603 823 3093 
Q 1294 3584 2113 3584 
Q 2378 3584 2631 3529 
Q 2884 3475 3122 3366 
z
" transform="scale(0.015625)"/>
       <path id="DejaVuSans-55" d="M 2631 2963 
Q 2534 3019 2420 3045 
Q 2306 3072 2169 3072 
Q 1681 3072 1420 2755 
Q 1159 2438 1159 1844 
L 1159 0 
L 581 0 
L 581 3500 
L 1159 3500 
L 1159 2956 
Q 1341 3275 1631 3429 
Q 1922 3584 2338 3584 
Q 2397 3584 2469 3576 
Q 2541 3569 2628 3553 
L 2631 2963 
z
" transform="scale(0.015625)"/>
      </defs>
      <use xlink:href="#DejaVuSans-30"/>
      <use xlink:href="#DejaVuSans-44" transform="translate(86.28125 0)"/>
      <use xlink:href="#DejaVuSans-47" transform="translate(147.5625 0)"/>
      <use xlink:href="#DejaVuSans-44" transform="translate(211.046875 0)"/>
      <use xlink:href="#DejaVuSans-4a" transform="translate(272.328125 0)"/>
      <use xlink:href="#DejaVuSans-44" transform="translate(335.8125 0)"/>
      <use xlink:href="#DejaVuSans-56" transform="translate(397.09375 0)"/>
      <use xlink:href="#DejaVuSans-46" transform="translate(449.1875 0)"/>
      <use xlink:href="#DejaVuSans-44" transform="translate(504.171875 0)"/>
      <use xlink:href="#DejaVuSans-55" transform="translate(565.453125 0)"/>
     </g>
    </g>
    <g id="patch_4">
     <path d="M 15.3 492.895234 
L 33.3 492.895234 
L 33.3 486.595234 
L 15.3 486.595234 
z
" style="fill: #bdc3c7; stroke: #888888; stroke-linejoin: miter"/>
    </g>
    <g id="text_3">
     <!-- Neighbors -->
     <g transform="translate(40.5 492.895234) scale(0.09 -0.09)">
      <defs>
       <path id="DejaVuSans-31" d="M 628 4666 
L 1478 4666 
L 3547 763 
L 3547 4666 
L 4159 4666 
L 4159 0 
L 3309 0 
L 1241 3903 
L 1241 0 
L 628 0 
L 628 4666 
z
" transform="scale(0.015625)"/>
       <path id="DejaVuSans-48" d="M 3597 1894 
L 3597 1613 
L 953 1613 
Q 991 1019 1311 708 
Q 1631 397 2203 397 
Q 2534 397 2845 478 
Q 3156 559 3463 722 
L 3463 178 
Q 3153 47 2828 -22 
Q 2503 -91 2169 -91 
Q 1331 -91 842 396 
Q 353 884 353 1716 
Q 353 2575 817 3079 
Q 1281 3584 2069 3584 
Q 2775 3584 3186 3129 
Q 3597 2675 3597 1894 
z
M 3022 2063 
Q 3016 2534 2758 2815 
Q 2500 3097 2075 3097 
Q 1594 3097 1305 2825 
Q 1016 2553 972 2059 
L 3022 2063 
z
" transform="scale(0.015625)"/>
       <path id="DejaVuSans-4c" d="M 603 3500 
L 1178 3500 
L 1178 0 
L 603 0 
L 603 3500 
z
M 603 4863 
L 1178 4863 
L 1178 4134 
L 603 4134 
L 603 4863 
z
" transform="scale(0.015625)"/>
       <path id="DejaVuSans-4b" d="M 3513 2113 
L 3513 0 
L 2938 0 
L 2938 2094 
Q 2938 2591 2744 2837 
Q 2550 3084 2163 3084 
Q 1697 3084 1428 2787 
Q 1159 2491 1159 1978 
L 1159 0 
L 581 0 
L 581 4863 
L 1159 4863 
L 1159 2956 
Q 1366 3272 1645 3428 
Q 1925 3584 2291 3584 
Q 2894 3584 3203 3211 
Q 3513 2838 3513 2113 
z
" transform="scale(0.015625)"/>
       <path id="DejaVuSans-45" d="M 3116 1747 
Q 3116 2381 2855 2742 
Q 2594 3103 2138 3103 
Q 1681 3103 1420 2742 
Q 1159 2381 1159 1747 
Q 1159 1113 1420 752 
Q 1681 391 2138 391 
Q 2594 391 2855 752 
Q 3116 1113 3116 1747 
z
M 1159 2969 
Q 1341 3281 1617 3432 
Q 1894 3584 2278 3584 
Q 2916 3584 3314 3078 
Q 3713 2572 3713 1747 
Q 3713 922 3314 415 
Q 2916 -91 2278 -91 
Q 1894 -91 1617 61 
Q 1341 213 1159 525 
L 1159 0 
L 581 0 
L 581 4863 
L 1159 4863 
L 1159 2969 
z
" transform="scale(0.015625)"/>
       <path id="DejaVuSans-52" d="M 1959 3097 
Q 1497 3097 1228 2736 
Q 959 2375 959 1747 
Q 959 1119 1226 758 
Q 1494 397 1959 397 
Q 2419 397 2687 759 
Q 2956 1122 2956 1747 
Q 2956 2369 2687 2733 
Q 2419 3097 1959 3097 
z
M 1959 3584 
Q 2709 3584 3137 3096 
Q 3566 2609 3566 1747 
Q 3566 888 3137 398 
Q 2709 -91 1959 -91 
Q 1206 -91 779 398 
Q 353 888 353 1747 
Q 353 2609 779 3096 
Q 1206 3584 1959 3584 
z
" transform="scale(0.015625)"/>
      </defs>
      <use xlink:href="#DejaVuSans-31"/>
      <use xlink:href="#DejaVuSans-48" transform="translate(74.8125 0)"/>
      <use xlink:href="#DejaVuSans-4c" transform="translate(136.34375 0)"/>
      <use xlink:href="#DejaVuSans-4a" transform="translate(164.125 0)"/>
      <use xlink:href="#DejaVuSans-4b" transform="translate(227.609375 0)"/>
      <use xlink:href="#DejaVuSans-45" transform="translate(290.984375 0)"/>
      <use xlink:href="#DejaVuSans-52" transform="translate(354.46875 0)"/>
      <use xlink:href="#DejaVuSans-55" transform="translate(415.65625 0)"/>
      <use xlink:href="#DejaVuSans-56" transform="translate(456.765625 0)"/>
     </g>
    </g>
   </g>
  </g>
 </g>
 <defs>
  <clipPath id="pbef9925d64">
   <rect x="7.2" y="30.117344" width="293.809119" height="473.04"/>
  </clipPath>
 </defs>
</svg>
