<?xml version="1.0" encoding="utf-8" standalone="no"?>
<!DOCTYPE svg PUBLIC "-//W3C//DTD SVG 1.1//EN"
  "http://www.w3.org/Graphics/SVG/1.1/DTD/svg11.dtd">
<svg xmlns:xlink="http://www.w3.org/1999/xlink" width="204.56805pt" height="510.357344pt" viewBox="0 0 204.56805 510.357344" xmlns="http://www.w3.org/2000/svg" version="1.1">
 <metadata>
  <rdf:RDF xmlns:dc="http://purl.org/dc/elements/1.1/" xmlns:cc="http://creativecommons.org/ns#" xmlns:rdf="http://www.w3.org/1999/02/22-rdf-syntax-ns#">
   <cc:Work>
    <dc:type rdf:resource="http://purl.org/dc/dcmitype/StillImage"/>
    <dc:date>2026-06-19T08:36:35.644035</dc:date>
    <dc:format>image/svg+xml</dc:format>
    <dc:creator>
     <cc:Agent>
      <dc:title>Matplotlib v3.11.0, https://matplotlib.org/</dc:title>
     </cc:Agent>
    </dc:creator>
   </cc:Work>
  </rdf:RDF>
 </metadata>
 <defs>
  <style type="text/css">*{stroke-linejoin: round; stroke-linecap: butt}</style>
 </defs>
 <g id="figure_1">
  <g id="patch_1">
   <path d="M 0 510.357344 
L 204.56805 510.357344 
L 204.56805 0 
L 0 0 
z
" style="fill: #d6eaf8"/>
  </g>
  <g id="axes_1">
   <g id="PatchCollection_1">
    <path d="M 111.187455 225.696834 
L 111.187455 225.484156 
L 114.507378 225.625941 
L 114.960095 225.413263 
L 115.111001 224.704336 
L 115.412812 223.782732 
L 116.016434 223.286483 
L 116.318246 223.499161 
L 116.16734 223.853624 
L 116.16734 224.562551 
L 115.714623 225.767726 
L 115.111001 226.263975 
L 114.507378 226.618438 
L 113.451039 226.547546 
L 112.998322 226.40576 
z
" clip-path="url(#pf4c06d9c4e)" style="fill: #e74c3c; stroke: #ffffff; stroke-width: 0.6"/>
    <path d="M 96.851423 425.968593 
L 97.455046 425.685023 
L 97.455046 426.039486 
L 97.30414 426.039486 
L 97.153235 426.181271 
L 97.153235 426.323056 
L 97.153235 426.535734 
L 97.455046 426.890198 
L 97.756857 427.315554 
L 97.907763 427.811802 
L 98.058668 428.308051 
L 97.756857 428.308051 
L 97.002329 426.748412 
z
" clip-path="url(#pf4c06d9c4e)" style="fill: #e74c3c; stroke: #ffffff; stroke-width: 0.6"/>
    <path d="M 98.662291 119.074276 
L 98.813196 118.365349 
L 99.416819 117.231066 
L 99.71863 116.451247 
L 100.020441 116.451247 
L 100.020441 116.52214 
L 100.020441 116.593033 
L 100.020441 116.734818 
L 99.567724 118.010886 
L 99.115007 118.578027 
z
" clip-path="url(#pf4c06d9c4e)" style="fill: #e74c3c; stroke: #ffffff; stroke-width: 0.6"/>
    <path d="M 109.678399 176.497329 
L 109.678399 176.426436 
L 109.678399 176.355543 
L 109.678399 176.284651 
L 109.829305 176.284651 
L 109.829305 176.355543 
L 109.829305 176.426436 
L 109.980211 176.497329 
L 109.829305 176.568221 
z
" clip-path="url(#pf4c06d9c4e)" style="fill: #e74c3c; stroke: #ffffff; stroke-width: 0.6"/>
    <path d="M 109.678399 326.009945 
L 109.678399 325.86816 
L 109.678399 325.797267 
L 109.829305 325.655482 
L 109.829305 325.584589 
L 109.980211 325.726374 
L 109.980211 325.939052 
L 109.980211 326.009945 
L 109.829305 326.009945 
z
" clip-path="url(#pf4c06d9c4e)" style="fill: #e74c3c; stroke: #ffffff; stroke-width: 0.6"/>
    <path d="M 108.923871 158.419701 
L 109.074777 158.561486 
L 109.225683 158.419701 
L 109.225683 158.348808 
L 109.074777 158.207023 
L 109.074777 158.13613 
L 109.074777 158.065238 
L 109.074777 158.207023 
L 108.923871 158.348808 
z
" clip-path="url(#pf4c06d9c4e)" style="fill: #e74c3c; stroke: #ffffff; stroke-width: 0.6"/>
    <path d="M 106.358476 176.142865 
L 106.509382 176.213758 
L 106.811193 176.213758 
L 106.962099 176.071973 
L 106.811193 176.071973 
L 106.660287 176.071973 
L 106.660287 176.00108 
L 106.660287 176.071973 
L 106.509382 176.071973 
z
" clip-path="url(#pf4c06d9c4e)" style="fill: #e74c3c; stroke: #ffffff; stroke-width: 0.6"/>
    <path d="M 103.038553 426.606627 
L 103.038553 426.252164 
L 103.038553 425.897701 
L 103.49127 425.685023 
L 103.49127 425.755915 
L 103.49127 425.897701 
L 103.49127 425.968593 
L 103.49127 426.110379 
L 103.340364 426.890198 
z
" clip-path="url(#pf4c06d9c4e)" style="fill: #e74c3c; stroke: #ffffff; stroke-width: 0.6"/>
    <path d="M 97.153235 392.223688 
L 97.153235 392.152795 
L 97.153235 392.01101 
L 97.153235 391.798332 
L 97.30414 391.940117 
L 97.455046 392.01101 
L 97.455046 392.152795 
L 97.455046 392.436366 
L 97.30414 392.294581 
z
" clip-path="url(#pf4c06d9c4e)" style="fill: #e74c3c; stroke: #ffffff; stroke-width: 0.6"/>
    <path d="M 90.664294 240.513399 
L 90.664294 240.442507 
L 90.664294 240.371614 
L 90.815199 240.300721 
L 90.815199 240.371614 
L 90.815199 240.442507 
L 90.966105 240.442507 
L 90.966105 240.513399 
L 90.815199 240.584292 
z
" clip-path="url(#pf4c06d9c4e)" style="fill: #e74c3c; stroke: #ffffff; stroke-width: 0.6"/>
    <path d="M 89.306143 150.479723 
L 89.306143 150.408831 
L 89.306143 150.267045 
L 89.306143 150.196153 
L 89.457049 150.267045 
L 89.607955 150.267045 
L 89.457049 150.337938 
L 89.457049 150.408831 
L 89.457049 150.479723 
z
" clip-path="url(#pf4c06d9c4e)" style="fill: #e74c3c; stroke: #ffffff; stroke-width: 0.6"/>
    <path d="M 80.402713 233.495026 
L 80.553619 233.424133 
L 80.704524 233.353241 
L 80.704524 233.424133 
L 80.704524 233.495026 
L 80.85543 233.565919 
L 80.704524 233.636811 
L 80.553619 233.565919 
L 80.553619 233.495026 
z
" clip-path="url(#pf4c06d9c4e)" style="fill: #e74c3c; stroke: #ffffff; stroke-width: 0.6"/>
    <path d="M 80.100902 245.263207 
L 80.100902 245.192315 
L 80.100902 245.050529 
L 80.251807 244.908744 
L 80.251807 245.050529 
L 80.402713 245.192315 
L 80.402713 245.263207 
L 80.251807 245.404993 
L 80.251807 245.3341 
z
" clip-path="url(#pf4c06d9c4e)" style="fill: #e74c3c; stroke: #ffffff; stroke-width: 0.6"/>
    <path d="M 119.638169 218.182212 
L 119.789074 218.182212 
L 119.789074 218.111319 
L 119.789074 217.969534 
L 119.789074 217.898641 
L 119.789074 217.969534 
L 119.638169 217.969534 
L 119.638169 218.111319 
z
" clip-path="url(#pf4c06d9c4e)" style="fill: #e74c3c; stroke: #ffffff; stroke-width: 0.6"/>
    <path d="M 118.58183 218.536675 
L 118.58183 218.39489 
L 118.58183 218.323997 
L 118.732735 218.182212 
L 118.732735 218.253104 
L 118.732735 218.323997 
L 118.732735 218.39489 
L 118.732735 218.465782 
z
" clip-path="url(#pf4c06d9c4e)" style="fill: #e74c3c; stroke: #ffffff; stroke-width: 0.6"/>
    <path d="M 116.620057 313.461945 
L 116.620057 313.249267 
L 116.620057 313.107481 
L 116.921868 312.823911 
L 117.676396 312.823911 
L 117.52549 312.894803 
L 117.374585 312.965696 
L 116.921868 313.320159 
z
" clip-path="url(#pf4c06d9c4e)" style="fill: #e74c3c; stroke: #ffffff; stroke-width: 0.6"/>
    <path d="M 116.16734 207.690098 
L 116.16734 207.619206 
L 116.16734 207.548313 
L 116.16734 207.47742 
L 116.318246 207.406528 
L 116.318246 207.548313 
L 116.318246 207.619206 
L 116.318246 207.690098 
z
" clip-path="url(#pf4c06d9c4e)" style="fill: #e74c3c; stroke: #ffffff; stroke-width: 0.6"/>
    <path d="M 110.885644 153.528107 
L 111.03655 153.528107 
L 111.03655 153.457215 
L 111.03655 153.31543 
L 111.03655 153.244537 
L 111.03655 153.31543 
L 110.885644 153.31543 
L 110.885644 153.386322 
z
" clip-path="url(#pf4c06d9c4e)" style="fill: #e74c3c; stroke: #ffffff; stroke-width: 0.6"/>
    <path d="M 109.980211 207.122957 
L 109.980211 206.981172 
L 109.980211 206.910279 
L 110.131116 206.768494 
L 110.131116 206.839387 
L 110.131116 206.910279 
L 110.131116 206.981172 
L 110.131116 207.052064 
z
" clip-path="url(#pf4c06d9c4e)" style="fill: #e74c3c; stroke: #ffffff; stroke-width: 0.6"/>
    <path d="M 108.018438 279.646147 
L 108.169343 279.717039 
L 108.320249 279.717039 
L 108.320249 279.646147 
L 108.169343 279.575254 
L 108.169343 279.504361 
L 108.169343 279.575254 
L 108.018438 279.575254 
z
" clip-path="url(#pf4c06d9c4e)" style="fill: #e74c3c; stroke: #ffffff; stroke-width: 0.6"/>
    <path d="M 106.358476 318.069967 
L 106.358476 317.999075 
L 106.358476 317.928182 
L 106.358476 317.786397 
L 106.509382 317.857289 
L 106.660287 317.928182 
L 106.660287 317.999075 
L 106.509382 318.14086 
z
" clip-path="url(#pf4c06d9c4e)" style="fill: #e74c3c; stroke: #ffffff; stroke-width: 0.6"/>
    <path d="M 103.038553 139.774932 
L 103.189459 139.845824 
L 103.340364 139.774932 
L 103.340364 139.633146 
L 103.189459 139.562254 
L 103.189459 139.420469 
L 103.189459 139.562254 
L 103.038553 139.633146 
z
" clip-path="url(#pf4c06d9c4e)" style="fill: #e74c3c; stroke: #ffffff; stroke-width: 0.6"/>
    <path d="M 101.529497 111.98501 
L 101.529497 111.630546 
L 101.680403 111.205191 
L 101.831308 110.92162 
L 102.133119 110.92162 
L 101.982214 111.488761 
L 101.831308 112.055902 
L 101.680403 112.339473 
z
" clip-path="url(#pf4c06d9c4e)" style="fill: #e74c3c; stroke: #ffffff; stroke-width: 0.6"/>
    <path d="M 101.227686 136.088514 
L 101.529497 136.159406 
L 101.529497 135.946728 
L 101.529497 135.875836 
L 101.378591 135.875836 
L 101.378591 135.73405 
L 101.378591 135.875836 
L 101.227686 136.017621 
z
" clip-path="url(#pf4c06d9c4e)" style="fill: #e74c3c; stroke: #ffffff; stroke-width: 0.6"/>
    <path d="M 100.624063 134.883338 
L 100.624063 134.812446 
L 100.774969 134.741553 
L 100.774969 134.812446 
L 100.925875 134.741553 
L 100.774969 134.812446 
L 100.774969 134.883338 
L 100.774969 134.954231 
z
" clip-path="url(#pf4c06d9c4e)" style="fill: #e74c3c; stroke: #ffffff; stroke-width: 0.6"/>
    <path d="M 97.30414 111.98501 
L 97.30414 111.914117 
L 97.455046 111.914117 
L 97.605951 111.843224 
L 97.455046 111.98501 
L 97.605951 112.055902 
L 97.605951 112.126795 
L 97.455046 112.126795 
z
" clip-path="url(#pf4c06d9c4e)" style="fill: #e74c3c; stroke: #ffffff; stroke-width: 0.6"/>
    <path d="M 94.436934 117.8691 
L 94.587839 117.8691 
L 94.587839 117.798208 
L 94.587839 117.727315 
L 94.587839 117.58553 
L 94.587839 117.656422 
L 94.436934 117.656422 
L 94.436934 117.727315 
z
" clip-path="url(#pf4c06d9c4e)" style="fill: #e74c3c; stroke: #ffffff; stroke-width: 0.6"/>
    <path d="M 94.135123 125.171044 
L 94.286028 125.31283 
L 94.436934 125.31283 
L 94.286028 125.241937 
L 94.286028 125.171044 
L 94.286028 125.029259 
L 94.286028 125.100152 
L 94.135123 125.100152 
z
" clip-path="url(#pf4c06d9c4e)" style="fill: #e74c3c; stroke: #ffffff; stroke-width: 0.6"/>
    <path d="M 93.833311 134.245304 
L 94.135123 134.245304 
L 94.135123 134.174412 
L 94.135123 134.103519 
L 93.984217 134.103519 
L 93.984217 134.032626 
L 93.984217 134.103519 
L 93.833311 134.174412 
z
" clip-path="url(#pf4c06d9c4e)" style="fill: #e74c3c; stroke: #ffffff; stroke-width: 0.6"/>
    <path d="M 93.682406 165.792537 
L 93.833311 165.792537 
L 93.833311 165.721645 
L 93.833311 165.650752 
L 93.833311 165.508967 
L 93.833311 165.579859 
L 93.682406 165.579859 
L 93.682406 165.650752 
z
" clip-path="url(#pf4c06d9c4e)" style="fill: #e74c3c; stroke: #ffffff; stroke-width: 0.6"/>
    <path d="M 93.5315 171.038594 
L 93.682406 171.038594 
L 93.682406 170.967701 
L 93.682406 170.896809 
L 93.682406 170.755023 
L 93.682406 170.825916 
L 93.5315 170.825916 
L 93.5315 170.896809 
z
" clip-path="url(#pf4c06d9c4e)" style="fill: #e74c3c; stroke: #ffffff; stroke-width: 0.6"/>
    <path d="M 93.078783 161.822549 
L 93.078783 161.609871 
L 93.078783 161.538978 
L 93.229689 161.538978 
L 93.380595 161.538978 
L 93.229689 161.609871 
L 93.229689 161.751656 
L 93.229689 161.822549 
z
" clip-path="url(#pf4c06d9c4e)" style="fill: #e74c3c; stroke: #ffffff; stroke-width: 0.6"/>
    <path d="M 92.022444 271.068135 
L 92.17335 271.139028 
L 92.324255 270.997242 
L 92.17335 270.92635 
L 92.17335 270.855457 
L 92.17335 270.784564 
L 92.17335 270.92635 
L 92.022444 270.997242 
z
" clip-path="url(#pf4c06d9c4e)" style="fill: #e74c3c; stroke: #ffffff; stroke-width: 0.6"/>
    <path d="M 91.267916 126.234434 
L 91.267916 126.163541 
L 91.267916 125.950863 
L 91.418822 125.950863 
L 91.418822 126.021756 
L 91.569727 126.021756 
L 91.418822 126.092649 
L 91.418822 126.163541 
z
" clip-path="url(#pf4c06d9c4e)" style="fill: #e74c3c; stroke: #ffffff; stroke-width: 0.6"/>
    <path d="M 90.966105 135.025124 
L 91.117011 135.096016 
L 91.117011 134.954231 
L 91.117011 134.883338 
L 90.966105 134.883338 
L 90.966105 134.812446 
L 90.966105 134.883338 
L 90.966105 134.954231 
z
" clip-path="url(#pf4c06d9c4e)" style="fill: #e74c3c; stroke: #ffffff; stroke-width: 0.6"/>
    <path d="M 90.966105 244.837851 
L 91.117011 244.908744 
L 91.267916 244.837851 
L 91.267916 244.766959 
L 91.117011 244.696066 
L 91.117011 244.625173 
L 91.117011 244.696066 
L 90.966105 244.766959 
z
" clip-path="url(#pf4c06d9c4e)" style="fill: #e74c3c; stroke: #ffffff; stroke-width: 0.6"/>
    <path d="M 90.664294 243.20732 
L 90.815199 243.278213 
L 90.815199 243.349106 
L 90.966105 243.20732 
L 90.966105 243.136428 
L 90.815199 243.136428 
L 90.815199 242.994642 
L 90.815199 243.136428 
z
" clip-path="url(#pf4c06d9c4e)" style="fill: #e74c3c; stroke: #ffffff; stroke-width: 0.6"/>
    <path d="M 90.513388 249.658552 
L 90.664294 249.729445 
L 90.815199 249.658552 
L 90.815199 249.587659 
L 90.664294 249.587659 
L 90.664294 249.445874 
L 90.664294 249.587659 
L 90.513388 249.587659 
z
" clip-path="url(#pf4c06d9c4e)" style="fill: #e74c3c; stroke: #ffffff; stroke-width: 0.6"/>
    <path d="M 85.98622 262.631909 
L 86.288031 262.561016 
L 86.288031 262.490123 
L 86.288031 262.419231 
L 86.137126 262.419231 
L 86.137126 262.348338 
L 86.137126 262.490123 
L 85.98622 262.561016 
z
" clip-path="url(#pf4c06d9c4e)" style="fill: #e74c3c; stroke: #ffffff; stroke-width: 0.6"/>
    <path d="M 120.996319 217.260607 
L 120.996319 217.118822 
L 120.996319 217.047929 
L 121.147225 216.906144 
L 121.147225 217.047929 
L 121.147225 217.118822 
L 121.147225 217.189715 
z
" clip-path="url(#pf4c06d9c4e)" style="fill: #e74c3c; stroke: #ffffff; stroke-width: 0.6"/>
    <path d="M 116.921868 179.829284 
L 117.223679 179.687498 
L 117.52549 179.616606 
L 117.676396 179.616606 
L 117.978207 179.616606 
L 117.52549 179.900176 
L 117.374585 179.971069 
z
" clip-path="url(#pf4c06d9c4e)" style="fill: #e74c3c; stroke: #ffffff; stroke-width: 0.6"/>
    <path d="M 113.903756 324.592092 
L 114.054662 324.450307 
L 114.205567 324.379414 
L 114.356473 324.237629 
L 114.80919 324.024951 
L 114.507378 324.237629 
L 114.054662 324.662985 
z
" clip-path="url(#pf4c06d9c4e)" style="fill: #e74c3c; stroke: #ffffff; stroke-width: 0.6"/>
    <path d="M 113.451039 203.294754 
L 113.601945 203.365646 
L 113.601945 203.294754 
L 113.601945 203.223861 
L 113.601945 203.082076 
L 113.601945 203.152968 
L 113.451039 203.223861 
z
" clip-path="url(#pf4c06d9c4e)" style="fill: #e74c3c; stroke: #ffffff; stroke-width: 0.6"/>
    <path d="M 111.338361 413.704163 
L 111.338361 413.491485 
L 111.338361 413.278807 
L 111.640172 413.704163 
L 111.791078 413.916841 
L 111.791078 414.200412 
L 111.489267 413.916841 
z
" clip-path="url(#pf4c06d9c4e)" style="fill: #e74c3c; stroke: #ffffff; stroke-width: 0.6"/>
    <path d="M 107.867532 299.425198 
L 107.867532 299.070735 
L 108.169343 299.566984 
L 108.471155 300.063232 
L 108.471155 300.134125 
L 108.471155 300.701266 
L 108.320249 301.268407 
z
" clip-path="url(#pf4c06d9c4e)" style="fill: #e74c3c; stroke: #ffffff; stroke-width: 0.6"/>
    <path d="M 104.245798 143.177779 
L 104.396703 143.106887 
L 104.396703 143.035994 
L 104.396703 142.894209 
L 104.396703 142.965101 
L 104.245798 142.965101 
L 104.245798 143.035994 
z
" clip-path="url(#pf4c06d9c4e)" style="fill: #e74c3c; stroke: #ffffff; stroke-width: 0.6"/>
    <path d="M 101.07678 430.080367 
L 101.07678 429.796797 
L 101.227686 429.725904 
L 101.680403 429.584119 
L 101.529497 429.725904 
L 101.378591 429.867689 
L 101.378591 430.009475 
z
" clip-path="url(#pf4c06d9c4e)" style="fill: #e74c3c; stroke: #ffffff; stroke-width: 0.6"/>
    <path d="M 97.30414 309.846419 
L 97.30414 309.775526 
L 97.30414 309.704634 
L 97.30414 309.633741 
L 97.455046 309.562848 
L 97.455046 309.704634 
L 97.455046 309.775526 
z
" clip-path="url(#pf4c06d9c4e)" style="fill: #e74c3c; stroke: #ffffff; stroke-width: 0.6"/>
    <path d="M 97.153235 120.137665 
L 97.153235 119.854095 
L 97.30414 119.71231 
L 97.605951 119.71231 
L 97.455046 119.854095 
L 97.30414 119.99588 
L 97.30414 120.137665 
z
" clip-path="url(#pf4c06d9c4e)" style="fill: #e74c3c; stroke: #ffffff; stroke-width: 0.6"/>
    <path d="M 95.040556 186.13873 
L 95.040556 186.067838 
L 95.040556 185.996945 
L 95.191462 185.85516 
L 95.191462 185.996945 
L 95.191462 186.067838 
L 95.191462 186.13873 
z
" clip-path="url(#pf4c06d9c4e)" style="fill: #e74c3c; stroke: #ffffff; stroke-width: 0.6"/>
    <path d="M 94.738745 123.611406 
L 94.738745 123.540513 
L 94.738745 123.327835 
L 94.889651 123.327835 
L 95.040556 123.398728 
L 94.889651 123.46962 
L 94.889651 123.540513 
z
" clip-path="url(#pf4c06d9c4e)" style="fill: #e74c3c; stroke: #ffffff; stroke-width: 0.6"/>
    <path d="M 94.738745 267.098146 
L 95.040556 267.098146 
L 95.040556 266.956361 
L 94.889651 266.885468 
L 94.889651 266.814575 
L 94.889651 266.956361 
L 94.738745 267.027253 
z
" clip-path="url(#pf4c06d9c4e)" style="fill: #e74c3c; stroke: #ffffff; stroke-width: 0.6"/>
    <path d="M 94.587839 390.451371 
L 94.738745 390.522264 
L 94.587839 390.096908 
L 94.587839 390.026015 
L 94.587839 390.238693 
L 94.587839 390.309586 
L 94.587839 390.380479 
z
" clip-path="url(#pf4c06d9c4e)" style="fill: #e74c3c; stroke: #ffffff; stroke-width: 0.6"/>
    <path d="M 94.286028 265.042259 
L 94.436934 265.113152 
L 94.587839 265.042259 
L 94.587839 264.971366 
L 94.436934 264.900474 
L 94.436934 264.829581 
L 94.436934 264.900474 
z
" clip-path="url(#pf4c06d9c4e)" style="fill: #e74c3c; stroke: #ffffff; stroke-width: 0.6"/>
    <path d="M 93.078783 172.314662 
L 93.078783 172.101984 
L 93.078783 172.031091 
L 93.229689 172.031091 
L 93.380595 172.031091 
L 93.229689 172.101984 
L 93.229689 172.243769 
z
" clip-path="url(#pf4c06d9c4e)" style="fill: #e74c3c; stroke: #ffffff; stroke-width: 0.6"/>
    <path d="M 92.626067 114.324467 
L 92.626067 114.11179 
L 92.776972 114.11179 
L 92.927878 114.182682 
L 92.776972 114.253575 
L 92.776972 114.324467 
L 92.776972 114.39536 
z
" clip-path="url(#pf4c06d9c4e)" style="fill: #e74c3c; stroke: #ffffff; stroke-width: 0.6"/>
    <path d="M 90.513388 172.101984 
L 90.664294 172.031091 
L 90.664294 171.960199 
L 90.664294 171.818413 
L 90.664294 171.889306 
L 90.513388 171.889306 
L 90.513388 171.960199 
z
" clip-path="url(#pf4c06d9c4e)" style="fill: #e74c3c; stroke: #ffffff; stroke-width: 0.6"/>
    <path d="M 89.909766 125.950863 
L 90.060671 126.021756 
L 90.060671 125.950863 
L 90.060671 125.879971 
L 89.909766 125.879971 
L 89.909766 125.738185 
L 89.909766 125.809078 
z
" clip-path="url(#pf4c06d9c4e)" style="fill: #e74c3c; stroke: #ffffff; stroke-width: 0.6"/>
    <path d="M 89.004332 131.267813 
L 89.004332 131.19692 
L 89.004332 131.055135 
L 89.004332 130.984242 
L 89.155238 131.126027 
L 89.155238 131.19692 
L 89.155238 131.267813 
z
" clip-path="url(#pf4c06d9c4e)" style="fill: #e74c3c; stroke: #ffffff; stroke-width: 0.6"/>
    <path d="M 88.853427 272.202417 
L 88.853427 272.131525 
L 88.853427 272.060632 
L 89.004332 271.918847 
L 89.004332 271.989739 
L 89.155238 272.060632 
L 89.155238 272.202417 
z
" clip-path="url(#pf4c06d9c4e)" style="fill: #e74c3c; stroke: #ffffff; stroke-width: 0.6"/>
    <path d="M 88.853427 289.003977 
L 88.853427 288.862192 
L 88.853427 288.791299 
L 89.004332 288.862192 
L 89.155238 288.862192 
L 89.155238 289.07487 
L 89.004332 289.003977 
z
" clip-path="url(#pf4c06d9c4e)" style="fill: #e74c3c; stroke: #ffffff; stroke-width: 0.6"/>
    <path d="M 88.551615 130.700672 
L 88.551615 130.558886 
L 88.551615 130.487994 
L 88.702521 130.629779 
L 88.702521 130.700672 
L 88.853427 130.700672 
L 88.702521 130.771564 
z
" clip-path="url(#pf4c06d9c4e)" style="fill: #e74c3c; stroke: #ffffff; stroke-width: 0.6"/>
    <path d="M 87.947993 170.825916 
L 87.947993 170.755023 
L 88.098899 170.755023 
L 88.249804 170.755023 
L 88.098899 170.825916 
L 88.098899 170.896809 
L 88.098899 170.967701 
z
" clip-path="url(#pf4c06d9c4e)" style="fill: #e74c3c; stroke: #ffffff; stroke-width: 0.6"/>
    <path d="M 84.326259 253.983004 
L 84.62807 253.983004 
L 84.62807 253.912112 
L 84.477164 253.841219 
L 84.477164 253.770326 
L 84.477164 253.841219 
L 84.326259 253.912112 
z
" clip-path="url(#pf4c06d9c4e)" style="fill: #e74c3c; stroke: #ffffff; stroke-width: 0.6"/>
    <path d="M 119.336358 174.157871 
L 119.487263 173.8743 
L 119.638169 174.228764 
L 119.789074 174.583227 
L 119.789074 174.93769 
L 119.638169 175.292154 
z
" clip-path="url(#pf4c06d9c4e)" style="fill: #e74c3c; stroke: #ffffff; stroke-width: 0.6"/>
    <path d="M 115.714623 321.969064 
L 116.16734 320.55121 
L 116.318246 320.26764 
L 116.16734 321.118352 
L 116.016434 321.543708 
L 115.714623 321.898171 
z
" clip-path="url(#pf4c06d9c4e)" style="fill: #e74c3c; stroke: #ffffff; stroke-width: 0.6"/>
    <path d="M 115.412812 323.316024 
L 115.412812 323.245131 
L 115.563718 322.890668 
L 115.563718 322.961561 
L 115.412812 323.032453 
L 115.412812 323.174239 
z
" clip-path="url(#pf4c06d9c4e)" style="fill: #e74c3c; stroke: #ffffff; stroke-width: 0.6"/>
    <path d="M 114.205567 229.383252 
L 114.205567 229.312359 
L 114.205567 229.241467 
L 114.205567 229.170574 
L 114.356473 229.099681 
L 114.356473 229.525037 
z
" clip-path="url(#pf4c06d9c4e)" style="fill: #e74c3c; stroke: #ffffff; stroke-width: 0.6"/>
    <path d="M 113.601945 380.384614 
L 113.601945 380.313721 
L 113.601945 380.171936 
L 113.75285 380.030151 
L 113.75285 380.101043 
L 113.75285 380.455507 
z
" clip-path="url(#pf4c06d9c4e)" style="fill: #e74c3c; stroke: #ffffff; stroke-width: 0.6"/>
    <path d="M 111.187455 156.576492 
L 111.489267 156.292921 
L 111.640172 156.151136 
L 111.791078 156.151136 
L 111.941983 156.151136 
L 111.338361 156.576492 
z
" clip-path="url(#pf4c06d9c4e)" style="fill: #e74c3c; stroke: #ffffff; stroke-width: 0.6"/>
    <path d="M 111.187455 240.088043 
L 111.187455 240.017151 
L 111.187455 239.875365 
L 111.338361 239.875365 
L 111.489267 239.875365 
L 111.338361 239.946258 
z
" clip-path="url(#pf4c06d9c4e)" style="fill: #e74c3c; stroke: #ffffff; stroke-width: 0.6"/>
    <path d="M 109.225683 374.713201 
L 109.225683 374.571416 
L 109.225683 374.500523 
L 109.376588 374.429631 
L 109.376588 374.571416 
L 109.376588 374.642309 
z
" clip-path="url(#pf4c06d9c4e)" style="fill: #e74c3c; stroke: #ffffff; stroke-width: 0.6"/>
    <path d="M 108.62206 369.60893 
L 108.62206 369.467145 
L 108.62206 369.396252 
L 108.772966 369.325359 
L 108.772966 369.467145 
L 108.772966 369.538037 
z
" clip-path="url(#pf4c06d9c4e)" style="fill: #e74c3c; stroke: #ffffff; stroke-width: 0.6"/>
    <path d="M 108.320249 326.222623 
L 108.471155 326.222623 
L 108.772966 326.293516 
L 108.62206 326.577086 
L 108.471155 326.506194 
L 108.471155 326.364408 
z
" clip-path="url(#pf4c06d9c4e)" style="fill: #e74c3c; stroke: #ffffff; stroke-width: 0.6"/>
    <path d="M 107.716627 284.892203 
L 107.716627 284.821311 
L 107.867532 284.750418 
L 107.867532 284.892203 
L 107.867532 284.963096 
L 107.867532 285.033989 
z
" clip-path="url(#pf4c06d9c4e)" style="fill: #e74c3c; stroke: #ffffff; stroke-width: 0.6"/>
    <path d="M 107.716627 365.922512 
L 107.867532 366.064297 
L 107.867532 365.993404 
L 107.867532 365.922512 
L 107.867532 365.780726 
L 107.867532 365.851619 
z
" clip-path="url(#pf4c06d9c4e)" style="fill: #e74c3c; stroke: #ffffff; stroke-width: 0.6"/>
    <path d="M 106.207571 296.660385 
L 106.207571 296.589492 
L 106.207571 296.447707 
L 106.207571 296.376814 
L 106.358476 296.164136 
L 106.358476 296.660385 
z
" clip-path="url(#pf4c06d9c4e)" style="fill: #e74c3c; stroke: #ffffff; stroke-width: 0.6"/>
    <path d="M 101.07678 109.503767 
L 101.07678 109.149303 
L 101.07678 108.865733 
L 101.227686 108.723947 
L 101.378591 108.723947 
L 101.227686 109.574659 
z
" clip-path="url(#pf4c06d9c4e)" style="fill: #e74c3c; stroke: #ffffff; stroke-width: 0.6"/>
    <path d="M 97.907763 309.35017 
L 97.907763 309.279278 
L 97.907763 309.208385 
L 97.907763 309.0666 
L 98.058668 309.137492 
L 98.209574 309.35017 
z
" clip-path="url(#pf4c06d9c4e)" style="fill: #e74c3c; stroke: #ffffff; stroke-width: 0.6"/>
    <path d="M 97.002329 113.899112 
L 97.002329 113.686434 
L 97.002329 113.615541 
L 97.153235 113.686434 
L 97.153235 113.757326 
L 97.002329 113.828219 
z
" clip-path="url(#pf4c06d9c4e)" style="fill: #e74c3c; stroke: #ffffff; stroke-width: 0.6"/>
    <path d="M 93.380595 163.169509 
L 93.5315 163.098616 
L 93.682406 163.027724 
L 93.682406 163.098616 
L 93.682406 163.240402 
L 93.5315 163.311294 
z
" clip-path="url(#pf4c06d9c4e)" style="fill: #e74c3c; stroke: #ffffff; stroke-width: 0.6"/>
    <path d="M 92.324255 388.679055 
L 92.475161 388.608162 
L 92.475161 388.679055 
L 92.626067 388.679055 
L 92.626067 388.749948 
L 92.475161 388.82084 
z
" clip-path="url(#pf4c06d9c4e)" style="fill: #e74c3c; stroke: #ffffff; stroke-width: 0.6"/>
    <path d="M 91.871539 113.828219 
L 91.871539 113.757326 
L 92.022444 113.686434 
L 92.022444 113.757326 
L 92.022444 113.899112 
L 92.022444 113.970004 
z
" clip-path="url(#pf4c06d9c4e)" style="fill: #e74c3c; stroke: #ffffff; stroke-width: 0.6"/>
    <path d="M 91.871539 222.506664 
L 92.022444 222.506664 
L 92.022444 222.435771 
L 91.871539 222.364879 
L 91.871539 222.293986 
L 91.871539 222.364879 
z
" clip-path="url(#pf4c06d9c4e)" style="fill: #e74c3c; stroke: #ffffff; stroke-width: 0.6"/>
    <path d="M 91.418822 113.544648 
L 91.418822 113.33197 
L 91.418822 113.261078 
L 91.569727 113.33197 
L 91.569727 113.402863 
L 91.418822 113.473756 
z
" clip-path="url(#pf4c06d9c4e)" style="fill: #e74c3c; stroke: #ffffff; stroke-width: 0.6"/>
    <path d="M 91.267916 384.709066 
L 91.267916 384.638173 
L 91.267916 384.567281 
L 91.418822 384.425495 
L 91.418822 384.496388 
L 91.418822 384.850851 
z
" clip-path="url(#pf4c06d9c4e)" style="fill: #e74c3c; stroke: #ffffff; stroke-width: 0.6"/>
    <path d="M 89.457049 117.58553 
L 89.457049 117.372852 
L 89.607955 117.372852 
L 89.607955 117.443744 
L 89.607955 117.514637 
L 89.607955 117.58553 
z
" clip-path="url(#pf4c06d9c4e)" style="fill: #e74c3c; stroke: #ffffff; stroke-width: 0.6"/>
    <path d="M 85.835315 254.195682 
L 85.98622 254.12479 
L 85.98622 253.983004 
L 86.137126 254.12479 
L 86.137126 254.195682 
L 85.98622 254.266575 
z
" clip-path="url(#pf4c06d9c4e)" style="fill: #e74c3c; stroke: #ffffff; stroke-width: 0.6"/>
    <path d="M 116.620057 277.732045 
L 116.620057 277.590259 
L 116.620057 277.519367 
L 116.770962 277.306689 
L 116.770962 277.377581 
z
" clip-path="url(#pf4c06d9c4e)" style="fill: #e74c3c; stroke: #ffffff; stroke-width: 0.6"/>
    <path d="M 116.16734 314.383549 
L 116.318246 313.958193 
L 116.318246 314.099978 
L 116.16734 314.170871 
L 116.16734 314.241764 
z
" clip-path="url(#pf4c06d9c4e)" style="fill: #e74c3c; stroke: #ffffff; stroke-width: 0.6"/>
    <path d="M 114.356473 385.417993 
L 114.356473 385.205315 
L 114.356473 385.134422 
L 114.507378 385.134422 
L 114.658284 385.134422 
z
" clip-path="url(#pf4c06d9c4e)" style="fill: #e74c3c; stroke: #ffffff; stroke-width: 0.6"/>
    <path d="M 112.696511 236.25984 
L 112.696511 236.118054 
L 112.847417 236.047162 
L 113.149228 235.905376 
L 112.847417 236.188947 
z
" clip-path="url(#pf4c06d9c4e)" style="fill: #e74c3c; stroke: #ffffff; stroke-width: 0.6"/>
    <path d="M 112.092889 324.946555 
L 112.092889 324.80477 
L 112.092889 324.662985 
L 112.545606 324.733877 
L 112.243795 324.946555 
z
" clip-path="url(#pf4c06d9c4e)" style="fill: #e74c3c; stroke: #ffffff; stroke-width: 0.6"/>
    <path d="M 111.338361 192.731748 
L 111.489267 192.51907 
L 111.640172 192.51907 
L 111.640172 192.589962 
L 111.791078 192.660855 
z
" clip-path="url(#pf4c06d9c4e)" style="fill: #e74c3c; stroke: #ffffff; stroke-width: 0.6"/>
    <path d="M 108.772966 213.85776 
L 108.772966 213.786867 
L 108.772966 213.645082 
L 108.923871 213.574189 
L 108.923871 213.928652 
z
" clip-path="url(#pf4c06d9c4e)" style="fill: #e74c3c; stroke: #ffffff; stroke-width: 0.6"/>
    <path d="M 104.245798 141.830819 
L 104.396703 141.972604 
L 104.396703 141.547248 
L 104.396703 141.618141 
L 104.245798 141.689034 
z
" clip-path="url(#pf4c06d9c4e)" style="fill: #e74c3c; stroke: #ffffff; stroke-width: 0.6"/>
    <path d="M 103.340364 322.110849 
L 103.340364 321.898171 
L 103.340364 321.827278 
L 103.49127 321.898171 
L 103.642175 321.969064 
z
" clip-path="url(#pf4c06d9c4e)" style="fill: #e74c3c; stroke: #ffffff; stroke-width: 0.6"/>
    <path d="M 102.585836 428.378944 
L 102.585836 427.953588 
L 102.736742 427.528232 
L 102.887647 427.386446 
L 103.189459 427.670017 
z
" clip-path="url(#pf4c06d9c4e)" style="fill: #e74c3c; stroke: #ffffff; stroke-width: 0.6"/>
    <path d="M 100.624063 114.891609 
L 100.774969 114.608038 
L 101.378591 114.749823 
L 101.07678 114.962501 
L 100.774969 115.033394 
z
" clip-path="url(#pf4c06d9c4e)" style="fill: #e74c3c; stroke: #ffffff; stroke-width: 0.6"/>
    <path d="M 98.813196 114.253575 
L 98.964102 114.040897 
L 99.115007 114.040897 
L 99.115007 114.11179 
L 98.964102 114.253575 
z
" clip-path="url(#pf4c06d9c4e)" style="fill: #e74c3c; stroke: #ffffff; stroke-width: 0.6"/>
    <path d="M 98.209574 429.300548 
L 98.209574 429.229655 
L 98.209574 429.08787 
L 98.360479 428.946085 
L 98.360479 429.371441 
z
" clip-path="url(#pf4c06d9c4e)" style="fill: #e74c3c; stroke: #ffffff; stroke-width: 0.6"/>
    <path d="M 93.380595 277.377581 
L 93.682406 277.661152 
L 93.5315 277.732045 
L 93.5315 277.661152 
L 93.5315 277.590259 
z
" clip-path="url(#pf4c06d9c4e)" style="fill: #e74c3c; stroke: #ffffff; stroke-width: 0.6"/>
    <path d="M 92.17335 106.738953 
L 92.324255 106.951631 
L 92.17335 106.38449 
L 92.17335 106.313597 
L 92.17335 106.526275 
z
" clip-path="url(#pf4c06d9c4e)" style="fill: #e74c3c; stroke: #ffffff; stroke-width: 0.6"/>
    <path d="M 91.871539 157.568989 
L 91.871539 157.427204 
L 92.022444 157.427204 
L 92.17335 157.285418 
L 92.022444 157.710774 
z
" clip-path="url(#pf4c06d9c4e)" style="fill: #e74c3c; stroke: #ffffff; stroke-width: 0.6"/>
    <path d="M 91.871539 196.489058 
L 91.871539 196.063702 
L 91.871539 195.921917 
L 92.022444 195.851024 
L 92.17335 195.851024 
z
" clip-path="url(#pf4c06d9c4e)" style="fill: #e74c3c; stroke: #ffffff; stroke-width: 0.6"/>
    <path d="M 91.418822 155.513102 
L 91.569727 155.158639 
L 91.569727 155.229531 
L 91.720633 155.796673 
L 91.569727 155.654887 
z
" clip-path="url(#pf4c06d9c4e)" style="fill: #e74c3c; stroke: #ffffff; stroke-width: 0.6"/>
    <path d="M 90.664294 215.346505 
L 91.267916 215.062935 
L 91.267916 215.700969 
L 90.966105 215.700969 
L 90.815199 215.700969 
z
" clip-path="url(#pf4c06d9c4e)" style="fill: #e74c3c; stroke: #ffffff; stroke-width: 0.6"/>
    <path d="M 89.909766 304.033221 
L 89.909766 303.891436 
L 89.909766 303.820543 
L 90.060671 303.678758 
L 90.060671 304.175006 
z
" clip-path="url(#pf4c06d9c4e)" style="fill: #e74c3c; stroke: #ffffff; stroke-width: 0.6"/>
    <path d="M 89.457049 252.706936 
L 89.607955 252.423366 
L 89.75886 252.28158 
L 89.909766 252.28158 
L 90.060671 252.28158 
z
" clip-path="url(#pf4c06d9c4e)" style="fill: #e74c3c; stroke: #ffffff; stroke-width: 0.6"/>
    <path d="M 89.155238 103.761461 
L 89.155238 103.690569 
L 89.306143 103.690569 
L 89.457049 103.619676 
L 89.457049 104.045032 
z
" clip-path="url(#pf4c06d9c4e)" style="fill: #e74c3c; stroke: #ffffff; stroke-width: 0.6"/>
    <path d="M 87.495276 288.578621 
L 87.495276 288.507729 
L 87.646182 288.436836 
L 87.797087 288.295051 
L 87.797087 288.720407 
z
" clip-path="url(#pf4c06d9c4e)" style="fill: #e74c3c; stroke: #ffffff; stroke-width: 0.6"/>
    <path d="M 79.949996 132.402095 
L 79.949996 132.331203 
L 79.949996 132.189417 
L 80.100902 132.189417 
L 80.100902 132.26031 
z
" clip-path="url(#pf4c06d9c4e)" style="fill: #e74c3c; stroke: #ffffff; stroke-width: 0.6"/>
    <path d="M 117.223679 277.519367 
L 117.374585 277.235796 
L 117.52549 277.094011 
L 117.676396 277.023118 
z
" clip-path="url(#pf4c06d9c4e)" style="fill: #e74c3c; stroke: #ffffff; stroke-width: 0.6"/>
    <path d="M 116.016434 279.929717 
L 116.16734 279.929717 
L 116.16734 280.00061 
L 116.16734 280.142395 
z
" clip-path="url(#pf4c06d9c4e)" style="fill: #e74c3c; stroke: #ffffff; stroke-width: 0.6"/>
    <path d="M 116.016434 318.778894 
L 116.016434 318.637109 
L 116.16734 318.424431 
L 116.16734 318.849787 
z
" clip-path="url(#pf4c06d9c4e)" style="fill: #e74c3c; stroke: #ffffff; stroke-width: 0.6"/>
    <path d="M 115.714623 316.510329 
L 115.865529 316.510329 
L 115.865529 316.297651 
L 115.865529 316.368544 
z
" clip-path="url(#pf4c06d9c4e)" style="fill: #e74c3c; stroke: #ffffff; stroke-width: 0.6"/>
    <path d="M 109.527494 284.892203 
L 109.527494 284.608633 
L 109.678399 284.466847 
L 109.829305 284.466847 
z
" clip-path="url(#pf4c06d9c4e)" style="fill: #e74c3c; stroke: #ffffff; stroke-width: 0.6"/>
    <path d="M 109.225683 151.117757 
L 109.225683 150.975972 
L 109.376588 150.763294 
L 109.678399 151.259542 
z
" clip-path="url(#pf4c06d9c4e)" style="fill: #e74c3c; stroke: #ffffff; stroke-width: 0.6"/>
    <path d="M 109.074777 161.468085 
L 109.074777 161.184515 
L 109.527494 160.475588 
L 109.527494 160.546481 
z
" clip-path="url(#pf4c06d9c4e)" style="fill: #e74c3c; stroke: #ffffff; stroke-width: 0.6"/>
    <path d="M 108.62206 389.671552 
L 108.62206 389.387982 
L 108.772966 389.317089 
L 108.923871 389.387982 
z
" clip-path="url(#pf4c06d9c4e)" style="fill: #e74c3c; stroke: #ffffff; stroke-width: 0.6"/>
    <path d="M 107.565721 173.59073 
L 107.716627 173.448944 
L 107.867532 173.519837 
L 107.565721 173.519837 
z
" clip-path="url(#pf4c06d9c4e)" style="fill: #e74c3c; stroke: #ffffff; stroke-width: 0.6"/>
    <path d="M 101.831308 137.435474 
L 102.133119 137.081011 
L 102.133119 137.151903 
L 101.982214 137.364581 
z
" clip-path="url(#pf4c06d9c4e)" style="fill: #e74c3c; stroke: #ffffff; stroke-width: 0.6"/>
    <path d="M 101.831308 391.514761 
L 101.831308 391.302083 
L 102.133119 391.443869 
L 101.982214 391.656547 
z
" clip-path="url(#pf4c06d9c4e)" style="fill: #e74c3c; stroke: #ffffff; stroke-width: 0.6"/>
    <path d="M 99.869535 430.009475 
L 100.322252 430.293045 
L 100.020441 430.293045 
L 100.020441 430.222153 
z
" clip-path="url(#pf4c06d9c4e)" style="fill: #e74c3c; stroke: #ffffff; stroke-width: 0.6"/>
    <path d="M 95.644179 121.768197 
L 95.644179 121.484626 
L 95.795084 121.413733 
L 95.94599 121.413733 
z
" clip-path="url(#pf4c06d9c4e)" style="fill: #e74c3c; stroke: #ffffff; stroke-width: 0.6"/>
    <path d="M 93.984217 286.310056 
L 94.436934 286.168271 
L 94.286028 286.451842 
L 94.135123 286.451842 
z
" clip-path="url(#pf4c06d9c4e)" style="fill: #e74c3c; stroke: #ffffff; stroke-width: 0.6"/>
    <path d="M 90.815199 222.293986 
L 91.418822 222.435771 
L 91.117011 222.506664 
L 91.117011 222.435771 
z
" clip-path="url(#pf4c06d9c4e)" style="fill: #e74c3c; stroke: #ffffff; stroke-width: 0.6"/>
    <path d="M 90.513388 380.739077 
L 90.513388 380.668185 
L 90.664294 380.526399 
L 90.664294 380.951755 
z
" clip-path="url(#pf4c06d9c4e)" style="fill: #e74c3c; stroke: #ffffff; stroke-width: 0.6"/>
    <path d="M 89.909766 151.046864 
L 90.060671 150.905079 
L 90.211577 150.763294 
L 90.211577 151.330435 
z
" clip-path="url(#pf4c06d9c4e)" style="fill: #e74c3c; stroke: #ffffff; stroke-width: 0.6"/>
    <path d="M 89.909766 190.108719 
L 90.060671 189.966934 
L 90.060671 190.037827 
L 89.909766 190.037827 
z
" clip-path="url(#pf4c06d9c4e)" style="fill: #e74c3c; stroke: #ffffff; stroke-width: 0.6"/>
    <path d="M 88.098899 103.265213 
L 88.249804 102.981642 
L 88.249804 103.052535 
L 88.249804 103.123427 
z
" clip-path="url(#pf4c06d9c4e)" style="fill: #e74c3c; stroke: #ffffff; stroke-width: 0.6"/>
    <path d="M 124.467148 256.606033 
L 124.467148 256.53514 
L 124.618054 256.676925 
z
" clip-path="url(#pf4c06d9c4e)" style="fill: #e74c3c; stroke: #ffffff; stroke-width: 0.6"/>
    <path d="M 122.35447 214.566686 
L 122.505375 214.424901 
L 122.505375 214.495794 
z
" clip-path="url(#pf4c06d9c4e)" style="fill: #e74c3c; stroke: #ffffff; stroke-width: 0.6"/>
    <path d="M 122.35447 215.346505 
L 122.505375 215.20472 
L 122.505375 215.275613 
z
" clip-path="url(#pf4c06d9c4e)" style="fill: #e74c3c; stroke: #ffffff; stroke-width: 0.6"/>
    <path d="M 119.93998 177.135363 
L 120.090886 177.06447 
L 120.241791 177.06447 
z
" clip-path="url(#pf4c06d9c4e)" style="fill: #e74c3c; stroke: #ffffff; stroke-width: 0.6"/>
    <path d="M 119.185452 177.560719 
L 119.487263 177.489826 
L 119.336358 177.560719 
z
" clip-path="url(#pf4c06d9c4e)" style="fill: #e74c3c; stroke: #ffffff; stroke-width: 0.6"/>
    <path d="M 118.58183 271.20992 
L 118.732735 270.92635 
L 118.732735 271.139028 
z
" clip-path="url(#pf4c06d9c4e)" style="fill: #e74c3c; stroke: #ffffff; stroke-width: 0.6"/>
    <path d="M 117.827302 219.174709 
L 118.129113 219.103816 
L 117.978207 219.174709 
z
" clip-path="url(#pf4c06d9c4e)" style="fill: #e74c3c; stroke: #ffffff; stroke-width: 0.6"/>
    <path d="M 115.412812 172.598233 
L 115.563718 172.52734 
L 115.563718 172.598233 
z
" clip-path="url(#pf4c06d9c4e)" style="fill: #e74c3c; stroke: #ffffff; stroke-width: 0.6"/>
    <path d="M 113.75285 181.176244 
L 114.054662 181.105352 
L 113.903756 181.176244 
z
" clip-path="url(#pf4c06d9c4e)" style="fill: #e74c3c; stroke: #ffffff; stroke-width: 0.6"/>
    <path d="M 112.545606 178.624109 
L 112.696511 178.553216 
L 112.847417 178.553216 
z
" clip-path="url(#pf4c06d9c4e)" style="fill: #e74c3c; stroke: #ffffff; stroke-width: 0.6"/>
    <path d="M 112.243795 168.699136 
L 112.545606 168.628244 
L 112.3947 168.699136 
z
" clip-path="url(#pf4c06d9c4e)" style="fill: #e74c3c; stroke: #ffffff; stroke-width: 0.6"/>
    <path d="M 111.489267 236.968766 
L 111.640172 236.826981 
L 111.640172 236.897874 
z
" clip-path="url(#pf4c06d9c4e)" style="fill: #e74c3c; stroke: #ffffff; stroke-width: 0.6"/>
    <path d="M 110.583833 228.603433 
L 110.734739 228.461647 
L 110.734739 228.603433 
z
" clip-path="url(#pf4c06d9c4e)" style="fill: #e74c3c; stroke: #ffffff; stroke-width: 0.6"/>
    <path d="M 109.225683 316.155866 
L 109.376588 316.01408 
L 109.376588 316.226758 
z
" clip-path="url(#pf4c06d9c4e)" style="fill: #e74c3c; stroke: #ffffff; stroke-width: 0.6"/>
    <path d="M 108.169343 172.243769 
L 108.320249 172.031091 
L 108.320249 172.172877 
z
" clip-path="url(#pf4c06d9c4e)" style="fill: #e74c3c; stroke: #ffffff; stroke-width: 0.6"/>
    <path d="M 107.414815 235.905376 
L 107.414815 235.834484 
L 107.565721 235.763591 
z
" clip-path="url(#pf4c06d9c4e)" style="fill: #e74c3c; stroke: #ffffff; stroke-width: 0.6"/>
    <path d="M 107.414815 303.040724 
L 107.565721 302.828046 
L 107.565721 302.969831 
z
" clip-path="url(#pf4c06d9c4e)" style="fill: #e74c3c; stroke: #ffffff; stroke-width: 0.6"/>
    <path d="M 103.49127 144.950096 
L 103.49127 144.879203 
L 103.642175 144.808311 
z
" clip-path="url(#pf4c06d9c4e)" style="fill: #e74c3c; stroke: #ffffff; stroke-width: 0.6"/>
    <path d="M 103.340364 146.155271 
L 103.642175 146.013486 
L 103.49127 146.155271 
z
" clip-path="url(#pf4c06d9c4e)" style="fill: #e74c3c; stroke: #ffffff; stroke-width: 0.6"/>
    <path d="M 102.133119 142.39796 
L 102.133119 142.327067 
L 102.284025 142.256175 
z
" clip-path="url(#pf4c06d9c4e)" style="fill: #e74c3c; stroke: #ffffff; stroke-width: 0.6"/>
    <path d="M 102.133119 144.099384 
L 102.284025 143.957599 
L 102.284025 144.028491 
z
" clip-path="url(#pf4c06d9c4e)" style="fill: #e74c3c; stroke: #ffffff; stroke-width: 0.6"/>
    <path d="M 98.964102 294.320927 
L 99.115007 294.179141 
L 99.115007 294.320927 
z
" clip-path="url(#pf4c06d9c4e)" style="fill: #e74c3c; stroke: #ffffff; stroke-width: 0.6"/>
    <path d="M 98.511385 181.31803 
L 98.662291 181.176244 
L 98.662291 181.31803 
z
" clip-path="url(#pf4c06d9c4e)" style="fill: #e74c3c; stroke: #ffffff; stroke-width: 0.6"/>
    <path d="M 98.209574 137.577259 
L 98.511385 137.435474 
L 98.360479 137.577259 
z
" clip-path="url(#pf4c06d9c4e)" style="fill: #e74c3c; stroke: #ffffff; stroke-width: 0.6"/>
    <path d="M 98.058668 135.663158 
L 98.209574 135.592265 
L 98.360479 135.521372 
z
" clip-path="url(#pf4c06d9c4e)" style="fill: #e74c3c; stroke: #ffffff; stroke-width: 0.6"/>
    <path d="M 97.605951 179.049464 
L 97.756857 178.907679 
L 97.756857 178.978572 
z
" clip-path="url(#pf4c06d9c4e)" style="fill: #e74c3c; stroke: #ffffff; stroke-width: 0.6"/>
    <path d="M 96.700518 184.862662 
L 96.851423 184.720877 
L 96.851423 184.79177 
z
" clip-path="url(#pf4c06d9c4e)" style="fill: #e74c3c; stroke: #ffffff; stroke-width: 0.6"/>
    <path d="M 96.398707 136.655655 
L 96.549612 136.51387 
L 96.549612 136.655655 
z
" clip-path="url(#pf4c06d9c4e)" style="fill: #e74c3c; stroke: #ffffff; stroke-width: 0.6"/>
    <path d="M 94.889651 131.267813 
L 95.191462 130.984242 
L 95.040556 131.19692 
z
" clip-path="url(#pf4c06d9c4e)" style="fill: #e74c3c; stroke: #ffffff; stroke-width: 0.6"/>
    <path d="M 94.738745 310.484453 
L 94.889651 310.41356 
L 94.889651 310.484453 
z
" clip-path="url(#pf4c06d9c4e)" style="fill: #e74c3c; stroke: #ffffff; stroke-width: 0.6"/>
    <path d="M 92.324255 159.483091 
L 92.475161 159.128627 
L 92.475161 159.341305 
z
" clip-path="url(#pf4c06d9c4e)" style="fill: #e74c3c; stroke: #ffffff; stroke-width: 0.6"/>
    <path d="M 90.966105 176.780899 
L 91.117011 176.639114 
L 91.117011 176.780899 
z
" clip-path="url(#pf4c06d9c4e)" style="fill: #e74c3c; stroke: #ffffff; stroke-width: 0.6"/>
    <path d="M 90.664294 305.947323 
L 90.966105 305.87643 
L 90.815199 306.018215 
z
" clip-path="url(#pf4c06d9c4e)" style="fill: #e74c3c; stroke: #ffffff; stroke-width: 0.6"/>
    <path d="M 89.909766 109.503767 
L 90.060671 109.291089 
L 90.060671 109.432874 
z
" clip-path="url(#pf4c06d9c4e)" style="fill: #e74c3c; stroke: #ffffff; stroke-width: 0.6"/>
    <path d="M 89.607955 195.709239 
L 89.909766 195.709239 
L 89.75886 195.780132 
z
" clip-path="url(#pf4c06d9c4e)" style="fill: #e74c3c; stroke: #ffffff; stroke-width: 0.6"/>
    <path d="M 89.306143 190.179612 
L 89.306143 190.108719 
L 89.457049 190.037827 
z
" clip-path="url(#pf4c06d9c4e)" style="fill: #e74c3c; stroke: #ffffff; stroke-width: 0.6"/>
    <path d="M 87.042559 181.6016 
L 87.193465 181.459815 
L 87.193465 181.6016 
z
" clip-path="url(#pf4c06d9c4e)" style="fill: #e74c3c; stroke: #ffffff; stroke-width: 0.6"/>
   </g>
   <g id="text_1">
    <!-- Maldives -->
    <g style="fill: #1a252f" transform="translate(59.811916 20.117344) scale(0.17 -0.17)">
     <defs>
      <path id="DejaVuSans-Bold-30" d="M 588 4666 
L 2119 4666 
L 3181 2169 
L 4250 4666 
L 5778 4666 
L 5778 0 
L 4641 0 
L 4641 3413 
L 3566 897 
L 2803 897 
L 1728 3413 
L 1728 0 
L 588 0 
L 588 4666 
z
" transform="scale(0.015625)"/>
      <path id="DejaVuSans-Bold-44" d="M 2106 1575 
Q 1756 1575 1579 1456 
Q 1403 1338 1403 1106 
Q 1403 894 1545 773 
Q 1688 653 1941 653 
Q 2256 653 2472 879 
Q 2688 1106 2688 1447 
L 2688 1575 
L 2106 1575 
z
M 3816 1997 
L 3816 0 
L 2688 0 
L 2688 519 
Q 2463 200 2181 54 
Q 1900 -91 1497 -91 
Q 953 -91 614 226 
Q 275 544 275 1050 
Q 275 1666 698 1953 
Q 1122 2241 2028 2241 
L 2688 2241 
L 2688 2328 
Q 2688 2594 2478 2717 
Q 2269 2841 1825 2841 
Q 1466 2841 1156 2769 
Q 847 2697 581 2553 
L 581 3406 
Q 941 3494 1303 3539 
Q 1666 3584 2028 3584 
Q 2975 3584 3395 3211 
Q 3816 2838 3816 1997 
z
" transform="scale(0.015625)"/>
      <path id="DejaVuSans-Bold-4f" d="M 538 4863 
L 1656 4863 
L 1656 0 
L 538 0 
L 538 4863 
z
" transform="scale(0.015625)"/>
      <path id="DejaVuSans-Bold-47" d="M 2919 2988 
L 2919 4863 
L 4044 4863 
L 4044 0 
L 2919 0 
L 2919 506 
Q 2688 197 2409 53 
Q 2131 -91 1766 -91 
Q 1119 -91 703 423 
Q 288 938 288 1747 
Q 288 2556 703 3070 
Q 1119 3584 1766 3584 
Q 2128 3584 2408 3439 
Q 2688 3294 2919 2988 
z
M 2181 722 
Q 2541 722 2730 984 
Q 2919 1247 2919 1747 
Q 2919 2247 2730 2509 
Q 2541 2772 2181 2772 
Q 1825 2772 1636 2509 
Q 1447 2247 1447 1747 
Q 1447 1247 1636 984 
Q 1825 722 2181 722 
z
" transform="scale(0.015625)"/>
      <path id="DejaVuSans-Bold-4c" d="M 538 3500 
L 1656 3500 
L 1656 0 
L 538 0 
L 538 3500 
z
M 538 4863 
L 1656 4863 
L 1656 3950 
L 538 3950 
L 538 4863 
z
" transform="scale(0.015625)"/>
      <path id="DejaVuSans-Bold-59" d="M 97 3500 
L 1216 3500 
L 2088 1081 
L 2956 3500 
L 4078 3500 
L 2700 0 
L 1472 0 
L 97 3500 
z
" transform="scale(0.015625)"/>
      <path id="DejaVuSans-Bold-48" d="M 4031 1759 
L 4031 1441 
L 1416 1441 
Q 1456 1047 1700 850 
Q 1944 653 2381 653 
Q 2734 653 3104 758 
Q 3475 863 3866 1075 
L 3866 213 
Q 3469 63 3072 -14 
Q 2675 -91 2278 -91 
Q 1328 -91 801 392 
Q 275 875 275 1747 
Q 275 2603 792 3093 
Q 1309 3584 2216 3584 
Q 3041 3584 3536 3087 
Q 4031 2591 4031 1759 
z
M 2881 2131 
Q 2881 2450 2695 2645 
Q 2509 2841 2209 2841 
Q 1884 2841 1681 2658 
Q 1478 2475 1428 2131 
L 2881 2131 
z
" transform="scale(0.015625)"/>
      <path id="DejaVuSans-Bold-56" d="M 3272 3391 
L 3272 2541 
Q 2913 2691 2578 2766 
Q 2244 2841 1947 2841 
Q 1628 2841 1473 2761 
Q 1319 2681 1319 2516 
Q 1319 2381 1436 2309 
Q 1553 2238 1856 2203 
L 2053 2175 
Q 2913 2066 3209 1816 
Q 3506 1566 3506 1031 
Q 3506 472 3093 190 
Q 2681 -91 1863 -91 
Q 1516 -91 1145 -36 
Q 775 19 384 128 
L 384 978 
Q 719 816 1070 734 
Q 1422 653 1784 653 
Q 2113 653 2278 743 
Q 2444 834 2444 1013 
Q 2444 1163 2330 1236 
Q 2216 1309 1875 1350 
L 1678 1375 
Q 931 1469 631 1722 
Q 331 1975 331 2491 
Q 331 3047 712 3315 
Q 1094 3584 1881 3584 
Q 2191 3584 2531 3537 
Q 2872 3491 3272 3391 
z
" transform="scale(0.015625)"/>
     </defs>
     <use xlink:href="#DejaVuSans-Bold-30"/>
     <use xlink:href="#DejaVuSans-Bold-44" transform="translate(99.515625 0)"/>
     <use xlink:href="#DejaVuSans-Bold-4f" transform="translate(167 0)"/>
     <use xlink:href="#DejaVuSans-Bold-47" transform="translate(201.28125 0)"/>
     <use xlink:href="#DejaVuSans-Bold-4c" transform="translate(272.859375 0)"/>
     <use xlink:href="#DejaVuSans-Bold-59" transform="translate(307.140625 0)"/>
     <use xlink:href="#DejaVuSans-Bold-48" transform="translate(372.328125 0)"/>
     <use xlink:href="#DejaVuSans-Bold-56" transform="translate(440.15625 0)"/>
    </g>
   </g>
   <g id="line2d_1">
    <path d="M 105.665442 229.259212 
" clip-path="url(#pf4c06d9c4e)" style="fill: none; stroke: #ffffff; stroke-width: 1.5; stroke-linecap: square"/>
    <defs>
     <path id="m553d046541" d="M 0 2.5 
C 0.663008 2.5 1.29895 2.236584 1.767767 1.767767 
C 2.236584 1.29895 2.5 0.663008 2.5 0 
C 2.5 -0.663008 2.236584 -1.29895 1.767767 -1.767767 
C 1.29895 -2.236584 0.663008 -2.5 0 -2.5 
C -0.663008 -2.5 -1.29895 -2.236584 -1.767767 -1.767767 
C -2.236584 -1.29895 -2.5 -0.663008 -2.5 0 
C -2.5 0.663008 -2.236584 1.29895 -1.767767 1.767767 
C -1.29895 2.236584 -0.663008 2.5 0 2.5 
z
" style="stroke: #1a252f; stroke-width: 0.8"/>
    </defs>
    <g clip-path="url(#pf4c06d9c4e)">
     <use xlink:href="#m553d046541" x="105.665442" y="229.259212" style="fill: #ffffff; stroke: #1a252f; stroke-width: 0.8"/>
    </g>
   </g>
   <g id="text_2">
    <g clip-path="url(#pf4c06d9c4e)">
     <!-- Male -->
     <g style="fill: #ffffff" transform="translate(110.527243 231.207747) scale(0.075 -0.075)">
      <use xlink:href="#DejaVuSans-Bold-30"/>
      <use xlink:href="#DejaVuSans-Bold-44" transform="translate(99.515625 0)"/>
      <use xlink:href="#DejaVuSans-Bold-4f" transform="translate(167 0)"/>
      <use xlink:href="#DejaVuSans-Bold-48" transform="translate(201.28125 0)"/>
     </g>
    </g>
   </g>
   <g id="legend_1">
    <g id="patch_2">
     <path d="M 13.5 498.657344 
L 88.097344 498.657344 
Q 89.897344 498.657344 89.897344 496.857344 
L 89.897344 470.755937 
Q 89.897344 468.955937 88.097344 468.955937 
L 13.5 468.955937 
Q 11.7 468.955937 11.7 470.755937 
L 11.7 496.857344 
Q 11.7 498.657344 13.5 498.657344 
z
" style="fill: #ffffff; opacity: 0.85; stroke: #cccccc; stroke-linejoin: miter"/>
    </g>
    <g id="patch_3">
     <path d="M 15.3 479.394531 
L 33.3 479.394531 
L 33.3 473.094531 
L 15.3 473.094531 
z
" style="fill: #e74c3c; stroke: #888888; stroke-linejoin: miter"/>
    </g>
    <g id="text_3">
     <!-- Maldives -->
     <g transform="translate(40.5 479.394531) scale(0.09 -0.09)">
      <defs>
       <path id="DejaVuSans-30" d="M 628 4666 
L 1569 4666 
L 2759 1491 
L 3956 4666 
L 4897 4666 
L 4897 0 
L 4281 0 
L 4281 4097 
L 3078 897 
L 2444 897 
L 1241 4097 
L 1241 0 
L 628 0 
L 628 4666 
z
" transform="scale(0.015625)"/>
       <path id="DejaVuSans-44" d="M 2194 1759 
Q 1497 1759 1228 1600 
Q 959 1441 959 1056 
Q 959 750 1161 570 
Q 1363 391 1709 391 
Q 2188 391 2477 730 
Q 2766 1069 2766 1631 
L 2766 1759 
L 2194 1759 
z
M 3341 1997 
L 3341 0 
L 2766 0 
L 2766 531 
Q 2569 213 2275 61 
Q 1981 -91 1556 -91 
Q 1019 -91 701 211 
Q 384 513 384 1019 
Q 384 1609 779 1909 
Q 1175 2209 1959 2209 
L 2766 2209 
L 2766 2266 
Q 2766 2663 2505 2880 
Q 2244 3097 1772 3097 
Q 1472 3097 1187 3025 
Q 903 2953 641 2809 
L 641 3341 
Q 956 3463 1253 3523 
Q 1550 3584 1831 3584 
Q 2591 3584 2966 3190 
Q 3341 2797 3341 1997 
z
" transform="scale(0.015625)"/>
       <path id="DejaVuSans-4f" d="M 603 4863 
L 1178 4863 
L 1178 0 
L 603 0 
L 603 4863 
z
" transform="scale(0.015625)"/>
       <path id="DejaVuSans-47" d="M 2906 2969 
L 2906 4863 
L 3481 4863 
L 3481 0 
L 2906 0 
L 2906 525 
Q 2725 213 2448 61 
Q 2172 -91 1784 -91 
Q 1150 -91 751 415 
Q 353 922 353 1747 
Q 353 2572 751 3078 
Q 1150 3584 1784 3584 
Q 2172 3584 2448 3432 
Q 2725 3281 2906 2969 
z
M 947 1747 
Q 947 1113 1208 752 
Q 1469 391 1925 391 
Q 2381 391 2643 752 
Q 2906 1113 2906 1747 
Q 2906 2381 2643 2742 
Q 2381 3103 1925 3103 
Q 1469 3103 1208 2742 
Q 947 2381 947 1747 
z
" transform="scale(0.015625)"/>
       <path id="DejaVuSans-4c" d="M 603 3500 
L 1178 3500 
L 1178 0 
L 603 0 
L 603 3500 
z
M 603 4863 
L 1178 4863 
L 1178 4134 
L 603 4134 
L 603 4863 
z
" transform="scale(0.015625)"/>
       <path id="DejaVuSans-59" d="M 191 3500 
L 800 3500 
L 1894 563 
L 2988 3500 
L 3597 3500 
L 2284 0 
L 1503 0 
L 191 3500 
z
" transform="scale(0.015625)"/>
       <path id="DejaVuSans-48" d="M 3597 1894 
L 3597 1613 
L 953 1613 
Q 991 1019 1311 708 
Q 1631 397 2203 397 
Q 2534 397 2845 478 
Q 3156 559 3463 722 
L 3463 178 
Q 3153 47 2828 -22 
Q 2503 -91 2169 -91 
Q 1331 -91 842 396 
Q 353 884 353 1716 
Q 353 2575 817 3079 
Q 1281 3584 2069 3584 
Q 2775 3584 3186 3129 
Q 3597 2675 3597 1894 
z
M 3022 2063 
Q 3016 2534 2758 2815 
Q 2500 3097 2075 3097 
Q 1594 3097 1305 2825 
Q 1016 2553 972 2059 
L 3022 2063 
z
" transform="scale(0.015625)"/>
       <path id="DejaVuSans-56" d="M 2834 3397 
L 2834 2853 
Q 2591 2978 2328 3040 
Q 2066 3103 1784 3103 
Q 1356 3103 1142 2972 
Q 928 2841 928 2578 
Q 928 2378 1081 2264 
Q 1234 2150 1697 2047 
L 1894 2003 
Q 2506 1872 2764 1633 
Q 3022 1394 3022 966 
Q 3022 478 2636 193 
Q 2250 -91 1575 -91 
Q 1294 -91 989 -36 
Q 684 19 347 128 
L 347 722 
Q 666 556 975 473 
Q 1284 391 1588 391 
Q 1994 391 2212 530 
Q 2431 669 2431 922 
Q 2431 1156 2273 1281 
Q 2116 1406 1581 1522 
L 1381 1569 
Q 847 1681 609 1914 
Q 372 2147 372 2553 
Q 372 3047 722 3315 
Q 1072 3584 1716 3584 
Q 2034 3584 2315 3537 
Q 2597 3491 2834 3397 
z
" transform="scale(0.015625)"/>
      </defs>
      <use xlink:href="#DejaVuSans-30"/>
      <use xlink:href="#DejaVuSans-44" transform="translate(86.28125 0)"/>
      <use xlink:href="#DejaVuSans-4f" transform="translate(147.5625 0)"/>
      <use xlink:href="#DejaVuSans-47" transform="translate(175.34375 0)"/>
      <use xlink:href="#DejaVuSans-4c" transform="translate(238.828125 0)"/>
      <use xlink:href="#DejaVuSans-59" transform="translate(266.609375 0)"/>
      <use xlink:href="#DejaVuSans-48" transform="translate(325.796875 0)"/>
      <use xlink:href="#DejaVuSans-56" transform="translate(387.328125 0)"/>
     </g>
    </g>
    <g id="patch_4">
     <path d="M 15.3 492.895234 
L 33.3 492.895234 
L 33.3 486.595234 
L 15.3 486.595234 
z
" style="fill: #bdc3c7; stroke: #888888; stroke-linejoin: miter"/>
    </g>
    <g id="text_4">
     <!-- Neighbors -->
     <g transform="translate(40.5 492.895234) scale(0.09 -0.09)">
      <defs>
       <path id="DejaVuSans-31" d="M 628 4666 
L 1478 4666 
L 3547 763 
L 3547 4666 
L 4159 4666 
L 4159 0 
L 3309 0 
L 1241 3903 
L 1241 0 
L 628 0 
L 628 4666 
z
" transform="scale(0.015625)"/>
       <path id="DejaVuSans-4a" d="M 2906 1791 
Q 2906 2416 2648 2759 
Q 2391 3103 1925 3103 
Q 1463 3103 1205 2759 
Q 947 2416 947 1791 
Q 947 1169 1205 825 
Q 1463 481 1925 481 
Q 2391 481 2648 825 
Q 2906 1169 2906 1791 
z
M 3481 434 
Q 3481 -459 3084 -895 
Q 2688 -1331 1869 -1331 
Q 1566 -1331 1297 -1286 
Q 1028 -1241 775 -1147 
L 775 -588 
Q 1028 -725 1275 -790 
Q 1522 -856 1778 -856 
Q 2344 -856 2625 -561 
Q 2906 -266 2906 331 
L 2906 616 
Q 2728 306 2450 153 
Q 2172 0 1784 0 
Q 1141 0 747 490 
Q 353 981 353 1791 
Q 353 2603 747 3093 
Q 1141 3584 1784 3584 
Q 2172 3584 2450 3431 
Q 2728 3278 2906 2969 
L 2906 3500 
L 3481 3500 
L 3481 434 
z
" transform="scale(0.015625)"/>
       <path id="DejaVuSans-4b" d="M 3513 2113 
L 3513 0 
L 2938 0 
L 2938 2094 
Q 2938 2591 2744 2837 
Q 2550 3084 2163 3084 
Q 1697 3084 1428 2787 
Q 1159 2491 1159 1978 
L 1159 0 
L 581 0 
L 581 4863 
L 1159 4863 
L 1159 2956 
Q 1366 3272 1645 3428 
Q 1925 3584 2291 3584 
Q 2894 3584 3203 3211 
Q 3513 2838 3513 2113 
z
" transform="scale(0.015625)"/>
       <path id="DejaVuSans-45" d="M 3116 1747 
Q 3116 2381 2855 2742 
Q 2594 3103 2138 3103 
Q 1681 3103 1420 2742 
Q 1159 2381 1159 1747 
Q 1159 1113 1420 752 
Q 1681 391 2138 391 
Q 2594 391 2855 752 
Q 3116 1113 3116 1747 
z
M 1159 2969 
Q 1341 3281 1617 3432 
Q 1894 3584 2278 3584 
Q 2916 3584 3314 3078 
Q 3713 2572 3713 1747 
Q 3713 922 3314 415 
Q 2916 -91 2278 -91 
Q 1894 -91 1617 61 
Q 1341 213 1159 525 
L 1159 0 
L 581 0 
L 581 4863 
L 1159 4863 
L 1159 2969 
z
" transform="scale(0.015625)"/>
       <path id="DejaVuSans-52" d="M 1959 3097 
Q 1497 3097 1228 2736 
Q 959 2375 959 1747 
Q 959 1119 1226 758 
Q 1494 397 1959 397 
Q 2419 397 2687 759 
Q 2956 1122 2956 1747 
Q 2956 2369 2687 2733 
Q 2419 3097 1959 3097 
z
M 1959 3584 
Q 2709 3584 3137 3096 
Q 3566 2609 3566 1747 
Q 3566 888 3137 398 
Q 2709 -91 1959 -91 
Q 1206 -91 779 398 
Q 353 888 353 1747 
Q 353 2609 779 3096 
Q 1206 3584 1959 3584 
z
" transform="scale(0.015625)"/>
       <path id="DejaVuSans-55" d="M 2631 2963 
Q 2534 3019 2420 3045 
Q 2306 3072 2169 3072 
Q 1681 3072 1420 2755 
Q 1159 2438 1159 1844 
L 1159 0 
L 581 0 
L 581 3500 
L 1159 3500 
L 1159 2956 
Q 1341 3275 1631 3429 
Q 1922 3584 2338 3584 
Q 2397 3584 2469 3576 
Q 2541 3569 2628 3553 
L 2631 2963 
z
" transform="scale(0.015625)"/>
      </defs>
      <use xlink:href="#DejaVuSans-31"/>
      <use xlink:href="#DejaVuSans-48" transform="translate(74.8125 0)"/>
      <use xlink:href="#DejaVuSans-4c" transform="translate(136.34375 0)"/>
      <use xlink:href="#DejaVuSans-4a" transform="translate(164.125 0)"/>
      <use xlink:href="#DejaVuSans-4b" transform="translate(227.609375 0)"/>
      <use xlink:href="#DejaVuSans-45" transform="translate(290.984375 0)"/>
      <use xlink:href="#DejaVuSans-52" transform="translate(354.46875 0)"/>
      <use xlink:href="#DejaVuSans-55" transform="translate(415.65625 0)"/>
      <use xlink:href="#DejaVuSans-56" transform="translate(456.765625 0)"/>
     </g>
    </g>
   </g>
  </g>
 </g>
 <defs>
  <clipPath id="pf4c06d9c4e">
   <rect x="7.2" y="30.117344" width="190.16805" height="473.04"/>
  </clipPath>
 </defs>
</svg>
