<?xml version="1.0" encoding="utf-8" standalone="no"?>
<!DOCTYPE svg PUBLIC "-//W3C//DTD SVG 1.1//EN"
  "http://www.w3.org/Graphics/SVG/1.1/DTD/svg11.dtd">
<svg xmlns:xlink="http://www.w3.org/1999/xlink" width="371.559301pt" height="510.357344pt" viewBox="0 0 371.559301 510.357344" xmlns="http://www.w3.org/2000/svg" version="1.1">
 <metadata>
  <rdf:RDF xmlns:dc="http://purl.org/dc/elements/1.1/" xmlns:cc="http://creativecommons.org/ns#" xmlns:rdf="http://www.w3.org/1999/02/22-rdf-syntax-ns#">
   <cc:Work>
    <dc:type rdf:resource="http://purl.org/dc/dcmitype/StillImage"/>
    <dc:date>2026-06-19T08:14:15.152393</dc:date>
    <dc:format>image/svg+xml</dc:format>
    <dc:creator>
     <cc:Agent>
      <dc:title>Matplotlib v3.11.0, https://matplotlib.org/</dc:title>
     </cc:Agent>
    </dc:creator>
   </cc:Work>
  </rdf:RDF>
 </metadata>
 <defs>
  <style type="text/css">*{stroke-linejoin: round; stroke-linecap: butt}</style>
 </defs>
 <g id="figure_1">
  <g id="patch_1">
   <path d="M 0 510.357344 
L 371.559301 510.357344 
L 371.559301 0 
L 0 0 
z
" style="fill: #d6eaf8"/>
  </g>
  <g id="axes_1">
   <g id="PatchCollection_1">
    <path d="M 216.742796 394.307651 
L 217.460088 393.90957 
L 217.699186 393.738964 
L 217.938284 393.397751 
L 218.057833 392.99967 
L 218.416479 391.976033 
L 218.655577 390.383709 
L 219.014223 389.530678 
L 219.611967 388.905122 
L 220.448809 388.393303 
L 221.046553 387.824616 
L 221.644297 387.142191 
L 221.166102 388.393303 
L 219.253321 389.644415 
L 218.894674 390.952396 
L 218.655577 391.976033 
L 218.29693 393.340883 
L 217.579637 394.36452 
z
" clip-path="url(#p2cd5f0079c)" style="fill: #e74c3c; stroke: #ffffff; stroke-width: 0.6"/>
    <path d="M 264.801422 348.698927 
L 265.279617 348.187108 
L 265.279617 348.471452 
L 265.399166 348.698927 
L 265.518715 349.097008 
L 271.137509 351.371757 
L 271.496156 351.371757 
L 272.332998 351.201151 
L 273.050291 350.973676 
L 276.636755 350.234382 
L 275.799913 350.746201 
L 273.408937 351.087414 
L 272.332998 351.656101 
L 271.376607 351.656101 
L 270.300668 351.485495 
L 265.638264 349.381351 
z
" clip-path="url(#p2cd5f0079c)" style="fill: #e74c3c; stroke: #ffffff; stroke-width: 0.6"/>
    <path d="M 195.104459 333.856187 
L 195.343556 333.799318 
L 195.582654 333.74245 
L 195.821752 333.74245 
L 196.060849 333.856187 
L 196.180398 334.140531 
L 196.180398 334.254268 
L 196.180398 334.424874 
L 196.180398 334.709218 
L 196.060849 334.595481 
L 196.060849 334.368006 
L 196.180398 334.254268 
L 195.941301 333.969925 
L 195.582654 333.856187 
z
" clip-path="url(#p2cd5f0079c)" style="fill: #e74c3c; stroke: #ffffff; stroke-width: 0.6"/>
    <path d="M 282.733745 352.338526 
L 283.092392 352.793476 
L 283.451038 353.077819 
L 283.929233 353.248425 
L 286.081112 353.134688 
L 286.559307 353.248425 
L 287.993893 354.442669 
L 288.711186 354.84075 
L 287.874344 354.727012 
L 286.439759 353.703375 
L 285.483368 353.4759 
L 284.048782 353.703375 
L 283.331489 353.419032 
z
" clip-path="url(#p2cd5f0079c)" style="fill: #e74c3c; stroke: #ffffff; stroke-width: 0.6"/>
    <path d="M 293.254041 350.859939 
L 293.37359 350.746201 
L 293.493139 350.689332 
L 293.851786 350.575595 
L 294.090883 350.404989 
L 294.210432 350.177514 
L 294.210432 349.950039 
L 293.971334 349.722564 
L 294.44953 349.950039 
L 294.329981 350.404989 
L 293.851786 350.80307 
z
" clip-path="url(#p2cd5f0079c)" style="fill: #e74c3c; stroke: #ffffff; stroke-width: 0.6"/>
    <path d="M 186.377395 343.125791 
L 186.496944 342.613972 
L 186.975139 343.068922 
L 187.811981 343.296397 
L 188.529274 343.523872 
L 189.127018 343.523872 
L 191.517994 343.523872 
L 191.039799 344.092559 
L 190.322506 344.035691 
L 188.768371 343.694478 
L 187.094688 343.353266 
z
" clip-path="url(#p2cd5f0079c)" style="fill: #e74c3c; stroke: #ffffff; stroke-width: 0.6"/>
    <path d="M 167.369132 401.075031 
L 167.488681 401.188768 
L 167.847327 401.245637 
L 167.966876 401.131899 
L 168.205974 400.904424 
L 168.205974 400.563212 
L 168.205974 400.278868 
L 168.086425 400.051393 
L 168.325523 400.449474 
L 168.205974 401.018162 
L 167.847327 401.359374 
z
" clip-path="url(#p2cd5f0079c)" style="fill: #e74c3c; stroke: #ffffff; stroke-width: 0.6"/>
    <path d="M 288.950284 353.248425 
L 289.189382 352.964082 
L 289.906674 352.054182 
L 290.026223 351.997313 
L 290.026223 351.883576 
L 290.145772 351.826707 
L 290.265321 351.826707 
L 290.026223 352.224788 
L 289.667577 352.622869 
L 289.428479 352.964082 
z
" clip-path="url(#p2cd5f0079c)" style="fill: #e74c3c; stroke: #ffffff; stroke-width: 0.6"/>
    <path d="M 295.047274 385.322391 
L 295.166823 385.37926 
L 295.40592 385.436129 
L 295.645018 385.492997 
L 296.720957 385.549866 
L 297.796897 385.777341 
L 297.079604 385.720472 
L 296.242762 385.83421 
L 295.525469 385.83421 
z
" clip-path="url(#p2cd5f0079c)" style="fill: #e74c3c; stroke: #ffffff; stroke-width: 0.6"/>
    <path d="M 287.515698 384.526229 
L 287.635247 384.185017 
L 287.754796 384.298754 
L 287.874344 384.46936 
L 288.232991 384.810573 
L 288.35254 384.92431 
L 288.113442 384.92431 
L 287.754796 384.92431 
L 287.635247 384.810573 
z
" clip-path="url(#p2cd5f0079c)" style="fill: #e74c3c; stroke: #ffffff; stroke-width: 0.6"/>
    <path d="M 258.226237 290.351606 
L 258.226237 290.294737 
L 258.345785 289.953525 
L 258.465334 289.896656 
L 258.584883 289.896656 
L 258.704432 290.010393 
L 258.465334 290.408474 
z
" clip-path="url(#p2cd5f0079c)" style="fill: #e74c3c; stroke: #ffffff; stroke-width: 0.6"/>
    <path d="M 186.736041 435.651221 
L 188.409725 435.082533 
L 188.648822 434.79819 
L 189.485664 433.774553 
L 189.127018 434.570715 
L 188.648822 435.25314 
L 187.811981 435.594352 
z
" clip-path="url(#p2cd5f0079c)" style="fill: #e74c3c; stroke: #ffffff; stroke-width: 0.6"/>
    <path d="M 182.432284 339.429323 
L 182.432284 338.746898 
L 182.671381 338.291948 
L 182.79093 338.746898 
L 183.030028 339.827404 
L 183.149577 340.339223 
L 182.671381 339.99801 
z
" clip-path="url(#p2cd5f0079c)" style="fill: #e74c3c; stroke: #ffffff; stroke-width: 0.6"/>
    <path d="M 155.055603 295.811004 
L 155.055603 295.640398 
L 155.055603 295.469792 
L 155.175152 295.356054 
L 155.41425 295.185448 
L 155.41425 295.412923 
L 155.294701 295.526661 
z
" clip-path="url(#p2cd5f0079c)" style="fill: #e74c3c; stroke: #ffffff; stroke-width: 0.6"/>
    <path d="M 196.778142 98.419629 
L 197.136789 98.021548 
L 197.495435 97.623467 
L 197.614984 97.623467 
L 197.495435 97.850942 
L 197.136789 98.192154 
z
" clip-path="url(#p2cd5f0079c)" style="fill: #e74c3c; stroke: #ffffff; stroke-width: 0.6"/>
    <path d="M 125.287947 213.863159 
L 126.483435 213.749421 
L 127.559374 213.408209 
L 127.320277 213.976896 
L 126.602984 214.318109 
L 125.885691 214.318109 
z
" clip-path="url(#p2cd5f0079c)" style="fill: #e74c3c; stroke: #ffffff; stroke-width: 0.6"/>
    <path d="M 82.250371 197.883045 
L 82.36992 197.883045 
L 82.489469 197.939913 
L 82.609017 198.110519 
L 82.728566 198.337994 
z
" clip-path="url(#p2cd5f0079c)" style="fill: #e74c3c; stroke: #ffffff; stroke-width: 0.6"/>
    <path d="M 259.421725 243.662375 
L 259.421725 243.207425 
L 259.541274 243.207425 
L 259.541274 243.605507 
z
" clip-path="url(#p2cd5f0079c)" style="fill: #e74c3c; stroke: #ffffff; stroke-width: 0.6"/>
    <path d="M 238.381132 271.414317 
L 238.381132 270.84563 
L 238.500681 270.84563 
L 238.62023 271.129974 
z
" clip-path="url(#p2cd5f0079c)" style="fill: #e74c3c; stroke: #ffffff; stroke-width: 0.6"/>
    <path d="M 73.762405 195.778901 
L 73.762405 195.323952 
L 73.881953 195.267083 
L 74.001502 195.437689 
z
" clip-path="url(#p2cd5f0079c)" style="fill: #e74c3c; stroke: #ffffff; stroke-width: 0.6"/>
    <path d="M 200.962351 399.76705 
L 201.0819 399.425837 
L 201.201449 399.482706 
z
" clip-path="url(#p2cd5f0079c)" style="fill: #e74c3c; stroke: #ffffff; stroke-width: 0.6"/>
    <path d="M 144.057112 309.800713 
L 144.176661 309.516369 
L 144.29621 309.91445 
z
" clip-path="url(#p2cd5f0079c)" style="fill: #e74c3c; stroke: #ffffff; stroke-width: 0.6"/>
   </g>
   <g id="text_1">
    <!-- Marshall Is. -->
    <g style="fill: #1a252f" transform="translate(130.31051 20.117344) scale(0.17 -0.17)">
     <defs>
      <path id="DejaVuSans-Bold-30" d="M 588 4666 
L 2119 4666 
L 3181 2169 
L 4250 4666 
L 5778 4666 
L 5778 0 
L 4641 0 
L 4641 3413 
L 3566 897 
L 2803 897 
L 1728 3413 
L 1728 0 
L 588 0 
L 588 4666 
z
" transform="scale(0.015625)"/>
      <path id="DejaVuSans-Bold-44" d="M 2106 1575 
Q 1756 1575 1579 1456 
Q 1403 1338 1403 1106 
Q 1403 894 1545 773 
Q 1688 653 1941 653 
Q 2256 653 2472 879 
Q 2688 1106 2688 1447 
L 2688 1575 
L 2106 1575 
z
M 3816 1997 
L 3816 0 
L 2688 0 
L 2688 519 
Q 2463 200 2181 54 
Q 1900 -91 1497 -91 
Q 953 -91 614 226 
Q 275 544 275 1050 
Q 275 1666 698 1953 
Q 1122 2241 2028 2241 
L 2688 2241 
L 2688 2328 
Q 2688 2594 2478 2717 
Q 2269 2841 1825 2841 
Q 1466 2841 1156 2769 
Q 847 2697 581 2553 
L 581 3406 
Q 941 3494 1303 3539 
Q 1666 3584 2028 3584 
Q 2975 3584 3395 3211 
Q 3816 2838 3816 1997 
z
" transform="scale(0.015625)"/>
      <path id="DejaVuSans-Bold-55" d="M 3138 2547 
Q 2991 2616 2845 2648 
Q 2700 2681 2553 2681 
Q 2122 2681 1889 2404 
Q 1656 2128 1656 1613 
L 1656 0 
L 538 0 
L 538 3500 
L 1656 3500 
L 1656 2925 
Q 1872 3269 2151 3426 
Q 2431 3584 2822 3584 
Q 2878 3584 2943 3579 
Q 3009 3575 3134 3559 
L 3138 2547 
z
" transform="scale(0.015625)"/>
      <path id="DejaVuSans-Bold-56" d="M 3272 3391 
L 3272 2541 
Q 2913 2691 2578 2766 
Q 2244 2841 1947 2841 
Q 1628 2841 1473 2761 
Q 1319 2681 1319 2516 
Q 1319 2381 1436 2309 
Q 1553 2238 1856 2203 
L 2053 2175 
Q 2913 2066 3209 1816 
Q 3506 1566 3506 1031 
Q 3506 472 3093 190 
Q 2681 -91 1863 -91 
Q 1516 -91 1145 -36 
Q 775 19 384 128 
L 384 978 
Q 719 816 1070 734 
Q 1422 653 1784 653 
Q 2113 653 2278 743 
Q 2444 834 2444 1013 
Q 2444 1163 2330 1236 
Q 2216 1309 1875 1350 
L 1678 1375 
Q 931 1469 631 1722 
Q 331 1975 331 2491 
Q 331 3047 712 3315 
Q 1094 3584 1881 3584 
Q 2191 3584 2531 3537 
Q 2872 3491 3272 3391 
z
" transform="scale(0.015625)"/>
      <path id="DejaVuSans-Bold-4b" d="M 4056 2131 
L 4056 0 
L 2931 0 
L 2931 347 
L 2931 1625 
Q 2931 2084 2911 2256 
Q 2891 2428 2841 2509 
Q 2775 2619 2662 2680 
Q 2550 2741 2406 2741 
Q 2056 2741 1856 2470 
Q 1656 2200 1656 1722 
L 1656 0 
L 538 0 
L 538 4863 
L 1656 4863 
L 1656 2988 
Q 1909 3294 2193 3439 
Q 2478 3584 2822 3584 
Q 3428 3584 3742 3212 
Q 4056 2841 4056 2131 
z
" transform="scale(0.015625)"/>
      <path id="DejaVuSans-Bold-4f" d="M 538 4863 
L 1656 4863 
L 1656 0 
L 538 0 
L 538 4863 
z
" transform="scale(0.015625)"/>
      <path id="DejaVuSans-Bold-3" transform="scale(0.015625)"/>
      <path id="DejaVuSans-Bold-2c" d="M 588 4666 
L 1791 4666 
L 1791 0 
L 588 0 
L 588 4666 
z
" transform="scale(0.015625)"/>
      <path id="DejaVuSans-Bold-11" d="M 653 1209 
L 1778 1209 
L 1778 0 
L 653 0 
L 653 1209 
z
" transform="scale(0.015625)"/>
     </defs>
     <use xlink:href="#DejaVuSans-Bold-30"/>
     <use xlink:href="#DejaVuSans-Bold-44" transform="translate(99.515625 0)"/>
     <use xlink:href="#DejaVuSans-Bold-55" transform="translate(167 0)"/>
     <use xlink:href="#DejaVuSans-Bold-56" transform="translate(216.3125 0)"/>
     <use xlink:href="#DejaVuSans-Bold-4b" transform="translate(275.828125 0)"/>
     <use xlink:href="#DejaVuSans-Bold-44" transform="translate(347.015625 0)"/>
     <use xlink:href="#DejaVuSans-Bold-4f" transform="translate(414.5 0)"/>
     <use xlink:href="#DejaVuSans-Bold-4f" transform="translate(448.78125 0)"/>
     <use xlink:href="#DejaVuSans-Bold-3" transform="translate(483.0625 0)"/>
     <use xlink:href="#DejaVuSans-Bold-2c" transform="translate(517.875 0)"/>
     <use xlink:href="#DejaVuSans-Bold-56" transform="translate(555.078125 0)"/>
     <use xlink:href="#DejaVuSans-Bold-11" transform="translate(614.59375 0)"/>
    </g>
   </g>
   <g id="legend_1">
    <g id="patch_2">
     <path d="M 13.5 498.657344 
L 93.252656 498.657344 
Q 95.052656 498.657344 95.052656 496.857344 
L 95.052656 470.755937 
Q 95.052656 468.955937 93.252656 468.955937 
L 13.5 468.955937 
Q 11.7 468.955937 11.7 470.755937 
L 11.7 496.857344 
Q 11.7 498.657344 13.5 498.657344 
z
" style="fill: #ffffff; opacity: 0.85; stroke: #cccccc; stroke-linejoin: miter"/>
    </g>
    <g id="patch_3">
     <path d="M 15.3 479.394531 
L 33.3 479.394531 
L 33.3 473.094531 
L 15.3 473.094531 
z
" style="fill: #e74c3c; stroke: #888888; stroke-linejoin: miter"/>
    </g>
    <g id="text_2">
     <!-- Marshall Is. -->
     <g transform="translate(40.5 479.394531) scale(0.09 -0.09)">
      <defs>
       <path id="DejaVuSans-30" d="M 628 4666 
L 1569 4666 
L 2759 1491 
L 3956 4666 
L 4897 4666 
L 4897 0 
L 4281 0 
L 4281 4097 
L 3078 897 
L 2444 897 
L 1241 4097 
L 1241 0 
L 628 0 
L 628 4666 
z
" transform="scale(0.015625)"/>
       <path id="DejaVuSans-44" d="M 2194 1759 
Q 1497 1759 1228 1600 
Q 959 1441 959 1056 
Q 959 750 1161 570 
Q 1363 391 1709 391 
Q 2188 391 2477 730 
Q 2766 1069 2766 1631 
L 2766 1759 
L 2194 1759 
z
M 3341 1997 
L 3341 0 
L 2766 0 
L 2766 531 
Q 2569 213 2275 61 
Q 1981 -91 1556 -91 
Q 1019 -91 701 211 
Q 384 513 384 1019 
Q 384 1609 779 1909 
Q 1175 2209 1959 2209 
L 2766 2209 
L 2766 2266 
Q 2766 2663 2505 2880 
Q 2244 3097 1772 3097 
Q 1472 3097 1187 3025 
Q 903 2953 641 2809 
L 641 3341 
Q 956 3463 1253 3523 
Q 1550 3584 1831 3584 
Q 2591 3584 2966 3190 
Q 3341 2797 3341 1997 
z
" transform="scale(0.015625)"/>
       <path id="DejaVuSans-55" d="M 2631 2963 
Q 2534 3019 2420 3045 
Q 2306 3072 2169 3072 
Q 1681 3072 1420 2755 
Q 1159 2438 1159 1844 
L 1159 0 
L 581 0 
L 581 3500 
L 1159 3500 
L 1159 2956 
Q 1341 3275 1631 3429 
Q 1922 3584 2338 3584 
Q 2397 3584 2469 3576 
Q 2541 3569 2628 3553 
L 2631 2963 
z
" transform="scale(0.015625)"/>
       <path id="DejaVuSans-56" d="M 2834 3397 
L 2834 2853 
Q 2591 2978 2328 3040 
Q 2066 3103 1784 3103 
Q 1356 3103 1142 2972 
Q 928 2841 928 2578 
Q 928 2378 1081 2264 
Q 1234 2150 1697 2047 
L 1894 2003 
Q 2506 1872 2764 1633 
Q 3022 1394 3022 966 
Q 3022 478 2636 193 
Q 2250 -91 1575 -91 
Q 1294 -91 989 -36 
Q 684 19 347 128 
L 347 722 
Q 666 556 975 473 
Q 1284 391 1588 391 
Q 1994 391 2212 530 
Q 2431 669 2431 922 
Q 2431 1156 2273 1281 
Q 2116 1406 1581 1522 
L 1381 1569 
Q 847 1681 609 1914 
Q 372 2147 372 2553 
Q 372 3047 722 3315 
Q 1072 3584 1716 3584 
Q 2034 3584 2315 3537 
Q 2597 3491 2834 3397 
z
" transform="scale(0.015625)"/>
       <path id="DejaVuSans-4b" d="M 3513 2113 
L 3513 0 
L 2938 0 
L 2938 2094 
Q 2938 2591 2744 2837 
Q 2550 3084 2163 3084 
Q 1697 3084 1428 2787 
Q 1159 2491 1159 1978 
L 1159 0 
L 581 0 
L 581 4863 
L 1159 4863 
L 1159 2956 
Q 1366 3272 1645 3428 
Q 1925 3584 2291 3584 
Q 2894 3584 3203 3211 
Q 3513 2838 3513 2113 
z
" transform="scale(0.015625)"/>
       <path id="DejaVuSans-4f" d="M 603 4863 
L 1178 4863 
L 1178 0 
L 603 0 
L 603 4863 
z
" transform="scale(0.015625)"/>
       <path id="DejaVuSans-3" transform="scale(0.015625)"/>
       <path id="DejaVuSans-2c" d="M 628 4666 
L 1259 4666 
L 1259 0 
L 628 0 
L 628 4666 
z
" transform="scale(0.015625)"/>
       <path id="DejaVuSans-11" d="M 684 794 
L 1344 794 
L 1344 0 
L 684 0 
L 684 794 
z
" transform="scale(0.015625)"/>
      </defs>
      <use xlink:href="#DejaVuSans-30"/>
      <use xlink:href="#DejaVuSans-44" transform="translate(86.28125 0)"/>
      <use xlink:href="#DejaVuSans-55" transform="translate(147.5625 0)"/>
      <use xlink:href="#DejaVuSans-56" transform="translate(188.671875 0)"/>
      <use xlink:href="#DejaVuSans-4b" transform="translate(240.765625 0)"/>
      <use xlink:href="#DejaVuSans-44" transform="translate(304.140625 0)"/>
      <use xlink:href="#DejaVuSans-4f" transform="translate(365.421875 0)"/>
      <use xlink:href="#DejaVuSans-4f" transform="translate(393.203125 0)"/>
      <use xlink:href="#DejaVuSans-3" transform="translate(420.984375 0)"/>
      <use xlink:href="#DejaVuSans-2c" transform="translate(452.765625 0)"/>
      <use xlink:href="#DejaVuSans-56" transform="translate(482.265625 0)"/>
      <use xlink:href="#DejaVuSans-11" transform="translate(534.359375 0)"/>
     </g>
    </g>
    <g id="patch_4">
     <path d="M 15.3 492.895234 
L 33.3 492.895234 
L 33.3 486.595234 
L 15.3 486.595234 
z
" style="fill: #bdc3c7; stroke: #888888; stroke-linejoin: miter"/>
    </g>
    <g id="text_3">
     <!-- Neighbors -->
     <g transform="translate(40.5 492.895234) scale(0.09 -0.09)">
      <defs>
       <path id="DejaVuSans-31" d="M 628 4666 
L 1478 4666 
L 3547 763 
L 3547 4666 
L 4159 4666 
L 4159 0 
L 3309 0 
L 1241 3903 
L 1241 0 
L 628 0 
L 628 4666 
z
" transform="scale(0.015625)"/>
       <path id="DejaVuSans-48" d="M 3597 1894 
L 3597 1613 
L 953 1613 
Q 991 1019 1311 708 
Q 1631 397 2203 397 
Q 2534 397 2845 478 
Q 3156 559 3463 722 
L 3463 178 
Q 3153 47 2828 -22 
Q 2503 -91 2169 -91 
Q 1331 -91 842 396 
Q 353 884 353 1716 
Q 353 2575 817 3079 
Q 1281 3584 2069 3584 
Q 2775 3584 3186 3129 
Q 3597 2675 3597 1894 
z
M 3022 2063 
Q 3016 2534 2758 2815 
Q 2500 3097 2075 3097 
Q 1594 3097 1305 2825 
Q 1016 2553 972 2059 
L 3022 2063 
z
" transform="scale(0.015625)"/>
       <path id="DejaVuSans-4c" d="M 603 3500 
L 1178 3500 
L 1178 0 
L 603 0 
L 603 3500 
z
M 603 4863 
L 1178 4863 
L 1178 4134 
L 603 4134 
L 603 4863 
z
" transform="scale(0.015625)"/>
       <path id="DejaVuSans-4a" d="M 2906 1791 
Q 2906 2416 2648 2759 
Q 2391 3103 1925 3103 
Q 1463 3103 1205 2759 
Q 947 2416 947 1791 
Q 947 1169 1205 825 
Q 1463 481 1925 481 
Q 2391 481 2648 825 
Q 2906 1169 2906 1791 
z
M 3481 434 
Q 3481 -459 3084 -895 
Q 2688 -1331 1869 -1331 
Q 1566 -1331 1297 -1286 
Q 1028 -1241 775 -1147 
L 775 -588 
Q 1028 -725 1275 -790 
Q 1522 -856 1778 -856 
Q 2344 -856 2625 -561 
Q 2906 -266 2906 331 
L 2906 616 
Q 2728 306 2450 153 
Q 2172 0 1784 0 
Q 1141 0 747 490 
Q 353 981 353 1791 
Q 353 2603 747 3093 
Q 1141 3584 1784 3584 
Q 2172 3584 2450 3431 
Q 2728 3278 2906 2969 
L 2906 3500 
L 3481 3500 
L 3481 434 
z
" transform="scale(0.015625)"/>
       <path id="DejaVuSans-45" d="M 3116 1747 
Q 3116 2381 2855 2742 
Q 2594 3103 2138 3103 
Q 1681 3103 1420 2742 
Q 1159 2381 1159 1747 
Q 1159 1113 1420 752 
Q 1681 391 2138 391 
Q 2594 391 2855 752 
Q 3116 1113 3116 1747 
z
M 1159 2969 
Q 1341 3281 1617 3432 
Q 1894 3584 2278 3584 
Q 2916 3584 3314 3078 
Q 3713 2572 3713 1747 
Q 3713 922 3314 415 
Q 2916 -91 2278 -91 
Q 1894 -91 1617 61 
Q 1341 213 1159 525 
L 1159 0 
L 581 0 
L 581 4863 
L 1159 4863 
L 1159 2969 
z
" transform="scale(0.015625)"/>
       <path id="DejaVuSans-52" d="M 1959 3097 
Q 1497 3097 1228 2736 
Q 959 2375 959 1747 
Q 959 1119 1226 758 
Q 1494 397 1959 397 
Q 2419 397 2687 759 
Q 2956 1122 2956 1747 
Q 2956 2369 2687 2733 
Q 2419 3097 1959 3097 
z
M 1959 3584 
Q 2709 3584 3137 3096 
Q 3566 2609 3566 1747 
Q 3566 888 3137 398 
Q 2709 -91 1959 -91 
Q 1206 -91 779 398 
Q 353 888 353 1747 
Q 353 2609 779 3096 
Q 1206 3584 1959 3584 
z
" transform="scale(0.015625)"/>
      </defs>
      <use xlink:href="#DejaVuSans-31"/>
      <use xlink:href="#DejaVuSans-48" transform="translate(74.8125 0)"/>
      <use xlink:href="#DejaVuSans-4c" transform="translate(136.34375 0)"/>
      <use xlink:href="#DejaVuSans-4a" transform="translate(164.125 0)"/>
      <use xlink:href="#DejaVuSans-4b" transform="translate(227.609375 0)"/>
      <use xlink:href="#DejaVuSans-45" transform="translate(290.984375 0)"/>
      <use xlink:href="#DejaVuSans-52" transform="translate(354.46875 0)"/>
      <use xlink:href="#DejaVuSans-55" transform="translate(415.65625 0)"/>
      <use xlink:href="#DejaVuSans-56" transform="translate(456.765625 0)"/>
     </g>
    </g>
   </g>
  </g>
 </g>
 <defs>
  <clipPath id="p2cd5f0079c">
   <rect x="7.2" y="30.117344" width="357.159301" height="473.04"/>
  </clipPath>
 </defs>
</svg>
