<?xml version="1.0" encoding="utf-8" standalone="no"?>
<!DOCTYPE svg PUBLIC "-//W3C//DTD SVG 1.1//EN"
  "http://www.w3.org/Graphics/SVG/1.1/DTD/svg11.dtd">
<svg xmlns:xlink="http://www.w3.org/1999/xlink" width="870.4pt" height="471.522166pt" viewBox="0 0 870.4 471.522166" xmlns="http://www.w3.org/2000/svg" version="1.1">
 <metadata>
  <rdf:RDF xmlns:dc="http://purl.org/dc/elements/1.1/" xmlns:cc="http://creativecommons.org/ns#" xmlns:rdf="http://www.w3.org/1999/02/22-rdf-syntax-ns#">
   <cc:Work>
    <dc:type rdf:resource="http://purl.org/dc/dcmitype/StillImage"/>
    <dc:date>2026-06-19T08:14:18.499093</dc:date>
    <dc:format>image/svg+xml</dc:format>
    <dc:creator>
     <cc:Agent>
      <dc:title>Matplotlib v3.11.0, https://matplotlib.org/</dc:title>
     </cc:Agent>
    </dc:creator>
   </cc:Work>
  </rdf:RDF>
 </metadata>
 <defs>
  <style type="text/css">*{stroke-linejoin: round; stroke-linecap: butt}</style>
 </defs>
 <g id="figure_1">
  <g id="patch_1">
   <path d="M 0 471.522166 
L 870.4 471.522166 
L 870.4 0 
L 0 0 
z
" style="fill: #d6eaf8"/>
  </g>
  <g id="axes_1">
   <g id="PatchCollection_1">
    <path d="M 634.112712 206.047661 
L 634.301882 205.15649 
L 634.491053 204.889138 
L 635.058564 204.889138 
L 635.436905 204.755463 
L 635.53149 204.131643 
L 636.099002 204.398994 
L 636.288172 204.488112 
L 636.571928 204.354436 
L 636.761098 204.354436 
L 636.950269 204.443553 
L 637.139439 204.488112 
L 637.801535 204.488112 
L 638.085291 204.488112 
L 638.085291 204.577229 
L 638.558217 204.84458 
L 638.747388 205.111931 
L 638.747388 205.15649 
L 638.463632 205.245607 
L 638.558217 205.4684 
L 638.841973 205.602075 
L 639.031143 205.557517 
L 639.314899 205.423841 
L 639.69324 206.760597 
L 639.69324 207.027949 
L 639.504069 207.117066 
L 638.936558 207.072507 
L 638.841973 207.117066 
L 638.841973 207.428975 
L 639.125729 207.919119 
L 639.125729 208.231029 
L 639.031143 208.632056 
L 638.841973 208.899407 
L 638.463632 208.988524 
L 637.234024 209.166759 
L 636.761098 209.1222 
L 636.477342 208.854849 
L 635.909831 209.033083 
L 635.53149 208.81029 
L 635.247735 208.409263 
L 635.058564 208.141912 
L 635.153149 207.785444 
L 635.153149 207.428975 
L 635.058564 207.117066 
L 634.774809 206.849714 
L 634.869394 206.760597 
L 635.058564 206.493246 
L 634.301882 206.448687 
z
" clip-path="url(#p52460c82c6)" style="fill: #e74c3c; stroke: #ffffff; stroke-width: 0.6"/>
    <path d="M 106.989296 139.298962 
L 107.273052 138.407791 
L 107.651392 137.605737 
L 108.124319 137.249269 
L 108.313489 137.071035 
L 108.502659 136.179864 
L 108.69183 135.867954 
L 109.070171 135.645161 
L 109.164756 135.823396 
L 109.259341 136.536332 
L 109.353926 136.268981 
L 109.353926 136.00163 
L 109.543097 135.778837 
L 109.637682 135.600603 
L 109.921438 135.466927 
L 110.205193 135.288693 
L 110.394364 135.288693 
L 110.394364 135.600603 
L 110.110608 136.090747 
L 110.205193 136.447215 
L 110.488949 136.580891 
L 111.05646 136.358098 
L 110.961875 136.625449 
L 110.678119 137.071035 
L 110.299779 137.427503 
L 110.016023 137.605737 
L 109.637682 137.472062 
L 109.448512 136.937359 
L 109.070171 137.071035 
L 108.881 137.293828 
L 107.462222 139.566313 
L 107.083881 139.922782 
z
" clip-path="url(#p52460c82c6)" style="fill: #e74c3c; stroke: #ffffff; stroke-width: 0.6"/>
    <path d="M 759.816466 248.333719 
L 760.194807 247.888133 
L 761.424414 246.818728 
L 761.897341 246.46226 
L 762.464852 246.328584 
L 762.843193 246.640494 
L 762.843193 246.77417 
L 762.843193 247.175196 
L 762.843193 247.353431 
L 762.937778 247.487106 
L 763.126948 247.576223 
L 763.316119 247.620782 
L 763.410704 247.843575 
L 763.316119 248.155484 
L 762.843193 248.957538 
L 762.654022 249.180331 
L 762.275681 249.269448 
L 761.991926 249.180331 
L 761.70817 249.046655 
L 761.329829 248.957538 
L 760.762318 248.957538 
L 760.383977 248.91298 
L 760.005636 248.779304 
z
" clip-path="url(#p52460c82c6)" style="fill: #e74c3c; stroke: #ffffff; stroke-width: 0.6"/>
    <path d="M 461.778446 194.551556 
L 461.873031 194.462439 
L 461.967616 194.417881 
L 462.156787 194.373322 
L 462.440543 194.284205 
L 463.102639 194.105971 
L 463.29181 193.927737 
L 463.102639 193.660385 
L 462.535128 193.749503 
L 462.345957 193.482151 
L 463.197224 193.259359 
L 463.575565 193.393034 
L 463.953906 193.83862 
L 463.953906 194.239646 
L 463.859321 194.72979 
L 463.575565 194.952583 
L 463.29181 194.551556 
L 463.102639 194.551556 
L 462.818883 194.72979 
L 462.535128 194.685232 
L 462.156787 194.596115 
z
" clip-path="url(#p52460c82c6)" style="fill: #e74c3c; stroke: #ffffff; stroke-width: 0.6"/>
    <path d="M 469.345263 192.368188 
L 469.345263 192.056278 
L 469.439849 191.788927 
L 469.534434 191.298783 
L 469.629019 191.343341 
L 469.723604 191.343341 
L 469.912775 191.477017 
L 470.101945 191.343341 
L 470.291116 191.3879 
L 470.574871 191.477017 
L 470.953212 191.477017 
L 470.764042 191.788927 
L 470.291116 192.100836 
L 469.81819 192.323629 
z
" clip-path="url(#p52460c82c6)" style="fill: #e74c3c; stroke: #ffffff; stroke-width: 0.6"/>
    <path d="M 608.669289 235.857326 
L 608.669289 235.812768 
L 608.763874 235.768209 
L 608.858459 235.812768 
L 608.858459 235.857326 
L 608.763874 235.901885 
L 608.763874 235.946443 
L 608.763874 235.901885 
z
" clip-path="url(#p52460c82c6)" style="fill: #e74c3c; stroke: #ffffff; stroke-width: 0.6"/>
    <path d="M 517.016213 248.823863 
L 517.110798 248.511953 
L 517.394554 248.200043 
L 517.86748 248.021809 
L 518.05665 248.066367 
L 518.05665 248.28916 
L 517.678309 248.556511 
L 517.205383 248.734745 
z
" clip-path="url(#p52460c82c6)" style="fill: #e74c3c; stroke: #ffffff; stroke-width: 0.6"/>
    <path d="M 411.837451 161.71191 
L 411.837451 161.266324 
L 412.121207 160.954414 
L 412.404963 160.954414 
L 412.404963 161.177207 
L 412.310377 161.533675 
L 412.026622 161.845585 
L 411.932037 162.023819 
z
" clip-path="url(#p52460c82c6)" style="fill: #e74c3c; stroke: #ffffff; stroke-width: 0.6"/>
    <path d="M 402.662685 211.57292 
L 402.662685 211.394686 
L 402.662685 211.26101 
L 402.75727 211.127335 
L 402.851856 210.993659 
L 402.851856 211.171893 
L 402.851856 211.305569 
L 402.75727 211.439244 
z
" clip-path="url(#p52460c82c6)" style="fill: #e74c3c; stroke: #ffffff; stroke-width: 0.6"/>
    <path d="M 546.715971 363.918581 
L 546.810556 363.829464 
L 546.905142 363.829464 
L 547.094312 363.874022 
L 547.188897 363.96314 
L 547.094312 364.096815 
L 546.810556 364.096815 
z
" clip-path="url(#p52460c82c6)" style="fill: #e74c3c; stroke: #ffffff; stroke-width: 0.6"/>
    <path d="M 546.14846 362.760059 
L 546.14846 362.626383 
L 546.33763 362.581825 
L 546.526801 362.670942 
L 546.621386 362.804617 
L 546.526801 362.893734 
L 546.33763 362.893734 
z
" clip-path="url(#p52460c82c6)" style="fill: #e74c3c; stroke: #ffffff; stroke-width: 0.6"/>
    <path d="M 469.345263 194.239646 
L 469.345263 193.83862 
L 469.534434 194.061412 
L 469.629019 194.328764 
L 469.629019 194.640673 
L 469.534434 194.952583 
L 469.439849 195.219934 
z
" clip-path="url(#p52460c82c6)" style="fill: #e74c3c; stroke: #ffffff; stroke-width: 0.6"/>
    <path d="M 423.755189 151.418886 
L 423.849774 151.196093 
L 423.944359 151.151535 
L 424.13353 151.196093 
L 424.038944 151.329769 
L 423.944359 151.374327 
L 423.849774 151.374327 
z
" clip-path="url(#p52460c82c6)" style="fill: #e74c3c; stroke: #ffffff; stroke-width: 0.6"/>
    <path d="M 629.099695 211.038217 
L 629.194281 210.770866 
L 629.288866 210.681749 
L 629.478036 210.681749 
L 629.478036 210.815425 
L 629.383451 210.904542 
z
" clip-path="url(#p52460c82c6)" style="fill: #e74c3c; stroke: #ffffff; stroke-width: 0.6"/>
    <path d="M 171.401829 130.743722 
L 171.401829 130.565488 
L 171.590999 130.387253 
L 171.874755 130.342695 
L 171.874755 130.431812 
L 171.685585 130.654605 
z
" clip-path="url(#p52460c82c6)" style="fill: #e74c3c; stroke: #ffffff; stroke-width: 0.6"/>
    <path d="M 544.445926 362.938293 
L 544.445926 362.849176 
L 544.635096 362.7155 
L 544.918852 362.804617 
L 544.824267 362.938293 
z
" clip-path="url(#p52460c82c6)" style="fill: #e74c3c; stroke: #ffffff; stroke-width: 0.6"/>
    <path d="M 431.227421 161.756468 
L 431.322006 161.756468 
L 431.416591 161.845585 
L 431.322006 161.934702 
L 431.322006 162.023819 
z
" clip-path="url(#p52460c82c6)" style="fill: #e74c3c; stroke: #ffffff; stroke-width: 0.6"/>
    <path d="M 399.068447 193.52671 
L 399.257617 193.52671 
L 399.257617 193.571268 
L 399.257617 193.660385 
L 399.257617 193.794061 
z
" clip-path="url(#p52460c82c6)" style="fill: #e74c3c; stroke: #ffffff; stroke-width: 0.6"/>
    <path d="M 548.702261 288.881993 
L 549.175187 288.570084 
L 549.175187 289.015669 
L 548.796846 289.28302 
z
" clip-path="url(#p52460c82c6)" style="fill: #e74c3c; stroke: #ffffff; stroke-width: 0.6"/>
    <path d="M 545.959289 288.525525 
L 546.432216 288.258174 
L 546.526801 288.659201 
L 546.053875 288.926552 
z
" clip-path="url(#p52460c82c6)" style="fill: #e74c3c; stroke: #ffffff; stroke-width: 0.6"/>
   </g>
   <g id="text_1">
    <!-- Micronesia -->
    <g style="fill: #1a252f" transform="translate(383.231797 20.117344) scale(0.17 -0.17)">
     <defs>
      <path id="DejaVuSans-Bold-30" d="M 588 4666 
L 2119 4666 
L 3181 2169 
L 4250 4666 
L 5778 4666 
L 5778 0 
L 4641 0 
L 4641 3413 
L 3566 897 
L 2803 897 
L 1728 3413 
L 1728 0 
L 588 0 
L 588 4666 
z
" transform="scale(0.015625)"/>
      <path id="DejaVuSans-Bold-4c" d="M 538 3500 
L 1656 3500 
L 1656 0 
L 538 0 
L 538 3500 
z
M 538 4863 
L 1656 4863 
L 1656 3950 
L 538 3950 
L 538 4863 
z
" transform="scale(0.015625)"/>
      <path id="DejaVuSans-Bold-46" d="M 3366 3391 
L 3366 2478 
Q 3138 2634 2908 2709 
Q 2678 2784 2431 2784 
Q 1963 2784 1702 2511 
Q 1441 2238 1441 1747 
Q 1441 1256 1702 982 
Q 1963 709 2431 709 
Q 2694 709 2930 787 
Q 3166 866 3366 1019 
L 3366 103 
Q 3103 6 2833 -42 
Q 2563 -91 2291 -91 
Q 1344 -91 809 395 
Q 275 881 275 1747 
Q 275 2613 809 3098 
Q 1344 3584 2291 3584 
Q 2566 3584 2833 3536 
Q 3100 3488 3366 3391 
z
" transform="scale(0.015625)"/>
      <path id="DejaVuSans-Bold-55" d="M 3138 2547 
Q 2991 2616 2845 2648 
Q 2700 2681 2553 2681 
Q 2122 2681 1889 2404 
Q 1656 2128 1656 1613 
L 1656 0 
L 538 0 
L 538 3500 
L 1656 3500 
L 1656 2925 
Q 1872 3269 2151 3426 
Q 2431 3584 2822 3584 
Q 2878 3584 2943 3579 
Q 3009 3575 3134 3559 
L 3138 2547 
z
" transform="scale(0.015625)"/>
      <path id="DejaVuSans-Bold-52" d="M 2203 2784 
Q 1831 2784 1636 2517 
Q 1441 2250 1441 1747 
Q 1441 1244 1636 976 
Q 1831 709 2203 709 
Q 2569 709 2762 976 
Q 2956 1244 2956 1747 
Q 2956 2250 2762 2517 
Q 2569 2784 2203 2784 
z
M 2203 3584 
Q 3106 3584 3614 3096 
Q 4122 2609 4122 1747 
Q 4122 884 3614 396 
Q 3106 -91 2203 -91 
Q 1297 -91 786 396 
Q 275 884 275 1747 
Q 275 2609 786 3096 
Q 1297 3584 2203 3584 
z
" transform="scale(0.015625)"/>
      <path id="DejaVuSans-Bold-51" d="M 4056 2131 
L 4056 0 
L 2931 0 
L 2931 347 
L 2931 1631 
Q 2931 2084 2911 2256 
Q 2891 2428 2841 2509 
Q 2775 2619 2662 2680 
Q 2550 2741 2406 2741 
Q 2056 2741 1856 2470 
Q 1656 2200 1656 1722 
L 1656 0 
L 538 0 
L 538 3500 
L 1656 3500 
L 1656 2988 
Q 1909 3294 2193 3439 
Q 2478 3584 2822 3584 
Q 3428 3584 3742 3212 
Q 4056 2841 4056 2131 
z
" transform="scale(0.015625)"/>
      <path id="DejaVuSans-Bold-48" d="M 4031 1759 
L 4031 1441 
L 1416 1441 
Q 1456 1047 1700 850 
Q 1944 653 2381 653 
Q 2734 653 3104 758 
Q 3475 863 3866 1075 
L 3866 213 
Q 3469 63 3072 -14 
Q 2675 -91 2278 -91 
Q 1328 -91 801 392 
Q 275 875 275 1747 
Q 275 2603 792 3093 
Q 1309 3584 2216 3584 
Q 3041 3584 3536 3087 
Q 4031 2591 4031 1759 
z
M 2881 2131 
Q 2881 2450 2695 2645 
Q 2509 2841 2209 2841 
Q 1884 2841 1681 2658 
Q 1478 2475 1428 2131 
L 2881 2131 
z
" transform="scale(0.015625)"/>
      <path id="DejaVuSans-Bold-56" d="M 3272 3391 
L 3272 2541 
Q 2913 2691 2578 2766 
Q 2244 2841 1947 2841 
Q 1628 2841 1473 2761 
Q 1319 2681 1319 2516 
Q 1319 2381 1436 2309 
Q 1553 2238 1856 2203 
L 2053 2175 
Q 2913 2066 3209 1816 
Q 3506 1566 3506 1031 
Q 3506 472 3093 190 
Q 2681 -91 1863 -91 
Q 1516 -91 1145 -36 
Q 775 19 384 128 
L 384 978 
Q 719 816 1070 734 
Q 1422 653 1784 653 
Q 2113 653 2278 743 
Q 2444 834 2444 1013 
Q 2444 1163 2330 1236 
Q 2216 1309 1875 1350 
L 1678 1375 
Q 931 1469 631 1722 
Q 331 1975 331 2491 
Q 331 3047 712 3315 
Q 1094 3584 1881 3584 
Q 2191 3584 2531 3537 
Q 2872 3491 3272 3391 
z
" transform="scale(0.015625)"/>
      <path id="DejaVuSans-Bold-44" d="M 2106 1575 
Q 1756 1575 1579 1456 
Q 1403 1338 1403 1106 
Q 1403 894 1545 773 
Q 1688 653 1941 653 
Q 2256 653 2472 879 
Q 2688 1106 2688 1447 
L 2688 1575 
L 2106 1575 
z
M 3816 1997 
L 3816 0 
L 2688 0 
L 2688 519 
Q 2463 200 2181 54 
Q 1900 -91 1497 -91 
Q 953 -91 614 226 
Q 275 544 275 1050 
Q 275 1666 698 1953 
Q 1122 2241 2028 2241 
L 2688 2241 
L 2688 2328 
Q 2688 2594 2478 2717 
Q 2269 2841 1825 2841 
Q 1466 2841 1156 2769 
Q 847 2697 581 2553 
L 581 3406 
Q 941 3494 1303 3539 
Q 1666 3584 2028 3584 
Q 2975 3584 3395 3211 
Q 3816 2838 3816 1997 
z
" transform="scale(0.015625)"/>
     </defs>
     <use xlink:href="#DejaVuSans-Bold-30"/>
     <use xlink:href="#DejaVuSans-Bold-4c" transform="translate(99.515625 0)"/>
     <use xlink:href="#DejaVuSans-Bold-46" transform="translate(133.796875 0)"/>
     <use xlink:href="#DejaVuSans-Bold-55" transform="translate(193.078125 0)"/>
     <use xlink:href="#DejaVuSans-Bold-52" transform="translate(242.390625 0)"/>
     <use xlink:href="#DejaVuSans-Bold-51" transform="translate(311.09375 0)"/>
     <use xlink:href="#DejaVuSans-Bold-48" transform="translate(382.28125 0)"/>
     <use xlink:href="#DejaVuSans-Bold-56" transform="translate(450.109375 0)"/>
     <use xlink:href="#DejaVuSans-Bold-4c" transform="translate(509.625 0)"/>
     <use xlink:href="#DejaVuSans-Bold-44" transform="translate(543.90625 0)"/>
    </g>
   </g>
   <g id="legend_1">
    <g id="patch_2">
     <path d="M 13.5 459.822166 
L 90.468281 459.822166 
Q 92.268281 459.822166 92.268281 458.022166 
L 92.268281 431.92076 
Q 92.268281 430.12076 90.468281 430.12076 
L 13.5 430.12076 
Q 11.7 430.12076 11.7 431.92076 
L 11.7 458.022166 
Q 11.7 459.822166 13.5 459.822166 
z
" style="fill: #ffffff; opacity: 0.85; stroke: #cccccc; stroke-linejoin: miter"/>
    </g>
    <g id="patch_3">
     <path d="M 15.3 440.559354 
L 33.3 440.559354 
L 33.3 434.259354 
L 15.3 434.259354 
z
" style="fill: #e74c3c; stroke: #888888; stroke-linejoin: miter"/>
    </g>
    <g id="text_2">
     <!-- Micronesia -->
     <g transform="translate(40.5 440.559354) scale(0.09 -0.09)">
      <defs>
       <path id="DejaVuSans-30" d="M 628 4666 
L 1569 4666 
L 2759 1491 
L 3956 4666 
L 4897 4666 
L 4897 0 
L 4281 0 
L 4281 4097 
L 3078 897 
L 2444 897 
L 1241 4097 
L 1241 0 
L 628 0 
L 628 4666 
z
" transform="scale(0.015625)"/>
       <path id="DejaVuSans-4c" d="M 603 3500 
L 1178 3500 
L 1178 0 
L 603 0 
L 603 3500 
z
M 603 4863 
L 1178 4863 
L 1178 4134 
L 603 4134 
L 603 4863 
z
" transform="scale(0.015625)"/>
       <path id="DejaVuSans-46" d="M 3122 3366 
L 3122 2828 
Q 2878 2963 2633 3030 
Q 2388 3097 2138 3097 
Q 1578 3097 1268 2742 
Q 959 2388 959 1747 
Q 959 1106 1268 751 
Q 1578 397 2138 397 
Q 2388 397 2633 464 
Q 2878 531 3122 666 
L 3122 134 
Q 2881 22 2623 -34 
Q 2366 -91 2075 -91 
Q 1284 -91 818 406 
Q 353 903 353 1747 
Q 353 2603 823 3093 
Q 1294 3584 2113 3584 
Q 2378 3584 2631 3529 
Q 2884 3475 3122 3366 
z
" transform="scale(0.015625)"/>
       <path id="DejaVuSans-55" d="M 2631 2963 
Q 2534 3019 2420 3045 
Q 2306 3072 2169 3072 
Q 1681 3072 1420 2755 
Q 1159 2438 1159 1844 
L 1159 0 
L 581 0 
L 581 3500 
L 1159 3500 
L 1159 2956 
Q 1341 3275 1631 3429 
Q 1922 3584 2338 3584 
Q 2397 3584 2469 3576 
Q 2541 3569 2628 3553 
L 2631 2963 
z
" transform="scale(0.015625)"/>
       <path id="DejaVuSans-52" d="M 1959 3097 
Q 1497 3097 1228 2736 
Q 959 2375 959 1747 
Q 959 1119 1226 758 
Q 1494 397 1959 397 
Q 2419 397 2687 759 
Q 2956 1122 2956 1747 
Q 2956 2369 2687 2733 
Q 2419 3097 1959 3097 
z
M 1959 3584 
Q 2709 3584 3137 3096 
Q 3566 2609 3566 1747 
Q 3566 888 3137 398 
Q 2709 -91 1959 -91 
Q 1206 -91 779 398 
Q 353 888 353 1747 
Q 353 2609 779 3096 
Q 1206 3584 1959 3584 
z
" transform="scale(0.015625)"/>
       <path id="DejaVuSans-51" d="M 3513 2113 
L 3513 0 
L 2938 0 
L 2938 2094 
Q 2938 2591 2744 2837 
Q 2550 3084 2163 3084 
Q 1697 3084 1428 2787 
Q 1159 2491 1159 1978 
L 1159 0 
L 581 0 
L 581 3500 
L 1159 3500 
L 1159 2956 
Q 1366 3272 1645 3428 
Q 1925 3584 2291 3584 
Q 2894 3584 3203 3211 
Q 3513 2838 3513 2113 
z
" transform="scale(0.015625)"/>
       <path id="DejaVuSans-48" d="M 3597 1894 
L 3597 1613 
L 953 1613 
Q 991 1019 1311 708 
Q 1631 397 2203 397 
Q 2534 397 2845 478 
Q 3156 559 3463 722 
L 3463 178 
Q 3153 47 2828 -22 
Q 2503 -91 2169 -91 
Q 1331 -91 842 396 
Q 353 884 353 1716 
Q 353 2575 817 3079 
Q 1281 3584 2069 3584 
Q 2775 3584 3186 3129 
Q 3597 2675 3597 1894 
z
M 3022 2063 
Q 3016 2534 2758 2815 
Q 2500 3097 2075 3097 
Q 1594 3097 1305 2825 
Q 1016 2553 972 2059 
L 3022 2063 
z
" transform="scale(0.015625)"/>
       <path id="DejaVuSans-56" d="M 2834 3397 
L 2834 2853 
Q 2591 2978 2328 3040 
Q 2066 3103 1784 3103 
Q 1356 3103 1142 2972 
Q 928 2841 928 2578 
Q 928 2378 1081 2264 
Q 1234 2150 1697 2047 
L 1894 2003 
Q 2506 1872 2764 1633 
Q 3022 1394 3022 966 
Q 3022 478 2636 193 
Q 2250 -91 1575 -91 
Q 1294 -91 989 -36 
Q 684 19 347 128 
L 347 722 
Q 666 556 975 473 
Q 1284 391 1588 391 
Q 1994 391 2212 530 
Q 2431 669 2431 922 
Q 2431 1156 2273 1281 
Q 2116 1406 1581 1522 
L 1381 1569 
Q 847 1681 609 1914 
Q 372 2147 372 2553 
Q 372 3047 722 3315 
Q 1072 3584 1716 3584 
Q 2034 3584 2315 3537 
Q 2597 3491 2834 3397 
z
" transform="scale(0.015625)"/>
       <path id="DejaVuSans-44" d="M 2194 1759 
Q 1497 1759 1228 1600 
Q 959 1441 959 1056 
Q 959 750 1161 570 
Q 1363 391 1709 391 
Q 2188 391 2477 730 
Q 2766 1069 2766 1631 
L 2766 1759 
L 2194 1759 
z
M 3341 1997 
L 3341 0 
L 2766 0 
L 2766 531 
Q 2569 213 2275 61 
Q 1981 -91 1556 -91 
Q 1019 -91 701 211 
Q 384 513 384 1019 
Q 384 1609 779 1909 
Q 1175 2209 1959 2209 
L 2766 2209 
L 2766 2266 
Q 2766 2663 2505 2880 
Q 2244 3097 1772 3097 
Q 1472 3097 1187 3025 
Q 903 2953 641 2809 
L 641 3341 
Q 956 3463 1253 3523 
Q 1550 3584 1831 3584 
Q 2591 3584 2966 3190 
Q 3341 2797 3341 1997 
z
" transform="scale(0.015625)"/>
      </defs>
      <use xlink:href="#DejaVuSans-30"/>
      <use xlink:href="#DejaVuSans-4c" transform="translate(86.28125 0)"/>
      <use xlink:href="#DejaVuSans-46" transform="translate(114.0625 0)"/>
      <use xlink:href="#DejaVuSans-55" transform="translate(169.046875 0)"/>
      <use xlink:href="#DejaVuSans-52" transform="translate(207.953125 0)"/>
      <use xlink:href="#DejaVuSans-51" transform="translate(269.140625 0)"/>
      <use xlink:href="#DejaVuSans-48" transform="translate(332.515625 0)"/>
      <use xlink:href="#DejaVuSans-56" transform="translate(394.046875 0)"/>
      <use xlink:href="#DejaVuSans-4c" transform="translate(446.140625 0)"/>
      <use xlink:href="#DejaVuSans-44" transform="translate(473.921875 0)"/>
     </g>
    </g>
    <g id="patch_4">
     <path d="M 15.3 454.060057 
L 33.3 454.060057 
L 33.3 447.760057 
L 15.3 447.760057 
z
" style="fill: #bdc3c7; stroke: #888888; stroke-linejoin: miter"/>
    </g>
    <g id="text_3">
     <!-- Neighbors -->
     <g transform="translate(40.5 454.060057) scale(0.09 -0.09)">
      <defs>
       <path id="DejaVuSans-31" d="M 628 4666 
L 1478 4666 
L 3547 763 
L 3547 4666 
L 4159 4666 
L 4159 0 
L 3309 0 
L 1241 3903 
L 1241 0 
L 628 0 
L 628 4666 
z
" transform="scale(0.015625)"/>
       <path id="DejaVuSans-4a" d="M 2906 1791 
Q 2906 2416 2648 2759 
Q 2391 3103 1925 3103 
Q 1463 3103 1205 2759 
Q 947 2416 947 1791 
Q 947 1169 1205 825 
Q 1463 481 1925 481 
Q 2391 481 2648 825 
Q 2906 1169 2906 1791 
z
M 3481 434 
Q 3481 -459 3084 -895 
Q 2688 -1331 1869 -1331 
Q 1566 -1331 1297 -1286 
Q 1028 -1241 775 -1147 
L 775 -588 
Q 1028 -725 1275 -790 
Q 1522 -856 1778 -856 
Q 2344 -856 2625 -561 
Q 2906 -266 2906 331 
L 2906 616 
Q 2728 306 2450 153 
Q 2172 0 1784 0 
Q 1141 0 747 490 
Q 353 981 353 1791 
Q 353 2603 747 3093 
Q 1141 3584 1784 3584 
Q 2172 3584 2450 3431 
Q 2728 3278 2906 2969 
L 2906 3500 
L 3481 3500 
L 3481 434 
z
" transform="scale(0.015625)"/>
       <path id="DejaVuSans-4b" d="M 3513 2113 
L 3513 0 
L 2938 0 
L 2938 2094 
Q 2938 2591 2744 2837 
Q 2550 3084 2163 3084 
Q 1697 3084 1428 2787 
Q 1159 2491 1159 1978 
L 1159 0 
L 581 0 
L 581 4863 
L 1159 4863 
L 1159 2956 
Q 1366 3272 1645 3428 
Q 1925 3584 2291 3584 
Q 2894 3584 3203 3211 
Q 3513 2838 3513 2113 
z
" transform="scale(0.015625)"/>
       <path id="DejaVuSans-45" d="M 3116 1747 
Q 3116 2381 2855 2742 
Q 2594 3103 2138 3103 
Q 1681 3103 1420 2742 
Q 1159 2381 1159 1747 
Q 1159 1113 1420 752 
Q 1681 391 2138 391 
Q 2594 391 2855 752 
Q 3116 1113 3116 1747 
z
M 1159 2969 
Q 1341 3281 1617 3432 
Q 1894 3584 2278 3584 
Q 2916 3584 3314 3078 
Q 3713 2572 3713 1747 
Q 3713 922 3314 415 
Q 2916 -91 2278 -91 
Q 1894 -91 1617 61 
Q 1341 213 1159 525 
L 1159 0 
L 581 0 
L 581 4863 
L 1159 4863 
L 1159 2969 
z
" transform="scale(0.015625)"/>
      </defs>
      <use xlink:href="#DejaVuSans-31"/>
      <use xlink:href="#DejaVuSans-48" transform="translate(74.8125 0)"/>
      <use xlink:href="#DejaVuSans-4c" transform="translate(136.34375 0)"/>
      <use xlink:href="#DejaVuSans-4a" transform="translate(164.125 0)"/>
      <use xlink:href="#DejaVuSans-4b" transform="translate(227.609375 0)"/>
      <use xlink:href="#DejaVuSans-45" transform="translate(290.984375 0)"/>
      <use xlink:href="#DejaVuSans-52" transform="translate(354.46875 0)"/>
      <use xlink:href="#DejaVuSans-55" transform="translate(415.65625 0)"/>
      <use xlink:href="#DejaVuSans-56" transform="translate(456.765625 0)"/>
     </g>
    </g>
   </g>
  </g>
 </g>
 <defs>
  <clipPath id="p52460c82c6">
   <rect x="7.2" y="30.117344" width="856" height="434.204822"/>
  </clipPath>
 </defs>
</svg>
