<?xml version="1.0" encoding="utf-8" standalone="no"?>
<!DOCTYPE svg PUBLIC "-//W3C//DTD SVG 1.1//EN"
  "http://www.w3.org/Graphics/SVG/1.1/DTD/svg11.dtd">
<svg xmlns:xlink="http://www.w3.org/1999/xlink" width="581.794162pt" height="510.356016pt" viewBox="0 0 581.794162 510.356016" xmlns="http://www.w3.org/2000/svg" version="1.1">
 <metadata>
  <rdf:RDF xmlns:dc="http://purl.org/dc/elements/1.1/" xmlns:cc="http://creativecommons.org/ns#" xmlns:rdf="http://www.w3.org/1999/02/22-rdf-syntax-ns#">
   <cc:Work>
    <dc:type rdf:resource="http://purl.org/dc/dcmitype/StillImage"/>
    <dc:date>2026-06-19T08:14:12.121054</dc:date>
    <dc:format>image/svg+xml</dc:format>
    <dc:creator>
     <cc:Agent>
      <dc:title>Matplotlib v3.11.0, https://matplotlib.org/</dc:title>
     </cc:Agent>
    </dc:creator>
   </cc:Work>
  </rdf:RDF>
 </metadata>
 <defs>
  <style type="text/css">*{stroke-linejoin: round; stroke-linecap: butt}</style>
 </defs>
 <g id="figure_1">
  <g id="patch_1">
   <path d="M 0 510.356016 
L 581.794162 510.356016 
L 581.794162 -0 
L 0 -0 
z
" style="fill: #d6eaf8"/>
  </g>
  <g id="axes_1">
   <g id="PatchCollection_1">
    <path d="M 301.691105 318.025119 
L 302.6952 316.581605 
L 304.703391 316.004199 
L 306.209534 314.560685 
L 307.715677 314.560685 
L 308.217725 315.426793 
L 307.213629 319.17993 
L 306.711582 320.912147 
L 308.217725 320.623444 
L 311.23001 318.025119 
L 314.744344 320.623444 
L 316.250487 319.17993 
L 317.75663 319.468633 
L 318.760725 319.17993 
L 319.262773 317.15901 
L 322.777106 314.560685 
L 324.283249 315.138091 
L 325.287344 316.292902 
L 326.793487 316.004199 
L 328.801678 314.560685 
L 329.303725 313.694576 
L 330.307821 312.828468 
L 329.303725 311.384954 
L 329.303725 308.786628 
L 329.805773 305.610897 
L 331.813964 305.610897 
L 332.316011 307.054411 
L 333.320107 307.343114 
L 333.822154 309.075331 
L 334.324202 309.652737 
L 334.324202 310.518845 
L 335.328297 310.518845 
L 336.332392 312.251062 
L 335.328297 313.694576 
L 334.324202 313.983279 
L 334.324202 314.271982 
L 333.320107 315.715496 
L 330.809868 313.694576 
L 329.805773 314.560685 
L 328.801678 315.715496 
L 327.295535 316.870307 
L 325.287344 317.447713 
L 324.283249 316.292902 
L 323.279154 315.715496 
L 321.270963 316.581605 
L 320.266868 317.447713 
L 319.262773 319.468633 
L 322.777106 320.912147 
L 323.781201 322.066958 
L 323.279154 325.820095 
L 325.287344 327.263609 
L 327.797583 327.552312 
L 327.797583 330.43934 
L 326.29144 330.728043 
L 324.785297 332.171557 
L 325.789392 333.037666 
L 328.29963 332.46026 
L 332.316011 333.326369 
L 331.311916 334.769883 
L 329.805773 336.213397 
L 328.29963 336.790803 
L 325.789392 335.924694 
L 322.275058 332.171557 
L 319.76482 330.728043 
L 316.752534 330.150638 
L 317.254582 330.150638 
L 317.75663 329.861935 
L 318.258677 329.861935 
L 318.760725 329.861935 
L 318.258677 328.995826 
L 317.75663 328.707123 
L 316.752534 328.707123 
L 316.250487 328.707123 
L 315.748439 328.129718 
L 314.744344 327.841015 
L 314.242296 327.841015 
L 313.740249 328.129718 
L 314.744344 328.418421 
L 315.246392 328.707123 
L 315.246392 329.573232 
L 316.250487 329.573232 
L 316.752534 329.573232 
L 316.752534 330.150638 
L 313.740249 329.573232 
L 307.715677 329.861935 
L 305.707486 330.728043 
L 305.707486 328.129718 
L 307.213629 328.418421 
L 307.715677 326.397501 
L 305.205439 325.531392 
L 305.205439 324.665284 
L 306.209534 323.510472 
L 305.707486 322.355661 
L 303.197248 320.912147 
L 302.6952 320.334741 
L 302.193153 319.757336 
z
M 310.727963 325.242689 
L 311.23001 325.531392 
L 311.23001 325.820095 
L 311.732058 325.531392 
L 312.736153 325.242689 
L 312.736153 323.510472 
L 311.732058 323.510472 
L 311.23001 323.799175 
L 311.23001 324.376581 
z
" clip-path="url(#padd92c0a58)" style="fill: #bdc3c7; stroke: #ffffff; stroke-width: 0.5"/>
    <path d="M 106.394573 313.694576 
L 106.896621 310.518845 
L 108.402763 309.364034 
L 111.415049 311.384954 
L 115.43143 316.004199 
L 117.439621 317.736416 
L 120.451907 318.891227 
L 125.974431 318.602524 
L 130.994907 316.004199 
L 135.513336 311.962359 
L 138.525622 307.343114 
L 140.533812 302.146463 
L 142.039955 299.259435 
L 144.048146 297.527218 
L 144.550194 296.66111 
L 145.052241 296.083704 
L 145.554289 295.506298 
L 146.558384 295.795001 
L 147.562479 296.66111 
L 148.566575 296.949812 
L 150.072718 296.66111 
L 151.076813 298.393327 
L 153.085004 299.836841 
L 155.093194 300.125544 
L 156.599337 299.836841 
L 158.607528 298.393327 
L 159.611623 296.372407 
L 160.615718 294.062784 
L 164.632099 294.64019 
L 165.636195 299.259435 
L 166.64029 301.569058 
L 167.644385 303.301275 
L 170.154623 304.456086 
L 173.668957 305.610897 
L 176.681243 307.054411 
L 179.191481 308.497925 
L 180.697624 309.94144 
L 181.199671 312.251062 
L 181.199671 313.983279 
L 182.203767 315.426793 
L 183.70991 316.004199 
L 184.714005 316.004199 
L 188.228338 314.849388 
L 190.236529 313.694576 
L 190.738577 312.828468 
L 191.742672 311.096251 
L 192.746767 310.518845 
L 193.750862 311.096251 
L 194.754958 312.251062 
L 196.763148 313.694576 
L 198.771339 313.694576 
L 200.779529 312.539765 
L 203.289768 309.94144 
L 205.800006 307.343114 
L 208.310244 306.188303 
L 211.32253 304.167383 
L 212.828673 302.723869 
L 214.334816 302.435166 
L 217.849149 303.012572 
L 221.363483 303.589977 
L 224.877816 303.589977 
L 226.886007 302.723869 
L 227.890102 302.146463 
L 228.894197 300.702949 
L 231.906483 298.104624 
L 234.416721 298.104624 
L 235.922864 298.970732 
L 237.931055 299.836841 
L 239.939245 299.836841 
L 240.943341 300.414246 
L 242.951531 302.723869 
L 244.457674 304.456086 
L 246.465865 305.8996 
L 249.980198 306.765709 
L 250.984293 306.188303 
L 251.486341 305.322194 
L 251.988389 303.87868 
L 253.494532 302.723869 
L 256.506818 299.548138 
L 257.510913 299.259435 
L 260.021151 299.548138 
L 263.535485 298.970732 
L 266.045723 298.682029 
L 266.54777 299.259435 
L 266.54777 301.280355 
L 267.049818 303.87868 
L 268.053913 305.033492 
L 269.560056 306.765709 
L 271.568247 308.786628 
L 272.070294 309.94144 
L 272.070294 312.828468 
L 272.070294 315.715496 
L 272.070294 318.891227 
L 271.066199 322.933067 
L 270.062104 325.820095 
L 270.564151 328.129718 
L 272.070294 329.861935 
L 273.576437 329.861935 
L 275.584628 329.284529 
L 276.588723 326.397501 
L 277.090771 321.489553 
L 278.094866 320.912147 
L 279.098961 319.757336 
L 280.103057 318.602524 
L 281.6092 319.757336 
L 281.6092 323.799175 
L 282.111247 326.108798 
L 284.119438 326.974906 
L 286.629676 325.820095 
L 287.633771 323.510472 
L 288.637867 322.644364 
L 290.144009 322.933067 
L 292.1522 324.087878 
L 293.156295 323.799175 
L 294.160391 323.22177 
L 295.666534 323.799175 
L 297.172676 324.376581 
L 300.184962 326.108798 
L 301.691105 326.397501 
L 303.197248 326.397501 
L 305.707486 328.129718 
L 305.707486 330.728043 
L 302.6952 331.882854 
L 299.180867 335.635991 
L 298.176772 337.656911 
L 297.172676 340.543939 
L 296.168581 343.430968 
L 296.168581 346.606699 
L 296.168581 349.78243 
L 296.168581 351.225944 
L 294.662438 351.80335 
L 293.658343 352.380755 
L 293.156295 355.556486 
L 292.1522 356.422595 
L 290.144009 357.288703 
L 285.625581 357.288703 
L 283.61739 357.577406 
L 282.613295 359.02092 
L 281.107152 361.04184 
L 279.601009 362.774057 
L 277.592818 363.640165 
L 273.07439 364.506274 
L 269.058009 366.527194 
L 265.543675 367.393302 
L 263.535485 364.794977 
L 263.535485 369.702925 
L 259.519103 372.012547 
L 248.976103 374.32217 
L 246.967912 375.188278 
L 245.963817 376.054387 
L 243.955627 377.209198 
L 241.947436 377.786604 
L 231.906483 376.34309 
L 221.86553 377.786604 
L 219.85734 378.36401 
L 217.849149 379.518821 
L 211.32253 385.58158 
L 209.816387 388.468608 
L 206.804101 388.468608 
L 203.791815 389.046014 
L 202.78772 390.200825 
L 201.783625 389.62342 
L 201.281577 387.025094 
L 203.289768 385.58158 
L 203.791815 386.447689 
L 206.302053 386.447689 
L 206.302053 381.828443 
L 201.281577 381.251038 
L 199.775434 382.983255 
L 198.771339 384.715472 
L 198.269291 383.849363 
L 196.261101 382.983255 
L 195.759053 384.138066 
L 191.742672 382.983255 
L 189.232434 380.962335 
L 188.228338 379.518821 
L 188.228338 377.209198 
L 187.224243 377.497901 
L 186.220148 377.497901 
L 185.7181 377.497901 
L 184.714005 377.497901 
L 184.211957 377.209198 
L 183.70991 378.075307 
L 183.207862 378.941415 
L 182.705814 379.518821 
L 180.697624 379.807524 
L 179.693528 382.405849 
L 177.18329 381.828443 
L 175.1751 381.539741 
L 174.171004 382.694552 
L 174.673052 385.292877 
L 172.664861 385.870283 
L 167.142337 386.736392 
L 161.117766 385.58158 
L 155.595242 382.983255 
L 148.566575 378.652712 
L 146.056337 377.497901 
L 143.044051 376.631793 
L 137.019479 376.054387 
L 134.509241 375.188278 
L 132.50105 373.744764 
L 126.978526 369.125519 
L 125.974431 368.259411 
L 124.970336 363.351463 
L 124.468288 362.485354 
L 124.468288 360.753137 
L 121.456002 351.80335 
L 119.949859 350.648538 
L 116.937573 348.627618 
L 115.43143 347.184104 
L 114.427335 345.451887 
L 113.42324 343.430968 
L 113.42324 341.121345 
L 114.427335 339.100425 
L 111.917097 334.48118 
L 111.415049 332.748963 
L 111.415049 328.995826 
L 110.913002 325.820095 
L 107.900716 320.623444 
L 106.896621 318.025119 
z
" clip-path="url(#padd92c0a58)" style="fill: #bdc3c7; stroke: #ffffff; stroke-width: 0.5"/>
    <path d="M 319.262773 319.468633 
L 320.266868 317.447713 
L 321.270963 316.581605 
L 323.279154 315.715496 
L 324.283249 316.292902 
L 325.287344 317.447713 
L 327.295535 316.870307 
L 328.801678 315.715496 
L 329.805773 314.560685 
L 330.809868 313.694576 
L 333.320107 315.715496 
L 334.82625 316.292902 
L 336.332392 316.870307 
L 337.838535 317.447713 
L 339.846726 317.447713 
L 341.854916 316.292902 
L 344.365155 316.292902 
L 345.871298 317.15901 
L 347.377441 318.025119 
L 348.883583 317.736416 
L 349.887679 317.15901 
L 350.389726 316.292902 
L 352.397917 318.025119 
L 354.406108 320.334741 
L 355.91225 324.953987 
L 357.418393 328.129718 
L 359.426584 330.728043 
L 360.932727 331.882854 
L 359.426584 332.171557 
L 355.410203 331.882854 
L 351.895869 330.728043 
L 350.389726 328.995826 
L 348.883583 328.129718 
L 341.352869 329.284529 
L 334.82625 331.016746 
L 333.320107 331.882854 
L 332.316011 333.326369 
L 328.29963 332.46026 
L 325.789392 333.037666 
L 324.785297 332.171557 
L 326.29144 330.728043 
L 327.797583 330.43934 
L 327.797583 327.552312 
L 325.287344 327.263609 
L 323.279154 325.820095 
L 323.781201 322.066958 
L 322.777106 320.912147 
z
" clip-path="url(#padd92c0a58)" style="fill: #bdc3c7; stroke: #ffffff; stroke-width: 0.5"/>
    <path d="M 313.740249 328.129718 
L 314.242296 327.841015 
L 314.744344 327.841015 
L 315.748439 328.129718 
L 316.250487 328.707123 
L 316.752534 328.707123 
L 317.75663 328.707123 
L 318.258677 328.995826 
L 318.760725 329.861935 
L 318.258677 329.861935 
L 317.75663 329.861935 
L 317.254582 330.150638 
L 316.752534 330.150638 
L 316.752534 329.573232 
L 316.250487 329.573232 
L 315.246392 329.573232 
L 315.246392 328.707123 
L 314.744344 328.418421 
z
" clip-path="url(#padd92c0a58)" style="fill: #bdc3c7; stroke: #ffffff; stroke-width: 0.5"/>
    <path d="M 310.727963 325.242689 
L 311.23001 324.376581 
L 311.23001 323.799175 
L 311.732058 323.510472 
L 312.736153 323.510472 
L 312.736153 325.242689 
L 311.732058 325.531392 
L 311.23001 325.820095 
L 311.23001 325.531392 
z
" clip-path="url(#padd92c0a58)" style="fill: #bdc3c7; stroke: #ffffff; stroke-width: 0.5"/>
    <path d="M 164.632099 294.64019 
L 167.644385 294.928893 
L 167.644385 296.083704 
L 167.644385 298.104624 
L 168.64848 299.836841 
L 170.154623 301.569058 
L 172.162814 302.435166 
L 174.171004 303.301275 
L 179.191481 304.456086 
L 181.701719 306.188303 
L 184.211957 308.786628 
L 185.216053 312.251062 
L 187.726291 312.539765 
L 188.228338 311.096251 
L 189.734481 309.364034 
L 190.738577 308.786628 
L 192.244719 308.497925 
L 195.759053 308.786628 
L 197.265196 309.075331 
L 198.771339 308.786628 
L 200.277482 308.497925 
L 203.791815 306.765709 
L 206.302053 303.589977 
L 209.816387 301.85776 
L 212.326625 300.414246 
L 215.840959 299.548138 
L 218.853244 297.815921 
L 221.363483 296.949812 
L 222.869626 298.970732 
L 224.375769 298.682029 
L 227.890102 295.217595 
L 229.898293 294.351487 
L 234.416721 293.485379 
L 238.93515 295.506298 
L 241.445388 296.66111 
L 245.461769 297.238515 
L 249.478151 298.104624 
L 251.988389 298.393327 
L 253.494532 297.527218 
L 256.00477 297.527218 
L 260.021151 296.372407 
L 261.025246 295.506298 
L 262.029342 293.774081 
L 263.535485 292.330567 
L 265.543675 292.041864 
L 266.54777 292.907973 
L 267.049818 294.928893 
L 267.551866 297.238515 
L 269.058009 300.702949 
L 270.564151 303.589977 
L 273.576437 308.209223 
L 274.580533 309.94144 
L 274.580533 312.828468 
L 274.580533 316.292902 
L 273.576437 319.468633 
L 272.572342 323.510472 
L 273.07439 325.242689 
L 274.580533 325.531392 
L 274.580533 324.665284 
L 274.580533 322.933067 
L 275.08258 320.623444 
L 275.584628 319.468633 
L 276.588723 316.292902 
L 277.592818 315.715496 
L 278.596914 315.715496 
L 280.103057 315.715496 
L 281.6092 316.581605 
L 282.613295 316.292902 
L 282.613295 314.560685 
L 283.115343 313.694576 
L 284.119438 313.694576 
L 285.123533 314.560685 
L 286.127628 316.004199 
L 286.629676 318.602524 
L 288.637867 320.046039 
L 290.144009 320.334741 
L 291.650152 318.891227 
L 293.658343 318.025119 
L 296.670629 320.912147 
L 298.678819 320.912147 
L 299.180867 320.623444 
L 301.189058 320.912147 
L 302.6952 320.334741 
L 303.197248 320.912147 
L 305.707486 322.355661 
L 306.209534 323.510472 
L 305.205439 324.665284 
L 305.205439 325.531392 
L 307.715677 326.397501 
L 307.213629 328.418421 
L 305.707486 328.129718 
L 303.197248 326.397501 
L 301.691105 326.397501 
L 300.184962 326.108798 
L 297.172676 324.376581 
L 295.666534 323.799175 
L 294.160391 323.22177 
L 293.156295 323.799175 
L 292.1522 324.087878 
L 290.144009 322.933067 
L 288.637867 322.644364 
L 287.633771 323.510472 
L 286.629676 325.820095 
L 284.119438 326.974906 
L 282.111247 326.108798 
L 281.6092 323.799175 
L 281.6092 319.757336 
L 280.103057 318.602524 
L 279.098961 319.757336 
L 278.094866 320.912147 
L 277.090771 321.489553 
L 276.588723 326.397501 
L 275.584628 329.284529 
L 273.576437 329.861935 
L 272.070294 329.861935 
L 270.564151 328.129718 
L 270.062104 325.820095 
L 271.066199 322.933067 
L 272.070294 318.891227 
L 272.070294 315.715496 
L 272.070294 312.828468 
L 272.070294 309.94144 
L 271.568247 308.786628 
L 269.560056 306.765709 
L 268.053913 305.033492 
L 267.049818 303.87868 
L 266.54777 301.280355 
L 266.54777 299.259435 
L 266.045723 298.682029 
L 263.535485 298.970732 
L 260.021151 299.548138 
L 257.510913 299.259435 
L 256.506818 299.548138 
L 253.494532 302.723869 
L 251.988389 303.87868 
L 251.486341 305.322194 
L 250.984293 306.188303 
L 249.980198 306.765709 
L 246.465865 305.8996 
L 244.457674 304.456086 
L 242.951531 302.723869 
L 240.943341 300.414246 
L 239.939245 299.836841 
L 237.931055 299.836841 
L 235.922864 298.970732 
L 234.416721 298.104624 
L 231.906483 298.104624 
L 228.894197 300.702949 
L 227.890102 302.146463 
L 226.886007 302.723869 
L 224.877816 303.589977 
L 221.363483 303.589977 
L 217.849149 303.012572 
L 214.334816 302.435166 
L 212.828673 302.723869 
L 211.32253 304.167383 
L 208.310244 306.188303 
L 205.800006 307.343114 
L 203.289768 309.94144 
L 200.779529 312.539765 
L 198.771339 313.694576 
L 196.763148 313.694576 
L 194.754958 312.251062 
L 193.750862 311.096251 
L 192.746767 310.518845 
L 191.742672 311.096251 
L 190.738577 312.828468 
L 190.236529 313.694576 
L 188.228338 314.849388 
L 184.714005 316.004199 
L 183.70991 316.004199 
L 182.203767 315.426793 
L 181.199671 313.983279 
L 181.199671 312.251062 
L 180.697624 309.94144 
L 179.191481 308.497925 
L 176.681243 307.054411 
L 173.668957 305.610897 
L 170.154623 304.456086 
L 167.644385 303.301275 
L 166.64029 301.569058 
L 165.636195 299.259435 
z
" clip-path="url(#padd92c0a58)" style="fill: #bdc3c7; stroke: #ffffff; stroke-width: 0.5"/>
    <path d="M 333.320107 315.715496 
L 334.324202 314.271982 
L 335.328297 314.849388 
L 336.83444 315.426793 
L 338.842631 315.715496 
L 342.356964 314.271982 
L 348.381536 315.715496 
L 348.883583 315.138091 
L 350.389726 316.292902 
L 349.887679 317.15901 
L 348.883583 317.736416 
L 347.377441 318.025119 
L 345.871298 317.15901 
L 344.365155 316.292902 
L 341.854916 316.292902 
L 339.846726 317.447713 
L 337.838535 317.447713 
L 336.332392 316.870307 
L 334.82625 316.292902 
z
" clip-path="url(#padd92c0a58)" style="fill: #bdc3c7; stroke: #ffffff; stroke-width: 0.5"/>
    <path d="M 150.072718 296.66111 
L 152.080908 295.506298 
L 152.582956 296.372407 
L 154.089099 298.104624 
L 155.595242 297.815921 
L 157.101385 296.372407 
L 157.603432 294.64019 
L 157.603432 294.062784 
L 159.109575 293.774081 
L 160.615718 294.062784 
L 159.611623 296.372407 
L 158.607528 298.393327 
L 156.599337 299.836841 
L 155.093194 300.125544 
L 153.085004 299.836841 
L 151.076813 298.393327 
z
" clip-path="url(#padd92c0a58)" style="fill: #bdc3c7; stroke: #ffffff; stroke-width: 0.5"/>
   </g>
   <g id="PatchCollection_2">
    <path d="M 167.644385 298.104624 
L 167.644385 296.083704 
L 167.644385 294.928893 
L 172.162814 295.506298 
L 176.681243 296.949812 
L 180.195576 299.259435 
L 183.70991 300.702949 
L 189.232434 299.259435 
L 192.746767 296.083704 
L 195.759053 291.753162 
L 197.767244 286.267808 
L 198.771339 279.916346 
L 198.771339 268.368233 
L 198.269291 263.460285 
L 196.763148 257.974931 
L 200.277482 258.552336 
L 205.800006 262.01677 
L 208.812292 262.882879 
L 217.347102 264.615096 
L 227.388054 264.03769 
L 244.457674 266.347313 
L 246.967912 267.502124 
L 267.551866 269.811747 
L 299.682915 264.615096 
L 311.23001 257.974931 
L 317.254582 254.7992 
L 324.283249 255.954011 
L 331.813964 253.644388 
L 352.397917 245.560709 
L 357.920441 241.51887 
L 365.451156 238.631841 
L 372.479823 231.414271 
L 376.496204 230.548162 
L 384.528966 228.23854 
L 392.059681 225.928917 
L 397.582205 222.17578 
L 423.186634 210.050262 
L 428.207111 208.029342 
L 429.713254 207.740639 
L 429.211206 208.318045 
L 428.709158 208.89545 
L 428.207111 209.472856 
L 428.207111 210.050262 
L 427.705063 214.95821 
L 427.203015 216.113021 
L 426.19892 216.401724 
L 422.684587 216.979129 
L 422.182539 217.556535 
L 408.627253 226.21762 
L 396.578109 236.899624 
L 366.455251 255.087903 
L 362.43887 258.552336 
L 359.426584 262.882879 
L 356.916346 268.368233 
L 355.410203 270.677855 
L 353.402012 272.121369 
L 349.887679 272.410072 
L 346.373345 271.543964 
L 343.361059 271.255261 
L 340.348774 272.698775 
L 336.83444 278.472832 
L 334.82625 281.648563 
L 334.324202 284.535591 
L 333.320107 297.815921 
L 335.328297 299.259435 
L 340.850821 305.033492 
L 341.854916 306.765709 
L 342.859012 309.075331 
L 344.365155 311.096251 
L 348.883583 315.138091 
L 348.381536 315.715496 
L 342.356964 314.271982 
L 338.842631 315.715496 
L 336.83444 315.426793 
L 335.328297 314.849388 
L 334.324202 314.271982 
L 334.324202 313.983279 
L 335.328297 313.694576 
L 336.332392 312.251062 
L 335.328297 310.518845 
L 334.324202 310.518845 
L 334.324202 309.652737 
L 333.822154 309.075331 
L 333.320107 307.343114 
L 332.316011 307.054411 
L 331.813964 305.610897 
L 329.805773 305.610897 
L 329.303725 308.786628 
L 329.303725 311.384954 
L 330.307821 312.828468 
L 329.303725 313.694576 
L 328.801678 314.560685 
L 326.793487 316.004199 
L 325.287344 316.292902 
L 324.283249 315.138091 
L 322.777106 314.560685 
L 319.262773 317.15901 
L 318.760725 319.17993 
L 317.75663 319.468633 
L 316.250487 319.17993 
L 314.744344 320.623444 
L 311.23001 318.025119 
L 308.217725 320.623444 
L 306.711582 320.912147 
L 307.213629 319.17993 
L 308.217725 315.426793 
L 307.715677 314.560685 
L 306.209534 314.560685 
L 304.703391 316.004199 
L 302.6952 316.581605 
L 301.691105 318.025119 
L 302.193153 319.757336 
L 302.6952 320.334741 
L 301.189058 320.912147 
L 299.180867 320.623444 
L 298.678819 320.912147 
L 296.670629 320.912147 
L 293.658343 318.025119 
L 291.650152 318.891227 
L 290.144009 320.334741 
L 288.637867 320.046039 
L 286.629676 318.602524 
L 286.127628 316.004199 
L 285.123533 314.560685 
L 284.119438 313.694576 
L 283.115343 313.694576 
L 282.613295 314.560685 
L 282.613295 316.292902 
L 281.6092 316.581605 
L 280.103057 315.715496 
L 278.596914 315.715496 
L 277.592818 315.715496 
L 276.588723 316.292902 
L 275.584628 319.468633 
L 275.08258 320.623444 
L 274.580533 322.933067 
L 274.580533 324.665284 
L 274.580533 325.531392 
L 273.07439 325.242689 
L 272.572342 323.510472 
L 273.576437 319.468633 
L 274.580533 316.292902 
L 274.580533 312.828468 
L 274.580533 309.94144 
L 273.576437 308.209223 
L 270.564151 303.589977 
L 269.058009 300.702949 
L 267.551866 297.238515 
L 267.049818 294.928893 
L 266.54777 292.907973 
L 265.543675 292.041864 
L 263.535485 292.330567 
L 262.029342 293.774081 
L 261.025246 295.506298 
L 260.021151 296.372407 
L 256.00477 297.527218 
L 253.494532 297.527218 
L 251.988389 298.393327 
L 249.478151 298.104624 
L 245.461769 297.238515 
L 241.445388 296.66111 
L 238.93515 295.506298 
L 234.416721 293.485379 
L 229.898293 294.351487 
L 227.890102 295.217595 
L 224.375769 298.682029 
L 222.869626 298.970732 
L 221.363483 296.949812 
L 218.853244 297.815921 
L 215.840959 299.548138 
L 212.326625 300.414246 
L 209.816387 301.85776 
L 206.302053 303.589977 
L 203.791815 306.765709 
L 200.277482 308.497925 
L 198.771339 308.786628 
L 197.265196 309.075331 
L 195.759053 308.786628 
L 192.244719 308.497925 
L 190.738577 308.786628 
L 189.734481 309.364034 
L 188.228338 311.096251 
L 187.726291 312.539765 
L 185.216053 312.251062 
L 184.211957 308.786628 
L 181.701719 306.188303 
L 179.191481 304.456086 
L 174.171004 303.301275 
L 172.162814 302.435166 
L 170.154623 301.569058 
L 168.64848 299.836841 
z
" clip-path="url(#padd92c0a58)" style="fill: #e74c3c; stroke: #ffffff; stroke-width: 0.6"/>
    <path d="M 152.080908 295.506298 
L 154.591146 294.351487 
L 157.603432 294.062784 
L 157.603432 294.64019 
L 157.101385 296.372407 
L 155.595242 297.815921 
L 154.089099 298.104624 
L 152.582956 296.372407 
z
" clip-path="url(#padd92c0a58)" style="fill: #e74c3c; stroke: #ffffff; stroke-width: 0.6"/>
   </g>
   <g id="text_1">
    <g id="patch_2">
     <path d="M 296.600092 326.389826 
L 330.880405 326.389826 
Q 332.280405 326.389826 332.280405 324.989826 
L 332.280405 317.989279 
Q 332.280405 316.589279 330.880405 316.589279 
L 296.600092 316.589279 
Q 295.200092 316.589279 295.200092 317.989279 
L 295.200092 324.989826 
Q 295.200092 326.389826 296.600092 326.389826 
z
" clip-path="url(#padd92c0a58)" style="fill: #ffffff; opacity: 0.6"/>
    </g>
    <g clip-path="url(#padd92c0a58)">
     <!-- Dhekelia -->
     <g style="fill: #1a252f" transform="translate(296.600092 323.308186) scale(0.07 -0.07)">
      <defs>
       <path id="DejaVuSans-Bold-27" d="M 1791 3756 
L 1791 909 
L 2222 909 
Q 2959 909 3348 1275 
Q 3738 1641 3738 2338 
Q 3738 3031 3350 3393 
Q 2963 3756 2222 3756 
L 1791 3756 
z
M 588 4666 
L 1856 4666 
Q 2919 4666 3439 4514 
Q 3959 4363 4331 4000 
Q 4659 3684 4818 3271 
Q 4978 2859 4978 2338 
Q 4978 1809 4818 1395 
Q 4659 981 4331 666 
Q 3956 303 3431 151 
Q 2906 0 1856 0 
L 588 0 
L 588 4666 
z
" transform="scale(0.015625)"/>
       <path id="DejaVuSans-Bold-4b" d="M 4056 2131 
L 4056 0 
L 2931 0 
L 2931 347 
L 2931 1625 
Q 2931 2084 2911 2256 
Q 2891 2428 2841 2509 
Q 2775 2619 2662 2680 
Q 2550 2741 2406 2741 
Q 2056 2741 1856 2470 
Q 1656 2200 1656 1722 
L 1656 0 
L 538 0 
L 538 4863 
L 1656 4863 
L 1656 2988 
Q 1909 3294 2193 3439 
Q 2478 3584 2822 3584 
Q 3428 3584 3742 3212 
Q 4056 2841 4056 2131 
z
" transform="scale(0.015625)"/>
       <path id="DejaVuSans-Bold-48" d="M 4031 1759 
L 4031 1441 
L 1416 1441 
Q 1456 1047 1700 850 
Q 1944 653 2381 653 
Q 2734 653 3104 758 
Q 3475 863 3866 1075 
L 3866 213 
Q 3469 63 3072 -14 
Q 2675 -91 2278 -91 
Q 1328 -91 801 392 
Q 275 875 275 1747 
Q 275 2603 792 3093 
Q 1309 3584 2216 3584 
Q 3041 3584 3536 3087 
Q 4031 2591 4031 1759 
z
M 2881 2131 
Q 2881 2450 2695 2645 
Q 2509 2841 2209 2841 
Q 1884 2841 1681 2658 
Q 1478 2475 1428 2131 
L 2881 2131 
z
" transform="scale(0.015625)"/>
       <path id="DejaVuSans-Bold-4e" d="M 538 4863 
L 1656 4863 
L 1656 2216 
L 2944 3500 
L 4244 3500 
L 2534 1894 
L 4378 0 
L 3022 0 
L 1656 1459 
L 1656 0 
L 538 0 
L 538 4863 
z
" transform="scale(0.015625)"/>
       <path id="DejaVuSans-Bold-4f" d="M 538 4863 
L 1656 4863 
L 1656 0 
L 538 0 
L 538 4863 
z
" transform="scale(0.015625)"/>
       <path id="DejaVuSans-Bold-4c" d="M 538 3500 
L 1656 3500 
L 1656 0 
L 538 0 
L 538 3500 
z
M 538 4863 
L 1656 4863 
L 1656 3950 
L 538 3950 
L 538 4863 
z
" transform="scale(0.015625)"/>
       <path id="DejaVuSans-Bold-44" d="M 2106 1575 
Q 1756 1575 1579 1456 
Q 1403 1338 1403 1106 
Q 1403 894 1545 773 
Q 1688 653 1941 653 
Q 2256 653 2472 879 
Q 2688 1106 2688 1447 
L 2688 1575 
L 2106 1575 
z
M 3816 1997 
L 3816 0 
L 2688 0 
L 2688 519 
Q 2463 200 2181 54 
Q 1900 -91 1497 -91 
Q 953 -91 614 226 
Q 275 544 275 1050 
Q 275 1666 698 1953 
Q 1122 2241 2028 2241 
L 2688 2241 
L 2688 2328 
Q 2688 2594 2478 2717 
Q 2269 2841 1825 2841 
Q 1466 2841 1156 2769 
Q 847 2697 581 2553 
L 581 3406 
Q 941 3494 1303 3539 
Q 1666 3584 2028 3584 
Q 2975 3584 3395 3211 
Q 3816 2838 3816 1997 
z
" transform="scale(0.015625)"/>
      </defs>
      <use xlink:href="#DejaVuSans-Bold-27"/>
      <use xlink:href="#DejaVuSans-Bold-4b" transform="translate(83.015625 0)"/>
      <use xlink:href="#DejaVuSans-Bold-48" transform="translate(154.203125 0)"/>
      <use xlink:href="#DejaVuSans-Bold-4e" transform="translate(222.03125 0)"/>
      <use xlink:href="#DejaVuSans-Bold-48" transform="translate(285.84375 0)"/>
      <use xlink:href="#DejaVuSans-Bold-4f" transform="translate(353.671875 0)"/>
      <use xlink:href="#DejaVuSans-Bold-4c" transform="translate(387.953125 0)"/>
      <use xlink:href="#DejaVuSans-Bold-44" transform="translate(422.234375 0)"/>
     </g>
    </g>
   </g>
   <g id="text_2">
    <g id="patch_3">
     <path d="M 191.340714 347.176156 
L 218.652745 347.176156 
Q 220.052745 347.176156 220.052745 345.776156 
L 220.052745 338.776156 
Q 220.052745 337.376156 218.652745 337.376156 
L 191.340714 337.376156 
Q 189.940714 337.376156 189.940714 338.776156 
L 189.940714 345.776156 
Q 189.940714 347.176156 191.340714 347.176156 
z
" clip-path="url(#padd92c0a58)" style="fill: #ffffff; opacity: 0.6"/>
    </g>
    <g clip-path="url(#padd92c0a58)">
     <!-- Cyprus -->
     <g style="fill: #1a252f" transform="translate(191.340714 344.094516) scale(0.07 -0.07)">
      <defs>
       <path id="DejaVuSans-Bold-26" d="M 4288 256 
Q 3956 84 3597 -3 
Q 3238 -91 2847 -91 
Q 1681 -91 1000 561 
Q 319 1213 319 2328 
Q 319 3447 1000 4098 
Q 1681 4750 2847 4750 
Q 3238 4750 3597 4662 
Q 3956 4575 4288 4403 
L 4288 3438 
Q 3953 3666 3628 3772 
Q 3303 3878 2944 3878 
Q 2300 3878 1931 3465 
Q 1563 3053 1563 2328 
Q 1563 1606 1931 1193 
Q 2300 781 2944 781 
Q 3303 781 3628 887 
Q 3953 994 4288 1222 
L 4288 256 
z
" transform="scale(0.015625)"/>
       <path id="DejaVuSans-Bold-5c" d="M 78 3500 
L 1197 3500 
L 2138 1125 
L 2938 3500 
L 4056 3500 
L 2584 -331 
Q 2363 -916 2067 -1148 
Q 1772 -1381 1288 -1381 
L 641 -1381 
L 641 -647 
L 991 -647 
Q 1275 -647 1404 -556 
Q 1534 -466 1606 -231 
L 1638 -134 
L 78 3500 
z
" transform="scale(0.015625)"/>
       <path id="DejaVuSans-Bold-53" d="M 1656 506 
L 1656 -1331 
L 538 -1331 
L 538 3500 
L 1656 3500 
L 1656 2988 
Q 1888 3294 2169 3439 
Q 2450 3584 2816 3584 
Q 3463 3584 3878 3070 
Q 4294 2556 4294 1747 
Q 4294 938 3878 423 
Q 3463 -91 2816 -91 
Q 2450 -91 2169 54 
Q 1888 200 1656 506 
z
M 2400 2772 
Q 2041 2772 1848 2508 
Q 1656 2244 1656 1747 
Q 1656 1250 1848 986 
Q 2041 722 2400 722 
Q 2759 722 2948 984 
Q 3138 1247 3138 1747 
Q 3138 2247 2948 2509 
Q 2759 2772 2400 2772 
z
" transform="scale(0.015625)"/>
       <path id="DejaVuSans-Bold-55" d="M 3138 2547 
Q 2991 2616 2845 2648 
Q 2700 2681 2553 2681 
Q 2122 2681 1889 2404 
Q 1656 2128 1656 1613 
L 1656 0 
L 538 0 
L 538 3500 
L 1656 3500 
L 1656 2925 
Q 1872 3269 2151 3426 
Q 2431 3584 2822 3584 
Q 2878 3584 2943 3579 
Q 3009 3575 3134 3559 
L 3138 2547 
z
" transform="scale(0.015625)"/>
       <path id="DejaVuSans-Bold-58" d="M 500 1363 
L 500 3500 
L 1625 3500 
L 1625 3150 
Q 1625 2866 1622 2436 
Q 1619 2006 1619 1863 
Q 1619 1441 1641 1255 
Q 1663 1069 1716 984 
Q 1784 875 1895 815 
Q 2006 756 2150 756 
Q 2500 756 2700 1025 
Q 2900 1294 2900 1772 
L 2900 3500 
L 4019 3500 
L 4019 0 
L 2900 0 
L 2900 506 
Q 2647 200 2364 54 
Q 2081 -91 1741 -91 
Q 1134 -91 817 281 
Q 500 653 500 1363 
z
" transform="scale(0.015625)"/>
       <path id="DejaVuSans-Bold-56" d="M 3272 3391 
L 3272 2541 
Q 2913 2691 2578 2766 
Q 2244 2841 1947 2841 
Q 1628 2841 1473 2761 
Q 1319 2681 1319 2516 
Q 1319 2381 1436 2309 
Q 1553 2238 1856 2203 
L 2053 2175 
Q 2913 2066 3209 1816 
Q 3506 1566 3506 1031 
Q 3506 472 3093 190 
Q 2681 -91 1863 -91 
Q 1516 -91 1145 -36 
Q 775 19 384 128 
L 384 978 
Q 719 816 1070 734 
Q 1422 653 1784 653 
Q 2113 653 2278 743 
Q 2444 834 2444 1013 
Q 2444 1163 2330 1236 
Q 2216 1309 1875 1350 
L 1678 1375 
Q 931 1469 631 1722 
Q 331 1975 331 2491 
Q 331 3047 712 3315 
Q 1094 3584 1881 3584 
Q 2191 3584 2531 3537 
Q 2872 3491 3272 3391 
z
" transform="scale(0.015625)"/>
      </defs>
      <use xlink:href="#DejaVuSans-Bold-26"/>
      <use xlink:href="#DejaVuSans-Bold-5c" transform="translate(73.390625 0)"/>
      <use xlink:href="#DejaVuSans-Bold-53" transform="translate(138.578125 0)"/>
      <use xlink:href="#DejaVuSans-Bold-55" transform="translate(210.15625 0)"/>
      <use xlink:href="#DejaVuSans-Bold-58" transform="translate(259.46875 0)"/>
      <use xlink:href="#DejaVuSans-Bold-56" transform="translate(330.65625 0)"/>
     </g>
    </g>
   </g>
   <g id="text_3">
    <g id="patch_4">
     <path d="M 294.399434 320.904472 
L 389.686934 320.904472 
Q 391.086934 320.904472 391.086934 319.504472 
L 391.086934 312.503926 
Q 391.086934 311.103926 389.686934 311.103926 
L 294.399434 311.103926 
Q 292.999434 311.103926 292.999434 312.503926 
L 292.999434 319.504472 
Q 292.999434 320.904472 294.399434 320.904472 
z
" clip-path="url(#padd92c0a58)" style="fill: #ffffff; opacity: 0.6"/>
    </g>
    <g clip-path="url(#padd92c0a58)">
     <!-- Cyprus U.N. Buffer Zone -->
     <g style="fill: #1a252f" transform="translate(294.399434 317.822832) scale(0.07 -0.07)">
      <defs>
       <path id="DejaVuSans-Bold-3" transform="scale(0.015625)"/>
       <path id="DejaVuSans-Bold-38" d="M 588 4666 
L 1791 4666 
L 1791 1869 
Q 1791 1291 1980 1042 
Q 2169 794 2597 794 
Q 3028 794 3217 1042 
Q 3406 1291 3406 1869 
L 3406 4666 
L 4609 4666 
L 4609 1869 
Q 4609 878 4112 393 
Q 3616 -91 2597 -91 
Q 1581 -91 1084 393 
Q 588 878 588 1869 
L 588 4666 
z
" transform="scale(0.015625)"/>
       <path id="DejaVuSans-Bold-11" d="M 653 1209 
L 1778 1209 
L 1778 0 
L 653 0 
L 653 1209 
z
" transform="scale(0.015625)"/>
       <path id="DejaVuSans-Bold-31" d="M 588 4666 
L 1931 4666 
L 3628 1466 
L 3628 4666 
L 4769 4666 
L 4769 0 
L 3425 0 
L 1728 3200 
L 1728 0 
L 588 0 
L 588 4666 
z
" transform="scale(0.015625)"/>
       <path id="DejaVuSans-Bold-25" d="M 2456 2859 
Q 2741 2859 2887 2984 
Q 3034 3109 3034 3353 
Q 3034 3594 2887 3720 
Q 2741 3847 2456 3847 
L 1791 3847 
L 1791 2859 
L 2456 2859 
z
M 2497 819 
Q 2859 819 3042 972 
Q 3225 1125 3225 1434 
Q 3225 1738 3044 1889 
Q 2863 2041 2497 2041 
L 1791 2041 
L 1791 819 
L 2497 819 
z
M 3616 2497 
Q 4003 2384 4215 2081 
Q 4428 1778 4428 1338 
Q 4428 663 3972 331 
Q 3516 0 2584 0 
L 588 0 
L 588 4666 
L 2394 4666 
Q 3366 4666 3802 4372 
Q 4238 4078 4238 3431 
Q 4238 3091 4078 2852 
Q 3919 2613 3616 2497 
z
" transform="scale(0.015625)"/>
       <path id="DejaVuSans-Bold-13aa" d="M 2841 4863 
L 2841 4128 
L 2222 4128 
Q 1984 4128 1891 4044 
Q 1797 3956 1797 3744 
L 1797 3500 
L 3078 3500 
L 3078 3744 
Q 3078 4316 3397 4588 
Q 3716 4863 4384 4863 
L 5241 4863 
L 5241 4128 
L 4622 4128 
Q 4384 4128 4291 4044 
Q 4197 3956 4197 3744 
L 4197 3500 
L 5153 3500 
L 5153 2700 
L 4197 2700 
L 4197 0 
L 3078 0 
L 3078 2700 
L 1797 2700 
L 1797 0 
L 678 0 
L 678 2700 
L 122 2700 
L 122 3500 
L 678 3500 
L 678 3744 
Q 678 4316 997 4588 
Q 1316 4863 1984 4863 
L 2841 4863 
z
" transform="scale(0.015625)"/>
       <path id="DejaVuSans-Bold-3d" d="M 359 4666 
L 4281 4666 
L 4281 3938 
L 1778 909 
L 4353 909 
L 4353 0 
L 288 0 
L 288 728 
L 2791 3756 
L 359 3756 
L 359 4666 
z
" transform="scale(0.015625)"/>
       <path id="DejaVuSans-Bold-52" d="M 2203 2784 
Q 1831 2784 1636 2517 
Q 1441 2250 1441 1747 
Q 1441 1244 1636 976 
Q 1831 709 2203 709 
Q 2569 709 2762 976 
Q 2956 1244 2956 1747 
Q 2956 2250 2762 2517 
Q 2569 2784 2203 2784 
z
M 2203 3584 
Q 3106 3584 3614 3096 
Q 4122 2609 4122 1747 
Q 4122 884 3614 396 
Q 3106 -91 2203 -91 
Q 1297 -91 786 396 
Q 275 884 275 1747 
Q 275 2609 786 3096 
Q 1297 3584 2203 3584 
z
" transform="scale(0.015625)"/>
       <path id="DejaVuSans-Bold-51" d="M 4056 2131 
L 4056 0 
L 2931 0 
L 2931 347 
L 2931 1631 
Q 2931 2084 2911 2256 
Q 2891 2428 2841 2509 
Q 2775 2619 2662 2680 
Q 2550 2741 2406 2741 
Q 2056 2741 1856 2470 
Q 1656 2200 1656 1722 
L 1656 0 
L 538 0 
L 538 3500 
L 1656 3500 
L 1656 2988 
Q 1909 3294 2193 3439 
Q 2478 3584 2822 3584 
Q 3428 3584 3742 3212 
Q 4056 2841 4056 2131 
z
" transform="scale(0.015625)"/>
      </defs>
      <use xlink:href="#DejaVuSans-Bold-26"/>
      <use xlink:href="#DejaVuSans-Bold-5c" transform="translate(73.390625 0)"/>
      <use xlink:href="#DejaVuSans-Bold-53" transform="translate(138.578125 0)"/>
      <use xlink:href="#DejaVuSans-Bold-55" transform="translate(210.15625 0)"/>
      <use xlink:href="#DejaVuSans-Bold-58" transform="translate(259.46875 0)"/>
      <use xlink:href="#DejaVuSans-Bold-56" transform="translate(330.65625 0)"/>
      <use xlink:href="#DejaVuSans-Bold-3" transform="translate(390.171875 0)"/>
      <use xlink:href="#DejaVuSans-Bold-38" transform="translate(424.984375 0)"/>
      <use xlink:href="#DejaVuSans-Bold-11" transform="translate(506.1875 0)"/>
      <use xlink:href="#DejaVuSans-Bold-31" transform="translate(544.171875 0)"/>
      <use xlink:href="#DejaVuSans-Bold-11" transform="translate(627.859375 0)"/>
      <use xlink:href="#DejaVuSans-Bold-3" transform="translate(665.84375 0)"/>
      <use xlink:href="#DejaVuSans-Bold-25" transform="translate(700.65625 0)"/>
      <use xlink:href="#DejaVuSans-Bold-58" transform="translate(776.875 0)"/>
      <use xlink:href="#DejaVuSans-Bold-13aa" transform="translate(848.0625 0)"/>
      <use xlink:href="#DejaVuSans-Bold-48" transform="translate(929.0625 0)"/>
      <use xlink:href="#DejaVuSans-Bold-55" transform="translate(996.890625 0)"/>
      <use xlink:href="#DejaVuSans-Bold-3" transform="translate(1046.203125 0)"/>
      <use xlink:href="#DejaVuSans-Bold-3d" transform="translate(1081.015625 0)"/>
      <use xlink:href="#DejaVuSans-Bold-52" transform="translate(1153.53125 0)"/>
      <use xlink:href="#DejaVuSans-Bold-51" transform="translate(1222.234375 0)"/>
      <use xlink:href="#DejaVuSans-Bold-48" transform="translate(1293.421875 0)"/>
     </g>
    </g>
   </g>
   <g id="text_4">
    <!-- N. Cyprus -->
    <g style="fill: #1a252f" transform="translate(244.4313 20.116016) scale(0.17 -0.17)">
     <use xlink:href="#DejaVuSans-Bold-31"/>
     <use xlink:href="#DejaVuSans-Bold-11" transform="translate(83.6875 0)"/>
     <use xlink:href="#DejaVuSans-Bold-3" transform="translate(121.671875 0)"/>
     <use xlink:href="#DejaVuSans-Bold-26" transform="translate(156.484375 0)"/>
     <use xlink:href="#DejaVuSans-Bold-5c" transform="translate(229.875 0)"/>
     <use xlink:href="#DejaVuSans-Bold-53" transform="translate(295.0625 0)"/>
     <use xlink:href="#DejaVuSans-Bold-55" transform="translate(366.640625 0)"/>
     <use xlink:href="#DejaVuSans-Bold-58" transform="translate(415.953125 0)"/>
     <use xlink:href="#DejaVuSans-Bold-56" transform="translate(487.140625 0)"/>
    </g>
   </g>
   <g id="legend_1">
    <g id="patch_5">
     <path d="M 13.5 498.656016 
L 88.097344 498.656016 
Q 89.897344 498.656016 89.897344 496.856016 
L 89.897344 470.754609 
Q 89.897344 468.954609 88.097344 468.954609 
L 13.5 468.954609 
Q 11.7 468.954609 11.7 470.754609 
L 11.7 496.856016 
Q 11.7 498.656016 13.5 498.656016 
z
" style="fill: #ffffff; opacity: 0.85; stroke: #cccccc; stroke-linejoin: miter"/>
    </g>
    <g id="patch_6">
     <path d="M 15.3 479.393203 
L 33.3 479.393203 
L 33.3 473.093203 
L 15.3 473.093203 
z
" style="fill: #e74c3c; stroke: #888888; stroke-linejoin: miter"/>
    </g>
    <g id="text_5">
     <!-- N. Cyprus -->
     <g transform="translate(40.5 479.393203) scale(0.09 -0.09)">
      <defs>
       <path id="DejaVuSans-31" d="M 628 4666 
L 1478 4666 
L 3547 763 
L 3547 4666 
L 4159 4666 
L 4159 0 
L 3309 0 
L 1241 3903 
L 1241 0 
L 628 0 
L 628 4666 
z
" transform="scale(0.015625)"/>
       <path id="DejaVuSans-11" d="M 684 794 
L 1344 794 
L 1344 0 
L 684 0 
L 684 794 
z
" transform="scale(0.015625)"/>
       <path id="DejaVuSans-3" transform="scale(0.015625)"/>
       <path id="DejaVuSans-26" d="M 4122 4306 
L 4122 3641 
Q 3803 3938 3442 4084 
Q 3081 4231 2675 4231 
Q 1875 4231 1450 3742 
Q 1025 3253 1025 2328 
Q 1025 1406 1450 917 
Q 1875 428 2675 428 
Q 3081 428 3442 575 
Q 3803 722 4122 1019 
L 4122 359 
Q 3791 134 3420 21 
Q 3050 -91 2638 -91 
Q 1578 -91 968 557 
Q 359 1206 359 2328 
Q 359 3453 968 4101 
Q 1578 4750 2638 4750 
Q 3056 4750 3426 4639 
Q 3797 4528 4122 4306 
z
" transform="scale(0.015625)"/>
       <path id="DejaVuSans-5c" d="M 2059 -325 
Q 1816 -950 1584 -1140 
Q 1353 -1331 966 -1331 
L 506 -1331 
L 506 -850 
L 844 -850 
Q 1081 -850 1212 -737 
Q 1344 -625 1503 -206 
L 1606 56 
L 191 3500 
L 800 3500 
L 1894 763 
L 2988 3500 
L 3597 3500 
L 2059 -325 
z
" transform="scale(0.015625)"/>
       <path id="DejaVuSans-53" d="M 1159 525 
L 1159 -1331 
L 581 -1331 
L 581 3500 
L 1159 3500 
L 1159 2969 
Q 1341 3281 1617 3432 
Q 1894 3584 2278 3584 
Q 2916 3584 3314 3078 
Q 3713 2572 3713 1747 
Q 3713 922 3314 415 
Q 2916 -91 2278 -91 
Q 1894 -91 1617 61 
Q 1341 213 1159 525 
z
M 3116 1747 
Q 3116 2381 2855 2742 
Q 2594 3103 2138 3103 
Q 1681 3103 1420 2742 
Q 1159 2381 1159 1747 
Q 1159 1113 1420 752 
Q 1681 391 2138 391 
Q 2594 391 2855 752 
Q 3116 1113 3116 1747 
z
" transform="scale(0.015625)"/>
       <path id="DejaVuSans-55" d="M 2631 2963 
Q 2534 3019 2420 3045 
Q 2306 3072 2169 3072 
Q 1681 3072 1420 2755 
Q 1159 2438 1159 1844 
L 1159 0 
L 581 0 
L 581 3500 
L 1159 3500 
L 1159 2956 
Q 1341 3275 1631 3429 
Q 1922 3584 2338 3584 
Q 2397 3584 2469 3576 
Q 2541 3569 2628 3553 
L 2631 2963 
z
" transform="scale(0.015625)"/>
       <path id="DejaVuSans-58" d="M 544 1381 
L 544 3500 
L 1119 3500 
L 1119 1403 
Q 1119 906 1312 657 
Q 1506 409 1894 409 
Q 2359 409 2629 706 
Q 2900 1003 2900 1516 
L 2900 3500 
L 3475 3500 
L 3475 0 
L 2900 0 
L 2900 538 
Q 2691 219 2414 64 
Q 2138 -91 1772 -91 
Q 1169 -91 856 284 
Q 544 659 544 1381 
z
M 1991 3584 
L 1991 3584 
z
" transform="scale(0.015625)"/>
       <path id="DejaVuSans-56" d="M 2834 3397 
L 2834 2853 
Q 2591 2978 2328 3040 
Q 2066 3103 1784 3103 
Q 1356 3103 1142 2972 
Q 928 2841 928 2578 
Q 928 2378 1081 2264 
Q 1234 2150 1697 2047 
L 1894 2003 
Q 2506 1872 2764 1633 
Q 3022 1394 3022 966 
Q 3022 478 2636 193 
Q 2250 -91 1575 -91 
Q 1294 -91 989 -36 
Q 684 19 347 128 
L 347 722 
Q 666 556 975 473 
Q 1284 391 1588 391 
Q 1994 391 2212 530 
Q 2431 669 2431 922 
Q 2431 1156 2273 1281 
Q 2116 1406 1581 1522 
L 1381 1569 
Q 847 1681 609 1914 
Q 372 2147 372 2553 
Q 372 3047 722 3315 
Q 1072 3584 1716 3584 
Q 2034 3584 2315 3537 
Q 2597 3491 2834 3397 
z
" transform="scale(0.015625)"/>
      </defs>
      <use xlink:href="#DejaVuSans-31"/>
      <use xlink:href="#DejaVuSans-11" transform="translate(74.8125 0)"/>
      <use xlink:href="#DejaVuSans-3" transform="translate(106.59375 0)"/>
      <use xlink:href="#DejaVuSans-26" transform="translate(138.375 0)"/>
      <use xlink:href="#DejaVuSans-5c" transform="translate(208.203125 0)"/>
      <use xlink:href="#DejaVuSans-53" transform="translate(267.390625 0)"/>
      <use xlink:href="#DejaVuSans-55" transform="translate(330.875 0)"/>
      <use xlink:href="#DejaVuSans-58" transform="translate(371.984375 0)"/>
      <use xlink:href="#DejaVuSans-56" transform="translate(435.359375 0)"/>
     </g>
    </g>
    <g id="patch_7">
     <path d="M 15.3 492.893906 
L 33.3 492.893906 
L 33.3 486.593906 
L 15.3 486.593906 
z
" style="fill: #bdc3c7; stroke: #888888; stroke-linejoin: miter"/>
    </g>
    <g id="text_6">
     <!-- Neighbors -->
     <g transform="translate(40.5 492.893906) scale(0.09 -0.09)">
      <defs>
       <path id="DejaVuSans-48" d="M 3597 1894 
L 3597 1613 
L 953 1613 
Q 991 1019 1311 708 
Q 1631 397 2203 397 
Q 2534 397 2845 478 
Q 3156 559 3463 722 
L 3463 178 
Q 3153 47 2828 -22 
Q 2503 -91 2169 -91 
Q 1331 -91 842 396 
Q 353 884 353 1716 
Q 353 2575 817 3079 
Q 1281 3584 2069 3584 
Q 2775 3584 3186 3129 
Q 3597 2675 3597 1894 
z
M 3022 2063 
Q 3016 2534 2758 2815 
Q 2500 3097 2075 3097 
Q 1594 3097 1305 2825 
Q 1016 2553 972 2059 
L 3022 2063 
z
" transform="scale(0.015625)"/>
       <path id="DejaVuSans-4c" d="M 603 3500 
L 1178 3500 
L 1178 0 
L 603 0 
L 603 3500 
z
M 603 4863 
L 1178 4863 
L 1178 4134 
L 603 4134 
L 603 4863 
z
" transform="scale(0.015625)"/>
       <path id="DejaVuSans-4a" d="M 2906 1791 
Q 2906 2416 2648 2759 
Q 2391 3103 1925 3103 
Q 1463 3103 1205 2759 
Q 947 2416 947 1791 
Q 947 1169 1205 825 
Q 1463 481 1925 481 
Q 2391 481 2648 825 
Q 2906 1169 2906 1791 
z
M 3481 434 
Q 3481 -459 3084 -895 
Q 2688 -1331 1869 -1331 
Q 1566 -1331 1297 -1286 
Q 1028 -1241 775 -1147 
L 775 -588 
Q 1028 -725 1275 -790 
Q 1522 -856 1778 -856 
Q 2344 -856 2625 -561 
Q 2906 -266 2906 331 
L 2906 616 
Q 2728 306 2450 153 
Q 2172 0 1784 0 
Q 1141 0 747 490 
Q 353 981 353 1791 
Q 353 2603 747 3093 
Q 1141 3584 1784 3584 
Q 2172 3584 2450 3431 
Q 2728 3278 2906 2969 
L 2906 3500 
L 3481 3500 
L 3481 434 
z
" transform="scale(0.015625)"/>
       <path id="DejaVuSans-4b" d="M 3513 2113 
L 3513 0 
L 2938 0 
L 2938 2094 
Q 2938 2591 2744 2837 
Q 2550 3084 2163 3084 
Q 1697 3084 1428 2787 
Q 1159 2491 1159 1978 
L 1159 0 
L 581 0 
L 581 4863 
L 1159 4863 
L 1159 2956 
Q 1366 3272 1645 3428 
Q 1925 3584 2291 3584 
Q 2894 3584 3203 3211 
Q 3513 2838 3513 2113 
z
" transform="scale(0.015625)"/>
       <path id="DejaVuSans-45" d="M 3116 1747 
Q 3116 2381 2855 2742 
Q 2594 3103 2138 3103 
Q 1681 3103 1420 2742 
Q 1159 2381 1159 1747 
Q 1159 1113 1420 752 
Q 1681 391 2138 391 
Q 2594 391 2855 752 
Q 3116 1113 3116 1747 
z
M 1159 2969 
Q 1341 3281 1617 3432 
Q 1894 3584 2278 3584 
Q 2916 3584 3314 3078 
Q 3713 2572 3713 1747 
Q 3713 922 3314 415 
Q 2916 -91 2278 -91 
Q 1894 -91 1617 61 
Q 1341 213 1159 525 
L 1159 0 
L 581 0 
L 581 4863 
L 1159 4863 
L 1159 2969 
z
" transform="scale(0.015625)"/>
       <path id="DejaVuSans-52" d="M 1959 3097 
Q 1497 3097 1228 2736 
Q 959 2375 959 1747 
Q 959 1119 1226 758 
Q 1494 397 1959 397 
Q 2419 397 2687 759 
Q 2956 1122 2956 1747 
Q 2956 2369 2687 2733 
Q 2419 3097 1959 3097 
z
M 1959 3584 
Q 2709 3584 3137 3096 
Q 3566 2609 3566 1747 
Q 3566 888 3137 398 
Q 2709 -91 1959 -91 
Q 1206 -91 779 398 
Q 353 888 353 1747 
Q 353 2609 779 3096 
Q 1206 3584 1959 3584 
z
" transform="scale(0.015625)"/>
      </defs>
      <use xlink:href="#DejaVuSans-31"/>
      <use xlink:href="#DejaVuSans-48" transform="translate(74.8125 0)"/>
      <use xlink:href="#DejaVuSans-4c" transform="translate(136.34375 0)"/>
      <use xlink:href="#DejaVuSans-4a" transform="translate(164.125 0)"/>
      <use xlink:href="#DejaVuSans-4b" transform="translate(227.609375 0)"/>
      <use xlink:href="#DejaVuSans-45" transform="translate(290.984375 0)"/>
      <use xlink:href="#DejaVuSans-52" transform="translate(354.46875 0)"/>
      <use xlink:href="#DejaVuSans-55" transform="translate(415.65625 0)"/>
      <use xlink:href="#DejaVuSans-56" transform="translate(456.765625 0)"/>
     </g>
    </g>
   </g>
  </g>
 </g>
 <defs>
  <clipPath id="padd92c0a58">
   <rect x="7.2" y="30.116016" width="567.394162" height="473.04"/>
  </clipPath>
 </defs>
</svg>
