<?xml version="1.0" encoding="utf-8" standalone="no"?>
<!DOCTYPE svg PUBLIC "-//W3C//DTD SVG 1.1//EN"
  "http://www.w3.org/Graphics/SVG/1.1/DTD/svg11.dtd">
<svg xmlns:xlink="http://www.w3.org/1999/xlink" width="207.960661pt" height="510.357344pt" viewBox="0 0 207.960661 510.357344" xmlns="http://www.w3.org/2000/svg" version="1.1">
 <metadata>
  <rdf:RDF xmlns:dc="http://purl.org/dc/elements/1.1/" xmlns:cc="http://creativecommons.org/ns#" xmlns:rdf="http://www.w3.org/1999/02/22-rdf-syntax-ns#">
   <cc:Work>
    <dc:type rdf:resource="http://purl.org/dc/dcmitype/StillImage"/>
    <dc:date>2026-06-19T08:36:36.401595</dc:date>
    <dc:format>image/svg+xml</dc:format>
    <dc:creator>
     <cc:Agent>
      <dc:title>Matplotlib v3.11.0, https://matplotlib.org/</dc:title>
     </cc:Agent>
    </dc:creator>
   </cc:Work>
  </rdf:RDF>
 </metadata>
 <defs>
  <style type="text/css">*{stroke-linejoin: round; stroke-linecap: butt}</style>
 </defs>
 <g id="figure_1">
  <g id="patch_1">
   <path d="M 0 510.357344 
L 207.960661 510.357344 
L 207.960661 0 
L 0 0 
z
" style="fill: #d6eaf8"/>
  </g>
  <g id="axes_1">
   <g id="PatchCollection_1">
    <path d="M 117.877243 375.932569 
L 118.046718 375.183116 
L 118.555141 373.35112 
L 118.555141 372.68494 
L 118.555141 372.102032 
L 118.724616 371.685669 
L 119.063565 371.186034 
L 119.23304 371.019489 
L 120.249887 370.686399 
L 120.419361 370.436581 
L 120.419361 369.853673 
L 120.419361 369.687128 
L 121.09726 369.354038 
L 122.283581 369.020947 
L 122.96148 368.521312 
L 123.469903 368.271494 
L 124.317276 368.354767 
L 124.656225 368.77113 
L 123.978327 369.354038 
L 123.469903 369.687128 
L 123.130954 370.270036 
L 122.283581 372.35185 
L 122.453056 372.768212 
L 122.792005 373.35112 
L 122.453056 373.850756 
L 122.283581 374.100573 
L 121.944632 374.017301 
L 121.436209 373.767483 
L 120.927785 374.267118 
L 120.588836 374.933299 
L 120.588836 375.599479 
L 120.927785 376.26566 
L 121.266734 376.93184 
L 120.588836 376.93184 
L 119.741463 376.59875 
L 119.571989 376.515477 
L 118.555141 376.765295 
L 118.046718 376.59875 
z
" clip-path="url(#p1474bc1928)" style="fill: #e74c3c; stroke: #ffffff; stroke-width: 0.6"/>
    <path d="M 91.439214 424.647013 
L 91.947638 423.731015 
L 93.303434 422.898289 
L 94.659231 422.315381 
L 95.506603 422.065564 
L 97.709773 421.149566 
L 99.065569 420.98302 
L 99.573993 422.065564 
L 99.404518 422.648471 
L 99.065569 423.064834 
L 98.72662 423.314652 
L 98.048722 423.397924 
L 97.540298 423.56447 
L 97.201349 424.064105 
L 97.031874 424.647013 
L 96.523451 425.063376 
L 95.676078 425.563011 
L 95.167654 425.396466 
L 94.828705 424.980103 
L 93.981333 424.813558 
L 92.456062 424.980103 
L 91.778164 424.89683 
z
" clip-path="url(#p1474bc1928)" style="fill: #e74c3c; stroke: #ffffff; stroke-width: 0.6"/>
    <path d="M 112.962482 381.428558 
L 113.131956 380.84565 
L 113.64038 379.679834 
L 114.657227 378.430746 
L 115.674074 377.59802 
L 116.351972 378.097656 
L 116.521447 378.763836 
L 116.521447 379.430017 
L 116.351972 380.096197 
L 116.351972 380.84565 
L 116.521447 381.262013 
L 117.199345 382.011466 
L 117.199345 382.511101 
L 117.029871 383.843462 
L 116.182498 385.175823 
L 115.335125 385.842003 
L 114.318278 385.259095 
L 114.148803 384.592915 
L 113.979329 383.260554 
L 113.64038 382.511101 
L 113.131956 381.761648 
z
" clip-path="url(#p1474bc1928)" style="fill: #e74c3c; stroke: #ffffff; stroke-width: 0.6"/>
    <path d="M 119.402514 229.955784 
L 120.588836 229.289604 
L 121.09726 228.123788 
L 121.436209 225.792157 
L 122.114107 225.125976 
L 123.978327 225.125976 
L 124.656225 225.459066 
L 125.164649 225.958702 
L 125.334123 226.624882 
L 125.164649 227.374335 
L 124.656225 227.87397 
L 124.147801 228.207061 
L 123.639378 228.623423 
L 121.436209 230.705237 
L 120.758311 231.1216 
L 119.741463 231.038327 
z
" clip-path="url(#p1474bc1928)" style="fill: #e74c3c; stroke: #ffffff; stroke-width: 0.6"/>
    <path d="M 96.523451 133.609441 
L 96.692925 133.109805 
L 97.031874 132.61017 
L 97.201349 132.859988 
L 97.370823 133.359623 
L 97.370823 133.609441 
L 97.709773 133.526168 
L 98.218196 133.442895 
L 98.557145 133.359623 
L 98.72662 133.526168 
L 98.557145 133.942531 
L 98.387671 134.275621 
L 98.048722 134.525439 
L 97.709773 134.608711 
L 97.201349 134.442166 
L 96.692925 134.109076 
z
" clip-path="url(#p1474bc1928)" style="fill: #e74c3c; stroke: #ffffff; stroke-width: 0.6"/>
    <path d="M 115.335125 314.394153 
L 115.5046 313.97779 
L 115.843549 313.6447 
L 116.690921 313.561427 
L 117.199345 313.727972 
L 118.724616 313.97779 
L 119.23304 314.227608 
L 119.571989 314.977061 
L 119.23304 315.393423 
L 118.555141 315.476696 
L 117.36882 315.643241 
L 116.690921 315.559969 
L 116.182498 315.393423 
L 115.674074 314.977061 
z
" clip-path="url(#p1474bc1928)" style="fill: #e74c3c; stroke: #ffffff; stroke-width: 0.6"/>
    <path d="M 115.674074 196.896581 
L 115.674074 194.898039 
L 116.521447 193.815496 
L 118.216192 193.898769 
L 118.894091 194.731494 
L 119.23304 195.314402 
L 119.23304 195.89731 
L 119.23304 196.813308 
L 119.063565 197.396216 
L 118.555141 197.812579 
L 117.707769 198.145669 
L 117.029871 198.062396 
z
" clip-path="url(#p1474bc1928)" style="fill: #e74c3c; stroke: #ffffff; stroke-width: 0.6"/>
    <path d="M 124.8257 253.771734 
L 125.164649 253.188826 
L 125.842547 253.105554 
L 126.520445 253.521917 
L 126.68992 254.104825 
L 126.68992 254.687732 
L 126.012021 255.104095 
L 124.995174 254.60446 
z
" clip-path="url(#p1474bc1928)" style="fill: #e74c3c; stroke: #ffffff; stroke-width: 0.6"/>
    <path d="M 103.810856 151.263222 
L 103.810856 150.680314 
L 104.488754 150.430496 
L 105.166652 150.680314 
L 105.336127 151.179949 
L 105.336127 151.762857 
L 104.997178 152.262492 
L 104.31928 151.84613 
z
" clip-path="url(#p1474bc1928)" style="fill: #e74c3c; stroke: #ffffff; stroke-width: 0.6"/>
    <path d="M 81.270742 108.46113 
L 81.440216 107.878222 
L 82.118115 107.711677 
L 82.626538 108.044767 
L 82.626538 108.627675 
L 82.287589 109.210583 
L 81.779165 109.626945 
L 81.440216 109.12731 
z
" clip-path="url(#p1474bc1928)" style="fill: #e74c3c; stroke: #ffffff; stroke-width: 0.6"/>
    <path d="M 125.164649 268.011341 
L 125.842547 267.761523 
L 126.68992 268.177886 
L 126.012021 268.927339 
z
" clip-path="url(#p1474bc1928)" style="fill: #e74c3c; stroke: #ffffff; stroke-width: 0.6"/>
    <path d="M 121.944632 298.072732 
L 122.792005 297.822915 
L 123.639378 298.156005 
L 122.96148 299.072003 
z
" clip-path="url(#p1474bc1928)" style="fill: #e74c3c; stroke: #ffffff; stroke-width: 0.6"/>
   </g>
   <g id="text_1">
    <!-- N. Mariana Is. -->
    <g style="fill: #1a252f" transform="translate(37.446581 20.117344) scale(0.17 -0.17)">
     <defs>
      <path id="DejaVuSans-Bold-31" d="M 588 4666 
L 1931 4666 
L 3628 1466 
L 3628 4666 
L 4769 4666 
L 4769 0 
L 3425 0 
L 1728 3200 
L 1728 0 
L 588 0 
L 588 4666 
z
" transform="scale(0.015625)"/>
      <path id="DejaVuSans-Bold-11" d="M 653 1209 
L 1778 1209 
L 1778 0 
L 653 0 
L 653 1209 
z
" transform="scale(0.015625)"/>
      <path id="DejaVuSans-Bold-3" transform="scale(0.015625)"/>
      <path id="DejaVuSans-Bold-30" d="M 588 4666 
L 2119 4666 
L 3181 2169 
L 4250 4666 
L 5778 4666 
L 5778 0 
L 4641 0 
L 4641 3413 
L 3566 897 
L 2803 897 
L 1728 3413 
L 1728 0 
L 588 0 
L 588 4666 
z
" transform="scale(0.015625)"/>
      <path id="DejaVuSans-Bold-44" d="M 2106 1575 
Q 1756 1575 1579 1456 
Q 1403 1338 1403 1106 
Q 1403 894 1545 773 
Q 1688 653 1941 653 
Q 2256 653 2472 879 
Q 2688 1106 2688 1447 
L 2688 1575 
L 2106 1575 
z
M 3816 1997 
L 3816 0 
L 2688 0 
L 2688 519 
Q 2463 200 2181 54 
Q 1900 -91 1497 -91 
Q 953 -91 614 226 
Q 275 544 275 1050 
Q 275 1666 698 1953 
Q 1122 2241 2028 2241 
L 2688 2241 
L 2688 2328 
Q 2688 2594 2478 2717 
Q 2269 2841 1825 2841 
Q 1466 2841 1156 2769 
Q 847 2697 581 2553 
L 581 3406 
Q 941 3494 1303 3539 
Q 1666 3584 2028 3584 
Q 2975 3584 3395 3211 
Q 3816 2838 3816 1997 
z
" transform="scale(0.015625)"/>
      <path id="DejaVuSans-Bold-55" d="M 3138 2547 
Q 2991 2616 2845 2648 
Q 2700 2681 2553 2681 
Q 2122 2681 1889 2404 
Q 1656 2128 1656 1613 
L 1656 0 
L 538 0 
L 538 3500 
L 1656 3500 
L 1656 2925 
Q 1872 3269 2151 3426 
Q 2431 3584 2822 3584 
Q 2878 3584 2943 3579 
Q 3009 3575 3134 3559 
L 3138 2547 
z
" transform="scale(0.015625)"/>
      <path id="DejaVuSans-Bold-4c" d="M 538 3500 
L 1656 3500 
L 1656 0 
L 538 0 
L 538 3500 
z
M 538 4863 
L 1656 4863 
L 1656 3950 
L 538 3950 
L 538 4863 
z
" transform="scale(0.015625)"/>
      <path id="DejaVuSans-Bold-51" d="M 4056 2131 
L 4056 0 
L 2931 0 
L 2931 347 
L 2931 1631 
Q 2931 2084 2911 2256 
Q 2891 2428 2841 2509 
Q 2775 2619 2662 2680 
Q 2550 2741 2406 2741 
Q 2056 2741 1856 2470 
Q 1656 2200 1656 1722 
L 1656 0 
L 538 0 
L 538 3500 
L 1656 3500 
L 1656 2988 
Q 1909 3294 2193 3439 
Q 2478 3584 2822 3584 
Q 3428 3584 3742 3212 
Q 4056 2841 4056 2131 
z
" transform="scale(0.015625)"/>
      <path id="DejaVuSans-Bold-2c" d="M 588 4666 
L 1791 4666 
L 1791 0 
L 588 0 
L 588 4666 
z
" transform="scale(0.015625)"/>
      <path id="DejaVuSans-Bold-56" d="M 3272 3391 
L 3272 2541 
Q 2913 2691 2578 2766 
Q 2244 2841 1947 2841 
Q 1628 2841 1473 2761 
Q 1319 2681 1319 2516 
Q 1319 2381 1436 2309 
Q 1553 2238 1856 2203 
L 2053 2175 
Q 2913 2066 3209 1816 
Q 3506 1566 3506 1031 
Q 3506 472 3093 190 
Q 2681 -91 1863 -91 
Q 1516 -91 1145 -36 
Q 775 19 384 128 
L 384 978 
Q 719 816 1070 734 
Q 1422 653 1784 653 
Q 2113 653 2278 743 
Q 2444 834 2444 1013 
Q 2444 1163 2330 1236 
Q 2216 1309 1875 1350 
L 1678 1375 
Q 931 1469 631 1722 
Q 331 1975 331 2491 
Q 331 3047 712 3315 
Q 1094 3584 1881 3584 
Q 2191 3584 2531 3537 
Q 2872 3491 3272 3391 
z
" transform="scale(0.015625)"/>
     </defs>
     <use xlink:href="#DejaVuSans-Bold-31"/>
     <use xlink:href="#DejaVuSans-Bold-11" transform="translate(83.6875 0)"/>
     <use xlink:href="#DejaVuSans-Bold-3" transform="translate(121.671875 0)"/>
     <use xlink:href="#DejaVuSans-Bold-30" transform="translate(156.484375 0)"/>
     <use xlink:href="#DejaVuSans-Bold-44" transform="translate(256 0)"/>
     <use xlink:href="#DejaVuSans-Bold-55" transform="translate(323.484375 0)"/>
     <use xlink:href="#DejaVuSans-Bold-4c" transform="translate(372.796875 0)"/>
     <use xlink:href="#DejaVuSans-Bold-44" transform="translate(407.078125 0)"/>
     <use xlink:href="#DejaVuSans-Bold-51" transform="translate(474.5625 0)"/>
     <use xlink:href="#DejaVuSans-Bold-44" transform="translate(545.75 0)"/>
     <use xlink:href="#DejaVuSans-Bold-3" transform="translate(613.234375 0)"/>
     <use xlink:href="#DejaVuSans-Bold-2c" transform="translate(648.046875 0)"/>
     <use xlink:href="#DejaVuSans-Bold-56" transform="translate(685.25 0)"/>
     <use xlink:href="#DejaVuSans-Bold-11" transform="translate(744.765625 0)"/>
    </g>
   </g>
   <g id="line2d_1">
    <path d="M 107.009476 375.769867 
" clip-path="url(#p1474bc1928)" style="fill: none; stroke: #ffffff; stroke-width: 1.5; stroke-linecap: square"/>
    <defs>
     <path id="m0fbec539d2" d="M 0 2.5 
C 0.663008 2.5 1.29895 2.236584 1.767767 1.767767 
C 2.236584 1.29895 2.5 0.663008 2.5 0 
C 2.5 -0.663008 2.236584 -1.29895 1.767767 -1.767767 
C 1.29895 -2.236584 0.663008 -2.5 0 -2.5 
C -0.663008 -2.5 -1.29895 -2.236584 -1.767767 -1.767767 
C -2.236584 -1.29895 -2.5 -0.663008 -2.5 0 
C -2.5 0.663008 -2.236584 1.29895 -1.767767 1.767767 
C -1.29895 2.236584 -0.663008 2.5 0 2.5 
z
" style="stroke: #1a252f; stroke-width: 0.8"/>
    </defs>
    <g clip-path="url(#p1474bc1928)">
     <use xlink:href="#m0fbec539d2" x="107.009476" y="375.769867" style="fill: #ffffff; stroke: #1a252f; stroke-width: 0.8"/>
    </g>
   </g>
   <g id="text_2">
    <g clip-path="url(#p1474bc1928)">
     <!-- Saipan -->
     <g style="fill: #ffffff" transform="translate(112.398343 377.718402) scale(0.075 -0.075)">
      <defs>
       <path id="DejaVuSans-Bold-36" d="M 3834 4519 
L 3834 3531 
Q 3450 3703 3084 3790 
Q 2719 3878 2394 3878 
Q 1963 3878 1756 3759 
Q 1550 3641 1550 3391 
Q 1550 3203 1689 3098 
Q 1828 2994 2194 2919 
L 2706 2816 
Q 3484 2659 3812 2340 
Q 4141 2022 4141 1434 
Q 4141 663 3683 286 
Q 3225 -91 2284 -91 
Q 1841 -91 1394 -6 
Q 947 78 500 244 
L 500 1259 
Q 947 1022 1364 901 
Q 1781 781 2169 781 
Q 2563 781 2772 912 
Q 2981 1044 2981 1288 
Q 2981 1506 2839 1625 
Q 2697 1744 2272 1838 
L 1806 1941 
Q 1106 2091 782 2419 
Q 459 2747 459 3303 
Q 459 4000 909 4375 
Q 1359 4750 2203 4750 
Q 2588 4750 2994 4692 
Q 3400 4634 3834 4519 
z
" transform="scale(0.015625)"/>
       <path id="DejaVuSans-Bold-53" d="M 1656 506 
L 1656 -1331 
L 538 -1331 
L 538 3500 
L 1656 3500 
L 1656 2988 
Q 1888 3294 2169 3439 
Q 2450 3584 2816 3584 
Q 3463 3584 3878 3070 
Q 4294 2556 4294 1747 
Q 4294 938 3878 423 
Q 3463 -91 2816 -91 
Q 2450 -91 2169 54 
Q 1888 200 1656 506 
z
M 2400 2772 
Q 2041 2772 1848 2508 
Q 1656 2244 1656 1747 
Q 1656 1250 1848 986 
Q 2041 722 2400 722 
Q 2759 722 2948 984 
Q 3138 1247 3138 1747 
Q 3138 2247 2948 2509 
Q 2759 2772 2400 2772 
z
" transform="scale(0.015625)"/>
      </defs>
      <use xlink:href="#DejaVuSans-Bold-36"/>
      <use xlink:href="#DejaVuSans-Bold-44" transform="translate(72.015625 0)"/>
      <use xlink:href="#DejaVuSans-Bold-4c" transform="translate(139.5 0)"/>
      <use xlink:href="#DejaVuSans-Bold-53" transform="translate(173.78125 0)"/>
      <use xlink:href="#DejaVuSans-Bold-44" transform="translate(245.359375 0)"/>
      <use xlink:href="#DejaVuSans-Bold-51" transform="translate(312.84375 0)"/>
     </g>
    </g>
   </g>
   <g id="legend_1">
    <g id="patch_2">
     <path d="M 13.5 498.657344 
L 104.032969 498.657344 
Q 105.832969 498.657344 105.832969 496.857344 
L 105.832969 470.755937 
Q 105.832969 468.955937 104.032969 468.955937 
L 13.5 468.955937 
Q 11.7 468.955937 11.7 470.755937 
L 11.7 496.857344 
Q 11.7 498.657344 13.5 498.657344 
z
" style="fill: #ffffff; opacity: 0.85; stroke: #cccccc; stroke-linejoin: miter"/>
    </g>
    <g id="patch_3">
     <path d="M 15.3 479.394531 
L 33.3 479.394531 
L 33.3 473.094531 
L 15.3 473.094531 
z
" style="fill: #e74c3c; stroke: #888888; stroke-linejoin: miter"/>
    </g>
    <g id="text_3">
     <!-- N. Mariana Is. -->
     <g transform="translate(40.5 479.394531) scale(0.09 -0.09)">
      <defs>
       <path id="DejaVuSans-31" d="M 628 4666 
L 1478 4666 
L 3547 763 
L 3547 4666 
L 4159 4666 
L 4159 0 
L 3309 0 
L 1241 3903 
L 1241 0 
L 628 0 
L 628 4666 
z
" transform="scale(0.015625)"/>
       <path id="DejaVuSans-11" d="M 684 794 
L 1344 794 
L 1344 0 
L 684 0 
L 684 794 
z
" transform="scale(0.015625)"/>
       <path id="DejaVuSans-3" transform="scale(0.015625)"/>
       <path id="DejaVuSans-30" d="M 628 4666 
L 1569 4666 
L 2759 1491 
L 3956 4666 
L 4897 4666 
L 4897 0 
L 4281 0 
L 4281 4097 
L 3078 897 
L 2444 897 
L 1241 4097 
L 1241 0 
L 628 0 
L 628 4666 
z
" transform="scale(0.015625)"/>
       <path id="DejaVuSans-44" d="M 2194 1759 
Q 1497 1759 1228 1600 
Q 959 1441 959 1056 
Q 959 750 1161 570 
Q 1363 391 1709 391 
Q 2188 391 2477 730 
Q 2766 1069 2766 1631 
L 2766 1759 
L 2194 1759 
z
M 3341 1997 
L 3341 0 
L 2766 0 
L 2766 531 
Q 2569 213 2275 61 
Q 1981 -91 1556 -91 
Q 1019 -91 701 211 
Q 384 513 384 1019 
Q 384 1609 779 1909 
Q 1175 2209 1959 2209 
L 2766 2209 
L 2766 2266 
Q 2766 2663 2505 2880 
Q 2244 3097 1772 3097 
Q 1472 3097 1187 3025 
Q 903 2953 641 2809 
L 641 3341 
Q 956 3463 1253 3523 
Q 1550 3584 1831 3584 
Q 2591 3584 2966 3190 
Q 3341 2797 3341 1997 
z
" transform="scale(0.015625)"/>
       <path id="DejaVuSans-55" d="M 2631 2963 
Q 2534 3019 2420 3045 
Q 2306 3072 2169 3072 
Q 1681 3072 1420 2755 
Q 1159 2438 1159 1844 
L 1159 0 
L 581 0 
L 581 3500 
L 1159 3500 
L 1159 2956 
Q 1341 3275 1631 3429 
Q 1922 3584 2338 3584 
Q 2397 3584 2469 3576 
Q 2541 3569 2628 3553 
L 2631 2963 
z
" transform="scale(0.015625)"/>
       <path id="DejaVuSans-4c" d="M 603 3500 
L 1178 3500 
L 1178 0 
L 603 0 
L 603 3500 
z
M 603 4863 
L 1178 4863 
L 1178 4134 
L 603 4134 
L 603 4863 
z
" transform="scale(0.015625)"/>
       <path id="DejaVuSans-51" d="M 3513 2113 
L 3513 0 
L 2938 0 
L 2938 2094 
Q 2938 2591 2744 2837 
Q 2550 3084 2163 3084 
Q 1697 3084 1428 2787 
Q 1159 2491 1159 1978 
L 1159 0 
L 581 0 
L 581 3500 
L 1159 3500 
L 1159 2956 
Q 1366 3272 1645 3428 
Q 1925 3584 2291 3584 
Q 2894 3584 3203 3211 
Q 3513 2838 3513 2113 
z
" transform="scale(0.015625)"/>
       <path id="DejaVuSans-2c" d="M 628 4666 
L 1259 4666 
L 1259 0 
L 628 0 
L 628 4666 
z
" transform="scale(0.015625)"/>
       <path id="DejaVuSans-56" d="M 2834 3397 
L 2834 2853 
Q 2591 2978 2328 3040 
Q 2066 3103 1784 3103 
Q 1356 3103 1142 2972 
Q 928 2841 928 2578 
Q 928 2378 1081 2264 
Q 1234 2150 1697 2047 
L 1894 2003 
Q 2506 1872 2764 1633 
Q 3022 1394 3022 966 
Q 3022 478 2636 193 
Q 2250 -91 1575 -91 
Q 1294 -91 989 -36 
Q 684 19 347 128 
L 347 722 
Q 666 556 975 473 
Q 1284 391 1588 391 
Q 1994 391 2212 530 
Q 2431 669 2431 922 
Q 2431 1156 2273 1281 
Q 2116 1406 1581 1522 
L 1381 1569 
Q 847 1681 609 1914 
Q 372 2147 372 2553 
Q 372 3047 722 3315 
Q 1072 3584 1716 3584 
Q 2034 3584 2315 3537 
Q 2597 3491 2834 3397 
z
" transform="scale(0.015625)"/>
      </defs>
      <use xlink:href="#DejaVuSans-31"/>
      <use xlink:href="#DejaVuSans-11" transform="translate(74.8125 0)"/>
      <use xlink:href="#DejaVuSans-3" transform="translate(106.59375 0)"/>
      <use xlink:href="#DejaVuSans-30" transform="translate(138.375 0)"/>
      <use xlink:href="#DejaVuSans-44" transform="translate(224.65625 0)"/>
      <use xlink:href="#DejaVuSans-55" transform="translate(285.9375 0)"/>
      <use xlink:href="#DejaVuSans-4c" transform="translate(327.046875 0)"/>
      <use xlink:href="#DejaVuSans-44" transform="translate(354.828125 0)"/>
      <use xlink:href="#DejaVuSans-51" transform="translate(416.109375 0)"/>
      <use xlink:href="#DejaVuSans-44" transform="translate(479.484375 0)"/>
      <use xlink:href="#DejaVuSans-3" transform="translate(540.765625 0)"/>
      <use xlink:href="#DejaVuSans-2c" transform="translate(572.546875 0)"/>
      <use xlink:href="#DejaVuSans-56" transform="translate(602.046875 0)"/>
      <use xlink:href="#DejaVuSans-11" transform="translate(654.140625 0)"/>
     </g>
    </g>
    <g id="patch_4">
     <path d="M 15.3 492.895234 
L 33.3 492.895234 
L 33.3 486.595234 
L 15.3 486.595234 
z
" style="fill: #bdc3c7; stroke: #888888; stroke-linejoin: miter"/>
    </g>
    <g id="text_4">
     <!-- Neighbors -->
     <g transform="translate(40.5 492.895234) scale(0.09 -0.09)">
      <defs>
       <path id="DejaVuSans-48" d="M 3597 1894 
L 3597 1613 
L 953 1613 
Q 991 1019 1311 708 
Q 1631 397 2203 397 
Q 2534 397 2845 478 
Q 3156 559 3463 722 
L 3463 178 
Q 3153 47 2828 -22 
Q 2503 -91 2169 -91 
Q 1331 -91 842 396 
Q 353 884 353 1716 
Q 353 2575 817 3079 
Q 1281 3584 2069 3584 
Q 2775 3584 3186 3129 
Q 3597 2675 3597 1894 
z
M 3022 2063 
Q 3016 2534 2758 2815 
Q 2500 3097 2075 3097 
Q 1594 3097 1305 2825 
Q 1016 2553 972 2059 
L 3022 2063 
z
" transform="scale(0.015625)"/>
       <path id="DejaVuSans-4a" d="M 2906 1791 
Q 2906 2416 2648 2759 
Q 2391 3103 1925 3103 
Q 1463 3103 1205 2759 
Q 947 2416 947 1791 
Q 947 1169 1205 825 
Q 1463 481 1925 481 
Q 2391 481 2648 825 
Q 2906 1169 2906 1791 
z
M 3481 434 
Q 3481 -459 3084 -895 
Q 2688 -1331 1869 -1331 
Q 1566 -1331 1297 -1286 
Q 1028 -1241 775 -1147 
L 775 -588 
Q 1028 -725 1275 -790 
Q 1522 -856 1778 -856 
Q 2344 -856 2625 -561 
Q 2906 -266 2906 331 
L 2906 616 
Q 2728 306 2450 153 
Q 2172 0 1784 0 
Q 1141 0 747 490 
Q 353 981 353 1791 
Q 353 2603 747 3093 
Q 1141 3584 1784 3584 
Q 2172 3584 2450 3431 
Q 2728 3278 2906 2969 
L 2906 3500 
L 3481 3500 
L 3481 434 
z
" transform="scale(0.015625)"/>
       <path id="DejaVuSans-4b" d="M 3513 2113 
L 3513 0 
L 2938 0 
L 2938 2094 
Q 2938 2591 2744 2837 
Q 2550 3084 2163 3084 
Q 1697 3084 1428 2787 
Q 1159 2491 1159 1978 
L 1159 0 
L 581 0 
L 581 4863 
L 1159 4863 
L 1159 2956 
Q 1366 3272 1645 3428 
Q 1925 3584 2291 3584 
Q 2894 3584 3203 3211 
Q 3513 2838 3513 2113 
z
" transform="scale(0.015625)"/>
       <path id="DejaVuSans-45" d="M 3116 1747 
Q 3116 2381 2855 2742 
Q 2594 3103 2138 3103 
Q 1681 3103 1420 2742 
Q 1159 2381 1159 1747 
Q 1159 1113 1420 752 
Q 1681 391 2138 391 
Q 2594 391 2855 752 
Q 3116 1113 3116 1747 
z
M 1159 2969 
Q 1341 3281 1617 3432 
Q 1894 3584 2278 3584 
Q 2916 3584 3314 3078 
Q 3713 2572 3713 1747 
Q 3713 922 3314 415 
Q 2916 -91 2278 -91 
Q 1894 -91 1617 61 
Q 1341 213 1159 525 
L 1159 0 
L 581 0 
L 581 4863 
L 1159 4863 
L 1159 2969 
z
" transform="scale(0.015625)"/>
       <path id="DejaVuSans-52" d="M 1959 3097 
Q 1497 3097 1228 2736 
Q 959 2375 959 1747 
Q 959 1119 1226 758 
Q 1494 397 1959 397 
Q 2419 397 2687 759 
Q 2956 1122 2956 1747 
Q 2956 2369 2687 2733 
Q 2419 3097 1959 3097 
z
M 1959 3584 
Q 2709 3584 3137 3096 
Q 3566 2609 3566 1747 
Q 3566 888 3137 398 
Q 2709 -91 1959 -91 
Q 1206 -91 779 398 
Q 353 888 353 1747 
Q 353 2609 779 3096 
Q 1206 3584 1959 3584 
z
" transform="scale(0.015625)"/>
      </defs>
      <use xlink:href="#DejaVuSans-31"/>
      <use xlink:href="#DejaVuSans-48" transform="translate(74.8125 0)"/>
      <use xlink:href="#DejaVuSans-4c" transform="translate(136.34375 0)"/>
      <use xlink:href="#DejaVuSans-4a" transform="translate(164.125 0)"/>
      <use xlink:href="#DejaVuSans-4b" transform="translate(227.609375 0)"/>
      <use xlink:href="#DejaVuSans-45" transform="translate(290.984375 0)"/>
      <use xlink:href="#DejaVuSans-52" transform="translate(354.46875 0)"/>
      <use xlink:href="#DejaVuSans-55" transform="translate(415.65625 0)"/>
      <use xlink:href="#DejaVuSans-56" transform="translate(456.765625 0)"/>
     </g>
    </g>
   </g>
  </g>
 </g>
 <defs>
  <clipPath id="p1474bc1928">
   <rect x="7.2" y="30.117344" width="193.560661" height="473.04"/>
  </clipPath>
 </defs>
</svg>
