<?xml version="1.0" encoding="utf-8" standalone="no"?>
<!DOCTYPE svg PUBLIC "-//W3C//DTD SVG 1.1//EN"
  "http://www.w3.org/Graphics/SVG/1.1/DTD/svg11.dtd">
<svg xmlns:xlink="http://www.w3.org/1999/xlink" width="773.386065pt" height="510.357344pt" viewBox="0 0 773.386065 510.357344" xmlns="http://www.w3.org/2000/svg" version="1.1">
 <metadata>
  <rdf:RDF xmlns:dc="http://purl.org/dc/elements/1.1/" xmlns:cc="http://creativecommons.org/ns#" xmlns:rdf="http://www.w3.org/1999/02/22-rdf-syntax-ns#">
   <cc:Work>
    <dc:type rdf:resource="http://purl.org/dc/dcmitype/StillImage"/>
    <dc:date>2026-06-19T08:14:13.390262</dc:date>
    <dc:format>image/svg+xml</dc:format>
    <dc:creator>
     <cc:Agent>
      <dc:title>Matplotlib v3.11.0, https://matplotlib.org/</dc:title>
     </cc:Agent>
    </dc:creator>
   </cc:Work>
  </rdf:RDF>
 </metadata>
 <defs>
  <style type="text/css">*{stroke-linejoin: round; stroke-linecap: butt}</style>
 </defs>
 <g id="figure_1">
  <g id="patch_1">
   <path d="M 0 510.357344 
L 773.386065 510.357344 
L 773.386065 0 
L 0 0 
z
" style="fill: #d6eaf8"/>
  </g>
  <g id="axes_1">
   <g id="PatchCollection_1">
    <path d="M 149.595394 191.19897 
L 149.595394 190.21606 
L 149.839698 189.233149 
L 150.572612 189.233149 
L 151.305526 189.233149 
L 152.771354 189.970332 
L 153.992877 191.076106 
L 154.970096 192.304744 
L 155.703009 194.024838 
L 156.435923 194.516293 
L 157.901751 195.130612 
L 162.787844 201.150938 
L 164.009367 202.133848 
L 166.941022 203.976805 
L 168.40685 204.222533 
L 169.872678 203.608214 
L 170.361287 203.608214 
L 171.338505 205.574035 
L 172.071419 206.434081 
L 173.292942 206.556945 
L 172.560029 205.696899 
L 171.58281 203.239623 
L 171.094201 200.782347 
L 171.338505 200.290891 
L 171.827115 200.290891 
L 184.042346 204.959716 
L 186.241088 206.925537 
L 189.905657 211.594361 
L 190.882875 212.577271 
L 192.104399 213.560182 
L 193.570226 214.297365 
L 194.791749 214.543092 
L 196.990491 216.508913 
L 197.723405 216.877504 
L 199.677842 217.614687 
L 200.65506 218.474734 
L 202.609497 221.054874 
L 203.586716 221.546329 
L 204.31963 222.160648 
L 206.762676 225.600834 
L 210.182941 228.795293 
L 210.915855 228.795293 
L 212.870292 230.146795 
L 213.84751 231.129705 
L 213.603206 232.112616 
L 214.824729 232.972662 
L 217.51208 232.972662 
L 218.733603 234.078437 
L 219.955126 234.569892 
L 222.398172 236.535713 
L 229.727311 238.010078 
L 229.971615 238.132942 
L 230.460225 238.870125 
L 230.948834 239.115852 
L 230.948834 238.992989 
L 231.437443 238.747261 
L 231.926052 238.501533 
L 232.170357 238.501533 
L 233.147576 238.747261 
L 233.39188 238.992989 
L 233.636185 239.36158 
L 234.124794 239.975899 
L 235.834926 241.327401 
L 236.323536 242.310311 
L 236.079231 243.416085 
L 236.56784 246.48768 
L 237.300754 247.470591 
L 238.277973 248.207774 
L 239.499496 248.822093 
L 240.23241 249.559275 
L 240.721019 250.66505 
L 241.209628 250.910777 
L 244.874198 251.402232 
L 246.095721 251.893688 
L 246.340025 252.262279 
L 246.095721 254.596691 
L 245.607111 256.316784 
L 245.362807 256.685376 
L 245.118502 257.299695 
L 245.362807 257.79115 
L 245.607111 258.159742 
L 245.607111 258.651197 
L 245.851416 260.002699 
L 246.58433 260.739881 
L 248.783072 262.459975 
L 250.737509 263.442885 
L 251.470422 264.180068 
L 252.447641 265.162978 
L 252.93625 265.408706 
L 254.646383 265.53157 
L 255.134992 265.777297 
L 255.379296 266.145889 
L 255.134992 267.005935 
L 255.379296 266.760208 
L 255.623601 266.760208 
L 255.867906 266.760208 
L 256.11221 266.391616 
L 258.066647 268.234573 
L 259.043866 269.09462 
L 259.28817 269.954666 
L 259.532475 270.200394 
L 259.77678 270.323258 
L 260.021084 270.937577 
L 259.043866 270.937577 
L 257.822343 270.691849 
L 256.845124 270.200394 
L 256.11221 269.463211 
L 256.356515 270.200394 
L 256.845124 270.937577 
L 257.822343 271.67476 
L 258.555257 271.920487 
L 259.28817 272.411942 
L 259.77678 273.517717 
L 260.265389 274.623491 
L 260.509694 275.483537 
L 262.219826 276.097856 
L 266.373005 277.203631 
L 267.594528 278.432269 
L 269.548965 277.940813 
L 271.259097 278.923724 
L 272.724925 280.643817 
L 273.213534 282.36391 
L 274.435057 282.118183 
L 275.167971 285.189778 
L 276.389494 286.418416 
L 275.65658 284.94405 
L 275.65658 284.452595 
L 275.900885 283.838276 
L 276.633799 283.469684 
L 277.366713 283.469684 
L 277.855322 283.96114 
L 278.343931 284.821186 
L 278.588236 284.206867 
L 278.83254 283.469684 
L 278.588236 282.609638 
L 277.855322 281.872455 
L 279.076845 282.241046 
L 280.054064 283.469684 
L 282.252805 287.892781 
L 282.741414 289.121419 
L 282.49711 289.735738 
L 281.031282 289.367147 
L 281.519891 290.10433 
L 284.207242 291.824423 
L 283.962938 292.561606 
L 284.451547 292.561606 
L 285.184461 292.315878 
L 285.67307 292.07015 
L 285.428765 291.210104 
L 285.184461 290.472921 
L 284.695851 289.981466 
L 284.207242 289.367147 
L 283.718633 287.647054 
L 283.718633 286.295552 
L 284.207242 285.804097 
L 285.428765 286.541279 
L 287.627507 288.875692 
L 288.360421 289.121419 
L 290.070553 289.244283 
L 290.559162 289.612874 
L 290.803467 290.10433 
L 290.314858 290.350057 
L 289.581944 290.472921 
L 289.581944 290.841512 
L 289.826249 291.08724 
L 290.314858 291.332968 
L 290.803467 291.332968 
L 291.047772 292.193014 
L 291.047772 293.544516 
L 291.292076 294.404563 
L 292.757904 293.544516 
L 294.223732 293.544516 
L 295.20095 294.158835 
L 298.621215 297.353294 
L 299.109824 297.599022 
L 300.087043 297.844749 
L 300.331347 298.090477 
L 301.064261 299.319115 
L 303.507308 300.916344 
L 305.950354 302.144982 
L 311.325056 303.865075 
L 311.325056 304.356531 
L 309.370619 304.356531 
L 309.370619 304.847986 
L 309.859228 305.093713 
L 310.103532 305.585169 
L 310.103532 305.95376 
L 310.347837 306.322351 
L 310.836446 306.568079 
L 311.813665 306.690943 
L 314.012406 307.305262 
L 314.989625 307.796717 
L 315.966843 309.148219 
L 318.40989 311.11404 
L 318.898499 311.605495 
L 318.898499 312.956997 
L 319.387108 313.571316 
L 319.875717 313.817043 
L 321.097241 314.308498 
L 320.608631 314.799954 
L 322.074459 316.151455 
L 325.006115 319.591642 
L 326.471942 320.328825 
L 327.693465 321.188871 
L 329.403598 323.154692 
L 331.11373 324.260466 
L 331.846644 323.277556 
L 334.045386 324.874785 
L 335.022604 325.243377 
L 335.022604 325.734832 
L 334.533995 326.103423 
L 334.045386 326.472015 
L 333.312472 326.594878 
L 332.579558 326.717742 
L 332.579558 327.332061 
L 333.312472 327.577789 
L 335.266909 327.332061 
L 335.999823 327.454925 
L 336.732737 327.823517 
L 337.46565 328.069244 
L 337.709955 327.700653 
L 338.198564 329.052155 
L 338.931478 329.789337 
L 340.153001 330.035065 
L 341.618829 330.280793 
L 345.527703 331.263703 
L 346.504922 331.755158 
L 349.925186 334.458162 
L 350.6581 335.441072 
L 351.391014 336.792574 
L 351.391014 337.406893 
L 351.391014 339.24985 
L 350.902405 339.618441 
L 350.6581 340.23276 
L 350.413796 340.601352 
L 351.635319 340.724216 
L 352.123928 341.092807 
L 352.612537 341.82999 
L 353.589756 343.304355 
L 356.032802 345.147312 
L 356.277107 346.007359 
L 356.277107 346.621678 
L 355.788497 346.744542 
L 355.299888 346.744542 
L 355.055583 347.235997 
L 355.055583 347.727452 
L 355.544193 348.218907 
L 355.788497 348.833226 
L 355.788497 349.447545 
L 355.544193 349.939001 
L 355.055583 351.659094 
L 354.566974 352.642004 
L 354.078365 353.133459 
L 353.589756 353.747778 
L 353.589756 353.379187 
L 353.345451 353.010596 
L 352.856842 353.256323 
L 352.612537 353.624915 
L 351.635319 353.993506 
L 351.391014 354.239234 
L 351.391014 354.607825 
L 351.879623 355.222144 
L 349.680882 356.942237 
L 348.459359 357.433692 
L 346.749226 357.187965 
L 347.970749 356.69651 
L 348.703663 356.327918 
L 348.947968 355.713599 
L 347.970749 355.713599 
L 347.48214 355.836463 
L 346.993531 355.222144 
L 346.504922 354.239234 
L 346.016312 353.256323 
L 345.772008 353.010596 
L 345.527703 352.150549 
L 345.039094 352.642004 
L 344.794789 353.624915 
L 344.550485 354.239234 
L 344.061875 353.870642 
L 343.573266 353.256323 
L 343.328961 352.396277 
L 342.840352 351.659094 
L 343.328961 351.659094 
L 343.817571 351.290502 
L 343.328961 350.307592 
L 342.596048 350.55332 
L 342.107438 351.53623 
L 341.863134 353.624915 
L 341.863134 353.993506 
L 341.863134 354.362097 
L 342.107438 355.222144 
L 342.107438 355.345008 
L 343.328961 356.205054 
L 342.596048 356.450782 
L 341.863134 356.205054 
L 340.885915 355.959327 
L 340.641611 355.959327 
L 340.397306 356.327918 
L 339.908697 356.69651 
L 339.420087 357.065101 
L 338.931478 357.187965 
L 337.221346 356.819373 
L 336.488432 355.959327 
L 336.488432 354.976416 
L 337.709955 354.239234 
L 337.709955 353.747778 
L 336.488432 353.870642 
L 335.022604 353.747778 
L 334.045386 353.010596 
L 334.533995 351.659094 
L 334.045386 351.290502 
L 333.068167 351.659094 
L 331.602339 351.044775 
L 330.136512 349.939001 
L 329.403598 348.95609 
L 329.159293 348.833226 
L 327.693465 349.570409 
L 326.960552 349.693273 
L 326.227638 349.570409 
L 324.76181 348.833226 
L 324.028896 348.464635 
L 323.784591 347.727452 
L 324.273201 347.358861 
L 324.517505 346.867406 
L 323.784591 346.253087 
L 323.295982 346.007359 
L 321.341545 345.638768 
L 320.608631 345.761631 
L 319.875717 346.867406 
L 319.387108 348.464635 
L 318.654194 349.570409 
L 317.432671 349.201818 
L 317.188367 349.570409 
L 317.188367 349.693273 
L 316.944062 349.693273 
L 317.432671 351.044775 
L 316.699757 351.413366 
L 315.722539 351.044775 
L 315.722539 350.430456 
L 315.966843 349.816137 
L 315.966843 347.97318 
L 316.455453 347.235997 
L 316.455453 346.744542 
L 315.478234 346.744542 
L 314.501016 346.621678 
L 313.768102 346.007359 
L 313.279493 345.147312 
L 315.478234 345.270176 
L 316.455453 345.024449 
L 316.944062 344.287266 
L 315.722539 344.164402 
L 315.23393 343.550083 
L 315.478234 341.215671 
L 314.74532 341.338535 
L 313.279493 341.092807 
L 312.790883 341.215671 
L 312.546579 341.707126 
L 312.302274 342.935764 
L 312.057969 343.304355 
L 311.080751 343.427219 
L 310.836446 343.795811 
L 310.592142 344.287266 
L 310.103532 345.024449 
L 309.614923 345.270176 
L 309.126314 344.778721 
L 309.370619 344.041538 
L 309.859228 343.304355 
L 309.126314 342.8129 
L 307.660486 341.215671 
L 307.660486 340.724216 
L 307.904791 340.478488 
L 308.149095 340.23276 
L 308.3934 339.864169 
L 308.3934 339.24985 
L 308.149095 339.24985 
L 307.416182 339.987033 
L 305.706049 339.495578 
L 305.706049 340.23276 
L 304.484526 340.724216 
L 303.263003 340.355624 
L 302.285784 339.741305 
L 301.064261 339.741305 
L 301.064261 338.389803 
L 300.331347 337.284029 
L 299.354129 336.546846 
L 298.621215 336.301119 
L 297.643997 335.809664 
L 296.911083 334.949617 
L 296.178169 334.826753 
L 294.956646 336.301119 
L 294.223732 335.809664 
L 293.490818 335.318208 
L 293.979427 334.949617 
L 293.979427 334.458162 
L 294.223732 333.966707 
L 294.223732 333.229524 
L 294.468036 333.229524 
L 295.20095 333.843843 
L 295.933864 334.212434 
L 296.422473 333.966707 
L 296.422473 332.738069 
L 295.933864 332.12375 
L 294.712341 331.509431 
L 294.223732 330.772248 
L 295.933864 330.772248 
L 296.666778 330.895112 
L 297.399692 331.263703 
L 297.399692 330.52652 
L 296.911083 330.035065 
L 296.422473 329.789337 
L 295.68956 329.789337 
L 295.445255 329.297882 
L 295.445255 328.314972 
L 295.68956 327.454925 
L 295.933864 327.332061 
L 295.445255 325.611968 
L 294.468036 324.997649 
L 292.269295 324.260466 
L 291.292076 324.751921 
L 291.047772 324.506194 
L 291.047772 323.891875 
L 291.780686 323.277556 
L 291.047772 322.908964 
L 290.559162 322.417509 
L 290.314858 321.680326 
L 290.314858 320.82028 
L 289.337639 321.434599 
L 288.84903 322.171782 
L 288.84903 324.014739 
L 288.604725 324.38333 
L 287.871812 324.38333 
L 287.138898 324.260466 
L 286.650288 324.260466 
L 286.894593 324.629058 
L 286.894593 325.489104 
L 286.405984 326.103423 
L 285.428765 325.489104 
L 284.451547 324.137602 
L 283.962938 323.523283 
L 281.764196 322.663237 
L 280.298368 320.328825 
L 279.32115 319.837369 
L 278.83254 319.591642 
L 278.343931 319.345914 
L 277.611017 318.608731 
L 277.122408 318.363004 
L 276.878103 318.485868 
L 276.389494 318.731595 
L 275.900885 318.854459 
L 273.946448 318.731595 
L 273.457839 318.363004 
L 273.213534 317.25723 
L 274.679362 317.871549 
L 274.190753 317.25723 
L 272.236316 315.291409 
L 272.236316 314.799954 
L 272.48062 314.062771 
L 272.724925 313.571316 
L 271.992011 313.325588 
L 271.259097 313.448452 
L 271.014792 313.939907 
L 271.014792 314.554226 
L 271.259097 315.291409 
L 270.281879 314.922817 
L 270.037574 314.185635 
L 270.037574 313.07986 
L 269.793269 311.851222 
L 269.30466 311.11404 
L 268.571746 310.499721 
L 268.083137 309.639674 
L 268.083137 308.288172 
L 267.594528 308.288172 
L 267.105918 309.393946 
L 266.373005 310.376857 
L 265.395786 310.991176 
L 264.418568 311.359767 
L 264.418568 309.885402 
L 264.418568 309.025355 
L 263.685654 308.656764 
L 262.464131 308.779627 
L 262.464131 309.025355 
L 262.464131 309.271083 
L 262.464131 309.639674 
L 261.975521 309.885402 
L 261.731217 309.762538 
L 252.691946 305.216577 
L 250.493204 303.37362 
L 251.226118 301.899255 
L 251.226118 301.284936 
L 250.248899 301.653527 
L 249.76029 301.530663 
L 249.76029 301.039208 
L 250.737509 300.79348 
L 249.76029 300.056298 
L 248.538767 300.302025 
L 247.561548 300.916344 
L 246.340025 301.284936 
L 245.118502 301.039208 
L 238.033668 297.844749 
L 237.05645 297.107566 
L 236.56784 296.124656 
L 235.834926 293.790244 
L 235.834926 293.421652 
L 234.369099 293.298789 
L 233.636185 292.807333 
L 231.681748 291.332968 
L 231.193139 291.210104 
L 230.704529 291.210104 
L 230.21592 291.08724 
L 229.971615 290.595785 
L 228.994397 289.612874 
L 228.750092 289.367147 
L 226.307046 284.821186 
L 226.062741 284.206867 
L 226.307046 283.838276 
L 226.307046 283.469684 
L 225.818437 283.101093 
L 225.818437 282.978229 
L 225.329828 282.978229 
L 224.596914 283.223957 
L 224.352609 283.346821 
L 224.108304 284.452595 
L 223.375391 284.698322 
L 222.886781 284.452595 
L 222.642477 283.346821 
L 221.909563 283.838276 
L 221.420954 284.206867 
L 220.932344 284.206867 
L 220.19943 283.838276 
L 221.420954 282.486774 
L 221.176649 281.258136 
L 220.19943 280.643817 
L 218.733603 280.889545 
L 219.222212 279.78377 
L 218.977907 279.046588 
L 217.267775 277.940813 
L 216.779166 278.923724 
L 217.02347 280.398089 
L 216.534861 281.381 
L 215.801947 281.872455 
L 215.069033 281.626727 
L 214.580424 281.135272 
L 214.091815 280.398089 
L 214.336119 279.78377 
L 214.336119 279.169451 
L 214.580424 278.555132 
L 215.069033 277.940813 
L 214.580424 277.326494 
L 214.091815 277.080767 
L 213.603206 277.080767 
L 212.870292 276.712175 
L 212.625987 276.22072 
L 212.137378 275.360674 
L 207.006981 269.217484 
L 206.762676 268.234573 
L 206.762676 266.760208 
L 206.762676 265.53157 
L 206.518371 264.302932 
L 206.029762 263.442885 
L 204.808239 263.93434 
L 204.808239 262.95143 
L 205.052544 262.828566 
L 205.296848 262.459975 
L 205.296848 261.968519 
L 204.808239 261.968519 
L 204.563934 261.845656 
L 203.831021 261.477064 
L 204.31963 260.862745 
L 204.075325 260.617018 
L 203.586716 260.617018 
L 202.853802 260.985609 
L 202.853802 261.845656 
L 201.876584 261.968519 
L 201.387974 261.3542 
L 201.14367 260.248426 
L 200.65506 260.125562 
L 199.922147 260.37129 
L 199.189233 260.739881 
L 199.677842 261.477064 
L 199.189233 261.968519 
L 198.700623 262.459975 
L 197.4791 259.019788 
L 196.746186 257.668286 
L 195.524663 256.931103 
L 196.746186 256.071057 
L 196.257577 255.333874 
L 194.791749 254.842419 
L 193.570226 253.982372 
L 194.791749 253.859508 
L 195.280359 253.368053 
L 195.280359 252.753734 
L 195.036054 252.016551 
L 194.30314 251.525096 
L 193.325922 251.402232 
L 192.837312 251.033641 
L 192.593008 249.927867 
L 192.348703 249.927867 
L 191.12718 250.66505 
L 190.149962 250.173594 
L 188.439829 248.453501 
L 187.95122 248.330637 
L 186.485392 248.207774 
L 185.752478 247.962046 
L 185.508174 247.593455 
L 184.530955 245.996225 
L 183.065127 245.627634 
L 181.843604 244.890451 
L 178.911949 241.818856 
L 176.957512 240.467354 
L 175.980293 239.484444 
L 175.247379 238.37867 
L 175.735989 238.255806 
L 176.713207 238.501533 
L 177.690426 238.010078 
L 178.42334 236.904304 
L 177.93473 235.921394 
L 176.957512 235.307075 
L 175.735989 235.061347 
L 174.75877 234.324164 
L 173.292942 230.883978 
L 172.071419 230.023931 
L 169.872678 225.109379 
L 169.628373 225.355107 
L 169.139764 225.355107 
L 168.895459 225.477971 
L 168.651155 225.600834 
L 167.918241 224.249333 
L 163.520757 221.423465 
L 162.543539 219.826236 
L 161.810625 216.877504 
L 161.56632 215.894594 
L 161.322016 214.665956 
L 160.344797 214.051637 
L 159.611883 213.683046 
L 158.87897 213.068727 
L 158.634665 211.594361 
L 159.367579 211.348633 
L 161.077711 212.085816 
L 161.810625 211.348633 
L 162.05493 210.119995 
L 162.05493 207.785583 
L 161.810625 207.294128 
L 161.077711 206.434081 
L 160.344797 205.451171 
L 159.367579 205.08258 
L 156.191619 204.959716 
L 155.458705 204.591124 
L 155.947314 203.608214 
L 155.947314 202.625304 
L 155.458705 202.133848 
L 154.481486 202.625304 
L 154.970096 203.362486 
L 154.481486 204.099669 
L 153.748572 204.836852 
L 153.259963 205.08258 
L 152.282745 204.836852 
L 151.794135 204.099669 
L 151.794135 203.48535 
L 151.061222 203.116759 
L 150.084003 202.379576 
L 150.328308 200.90521 
L 151.549831 199.9223 
L 153.748572 200.536619 
L 154.237182 199.676572 
L 153.992877 198.816526 
L 152.771354 197.219296 
L 153.504268 196.850705 
L 153.992877 196.113522 
L 154.237182 195.130612 
L 153.748572 194.147701 
L 152.771354 193.410519 
L 151.794135 193.533382 
L 151.061222 194.024838 
L 149.839698 194.147701 
L 149.839698 193.656246 
L 150.328308 193.287655 
L 150.572612 193.041927 
L 150.816917 192.181881 
L 149.839698 191.813289 
z
" clip-path="url(#pcb7a26bd5e)" style="fill: #e74c3c; stroke: #ffffff; stroke-width: 0.6"/>
    <path d="M 355.544193 249.559275 
L 359.697371 249.805003 
L 360.918894 249.559275 
L 362.384722 248.822093 
L 363.117636 247.962046 
L 364.339159 245.996225 
L 366.293596 243.538949 
L 367.02651 242.064584 
L 366.537901 240.467354 
L 365.804987 239.975899 
L 362.140418 238.501533 
L 357.01002 239.115852 
L 357.01002 238.37867 
L 357.254325 236.78144 
L 357.987239 235.307075 
L 359.453067 234.569892 
L 361.651808 234.2013 
L 362.140418 234.324164 
L 362.629027 234.692756 
L 363.117636 234.938483 
L 363.85055 235.061347 
L 364.583464 235.061347 
L 365.316378 234.815619 
L 365.804987 234.324164 
L 366.049292 233.586981 
L 366.293596 232.849799 
L 368.492338 232.112616 
L 373.622735 234.938483 
L 374.599953 235.061347 
L 375.088563 236.289985 
L 374.355649 237.641487 
L 373.622735 238.870125 
L 373.134126 240.221627 
L 373.134126 241.081673 
L 373.622735 243.047494 
L 374.599953 245.013315 
L 374.355649 245.873361 
L 373.37843 247.347727 
L 373.134126 248.207774 
L 373.37843 248.822093 
L 373.86704 249.06782 
L 374.599953 249.313548 
L 375.332867 249.682139 
L 376.065781 250.419322 
L 376.55439 250.787913 
L 378.264523 251.402232 
L 378.997437 251.525096 
L 379.730351 251.525096 
L 380.21896 251.64796 
L 380.463264 252.508007 
L 380.707569 252.876598 
L 381.196178 253.613781 
L 381.440483 253.982372 
L 380.707569 255.21101 
L 380.463264 255.948193 
L 380.463264 256.562512 
L 381.196178 257.299695 
L 381.929092 257.668286 
L 382.662006 257.668286 
L 383.39492 257.914014 
L 384.127834 258.651197 
L 385.349357 259.634107 
L 385.593662 260.617018 
L 383.39492 261.3542 
L 382.906311 262.459975 
L 382.906311 265.162978 
L 382.906311 266.637344 
L 382.417701 267.620254 
L 381.684788 268.234573 
L 380.463264 268.971756 
L 379.486046 268.480301 
L 377.775914 268.480301 
L 376.55439 267.865982 
L 375.821477 265.654433 
L 375.332867 265.408706 
L 374.355649 265.162978 
L 373.134126 264.917251 
L 372.645516 264.180068 
L 372.645516 262.95143 
L 372.156907 262.582838 
L 366.049292 261.968519 
L 364.094855 261.231337 
L 362.140418 259.756971 
L 360.67459 257.914014 
L 360.430285 257.422559 
L 360.430285 256.80824 
L 359.941676 256.193921 
L 358.720153 255.702465 
L 358.231544 254.965283 
L 358.231544 253.982372 
L 358.720153 252.999462 
L 356.032802 250.542186 
z
" clip-path="url(#pcb7a26bd5e)" style="fill: #e74c3c; stroke: #ffffff; stroke-width: 0.6"/>
    <path d="M 408.802601 283.838276 
L 410.024124 283.346821 
L 410.757038 283.101093 
L 411.734256 283.223957 
L 412.711475 283.346821 
L 414.421607 284.206867 
L 415.398826 284.452595 
L 416.620349 283.469684 
L 421.017832 280.398089 
L 421.262137 281.258136 
L 420.040614 283.223957 
L 419.552004 284.575459 
L 420.040614 285.804097 
L 420.773528 287.155598 
L 421.750746 288.261373 
L 422.48366 288.875692 
L 424.438097 289.367147 
L 426.881143 289.121419 
L 429.324189 288.261373 
L 431.278626 287.401326 
L 431.767236 288.875692 
L 431.767236 291.455831 
L 431.278626 294.281699 
L 430.301408 296.370384 
L 430.790017 299.687706 
L 430.545713 301.162072 
L 429.568494 301.899255 
L 428.83558 302.022118 
L 426.392534 302.759301 
L 424.438097 303.865075 
L 421.506441 303.619348 
L 419.063395 302.39071 
L 419.3077 300.302025 
L 417.841872 299.687706 
L 415.887435 299.319115 
L 414.177303 299.196251 
L 412.711475 299.81057 
L 412.46717 299.687706 
L 412.46717 299.441979 
L 412.222866 299.196251 
L 412.222866 298.82766 
L 412.95578 298.336204 
L 413.688693 297.599022 
L 414.421607 296.616111 
L 414.665912 295.387473 
L 414.177303 294.773154 
L 412.711475 293.053061 
L 412.222866 292.315878 
L 411.734256 291.08724 
L 411.489952 289.121419 
L 411.245647 287.892781 
L 410.757038 286.664143 
z
" clip-path="url(#pcb7a26bd5e)" style="fill: #e74c3c; stroke: #ffffff; stroke-width: 0.6"/>
    <path d="M 318.654194 234.078437 
L 319.875717 233.586981 
L 320.852936 232.849799 
L 322.563068 231.129705 
L 323.540287 229.532476 
L 324.028896 228.549566 
L 324.273201 227.320928 
L 324.273201 222.897831 
L 324.517505 221.792056 
L 325.250419 220.809146 
L 326.227638 219.33478 
L 326.960552 217.860415 
L 327.204856 216.508913 
L 326.960552 215.157411 
L 325.494724 213.314454 
L 325.006115 212.700135 
L 324.76181 212.822999 
L 324.273201 213.068727 
L 324.517505 212.454408 
L 325.250419 211.717225 
L 326.227638 211.22577 
L 327.204856 211.102906 
L 327.93777 211.471497 
L 328.426379 212.331544 
L 328.914989 213.314454 
L 329.403598 214.051637 
L 330.136512 214.665956 
L 331.846644 215.648866 
L 332.335253 216.140322 
L 331.846644 216.877504 
L 331.11373 217.123232 
L 329.159293 217.123232 
L 328.426379 217.36896 
L 327.693465 217.860415 
L 327.204856 218.597598 
L 327.204856 219.33478 
L 326.960552 219.580508 
L 325.983333 222.283512 
L 325.494724 223.143558 
L 325.494724 224.249333 
L 325.739028 226.338017 
L 325.983333 226.829472 
L 326.960552 226.829472 
L 328.914989 226.583745 
L 326.227638 231.621161 
L 325.250419 232.972662 
L 324.273201 233.709845 
L 322.563068 234.447028 
L 321.097241 234.938483 
L 319.631413 235.061347 
L 319.142804 234.569892 
z
" clip-path="url(#pcb7a26bd5e)" style="fill: #e74c3c; stroke: #ffffff; stroke-width: 0.6"/>
    <path d="M 338.442869 361.488198 
L 338.931478 360.505287 
L 339.420087 359.645241 
L 339.664392 358.908058 
L 339.664392 358.293739 
L 340.641611 357.67942 
L 341.374524 357.433692 
L 342.107438 357.433692 
L 342.840352 357.925148 
L 343.328961 358.66233 
L 343.328961 359.522377 
L 343.328961 360.013832 
L 342.840352 360.136696 
L 342.351743 359.645241 
L 341.863134 360.136696 
L 341.618829 360.382424 
L 340.641611 360.751015 
L 340.641611 361.119607 
L 341.863134 361.365334 
L 341.863134 361.856789 
L 341.13022 362.348245 
L 340.641611 362.348245 
L 340.153001 362.225381 
L 339.175783 361.979653 
z
" clip-path="url(#pcb7a26bd5e)" style="fill: #e74c3c; stroke: #ffffff; stroke-width: 0.6"/>
    <path d="M 382.417701 375.617535 
L 382.906311 373.774578 
L 382.906311 369.597209 
L 383.39492 368.122843 
L 384.616443 367.877116 
L 386.326575 368.245707 
L 388.281012 369.105754 
L 389.502536 370.088664 
L 390.235449 371.440166 
L 390.968363 372.177349 
L 391.701277 373.283123 
L 391.701277 375.12608 
L 390.968363 374.511761 
L 389.991145 372.791668 
L 389.502536 372.668804 
L 389.013926 373.160259 
L 389.013926 374.143169 
L 389.502536 375.863263 
L 388.525317 377.460492 
L 386.326575 377.214764 
z
" clip-path="url(#pcb7a26bd5e)" style="fill: #e74c3c; stroke: #ffffff; stroke-width: 0.6"/>
    <path d="M 146.175129 186.161554 
L 146.175129 185.670099 
L 146.663738 185.05578 
L 147.152348 183.335687 
L 147.640957 183.212823 
L 148.129566 183.704278 
L 148.86248 185.792963 
L 149.351089 186.653009 
L 149.595394 187.390192 
L 149.595394 188.004511 
L 149.351089 188.61883 
L 149.106785 189.233149 
L 148.618175 188.127375 
L 147.396652 188.495966 
L 146.908043 188.004511 
z
" clip-path="url(#pcb7a26bd5e)" style="fill: #e74c3c; stroke: #ffffff; stroke-width: 0.6"/>
    <path d="M 124.432017 156.674242 
L 124.920627 155.814196 
L 125.897845 156.428515 
L 126.630759 157.411425 
L 128.096587 160.851611 
L 128.585196 163.186024 
L 128.829501 164.291798 
L 129.806719 165.520436 
L 129.806719 166.011891 
L 128.096587 167.731984 
L 126.14215 163.06316 
L 125.897845 161.46593 
L 125.897845 158.517199 
L 125.409236 157.411425 
z
" clip-path="url(#pcb7a26bd5e)" style="fill: #e74c3c; stroke: #ffffff; stroke-width: 0.6"/>
    <path d="M 312.790883 236.044257 
L 313.279493 235.675666 
L 313.768102 235.552802 
L 314.256711 235.429938 
L 314.989625 235.552802 
L 315.478234 235.429938 
L 317.432671 235.552802 
L 316.944062 236.167121 
L 316.211148 236.535713 
L 314.501016 237.027168 
L 314.256711 236.658576 
L 313.768102 236.412849 
L 313.279493 236.167121 
z
" clip-path="url(#pcb7a26bd5e)" style="fill: #e74c3c; stroke: #ffffff; stroke-width: 0.6"/>
    <path d="M 161.56632 190.830379 
L 161.56632 187.63592 
L 162.05493 187.63592 
L 164.986585 191.690425 
L 165.719499 193.164791 
L 166.696718 194.639157 
L 165.475194 194.393429 
L 163.520757 193.287655 
L 162.05493 192.181881 
z
" clip-path="url(#pcb7a26bd5e)" style="fill: #e74c3c; stroke: #ffffff; stroke-width: 0.6"/>
    <path d="M 648.465438 353.993506 
L 648.709743 353.747778 
L 648.954047 353.870642 
L 648.709743 354.11637 
z
" clip-path="url(#pcb7a26bd5e)" style="fill: #e74c3c; stroke: #ffffff; stroke-width: 0.6"/>
   </g>
   <g id="text_1">
    <!-- New Caledonia -->
    <g style="fill: #1a252f" transform="translate(315.723345 20.117344) scale(0.17 -0.17)">
     <defs>
      <path id="DejaVuSans-Bold-31" d="M 588 4666 
L 1931 4666 
L 3628 1466 
L 3628 4666 
L 4769 4666 
L 4769 0 
L 3425 0 
L 1728 3200 
L 1728 0 
L 588 0 
L 588 4666 
z
" transform="scale(0.015625)"/>
      <path id="DejaVuSans-Bold-48" d="M 4031 1759 
L 4031 1441 
L 1416 1441 
Q 1456 1047 1700 850 
Q 1944 653 2381 653 
Q 2734 653 3104 758 
Q 3475 863 3866 1075 
L 3866 213 
Q 3469 63 3072 -14 
Q 2675 -91 2278 -91 
Q 1328 -91 801 392 
Q 275 875 275 1747 
Q 275 2603 792 3093 
Q 1309 3584 2216 3584 
Q 3041 3584 3536 3087 
Q 4031 2591 4031 1759 
z
M 2881 2131 
Q 2881 2450 2695 2645 
Q 2509 2841 2209 2841 
Q 1884 2841 1681 2658 
Q 1478 2475 1428 2131 
L 2881 2131 
z
" transform="scale(0.015625)"/>
      <path id="DejaVuSans-Bold-5a" d="M 225 3500 
L 1313 3500 
L 1900 1088 
L 2491 3500 
L 3425 3500 
L 4013 1113 
L 4603 3500 
L 5691 3500 
L 4769 0 
L 3547 0 
L 2956 2406 
L 2369 0 
L 1147 0 
L 225 3500 
z
" transform="scale(0.015625)"/>
      <path id="DejaVuSans-Bold-3" transform="scale(0.015625)"/>
      <path id="DejaVuSans-Bold-26" d="M 4288 256 
Q 3956 84 3597 -3 
Q 3238 -91 2847 -91 
Q 1681 -91 1000 561 
Q 319 1213 319 2328 
Q 319 3447 1000 4098 
Q 1681 4750 2847 4750 
Q 3238 4750 3597 4662 
Q 3956 4575 4288 4403 
L 4288 3438 
Q 3953 3666 3628 3772 
Q 3303 3878 2944 3878 
Q 2300 3878 1931 3465 
Q 1563 3053 1563 2328 
Q 1563 1606 1931 1193 
Q 2300 781 2944 781 
Q 3303 781 3628 887 
Q 3953 994 4288 1222 
L 4288 256 
z
" transform="scale(0.015625)"/>
      <path id="DejaVuSans-Bold-44" d="M 2106 1575 
Q 1756 1575 1579 1456 
Q 1403 1338 1403 1106 
Q 1403 894 1545 773 
Q 1688 653 1941 653 
Q 2256 653 2472 879 
Q 2688 1106 2688 1447 
L 2688 1575 
L 2106 1575 
z
M 3816 1997 
L 3816 0 
L 2688 0 
L 2688 519 
Q 2463 200 2181 54 
Q 1900 -91 1497 -91 
Q 953 -91 614 226 
Q 275 544 275 1050 
Q 275 1666 698 1953 
Q 1122 2241 2028 2241 
L 2688 2241 
L 2688 2328 
Q 2688 2594 2478 2717 
Q 2269 2841 1825 2841 
Q 1466 2841 1156 2769 
Q 847 2697 581 2553 
L 581 3406 
Q 941 3494 1303 3539 
Q 1666 3584 2028 3584 
Q 2975 3584 3395 3211 
Q 3816 2838 3816 1997 
z
" transform="scale(0.015625)"/>
      <path id="DejaVuSans-Bold-4f" d="M 538 4863 
L 1656 4863 
L 1656 0 
L 538 0 
L 538 4863 
z
" transform="scale(0.015625)"/>
      <path id="DejaVuSans-Bold-47" d="M 2919 2988 
L 2919 4863 
L 4044 4863 
L 4044 0 
L 2919 0 
L 2919 506 
Q 2688 197 2409 53 
Q 2131 -91 1766 -91 
Q 1119 -91 703 423 
Q 288 938 288 1747 
Q 288 2556 703 3070 
Q 1119 3584 1766 3584 
Q 2128 3584 2408 3439 
Q 2688 3294 2919 2988 
z
M 2181 722 
Q 2541 722 2730 984 
Q 2919 1247 2919 1747 
Q 2919 2247 2730 2509 
Q 2541 2772 2181 2772 
Q 1825 2772 1636 2509 
Q 1447 2247 1447 1747 
Q 1447 1247 1636 984 
Q 1825 722 2181 722 
z
" transform="scale(0.015625)"/>
      <path id="DejaVuSans-Bold-52" d="M 2203 2784 
Q 1831 2784 1636 2517 
Q 1441 2250 1441 1747 
Q 1441 1244 1636 976 
Q 1831 709 2203 709 
Q 2569 709 2762 976 
Q 2956 1244 2956 1747 
Q 2956 2250 2762 2517 
Q 2569 2784 2203 2784 
z
M 2203 3584 
Q 3106 3584 3614 3096 
Q 4122 2609 4122 1747 
Q 4122 884 3614 396 
Q 3106 -91 2203 -91 
Q 1297 -91 786 396 
Q 275 884 275 1747 
Q 275 2609 786 3096 
Q 1297 3584 2203 3584 
z
" transform="scale(0.015625)"/>
      <path id="DejaVuSans-Bold-51" d="M 4056 2131 
L 4056 0 
L 2931 0 
L 2931 347 
L 2931 1631 
Q 2931 2084 2911 2256 
Q 2891 2428 2841 2509 
Q 2775 2619 2662 2680 
Q 2550 2741 2406 2741 
Q 2056 2741 1856 2470 
Q 1656 2200 1656 1722 
L 1656 0 
L 538 0 
L 538 3500 
L 1656 3500 
L 1656 2988 
Q 1909 3294 2193 3439 
Q 2478 3584 2822 3584 
Q 3428 3584 3742 3212 
Q 4056 2841 4056 2131 
z
" transform="scale(0.015625)"/>
      <path id="DejaVuSans-Bold-4c" d="M 538 3500 
L 1656 3500 
L 1656 0 
L 538 0 
L 538 3500 
z
M 538 4863 
L 1656 4863 
L 1656 3950 
L 538 3950 
L 538 4863 
z
" transform="scale(0.015625)"/>
     </defs>
     <use xlink:href="#DejaVuSans-Bold-31"/>
     <use xlink:href="#DejaVuSans-Bold-48" transform="translate(83.6875 0)"/>
     <use xlink:href="#DejaVuSans-Bold-5a" transform="translate(151.515625 0)"/>
     <use xlink:href="#DejaVuSans-Bold-3" transform="translate(243.90625 0)"/>
     <use xlink:href="#DejaVuSans-Bold-26" transform="translate(278.71875 0)"/>
     <use xlink:href="#DejaVuSans-Bold-44" transform="translate(352.109375 0)"/>
     <use xlink:href="#DejaVuSans-Bold-4f" transform="translate(419.59375 0)"/>
     <use xlink:href="#DejaVuSans-Bold-48" transform="translate(453.875 0)"/>
     <use xlink:href="#DejaVuSans-Bold-47" transform="translate(521.703125 0)"/>
     <use xlink:href="#DejaVuSans-Bold-52" transform="translate(593.28125 0)"/>
     <use xlink:href="#DejaVuSans-Bold-51" transform="translate(661.984375 0)"/>
     <use xlink:href="#DejaVuSans-Bold-4c" transform="translate(733.171875 0)"/>
     <use xlink:href="#DejaVuSans-Bold-44" transform="translate(767.453125 0)"/>
    </g>
   </g>
   <g id="legend_1">
    <g id="patch_2">
     <path d="M 13.5 498.657344 
L 109.569375 498.657344 
Q 111.369375 498.657344 111.369375 496.857344 
L 111.369375 470.755937 
Q 111.369375 468.955937 109.569375 468.955937 
L 13.5 468.955937 
Q 11.7 468.955937 11.7 470.755937 
L 11.7 496.857344 
Q 11.7 498.657344 13.5 498.657344 
z
" style="fill: #ffffff; opacity: 0.85; stroke: #cccccc; stroke-linejoin: miter"/>
    </g>
    <g id="patch_3">
     <path d="M 15.3 479.394531 
L 33.3 479.394531 
L 33.3 473.094531 
L 15.3 473.094531 
z
" style="fill: #e74c3c; stroke: #888888; stroke-linejoin: miter"/>
    </g>
    <g id="text_2">
     <!-- New Caledonia -->
     <g transform="translate(40.5 479.394531) scale(0.09 -0.09)">
      <defs>
       <path id="DejaVuSans-31" d="M 628 4666 
L 1478 4666 
L 3547 763 
L 3547 4666 
L 4159 4666 
L 4159 0 
L 3309 0 
L 1241 3903 
L 1241 0 
L 628 0 
L 628 4666 
z
" transform="scale(0.015625)"/>
       <path id="DejaVuSans-48" d="M 3597 1894 
L 3597 1613 
L 953 1613 
Q 991 1019 1311 708 
Q 1631 397 2203 397 
Q 2534 397 2845 478 
Q 3156 559 3463 722 
L 3463 178 
Q 3153 47 2828 -22 
Q 2503 -91 2169 -91 
Q 1331 -91 842 396 
Q 353 884 353 1716 
Q 353 2575 817 3079 
Q 1281 3584 2069 3584 
Q 2775 3584 3186 3129 
Q 3597 2675 3597 1894 
z
M 3022 2063 
Q 3016 2534 2758 2815 
Q 2500 3097 2075 3097 
Q 1594 3097 1305 2825 
Q 1016 2553 972 2059 
L 3022 2063 
z
" transform="scale(0.015625)"/>
       <path id="DejaVuSans-5a" d="M 269 3500 
L 844 3500 
L 1563 769 
L 2278 3500 
L 2956 3500 
L 3675 769 
L 4391 3500 
L 4966 3500 
L 4050 0 
L 3372 0 
L 2619 2869 
L 1863 0 
L 1184 0 
L 269 3500 
z
" transform="scale(0.015625)"/>
       <path id="DejaVuSans-3" transform="scale(0.015625)"/>
       <path id="DejaVuSans-26" d="M 4122 4306 
L 4122 3641 
Q 3803 3938 3442 4084 
Q 3081 4231 2675 4231 
Q 1875 4231 1450 3742 
Q 1025 3253 1025 2328 
Q 1025 1406 1450 917 
Q 1875 428 2675 428 
Q 3081 428 3442 575 
Q 3803 722 4122 1019 
L 4122 359 
Q 3791 134 3420 21 
Q 3050 -91 2638 -91 
Q 1578 -91 968 557 
Q 359 1206 359 2328 
Q 359 3453 968 4101 
Q 1578 4750 2638 4750 
Q 3056 4750 3426 4639 
Q 3797 4528 4122 4306 
z
" transform="scale(0.015625)"/>
       <path id="DejaVuSans-44" d="M 2194 1759 
Q 1497 1759 1228 1600 
Q 959 1441 959 1056 
Q 959 750 1161 570 
Q 1363 391 1709 391 
Q 2188 391 2477 730 
Q 2766 1069 2766 1631 
L 2766 1759 
L 2194 1759 
z
M 3341 1997 
L 3341 0 
L 2766 0 
L 2766 531 
Q 2569 213 2275 61 
Q 1981 -91 1556 -91 
Q 1019 -91 701 211 
Q 384 513 384 1019 
Q 384 1609 779 1909 
Q 1175 2209 1959 2209 
L 2766 2209 
L 2766 2266 
Q 2766 2663 2505 2880 
Q 2244 3097 1772 3097 
Q 1472 3097 1187 3025 
Q 903 2953 641 2809 
L 641 3341 
Q 956 3463 1253 3523 
Q 1550 3584 1831 3584 
Q 2591 3584 2966 3190 
Q 3341 2797 3341 1997 
z
" transform="scale(0.015625)"/>
       <path id="DejaVuSans-4f" d="M 603 4863 
L 1178 4863 
L 1178 0 
L 603 0 
L 603 4863 
z
" transform="scale(0.015625)"/>
       <path id="DejaVuSans-47" d="M 2906 2969 
L 2906 4863 
L 3481 4863 
L 3481 0 
L 2906 0 
L 2906 525 
Q 2725 213 2448 61 
Q 2172 -91 1784 -91 
Q 1150 -91 751 415 
Q 353 922 353 1747 
Q 353 2572 751 3078 
Q 1150 3584 1784 3584 
Q 2172 3584 2448 3432 
Q 2725 3281 2906 2969 
z
M 947 1747 
Q 947 1113 1208 752 
Q 1469 391 1925 391 
Q 2381 391 2643 752 
Q 2906 1113 2906 1747 
Q 2906 2381 2643 2742 
Q 2381 3103 1925 3103 
Q 1469 3103 1208 2742 
Q 947 2381 947 1747 
z
" transform="scale(0.015625)"/>
       <path id="DejaVuSans-52" d="M 1959 3097 
Q 1497 3097 1228 2736 
Q 959 2375 959 1747 
Q 959 1119 1226 758 
Q 1494 397 1959 397 
Q 2419 397 2687 759 
Q 2956 1122 2956 1747 
Q 2956 2369 2687 2733 
Q 2419 3097 1959 3097 
z
M 1959 3584 
Q 2709 3584 3137 3096 
Q 3566 2609 3566 1747 
Q 3566 888 3137 398 
Q 2709 -91 1959 -91 
Q 1206 -91 779 398 
Q 353 888 353 1747 
Q 353 2609 779 3096 
Q 1206 3584 1959 3584 
z
" transform="scale(0.015625)"/>
       <path id="DejaVuSans-51" d="M 3513 2113 
L 3513 0 
L 2938 0 
L 2938 2094 
Q 2938 2591 2744 2837 
Q 2550 3084 2163 3084 
Q 1697 3084 1428 2787 
Q 1159 2491 1159 1978 
L 1159 0 
L 581 0 
L 581 3500 
L 1159 3500 
L 1159 2956 
Q 1366 3272 1645 3428 
Q 1925 3584 2291 3584 
Q 2894 3584 3203 3211 
Q 3513 2838 3513 2113 
z
" transform="scale(0.015625)"/>
       <path id="DejaVuSans-4c" d="M 603 3500 
L 1178 3500 
L 1178 0 
L 603 0 
L 603 3500 
z
M 603 4863 
L 1178 4863 
L 1178 4134 
L 603 4134 
L 603 4863 
z
" transform="scale(0.015625)"/>
      </defs>
      <use xlink:href="#DejaVuSans-31"/>
      <use xlink:href="#DejaVuSans-48" transform="translate(74.8125 0)"/>
      <use xlink:href="#DejaVuSans-5a" transform="translate(136.34375 0)"/>
      <use xlink:href="#DejaVuSans-3" transform="translate(218.125 0)"/>
      <use xlink:href="#DejaVuSans-26" transform="translate(249.90625 0)"/>
      <use xlink:href="#DejaVuSans-44" transform="translate(319.734375 0)"/>
      <use xlink:href="#DejaVuSans-4f" transform="translate(381.015625 0)"/>
      <use xlink:href="#DejaVuSans-48" transform="translate(408.796875 0)"/>
      <use xlink:href="#DejaVuSans-47" transform="translate(470.328125 0)"/>
      <use xlink:href="#DejaVuSans-52" transform="translate(533.8125 0)"/>
      <use xlink:href="#DejaVuSans-51" transform="translate(595 0)"/>
      <use xlink:href="#DejaVuSans-4c" transform="translate(658.375 0)"/>
      <use xlink:href="#DejaVuSans-44" transform="translate(686.15625 0)"/>
     </g>
    </g>
    <g id="patch_4">
     <path d="M 15.3 492.895234 
L 33.3 492.895234 
L 33.3 486.595234 
L 15.3 486.595234 
z
" style="fill: #bdc3c7; stroke: #888888; stroke-linejoin: miter"/>
    </g>
    <g id="text_3">
     <!-- Neighbors -->
     <g transform="translate(40.5 492.895234) scale(0.09 -0.09)">
      <defs>
       <path id="DejaVuSans-4a" d="M 2906 1791 
Q 2906 2416 2648 2759 
Q 2391 3103 1925 3103 
Q 1463 3103 1205 2759 
Q 947 2416 947 1791 
Q 947 1169 1205 825 
Q 1463 481 1925 481 
Q 2391 481 2648 825 
Q 2906 1169 2906 1791 
z
M 3481 434 
Q 3481 -459 3084 -895 
Q 2688 -1331 1869 -1331 
Q 1566 -1331 1297 -1286 
Q 1028 -1241 775 -1147 
L 775 -588 
Q 1028 -725 1275 -790 
Q 1522 -856 1778 -856 
Q 2344 -856 2625 -561 
Q 2906 -266 2906 331 
L 2906 616 
Q 2728 306 2450 153 
Q 2172 0 1784 0 
Q 1141 0 747 490 
Q 353 981 353 1791 
Q 353 2603 747 3093 
Q 1141 3584 1784 3584 
Q 2172 3584 2450 3431 
Q 2728 3278 2906 2969 
L 2906 3500 
L 3481 3500 
L 3481 434 
z
" transform="scale(0.015625)"/>
       <path id="DejaVuSans-4b" d="M 3513 2113 
L 3513 0 
L 2938 0 
L 2938 2094 
Q 2938 2591 2744 2837 
Q 2550 3084 2163 3084 
Q 1697 3084 1428 2787 
Q 1159 2491 1159 1978 
L 1159 0 
L 581 0 
L 581 4863 
L 1159 4863 
L 1159 2956 
Q 1366 3272 1645 3428 
Q 1925 3584 2291 3584 
Q 2894 3584 3203 3211 
Q 3513 2838 3513 2113 
z
" transform="scale(0.015625)"/>
       <path id="DejaVuSans-45" d="M 3116 1747 
Q 3116 2381 2855 2742 
Q 2594 3103 2138 3103 
Q 1681 3103 1420 2742 
Q 1159 2381 1159 1747 
Q 1159 1113 1420 752 
Q 1681 391 2138 391 
Q 2594 391 2855 752 
Q 3116 1113 3116 1747 
z
M 1159 2969 
Q 1341 3281 1617 3432 
Q 1894 3584 2278 3584 
Q 2916 3584 3314 3078 
Q 3713 2572 3713 1747 
Q 3713 922 3314 415 
Q 2916 -91 2278 -91 
Q 1894 -91 1617 61 
Q 1341 213 1159 525 
L 1159 0 
L 581 0 
L 581 4863 
L 1159 4863 
L 1159 2969 
z
" transform="scale(0.015625)"/>
       <path id="DejaVuSans-55" d="M 2631 2963 
Q 2534 3019 2420 3045 
Q 2306 3072 2169 3072 
Q 1681 3072 1420 2755 
Q 1159 2438 1159 1844 
L 1159 0 
L 581 0 
L 581 3500 
L 1159 3500 
L 1159 2956 
Q 1341 3275 1631 3429 
Q 1922 3584 2338 3584 
Q 2397 3584 2469 3576 
Q 2541 3569 2628 3553 
L 2631 2963 
z
" transform="scale(0.015625)"/>
       <path id="DejaVuSans-56" d="M 2834 3397 
L 2834 2853 
Q 2591 2978 2328 3040 
Q 2066 3103 1784 3103 
Q 1356 3103 1142 2972 
Q 928 2841 928 2578 
Q 928 2378 1081 2264 
Q 1234 2150 1697 2047 
L 1894 2003 
Q 2506 1872 2764 1633 
Q 3022 1394 3022 966 
Q 3022 478 2636 193 
Q 2250 -91 1575 -91 
Q 1294 -91 989 -36 
Q 684 19 347 128 
L 347 722 
Q 666 556 975 473 
Q 1284 391 1588 391 
Q 1994 391 2212 530 
Q 2431 669 2431 922 
Q 2431 1156 2273 1281 
Q 2116 1406 1581 1522 
L 1381 1569 
Q 847 1681 609 1914 
Q 372 2147 372 2553 
Q 372 3047 722 3315 
Q 1072 3584 1716 3584 
Q 2034 3584 2315 3537 
Q 2597 3491 2834 3397 
z
" transform="scale(0.015625)"/>
      </defs>
      <use xlink:href="#DejaVuSans-31"/>
      <use xlink:href="#DejaVuSans-48" transform="translate(74.8125 0)"/>
      <use xlink:href="#DejaVuSans-4c" transform="translate(136.34375 0)"/>
      <use xlink:href="#DejaVuSans-4a" transform="translate(164.125 0)"/>
      <use xlink:href="#DejaVuSans-4b" transform="translate(227.609375 0)"/>
      <use xlink:href="#DejaVuSans-45" transform="translate(290.984375 0)"/>
      <use xlink:href="#DejaVuSans-52" transform="translate(354.46875 0)"/>
      <use xlink:href="#DejaVuSans-55" transform="translate(415.65625 0)"/>
      <use xlink:href="#DejaVuSans-56" transform="translate(456.765625 0)"/>
     </g>
    </g>
   </g>
  </g>
 </g>
 <defs>
  <clipPath id="pcb7a26bd5e">
   <rect x="7.2" y="30.117344" width="758.986065" height="473.04"/>
  </clipPath>
 </defs>
</svg>
