<?xml version="1.0" encoding="utf-8" standalone="no"?>
<!DOCTYPE svg PUBLIC "-//W3C//DTD SVG 1.1//EN"
  "http://www.w3.org/Graphics/SVG/1.1/DTD/svg11.dtd">
<svg xmlns:xlink="http://www.w3.org/1999/xlink" width="421.591944pt" height="510.357344pt" viewBox="0 0 421.591944 510.357344" xmlns="http://www.w3.org/2000/svg" version="1.1">
 <metadata>
  <rdf:RDF xmlns:dc="http://purl.org/dc/elements/1.1/" xmlns:cc="http://creativecommons.org/ns#" xmlns:rdf="http://www.w3.org/1999/02/22-rdf-syntax-ns#">
   <cc:Work>
    <dc:type rdf:resource="http://purl.org/dc/dcmitype/StillImage"/>
    <dc:date>2026-06-19T08:13:51.100905</dc:date>
    <dc:format>image/svg+xml</dc:format>
    <dc:creator>
     <cc:Agent>
      <dc:title>Matplotlib v3.11.0, https://matplotlib.org/</dc:title>
     </cc:Agent>
    </dc:creator>
   </cc:Work>
  </rdf:RDF>
 </metadata>
 <defs>
  <style type="text/css">*{stroke-linejoin: round; stroke-linecap: butt}</style>
 </defs>
 <g id="figure_1">
  <g id="patch_1">
   <path d="M 0 510.357344 
L 421.591944 510.357344 
L 421.591944 0 
L 0 0 
z
" style="fill: #d6eaf8"/>
  </g>
  <g id="axes_1">
   <g id="PatchCollection_1">
    <path d="M 132.295368 363.1559 
L 134.069393 361.441103 
L 140.721987 356.786655 
L 144.713543 351.887236 
L 145.157049 349.437527 
L 144.270037 344.538108 
L 144.270037 342.088398 
L 146.931074 336.944008 
L 160.679767 323.470605 
L 162.453792 322.245751 
L 162.897299 322.245751 
L 166.888855 318.571186 
L 166.888855 315.386564 
L 164.671324 312.446912 
L 161.123274 309.26229 
L 162.010286 306.81258 
L 165.11483 302.893045 
L 175.758979 284.030282 
L 176.645992 282.805427 
L 183.742092 267.127286 
L 186.846635 259.533186 
L 189.507673 255.858622 
L 193.055723 243.120132 
L 193.499229 242.385219 
L 193.055723 240.915393 
L 193.055723 240.180481 
L 194.829748 239.200597 
L 205.030391 208.089285 
L 209.021947 186.531841 
L 213.013503 167.424107 
L 213.900516 166.199252 
L 214.344022 159.585036 
L 215.231034 157.625269 
L 214.787528 155.665501 
L 217.892072 143.661924 
L 218.335578 130.678464 
L 219.22259 127.738812 
L 220.996615 126.758928 
L 222.77064 127.24887 
L 225.431678 128.718696 
L 227.205703 129.208638 
L 228.092715 128.963667 
L 232.527777 124.309219 
L 232.971284 123.084364 
L 234.301802 119.4098 
L 234.745309 117.450032 
L 234.301802 115.735235 
L 232.971284 115.000322 
L 233.41479 112.795584 
L 234.301802 103.976629 
L 236.075827 99.322181 
L 236.519334 96.38253 
L 236.075827 93.93282 
L 236.519334 93.442878 
L 237.406346 92.462995 
L 237.849852 91.973053 
L 236.96284 90.993169 
L 237.849852 90.993169 
L 247.606989 91.728082 
L 248.050496 91.483111 
L 249.381014 90.258256 
L 250.268027 90.013285 
L 251.155039 90.013285 
L 252.929064 90.503227 
L 253.816077 90.503227 
L 258.251139 89.033401 
L 259.581658 89.033401 
L 260.46867 89.523343 
L 260.912176 89.768314 
L 262.686201 90.748198 
L 263.573214 92.218024 
L 264.460226 93.93282 
L 265.790745 95.402646 
L 267.56477 95.647617 
L 274.217364 93.93282 
L 279.982945 91.483111 
L 283.974501 90.993169 
L 284.418007 88.78843 
L 287.079044 84.868895 
L 287.966057 82.419185 
L 288.409563 78.744621 
L 288.853069 71.640463 
L 289.740082 68.455841 
L 291.0706 66.496073 
L 291.514107 64.291335 
L 292.401119 63.06648 
L 294.175144 62.821509 
L 294.61865 63.801393 
L 296.836181 67.230986 
L 298.610206 68.455841 
L 299.053713 68.945783 
L 299.497219 68.455841 
L 299.053713 65.76116 
L 299.940725 64.536306 
L 301.71475 64.291335 
L 303.932281 63.801393 
L 306.149812 61.841625 
L 311.028381 56.942206 
L 313.245912 56.452264 
L 314.576431 56.207293 
L 316.350456 55.717351 
L 318.124481 54.982438 
L 319.454999 54.002555 
L 321.672531 51.797816 
L 323.890062 46.898397 
L 326.107593 44.693658 
L 326.107593 45.673542 
L 325.664087 46.408455 
L 325.22058 48.858164 
L 324.777074 49.593077 
L 324.777074 51.552845 
L 322.559543 53.022671 
L 321.672531 54.002555 
L 319.011493 55.227409 
L 323.446556 58.412032 
L 319.454999 64.291335 
L 320.342012 65.271218 
L 323.890062 67.720928 
L 324.333568 74.580115 
L 326.994605 76.294911 
L 327.438112 80.459418 
L 326.107593 83.154098 
L 324.777074 85.358837 
L 324.777074 87.563575 
L 329.212137 89.523343 
L 329.212137 91.483111 
L 330.542655 105.201484 
L 331.429668 106.916281 
L 334.090705 111.8157 
L 332.31668 115.000322 
L 331.429668 115.245293 
L 329.655643 118.919858 
L 327.881618 123.329335 
L 328.325124 125.044132 
L 327.438112 128.718696 
L 321.229024 136.067825 
L 318.124481 140.967244 
L 315.90695 141.457186 
L 309.254356 145.621692 
L 305.2628 149.296256 
L 303.045269 150.27614 
L 300.384231 150.031169 
L 298.1667 151.500995 
L 295.949169 153.950704 
L 295.062157 154.930588 
L 294.175144 155.42053 
L 293.731638 155.910472 
L 293.731638 157.135327 
L 294.175144 158.115211 
L 295.505663 158.850123 
L 295.505663 159.585036 
L 294.61865 159.585036 
L 294.61865 160.809891 
L 295.062157 162.034746 
L 295.505663 165.70931 
L 296.392675 167.669078 
L 295.949169 168.403991 
L 295.505663 168.403991 
L 295.505663 168.15902 
L 295.505663 167.669078 
L 295.062157 168.15902 
L 294.61865 169.628845 
L 293.731638 168.648962 
L 294.175144 171.588613 
L 294.61865 172.568497 
L 292.844625 172.568497 
L 292.844625 173.548381 
L 293.288132 173.548381 
L 294.175144 173.548381 
L 295.062157 174.773236 
L 295.062157 175.508148 
L 296.392675 176.733003 
L 296.392675 177.467916 
L 295.062157 177.957858 
L 294.61865 178.692771 
L 294.175144 179.672655 
L 293.731638 180.652538 
L 294.175144 180.897509 
L 294.61865 181.14248 
L 294.61865 181.387451 
L 295.505663 181.632422 
L 295.505663 182.612306 
L 294.61865 183.102248 
L 293.731638 183.59219 
L 294.61865 184.572074 
L 292.844625 185.551958 
L 293.288132 185.796929 
L 293.731638 185.796929 
L 293.731638 186.531841 
L 292.844625 186.531841 
L 292.844625 187.511725 
L 293.731638 188.246638 
L 293.731638 188.73658 
L 293.288132 189.226522 
L 291.957613 189.471493 
L 292.401119 190.941319 
L 292.844625 191.43126 
L 293.288132 192.166173 
L 293.731638 193.146057 
L 283.974501 190.451377 
L 280.869957 189.716464 
L 278.20892 189.716464 
L 275.104376 188.73658 
L 274.217364 185.062016 
L 274.217364 180.652538 
L 273.330351 177.222945 
L 269.338795 174.773236 
L 265.790745 174.528265 
L 258.251139 174.773236 
L 256.033608 174.038323 
L 252.485558 171.098671 
L 250.711533 170.363758 
L 250.711533 170.118787 
L 248.494002 170.363758 
L 246.719977 171.588613 
L 243.615433 175.263177 
L 239.623877 177.467916 
L 236.075827 179.427684 
L 232.527777 181.632422 
L 230.310246 185.796929 
L 228.979728 193.391028 
L 228.536221 195.840738 
L 227.649209 198.780389 
L 227.205703 199.270331 
L 225.431678 199.760273 
L 224.988171 200.250215 
L 224.544665 201.965012 
L 224.101159 206.61946 
L 223.657653 208.579227 
L 224.988171 209.069169 
L 225.875184 210.049053 
L 226.31869 211.518879 
L 225.875184 213.478646 
L 224.988171 215.193443 
L 220.109603 219.60292 
L 218.335578 221.807659 
L 218.335578 223.032514 
L 220.109603 227.686962 
L 220.996615 230.136671 
L 222.327134 243.855045 
L 222.327134 246.549725 
L 222.327134 249.734348 
L 222.327134 249.979319 
L 222.327134 250.469261 
L 222.327134 250.959203 
L 222.327134 251.449145 
L 222.327134 251.939086 
L 221.883628 256.348564 
L 224.101159 261.982896 
L 225.875184 266.882315 
L 222.327134 268.842082 
L 219.22259 270.066937 
L 218.335578 272.026705 
L 217.892072 272.516647 
L 219.22259 274.966356 
L 223.214147 275.701269 
L 225.431678 275.701269 
L 226.31869 275.456298 
L 227.205703 274.721385 
L 229.423234 272.516647 
L 230.310246 271.781734 
L 232.084271 272.271676 
L 238.736865 275.211327 
L 247.163483 277.171095 
L 249.381014 278.640921 
L 250.268027 280.355717 
L 250.268027 282.805427 
L 250.268027 285.990049 
L 249.824521 286.724962 
L 249.381014 286.969933 
L 248.494002 286.724962 
L 248.050496 285.990049 
L 240.51089 287.704846 
L 237.849852 288.68473 
L 235.632321 290.644497 
L 231.640765 295.053975 
L 221.440122 302.403103 
L 219.22259 305.097784 
L 219.22259 305.587726 
L 217.005059 309.507261 
L 216.561553 313.426796 
L 216.561553 317.591302 
L 215.674541 322.245751 
L 210.352466 331.554647 
L 208.578441 336.454066 
L 209.90896 341.353485 
L 212.569997 343.313253 
L 215.674541 343.803195 
L 219.22259 343.313253 
L 222.327134 342.333369 
L 229.86674 341.353485 
L 244.945952 341.353485 
L 252.485558 338.658805 
L 265.790745 327.390141 
L 272.886845 323.225634 
L 281.313463 322.490722 
L 281.313463 322.735693 
L 281.313463 331.064705 
L 281.313463 332.534531 
L 280.426451 335.719153 
L 278.20892 341.598456 
L 275.991388 345.762962 
L 276.878401 346.742846 
L 276.878401 349.927469 
L 275.104376 353.112091 
L 273.773857 356.541684 
L 274.217364 360.46122 
L 275.547882 364.380755 
L 276.878401 367.075435 
L 278.652426 370.75 
L 279.539438 374.669535 
L 278.652426 378.834041 
L 272.886845 390.347676 
L 272.443339 394.757153 
L 272.443339 399.166631 
L 271.11282 401.861311 
L 267.56477 405.045933 
L 266.234251 406.515759 
L 264.460226 409.945353 
L 264.01672 413.129975 
L 264.460226 416.559568 
L 264.01672 419.744191 
L 263.129708 420.969046 
L 260.912176 422.928813 
L 260.025164 424.153668 
L 259.138152 425.868465 
L 258.694645 427.33829 
L 258.251139 431.012855 
L 257.364127 434.687419 
L 250.268027 449.385676 
L 244.945952 467.268556 
L 244.05894 470.69815 
L 242.284915 476.577452 
L 242.284915 480.007046 
L 242.728421 481.476872 
L 244.502446 484.416523 
L 244.945952 486.621262 
L 244.502446 488.581029 
L 244.05894 490.050855 
L 243.171927 491.765652 
L 242.284915 493.480448 
L 240.954396 501.074548 
L 240.067383 503.524258 
L 240.067383 507.688764 
L 242.728421 516.507718 
L 242.728421 521.162166 
L 240.51089 526.061585 
L 235.632321 534.145627 
L 233.858296 539.779959 
L 233.858296 541.494756 
L 233.41479 542.71961 
L 232.971284 543.944465 
L 232.527777 545.16932 
L 231.640765 550.068739 
L 231.197259 558.887693 
L 230.753753 561.827345 
L 224.988171 577.750457 
L 224.101159 581.425021 
L 223.657653 589.509063 
L 222.327134 593.183627 
L 220.553109 595.878308 
L 219.666097 599.06293 
L 219.22259 602.982465 
L 218.779084 604.942233 
L 217.892072 606.167088 
L 216.118047 608.861768 
L 214.787528 610.576565 
L 214.344022 611.556449 
L 214.344022 612.536333 
L 213.900516 613.026275 
L 213.013503 613.026275 
L 211.682984 613.026275 
L 210.795972 613.026275 
L 209.90896 610.821536 
L 206.804416 604.942233 
L 205.917403 601.51264 
L 206.36091 591.46883 
L 203.256366 576.525602 
L 198.377797 562.807229 
L 193.055723 547.619029 
L 192.16871 539.779959 
L 192.16871 538.800075 
L 192.16871 538.065162 
L 192.16871 537.085278 
L 191.725204 536.350366 
L 186.846635 522.387021 
L 179.750536 501.074548 
L 175.315473 489.070971 
L 173.984955 486.866233 
L 167.332361 480.98693 
L 166.445349 479.517104 
L 166.445349 477.802307 
L 166.445349 475.352598 
L 167.775867 470.94312 
L 167.775867 468.983353 
L 166.445349 467.268556 
L 164.671324 464.573876 
L 163.784311 462.124166 
L 163.340805 455.999892 
L 160.679767 444.486257 
L 153.140162 424.153668 
L 146.931074 407.495643 
L 142.052506 394.757153 
L 138.504456 382.508606 
L 133.625887 367.320406 
z
" clip-path="url(#p4ce8d46d07)" style="fill: #bdc3c7; stroke: #ffffff; stroke-width: 0.5"/>
    <path d="M 218.779084 633.113893 
L 220.109603 631.889038 
L 220.996615 618.660607 
L 221.883628 614.986042 
L 224.544665 608.861768 
L 224.544665 606.65703 
L 221.883628 603.962349 
L 220.109603 603.962349 
L 220.109603 603.472407 
L 220.109603 603.227436 
L 220.109603 602.982465 
L 219.22259 602.982465 
L 219.666097 599.06293 
L 220.553109 595.878308 
L 222.327134 593.183627 
L 223.657653 589.509063 
L 224.101159 581.425021 
L 224.988171 577.750457 
L 230.753753 561.827345 
L 231.197259 558.887693 
L 231.640765 550.068739 
L 232.527777 545.16932 
L 232.971284 543.944465 
L 233.41479 542.71961 
L 233.858296 541.494756 
L 233.858296 539.779959 
L 235.632321 534.145627 
L 240.51089 526.061585 
L 242.728421 521.162166 
L 242.728421 516.507718 
L 240.067383 507.688764 
L 240.067383 503.524258 
L 240.954396 501.074548 
L 242.284915 493.480448 
L 243.171927 491.765652 
L 244.05894 490.050855 
L 244.502446 488.581029 
L 244.945952 486.621262 
L 244.502446 484.416523 
L 242.728421 481.476872 
L 242.284915 480.007046 
L 242.284915 476.577452 
L 244.05894 470.69815 
L 244.945952 467.268556 
L 250.268027 449.385676 
L 257.364127 434.687419 
L 258.251139 431.012855 
L 258.694645 427.33829 
L 259.138152 425.868465 
L 260.025164 424.153668 
L 260.912176 422.928813 
L 263.129708 420.969046 
L 264.01672 419.744191 
L 264.460226 416.559568 
L 264.01672 413.129975 
L 264.460226 409.945353 
L 266.234251 406.515759 
L 267.56477 405.045933 
L 271.11282 401.861311 
L 272.443339 399.166631 
L 272.443339 394.757153 
L 272.886845 390.347676 
L 278.652426 378.834041 
L 279.539438 374.669535 
L 278.652426 370.75 
L 276.878401 367.075435 
L 275.547882 364.380755 
L 274.217364 360.46122 
L 273.773857 356.541684 
L 275.104376 353.112091 
L 276.878401 349.927469 
L 276.878401 346.742846 
L 275.991388 345.762962 
L 278.20892 341.598456 
L 280.426451 335.719153 
L 281.313463 332.534531 
L 281.313463 331.064705 
L 281.313463 322.735693 
L 281.313463 322.490722 
L 281.313463 322.245751 
L 282.200476 311.467029 
L 283.974501 300.933277 
L 286.635538 294.564033 
L 289.740082 287.214904 
L 293.731638 282.805427 
L 291.0706 274.966356 
L 291.0706 273.986472 
L 292.401119 272.271676 
L 289.296575 260.51307 
L 289.740082 259.288215 
L 290.627094 259.043244 
L 291.514107 258.798273 
L 291.957613 258.06336 
L 291.957613 256.838506 
L 291.514107 255.36868 
L 291.0706 254.143825 
L 291.0706 252.184057 
L 290.627094 250.469261 
L 289.296575 247.284638 
L 289.296575 240.425452 
L 289.740082 237.975742 
L 291.957613 236.260945 
L 290.627094 234.546149 
L 290.627094 232.831352 
L 292.844625 229.156788 
L 291.957613 228.421875 
L 291.957613 227.441991 
L 292.844625 226.952049 
L 293.731638 226.462107 
L 293.731638 225.237252 
L 293.288132 223.522456 
L 293.731638 221.317717 
L 295.505663 214.45853 
L 293.731638 214.45853 
L 293.731638 213.478646 
L 294.175144 212.988705 
L 294.61865 212.743734 
L 295.505663 212.253792 
L 294.175144 210.538995 
L 293.731638 207.844314 
L 294.175144 205.149634 
L 294.61865 203.434837 
L 293.288132 201.230099 
L 293.288132 196.820621 
L 292.844625 195.595767 
L 292.844625 194.370912 
L 293.731638 194.370912 
L 293.731638 195.595767 
L 294.61865 195.595767 
L 294.175144 194.125941 
L 293.731638 193.146057 
L 293.288132 192.166173 
L 292.844625 191.43126 
L 292.401119 190.941319 
L 291.957613 189.471493 
L 293.288132 189.226522 
L 293.731638 188.73658 
L 293.731638 188.246638 
L 292.844625 187.511725 
L 292.844625 186.531841 
L 293.731638 186.531841 
L 293.731638 185.796929 
L 293.288132 185.796929 
L 292.844625 185.551958 
L 294.61865 184.572074 
L 293.731638 183.59219 
L 294.61865 183.102248 
L 295.505663 182.612306 
L 295.505663 181.632422 
L 294.61865 181.387451 
L 294.61865 181.14248 
L 294.175144 180.897509 
L 293.731638 180.652538 
L 294.175144 179.672655 
L 294.61865 178.692771 
L 295.062157 177.957858 
L 296.392675 177.467916 
L 296.392675 176.733003 
L 295.062157 175.508148 
L 295.062157 174.773236 
L 294.175144 173.548381 
L 293.288132 173.548381 
L 292.844625 173.548381 
L 292.844625 172.568497 
L 294.61865 172.568497 
L 294.175144 171.588613 
L 293.731638 168.648962 
L 294.61865 169.628845 
L 295.062157 168.15902 
L 295.505663 167.669078 
L 295.505663 168.15902 
L 295.505663 168.403991 
L 295.949169 168.403991 
L 296.392675 167.669078 
L 295.505663 165.70931 
L 295.062157 162.034746 
L 294.61865 160.809891 
L 294.61865 159.585036 
L 295.505663 159.585036 
L 295.505663 158.850123 
L 294.175144 158.115211 
L 293.731638 157.135327 
L 293.731638 155.910472 
L 294.175144 155.42053 
L 295.062157 154.930588 
L 295.949169 153.950704 
L 298.1667 151.500995 
L 300.384231 150.031169 
L 303.045269 150.27614 
L 305.2628 149.296256 
L 309.254356 145.621692 
L 315.90695 141.457186 
L 318.124481 140.967244 
L 319.011493 140.477302 
L 319.454999 140.232331 
L 320.342012 140.477302 
L 320.785518 140.967244 
L 322.116037 142.437069 
L 334.977718 145.376721 
L 336.308236 146.111634 
L 338.525767 148.316372 
L 338.969274 148.316372 
L 340.743299 148.316372 
L 341.186805 148.561343 
L 341.186805 149.541227 
L 341.186805 150.521111 
L 340.743299 151.256024 
L 340.299792 151.011053 
L 341.630311 152.480879 
L 342.517324 153.460762 
L 343.847842 153.950704 
L 345.621867 153.705733 
L 348.282905 153.950704 
L 349.169917 155.42053 
L 348.726411 157.87024 
L 348.726411 160.56492 
L 350.05693 163.01463 
L 355.379004 171.588613 
L 356.266017 173.30341 
L 356.266017 173.793352 
L 356.709523 174.038323 
L 358.040042 174.038323 
L 359.814067 174.038323 
L 364.249129 173.30341 
L 365.136142 173.548381 
L 366.46666 174.038323 
L 367.353673 174.038323 
L 367.797179 173.793352 
L 369.127698 172.568497 
L 370.01471 172.323526 
L 371.345229 173.058439 
L 375.336785 177.222945 
L 383.319897 182.612306 
L 393.964047 192.901086 
L 395.738072 193.88097 
L 398.399109 194.615883 
L 405.051703 195.350796 
L 407.269234 196.575651 
L 411.704296 197.065592 
L 428.557533 199.02536 
L 432.992595 202.454953 
L 435.210127 201.230099 
L 437.871164 201.230099 
L 445.854276 203.434837 
L 447.184795 203.434837 
L 448.95882 202.944895 
L 468.9166 189.471493 
L 487.543862 177.222945 
L 501.292556 168.403991 
L 522.580855 154.930588 
L 532.337992 148.806314 
L 543.425648 141.457186 
L 564.713947 127.983783 
L 585.55874 114.510381 
L 601.524965 104.711542 
L 622.813264 91.23814 
L 633.457413 84.868895 
L 659.624281 68.455841 
L 689.782705 49.838048 
L 695.548286 70.66058 
L 700.870361 89.278372 
L 704.861917 104.711542 
L 710.627498 125.289103 
L 716.393079 146.601576 
L 724.819698 176.733003 
L 715.062561 179.917626 
L 715.062561 180.162597 
L 715.062561 180.407567 
L 721.271648 201.230099 
L 722.15866 203.434837 
L 723.489179 204.16975 
L 746.551503 197.555534 
L 749.212541 199.270331 
L 750.986566 203.679808 
L 753.647603 213.478646 
L 750.543059 217.888124 
L 735.463847 230.626613 
L 735.463847 231.606497 
L 734.576835 232.096439 
L 731.915797 234.056207 
L 717.280092 247.77458 
L 713.288536 249.734348 
L 699.096336 253.653883 
L 671.59895 261.737925 
L 643.658057 269.821966 
L 616.16067 277.906008 
L 592.65484 284.765194 
L 588.219777 285.990049 
L 565.157453 292.849236 
L 557.617847 295.053975 
L 527.459423 304.362871 
L 496.857493 313.426796 
L 471.134132 321.265867 
L 466.255563 322.735693 
L 482.221787 340.373601 
L 498.188012 357.766539 
L 498.631518 358.01151 
L 514.154236 375.404448 
L 530.563967 392.797386 
L 530.563967 393.287328 
L 531.007473 393.77727 
L 531.450979 394.267211 
L 531.894486 394.757153 
L 545.199673 410.925236 
L 558.948366 427.093319 
L 572.253553 443.261403 
L 586.002246 459.184515 
L 592.211334 466.533643 
L 592.211334 466.778614 
L 591.767827 466.778614 
L 591.324321 467.268556 
L 582.01069 472.412946 
L 567.374984 480.98693 
L 553.626291 488.581029 
L 550.965254 491.030739 
L 549.191229 493.725419 
L 545.643179 502.544374 
L 541.208117 513.568067 
L 537.216561 523.856847 
L 531.894486 537.330249 
L 529.233448 539.779959 
L 514.597743 542.964581 
L 498.188012 546.394175 
L 480.447763 550.068739 
L 462.707513 553.988274 
L 452.063364 556.193013 
L 440.975708 558.642722 
L 437.871164 560.357519 
L 434.76662 563.542142 
L 428.114027 575.300747 
L 422.348446 585.344557 
L 414.80884 598.572988 
L 406.825728 612.291362 
L 397.512097 620.375403 
L 382.876391 632.623951 
L 370.01471 643.647644 
L 356.709523 655.161279 
L 353.604979 656.386134 
L 350.05693 656.631105 
L 337.195249 654.181395 
L 323.003049 651.731685 
L 315.90695 650.506831 
L 301.271244 647.81215 
L 283.087488 644.627528 
L 266.234251 641.687876 
L 246.719977 638.258283 
L 232.084271 635.563602 
z
" clip-path="url(#p4ce8d46d07)" style="fill: #bdc3c7; stroke: #ffffff; stroke-width: 0.5"/>
    <path d="M -1045.65719 518.222515 
L -1045.65719 512.588183 
L -1043.439659 507.443793 
L -1038.56109 497.889926 
L -1036.343559 492.990506 
L -1035.013041 491.030739 
L -1031.908497 486.621262 
L -1027.916941 482.701726 
L -1020.820841 471.678033 
L -1018.60331 466.778614 
L -1017.272791 461.879195 
L -1016.829285 458.939544 
L -1013.281235 448.895734 
L -1011.950716 440.811693 
L -1010.176691 435.177361 
L -1008.402666 430.032971 
L -1007.95916 425.133552 
L -1009.289679 419.254249 
L -1014.611754 407.495643 
L -1016.385779 400.146514 
L -1020.820841 391.32756 
L -1021.707854 388.387909 
L -1024.368891 372.709767 
L -1024.368891 360.951162 
L -1025.69941 348.702614 
L -1025.69941 343.313253 
L -1024.368891 338.658805 
L -1004.41111 322.245751 
L -999.532542 309.997203 
L -996.427998 304.852813 
L -988.444886 298.728539 
L -988.888392 299.708423 
L -987.114367 309.26229 
L -985.783849 313.916738 
L -983.566317 316.85639 
L -980.90528 317.591302 
L -974.696193 318.081244 
L -969.817624 320.530954 
L -967.156587 320.530954 
L -961.834512 319.55107 
L -960.503993 320.041012 
L -959.173474 320.775925 
L -957.39945 321.020896 
L -955.181918 319.55107 
L -952.520881 318.816157 
L -948.529325 318.326215 
L -928.571544 312.691883 
L -905.50922 304.852813 
L -900.187145 303.872929 
L -888.212477 304.607842 
L -839.426791 318.326215 
L -803.946292 322.980663 
L -801.728761 324.205518 
L -799.954736 324.940431 
L -793.745649 324.450489 
L -791.084612 324.69546 
L -782.214487 328.859966 
L -777.335918 330.574763 
L -771.570337 330.574763 
L -767.135275 328.859966 
L -764.917744 328.614995 
L -762.700213 330.084821 
L -761.369694 331.799618 
L -760.039175 332.28956 
L -758.708656 332.28956 
L -757.378138 332.779502 
L -753.830088 334.739269 
L -746.290482 337.188979 
L -737.863863 338.168863 
L -734.75932 339.148747 
L -732.985295 340.618572 
L -732.098282 339.883659 
L -730.767764 339.148747 
L -730.324257 338.658805 
L -728.993739 338.903776 
L -721.454133 338.658805 
L -720.56712 338.903776 
L -719.680108 339.638688 
L -718.349589 340.618572 
L -718.793095 341.108514 
L -718.793095 341.598456 
L -718.349589 342.57834 
L -717.462577 344.538108 
L -717.01907 345.27302 
L -716.575564 345.517991 
L -716.132058 346.007933 
L -716.132058 348.212672 
L -715.688552 348.947585 
L -714.801539 350.662381 
L -713.471021 355.071859 
L -712.140502 357.031626 
L -709.479464 359.481336 
L -705.931415 361.441103 
L -701.939858 362.910929 
L -693.956746 364.135784 
L -691.295709 365.360639 
L -688.191165 365.850581 
L -685.530128 364.380755 
L -679.321041 367.810348 
L -672.224941 366.585494 
L -657.589235 359.481336 
L -655.81521 358.991394 
L -654.484691 359.971278 
L -653.597679 362.176016 
L -653.597679 364.870697 
L -653.154173 366.095552 
L -650.936642 371.484913 
L -650.493135 376.139361 
L -650.049629 377.364216 
L -646.501579 379.568954 
L -640.735998 380.548838 
L -618.560686 380.303867 
L -617.230168 380.793809 
L -615.899649 381.528722 
L -615.012637 382.508606 
L -614.125624 383.243518 
L -612.351599 383.73346 
L -608.803549 383.243518 
L -606.142512 383.488489 
L -600.820437 384.958315 
L -598.1594 385.203286 
L -595.941868 384.713344 
L -590.619794 382.018664 
L -587.51525 381.283751 
L -585.297719 381.773693 
L -583.080188 382.753577 
L -581.306163 384.223402 
L -579.532138 385.693228 
L -578.645125 386.428141 
L -574.210063 386.428141 
L -572.436038 386.673112 
L -571.105519 387.163054 
L -569.331494 388.387909 
L -547.156183 396.226979 
L -542.72112 398.676689 
L -540.503589 399.901543 
L -537.399046 400.146514 
L -536.955539 401.126398 
L -536.068527 404.800963 
L -535.625021 406.270788 
L -534.738008 407.005701 
L -532.076971 407.495643 
L -510.788671 419.009278 
L -490.830891 418.029394 
L -487.282841 417.539452 
L -470.429604 409.21044 
L -452.245848 400.146514 
L -445.593255 395.247095 
L -440.714686 392.552415 
L -439.827674 392.307444 
L -438.940661 390.837618 
L -438.053649 389.612763 
L -419.869893 376.384332 
L -418.095868 372.464796 
L -414.547819 373.199709 
L -410.999769 371.484913 
L -405.234188 366.340523 
L -406.564706 364.870697 
L -407.008213 364.870697 
L -407.895225 365.360639 
L -407.451719 363.890813 
L -406.1212 362.910929 
L -405.234188 362.910929 
L -404.790681 364.380755 
L -403.903669 364.380755 
L -402.129644 362.910929 
L -396.364063 357.766539 
L -395.033544 356.541684 
L -393.259519 355.806771 
L -390.598482 352.377178 
L -389.711469 351.397294 
L -387.937445 351.152323 
L -387.050432 350.41741 
L -386.16342 349.437527 
L -385.276407 348.457643 
L -385.719913 348.457643 
L -386.16342 348.212672 
L -386.16342 347.477759 
L -382.61537 345.517991 
L -383.058876 349.682498 
L -379.510826 352.622149 
L -379.06732 352.622149 
L -374.188751 354.091975 
L -369.753689 354.581917 
L -371.084208 355.31683 
L -372.414726 356.786655 
L -373.301739 357.521568 
L -373.301739 358.256481 
L -373.301739 358.501452 
L -372.858233 358.501452 
L -372.414726 358.501452 
L -373.745245 359.481336 
L -373.301739 360.706191 
L -371.97122 361.686074 
L -370.640701 362.420987 
L -365.762133 359.481336 
L -366.205639 361.196132 
L -365.762133 361.931045 
L -364.431614 362.176016 
L -363.988108 361.931045 
L -363.544602 360.951162 
L -359.996552 357.521568 
L -359.553046 358.256481 
L -359.109539 358.501452 
L -358.666033 357.766539 
L -358.222527 357.276597 
L -358.222527 356.541684 
L -358.222527 355.561801 
L -357.335514 355.561801 
L -357.335514 357.031626 
L -356.892008 358.256481 
L -356.448502 358.991394 
L -355.561489 359.481336 
L -355.117983 358.501452 
L -353.787464 354.581917 
L -355.561489 353.602033 
L -357.335514 354.091975 
L -359.109539 354.826888 
L -361.32707 355.561801 
L -361.32707 354.581917 
L -360.883564 354.581917 
L -359.996552 354.581917 
L -359.996552 353.602033 
L -361.770577 354.091975 
L -368.866676 354.581917 
L -368.866676 353.602033 
L -364.431614 352.377178 
L -359.996552 349.927469 
L -352.456946 343.068282 
L -349.795908 338.658805 
L -348.021883 332.779502 
L -347.578377 326.655228 
L -348.908896 321.755809 
L -348.021883 321.755809 
L -347.134871 324.450489 
L -346.247858 327.14517 
L -344.473834 329.104937 
L -342.256302 329.594879 
L -345.360846 326.900199 
L -347.134871 322.735693 
L -346.691365 320.041012 
L -342.256302 322.735693 
L -338.708252 325.185402 
L -334.716696 326.900199 
L -330.281634 327.390141 
L -324.959559 326.655228 
L -307.662816 322.00078 
L -271.295305 308.772348 
L -271.295305 309.752232 
L -273.06933 309.997203 
L -284.600492 314.40668 
L -293.914123 319.796041 
L -300.566716 322.980663 
L -305.888791 326.655228 
L -306.332297 326.900199 
L -308.106322 327.14517 
L -308.993335 327.635112 
L -313.871903 330.819734 
L -316.089435 331.799618 
L -320.968003 332.044589 
L -321.855016 332.779502 
L -322.298522 332.779502 
L -324.516053 335.474182 
L -324.516053 336.699037 
L -321.855016 337.43395 
L -320.968003 337.43395 
L -320.080991 336.699037 
L -319.193978 336.699037 
L -317.419953 337.678921 
L -313.871903 337.678921 
L -310.76736 336.454066 
L -308.993335 335.229211 
L -308.106322 332.779502 
L -305.445285 333.514415 
L -302.784247 335.719153 
L -301.453729 337.678921 
L -300.566716 337.678921 
L -299.679704 335.229211 
L -297.905679 332.534531 
L -295.688148 330.574763 
L -293.914123 329.594879 
L -292.583604 329.104937 
L -291.253085 329.83985 
L -289.922567 330.819734 
L -288.148542 331.799618 
L -286.818023 331.554647 
L -285.043998 331.064705 
L -283.713479 330.819734 
L -281.939454 331.799618 
L -282.382961 331.799618 
L -282.826467 331.799618 
L -282.826467 332.044589 
L -282.826467 332.779502 
L -281.052442 333.024473 
L -279.278417 332.534531 
L -277.060886 331.064705 
L -275.286861 329.594879 
L -275.730367 329.349908 
L -276.173873 329.594879 
L -276.173873 329.349908 
L -276.173873 328.614995 
L -275.730367 328.370024 
L -275.730367 328.125054 
L -275.286861 327.635112 
L -271.295305 329.594879 
L -270.408292 330.574763 
L -269.077774 329.594879 
L -268.190761 328.614995 
L -266.860243 325.675344 
L -267.747255 324.450489 
L -267.303749 323.470605 
L -265.086218 321.755809 
L -265.086218 320.775925 
L -265.086218 320.041012 
L -265.086218 319.306099 
L -264.199205 318.816157 
L -263.755699 318.571186 
L -259.320637 318.816157 
L -257.990118 319.306099 
L -255.772587 320.775925 
L -255.772587 321.265867 
L -255.772587 322.00078 
L -255.32908 322.490722 
L -254.442068 322.735693 
L -253.111549 322.490722 
L -252.668043 321.755809 
L -252.224537 320.775925 
L -254.442068 319.55107 
L -253.555055 319.061128 
L -252.668043 318.816157 
L -251.781031 319.061128 
L -254.442068 315.631535 
L -259.320637 311.95697 
L -265.086218 309.26229 
L -270.851799 309.26229 
L -269.52128 308.527377 
L -266.416736 307.302522 
L -255.772587 305.832697 
L -252.224537 306.077668 
L -240.693375 309.752232 
L -224.72715 317.101361 
L -221.1791 318.816157 
L -216.300532 322.735693 
L -203.438851 328.614995 
L -199.447295 329.594879 
L -197.67327 329.594879 
L -194.568726 329.349908 
L -175.941464 323.960547 
L -164.853809 317.836273 
L -160.418746 316.121477 
L -155.540178 316.366448 
L -151.548622 318.326215 
L -149.774597 322.245751 
L -149.33109 323.960547 
L -145.339534 329.349908 
L -143.565509 333.514415 
L -141.791484 335.964124 
L -137.799928 339.638688 
L -136.46941 340.12863 
L -133.364866 340.863543 
L -132.034347 341.598456 
L -128.929804 345.028049 
L -128.042791 345.517991 
L -126.268766 346.497875 
L -121.390198 350.41741 
L -120.059679 351.152323 
L -124.051235 350.41741 
L -136.025903 342.57834 
L -135.582397 342.57834 
L -134.695385 342.57834 
L -134.695385 342.823311 
L -133.808372 343.558224 
L -133.808372 342.57834 
L -134.695385 341.843427 
L -135.138891 341.598456 
L -137.799928 341.353485 
L -138.243435 340.863543 
L -138.686941 340.12863 
L -139.130447 339.638688 
L -142.678497 337.678921 
L -144.009016 336.699037 
L -144.452522 336.699037 
L -145.339534 336.699037 
L -145.783041 334.739269 
L -146.670053 333.024473 
L -147.557065 331.554647 
L -148.887584 330.574763 
L -147.113559 330.574763 
L -145.783041 330.329792 
L -151.548622 322.735693 
L -152.87914 320.285983 
L -154.653165 317.836273 
L -156.42719 317.101361 
L -156.42719 317.836273 
L -158.201215 316.85639 
L -159.088228 317.346331 
L -159.531734 318.816157 
L -161.305759 317.836273 
L -161.305759 318.081244 
L -161.305759 319.061128 
L -161.305759 319.55107 
L -161.749265 319.306099 
L -162.636277 319.061128 
L -163.079784 318.816157 
L -163.079784 319.796041 
L -163.52329 320.775925 
L -163.966796 321.755809 
L -161.305759 321.755809 
L -162.192771 323.225634 
L -159.97524 326.655228 
L -160.418746 328.614995 
L -159.531734 328.614995 
L -159.531734 329.594879 
L -160.418746 329.594879 
L -160.418746 330.329792 
L -159.97524 331.064705 
L -159.531734 331.799618 
L -160.418746 331.799618 
L -160.862252 329.83985 
L -161.749265 328.614995 
L -163.079784 327.880083 
L -164.853809 327.635112 
L -164.410302 326.655228 
L -164.853809 326.410257 
L -165.740821 327.390141 
L -166.627834 329.594879 
L -165.740821 329.83985 
L -165.297315 329.594879 
L -164.853809 328.614995 
L -163.966796 329.349908 
L -163.079784 329.594879 
L -162.192771 329.594879 
L -162.192771 330.574763 
L -163.079784 330.574763 
L -163.079784 331.799618 
L -162.636277 332.534531 
L -161.749265 333.269444 
L -160.862252 333.514415 
L -159.531734 333.514415 
L -160.418746 334.494298 
L -161.749265 334.739269 
L -163.079784 334.494298 
L -163.966796 333.514415 
L -164.853809 333.514415 
L -164.853809 334.249327 
L -164.853809 334.494298 
L -165.297315 334.494298 
L -165.740821 334.739269 
L -165.297315 334.98424 
L -164.853809 335.474182 
L -163.966796 336.699037 
L -165.740821 338.903776 
L -166.184327 340.618572 
L -164.853809 341.353485 
L -162.192771 341.598456 
L -162.192771 342.57834 
L -163.966796 342.333369 
L -165.297315 341.843427 
L -166.184327 341.598456 
L -167.514846 342.57834 
L -167.958352 342.57834 
L -168.845365 341.598456 
L -169.732377 341.843427 
L -170.175883 342.57834 
L -170.61939 344.048166 
L -170.175883 344.783078 
L -169.288871 345.27302 
L -168.845365 345.762962 
L -170.61939 346.497875 
L -170.61939 347.477759 
L -169.732377 348.947585 
L -170.61939 349.437527 
L -172.393415 349.682498 
L -173.280427 350.662381 
L -173.280427 352.622149 
L -172.836921 353.847004 
L -171.506402 354.336946 
L -170.175883 353.602033 
L -169.732377 353.602033 
L -170.175883 353.357062 
L -170.61939 353.112091 
L -170.61939 352.622149 
L -168.845365 353.357062 
L -167.958352 353.602033 
L -167.07134 353.602033 
L -165.740821 354.091975 
L -165.740821 355.561801 
L -165.740821 356.786655 
L -165.297315 357.521568 
L -163.966796 357.766539 
L -161.749265 358.746423 
L -159.97524 360.216249 
L -158.644721 361.441103 
L -157.757709 359.236365 
L -157.314203 358.256481 
L -156.42719 357.521568 
L -156.870696 358.746423 
L -156.870696 359.726307 
L -156.870696 360.46122 
L -156.42719 361.441103 
L -158.201215 361.441103 
L -158.201215 362.420987 
L -156.42719 362.420987 
L -156.870696 362.910929 
L -156.870696 363.1559 
L -157.314203 363.400871 
L -157.314203 364.380755 
L -156.42719 364.380755 
L -156.42719 364.135784 
L -155.983684 363.645842 
L -155.540178 363.400871 
L -155.540178 363.645842 
L -155.540178 363.890813 
L -155.096671 364.380755 
L -154.653165 364.380755 
L -154.653165 363.400871 
L -153.766153 363.400871 
L -154.209659 365.360639 
L -153.766153 366.830464 
L -152.87914 366.830464 
L -151.992128 364.380755 
L -150.661609 364.380755 
L -148.887584 362.176016 
L -146.226547 360.46122 
L -143.565509 361.441103 
L -145.339534 361.441103 
L -145.339534 362.420987 
L -143.565509 363.400871 
L -143.122003 362.665958 
L -142.678497 362.176016 
L -141.791484 361.441103 
L -140.017459 362.420987 
L -140.017459 363.400871 
L -140.904472 364.135784 
L -140.904472 364.625726 
L -140.904472 366.340523 
L -139.573953 365.850581 
L -139.130447 365.360639 
L -139.573953 366.585494 
L -139.573953 367.565377 
L -140.017459 368.055319 
L -140.904472 368.545261 
L -140.904472 369.280174 
L -140.460966 370.505029 
L -140.017459 372.219825 
L -142.678497 374.424564 
L -142.678497 375.404448 
L -141.347978 375.404448 
L -140.460966 375.159477 
L -139.573953 374.424564 
L -139.130447 373.44468 
L -138.686941 373.44468 
L -138.243435 374.914506 
L -138.243435 375.159477 
L -138.243435 376.139361 
L -137.356422 376.874274 
L -136.025903 377.364216 
L -136.025903 378.344099 
L -137.356422 378.834041 
L -138.243435 379.323983 
L -138.686941 380.058896 
L -139.130447 381.283751 
L -138.686941 381.773693 
L -137.799928 382.508606 
L -136.46941 381.528722 
L -135.582397 381.528722 
L -134.251878 381.773693 
L -133.808372 382.508606 
L -133.808372 383.243518 
L -134.251878 383.243518 
L -134.251878 384.468373 
L -133.364866 385.448257 
L -131.590841 386.18317 
L -129.816816 386.18317 
L -128.486297 385.203286 
L -128.486297 384.468373 
L -130.260322 384.223402 
L -131.590841 383.488489 
L -132.477853 382.018664 
L -132.477853 380.303867 
L -130.703829 380.793809 
L -128.486297 382.018664 
L -127.155779 382.263635 
L -126.712272 382.508606 
L -127.599285 380.303867 
L -125.82526 380.303867 
L -124.938247 380.303867 
L -124.938247 379.323983 
L -125.82526 379.079012 
L -125.82526 378.834041 
L -125.82526 378.58907 
L -125.82526 378.344099 
L -124.494741 377.364216 
L -124.051235 378.344099 
L -123.164223 378.344099 
L -122.720716 378.344099 
L -123.164223 376.874274 
L -122.27721 375.89439 
L -120.946691 375.649419 
L -119.616173 378.099128 
L -117.842148 378.58907 
L -116.068123 378.834041 
L -114.294098 378.344099 
L -111.189554 376.629303 
L -109.859036 374.179593 
L -110.302542 371.484913 
L -112.520073 369.280174 
L -109.415529 369.280174 
L -108.972023 369.280174 
L -108.528517 365.115668 
L -108.528517 362.910929 
L -108.972023 360.46122 
L -111.189554 357.766539 
L -111.63306 356.541684 
L -109.859036 355.561801 
L -111.63306 354.336946 
L -114.294098 353.357062 
L -116.955135 353.112091 
L -118.285654 353.602033 
L -119.172666 351.152323 
L -117.842148 351.397294 
L -116.068123 351.397294 
L -112.963579 352.132207 
L -107.641504 353.112091 
L -106.310986 354.336946 
L -105.423973 354.336946 
L -104.093454 354.581917 
L -103.649948 357.031626 
L -102.31943 358.746423 
L -100.545405 359.971278 
L -96.553848 361.196132 
L -95.22333 362.420987 
L -93.005799 365.360639 
L -87.683724 370.505029 
L -85.466193 372.464796 
L -81.918143 378.344099 
L -78.813599 381.283751 
L -75.265549 383.73346 
L -70.830487 384.958315 
L -70.830487 385.203286 
L -65.064906 385.203286 
L -60.186337 384.713344 
L -50.872706 382.263635 
L -39.78505 376.629303 
L -38.011026 375.159477 
L -32.688951 372.464796 
L -31.358432 371.484913 
L -30.47142 371.484913 
L -30.47142 372.464796 
L -34.462976 373.934622 
L -41.115569 379.323983 
L -45.107125 380.303867 
L -52.203225 383.488489 
L -62.847375 386.428141 
L -56.638287 386.428141 
L -56.638287 387.408025 
L -58.412312 388.387909 
L -54.864262 388.387909 
L -53.090238 387.652996 
L -52.646731 386.428141 
L -51.759719 386.428141 
L -51.759719 387.163054 
L -51.316213 387.408025 
L -50.872706 387.163054 
L -49.985694 387.408025 
L -42.446088 382.508606 
L -35.793494 380.303867 
L -34.906482 379.323983 
L -34.019469 379.323983 
L -33.575963 380.058896 
L -31.801938 380.548838 
L -32.245444 381.283751 
L -33.132457 381.283751 
L -33.132457 382.508606 
L -31.801938 382.018664 
L -28.697395 380.303867 
L -28.697395 379.323983 
L -32.245444 379.323983 
L -32.245444 378.344099 
L -30.47142 377.609187 
L -28.253888 378.344099 
L -26.479863 379.568954 
L -25.592851 381.283751 
L -25.149345 382.263635 
L -24.705839 383.73346 
L -24.705839 384.468373 
L -26.479863 384.468373 
L -22.044801 385.938199 
L -20.270776 385.693228 
L -18.496751 384.468373 
L -18.496751 383.243518 
L -19.82727 382.508606 
L -20.270776 382.508606 
L -20.270776 381.283751 
L -15.835714 380.058896 
L -14.505195 379.323983 
L -14.948701 378.344099 
L -14.948701 377.119245 
L -14.061689 375.89439 
L -13.618183 374.424564 
L -14.505195 374.424564 
L -15.392208 375.404448 
L -18.053245 377.364216 
L -18.053245 377.854157 
L -18.496751 378.344099 
L -18.496751 378.834041 
L -18.053245 379.323983 
L -19.383764 379.813925 
L -22.488307 379.568954 
L -25.149345 379.323983 
L -27.366876 378.344099 
L -23.37532 378.099128 
L -21.157789 375.89439 
L -19.82727 372.954738 
L -18.053245 370.505029 
L -16.27922 369.770116 
L -13.174676 369.035203 
L -11.844158 368.545261 
L -9.626627 366.095552 
L -8.296108 365.360639 
L -6.078577 365.360639 
L -6.078577 366.340523 
L -9.626627 366.340523 
L -9.626627 367.320406 
L -7.852602 368.545261 
L -3.417539 374.424564 
L -2.087021 376.874274 
L -2.530527 377.609187 
L -4.304552 378.099128 
L -6.078577 379.323983 
L -6.078577 379.079012 
L -6.078577 378.58907 
L -6.078577 378.344099 
L -6.965589 378.344099 
L -6.965589 379.323983 
L -4.748058 380.793809 
L -3.861045 382.753577 
L -3.861045 384.958315 
L -5.191564 387.408025 
L -0.756502 385.448257 
L 1.461029 384.958315 
L 3.235054 385.203286 
L 4.122067 385.203286 
L 4.565573 385.203286 
L 5.896092 385.203286 
L 5.896092 384.468373 
L 4.122067 383.243518 
L 3.235054 383.243518 
L 3.235054 384.468373 
L 2.348042 384.468373 
L 2.348042 383.243518 
L 9.000635 380.793809 
L 10.77466 379.323983 
L 11.661673 379.323983 
L 10.77466 380.303867 
L 11.661673 381.283751 
L 12.548685 380.548838 
L 13.435698 380.548838 
L 14.32271 381.03878 
L 14.766216 382.508606 
L 16.096735 382.508606 
L 16.096735 381.03878 
L 16.096735 379.813925 
L 15.653229 379.568954 
L 17.427254 379.323983 
L 16.540241 378.58907 
L 15.209723 378.834041 
L 13.879204 378.834041 
L 12.548685 378.344099 
L 25.853872 377.364216 
L 24.96686 374.669535 
L 26.740885 374.179593 
L 28.51491 373.934622 
L 28.51491 371.484913 
L 29.845428 371.974855 
L 30.288935 372.464796 
L 31.175947 372.464796 
L 32.949972 371.974855 
L 37.828541 374.669535 
L 40.046072 375.404448 
L 48.916196 376.384332 
L 51.577234 377.364216 
L 51.577234 376.384332 
L 54.238271 377.119245 
L 58.229827 376.874274 
L 83.509683 370.260058 
L 107.459019 360.706191 
L 126.086281 348.457643 
L 129.190825 353.847004 
L 130.077837 356.296713 
L 132.295368 363.1559 
L 133.625887 367.320406 
L 138.504456 382.508606 
L 142.052506 394.757153 
L 146.931074 407.495643 
L 153.140162 424.153668 
L 160.679767 444.486257 
L 163.340805 455.999892 
L 163.784311 462.124166 
L 164.671324 464.573876 
L 166.445349 467.268556 
L 167.775867 468.983353 
L 167.775867 470.94312 
L 166.445349 475.352598 
L 166.445349 477.802307 
L 166.445349 479.517104 
L 167.332361 480.98693 
L 173.984955 486.866233 
L 175.315473 489.070971 
L 179.750536 501.074548 
L 186.846635 522.387021 
L 191.725204 536.350366 
L 192.16871 537.085278 
L 192.16871 538.065162 
L 192.16871 538.800075 
L 192.16871 539.779959 
L 193.055723 547.619029 
L 198.377797 562.807229 
L 203.256366 576.525602 
L 206.36091 591.46883 
L 205.917403 601.51264 
L 206.804416 604.942233 
L 209.90896 610.821536 
L 210.795972 613.026275 
L 209.465453 613.761187 
L 208.578441 614.4961 
L 207.691428 615.475984 
L 206.804416 616.94581 
L 205.917403 618.660607 
L 205.473897 620.130432 
L 205.030391 621.355287 
L 203.256366 621.845229 
L 203.699872 622.0902 
L 204.143378 622.0902 
L 204.143378 622.335171 
L 204.143378 623.070084 
L 203.256366 623.560026 
L 202.369354 624.294938 
L 201.925847 625.029851 
L 202.369354 626.009735 
L 201.482341 626.254706 
L 201.038835 626.499677 
L 201.038835 627.23459 
L 201.482341 627.969503 
L 200.151822 629.194358 
L 197.490785 633.848806 
L 196.603772 634.583719 
L 195.71676 635.318631 
L 194.829748 635.808573 
L 194.386241 636.543486 
L 193.942735 637.52337 
L 193.499229 638.258283 
L 192.16871 638.993196 
L 192.16871 639.728109 
L 193.499229 641.932847 
L 193.055723 643.892615 
L 192.16871 645.852383 
L 191.281698 647.81215 
L 191.281698 655.161279 
L 190.838191 657.121046 
L 189.507673 658.345901 
L 187.733648 659.325785 
L 187.290142 660.305669 
L 187.290142 662.265437 
L 186.846635 664.470175 
L 185.959623 666.919885 
L 184.629104 668.634681 
L 185.07261 670.349478 
L 184.629104 679.168432 
L 185.07261 680.393287 
L 186.403129 682.353055 
L 186.403129 684.067852 
L 185.959623 685.782648 
L 185.07261 686.517561 
L 184.185598 687.007503 
L 181.081054 688.7223 
L 181.081054 689.702184 
L 180.637548 691.41698 
L 180.637548 692.396864 
L 181.081054 695.336516 
L 181.524561 703.910499 
L 177.976511 706.360209 
L 177.976511 707.340092 
L 178.420017 708.564947 
L 178.863523 710.769686 
L 178.863523 712.729453 
L 177.976511 714.44425 
L 178.420017 714.934192 
L 178.863523 715.669105 
L 179.750536 717.383902 
L 178.420017 718.118814 
L 178.420017 718.853727 
L 178.420017 719.833611 
L 178.863523 720.813495 
L 178.420017 722.283321 
L 177.976511 723.263204 
L 177.533004 723.998117 
L 177.089498 724.73303 
L 176.645992 727.427711 
L 173.541448 731.592217 
L 171.767423 738.206433 
L 166.888855 746.045503 
L 165.558336 750.21001 
L 165.11483 750.699951 
L 165.11483 750.944922 
L 165.11483 751.189893 
L 164.671324 751.189893 
L 166.001842 755.599371 
L 164.671324 758.294051 
L 162.010286 760.49879 
L 159.349249 763.19347 
L 159.792755 763.438441 
L 160.236261 764.173354 
L 158.462236 765.153238 
L 157.575224 766.868034 
L 156.244705 773.48225 
L 155.801199 774.952076 
L 154.47068 777.401786 
L 154.027174 779.116582 
L 152.253149 782.791147 
L 151.809643 784.505943 
L 151.809643 786.955653 
L 152.253149 788.91542 
L 152.696655 790.385246 
L 153.583668 792.100043 
L 153.583668 792.834956 
L 152.696655 795.284665 
L 153.583668 797.489404 
L 154.914186 799.449172 
L 156.244705 801.898881 
L 157.575224 803.123736 
L 157.575224 803.858649 
L 157.575224 804.838533 
L 157.575224 805.573445 
L 157.131718 805.818416 
L 156.688211 806.308358 
L 156.688211 808.268126 
L 155.801199 813.167545 
L 154.027174 817.332051 
L 156.244705 821.496558 
L 154.47068 831.540367 
L 155.357693 832.765221 
L 151.809643 833.255163 
L 150.92263 833.745105 
L 150.479124 834.480018 
L 150.035618 835.949844 
L 149.592112 837.174699 
L 148.261593 838.154582 
L 147.37458 840.359321 
L 146.487568 840.604292 
L 145.157049 840.849263 
L 143.826531 841.339205 
L 142.496012 841.584176 
L 142.496012 842.319089 
L 142.939518 842.319089 
L 143.383024 842.809031 
L 142.496012 845.013769 
L 141.165493 849.178275 
L 139.834974 850.648101 
L 138.947962 850.648101 
L 138.947962 849.913188 
L 137.617443 849.423246 
L 136.730431 848.933305 
L 135.843418 849.668217 
L 135.399912 852.85284 
L 134.069393 854.567636 
L 134.956406 856.282433 
L 133.625887 857.99723 
L 130.96485 858.977114 
L 129.634331 859.467056 
L 128.303812 859.467056 
L 127.860306 859.467056 
L 128.303812 861.671794 
L 128.747319 862.651678 
L 133.182381 862.651678 
L 133.182381 863.386591 
L 132.295368 863.386591 
L 132.295368 864.611446 
L 133.182381 865.101388 
L 133.625887 865.8363 
L 134.069393 867.551097 
L 132.738875 866.816184 
L 132.295368 866.571213 
L 132.738875 867.061155 
L 132.738875 867.306126 
L 133.182381 867.551097 
L 133.182381 868.530981 
L 132.295368 868.530981 
L 131.851862 867.306126 
L 129.634331 864.366475 
L 127.4168 861.671794 
L 126.086281 860.69191 
L 125.199269 860.201968 
L 122.981738 859.467056 
L 111.450575 857.99723 
L 108.346032 856.037462 
L 99.919413 845.503711 
L 99.475907 845.013769 
L 98.588895 845.25874 
L 91.492795 838.399553 
L 89.71877 837.664641 
L 88.388251 837.41967 
L 86.614226 838.644524 
L 85.283708 834.724989 
L 84.396695 835.704873 
L 83.066176 834.235047 
L 78.631114 830.560483 
L 77.744102 830.070541 
L 77.300595 829.82557 
L 76.857089 829.090657 
L 76.413583 827.865802 
L 76.413583 827.37586 
L 75.52657 826.640948 
L 74.639558 826.151006 
L 72.422027 825.661064 
L 72.422027 821.986499 
L 66.656446 818.311935 
L 66.656446 815.617255 
L 64.882421 814.147429 
L 62.66489 811.207777 
L 61.334371 808.023155 
L 61.334371 805.818416 
L 60.890865 805.328474 
L 60.447359 805.083504 
L 60.003852 804.593562 
L 59.560346 803.858649 
L 59.11684 803.858649 
L 59.11684 804.838533 
L 58.229827 804.838533 
L 57.786321 804.10362 
L 56.455802 802.878765 
L 56.455802 802.388823 
L 54.681777 795.284665 
L 53.794765 794.304781 
L 52.907753 794.794723 
L 52.02074 792.834956 
L 49.359703 788.425479 
L 48.029184 785.975769 
L 32.06296 775.93196 
L 31.175947 774.462134 
L 30.732441 774.217163 
L 27.627897 769.072773 
L 25.410366 766.868034 
L 24.079847 764.908267 
L 24.079847 764.173354 
L 16.096735 758.04908 
L 14.766216 756.824225 
L 14.32271 755.599371 
L 13.879204 754.374516 
L 12.992191 752.659719 
L 11.218166 750.944922 
L 9.887648 750.21001 
L 10.77466 749.230126 
L 10.77466 750.21001 
L 11.661673 750.21001 
L 10.77466 745.555561 
L 8.557129 745.065619 
L 7.670117 747.025387 
L 9.887648 749.230126 
L 8.113623 748.495213 
L 6.783104 746.535445 
L 5.896092 743.840765 
L 5.452585 737.961462 
L 4.565573 735.511752 
L 2.348042 731.347246 
L 3.67856 728.407594 
L 5.452585 721.548408 
L 6.339598 718.363785 
L 5.009079 716.404018 
L 4.122067 715.179163 
L 3.67856 712.239511 
L 2.791548 711.74957 
L 1.461029 711.259628 
L 0.574017 710.524715 
L 0.130511 707.830034 
L -0.312996 701.215818 
L -0.756502 699.501022 
L -0.756502 698.521138 
L 0.130511 697.296283 
L 0.130511 695.826457 
L -0.312996 692.641835 
L -0.312996 691.906922 
L -0.756502 689.702184 
L -1.200008 687.497445 
L -0.756502 686.517561 
L 0.130511 685.537677 
L -0.312996 683.57791 
L -2.087021 682.108084 
L -2.530527 682.108084 
L -2.974033 680.638258 
L -3.861045 679.413403 
L -4.748058 679.168432 
L -6.078577 679.658374 
L -7.409095 677.943578 
L -10.513639 675.98381 
L -11.844158 674.758955 
L -13.618183 671.084391 
L -13.618183 670.104507 
L -14.061689 669.369594 
L -15.835714 667.899769 
L -16.27922 667.164856 
L -16.722726 666.919885 
L -18.496751 663.735262 
L -18.940257 663.490291 
L -20.270776 663.000349 
L -20.270776 662.755378 
L -20.714282 662.265437 
L -21.157789 661.040582 
L -21.157789 660.795611 
L -26.92337 654.671337 
L -28.697395 654.181395 
L -31.358432 652.466598 
L -34.019469 650.506831 
L -35.793494 648.792034 
L -36.237001 646.587295 
L -37.124013 643.647644 
L -37.567519 640.952963 
L -39.341544 639.728109 
L -40.672063 639.483138 
L -41.559075 638.258283 
L -43.776607 631.889038 
L -44.220113 631.889038 
L -43.776607 626.499677 
L -44.220113 624.049968 
L -47.324656 622.335171 
L -53.533744 617.925694 
L -52.646731 617.925694 
L -53.090238 616.94581 
L -53.533744 616.455868 
L -53.97725 616.210897 
L -54.864262 615.965926 
L -54.864262 615.720955 
L -54.420756 615.231013 
L -53.97725 614.741071 
L -54.420756 614.006158 
L -54.864262 614.006158 
L -55.751275 615.231013 
L -55.751275 616.210897 
L -55.751275 617.190781 
L -54.864262 617.925694 
L -56.638287 617.925694 
L -55.751275 612.536333 
L -55.751275 605.922117 
L -57.081794 599.797843 
L -61.07335 597.103162 
L -61.07335 596.123279 
L -60.186337 594.408482 
L -60.186337 592.448714 
L -60.629843 590.243976 
L -61.07335 588.039237 
L -60.629843 586.079469 
L -59.742831 583.139818 
L -59.299325 581.669992 
L -59.299325 579.220283 
L -59.742831 577.750457 
L -60.186337 576.525602 
L -61.07335 575.055776 
L -63.734387 571.381212 
L -64.177893 569.666415 
L -65.064906 568.931503 
L -67.725943 565.74688 
L -70.386981 564.522025 
L -69.499968 563.0522 
L -68.169449 561.827345 
L -67.725943 561.337403 
L -67.725943 557.172897 
L -69.499968 554.478216 
L -74.378537 549.333826 
L -73.048018 548.598913 
L -72.604512 547.864 
L -73.048018 547.129088 
L -73.491524 546.394175 
L -73.048018 546.149204 
L -72.604512 545.904233 
L -73.048018 545.659262 
L -73.491524 545.414291 
L -73.935031 544.434407 
L -74.822043 543.699494 
L -75.265549 542.964581 
L -75.709055 542.474639 
L -75.265549 541.984698 
L -74.822043 541.739727 
L -74.378537 541.494756 
L -73.491524 541.494756 
L -73.491524 540.514872 
L -73.935031 539.534988 
L -73.935031 538.555104 
L -73.491524 537.330249 
L -74.378537 537.330249 
L -76.152562 541.004814 
L -76.152562 542.474639 
L -75.709055 543.699494 
L -75.265549 544.434407 
L -74.378537 545.414291 
L -74.378537 547.374059 
L -75.265549 547.374059 
L -75.709055 545.414291 
L -76.596068 544.434407 
L -77.926587 544.434407 
L -79.257105 545.414291 
L -81.474637 544.679378 
L -84.135674 546.149204 
L -85.909699 548.843884 
L -87.240218 551.293594 
L -87.240218 553.988274 
L -86.353205 556.193013 
L -84.57918 557.662839 
L -81.918143 558.397752 
L -84.135674 560.112548 
L -94.336317 575.055776 
L -95.22333 576.280631 
L -96.553848 577.505486 
L -100.101898 584.364673 
L -100.545405 586.569411 
L -100.545405 592.693685 
L -101.432417 595.143395 
L -103.206442 597.103162 
L -103.206442 598.083046 
L -101.875923 599.307901 
L -100.545405 601.267669 
L -99.214886 603.227436 
L -98.327873 606.412059 
L -96.997355 607.881884 
L -90.788267 612.046391 
L -89.014242 613.516216 
L -83.692168 620.130432 
L -79.700612 622.580142 
L -76.152562 626.254706 
L -73.048018 630.664183 
L -71.717499 633.358864 
L -71.273993 637.033428 
L -70.386981 641.687876 
L -68.612956 646.097354 
L -66.838931 648.792034 
L -66.838931 649.771918 
L -67.282437 652.221627 
L -63.734387 666.674914 
L -63.734387 667.899769 
L -63.290881 671.084391 
L -64.177893 672.309246 
L -65.508412 673.534101 
L -65.951918 675.248897 
L -67.282437 675.738839 
L -67.725943 677.208665 
L -66.838931 678.678491 
L -67.282437 682.842997 
L -67.725943 687.987387 
L -66.838931 689.702184 
L -63.290881 693.621719 
L -61.960362 695.581486 
L -61.516856 697.051312 
L -61.516856 699.990964 
L -61.07335 701.460789 
L -57.968806 704.645412 
L -57.5253 704.890383 
L -52.646731 712.484482 
L -48.211669 713.219395 
L -45.550632 716.159047 
L -43.776607 720.568524 
L -38.011026 742.125968 
L -37.567519 745.065619 
L -36.237001 745.800532 
L -30.47142 749.230126 
L -27.366876 752.169777 
L -26.036357 754.129545 
L -24.705839 756.579254 
L -23.818826 757.069196 
L -22.488307 757.559138 
L -21.157789 758.04908 
L -20.714282 759.028964 
L -19.82727 761.968615 
L -16.27922 769.072773 
L -15.392208 770.052657 
L -15.392208 770.78757 
L -15.392208 771.032541 
L -15.835714 771.032541 
L -16.27922 771.032541 
L -10.957145 775.686989 
L -8.296108 778.871611 
L -8.739614 781.811263 
L -7.852602 782.791147 
L -6.965589 784.260972 
L -6.078577 786.22074 
L -6.078577 787.445595 
L -5.63507 787.935537 
L -2.530527 792.100043 
L 3.235054 798.469288 
L 4.565573 801.65391 
L 5.896092 802.388823 
L 7.22661 803.123736 
L 8.113623 803.858649 
L 9.000635 805.818416 
L 8.557129 807.288242 
L 9.000635 808.513097 
L 11.218166 808.758068 
L 13.435698 809.982923 
L 17.427254 815.127313 
L 20.088291 816.842109 
L 20.088291 817.577022 
L 20.088291 818.801877 
L 20.088291 819.781761 
L 19.644785 821.006616 
L 20.975304 821.741528 
L 22.305822 822.23147 
L 23.636341 821.741528 
L 24.523354 823.946267 
L 27.184391 825.171122 
L 32.949972 826.885919 
L 41.37659 835.214931 
L 44.481134 841.339205 
L 45.811653 842.809031 
L 46.698665 844.278856 
L 49.359703 850.893072 
L 49.803209 852.607869 
L 49.803209 853.587753 
L 50.246715 854.567636 
L 50.690221 857.507288 
L 51.577234 858.487172 
L 51.577234 859.467056 
L 50.690221 859.467056 
L 48.916196 859.467056 
L 47.585678 856.282433 
L 44.481134 854.322666 
L 41.37659 853.097811 
L 38.715553 851.627985 
L 37.828541 851.627985 
L 36.941528 853.587753 
L 36.941528 854.812607 
L 36.941528 855.792491 
L 37.828541 857.507288 
L 40.046072 859.956997 
L 41.37659 861.916765 
L 41.820097 864.121504 
L 42.707109 865.101388 
L 44.481134 864.611446 
L 46.255159 863.631562 
L 47.142171 864.121504 
L 47.142171 866.081271 
L 46.698665 868.041039 
L 45.811653 870.000807 
L 44.481134 871.470632 
L 44.92464 871.960574 
L 45.811653 872.940458 
L 46.255159 873.4304 
L 48.47269 875.145197 
L 49.359703 875.390168 
L 49.803209 875.88011 
L 50.690221 878.57479 
L 51.577234 879.554674 
L 51.577234 880.534558 
L 50.246715 879.309703 
L 47.142171 875.390168 
L 46.255159 875.390168 
L 46.255159 876.370051 
L 46.698665 877.349935 
L 47.142171 878.57479 
L 46.255159 878.57479 
L 45.368147 875.635139 
L 43.150615 875.88011 
L 40.933084 877.839877 
L 39.602565 880.534558 
L 42.263603 882.004383 
L 44.481134 884.944035 
L 48.029184 891.31328 
L 47.585678 892.293164 
L 47.142171 893.518018 
L 47.142171 894.742873 
L 47.142171 896.45767 
L 49.359703 897.927496 
L 54.681777 900.622176 
L 56.455802 902.336973 
L 56.899309 903.561828 
L 56.899309 906.74645 
L 57.342815 908.216276 
L 58.229827 909.44113 
L 60.447359 911.89084 
L 61.334371 913.360666 
L 61.777877 916.300317 
L 62.66489 922.669562 
L 63.551902 924.62933 
L 67.543458 928.793836 
L 72.422027 932.223429 
L 77.744102 934.673139 
L 79.961633 936.632906 
L 81.735658 939.082616 
L 82.179164 940.552442 
L 81.735658 946.186774 
L 81.292152 946.676716 
L 80.405139 947.411629 
L 79.961633 948.146541 
L 79.961633 948.881454 
L 80.848645 950.106309 
L 80.848645 951.086193 
L 80.848645 954.270815 
L 81.735658 956.720525 
L 82.62267 958.680292 
L 85.283708 960.395089 
L 87.057733 962.599828 
L 89.275264 965.78445 
L 90.162276 968.23416 
L 88.388251 967.989189 
L 88.388251 970.193927 
L 89.275264 972.153695 
L 91.936301 975.828259 
L 92.823314 978.032998 
L 94.597339 982.197504 
L 95.484351 984.157272 
L 97.258376 985.627098 
L 99.032401 986.606981 
L 100.36292 987.586865 
L 101.249932 989.301662 
L 102.136945 993.95611 
L 102.136945 996.160849 
L 101.249932 997.875645 
L 99.032401 997.875645 
L 97.701882 996.650791 
L 96.81487 995.915878 
L 95.040845 998.855529 
L 95.040845 1000.570326 
L 95.040845 1003.265006 
L 95.040845 1005.714716 
L 95.484351 1007.674484 
L 95.484351 1011.594019 
L 93.26682 1020.412973 
L 94.597339 1024.577479 
L 95.927857 1026.047305 
L 99.919413 1027.27216 
L 102.136945 1028.497015 
L 103.467463 1030.701753 
L 104.354476 1035.111231 
L 108.789538 1040.745563 
L 110.120057 1044.665098 
L 114.555119 1057.403587 
L 116.329144 1061.323123 
L 118.990181 1065.242658 
L 120.3207 1068.917222 
L 123.425244 1073.571671 
L 134.069393 1099.04865 
L 138.504456 1106.642749 
L 143.383024 1119.136268 
L 153.140162 1133.344584 
L 154.027174 1135.304351 
L 155.357693 1139.468857 
L 163.340805 1152.452318 
L 167.775867 1157.596708 
L 169.106386 1159.311505 
L 179.750536 1181.848833 
L 181.524561 1188.70802 
L 184.185598 1194.832293 
L 185.516117 1202.181422 
L 187.733648 1206.100957 
L 193.055723 1213.450086 
L 193.942735 1215.164883 
L 195.273254 1219.57436 
L 195.71676 1221.534128 
L 199.708316 1227.41343 
L 201.038835 1233.782675 
L 206.804416 1244.316426 
L 217.448565 1263.914103 
L 217.892072 1268.568551 
L 219.22259 1272.488086 
L 220.996615 1275.182767 
L 223.657653 1278.122418 
L 224.101159 1280.817099 
L 224.101159 1286.20646 
L 224.544665 1288.90114 
L 224.988171 1291.105879 
L 225.875184 1292.820676 
L 227.649209 1294.04553 
L 229.423234 1295.515356 
L 232.527777 1298.699978 
L 234.745309 1302.864485 
L 237.849852 1314.133149 
L 238.293359 1316.092916 
L 240.51089 1319.767481 
L 242.728421 1324.421929 
L 244.502446 1326.136725 
L 244.502446 1328.341464 
L 242.728421 1332.995912 
L 242.728421 1336.915447 
L 247.606989 1339.120186 
L 253.816077 1351.368734 
L 270.669314 1365.087107 
L 272.886845 1368.516701 
L 277.765413 1382.480045 
L 280.869957 1386.39958 
L 285.748526 1393.748709 
L 287.522551 1393.258767 
L 286.635538 1391.299 
L 285.748526 1389.339232 
L 287.079044 1389.094261 
L 289.296575 1391.788941 
L 292.844625 1393.503738 
L 297.279688 1398.403157 
L 299.053713 1402.567663 
L 299.497219 1406.73217 
L 303.045269 1409.181879 
L 307.036825 1408.446966 
L 310.141368 1409.42685 
L 313.245912 1410.406734 
L 315.90695 1411.87656 
L 317.680974 1414.081298 
L 320.342012 1420.450543 
L 322.559543 1423.635166 
L 321.672531 1425.104991 
L 319.898506 1422.16534 
L 317.237468 1419.225688 
L 315.463443 1419.225688 
L 311.028381 1421.430427 
L 309.254356 1422.410311 
L 306.593319 1421.185456 
L 304.375787 1420.205572 
L 302.158256 1419.71563 
L 300.384231 1419.960601 
L 298.610206 1419.71563 
L 296.392675 1418.735747 
L 295.505663 1417.510892 
L 294.175144 1415.796095 
L 292.844625 1415.306153 
L 292.844625 1414.57124 
L 290.627094 1413.591356 
L 287.966057 1412.856444 
L 287.079044 1413.591356 
L 285.305019 1417.02095 
L 284.418007 1421.430427 
L 285.305019 1428.289614 
L 283.974501 1434.413888 
L 283.530994 1438.823365 
L 284.418007 1442.497929 
L 286.635538 1442.987871 
L 287.522551 1444.702668 
L 287.522551 1446.907406 
L 287.079044 1447.88729 
L 287.522551 1450.337 
L 287.522551 1452.051796 
L 287.522551 1455.236419 
L 287.079044 1461.360693 
L 287.079044 1473.854211 
L 286.635538 1476.303921 
L 285.305019 1480.223456 
L 285.305019 1482.428195 
L 285.748526 1484.632934 
L 286.635538 1486.837672 
L 289.296575 1490.757207 
L 291.514107 1495.166685 
L 292.401119 1497.371423 
L 292.844625 1499.821133 
L 292.401119 1506.680319 
L 293.731638 1513.539506 
L 294.61865 1518.928867 
L 295.505663 1523.828286 
L 301.271244 1534.362037 
L 303.045269 1538.526544 
L 305.2628 1543.915905 
L 307.036825 1557.144336 
L 307.923837 1559.349075 
L 310.584875 1564.493465 
L 315.463443 1571.352652 
L 319.011493 1573.312419 
L 317.237468 1571.107681 
L 314.132925 1564.493465 
L 316.350456 1564.493465 
L 318.124481 1565.71832 
L 319.011493 1567.923058 
L 319.898506 1570.372768 
L 321.229024 1577.476926 
L 321.672531 1578.70178 
L 323.446556 1580.171606 
L 324.777074 1581.886403 
L 325.22058 1583.601199 
L 326.994605 1585.805938 
L 329.212137 1588.99056 
L 334.090705 1592.910096 
L 338.525767 1594.869863 
L 340.743299 1595.604776 
L 341.186805 1596.094718 
L 342.517324 1597.319573 
L 344.291349 1598.299457 
L 346.065373 1599.03437 
L 353.161473 1599.524312 
L 362.91861 1601.484079 
L 372.232241 1605.158644 
L 375.780291 1607.363382 
L 381.989378 1613.732627 
L 383.763403 1617.16222 
L 384.650416 1623.776436 
L 386.424441 1628.185913 
L 390.415997 1631.860478 
L 393.964047 1635.0451 
L 396.181578 1636.024984 
L 397.955603 1636.759897 
L 397.512097 1634.555158 
L 397.955603 1634.555158 
L 400.61664 1637.739781 
L 400.173134 1641.904287 
L 402.390665 1648.028561 
L 410.373777 1651.948096 
L 414.80884 1654.642776 
L 417.469877 1656.602544 
L 425.009483 1663.461731 
L 436.097139 1674.975366 
L 438.31467 1676.445192 
L 440.088695 1676.200221 
L 440.532201 1675.465308 
L 440.975708 1674.485424 
L 441.419214 1673.995482 
L 442.306226 1674.240453 
L 444.523758 1675.710279 
L 445.41077 1676.690162 
L 445.854276 1677.670046 
L 447.628301 1682.079523 
L 448.95882 1683.79432 
L 450.732845 1685.754088 
L 455.611413 1688.93871 
L 458.272451 1689.918594 
L 458.715957 1695.307955 
L 458.715957 1697.022752 
L 457.828945 1698.737548 
L 456.941932 1700.207374 
L 428.114027 1700.207374 
L 399.286122 1700.207374 
L 370.901723 1700.207374 
L 342.073817 1700.207374 
L 313.245912 1700.207374 
L 284.861513 1700.207374 
L 256.033608 1700.207374 
L 227.205703 1700.207374 
L 198.821304 1700.207374 
L 169.993398 1700.207374 
L 141.608999 1700.207374 
L 112.781094 1700.207374 
L 111.894082 1700.207374 
L 83.953189 1700.207374 
L 55.56879 1700.207374 
L 26.740885 1700.207374 
L 0.574017 1700.207374 
L -2.087021 1700.207374 
L -14.505195 1700.207374 
L -26.92337 1700.207374 
L -39.78505 1700.207374 
L -52.203225 1700.207374 
L -65.064906 1700.207374 
L -77.48308 1700.207374 
L -80.144118 1700.207374 
L -90.344761 1700.207374 
L -102.762936 1700.207374 
L -115.624617 1700.207374 
L -128.042791 1700.207374 
L -140.460966 1700.207374 
L -153.322646 1700.207374 
L -165.740821 1700.207374 
L -178.602502 1700.207374 
L -191.020676 1700.207374 
L -203.882357 1700.207374 
L -206.986901 1700.207374 
L -214.526507 1700.207374 
L -210.534951 1687.468884 
L -207.430407 1678.159988 
L -207.430407 1674.485424 
L -208.31742 1671.300801 
L -210.978457 1668.36115 
L -213.639494 1667.136295 
L -215.857026 1666.646353 
L -218.074557 1667.136295 
L -220.292088 1668.606121 
L -223.840138 1672.280685 
L -229.162213 1684.774204 
L -229.605719 1685.754088 
L -235.814806 1699.472461 
L -237.145325 1700.452345 
L -242.023893 1700.452345 
L -253.998562 1700.452345 
L -265.97323 1700.452345 
L -277.947898 1700.452345 
L -289.922567 1700.452345 
L -301.897235 1700.452345 
L -313.871903 1700.452345 
L -325.846572 1700.452345 
L -337.82124 1700.452345 
L -349.795908 1700.452345 
L -361.770577 1700.452345 
L -374.188751 1700.452345 
L -386.16342 1700.452345 
L -398.138088 1700.452345 
L -410.112756 1700.452345 
L -422.087425 1700.452345 
L -434.062093 1700.452345 
L -446.036761 1700.452345 
L -458.01143 1700.452345 
L -469.986098 1700.452345 
L -481.960766 1700.452345 
L -493.935435 1700.452345 
L -505.910103 1700.452345 
L -517.884771 1700.452345 
L -529.85944 1700.452345 
L -541.834108 1700.452345 
L -553.808776 1700.452345 
L -565.783445 1700.452345 
L -577.758113 1700.452345 
L -589.732781 1700.452345 
L -601.70745 1700.452345 
L -613.682118 1700.452345 
L -625.656786 1700.452345 
L -637.631454 1700.452345 
L -649.606123 1700.452345 
L -661.580791 1700.452345 
L -673.555459 1700.452345 
L -685.530128 1700.452345 
L -697.504796 1700.452345 
L -709.479464 1700.452345 
L -721.897639 1700.452345 
L -733.872307 1700.452345 
L -745.846976 1700.452345 
L -757.821644 1700.452345 
L -769.796312 1700.452345 
L -781.770981 1700.452345 
L -793.745649 1700.452345 
L -805.720317 1700.452345 
L -817.694986 1700.452345 
L -829.669654 1700.452345 
L -841.644322 1700.452345 
L -853.618991 1700.207374 
L -865.593659 1700.207374 
L -877.568327 1700.207374 
L -889.542996 1700.207374 
L -901.517664 1700.207374 
L -913.492332 1700.207374 
L -925.467001 1700.207374 
L -937.441669 1700.207374 
L -949.416337 1700.207374 
L -961.391006 1700.207374 
L -973.365674 1700.207374 
L -985.340342 1700.207374 
L -997.315011 1700.207374 
L -1009.289679 1700.207374 
L -1009.289679 1658.07237 
L -1009.289679 1615.692395 
L -1009.289679 1573.312419 
L -1009.289679 1530.932444 
L -1009.289679 1488.552469 
L -1009.289679 1446.172494 
L -1009.289679 1404.037489 
L -1009.289679 1361.657514 
L -1009.289679 1319.277539 
L -1009.289679 1276.897563 
L -1009.289679 1234.517588 
L -1009.289679 1192.137613 
L -1009.289679 1150.002609 
L -1009.289679 1107.622633 
L -1009.289679 1065.242658 
L -1009.289679 1022.862683 
L -1009.289679 994.446052 
L -1009.289679 967.009305 
L -1009.289679 954.270815 
L -1009.289679 905.276624 
L -1009.289679 883.229238 
L -1009.289679 877.594906 
L -1009.289679 826.395977 
L -1009.289679 815.127313 
L -1009.289679 757.804109 
L -1009.289679 699.990964 
L -1009.289679 675.738839 
L -1009.289679 657.855959 
L -1010.176691 649.526947 
L -1012.394223 641.687876 
L -1022.594866 616.210897 
L -1023.925385 611.066507 
L -1024.368891 605.432175 
L -1023.038372 594.898424 
L -1023.038372 591.46883 
L -1024.812397 585.589528 
L -1031.021484 574.565835 
L -1031.908497 568.441561 
L -1030.134472 561.092432 
L -1029.690966 558.152781 
L -1030.134472 554.968158 
L -1040.778622 527.531411 
L -1044.326671 521.162166 
z
" clip-path="url(#p4ce8d46d07)" style="fill: #bdc3c7; stroke: #ffffff; stroke-width: 0.5"/>
    <path d="M 162.010286 829.82557 
L 162.453792 829.090657 
L 162.453792 828.845686 
L 162.897299 829.82557 
L 163.340805 828.600715 
L 163.784311 827.620831 
L 164.671324 827.130889 
L 165.558336 826.885919 
L 167.332361 827.865802 
L 168.219373 828.600715 
L 168.66288 829.82557 
L 165.558336 830.315512 
L 164.227817 831.050425 
L 163.784311 832.765221 
L 164.227817 833.255163 
L 164.671324 833.990076 
L 166.888855 834.235047 
L 170.436905 833.500134 
L 171.767423 833.010192 
L 172.21093 833.255163 
L 172.654436 833.255163 
L 173.097942 834.235047 
L 173.541448 835.214931 
L 173.541448 835.704873 
L 175.758979 837.41967 
L 177.976511 839.624408 
L 177.976511 840.604292 
L 173.541448 841.094234 
L 169.106386 840.849263 
L 165.558336 839.379437 
L 162.897299 835.949844 
L 162.897299 835.704873 
L 162.897299 833.745105 
L 162.453792 830.805454 
z
" clip-path="url(#p4ce8d46d07)" style="fill: #bdc3c7; stroke: #ffffff; stroke-width: 0.5"/>
    <path d="M 91.049289 898.172467 
L 91.492795 897.437554 
L 92.379807 896.702641 
L 93.26682 896.45767 
L 94.597339 896.45767 
L 97.258376 896.702641 
L 98.145388 897.437554 
L 99.032401 898.172467 
L 100.36292 899.15235 
L 100.806426 899.642292 
L 102.580451 900.377205 
L 105.241488 901.357089 
L 106.128501 903.806798 
L 106.572007 906.501479 
L 107.902526 908.216276 
L 107.902526 909.19616 
L 107.015513 908.951189 
L 105.241488 908.706218 
L 103.023957 906.011537 
L 102.580451 905.276624 
L 99.919413 904.29674 
L 98.588895 903.561828 
L 97.701882 902.092002 
L 96.371363 901.112118 
L 93.26682 902.581944 
L 92.379807 901.60206 
L 91.492795 899.887263 
z
" clip-path="url(#p4ce8d46d07)" style="fill: #bdc3c7; stroke: #ffffff; stroke-width: 0.5"/>
    <path d="M -29.584407 372.464796 
L -28.253888 370.260058 
L -25.149345 368.790232 
L -22.931814 367.565377 
L -21.601295 366.585494 
L -19.82727 365.360639 
L -13.174676 362.420987 
L -11.844158 360.951162 
L -8.739614 358.991394 
L 10.77466 361.441103 
L 9.887648 362.176016 
L 8.557129 362.176016 
L 4.565573 361.441103 
L 1.017523 360.951162 
L -2.530527 360.216249 
L -6.965589 361.441103 
L -8.739614 360.951162 
L -12.287664 362.176016 
L -26.92337 370.260058 
z
" clip-path="url(#p4ce8d46d07)" style="fill: #bdc3c7; stroke: #ffffff; stroke-width: 0.5"/>
    <path d="M 11.661673 362.420987 
L 15.653229 362.665958 
L 21.862316 365.60561 
L 24.96686 366.340523 
L 28.51491 367.075435 
L 31.619453 369.035203 
L 36.941528 373.44468 
L 34.280491 371.484913 
L 15.209723 363.1559 
z
" clip-path="url(#p4ce8d46d07)" style="fill: #bdc3c7; stroke: #ffffff; stroke-width: 0.5"/>
    <path d="M 95.927857 1004.734832 
L 98.145388 1004.734832 
L 98.588895 1004.734832 
L 101.249932 1010.369164 
L 102.136945 1013.063845 
L 102.136945 1016.493438 
L 100.36292 1014.778641 
L 99.475907 1012.818874 
z
" clip-path="url(#p4ce8d46d07)" style="fill: #bdc3c7; stroke: #ffffff; stroke-width: 0.5"/>
    <path d="M -25.149345 381.283751 
L -24.262332 380.793809 
L -23.818826 380.793809 
L -23.37532 381.773693 
L -22.931814 383.243518 
L -24.262332 382.018664 
L -24.705839 381.283751 
z
" clip-path="url(#p4ce8d46d07)" style="fill: #bdc3c7; stroke: #ffffff; stroke-width: 0.5"/>
    <path d="M 183.298585 839.379437 
L 185.516117 835.214931 
L 191.725204 835.459902 
L 191.725204 840.849263 
L 188.62066 842.56406 
L 185.516117 841.584176 
z
" clip-path="url(#p4ce8d46d07)" style="fill: #bdc3c7; stroke: #ffffff; stroke-width: 0.5"/>
   </g>
   <g id="PatchCollection_2">
    <path d="M 208.578441 336.454066 
L 210.352466 331.554647 
L 215.674541 322.245751 
L 216.561553 317.591302 
L 216.561553 313.426796 
L 217.005059 309.507261 
L 219.22259 305.587726 
L 219.22259 305.097784 
L 221.440122 302.403103 
L 231.640765 295.053975 
L 235.632321 290.644497 
L 237.849852 288.68473 
L 240.51089 287.704846 
L 248.050496 285.990049 
L 248.494002 286.724962 
L 249.381014 286.969933 
L 249.824521 286.724962 
L 250.268027 285.990049 
L 250.268027 282.805427 
L 250.268027 280.355717 
L 249.381014 278.640921 
L 247.163483 277.171095 
L 238.736865 275.211327 
L 232.084271 272.271676 
L 230.310246 271.781734 
L 229.423234 272.516647 
L 227.205703 274.721385 
L 226.31869 275.456298 
L 225.431678 275.701269 
L 223.214147 275.701269 
L 219.22259 274.966356 
L 217.892072 272.516647 
L 218.335578 272.026705 
L 219.22259 270.066937 
L 222.327134 268.842082 
L 225.875184 266.882315 
L 224.101159 261.982896 
L 221.883628 256.348564 
L 222.327134 251.939086 
L 222.327134 251.449145 
L 222.327134 250.959203 
L 222.327134 250.469261 
L 222.327134 249.979319 
L 222.327134 249.734348 
L 222.327134 246.549725 
L 222.327134 243.855045 
L 220.996615 230.136671 
L 220.109603 227.686962 
L 218.335578 223.032514 
L 218.335578 221.807659 
L 220.109603 219.60292 
L 224.988171 215.193443 
L 225.875184 213.478646 
L 226.31869 211.518879 
L 225.875184 210.049053 
L 224.988171 209.069169 
L 223.657653 208.579227 
L 224.101159 206.61946 
L 224.544665 201.965012 
L 224.988171 200.250215 
L 225.431678 199.760273 
L 227.205703 199.270331 
L 227.649209 198.780389 
L 228.536221 195.840738 
L 228.979728 193.391028 
L 230.310246 185.796929 
L 232.527777 181.632422 
L 236.075827 179.427684 
L 239.623877 177.467916 
L 243.615433 175.263177 
L 246.719977 171.588613 
L 248.494002 170.363758 
L 250.711533 170.118787 
L 250.711533 170.363758 
L 252.485558 171.098671 
L 256.033608 174.038323 
L 258.251139 174.773236 
L 265.790745 174.528265 
L 269.338795 174.773236 
L 273.330351 177.222945 
L 274.217364 180.652538 
L 274.217364 185.062016 
L 275.104376 188.73658 
L 278.20892 189.716464 
L 280.869957 189.716464 
L 283.974501 190.451377 
L 293.731638 193.146057 
L 294.175144 194.125941 
L 294.61865 195.595767 
L 293.731638 195.595767 
L 293.731638 194.370912 
L 292.844625 194.370912 
L 292.844625 195.595767 
L 293.288132 196.820621 
L 293.288132 201.230099 
L 294.61865 203.434837 
L 294.175144 205.149634 
L 293.731638 207.844314 
L 294.175144 210.538995 
L 295.505663 212.253792 
L 294.61865 212.743734 
L 294.175144 212.988705 
L 293.731638 213.478646 
L 293.731638 214.45853 
L 295.505663 214.45853 
L 293.731638 221.317717 
L 293.288132 223.522456 
L 293.731638 225.237252 
L 293.731638 226.462107 
L 292.844625 226.952049 
L 291.957613 227.441991 
L 291.957613 228.421875 
L 292.844625 229.156788 
L 290.627094 232.831352 
L 290.627094 234.546149 
L 291.957613 236.260945 
L 289.740082 237.975742 
L 289.296575 240.425452 
L 289.296575 247.284638 
L 290.627094 250.469261 
L 291.0706 252.184057 
L 291.0706 254.143825 
L 291.514107 255.36868 
L 291.957613 256.838506 
L 291.957613 258.06336 
L 291.514107 258.798273 
L 290.627094 259.043244 
L 289.740082 259.288215 
L 289.296575 260.51307 
L 292.401119 272.271676 
L 291.0706 273.986472 
L 291.0706 274.966356 
L 293.731638 282.805427 
L 289.740082 287.214904 
L 286.635538 294.564033 
L 283.974501 300.933277 
L 282.200476 311.467029 
L 281.313463 322.245751 
L 281.313463 322.490722 
L 272.886845 323.225634 
L 265.790745 327.390141 
L 252.485558 338.658805 
L 244.945952 341.353485 
L 229.86674 341.353485 
L 222.327134 342.333369 
L 219.22259 343.313253 
L 215.674541 343.803195 
L 212.569997 343.313253 
L 209.90896 341.353485 
z
" clip-path="url(#p4ce8d46d07)" style="fill: #e74c3c; stroke: #ffffff; stroke-width: 0.6"/>
    <path d="M 126.086281 348.457643 
L 129.190825 346.497875 
L 130.96485 344.293137 
L 136.286925 339.393717 
L 138.947962 334.739269 
L 144.713543 330.329792 
L 146.931074 325.920315 
L 156.244705 316.366448 
L 160.679767 309.997203 
L 161.123274 309.26229 
L 164.671324 312.446912 
L 166.888855 315.386564 
L 166.888855 318.571186 
L 162.897299 322.245751 
L 162.453792 322.245751 
L 160.679767 323.470605 
L 146.931074 336.944008 
L 144.270037 342.088398 
L 144.270037 344.538108 
L 145.157049 349.437527 
L 144.713543 351.887236 
L 140.721987 356.786655 
L 134.069393 361.441103 
L 132.295368 363.1559 
L 130.077837 356.296713 
L 129.190825 353.847004 
z
" clip-path="url(#p4ce8d46d07)" style="fill: #e74c3c; stroke: #ffffff; stroke-width: 0.6"/>
   </g>
   <g id="text_1">
    <g id="patch_2">
     <path d="M 172.19728 334.127696 
L 194.29103 334.127696 
Q 195.69103 334.127696 195.69103 332.727696 
L 195.69103 325.727149 
Q 195.69103 324.327149 194.29103 324.327149 
L 172.19728 324.327149 
Q 170.79728 324.327149 170.79728 325.727149 
L 170.79728 332.727696 
Q 170.79728 334.127696 172.19728 334.127696 
z
" clip-path="url(#p4ce8d46d07)" style="fill: #ffffff; opacity: 0.6"/>
    </g>
    <g clip-path="url(#p4ce8d46d07)">
     <!-- Israel -->
     <g style="fill: #1a252f" transform="translate(172.19728 331.046056) scale(0.07 -0.07)">
      <defs>
       <path id="DejaVuSans-Bold-2c" d="M 588 4666 
L 1791 4666 
L 1791 0 
L 588 0 
L 588 4666 
z
" transform="scale(0.015625)"/>
       <path id="DejaVuSans-Bold-56" d="M 3272 3391 
L 3272 2541 
Q 2913 2691 2578 2766 
Q 2244 2841 1947 2841 
Q 1628 2841 1473 2761 
Q 1319 2681 1319 2516 
Q 1319 2381 1436 2309 
Q 1553 2238 1856 2203 
L 2053 2175 
Q 2913 2066 3209 1816 
Q 3506 1566 3506 1031 
Q 3506 472 3093 190 
Q 2681 -91 1863 -91 
Q 1516 -91 1145 -36 
Q 775 19 384 128 
L 384 978 
Q 719 816 1070 734 
Q 1422 653 1784 653 
Q 2113 653 2278 743 
Q 2444 834 2444 1013 
Q 2444 1163 2330 1236 
Q 2216 1309 1875 1350 
L 1678 1375 
Q 931 1469 631 1722 
Q 331 1975 331 2491 
Q 331 3047 712 3315 
Q 1094 3584 1881 3584 
Q 2191 3584 2531 3537 
Q 2872 3491 3272 3391 
z
" transform="scale(0.015625)"/>
       <path id="DejaVuSans-Bold-55" d="M 3138 2547 
Q 2991 2616 2845 2648 
Q 2700 2681 2553 2681 
Q 2122 2681 1889 2404 
Q 1656 2128 1656 1613 
L 1656 0 
L 538 0 
L 538 3500 
L 1656 3500 
L 1656 2925 
Q 1872 3269 2151 3426 
Q 2431 3584 2822 3584 
Q 2878 3584 2943 3579 
Q 3009 3575 3134 3559 
L 3138 2547 
z
" transform="scale(0.015625)"/>
       <path id="DejaVuSans-Bold-44" d="M 2106 1575 
Q 1756 1575 1579 1456 
Q 1403 1338 1403 1106 
Q 1403 894 1545 773 
Q 1688 653 1941 653 
Q 2256 653 2472 879 
Q 2688 1106 2688 1447 
L 2688 1575 
L 2106 1575 
z
M 3816 1997 
L 3816 0 
L 2688 0 
L 2688 519 
Q 2463 200 2181 54 
Q 1900 -91 1497 -91 
Q 953 -91 614 226 
Q 275 544 275 1050 
Q 275 1666 698 1953 
Q 1122 2241 2028 2241 
L 2688 2241 
L 2688 2328 
Q 2688 2594 2478 2717 
Q 2269 2841 1825 2841 
Q 1466 2841 1156 2769 
Q 847 2697 581 2553 
L 581 3406 
Q 941 3494 1303 3539 
Q 1666 3584 2028 3584 
Q 2975 3584 3395 3211 
Q 3816 2838 3816 1997 
z
" transform="scale(0.015625)"/>
       <path id="DejaVuSans-Bold-48" d="M 4031 1759 
L 4031 1441 
L 1416 1441 
Q 1456 1047 1700 850 
Q 1944 653 2381 653 
Q 2734 653 3104 758 
Q 3475 863 3866 1075 
L 3866 213 
Q 3469 63 3072 -14 
Q 2675 -91 2278 -91 
Q 1328 -91 801 392 
Q 275 875 275 1747 
Q 275 2603 792 3093 
Q 1309 3584 2216 3584 
Q 3041 3584 3536 3087 
Q 4031 2591 4031 1759 
z
M 2881 2131 
Q 2881 2450 2695 2645 
Q 2509 2841 2209 2841 
Q 1884 2841 1681 2658 
Q 1478 2475 1428 2131 
L 2881 2131 
z
" transform="scale(0.015625)"/>
       <path id="DejaVuSans-Bold-4f" d="M 538 4863 
L 1656 4863 
L 1656 0 
L 538 0 
L 538 4863 
z
" transform="scale(0.015625)"/>
      </defs>
      <use xlink:href="#DejaVuSans-Bold-2c"/>
      <use xlink:href="#DejaVuSans-Bold-56" transform="translate(37.203125 0)"/>
      <use xlink:href="#DejaVuSans-Bold-55" transform="translate(96.71875 0)"/>
      <use xlink:href="#DejaVuSans-Bold-44" transform="translate(146.03125 0)"/>
      <use xlink:href="#DejaVuSans-Bold-48" transform="translate(213.515625 0)"/>
      <use xlink:href="#DejaVuSans-Bold-4f" transform="translate(281.34375 0)"/>
     </g>
    </g>
   </g>
   <g id="text_2">
    <g id="patch_3">
     <path d="M 372.1729 359.727161 
L 397.755712 359.727161 
Q 399.155712 359.727161 399.155712 358.327161 
L 399.155712 351.326614 
Q 399.155712 349.926614 397.755712 349.926614 
L 372.1729 349.926614 
Q 370.7729 349.926614 370.7729 351.326614 
L 370.7729 358.327161 
Q 370.7729 359.727161 372.1729 359.727161 
z
" clip-path="url(#p4ce8d46d07)" style="fill: #ffffff; opacity: 0.6"/>
    </g>
    <g clip-path="url(#p4ce8d46d07)">
     <!-- Jordan -->
     <g style="fill: #1a252f" transform="translate(372.1729 356.64552) scale(0.07 -0.07)">
      <defs>
       <path id="DejaVuSans-Bold-2d" d="M 588 4666 
L 1791 4666 
L 1791 453 
Q 1791 -419 1317 -850 
Q 844 -1281 -116 -1281 
L -359 -1281 
L -359 -372 
L -172 -372 
Q 203 -372 395 -162 
Q 588 47 588 453 
L 588 4666 
z
" transform="scale(0.015625)"/>
       <path id="DejaVuSans-Bold-52" d="M 2203 2784 
Q 1831 2784 1636 2517 
Q 1441 2250 1441 1747 
Q 1441 1244 1636 976 
Q 1831 709 2203 709 
Q 2569 709 2762 976 
Q 2956 1244 2956 1747 
Q 2956 2250 2762 2517 
Q 2569 2784 2203 2784 
z
M 2203 3584 
Q 3106 3584 3614 3096 
Q 4122 2609 4122 1747 
Q 4122 884 3614 396 
Q 3106 -91 2203 -91 
Q 1297 -91 786 396 
Q 275 884 275 1747 
Q 275 2609 786 3096 
Q 1297 3584 2203 3584 
z
" transform="scale(0.015625)"/>
       <path id="DejaVuSans-Bold-47" d="M 2919 2988 
L 2919 4863 
L 4044 4863 
L 4044 0 
L 2919 0 
L 2919 506 
Q 2688 197 2409 53 
Q 2131 -91 1766 -91 
Q 1119 -91 703 423 
Q 288 938 288 1747 
Q 288 2556 703 3070 
Q 1119 3584 1766 3584 
Q 2128 3584 2408 3439 
Q 2688 3294 2919 2988 
z
M 2181 722 
Q 2541 722 2730 984 
Q 2919 1247 2919 1747 
Q 2919 2247 2730 2509 
Q 2541 2772 2181 2772 
Q 1825 2772 1636 2509 
Q 1447 2247 1447 1747 
Q 1447 1247 1636 984 
Q 1825 722 2181 722 
z
" transform="scale(0.015625)"/>
       <path id="DejaVuSans-Bold-51" d="M 4056 2131 
L 4056 0 
L 2931 0 
L 2931 347 
L 2931 1631 
Q 2931 2084 2911 2256 
Q 2891 2428 2841 2509 
Q 2775 2619 2662 2680 
Q 2550 2741 2406 2741 
Q 2056 2741 1856 2470 
Q 1656 2200 1656 1722 
L 1656 0 
L 538 0 
L 538 3500 
L 1656 3500 
L 1656 2988 
Q 1909 3294 2193 3439 
Q 2478 3584 2822 3584 
Q 3428 3584 3742 3212 
Q 4056 2841 4056 2131 
z
" transform="scale(0.015625)"/>
      </defs>
      <use xlink:href="#DejaVuSans-Bold-2d"/>
      <use xlink:href="#DejaVuSans-Bold-52" transform="translate(37.203125 0)"/>
      <use xlink:href="#DejaVuSans-Bold-55" transform="translate(105.90625 0)"/>
      <use xlink:href="#DejaVuSans-Bold-47" transform="translate(155.21875 0)"/>
      <use xlink:href="#DejaVuSans-Bold-44" transform="translate(226.796875 0)"/>
      <use xlink:href="#DejaVuSans-Bold-51" transform="translate(294.28125 0)"/>
     </g>
    </g>
   </g>
   <g id="text_3">
    <!-- Palestine -->
    <g style="fill: #1a252f" transform="translate(166.526909 20.117344) scale(0.17 -0.17)">
     <defs>
      <path id="DejaVuSans-Bold-33" d="M 588 4666 
L 2584 4666 
Q 3475 4666 3951 4270 
Q 4428 3875 4428 3144 
Q 4428 2409 3951 2014 
Q 3475 1619 2584 1619 
L 1791 1619 
L 1791 0 
L 588 0 
L 588 4666 
z
M 1791 3794 
L 1791 2491 
L 2456 2491 
Q 2806 2491 2997 2661 
Q 3188 2831 3188 3144 
Q 3188 3456 2997 3625 
Q 2806 3794 2456 3794 
L 1791 3794 
z
" transform="scale(0.015625)"/>
      <path id="DejaVuSans-Bold-57" d="M 1759 4494 
L 1759 3500 
L 2913 3500 
L 2913 2700 
L 1759 2700 
L 1759 1216 
Q 1759 972 1856 886 
Q 1953 800 2241 800 
L 2816 800 
L 2816 0 
L 1856 0 
Q 1194 0 917 276 
Q 641 553 641 1216 
L 641 2700 
L 84 2700 
L 84 3500 
L 641 3500 
L 641 4494 
L 1759 4494 
z
" transform="scale(0.015625)"/>
      <path id="DejaVuSans-Bold-4c" d="M 538 3500 
L 1656 3500 
L 1656 0 
L 538 0 
L 538 3500 
z
M 538 4863 
L 1656 4863 
L 1656 3950 
L 538 3950 
L 538 4863 
z
" transform="scale(0.015625)"/>
     </defs>
     <use xlink:href="#DejaVuSans-Bold-33"/>
     <use xlink:href="#DejaVuSans-Bold-44" transform="translate(70.609375 0)"/>
     <use xlink:href="#DejaVuSans-Bold-4f" transform="translate(138.09375 0)"/>
     <use xlink:href="#DejaVuSans-Bold-48" transform="translate(172.375 0)"/>
     <use xlink:href="#DejaVuSans-Bold-56" transform="translate(240.203125 0)"/>
     <use xlink:href="#DejaVuSans-Bold-57" transform="translate(299.71875 0)"/>
     <use xlink:href="#DejaVuSans-Bold-4c" transform="translate(347.515625 0)"/>
     <use xlink:href="#DejaVuSans-Bold-51" transform="translate(381.796875 0)"/>
     <use xlink:href="#DejaVuSans-Bold-48" transform="translate(452.984375 0)"/>
    </g>
   </g>
   <g id="legend_1">
    <g id="patch_4">
     <path d="M 13.5 498.657344 
L 88.097344 498.657344 
Q 89.897344 498.657344 89.897344 496.857344 
L 89.897344 470.755937 
Q 89.897344 468.955937 88.097344 468.955937 
L 13.5 468.955937 
Q 11.7 468.955937 11.7 470.755937 
L 11.7 496.857344 
Q 11.7 498.657344 13.5 498.657344 
z
" style="fill: #ffffff; opacity: 0.85; stroke: #cccccc; stroke-linejoin: miter"/>
    </g>
    <g id="patch_5">
     <path d="M 15.3 479.394531 
L 33.3 479.394531 
L 33.3 473.094531 
L 15.3 473.094531 
z
" style="fill: #e74c3c; stroke: #888888; stroke-linejoin: miter"/>
    </g>
    <g id="text_4">
     <!-- Palestine -->
     <g transform="translate(40.5 479.394531) scale(0.09 -0.09)">
      <defs>
       <path id="DejaVuSans-33" d="M 1259 4147 
L 1259 2394 
L 2053 2394 
Q 2494 2394 2734 2622 
Q 2975 2850 2975 3272 
Q 2975 3691 2734 3919 
Q 2494 4147 2053 4147 
L 1259 4147 
z
M 628 4666 
L 2053 4666 
Q 2838 4666 3239 4311 
Q 3641 3956 3641 3272 
Q 3641 2581 3239 2228 
Q 2838 1875 2053 1875 
L 1259 1875 
L 1259 0 
L 628 0 
L 628 4666 
z
" transform="scale(0.015625)"/>
       <path id="DejaVuSans-44" d="M 2194 1759 
Q 1497 1759 1228 1600 
Q 959 1441 959 1056 
Q 959 750 1161 570 
Q 1363 391 1709 391 
Q 2188 391 2477 730 
Q 2766 1069 2766 1631 
L 2766 1759 
L 2194 1759 
z
M 3341 1997 
L 3341 0 
L 2766 0 
L 2766 531 
Q 2569 213 2275 61 
Q 1981 -91 1556 -91 
Q 1019 -91 701 211 
Q 384 513 384 1019 
Q 384 1609 779 1909 
Q 1175 2209 1959 2209 
L 2766 2209 
L 2766 2266 
Q 2766 2663 2505 2880 
Q 2244 3097 1772 3097 
Q 1472 3097 1187 3025 
Q 903 2953 641 2809 
L 641 3341 
Q 956 3463 1253 3523 
Q 1550 3584 1831 3584 
Q 2591 3584 2966 3190 
Q 3341 2797 3341 1997 
z
" transform="scale(0.015625)"/>
       <path id="DejaVuSans-4f" d="M 603 4863 
L 1178 4863 
L 1178 0 
L 603 0 
L 603 4863 
z
" transform="scale(0.015625)"/>
       <path id="DejaVuSans-48" d="M 3597 1894 
L 3597 1613 
L 953 1613 
Q 991 1019 1311 708 
Q 1631 397 2203 397 
Q 2534 397 2845 478 
Q 3156 559 3463 722 
L 3463 178 
Q 3153 47 2828 -22 
Q 2503 -91 2169 -91 
Q 1331 -91 842 396 
Q 353 884 353 1716 
Q 353 2575 817 3079 
Q 1281 3584 2069 3584 
Q 2775 3584 3186 3129 
Q 3597 2675 3597 1894 
z
M 3022 2063 
Q 3016 2534 2758 2815 
Q 2500 3097 2075 3097 
Q 1594 3097 1305 2825 
Q 1016 2553 972 2059 
L 3022 2063 
z
" transform="scale(0.015625)"/>
       <path id="DejaVuSans-56" d="M 2834 3397 
L 2834 2853 
Q 2591 2978 2328 3040 
Q 2066 3103 1784 3103 
Q 1356 3103 1142 2972 
Q 928 2841 928 2578 
Q 928 2378 1081 2264 
Q 1234 2150 1697 2047 
L 1894 2003 
Q 2506 1872 2764 1633 
Q 3022 1394 3022 966 
Q 3022 478 2636 193 
Q 2250 -91 1575 -91 
Q 1294 -91 989 -36 
Q 684 19 347 128 
L 347 722 
Q 666 556 975 473 
Q 1284 391 1588 391 
Q 1994 391 2212 530 
Q 2431 669 2431 922 
Q 2431 1156 2273 1281 
Q 2116 1406 1581 1522 
L 1381 1569 
Q 847 1681 609 1914 
Q 372 2147 372 2553 
Q 372 3047 722 3315 
Q 1072 3584 1716 3584 
Q 2034 3584 2315 3537 
Q 2597 3491 2834 3397 
z
" transform="scale(0.015625)"/>
       <path id="DejaVuSans-57" d="M 1172 4494 
L 1172 3500 
L 2356 3500 
L 2356 3053 
L 1172 3053 
L 1172 1153 
Q 1172 725 1289 603 
Q 1406 481 1766 481 
L 2356 481 
L 2356 0 
L 1766 0 
Q 1100 0 847 248 
Q 594 497 594 1153 
L 594 3053 
L 172 3053 
L 172 3500 
L 594 3500 
L 594 4494 
L 1172 4494 
z
" transform="scale(0.015625)"/>
       <path id="DejaVuSans-4c" d="M 603 3500 
L 1178 3500 
L 1178 0 
L 603 0 
L 603 3500 
z
M 603 4863 
L 1178 4863 
L 1178 4134 
L 603 4134 
L 603 4863 
z
" transform="scale(0.015625)"/>
       <path id="DejaVuSans-51" d="M 3513 2113 
L 3513 0 
L 2938 0 
L 2938 2094 
Q 2938 2591 2744 2837 
Q 2550 3084 2163 3084 
Q 1697 3084 1428 2787 
Q 1159 2491 1159 1978 
L 1159 0 
L 581 0 
L 581 3500 
L 1159 3500 
L 1159 2956 
Q 1366 3272 1645 3428 
Q 1925 3584 2291 3584 
Q 2894 3584 3203 3211 
Q 3513 2838 3513 2113 
z
" transform="scale(0.015625)"/>
      </defs>
      <use xlink:href="#DejaVuSans-33"/>
      <use xlink:href="#DejaVuSans-44" transform="translate(55.8125 0)"/>
      <use xlink:href="#DejaVuSans-4f" transform="translate(117.09375 0)"/>
      <use xlink:href="#DejaVuSans-48" transform="translate(144.875 0)"/>
      <use xlink:href="#DejaVuSans-56" transform="translate(206.40625 0)"/>
      <use xlink:href="#DejaVuSans-57" transform="translate(258.5 0)"/>
      <use xlink:href="#DejaVuSans-4c" transform="translate(297.703125 0)"/>
      <use xlink:href="#DejaVuSans-51" transform="translate(325.484375 0)"/>
      <use xlink:href="#DejaVuSans-48" transform="translate(388.859375 0)"/>
     </g>
    </g>
    <g id="patch_6">
     <path d="M 15.3 492.895234 
L 33.3 492.895234 
L 33.3 486.595234 
L 15.3 486.595234 
z
" style="fill: #bdc3c7; stroke: #888888; stroke-linejoin: miter"/>
    </g>
    <g id="text_5">
     <!-- Neighbors -->
     <g transform="translate(40.5 492.895234) scale(0.09 -0.09)">
      <defs>
       <path id="DejaVuSans-31" d="M 628 4666 
L 1478 4666 
L 3547 763 
L 3547 4666 
L 4159 4666 
L 4159 0 
L 3309 0 
L 1241 3903 
L 1241 0 
L 628 0 
L 628 4666 
z
" transform="scale(0.015625)"/>
       <path id="DejaVuSans-4a" d="M 2906 1791 
Q 2906 2416 2648 2759 
Q 2391 3103 1925 3103 
Q 1463 3103 1205 2759 
Q 947 2416 947 1791 
Q 947 1169 1205 825 
Q 1463 481 1925 481 
Q 2391 481 2648 825 
Q 2906 1169 2906 1791 
z
M 3481 434 
Q 3481 -459 3084 -895 
Q 2688 -1331 1869 -1331 
Q 1566 -1331 1297 -1286 
Q 1028 -1241 775 -1147 
L 775 -588 
Q 1028 -725 1275 -790 
Q 1522 -856 1778 -856 
Q 2344 -856 2625 -561 
Q 2906 -266 2906 331 
L 2906 616 
Q 2728 306 2450 153 
Q 2172 0 1784 0 
Q 1141 0 747 490 
Q 353 981 353 1791 
Q 353 2603 747 3093 
Q 1141 3584 1784 3584 
Q 2172 3584 2450 3431 
Q 2728 3278 2906 2969 
L 2906 3500 
L 3481 3500 
L 3481 434 
z
" transform="scale(0.015625)"/>
       <path id="DejaVuSans-4b" d="M 3513 2113 
L 3513 0 
L 2938 0 
L 2938 2094 
Q 2938 2591 2744 2837 
Q 2550 3084 2163 3084 
Q 1697 3084 1428 2787 
Q 1159 2491 1159 1978 
L 1159 0 
L 581 0 
L 581 4863 
L 1159 4863 
L 1159 2956 
Q 1366 3272 1645 3428 
Q 1925 3584 2291 3584 
Q 2894 3584 3203 3211 
Q 3513 2838 3513 2113 
z
" transform="scale(0.015625)"/>
       <path id="DejaVuSans-45" d="M 3116 1747 
Q 3116 2381 2855 2742 
Q 2594 3103 2138 3103 
Q 1681 3103 1420 2742 
Q 1159 2381 1159 1747 
Q 1159 1113 1420 752 
Q 1681 391 2138 391 
Q 2594 391 2855 752 
Q 3116 1113 3116 1747 
z
M 1159 2969 
Q 1341 3281 1617 3432 
Q 1894 3584 2278 3584 
Q 2916 3584 3314 3078 
Q 3713 2572 3713 1747 
Q 3713 922 3314 415 
Q 2916 -91 2278 -91 
Q 1894 -91 1617 61 
Q 1341 213 1159 525 
L 1159 0 
L 581 0 
L 581 4863 
L 1159 4863 
L 1159 2969 
z
" transform="scale(0.015625)"/>
       <path id="DejaVuSans-52" d="M 1959 3097 
Q 1497 3097 1228 2736 
Q 959 2375 959 1747 
Q 959 1119 1226 758 
Q 1494 397 1959 397 
Q 2419 397 2687 759 
Q 2956 1122 2956 1747 
Q 2956 2369 2687 2733 
Q 2419 3097 1959 3097 
z
M 1959 3584 
Q 2709 3584 3137 3096 
Q 3566 2609 3566 1747 
Q 3566 888 3137 398 
Q 2709 -91 1959 -91 
Q 1206 -91 779 398 
Q 353 888 353 1747 
Q 353 2609 779 3096 
Q 1206 3584 1959 3584 
z
" transform="scale(0.015625)"/>
       <path id="DejaVuSans-55" d="M 2631 2963 
Q 2534 3019 2420 3045 
Q 2306 3072 2169 3072 
Q 1681 3072 1420 2755 
Q 1159 2438 1159 1844 
L 1159 0 
L 581 0 
L 581 3500 
L 1159 3500 
L 1159 2956 
Q 1341 3275 1631 3429 
Q 1922 3584 2338 3584 
Q 2397 3584 2469 3576 
Q 2541 3569 2628 3553 
L 2631 2963 
z
" transform="scale(0.015625)"/>
      </defs>
      <use xlink:href="#DejaVuSans-31"/>
      <use xlink:href="#DejaVuSans-48" transform="translate(74.8125 0)"/>
      <use xlink:href="#DejaVuSans-4c" transform="translate(136.34375 0)"/>
      <use xlink:href="#DejaVuSans-4a" transform="translate(164.125 0)"/>
      <use xlink:href="#DejaVuSans-4b" transform="translate(227.609375 0)"/>
      <use xlink:href="#DejaVuSans-45" transform="translate(290.984375 0)"/>
      <use xlink:href="#DejaVuSans-52" transform="translate(354.46875 0)"/>
      <use xlink:href="#DejaVuSans-55" transform="translate(415.65625 0)"/>
      <use xlink:href="#DejaVuSans-56" transform="translate(456.765625 0)"/>
     </g>
    </g>
   </g>
  </g>
 </g>
 <defs>
  <clipPath id="p4ce8d46d07">
   <rect x="7.2" y="30.117344" width="407.191944" height="473.04"/>
  </clipPath>
 </defs>
</svg>
