<?xml version="1.0" encoding="utf-8" standalone="no"?>
<!DOCTYPE svg PUBLIC "-//W3C//DTD SVG 1.1//EN"
  "http://www.w3.org/Graphics/SVG/1.1/DTD/svg11.dtd">
<svg xmlns:xlink="http://www.w3.org/1999/xlink" width="794.243306pt" height="510.357344pt" viewBox="0 0 794.243306 510.357344" xmlns="http://www.w3.org/2000/svg" version="1.1">
 <metadata>
  <rdf:RDF xmlns:dc="http://purl.org/dc/elements/1.1/" xmlns:cc="http://creativecommons.org/ns#" xmlns:rdf="http://www.w3.org/1999/02/22-rdf-syntax-ns#">
   <cc:Work>
    <dc:type rdf:resource="http://purl.org/dc/dcmitype/StillImage"/>
    <dc:date>2026-06-19T08:14:16.221329</dc:date>
    <dc:format>image/svg+xml</dc:format>
    <dc:creator>
     <cc:Agent>
      <dc:title>Matplotlib v3.11.0, https://matplotlib.org/</dc:title>
     </cc:Agent>
    </dc:creator>
   </cc:Work>
  </rdf:RDF>
 </metadata>
 <defs>
  <style type="text/css">*{stroke-linejoin: round; stroke-linecap: butt}</style>
 </defs>
 <g id="figure_1">
  <g id="patch_1">
   <path d="M 0 510.357344 
L 794.243306 510.357344 
L 794.243306 0 
L 0 0 
z
" style="fill: #d6eaf8"/>
  </g>
  <g id="axes_1">
   <g id="PatchCollection_1">
    <path d="M 289.691127 243.480462 
L 290.259542 242.357705 
L 294.806866 240.954257 
L 298.217359 239.55081 
L 301.059436 238.147363 
L 303.333098 236.743915 
L 307.312007 233.656331 
L 307.880422 230.007368 
L 306.175176 227.200473 
L 305.60676 222.990131 
L 308.448837 219.060479 
L 316.406654 216.814963 
L 324.932886 217.095652 
L 330.617041 219.621857 
L 347.10109 222.990131 
L 363.585139 220.744615 
L 365.858801 221.025305 
L 372.111372 223.270821 
L 374.385033 223.270821 
L 380.637604 221.867373 
L 389.163836 221.025305 
L 393.71116 221.586684 
L 397.690068 223.270821 
L 400.532146 222.709442 
L 410.195209 222.709442 
L 417.016195 224.674268 
L 430.089751 221.867373 
L 442.594891 225.797026 
L 449.984293 223.55151 
L 457.942109 226.358405 
L 459.647356 224.954957 
L 461.921018 225.235647 
L 463.057849 226.639094 
L 463.626264 227.761852 
L 464.763095 228.323231 
L 466.468342 227.481163 
L 467.605173 225.797026 
L 469.310419 226.358405 
L 468.742004 228.323231 
L 472.152496 230.007368 
L 472.152496 231.691505 
L 473.289327 233.656331 
L 475.562989 233.93702 
L 481.247144 232.252884 
L 481.247144 231.130126 
L 478.405067 230.849436 
L 475.562989 229.165299 
L 473.289327 226.919784 
L 471.584081 224.954957 
L 481.81556 228.323231 
L 484.089222 228.88461 
L 486.362884 229.445989 
L 488.636545 230.007368 
L 490.910207 228.88461 
L 492.047038 226.639094 
L 496.025947 227.481163 
L 502.846933 229.445989 
L 505.68901 227.761852 
L 507.394256 228.323231 
L 509.667918 229.726678 
L 514.215242 230.849436 
L 517.05732 232.533573 
L 519.899397 235.340468 
L 521.604643 234.498399 
L 523.30989 233.094952 
L 523.878305 233.375642 
L 523.878305 234.21771 
L 523.30989 235.059778 
L 522.741474 236.463226 
L 523.878305 236.182536 
L 525.583552 235.340468 
L 526.720383 234.779089 
L 528.994045 238.708741 
L 531.836122 240.112189 
L 534.109784 238.708741 
L 538.088692 242.077015 
L 543.772847 242.638394 
L 546.614925 240.673568 
L 547.751756 239.55081 
L 548.888587 238.708741 
L 550.593833 238.989431 
L 550.593833 240.112189 
L 548.888587 248.252183 
L 548.320171 255.26942 
L 548.888587 257.234246 
L 548.320171 259.199073 
L 549.457002 260.60252 
L 551.162249 261.163899 
L 552.867495 260.041141 
L 552.867495 261.444589 
L 552.867495 262.848036 
L 555.141157 265.374241 
L 553.43591 266.496999 
L 552.867495 267.900446 
L 551.730664 267.900446 
L 550.025418 265.654931 
L 548.320171 265.654931 
L 547.751756 267.339067 
L 549.457002 269.584583 
L 547.751756 270.707341 
L 546.046509 270.426652 
L 543.204432 269.023204 
L 540.362354 269.865273 
L 537.520277 271.26872 
L 534.6782 272.110788 
L 531.836122 273.233546 
L 528.994045 276.040441 
L 523.878305 284.741815 
L 523.30989 289.232846 
L 521.036228 292.039741 
L 520.467813 292.60112 
L 516.488904 293.162499 
L 515.920489 294.285257 
L 517.05732 299.337667 
L 514.215242 302.144562 
L 508.531087 305.793525 
L 500.004855 308.60042 
L 496.594362 308.60042 
L 493.183869 307.758351 
L 489.773376 307.477662 
L 488.06813 307.758351 
L 482.952391 309.723177 
L 481.81556 309.723177 
L 477.268236 309.723177 
L 473.857743 310.565246 
L 464.763095 315.336967 
L 463.057849 315.617656 
L 461.352602 315.617656 
L 459.647356 315.617656 
L 458.510525 316.459725 
L 457.373694 315.336967 
L 457.373694 315.056277 
L 457.373694 314.214209 
L 459.07894 313.65283 
L 459.647356 312.810762 
L 458.510525 311.968693 
L 457.373694 310.845935 
L 453.963201 313.65283 
L 452.257955 314.214209 
L 449.984293 313.65283 
L 446.005384 313.091451 
L 444.300138 312.810762 
L 443.731722 311.688004 
L 443.163307 310.565246 
L 442.026476 309.723177 
L 440.321229 308.60042 
L 438.615983 308.31973 
L 436.342321 308.31973 
L 432.363413 309.442488 
L 427.816089 312.530072 
L 424.974011 311.968693 
L 421.563519 309.723177 
L 419.289857 306.635593 
L 416.447779 304.951456 
L 413.605702 305.512835 
L 411.33204 305.793525 
L 409.626793 306.635593 
L 407.353131 307.196972 
L 402.237392 307.477662 
L 400.532146 308.31973 
L 398.826899 309.442488 
L 397.121653 309.723177 
L 394.279575 308.31973 
L 393.142744 309.161798 
L 392.005913 309.723177 
L 391.437498 307.758351 
L 388.595421 307.477662 
L 381.774435 308.31973 
L 380.637604 308.039041 
L 376.09028 306.354904 
L 369.83771 306.354904 
L 369.83771 304.109388 
L 368.132463 303.26732 
L 366.427217 303.828699 
L 364.153555 304.951456 
L 364.153555 306.354904 
L 366.427217 306.354904 
L 364.72197 308.881109 
L 361.311477 310.565246 
L 357.900984 311.407314 
L 354.490492 311.968693 
L 349.374752 311.968693 
L 347.10109 312.249383 
L 345.395844 311.968693 
L 344.827428 311.968693 
L 344.259013 312.810762 
L 343.690597 313.933519 
L 343.690597 315.336967 
L 340.84852 315.056277 
L 338.574858 313.372141 
L 335.164365 309.723177 
L 331.753872 309.442488 
L 328.343379 308.881109 
L 324.364471 308.881109 
L 322.090809 308.31973 
L 319.817147 310.003867 
L 317.543485 311.407314 
L 314.701408 311.968693 
L 312.996161 311.688004 
L 307.880422 311.126625 
L 303.901514 309.442488 
L 302.196267 310.565246 
L 303.333098 314.494898 
L 301.627852 314.494898 
L 299.35419 310.845935 
L 298.785774 309.161798 
L 298.785774 304.670767 
L 302.764683 302.98663 
L 303.901514 302.144562 
L 305.038345 301.863872 
L 306.175176 301.302493 
L 306.743591 299.899046 
L 306.175176 299.056978 
L 304.469929 298.214909 
L 302.764683 298.776288 
L 300.491021 297.65353 
L 300.491021 294.565946 
L 301.627852 293.162499 
L 303.333098 292.039741 
L 302.764683 290.355604 
L 302.196267 287.548709 
L 303.901514 285.864572 
L 303.901514 280.531473 
L 305.038345 274.356304 
L 306.175176 272.952857 
L 307.880422 271.830099 
L 308.448837 269.865273 
L 307.880422 268.181136 
L 305.60676 266.21631 
L 303.333098 258.357004 
L 301.627852 255.26942 
L 298.217359 254.427352 
L 295.375281 253.865973 
L 292.533204 248.813562 
L 291.396373 246.568047 
z
" clip-path="url(#p0f93f09135)" style="fill: #e74c3c; stroke: #ffffff; stroke-width: 0.6"/>
    <path d="M 556.846403 283.338367 
L 559.120065 283.338367 
L 560.256896 283.338367 
L 563.098974 283.057678 
L 566.509467 281.93492 
L 569.351544 280.250783 
L 571.625206 278.285957 
L 572.762037 277.443888 
L 585.267178 275.479062 
L 587.540839 275.759752 
L 593.224994 277.724578 
L 601.182811 278.005267 
L 603.456473 278.847336 
L 605.161719 280.812162 
L 603.456473 281.373541 
L 599.477565 281.092851 
L 598.340734 281.65423 
L 595.498656 283.619057 
L 594.361825 284.741815 
L 593.79341 284.741815 
L 592.088163 283.338367 
L 589.814501 283.899746 
L 586.972424 285.022504 
L 574.467283 288.110088 
L 572.193621 289.232846 
L 568.783129 288.110088 
L 563.667389 288.671467 
L 559.120065 288.110088 
z
" clip-path="url(#p0f93f09135)" style="fill: #e74c3c; stroke: #ffffff; stroke-width: 0.6"/>
    <path d="M 595.498656 247.690805 
L 595.498656 247.129426 
L 599.477565 247.129426 
L 604.024888 247.971494 
L 608.003797 249.93632 
L 609.709043 252.743215 
L 609.140628 252.743215 
L 607.435381 252.743215 
L 608.572212 253.865973 
L 606.866966 253.865973 
L 605.730135 253.585283 
L 604.593304 252.743215 
L 604.593304 251.620457 
L 603.456473 251.620457 
L 604.593304 254.427352 
L 605.161719 255.55011 
L 604.593304 257.234246 
L 602.319642 253.865973 
z
" clip-path="url(#p0f93f09135)" style="fill: #e74c3c; stroke: #ffffff; stroke-width: 0.6"/>
    <path d="M 184.534262 288.110088 
L 185.671093 285.583883 
L 187.37634 284.741815 
L 196.470987 284.461125 
L 197.607818 284.741815 
L 199.313065 286.425951 
L 199.313065 287.548709 
L 198.744649 288.671467 
L 197.039403 291.478362 
L 196.470987 292.32043 
L 195.902572 292.881809 
L 195.334156 294.285257 
L 194.765741 294.846636 
L 193.060495 294.846636 
L 191.923664 294.846636 
L 191.355248 294.285257 
L 190.218417 292.881809 
L 185.671093 290.355604 
z
" clip-path="url(#p0f93f09135)" style="fill: #e74c3c; stroke: #ffffff; stroke-width: 0.6"/>
   </g>
   <g id="text_1">
    <!-- Puerto Rico -->
    <g style="fill: #1a252f" transform="translate(341.684387 20.117344) scale(0.17 -0.17)">
     <defs>
      <path id="DejaVuSans-Bold-33" d="M 588 4666 
L 2584 4666 
Q 3475 4666 3951 4270 
Q 4428 3875 4428 3144 
Q 4428 2409 3951 2014 
Q 3475 1619 2584 1619 
L 1791 1619 
L 1791 0 
L 588 0 
L 588 4666 
z
M 1791 3794 
L 1791 2491 
L 2456 2491 
Q 2806 2491 2997 2661 
Q 3188 2831 3188 3144 
Q 3188 3456 2997 3625 
Q 2806 3794 2456 3794 
L 1791 3794 
z
" transform="scale(0.015625)"/>
      <path id="DejaVuSans-Bold-58" d="M 500 1363 
L 500 3500 
L 1625 3500 
L 1625 3150 
Q 1625 2866 1622 2436 
Q 1619 2006 1619 1863 
Q 1619 1441 1641 1255 
Q 1663 1069 1716 984 
Q 1784 875 1895 815 
Q 2006 756 2150 756 
Q 2500 756 2700 1025 
Q 2900 1294 2900 1772 
L 2900 3500 
L 4019 3500 
L 4019 0 
L 2900 0 
L 2900 506 
Q 2647 200 2364 54 
Q 2081 -91 1741 -91 
Q 1134 -91 817 281 
Q 500 653 500 1363 
z
" transform="scale(0.015625)"/>
      <path id="DejaVuSans-Bold-48" d="M 4031 1759 
L 4031 1441 
L 1416 1441 
Q 1456 1047 1700 850 
Q 1944 653 2381 653 
Q 2734 653 3104 758 
Q 3475 863 3866 1075 
L 3866 213 
Q 3469 63 3072 -14 
Q 2675 -91 2278 -91 
Q 1328 -91 801 392 
Q 275 875 275 1747 
Q 275 2603 792 3093 
Q 1309 3584 2216 3584 
Q 3041 3584 3536 3087 
Q 4031 2591 4031 1759 
z
M 2881 2131 
Q 2881 2450 2695 2645 
Q 2509 2841 2209 2841 
Q 1884 2841 1681 2658 
Q 1478 2475 1428 2131 
L 2881 2131 
z
" transform="scale(0.015625)"/>
      <path id="DejaVuSans-Bold-55" d="M 3138 2547 
Q 2991 2616 2845 2648 
Q 2700 2681 2553 2681 
Q 2122 2681 1889 2404 
Q 1656 2128 1656 1613 
L 1656 0 
L 538 0 
L 538 3500 
L 1656 3500 
L 1656 2925 
Q 1872 3269 2151 3426 
Q 2431 3584 2822 3584 
Q 2878 3584 2943 3579 
Q 3009 3575 3134 3559 
L 3138 2547 
z
" transform="scale(0.015625)"/>
      <path id="DejaVuSans-Bold-57" d="M 1759 4494 
L 1759 3500 
L 2913 3500 
L 2913 2700 
L 1759 2700 
L 1759 1216 
Q 1759 972 1856 886 
Q 1953 800 2241 800 
L 2816 800 
L 2816 0 
L 1856 0 
Q 1194 0 917 276 
Q 641 553 641 1216 
L 641 2700 
L 84 2700 
L 84 3500 
L 641 3500 
L 641 4494 
L 1759 4494 
z
" transform="scale(0.015625)"/>
      <path id="DejaVuSans-Bold-52" d="M 2203 2784 
Q 1831 2784 1636 2517 
Q 1441 2250 1441 1747 
Q 1441 1244 1636 976 
Q 1831 709 2203 709 
Q 2569 709 2762 976 
Q 2956 1244 2956 1747 
Q 2956 2250 2762 2517 
Q 2569 2784 2203 2784 
z
M 2203 3584 
Q 3106 3584 3614 3096 
Q 4122 2609 4122 1747 
Q 4122 884 3614 396 
Q 3106 -91 2203 -91 
Q 1297 -91 786 396 
Q 275 884 275 1747 
Q 275 2609 786 3096 
Q 1297 3584 2203 3584 
z
" transform="scale(0.015625)"/>
      <path id="DejaVuSans-Bold-3" transform="scale(0.015625)"/>
      <path id="DejaVuSans-Bold-35" d="M 2297 2597 
Q 2675 2597 2839 2737 
Q 3003 2878 3003 3200 
Q 3003 3519 2839 3656 
Q 2675 3794 2297 3794 
L 1791 3794 
L 1791 2597 
L 2297 2597 
z
M 1791 1766 
L 1791 0 
L 588 0 
L 588 4666 
L 2425 4666 
Q 3347 4666 3776 4356 
Q 4206 4047 4206 3378 
Q 4206 2916 3982 2619 
Q 3759 2322 3309 2181 
Q 3556 2125 3751 1926 
Q 3947 1728 4147 1325 
L 4800 0 
L 3519 0 
L 2950 1159 
Q 2778 1509 2601 1637 
Q 2425 1766 2131 1766 
L 1791 1766 
z
" transform="scale(0.015625)"/>
      <path id="DejaVuSans-Bold-4c" d="M 538 3500 
L 1656 3500 
L 1656 0 
L 538 0 
L 538 3500 
z
M 538 4863 
L 1656 4863 
L 1656 3950 
L 538 3950 
L 538 4863 
z
" transform="scale(0.015625)"/>
      <path id="DejaVuSans-Bold-46" d="M 3366 3391 
L 3366 2478 
Q 3138 2634 2908 2709 
Q 2678 2784 2431 2784 
Q 1963 2784 1702 2511 
Q 1441 2238 1441 1747 
Q 1441 1256 1702 982 
Q 1963 709 2431 709 
Q 2694 709 2930 787 
Q 3166 866 3366 1019 
L 3366 103 
Q 3103 6 2833 -42 
Q 2563 -91 2291 -91 
Q 1344 -91 809 395 
Q 275 881 275 1747 
Q 275 2613 809 3098 
Q 1344 3584 2291 3584 
Q 2566 3584 2833 3536 
Q 3100 3488 3366 3391 
z
" transform="scale(0.015625)"/>
     </defs>
     <use xlink:href="#DejaVuSans-Bold-33"/>
     <use xlink:href="#DejaVuSans-Bold-58" transform="translate(73.296875 0)"/>
     <use xlink:href="#DejaVuSans-Bold-48" transform="translate(144.484375 0)"/>
     <use xlink:href="#DejaVuSans-Bold-55" transform="translate(212.3125 0)"/>
     <use xlink:href="#DejaVuSans-Bold-57" transform="translate(261.625 0)"/>
     <use xlink:href="#DejaVuSans-Bold-52" transform="translate(309.421875 0)"/>
     <use xlink:href="#DejaVuSans-Bold-3" transform="translate(378.125 0)"/>
     <use xlink:href="#DejaVuSans-Bold-35" transform="translate(412.9375 0)"/>
     <use xlink:href="#DejaVuSans-Bold-4c" transform="translate(489.9375 0)"/>
     <use xlink:href="#DejaVuSans-Bold-46" transform="translate(524.21875 0)"/>
     <use xlink:href="#DejaVuSans-Bold-52" transform="translate(583.5 0)"/>
    </g>
   </g>
   <g id="legend_1">
    <g id="patch_2">
     <path d="M 13.5 498.657344 
L 93.615469 498.657344 
Q 95.415469 498.657344 95.415469 496.857344 
L 95.415469 470.755937 
Q 95.415469 468.955937 93.615469 468.955937 
L 13.5 468.955937 
Q 11.7 468.955937 11.7 470.755937 
L 11.7 496.857344 
Q 11.7 498.657344 13.5 498.657344 
z
" style="fill: #ffffff; opacity: 0.85; stroke: #cccccc; stroke-linejoin: miter"/>
    </g>
    <g id="patch_3">
     <path d="M 15.3 479.394531 
L 33.3 479.394531 
L 33.3 473.094531 
L 15.3 473.094531 
z
" style="fill: #e74c3c; stroke: #888888; stroke-linejoin: miter"/>
    </g>
    <g id="text_2">
     <!-- Puerto Rico -->
     <g transform="translate(40.5 479.394531) scale(0.09 -0.09)">
      <defs>
       <path id="DejaVuSans-33" d="M 1259 4147 
L 1259 2394 
L 2053 2394 
Q 2494 2394 2734 2622 
Q 2975 2850 2975 3272 
Q 2975 3691 2734 3919 
Q 2494 4147 2053 4147 
L 1259 4147 
z
M 628 4666 
L 2053 4666 
Q 2838 4666 3239 4311 
Q 3641 3956 3641 3272 
Q 3641 2581 3239 2228 
Q 2838 1875 2053 1875 
L 1259 1875 
L 1259 0 
L 628 0 
L 628 4666 
z
" transform="scale(0.015625)"/>
       <path id="DejaVuSans-58" d="M 544 1381 
L 544 3500 
L 1119 3500 
L 1119 1403 
Q 1119 906 1312 657 
Q 1506 409 1894 409 
Q 2359 409 2629 706 
Q 2900 1003 2900 1516 
L 2900 3500 
L 3475 3500 
L 3475 0 
L 2900 0 
L 2900 538 
Q 2691 219 2414 64 
Q 2138 -91 1772 -91 
Q 1169 -91 856 284 
Q 544 659 544 1381 
z
M 1991 3584 
L 1991 3584 
z
" transform="scale(0.015625)"/>
       <path id="DejaVuSans-48" d="M 3597 1894 
L 3597 1613 
L 953 1613 
Q 991 1019 1311 708 
Q 1631 397 2203 397 
Q 2534 397 2845 478 
Q 3156 559 3463 722 
L 3463 178 
Q 3153 47 2828 -22 
Q 2503 -91 2169 -91 
Q 1331 -91 842 396 
Q 353 884 353 1716 
Q 353 2575 817 3079 
Q 1281 3584 2069 3584 
Q 2775 3584 3186 3129 
Q 3597 2675 3597 1894 
z
M 3022 2063 
Q 3016 2534 2758 2815 
Q 2500 3097 2075 3097 
Q 1594 3097 1305 2825 
Q 1016 2553 972 2059 
L 3022 2063 
z
" transform="scale(0.015625)"/>
       <path id="DejaVuSans-55" d="M 2631 2963 
Q 2534 3019 2420 3045 
Q 2306 3072 2169 3072 
Q 1681 3072 1420 2755 
Q 1159 2438 1159 1844 
L 1159 0 
L 581 0 
L 581 3500 
L 1159 3500 
L 1159 2956 
Q 1341 3275 1631 3429 
Q 1922 3584 2338 3584 
Q 2397 3584 2469 3576 
Q 2541 3569 2628 3553 
L 2631 2963 
z
" transform="scale(0.015625)"/>
       <path id="DejaVuSans-57" d="M 1172 4494 
L 1172 3500 
L 2356 3500 
L 2356 3053 
L 1172 3053 
L 1172 1153 
Q 1172 725 1289 603 
Q 1406 481 1766 481 
L 2356 481 
L 2356 0 
L 1766 0 
Q 1100 0 847 248 
Q 594 497 594 1153 
L 594 3053 
L 172 3053 
L 172 3500 
L 594 3500 
L 594 4494 
L 1172 4494 
z
" transform="scale(0.015625)"/>
       <path id="DejaVuSans-52" d="M 1959 3097 
Q 1497 3097 1228 2736 
Q 959 2375 959 1747 
Q 959 1119 1226 758 
Q 1494 397 1959 397 
Q 2419 397 2687 759 
Q 2956 1122 2956 1747 
Q 2956 2369 2687 2733 
Q 2419 3097 1959 3097 
z
M 1959 3584 
Q 2709 3584 3137 3096 
Q 3566 2609 3566 1747 
Q 3566 888 3137 398 
Q 2709 -91 1959 -91 
Q 1206 -91 779 398 
Q 353 888 353 1747 
Q 353 2609 779 3096 
Q 1206 3584 1959 3584 
z
" transform="scale(0.015625)"/>
       <path id="DejaVuSans-3" transform="scale(0.015625)"/>
       <path id="DejaVuSans-35" d="M 2841 2188 
Q 3044 2119 3236 1894 
Q 3428 1669 3622 1275 
L 4263 0 
L 3584 0 
L 2988 1197 
Q 2756 1666 2539 1819 
Q 2322 1972 1947 1972 
L 1259 1972 
L 1259 0 
L 628 0 
L 628 4666 
L 2053 4666 
Q 2853 4666 3247 4331 
Q 3641 3997 3641 3322 
Q 3641 2881 3436 2590 
Q 3231 2300 2841 2188 
z
M 1259 4147 
L 1259 2491 
L 2053 2491 
Q 2509 2491 2742 2702 
Q 2975 2913 2975 3322 
Q 2975 3731 2742 3939 
Q 2509 4147 2053 4147 
L 1259 4147 
z
" transform="scale(0.015625)"/>
       <path id="DejaVuSans-4c" d="M 603 3500 
L 1178 3500 
L 1178 0 
L 603 0 
L 603 3500 
z
M 603 4863 
L 1178 4863 
L 1178 4134 
L 603 4134 
L 603 4863 
z
" transform="scale(0.015625)"/>
       <path id="DejaVuSans-46" d="M 3122 3366 
L 3122 2828 
Q 2878 2963 2633 3030 
Q 2388 3097 2138 3097 
Q 1578 3097 1268 2742 
Q 959 2388 959 1747 
Q 959 1106 1268 751 
Q 1578 397 2138 397 
Q 2388 397 2633 464 
Q 2878 531 3122 666 
L 3122 134 
Q 2881 22 2623 -34 
Q 2366 -91 2075 -91 
Q 1284 -91 818 406 
Q 353 903 353 1747 
Q 353 2603 823 3093 
Q 1294 3584 2113 3584 
Q 2378 3584 2631 3529 
Q 2884 3475 3122 3366 
z
" transform="scale(0.015625)"/>
      </defs>
      <use xlink:href="#DejaVuSans-33"/>
      <use xlink:href="#DejaVuSans-58" transform="translate(58.546875 0)"/>
      <use xlink:href="#DejaVuSans-48" transform="translate(121.921875 0)"/>
      <use xlink:href="#DejaVuSans-55" transform="translate(183.453125 0)"/>
      <use xlink:href="#DejaVuSans-57" transform="translate(224.5625 0)"/>
      <use xlink:href="#DejaVuSans-52" transform="translate(263.765625 0)"/>
      <use xlink:href="#DejaVuSans-3" transform="translate(324.953125 0)"/>
      <use xlink:href="#DejaVuSans-35" transform="translate(356.734375 0)"/>
      <use xlink:href="#DejaVuSans-4c" transform="translate(426.21875 0)"/>
      <use xlink:href="#DejaVuSans-46" transform="translate(454 0)"/>
      <use xlink:href="#DejaVuSans-52" transform="translate(508.984375 0)"/>
     </g>
    </g>
    <g id="patch_4">
     <path d="M 15.3 492.895234 
L 33.3 492.895234 
L 33.3 486.595234 
L 15.3 486.595234 
z
" style="fill: #bdc3c7; stroke: #888888; stroke-linejoin: miter"/>
    </g>
    <g id="text_3">
     <!-- Neighbors -->
     <g transform="translate(40.5 492.895234) scale(0.09 -0.09)">
      <defs>
       <path id="DejaVuSans-31" d="M 628 4666 
L 1478 4666 
L 3547 763 
L 3547 4666 
L 4159 4666 
L 4159 0 
L 3309 0 
L 1241 3903 
L 1241 0 
L 628 0 
L 628 4666 
z
" transform="scale(0.015625)"/>
       <path id="DejaVuSans-4a" d="M 2906 1791 
Q 2906 2416 2648 2759 
Q 2391 3103 1925 3103 
Q 1463 3103 1205 2759 
Q 947 2416 947 1791 
Q 947 1169 1205 825 
Q 1463 481 1925 481 
Q 2391 481 2648 825 
Q 2906 1169 2906 1791 
z
M 3481 434 
Q 3481 -459 3084 -895 
Q 2688 -1331 1869 -1331 
Q 1566 -1331 1297 -1286 
Q 1028 -1241 775 -1147 
L 775 -588 
Q 1028 -725 1275 -790 
Q 1522 -856 1778 -856 
Q 2344 -856 2625 -561 
Q 2906 -266 2906 331 
L 2906 616 
Q 2728 306 2450 153 
Q 2172 0 1784 0 
Q 1141 0 747 490 
Q 353 981 353 1791 
Q 353 2603 747 3093 
Q 1141 3584 1784 3584 
Q 2172 3584 2450 3431 
Q 2728 3278 2906 2969 
L 2906 3500 
L 3481 3500 
L 3481 434 
z
" transform="scale(0.015625)"/>
       <path id="DejaVuSans-4b" d="M 3513 2113 
L 3513 0 
L 2938 0 
L 2938 2094 
Q 2938 2591 2744 2837 
Q 2550 3084 2163 3084 
Q 1697 3084 1428 2787 
Q 1159 2491 1159 1978 
L 1159 0 
L 581 0 
L 581 4863 
L 1159 4863 
L 1159 2956 
Q 1366 3272 1645 3428 
Q 1925 3584 2291 3584 
Q 2894 3584 3203 3211 
Q 3513 2838 3513 2113 
z
" transform="scale(0.015625)"/>
       <path id="DejaVuSans-45" d="M 3116 1747 
Q 3116 2381 2855 2742 
Q 2594 3103 2138 3103 
Q 1681 3103 1420 2742 
Q 1159 2381 1159 1747 
Q 1159 1113 1420 752 
Q 1681 391 2138 391 
Q 2594 391 2855 752 
Q 3116 1113 3116 1747 
z
M 1159 2969 
Q 1341 3281 1617 3432 
Q 1894 3584 2278 3584 
Q 2916 3584 3314 3078 
Q 3713 2572 3713 1747 
Q 3713 922 3314 415 
Q 2916 -91 2278 -91 
Q 1894 -91 1617 61 
Q 1341 213 1159 525 
L 1159 0 
L 581 0 
L 581 4863 
L 1159 4863 
L 1159 2969 
z
" transform="scale(0.015625)"/>
       <path id="DejaVuSans-56" d="M 2834 3397 
L 2834 2853 
Q 2591 2978 2328 3040 
Q 2066 3103 1784 3103 
Q 1356 3103 1142 2972 
Q 928 2841 928 2578 
Q 928 2378 1081 2264 
Q 1234 2150 1697 2047 
L 1894 2003 
Q 2506 1872 2764 1633 
Q 3022 1394 3022 966 
Q 3022 478 2636 193 
Q 2250 -91 1575 -91 
Q 1294 -91 989 -36 
Q 684 19 347 128 
L 347 722 
Q 666 556 975 473 
Q 1284 391 1588 391 
Q 1994 391 2212 530 
Q 2431 669 2431 922 
Q 2431 1156 2273 1281 
Q 2116 1406 1581 1522 
L 1381 1569 
Q 847 1681 609 1914 
Q 372 2147 372 2553 
Q 372 3047 722 3315 
Q 1072 3584 1716 3584 
Q 2034 3584 2315 3537 
Q 2597 3491 2834 3397 
z
" transform="scale(0.015625)"/>
      </defs>
      <use xlink:href="#DejaVuSans-31"/>
      <use xlink:href="#DejaVuSans-48" transform="translate(74.8125 0)"/>
      <use xlink:href="#DejaVuSans-4c" transform="translate(136.34375 0)"/>
      <use xlink:href="#DejaVuSans-4a" transform="translate(164.125 0)"/>
      <use xlink:href="#DejaVuSans-4b" transform="translate(227.609375 0)"/>
      <use xlink:href="#DejaVuSans-45" transform="translate(290.984375 0)"/>
      <use xlink:href="#DejaVuSans-52" transform="translate(354.46875 0)"/>
      <use xlink:href="#DejaVuSans-55" transform="translate(415.65625 0)"/>
      <use xlink:href="#DejaVuSans-56" transform="translate(456.765625 0)"/>
     </g>
    </g>
   </g>
  </g>
 </g>
 <defs>
  <clipPath id="p0f93f09135">
   <rect x="7.2" y="30.117344" width="779.843306" height="473.04"/>
  </clipPath>
 </defs>
</svg>
