<?xml version="1.0" encoding="utf-8" standalone="no"?>
<!DOCTYPE svg PUBLIC "-//W3C//DTD SVG 1.1//EN"
  "http://www.w3.org/Graphics/SVG/1.1/DTD/svg11.dtd">
<svg xmlns:xlink="http://www.w3.org/1999/xlink" width="354.007863pt" height="510.356016pt" viewBox="0 0 354.007863 510.356016" xmlns="http://www.w3.org/2000/svg" version="1.1">
 <metadata>
  <rdf:RDF xmlns:dc="http://purl.org/dc/elements/1.1/" xmlns:cc="http://creativecommons.org/ns#" xmlns:rdf="http://www.w3.org/1999/02/22-rdf-syntax-ns#">
   <cc:Work>
    <dc:type rdf:resource="http://purl.org/dc/dcmitype/StillImage"/>
    <dc:date>2026-06-19T08:14:04.524059</dc:date>
    <dc:format>image/svg+xml</dc:format>
    <dc:creator>
     <cc:Agent>
      <dc:title>Matplotlib v3.11.0, https://matplotlib.org/</dc:title>
     </cc:Agent>
    </dc:creator>
   </cc:Work>
  </rdf:RDF>
 </metadata>
 <defs>
  <style type="text/css">*{stroke-linejoin: round; stroke-linecap: butt}</style>
 </defs>
 <g id="figure_1">
  <g id="patch_1">
   <path d="M 0 510.356016 
L 354.007863 510.356016 
L 354.007863 -0 
L 0 -0 
z
" style="fill: #d6eaf8"/>
  </g>
  <g id="axes_1">
   <g id="PatchCollection_1">
    <path d="M -1803.577226 -94.093585 
L -1802.718716 -95.653256 
L -1803.577226 -96.544497 
L -1801.860207 -99.218218 
L -1800.572443 -100.109459 
L -1799.713933 -100.555079 
L -1799.713933 -101.223509 
L -1798.855424 -101.66913 
L -1797.996915 -102.56037 
L -1797.138405 -103.00599 
L -1797.996915 -103.897231 
L -1797.56766 -104.565661 
L -1797.138405 -105.011282 
L -1796.279896 -105.456902 
L -1795.421386 -105.679712 
L -1795.421386 -105.011282 
L -1795.850641 -105.011282 
L -1796.279896 -105.011282 
L -1796.279896 -104.788471 
L -1794.992132 -104.120041 
L -1794.133622 -103.897231 
L -1793.275113 -104.342851 
L -1793.275113 -105.679712 
L -1793.704368 -105.679712 
L -1793.704368 -106.570953 
L -1794.562877 -107.462193 
L -1794.562877 -108.353434 
L -1793.704368 -109.021864 
L -1792.416604 -109.244674 
L -1792.416604 -110.135915 
L -1792.416604 -111.472775 
L -1791.558094 -117.488649 
L -1791.128839 -117.265839 
L -1790.27033 -116.820219 
L -1789.841075 -116.597408 
L -1789.841075 -117.043029 
L -1789.841075 -118.379889 
L -1790.27033 -117.934269 
L -1790.699585 -117.711459 
L -1791.558094 -118.379889 
L -1788.982566 -120.607991 
L -1786.836293 -125.064193 
L -1784.690019 -129.743206 
L -1783.402255 -135.98189 
L -1781.255982 -139.324042 
L -1780.397472 -143.334624 
L -1779.538963 -145.562725 
L -1776.104925 -151.355789 
L -1776.963435 -157.371662 
L -1777.392689 -163.610346 
L -1779.109708 -169.403409 
L -1776.963435 -177.647384 
L -1775.246416 -181.880777 
L -1773.529397 -185.222928 
L -1773.529397 -186.114169 
L -1774.387906 -186.114169 
L -1772.241633 -189.456321 
L -1771.812378 -191.015992 
L -1772.670888 -192.575663 
L -1772.670888 -193.466903 
L -1771.383124 -197.477486 
L -1771.383124 -199.259967 
L -1773.529397 -199.705587 
L -1773.529397 -200.596827 
L -1771.812378 -203.493359 
L -1769.666105 -208.840802 
L -1768.807595 -214.633866 
L -1770.095359 -217.753208 
L -1770.095359 -219.758499 
L -1768.807595 -222.20941 
L -1767.949086 -224.883132 
L -1765.373558 -236.692069 
L -1764.944303 -238.47455 
L -1763.656539 -241.371081 
L -1763.656539 -242.262322 
L -1763.656539 -244.044803 
L -1762.368775 -245.158854 
L -1759.363992 -246.718524 
L -1760.222502 -248.946626 
L -1760.651756 -251.843157 
L -1760.222502 -253.848449 
L -1758.934737 -253.180018 
L -1758.505483 -253.402828 
L -1758.505483 -253.848449 
L -1758.505483 -254.071259 
L -1758.076228 -254.071259 
L -1758.934737 -255.85374 
L -1759.363992 -258.081841 
L -1758.505483 -260.087132 
L -1745.627842 -257.859031 
L -1731.462437 -255.40812 
L -1712.575231 -252.288778 
L -1696.263552 -249.615056 
L -1678.66411 -246.718524 
L -1664.498705 -244.267613 
L -1657.63063 -243.153562 
L -1643.89448 -240.925461 
L -1631.446093 -238.69736 
L -1628.012056 -238.92017 
L -1625.007273 -240.034221 
L -1612.129632 -250.506297 
L -1599.681246 -260.532753 
L -1585.515841 -271.673259 
L -1576.501493 -279.025993 
L -1568.774908 -291.503361 
L -1561.477578 -303.535108 
L -1555.897267 -312.670323 
L -1549.458447 -323.365209 
L -1546.453664 -326.261741 
L -1543.448881 -327.821412 
L -1532.717514 -330.049513 
L -1522.415401 -332.054804 
L -1505.245213 -335.619766 
L -1488.075026 -338.961918 
L -1472.192602 -342.08126 
L -1458.027197 -344.977792 
L -1455.451669 -347.205893 
L -1450.300613 -359.46045 
L -1446.43732 -368.818476 
L -1442.144773 -378.844932 
L -1438.710736 -386.866096 
L -1436.993717 -389.317008 
L -1434.418189 -391.545109 
L -1421.111293 -398.452223 
L -1406.945889 -406.250578 
L -1397.93154 -410.92959 
L -1397.502285 -411.375211 
L -1397.073031 -411.375211 
L -1397.073031 -411.598021 
L -1403.082596 -418.282325 
L -1416.389492 -432.764983 
L -1429.267133 -447.470452 
L -1442.574028 -462.17592 
L -1455.451669 -476.881389 
L -1455.880924 -477.327009 
L -1456.310178 -477.772629 
L -1456.739433 -478.21825 
L -1456.739433 -478.66387 
L -1472.621857 -494.483389 
L -1487.645771 -510.302909 
L -1488.075026 -510.525719 
L -1503.528195 -526.345238 
L -1518.981364 -542.387567 
L -1514.259562 -543.724428 
L -1489.36279 -550.854352 
L -1459.744216 -559.098327 
L -1430.554897 -567.565112 
L -1423.257567 -569.570403 
L -1400.936323 -575.809087 
L -1396.643776 -576.923137 
L -1373.893277 -583.161821 
L -1347.279486 -590.514555 
L -1320.23644 -597.86729 
L -1293.622649 -605.220024 
L -1279.886499 -608.784986 
L -1276.023207 -610.567467 
L -1261.857802 -623.044834 
L -1259.282274 -624.827315 
L -1258.423765 -625.272936 
L -1257.99451 -625.272936 
L -1257.565255 -625.272936 
L -1257.136 -625.495746 
L -1256.706746 -625.495746 
L -1233.526992 -621.707974 
L -1209.917984 -617.920201 
L -1186.308976 -614.132429 
L -1162.699968 -610.344657 
L -1152.82711 -608.784986 
L -1112.477169 -601.432252 
L -1106.038348 -598.98134 
L -1099.170273 -595.416378 
L -1087.151142 -588.509264 
L -1076.419774 -582.716201 
L -1066.117662 -576.700327 
L -1055.815549 -570.907264 
L -1045.084182 -564.89139 
L -1034.782069 -559.098327 
L -1024.050702 -553.082454 
L -1013.748589 -547.28939 
L -1003.446476 -541.273517 
L -992.715109 -535.480453 
L -982.412996 -529.46458 
L -972.110884 -523.671516 
L -961.379516 -517.655643 
L -951.077404 -511.862579 
L -940.775291 -505.846706 
L -930.043924 -500.053643 
L -919.741811 -494.260579 
L -909.010444 -488.244706 
L -901.283859 -481.560402 
L -890.981747 -473.316427 
L -881.108889 -465.072452 
L -870.806776 -456.828477 
L -860.933918 -448.361692 
L -849.344041 -439.003667 
L -838.183419 -429.645641 
L -827.022797 -420.287616 
L -824.447269 -418.282325 
L -815.432921 -410.92959 
L -802.984534 -401.125945 
L -792.253167 -392.88197 
L -781.951054 -384.637995 
L -771.648942 -376.39402 
L -760.917574 -368.372856 
L -747.181424 -357.677969 
L -733.445274 -346.983083 
L -720.138379 -336.288197 
L -706.402228 -325.593311 
L -700.392663 -321.137108 
L -692.666078 -314.898424 
L -678.929928 -304.426348 
L -665.193778 -293.731462 
L -651.457628 -283.036576 
L -640.297006 -274.12417 
L -629.136384 -265.211765 
L -617.546507 -256.29936 
L -606.385885 -247.609765 
L -596.942281 -240.257031 
L -596.083772 -240.034221 
L -595.654517 -239.81141 
L -594.796008 -239.5886 
L -593.937499 -239.14298 
L -583.206131 -238.251739 
L -573.762528 -237.360499 
L -563.88967 -236.469258 
L -554.446067 -235.800828 
L -545.002464 -234.909588 
L -532.983332 -233.795537 
L -520.534946 -232.681486 
L -508.515815 -231.790246 
L -496.067428 -230.676195 
L -484.048297 -229.562144 
L -471.599911 -228.448094 
L -459.580779 -227.334043 
L -447.132393 -226.442803 
L -438.118045 -225.551562 
L -429.103696 -224.660322 
L -420.089348 -223.991891 
L -411.074999 -223.100651 
L -398.626613 -221.9866 
L -393.046302 -223.100651 
L -390.041519 -223.769081 
L -387.895246 -224.214701 
L -382.744189 -225.328752 
L -377.593133 -226.442803 
L -364.286237 -224.660322 
L -350.979342 -223.100651 
L -337.672446 -221.54098 
L -324.365551 -219.981309 
L -312.34642 -218.421638 
L -300.756543 -216.861967 
L -288.737411 -215.302296 
L -276.71828 -213.965435 
L -270.27946 -213.074195 
L -269.850205 -213.074195 
L -268.562441 -210.623283 
L -262.98213 -201.042448 
L -256.114055 -183.440447 
L -255.6848 -180.098295 
L -255.255545 -172.968371 
L -253.967781 -168.957789 
L -252.680017 -165.170017 
L -250.533744 -162.050675 
L -247.958215 -159.822574 
L -245.382687 -158.040093 
L -243.236414 -155.589181 
L -241.94865 -152.247029 
L -235.939084 -152.247029 
L -214.476349 -152.469839 
L -193.442869 -152.692649 
L -171.980135 -152.91546 
L -150.946655 -153.13827 
L -148.371126 -150.241738 
L -146.654108 -149.127687 
L -143.649325 -147.790827 
L -143.22007 -146.899586 
L -141.932306 -141.106523 
L -141.932306 -136.65032 
L -143.22007 -133.753788 
L -145.795598 -134.645029 
L -146.224853 -133.753788 
L -146.654108 -133.308168 
L -146.654108 -132.862548 
L -144.507834 -132.639738 
L -142.361561 -133.085358 
L -141.073797 -134.422219 
L -140.215287 -136.42751 
L -138.927523 -135.536269 
L -138.927523 -134.422219 
L -140.215287 -131.971307 
L -140.644542 -128.406345 
L -141.073797 -126.846674 
L -140.215287 -123.727333 
L -138.927523 -121.276421 
L -129.054665 -110.358725 
L -128.196156 -108.799054 
L -129.913175 -106.348142 
L -130.771684 -103.897231 
L -130.771684 -101.223509 
L -130.342429 -98.549788 
L -129.054665 -96.321687 
L -125.191373 -91.197054 
L -124.332864 -89.860193 
L -124.762118 -88.300522 
L -124.762118 -87.854902 
L -123.0451 -86.740851 
L -118.752553 -84.95837 
L -117.464789 -84.73556 
L -113.601496 -84.95837 
L -112.313732 -84.73556 
L -110.167459 -83.398699 
L -108.45044 -82.953079 
L -108.021185 -82.730269 
L -108.021185 -81.839028 
L -108.45044 -80.947788 
L -108.879695 -80.279357 
L -109.738204 -80.056547 
L -110.596713 -80.056547 
L -111.455223 -80.279357 
L -113.601496 -79.388117 
L -114.030751 -78.496876 
L -114.030751 -76.714395 
L -112.742987 -74.931914 
L -110.596713 -72.481003 
L -107.591931 -70.475711 
L -105.445657 -69.361661 
L -105.445657 -68.916041 
L -102.870129 -64.905458 
L -97.719073 -60.226445 
L -97.289818 -58.889585 
L -98.577582 -56.215863 
L -98.577582 -54.656192 
L -98.577582 -53.096521 
L -98.148327 -52.428091 
L -98.148327 -51.31404 
L -99.436091 -49.308749 
L -100.723855 -47.080648 
L -102.440874 -45.966597 
L -101.582365 -47.526268 
L -101.582365 -48.640319 
L -101.582365 -51.75966 
L -101.582365 -53.764952 
L -100.723855 -54.656192 
L -100.294601 -55.770243 
L -100.723855 -57.775534 
L -102.870129 -55.993053 
L -104.587148 -51.09123 
L -106.733421 -49.531559 
L -104.587148 -55.324623 
L -104.157893 -56.884293 
L -104.587148 -59.335205 
L -105.874912 -59.112395 
L -106.733421 -57.329914 
L -108.879695 -47.971888 
L -108.879695 -45.966597 
L -109.308949 -45.520977 
L -109.738204 -44.852546 
L -109.738204 -43.961306 
L -108.021185 -44.184116 
L -107.591931 -44.852546 
L -106.733421 -47.080648 
L -105.874912 -47.749078 
L -105.874912 -41.956015 
L -105.445657 -40.619154 
L -104.157893 -40.619154 
L -103.299384 -41.956015 
L -102.440874 -43.292876 
L -101.582365 -41.733205 
L -101.582365 -39.950724 
L -101.582365 -37.945432 
L -100.294601 -37.277002 
L -99.006837 -37.945432 
L -98.148327 -39.282293 
L -97.719073 -40.619154 
L -97.719073 -38.168243 
L -97.719073 -37.499812 
L -98.577582 -36.831382 
L -97.719073 -35.717331 
L -98.148327 -34.826091 
L -98.577582 -34.38047 
L -100.294601 -34.38047 
L -99.006837 -31.483939 
L -98.577582 -30.592698 
L -101.15311 -32.152369 
L -102.440874 -32.152369 
L -103.299384 -30.592698 
L -100.723855 -29.701458 
L -98.577582 -29.701458 
L -97.289818 -31.038318 
L -96.002054 -33.26642 
L -95.143544 -33.26642 
L -94.285035 -31.483939 
L -96.002054 -29.924268 
L -96.431309 -27.473356 
L -95.572799 -25.245255 
L -93.426526 -25.245255 
L -92.568016 -26.136496 
L -93.426526 -27.027736 
L -94.285035 -27.918977 
L -94.285035 -28.810217 
L -93.426526 -30.147078 
L -92.138762 -30.815508 
L -89.563233 -31.483939 
L -86.987705 -31.706749 
L -85.699941 -30.815508 
L -81.407394 -27.027736 
L -76.685593 -24.799635 
L -75.827083 -23.239964 
L -77.973357 -21.680293 
L -76.256338 -20.789052 
L -74.968574 -21.011863 
L -74.110064 -21.903103 
L -74.968574 -23.462774 
L -72.8223 -22.571533 
L -70.676027 -21.903103 
L -65.954225 -21.680293 
L -65.095716 -21.903103 
L -62.949442 -23.239964 
L -62.090933 -23.462774 
L -60.803169 -23.239964 
L -58.656896 -22.571533 
L -57.369131 -22.348723 
L -54.793603 -21.680293 
L -53.076584 -20.120622 
L -50.071802 -16.11004 
L -49.213292 -15.441609 
L -48.354783 -14.995989 
L -47.496273 -14.550369 
L -47.067019 -13.436318 
L -46.637764 -12.322267 
L -46.208509 -10.094166 
L -46.208509 -8.980115 
L -47.496273 -8.980115 
L -48.354783 -9.648546 
L -48.784038 -10.762597 
L -48.354783 -12.545078 
L -49.213292 -12.545078 
L -51.78882 -9.648546 
L -58.656896 -10.316976 
L -60.803169 -8.088875 
L -61.661678 -8.088875 
L -62.520188 -10.316976 
L -64.666461 -10.316976 
L -68.959008 -8.088875 
L -68.100499 -7.420445 
L -65.524971 -6.752014 
L -64.237207 -6.083584 
L -62.949442 -5.415153 
L -62.520188 -4.746723 
L -61.661678 -4.078293 
L -59.94466 -3.409862 
L -59.08615 -2.518622 
L -58.656896 -1.850191 
L -57.798386 -2.073001 
L -56.081367 -4.078293 
L -56.081367 -4.523913 
L -55.222858 -4.969533 
L -55.222858 -5.860774 
L -54.793603 -6.083584 
L -53.935094 -5.637964 
L -53.076584 -4.969533 
L -51.78882 -4.523913 
L -52.64733 -2.518622 
L -53.935094 -1.627381 
L -55.222858 -0.958951 
L -56.081367 0.1551 
L -56.510622 1.491961 
L -56.510622 5.056923 
L -56.510622 6.393784 
L -55.652113 6.170973 
L -53.935094 5.502543 
L -52.64733 4.388492 
L -51.359566 3.274442 
L -50.071802 2.828821 
L -48.354783 3.274442 
L -46.208509 4.611302 
L -47.067019 7.285024 
L -46.637764 9.735935 
L -45.779255 12.409657 
L -45.35 15.083379 
L -45.35 20.653632 
L -44.920745 23.104543 
L -42.774472 22.658923 
L -43.203727 25.109834 
L -42.345217 26.001075 
L -41.057453 25.778265 
L -39.769689 24.664214 
L -40.198944 22.658923 
L -39.340434 21.322062 
L -37.194161 21.099252 
L -35.477142 22.658923 
L -34.618633 21.767682 
L -34.189378 23.327353 
L -34.618633 24.664214 
L -35.047887 26.001075 
L -35.477142 27.783556 
L -35.906397 28.674797 
L -37.194161 29.120417 
L -38.481925 29.120417 
L -39.769689 28.897607 
L -38.481925 30.457278 
L -35.906397 31.125708 
L -34.618633 32.685379 
L -33.760123 32.016948 
L -32.901614 30.902898 
L -31.61385 28.229176 
L -31.184595 28.674797 
L -31.184595 28.897607 
L -30.75534 28.897607 
L -32.043104 31.348518 
L -30.75534 31.794138 
L -27.750558 30.902898 
L -26.033539 31.125708 
L -22.599501 32.462569 
L -20.882482 32.685379 
L -23.887265 29.120417 
L -25.175029 27.115126 
L -23.458011 25.332645 
L -21.740992 25.332645 
L -20.453228 26.001075 
L -19.594718 26.892315 
L -18.306954 27.337936 
L -17.448445 26.892315 
L -15.302171 24.664214 
L -15.731426 26.669505 
L -16.589936 29.788847 
L -16.589936 31.794138 
L -16.160681 34.69067 
L -15.302171 36.473151 
L -14.872917 37.141581 
L -12.297389 38.255632 
L -10.151115 40.706544 
L -3.28304 51.40143 
L 0.150998 55.634822 
L 1.009507 56.526063 
L 4.443544 58.085734 
L 5.731309 58.754164 
L 7.448327 60.759455 
L 8.736091 61.650696 
L 16.033421 64.992848 
L 20.755223 68.335 
L 23.330751 68.55781 
L 25.906279 68.55781 
L 28.911062 68.78062 
L 32.774354 71.008721 
L 36.208392 74.350873 
L 42.217958 82.372038 
L 43.934976 85.937 
L 52.949325 92.175684 
L 54.666344 94.403785 
L 55.095598 97.745937 
L 49.944542 93.066924 
L 46.939759 91.284443 
L 40.500939 90.393203 
L 38.78392 89.724772 
L 37.496156 88.387911 
L 36.637647 83.486089 
L 35.779137 84.377329 
L 34.491373 86.60543 
L 34.062118 88.610722 
L 34.062118 90.393203 
L 34.062118 91.952874 
L 34.491373 93.289734 
L 34.920628 94.626595 
L 36.208392 95.963456 
L 36.637647 96.631886 
L 36.208392 104.653051 
L 36.208392 106.881152 
L 39.642429 116.907608 
L 40.930193 118.912899 
L 42.647212 120.91819 
L 45.22274 122.255051 
L 55.095598 125.820013 
L 58.529636 128.939355 
L 60.675909 133.395558 
L 61.534419 139.411431 
L 61.534419 153.67128 
L 61.105164 156.790621 
L 59.8174 159.464343 
L 57.671127 161.024014 
L 57.671127 159.018723 
L 56.812617 158.350292 
L 55.524853 158.795913 
L 54.237089 160.132773 
L 55.095598 163.474925 
L 54.666344 168.599558 
L 53.807834 173.724191 
L 52.949325 177.289153 
L 50.803051 175.952293 
L 50.373797 174.169812 
L 50.373797 171.94171 
L 50.373797 170.159229 
L 49.515287 168.599558 
L 48.227523 167.485508 
L 47.369014 166.594267 
L 46.08125 165.703027 
L 45.651995 165.034596 
L 45.22274 165.034596 
L 44.793486 164.811786 
L 44.364231 161.024014 
L 44.364231 160.132773 
L 43.505722 159.241533 
L 42.647212 157.904672 
L 41.359448 156.567811 
L 39.642429 155.676571 
L 38.354665 156.122191 
L 35.349882 162.138065 
L 34.491373 162.806495 
L 33.203609 163.697735 
L 33.632864 165.480216 
L 34.920628 167.262698 
L 35.779137 167.931128 
L 35.779137 168.822368 
L 37.066901 170.82766 
L 37.066901 171.94171 
L 36.637647 172.387331 
L 35.779137 172.610141 
L 34.920628 173.055761 
L 34.491373 174.169812 
L 34.920628 176.175103 
L 35.349882 177.957584 
L 35.349882 179.962875 
L 34.491373 181.968166 
L 36.637647 182.636597 
L 38.354665 181.522546 
L 39.213175 179.517255 
L 38.78392 177.289153 
L 40.071684 177.734774 
L 40.930193 178.403204 
L 42.217958 180.185685 
L 42.647212 180.408495 
L 43.076467 180.185685 
L 43.505722 180.408495 
L 43.505722 181.299736 
L 43.934976 182.190976 
L 43.934976 182.636597 
L 44.364231 182.859407 
L 44.793486 182.859407 
L 47.798269 183.527837 
L 49.086033 185.310318 
L 49.944542 187.538419 
L 51.232306 189.989331 
L 51.232306 190.880571 
L 48.656778 193.331483 
L 49.944542 199.570166 
L 52.949325 206.47728 
L 55.095598 210.710673 
L 62.392928 219.400268 
L 65.397711 224.524901 
L 66.685475 230.763585 
L 65.826966 230.763585 
L 63.680692 224.524901 
L 62.822183 223.41085 
L 61.534419 223.18804 
L 59.8174 222.2968 
L 58.100381 221.182749 
L 56.812617 218.954648 
L 54.666344 217.617787 
L 52.949325 217.394977 
L 52.949325 219.845888 
L 53.807834 221.851179 
L 56.812617 223.856471 
L 57.671127 225.416142 
L 58.100381 224.079281 
L 58.529636 223.41085 
L 59.388145 223.41085 
L 63.680692 232.991686 
L 77.416842 250.370876 
L 80.421625 253.267408 
L 79.992371 251.484927 
L 79.563116 249.479636 
L 79.133861 247.697155 
L 79.992371 247.028724 
L 81.280135 246.360294 
L 81.709389 246.805914 
L 82.567899 249.702446 
L 82.997153 250.370876 
L 83.426408 250.593686 
L 83.855663 251.039307 
L 84.714172 252.821788 
L 86.860446 253.935838 
L 91.152993 255.049889 
L 92.011502 256.38675 
L 94.58703 262.402623 
L 93.728521 263.293864 
L 95.016285 265.299155 
L 96.733304 268.641307 
L 98.021068 272.651889 
L 98.450322 275.548421 
L 98.450322 277.108092 
L 97.591813 280.004623 
L 97.591813 281.787104 
L 98.021068 283.346775 
L 98.450322 284.683636 
L 98.879577 285.574877 
L 99.738086 287.802978 
L 101.455105 290.92232 
L 101.455105 293.150421 
L 101.025851 298.497864 
L 101.88436 303.845307 
L 102.742869 306.741839 
L 104.030633 308.52432 
L 104.889143 305.850599 
L 108.32318 308.52432 
L 111.327963 312.534902 
L 112.615727 314.763004 
L 114.762001 316.768295 
L 117.337529 325.45789 
L 120.342312 327.463181 
L 122.488585 329.691282 
L 123.347095 334.815915 
L 123.776349 342.83708 
L 124.205604 344.396751 
L 125.493368 346.624852 
L 126.781132 348.852954 
L 128.068896 350.189814 
L 129.785915 349.967004 
L 132.361443 347.516093 
L 140.946537 361.998751 
L 146.526848 368.460245 
L 152.536414 371.133967 
L 159.833744 372.248017 
L 166.701819 372.025207 
L 172.711384 370.019916 
L 180.867224 363.558422 
L 180.867224 364.449663 
L 187.306044 363.558422 
L 188.164553 364.449663 
L 189.452317 365.786524 
L 190.310827 366.454954 
L 191.598591 365.340903 
L 191.598591 366.454954 
L 191.598591 367.569005 
L 191.169336 368.683055 
L 190.310827 369.128676 
L 189.881572 369.797106 
L 189.881572 371.133967 
L 190.310827 372.470827 
L 190.740082 372.693638 
L 190.310827 377.14984 
L 191.169336 377.818271 
L 193.31561 377.14984 
L 195.032629 375.812979 
L 198.037411 370.019916 
L 199.75443 368.237435 
L 201.471449 367.346194 
L 202.329958 365.786524 
L 202.329958 362.667182 
L 204.046977 363.558422 
L 206.193251 363.781232 
L 207.910269 364.226853 
L 208.768779 365.786524 
L 209.627288 367.569005 
L 210.915052 367.791815 
L 212.632071 367.791815 
L 214.34909 369.128676 
L 214.34909 370.019916 
L 212.632071 370.911157 
L 210.056543 371.579587 
L 207.910269 372.916448 
L 207.05176 374.921739 
L 206.622505 374.921739 
L 204.046977 378.041081 
L 203.188468 378.932321 
L 202.759213 380.714802 
L 202.329958 381.606043 
L 195.032629 386.953486 
L 194.174119 388.513157 
L 193.744864 389.181587 
L 192.4571 391.186878 
L 191.598591 392.523739 
L 191.598591 393.8606 
L 191.169336 396.757132 
L 190.740082 397.871182 
L 190.740082 398.762423 
L 190.740082 399.653663 
L 190.740082 400.322094 
L 190.310827 400.544904 
L 189.023063 400.544904 
L 188.593808 400.767714 
L 188.164553 401.213334 
L 188.164553 403.887056 
L 188.164553 405.446727 
L 188.593808 406.115157 
L 196.320393 406.783588 
L 198.895921 406.115157 
L 200.61294 405.223917 
L 201.471449 404.332676 
L 202.759213 403.664246 
L 204.476232 403.441436 
L 212.202816 405.001107 
L 214.34909 406.783588 
L 217.783127 410.57136 
L 222.934184 412.131031 
L 223.792693 417.255664 
L 223.792693 420.820626 
L 223.363438 429.064601 
L 224.221948 432.629563 
L 225.938966 435.748904 
L 232.807042 444.66131 
L 238.816607 452.905285 
L 245.255428 460.926449 
L 251.264993 469.170424 
L 257.703814 477.414399 
L 263.71338 485.658374 
L 270.1522 493.679538 
L 276.161766 501.923513 
L 282.600586 510.167488 
L 288.610152 518.188653 
L 295.048972 526.432627 
L 301.058538 534.676602 
L 307.497358 542.920577 
L 313.506924 550.941742 
L 319.51649 559.185717 
L 325.95531 567.429691 
L 331.964876 575.673666 
L 338.403696 583.917641 
L 340.979224 586.145742 
L 343.984007 587.036983 
L 362.871214 589.710704 
L 379.612147 591.938806 
L 396.35308 594.166907 
L 412.664758 596.395008 
L 429.405691 598.62311 
L 446.146624 601.074021 
L 462.458303 603.302122 
L 479.199236 605.530224 
L 495.510914 607.758325 
L 512.251847 609.986426 
L 528.99278 612.214528 
L 545.304459 614.442629 
L 562.045392 616.67073 
L 578.35707 619.121642 
L 595.098003 621.349743 
L 611.838936 623.577844 
L 628.150614 625.805946 
L 644.462293 628.034047 
L 646.608566 627.588427 
L 654.335151 617.11635 
L 662.061735 630.039338 
L 671.505339 646.527288 
L 681.378197 663.015237 
L 690.8218 679.503187 
L 700.265403 695.991137 
L 706.704223 706.908833 
L 707.991988 709.582555 
L 707.991988 712.701896 
L 703.699441 727.630175 
L 702.840931 729.635466 
L 702.411677 732.309188 
L 699.836148 739.661922 
L 696.402111 751.025239 
L 692.109564 765.953517 
L 686.958508 783.332708 
L 680.948942 802.939999 
L 674.510121 824.106961 
L 673.222357 829.008784 
L 668.071301 845.719544 
L 661.632481 867.332127 
L 655.19366 888.276279 
L 649.613349 907.88357 
L 644.033038 925.485571 
L 639.740491 940.191039 
L 636.306454 951.777166 
L 634.16018 959.1299 
L 633.301671 961.803622 
L 629.438379 974.503799 
L 611.409681 980.965293 
L 591.234711 988.540838 
L 570.630486 996.116382 
L 550.455515 1003.691926 
L 529.85129 1011.267471 
L 509.676319 1018.620205 
L 489.072094 1026.19575 
L 468.897123 1033.771294 
L 448.292898 1041.346838 
L 428.117927 1048.699573 
L 407.513702 1056.275117 
L 386.909477 1063.850662 
L 366.734506 1071.426206 
L 346.130281 1079.00175 
L 325.95531 1086.354485 
L 305.351085 1093.930029 
L 285.176114 1101.505574 
L 271.869219 1106.407396 
L 252.982012 1109.081118 
L 233.665551 1111.97765 
L 214.778344 1114.874181 
L 195.461883 1117.770713 
L 176.574677 1120.444435 
L 157.68747 1123.340966 
L 138.371009 1126.237498 
L 119.483802 1129.13403 
L 100.167341 1132.030561 
L 81.280135 1134.704283 
L 61.963673 1137.600815 
L 43.076467 1140.497346 
L 23.760006 1143.393878 
L 4.872799 1146.0676 
L -14.443662 1148.964131 
L -33.330869 1151.860663 
L -52.64733 1154.757195 
L -68.100499 1156.985296 
L -79.261121 1161.218689 
L -84.412177 1164.11522 
L -101.582365 1173.473246 
L -122.18659 1184.390942 
L -144.937089 1196.868309 
L -165.11206 1207.786006 
L -180.565229 1216.029981 
L -183.140757 1218.035272 
L -192.58436 1230.289829 
L -203.315727 1244.772487 
L -222.202934 1269.727222 
L -239.802376 1293.122286 
L -251.392253 1308.496185 
L -253.538526 1312.729577 
L -259.118837 1329.217527 
L -267.274677 1352.38978 
L -270.708714 1357.514413 
L -284.444864 1365.981198 
L -299.039524 1375.116414 
L -302.473562 1376.676084 
L -306.336854 1377.121705 
L -322.219277 1376.453274 
L -323.936296 1376.453274 
L -325.22406 1375.339224 
L -335.526173 1360.410945 
L -344.111267 1347.487957 
L -351.837851 1336.124641 
L -356.559653 1333.450919 
L -382.744189 1337.238691 
L -402.489905 1340.135223 
L -431.679224 1337.015881 
L -454.000468 1334.56497 
L -483.619042 1331.222818 
L -508.945069 1328.549096 
L -514.52538 1326.543805 
L -533.841841 1314.512058 
L -540.709917 1313.175197 
L -560.455632 1312.952387 
L -563.460415 1312.952387 
L -578.48433 1312.952387 
L -602.522592 1312.729577 
L -605.098121 1313.398007 
L -612.39545 1316.294539 
L -615.829488 1316.517349 
L -623.985327 1314.734868 
L -631.282657 1314.512058 
L -642.872534 1315.626109 
L -651.886882 1318.07702 
L -654.46241 1318.07702 
L -659.184212 1316.517349 
L -661.75974 1316.294539 
L -663.476759 1317.6314 
L -665.193778 1320.973552 
L -666.910797 1323.201653 
L -669.486325 1324.315704 
L -672.491108 1323.870084 
L -677.212909 1321.419172 
L -678.929928 1321.196362 
L -681.505456 1322.533223 
L -683.65173 1324.984134 
L -684.939494 1327.435046 
L -686.656512 1329.440337 
L -689.661295 1329.885957 
L -690.949059 1329.440337 
L -691.807569 1329.217527 
L -692.236823 1328.549096 
L -692.666078 1327.435046 
L -692.236823 1324.761324 
L -692.236823 1323.424463 
L -693.095333 1322.978843 
L -695.670861 1323.870084 
L -697.817135 1324.092894 
L -702.538936 1323.647273 
L -707.260738 1324.092894 
L -709.407011 1324.092894 
L -711.553285 1323.201653 
L -716.704341 1318.968261 
L -724.86018 1309.164615 
L -730.011237 1306.045273 
L -738.59633 1302.034691 
L -740.742604 1301.36626 
L -744.605896 1301.14345 
L -746.75217 1300.69783 
L -749.327698 1301.14345 
L -752.332481 1302.034691 
L -762.634593 1309.164615 
L -772.936706 1318.52264 
L -778.946272 1326.098185 
L -778.946272 1326.766615 
L -772.078197 1328.994717 
L -769.931923 1331.000008 
L -768.644159 1333.896539 
L -769.073414 1336.347451 
L -771.648942 1337.907122 
L -774.653725 1338.575552 
L -777.658508 1339.912413 
L -780.234036 1341.917704 
L -780.66329 1344.591426 
L -780.66329 1347.710768 
L -781.5218 1350.384489 
L -784.097328 1355.509122 
L -784.526583 1358.405654 
L -784.097328 1360.410945 
L -783.238819 1362.639046 
L -782.380309 1365.535578 
L -782.380309 1368.43211 
L -783.238819 1370.883021 
L -784.955837 1376.007654 
L -785.814347 1379.349806 
L -785.385092 1381.577907 
L -782.809564 1386.70254 
L -781.5218 1391.604363 
L -779.804781 1392.718414 
L -775.512234 1394.055275 
L -774.22447 1395.169325 
L -773.365961 1396.506186 
L -773.365961 1398.288667 
L -773.795215 1399.625528 
L -774.653725 1400.293958 
L -775.941489 1400.739579 
L -776.799998 1401.630819 
L -778.517017 1404.304541 
L -778.517017 1406.087022 
L -777.229253 1408.092313 
L -776.799998 1411.211655 
L -776.370743 1411.434465 
L -777.229253 1413.885376 
L -779.375526 1414.330996 
L -784.097328 1412.771326 
L -787.102111 1412.102895 
L -788.81913 1412.994136 
L -789.248384 1414.776617 
L -789.248384 1417.450338 
L -789.677639 1419.90125 
L -793.111677 1428.590845 
L -794.399441 1430.818946 
L -796.974969 1433.047047 
L -802.126025 1436.166389 
L -803.843044 1436.83482 
L -808.564845 1437.72606 
L -809.85261 1438.394491 
L -810.281864 1440.176972 
L -809.85261 1442.182263 
L -809.85261 1444.187554 
L -810.711119 1446.415655 
L -814.145157 1448.643757 
L -818.008449 1450.649048 
L -824.018014 1452.654339 
L -824.018014 1452.431529 
L -824.018014 1447.529706 
L -824.876524 1446.192845 
L -823.159505 1441.959453 
L -824.018014 1439.285731 
L -829.598325 1432.378617 
L -831.315344 1429.482085 
L -831.744599 1426.808364 
L -831.315344 1421.238111 
L -830.02758 1415.445047 
L -830.02758 1412.994136 
L -832.173854 1412.548515 
L -831.315344 1411.657275 
L -833.032363 1410.097604 
L -833.890872 1408.092313 
L -834.320127 1406.309832 
L -833.032363 1405.195781 
L -833.890872 1403.85892 
L -837.32491 1400.739579 
L -837.754165 1399.848338 
L -839.471183 1397.397427 
L -842.046712 1394.055275 
L -842.905221 1393.386844 
L -846.768513 1391.158743 
L -848.056277 1391.158743 
L -849.344041 1391.827173 
L -853.207334 1385.8113 
L -851.91957 1380.018236 
L -852.778079 1377.790135 
L -852.778079 1371.328641 
L -853.207334 1369.10054 
L -854.065843 1368.43211 
L -855.353607 1367.763679 
L -855.782862 1365.981198 
L -857.070626 1364.867148 
L -859.216899 1364.644337 
L -861.363173 1364.867148 
L -863.080192 1364.644337 
L -864.79721 1363.307477 
L -865.65572 1361.079375 
L -867.372739 1357.514413 
L -867.801993 1355.509122 
L -868.660503 1351.052919 
L -869.089757 1349.047628 
L -869.948267 1348.156388 
L -875.528578 1345.705476 
L -875.099323 1347.933578 
L -874.240814 1349.938869 
L -872.09454 1353.726641 
L -874.670068 1355.286312 
L -873.382304 1363.975907 
L -874.670068 1366.426818 
L -875.528578 1363.753097 
L -875.528578 1354.617882 
L -875.957832 1351.94416 
L -877.674851 1346.819527 
L -879.821125 1328.994717 
L -880.250379 1325.652565 
L -881.108889 1323.424463 
L -880.250379 1316.740159 
L -880.250379 1314.066438 
L -881.108889 1311.169906 
L -881.967398 1309.833045 
L -883.255162 1309.387425 
L -884.542926 1309.387425 
L -885.401436 1308.941805 
L -885.83069 1308.273374 
L -886.259945 1307.159324 
L -887.118454 1305.599653 
L -899.566841 1294.013526 
L -900.854605 1293.567906 
L -901.283859 1294.236336 
L -902.142369 1293.122286 
L -903.430133 1290.448564 
L -905.576406 1286.883602 
L -906.434916 1284.655501 
L -906.86417 1283.76426 
L -907.72268 1283.31864 
L -910.298208 1283.76426 
L -911.585972 1283.54145 
L -912.015227 1281.758969 
L -912.873736 1280.644918 
L -918.024792 1275.074665 
L -918.024792 1275.297475 
L -918.883302 1275.743095 
L -919.741811 1275.965906 
L -920.600321 1275.965906 
L -921.45883 1274.629045 
L -925.322122 1269.058792 
L -926.609886 1268.390361 
L -933.477961 1261.483247 
L -936.05349 1262.597298 
L -940.775291 1259.255146 
L -943.350819 1259.700766 
L -944.638583 1256.135804 
L -946.355602 1254.130513 
L -948.93113 1252.125222 
L -951.506659 1249.67431 
L -956.657715 1242.990006 
L -957.08697 1240.761905 
L -957.08697 1238.979424 
L -956.657715 1237.642563 
L -957.08697 1236.528513 
L -958.374734 1236.082892 
L -959.233243 1235.637272 
L -959.662498 1234.746032 
L -959.233243 1233.631981 
L -959.662498 1232.51793 
L -964.813554 1227.838917 
L -966.530573 1225.165196 
L -965.242809 1222.714284 
L -967.389082 1219.817753 
L -968.247592 1218.480892 
L -968.676846 1216.698411 
L -969.106101 1216.029981 
L -970.393865 1215.58436 
L -970.82312 1214.69312 
L -970.393865 1212.687829 
L -972.969393 1212.465018 
L -975.115667 1211.796588 
L -974.686412 1211.128158 
L -974.686412 1210.682537 
L -974.257157 1210.459727 
L -973.398648 1210.014107 
L -974.257157 1208.454436 
L -975.544921 1207.563196 
L -976.832685 1207.563196 
L -978.549704 1208.231626 
L -977.691195 1206.894765 
L -977.26194 1205.780715 
L -976.832685 1204.443854 
L -977.691195 1203.552613 
L -976.832685 1201.770132 
L -977.691195 1200.878892 
L -978.978959 1200.656082 
L -981.125232 1200.878892 
L -980.695978 1199.096411 
L -981.125232 1196.645499 
L -981.983742 1193.971778 
L -982.842251 1192.412107 
L -983.271506 1190.852436 
L -984.130015 1185.727803 
L -984.55927 1184.613752 
L -984.988525 1183.499702 
L -984.988525 1176.592588 
L -985.417779 1175.701347 
L -985.417779 1175.255727 
L -986.276289 1174.810106 
L -987.134798 1174.810106 
L -987.564053 1174.141676 
L -987.993307 1173.027625 
L -987.993307 1171.913575 
L -987.993307 1171.022334 
L -992.285854 1167.902992 
L -993.144364 1167.011752 
L -993.144364 1165.674891 
L -994.002873 1164.11522 
L -994.861383 1162.555549 
L -996.578401 1161.887119 
L -997.436911 1161.218689 
L -997.866165 1160.550258 
L -998.29542 1160.104638 
L -998.724675 1160.550258 
L -1000.012439 1161.887119 
L -1000.441694 1162.109929 
L -1001.729458 1161.664309 
L -1003.017222 1160.773068 
L -1004.304986 1159.659018 
L -1005.163495 1158.322157 
L -1008.597533 1150.969423 
L -1009.885297 1148.964131 
L -1011.602316 1147.18165 
L -1012.03157 1145.621979 
L -1012.460825 1143.839498 
L -1012.03157 1141.388587 
L -1009.026787 1132.698992 
L -1008.597533 1130.02527 
L -1008.168278 1128.91122 
L -1007.739023 1128.465599 
L -1007.739023 1127.574359 
L -1008.597533 1125.791878 
L -1009.026787 1125.791878 
L -1011.602316 1124.232207 
L -1012.03157 1124.009397 
L -1016.753372 1122.672536 
L -1018.041136 1118.661954 
L -1018.041136 1117.770713 
L -1020.616664 1114.651371 
L -1021.045919 1114.205751 
L -1021.045919 1112.86889 
L -1021.045919 1111.309219 
L -1020.18741 1108.858308 
L -1019.758155 1107.298637 
L -1018.899645 1106.407396 
L -1018.470391 1105.293346 
L -1018.470391 1102.842434 
L -1017.611881 1100.168713 
L -1016.324117 1096.826561 
L -1017.182627 1095.04408 
L -1019.3289 1093.484409 
L -1021.904428 1092.370358 
L -1027.055485 1090.810687 
L -1029.201758 1089.251016 
L -1030.489522 1085.686054 
L -1031.777286 1082.789523 
L -1032.635796 1081.675472 
L -1032.206541 1080.115801 
L -1031.348032 1076.996459 
L -1031.777286 1075.882409 
L -1032.206541 1073.431497 
L -1032.635796 1072.094636 
L -1033.06505 1070.980586 
L -1035.211324 1069.643725 
L -1035.640578 1068.529674 
L -1036.069833 1065.633143 
L -1037.357597 1064.296282 
L -1039.074616 1063.182231 
L -1042.508654 1060.50851 
L -1042.079399 1060.062889 
L -1042.079399 1058.503218 
L -1042.508654 1057.166358 
L -1043.367163 1055.161067 
L -1043.796418 1054.047016 
L -1044.225672 1052.487345 
L -1044.654927 1050.482054 
L -1044.654927 1048.922383 
L -1043.796418 1047.585522 
L -1042.508654 1046.694282 
L -1042.079399 1045.580231 
L -1042.937908 1044.46618 
L -1042.508654 1043.129319 
L -1042.937908 1041.792459 
L -1043.367163 1040.678408 
L -1043.796418 1039.118737 
L -1054.09853 1035.330965 
L -1056.674058 1033.771294 
L -1063.112879 1027.08699 
L -1065.688407 1025.527319 
L -1065.688407 1024.636079 
L -1064.400643 1024.858889 
L -1061.825115 1026.41856 
L -1060.966605 1021.071117 
L -1061.39586 1014.386813 
L -1062.254369 1011.490281 
L -1067.834681 1003.246306 
L -1069.980954 1001.686635 
L -1075.99052 1000.795395 
L -1078.566048 1001.018205 
L -1079.424557 1002.355066 
L -1078.136793 1005.474407 
L -1079.853812 1004.137547 
L -1081.570831 1001.241015 
L -1082.42934 998.567293 
L -1082.42934 997.453243 
L -1084.146359 996.339192 
L -1089.297415 988.986458 
L -1092.731453 986.535546 
L -1093.589962 985.644306 
L -1093.589962 984.753065 
L -1091.872943 981.188103 
L -1092.731453 978.960002 
L -1094.019217 977.400331 
L -1097.882509 975.84066 
L -1102.175056 972.944128 
L -1103.46282 972.498508 
L -1104.321329 970.716027 
L -1105.609094 970.270407 
L -1106.467603 969.824787 
L -1109.472386 965.368584 
L -1110.330895 964.922964 
L -1113.335678 964.031723 
L -1114.623442 964.031723 
L -1116.769716 963.363293 
L -1118.915989 961.803622 
L -1124.4963 957.347419 
L -1128.788847 952.222786 
L -1127.930338 950.440305 
L -1130.076611 948.880634 
L -1133.081394 947.989394 
L -1136.944686 947.320963 
L -1137.373941 946.652533 
L -1138.661705 945.092862 
L -1140.378724 943.310381 
L -1141.666488 941.97352 
L -1141.666488 941.5279 
L -1142.524997 940.63666 
L -1146.388289 937.071698 
L -1148.534563 935.957647 
L -1151.110091 936.180457 
L -1154.114874 936.626077 
L -1156.261147 937.517318 
L -1157.548912 938.631368 
L -1160.12444 937.517318 
L -1165.275496 934.397976 
L -1167.851024 933.061115 
L -1167.851024 934.843596 
L -1166.992515 935.734837 
L -1166.134005 936.403267 
L -1165.275496 937.294508 
L -1164.846241 937.517318 
L -1163.558477 938.408558 
L -1162.699968 939.299799 
L -1163.558477 939.745419 
L -1165.704751 939.076989 
L -1177.294627 931.501444 
L -1179.011646 930.164583 
L -1180.728665 929.273343 
L -1182.874938 928.604913 
L -1185.021212 927.490862 
L -1186.738231 923.48028 
L -1188.884504 921.474988 
L -1195.323325 916.350355 
L -1198.757362 913.008203 
L -1205.625437 900.976456 
L -1208.200965 898.971165 
L -1208.200965 897.857115 
L -1206.913201 898.079925 
L -1206.054692 897.857115 
L -1205.196183 897.188684 
L -1204.766928 896.074634 
L -1206.483947 895.851823 
L -1208.200965 894.960583 
L -1210.776494 892.064051 
L -1211.635003 890.72719 
L -1212.493512 886.716608 
L -1212.922767 885.379747 
L -1216.786059 880.700735 
L -1217.215314 878.472633 
L -1215.498295 875.353291 
L -1219.361587 873.793621 
L -1221.078606 873.57081 
L -1221.078606 874.684861 
L -1220.220097 875.353291 
L -1219.790842 876.021722 
L -1218.932333 876.244532 
L -1221.078606 875.576102 
L -1223.654134 874.016431 
L -1225.371153 872.011139 
L -1224.512644 870.005848 
L -1225.371153 869.337418 
L -1226.229663 868.668988 
L -1225.800408 867.554937 
L -1225.371153 866.440886 
L -1224.512644 867.332127 
L -1223.654134 868.223367 
L -1222.795625 868.668988 
L -1221.078606 869.114608 
L -1221.937116 867.554937 
L -1221.937116 866.663696 
L -1221.937116 865.995266 
L -1222.36637 864.658405 
L -1222.795625 864.658405 
L -1223.654134 864.881215 
L -1224.512644 864.435595 
L -1226.229663 862.207494 
L -1226.658917 862.207494 
L -1226.658917 864.435595 
L -1229.234445 862.875924 
L -1232.668483 859.979392 
L -1235.244011 856.63724 
L -1235.244011 853.740709 
L -1234.385502 854.409139 
L -1233.526992 855.30038 
L -1232.668483 855.52319 
L -1232.668483 854.631949 
L -1233.097738 853.072278 
L -1233.526992 852.403848 
L -1234.385502 852.181038 
L -1235.673266 851.512607 
L -1236.531775 850.844177 
L -1237.819539 851.066987 
L -1239.107303 851.735418 
L -1240.395067 851.958228 
L -1240.395067 851.289797 
L -1243.829105 845.942354 
L -1244.25836 844.159873 
L -1244.687614 841.931772 
L -1244.687614 838.81243 
L -1245.116869 837.475569 
L -1246.833888 836.361519 
L -1247.263143 835.247468 
L -1247.263143 833.687797 
L -1247.692397 833.019367 
L -1248.550907 832.796557 
L -1253.701963 829.008784 
L -1254.989727 827.449113 
L -1255.848236 823.884151 
L -1256.706746 821.21043 
L -1257.136 819.873569 
L -1256.706746 819.205139 
L -1255.848236 817.422658 
L -1255.418982 816.531417 
L -1256.277491 814.748936 
L -1260.570038 807.619012 
L -1262.287057 806.504961 
L -1266.150349 800.266278 
L -1256.706746 791.799493 
L -1255.418982 788.457341 
L -1254.989727 784.446758 
L -1256.277491 780.436176 
L -1257.99451 778.430885 
L -1257.99451 777.762454 
L -1256.706746 776.648404 
L -1256.706746 774.865923 
L -1258.853019 770.40972 
L -1260.140783 773.306252 
L -1261.428547 773.751872 
L -1262.716311 772.192201 
L -1263.574821 769.51848 
L -1262.716311 768.627239 
L -1264.862585 765.730707 
L -1265.29184 761.942935 
L -1264.862585 757.932353 
L -1265.29184 754.144581 
L -1266.579604 750.579618 
L -1266.150349 748.797137 
L -1264.004076 747.905897 
L -1263.574821 747.014656 
L -1262.716311 745.232175 
L -1262.716311 743.226884 
L -1263.574821 741.667213 
L -1264.43333 744.340935 
L -1265.29184 745.454986 
L -1266.150349 746.123416 
L -1267.867368 746.123416 
L -1268.296622 745.454986 
L -1268.296622 744.563745 
L -1268.725877 743.449694 
L -1269.155132 742.781264 
L -1270.013641 742.335644 
L -1270.442896 741.667213 
L -1270.872151 740.775973 
L -1271.301405 739.439112 
L -1271.301405 737.211011 
L -1271.73066 736.09696 
L -1272.159915 736.09696 
L -1273.447679 735.20572 
L -1273.447679 734.760099 
L -1273.876934 733.868859 
L -1274.306188 733.423238 
L -1278.16948 728.075795 
L -1281.603518 720.277441 
L -1283.749791 709.136934 
L -1283.749791 706.686023 
L -1280.745009 705.349162 
L -1277.310971 709.582555 
L -1275.164698 709.582555 
L -1274.306188 706.686023 
L -1274.306188 704.235111 
L -1274.306188 702.67544 
L -1273.876934 702.22982 
L -1272.159915 701.11577 
L -1271.73066 700.447339 
L -1271.73066 697.996428 
L -1270.442896 692.648985 
L -1270.013641 689.975263 
L -1270.872151 689.975263 
L -1272.589169 694.431466 
L -1273.447679 692.648985 
L -1273.018424 691.089314 
L -1272.159915 689.752453 
L -1271.73066 687.747162 
L -1271.73066 682.399719 
L -1270.872151 678.834757 
L -1267.008858 674.155744 
L -1265.721094 668.585491 
L -1264.862585 667.24863 
L -1264.004076 666.134579 
L -1262.716311 664.797718 
L -1260.999293 661.009946 
L -1259.282274 659.004655 
L -1258.853019 658.336225 
L -1258.853019 656.776554 
L -1259.282274 655.216883 
L -1260.570038 654.325642 
L -1261.857802 654.771262 
L -1262.716311 655.885313 
L -1263.574821 659.673085 
L -1264.43333 661.009946 
L -1267.438113 661.678377 
L -1267.438113 657.890604 
L -1265.721094 652.320351 
L -1267.008858 645.190427 
L -1266.150349 637.837693 
L -1267.008858 634.272731 
L -1267.867368 632.490249 
L -1271.301405 627.811237 
L -1274.306188 620.458502 
L -1276.452462 616.44792 
L -1277.310971 614.442629 
L -1277.310971 612.882958 
L -1273.876934 609.763616 
L -1274.306188 608.872376 
L -1279.886499 602.188072 
L -1282.032773 600.182781 
L -1283.320537 600.851211 
L -1282.891282 601.742452 
L -1280.745009 603.970553 
L -1279.886499 605.084603 
L -1279.457245 606.421464 
L -1279.457245 607.758325 
L -1279.02799 609.095186 
L -1278.16948 610.432047 
L -1279.02799 611.323287 
L -1280.745009 607.758325 
L -1284.179046 602.410882 
L -1287.183829 598.62311 
L -1293.622649 587.259793 
L -1293.622649 585.477312 
L -1289.759357 587.482603 
L -1285.896065 596.172198 
L -1284.179046 596.840629 
L -1282.891282 597.731869 
L -1281.603518 597.509059 
L -1280.745009 596.617819 
L -1279.886499 595.058148 
L -1281.174263 593.498477 
L -1283.320537 589.487894 
L -1284.608301 588.819464 
L -1285.46681 588.373844 
L -1286.32532 587.482603 
L -1287.183829 586.145742 
L -1287.183829 584.586071 
L -1288.471593 582.58078 
L -1290.617867 581.68954 
L -1293.622649 580.798299 
L -1295.339668 579.684249 
L -1297.915196 580.352679 
L -1299.632215 578.124578 
L -1302.207743 572.554324 
L -1300.919979 571.217464 
L -1299.632215 569.434983 
L -1299.20296 567.429691 
L -1298.773706 565.64721 
L -1299.20296 561.859438 
L -1299.632215 559.854147 
L -1299.632215 558.294476 
L -1301.349234 557.626046 
L -1302.207743 559.631337 
L -1303.924762 556.734805 
L -1305.641781 553.838273 
L -1307.788054 549.382071 
L -1309.934328 546.931159 
L -1311.222092 544.034628 
L -1312.509856 542.029337 
L -1312.939111 540.246856 
L -1313.79762 537.795944 
L -1313.79762 536.013463 
L -1314.656129 532.002881 
L -1316.373148 528.883539 
L -1317.660912 525.095767 
L -1318.519422 519.971134 
L -1318.948676 516.183361 
L -1319.807186 513.28683 
L -1319.807186 511.058728 
L -1321.953459 508.830627 
L -1322.811969 507.270956 
L -1323.241223 505.265665 
L -1323.241223 503.037564 
L -1326.246006 504.597235 
L -1327.104516 503.705994 
L -1328.39228 503.705994 
L -1327.963025 505.934095 
L -1327.104516 507.048146 
L -1324.099733 508.162197 
L -1324.099733 509.276247 
L -1327.963025 508.830627 
L -1330.538553 506.379716 
L -1330.538553 499.918222 
L -1336.118864 493.011108 
L -1338.694392 483.875893 
L -1339.552902 480.756551 
L -1339.982156 477.637209 
L -1340.840666 474.517867 
L -1342.986939 472.066956 
L -1343.845449 471.621335 
L -1345.133213 471.175715 
L -1347.279486 470.507285 
L -1348.56725 469.170424 
L -1348.996505 467.387943 
L -1349.855014 464.937032 
L -1351.572033 463.15455 
L -1353.289052 462.48612 
L -1355.435325 462.0405 
L -1356.723089 460.926449 
L -1358.010853 460.035209 
L -1359.298618 457.807107 
L -1361.015636 455.579006 
L -1362.3034 454.687766 
L -1364.020419 453.350905 
L -1366.595947 452.459664 
L -1368.312966 452.236854 
L -1371.317749 450.454373 
L -1373.034768 449.117512 
L -1375.181041 446.889411 
L -1377.327315 443.992879 
L -1379.902843 442.210398 
L -1382.049116 440.205107 
L -1385.483154 436.640145 
L -1386.341663 436.194525 
L -1387.629427 435.971715 
L -1388.487937 436.417335 
L -1389.346446 437.085765 
L -1392.351229 435.303284 
L -1394.068248 433.743613 
L -1398.790049 430.624271 
L -1402.653342 427.72774 
L -1401.794832 426.168069 
L -1400.077813 424.608398 
L -1397.073031 424.162778 
L -1397.93154 423.048727 
L -1400.077813 423.494347 
L -1402.224087 424.831208 
L -1403.082596 423.048727 
L -1401.794832 420.820626 
L -1401.365578 418.815335 
L -1402.224087 418.146904 
L -1403.082596 419.260955 
L -1404.799615 419.483765 
L -1405.22887 420.820626 
L -1404.799615 421.489056 
L -1404.37036 422.603107 
L -1403.941106 424.385588 
L -1403.941106 425.499638 
L -1404.799615 426.390879 
L -1407.375143 425.276828 
L -1410.809181 426.168069 
L -1416.389492 422.157487 
L -1418.106511 420.597816 
L -1422.828312 416.810043 
L -1423.686822 414.136322 
L -1425.40384 413.022271 
L -1427.120859 412.131031 
L -1429.267133 410.79417 
L -1431.413406 409.234499 
L -1433.55968 407.674828 
L -1436.564462 407.674828 
L -1437.852227 407.452018 
L -1439.569245 409.011689 
L -1439.9985 410.57136 
L -1439.139991 413.245081 
L -1444.291047 413.467891 
L -1445.578811 411.4626 
L -1449.012849 409.902929 
L -1452.017631 410.79417 
L -1454.59316 407.897638 
L -1456.310178 405.001107 
L -1458.885707 401.213334 
L -1463.178253 397.648372 
L -1464.466018 393.19217 
L -1463.178253 390.518448 
L -1462.319744 390.741258 
L -1459.744216 392.300929 
L -1458.885707 390.295638 
L -1459.744216 387.844726 
L -1476.055894 363.558422 
L -1483.353224 353.309156 
L -1486.787262 348.630144 
L -1487.216516 345.065181 
L -1486.787262 344.173941 
L -1486.787262 342.83708 
L -1486.787262 341.500219 
L -1487.216516 340.608979 
L -1488.075026 340.163359 
L -1489.36279 341.72303 
L -1490.650554 341.94584 
L -1492.796827 340.608979 
L -1494.513846 338.380878 
L -1496.66012 333.701865 
L -1493.226082 333.701865 
L -1490.650554 334.147485 
L -1488.075026 334.370295 
L -1485.070243 333.256245 
L -1483.782479 331.028143 
L -1483.353224 324.343839 
L -1480.777696 318.773586 
L -1481.206951 315.877054 
L -1483.353224 310.306801 
L -1484.211733 307.187459 
L -1483.353224 299.389105 
L -1483.782479 296.492573 
L -1484.211733 293.596041 
L -1485.499498 290.92232 
L -1486.787262 288.471408 
L -1488.933535 285.797687 
L -1490.221299 284.460826 
L -1491.509063 283.569586 
L -1492.796827 282.455535 
L -1493.655337 280.004623 
L -1494.943101 279.113383 
L -1497.089374 277.108092 
L -1499.664902 274.65718 
L -1501.811176 271.537838 
L -1503.09894 268.641307 
L -1503.528195 267.304446 
L -1503.528195 264.407914 
L -1503.957449 263.293864 
L -1504.815959 261.957003 
L -1506.532978 259.951712 
L -1506.962232 258.614851 
L -1504.815959 257.27799 
L -1506.532978 254.158648 
L -1512.113289 248.811205 
L -1512.971798 247.028724 
L -1514.688817 241.458471 
L -1515.547326 240.56723 
L -1517.264345 239.45318 
L -1517.6936 238.784749 
L -1517.6936 238.116319 
L -1517.6936 236.333838 
L -1518.122854 235.665408 
L -1518.981364 234.105737 
L -1520.698382 230.317964 
L -1521.986147 228.758293 
L -1523.273911 227.644243 
L -1526.707948 226.307382 
L -1528.424967 225.416142 
L -1533.146769 217.840597 
L -1536.151551 214.052825 
L -1538.72708 213.830015 
L -1538.72708 215.389686 
L -1537.86857 216.949357 
L -1537.439315 218.286217 
L -1539.156334 218.954648 
L -1540.444098 218.509027 
L -1544.307391 215.835306 
L -1546.024409 215.389686 
L -1546.882919 214.721255 
L -1549.887702 211.156293 
L -1550.316956 209.819432 
L -1550.746211 209.151002 
L -1550.316956 206.25447 
L -1550.746211 205.58604 
L -1552.033975 205.14042 
L -1552.892484 204.471989 
L -1554.180249 201.129837 
L -1554.609503 198.010496 
L -1553.321739 195.113964 
L -1550.746211 192.217432 
L -1549.458447 189.543711 
L -1549.029192 185.978748 
L -1549.458447 182.190976 
L -1550.316956 179.294445 
L -1553.321739 176.175103 
L -1557.185031 174.169812 
L -1561.048324 173.055761 
L -1565.340871 172.832951 
L -1569.633418 171.27328 
L -1572.208946 167.485508 
L -1579.93553 149.660697 
L -1582.511058 144.981685 
L -1587.662115 138.07457 
L -1596.676463 116.461988 
L -1606.120066 99.528418 
L -1611.700377 92.398494 
L -1618.568453 86.15981 
L -1621.573235 82.594848 
L -1623.719509 77.024595 
L -1627.153546 70.785911 
L -1629.729075 62.541936 
L -1631.875348 62.987557 
L -1633.592367 61.650696 
L -1636.167895 56.971683 
L -1643.89448 50.287379 
L -1653.338083 38.032822 
L -1656.77212 31.348518 
L -1657.201375 30.457278 
L -1657.63063 29.120417 
L -1657.201375 28.006366 
L -1655.913611 26.001075 
L -1655.913611 24.887024 
L -1656.342866 23.327353 
L -1659.347649 19.093961 
L -1669.220506 7.285024 
L -1674.800817 3.497252 
L -1676.088582 2.160391 
L -1679.093364 -1.181761 
L -1682.527402 -6.306394 
L -1685.96144 -9.871356 
L -1690.683241 -18.338141 
L -1691.971005 -21.680293 
L -1692.40026 -24.354014 
L -1692.40026 -29.033027 
L -1692.829515 -31.483939 
L -1694.117279 -33.26642 
L -1697.980571 -37.277002 
L -1700.126844 -40.841964 
L -1703.131627 -48.863129 
L -1705.707155 -52.428091 
L -1706.565665 -53.096521 
L -1709.141193 -53.987762 
L -1709.999702 -54.656192 
L -1710.858212 -55.547433 
L -1711.287466 -57.329914 
L -1712.575231 -59.780825 
L -1713.004485 -63.568597 
L -1714.292249 -65.351078 
L -1720.301815 -72.258192 
L -1722.018834 -75.600344 
L -1723.306598 -76.714395 
L -1725.023617 -77.605636 
L -1731.033182 -82.061838 
L -1731.033182 -81.170598 
L -1731.891692 -81.170598 
L -1733.179456 -82.953079 
L -1731.462437 -84.289939 
L -1728.886909 -85.40399 
L -1726.740635 -86.740851 
L -1725.452871 -86.072421 
L -1725.882126 -86.963661 
L -1726.740635 -88.968952 
L -1727.599145 -89.191762 
L -1731.033182 -89.860193 
L -1731.891692 -90.305813 
L -1732.750201 -90.305813 
L -1732.750201 -89.414572 
L -1733.179456 -89.414572 
L -1734.037965 -90.305813 
L -1734.46722 -91.197054 
L -1735.325729 -91.865484 
L -1736.184239 -92.088294 
L -1738.330512 -92.088294 
L -1739.618276 -92.088294 
L -1740.90604 -93.647965 
L -1746.486351 -97.435737 
L -1747.774115 -96.767307 
L -1749.061879 -96.767307 
L -1750.349644 -96.767307 
L -1749.920389 -96.098876 
L -1749.491134 -95.430446 
L -1749.061879 -94.762016 
L -1750.349644 -95.430446 
L -1751.637408 -96.321687 
L -1752.925172 -96.767307 
L -1754.212936 -96.098876 
L -1755.5007 -95.430446 
L -1759.363992 -94.316395 
L -1760.222502 -93.870775 
L -1760.651756 -93.202345 
L -1761.081011 -92.088294 
L -1761.93952 -92.088294 
L -1761.93952 -92.979535 
L -1762.79803 -92.979535 
L -1764.515048 -92.533914 
L -1767.090577 -92.979535 
L -1769.23685 -92.979535 
L -1770.953869 -91.197054 
L -1771.383124 -91.865484 
L -1771.812378 -92.088294 
L -1771.812378 -92.979535 
L -1770.953869 -92.979535 
L -1770.953869 -94.093585 
L -1771.383124 -94.984826 
L -1770.953869 -95.653256 
L -1769.666105 -96.321687 
L -1768.807595 -96.544497 
L -1769.666105 -97.212927 
L -1770.953869 -97.212927 
L -1772.241633 -97.212927 
L -1773.529397 -96.544497 
L -1773.529397 -95.653256 
L -1772.670888 -95.653256 
L -1772.670888 -94.762016 
L -1773.958652 -94.316395 
L -1774.817161 -93.425155 
L -1776.104925 -91.197054 
L -1776.104925 -91.642674 
L -1776.53418 -91.865484 
L -1776.963435 -91.865484 
L -1777.392689 -92.088294 
L -1776.963435 -92.979535 
L -1776.104925 -93.647965 
L -1775.246416 -94.316395 
L -1774.387906 -94.762016 
L -1774.387906 -95.430446 
L -1774.387906 -95.876066 
L -1774.387906 -96.544497 
L -1776.104925 -96.767307 
L -1777.392689 -96.321687 
L -1778.251199 -95.653256 
L -1778.251199 -94.093585 
L -1779.109708 -94.316395 
L -1779.109708 -94.539205 
L -1779.538963 -94.316395 
L -1779.968217 -94.093585 
L -1779.968217 -94.539205 
L -1779.968217 -95.430446 
L -1779.968217 -95.653256 
L -1780.826727 -95.653256 
L -1780.826727 -94.762016 
L -1781.685236 -94.762016 
L -1782.114491 -95.876066 
L -1782.973 -96.544497 
L -1783.402255 -96.544497 
L -1784.260764 -95.653256 
L -1785.119274 -96.544497 
L -1785.548528 -96.990117 
L -1785.977783 -98.104168 
L -1786.407038 -98.549788 
L -1787.265547 -100.332269 
L -1787.694802 -99.886649 
L -1788.124057 -99.663838 
L -1788.553311 -99.218218 
L -1788.982566 -98.549788 
L -1790.699585 -99.663838 
L -1791.128839 -98.995408 
L -1791.128839 -97.658547 
L -1791.558094 -96.544497 
L -1792.416604 -96.098876 
L -1794.133622 -95.430446 
L -1794.562877 -94.762016 
L -1794.562877 -94.093585 
L -1792.416604 -92.088294 
L -1792.416604 -91.197054 
L -1792.845858 -91.197054 
L -1793.275113 -90.974243 
L -1793.704368 -90.528623 
L -1793.704368 -90.305813 
L -1794.562877 -91.197054 
L -1795.421386 -88.968952 
L -1795.421386 -87.186471 
L -1796.279896 -86.072421 
L -1798.855424 -85.84961 
L -1798.426169 -86.295231 
L -1798.426169 -86.518041 
L -1797.996915 -86.740851 
L -1798.855424 -87.632091 
L -1799.284679 -89.637383 
L -1799.713933 -91.197054 
L -1799.713933 -94.539205 
L -1800.572443 -95.430446 
z
" clip-path="url(#p4de679226c)" style="fill: #bdc3c7; stroke: #ffffff; stroke-width: 0.5"/>
    <path d="M -947.214112 1385.8113 
L -946.784857 1383.360388 
L -945.067838 1383.806009 
L -944.638583 1384.920059 
L -942.921565 1386.03411 
L -938.629018 1388.262211 
L -936.05349 1391.381553 
L -934.765725 1393.386844 
L -934.336471 1396.506186 
L -934.336471 1398.065857 
L -932.190197 1400.516768 
L -930.043924 1402.52206 
L -929.185414 1402.96768 
L -924.892867 1402.52206 
L -923.605103 1404.972971 
L -921.029575 1405.195781 
L -918.883302 1404.304541 
L -916.737028 1404.08173 
L -915.449264 1405.641401 
L -915.449264 1407.201072 
L -913.732245 1407.201072 
L -910.298208 1405.641401 
L -913.732245 1404.750161 
L -915.449264 1401.853629 
L -914.1615 1399.625528 
L -912.873736 1395.837756 
L -912.444481 1394.500895 
L -910.727463 1394.278085 
L -909.868953 1394.500895 
L -909.010444 1394.946515 
L -905.576406 1397.174616 
L -905.576406 1399.402718 
L -903.859388 1402.076439 
L -904.288642 1403.4133 
L -901.283859 1403.85892 
L -900.42535 1406.532642 
L -895.703548 1408.537933 
L -895.703548 1410.320414 
L -896.132803 1412.771326 
L -896.991312 1415.667857 
L -896.562058 1417.895959 
L -895.703548 1421.683731 
L -896.562058 1424.357452 
L -896.562058 1424.580262 
L -899.566841 1424.357452 
L -902.571623 1420.12406 
L -905.576406 1419.232819 
L -908.151934 1419.010009 
L -909.439699 1417.673148 
L -906.005661 1416.336288 
L -903.859388 1414.553807 
L -904.717897 1411.880085 
L -907.72268 1410.097604 
L -910.727463 1410.543224 
L -914.1615 1410.988845 
L -916.737028 1411.657275 
L -918.883302 1412.994136 
L -921.029575 1414.108186 
L -923.175849 1413.216946 
L -926.180632 1410.543224 
L -927.89765 1408.537933 
L -930.473179 1407.869503 
L -933.907216 1405.418591 
L -936.482744 1403.19049 
L -938.199763 1400.293958 
L -939.058272 1396.283376 
L -940.775291 1394.723705 
L -942.921565 1394.723705 
L -944.638583 1394.500895 
L -944.209329 1393.609654 
L -944.209329 1390.713123 
L -945.926347 1388.262211 
z
" clip-path="url(#p4de679226c)" style="fill: #bdc3c7; stroke: #ffffff; stroke-width: 0.5"/>
    <path d="M -937.770508 1384.028819 
L -936.482744 1382.691958 
L -933.477961 1382.469148 
L -931.331688 1381.800717 
L -929.614669 1380.463857 
L -928.75616 1378.235755 
L -927.468396 1378.235755 
L -927.039141 1378.235755 
L -926.609886 1375.562034 
L -927.468396 1372.442692 
L -929.185414 1371.774262 
L -930.473179 1370.883021 
L -932.190197 1370.883021 
L -934.765725 1370.214591 
L -936.482744 1369.991781 
L -936.482744 1369.54616 
L -935.624235 1368.43211 
L -934.765725 1367.986489 
L -934.336471 1369.10054 
L -930.473179 1369.54616 
L -927.468396 1370.660211 
L -925.322122 1373.333933 
L -925.322122 1373.779553 
L -924.463613 1377.344515 
L -924.463613 1379.795426 
L -925.322122 1382.691958 
L -924.892867 1385.142869 
L -921.029575 1386.03411 
L -919.741811 1388.930642 
L -924.463613 1389.153452 
L -926.180632 1390.935933 
L -925.322122 1393.164034 
L -922.317339 1394.278085 
L -920.600321 1395.392135 
L -918.454047 1396.506186 
L -917.595538 1399.625528 
L -917.595538 1401.185199 
L -921.45883 1398.957097 
L -925.751377 1397.620237 
L -927.468396 1397.174616 
L -929.614669 1395.614946 
L -931.331688 1393.386844 
L -934.336471 1389.153452 
L -936.911999 1385.58849 
z
" clip-path="url(#p4de679226c)" style="fill: #bdc3c7; stroke: #ffffff; stroke-width: 0.5"/>
    <path d="M -1552.033975 242.349711 
L -1552.033975 241.012851 
L -1551.175466 239.23037 
L -1549.029192 238.784749 
L -1546.882919 239.45318 
L -1540.873353 243.463762 
L -1540.444098 244.355003 
L -1539.585589 245.914674 
L -1537.86857 247.028724 
L -1536.151551 247.697155 
L -1533.576023 249.479636 
L -1529.283476 253.044598 
L -1527.995712 254.158648 
L -1528.424967 254.604269 
L -1528.854222 255.049889 
L -1528.424967 255.495509 
L -1529.283476 255.272699 
L -1531.000495 253.713028 
L -1532.717514 252.821788 
L -1534.005278 252.598977 
L -1534.434533 251.707737 
L -1534.863787 250.148066 
L -1536.151551 249.702446 
L -1537.010061 249.925256 
L -1537.86857 249.702446 
L -1539.156334 248.365585 
L -1540.444098 247.474344 
L -1540.873353 247.474344 
L -1541.302608 247.251534 
L -1542.161117 246.137484 
L -1542.161117 245.023433 
L -1543.019626 244.577813 
L -1544.736645 244.355003 
L -1545.1659 243.686572 
L -1544.736645 243.909382 
L -1544.736645 243.463762 
L -1546.024409 241.904091 
L -1547.741428 240.790041 
L -1549.887702 240.790041 
L -1550.746211 241.458471 
L -1551.175466 241.904091 
z
" clip-path="url(#p4de679226c)" style="fill: #bdc3c7; stroke: #ffffff; stroke-width: 0.5"/>
    <path d="M -1574.784474 228.981104 
L -1573.925964 226.753002 
L -1570.921182 223.63366 
L -1569.633418 222.07399 
L -1568.774908 221.405559 
L -1568.345653 222.2968 
L -1569.204163 223.63366 
L -1570.921182 226.753002 
L -1570.921182 227.867053 
L -1570.062672 228.981104 
L -1569.204163 229.649534 
L -1568.774908 229.649534 
L -1567.916399 229.872344 
L -1567.487144 230.763585 
L -1566.19938 231.432015 
L -1565.340871 231.654825 
L -1562.336088 234.774167 
L -1560.619069 236.111028 
L -1559.331305 236.111028 
L -1558.043541 235.888218 
L -1558.043541 236.333838 
L -1557.614286 237.225078 
L -1557.185031 238.339129 
L -1556.326522 238.784749 
L -1555.038758 238.561939 
L -1555.468013 238.339129 
L -1555.468013 237.893509 
L -1554.609503 237.225078 
L -1553.750994 237.447889 
L -1552.033975 238.561939 
L -1552.033975 239.45318 
L -1552.892484 240.790041 
L -1553.750994 241.458471 
L -1554.609503 241.235661 
L -1556.326522 239.8988 
L -1565.770125 235.219787 
L -1568.345653 234.551357 
L -1569.204163 236.333838 
L -1570.491927 235.665408 
L -1572.6382 233.437306 
L -1573.925964 231.654825 
z
" clip-path="url(#p4de679226c)" style="fill: #bdc3c7; stroke: #ffffff; stroke-width: 0.5"/>
    <path d="M -29.467576 8.399075 
L -26.892048 5.056923 
L -23.458011 2.606011 
L -20.023973 1.937581 
L -18.736209 2.160391 
L -17.448445 2.606011 
L -15.731426 3.720062 
L -13.585153 4.834113 
L -7.146332 6.616594 
L -1.136767 8.176265 
L -3.28304 9.067505 
L -5.429313 8.621885 
L -7.146332 7.730644 
L -8.863351 7.285024 
L -11.009624 7.730644 
L -12.726643 8.399075 
L -14.443662 9.513125 
L -15.731426 10.849986 
L -17.01919 9.958746 
L -17.448445 9.958746 
L -18.736209 9.290315 
L -19.165464 9.067505 
L -19.165464 8.176265 
L -17.448445 7.507834 
L -17.448445 6.839404 
L -17.8777 5.948163 
L -18.306954 5.502543 
L -18.736209 5.056923 
L -20.023973 4.611302 
L -21.311737 4.611302 
L -22.599501 5.279733 
L -23.887265 5.502543 
L -25.175029 6.170973 
L -26.892048 7.730644 
L -28.179812 9.735935 
L -29.038322 11.964037 
z
" clip-path="url(#p4de679226c)" style="fill: #bdc3c7; stroke: #ffffff; stroke-width: 0.5"/>
    <path d="M -1540.873353 249.479636 
L -1540.873353 248.588395 
L -1539.585589 248.811205 
L -1538.297825 249.925256 
L -1536.151551 252.598977 
L -1535.293042 253.490218 
L -1533.146769 254.604269 
L -1528.854222 256.38675 
L -1526.707948 257.05518 
L -1525.420184 257.05518 
L -1524.13242 257.72361 
L -1523.703165 258.614851 
L -1526.278693 258.837661 
L -1526.707948 260.620142 
L -1525.420184 262.179813 
L -1524.13242 261.734193 
L -1522.844656 260.174522 
L -1521.127637 258.837661 
L -1518.981364 258.837661 
L -1518.981364 259.283281 
L -1521.127637 260.620142 
L -1521.986147 261.288572 
L -1523.273911 262.848243 
L -1524.13242 265.076345 
L -1526.278693 266.413205 
L -1528.854222 264.853535 
L -1531.000495 262.179813 
L -1533.146769 260.620142 
L -1537.86857 255.272699 
L -1538.297825 255.049889 
L -1538.72708 254.381458 
L -1538.72708 253.713028 
L -1538.297825 253.935838 
L -1538.297825 253.490218 
L -1538.297825 252.821788 
L -1539.585589 251.484927 
z
" clip-path="url(#p4de679226c)" style="fill: #bdc3c7; stroke: #ffffff; stroke-width: 0.5"/>
    <path d="M -1520.698382 255.718319 
L -1520.698382 254.827079 
L -1519.839873 252.376167 
L -1518.981364 251.039307 
L -1517.264345 251.039307 
L -1515.547326 251.262117 
L -1514.259562 252.153357 
L -1512.971798 254.827079 
L -1512.542543 254.604269 
L -1512.113289 253.713028 
L -1511.684034 254.381458 
L -1510.825524 258.614851 
L -1509.53776 259.728902 
L -1509.108506 260.397332 
L -1509.53776 260.397332 
L -1509.967015 260.174522 
L -1510.825524 260.174522 
L -1510.825524 260.620142 
L -1510.39627 261.511383 
L -1511.254779 261.288572 
L -1513.830307 259.728902 
L -1514.259562 258.392041 
L -1514.259562 257.5008 
L -1515.118071 257.27799 
L -1516.83509 257.72361 
L -1517.6936 256.60956 
L -1518.122854 254.827079 
L -1519.410618 254.827079 
z
" clip-path="url(#p4de679226c)" style="fill: #bdc3c7; stroke: #ffffff; stroke-width: 0.5"/>
    <path d="M -1569.204163 213.830015 
L -1568.774908 208.259762 
L -1566.628635 203.803559 
L -1563.623852 200.907027 
L -1562.765342 200.461407 
L -1564.482361 202.021078 
L -1565.770125 204.249179 
L -1567.057889 206.47728 
L -1567.057889 208.928192 
L -1566.19938 211.379103 
L -1564.053106 213.607205 
L -1562.765342 213.830015 
L -1562.336088 214.052825 
L -1562.336088 214.944065 
L -1563.194597 216.726546 
L -1563.623852 218.286217 
L -1563.623852 219.177458 
L -1563.194597 219.845888 
L -1562.336088 220.514319 
L -1561.048324 220.291509 
L -1560.619069 220.514319 
L -1561.048324 221.628369 
L -1562.336088 222.07399 
L -1564.053106 221.851179 
L -1566.19938 220.068698 
L -1567.487144 219.177458 
L -1568.345653 217.617787 
L -1568.774908 216.503736 
z
" clip-path="url(#p4de679226c)" style="fill: #bdc3c7; stroke: #ffffff; stroke-width: 0.5"/>
    <path d="M -1526.278693 237.893509 
L -1526.278693 237.002268 
L -1526.278693 235.442597 
L -1525.420184 234.551357 
L -1524.561675 234.105737 
L -1523.273911 234.551357 
L -1522.844656 235.888218 
L -1522.844656 237.002268 
L -1522.844656 238.116319 
L -1523.703165 238.116319 
L -1524.13242 237.447889 
L -1524.561675 237.670699 
L -1524.13242 238.784749 
L -1524.13242 239.23037 
L -1524.561675 239.007559 
L -1523.703165 240.790041 
L -1522.844656 244.355003 
L -1523.273911 245.469053 
L -1524.561675 243.463762 
L -1525.420184 243.018142 
L -1525.849439 241.681281 
z
" clip-path="url(#p4de679226c)" style="fill: #bdc3c7; stroke: #ffffff; stroke-width: 0.5"/>
    <path d="M -1534.863787 241.904091 
L -1534.434533 240.12161 
L -1533.146769 238.784749 
L -1531.42975 239.007559 
L -1530.141986 240.56723 
L -1530.141986 242.126901 
L -1531.42975 243.240952 
L -1532.288259 243.686572 
L -1533.146769 243.463762 
z
" clip-path="url(#p4de679226c)" style="fill: #bdc3c7; stroke: #ffffff; stroke-width: 0.5"/>
   </g>
   <g id="PatchCollection_2">
    <defs>
     <path id="me84ab03192" d="M 125.493368 -251.741165 
L 126.781132 -257.311418 
L 126.781132 -259.98514 
L 125.493368 -261.54481 
L 128.498151 -265.778203 
L 131.073679 -266.223823 
L 132.361443 -264.441342 
L 132.790698 -261.990431 
L 133.649207 -261.09919 
L 133.649207 -258.425469 
L 137.083245 -257.979848 
L 134.936971 -263.327291 
L 134.507717 -265.555393 
L 134.507717 -268.006304 
L 134.507717 -269.343165 
L 134.936971 -270.902836 
L 135.366226 -272.685317 
L 134.507717 -274.244988 
L 133.649207 -274.913418 
L 131.073679 -275.359038 
L 129.35666 -276.027469 
L 130.644424 -277.80995 
L 132.361443 -278.25557 
L 134.078462 -278.25557 
L 135.795481 -279.146811 
L 136.224735 -280.038051 
L 136.65399 -282.043342 
L 137.5125 -282.488963 
L 137.941754 -282.043342 
L 138.800264 -280.929292 
L 139.658773 -280.706482 
L 140.517282 -279.592431 
L 140.088028 -277.36433 
L 139.229518 -273.799368 
L 139.229518 -271.125646 
L 139.658773 -270.011595 
L 140.517282 -267.560684 
L 140.946537 -266.892254 
L 141.805046 -266.223823 
L 143.092811 -266.446633 
L 143.092811 -266.892254 
L 143.092811 -267.560684 
L 143.522065 -270.680026 
L 143.95132 -273.799368 
L 144.380575 -275.136228 
L 145.668339 -276.473089 
L 146.526848 -276.027469 
L 147.385357 -275.136228 
L 149.102376 -275.136228 
L 149.960886 -276.027469 
L 151.677904 -279.815241 
L 152.536414 -281.597722 
L 149.102376 -280.260861 
L 146.097593 -279.592431 
L 143.522065 -280.706482 
L 141.805046 -284.271444 
L 141.805046 -286.053925 
L 142.663556 -292.292608 
L 142.663556 -292.961039 
L 143.95132 -293.852279 
L 144.380575 -294.52071 
L 143.95132 -295.18914 
L 143.522065 -295.85757 
L 143.522065 -296.526001 
L 143.522065 -300.536583 
L 145.239084 -300.090963 
L 145.668339 -300.982203 
L 146.097593 -302.541874 
L 146.956103 -303.210305 
L 147.814612 -302.764685 
L 148.673122 -301.650634 
L 149.102376 -300.090963 
L 149.102376 -298.531292 
L 150.819395 -299.645343 
L 152.107159 -301.427824 
L 152.107159 -303.655925 
L 151.677904 -305.884026 
L 150.819395 -304.992786 
L 149.102376 -306.775267 
L 149.102376 -309.671799 
L 152.536414 -317.247343 
L 152.965669 -319.698254 
L 153.394923 -325.714128 
L 154.253433 -325.045698 
L 154.682687 -324.600077 
L 155.111942 -323.931647 
L 155.541197 -323.931647 
L 158.54598 -331.730001 
L 160.692253 -335.294964 
L 164.126291 -336.631824 
L 165.843309 -337.077445 
L 170.994366 -339.082736 
L 171.852875 -339.751166 
L 172.711384 -341.756457 
L 175.286913 -344.652989 
L 176.145422 -346.65828 
L 178.291695 -345.76704 
L 180.867224 -346.65828 
L 185.159771 -349.332002 
L 194.603374 -344.207369 
L 196.320393 -341.979267 
L 196.749647 -339.528356 
L 196.320393 -336.186204 
L 196.320393 -333.289672 
L 197.608157 -332.175622 
L 200.183685 -331.284381 
L 200.61294 -329.05628 
L 201.042194 -326.382558 
L 201.471449 -323.931647 
L 203.188468 -322.149166 
L 204.905486 -321.926356 
L 205.763996 -321.703546 
L 210.915052 -322.149166 
L 213.919835 -321.926356 
L 216.066108 -321.035115 
L 218.212382 -319.921065 
L 220.358655 -318.361394 
L 221.64642 -316.801723 
L 222.934184 -314.796432 
L 223.792693 -312.56833 
L 225.938966 -298.085672 
L 225.938966 -296.303191 
L 225.509712 -294.74352 
L 224.651202 -294.075089 
L 223.792693 -294.52071 
L 223.363438 -296.526001 
L 222.504929 -296.971621 
L 221.217165 -296.303191 
L 220.358655 -295.18914 
L 219.929401 -293.629469 
L 220.358655 -292.292608 
L 221.217165 -291.401368 
L 222.504929 -291.401368 
L 222.934184 -292.292608 
L 223.363438 -293.183849 
L 225.509712 -290.287317 
L 223.792693 -287.167975 
L 221.64642 -286.276735 
L 221.217165 -289.618887 
L 219.500146 -289.173267 
L 215.207599 -286.945165 
L 216.924618 -286.276735 
L 219.070891 -285.162684 
L 220.358655 -283.825823 
L 221.217165 -282.488963 
L 220.78791 -279.592431 
L 219.070891 -278.47838 
L 216.924618 -277.80995 
L 215.207599 -276.918709 
L 214.34909 -277.58714 
L 213.919835 -277.80995 
L 213.919835 -270.902836 
L 213.919835 -268.897545 
L 213.919835 -268.674735 
L 213.061326 -267.560684 
L 212.202816 -266.446633 
L 211.344307 -265.109773 
L 211.773562 -263.772912 
L 216.066108 -256.197367 
L 216.924618 -254.414886 
L 216.924618 -252.409595 
L 216.495363 -246.839342 
L 216.066108 -239.932228 
L 216.495363 -237.035696 
L 216.924618 -235.476025 
L 218.641637 -234.807595 
L 225.509712 -233.693544 
L 226.368221 -232.579493 
L 227.655985 -229.905772 
L 228.08524 -227.677671 
L 228.514495 -225.226759 
L 228.514495 -214.309063 
L 227.226731 -200.717645 
L 228.08524 -199.157974 
L 226.797476 -198.043923 
L 225.080457 -190.022759 
L 223.363438 -187.571847 
L 219.500146 -182.892834 
L 218.212382 -179.773493 
L 217.353873 -179.105062 
L 216.066108 -178.882252 
L 215.207599 -178.436632 
L 214.778344 -177.099771 
L 211.773562 -165.290834 
L 211.344307 -164.622404 
L 210.915052 -163.062733 
L 209.627288 -161.948682 
L 208.768779 -159.497771 
L 207.910269 -153.927518 
L 206.622505 -151.922226 
L 201.471449 -149.025695 
L 200.61294 -148.134454 
L 200.183685 -145.015112 
L 198.466666 -143.009821 
L 196.749647 -141.45015 
L 195.891138 -139.444859 
L 194.174119 -141.45015 
L 194.603374 -143.232631 
L 195.891138 -145.460733 
L 196.320393 -148.134454 
L 195.461883 -149.471315 
L 193.31561 -149.916935 
L 189.023063 -149.471315 
L 189.023063 -151.699416 
L 188.164553 -151.699416 
L 186.876789 -150.808176 
L 185.589025 -150.362555 
L 183.442752 -150.139745 
L 181.296478 -149.248505 
L 180.437969 -147.911644 
L 180.867224 -147.020403 
L 180.867224 -146.797593 
L 172.711384 -140.3361 
L 166.701819 -138.330808 
L 159.833744 -138.107998 
L 152.536414 -139.222049 
L 146.526848 -141.89577 
L 140.946537 -148.357264 
L 132.361443 -162.839923 
L 134.507717 -163.062733 
L 137.5125 -165.959265 
L 138.371009 -169.301417 
L 137.5125 -181.778784 
L 136.224735 -185.120936 
L 131.073679 -194.701771 
L 131.073679 -196.707063 
L 132.361443 -200.494835 
L 132.361443 -202.945746 
L 132.361443 -205.396658 
L 131.502934 -206.510708 
L 128.498151 -208.293189 
L 127.639642 -212.972202 
L 127.210387 -217.651215 
L 126.351878 -220.770557 
L 127.210387 -223.221468 
L 126.781132 -225.89519 
L 126.351878 -229.014531 
L 126.351878 -231.911063 
L 127.210387 -239.040987 
L 127.210387 -241.714709 
z
" style="stroke: #ffffff; stroke-width: 0.6"/>
    </defs>
    <g clip-path="url(#p4de679226c)">
     <use xlink:href="#me84ab03192" x="0" y="510.356016" style="fill: #e74c3c; stroke: #ffffff; stroke-width: 0.6"/>
    </g>
   </g>
   <g id="text_1">
    <!-- Qatar -->
    <g style="fill: #1a252f" transform="translate(150.050963 20.116016) scale(0.17 -0.17)">
     <defs>
      <path id="DejaVuSans-Bold-34" d="M 2847 -84 
L 2753 -84 
Q 1600 -84 959 553 
Q 319 1191 319 2328 
Q 319 3463 958 4106 
Q 1597 4750 2719 4750 
Q 3853 4750 4486 4112 
Q 5119 3475 5119 2328 
Q 5119 1541 4783 972 
Q 4447 403 3816 116 
L 4756 -934 
L 3609 -934 
L 2847 -84 
z
M 2719 3878 
Q 2169 3878 1866 3472 
Q 1563 3066 1563 2328 
Q 1563 1578 1859 1179 
Q 2156 781 2719 781 
Q 3272 781 3575 1187 
Q 3878 1594 3878 2328 
Q 3878 3066 3575 3472 
Q 3272 3878 2719 3878 
z
" transform="scale(0.015625)"/>
      <path id="DejaVuSans-Bold-44" d="M 2106 1575 
Q 1756 1575 1579 1456 
Q 1403 1338 1403 1106 
Q 1403 894 1545 773 
Q 1688 653 1941 653 
Q 2256 653 2472 879 
Q 2688 1106 2688 1447 
L 2688 1575 
L 2106 1575 
z
M 3816 1997 
L 3816 0 
L 2688 0 
L 2688 519 
Q 2463 200 2181 54 
Q 1900 -91 1497 -91 
Q 953 -91 614 226 
Q 275 544 275 1050 
Q 275 1666 698 1953 
Q 1122 2241 2028 2241 
L 2688 2241 
L 2688 2328 
Q 2688 2594 2478 2717 
Q 2269 2841 1825 2841 
Q 1466 2841 1156 2769 
Q 847 2697 581 2553 
L 581 3406 
Q 941 3494 1303 3539 
Q 1666 3584 2028 3584 
Q 2975 3584 3395 3211 
Q 3816 2838 3816 1997 
z
" transform="scale(0.015625)"/>
      <path id="DejaVuSans-Bold-57" d="M 1759 4494 
L 1759 3500 
L 2913 3500 
L 2913 2700 
L 1759 2700 
L 1759 1216 
Q 1759 972 1856 886 
Q 1953 800 2241 800 
L 2816 800 
L 2816 0 
L 1856 0 
Q 1194 0 917 276 
Q 641 553 641 1216 
L 641 2700 
L 84 2700 
L 84 3500 
L 641 3500 
L 641 4494 
L 1759 4494 
z
" transform="scale(0.015625)"/>
      <path id="DejaVuSans-Bold-55" d="M 3138 2547 
Q 2991 2616 2845 2648 
Q 2700 2681 2553 2681 
Q 2122 2681 1889 2404 
Q 1656 2128 1656 1613 
L 1656 0 
L 538 0 
L 538 3500 
L 1656 3500 
L 1656 2925 
Q 1872 3269 2151 3426 
Q 2431 3584 2822 3584 
Q 2878 3584 2943 3579 
Q 3009 3575 3134 3559 
L 3138 2547 
z
" transform="scale(0.015625)"/>
     </defs>
     <use xlink:href="#DejaVuSans-Bold-34"/>
     <use xlink:href="#DejaVuSans-Bold-44" transform="translate(85.015625 0)"/>
     <use xlink:href="#DejaVuSans-Bold-57" transform="translate(152.5 0)"/>
     <use xlink:href="#DejaVuSans-Bold-44" transform="translate(200.296875 0)"/>
     <use xlink:href="#DejaVuSans-Bold-55" transform="translate(267.78125 0)"/>
    </g>
   </g>
   <g id="legend_1">
    <g id="patch_2">
     <path d="M 13.5 498.656016 
L 88.097344 498.656016 
Q 89.897344 498.656016 89.897344 496.856016 
L 89.897344 470.754609 
Q 89.897344 468.954609 88.097344 468.954609 
L 13.5 468.954609 
Q 11.7 468.954609 11.7 470.754609 
L 11.7 496.856016 
Q 11.7 498.656016 13.5 498.656016 
z
" style="fill: #ffffff; opacity: 0.85; stroke: #cccccc; stroke-linejoin: miter"/>
    </g>
    <g id="patch_3">
     <path d="M 15.3 479.393203 
L 33.3 479.393203 
L 33.3 473.093203 
L 15.3 473.093203 
z
" style="fill: #e74c3c; stroke: #888888; stroke-linejoin: miter"/>
    </g>
    <g id="text_2">
     <!-- Qatar -->
     <g transform="translate(40.5 479.393203) scale(0.09 -0.09)">
      <defs>
       <path id="DejaVuSans-34" d="M 2522 4238 
Q 1834 4238 1429 3725 
Q 1025 3213 1025 2328 
Q 1025 1447 1429 934 
Q 1834 422 2522 422 
Q 3209 422 3611 934 
Q 4013 1447 4013 2328 
Q 4013 3213 3611 3725 
Q 3209 4238 2522 4238 
z
M 3406 84 
L 4238 -825 
L 3475 -825 
L 2784 -78 
Q 2681 -84 2626 -87 
Q 2572 -91 2522 -91 
Q 1538 -91 948 567 
Q 359 1225 359 2328 
Q 359 3434 948 4092 
Q 1538 4750 2522 4750 
Q 3503 4750 4090 4092 
Q 4678 3434 4678 2328 
Q 4678 1516 4351 937 
Q 4025 359 3406 84 
z
" transform="scale(0.015625)"/>
       <path id="DejaVuSans-44" d="M 2194 1759 
Q 1497 1759 1228 1600 
Q 959 1441 959 1056 
Q 959 750 1161 570 
Q 1363 391 1709 391 
Q 2188 391 2477 730 
Q 2766 1069 2766 1631 
L 2766 1759 
L 2194 1759 
z
M 3341 1997 
L 3341 0 
L 2766 0 
L 2766 531 
Q 2569 213 2275 61 
Q 1981 -91 1556 -91 
Q 1019 -91 701 211 
Q 384 513 384 1019 
Q 384 1609 779 1909 
Q 1175 2209 1959 2209 
L 2766 2209 
L 2766 2266 
Q 2766 2663 2505 2880 
Q 2244 3097 1772 3097 
Q 1472 3097 1187 3025 
Q 903 2953 641 2809 
L 641 3341 
Q 956 3463 1253 3523 
Q 1550 3584 1831 3584 
Q 2591 3584 2966 3190 
Q 3341 2797 3341 1997 
z
" transform="scale(0.015625)"/>
       <path id="DejaVuSans-57" d="M 1172 4494 
L 1172 3500 
L 2356 3500 
L 2356 3053 
L 1172 3053 
L 1172 1153 
Q 1172 725 1289 603 
Q 1406 481 1766 481 
L 2356 481 
L 2356 0 
L 1766 0 
Q 1100 0 847 248 
Q 594 497 594 1153 
L 594 3053 
L 172 3053 
L 172 3500 
L 594 3500 
L 594 4494 
L 1172 4494 
z
" transform="scale(0.015625)"/>
       <path id="DejaVuSans-55" d="M 2631 2963 
Q 2534 3019 2420 3045 
Q 2306 3072 2169 3072 
Q 1681 3072 1420 2755 
Q 1159 2438 1159 1844 
L 1159 0 
L 581 0 
L 581 3500 
L 1159 3500 
L 1159 2956 
Q 1341 3275 1631 3429 
Q 1922 3584 2338 3584 
Q 2397 3584 2469 3576 
Q 2541 3569 2628 3553 
L 2631 2963 
z
" transform="scale(0.015625)"/>
      </defs>
      <use xlink:href="#DejaVuSans-34"/>
      <use xlink:href="#DejaVuSans-44" transform="translate(78.71875 0)"/>
      <use xlink:href="#DejaVuSans-57" transform="translate(140 0)"/>
      <use xlink:href="#DejaVuSans-44" transform="translate(179.203125 0)"/>
      <use xlink:href="#DejaVuSans-55" transform="translate(240.484375 0)"/>
     </g>
    </g>
    <g id="patch_4">
     <path d="M 15.3 492.893906 
L 33.3 492.893906 
L 33.3 486.593906 
L 15.3 486.593906 
z
" style="fill: #bdc3c7; stroke: #888888; stroke-linejoin: miter"/>
    </g>
    <g id="text_3">
     <!-- Neighbors -->
     <g transform="translate(40.5 492.893906) scale(0.09 -0.09)">
      <defs>
       <path id="DejaVuSans-31" d="M 628 4666 
L 1478 4666 
L 3547 763 
L 3547 4666 
L 4159 4666 
L 4159 0 
L 3309 0 
L 1241 3903 
L 1241 0 
L 628 0 
L 628 4666 
z
" transform="scale(0.015625)"/>
       <path id="DejaVuSans-48" d="M 3597 1894 
L 3597 1613 
L 953 1613 
Q 991 1019 1311 708 
Q 1631 397 2203 397 
Q 2534 397 2845 478 
Q 3156 559 3463 722 
L 3463 178 
Q 3153 47 2828 -22 
Q 2503 -91 2169 -91 
Q 1331 -91 842 396 
Q 353 884 353 1716 
Q 353 2575 817 3079 
Q 1281 3584 2069 3584 
Q 2775 3584 3186 3129 
Q 3597 2675 3597 1894 
z
M 3022 2063 
Q 3016 2534 2758 2815 
Q 2500 3097 2075 3097 
Q 1594 3097 1305 2825 
Q 1016 2553 972 2059 
L 3022 2063 
z
" transform="scale(0.015625)"/>
       <path id="DejaVuSans-4c" d="M 603 3500 
L 1178 3500 
L 1178 0 
L 603 0 
L 603 3500 
z
M 603 4863 
L 1178 4863 
L 1178 4134 
L 603 4134 
L 603 4863 
z
" transform="scale(0.015625)"/>
       <path id="DejaVuSans-4a" d="M 2906 1791 
Q 2906 2416 2648 2759 
Q 2391 3103 1925 3103 
Q 1463 3103 1205 2759 
Q 947 2416 947 1791 
Q 947 1169 1205 825 
Q 1463 481 1925 481 
Q 2391 481 2648 825 
Q 2906 1169 2906 1791 
z
M 3481 434 
Q 3481 -459 3084 -895 
Q 2688 -1331 1869 -1331 
Q 1566 -1331 1297 -1286 
Q 1028 -1241 775 -1147 
L 775 -588 
Q 1028 -725 1275 -790 
Q 1522 -856 1778 -856 
Q 2344 -856 2625 -561 
Q 2906 -266 2906 331 
L 2906 616 
Q 2728 306 2450 153 
Q 2172 0 1784 0 
Q 1141 0 747 490 
Q 353 981 353 1791 
Q 353 2603 747 3093 
Q 1141 3584 1784 3584 
Q 2172 3584 2450 3431 
Q 2728 3278 2906 2969 
L 2906 3500 
L 3481 3500 
L 3481 434 
z
" transform="scale(0.015625)"/>
       <path id="DejaVuSans-4b" d="M 3513 2113 
L 3513 0 
L 2938 0 
L 2938 2094 
Q 2938 2591 2744 2837 
Q 2550 3084 2163 3084 
Q 1697 3084 1428 2787 
Q 1159 2491 1159 1978 
L 1159 0 
L 581 0 
L 581 4863 
L 1159 4863 
L 1159 2956 
Q 1366 3272 1645 3428 
Q 1925 3584 2291 3584 
Q 2894 3584 3203 3211 
Q 3513 2838 3513 2113 
z
" transform="scale(0.015625)"/>
       <path id="DejaVuSans-45" d="M 3116 1747 
Q 3116 2381 2855 2742 
Q 2594 3103 2138 3103 
Q 1681 3103 1420 2742 
Q 1159 2381 1159 1747 
Q 1159 1113 1420 752 
Q 1681 391 2138 391 
Q 2594 391 2855 752 
Q 3116 1113 3116 1747 
z
M 1159 2969 
Q 1341 3281 1617 3432 
Q 1894 3584 2278 3584 
Q 2916 3584 3314 3078 
Q 3713 2572 3713 1747 
Q 3713 922 3314 415 
Q 2916 -91 2278 -91 
Q 1894 -91 1617 61 
Q 1341 213 1159 525 
L 1159 0 
L 581 0 
L 581 4863 
L 1159 4863 
L 1159 2969 
z
" transform="scale(0.015625)"/>
       <path id="DejaVuSans-52" d="M 1959 3097 
Q 1497 3097 1228 2736 
Q 959 2375 959 1747 
Q 959 1119 1226 758 
Q 1494 397 1959 397 
Q 2419 397 2687 759 
Q 2956 1122 2956 1747 
Q 2956 2369 2687 2733 
Q 2419 3097 1959 3097 
z
M 1959 3584 
Q 2709 3584 3137 3096 
Q 3566 2609 3566 1747 
Q 3566 888 3137 398 
Q 2709 -91 1959 -91 
Q 1206 -91 779 398 
Q 353 888 353 1747 
Q 353 2609 779 3096 
Q 1206 3584 1959 3584 
z
" transform="scale(0.015625)"/>
       <path id="DejaVuSans-56" d="M 2834 3397 
L 2834 2853 
Q 2591 2978 2328 3040 
Q 2066 3103 1784 3103 
Q 1356 3103 1142 2972 
Q 928 2841 928 2578 
Q 928 2378 1081 2264 
Q 1234 2150 1697 2047 
L 1894 2003 
Q 2506 1872 2764 1633 
Q 3022 1394 3022 966 
Q 3022 478 2636 193 
Q 2250 -91 1575 -91 
Q 1294 -91 989 -36 
Q 684 19 347 128 
L 347 722 
Q 666 556 975 473 
Q 1284 391 1588 391 
Q 1994 391 2212 530 
Q 2431 669 2431 922 
Q 2431 1156 2273 1281 
Q 2116 1406 1581 1522 
L 1381 1569 
Q 847 1681 609 1914 
Q 372 2147 372 2553 
Q 372 3047 722 3315 
Q 1072 3584 1716 3584 
Q 2034 3584 2315 3537 
Q 2597 3491 2834 3397 
z
" transform="scale(0.015625)"/>
      </defs>
      <use xlink:href="#DejaVuSans-31"/>
      <use xlink:href="#DejaVuSans-48" transform="translate(74.8125 0)"/>
      <use xlink:href="#DejaVuSans-4c" transform="translate(136.34375 0)"/>
      <use xlink:href="#DejaVuSans-4a" transform="translate(164.125 0)"/>
      <use xlink:href="#DejaVuSans-4b" transform="translate(227.609375 0)"/>
      <use xlink:href="#DejaVuSans-45" transform="translate(290.984375 0)"/>
      <use xlink:href="#DejaVuSans-52" transform="translate(354.46875 0)"/>
      <use xlink:href="#DejaVuSans-55" transform="translate(415.65625 0)"/>
      <use xlink:href="#DejaVuSans-56" transform="translate(456.765625 0)"/>
     </g>
    </g>
   </g>
  </g>
 </g>
 <defs>
  <clipPath id="p4de679226c">
   <rect x="7.2" y="30.116016" width="339.607863" height="473.04"/>
  </clipPath>
 </defs>
</svg>
