<?xml version="1.0" encoding="utf-8" standalone="no"?>
<!DOCTYPE svg PUBLIC "-//W3C//DTD SVG 1.1//EN"
  "http://www.w3.org/Graphics/SVG/1.1/DTD/svg11.dtd">
<svg xmlns:xlink="http://www.w3.org/1999/xlink" width="439.656932pt" height="510.357344pt" viewBox="0 0 439.656932 510.357344" xmlns="http://www.w3.org/2000/svg" version="1.1">
 <metadata>
  <rdf:RDF xmlns:dc="http://purl.org/dc/elements/1.1/" xmlns:cc="http://creativecommons.org/ns#" xmlns:rdf="http://www.w3.org/1999/02/22-rdf-syntax-ns#">
   <cc:Work>
    <dc:type rdf:resource="http://purl.org/dc/dcmitype/StillImage"/>
    <dc:date>2026-06-19T08:14:18.567607</dc:date>
    <dc:format>image/svg+xml</dc:format>
    <dc:creator>
     <cc:Agent>
      <dc:title>Matplotlib v3.11.0, https://matplotlib.org/</dc:title>
     </cc:Agent>
    </dc:creator>
   </cc:Work>
  </rdf:RDF>
 </metadata>
 <defs>
  <style type="text/css">*{stroke-linejoin: round; stroke-linecap: butt}</style>
 </defs>
 <g id="figure_1">
  <g id="patch_1">
   <path d="M 0 510.357344 
L 439.656932 510.357344 
L 439.656932 0 
L 0 0 
z
" style="fill: #d6eaf8"/>
  </g>
  <g id="axes_1">
   <g id="PatchCollection_1">
    <path d="M 66.604483 139.510111 
L 66.698456 139.108445 
L 66.79243 138.626446 
L 66.980377 138.305114 
L 67.356272 138.22478 
L 67.168324 137.823115 
L 67.074351 137.662448 
L 66.886403 137.582115 
L 66.604483 137.582115 
L 67.074351 137.260782 
L 68.389981 137.260782 
L 69.705612 136.69845 
L 70.269454 136.618117 
L 70.833295 136.778783 
L 71.679058 137.421449 
L 72.148926 137.582115 
L 72.712768 137.501782 
L 73.276609 137.180449 
L 73.840451 136.778783 
L 74.310319 136.296784 
L 74.310319 135.814785 
L 74.874161 135.814785 
L 75.531976 135.975452 
L 76.095818 136.296784 
L 75.813897 136.377118 
L 75.719923 136.537784 
L 75.62595 136.778783 
L 75.531976 137.260782 
L 80.700525 137.100116 
L 82.579998 136.457451 
L 83.613707 136.296784 
L 83.613707 136.618117 
L 82.016156 137.582115 
L 82.204103 137.903448 
L 82.016156 138.546113 
L 81.452314 138.546113 
L 82.016156 139.108445 
L 82.39205 139.429778 
L 82.861918 139.510111 
L 83.519734 139.510111 
L 83.707681 139.510111 
L 84.177549 139.269112 
L 84.365496 139.188778 
L 85.963048 139.188778 
L 87.466626 140.313443 
L 87.748547 140.393776 
L 87.84252 139.590444 
L 88.312388 139.429778 
L 88.782256 139.429778 
L 89.158151 139.188778 
L 89.064177 138.706779 
L 89.440072 138.626446 
L 90.003913 138.626446 
L 90.379808 138.546113 
L 89.90994 139.269112 
L 90.097887 139.510111 
L 90.473781 139.510111 
L 90.755702 139.510111 
L 90.755702 140.072443 
L 90.473781 140.393776 
L 89.815966 140.875775 
L 90.003913 141.277441 
L 89.90994 141.679106 
L 89.815966 142.080772 
L 89.628019 142.482438 
L 90.379808 142.402105 
L 90.94365 141.75944 
L 91.413518 140.956108 
L 91.977359 140.152776 
L 92.541201 139.831444 
L 93.386964 139.590444 
L 94.138753 139.670777 
L 94.3267 140.554442 
L 93.199016 141.679106 
L 92.729148 142.321772 
L 93.105043 142.803771 
L 93.668884 142.643104 
L 95.736304 141.197107 
L 95.64233 141.036441 
L 95.36041 140.634775 
L 95.266436 140.554442 
L 95.736304 140.313443 
L 96.394119 140.393776 
L 97.70975 140.875775 
L 98.461539 141.277441 
L 98.649486 141.51844 
L 98.649486 142.000439 
L 98.367565 142.562771 
L 98.461539 143.125103 
L 98.273592 143.526769 
L 98.461539 143.848102 
L 98.74346 143.928435 
L 99.025381 143.767769 
L 99.119354 143.446436 
L 99.213328 142.241439 
L 99.307301 141.839773 
L 99.965117 141.598773 
L 102.596378 142.161105 
L 102.408431 142.482438 
L 102.878299 142.482438 
L 103.16022 142.562771 
L 103.442141 142.803771 
L 103.442141 143.125103 
L 103.254193 143.526769 
L 103.16022 143.687436 
L 103.066246 144.089101 
L 102.596378 143.848102 
L 102.12651 143.767769 
L 101.750616 143.928435 
L 101.280747 144.410434 
L 102.032536 144.651434 
L 102.314457 144.8121 
L 102.220484 145.133433 
L 101.938563 145.213766 
L 101.280747 145.213766 
L 100.904853 145.374432 
L 101.656642 145.856431 
L 102.408431 145.776098 
L 104.005982 145.133433 
L 105.50956 144.731767 
L 105.697507 145.053099 
L 105.979428 145.535098 
L 106.261349 145.776098 
L 106.637244 145.374432 
L 106.825191 145.695765 
L 106.825191 145.856431 
L 106.825191 146.097431 
L 106.637244 146.418763 
L 106.261349 146.017097 
L 105.885455 146.017097 
L 105.039692 146.418763 
L 104.663798 146.740096 
L 102.502404 148.507425 
L 102.314457 148.587759 
L 102.12651 148.668092 
L 102.032536 148.989424 
L 102.032536 149.150091 
L 102.220484 149.471423 
L 102.220484 149.792756 
L 102.032536 150.274755 
L 102.690352 150.355088 
L 103.16022 150.274755 
L 103.630088 150.033756 
L 105.415587 148.427092 
L 106.073402 148.10576 
L 106.54327 148.668092 
L 106.825191 148.266426 
L 107.201085 148.427092 
L 107.389033 149.069758 
L 107.295059 149.792756 
L 107.107112 149.953422 
L 106.825191 149.953422 
L 106.637244 150.033756 
L 106.54327 150.435421 
L 106.54327 150.676421 
L 106.731217 150.837087 
L 106.825191 151.078087 
L 106.637244 151.560086 
L 106.919165 152.042085 
L 107.013138 152.524084 
L 106.919165 153.086416 
L 106.637244 153.568415 
L 107.670953 152.202751 
L 108.234795 151.881418 
L 108.704663 152.042085 
L 109.362479 153.407748 
L 109.832347 154.050414 
L 110.396188 154.21108 
L 110.866056 153.809414 
L 110.866056 153.166749 
L 110.584136 152.363417 
L 110.396188 151.399419 
L 110.302215 151.078087 
L 109.738373 150.274755 
L 109.550426 149.873089 
L 109.456452 149.63209 
L 109.362479 149.230424 
L 109.362479 148.668092 
L 111.054004 149.310757 
L 111.899766 149.873089 
L 111.99374 150.596088 
L 112.369634 150.515755 
L 112.651555 150.515755 
L 112.839502 150.676421 
L 112.933476 151.078087 
L 113.02745 151.640419 
L 113.02745 151.961752 
L 113.02745 152.283084 
L 112.745529 152.604417 
L 113.497318 153.247082 
L 113.497318 153.407748 
L 113.121423 153.729081 
L 112.933476 154.693079 
L 113.309371 154.934079 
L 115.470764 154.853745 
L 115.37679 155.496411 
L 115.37679 156.058743 
L 115.188843 156.621075 
L 114.718975 156.781741 
L 114.906922 157.26374 
L 115.094869 157.585073 
L 115.282816 157.745739 
L 115.658711 157.826073 
L 115.658711 158.227738 
L 115.846658 158.468738 
L 116.222553 158.629404 
L 116.504474 158.79007 
L 116.692421 158.709737 
L 117.068315 158.468738 
L 117.256262 158.549071 
L 117.632157 159.111403 
L 118.289972 159.03107 
L 118.571893 159.191736 
L 118.665867 159.593402 
L 118.75984 160.155734 
L 118.947788 160.477067 
L 119.229708 160.637733 
L 118.75984 161.119732 
L 118.195999 161.601731 
L 117.068315 163.047728 
L 117.350236 163.369061 
L 117.820104 164.092059 
L 118.102025 164.252726 
L 118.571893 164.413392 
L 120.921234 164.252726 
L 121.297128 164.011726 
L 122.048917 163.369061 
L 122.330838 163.208395 
L 122.612759 163.288728 
L 122.518785 163.85106 
L 122.048917 165.297057 
L 121.485075 166.502054 
L 121.297128 166.582387 
L 121.954943 168.751383 
L 122.048917 169.795714 
L 121.297128 169.876047 
L 121.86097 171.161378 
L 122.988653 172.125376 
L 124.304284 172.848374 
L 125.337994 173.089374 
L 125.337994 173.49104 
L 124.962099 173.571373 
L 124.586205 173.812372 
L 124.304284 174.214038 
L 124.21031 174.535371 
L 123.928389 174.696037 
L 123.458521 174.696037 
L 122.612759 174.374704 
L 122.048917 175.338702 
L 121.297128 175.660035 
L 120.451365 175.419036 
L 119.699577 175.097703 
L 118.477919 173.973039 
L 117.726131 173.571373 
L 116.880368 173.49104 
L 117.162289 173.973039 
L 117.44421 174.374704 
L 117.820104 174.615704 
L 118.195999 174.696037 
L 118.571893 174.856703 
L 119.041761 175.660035 
L 119.417656 176.061701 
L 119.699577 176.222367 
L 119.981497 176.3027 
L 120.639313 176.3027 
L 120.921234 176.463367 
L 121.391102 177.106032 
L 121.673022 177.347031 
L 121.673022 177.668364 
L 121.391102 177.668364 
L 121.109181 177.668364 
L 120.82726 177.588031 
L 120.639313 177.347031 
L 120.639313 177.588031 
L 120.733286 178.07003 
L 120.82726 178.311029 
L 120.075471 178.311029 
L 119.79355 178.150363 
L 119.511629 177.668364 
L 119.417656 178.230696 
L 119.511629 178.552029 
L 119.511629 178.953695 
L 119.229708 178.953695 
L 118.665867 178.712695 
L 118.383946 178.632362 
L 118.195999 178.793028 
L 118.008051 179.034028 
L 117.726131 179.275027 
L 116.974342 179.275027 
L 116.598447 179.194694 
L 116.316526 178.873362 
L 116.128579 178.311029 
L 116.4105 178.311029 
L 116.598447 178.230696 
L 116.880368 177.989697 
L 115.846658 177.347031 
L 114.625001 175.660035 
L 114.155133 175.419036 
L 113.497318 174.937037 
L 112.557582 173.732039 
L 112.557582 173.089374 
L 112.275661 173.169707 
L 111.899766 172.446708 
L 111.99374 171.72371 
L 111.711819 170.920378 
L 111.523872 169.95638 
L 110.584136 168.189051 
L 108.61069 165.297057 
L 108.328769 164.975724 
L 107.952874 164.895391 
L 107.57698 164.734725 
L 107.201085 164.493725 
L 107.013138 164.172393 
L 107.107112 163.61006 
L 107.483006 163.047728 
L 107.57698 162.646062 
L 107.295059 162.003397 
L 106.637244 161.360732 
L 105.979428 160.878733 
L 105.50956 160.718066 
L 104.757771 160.718066 
L 104.47585 160.878733 
L 104.005982 161.521398 
L 103.630088 161.682064 
L 103.254193 161.601731 
L 102.878299 161.360732 
L 102.502404 160.7984 
L 102.12651 160.236067 
L 101.844589 159.754068 
L 99.119354 158.468738 
L 98.931407 158.388405 
L 98.74346 158.468738 
L 98.555513 158.468738 
L 98.461539 158.227738 
L 98.461539 158.067072 
L 98.555513 157.50474 
L 98.649486 157.424407 
L 98.649486 157.183407 
L 98.74346 156.862075 
L 98.837433 156.621075 
L 98.74346 156.299742 
L 98.649486 156.219409 
L 98.555513 156.299742 
L 98.461539 156.139076 
L 98.085644 155.657077 
L 97.521803 155.335744 
L 96.957961 155.175078 
L 96.488093 155.175078 
L 96.67604 154.853745 
L 96.112198 154.532413 
L 96.300146 154.050414 
L 96.488093 153.809414 
L 96.863987 153.809414 
L 97.239882 153.889747 
L 96.582067 153.086416 
L 95.548357 153.086416 
L 93.480937 153.568415 
L 93.199016 153.407748 
L 92.165307 152.845416 
L 91.695438 152.363417 
L 91.413518 152.122418 
L 91.319544 151.881418 
L 91.319544 151.560086 
L 91.413518 151.15842 
L 91.507491 150.756754 
L 91.22557 150.596088 
L 90.849676 150.435421 
L 90.473781 150.194422 
L 90.097887 149.792756 
L 89.721993 149.471423 
L 89.534045 149.310757 
L 89.064177 149.551757 
L 88.782256 149.471423 
L 88.312388 149.150091 
L 87.748547 148.989424 
L 87.278678 148.989424 
L 86.52689 149.471423 
L 84.929338 149.712423 
L 84.45947 149.873089 
L 83.989602 150.274755 
L 83.801655 149.953422 
L 83.613707 149.792756 
L 83.331787 149.712423 
L 83.049866 149.953422 
L 82.767945 149.230424 
L 82.861918 148.909091 
L 84.835364 148.025426 
L 85.211259 148.025426 
L 84.741391 147.302428 
L 83.237813 146.659763 
L 82.861918 145.776098 
L 83.989602 145.776098 
L 85.211259 145.374432 
L 87.372652 144.089101 
L 86.714837 143.767769 
L 84.365496 143.848102 
L 83.42576 144.089101 
L 83.049866 144.008768 
L 82.486024 143.526769 
L 82.204103 143.446436 
L 79.760789 143.446436 
L 79.102974 143.607102 
L 78.915026 144.089101 
L 79.102974 144.5711 
L 79.666815 144.731767 
L 79.196947 144.972766 
L 77.129528 145.454765 
L 76.095818 145.294099 
L 75.531976 145.374432 
L 75.719923 145.213766 
L 75.813897 144.892433 
L 75.907871 144.731767 
L 75.531976 144.490767 
L 74.686214 143.446436 
L 75.62595 142.803771 
L 76.095818 142.402105 
L 76.471712 141.839773 
L 76.001844 141.679106 
L 75.156082 141.75944 
L 74.686214 141.51844 
L 76.283765 140.554442 
L 77.035554 139.911777 
L 77.505422 138.867446 
L 74.404293 138.867446 
L 72.900715 139.188778 
L 72.430847 139.028112 
L 71.960979 138.626446 
L 71.585084 138.546113 
L 70.17548 139.188778 
L 69.329717 139.269112 
L 68.671902 138.706779 
L 68.10806 138.46578 
L 67.168324 139.590444 
z
" clip-path="url(#p872634e1c5)" style="fill: #e74c3c; stroke: #ffffff; stroke-width: 0.6"/>
    <path d="M 368.729663 347.65334 
L 368.823637 347.412341 
L 369.011584 347.091008 
L 369.199531 346.609009 
L 369.293505 346.046677 
L 369.481452 345.725344 
L 369.857346 345.564678 
L 372.582581 345.564678 
L 373.428344 345.805677 
L 374.274106 346.528676 
L 373.898212 348.135339 
L 373.992186 348.537005 
L 374.36808 349.340337 
L 374.462054 349.661669 
L 374.274106 350.625667 
L 374.274106 351.107666 
L 374.180133 350.947 
L 374.086159 350.866667 
L 373.992186 350.866667 
L 372.864502 350.063335 
L 369.481452 348.938671 
z
" clip-path="url(#p872634e1c5)" style="fill: #e74c3c; stroke: #ffffff; stroke-width: 0.6"/>
    <path d="M 90.661729 159.754068 
L 90.849676 159.513069 
L 91.131597 159.432736 
L 91.413518 159.272069 
L 91.789412 159.191736 
L 92.25928 159.673735 
L 93.105043 160.718066 
L 93.105043 161.039399 
L 92.917096 161.039399 
L 92.823122 161.119732 
L 92.635175 161.280399 
L 92.541201 161.360732 
L 91.883386 161.521398 
L 91.601465 161.521398 
L 91.319544 161.360732 
L 91.319544 161.039399 
L 91.789412 161.039399 
L 90.755702 160.396734 
z
" clip-path="url(#p872634e1c5)" style="fill: #e74c3c; stroke: #ffffff; stroke-width: 0.6"/>
    <path d="M 367.320059 316.564405 
L 368.259795 315.279075 
L 368.729663 314.957742 
L 369.293505 315.198742 
L 369.387478 315.520074 
L 369.575426 316.484072 
L 369.857346 316.885738 
L 370.139267 317.126738 
L 370.609135 317.207071 
L 371.360924 317.207071 
L 370.98503 317.769403 
L 370.515162 318.010402 
L 369.575426 318.492401 
L 368.91761 318.412068 
L 368.165821 318.010402 
L 367.60198 317.367737 
z
" clip-path="url(#p872634e1c5)" style="fill: #e74c3c; stroke: #ffffff; stroke-width: 0.6"/>
    <path d="M 343.920628 395.531906 
L 344.766391 395.13024 
L 345.988048 395.13024 
L 345.988048 395.290907 
L 345.988048 395.531906 
L 345.988048 395.772906 
L 346.175995 396.254905 
L 346.175995 396.736904 
L 346.363942 397.138569 
L 346.739836 397.379569 
L 346.457916 397.459902 
L 346.175995 397.379569 
L 345.894074 397.299236 
L 345.612153 397.058236 
L 344.860364 396.65657 
L 344.202549 396.094238 
z
" clip-path="url(#p872634e1c5)" style="fill: #e74c3c; stroke: #ffffff; stroke-width: 0.6"/>
    <path d="M 349.089177 265.552846 
L 349.277124 265.070847 
L 349.746992 264.749514 
L 350.21686 264.508515 
L 350.686728 264.428182 
L 351.062623 264.508515 
L 351.626465 264.910181 
L 352.096333 265.311847 
L 352.190306 265.874179 
L 351.814412 266.275845 
L 350.310834 266.67751 
L 349.465071 266.436511 
L 349.183151 266.195511 
z
" clip-path="url(#p872634e1c5)" style="fill: #e74c3c; stroke: #ffffff; stroke-width: 0.6"/>
    <path d="M 361.587668 282.66381 
L 362.057536 282.101478 
L 362.715351 282.181811 
L 363.279193 282.824476 
L 363.749061 283.627808 
L 363.561114 283.627808 
L 363.561114 283.708141 
L 363.46714 283.788474 
L 363.373167 283.949141 
L 363.18522 283.627808 
L 362.903299 283.708141 
L 362.433431 283.386809 
z
" clip-path="url(#p872634e1c5)" style="fill: #e74c3c; stroke: #ffffff; stroke-width: 0.6"/>
    <path d="M 363.561114 376.09128 
L 364.218929 375.287949 
L 365.158666 375.046949 
L 366.004428 375.368282 
L 367.695953 376.573279 
L 367.038138 377.215945 
L 366.474296 377.697944 
L 365.816481 378.019276 
L 365.158666 378.179943 
L 364.218929 377.938943 
L 363.655088 377.135611 
z
" clip-path="url(#p872634e1c5)" style="fill: #e74c3c; stroke: #ffffff; stroke-width: 0.6"/>
    <path d="M 347.961494 396.736904 
L 348.055467 396.254905 
L 348.243414 395.933572 
L 348.525335 395.853239 
L 351.062623 395.772906 
L 351.062623 396.094238 
L 350.780702 396.495904 
L 350.686728 396.977903 
L 350.592755 397.379569 
L 348.995203 397.379569 
L 348.431362 397.218903 
z
" clip-path="url(#p872634e1c5)" style="fill: #e74c3c; stroke: #ffffff; stroke-width: 0.6"/>
    <path d="M 338.658105 246.11222 
L 339.127973 245.469555 
L 339.691815 245.228555 
L 340.255657 245.389222 
L 340.819499 245.790888 
L 340.819499 246.11222 
L 340.443604 246.35322 
L 340.06771 246.995885 
L 339.785789 247.477884 
L 339.409894 247.156551 
L 338.846053 246.35322 
z
" clip-path="url(#p872634e1c5)" style="fill: #e74c3c; stroke: #ffffff; stroke-width: 0.6"/>
    <path d="M 322.964511 266.757843 
L 322.964511 266.195511 
L 323.434379 265.713512 
L 323.998221 265.793846 
L 324.092195 266.275845 
L 323.622327 266.757843 
z
" clip-path="url(#p872634e1c5)" style="fill: #e74c3c; stroke: #ffffff; stroke-width: 0.6"/>
    <path d="M 65.194878 137.260782 
L 65.382826 136.69845 
L 65.852694 136.537784 
L 66.79243 136.618117 
L 65.75872 137.180449 
L 65.476799 137.260782 
z
" clip-path="url(#p872634e1c5)" style="fill: #e74c3c; stroke: #ffffff; stroke-width: 0.6"/>
   </g>
   <g id="text_1">
    <!-- S. Geo. and the Is. -->
    <g style="fill: #1a252f" transform="translate(131.631669 20.117344) scale(0.17 -0.17)">
     <defs>
      <path id="DejaVuSans-Bold-36" d="M 3834 4519 
L 3834 3531 
Q 3450 3703 3084 3790 
Q 2719 3878 2394 3878 
Q 1963 3878 1756 3759 
Q 1550 3641 1550 3391 
Q 1550 3203 1689 3098 
Q 1828 2994 2194 2919 
L 2706 2816 
Q 3484 2659 3812 2340 
Q 4141 2022 4141 1434 
Q 4141 663 3683 286 
Q 3225 -91 2284 -91 
Q 1841 -91 1394 -6 
Q 947 78 500 244 
L 500 1259 
Q 947 1022 1364 901 
Q 1781 781 2169 781 
Q 2563 781 2772 912 
Q 2981 1044 2981 1288 
Q 2981 1506 2839 1625 
Q 2697 1744 2272 1838 
L 1806 1941 
Q 1106 2091 782 2419 
Q 459 2747 459 3303 
Q 459 4000 909 4375 
Q 1359 4750 2203 4750 
Q 2588 4750 2994 4692 
Q 3400 4634 3834 4519 
z
" transform="scale(0.015625)"/>
      <path id="DejaVuSans-Bold-11" d="M 653 1209 
L 1778 1209 
L 1778 0 
L 653 0 
L 653 1209 
z
" transform="scale(0.015625)"/>
      <path id="DejaVuSans-Bold-3" transform="scale(0.015625)"/>
      <path id="DejaVuSans-Bold-2a" d="M 4781 347 
Q 4331 128 3847 18 
Q 3363 -91 2847 -91 
Q 1681 -91 1000 561 
Q 319 1213 319 2328 
Q 319 3456 1012 4103 
Q 1706 4750 2913 4750 
Q 3378 4750 3804 4662 
Q 4231 4575 4609 4403 
L 4609 3438 
Q 4219 3659 3833 3768 
Q 3447 3878 3059 3878 
Q 2341 3878 1952 3476 
Q 1563 3075 1563 2328 
Q 1563 1588 1938 1184 
Q 2313 781 3003 781 
Q 3191 781 3352 804 
Q 3513 828 3641 878 
L 3641 1784 
L 2906 1784 
L 2906 2591 
L 4781 2591 
L 4781 347 
z
" transform="scale(0.015625)"/>
      <path id="DejaVuSans-Bold-48" d="M 4031 1759 
L 4031 1441 
L 1416 1441 
Q 1456 1047 1700 850 
Q 1944 653 2381 653 
Q 2734 653 3104 758 
Q 3475 863 3866 1075 
L 3866 213 
Q 3469 63 3072 -14 
Q 2675 -91 2278 -91 
Q 1328 -91 801 392 
Q 275 875 275 1747 
Q 275 2603 792 3093 
Q 1309 3584 2216 3584 
Q 3041 3584 3536 3087 
Q 4031 2591 4031 1759 
z
M 2881 2131 
Q 2881 2450 2695 2645 
Q 2509 2841 2209 2841 
Q 1884 2841 1681 2658 
Q 1478 2475 1428 2131 
L 2881 2131 
z
" transform="scale(0.015625)"/>
      <path id="DejaVuSans-Bold-52" d="M 2203 2784 
Q 1831 2784 1636 2517 
Q 1441 2250 1441 1747 
Q 1441 1244 1636 976 
Q 1831 709 2203 709 
Q 2569 709 2762 976 
Q 2956 1244 2956 1747 
Q 2956 2250 2762 2517 
Q 2569 2784 2203 2784 
z
M 2203 3584 
Q 3106 3584 3614 3096 
Q 4122 2609 4122 1747 
Q 4122 884 3614 396 
Q 3106 -91 2203 -91 
Q 1297 -91 786 396 
Q 275 884 275 1747 
Q 275 2609 786 3096 
Q 1297 3584 2203 3584 
z
" transform="scale(0.015625)"/>
      <path id="DejaVuSans-Bold-44" d="M 2106 1575 
Q 1756 1575 1579 1456 
Q 1403 1338 1403 1106 
Q 1403 894 1545 773 
Q 1688 653 1941 653 
Q 2256 653 2472 879 
Q 2688 1106 2688 1447 
L 2688 1575 
L 2106 1575 
z
M 3816 1997 
L 3816 0 
L 2688 0 
L 2688 519 
Q 2463 200 2181 54 
Q 1900 -91 1497 -91 
Q 953 -91 614 226 
Q 275 544 275 1050 
Q 275 1666 698 1953 
Q 1122 2241 2028 2241 
L 2688 2241 
L 2688 2328 
Q 2688 2594 2478 2717 
Q 2269 2841 1825 2841 
Q 1466 2841 1156 2769 
Q 847 2697 581 2553 
L 581 3406 
Q 941 3494 1303 3539 
Q 1666 3584 2028 3584 
Q 2975 3584 3395 3211 
Q 3816 2838 3816 1997 
z
" transform="scale(0.015625)"/>
      <path id="DejaVuSans-Bold-51" d="M 4056 2131 
L 4056 0 
L 2931 0 
L 2931 347 
L 2931 1631 
Q 2931 2084 2911 2256 
Q 2891 2428 2841 2509 
Q 2775 2619 2662 2680 
Q 2550 2741 2406 2741 
Q 2056 2741 1856 2470 
Q 1656 2200 1656 1722 
L 1656 0 
L 538 0 
L 538 3500 
L 1656 3500 
L 1656 2988 
Q 1909 3294 2193 3439 
Q 2478 3584 2822 3584 
Q 3428 3584 3742 3212 
Q 4056 2841 4056 2131 
z
" transform="scale(0.015625)"/>
      <path id="DejaVuSans-Bold-47" d="M 2919 2988 
L 2919 4863 
L 4044 4863 
L 4044 0 
L 2919 0 
L 2919 506 
Q 2688 197 2409 53 
Q 2131 -91 1766 -91 
Q 1119 -91 703 423 
Q 288 938 288 1747 
Q 288 2556 703 3070 
Q 1119 3584 1766 3584 
Q 2128 3584 2408 3439 
Q 2688 3294 2919 2988 
z
M 2181 722 
Q 2541 722 2730 984 
Q 2919 1247 2919 1747 
Q 2919 2247 2730 2509 
Q 2541 2772 2181 2772 
Q 1825 2772 1636 2509 
Q 1447 2247 1447 1747 
Q 1447 1247 1636 984 
Q 1825 722 2181 722 
z
" transform="scale(0.015625)"/>
      <path id="DejaVuSans-Bold-57" d="M 1759 4494 
L 1759 3500 
L 2913 3500 
L 2913 2700 
L 1759 2700 
L 1759 1216 
Q 1759 972 1856 886 
Q 1953 800 2241 800 
L 2816 800 
L 2816 0 
L 1856 0 
Q 1194 0 917 276 
Q 641 553 641 1216 
L 641 2700 
L 84 2700 
L 84 3500 
L 641 3500 
L 641 4494 
L 1759 4494 
z
" transform="scale(0.015625)"/>
      <path id="DejaVuSans-Bold-4b" d="M 4056 2131 
L 4056 0 
L 2931 0 
L 2931 347 
L 2931 1625 
Q 2931 2084 2911 2256 
Q 2891 2428 2841 2509 
Q 2775 2619 2662 2680 
Q 2550 2741 2406 2741 
Q 2056 2741 1856 2470 
Q 1656 2200 1656 1722 
L 1656 0 
L 538 0 
L 538 4863 
L 1656 4863 
L 1656 2988 
Q 1909 3294 2193 3439 
Q 2478 3584 2822 3584 
Q 3428 3584 3742 3212 
Q 4056 2841 4056 2131 
z
" transform="scale(0.015625)"/>
      <path id="DejaVuSans-Bold-2c" d="M 588 4666 
L 1791 4666 
L 1791 0 
L 588 0 
L 588 4666 
z
" transform="scale(0.015625)"/>
      <path id="DejaVuSans-Bold-56" d="M 3272 3391 
L 3272 2541 
Q 2913 2691 2578 2766 
Q 2244 2841 1947 2841 
Q 1628 2841 1473 2761 
Q 1319 2681 1319 2516 
Q 1319 2381 1436 2309 
Q 1553 2238 1856 2203 
L 2053 2175 
Q 2913 2066 3209 1816 
Q 3506 1566 3506 1031 
Q 3506 472 3093 190 
Q 2681 -91 1863 -91 
Q 1516 -91 1145 -36 
Q 775 19 384 128 
L 384 978 
Q 719 816 1070 734 
Q 1422 653 1784 653 
Q 2113 653 2278 743 
Q 2444 834 2444 1013 
Q 2444 1163 2330 1236 
Q 2216 1309 1875 1350 
L 1678 1375 
Q 931 1469 631 1722 
Q 331 1975 331 2491 
Q 331 3047 712 3315 
Q 1094 3584 1881 3584 
Q 2191 3584 2531 3537 
Q 2872 3491 3272 3391 
z
" transform="scale(0.015625)"/>
     </defs>
     <use xlink:href="#DejaVuSans-Bold-36"/>
     <use xlink:href="#DejaVuSans-Bold-11" transform="translate(72.015625 0)"/>
     <use xlink:href="#DejaVuSans-Bold-3" transform="translate(110 0)"/>
     <use xlink:href="#DejaVuSans-Bold-2a" transform="translate(144.8125 0)"/>
     <use xlink:href="#DejaVuSans-Bold-48" transform="translate(226.890625 0)"/>
     <use xlink:href="#DejaVuSans-Bold-52" transform="translate(294.71875 0)"/>
     <use xlink:href="#DejaVuSans-Bold-11" transform="translate(363.421875 0)"/>
     <use xlink:href="#DejaVuSans-Bold-3" transform="translate(401.40625 0)"/>
     <use xlink:href="#DejaVuSans-Bold-44" transform="translate(436.21875 0)"/>
     <use xlink:href="#DejaVuSans-Bold-51" transform="translate(503.703125 0)"/>
     <use xlink:href="#DejaVuSans-Bold-47" transform="translate(574.890625 0)"/>
     <use xlink:href="#DejaVuSans-Bold-3" transform="translate(646.46875 0)"/>
     <use xlink:href="#DejaVuSans-Bold-57" transform="translate(681.28125 0)"/>
     <use xlink:href="#DejaVuSans-Bold-4b" transform="translate(729.078125 0)"/>
     <use xlink:href="#DejaVuSans-Bold-48" transform="translate(800.265625 0)"/>
     <use xlink:href="#DejaVuSans-Bold-3" transform="translate(868.09375 0)"/>
     <use xlink:href="#DejaVuSans-Bold-2c" transform="translate(902.90625 0)"/>
     <use xlink:href="#DejaVuSans-Bold-56" transform="translate(940.109375 0)"/>
     <use xlink:href="#DejaVuSans-Bold-11" transform="translate(999.625 0)"/>
    </g>
   </g>
   <g id="legend_1">
    <g id="patch_2">
     <path d="M 13.5 498.657344 
L 124.9425 498.657344 
Q 126.7425 498.657344 126.7425 496.857344 
L 126.7425 470.755937 
Q 126.7425 468.955937 124.9425 468.955937 
L 13.5 468.955937 
Q 11.7 468.955937 11.7 470.755937 
L 11.7 496.857344 
Q 11.7 498.657344 13.5 498.657344 
z
" style="fill: #ffffff; opacity: 0.85; stroke: #cccccc; stroke-linejoin: miter"/>
    </g>
    <g id="patch_3">
     <path d="M 15.3 479.394531 
L 33.3 479.394531 
L 33.3 473.094531 
L 15.3 473.094531 
z
" style="fill: #e74c3c; stroke: #888888; stroke-linejoin: miter"/>
    </g>
    <g id="text_2">
     <!-- S. Geo. and the Is. -->
     <g transform="translate(40.5 479.394531) scale(0.09 -0.09)">
      <defs>
       <path id="DejaVuSans-36" d="M 3425 4513 
L 3425 3897 
Q 3066 4069 2747 4153 
Q 2428 4238 2131 4238 
Q 1616 4238 1336 4038 
Q 1056 3838 1056 3469 
Q 1056 3159 1242 3001 
Q 1428 2844 1947 2747 
L 2328 2669 
Q 3034 2534 3370 2195 
Q 3706 1856 3706 1288 
Q 3706 609 3251 259 
Q 2797 -91 1919 -91 
Q 1588 -91 1214 -16 
Q 841 59 441 206 
L 441 856 
Q 825 641 1194 531 
Q 1563 422 1919 422 
Q 2459 422 2753 634 
Q 3047 847 3047 1241 
Q 3047 1584 2836 1778 
Q 2625 1972 2144 2069 
L 1759 2144 
Q 1053 2284 737 2584 
Q 422 2884 422 3419 
Q 422 4038 858 4394 
Q 1294 4750 2059 4750 
Q 2388 4750 2728 4690 
Q 3069 4631 3425 4513 
z
" transform="scale(0.015625)"/>
       <path id="DejaVuSans-11" d="M 684 794 
L 1344 794 
L 1344 0 
L 684 0 
L 684 794 
z
" transform="scale(0.015625)"/>
       <path id="DejaVuSans-3" transform="scale(0.015625)"/>
       <path id="DejaVuSans-2a" d="M 3809 666 
L 3809 1919 
L 2778 1919 
L 2778 2438 
L 4434 2438 
L 4434 434 
Q 4069 175 3628 42 
Q 3188 -91 2688 -91 
Q 1594 -91 976 548 
Q 359 1188 359 2328 
Q 359 3472 976 4111 
Q 1594 4750 2688 4750 
Q 3144 4750 3555 4637 
Q 3966 4525 4313 4306 
L 4313 3634 
Q 3963 3931 3569 4081 
Q 3175 4231 2741 4231 
Q 1884 4231 1454 3753 
Q 1025 3275 1025 2328 
Q 1025 1384 1454 906 
Q 1884 428 2741 428 
Q 3075 428 3337 486 
Q 3600 544 3809 666 
z
" transform="scale(0.015625)"/>
       <path id="DejaVuSans-48" d="M 3597 1894 
L 3597 1613 
L 953 1613 
Q 991 1019 1311 708 
Q 1631 397 2203 397 
Q 2534 397 2845 478 
Q 3156 559 3463 722 
L 3463 178 
Q 3153 47 2828 -22 
Q 2503 -91 2169 -91 
Q 1331 -91 842 396 
Q 353 884 353 1716 
Q 353 2575 817 3079 
Q 1281 3584 2069 3584 
Q 2775 3584 3186 3129 
Q 3597 2675 3597 1894 
z
M 3022 2063 
Q 3016 2534 2758 2815 
Q 2500 3097 2075 3097 
Q 1594 3097 1305 2825 
Q 1016 2553 972 2059 
L 3022 2063 
z
" transform="scale(0.015625)"/>
       <path id="DejaVuSans-52" d="M 1959 3097 
Q 1497 3097 1228 2736 
Q 959 2375 959 1747 
Q 959 1119 1226 758 
Q 1494 397 1959 397 
Q 2419 397 2687 759 
Q 2956 1122 2956 1747 
Q 2956 2369 2687 2733 
Q 2419 3097 1959 3097 
z
M 1959 3584 
Q 2709 3584 3137 3096 
Q 3566 2609 3566 1747 
Q 3566 888 3137 398 
Q 2709 -91 1959 -91 
Q 1206 -91 779 398 
Q 353 888 353 1747 
Q 353 2609 779 3096 
Q 1206 3584 1959 3584 
z
" transform="scale(0.015625)"/>
       <path id="DejaVuSans-44" d="M 2194 1759 
Q 1497 1759 1228 1600 
Q 959 1441 959 1056 
Q 959 750 1161 570 
Q 1363 391 1709 391 
Q 2188 391 2477 730 
Q 2766 1069 2766 1631 
L 2766 1759 
L 2194 1759 
z
M 3341 1997 
L 3341 0 
L 2766 0 
L 2766 531 
Q 2569 213 2275 61 
Q 1981 -91 1556 -91 
Q 1019 -91 701 211 
Q 384 513 384 1019 
Q 384 1609 779 1909 
Q 1175 2209 1959 2209 
L 2766 2209 
L 2766 2266 
Q 2766 2663 2505 2880 
Q 2244 3097 1772 3097 
Q 1472 3097 1187 3025 
Q 903 2953 641 2809 
L 641 3341 
Q 956 3463 1253 3523 
Q 1550 3584 1831 3584 
Q 2591 3584 2966 3190 
Q 3341 2797 3341 1997 
z
" transform="scale(0.015625)"/>
       <path id="DejaVuSans-51" d="M 3513 2113 
L 3513 0 
L 2938 0 
L 2938 2094 
Q 2938 2591 2744 2837 
Q 2550 3084 2163 3084 
Q 1697 3084 1428 2787 
Q 1159 2491 1159 1978 
L 1159 0 
L 581 0 
L 581 3500 
L 1159 3500 
L 1159 2956 
Q 1366 3272 1645 3428 
Q 1925 3584 2291 3584 
Q 2894 3584 3203 3211 
Q 3513 2838 3513 2113 
z
" transform="scale(0.015625)"/>
       <path id="DejaVuSans-47" d="M 2906 2969 
L 2906 4863 
L 3481 4863 
L 3481 0 
L 2906 0 
L 2906 525 
Q 2725 213 2448 61 
Q 2172 -91 1784 -91 
Q 1150 -91 751 415 
Q 353 922 353 1747 
Q 353 2572 751 3078 
Q 1150 3584 1784 3584 
Q 2172 3584 2448 3432 
Q 2725 3281 2906 2969 
z
M 947 1747 
Q 947 1113 1208 752 
Q 1469 391 1925 391 
Q 2381 391 2643 752 
Q 2906 1113 2906 1747 
Q 2906 2381 2643 2742 
Q 2381 3103 1925 3103 
Q 1469 3103 1208 2742 
Q 947 2381 947 1747 
z
" transform="scale(0.015625)"/>
       <path id="DejaVuSans-57" d="M 1172 4494 
L 1172 3500 
L 2356 3500 
L 2356 3053 
L 1172 3053 
L 1172 1153 
Q 1172 725 1289 603 
Q 1406 481 1766 481 
L 2356 481 
L 2356 0 
L 1766 0 
Q 1100 0 847 248 
Q 594 497 594 1153 
L 594 3053 
L 172 3053 
L 172 3500 
L 594 3500 
L 594 4494 
L 1172 4494 
z
" transform="scale(0.015625)"/>
       <path id="DejaVuSans-4b" d="M 3513 2113 
L 3513 0 
L 2938 0 
L 2938 2094 
Q 2938 2591 2744 2837 
Q 2550 3084 2163 3084 
Q 1697 3084 1428 2787 
Q 1159 2491 1159 1978 
L 1159 0 
L 581 0 
L 581 4863 
L 1159 4863 
L 1159 2956 
Q 1366 3272 1645 3428 
Q 1925 3584 2291 3584 
Q 2894 3584 3203 3211 
Q 3513 2838 3513 2113 
z
" transform="scale(0.015625)"/>
       <path id="DejaVuSans-2c" d="M 628 4666 
L 1259 4666 
L 1259 0 
L 628 0 
L 628 4666 
z
" transform="scale(0.015625)"/>
       <path id="DejaVuSans-56" d="M 2834 3397 
L 2834 2853 
Q 2591 2978 2328 3040 
Q 2066 3103 1784 3103 
Q 1356 3103 1142 2972 
Q 928 2841 928 2578 
Q 928 2378 1081 2264 
Q 1234 2150 1697 2047 
L 1894 2003 
Q 2506 1872 2764 1633 
Q 3022 1394 3022 966 
Q 3022 478 2636 193 
Q 2250 -91 1575 -91 
Q 1294 -91 989 -36 
Q 684 19 347 128 
L 347 722 
Q 666 556 975 473 
Q 1284 391 1588 391 
Q 1994 391 2212 530 
Q 2431 669 2431 922 
Q 2431 1156 2273 1281 
Q 2116 1406 1581 1522 
L 1381 1569 
Q 847 1681 609 1914 
Q 372 2147 372 2553 
Q 372 3047 722 3315 
Q 1072 3584 1716 3584 
Q 2034 3584 2315 3537 
Q 2597 3491 2834 3397 
z
" transform="scale(0.015625)"/>
      </defs>
      <use xlink:href="#DejaVuSans-36"/>
      <use xlink:href="#DejaVuSans-11" transform="translate(63.484375 0)"/>
      <use xlink:href="#DejaVuSans-3" transform="translate(95.265625 0)"/>
      <use xlink:href="#DejaVuSans-2a" transform="translate(127.046875 0)"/>
      <use xlink:href="#DejaVuSans-48" transform="translate(204.53125 0)"/>
      <use xlink:href="#DejaVuSans-52" transform="translate(266.0625 0)"/>
      <use xlink:href="#DejaVuSans-11" transform="translate(325.5 0)"/>
      <use xlink:href="#DejaVuSans-3" transform="translate(357.28125 0)"/>
      <use xlink:href="#DejaVuSans-44" transform="translate(389.0625 0)"/>
      <use xlink:href="#DejaVuSans-51" transform="translate(450.34375 0)"/>
      <use xlink:href="#DejaVuSans-47" transform="translate(513.71875 0)"/>
      <use xlink:href="#DejaVuSans-3" transform="translate(577.203125 0)"/>
      <use xlink:href="#DejaVuSans-57" transform="translate(608.984375 0)"/>
      <use xlink:href="#DejaVuSans-4b" transform="translate(648.1875 0)"/>
      <use xlink:href="#DejaVuSans-48" transform="translate(711.5625 0)"/>
      <use xlink:href="#DejaVuSans-3" transform="translate(773.09375 0)"/>
      <use xlink:href="#DejaVuSans-2c" transform="translate(804.875 0)"/>
      <use xlink:href="#DejaVuSans-56" transform="translate(834.375 0)"/>
      <use xlink:href="#DejaVuSans-11" transform="translate(886.46875 0)"/>
     </g>
    </g>
    <g id="patch_4">
     <path d="M 15.3 492.895234 
L 33.3 492.895234 
L 33.3 486.595234 
L 15.3 486.595234 
z
" style="fill: #bdc3c7; stroke: #888888; stroke-linejoin: miter"/>
    </g>
    <g id="text_3">
     <!-- Neighbors -->
     <g transform="translate(40.5 492.895234) scale(0.09 -0.09)">
      <defs>
       <path id="DejaVuSans-31" d="M 628 4666 
L 1478 4666 
L 3547 763 
L 3547 4666 
L 4159 4666 
L 4159 0 
L 3309 0 
L 1241 3903 
L 1241 0 
L 628 0 
L 628 4666 
z
" transform="scale(0.015625)"/>
       <path id="DejaVuSans-4c" d="M 603 3500 
L 1178 3500 
L 1178 0 
L 603 0 
L 603 3500 
z
M 603 4863 
L 1178 4863 
L 1178 4134 
L 603 4134 
L 603 4863 
z
" transform="scale(0.015625)"/>
       <path id="DejaVuSans-4a" d="M 2906 1791 
Q 2906 2416 2648 2759 
Q 2391 3103 1925 3103 
Q 1463 3103 1205 2759 
Q 947 2416 947 1791 
Q 947 1169 1205 825 
Q 1463 481 1925 481 
Q 2391 481 2648 825 
Q 2906 1169 2906 1791 
z
M 3481 434 
Q 3481 -459 3084 -895 
Q 2688 -1331 1869 -1331 
Q 1566 -1331 1297 -1286 
Q 1028 -1241 775 -1147 
L 775 -588 
Q 1028 -725 1275 -790 
Q 1522 -856 1778 -856 
Q 2344 -856 2625 -561 
Q 2906 -266 2906 331 
L 2906 616 
Q 2728 306 2450 153 
Q 2172 0 1784 0 
Q 1141 0 747 490 
Q 353 981 353 1791 
Q 353 2603 747 3093 
Q 1141 3584 1784 3584 
Q 2172 3584 2450 3431 
Q 2728 3278 2906 2969 
L 2906 3500 
L 3481 3500 
L 3481 434 
z
" transform="scale(0.015625)"/>
       <path id="DejaVuSans-45" d="M 3116 1747 
Q 3116 2381 2855 2742 
Q 2594 3103 2138 3103 
Q 1681 3103 1420 2742 
Q 1159 2381 1159 1747 
Q 1159 1113 1420 752 
Q 1681 391 2138 391 
Q 2594 391 2855 752 
Q 3116 1113 3116 1747 
z
M 1159 2969 
Q 1341 3281 1617 3432 
Q 1894 3584 2278 3584 
Q 2916 3584 3314 3078 
Q 3713 2572 3713 1747 
Q 3713 922 3314 415 
Q 2916 -91 2278 -91 
Q 1894 -91 1617 61 
Q 1341 213 1159 525 
L 1159 0 
L 581 0 
L 581 4863 
L 1159 4863 
L 1159 2969 
z
" transform="scale(0.015625)"/>
       <path id="DejaVuSans-55" d="M 2631 2963 
Q 2534 3019 2420 3045 
Q 2306 3072 2169 3072 
Q 1681 3072 1420 2755 
Q 1159 2438 1159 1844 
L 1159 0 
L 581 0 
L 581 3500 
L 1159 3500 
L 1159 2956 
Q 1341 3275 1631 3429 
Q 1922 3584 2338 3584 
Q 2397 3584 2469 3576 
Q 2541 3569 2628 3553 
L 2631 2963 
z
" transform="scale(0.015625)"/>
      </defs>
      <use xlink:href="#DejaVuSans-31"/>
      <use xlink:href="#DejaVuSans-48" transform="translate(74.8125 0)"/>
      <use xlink:href="#DejaVuSans-4c" transform="translate(136.34375 0)"/>
      <use xlink:href="#DejaVuSans-4a" transform="translate(164.125 0)"/>
      <use xlink:href="#DejaVuSans-4b" transform="translate(227.609375 0)"/>
      <use xlink:href="#DejaVuSans-45" transform="translate(290.984375 0)"/>
      <use xlink:href="#DejaVuSans-52" transform="translate(354.46875 0)"/>
      <use xlink:href="#DejaVuSans-55" transform="translate(415.65625 0)"/>
      <use xlink:href="#DejaVuSans-56" transform="translate(456.765625 0)"/>
     </g>
    </g>
   </g>
  </g>
 </g>
 <defs>
  <clipPath id="p872634e1c5">
   <rect x="7.2" y="30.117344" width="425.256932" height="473.04"/>
  </clipPath>
 </defs>
</svg>
