<?xml version="1.0" encoding="utf-8" standalone="no"?>
<!DOCTYPE svg PUBLIC "-//W3C//DTD SVG 1.1//EN"
  "http://www.w3.org/Graphics/SVG/1.1/DTD/svg11.dtd">
<svg xmlns:xlink="http://www.w3.org/1999/xlink" width="201.494942pt" height="510.357344pt" viewBox="0 0 201.494942 510.357344" xmlns="http://www.w3.org/2000/svg" version="1.1">
 <metadata>
  <rdf:RDF xmlns:dc="http://purl.org/dc/elements/1.1/" xmlns:cc="http://creativecommons.org/ns#" xmlns:rdf="http://www.w3.org/1999/02/22-rdf-syntax-ns#">
   <cc:Work>
    <dc:type rdf:resource="http://purl.org/dc/dcmitype/StillImage"/>
    <dc:date>2026-06-19T08:14:16.791028</dc:date>
    <dc:format>image/svg+xml</dc:format>
    <dc:creator>
     <cc:Agent>
      <dc:title>Matplotlib v3.11.0, https://matplotlib.org/</dc:title>
     </cc:Agent>
    </dc:creator>
   </cc:Work>
  </rdf:RDF>
 </metadata>
 <defs>
  <style type="text/css">*{stroke-linejoin: round; stroke-linecap: butt}</style>
 </defs>
 <g id="figure_1">
  <g id="patch_1">
   <path d="M 0 510.357344 
L 201.494942 510.357344 
L 201.494942 0 
L 0 0 
z
" style="fill: #d6eaf8"/>
  </g>
  <g id="axes_1">
   <g id="PatchCollection_1">
    <path d="M -1649.292499 176.720756 
L 2057.400579 176.720756 
L 2056.770435 177.349477 
L 2056.6963 177.368529 
L 2056.510964 177.387581 
L 2056.399762 177.425685 
L 2056.325627 177.501894 
L 2056.214425 177.673363 
L 2056.177358 177.768624 
L 2056.029089 177.901989 
L 2055.954954 177.997249 
L 2055.954954 178.035354 
L 2055.88082 178.09251 
L 2055.73255 178.35924 
L 2055.32481 178.987961 
L 2055.139474 179.121326 
L 2055.139474 179.349951 
L 2054.954137 179.69289 
L 2054.694666 179.997724 
L 2054.472262 180.112037 
L 2054.249858 180.188246 
L 2053.249041 180.893175 
L 2053.211974 180.969384 
L 2053.137839 181.045592 
L 2053.100772 181.217061 
L 2053.100772 181.350426 
L 2053.100772 181.521896 
L 2053.063705 181.712417 
L 2052.98957 181.864834 
L 2052.878368 181.979147 
L 2052.618897 182.150616 
L 2052.507695 182.245877 
L 2052.433561 182.322086 
L 2052.322359 182.531659 
L 2052.248224 182.569764 
L 2052.099955 182.62692 
L 2052.02582 182.684076 
L 2052.137022 182.798389 
L 2052.174089 182.988911 
L 2052.137022 183.198484 
L 2052.02582 183.369954 
L 2052.099955 183.446162 
L 2052.285291 183.331849 
L 2052.470628 183.274693 
L 2052.618897 183.293745 
L 2052.730099 183.446162 
L 2052.878368 183.331849 
L 2053.137839 183.046067 
L 2053.286109 182.988911 
L 2053.39731 182.969859 
L 2053.508512 182.912702 
L 2053.619714 182.817441 
L 2053.656782 182.722181 
L 2053.693849 182.569764 
L 2053.805051 182.512607 
L 2053.916253 182.493555 
L 2054.027455 182.455451 
L 2054.027455 182.398294 
L 2054.064522 182.245877 
L 2054.101589 182.207773 
L 2054.138656 182.188721 
L 2054.249858 182.169669 
L 2054.286926 182.131564 
L 2054.36106 182.017251 
L 2054.472262 181.731469 
L 2054.546397 181.636209 
L 2054.657599 181.579052 
L 2054.731733 181.540948 
L 2054.805868 181.502844 
L 2054.842935 181.407583 
L 2054.880002 181.312322 
L 2054.991204 181.255166 
L 2055.139474 181.217061 
L 2055.473079 180.969384 
L 2055.695483 180.797914 
L 2055.769618 180.626445 
L 2055.88082 180.550236 
L 2056.399762 180.283506 
L 2056.473896 180.207298 
L 2056.510964 180.131089 
L 2056.548031 180.073933 
L 2056.622166 180.035829 
L 2056.770435 180.035829 
L 2056.807502 180.092985 
L 2056.807502 180.188246 
L 2056.918704 180.454976 
L 2056.881637 180.550236 
L 2056.807502 180.645497 
L 2056.733368 180.721706 
L 2056.622166 181.045592 
L 2056.251493 181.750521 
L 2056.251493 181.807678 
L 2056.28856 181.941043 
L 2056.251493 181.979147 
L 2056.214425 181.998199 
L 2056.103223 181.979147 
L 2056.066156 181.979147 
L 2055.843752 182.283981 
L 2056.103223 182.303034 
L 2056.28856 182.436399 
L 2056.399762 182.645972 
L 2056.399762 182.912702 
L 2056.548031 182.89365 
L 2056.733368 182.931754 
L 2056.881637 183.046067 
L 2056.918704 183.217536 
L 2056.807502 183.293745 
L 2056.659233 183.274693 
L 2056.325627 183.141328 
L 2056.362695 183.217536 
L 2056.436829 183.389006 
L 2056.473896 183.446162 
L 2056.325627 183.408058 
L 2056.251493 183.369954 
L 2056.103223 183.484266 
L 2055.992022 183.446162 
L 2055.954954 183.293745 
L 2055.992022 183.141328 
L 2055.621349 183.122276 
L 2055.473079 183.065119 
L 2055.361877 182.912702 
L 2055.139474 182.988911 
L 2054.91707 182.969859 
L 2054.731733 182.931754 
L 2054.583464 182.912702 
L 2054.472262 182.950806 
L 2054.323993 183.103224 
L 2054.175724 183.141328 
L 2054.064522 183.141328 
L 2053.95332 183.16038 
L 2053.916253 183.236589 
L 2053.879185 183.369954 
L 2053.805051 183.255641 
L 2053.805051 183.217536 
L 2053.730916 183.217536 
L 2053.619714 183.446162 
L 2053.249041 183.712892 
L 2053.100772 183.922466 
L 2052.915436 183.750996 
L 2052.730099 183.731944 
L 2052.285291 183.846257 
L 2051.951686 183.846257 
L 2051.766349 183.903414 
L 2051.61808 183.998674 
L 2051.247407 183.865309 
L 2050.987936 183.846257 
L 2050.172455 183.922466 
L 2050.172455 183.884361 
L 2050.283657 183.808153 
L 2050.357792 183.655736 
L 2050.431926 183.503319 
L 2050.617263 183.446162 
L 2050.765532 183.369954 
L 2050.691397 183.217536 
L 2050.728465 183.065119 
L 2050.617263 182.988911 
L 2050.283657 182.912702 
L 2050.024186 182.703129 
L 2049.838849 182.588816 
L 2049.764715 182.645972 
L 2049.653513 182.645972 
L 2048.8751 182.969859 
L 2048.689763 183.103224 
L 2048.356157 183.369954 
L 2048.430292 183.560475 
L 2048.356157 183.712892 
L 2048.244956 183.846257 
L 2048.096686 183.922466 
L 2047.763081 183.827205 
L 2047.577744 184.112987 
L 2047.318273 184.913177 
L 2047.577744 184.741708 
L 2047.688946 184.722656 
L 2047.874283 184.76076 
L 2047.763081 184.894125 
L 2047.503609 185.103699 
L 2047.392408 185.218011 
L 2047.318273 185.218011 
L 2047.170004 185.160855 
L 2046.762263 185.046542 
L 2046.651062 184.951281 
L 2046.576927 184.856021 
L 2046.576927 184.779812 
L 2046.53986 184.703604 
L 2046.354523 184.665499 
L 2046.280389 184.589291 
L 2046.243321 184.49403 
L 2046.243321 184.379717 
L 2046.169187 184.379717 
L 2046.169187 184.608343 
L 2046.020917 184.513082 
L 2045.909716 184.49403 
L 2045.798514 184.532134 
L 2045.687312 184.608343 
L 2045.279571 184.989386 
L 2045.205437 185.103699 
L 2045.131302 185.541898 
L 2045.057168 185.618106 
L 2044.945966 185.656211 
L 2044.908898 185.732419 
L 2045.057168 185.846732 
L 2044.686495 186.113462 
L 2044.649427 186.151566 
L 2044.352889 186.170619 
L 2044.241687 186.151566 
L 2044.05635 186.075358 
L 2043.945149 185.941993 
L 2043.833947 185.618106 
L 2043.722745 185.256116 
L 2043.722745 184.951281 
L 2043.611543 184.741708 
L 2043.389139 184.513082 
L 2043.277937 184.265404 
L 2043.352072 183.922466 
L 2043.129668 183.827205 
L 2043.055533 183.750996 
L 2043.018466 183.617631 
L 2042.388322 183.941518 
L 2042.091783 183.998674 
L 2041.795245 183.770049 
L 2041.86938 183.731944 
L 2041.86938 183.69384 
L 2041.758178 183.579527 
L 2041.758178 183.446162 
L 2041.795245 183.389006 
L 2041.86938 183.446162 
L 2041.943514 183.446162 
L 2041.906447 183.236589 
L 2042.017649 183.046067 
L 2042.388322 182.760285 
L 2042.388322 182.988911 
L 2042.462456 182.89365 
L 2042.499524 182.760285 
L 2042.536591 182.684076 
L 2042.647793 182.760285 
L 2042.721928 182.588816 
L 2042.83313 182.322086 
L 2042.870197 182.131564 
L 2042.647793 182.264929 
L 2042.499524 182.245877 
L 2042.388322 182.112512 
L 2042.314187 181.902939 
L 2042.68486 181.750521 
L 2042.796062 181.750521 
L 2042.870197 181.807678 
L 2042.981399 181.979147 
L 2043.055533 182.055356 
L 2043.166735 182.09346 
L 2043.500341 182.131564 
L 2043.833947 182.341138 
L 2043.908081 182.36019 
L 2044.05635 182.341138 
L 2044.093418 182.283981 
L 2044.130485 182.226825 
L 2044.20462 182.131564 
L 2044.760629 181.617156 
L 2044.908898 181.540948 
L 2045.0201 181.655261 
L 2045.057168 181.979147 
L 2045.205437 181.921991 
L 2045.242504 181.845782 
L 2045.205437 181.56 
L 2045.242504 181.426635 
L 2045.539043 180.969384 
L 2045.57611 181.02654 
L 2045.613177 181.140853 
L 2045.613177 181.217061 
L 2045.687312 181.159905 
L 2045.761446 181.102749 
L 2045.761446 181.02654 
L 2045.761446 180.893175 
L 2045.835581 180.893175 
L 2045.946783 181.045592 
L 2046.057985 180.931279 
L 2046.169187 180.75981 
L 2046.280389 180.645497 
L 2046.39159 180.588341 
L 2046.354523 180.454976 
L 2046.280389 180.283506 
L 2046.243321 180.112037 
L 2046.280389 180.150141 
L 2046.428658 180.188246 
L 2046.465725 180.207298 
L 2046.502792 179.997724 
L 2046.613994 179.997724 
L 2046.688129 180.073933 
L 2046.762263 180.112037 
L 2046.910533 180.092985 
L 2047.170004 179.997724 
L 2047.651879 179.940568 
L 2048.207888 179.730994 
L 2048.504427 179.654786 
L 2048.838032 179.673838 
L 2048.949234 179.654786 
L 2048.949234 179.616681 
L 2049.023369 179.464264 
L 2049.060436 179.407108 
L 2049.134571 179.388056 
L 2049.319907 179.349951 
L 2049.394042 179.311847 
L 2049.579378 179.311847 
L 2049.875917 179.388056 
L 2050.172455 179.42616 
L 2050.357792 179.273743 
L 2050.506061 179.407108 
L 2050.580196 179.369004 
L 2050.65433 179.254691 
L 2050.802599 179.197534 
L 2050.876734 179.216586 
L 2050.950869 179.388056 
L 2051.025003 179.407108 
L 2051.099138 179.407108 
L 2051.136205 179.388056 
L 2051.173272 179.388056 
L 2051.247407 179.407108 
L 2051.247407 179.254691 
L 2051.173272 179.083221 
L 2051.099138 178.949856 
L 2050.987936 178.873648 
L 2051.099138 178.778387 
L 2051.21034 178.740283 
L 2051.321542 178.740283 
L 2051.395676 178.797439 
L 2051.469811 178.606918 
L 2051.543945 178.416397 
L 2051.655147 178.302084 
L 2051.803416 178.416397 
L 2051.877551 178.225875 
L 2051.914618 178.054406 
L 2051.951686 177.901989 
L 2052.099955 177.806728 
L 2052.470628 177.82578 
L 2052.618897 177.768624 
L 2052.470628 177.578102 
L 2052.58183 177.578102 
L 2052.693032 177.635259 
L 2052.767166 177.749572 
L 2052.804234 177.882937 
L 2052.915436 177.482842 
L 2052.952503 177.349477 
L 2052.98957 177.482842 
L 2053.100772 177.539998 
L 2053.211974 177.578102 
L 2053.323176 177.654311 
L 2053.39731 177.55905 
L 2053.471445 177.539998 
L 2053.54558 177.616207 
L 2053.582647 177.730519 
L 2053.582647 177.55905 
L 2053.619714 177.501894 
L 2053.693849 177.482842 
L 2053.767983 177.501894 
L 2053.842118 177.463789 
L 2053.842118 177.387581 
L 2053.879185 177.29232 
L 2053.879185 177.273268 
L 2053.916253 177.273268 
L 2053.990387 177.29232 
L 2054.027455 177.330424 
L 2054.064522 177.349477 
L 2054.249858 177.349477 
L 2054.323993 177.330424 
L 2054.36106 177.235164 
L 2054.435195 177.158955 
L 2054.657599 177.044642 
L 2054.991204 176.854121 
L 2055.028272 177.02559 
L 2055.065339 177.29232 
L 2055.139474 177.425685 
L 2055.250675 177.368529 
L 2055.473079 177.158955 
L 2055.621349 177.120851 
L 2055.73255 177.158955 
L 2055.769618 177.216112 
L 2055.73255 177.29232 
L 2055.621349 177.349477 
L 2055.73255 177.387581 
L 2055.88082 177.387581 
L 2055.917887 177.425685 
L 2056.029089 177.254216 
L 2056.399762 176.930329 
L 2056.473896 176.835069 
L 2057.215242 176.49213 
L 2057.400579 176.49213 
z
" clip-path="url(#p8786b34c7d)" style="fill: #bdc3c7; stroke: #ffffff; stroke-width: 0.5"/>
    <path d="M 2029.118228 196.839819 
L 2029.118228 196.744558 
L 2029.266497 196.554036 
L 2029.303564 196.439724 
L 2029.303564 196.287306 
L 2029.266497 196.211098 
L 2029.192363 196.134889 
L 2029.192363 196.020576 
L 2029.22943 195.791951 
L 2029.414766 195.69669 
L 2029.896641 195.677638 
L 2030.156112 195.563325 
L 2030.230247 195.506169 
L 2030.341449 195.391856 
L 2030.341449 195.296595 
L 2030.341449 195.201334 
L 2030.304382 195.087021 
L 2030.304382 194.705979 
L 2030.341449 194.553561 
L 2030.378516 194.534509 
L 2030.415584 194.553561 
L 2030.786257 194.667874 
L 2030.860391 194.667874 
L 2030.971593 194.553561 
L 2031.00866 194.477353 
L 2030.971593 194.401144 
L 2030.934526 194.305884 
L 2030.934526 194.191571 
L 2030.897458 193.962945 
L 2030.860391 193.848632 
L 2030.860391 193.753371 
L 2030.749189 193.696215 
L 2030.675055 193.658111 
L 2030.60092 193.581902 
L 2030.526785 193.315172 
L 2030.637987 193.200859 
L 2030.823324 193.124651 
L 2030.934526 192.915077 
L 2030.971593 192.838869 
L 2031.193997 192.781712 
L 2031.305199 192.724556 
L 2031.342266 192.591191 
L 2031.305199 192.476878 
L 2031.342266 192.362565 
L 2031.453468 192.267304 
L 2031.56467 192.400669 
L 2031.638804 192.362565 
L 2031.712939 192.2292 
L 2031.638804 192.095835 
L 2031.712939 191.943418 
L 2031.824141 191.791001 
L 2031.898276 191.752896 
L 2032.009477 191.867209 
L 2032.083612 191.867209 
L 2032.491352 191.486166 
L 2032.899093 191.219436 
L 2032.93616 191.181332 
L 2032.973227 191.16228 
L 2032.973227 191.105124 
L 2033.010295 191.047967 
L 2033.084429 191.028915 
L 2033.158564 191.028915 
L 2033.232698 191.067019 
L 2033.269766 191.086071 
L 2033.232698 191.105124 
L 2033.158564 191.200384 
L 2033.195631 191.390906 
L 2033.269766 191.600479 
L 2033.3439 191.714792 
L 2033.418035 191.657636 
L 2033.3439 191.505219 
L 2033.306833 191.371854 
L 2033.306833 191.238489 
L 2033.3439 191.105124 
L 2033.418035 191.047967 
L 2033.751641 190.838394 
L 2033.825775 190.800289 
L 2034.233516 190.952706 
L 2034.270583 190.89555 
L 2034.30765 190.762185 
L 2034.344717 190.62882 
L 2034.381785 190.571664 
L 2034.492987 190.533559 
L 2034.530054 190.476403 
L 2034.604189 190.438299 
L 2034.826592 190.400194 
L 2034.86366 190.343038 
L 2034.900727 190.285881 
L 2035.011929 190.228725 
L 2035.048996 190.209673 
L 2035.086064 190.228725 
L 2035.086064 190.381142 
L 2035.086064 190.495455 
L 2035.086064 190.609768 
L 2035.011929 190.705029 
L 2034.937794 190.800289 
L 2035.123131 190.838394 
L 2035.2714 190.762185 
L 2035.382602 190.609768 
L 2035.530871 190.495455 
L 2035.753275 190.647872 
L 2036.049813 190.666924 
L 2036.346352 190.62882 
L 2036.568756 190.571664 
L 2036.865294 190.419246 
L 2037.013563 190.323986 
L 2037.124765 190.209673 
L 2037.235967 190.114412 
L 2037.495438 190.114412 
L 2037.643707 190.019151 
L 2037.977313 190.076308 
L 2038.347986 190.000099 
L 2038.681592 189.809578 
L 2038.755726 189.485691 
L 2038.97813 189.5619 
L 2039.274669 189.714317 
L 2039.497072 189.885786 
L 2039.608274 190.057256 
L 2039.645342 190.190621 
L 2039.756543 190.419246 
L 2039.756543 190.571664 
L 2039.682409 190.685976 
L 2039.422938 190.971759 
L 2039.348803 191.105124 
L 2039.460005 191.16228 
L 2039.460005 191.257541 
L 2039.422938 191.352801 
L 2039.348803 191.409958 
L 2039.460005 191.390906 
L 2039.756543 191.028915 
L 2039.94188 190.952706 
L 2040.164284 190.971759 
L 2040.386688 191.067019 
L 2040.572024 191.200384 
L 2040.683226 191.409958 
L 2040.683226 191.505219 
L 2040.646159 191.638584 
L 2040.683226 191.714792 
L 2040.720293 191.733844 
L 2040.90563 191.905314 
L 2040.942697 191.943418 
L 2040.979764 191.981522 
L 2041.387505 192.305409 
L 2041.498707 192.305409 
L 2041.609909 192.305409 
L 2041.72111 192.343513 
L 2041.906447 192.476878 
L 2042.202985 192.876973 
L 2042.27712 192.953181 
L 2042.499524 192.991286 
L 2042.721928 193.067494 
L 2042.907264 193.219911 
L 2043.018466 193.429485 
L 2043.018466 193.696215 
L 2042.907264 193.924841 
L 2042.796062 194.09631 
L 2042.721928 194.305884 
L 2042.68486 194.420196 
L 2042.68486 194.515457 
L 2042.647793 194.610718 
L 2042.68486 194.705979 
L 2042.758995 194.782187 
L 2042.944331 194.915552 
L 2043.018466 194.972709 
L 2043.018466 195.106074 
L 2042.981399 195.220386 
L 2042.981399 195.334699 
L 2043.055533 195.42996 
L 2043.203803 195.391856 
L 2043.277937 195.42996 
L 2043.24087 195.506169 
L 2043.166735 195.582377 
L 2043.277937 195.639534 
L 2043.352072 195.715742 
L 2043.352072 195.830055 
L 2043.277937 195.982472 
L 2043.24087 195.944368 
L 2043.166735 195.906264 
L 2043.166735 195.944368 
L 2043.203803 196.134889 
L 2042.907264 196.23015 
L 2042.944331 196.534984 
L 2043.129668 196.896975 
L 2043.24087 197.049392 
L 2043.463274 197.068444 
L 2043.537408 197.125601 
L 2043.611543 197.220861 
L 2043.722745 197.354226 
L 2043.759812 197.430435 
L 2043.759812 197.468539 
L 2043.796879 197.506644 
L 2043.871014 197.525696 
L 2043.945149 197.487591 
L 2044.019283 197.411383 
L 2044.05635 197.335174 
L 2044.05635 197.278018 
L 2044.130485 197.278018 
L 2044.093418 197.373279 
L 2044.019283 197.525696 
L 2043.982216 197.601904 
L 2043.982216 197.754321 
L 2043.982216 197.868634 
L 2043.945149 198.021051 
L 2043.871014 198.173469 
L 2043.722745 198.287781 
L 2043.64861 198.36399 
L 2043.129668 198.649772 
L 2042.870197 198.916502 
L 2042.870197 198.687876 
L 2042.573658 198.802189 
L 2042.462456 198.840294 
L 2042.573658 198.649772 
L 2042.573658 198.611668 
L 2042.536591 198.497355 
L 2042.462456 198.478303 
L 2042.425389 198.478303 
L 2042.351255 198.402094 
L 2042.240053 198.402094 
L 2041.943514 198.554511 
L 2041.795245 198.611668 
L 2041.832312 198.840294 
L 2041.646976 198.973659 
L 2041.424572 199.049867 
L 2041.31337 199.030815 
L 2041.31337 198.859346 
L 2041.350437 198.802189 
L 2041.31337 198.764085 
L 2041.165101 198.592616 
L 2041.053899 198.535459 
L 2040.942697 198.516407 
L 2040.831495 198.516407 
L 2040.868563 198.573564 
L 2040.868563 198.611668 
L 2040.831495 198.706929 
L 2040.794428 198.783137 
L 2040.720293 198.821241 
L 2040.609091 198.840294 
L 2040.609091 198.802189 
L 2040.572024 198.745033 
L 2040.534957 198.706929 
L 2040.460822 198.687876 
L 2040.386688 198.687876 
L 2040.275486 198.745033 
L 2040.201351 198.764085 
L 2040.127217 198.802189 
L 2040.053082 198.878398 
L 2039.978947 198.954606 
L 2039.867745 198.992711 
L 2039.719476 199.011763 
L 2039.645342 199.030815 
L 2039.608274 199.068919 
L 2039.53414 199.145128 
L 2039.497072 199.221336 
L 2039.460005 199.373754 
L 2039.422938 199.449962 
L 2039.311736 199.507119 
L 2039.089332 199.583327 
L 2039.015197 199.640484 
L 2038.718659 200.021526 
L 2038.533323 200.173944 
L 2038.347986 200.2311 
L 2038.273851 200.2311 
L 2038.199717 200.307309 
L 2037.977313 200.078683 
L 2037.1989 200.364465 
L 2036.865294 200.307309 
L 2036.717025 200.307309 
L 2036.64289 200.288256 
L 2036.568756 200.2311 
L 2036.531688 200.288256 
L 2036.383419 200.383517 
L 2036.23515 200.402569 
L 2036.123948 200.345413 
L 2036.012746 200.326361 
L 2035.82741 200.421621 
L 2035.716208 200.459726 
L 2035.67914 200.269204 
L 2035.642073 200.212048 
L 2035.567938 200.2311 
L 2035.456737 200.288256 
L 2035.419669 200.345413 
L 2035.345535 200.383517 
L 2035.308467 200.345413 
L 2035.086064 200.154891 
L 2035.086064 200.078683 
L 2035.011929 200.021526 
L 2034.567121 199.888161 
L 2033.714573 199.640484 
L 2033.455102 199.602379 
L 2033.158564 199.526171 
L 2032.602554 199.259441 
L 2032.343083 199.297545 
L 2032.046545 199.145128 
L 2031.898276 199.126076 
L 2031.379333 199.16418 
L 2031.305199 199.145128 
L 2031.193997 199.087971 
L 2031.119862 199.030815 
L 2031.082795 198.954606 
L 2031.00866 198.916502 
L 2030.304382 198.725981 
L 2029.970776 198.573564 
L 2029.748372 198.211573 
L 2029.674237 198.287781 
L 2029.63717 198.173469 
L 2029.600103 197.944843 
L 2029.600103 197.83053 
L 2029.563036 197.754321 
L 2029.525968 197.716217 
L 2029.488901 197.620956 
L 2029.451834 197.487591 
L 2029.414766 197.411383 
L 2029.22943 197.316122 
L 2029.22943 197.239914 
L 2029.266497 197.144653 
L 2029.192363 197.049392 
L 2029.155295 196.954131 
z
" clip-path="url(#p8786b34c7d)" style="fill: #bdc3c7; stroke: #ffffff; stroke-width: 0.5"/>
    <path d="M 2036.309284 210.119162 
L 2036.605823 209.795276 
L 2036.791159 209.738119 
L 2037.013563 209.814328 
L 2037.124765 209.719067 
L 2037.161832 209.471389 
L 2037.235967 209.357076 
L 2037.347169 209.29992 
L 2037.458371 209.29992 
L 2038.051448 209.452337 
L 2038.125582 209.433285 
L 2038.199717 209.357076 
L 2038.199717 209.242764 
L 2038.236784 209.128451 
L 2038.347986 209.052242 
L 2038.496255 209.147503 
L 2038.57039 209.052242 
L 2038.607457 208.861721 
L 2038.607457 208.652147 
L 2038.755726 208.404469 
L 2039.126399 208.252052 
L 2039.53414 208.233 
L 2039.830678 208.347313 
L 2039.904813 208.023426 
L 2039.978947 207.985322 
L 2040.127217 207.96627 
L 2040.201351 207.947218 
L 2040.238418 207.890061 
L 2040.275486 207.832905 
L 2040.34962 207.813853 
L 2040.460822 207.832905 
L 2040.534957 207.871009 
L 2040.646159 207.871009 
L 2040.757361 207.813853 
L 2040.831495 207.96627 
L 2041.165101 207.985322 
L 2041.239236 208.156791 
L 2041.31337 208.156791 
L 2041.684043 208.213948 
L 2041.795245 208.271104 
L 2041.86938 208.404469 
L 2041.943514 208.614043 
L 2041.906447 208.804564 
L 2041.72111 208.918877 
L 2041.535774 209.03319 
L 2041.498707 208.956981 
L 2041.387505 208.937929 
L 2041.165101 208.899825 
L 2041.202168 208.995086 
L 2041.239236 209.071294 
L 2041.202168 209.147503 
L 2041.090966 209.204659 
L 2040.979764 209.166555 
L 2040.757361 209.147503 
L 2040.49789 209.147503 
L 2040.312553 209.204659 
L 2040.34962 209.128451 
L 2040.386688 208.976034 
L 2040.386688 208.899825 
L 2040.312553 208.937929 
L 2040.238418 208.956981 
L 2040.164284 208.937929 
L 2040.090149 208.899825 
L 2040.164284 208.842669 
L 2040.201351 208.76646 
L 2040.238418 208.728356 
L 2039.978947 208.633095 
L 2039.719476 208.747408 
L 2039.274669 209.128451 
L 2039.089332 209.166555 
L 2038.941063 209.166555 
L 2038.829861 209.204659 
L 2038.755726 209.318972 
L 2038.755726 209.547598 
L 2038.755726 209.604754 
L 2038.718659 209.433285 
L 2038.607457 209.509494 
L 2038.57039 209.642859 
L 2038.607457 209.757171 
L 2038.681592 209.814328 
L 2038.829861 209.852432 
L 2038.866928 209.947693 
L 2038.829861 210.233475 
L 2038.829861 210.309684 
L 2038.755726 210.385892 
L 2038.644524 210.443049 
L 2038.57039 210.423996 
L 2038.459188 210.36684 
L 2038.459188 210.252527 
L 2038.496255 209.966745 
L 2038.347986 210.10011 
L 2038.273851 210.119162 
L 2038.125582 210.119162 
L 2038.051448 210.233475 
L 2037.977313 210.328736 
L 2037.903178 210.404944 
L 2037.754909 210.423996 
L 2037.60664 210.404944 
L 2037.310102 210.290631 
L 2037.1989 210.271579 
L 2036.976496 210.423996 
L 2036.828227 210.443049 
L 2036.791159 210.271579 
L 2036.717025 210.271579 
L 2036.64289 210.328736 
L 2036.531688 210.290631 
L 2036.420486 210.214423 
z
" clip-path="url(#p8786b34c7d)" style="fill: #bdc3c7; stroke: #ffffff; stroke-width: 0.5"/>
    <path d="M 2028.339815 187.942468 
L 2028.339815 187.847207 
L 2028.451017 187.866259 
L 2028.488084 187.847207 
L 2028.413949 187.751946 
L 2028.413949 187.580477 
L 2028.413949 187.447112 
L 2028.488084 187.389956 
L 2028.599286 187.351851 
L 2028.636353 187.237539 
L 2028.636353 187.104174 
L 2028.67342 187.008913 
L 2028.747555 186.932704 
L 2028.969959 186.742183 
L 2029.081161 186.704079 
L 2029.081161 186.742183 
L 2029.192363 186.951756 
L 2029.266497 187.008913 
L 2029.303564 187.008913 
L 2029.340632 186.932704 
L 2029.451834 186.62787 
L 2029.525968 186.761235 
L 2029.525968 186.913652 
L 2029.488901 187.047017 
L 2029.377699 187.16133 
L 2029.303564 187.370904 
L 2029.007026 187.599529 
L 2028.969959 187.770999 
L 2028.932891 187.732894 
L 2028.895824 187.713842 
L 2028.858757 187.69479 
L 2028.82169 187.618581 
L 2028.710488 187.69479 
L 2028.636353 187.770999 
L 2028.599286 187.866259 
L 2028.599286 187.999624 
z
" clip-path="url(#p8786b34c7d)" style="fill: #bdc3c7; stroke: #ffffff; stroke-width: 0.5"/>
    <path d="M -1639.210193 187.770999 
L -1639.061924 187.847207 
L -1638.950722 187.96152 
L -1638.83952 188.075833 
L -1638.617116 188.094885 
L -1638.320578 188.247302 
L -1638.135241 188.361615 
L -1638.061107 188.514032 
L -1638.246443 188.876023 
L -1638.246443 188.952231 
L -1638.43178 189.009388 
L -1638.654184 189.199909 
L -1638.802453 189.428535 
L -1638.83952 189.638109 
L -1638.987789 189.504744 
L -1638.987789 189.29517 
L -1638.83952 189.066544 
L -1638.691251 188.952231 
L -1638.728318 188.799814 
L -1638.691251 188.723606 
L -1638.617116 188.685501 
L -1638.580049 188.628345 
L -1638.580049 188.475928 
L -1638.580049 188.418771 
L -1638.691251 188.323511 
L -1638.802453 188.266354 
L -1639.024857 188.22825 
L -1639.136058 188.171094 
L -1639.173126 188.094885 
L -1639.173126 187.866259 
z
" clip-path="url(#p8786b34c7d)" style="fill: #bdc3c7; stroke: #ffffff; stroke-width: 0.5"/>
    <path d="M 2049.505244 196.744558 
L 2049.616446 196.820766 
L 2049.69058 196.820766 
L 2049.912984 196.630245 
L 2049.950051 196.630245 
L 2050.024186 196.649297 
L 2050.172455 196.668349 
L 2050.320724 196.782662 
L 2050.580196 197.258966 
L 2050.65433 197.354226 
L 2050.802599 197.678113 
L 2050.839667 198.268729 
L 2050.728465 198.725981 
L 2050.394859 198.516407 
L 2050.320724 198.383042 
L 2050.209522 198.078208 
L 2050.172455 197.944843 
L 2049.987119 197.697165 
L 2049.912984 197.5638 
L 2049.838849 197.354226 
L 2049.801782 197.487591 
L 2049.838849 197.716217 
L 2049.801782 197.792426 
L 2049.727648 197.811478 
L 2049.69058 197.735269 
L 2049.616446 197.411383 
L 2049.653513 197.087496 
L 2049.616446 197.049392 
L 2049.542311 196.858871 
z
" clip-path="url(#p8786b34c7d)" style="fill: #bdc3c7; stroke: #ffffff; stroke-width: 0.5"/>
    <path d="M 2030.934526 184.2273 
L 2030.934526 184.151091 
L 2031.00866 183.884361 
L 2031.00866 183.770049 
L 2031.082795 183.770049 
L 2031.193997 183.903414 
L 2031.416401 183.808153 
L 2031.787074 183.369954 
L 2032.268949 182.950806 
L 2032.417218 182.703129 
L 2032.268949 182.455451 
L 2032.491352 182.455451 
L 2032.602554 182.550711 
L 2032.639622 182.703129 
L 2032.565487 182.912702 
L 2032.491352 183.027015 
L 2032.306016 183.16038 
L 2032.268949 183.255641 
L 2032.231881 183.312797 
L 2031.601737 183.865309 
L 2031.453468 184.036779 
L 2031.379333 184.2273 
L 2031.268131 184.170144 
L 2031.231064 184.151091 
L 2031.193997 184.208248 
L 2031.082795 184.265404 
L 2031.00866 184.284456 
z
" clip-path="url(#p8786b34c7d)" style="fill: #bdc3c7; stroke: #ffffff; stroke-width: 0.5"/>
    <path d="M -1649.292499 180.912227 
L -1649.292499 180.340663 
L -1649.218364 180.188246 
L -1648.921826 179.978672 
L -1648.884759 179.845307 
L -1648.773557 179.807203 
L -1648.402884 179.673838 
L -1648.254615 179.654786 
L -1648.254615 179.730994 
L -1648.328749 179.750046 
L -1648.365817 179.788151 
L -1648.365817 179.826255 
L -1648.291682 179.883411 
L -1648.291682 179.978672 
L -1648.365817 179.997724 
L -1648.402884 180.016776 
L -1648.477018 180.035829 
L -1648.551153 180.035829 
L -1648.58822 180.092985 
L -1648.662355 180.207298 
L -1648.662355 180.302559 
L -1648.551153 180.359715 
L -1648.477018 180.416871 
L -1648.625288 180.569289 
L -1648.810624 180.721706 
z
" clip-path="url(#p8786b34c7d)" style="fill: #bdc3c7; stroke: #ffffff; stroke-width: 0.5"/>
    <path d="M -1649.292499 185.694315 
L -1649.292499 183.69384 
L -1649.181297 183.503319 
L -1648.439951 182.645972 
L -1648.254615 182.531659 
L -1648.032211 182.455451 
L -1647.883942 182.493555 
L -1647.809807 182.62692 
L -1647.698605 182.950806 
L -1647.661538 183.141328 
L -1647.661538 183.255641 
L -1647.550336 183.350901 
L -1647.439134 183.42711 
L -1647.402067 183.522371 
L -1647.439134 183.617631 
L -1647.809807 183.998674 
L -1647.921009 184.189196 
L -1647.958076 184.303509 
L -1647.958076 184.551186 
L -1647.995144 184.570239 
L -1648.069278 184.570239 
L -1648.143413 184.608343 
L -1648.773557 185.02749 
L -1649.107163 185.332324 
z
" clip-path="url(#p8786b34c7d)" style="fill: #bdc3c7; stroke: #ffffff; stroke-width: 0.5"/>
    <path d="M 2055.658416 204.022476 
L 2055.843752 203.927216 
L 2056.251493 203.774799 
L 2056.659233 203.679538 
L 2056.807502 203.660486 
L 2056.881637 203.736694 
L 2056.918704 203.793851 
L 2056.844569 203.927216 
L 2056.585098 203.984372 
L 2056.473896 204.098685 
L 2056.28856 204.251102 
L 2056.362695 204.346363 
L 2056.510964 204.270154 
L 2056.548031 204.270154 
L 2056.585098 204.403519 
L 2056.399762 204.574989 
L 2056.362695 204.803614 
L 2056.177358 204.860771 
L 2056.103223 204.670249 
L 2056.066156 204.479728 
L 2055.954954 204.384467 
L 2055.88082 204.270154 
L 2055.695483 204.155841 
z
" clip-path="url(#p8786b34c7d)" style="fill: #bdc3c7; stroke: #ffffff; stroke-width: 0.5"/>
    <path d="M -1649.292499 185.675263 
L 2057.400579 183.674788 
L 2057.400579 183.69384 
L 2057.178175 184.151091 
L 2057.104041 184.341613 
L 2057.066973 184.49403 
L 2056.6963 185.065594 
L 2056.436829 185.275168 
L 2056.325627 185.408533 
L 2056.251493 185.580002 
L 2056.325627 185.732419 
L 2056.510964 185.903889 
L 2056.548031 186.075358 
L 2056.659233 186.113462 
L 2056.807502 186.113462 
L 2056.918704 186.075358 
L 2057.066973 186.018201 
L 2057.215242 185.922941 
L 2057.326444 185.808628 
L 2057.400579 185.694315 
z
" clip-path="url(#p8786b34c7d)" style="fill: #bdc3c7; stroke: #ffffff; stroke-width: 0.5"/>
    <path d="M 2054.731733 210.766935 
L 2054.731733 210.652622 
L 2054.805868 210.614518 
L 2054.805868 210.595466 
L 2054.842935 210.500205 
L 2054.91707 210.538309 
L 2055.028272 210.557361 
L 2055.065339 210.576414 
L 2055.028272 210.404944 
L 2054.91707 210.233475 
L 2054.880002 210.10011 
L 2055.102406 210.042954 
L 2055.213608 210.138214 
L 2055.287743 210.328736 
L 2055.32481 210.557361 
L 2055.361877 210.747883 
L 2055.065339 210.824091 
L 2054.91707 210.824091 
L 2054.768801 210.805039 
z
" clip-path="url(#p8786b34c7d)" style="fill: #bdc3c7; stroke: #ffffff; stroke-width: 0.5"/>
    <path d="M 2050.913801 189.333274 
L 2050.950869 189.180857 
L 2050.913801 189.02844 
L 2050.987936 188.914127 
L 2051.432743 188.837919 
L 2051.506878 188.818866 
L 2051.61808 188.818866 
L 2051.729282 188.914127 
L 2051.729282 188.971284 
L 2051.766349 189.371379 
L 2051.729282 189.657161 
L 2051.655147 189.923891 
L 2051.543945 190.133464 
L 2051.395676 190.323986 
L 2051.136205 190.571664 
L 2051.06207 190.495455 
L 2051.06207 189.82863 
L 2051.025003 189.657161 
L 2050.987936 189.485691 
z
" clip-path="url(#p8786b34c7d)" style="fill: #bdc3c7; stroke: #ffffff; stroke-width: 0.5"/>
    <path d="M 2044.427023 193.696215 
L 2044.538225 193.353276 
L 2044.797696 193.181807 
L 2044.871831 193.124651 
L 2045.0201 193.067494 
L 2045.205437 193.181807 
L 2045.316639 193.448537 
L 2045.353706 193.600954 
L 2045.390773 193.753371 
L 2045.427841 193.905789 
L 2045.390773 194.077258 
L 2045.353706 194.210623 
L 2045.279571 194.324936 
L 2045.0201 194.401144 
L 2044.908898 194.439249 
L 2044.723562 194.515457 
L 2044.61236 194.324936 
L 2044.575293 194.134414 
z
" clip-path="url(#p8786b34c7d)" style="fill: #bdc3c7; stroke: #ffffff; stroke-width: 0.5"/>
    <path d="M 2051.136205 195.048917 
L 2051.173272 194.8965 
L 2051.358609 194.991761 
L 2051.543945 195.048917 
L 2051.543945 195.106074 
L 2051.543945 195.144178 
L 2051.469811 195.201334 
L 2051.506878 195.277543 
L 2051.543945 195.372804 
L 2051.543945 195.487116 
L 2051.543945 195.582377 
L 2051.469811 195.69669 
L 2051.395676 195.639534 
L 2051.321542 195.42996 
L 2051.247407 195.334699 
L 2051.173272 195.201334 
z
" clip-path="url(#p8786b34c7d)" style="fill: #bdc3c7; stroke: #ffffff; stroke-width: 0.5"/>
    <path d="M 2041.684043 207.604279 
L 2041.684043 207.470914 
L 2041.795245 207.318497 
L 2041.795245 207.223236 
L 2041.906447 207.108924 
L 2042.128851 207.051767 
L 2042.27712 207.089871 
L 2042.240053 207.261341 
L 2042.314187 207.356601 
L 2042.351255 207.451862 
L 2042.351255 207.528071 
L 2042.314187 207.642384 
L 2042.165918 207.604279 
L 2042.091783 207.718592 
L 2042.054716 207.832905 
L 2041.943514 207.813853 
z
" clip-path="url(#p8786b34c7d)" style="fill: #bdc3c7; stroke: #ffffff; stroke-width: 0.5"/>
    <path d="M 2037.940246 201.926741 
L 2038.01438 201.907689 
L 2038.051448 201.888636 
L 2038.051448 201.850532 
L 2038.01438 201.774324 
L 2038.051448 201.717167 
L 2038.051448 201.679063 
L 2038.051448 201.621906 
L 2038.051448 201.545698 
L 2038.125582 201.336124 
L 2038.236784 201.317072 
L 2038.347986 201.412333 
L 2038.422121 201.621906 
L 2038.385053 201.869584 
L 2038.273851 202.022001 
L 2038.125582 202.060106 
z
" clip-path="url(#p8786b34c7d)" style="fill: #bdc3c7; stroke: #ffffff; stroke-width: 0.5"/>
    <path d="M 2030.341449 184.989386 
L 2030.415584 184.894125 
L 2030.675055 184.76076 
L 2030.60092 184.589291 
L 2030.712122 184.532134 
L 2030.934526 184.551186 
L 2031.082795 184.608343 
L 2030.749189 184.875073 
L 2030.675055 184.989386 
L 2030.786257 185.065594 
L 2030.749189 185.160855 
L 2030.712122 185.237064 
L 2030.675055 185.313272 
L 2030.563853 185.389481 
L 2030.563853 185.313272 
L 2030.489718 185.218011 
z
" clip-path="url(#p8786b34c7d)" style="fill: #bdc3c7; stroke: #ffffff; stroke-width: 0.5"/>
    <path d="M 2027.487267 188.952231 
L 2027.487267 188.856971 
L 2027.746738 188.971284 
L 2027.895007 188.971284 
L 2028.043276 188.856971 
L 2028.191545 189.085596 
L 2028.117411 189.104649 
L 2028.080344 189.142753 
L 2028.080344 189.199909 
L 2027.932074 189.428535 
L 2027.783805 189.5619 
L 2027.672603 189.600004 
L 2027.561401 189.485691 
L 2027.524334 189.29517 
L 2027.598469 189.142753 
L 2027.598469 189.02844 
z
" clip-path="url(#p8786b34c7d)" style="fill: #bdc3c7; stroke: #ffffff; stroke-width: 0.5"/>
    <path d="M 2026.560584 135.206137 
L 2026.708853 135.244241 
L 2026.857123 135.225189 
L 2027.116594 135.034667 
L 2027.30193 135.110876 
L 2027.672603 135.110876 
L 2027.783805 135.168032 
L 2027.85794 135.339502 
L 2027.672603 135.453814 
L 2027.450199 135.510971 
L 2027.264863 135.510971 
L 2027.116594 135.453814 
L 2026.968324 135.41571 
L 2026.782988 135.396658 
L 2026.634719 135.434762 
L 2026.597651 135.263293 
z
" clip-path="url(#p8786b34c7d)" style="fill: #bdc3c7; stroke: #ffffff; stroke-width: 0.5"/>
    <path d="M 2032.899093 203.317547 
L 2032.899093 203.146078 
L 2032.899093 203.069869 
L 2033.047362 202.860296 
L 2033.084429 202.8984 
L 2033.121497 202.917452 
L 2033.158564 202.917452 
L 2033.195631 202.936504 
L 2033.232698 203.069869 
L 2033.269766 203.203234 
L 2033.269766 203.469964 
L 2033.3439 204.022476 
L 2033.195631 203.908164 
L 2033.047362 203.717642 
L 2032.973227 203.508069 
z
" clip-path="url(#p8786b34c7d)" style="fill: #bdc3c7; stroke: #ffffff; stroke-width: 0.5"/>
    <path d="M -1634.873319 210.328736 
L -1634.836252 210.119162 
L -1634.687982 209.909589 
L -1634.391444 209.890536 
L -1634.465579 210.004849 
L -1634.539713 210.023901 
L -1634.613848 210.023901 
L -1634.762117 210.042954 
L -1634.687982 210.214423 
L -1634.539713 210.36684 
L -1634.354377 210.462101 
L -1634.206107 210.423996 
L -1634.243175 210.652622 
L -1634.428511 210.63357 
L -1634.799184 210.423996 
z
" clip-path="url(#p8786b34c7d)" style="fill: #bdc3c7; stroke: #ffffff; stroke-width: 0.5"/>
    <path d="M 2056.214425 182.207773 
L 2056.362695 182.150616 
L 2056.436829 182.131564 
L 2056.473896 182.09346 
L 2056.473896 181.941043 
L 2056.510964 181.902939 
L 2056.622166 181.902939 
L 2056.733368 181.864834 
L 2056.844569 181.788626 
L 2056.918704 181.674313 
L 2056.918704 181.902939 
L 2056.844569 182.074408 
L 2056.733368 182.188721 
L 2056.548031 182.207773 
z
" clip-path="url(#p8786b34c7d)" style="fill: #bdc3c7; stroke: #ffffff; stroke-width: 0.5"/>
    <path d="M 2044.167552 194.115362 
L 2044.278754 194.267779 
L 2044.464091 194.553561 
L 2044.649427 194.686926 
L 2044.834764 194.744083 
L 2044.797696 194.820291 
L 2044.797696 194.858396 
L 2044.760629 194.8965 
L 2044.686495 194.820291 
L 2044.61236 194.858396 
L 2044.575293 194.858396 
L 2044.501158 194.782187 
L 2044.389956 194.763135 
L 2044.20462 194.324936 
z
" clip-path="url(#p8786b34c7d)" style="fill: #bdc3c7; stroke: #ffffff; stroke-width: 0.5"/>
    <path d="M -1637.393895 199.831005 
L -1637.208559 199.507119 
L -1636.837886 199.316597 
L -1636.578415 199.526171 
L -1636.430145 199.678588 
L -1636.393078 199.869109 
L -1636.430145 200.059631 
L -1636.541347 200.154891 
L -1636.91202 200.154891 
L -1637.023222 200.135839 
L -1637.097357 200.078683 
L -1637.134424 200.021526 
L -1637.208559 200.002474 
z
" clip-path="url(#p8786b34c7d)" style="fill: #bdc3c7; stroke: #ffffff; stroke-width: 0.5"/>
    <path d="M 2047.095869 192.953181 
L 2047.095869 192.838869 
L 2047.170004 192.781712 
L 2047.318273 192.876973 
L 2047.35534 192.991286 
L 2047.503609 193.334224 
L 2047.540677 193.505694 
L 2047.429475 193.505694 
L 2047.392408 193.372329 
L 2047.35534 193.258016 
L 2047.281206 193.181807 
L 2047.170004 193.105599 
z
" clip-path="url(#p8786b34c7d)" style="fill: #bdc3c7; stroke: #ffffff; stroke-width: 0.5"/>
    <path d="M 2042.573658 181.445687 
L 2042.870197 181.274218 
L 2042.944331 181.331374 
L 2043.055533 181.350426 
L 2043.129668 181.331374 
L 2043.203803 181.274218 
L 2043.129668 181.388531 
L 2043.055533 181.483791 
L 2042.907264 181.540948 
L 2042.721928 181.521896 
L 2042.647793 181.502844 
L 2042.610726 181.483791 
z
" clip-path="url(#p8786b34c7d)" style="fill: #bdc3c7; stroke: #ffffff; stroke-width: 0.5"/>
    <path d="M -1632.38981 196.401619 
L -1632.167406 196.096785 
L -1631.722598 196.058681 
L -1631.611396 196.115837 
L -1631.388992 196.268254 
L -1631.240723 196.439724 
L -1631.166589 196.630245 
L -1631.277791 196.839819 
L -1631.500194 196.954131 
L -1631.759665 196.954131 
L -1632.019137 196.916027 
L -1632.315675 196.76361 
z
" clip-path="url(#p8786b34c7d)" style="fill: #bdc3c7; stroke: #ffffff; stroke-width: 0.5"/>
    <path d="M -1638.283511 207.337549 
L -1638.172309 207.223236 
L -1638.024039 207.127976 
L -1637.912838 207.051767 
L -1637.764568 207.013663 
L -1637.801636 207.089871 
L -1637.838703 207.16608 
L -1637.912838 207.223236 
L -1637.949905 207.280393 
L -1638.024039 207.318497 
L -1638.135241 207.356601 
L -1638.209376 207.356601 
z
" clip-path="url(#p8786b34c7d)" style="fill: #bdc3c7; stroke: #ffffff; stroke-width: 0.5"/>
    <path d="M -1647.958076 208.594991 
L -1647.883942 208.271104 
L -1647.735672 207.794801 
L -1647.364999 207.832905 
L -1647.105528 208.156791 
L -1647.327932 208.49973 
L -1647.402067 208.118687 
L -1647.624471 208.080583 
L -1647.809807 208.252052 
L -1647.77274 208.461626 
L -1647.698605 208.690251 
L -1647.846874 208.728356 
z
" clip-path="url(#p8786b34c7d)" style="fill: #bdc3c7; stroke: #ffffff; stroke-width: 0.5"/>
    <path d="M 2039.682409 183.69384 
L 2039.756543 183.69384 
L 2039.830678 183.750996 
L 2039.978947 183.770049 
L 2040.238418 183.770049 
L 2040.201351 183.998674 
L 2040.275486 184.112987 
L 2040.238418 184.170144 
L 2039.978947 184.151091 
L 2039.793611 184.2273 
L 2039.719476 184.093935 
z
" clip-path="url(#p8786b34c7d)" style="fill: #bdc3c7; stroke: #ffffff; stroke-width: 0.5"/>
    <path d="M -1633.057021 210.652622 
L -1633.057021 210.614518 
L -1633.019954 210.557361 
L -1632.834617 210.157266 
L -1632.760483 210.10011 
L -1632.723415 210.309684 
L -1632.723415 210.538309 
L -1632.79755 210.595466 
L -1632.908752 210.595466 
L -1633.019954 210.671674 
z
" clip-path="url(#p8786b34c7d)" style="fill: #bdc3c7; stroke: #ffffff; stroke-width: 0.5"/>
    <path d="M -1636.244809 227.361351 
L -1636.207742 227.285143 
L -1636.170674 227.189882 
L -1636.170674 227.285143 
L -1636.133607 227.380404 
L -1636.059472 227.456612 
L -1635.985338 227.513769 
L -1636.022405 227.513769 
L -1636.09654 227.513769 
L -1636.170674 227.43756 
z
" clip-path="url(#p8786b34c7d)" style="fill: #bdc3c7; stroke: #ffffff; stroke-width: 0.5"/>
    <path d="M -1639.80327 196.992236 
L -1639.617933 196.839819 
L -1639.506732 196.877923 
L -1639.321395 196.992236 
L -1639.284328 197.258966 
L -1639.284328 197.411383 
L -1639.469664 197.468539 
L -1639.617933 197.392331 
L -1639.692068 197.258966 
z
" clip-path="url(#p8786b34c7d)" style="fill: #bdc3c7; stroke: #ffffff; stroke-width: 0.5"/>
    <path d="M -1649.292499 180.912227 
L 2057.400579 180.340663 
L 2057.400579 180.359715 
L 2057.25231 180.664549 
L 2057.25231 180.797914 
L 2057.25231 180.893175 
L 2057.289377 180.931279 
L 2057.326444 180.931279 
L 2057.400579 180.912227 
z
" clip-path="url(#p8786b34c7d)" style="fill: #bdc3c7; stroke: #ffffff; stroke-width: 0.5"/>
    <path d="M 2050.468994 178.568814 
L 2050.468994 178.492605 
L 2050.839667 178.492605 
L 2050.987936 178.530709 
L 2051.099138 178.568814 
L 2050.987936 178.645022 
L 2050.839667 178.664074 
L 2050.65433 178.645022 
z
" clip-path="url(#p8786b34c7d)" style="fill: #bdc3c7; stroke: #ffffff; stroke-width: 0.5"/>
    <path d="M 2001.688425 238.90695 
L 2001.725492 238.773585 
L 2001.947896 238.773585 
L 2002.059098 238.849793 
L 2002.133233 239.002211 
L 2002.096165 239.154628 
L 2001.947896 239.249888 
L 2001.762559 239.097471 
z
" clip-path="url(#p8786b34c7d)" style="fill: #bdc3c7; stroke: #ffffff; stroke-width: 0.5"/>
    <path d="M -1634.020771 204.708354 
L -1633.946636 204.574989 
L -1633.835434 204.517832 
L -1633.724232 204.613093 
L -1633.687165 204.727406 
L -1633.7613 204.822666 
L -1633.835434 204.898875 
L -1633.909569 204.879823 
z
" clip-path="url(#p8786b34c7d)" style="fill: #bdc3c7; stroke: #ffffff; stroke-width: 0.5"/>
    <path d="M -1638.691251 208.271104 
L -1638.691251 208.004374 
L -1638.580049 207.851957 
L -1638.43178 207.832905 
L -1638.283511 208.023426 
L -1638.283511 208.328261 
L -1638.43178 208.518782 
L -1638.617116 208.518782 
z
" clip-path="url(#p8786b34c7d)" style="fill: #bdc3c7; stroke: #ffffff; stroke-width: 0.5"/>
    <path d="M -1640.618751 189.161805 
L -1640.618751 188.952231 
L -1640.507549 188.895075 
L -1640.396347 188.933179 
L -1640.322212 189.085596 
L -1640.359279 189.218961 
L -1640.433414 189.29517 
L -1640.544616 189.276118 
z
" clip-path="url(#p8786b34c7d)" style="fill: #bdc3c7; stroke: #ffffff; stroke-width: 0.5"/>
    <path d="M -1640.804087 191.047967 
L -1640.692885 190.89555 
L -1640.507549 190.876498 
L -1640.396347 191.009863 
L -1640.359279 191.219436 
L -1640.396347 191.390906 
L -1640.618751 191.409958 
L -1640.76702 191.257541 
z
" clip-path="url(#p8786b34c7d)" style="fill: #bdc3c7; stroke: #ffffff; stroke-width: 0.5"/>
    <path d="M -1642.472116 194.648822 
L -1642.435048 194.439249 
L -1642.286779 194.267779 
L -1642.064375 194.248727 
L -1641.879039 194.439249 
L -1641.879039 194.667874 
L -1642.064375 194.820291 
L -1642.323846 194.782187 
z
" clip-path="url(#p8786b34c7d)" style="fill: #bdc3c7; stroke: #ffffff; stroke-width: 0.5"/>
    <path d="M -1649.292499 176.720756 
L -1649.292499 176.49213 
L -1649.181297 176.377817 
L -1649.033028 176.282557 
L -1648.662355 176.187296 
L -1648.773557 176.415922 
L -1648.884759 176.549287 
L -1649.070095 176.644547 
z
" clip-path="url(#p8786b34c7d)" style="fill: #bdc3c7; stroke: #ffffff; stroke-width: 0.5"/>
    <path d="M -1631.055387 218.082958 
L -1631.055387 218.006749 
L -1631.018319 217.930541 
L -1630.907118 217.854332 
L -1630.944185 217.930541 
L -1630.981252 218.006749 
L -1631.018319 218.140114 
z
" clip-path="url(#p8786b34c7d)" style="fill: #bdc3c7; stroke: #ffffff; stroke-width: 0.5"/>
   </g>
   <g id="PatchCollection_2">
    <path d="M 144.431286 174.758385 
L 144.468353 174.644072 
L 144.542487 174.510707 
L 144.579555 174.35829 
L 144.653689 174.186821 
L 144.801959 174.015352 
L 144.987295 173.881987 
L 145.135564 173.786726 
L 145.283833 173.767674 
L 145.580372 173.767674 
L 145.691574 173.710517 
L 145.802776 173.901039 
L 145.87691 174.072508 
L 145.87691 174.243977 
L 145.839843 174.396394 
L 145.765708 174.586916 
L 145.617439 174.682177 
L 145.506237 174.758385 
L 145.357968 174.872698 
L 145.320901 174.796489 
L 145.283833 174.777437 
L 145.246766 174.739333 
L 145.209699 174.701229 
L 145.06143 174.872698 
L 144.876093 174.967959 
L 144.690757 174.987011 
L 144.542487 174.910802 
z
" clip-path="url(#p8786b34c7d)" style="fill: #e74c3c; stroke: #ffffff; stroke-width: 0.6"/>
    <path d="M 55.618031 83.860612 
L 55.729233 83.689142 
L 55.877502 83.3081 
L 56.025772 83.174735 
L 56.062839 83.250943 
L 56.099906 83.3081 
L 56.136973 83.3081 
L 56.248175 83.250943 
L 56.32231 83.422412 
L 56.692983 83.727247 
L 56.87832 83.93682 
L 56.767118 84.013029 
L 56.507647 84.127342 
L 56.396445 84.20355 
L 56.285243 84.260707 
L 56.025772 84.279759 
L 55.877502 84.317863 
L 55.729233 84.260707 
L 55.655099 84.127342 
L 55.655099 83.993977 
z
" clip-path="url(#p8786b34c7d)" style="fill: #e74c3c; stroke: #ffffff; stroke-width: 0.6"/>
    <path d="M 77.042932 412.929222 
L 77.154133 412.814909 
L 77.33947 412.548179 
L 77.450672 412.414814 
L 77.487739 412.37671 
L 77.969614 412.414814 
L 78.154951 412.529127 
L 78.30322 412.662492 
L 78.525624 412.776805 
L 78.488556 412.872066 
L 78.451489 412.929222 
L 78.377354 412.967327 
L 78.30322 413.005431 
L 77.969614 413.310265 
L 77.784278 413.44363 
L 77.636008 413.44363 
L 77.376537 413.1769 
z
" clip-path="url(#p8786b34c7d)" style="fill: #e74c3c; stroke: #ffffff; stroke-width: 0.6"/>
    <path d="M 100.69187 449.414076 
L 100.69187 449.337867 
L 100.766004 449.147346 
L 100.877206 449.071137 
L 100.988408 449.033033 
L 101.470283 449.013981 
L 101.618552 449.033033 
L 101.692687 449.128294 
L 101.803889 449.433128 
L 101.840956 449.528389 
L 102.06336 449.71891 
L 102.137495 449.795119 
L 102.174562 449.966588 
L 101.878023 450.099953 
L 101.433216 449.928484 
z
" clip-path="url(#p8786b34c7d)" style="fill: #e74c3c; stroke: #ffffff; stroke-width: 0.6"/>
   </g>
   <g id="text_1">
    <!-- Saint Helena -->
    <g style="fill: #1a252f" transform="translate(39.558096 20.117344) scale(0.17 -0.17)">
     <defs>
      <path id="DejaVuSans-Bold-36" d="M 3834 4519 
L 3834 3531 
Q 3450 3703 3084 3790 
Q 2719 3878 2394 3878 
Q 1963 3878 1756 3759 
Q 1550 3641 1550 3391 
Q 1550 3203 1689 3098 
Q 1828 2994 2194 2919 
L 2706 2816 
Q 3484 2659 3812 2340 
Q 4141 2022 4141 1434 
Q 4141 663 3683 286 
Q 3225 -91 2284 -91 
Q 1841 -91 1394 -6 
Q 947 78 500 244 
L 500 1259 
Q 947 1022 1364 901 
Q 1781 781 2169 781 
Q 2563 781 2772 912 
Q 2981 1044 2981 1288 
Q 2981 1506 2839 1625 
Q 2697 1744 2272 1838 
L 1806 1941 
Q 1106 2091 782 2419 
Q 459 2747 459 3303 
Q 459 4000 909 4375 
Q 1359 4750 2203 4750 
Q 2588 4750 2994 4692 
Q 3400 4634 3834 4519 
z
" transform="scale(0.015625)"/>
      <path id="DejaVuSans-Bold-44" d="M 2106 1575 
Q 1756 1575 1579 1456 
Q 1403 1338 1403 1106 
Q 1403 894 1545 773 
Q 1688 653 1941 653 
Q 2256 653 2472 879 
Q 2688 1106 2688 1447 
L 2688 1575 
L 2106 1575 
z
M 3816 1997 
L 3816 0 
L 2688 0 
L 2688 519 
Q 2463 200 2181 54 
Q 1900 -91 1497 -91 
Q 953 -91 614 226 
Q 275 544 275 1050 
Q 275 1666 698 1953 
Q 1122 2241 2028 2241 
L 2688 2241 
L 2688 2328 
Q 2688 2594 2478 2717 
Q 2269 2841 1825 2841 
Q 1466 2841 1156 2769 
Q 847 2697 581 2553 
L 581 3406 
Q 941 3494 1303 3539 
Q 1666 3584 2028 3584 
Q 2975 3584 3395 3211 
Q 3816 2838 3816 1997 
z
" transform="scale(0.015625)"/>
      <path id="DejaVuSans-Bold-4c" d="M 538 3500 
L 1656 3500 
L 1656 0 
L 538 0 
L 538 3500 
z
M 538 4863 
L 1656 4863 
L 1656 3950 
L 538 3950 
L 538 4863 
z
" transform="scale(0.015625)"/>
      <path id="DejaVuSans-Bold-51" d="M 4056 2131 
L 4056 0 
L 2931 0 
L 2931 347 
L 2931 1631 
Q 2931 2084 2911 2256 
Q 2891 2428 2841 2509 
Q 2775 2619 2662 2680 
Q 2550 2741 2406 2741 
Q 2056 2741 1856 2470 
Q 1656 2200 1656 1722 
L 1656 0 
L 538 0 
L 538 3500 
L 1656 3500 
L 1656 2988 
Q 1909 3294 2193 3439 
Q 2478 3584 2822 3584 
Q 3428 3584 3742 3212 
Q 4056 2841 4056 2131 
z
" transform="scale(0.015625)"/>
      <path id="DejaVuSans-Bold-57" d="M 1759 4494 
L 1759 3500 
L 2913 3500 
L 2913 2700 
L 1759 2700 
L 1759 1216 
Q 1759 972 1856 886 
Q 1953 800 2241 800 
L 2816 800 
L 2816 0 
L 1856 0 
Q 1194 0 917 276 
Q 641 553 641 1216 
L 641 2700 
L 84 2700 
L 84 3500 
L 641 3500 
L 641 4494 
L 1759 4494 
z
" transform="scale(0.015625)"/>
      <path id="DejaVuSans-Bold-3" transform="scale(0.015625)"/>
      <path id="DejaVuSans-Bold-2b" d="M 588 4666 
L 1791 4666 
L 1791 2888 
L 3566 2888 
L 3566 4666 
L 4769 4666 
L 4769 0 
L 3566 0 
L 3566 1978 
L 1791 1978 
L 1791 0 
L 588 0 
L 588 4666 
z
" transform="scale(0.015625)"/>
      <path id="DejaVuSans-Bold-48" d="M 4031 1759 
L 4031 1441 
L 1416 1441 
Q 1456 1047 1700 850 
Q 1944 653 2381 653 
Q 2734 653 3104 758 
Q 3475 863 3866 1075 
L 3866 213 
Q 3469 63 3072 -14 
Q 2675 -91 2278 -91 
Q 1328 -91 801 392 
Q 275 875 275 1747 
Q 275 2603 792 3093 
Q 1309 3584 2216 3584 
Q 3041 3584 3536 3087 
Q 4031 2591 4031 1759 
z
M 2881 2131 
Q 2881 2450 2695 2645 
Q 2509 2841 2209 2841 
Q 1884 2841 1681 2658 
Q 1478 2475 1428 2131 
L 2881 2131 
z
" transform="scale(0.015625)"/>
      <path id="DejaVuSans-Bold-4f" d="M 538 4863 
L 1656 4863 
L 1656 0 
L 538 0 
L 538 4863 
z
" transform="scale(0.015625)"/>
     </defs>
     <use xlink:href="#DejaVuSans-Bold-36"/>
     <use xlink:href="#DejaVuSans-Bold-44" transform="translate(72.015625 0)"/>
     <use xlink:href="#DejaVuSans-Bold-4c" transform="translate(139.5 0)"/>
     <use xlink:href="#DejaVuSans-Bold-51" transform="translate(173.78125 0)"/>
     <use xlink:href="#DejaVuSans-Bold-57" transform="translate(244.96875 0)"/>
     <use xlink:href="#DejaVuSans-Bold-3" transform="translate(292.765625 0)"/>
     <use xlink:href="#DejaVuSans-Bold-2b" transform="translate(327.578125 0)"/>
     <use xlink:href="#DejaVuSans-Bold-48" transform="translate(411.265625 0)"/>
     <use xlink:href="#DejaVuSans-Bold-4f" transform="translate(479.09375 0)"/>
     <use xlink:href="#DejaVuSans-Bold-48" transform="translate(513.375 0)"/>
     <use xlink:href="#DejaVuSans-Bold-51" transform="translate(581.203125 0)"/>
     <use xlink:href="#DejaVuSans-Bold-44" transform="translate(652.390625 0)"/>
    </g>
   </g>
   <g id="legend_1">
    <g id="patch_2">
     <path d="M 13.5 498.657344 
L 99.684844 498.657344 
Q 101.484844 498.657344 101.484844 496.857344 
L 101.484844 470.755937 
Q 101.484844 468.955937 99.684844 468.955937 
L 13.5 468.955937 
Q 11.7 468.955937 11.7 470.755937 
L 11.7 496.857344 
Q 11.7 498.657344 13.5 498.657344 
z
" style="fill: #ffffff; opacity: 0.85; stroke: #cccccc; stroke-linejoin: miter"/>
    </g>
    <g id="patch_3">
     <path d="M 15.3 479.394531 
L 33.3 479.394531 
L 33.3 473.094531 
L 15.3 473.094531 
z
" style="fill: #e74c3c; stroke: #888888; stroke-linejoin: miter"/>
    </g>
    <g id="text_2">
     <!-- Saint Helena -->
     <g transform="translate(40.5 479.394531) scale(0.09 -0.09)">
      <defs>
       <path id="DejaVuSans-36" d="M 3425 4513 
L 3425 3897 
Q 3066 4069 2747 4153 
Q 2428 4238 2131 4238 
Q 1616 4238 1336 4038 
Q 1056 3838 1056 3469 
Q 1056 3159 1242 3001 
Q 1428 2844 1947 2747 
L 2328 2669 
Q 3034 2534 3370 2195 
Q 3706 1856 3706 1288 
Q 3706 609 3251 259 
Q 2797 -91 1919 -91 
Q 1588 -91 1214 -16 
Q 841 59 441 206 
L 441 856 
Q 825 641 1194 531 
Q 1563 422 1919 422 
Q 2459 422 2753 634 
Q 3047 847 3047 1241 
Q 3047 1584 2836 1778 
Q 2625 1972 2144 2069 
L 1759 2144 
Q 1053 2284 737 2584 
Q 422 2884 422 3419 
Q 422 4038 858 4394 
Q 1294 4750 2059 4750 
Q 2388 4750 2728 4690 
Q 3069 4631 3425 4513 
z
" transform="scale(0.015625)"/>
       <path id="DejaVuSans-44" d="M 2194 1759 
Q 1497 1759 1228 1600 
Q 959 1441 959 1056 
Q 959 750 1161 570 
Q 1363 391 1709 391 
Q 2188 391 2477 730 
Q 2766 1069 2766 1631 
L 2766 1759 
L 2194 1759 
z
M 3341 1997 
L 3341 0 
L 2766 0 
L 2766 531 
Q 2569 213 2275 61 
Q 1981 -91 1556 -91 
Q 1019 -91 701 211 
Q 384 513 384 1019 
Q 384 1609 779 1909 
Q 1175 2209 1959 2209 
L 2766 2209 
L 2766 2266 
Q 2766 2663 2505 2880 
Q 2244 3097 1772 3097 
Q 1472 3097 1187 3025 
Q 903 2953 641 2809 
L 641 3341 
Q 956 3463 1253 3523 
Q 1550 3584 1831 3584 
Q 2591 3584 2966 3190 
Q 3341 2797 3341 1997 
z
" transform="scale(0.015625)"/>
       <path id="DejaVuSans-4c" d="M 603 3500 
L 1178 3500 
L 1178 0 
L 603 0 
L 603 3500 
z
M 603 4863 
L 1178 4863 
L 1178 4134 
L 603 4134 
L 603 4863 
z
" transform="scale(0.015625)"/>
       <path id="DejaVuSans-51" d="M 3513 2113 
L 3513 0 
L 2938 0 
L 2938 2094 
Q 2938 2591 2744 2837 
Q 2550 3084 2163 3084 
Q 1697 3084 1428 2787 
Q 1159 2491 1159 1978 
L 1159 0 
L 581 0 
L 581 3500 
L 1159 3500 
L 1159 2956 
Q 1366 3272 1645 3428 
Q 1925 3584 2291 3584 
Q 2894 3584 3203 3211 
Q 3513 2838 3513 2113 
z
" transform="scale(0.015625)"/>
       <path id="DejaVuSans-57" d="M 1172 4494 
L 1172 3500 
L 2356 3500 
L 2356 3053 
L 1172 3053 
L 1172 1153 
Q 1172 725 1289 603 
Q 1406 481 1766 481 
L 2356 481 
L 2356 0 
L 1766 0 
Q 1100 0 847 248 
Q 594 497 594 1153 
L 594 3053 
L 172 3053 
L 172 3500 
L 594 3500 
L 594 4494 
L 1172 4494 
z
" transform="scale(0.015625)"/>
       <path id="DejaVuSans-3" transform="scale(0.015625)"/>
       <path id="DejaVuSans-2b" d="M 628 4666 
L 1259 4666 
L 1259 2753 
L 3553 2753 
L 3553 4666 
L 4184 4666 
L 4184 0 
L 3553 0 
L 3553 2222 
L 1259 2222 
L 1259 0 
L 628 0 
L 628 4666 
z
" transform="scale(0.015625)"/>
       <path id="DejaVuSans-48" d="M 3597 1894 
L 3597 1613 
L 953 1613 
Q 991 1019 1311 708 
Q 1631 397 2203 397 
Q 2534 397 2845 478 
Q 3156 559 3463 722 
L 3463 178 
Q 3153 47 2828 -22 
Q 2503 -91 2169 -91 
Q 1331 -91 842 396 
Q 353 884 353 1716 
Q 353 2575 817 3079 
Q 1281 3584 2069 3584 
Q 2775 3584 3186 3129 
Q 3597 2675 3597 1894 
z
M 3022 2063 
Q 3016 2534 2758 2815 
Q 2500 3097 2075 3097 
Q 1594 3097 1305 2825 
Q 1016 2553 972 2059 
L 3022 2063 
z
" transform="scale(0.015625)"/>
       <path id="DejaVuSans-4f" d="M 603 4863 
L 1178 4863 
L 1178 0 
L 603 0 
L 603 4863 
z
" transform="scale(0.015625)"/>
      </defs>
      <use xlink:href="#DejaVuSans-36"/>
      <use xlink:href="#DejaVuSans-44" transform="translate(63.484375 0)"/>
      <use xlink:href="#DejaVuSans-4c" transform="translate(124.765625 0)"/>
      <use xlink:href="#DejaVuSans-51" transform="translate(152.546875 0)"/>
      <use xlink:href="#DejaVuSans-57" transform="translate(215.921875 0)"/>
      <use xlink:href="#DejaVuSans-3" transform="translate(255.125 0)"/>
      <use xlink:href="#DejaVuSans-2b" transform="translate(286.90625 0)"/>
      <use xlink:href="#DejaVuSans-48" transform="translate(362.109375 0)"/>
      <use xlink:href="#DejaVuSans-4f" transform="translate(423.640625 0)"/>
      <use xlink:href="#DejaVuSans-48" transform="translate(451.421875 0)"/>
      <use xlink:href="#DejaVuSans-51" transform="translate(512.953125 0)"/>
      <use xlink:href="#DejaVuSans-44" transform="translate(576.328125 0)"/>
     </g>
    </g>
    <g id="patch_4">
     <path d="M 15.3 492.895234 
L 33.3 492.895234 
L 33.3 486.595234 
L 15.3 486.595234 
z
" style="fill: #bdc3c7; stroke: #888888; stroke-linejoin: miter"/>
    </g>
    <g id="text_3">
     <!-- Neighbors -->
     <g transform="translate(40.5 492.895234) scale(0.09 -0.09)">
      <defs>
       <path id="DejaVuSans-31" d="M 628 4666 
L 1478 4666 
L 3547 763 
L 3547 4666 
L 4159 4666 
L 4159 0 
L 3309 0 
L 1241 3903 
L 1241 0 
L 628 0 
L 628 4666 
z
" transform="scale(0.015625)"/>
       <path id="DejaVuSans-4a" d="M 2906 1791 
Q 2906 2416 2648 2759 
Q 2391 3103 1925 3103 
Q 1463 3103 1205 2759 
Q 947 2416 947 1791 
Q 947 1169 1205 825 
Q 1463 481 1925 481 
Q 2391 481 2648 825 
Q 2906 1169 2906 1791 
z
M 3481 434 
Q 3481 -459 3084 -895 
Q 2688 -1331 1869 -1331 
Q 1566 -1331 1297 -1286 
Q 1028 -1241 775 -1147 
L 775 -588 
Q 1028 -725 1275 -790 
Q 1522 -856 1778 -856 
Q 2344 -856 2625 -561 
Q 2906 -266 2906 331 
L 2906 616 
Q 2728 306 2450 153 
Q 2172 0 1784 0 
Q 1141 0 747 490 
Q 353 981 353 1791 
Q 353 2603 747 3093 
Q 1141 3584 1784 3584 
Q 2172 3584 2450 3431 
Q 2728 3278 2906 2969 
L 2906 3500 
L 3481 3500 
L 3481 434 
z
" transform="scale(0.015625)"/>
       <path id="DejaVuSans-4b" d="M 3513 2113 
L 3513 0 
L 2938 0 
L 2938 2094 
Q 2938 2591 2744 2837 
Q 2550 3084 2163 3084 
Q 1697 3084 1428 2787 
Q 1159 2491 1159 1978 
L 1159 0 
L 581 0 
L 581 4863 
L 1159 4863 
L 1159 2956 
Q 1366 3272 1645 3428 
Q 1925 3584 2291 3584 
Q 2894 3584 3203 3211 
Q 3513 2838 3513 2113 
z
" transform="scale(0.015625)"/>
       <path id="DejaVuSans-45" d="M 3116 1747 
Q 3116 2381 2855 2742 
Q 2594 3103 2138 3103 
Q 1681 3103 1420 2742 
Q 1159 2381 1159 1747 
Q 1159 1113 1420 752 
Q 1681 391 2138 391 
Q 2594 391 2855 752 
Q 3116 1113 3116 1747 
z
M 1159 2969 
Q 1341 3281 1617 3432 
Q 1894 3584 2278 3584 
Q 2916 3584 3314 3078 
Q 3713 2572 3713 1747 
Q 3713 922 3314 415 
Q 2916 -91 2278 -91 
Q 1894 -91 1617 61 
Q 1341 213 1159 525 
L 1159 0 
L 581 0 
L 581 4863 
L 1159 4863 
L 1159 2969 
z
" transform="scale(0.015625)"/>
       <path id="DejaVuSans-52" d="M 1959 3097 
Q 1497 3097 1228 2736 
Q 959 2375 959 1747 
Q 959 1119 1226 758 
Q 1494 397 1959 397 
Q 2419 397 2687 759 
Q 2956 1122 2956 1747 
Q 2956 2369 2687 2733 
Q 2419 3097 1959 3097 
z
M 1959 3584 
Q 2709 3584 3137 3096 
Q 3566 2609 3566 1747 
Q 3566 888 3137 398 
Q 2709 -91 1959 -91 
Q 1206 -91 779 398 
Q 353 888 353 1747 
Q 353 2609 779 3096 
Q 1206 3584 1959 3584 
z
" transform="scale(0.015625)"/>
       <path id="DejaVuSans-55" d="M 2631 2963 
Q 2534 3019 2420 3045 
Q 2306 3072 2169 3072 
Q 1681 3072 1420 2755 
Q 1159 2438 1159 1844 
L 1159 0 
L 581 0 
L 581 3500 
L 1159 3500 
L 1159 2956 
Q 1341 3275 1631 3429 
Q 1922 3584 2338 3584 
Q 2397 3584 2469 3576 
Q 2541 3569 2628 3553 
L 2631 2963 
z
" transform="scale(0.015625)"/>
       <path id="DejaVuSans-56" d="M 2834 3397 
L 2834 2853 
Q 2591 2978 2328 3040 
Q 2066 3103 1784 3103 
Q 1356 3103 1142 2972 
Q 928 2841 928 2578 
Q 928 2378 1081 2264 
Q 1234 2150 1697 2047 
L 1894 2003 
Q 2506 1872 2764 1633 
Q 3022 1394 3022 966 
Q 3022 478 2636 193 
Q 2250 -91 1575 -91 
Q 1294 -91 989 -36 
Q 684 19 347 128 
L 347 722 
Q 666 556 975 473 
Q 1284 391 1588 391 
Q 1994 391 2212 530 
Q 2431 669 2431 922 
Q 2431 1156 2273 1281 
Q 2116 1406 1581 1522 
L 1381 1569 
Q 847 1681 609 1914 
Q 372 2147 372 2553 
Q 372 3047 722 3315 
Q 1072 3584 1716 3584 
Q 2034 3584 2315 3537 
Q 2597 3491 2834 3397 
z
" transform="scale(0.015625)"/>
      </defs>
      <use xlink:href="#DejaVuSans-31"/>
      <use xlink:href="#DejaVuSans-48" transform="translate(74.8125 0)"/>
      <use xlink:href="#DejaVuSans-4c" transform="translate(136.34375 0)"/>
      <use xlink:href="#DejaVuSans-4a" transform="translate(164.125 0)"/>
      <use xlink:href="#DejaVuSans-4b" transform="translate(227.609375 0)"/>
      <use xlink:href="#DejaVuSans-45" transform="translate(290.984375 0)"/>
      <use xlink:href="#DejaVuSans-52" transform="translate(354.46875 0)"/>
      <use xlink:href="#DejaVuSans-55" transform="translate(415.65625 0)"/>
      <use xlink:href="#DejaVuSans-56" transform="translate(456.765625 0)"/>
     </g>
    </g>
   </g>
  </g>
 </g>
 <defs>
  <clipPath id="p8786b34c7d">
   <rect x="7.2" y="30.117344" width="187.094942" height="473.04"/>
  </clipPath>
 </defs>
</svg>
