<?xml version="1.0" encoding="utf-8" standalone="no"?>
<!DOCTYPE svg PUBLIC "-//W3C//DTD SVG 1.1//EN"
  "http://www.w3.org/Graphics/SVG/1.1/DTD/svg11.dtd">
<svg xmlns:xlink="http://www.w3.org/1999/xlink" width="677.696778pt" height="510.357344pt" viewBox="0 0 677.696778 510.357344" xmlns="http://www.w3.org/2000/svg" version="1.1">
 <metadata>
  <rdf:RDF xmlns:dc="http://purl.org/dc/elements/1.1/" xmlns:cc="http://creativecommons.org/ns#" xmlns:rdf="http://www.w3.org/1999/02/22-rdf-syntax-ns#">
   <cc:Work>
    <dc:type rdf:resource="http://purl.org/dc/dcmitype/StillImage"/>
    <dc:date>2026-06-19T08:14:15.016446</dc:date>
    <dc:format>image/svg+xml</dc:format>
    <dc:creator>
     <cc:Agent>
      <dc:title>Matplotlib v3.11.0, https://matplotlib.org/</dc:title>
     </cc:Agent>
    </dc:creator>
   </cc:Work>
  </rdf:RDF>
 </metadata>
 <defs>
  <style type="text/css">*{stroke-linejoin: round; stroke-linecap: butt}</style>
 </defs>
 <g id="figure_1">
  <g id="patch_1">
   <path d="M 0 510.357344 
L 677.696778 510.357344 
L 677.696778 0 
L 0 0 
z
" style="fill: #d6eaf8"/>
  </g>
  <g id="axes_1">
   <g id="PatchCollection_1">
    <path d="M 532.598712 165.721491 
L 532.598712 165.561497 
L 532.937436 165.561497 
L 533.106798 165.4815 
L 532.937436 165.24151 
L 533.614885 164.601537 
L 533.953609 164.52154 
L 534.461696 164.441543 
L 534.969782 164.201553 
L 535.139144 163.881566 
L 535.308507 163.481583 
L 535.647231 163.321589 
L 535.816593 162.681616 
L 535.816593 161.881648 
L 536.155317 161.801652 
L 536.32468 161.801652 
L 536.663404 161.881648 
L 537.17149 162.361629 
L 537.340853 162.921606 
L 537.17149 163.081599 
L 537.002128 163.641576 
L 537.002128 163.961563 
L 537.002128 164.52154 
L 537.002128 164.76153 
L 536.832766 164.841527 
L 536.832766 164.921524 
L 537.17149 164.921524 
L 537.679577 165.561497 
L 538.69575 166.281468 
L 539.711923 166.921441 
L 540.220009 167.481418 
L 539.881285 168.761366 
L 540.050647 169.081353 
L 540.220009 170.201307 
L 539.711923 170.281303 
L 539.711923 170.84128 
L 540.050647 171.721244 
L 540.220009 172.361218 
L 540.558734 172.681205 
L 540.728096 173.321178 
L 539.711923 173.321178 
L 539.034474 172.921195 
L 538.526388 171.881238 
L 538.187663 171.401257 
L 537.848939 171.241264 
L 537.510215 171.401257 
L 537.17149 171.241264 
L 537.340853 170.3613 
L 538.187663 170.3613 
L 538.526388 170.12131 
L 538.187663 169.721326 
L 538.018301 169.401339 
L 538.018301 169.001356 
L 537.848939 168.761366 
L 537.340853 168.681369 
L 536.832766 167.961399 
L 536.494042 167.401422 
L 535.816593 167.321425 
L 534.969782 166.841445 
L 534.631058 166.601454 
L 534.292334 166.521458 
L 533.953609 166.441461 
L 533.953609 166.201471 
L 534.122971 166.201471 
L 534.122971 166.041477 
L 533.614885 165.961481 
L 533.276161 166.041477 
L 532.768074 165.881484 
z
" clip-path="url(#pde720b8d67)" style="fill: #e74c3c; stroke: #ffffff; stroke-width: 0.6"/>
    <path d="M 101.741351 390.432257 
L 102.757524 391.712204 
L 104.78987 392.352178 
L 106.991578 392.192184 
L 108.515837 391.392217 
L 109.362648 391.392217 
L 110.548184 390.992234 
L 111.733719 390.432257 
L 112.411167 390.032273 
L 112.749892 390.432257 
L 113.088616 390.032273 
L 113.42734 390.272263 
L 113.935427 390.432257 
L 113.935427 390.032273 
L 113.596703 389.712286 
L 113.257978 389.312303 
L 113.088616 388.752326 
L 113.088616 388.112352 
L 115.290324 389.072313 
L 116.137135 389.712286 
L 116.645222 390.192267 
L 116.475859 390.432257 
L 115.798411 390.672247 
L 114.274151 391.872198 
L 113.257978 392.352178 
L 109.870735 392.272181 
L 105.975405 393.392135 
L 102.926886 393.552129 
z
" clip-path="url(#pde720b8d67)" style="fill: #e74c3c; stroke: #ffffff; stroke-width: 0.6"/>
    <path d="M 547.163858 149.322165 
L 547.841307 149.082174 
L 548.180031 149.002178 
L 548.518756 149.002178 
L 549.196205 149.642151 
L 549.704291 149.882142 
L 550.551102 150.042135 
L 550.889826 150.442118 
L 551.228551 150.282125 
L 551.905999 150.362122 
L 552.414086 150.922099 
L 551.567275 150.922099 
L 551.567275 151.322082 
L 551.397913 151.882059 
L 551.059188 152.202046 
L 550.551102 152.202046 
L 549.873653 151.962056 
L 549.365567 151.482076 
L 549.026842 150.922099 
L 548.518756 150.762105 
L 547.841307 150.682109 
L 547.502583 150.362122 
L 547.502583 150.042135 
z
" clip-path="url(#pde720b8d67)" style="fill: #e74c3c; stroke: #ffffff; stroke-width: 0.6"/>
    <path d="M 104.959232 388.432339 
L 104.959232 388.192349 
L 105.128594 388.192349 
L 106.822216 387.632372 
L 108.515837 387.712368 
L 110.378821 388.032355 
L 112.072443 388.112352 
L 111.225632 388.832322 
L 109.870735 389.072313 
L 108.346475 388.832322 
L 107.499664 388.432339 
L 106.991578 388.752326 
L 105.806043 388.592332 
L 105.297956 388.752326 
L 105.297956 388.592332 
L 105.297956 388.512336 
L 105.128594 388.432339 
z
" clip-path="url(#pde720b8d67)" style="fill: #e74c3c; stroke: #ffffff; stroke-width: 0.6"/>
    <path d="M 538.69575 164.361547 
L 538.69575 164.201553 
L 538.69575 163.961563 
L 538.69575 163.80157 
L 538.69575 163.721573 
L 538.865112 163.641576 
L 539.034474 163.641576 
L 539.203836 163.641576 
L 539.373199 163.641576 
L 539.542561 163.721573 
L 539.373199 163.881566 
L 539.373199 164.121556 
L 539.034474 164.201553 
L 538.865112 164.361547 
z
" clip-path="url(#pde720b8d67)" style="fill: #e74c3c; stroke: #ffffff; stroke-width: 0.6"/>
    <path d="M 533.953609 167.001438 
L 533.953609 166.921441 
L 534.122971 166.921441 
L 534.292334 167.001438 
L 534.461696 167.081435 
L 534.461696 167.241428 
L 534.461696 167.401422 
L 534.461696 167.481418 
L 534.292334 167.481418 
L 534.122971 167.241428 
L 534.122971 167.161431 
L 534.122971 167.081435 
z
" clip-path="url(#pde720b8d67)" style="fill: #e74c3c; stroke: #ffffff; stroke-width: 0.6"/>
    <path d="M 554.107707 152.922017 
L 554.107707 152.282043 
L 554.27707 151.722066 
L 554.446432 151.242086 
L 555.12388 151.482076 
L 555.293243 152.122049 
L 555.631967 152.522033 
L 555.293243 152.682026 
L 555.12388 153.002013 
L 554.954518 153.401997 
L 554.615794 153.322 
z
" clip-path="url(#pde720b8d67)" style="fill: #e74c3c; stroke: #ffffff; stroke-width: 0.6"/>
    <path d="M 538.526388 165.321507 
L 538.526388 165.081517 
L 538.526388 165.00152 
L 538.69575 165.00152 
L 538.865112 165.081517 
L 539.034474 165.081517 
L 539.203836 165.401504 
L 539.203836 165.561497 
L 539.034474 165.561497 
L 538.865112 165.4815 
L 538.69575 165.401504 
z
" clip-path="url(#pde720b8d67)" style="fill: #e74c3c; stroke: #ffffff; stroke-width: 0.6"/>
    <path d="M 548.85748 148.522197 
L 549.026842 148.362204 
L 549.365567 148.362204 
L 550.043015 148.442201 
L 550.212378 148.442201 
L 550.212378 148.682191 
L 549.873653 148.682191 
L 549.873653 148.922181 
L 549.873653 149.082174 
L 549.196205 148.922181 
z
" clip-path="url(#pde720b8d67)" style="fill: #e74c3c; stroke: #ffffff; stroke-width: 0.6"/>
    <path d="M 559.188573 163.001602 
L 559.188573 162.841609 
L 559.357935 162.761612 
L 559.527297 162.681616 
L 559.696659 162.761612 
L 560.035383 163.001602 
L 560.035383 163.241593 
L 559.866021 163.321589 
L 559.527297 163.321589 
z
" clip-path="url(#pde720b8d67)" style="fill: #e74c3c; stroke: #ffffff; stroke-width: 0.6"/>
    <path d="M 539.034474 164.921524 
L 539.034474 164.76153 
L 539.034474 164.681533 
L 539.203836 164.681533 
L 539.203836 164.841527 
L 539.373199 164.841527 
L 539.542561 165.00152 
L 539.373199 165.081517 
L 539.203836 165.00152 
z
" clip-path="url(#pde720b8d67)" style="fill: #e74c3c; stroke: #ffffff; stroke-width: 0.6"/>
    <path d="M 532.259987 166.601454 
L 532.42935 166.521458 
L 532.598712 166.521458 
L 532.768074 166.681451 
L 532.937436 166.841445 
L 532.937436 166.921441 
L 532.768074 166.841445 
L 532.42935 166.841445 
L 532.42935 166.681451 
z
" clip-path="url(#pde720b8d67)" style="fill: #e74c3c; stroke: #ffffff; stroke-width: 0.6"/>
    <path d="M 525.824225 157.241839 
L 525.993587 156.361875 
L 526.671036 156.601865 
L 527.517847 157.161842 
L 528.025933 158.041806 
L 527.517847 158.92177 
L 526.671036 159.16176 
L 525.993587 158.361793 
z
" clip-path="url(#pde720b8d67)" style="fill: #e74c3c; stroke: #ffffff; stroke-width: 0.6"/>
    <path d="M 114.443513 407.711547 
L 114.443513 407.231566 
L 114.782238 406.751586 
L 115.459686 406.351603 
L 115.967773 406.271606 
L 115.798411 406.831583 
L 115.459686 407.471557 
L 114.9516 407.951537 
z
" clip-path="url(#pde720b8d67)" style="fill: #e74c3c; stroke: #ffffff; stroke-width: 0.6"/>
    <path d="M 556.140053 150.602112 
L 556.140053 150.282125 
L 556.478778 150.362122 
L 556.817502 150.842102 
L 556.986864 151.242086 
L 556.64814 151.242086 
L 556.478778 151.002095 
z
" clip-path="url(#pde720b8d67)" style="fill: #e74c3c; stroke: #ffffff; stroke-width: 0.6"/>
    <path d="M 546.317048 145.322329 
L 546.48641 145.242332 
L 546.655772 145.162335 
L 546.825134 145.242332 
L 547.163858 145.322329 
L 546.994496 145.402326 
L 546.655772 145.402326 
z
" clip-path="url(#pde720b8d67)" style="fill: #e74c3c; stroke: #ffffff; stroke-width: 0.6"/>
    <path d="M 574.092444 286.516527 
L 574.60053 284.036629 
L 575.108617 283.076668 
L 575.955427 282.596688 
L 575.786065 283.636645 
L 575.277979 284.676602 
z
" clip-path="url(#pde720b8d67)" style="fill: #e74c3c; stroke: #ffffff; stroke-width: 0.6"/>
    <path d="M 558.511124 151.722066 
L 558.511124 151.402079 
L 558.680486 151.082092 
L 558.849848 151.242086 
L 558.849848 151.482076 
L 558.680486 151.802063 
z
" clip-path="url(#pde720b8d67)" style="fill: #e74c3c; stroke: #ffffff; stroke-width: 0.6"/>
    <path d="M 556.140053 148.922181 
L 556.140053 148.682191 
L 556.309416 148.682191 
L 556.309416 149.002178 
L 556.478778 149.322165 
L 556.309416 149.322165 
z
" clip-path="url(#pde720b8d67)" style="fill: #e74c3c; stroke: #ffffff; stroke-width: 0.6"/>
    <path d="M 436.909086 202.519978 
L 437.24781 202.999959 
L 437.417172 203.239949 
L 437.417172 203.559936 
L 437.24781 203.319946 
L 437.078448 203.079955 
z
" clip-path="url(#pde720b8d67)" style="fill: #e74c3c; stroke: #ffffff; stroke-width: 0.6"/>
    <path d="M 546.317048 150.922099 
L 546.48641 150.842102 
L 546.655772 150.842102 
L 546.655772 151.082092 
L 546.48641 151.082092 
z
" clip-path="url(#pde720b8d67)" style="fill: #e74c3c; stroke: #ffffff; stroke-width: 0.6"/>
    <path d="M 545.639599 151.802063 
L 545.808961 151.722066 
L 545.808961 151.802063 
L 545.978323 152.042053 
L 545.808961 152.042053 
z
" clip-path="url(#pde720b8d67)" style="fill: #e74c3c; stroke: #ffffff; stroke-width: 0.6"/>
    <path d="M 409.13369 277.556895 
L 409.13369 277.476898 
L 409.13369 277.316905 
L 409.13369 277.076915 
L 409.303052 277.636892 
z
" clip-path="url(#pde720b8d67)" style="fill: #e74c3c; stroke: #ffffff; stroke-width: 0.6"/>
    <path d="M 545.978323 125.803131 
L 546.317048 125.323151 
L 546.655772 126.363108 
L 546.317048 126.363108 
z
" clip-path="url(#pde720b8d67)" style="fill: #e74c3c; stroke: #ffffff; stroke-width: 0.6"/>
    <path d="M 162.881094 405.951619 
L 162.881094 405.231649 
L 163.050456 405.071655 
L 163.219818 405.311645 
z
" clip-path="url(#pde720b8d67)" style="fill: #e74c3c; stroke: #ffffff; stroke-width: 0.6"/>
   </g>
   <g id="text_1">
    <!-- Seychelles -->
    <g style="fill: #1a252f" transform="translate(287.913467 20.117344) scale(0.17 -0.17)">
     <defs>
      <path id="DejaVuSans-Bold-36" d="M 3834 4519 
L 3834 3531 
Q 3450 3703 3084 3790 
Q 2719 3878 2394 3878 
Q 1963 3878 1756 3759 
Q 1550 3641 1550 3391 
Q 1550 3203 1689 3098 
Q 1828 2994 2194 2919 
L 2706 2816 
Q 3484 2659 3812 2340 
Q 4141 2022 4141 1434 
Q 4141 663 3683 286 
Q 3225 -91 2284 -91 
Q 1841 -91 1394 -6 
Q 947 78 500 244 
L 500 1259 
Q 947 1022 1364 901 
Q 1781 781 2169 781 
Q 2563 781 2772 912 
Q 2981 1044 2981 1288 
Q 2981 1506 2839 1625 
Q 2697 1744 2272 1838 
L 1806 1941 
Q 1106 2091 782 2419 
Q 459 2747 459 3303 
Q 459 4000 909 4375 
Q 1359 4750 2203 4750 
Q 2588 4750 2994 4692 
Q 3400 4634 3834 4519 
z
" transform="scale(0.015625)"/>
      <path id="DejaVuSans-Bold-48" d="M 4031 1759 
L 4031 1441 
L 1416 1441 
Q 1456 1047 1700 850 
Q 1944 653 2381 653 
Q 2734 653 3104 758 
Q 3475 863 3866 1075 
L 3866 213 
Q 3469 63 3072 -14 
Q 2675 -91 2278 -91 
Q 1328 -91 801 392 
Q 275 875 275 1747 
Q 275 2603 792 3093 
Q 1309 3584 2216 3584 
Q 3041 3584 3536 3087 
Q 4031 2591 4031 1759 
z
M 2881 2131 
Q 2881 2450 2695 2645 
Q 2509 2841 2209 2841 
Q 1884 2841 1681 2658 
Q 1478 2475 1428 2131 
L 2881 2131 
z
" transform="scale(0.015625)"/>
      <path id="DejaVuSans-Bold-5c" d="M 78 3500 
L 1197 3500 
L 2138 1125 
L 2938 3500 
L 4056 3500 
L 2584 -331 
Q 2363 -916 2067 -1148 
Q 1772 -1381 1288 -1381 
L 641 -1381 
L 641 -647 
L 991 -647 
Q 1275 -647 1404 -556 
Q 1534 -466 1606 -231 
L 1638 -134 
L 78 3500 
z
" transform="scale(0.015625)"/>
      <path id="DejaVuSans-Bold-46" d="M 3366 3391 
L 3366 2478 
Q 3138 2634 2908 2709 
Q 2678 2784 2431 2784 
Q 1963 2784 1702 2511 
Q 1441 2238 1441 1747 
Q 1441 1256 1702 982 
Q 1963 709 2431 709 
Q 2694 709 2930 787 
Q 3166 866 3366 1019 
L 3366 103 
Q 3103 6 2833 -42 
Q 2563 -91 2291 -91 
Q 1344 -91 809 395 
Q 275 881 275 1747 
Q 275 2613 809 3098 
Q 1344 3584 2291 3584 
Q 2566 3584 2833 3536 
Q 3100 3488 3366 3391 
z
" transform="scale(0.015625)"/>
      <path id="DejaVuSans-Bold-4b" d="M 4056 2131 
L 4056 0 
L 2931 0 
L 2931 347 
L 2931 1625 
Q 2931 2084 2911 2256 
Q 2891 2428 2841 2509 
Q 2775 2619 2662 2680 
Q 2550 2741 2406 2741 
Q 2056 2741 1856 2470 
Q 1656 2200 1656 1722 
L 1656 0 
L 538 0 
L 538 4863 
L 1656 4863 
L 1656 2988 
Q 1909 3294 2193 3439 
Q 2478 3584 2822 3584 
Q 3428 3584 3742 3212 
Q 4056 2841 4056 2131 
z
" transform="scale(0.015625)"/>
      <path id="DejaVuSans-Bold-4f" d="M 538 4863 
L 1656 4863 
L 1656 0 
L 538 0 
L 538 4863 
z
" transform="scale(0.015625)"/>
      <path id="DejaVuSans-Bold-56" d="M 3272 3391 
L 3272 2541 
Q 2913 2691 2578 2766 
Q 2244 2841 1947 2841 
Q 1628 2841 1473 2761 
Q 1319 2681 1319 2516 
Q 1319 2381 1436 2309 
Q 1553 2238 1856 2203 
L 2053 2175 
Q 2913 2066 3209 1816 
Q 3506 1566 3506 1031 
Q 3506 472 3093 190 
Q 2681 -91 1863 -91 
Q 1516 -91 1145 -36 
Q 775 19 384 128 
L 384 978 
Q 719 816 1070 734 
Q 1422 653 1784 653 
Q 2113 653 2278 743 
Q 2444 834 2444 1013 
Q 2444 1163 2330 1236 
Q 2216 1309 1875 1350 
L 1678 1375 
Q 931 1469 631 1722 
Q 331 1975 331 2491 
Q 331 3047 712 3315 
Q 1094 3584 1881 3584 
Q 2191 3584 2531 3537 
Q 2872 3491 3272 3391 
z
" transform="scale(0.015625)"/>
     </defs>
     <use xlink:href="#DejaVuSans-Bold-36"/>
     <use xlink:href="#DejaVuSans-Bold-48" transform="translate(72.015625 0)"/>
     <use xlink:href="#DejaVuSans-Bold-5c" transform="translate(139.84375 0)"/>
     <use xlink:href="#DejaVuSans-Bold-46" transform="translate(205.03125 0)"/>
     <use xlink:href="#DejaVuSans-Bold-4b" transform="translate(264.3125 0)"/>
     <use xlink:href="#DejaVuSans-Bold-48" transform="translate(335.5 0)"/>
     <use xlink:href="#DejaVuSans-Bold-4f" transform="translate(403.328125 0)"/>
     <use xlink:href="#DejaVuSans-Bold-4f" transform="translate(437.609375 0)"/>
     <use xlink:href="#DejaVuSans-Bold-48" transform="translate(471.890625 0)"/>
     <use xlink:href="#DejaVuSans-Bold-56" transform="translate(539.71875 0)"/>
    </g>
   </g>
   <g id="legend_1">
    <g id="patch_2">
     <path d="M 13.5 498.657344 
L 90.295312 498.657344 
Q 92.095312 498.657344 92.095312 496.857344 
L 92.095312 470.755937 
Q 92.095312 468.955937 90.295312 468.955937 
L 13.5 468.955937 
Q 11.7 468.955937 11.7 470.755937 
L 11.7 496.857344 
Q 11.7 498.657344 13.5 498.657344 
z
" style="fill: #ffffff; opacity: 0.85; stroke: #cccccc; stroke-linejoin: miter"/>
    </g>
    <g id="patch_3">
     <path d="M 15.3 479.394531 
L 33.3 479.394531 
L 33.3 473.094531 
L 15.3 473.094531 
z
" style="fill: #e74c3c; stroke: #888888; stroke-linejoin: miter"/>
    </g>
    <g id="text_2">
     <!-- Seychelles -->
     <g transform="translate(40.5 479.394531) scale(0.09 -0.09)">
      <defs>
       <path id="DejaVuSans-36" d="M 3425 4513 
L 3425 3897 
Q 3066 4069 2747 4153 
Q 2428 4238 2131 4238 
Q 1616 4238 1336 4038 
Q 1056 3838 1056 3469 
Q 1056 3159 1242 3001 
Q 1428 2844 1947 2747 
L 2328 2669 
Q 3034 2534 3370 2195 
Q 3706 1856 3706 1288 
Q 3706 609 3251 259 
Q 2797 -91 1919 -91 
Q 1588 -91 1214 -16 
Q 841 59 441 206 
L 441 856 
Q 825 641 1194 531 
Q 1563 422 1919 422 
Q 2459 422 2753 634 
Q 3047 847 3047 1241 
Q 3047 1584 2836 1778 
Q 2625 1972 2144 2069 
L 1759 2144 
Q 1053 2284 737 2584 
Q 422 2884 422 3419 
Q 422 4038 858 4394 
Q 1294 4750 2059 4750 
Q 2388 4750 2728 4690 
Q 3069 4631 3425 4513 
z
" transform="scale(0.015625)"/>
       <path id="DejaVuSans-48" d="M 3597 1894 
L 3597 1613 
L 953 1613 
Q 991 1019 1311 708 
Q 1631 397 2203 397 
Q 2534 397 2845 478 
Q 3156 559 3463 722 
L 3463 178 
Q 3153 47 2828 -22 
Q 2503 -91 2169 -91 
Q 1331 -91 842 396 
Q 353 884 353 1716 
Q 353 2575 817 3079 
Q 1281 3584 2069 3584 
Q 2775 3584 3186 3129 
Q 3597 2675 3597 1894 
z
M 3022 2063 
Q 3016 2534 2758 2815 
Q 2500 3097 2075 3097 
Q 1594 3097 1305 2825 
Q 1016 2553 972 2059 
L 3022 2063 
z
" transform="scale(0.015625)"/>
       <path id="DejaVuSans-5c" d="M 2059 -325 
Q 1816 -950 1584 -1140 
Q 1353 -1331 966 -1331 
L 506 -1331 
L 506 -850 
L 844 -850 
Q 1081 -850 1212 -737 
Q 1344 -625 1503 -206 
L 1606 56 
L 191 3500 
L 800 3500 
L 1894 763 
L 2988 3500 
L 3597 3500 
L 2059 -325 
z
" transform="scale(0.015625)"/>
       <path id="DejaVuSans-46" d="M 3122 3366 
L 3122 2828 
Q 2878 2963 2633 3030 
Q 2388 3097 2138 3097 
Q 1578 3097 1268 2742 
Q 959 2388 959 1747 
Q 959 1106 1268 751 
Q 1578 397 2138 397 
Q 2388 397 2633 464 
Q 2878 531 3122 666 
L 3122 134 
Q 2881 22 2623 -34 
Q 2366 -91 2075 -91 
Q 1284 -91 818 406 
Q 353 903 353 1747 
Q 353 2603 823 3093 
Q 1294 3584 2113 3584 
Q 2378 3584 2631 3529 
Q 2884 3475 3122 3366 
z
" transform="scale(0.015625)"/>
       <path id="DejaVuSans-4b" d="M 3513 2113 
L 3513 0 
L 2938 0 
L 2938 2094 
Q 2938 2591 2744 2837 
Q 2550 3084 2163 3084 
Q 1697 3084 1428 2787 
Q 1159 2491 1159 1978 
L 1159 0 
L 581 0 
L 581 4863 
L 1159 4863 
L 1159 2956 
Q 1366 3272 1645 3428 
Q 1925 3584 2291 3584 
Q 2894 3584 3203 3211 
Q 3513 2838 3513 2113 
z
" transform="scale(0.015625)"/>
       <path id="DejaVuSans-4f" d="M 603 4863 
L 1178 4863 
L 1178 0 
L 603 0 
L 603 4863 
z
" transform="scale(0.015625)"/>
       <path id="DejaVuSans-56" d="M 2834 3397 
L 2834 2853 
Q 2591 2978 2328 3040 
Q 2066 3103 1784 3103 
Q 1356 3103 1142 2972 
Q 928 2841 928 2578 
Q 928 2378 1081 2264 
Q 1234 2150 1697 2047 
L 1894 2003 
Q 2506 1872 2764 1633 
Q 3022 1394 3022 966 
Q 3022 478 2636 193 
Q 2250 -91 1575 -91 
Q 1294 -91 989 -36 
Q 684 19 347 128 
L 347 722 
Q 666 556 975 473 
Q 1284 391 1588 391 
Q 1994 391 2212 530 
Q 2431 669 2431 922 
Q 2431 1156 2273 1281 
Q 2116 1406 1581 1522 
L 1381 1569 
Q 847 1681 609 1914 
Q 372 2147 372 2553 
Q 372 3047 722 3315 
Q 1072 3584 1716 3584 
Q 2034 3584 2315 3537 
Q 2597 3491 2834 3397 
z
" transform="scale(0.015625)"/>
      </defs>
      <use xlink:href="#DejaVuSans-36"/>
      <use xlink:href="#DejaVuSans-48" transform="translate(63.484375 0)"/>
      <use xlink:href="#DejaVuSans-5c" transform="translate(125.015625 0)"/>
      <use xlink:href="#DejaVuSans-46" transform="translate(184.203125 0)"/>
      <use xlink:href="#DejaVuSans-4b" transform="translate(239.1875 0)"/>
      <use xlink:href="#DejaVuSans-48" transform="translate(302.5625 0)"/>
      <use xlink:href="#DejaVuSans-4f" transform="translate(364.09375 0)"/>
      <use xlink:href="#DejaVuSans-4f" transform="translate(391.875 0)"/>
      <use xlink:href="#DejaVuSans-48" transform="translate(419.65625 0)"/>
      <use xlink:href="#DejaVuSans-56" transform="translate(481.1875 0)"/>
     </g>
    </g>
    <g id="patch_4">
     <path d="M 15.3 492.895234 
L 33.3 492.895234 
L 33.3 486.595234 
L 15.3 486.595234 
z
" style="fill: #bdc3c7; stroke: #888888; stroke-linejoin: miter"/>
    </g>
    <g id="text_3">
     <!-- Neighbors -->
     <g transform="translate(40.5 492.895234) scale(0.09 -0.09)">
      <defs>
       <path id="DejaVuSans-31" d="M 628 4666 
L 1478 4666 
L 3547 763 
L 3547 4666 
L 4159 4666 
L 4159 0 
L 3309 0 
L 1241 3903 
L 1241 0 
L 628 0 
L 628 4666 
z
" transform="scale(0.015625)"/>
       <path id="DejaVuSans-4c" d="M 603 3500 
L 1178 3500 
L 1178 0 
L 603 0 
L 603 3500 
z
M 603 4863 
L 1178 4863 
L 1178 4134 
L 603 4134 
L 603 4863 
z
" transform="scale(0.015625)"/>
       <path id="DejaVuSans-4a" d="M 2906 1791 
Q 2906 2416 2648 2759 
Q 2391 3103 1925 3103 
Q 1463 3103 1205 2759 
Q 947 2416 947 1791 
Q 947 1169 1205 825 
Q 1463 481 1925 481 
Q 2391 481 2648 825 
Q 2906 1169 2906 1791 
z
M 3481 434 
Q 3481 -459 3084 -895 
Q 2688 -1331 1869 -1331 
Q 1566 -1331 1297 -1286 
Q 1028 -1241 775 -1147 
L 775 -588 
Q 1028 -725 1275 -790 
Q 1522 -856 1778 -856 
Q 2344 -856 2625 -561 
Q 2906 -266 2906 331 
L 2906 616 
Q 2728 306 2450 153 
Q 2172 0 1784 0 
Q 1141 0 747 490 
Q 353 981 353 1791 
Q 353 2603 747 3093 
Q 1141 3584 1784 3584 
Q 2172 3584 2450 3431 
Q 2728 3278 2906 2969 
L 2906 3500 
L 3481 3500 
L 3481 434 
z
" transform="scale(0.015625)"/>
       <path id="DejaVuSans-45" d="M 3116 1747 
Q 3116 2381 2855 2742 
Q 2594 3103 2138 3103 
Q 1681 3103 1420 2742 
Q 1159 2381 1159 1747 
Q 1159 1113 1420 752 
Q 1681 391 2138 391 
Q 2594 391 2855 752 
Q 3116 1113 3116 1747 
z
M 1159 2969 
Q 1341 3281 1617 3432 
Q 1894 3584 2278 3584 
Q 2916 3584 3314 3078 
Q 3713 2572 3713 1747 
Q 3713 922 3314 415 
Q 2916 -91 2278 -91 
Q 1894 -91 1617 61 
Q 1341 213 1159 525 
L 1159 0 
L 581 0 
L 581 4863 
L 1159 4863 
L 1159 2969 
z
" transform="scale(0.015625)"/>
       <path id="DejaVuSans-52" d="M 1959 3097 
Q 1497 3097 1228 2736 
Q 959 2375 959 1747 
Q 959 1119 1226 758 
Q 1494 397 1959 397 
Q 2419 397 2687 759 
Q 2956 1122 2956 1747 
Q 2956 2369 2687 2733 
Q 2419 3097 1959 3097 
z
M 1959 3584 
Q 2709 3584 3137 3096 
Q 3566 2609 3566 1747 
Q 3566 888 3137 398 
Q 2709 -91 1959 -91 
Q 1206 -91 779 398 
Q 353 888 353 1747 
Q 353 2609 779 3096 
Q 1206 3584 1959 3584 
z
" transform="scale(0.015625)"/>
       <path id="DejaVuSans-55" d="M 2631 2963 
Q 2534 3019 2420 3045 
Q 2306 3072 2169 3072 
Q 1681 3072 1420 2755 
Q 1159 2438 1159 1844 
L 1159 0 
L 581 0 
L 581 3500 
L 1159 3500 
L 1159 2956 
Q 1341 3275 1631 3429 
Q 1922 3584 2338 3584 
Q 2397 3584 2469 3576 
Q 2541 3569 2628 3553 
L 2631 2963 
z
" transform="scale(0.015625)"/>
      </defs>
      <use xlink:href="#DejaVuSans-31"/>
      <use xlink:href="#DejaVuSans-48" transform="translate(74.8125 0)"/>
      <use xlink:href="#DejaVuSans-4c" transform="translate(136.34375 0)"/>
      <use xlink:href="#DejaVuSans-4a" transform="translate(164.125 0)"/>
      <use xlink:href="#DejaVuSans-4b" transform="translate(227.609375 0)"/>
      <use xlink:href="#DejaVuSans-45" transform="translate(290.984375 0)"/>
      <use xlink:href="#DejaVuSans-52" transform="translate(354.46875 0)"/>
      <use xlink:href="#DejaVuSans-55" transform="translate(415.65625 0)"/>
      <use xlink:href="#DejaVuSans-56" transform="translate(456.765625 0)"/>
     </g>
    </g>
   </g>
  </g>
 </g>
 <defs>
  <clipPath id="pde720b8d67">
   <rect x="7.2" y="30.117344" width="663.296778" height="473.04"/>
  </clipPath>
 </defs>
</svg>
