<?xml version="1.0" encoding="utf-8" standalone="no"?>
<!DOCTYPE svg PUBLIC "-//W3C//DTD SVG 1.1//EN"
  "http://www.w3.org/Graphics/SVG/1.1/DTD/svg11.dtd">
<svg xmlns:xlink="http://www.w3.org/1999/xlink" width="477.13293pt" height="510.357344pt" viewBox="0 0 477.13293 510.357344" xmlns="http://www.w3.org/2000/svg" version="1.1">
 <metadata>
  <rdf:RDF xmlns:dc="http://purl.org/dc/elements/1.1/" xmlns:cc="http://creativecommons.org/ns#" xmlns:rdf="http://www.w3.org/1999/02/22-rdf-syntax-ns#">
   <cc:Work>
    <dc:type rdf:resource="http://purl.org/dc/dcmitype/StillImage"/>
    <dc:date>2026-06-19T08:36:18.500915</dc:date>
    <dc:format>image/svg+xml</dc:format>
    <dc:creator>
     <cc:Agent>
      <dc:title>Matplotlib v3.11.0, https://matplotlib.org/</dc:title>
     </cc:Agent>
    </dc:creator>
   </cc:Work>
  </rdf:RDF>
 </metadata>
 <defs>
  <style type="text/css">*{stroke-linejoin: round; stroke-linecap: butt}</style>
 </defs>
 <g id="figure_1">
  <g id="patch_1">
   <path d="M 0 510.357344 
L 477.13293 510.357344 
L 477.13293 0 
L 0 0 
z
" style="fill: #d6eaf8"/>
  </g>
  <g id="axes_1">
   <g id="PatchCollection_1">
    <path d="M -45.753162 55.107332 
L -45.131018 53.484717 
L -43.575659 51.862102 
L -42.953515 51.567081 
L -41.398156 50.977039 
L -41.087085 50.682018 
L -41.087085 49.944466 
L -40.776013 49.354424 
L -40.464941 48.911892 
L -39.842797 48.469361 
L -39.842797 48.02683 
L -40.153869 48.02683 
L -40.464941 47.879319 
L -40.464941 47.584298 
L -40.464941 47.289277 
L -37.976367 44.781599 
L -35.17672 41.388859 
L -26.777782 25.310218 
L -25.222423 18.524736 
L -23.667064 15.279506 
L -15.268125 2.741116 
L -13.712766 0.97099 
L -11.535263 -0.061583 
L -8.113474 -0.504114 
L -0.958822 0.380948 
L 2.77404 -0.356604 
L 10.550835 -4.486897 
L 18.32763 -8.912211 
L 19.571917 -9.797274 
L 20.19406 -10.534826 
L 21.127276 -12.747483 
L 21.749419 -13.485036 
L 22.682635 -13.927567 
L 23.304778 -13.927567 
L 23.61585 -13.632546 
L 30.770502 -13.190015 
L 32.948004 -13.485036 
L 33.88122 -13.190015 
L 34.503363 -12.747483 
L 35.436579 -12.009931 
L 36.058722 -11.5674 
L 37.614081 -11.272379 
L 38.858368 -11.272379 
L 41.346943 -11.71491 
L 42.59123 -11.71491 
L 46.324092 -11.124868 
L 48.190523 -11.71491 
L 51.923384 -14.075078 
L 52.545528 -14.517609 
L 54.411959 -13.632546 
L 55.967318 -13.632546 
L 57.522677 -14.517609 
L 58.766964 -16.140224 
L 59.078036 -17.025287 
L 59.078036 -19.090433 
L 58.766964 -19.975496 
L 59.078036 -20.418028 
L 60.322323 -20.418028 
L 60.944466 -19.975496 
L 61.255538 -18.205371 
L 62.188754 -17.762839 
L 63.433041 -17.320308 
L 63.433041 -16.877776 
L 63.121969 -16.140224 
L 63.744113 -15.550182 
L 65.299472 -15.255161 
L 67.788046 -15.697693 
L 69.654477 -16.582755 
L 71.209836 -17.467818 
L 71.520908 -18.647902 
L 72.143051 -22.483174 
L 72.143051 -23.958279 
L 70.587692 -34.284012 
L 70.898764 -37.971773 
L 71.831979 -41.512025 
L 71.520908 -43.13464 
L 70.587692 -44.609744 
L 69.965549 -44.904765 
L 66.854831 -45.494807 
L 65.299472 -46.084849 
L 64.366256 -46.674891 
L 62.499825 -48.887548 
L 61.877682 -49.6251 
L 61.877682 -50.362653 
L 61.255538 -50.805184 
L 59.078036 -51.690247 
L 58.14482 -52.280289 
L 56.589461 -53.902904 
L 54.72303 -54.935477 
L 53.167671 -55.525519 
L 50.679097 -55.82054 
L 50.056953 -56.115561 
L 50.368025 -57.148134 
L 50.368025 -58.91826 
L 50.679097 -59.803323 
L 52.545528 -62.01598 
L 57.833748 -64.376147 
L 60.011251 -66.146273 
L 61.56661 -67.031336 
L 64.055184 -67.621378 
L 65.299472 -67.178846 
L 64.366256 -65.26121 
L 70.27662 -65.26121 
L 72.765195 -66.293783 
L 74.009482 -68.50644 
L 74.320554 -70.719097 
L 75.253769 -72.489223 
L 75.253769 -73.521796 
L 74.942697 -76.029474 
L 74.942697 -77.062047 
L 75.253769 -77.7996 
L 76.809128 -81.487362 
L 77.1202 -82.962466 
L 76.809128 -84.437571 
L 75.875913 -86.207697 
L 71.520908 -91.665584 
L 70.587692 -94.025751 
L 70.587692 -95.943387 
L 71.209836 -101.696296 
L 99.206298 -100.663722 
L 102.93916 -99.631149 
L 103.250231 -99.631149 
L 103.872375 -99.336128 
L 104.494519 -98.893597 
L 104.80559 -98.746086 
L 105.427734 -98.746086 
L 105.738806 -98.893597 
L 105.738806 -99.188618 
L 106.360949 -99.336128 
L 108.849524 -99.92617 
L 109.471667 -99.92617 
L 110.404883 -99.77866 
L 111.338098 -99.041107 
L 112.271314 -98.893597 
L 112.893457 -99.041107 
L 114.448816 -99.483639 
L 115.07096 -99.483639 
L 115.382032 -99.336128 
L 116.315247 -98.451065 
L 116.626319 -98.156044 
L 116.937391 -98.303555 
L 118.181678 -98.598576 
L 118.803822 -98.598576 
L 119.425965 -98.746086 
L 120.048109 -98.598576 
L 120.670252 -98.156044 
L 121.603468 -99.188618 
L 123.158827 -98.303555 
L 124.714186 -98.451065 
L 126.269545 -98.598576 
L 127.513832 -98.451065 
L 128.758119 -97.270982 
L 129.069191 -95.648366 
L 129.069191 -93.878241 
L 128.758119 -92.403136 
L 127.20276 -89.305416 
L 126.891688 -87.977822 
L 127.513832 -86.207697 
L 128.447047 -84.880102 
L 129.691335 -84.14255 
L 131.246694 -83.995039 
L 132.802053 -84.14255 
L 134.357412 -83.552508 
L 135.912771 -83.700019 
L 136.845986 -84.585081 
L 137.157058 -86.207697 
L 138.401345 -89.747948 
L 141.823135 -89.747948 
L 144.933853 -87.977822 
L 147.111355 -86.060186 
L 147.111355 -85.765165 
L 147.111355 -85.175123 
L 147.111355 -84.437571 
L 148.044571 -83.552508 
L 148.977786 -83.257487 
L 151.466361 -83.109977 
L 153.02172 -82.519935 
L 153.332792 -81.634872 
L 153.643863 -80.89732 
L 155.510294 -80.602299 
L 161.109587 -80.89732 
L 162.976017 -80.749809 
L 164.531376 -80.012257 
L 166.086735 -78.979684 
L 168.57531 -76.176985 
L 168.886382 -75.439432 
L 168.886382 -74.84939 
L 169.197453 -74.406859 
L 170.441741 -74.406859 
L 170.752812 -74.406859 
L 171.374956 -74.70188 
L 173.86353 -76.029474 
L 175.418889 -76.619516 
L 176.974248 -76.914537 
L 178.529607 -76.914537 
L 180.396038 -76.472006 
L 184.1289 -75.144411 
L 185.684259 -73.964328 
L 187.861761 -70.276566 
L 189.41712 -69.539014 
L 204.037495 -73.374286 
L 207.148213 -75.144411 
L 209.947859 -77.652089 
L 211.503218 -78.389642 
L 213.680721 -78.537152 
L 218.968942 -76.767027 
L 220.835372 -76.619516 
L 222.07966 -76.914537 
L 225.190378 -78.684663 
L 226.123593 -79.274705 
L 226.434665 -79.422215 
L 227.056808 -79.422215 
L 227.36788 -79.422215 
L 227.36788 -79.274705 
L 232.656101 -77.062047 
L 234.522532 -76.619516 
L 241.366111 -76.324495 
L 244.787901 -76.914537 
L 251.320409 -79.422215 
L 255.053271 -80.012257 
L 262.518994 -80.602299 
L 265.31864 -80.307278 
L 270.917933 -78.242131 
L 273.406507 -78.094621 
L 273.406507 -76.472006 
L 271.851148 -76.176985 
L 269.673645 -76.324495 
L 268.429358 -75.586943 
L 268.118286 -73.669307 
L 268.429358 -70.129055 
L 268.429358 -68.211419 
L 266.873999 -64.671168 
L 264.385425 -62.16349 
L 263.141137 -59.655812 
L 264.696496 -56.115561 
L 266.251855 -54.640456 
L 271.540076 -52.280289 
L 273.095435 -51.100205 
L 276.517225 -46.37987 
L 278.072584 -45.199786 
L 279.627943 -44.019703 
L 281.494374 -43.13464 
L 283.360805 -42.544598 
L 284.916164 -42.544598 
L 287.71581 -43.724682 
L 288.960097 -43.724682 
L 290.515456 -44.167213 
L 291.759743 -45.494807 
L 292.692959 -47.117422 
L 293.315102 -49.6251 
L 293.937246 -49.920121 
L 294.559389 -49.920121 
L 295.181533 -50.362653 
L 296.42582 -52.280289 
L 296.736892 -52.72282 
L 297.047964 -52.870331 
L 299.84761 -54.787967 
L 300.780825 -55.968051 
L 301.714041 -59.655812 
L 302.336184 -60.540875 
L 303.580472 -60.835896 
L 305.757974 -60.688385 
L 309.490836 -62.01598 
L 311.046195 -62.01598 
L 313.223698 -61.425938 
L 314.779057 -60.393365 
L 318.200846 -54.935477 
L 320.378349 -53.460373 
L 322.24478 -52.57531 
L 323.800139 -51.247716 
L 324.422282 -48.887548 
L 324.111211 -48.002485 
L 323.177995 -46.527381 
L 323.177995 -45.789828 
L 323.489067 -44.904765 
L 325.977641 -42.544598 
L 329.399431 -35.906627 
L 331.888006 -33.251438 
L 335.620867 -33.398949 
L 336.865154 -33.988991 
L 337.79837 -34.874054 
L 338.731585 -36.349158 
L 339.353729 -37.971773 
L 339.664801 -39.151857 
L 340.286944 -40.03692 
L 341.842303 -41.069493 
L 343.708734 -42.102066 
L 344.953021 -42.397087 
L 344.330878 -44.314724 
L 345.264093 -45.494807 
L 347.130524 -46.23236 
L 348.996955 -47.559954 
L 348.996955 -48.149996 
L 348.685883 -49.035058 
L 348.685883 -49.920121 
L 349.619098 -50.215142 
L 349.93017 -50.657674 
L 348.996955 -52.280289 
L 349.308027 -53.165352 
L 350.863386 -53.755393 
L 354.907319 -53.460373 
L 355.840534 -54.640456 
L 356.462678 -55.378009 
L 359.262324 -57.885687 
L 360.506611 -58.623239 
L 361.128755 -58.180708 
L 361.439827 -57.885687 
L 362.995186 -57.443155 
L 362.684114 -58.623239 
L 363.306258 -59.06577 
L 363.928401 -59.06577 
L 364.861617 -59.508302 
L 365.172688 -60.393365 
L 365.48376 -60.540875 
L 366.105904 -60.098344 
L 366.416976 -59.508302 
L 367.039119 -60.540875 
L 370.460909 -61.868469 
L 371.083053 -61.573448 
L 371.394124 -60.983406 
L 372.016268 -60.393365 
L 374.815914 -59.803323 
L 377.926632 -58.475728 
L 379.481991 -58.180708 
L 381.659494 -58.180708 
L 382.281638 -58.180708 
L 383.214853 -57.738176 
L 384.45914 -56.705603 
L 385.081284 -56.263071 
L 385.703427 -56.115561 
L 386.014499 -55.968051 
L 387.258786 -55.968051 
L 388.192002 -55.82054 
L 389.125217 -55.230498 
L 390.991648 -53.902904 
L 391.924863 -53.312862 
L 393.791294 -52.870331 
L 396.59094 -51.247716 
L 398.457371 -50.952695 
L 400.01273 -50.510163 
L 403.123448 -48.149996 
L 404.678807 -47.412443 
L 405.300951 -47.412443 
L 407.167382 -47.707464 
L 407.789525 -47.707464 
L 408.722741 -47.264933 
L 409.967028 -46.23236 
L 410.900243 -45.642318 
L 412.455602 -45.199786 
L 417.432751 -45.052276 
L 419.299182 -47.264933 
L 420.543469 -48.887548 
L 420.854541 -49.920121 
L 420.854541 -51.690247 
L 420.854541 -53.165352 
L 421.476685 -54.640456 
L 422.720972 -55.968051 
L 425.520618 -57.738176 
L 435.163844 -60.983406 
L 437.030275 -62.458511 
L 438.274562 -63.491084 
L 442.007423 -65.1137 
L 443.251711 -65.26121 
L 448.539931 -64.376147 
L 450.717434 -66.441294 
L 451.028506 -67.621378 
L 450.717434 -69.686524 
L 451.961721 -69.981545 
L 452.894936 -71.309139 
L 453.206008 -73.079265 
L 453.206008 -74.111838 
L 452.583865 -74.55437 
L 451.028506 -74.84939 
L 450.406362 -75.291922 
L 450.09529 -76.029474 
L 450.09529 -76.914537 
L 449.784218 -77.504579 
L 447.295644 -78.832173 
L 445.740285 -80.307278 
L 444.495998 -81.782382 
L 444.184926 -82.667445 
L 445.429213 -84.29006 
L 449.473147 -85.175123 
L 451.028506 -86.207697 
L 451.650649 -86.355207 
L 451.961721 -86.207697 
L 453.206008 -85.617655 
L 454.450295 -85.175123 
L 455.072439 -85.470144 
L 455.694583 -86.060186 
L 456.93887 -86.207697 
L 463.471378 -84.732592 
L 467.204239 -83.552508 
L 477.469609 -78.242131 
L 480.269255 -76.767027 
L 481.824614 -75.144411 
L 482.757829 -73.079265 
L 483.068901 -71.161629 
L 482.135686 -69.243993 
L 481.20247 -67.473867 
L 480.269255 -65.703741 
L 479.958183 -63.343574 
L 480.269255 -62.458511 
L 481.20247 -61.130917 
L 481.513542 -60.245854 
L 482.135686 -59.213281 
L 483.068901 -59.360791 
L 484.935332 -59.950833 
L 486.179619 -59.213281 
L 487.112835 -57.738176 
L 488.04605 -55.82054 
L 487.734978 -53.755393 
L 486.490691 -50.362653 
L 486.179619 -48.445017 
L 486.490691 -46.822401 
L 488.04605 -45.494807 
L 489.912481 -45.494807 
L 492.089983 -45.642318 
L 493.956414 -45.347297 
L 495.511773 -44.019703 
L 495.822845 -42.544598 
L 495.822845 -40.921983 
L 495.822845 -39.004347 
L 496.133917 -37.971773 
L 496.756061 -37.234221 
L 497.378204 -36.349158 
L 497.378204 -35.316585 
L 493.023199 -13.042504 
L 494.578558 -13.042504 
L 496.133917 -12.452462 
L 497.378204 -11.5674 
L 498.933563 -11.124868 
L 500.799994 -11.272379 
L 502.355353 -12.009931 
L 503.288568 -12.304952 
L 504.532856 -11.419889 
L 506.399286 -5.076939 
L 506.710358 -3.601834 
L 507.643574 -1.831709 
L 508.576789 -0.209093 
L 509.510004 1.118501 
L 514.176081 3.183647 
L 516.664656 3.331158 
L 518.842158 1.708543 
L 519.15323 2.741116 
L 519.464302 4.658752 
L 520.086446 6.281367 
L 520.708589 7.461451 
L 521.641805 7.903982 
L 524.130379 7.903982 
L 529.107528 9.526597 
L 531.907174 10.706681 
L 533.773605 12.329296 
L 532.218246 12.771828 
L 530.351815 13.656891 
L 529.4186 14.689464 
L 530.040743 16.017058 
L 531.596102 16.312079 
L 533.151461 16.017058 
L 534.084677 16.459589 
L 533.773605 18.672246 
L 532.529318 19.85233 
L 530.973959 20.442372 
L 529.4186 20.589883 
L 527.863241 20.294862 
L 524.441451 19.557309 
L 523.508235 20.147351 
L 522.886092 22.212498 
L 522.886092 22.507519 
L 523.197164 22.95005 
L 523.197164 23.392581 
L 523.197164 24.130134 
L 522.886092 24.277644 
L 521.952876 24.425155 
L 521.641805 24.425155 
L 521.019661 24.867686 
L 519.15323 25.752749 
L 518.531087 26.04777 
L 517.597871 27.522875 
L 516.975728 30.768105 
L 516.353584 32.095699 
L 515.420369 32.53823 
L 513.86501 32.53823 
L 512.931794 32.833251 
L 512.309651 33.865825 
L 512.309651 34.750888 
L 512.309651 35.48844 
L 512.309651 36.521013 
L 511.376435 38.291139 
L 507.332502 42.273921 
L 506.710358 43.454005 
L 506.088215 44.781599 
L 505.777143 46.404215 
L 506.088215 47.731809 
L 507.332502 48.616872 
L 508.887861 48.17434 
L 510.132148 47.436788 
L 511.998579 47.289277 
L 513.242866 47.584298 
L 514.798225 47.584298 
L 516.353584 47.436788 
L 517.908943 46.994256 
L 519.464302 45.961683 
L 520.397517 44.634089 
L 522.57502 39.913754 
L 523.819307 39.913754 
L 525.685738 40.503796 
L 527.552169 40.356285 
L 528.485384 40.208775 
L 529.107528 40.208775 
L 530.662887 40.798817 
L 531.596102 40.651306 
L 533.151461 39.766243 
L 534.395749 39.766243 
L 536.262179 40.651306 
L 538.12861 42.421432 
L 539.372897 44.339068 
L 539.995041 46.404215 
L 539.995041 55.402353 
L 539.683969 57.024968 
L 539.372897 57.762521 
L 538.750754 58.500073 
L 536.884323 63.367918 
L 536.573251 65.138044 
L 539.061826 66.023107 
L 539.372897 67.645722 
L 540.617185 84.904447 
L 541.5504 87.117104 
L 544.350046 90.804865 
L 546.527549 94.787648 
L 548.082908 95.672711 
L 549.949339 95.672711 
L 551.815769 95.37769 
L 553.060057 94.787648 
L 553.993272 94.345117 
L 554.615416 94.492627 
L 555.237559 95.820221 
L 555.548631 97.000305 
L 555.859703 99.212962 
L 556.170775 100.393046 
L 558.037205 101.57313 
L 560.214708 102.015661 
L 564.880785 102.163172 
L 566.436144 103.195745 
L 567.680431 104.96587 
L 568.613647 107.178527 
L 569.23579 109.243674 
L 569.546862 111.456331 
L 568.924718 113.521478 
L 567.058288 117.651771 
L 566.125072 118.684344 
L 565.502929 119.716917 
L 565.191857 120.897001 
L 564.880785 122.224595 
L 563.325426 124.289742 
L 561.147923 125.469826 
L 556.792918 127.092441 
L 555.237559 128.567545 
L 553.371128 130.927713 
L 552.437913 133.14037 
L 553.371128 134.172943 
L 554.304344 134.467964 
L 553.993272 135.353027 
L 553.060057 136.23809 
L 551.193626 136.975642 
L 551.193626 137.713194 
L 551.504698 138.598257 
L 551.815769 139.33581 
L 552.126841 139.48332 
L 552.437913 139.48332 
L 553.060057 139.630831 
L 553.371128 140.073362 
L 553.371128 141.695977 
L 553.6822 142.138508 
L 553.371128 142.286019 
L 553.060057 142.433529 
L 552.748985 142.72855 
L 553.060057 143.466103 
L 553.6822 143.613613 
L 555.237559 143.466103 
L 555.548631 145.383739 
L 552.437913 168.100351 
L 552.126841 168.837903 
L 552.437913 170.90305 
L 552.748985 172.820686 
L 553.060057 174.443301 
L 553.6822 175.770895 
L 558.659349 182.851398 
L 560.214708 184.474013 
L 561.458995 185.211565 
L 563.325426 185.654097 
L 565.502929 185.654097 
L 567.058288 185.506586 
L 568.613647 184.916544 
L 572.035437 182.998908 
L 573.901867 182.556377 
L 577.323657 182.556377 
L 577.945801 183.44144 
L 575.457226 190.374432 
L 575.146155 192.439578 
L 572.346508 199.962612 
L 572.346508 203.060332 
L 576.701514 204.830458 
L 577.634729 204.682947 
L 578.567944 204.387926 
L 579.50116 204.535437 
L 580.434375 206.748094 
L 581.367591 207.633156 
L 583.545093 209.108261 
L 586.966883 211.173408 
L 588.21117 212.501002 
L 587.900098 212.648512 
L 586.655811 213.681086 
L 584.478309 213.976107 
L 582.92295 213.976107 
L 581.056519 214.123617 
L 573.279724 218.1064 
L 572.035437 219.433994 
L 571.413293 221.646651 
L 570.791149 223.711797 
L 570.480078 227.989601 
L 568.924718 235.512635 
L 569.857934 238.315334 
L 573.590796 239.495418 
L 575.768298 239.642928 
L 580.745447 241.265543 
L 581.056519 241.265543 
L 581.989734 240.675501 
L 582.611878 240.675501 
L 583.234021 241.118033 
L 583.856165 242.150606 
L 584.167237 242.740648 
L 586.033668 244.068242 
L 586.655811 244.805794 
L 588.522242 248.641067 
L 589.455457 249.526129 
L 591.944032 251.148745 
L 592.566175 252.033807 
L 592.877247 253.656423 
L 592.566175 256.901653 
L 592.877247 258.819289 
L 593.810463 262.35954 
L 593.810463 263.982155 
L 593.188319 266.194812 
L 593.188319 268.259959 
L 593.499391 270.030085 
L 595.365822 273.865357 
L 590.388673 274.307888 
L 587.900098 274.012867 
L 586.033668 272.832783 
L 583.234021 267.374896 
L 581.367591 264.867218 
L 579.50116 265.162239 
L 579.190088 266.489833 
L 579.50116 267.817427 
L 579.190088 269.145022 
L 577.945801 269.735064 
L 576.390442 269.735064 
L 574.835083 269.292532 
L 573.901867 268.55498 
L 572.65758 267.817427 
L 572.035437 266.637344 
L 571.724365 265.30975 
L 571.102221 264.277176 
L 569.857934 263.392113 
L 568.613647 263.097093 
L 567.369359 263.392113 
L 564.880785 263.982155 
L 563.94757 263.834645 
L 562.703282 263.982155 
L 561.770067 263.982155 
L 561.147923 263.687134 
L 560.214708 262.802072 
L 559.592564 262.654561 
L 557.726134 262.654561 
L 554.926487 263.834645 
L 553.060057 264.129666 
L 550.26041 263.392113 
L 549.016123 263.539624 
L 544.661118 266.932365 
L 544.350046 267.522407 
L 544.350046 268.55498 
L 544.661118 269.587553 
L 545.283262 270.472616 
L 545.594333 271.6527 
L 545.905405 273.422825 
L 544.97219 278.438181 
L 544.97219 280.060796 
L 544.97219 281.683412 
L 544.661118 282.715985 
L 543.416831 284.191089 
L 543.105759 285.076152 
L 550.26041 289.796487 
L 558.970421 292.451676 
L 559.592564 292.304165 
L 564.880785 290.53404 
L 565.814 290.53404 
L 566.125072 291.271592 
L 565.502929 292.599186 
L 564.880785 293.631759 
L 564.258641 296.286948 
L 564.258641 297.614542 
L 564.880785 298.794626 
L 566.436144 299.827199 
L 567.991503 301.449814 
L 568.924718 303.36745 
L 569.23579 304.252513 
L 569.546862 305.285086 
L 567.991503 305.137576 
L 566.747216 304.400024 
L 566.125072 303.662471 
L 565.191857 303.514961 
L 561.458995 304.105003 
L 560.214708 303.957492 
L 560.52578 304.695045 
L 560.214708 306.907702 
L 559.281493 310.300442 
L 555.237559 316.790903 
L 554.926487 320.331154 
L 555.548631 321.216217 
L 557.415062 322.838832 
L 558.037205 323.871405 
L 557.726134 324.756468 
L 557.10399 325.199 
L 556.792918 325.494021 
L 556.170775 326.084062 
L 555.859703 327.411657 
L 555.548631 330.361866 
L 555.237559 331.68946 
L 552.437913 334.78718 
L 552.437913 335.229712 
L 552.748985 336.114774 
L 552.437913 336.409795 
L 552.126841 336.704816 
L 551.193626 337.294858 
L 550.882554 337.737389 
L 549.016123 339.950047 
L 548.705051 340.835109 
L 548.705051 341.572662 
L 549.016123 342.900256 
L 549.016123 343.637808 
L 546.527549 346.292997 
L 543.416831 344.965402 
L 539.995041 342.457724 
L 537.195395 341.720172 
L 534.084677 342.605235 
L 532.529318 342.752745 
L 530.351815 340.392578 
L 528.174312 341.572662 
L 524.130379 345.112913 
L 521.641805 343.490298 
L 518.842158 341.425151 
L 517.286799 339.507515 
L 516.664656 336.999837 
L 517.286799 333.754607 
L 507.02143 333.312075 
L 506.088215 334.934691 
L 503.910712 337.737389 
L 503.288568 339.507515 
L 503.288568 342.605235 
L 502.977497 343.047766 
L 502.355353 343.932829 
L 502.355353 344.522871 
L 502.355353 344.965402 
L 502.666425 345.260423 
L 503.288568 345.260423 
L 503.288568 345.702955 
L 503.59964 347.768101 
L 503.288568 349.538227 
L 502.355353 351.013332 
L 500.799994 352.635947 
L 498.31142 354.111051 
L 498.000348 354.553583 
L 497.689276 355.291135 
L 497.378204 357.061261 
L 497.067132 357.946324 
L 496.444989 358.536366 
L 494.88963 358.978897 
L 494.267486 359.568939 
L 492.712127 361.486575 
L 491.778912 362.666659 
L 491.46784 363.551721 
L 491.46784 365.026826 
L 492.401055 366.649441 
L 492.712127 368.272056 
L 492.089983 370.042182 
L 491.156768 370.632224 
L 487.423906 372.107329 
L 486.179619 372.254839 
L 484.62426 369.599651 
L 483.379973 368.862098 
L 483.068901 370.927245 
L 482.135686 370.484713 
L 481.824614 370.632224 
L 481.513542 371.959818 
L 481.20247 372.107329 
L 479.024968 372.69737 
L 478.402824 372.992391 
L 476.847465 372.992391 
L 475.91425 373.582433 
L 474.669963 374.615007 
L 473.425675 375.500069 
L 472.49246 375.79509 
L 471.248173 376.090111 
L 470.626029 376.237622 
L 470.003886 376.385132 
L 469.07067 377.270195 
L 469.692814 374.319986 
L 469.381742 373.139902 
L 467.826383 372.254839 
L 467.204239 371.664797 
L 467.204239 370.189693 
L 466.582096 369.894672 
L 464.715665 369.894672 
L 464.093521 369.894672 
L 461.916019 367.829525 
L 460.671732 362.371638 
L 459.427444 360.601512 
L 458.183157 360.454002 
L 455.383511 361.191554 
L 453.828152 361.044043 
L 453.51708 360.454002 
L 452.894936 358.683876 
L 452.272793 357.946324 
L 451.339577 357.503792 
L 450.717434 357.208771 
L 449.784218 357.061261 
L 448.228859 357.061261 
L 447.295644 357.356282 
L 446.984572 357.651303 
L 446.984572 358.536366 
L 446.362429 358.831386 
L 446.051357 358.978897 
L 444.495998 360.896533 
L 443.562782 360.01147 
L 442.007423 357.061261 
L 441.074208 358.536366 
L 438.585634 361.044043 
L 437.652418 361.339064 
L 437.341346 361.044043 
L 438.274562 360.306491 
L 438.896705 359.421428 
L 439.207777 358.388855 
L 439.207777 357.208771 
L 439.518849 356.028688 
L 440.452064 355.143625 
L 442.007423 353.816031 
L 444.184926 350.865821 
L 444.80707 349.095696 
L 444.495998 347.768101 
L 446.051357 345.997976 
L 446.6735 344.965402 
L 446.984572 342.752745 
L 447.606716 341.425151 
L 448.228859 340.245067 
L 449.162075 339.507515 
L 447.295644 337.442369 
L 447.295644 334.492159 
L 448.228859 331.394439 
L 449.162075 329.034272 
L 446.984572 326.231573 
L 446.051357 324.756468 
L 443.873854 321.953769 
L 442.007423 318.266008 
L 441.074208 314.578246 
L 441.38528 310.890484 
L 442.318495 307.055212 
L 442.629567 306.907702 
L 443.251711 306.022639 
L 443.251711 305.137576 
L 443.251711 304.252513 
L 442.629567 303.36745 
L 441.696352 302.187367 
L 440.763136 302.039856 
L 439.829921 302.777408 
L 438.896705 304.105003 
L 438.896705 303.072429 
L 439.829921 301.449814 
L 440.140993 300.564751 
L 438.585634 294.221801 
L 438.585634 293.189228 
L 438.274562 292.156655 
L 437.341346 291.714123 
L 435.163844 291.271592 
L 433.919557 290.386529 
L 433.919557 288.026362 
L 434.5417 285.518684 
L 435.163844 284.191089 
L 435.785987 283.748558 
L 435.785987 283.306027 
L 435.785987 283.011006 
L 435.163844 282.568474 
L 434.852772 281.683412 
L 434.5417 280.798349 
L 433.919557 279.765775 
L 433.297413 279.028223 
L 434.230628 278.14316 
L 434.5417 277.700629 
L 435.163844 277.405608 
L 435.474916 277.258097 
L 436.719203 276.520545 
L 436.097059 276.373035 
L 435.474916 275.635482 
L 434.230628 274.602909 
L 429.875623 272.685273 
L 428.631336 271.210168 
L 428.009192 270.620126 
L 427.387049 271.357679 
L 426.764905 271.947721 
L 426.142762 272.242742 
L 425.520618 272.390252 
L 424.898474 272.242742 
L 423.343115 272.242742 
L 422.098828 272.537762 
L 421.165613 272.390252 
L 421.476685 270.767637 
L 422.098828 269.587553 
L 423.343115 268.850001 
L 423.965259 267.817427 
L 423.654187 265.899791 
L 422.4099 264.867218 
L 420.854541 263.982155 
L 418.98811 263.982155 
L 418.054895 265.162239 
L 417.743823 267.079875 
L 417.743823 268.259959 
L 417.432751 268.55498 
L 416.188464 267.227386 
L 415.255248 265.60477 
L 414.944177 264.129666 
L 414.322033 259.999373 
L 414.010961 258.524268 
L 413.077746 257.344184 
L 411.522387 257.196674 
L 411.522387 258.229247 
L 411.211315 258.966799 
L 410.589171 259.556841 
L 409.967028 260.441904 
L 409.967028 261.031946 
L 410.2781 261.769498 
L 409.967028 262.35954 
L 408.100597 262.949582 
L 406.234166 263.834645 
L 405.612023 263.982155 
L 405.300951 263.392113 
L 404.678807 263.097093 
L 404.367735 262.802072 
L 403.123448 263.097093 
L 402.812376 263.244603 
L 400.945946 263.244603 
L 399.701658 263.392113 
L 398.146299 263.834645 
L 396.902012 264.719708 
L 393.480222 267.374896 
L 390.058433 269.440043 
L 388.192002 269.735064 
L 386.947715 269.292532 
L 386.636643 268.112448 
L 387.569858 263.982155 
L 386.947715 262.802072 
L 385.392356 262.064519 
L 380.726279 260.736925 
L 379.170919 260.736925 
L 377.61556 261.179456 
L 374.815914 263.982155 
L 373.260555 264.867218 
L 372.638412 263.392113 
L 370.771981 264.129666 
L 369.838765 264.277176 
L 368.90555 264.277176 
L 367.972335 264.424687 
L 367.350191 264.129666 
L 366.728047 263.687134 
L 364.239473 262.949582 
L 363.617329 262.949582 
L 361.128755 263.392113 
L 359.573396 263.834645 
L 358.640181 264.572197 
L 357.706965 265.45726 
L 356.77375 266.637344 
L 354.596247 270.915147 
L 353.663032 272.242742 
L 348.685883 277.258097 
L 345.575165 279.323244 
L 344.019806 279.913286 
L 343.086591 279.765775 
L 340.598016 278.14316 
L 339.353729 277.553118 
L 336.243011 277.405608 
L 334.065508 278.290671 
L 332.199077 280.060796 
L 331.576934 283.011006 
L 330.021575 281.388391 
L 330.643718 278.585692 
L 332.821221 275.635482 
L 334.37658 273.865357 
L 335.620867 271.6527 
L 336.865154 264.129666 
L 337.79837 263.982155 
L 338.109442 263.392113 
L 338.109442 262.35954 
L 338.109442 261.179456 
L 338.731585 260.146883 
L 340.286944 258.819289 
L 341.531231 256.311611 
L 342.775519 254.393975 
L 344.64195 253.066381 
L 346.197309 252.623849 
L 348.374811 252.476339 
L 349.93017 251.443766 
L 351.174457 249.67364 
L 351.796601 247.756004 
L 348.063739 242.888158 
L 347.441596 242.003096 
L 346.197309 240.970522 
L 342.775519 236.250187 
L 342.464447 236.102677 
L 341.842303 235.660145 
L 341.531231 235.365124 
L 341.531231 235.070104 
L 341.531231 234.03753 
L 341.531231 233.742509 
L 340.909088 231.234831 
L 340.598016 230.349769 
L 340.598016 224.006818 
L 340.909088 220.909099 
L 342.153375 215.746232 
L 342.153375 215.598722 
L 342.153375 215.00868 
L 342.153375 214.418638 
L 340.909088 213.681086 
L 339.042657 213.091044 
L 335.620867 212.648512 
L 331.888006 212.796023 
L 328.777288 211.91096 
L 328.155144 208.66573 
L 329.088359 204.977968 
L 330.643718 202.175269 
L 331.576934 201.585227 
L 332.510149 201.142696 
L 333.443365 200.552654 
L 334.065508 199.520081 
L 334.37658 198.782528 
L 334.065508 197.307424 
L 334.065508 196.569871 
L 334.37658 195.389788 
L 334.998724 194.504725 
L 335.309795 193.472151 
L 334.998724 192.439578 
L 331.265862 189.194348 
L 330.332647 188.751816 
L 329.399431 188.014264 
L 328.155144 187.129201 
L 327.221929 185.506586 
L 326.599785 185.359076 
L 325.66657 185.359076 
L 324.733354 185.211565 
L 324.111211 185.359076 
L 322.555852 185.359076 
L 321.622636 184.916544 
L 322.24478 184.178992 
L 323.177995 183.58895 
L 323.177995 182.998908 
L 321.622636 182.113845 
L 320.378349 180.786251 
L 319.445134 179.458657 
L 319.134062 177.836042 
L 319.756205 175.770895 
L 319.756205 174.443301 
L 319.134062 173.853259 
L 318.200846 173.410728 
L 317.578703 172.673175 
L 317.267631 170.313008 
L 316.956559 169.575456 
L 316.023344 168.690393 
L 313.845841 167.067778 
L 313.223698 166.330225 
L 312.601554 163.970058 
L 312.290482 163.380016 
L 311.668339 162.937485 
L 310.11298 162.347443 
L 309.801908 162.052422 
L 309.179764 161.167359 
L 308.246549 158.21715 
L 306.069046 154.381877 
L 302.958328 150.399095 
L 299.536538 147.006354 
L 293.00403 143.023571 
L 292.381887 141.990998 
L 291.448671 136.23809 
L 290.826528 134.172943 
L 289.893312 133.435391 
L 288.649025 133.28788 
L 285.538307 132.402818 
L 283.360805 132.255307 
L 265.007568 132.255307 
L 228.301096 132.550328 
L 227.990024 137.860705 
L 227.36788 138.598257 
L 211.192147 142.138508 
L 208.3925 142.72855 
L 206.837141 142.72855 
L 205.592854 142.433529 
L 203.726423 141.843488 
L 201.859993 140.515893 
L 200.304634 139.040789 
L 198.749275 138.155726 
L 196.571772 138.008215 
L 183.817828 140.810914 
L 179.773895 142.286019 
L 176.663177 144.056145 
L 176.041033 144.793697 
L 176.041033 145.383739 
L 176.041033 145.973781 
L 176.352105 146.858843 
L 175.107818 153.349304 
L 175.107818 153.644325 
L 175.418889 154.529388 
L 175.418889 154.971919 
L 175.107818 155.26694 
L 174.796746 155.11943 
L 174.174602 155.11943 
L 174.174602 155.561961 
L 174.174602 156.742045 
L 174.174602 157.037066 
L 173.86353 157.037066 
L 171.063884 158.659681 
L 170.130669 159.544744 
L 168.886382 162.052422 
L 168.57531 162.199932 
L 168.57531 166.035204 
L 168.264238 166.772757 
L 167.331023 166.772757 
L 166.708879 166.625246 
L 165.775664 166.920267 
L 165.464592 167.657819 
L 164.531376 170.608029 
L 164.531376 170.90305 
L 164.220305 171.198071 
L 163.909233 171.345581 
L 163.598161 171.493092 
L 162.664946 171.788113 
L 162.664946 172.230644 
L 162.976017 172.525665 
L 162.976017 172.968196 
L 159.865299 182.556377 
L 159.554228 182.998908 
L 158.932084 183.58895 
L 158.621012 183.883971 
L 158.30994 184.326502 
L 157.998869 184.916544 
L 157.687797 184.916544 
L 157.376725 184.621523 
L 156.754581 184.474013 
L 155.510294 185.359076 
L 154.888151 185.801607 
L 154.266007 186.68667 
L 154.266007 187.424222 
L 154.577079 188.161775 
L 154.577079 188.899327 
L 153.332792 189.194348 
L 151.777432 189.9319 
L 149.911002 193.324641 
L 148.355643 194.504725 
L 146.489212 194.799746 
L 144.933853 194.799746 
L 143.067422 194.799746 
L 141.200991 195.832319 
L 139.645632 194.062193 
L 137.779201 195.389788 
L 136.534914 198.044976 
L 135.912771 200.552654 
L 136.534914 201.437717 
L 137.46813 202.912821 
L 137.779201 203.650374 
L 137.46813 203.797884 
L 135.912771 203.945395 
L 135.601699 204.092905 
L 134.668483 205.272989 
L 134.04634 206.600583 
L 132.802053 209.403282 
L 131.557765 210.878387 
L 130.002406 211.76345 
L 126.891688 213.386065 
L 124.092042 215.303701 
L 122.847755 215.598722 
L 120.981324 214.861169 
L 117.559534 212.796023 
L 116.315247 212.501002 
L 114.137744 212.943533 
L 110.093811 214.123617 
L 108.22738 215.598722 
L 107.294165 215.00868 
L 106.360949 214.271127 
L 106.049878 213.238554 
L 106.360949 211.91096 
L 106.672021 211.91096 
L 107.916308 211.91096 
L 108.22738 211.76345 
L 108.22738 211.468429 
L 107.916308 211.173408 
L 108.22738 210.730876 
L 110.404883 208.370709 
L 112.271314 205.71552 
L 113.204529 204.387926 
L 114.759888 203.502863 
L 116.315247 203.502863 
L 118.803822 204.092905 
L 120.670252 203.502863 
L 120.670252 203.060332 
L 115.382032 203.207842 
L 112.893457 202.912821 
L 111.64917 202.027759 
L 111.960242 201.732738 
L 112.582385 200.995185 
L 112.893457 200.552654 
L 112.893457 199.37257 
L 113.515601 197.602445 
L 114.137744 195.832319 
L 112.271314 197.749955 
L 111.338098 199.962612 
L 110.715955 202.175269 
L 109.782739 204.830458 
L 107.916308 203.797884 
L 106.983093 203.355353 
L 106.360949 202.32278 
L 106.983093 201.880248 
L 107.294165 201.142696 
L 106.983093 198.782528 
L 107.294165 198.339997 
L 107.605237 197.749955 
L 107.605237 197.307424 
L 107.294165 197.012403 
L 106.672021 196.569871 
L 106.360949 196.422361 
L 106.049878 194.652235 
L 106.049878 191.997047 
L 106.672021 190.374432 
L 108.22738 191.554515 
L 107.916308 189.636879 
L 107.916308 188.899327 
L 108.22738 188.014264 
L 107.605237 188.014264 
L 106.983093 188.604306 
L 106.360949 189.046837 
L 105.427734 189.194348 
L 104.183447 189.194348 
L 103.561303 189.636879 
L 103.250231 190.521942 
L 102.317016 194.504725 
L 101.694872 195.389788 
L 99.828442 194.357214 
L 98.895226 194.062193 
L 98.584154 193.619662 
L 99.206298 192.292068 
L 98.273083 191.554515 
L 97.650939 190.079411 
L 97.028795 188.456796 
L 96.717724 186.83418 
L 97.339867 185.211565 
L 99.206298 182.703887 
L 99.828442 180.786251 
L 99.206298 180.786251 
L 97.028795 182.408866 
L 93.918077 182.703887 
L 91.118431 181.671314 
L 89.874144 179.901188 
L 89.252 177.246 
L 89.252 175.918406 
L 90.185216 174.590812 
L 90.807359 173.558238 
L 91.429503 172.525665 
L 92.051647 171.05056 
L 92.051647 169.427945 
L 91.429503 169.427945 
L 89.563072 173.410728 
L 88.318785 175.033343 
L 86.763426 175.475874 
L 85.519139 174.738322 
L 84.585923 173.115707 
L 83.652708 171.198071 
L 83.341636 169.427945 
L 80.54199 170.608029 
L 78.675559 171.788113 
L 75.564841 173.558238 
L 73.076267 174.295791 
L 73.076267 174.443301 
L 72.454123 174.885832 
L 71.831979 175.033343 
L 71.520908 174.590812 
L 71.520908 173.853259 
L 72.143051 173.558238 
L 72.765195 173.410728 
L 73.076267 173.115707 
L 75.875913 169.132924 
L 77.742344 167.067778 
L 78.675559 164.70761 
L 80.230918 162.642464 
L 80.230918 161.314869 
L 80.230918 156.299513 
L 80.230918 155.709472 
L 80.853062 155.26694 
L 81.786277 154.824409 
L 82.097349 154.234367 
L 82.719493 153.201794 
L 83.96378 152.611752 
L 85.208067 151.874199 
L 85.830211 150.399095 
L 83.96378 151.284158 
L 82.719493 151.579178 
L 82.097349 150.989137 
L 78.053416 146.563823 
L 78.053416 145.531249 
L 77.431272 145.67876 
L 77.431272 145.82627 
L 76.809128 146.121291 
L 77.742344 148.92399 
L 78.053416 151.284158 
L 77.1202 153.349304 
L 74.320554 154.529388 
L 71.209836 154.234367 
L 69.654477 152.16922 
L 69.343405 149.366521 
L 70.27662 146.711333 
L 73.69841 142.286019 
L 75.253769 139.33581 
L 74.942697 136.533111 
L 74.320554 135.943069 
L 74.009482 136.975642 
L 73.69841 138.745768 
L 73.387338 139.48332 
L 72.454123 140.073362 
L 70.898764 142.58104 
L 69.654477 143.171082 
L 69.654477 143.466103 
L 69.343405 143.761124 
L 66.232687 144.941207 
L 65.921615 144.941207 
L 64.366256 144.793697 
L 62.810897 144.498676 
L 61.255538 144.056145 
L 60.944466 143.466103 
L 60.322323 142.433529 
L 59.078036 140.958425 
L 57.522677 139.48332 
L 56.278389 138.893278 
L 54.100887 137.418173 
L 53.478743 136.828132 
L 52.545528 134.762985 
L 51.612312 134.320454 
L 50.368025 134.320454 
L 49.43481 134.025433 
L 48.812666 133.582901 
L 47.257307 131.812776 
L 46.01302 131.222734 
L 45.079805 131.075223 
L 44.146589 130.780202 
L 42.59123 129.600119 
L 42.280158 127.534972 
L 43.835517 124.879784 
L 46.01302 123.552189 
L 48.190523 125.174805 
L 47.568379 124.142231 
L 46.635164 122.667127 
L 45.390876 121.634553 
L 44.768733 121.929574 
L 44.146589 122.962148 
L 42.902302 122.519616 
L 41.969087 121.487043 
L 41.969087 120.897001 
L 43.835517 120.159449 
L 45.390876 118.389323 
L 47.879451 114.40654 
L 46.635164 114.996582 
L 45.701948 115.734135 
L 43.835517 117.651771 
L 42.902302 118.241813 
L 40.724799 119.421896 
L 40.102656 119.716917 
L 39.791584 120.897001 
L 40.102656 124.879784 
L 39.791584 125.912357 
L 39.16944 126.79742 
L 37.925153 127.387462 
L 36.369794 127.534972 
L 34.503363 126.94493 
L 32.948004 125.617336 
L 32.325861 123.994721 
L 32.325861 122.224595 
L 33.570148 120.749491 
L 35.74765 119.274386 
L 36.991938 117.651771 
L 35.74765 116.176666 
L 35.436579 117.50426 
L 34.503363 118.241813 
L 33.259076 118.536834 
L 31.703717 118.536834 
L 32.014789 120.45447 
L 30.45943 121.929574 
L 28.592999 122.519616 
L 27.659784 121.929574 
L 27.348712 121.339532 
L 26.726568 120.60198 
L 26.104425 119.569407 
L 25.793353 118.241813 
L 26.104425 117.651771 
L 26.726568 117.061729 
L 27.03764 116.471687 
L 26.726568 115.881645 
L 26.104425 115.734135 
L 25.793353 115.881645 
L 25.482281 116.176666 
L 25.171209 116.471687 
L 24.549066 117.946792 
L 22.682635 116.766708 
L 17.394414 112.046373 
L 16.461199 111.603842 
L 15.216912 111.308821 
L 13.972624 111.456331 
L 12.728337 111.751352 
L 11.48405 111.898862 
L 10.550835 111.308821 
L 8.684404 113.078946 
L 7.751188 112.193883 
L 7.440117 109.981226 
L 7.440117 108.06359 
L 8.06226 105.260891 
L 8.06226 104.080808 
L 7.751188 103.048234 
L 7.129045 102.458192 
L 6.817973 102.163172 
L 1.21868 96.557774 
L 0.285465 94.640138 
L 0.285465 92.870012 
L 0.285465 90.657355 
L 0.596537 88.592208 
L 1.529752 87.559635 
L 1.529752 87.412125 
L -0.025607 87.559635 
L -0.958822 88.149677 
L -1.580966 89.03474 
L -2.514181 89.772292 
L -3.758468 90.214824 
L -5.313827 90.509845 
L -6.558115 90.214824 
L -7.180258 89.18225 
L -7.802402 89.18225 
L -8.424545 90.362334 
L -9.046689 89.919803 
L -9.357761 88.739719 
L -9.668833 87.117104 
L -9.668833 85.641999 
L -9.357761 84.461915 
L -8.424545 81.954237 
L -7.49133 82.396769 
L -6.247043 81.364196 
L -5.002756 80.036601 
L -3.758468 79.151538 
L -5.935971 79.004028 
L -6.558115 77.971455 
L -6.558115 76.34884 
L -5.313827 71.480994 
L -4.691684 70.1534 
L -3.758468 70.743442 
L -3.136325 70.743442 
L -3.136325 69.415848 
L -2.514181 68.825806 
L -1.580966 68.383274 
L -1.269894 67.940743 
L -0.336679 64.105471 
L 1.840824 59.975178 
L 3.085111 59.385136 
L 3.707255 58.205052 
L 3.707255 56.877458 
L 3.396183 55.697374 
L 3.707255 55.254843 
L 4.64047 53.927248 
L 2.77404 54.51729 
L 2.462968 55.107332 
L 2.77404 56.139905 
L 2.77404 57.4675 
L -0.025607 59.532646 
L -0.64775 59.975178 
L -1.892038 60.86024 
L -3.136325 63.072897 
L -4.380612 65.433065 
L -5.313827 68.235764 
L -6.558115 70.1534 
L -9.046689 73.103609 
L -11.535263 75.168756 
L -12.779551 75.611287 
L -13.090622 74.578714 
L -13.090622 73.25112 
L -12.468479 72.218546 
L -11.846335 71.628505 
L -10.91312 71.333484 
L -11.535263 71.185973 
L -12.157407 71.185973 
L -12.468479 71.333484 
L -13.090622 71.923526 
L -14.33491 70.743442 
L -13.401694 67.203191 
L -12.779551 65.728086 
L -11.846335 64.400492 
L -11.224192 63.95796 
L -9.979904 63.072897 
L -9.357761 62.630366 
L -9.046689 61.892814 
L -8.735617 61.302772 
L -8.424545 61.155261 
L -9.046689 60.86024 
L -9.668833 60.565219 
L -10.91312 62.040324 
L -14.645981 64.990534 
L -15.579197 66.465638 
L -16.823484 69.710869 
L -18.067771 70.743442 
L -18.689915 68.973316 
L -19.934202 67.940743 
L -20.867417 66.760659 
L -20.867417 64.695513 
L -19.62313 64.843023 
L -18.689915 63.95796 
L -18.067771 62.777877 
L -17.445628 61.745303 
L -16.823484 60.565219 
L -16.823484 59.237625 
L -16.512412 58.057542 
L -16.823484 57.4675 
L -16.512412 57.024968 
L -16.512412 56.582437 
L -16.20134 55.697374 
L -17.756699 56.877458 
L -18.378843 57.61501 
L -18.689915 58.352562 
L -19.000987 58.795094 
L -21.489561 59.975178 
L -22.111705 59.975178 
L -22.111705 58.942604 
L -22.111705 57.910031 
L -21.800633 57.172479 
L -21.489561 56.287416 
L -22.111705 55.549864 
L -22.111705 54.812311 
L -21.800633 54.074759 
L -20.867417 53.337207 
L -22.422776 53.189696 
L -23.04492 52.157123 
L -22.733848 50.829529 
L -22.111705 49.796955 
L -20.867417 49.059403 
L -19.62313 48.469361 
L -17.756699 48.17434 
L -16.512412 48.02683 
L -15.579197 47.436788 
L -14.957053 46.109194 
L -14.645981 44.92911 
L -14.023838 44.339068 
L -12.779551 44.044047 
L -10.91312 42.126411 
L -9.668833 41.388859 
L -10.290976 40.798817 
L -10.602048 40.356285 
L -11.535263 38.881181 
L -11.535263 39.766243 
L -11.846335 40.503796 
L -12.157407 41.093838 
L -12.779551 41.388859 
L -13.401694 41.536369 
L -14.645981 41.9789 
L -14.957053 42.273921 
L -15.268125 44.044047 
L -16.20134 45.371641 
L -17.756699 46.109194 
L -19.312058 45.519152 
L -19.62313 45.961683 
L -19.934202 46.109194 
L -20.556346 46.256704 
L -21.489561 46.109194 
L -20.867417 44.486578 
L -21.489561 43.454005 
L -22.422776 43.158984 
L -22.733848 44.044047 
L -25.222423 47.289277 
L -27.710997 46.846746 
L -29.577428 41.83139 
L -31.75493 41.9789 
L -30.199571 43.454005 
L -29.8885 45.07662 
L -30.199571 46.551725 
L -30.821715 48.02683 
L -32.688146 46.551725 
L -33.932433 46.256704 
L -35.17672 46.109194 
L -32.377074 48.321851 
L -31.132787 49.501934 
L -30.821715 50.977039 
L -31.75493 52.599654 
L -33.310289 54.222269 
L -34.865648 55.254843 
L -35.798864 55.402353 
L -35.798864 55.107332 
L -36.421008 55.107332 
L -36.732079 55.107332 
L -37.043151 55.402353 
L -36.732079 55.992395 
L -36.421008 56.729947 
L -36.421008 57.172479 
L -36.421008 60.270199 
L -36.109936 60.71273 
L -35.17672 61.155261 
L -34.243505 61.597793 
L -33.932433 62.630366 
L -34.243505 63.072897 
L -35.17672 64.695513 
L -36.732079 63.95796 
L -39.842797 63.515429 
L -41.398156 62.630366 
L -43.264587 60.71273 
L -44.508874 58.647583 
L -45.44209 56.877458 
z
" clip-path="url(#pa97865a6fe)" style="fill: #bdc3c7; stroke: #ffffff; stroke-width: 0.5"/>
    <path d="M 265.940784 401.01938 
L 268.74043 399.691786 
L 269.362574 399.249255 
L 269.051502 397.036598 
L 269.362574 395.561493 
L 271.851148 394.233899 
L 272.473292 392.758794 
L 273.095435 391.136179 
L 273.406507 389.808585 
L 273.095435 388.038459 
L 273.406507 387.448417 
L 275.272938 387.300907 
L 275.895081 387.005886 
L 276.206153 386.563355 
L 276.517225 385.825802 
L 276.206153 384.645718 
L 274.961866 382.728082 
L 274.650794 381.84302 
L 274.961866 381.400488 
L 276.517225 380.072894 
L 279.627943 375.205048 
L 281.183302 374.910028 
L 288.026882 371.664797 
L 288.960097 371.074755 
L 294.559389 363.699232 
L 296.114748 361.781596 
L 308.868692 351.603374 
L 312.290482 349.538227 
L 315.712272 348.800675 
L 316.956559 348.358143 
L 317.889775 347.47308 
L 318.82299 346.440507 
L 330.332647 332.279502 
L 333.443365 329.476803 
L 337.487298 327.264146 
L 338.109442 326.969125 
L 340.286944 326.674104 
L 339.975872 305.580107 
L 340.286944 304.547534 
L 340.598016 303.809982 
L 341.22016 303.072429 
L 343.397662 301.892346 
L 344.330878 301.007283 
L 346.50838 297.319521 
L 347.752668 295.696906 
L 349.619098 294.664333 
L 351.485529 294.369312 
L 358.329109 294.369312 
L 360.19554 294.074291 
L 361.750899 293.631759 
L 363.617329 292.599186 
L 365.794832 290.53404 
L 365.794832 288.911424 
L 365.172688 287.141299 
L 364.550545 284.781131 
L 364.861617 282.715985 
L 366.416976 279.470754 
L 368.90555 268.70249 
L 368.90555 264.277176 
L 369.838765 264.277176 
L 370.771981 264.129666 
L 372.638412 263.392113 
L 373.260555 264.867218 
L 374.815914 263.982155 
L 377.61556 261.179456 
L 379.170919 260.736925 
L 380.726279 260.736925 
L 385.392356 262.064519 
L 386.947715 262.802072 
L 387.569858 263.982155 
L 386.636643 268.112448 
L 386.947715 269.292532 
L 388.192002 269.735064 
L 390.058433 269.440043 
L 393.480222 267.374896 
L 396.902012 264.719708 
L 398.146299 263.834645 
L 399.701658 263.392113 
L 400.945946 263.244603 
L 402.812376 263.244603 
L 403.123448 263.097093 
L 404.367735 262.802072 
L 404.678807 263.097093 
L 405.300951 263.392113 
L 405.612023 263.982155 
L 406.234166 263.834645 
L 408.100597 262.949582 
L 409.967028 262.35954 
L 410.2781 261.769498 
L 409.967028 261.031946 
L 409.967028 260.441904 
L 410.589171 259.556841 
L 411.211315 258.966799 
L 411.522387 258.229247 
L 411.522387 257.196674 
L 413.077746 257.344184 
L 414.010961 258.524268 
L 414.322033 259.999373 
L 414.944177 264.129666 
L 415.255248 265.60477 
L 416.188464 267.227386 
L 417.432751 268.55498 
L 417.743823 268.259959 
L 417.743823 267.079875 
L 418.054895 265.162239 
L 418.98811 263.982155 
L 420.854541 263.982155 
L 422.4099 264.867218 
L 423.654187 265.899791 
L 423.965259 267.817427 
L 423.343115 268.850001 
L 422.098828 269.587553 
L 421.476685 270.767637 
L 421.165613 272.390252 
L 422.098828 272.537762 
L 423.343115 272.242742 
L 424.898474 272.242742 
L 425.520618 272.390252 
L 426.142762 272.242742 
L 426.764905 271.947721 
L 427.387049 271.357679 
L 428.009192 270.620126 
L 428.631336 271.210168 
L 429.875623 272.685273 
L 434.230628 274.602909 
L 435.474916 275.635482 
L 436.097059 276.373035 
L 436.719203 276.520545 
L 435.474916 277.258097 
L 435.163844 277.405608 
L 434.5417 277.700629 
L 434.230628 278.14316 
L 433.297413 279.028223 
L 433.919557 279.765775 
L 434.5417 280.798349 
L 434.852772 281.683412 
L 435.163844 282.568474 
L 435.785987 283.011006 
L 435.785987 283.306027 
L 435.785987 283.748558 
L 435.163844 284.191089 
L 434.5417 285.518684 
L 433.919557 288.026362 
L 433.919557 290.386529 
L 435.163844 291.271592 
L 437.341346 291.714123 
L 438.274562 292.156655 
L 438.585634 293.189228 
L 438.585634 294.221801 
L 440.140993 300.564751 
L 439.829921 301.449814 
L 438.896705 303.072429 
L 438.896705 304.105003 
L 439.829921 302.777408 
L 440.763136 302.039856 
L 441.696352 302.187367 
L 442.629567 303.36745 
L 443.251711 304.252513 
L 443.251711 305.137576 
L 443.251711 306.022639 
L 442.629567 306.907702 
L 442.318495 307.055212 
L 441.38528 310.890484 
L 441.074208 314.578246 
L 442.007423 318.266008 
L 443.873854 321.953769 
L 446.051357 324.756468 
L 446.984572 326.231573 
L 449.162075 329.034272 
L 448.228859 331.394439 
L 447.295644 334.492159 
L 447.295644 337.442369 
L 449.162075 339.507515 
L 448.228859 340.245067 
L 447.606716 341.425151 
L 446.984572 342.752745 
L 446.6735 344.965402 
L 446.051357 345.997976 
L 444.495998 347.768101 
L 444.80707 349.095696 
L 444.184926 350.865821 
L 442.007423 353.816031 
L 440.452064 355.143625 
L 439.518849 356.028688 
L 439.207777 357.208771 
L 439.207777 358.388855 
L 438.896705 359.421428 
L 438.274562 360.306491 
L 437.341346 361.044043 
L 437.652418 361.339064 
L 438.585634 361.044043 
L 441.074208 358.536366 
L 442.007423 357.061261 
L 443.562782 360.01147 
L 444.495998 360.896533 
L 446.051357 358.978897 
L 446.362429 358.831386 
L 446.984572 358.536366 
L 446.984572 357.651303 
L 447.295644 357.356282 
L 448.228859 357.061261 
L 449.784218 357.061261 
L 450.717434 357.208771 
L 451.339577 357.503792 
L 452.272793 357.946324 
L 452.894936 358.683876 
L 453.51708 360.454002 
L 453.828152 361.044043 
L 455.383511 361.191554 
L 458.183157 360.454002 
L 459.427444 360.601512 
L 460.671732 362.371638 
L 461.916019 367.829525 
L 464.093521 369.894672 
L 464.715665 369.894672 
L 466.582096 369.894672 
L 467.204239 370.189693 
L 467.204239 371.664797 
L 467.826383 372.254839 
L 469.381742 373.139902 
L 469.692814 374.319986 
L 469.07067 377.270195 
L 470.003886 376.385132 
L 470.626029 376.237622 
L 471.248173 376.090111 
L 472.49246 375.79509 
L 473.425675 375.500069 
L 474.669963 374.615007 
L 475.91425 373.582433 
L 476.847465 372.992391 
L 478.402824 372.992391 
L 479.024968 372.69737 
L 481.20247 372.107329 
L 481.513542 371.959818 
L 481.824614 370.632224 
L 482.135686 370.484713 
L 483.068901 370.927245 
L 483.379973 368.862098 
L 484.62426 369.599651 
L 486.179619 372.254839 
L 487.423906 372.107329 
L 491.156768 370.632224 
L 492.089983 370.042182 
L 492.712127 368.272056 
L 492.401055 366.649441 
L 491.46784 365.026826 
L 491.46784 363.551721 
L 491.778912 362.666659 
L 492.712127 361.486575 
L 494.267486 359.568939 
L 494.88963 358.978897 
L 496.444989 358.536366 
L 497.067132 357.946324 
L 497.378204 357.061261 
L 497.689276 355.291135 
L 498.000348 354.553583 
L 498.31142 354.111051 
L 500.799994 352.635947 
L 502.355353 351.013332 
L 503.288568 349.538227 
L 503.59964 347.768101 
L 503.288568 345.702955 
L 503.288568 345.260423 
L 502.666425 345.260423 
L 502.355353 344.965402 
L 502.355353 344.522871 
L 502.355353 343.932829 
L 502.977497 343.047766 
L 503.288568 342.605235 
L 503.288568 339.507515 
L 503.910712 337.737389 
L 506.088215 334.934691 
L 507.02143 333.312075 
L 517.286799 333.754607 
L 516.664656 336.999837 
L 517.286799 339.507515 
L 518.842158 341.425151 
L 521.641805 343.490298 
L 524.130379 345.112913 
L 527.863241 347.030549 
L 529.4186 350.128269 
L 531.28503 356.176198 
L 532.218246 364.731805 
L 532.84039 366.35442 
L 533.151461 367.386994 
L 534.70682 369.599651 
L 535.328964 370.632224 
L 535.951108 373.434923 
L 536.262179 374.172475 
L 537.506467 375.352559 
L 537.817538 376.090111 
L 537.817538 376.680153 
L 537.506467 377.712726 
L 537.817538 378.302768 
L 538.12861 378.89281 
L 539.372897 380.220404 
L 539.683969 381.105467 
L 539.995041 381.84302 
L 540.306113 384.055677 
L 541.5504 392.316263 
L 541.5504 394.52892 
L 540.928256 395.266472 
L 539.061826 396.594066 
L 538.439682 397.479129 
L 538.439682 398.954234 
L 538.439682 400.429339 
L 538.439682 401.756933 
L 537.506467 404.1171 
L 537.817538 404.854653 
L 538.439682 405.297184 
L 539.061826 405.739715 
L 539.061826 406.919799 
L 538.750754 408.247393 
L 538.12861 410.902582 
L 537.195395 413.41026 
L 535.951108 415.327896 
L 528.174312 424.031013 
L 526.307882 425.94865 
L 520.086446 430.964005 
L 518.842158 432.2916 
L 517.286799 433.176663 
L 517.286799 433.324173 
L 516.975728 434.504257 
L 516.664656 434.946788 
L 516.353584 435.094299 
L 515.420369 435.38932 
L 514.798225 435.53683 
L 512.620722 438.192018 
L 514.176081 438.339529 
L 515.109297 438.487039 
L 517.286799 438.487039 
L 518.220015 438.78206 
L 519.15323 439.519613 
L 521.641805 443.059864 
L 523.197164 443.649906 
L 524.441451 442.764843 
L 525.063594 441.142228 
L 525.374666 439.519613 
L 525.685738 438.78206 
L 526.307882 439.077081 
L 527.241097 440.404675 
L 530.040743 441.87978 
L 531.28503 443.207374 
L 530.973959 443.649906 
L 530.351815 444.239948 
L 530.040743 445.715052 
L 530.040743 446.452605 
L 530.973959 448.07522 
L 531.28503 448.812772 
L 530.662887 449.550324 
L 530.040743 449.992856 
L 529.729671 450.582898 
L 530.662887 451.615471 
L 531.596102 450.730408 
L 532.529318 450.287877 
L 533.773605 450.287877 
L 534.70682 450.730408 
L 535.640036 449.697835 
L 536.573251 450.140366 
L 537.506467 451.025429 
L 538.439682 451.910492 
L 538.750754 451.762982 
L 539.061826 451.467961 
L 539.372897 451.17294 
L 539.995041 451.467961 
L 540.617185 452.205513 
L 540.617185 452.943065 
L 540.617185 453.533107 
L 540.617185 453.828128 
L 541.5504 454.123149 
L 548.082908 455.745764 
L 549.327195 456.040785 
L 550.26041 456.630827 
L 550.882554 457.073358 
L 551.504698 457.368379 
L 552.748985 457.368379 
L 553.993272 457.073358 
L 555.859703 455.893275 
L 557.10399 455.598254 
L 561.147923 455.008212 
L 563.325426 454.860701 
L 564.880785 455.303233 
L 566.125072 456.188296 
L 571.724365 457.51589 
L 572.346508 457.6634 
L 572.65758 457.51589 
L 572.968652 457.368379 
L 573.590796 457.51589 
L 573.901867 457.810911 
L 573.901867 458.843484 
L 574.212939 459.286015 
L 578.256873 462.383735 
L 579.50116 464.00635 
L 579.812232 465.186434 
L 578.567944 468.579175 
L 578.256873 470.349301 
L 577.945801 472.414447 
L 578.256873 474.184573 
L 579.190088 475.364656 
L 579.190088 474.922125 
L 579.812232 474.479594 
L 581.056519 474.184573 
L 581.678662 474.332083 
L 582.611878 475.069636 
L 582.92295 475.807188 
L 583.234021 477.872334 
L 583.545093 478.167355 
L 584.167237 478.314866 
L 584.478309 478.462376 
L 584.78938 479.052418 
L 584.478309 479.49495 
L 583.545093 479.937481 
L 583.545093 480.380012 
L 583.545093 482.88769 
L 583.545093 483.477732 
L 584.78938 484.952837 
L 588.21117 486.722963 
L 589.144386 487.755536 
L 590.699745 489.968193 
L 591.944032 489.378151 
L 592.877247 487.608025 
L 593.810463 486.427942 
L 594.432606 486.870473 
L 595.365822 488.050557 
L 596.610109 489.08313 
L 598.165468 489.23064 
L 598.165468 489.525661 
L 600.031899 490.558235 
L 600.34297 490.558235 
L 602.209401 491.443298 
L 602.520473 492.033339 
L 601.898329 492.918402 
L 602.520473 493.508444 
L 603.76476 494.983549 
L 604.386904 495.27857 
L 605.320119 494.836038 
L 606.253335 493.803465 
L 606.875478 493.655955 
L 606.875478 495.131059 
L 608.119766 495.27857 
L 608.741909 496.458653 
L 609.052981 497.638737 
L 609.986196 498.228779 
L 610.60834 497.491227 
L 610.919412 496.163632 
L 611.230484 493.508444 
L 614.03013 494.688528 
L 614.341202 497.786248 
L 613.719058 501.474009 
L 613.719058 504.71924 
L 615.274417 511.504721 
L 616.518704 513.717378 
L 618.385135 517.55265 
L 619.31835 518.880245 
L 617.762991 518.585224 
L 617.140848 519.617797 
L 617.45192 521.387923 
L 618.696207 522.863027 
L 616.829776 523.010538 
L 616.207632 522.863027 
L 617.140848 523.74809 
L 617.45192 523.895601 
L 616.829776 524.633153 
L 615.896561 525.518216 
L 615.274417 526.698299 
L 615.274417 530.09104 
L 614.963345 530.976103 
L 613.719058 530.238551 
L 613.719058 531.713655 
L 614.03013 533.18876 
L 614.652273 534.811375 
L 615.585489 535.991459 
L 616.829776 536.729011 
L 617.762991 536.43399 
L 618.385135 536.581501 
L 618.696207 538.204116 
L 619.007279 539.974242 
L 619.007279 540.859304 
L 618.385135 541.891878 
L 617.45192 543.366982 
L 617.140848 543.957024 
L 616.829776 545.284618 
L 616.518704 545.87466 
L 615.585489 546.317192 
L 615.274417 545.87466 
L 615.274417 545.284618 
L 614.963345 544.694577 
L 614.963345 544.252045 
L 615.585489 543.809514 
L 615.585489 543.514493 
L 614.652273 543.219472 
L 614.341202 543.514493 
L 612.163699 544.694577 
L 611.541555 545.579639 
L 611.230484 546.317192 
L 610.297268 549.267401 
L 610.919412 553.397694 
L 610.919412 554.872799 
L 610.297268 556.347904 
L 608.119766 560.625707 
L 606.875478 560.183176 
L 605.320119 560.035665 
L 604.075832 560.773218 
L 602.831545 562.395833 
L 602.520473 563.870937 
L 603.453688 568.886293 
L 603.142617 570.803929 
L 603.76476 571.984013 
L 604.697976 573.164097 
L 605.009047 574.786712 
L 605.009047 576.114306 
L 604.697976 576.114306 
L 604.075832 575.671775 
L 602.831545 575.524264 
L 600.34297 577.589411 
L 600.34297 578.474474 
L 600.965114 581.129662 
L 600.654042 582.162236 
L 600.34297 583.932361 
L 600.34297 584.522403 
L 600.34297 584.669913 
L 600.654042 585.702487 
L 601.276186 586.292529 
L 601.898329 586.882571 
L 602.520473 587.472612 
L 602.831545 588.210165 
L 603.142617 592.782989 
L 602.831545 611.516819 
L 602.831545 612.254371 
L 603.142617 613.139434 
L 603.142617 614.024497 
L 603.142617 616.237154 
L 603.76476 618.007279 
L 603.76476 618.744832 
L 603.453688 619.629894 
L 602.831545 621.25251 
L 602.520473 622.137572 
L 603.142617 623.170146 
L 605.942263 625.235292 
L 601.276186 625.677824 
L 600.031899 625.530313 
L 598.165468 624.64525 
L 596.921181 624.350229 
L 591.010816 624.350229 
L 590.388673 624.055209 
L 590.077601 623.465167 
L 589.766529 622.875125 
L 589.144386 622.580104 
L 587.900098 622.580104 
L 584.478309 621.104999 
L 583.545093 620.514957 
L 582.300806 619.629894 
L 581.989734 618.597321 
L 581.367591 617.417237 
L 580.745447 616.532175 
L 577.945801 615.647112 
L 576.07937 614.024497 
L 575.146155 613.729476 
L 573.590796 613.434455 
L 572.65758 612.991923 
L 572.035437 612.401882 
L 571.102221 611.81184 
L 569.546862 611.221798 
L 565.814 610.189225 
L 563.014354 609.746693 
L 557.415062 607.681547 
L 547.149692 606.353952 
L 544.038974 605.321379 
L 540.306113 601.191086 
L 539.061826 600.453534 
L 537.195395 600.158513 
L 528.174312 596.913282 
L 518.842158 589.98029 
L 513.86501 587.177591 
L 501.733209 582.752277 
L 498.933563 581.424683 
L 493.023199 576.114306 
L 490.534624 574.786712 
L 488.04605 573.459118 
L 487.112835 573.311607 
L 485.246404 572.574055 
L 482.757829 572.131524 
L 480.580327 571.393971 
L 478.402824 570.508909 
L 477.158537 569.328825 
L 477.469609 569.181314 
L 477.469609 569.033804 
L 477.469609 568.738783 
L 473.736747 567.70621 
L 470.626029 565.936084 
L 465.64888 561.51077 
L 464.404593 560.625707 
L 461.293875 559.298113 
L 458.805301 557.232966 
L 457.249942 556.642925 
L 455.694583 555.905372 
L 454.450295 554.282757 
L 455.694583 554.282757 
L 454.450295 552.807652 
L 452.894936 551.775079 
L 451.028506 551.037527 
L 449.162075 550.152464 
L 439.207777 540.564283 
L 438.585634 539.3842 
L 437.652418 536.138969 
L 436.719203 534.663865 
L 435.785987 533.778802 
L 434.5417 532.746229 
L 432.986341 532.008676 
L 431.742054 531.566145 
L 431.430982 531.566145 
L 428.942408 530.976103 
L 428.631336 530.976103 
L 428.320264 530.238551 
L 429.564551 528.910956 
L 429.564551 528.025894 
L 428.320264 525.960747 
L 419.610254 520.945391 
L 407.167382 508.702022 
L 395.035581 498.966331 
L 392.235935 495.42608 
L 391.30272 494.836038 
L 390.058433 493.950975 
L 389.436289 493.360934 
L 389.125217 492.475871 
L 389.436289 491.295787 
L 389.436289 490.263214 
L 388.503074 488.93562 
L 387.258786 487.903046 
L 385.703427 487.017983 
L 384.45914 486.722963 
L 383.525925 486.280431 
L 377.304489 481.412586 
L 373.882699 477.429803 
L 369.216622 474.479594 
L 367.661263 473.889552 
L 364.239473 473.151999 
L 362.995186 472.266937 
L 362.06197 471.234363 
L 362.06197 470.05428 
L 362.995186 470.496811 
L 363.617329 470.496811 
L 364.239473 470.20179 
L 364.550545 469.316727 
L 362.995186 469.021706 
L 361.750899 467.989133 
L 360.506611 466.809049 
L 359.262324 465.776476 
L 356.462678 464.00635 
L 354.907319 463.416309 
L 353.35196 463.416309 
L 353.35196 464.00635 
L 357.706965 466.366518 
L 359.884468 467.989133 
L 360.506611 470.05428 
L 358.951252 468.284154 
L 356.77375 466.95656 
L 353.974104 465.776476 
L 336.554083 461.351162 
L 325.355498 455.745764 
L 323.489067 454.123149 
L 324.111211 452.648044 
L 324.733354 453.385597 
L 325.044426 453.828128 
L 325.66657 454.123149 
L 326.599785 454.41817 
L 325.355498 452.058002 
L 325.044426 449.845345 
L 325.66657 447.927709 
L 327.844072 446.010073 
L 326.599785 446.010073 
L 325.66657 446.157584 
L 325.044426 446.600115 
L 324.111211 447.190157 
L 322.24478 443.059864 
L 319.445134 439.962144 
L 316.023344 437.749487 
L 302.336184 430.226453 
L 286.782594 424.621055 
L 276.517225 420.048231 
L 274.650794 417.835574 
L 274.650794 414.295323 
L 274.961866 412.377686 
L 275.272938 411.492624 
L 275.272938 410.46005 
L 274.028651 408.099883 
L 273.717579 407.804862 
L 272.16222 407.21482 
L 270.295789 406.182247 
L 268.74043 405.002163 
L 268.118286 404.1171 
z
" clip-path="url(#pa97865a6fe)" style="fill: #bdc3c7; stroke: #ffffff; stroke-width: 0.5"/>
   </g>
   <g id="PatchCollection_2">
    <path d="M 108.22738 216.041253 
L 108.22738 215.598722 
L 110.093811 214.123617 
L 114.137744 212.943533 
L 116.315247 212.501002 
L 117.559534 212.796023 
L 120.981324 214.861169 
L 122.847755 215.598722 
L 124.092042 215.303701 
L 126.891688 213.386065 
L 130.002406 211.76345 
L 131.557765 210.878387 
L 132.802053 209.403282 
L 134.04634 206.600583 
L 134.668483 205.272989 
L 135.601699 204.092905 
L 135.912771 203.945395 
L 137.46813 203.797884 
L 137.779201 203.650374 
L 137.46813 202.912821 
L 136.534914 201.437717 
L 135.912771 200.552654 
L 136.534914 198.044976 
L 137.779201 195.389788 
L 139.645632 194.062193 
L 141.200991 195.832319 
L 143.067422 194.799746 
L 144.933853 194.799746 
L 146.489212 194.799746 
L 148.355643 194.504725 
L 149.911002 193.324641 
L 151.777432 189.9319 
L 153.332792 189.194348 
L 154.577079 188.899327 
L 154.577079 188.161775 
L 154.266007 187.424222 
L 154.266007 186.68667 
L 154.888151 185.801607 
L 155.510294 185.359076 
L 156.754581 184.474013 
L 157.376725 184.621523 
L 157.687797 184.916544 
L 157.998869 184.916544 
L 158.30994 184.326502 
L 158.621012 183.883971 
L 158.932084 183.58895 
L 159.554228 182.998908 
L 159.865299 182.556377 
L 162.976017 172.968196 
L 162.976017 172.525665 
L 162.664946 172.230644 
L 162.664946 171.788113 
L 163.598161 171.493092 
L 163.909233 171.345581 
L 164.220305 171.198071 
L 164.531376 170.90305 
L 164.531376 170.608029 
L 165.464592 167.657819 
L 165.775664 166.920267 
L 166.708879 166.625246 
L 167.331023 166.772757 
L 168.264238 166.772757 
L 168.57531 166.035204 
L 168.57531 162.199932 
L 168.886382 162.052422 
L 170.130669 159.544744 
L 171.063884 158.659681 
L 173.86353 157.037066 
L 174.174602 157.037066 
L 174.174602 156.742045 
L 174.174602 155.561961 
L 174.174602 155.11943 
L 174.796746 155.11943 
L 175.107818 155.26694 
L 175.418889 154.971919 
L 175.418889 154.529388 
L 175.107818 153.644325 
L 175.107818 153.349304 
L 176.352105 146.858843 
L 176.041033 145.973781 
L 176.041033 145.383739 
L 176.041033 144.793697 
L 176.663177 144.056145 
L 179.773895 142.286019 
L 183.817828 140.810914 
L 196.571772 138.008215 
L 198.749275 138.155726 
L 200.304634 139.040789 
L 201.859993 140.515893 
L 203.726423 141.843488 
L 205.592854 142.433529 
L 206.837141 142.72855 
L 208.3925 142.72855 
L 211.192147 142.138508 
L 227.36788 138.598257 
L 227.990024 137.860705 
L 228.301096 132.550328 
L 265.007568 132.255307 
L 283.360805 132.255307 
L 285.538307 132.402818 
L 288.649025 133.28788 
L 289.893312 133.435391 
L 290.826528 134.172943 
L 291.448671 136.23809 
L 292.381887 141.990998 
L 293.00403 143.023571 
L 299.536538 147.006354 
L 302.958328 150.399095 
L 306.069046 154.381877 
L 308.246549 158.21715 
L 309.179764 161.167359 
L 309.801908 162.052422 
L 310.11298 162.347443 
L 311.668339 162.937485 
L 312.290482 163.380016 
L 312.601554 163.970058 
L 313.223698 166.330225 
L 313.845841 167.067778 
L 316.023344 168.690393 
L 316.956559 169.575456 
L 317.267631 170.313008 
L 317.578703 172.673175 
L 318.200846 173.410728 
L 319.134062 173.853259 
L 319.756205 174.443301 
L 319.756205 175.770895 
L 319.134062 177.836042 
L 319.445134 179.458657 
L 320.378349 180.786251 
L 321.622636 182.113845 
L 323.177995 182.998908 
L 323.177995 183.58895 
L 322.24478 184.178992 
L 321.622636 184.916544 
L 322.555852 185.359076 
L 324.111211 185.359076 
L 324.733354 185.211565 
L 325.66657 185.359076 
L 326.599785 185.359076 
L 327.221929 185.506586 
L 328.155144 187.129201 
L 329.399431 188.014264 
L 330.332647 188.751816 
L 331.265862 189.194348 
L 334.998724 192.439578 
L 335.309795 193.472151 
L 334.998724 194.504725 
L 334.37658 195.389788 
L 334.065508 196.569871 
L 334.065508 197.307424 
L 334.37658 198.782528 
L 334.065508 199.520081 
L 333.443365 200.552654 
L 332.510149 201.142696 
L 331.576934 201.585227 
L 330.643718 202.175269 
L 329.088359 204.977968 
L 328.155144 208.66573 
L 328.777288 211.91096 
L 331.888006 212.796023 
L 335.620867 212.648512 
L 339.042657 213.091044 
L 340.909088 213.681086 
L 342.153375 214.418638 
L 342.153375 215.00868 
L 342.153375 215.598722 
L 342.153375 215.746232 
L 340.909088 220.909099 
L 340.598016 224.006818 
L 340.598016 230.349769 
L 340.909088 231.234831 
L 341.531231 233.742509 
L 341.531231 234.03753 
L 341.531231 235.070104 
L 341.531231 235.365124 
L 341.842303 235.660145 
L 342.464447 236.102677 
L 342.775519 236.250187 
L 346.197309 240.970522 
L 347.441596 242.003096 
L 348.063739 242.888158 
L 351.796601 247.756004 
L 351.174457 249.67364 
L 349.93017 251.443766 
L 348.374811 252.476339 
L 346.197309 252.623849 
L 344.64195 253.066381 
L 342.775519 254.393975 
L 341.531231 256.311611 
L 340.286944 258.819289 
L 338.731585 260.146883 
L 338.109442 261.179456 
L 338.109442 262.35954 
L 338.109442 263.392113 
L 337.79837 263.982155 
L 336.865154 264.129666 
L 335.620867 271.6527 
L 334.37658 273.865357 
L 332.821221 275.635482 
L 330.643718 278.585692 
L 330.021575 281.388391 
L 331.576934 283.011006 
L 332.199077 280.060796 
L 334.065508 278.290671 
L 336.243011 277.405608 
L 339.353729 277.553118 
L 340.598016 278.14316 
L 343.086591 279.765775 
L 344.019806 279.913286 
L 345.575165 279.323244 
L 348.685883 277.258097 
L 353.663032 272.242742 
L 354.596247 270.915147 
L 356.77375 266.637344 
L 357.706965 265.45726 
L 358.640181 264.572197 
L 359.573396 263.834645 
L 361.128755 263.392113 
L 363.617329 262.949582 
L 364.239473 262.949582 
L 366.728047 263.687134 
L 367.350191 264.129666 
L 367.972335 264.424687 
L 368.90555 264.277176 
L 368.90555 268.70249 
L 366.416976 279.470754 
L 364.861617 282.715985 
L 364.550545 284.781131 
L 365.172688 287.141299 
L 365.794832 288.911424 
L 365.794832 290.53404 
L 363.617329 292.599186 
L 361.750899 293.631759 
L 360.19554 294.074291 
L 358.329109 294.369312 
L 351.485529 294.369312 
L 349.619098 294.664333 
L 347.752668 295.696906 
L 346.50838 297.319521 
L 344.330878 301.007283 
L 343.397662 301.892346 
L 341.22016 303.072429 
L 340.598016 303.809982 
L 340.286944 304.547534 
L 339.975872 305.580107 
L 340.286944 326.674104 
L 338.109442 326.969125 
L 337.487298 327.264146 
L 333.443365 329.476803 
L 330.332647 332.279502 
L 318.82299 346.440507 
L 317.889775 347.47308 
L 316.956559 348.358143 
L 315.712272 348.800675 
L 312.290482 349.538227 
L 308.868692 351.603374 
L 296.114748 361.781596 
L 294.559389 363.699232 
L 288.960097 371.074755 
L 288.026882 371.664797 
L 281.183302 374.910028 
L 279.627943 375.205048 
L 276.517225 380.072894 
L 274.961866 381.400488 
L 274.650794 381.84302 
L 274.961866 382.728082 
L 276.206153 384.645718 
L 276.517225 385.825802 
L 276.206153 386.563355 
L 275.895081 387.005886 
L 275.272938 387.300907 
L 273.406507 387.448417 
L 273.095435 388.038459 
L 273.406507 389.808585 
L 273.095435 391.136179 
L 272.473292 392.758794 
L 271.851148 394.233899 
L 269.362574 395.561493 
L 269.051502 397.036598 
L 269.362574 399.249255 
L 268.74043 399.691786 
L 265.940784 401.01938 
L 264.385425 399.839297 
L 260.963635 398.954234 
L 259.097204 398.069171 
L 257.541845 396.889087 
L 256.297558 395.709004 
L 256.919701 395.561493 
L 257.230773 395.413983 
L 257.541845 395.118962 
L 257.852917 394.52892 
L 255.675414 394.52892 
L 254.431127 394.67643 
L 253.808983 395.118962 
L 253.18684 395.118962 
L 252.564696 393.201326 
L 251.320409 391.873731 
L 246.654332 388.038459 
L 234.522532 380.957957 
L 214.302865 373.434923 
L 193.461054 365.174337 
L 176.663177 359.86396 
L 179.462823 357.651303 
L 182.573541 357.503792 
L 185.684259 358.536366 
L 188.794977 359.86396 
L 188.483905 359.126407 
L 188.172833 358.536366 
L 187.55069 358.241345 
L 186.617474 358.093834 
L 185.995331 357.946324 
L 185.373187 356.76624 
L 184.439972 356.323709 
L 182.884613 355.586156 
L 181.951397 355.586156 
L 180.396038 356.323709 
L 179.773895 356.028688 
L 179.151751 355.438646 
L 178.218536 354.996114 
L 177.907464 354.258562 
L 178.840679 352.635947 
L 179.773895 351.013332 
L 181.640325 349.538227 
L 182.573541 348.210633 
L 183.506756 347.32557 
L 185.062115 347.768101 
L 185.995331 347.32557 
L 186.928546 347.178059 
L 189.106049 347.178059 
L 189.728192 347.178059 
L 190.661408 346.735528 
L 191.283551 346.735528 
L 191.905695 346.883039 
L 192.83891 347.620591 
L 193.461054 347.768101 
L 195.016413 347.32557 
L 196.571772 346.440507 
L 198.127131 345.702955 
L 200.615705 345.555444 
L 200.304634 345.260423 
L 199.993562 344.670382 
L 199.993562 344.22785 
L 201.548921 343.785319 
L 203.10428 343.637808 
L 204.348567 343.047766 
L 204.659639 341.277641 
L 204.037495 341.277641 
L 203.415352 341.425151 
L 202.793208 341.425151 
L 202.482136 341.572662 
L 201.859993 341.867683 
L 201.237849 341.13013 
L 201.237849 340.687599 
L 200.304634 340.835109 
L 199.371418 340.835109 
L 198.438203 340.98262 
L 198.127131 341.572662 
L 197.816059 342.310214 
L 197.193916 342.752745 
L 195.949628 343.047766 
L 194.705341 343.637808 
L 193.149982 343.637808 
L 192.216767 343.785319 
L 190.350336 344.670382 
L 188.483905 345.112913 
L 186.617474 345.850465 
L 185.684259 346.145486 
L 185.062115 345.997976 
L 183.506756 345.702955 
L 182.573541 345.555444 
L 180.396038 344.817892 
L 179.773895 343.195277 
L 179.462823 341.277641 
L 177.907464 340.097557 
L 177.907464 339.507515 
L 178.529607 339.064984 
L 178.529607 338.622452 
L 178.840679 337.8849 
L 178.529607 337.147348 
L 177.907464 337.737389 
L 177.28532 338.03241 
L 176.663177 338.179921 
L 176.352105 337.589879 
L 175.729961 337.589879 
L 175.729961 338.917473 
L 173.552459 336.852327 
L 174.796746 333.902117 
L 177.907464 329.329293 
L 179.462823 330.066845 
L 179.773895 330.509377 
L 180.396038 329.919335 
L 179.773895 328.739251 
L 179.773895 327.559167 
L 180.396038 326.526594 
L 181.640325 326.231573 
L 179.773895 325.051489 
L 178.218536 326.526594 
L 175.729961 330.509377 
L 171.374956 333.164565 
L 168.57531 334.197138 
L 167.331023 333.164565 
L 166.708879 333.164565 
L 161.109587 332.131992 
L 160.487443 332.131992 
L 159.865299 331.984481 
L 159.243156 331.68946 
L 155.821366 329.329293 
L 154.266007 328.739251 
L 153.332792 327.854188 
L 152.710648 326.231573 
L 152.399576 324.756468 
L 152.399576 323.576385 
L 153.332792 322.838832 
L 154.888151 322.10128 
L 153.332792 322.396301 
L 148.977786 324.166426 
L 144.933853 321.511238 
L 143.689566 319.298581 
L 143.067422 318.266008 
L 141.512063 317.823476 
L 140.578848 317.528455 
L 139.645632 316.495882 
L 137.779201 314.283225 
L 139.33456 313.988204 
L 142.445278 312.365589 
L 144.000637 311.923058 
L 145.244925 312.070568 
L 146.800284 312.513099 
L 149.59993 313.840694 
L 147.733499 311.923058 
L 145.555996 310.447953 
L 143.689566 308.677827 
L 142.445278 304.400024 
L 142.134207 304.105003 
L 141.823135 303.809982 
L 141.823135 303.21994 
L 142.445278 302.039856 
L 142.75635 300.859772 
L 143.378494 299.532178 
L 144.000637 298.499605 
L 144.933853 297.614542 
L 142.134207 297.172011 
L 140.889919 296.139437 
L 140.267776 294.369312 
L 139.023489 292.156655 
L 138.090273 291.566613 
L 136.845986 290.976571 
L 135.912771 290.239019 
L 135.290627 288.911424 
L 135.601699 287.58383 
L 135.601699 286.551257 
L 135.912771 285.371173 
L 136.534914 284.3386 
L 135.912771 284.48611 
L 135.290627 284.928642 
L 134.979555 285.223663 
L 134.357412 285.518684 
L 133.735268 285.666194 
L 133.113124 285.666194 
L 132.802053 285.666194 
L 132.179909 285.518684 
L 128.447047 286.108726 
L 126.269545 286.993788 
L 124.092042 288.321383 
L 121.91454 289.943998 
L 120.670252 291.566613 
L 120.048109 291.566613 
L 120.048109 290.239019 
L 120.048109 286.551257 
L 119.737037 284.633621 
L 119.737037 283.601048 
L 120.048109 282.568474 
L 119.114893 281.830922 
L 116.004175 276.963077 
L 115.693104 276.963077 
L 115.693104 276.520545 
L 115.382032 276.520545 
L 114.759888 276.373035 
L 114.759888 275.635482 
L 114.137744 274.75042 
L 111.960242 271.80021 
L 111.338098 271.505189 
L 111.027026 270.620126 
L 110.404883 269.735064 
L 109.471667 269.440043 
L 110.715955 267.964938 
L 111.027026 267.227386 
L 111.027026 266.194812 
L 111.027026 265.30975 
L 109.782739 263.687134 
L 109.471667 262.802072 
L 111.338098 263.097093 
L 111.64917 263.392113 
L 112.271314 263.097093 
L 112.582385 263.244603 
L 112.893457 263.982155 
L 114.448816 263.392113 
L 116.004175 263.392113 
L 117.559534 263.982155 
L 118.803822 264.719708 
L 120.048109 265.899791 
L 121.603468 268.850001 
L 124.714186 270.472616 
L 126.891688 272.390252 
L 129.069191 274.012867 
L 130.62455 273.717846 
L 131.246694 273.717846 
L 131.246694 272.980294 
L 130.313478 272.832783 
L 129.380263 272.390252 
L 128.758119 271.6527 
L 128.447047 270.620126 
L 129.380263 270.620126 
L 129.380263 270.030085 
L 126.891688 269.440043 
L 124.714186 268.70249 
L 123.469899 267.374896 
L 124.092042 265.30975 
L 125.025258 264.424687 
L 127.824904 263.539624 
L 128.758119 262.802072 
L 129.380263 261.917009 
L 130.002406 261.031946 
L 130.62455 260.589415 
L 131.868837 261.031946 
L 131.868837 259.999373 
L 132.179909 259.11431 
L 132.490981 258.229247 
L 133.113124 257.491695 
L 134.04634 257.786716 
L 139.645632 258.081737 
L 141.200991 258.524268 
L 142.134207 258.671778 
L 142.75635 258.376758 
L 144.622781 257.196674 
L 145.555996 256.901653 
L 144.000637 256.459121 
L 142.134207 256.754142 
L 140.267776 256.606632 
L 140.267776 255.574059 
L 141.823135 253.508912 
L 144.933853 246.723431 
L 142.75635 249.378619 
L 141.512063 251.738786 
L 139.645632 253.508912 
L 136.534914 254.393975 
L 134.979555 254.393975 
L 133.735268 254.098954 
L 132.490981 254.098954 
L 130.313478 255.426548 
L 128.758119 255.574059 
L 127.513832 255.131527 
L 126.580617 253.951443 
L 128.447047 253.508912 
L 129.380263 252.476339 
L 130.313478 251.296255 
L 131.868837 250.263682 
L 131.868837 249.67364 
L 131.246694 249.526129 
L 130.62455 249.378619 
L 130.313478 249.083598 
L 130.002406 248.493556 
L 129.380263 248.493556 
L 128.758119 251.148745 
L 128.135976 252.181318 
L 127.20276 252.623849 
L 125.647401 252.181318 
L 124.403114 251.148745 
L 122.847755 249.083598 
L 121.91454 249.526129 
L 121.292396 249.526129 
L 120.981324 248.936088 
L 120.670252 247.903514 
L 120.048109 249.378619 
L 120.981324 250.411192 
L 122.225611 251.001234 
L 123.469899 251.443766 
L 122.225611 252.033807 
L 124.714186 253.803933 
L 125.025258 255.86908 
L 123.469899 257.639205 
L 121.91454 259.26182 
L 122.225611 259.999373 
L 122.225611 260.736925 
L 121.603468 261.326967 
L 120.981324 261.621988 
L 120.048109 261.326967 
L 119.737037 260.736925 
L 117.248463 256.901653 
L 116.626319 255.426548 
L 116.004175 252.91887 
L 115.382032 251.296255 
L 114.448816 249.82115 
L 113.826673 248.788577 
L 113.204529 247.903514 
L 113.204529 246.42841 
L 113.515601 243.773221 
L 113.826673 243.625711 
L 113.515601 234.480062 
L 115.693104 231.677363 
L 116.937391 231.382342 
L 117.248463 231.677363 
L 117.559534 232.267405 
L 118.181678 232.857447 
L 124.714186 232.857447 
L 126.269545 232.562426 
L 127.824904 231.824873 
L 130.313478 231.529852 
L 135.290627 231.677363 
L 131.868837 230.644789 
L 131.246694 230.7923 
L 130.62455 231.382342 
L 129.069191 231.382342 
L 127.513832 231.087321 
L 126.580617 230.497279 
L 125.647401 230.93981 
L 124.092042 231.234831 
L 122.847755 231.087321 
L 122.225611 230.202258 
L 122.225611 229.612216 
L 121.603468 229.317195 
L 120.981324 229.464706 
L 120.670252 229.317195 
L 120.359181 228.579643 
L 120.670252 228.284622 
L 120.981324 228.137112 
L 121.91454 226.514496 
L 123.469899 225.629434 
L 125.647401 225.334413 
L 127.824904 225.186902 
L 127.824904 224.44935 
L 126.269545 224.006818 
L 124.092042 224.44935 
L 120.670252 225.776944 
L 118.49275 225.924454 
L 116.315247 225.481923 
L 114.759888 224.154329 
L 114.137744 222.089182 
L 113.826673 222.531714 
L 113.515601 222.531714 
L 113.515601 222.679224 
L 113.515601 223.416777 
L 112.271314 222.089182 
L 111.64917 222.236693 
L 111.64917 222.531714 
L 111.338098 222.826735 
L 111.027026 223.416777 
L 109.160596 221.794161 
L 109.471667 217.663868 
z
" clip-path="url(#pa97865a6fe)" style="fill: #e74c3c; stroke: #ffffff; stroke-width: 0.6"/>
    <path d="M 138.401345 344.22785 
L 138.401345 343.637808 
L 141.512063 342.900256 
L 141.823135 341.720172 
L 143.067422 340.540088 
L 144.311709 340.097557 
L 147.733499 339.507515 
L 157.065653 339.507515 
L 158.621012 339.360005 
L 161.73173 338.474942 
L 167.019951 338.03241 
L 168.57531 338.179921 
L 170.441741 338.917473 
L 169.197453 340.392578 
L 169.819597 340.835109 
L 173.241387 340.687599 
L 174.796746 341.13013 
L 176.041033 342.015193 
L 176.974248 343.047766 
L 177.907464 344.22785 
L 176.974248 344.965402 
L 176.974248 345.850465 
L 177.596392 348.505654 
L 177.28532 349.980758 
L 176.663177 351.013332 
L 175.729961 351.898394 
L 175.107818 353.225989 
L 175.107818 354.701093 
L 175.729961 357.503792 
L 175.729961 358.683876 
L 174.485674 359.568939 
L 173.241387 359.86396 
L 171.686028 359.421428 
L 171.063884 358.093834 
L 172.619243 358.093834 
L 171.374956 355.881177 
L 170.130669 353.66852 
L 168.264238 352.045905 
L 166.397807 351.455863 
L 165.15352 351.308353 
L 157.376725 349.243206 
L 154.577079 347.768101 
L 147.111355 346.735528 
z
" clip-path="url(#pa97865a6fe)" style="fill: #e74c3c; stroke: #ffffff; stroke-width: 0.6"/>
   </g>
   <g id="text_1">
    <g id="patch_2">
     <path d="M 407.668094 142.687223 
L 435.251376 142.687223 
Q 436.651376 142.687223 436.651376 141.287223 
L 436.651376 134.286676 
Q 436.651376 132.886676 435.251376 132.886676 
L 407.668094 132.886676 
Q 406.268094 132.886676 406.268094 134.286676 
L 406.268094 141.287223 
Q 406.268094 142.687223 407.668094 142.687223 
z
" clip-path="url(#pa97865a6fe)" style="fill: #ffffff; opacity: 0.6"/>
    </g>
    <g clip-path="url(#pa97865a6fe)">
     <!-- Guinea -->
     <g style="fill: #1a252f" transform="translate(407.668094 139.605582) scale(0.07 -0.07)">
      <defs>
       <path id="DejaVuSans-Bold-2a" d="M 4781 347 
Q 4331 128 3847 18 
Q 3363 -91 2847 -91 
Q 1681 -91 1000 561 
Q 319 1213 319 2328 
Q 319 3456 1012 4103 
Q 1706 4750 2913 4750 
Q 3378 4750 3804 4662 
Q 4231 4575 4609 4403 
L 4609 3438 
Q 4219 3659 3833 3768 
Q 3447 3878 3059 3878 
Q 2341 3878 1952 3476 
Q 1563 3075 1563 2328 
Q 1563 1588 1938 1184 
Q 2313 781 3003 781 
Q 3191 781 3352 804 
Q 3513 828 3641 878 
L 3641 1784 
L 2906 1784 
L 2906 2591 
L 4781 2591 
L 4781 347 
z
" transform="scale(0.015625)"/>
       <path id="DejaVuSans-Bold-58" d="M 500 1363 
L 500 3500 
L 1625 3500 
L 1625 3150 
Q 1625 2866 1622 2436 
Q 1619 2006 1619 1863 
Q 1619 1441 1641 1255 
Q 1663 1069 1716 984 
Q 1784 875 1895 815 
Q 2006 756 2150 756 
Q 2500 756 2700 1025 
Q 2900 1294 2900 1772 
L 2900 3500 
L 4019 3500 
L 4019 0 
L 2900 0 
L 2900 506 
Q 2647 200 2364 54 
Q 2081 -91 1741 -91 
Q 1134 -91 817 281 
Q 500 653 500 1363 
z
" transform="scale(0.015625)"/>
       <path id="DejaVuSans-Bold-4c" d="M 538 3500 
L 1656 3500 
L 1656 0 
L 538 0 
L 538 3500 
z
M 538 4863 
L 1656 4863 
L 1656 3950 
L 538 3950 
L 538 4863 
z
" transform="scale(0.015625)"/>
       <path id="DejaVuSans-Bold-51" d="M 4056 2131 
L 4056 0 
L 2931 0 
L 2931 347 
L 2931 1631 
Q 2931 2084 2911 2256 
Q 2891 2428 2841 2509 
Q 2775 2619 2662 2680 
Q 2550 2741 2406 2741 
Q 2056 2741 1856 2470 
Q 1656 2200 1656 1722 
L 1656 0 
L 538 0 
L 538 3500 
L 1656 3500 
L 1656 2988 
Q 1909 3294 2193 3439 
Q 2478 3584 2822 3584 
Q 3428 3584 3742 3212 
Q 4056 2841 4056 2131 
z
" transform="scale(0.015625)"/>
       <path id="DejaVuSans-Bold-48" d="M 4031 1759 
L 4031 1441 
L 1416 1441 
Q 1456 1047 1700 850 
Q 1944 653 2381 653 
Q 2734 653 3104 758 
Q 3475 863 3866 1075 
L 3866 213 
Q 3469 63 3072 -14 
Q 2675 -91 2278 -91 
Q 1328 -91 801 392 
Q 275 875 275 1747 
Q 275 2603 792 3093 
Q 1309 3584 2216 3584 
Q 3041 3584 3536 3087 
Q 4031 2591 4031 1759 
z
M 2881 2131 
Q 2881 2450 2695 2645 
Q 2509 2841 2209 2841 
Q 1884 2841 1681 2658 
Q 1478 2475 1428 2131 
L 2881 2131 
z
" transform="scale(0.015625)"/>
       <path id="DejaVuSans-Bold-44" d="M 2106 1575 
Q 1756 1575 1579 1456 
Q 1403 1338 1403 1106 
Q 1403 894 1545 773 
Q 1688 653 1941 653 
Q 2256 653 2472 879 
Q 2688 1106 2688 1447 
L 2688 1575 
L 2106 1575 
z
M 3816 1997 
L 3816 0 
L 2688 0 
L 2688 519 
Q 2463 200 2181 54 
Q 1900 -91 1497 -91 
Q 953 -91 614 226 
Q 275 544 275 1050 
Q 275 1666 698 1953 
Q 1122 2241 2028 2241 
L 2688 2241 
L 2688 2328 
Q 2688 2594 2478 2717 
Q 2269 2841 1825 2841 
Q 1466 2841 1156 2769 
Q 847 2697 581 2553 
L 581 3406 
Q 941 3494 1303 3539 
Q 1666 3584 2028 3584 
Q 2975 3584 3395 3211 
Q 3816 2838 3816 1997 
z
" transform="scale(0.015625)"/>
      </defs>
      <use xlink:href="#DejaVuSans-Bold-2a"/>
      <use xlink:href="#DejaVuSans-Bold-58" transform="translate(82.078125 0)"/>
      <use xlink:href="#DejaVuSans-Bold-4c" transform="translate(153.265625 0)"/>
      <use xlink:href="#DejaVuSans-Bold-51" transform="translate(187.546875 0)"/>
      <use xlink:href="#DejaVuSans-Bold-48" transform="translate(258.734375 0)"/>
      <use xlink:href="#DejaVuSans-Bold-44" transform="translate(326.5625 0)"/>
     </g>
    </g>
   </g>
   <g id="text_2">
    <g id="patch_3">
     <path d="M 407.102052 446.411277 
L 434.295958 446.411277 
Q 435.695958 446.411277 435.695958 445.011277 
L 435.695958 438.010731 
Q 435.695958 436.610731 434.295958 436.610731 
L 407.102052 436.610731 
Q 405.702052 436.610731 405.702052 438.010731 
L 405.702052 445.011277 
Q 405.702052 446.411277 407.102052 446.411277 
z
" clip-path="url(#pa97865a6fe)" style="fill: #ffffff; opacity: 0.6"/>
    </g>
    <g clip-path="url(#pa97865a6fe)">
     <!-- Liberia -->
     <g style="fill: #1a252f" transform="translate(407.102052 443.329637) scale(0.07 -0.07)">
      <defs>
       <path id="DejaVuSans-Bold-2f" d="M 588 4666 
L 1791 4666 
L 1791 909 
L 3903 909 
L 3903 0 
L 588 0 
L 588 4666 
z
" transform="scale(0.015625)"/>
       <path id="DejaVuSans-Bold-45" d="M 2400 722 
Q 2759 722 2948 984 
Q 3138 1247 3138 1747 
Q 3138 2247 2948 2509 
Q 2759 2772 2400 2772 
Q 2041 2772 1848 2508 
Q 1656 2244 1656 1747 
Q 1656 1250 1848 986 
Q 2041 722 2400 722 
z
M 1656 2988 
Q 1888 3294 2169 3439 
Q 2450 3584 2816 3584 
Q 3463 3584 3878 3070 
Q 4294 2556 4294 1747 
Q 4294 938 3878 423 
Q 3463 -91 2816 -91 
Q 2450 -91 2169 54 
Q 1888 200 1656 506 
L 1656 0 
L 538 0 
L 538 4863 
L 1656 4863 
L 1656 2988 
z
" transform="scale(0.015625)"/>
       <path id="DejaVuSans-Bold-55" d="M 3138 2547 
Q 2991 2616 2845 2648 
Q 2700 2681 2553 2681 
Q 2122 2681 1889 2404 
Q 1656 2128 1656 1613 
L 1656 0 
L 538 0 
L 538 3500 
L 1656 3500 
L 1656 2925 
Q 1872 3269 2151 3426 
Q 2431 3584 2822 3584 
Q 2878 3584 2943 3579 
Q 3009 3575 3134 3559 
L 3138 2547 
z
" transform="scale(0.015625)"/>
      </defs>
      <use xlink:href="#DejaVuSans-Bold-2f"/>
      <use xlink:href="#DejaVuSans-Bold-4c" transform="translate(63.71875 0)"/>
      <use xlink:href="#DejaVuSans-Bold-45" transform="translate(98 0)"/>
      <use xlink:href="#DejaVuSans-Bold-48" transform="translate(169.578125 0)"/>
      <use xlink:href="#DejaVuSans-Bold-55" transform="translate(237.40625 0)"/>
      <use xlink:href="#DejaVuSans-Bold-4c" transform="translate(286.71875 0)"/>
      <use xlink:href="#DejaVuSans-Bold-44" transform="translate(321 0)"/>
     </g>
    </g>
   </g>
   <g id="text_3">
    <!-- Sierra Leone -->
    <g style="fill: #1a252f" transform="translate(177.849903 20.117344) scale(0.17 -0.17)">
     <defs>
      <path id="DejaVuSans-Bold-36" d="M 3834 4519 
L 3834 3531 
Q 3450 3703 3084 3790 
Q 2719 3878 2394 3878 
Q 1963 3878 1756 3759 
Q 1550 3641 1550 3391 
Q 1550 3203 1689 3098 
Q 1828 2994 2194 2919 
L 2706 2816 
Q 3484 2659 3812 2340 
Q 4141 2022 4141 1434 
Q 4141 663 3683 286 
Q 3225 -91 2284 -91 
Q 1841 -91 1394 -6 
Q 947 78 500 244 
L 500 1259 
Q 947 1022 1364 901 
Q 1781 781 2169 781 
Q 2563 781 2772 912 
Q 2981 1044 2981 1288 
Q 2981 1506 2839 1625 
Q 2697 1744 2272 1838 
L 1806 1941 
Q 1106 2091 782 2419 
Q 459 2747 459 3303 
Q 459 4000 909 4375 
Q 1359 4750 2203 4750 
Q 2588 4750 2994 4692 
Q 3400 4634 3834 4519 
z
" transform="scale(0.015625)"/>
      <path id="DejaVuSans-Bold-3" transform="scale(0.015625)"/>
      <path id="DejaVuSans-Bold-52" d="M 2203 2784 
Q 1831 2784 1636 2517 
Q 1441 2250 1441 1747 
Q 1441 1244 1636 976 
Q 1831 709 2203 709 
Q 2569 709 2762 976 
Q 2956 1244 2956 1747 
Q 2956 2250 2762 2517 
Q 2569 2784 2203 2784 
z
M 2203 3584 
Q 3106 3584 3614 3096 
Q 4122 2609 4122 1747 
Q 4122 884 3614 396 
Q 3106 -91 2203 -91 
Q 1297 -91 786 396 
Q 275 884 275 1747 
Q 275 2609 786 3096 
Q 1297 3584 2203 3584 
z
" transform="scale(0.015625)"/>
     </defs>
     <use xlink:href="#DejaVuSans-Bold-36"/>
     <use xlink:href="#DejaVuSans-Bold-4c" transform="translate(72.015625 0)"/>
     <use xlink:href="#DejaVuSans-Bold-48" transform="translate(106.296875 0)"/>
     <use xlink:href="#DejaVuSans-Bold-55" transform="translate(174.125 0)"/>
     <use xlink:href="#DejaVuSans-Bold-55" transform="translate(223.4375 0)"/>
     <use xlink:href="#DejaVuSans-Bold-44" transform="translate(272.75 0)"/>
     <use xlink:href="#DejaVuSans-Bold-3" transform="translate(340.234375 0)"/>
     <use xlink:href="#DejaVuSans-Bold-2f" transform="translate(375.046875 0)"/>
     <use xlink:href="#DejaVuSans-Bold-48" transform="translate(438.765625 0)"/>
     <use xlink:href="#DejaVuSans-Bold-52" transform="translate(506.59375 0)"/>
     <use xlink:href="#DejaVuSans-Bold-51" transform="translate(575.296875 0)"/>
     <use xlink:href="#DejaVuSans-Bold-48" transform="translate(646.484375 0)"/>
    </g>
   </g>
   <g id="line2d_1">
    <path d="M 121.21735 280.348334 
" clip-path="url(#pa97865a6fe)" style="fill: none; stroke: #ffffff; stroke-width: 1.5; stroke-linecap: square"/>
    <defs>
     <path id="md6fdacfd23" d="M 0 2.5 
C 0.663008 2.5 1.29895 2.236584 1.767767 1.767767 
C 2.236584 1.29895 2.5 0.663008 2.5 0 
C 2.5 -0.663008 2.236584 -1.29895 1.767767 -1.767767 
C 1.29895 -2.236584 0.663008 -2.5 0 -2.5 
C -0.663008 -2.5 -1.29895 -2.236584 -1.767767 -1.767767 
C -2.236584 -1.29895 -2.5 -0.663008 -2.5 0 
C -2.5 0.663008 -2.236584 1.29895 -1.767767 1.767767 
C -1.29895 2.236584 -0.663008 2.5 0 2.5 
z
" style="stroke: #1a252f; stroke-width: 0.8"/>
    </defs>
    <g clip-path="url(#pa97865a6fe)">
     <use xlink:href="#md6fdacfd23" x="121.21735" y="280.348334" style="fill: #ffffff; stroke: #1a252f; stroke-width: 0.8"/>
    </g>
   </g>
   <g id="text_4">
    <g clip-path="url(#pa97865a6fe)">
     <!-- Freetown -->
     <g style="fill: #ffffff" transform="translate(133.768319 282.296576) scale(0.075 -0.075)">
      <defs>
       <path id="DejaVuSans-Bold-29" d="M 588 4666 
L 3834 4666 
L 3834 3756 
L 1791 3756 
L 1791 2888 
L 3713 2888 
L 3713 1978 
L 1791 1978 
L 1791 0 
L 588 0 
L 588 4666 
z
" transform="scale(0.015625)"/>
       <path id="DejaVuSans-Bold-57" d="M 1759 4494 
L 1759 3500 
L 2913 3500 
L 2913 2700 
L 1759 2700 
L 1759 1216 
Q 1759 972 1856 886 
Q 1953 800 2241 800 
L 2816 800 
L 2816 0 
L 1856 0 
Q 1194 0 917 276 
Q 641 553 641 1216 
L 641 2700 
L 84 2700 
L 84 3500 
L 641 3500 
L 641 4494 
L 1759 4494 
z
" transform="scale(0.015625)"/>
       <path id="DejaVuSans-Bold-5a" d="M 225 3500 
L 1313 3500 
L 1900 1088 
L 2491 3500 
L 3425 3500 
L 4013 1113 
L 4603 3500 
L 5691 3500 
L 4769 0 
L 3547 0 
L 2956 2406 
L 2369 0 
L 1147 0 
L 225 3500 
z
" transform="scale(0.015625)"/>
      </defs>
      <use xlink:href="#DejaVuSans-Bold-29"/>
      <use xlink:href="#DejaVuSans-Bold-55" transform="translate(61.921875 0)"/>
      <use xlink:href="#DejaVuSans-Bold-48" transform="translate(111.234375 0)"/>
      <use xlink:href="#DejaVuSans-Bold-48" transform="translate(179.0625 0)"/>
      <use xlink:href="#DejaVuSans-Bold-57" transform="translate(246.890625 0)"/>
      <use xlink:href="#DejaVuSans-Bold-52" transform="translate(294.6875 0)"/>
      <use xlink:href="#DejaVuSans-Bold-5a" transform="translate(363.390625 0)"/>
      <use xlink:href="#DejaVuSans-Bold-51" transform="translate(455.78125 0)"/>
     </g>
    </g>
   </g>
   <g id="legend_1">
    <g id="patch_4">
     <path d="M 13.5 498.657344 
L 98.812969 498.657344 
Q 100.612969 498.657344 100.612969 496.857344 
L 100.612969 470.755937 
Q 100.612969 468.955937 98.812969 468.955937 
L 13.5 468.955937 
Q 11.7 468.955937 11.7 470.755937 
L 11.7 496.857344 
Q 11.7 498.657344 13.5 498.657344 
z
" style="fill: #ffffff; opacity: 0.85; stroke: #cccccc; stroke-linejoin: miter"/>
    </g>
    <g id="patch_5">
     <path d="M 15.3 479.394531 
L 33.3 479.394531 
L 33.3 473.094531 
L 15.3 473.094531 
z
" style="fill: #e74c3c; stroke: #888888; stroke-linejoin: miter"/>
    </g>
    <g id="text_5">
     <!-- Sierra Leone -->
     <g transform="translate(40.5 479.394531) scale(0.09 -0.09)">
      <defs>
       <path id="DejaVuSans-36" d="M 3425 4513 
L 3425 3897 
Q 3066 4069 2747 4153 
Q 2428 4238 2131 4238 
Q 1616 4238 1336 4038 
Q 1056 3838 1056 3469 
Q 1056 3159 1242 3001 
Q 1428 2844 1947 2747 
L 2328 2669 
Q 3034 2534 3370 2195 
Q 3706 1856 3706 1288 
Q 3706 609 3251 259 
Q 2797 -91 1919 -91 
Q 1588 -91 1214 -16 
Q 841 59 441 206 
L 441 856 
Q 825 641 1194 531 
Q 1563 422 1919 422 
Q 2459 422 2753 634 
Q 3047 847 3047 1241 
Q 3047 1584 2836 1778 
Q 2625 1972 2144 2069 
L 1759 2144 
Q 1053 2284 737 2584 
Q 422 2884 422 3419 
Q 422 4038 858 4394 
Q 1294 4750 2059 4750 
Q 2388 4750 2728 4690 
Q 3069 4631 3425 4513 
z
" transform="scale(0.015625)"/>
       <path id="DejaVuSans-4c" d="M 603 3500 
L 1178 3500 
L 1178 0 
L 603 0 
L 603 3500 
z
M 603 4863 
L 1178 4863 
L 1178 4134 
L 603 4134 
L 603 4863 
z
" transform="scale(0.015625)"/>
       <path id="DejaVuSans-48" d="M 3597 1894 
L 3597 1613 
L 953 1613 
Q 991 1019 1311 708 
Q 1631 397 2203 397 
Q 2534 397 2845 478 
Q 3156 559 3463 722 
L 3463 178 
Q 3153 47 2828 -22 
Q 2503 -91 2169 -91 
Q 1331 -91 842 396 
Q 353 884 353 1716 
Q 353 2575 817 3079 
Q 1281 3584 2069 3584 
Q 2775 3584 3186 3129 
Q 3597 2675 3597 1894 
z
M 3022 2063 
Q 3016 2534 2758 2815 
Q 2500 3097 2075 3097 
Q 1594 3097 1305 2825 
Q 1016 2553 972 2059 
L 3022 2063 
z
" transform="scale(0.015625)"/>
       <path id="DejaVuSans-55" d="M 2631 2963 
Q 2534 3019 2420 3045 
Q 2306 3072 2169 3072 
Q 1681 3072 1420 2755 
Q 1159 2438 1159 1844 
L 1159 0 
L 581 0 
L 581 3500 
L 1159 3500 
L 1159 2956 
Q 1341 3275 1631 3429 
Q 1922 3584 2338 3584 
Q 2397 3584 2469 3576 
Q 2541 3569 2628 3553 
L 2631 2963 
z
" transform="scale(0.015625)"/>
       <path id="DejaVuSans-44" d="M 2194 1759 
Q 1497 1759 1228 1600 
Q 959 1441 959 1056 
Q 959 750 1161 570 
Q 1363 391 1709 391 
Q 2188 391 2477 730 
Q 2766 1069 2766 1631 
L 2766 1759 
L 2194 1759 
z
M 3341 1997 
L 3341 0 
L 2766 0 
L 2766 531 
Q 2569 213 2275 61 
Q 1981 -91 1556 -91 
Q 1019 -91 701 211 
Q 384 513 384 1019 
Q 384 1609 779 1909 
Q 1175 2209 1959 2209 
L 2766 2209 
L 2766 2266 
Q 2766 2663 2505 2880 
Q 2244 3097 1772 3097 
Q 1472 3097 1187 3025 
Q 903 2953 641 2809 
L 641 3341 
Q 956 3463 1253 3523 
Q 1550 3584 1831 3584 
Q 2591 3584 2966 3190 
Q 3341 2797 3341 1997 
z
" transform="scale(0.015625)"/>
       <path id="DejaVuSans-3" transform="scale(0.015625)"/>
       <path id="DejaVuSans-2f" d="M 628 4666 
L 1259 4666 
L 1259 531 
L 3531 531 
L 3531 0 
L 628 0 
L 628 4666 
z
" transform="scale(0.015625)"/>
       <path id="DejaVuSans-52" d="M 1959 3097 
Q 1497 3097 1228 2736 
Q 959 2375 959 1747 
Q 959 1119 1226 758 
Q 1494 397 1959 397 
Q 2419 397 2687 759 
Q 2956 1122 2956 1747 
Q 2956 2369 2687 2733 
Q 2419 3097 1959 3097 
z
M 1959 3584 
Q 2709 3584 3137 3096 
Q 3566 2609 3566 1747 
Q 3566 888 3137 398 
Q 2709 -91 1959 -91 
Q 1206 -91 779 398 
Q 353 888 353 1747 
Q 353 2609 779 3096 
Q 1206 3584 1959 3584 
z
" transform="scale(0.015625)"/>
       <path id="DejaVuSans-51" d="M 3513 2113 
L 3513 0 
L 2938 0 
L 2938 2094 
Q 2938 2591 2744 2837 
Q 2550 3084 2163 3084 
Q 1697 3084 1428 2787 
Q 1159 2491 1159 1978 
L 1159 0 
L 581 0 
L 581 3500 
L 1159 3500 
L 1159 2956 
Q 1366 3272 1645 3428 
Q 1925 3584 2291 3584 
Q 2894 3584 3203 3211 
Q 3513 2838 3513 2113 
z
" transform="scale(0.015625)"/>
      </defs>
      <use xlink:href="#DejaVuSans-36"/>
      <use xlink:href="#DejaVuSans-4c" transform="translate(63.484375 0)"/>
      <use xlink:href="#DejaVuSans-48" transform="translate(91.265625 0)"/>
      <use xlink:href="#DejaVuSans-55" transform="translate(152.796875 0)"/>
      <use xlink:href="#DejaVuSans-55" transform="translate(192.15625 0)"/>
      <use xlink:href="#DejaVuSans-44" transform="translate(233.265625 0)"/>
      <use xlink:href="#DejaVuSans-3" transform="translate(294.546875 0)"/>
      <use xlink:href="#DejaVuSans-2f" transform="translate(326.328125 0)"/>
      <use xlink:href="#DejaVuSans-48" transform="translate(380.296875 0)"/>
      <use xlink:href="#DejaVuSans-52" transform="translate(441.828125 0)"/>
      <use xlink:href="#DejaVuSans-51" transform="translate(503.015625 0)"/>
      <use xlink:href="#DejaVuSans-48" transform="translate(566.390625 0)"/>
     </g>
    </g>
    <g id="patch_6">
     <path d="M 15.3 492.895234 
L 33.3 492.895234 
L 33.3 486.595234 
L 15.3 486.595234 
z
" style="fill: #bdc3c7; stroke: #888888; stroke-linejoin: miter"/>
    </g>
    <g id="text_6">
     <!-- Neighbors -->
     <g transform="translate(40.5 492.895234) scale(0.09 -0.09)">
      <defs>
       <path id="DejaVuSans-31" d="M 628 4666 
L 1478 4666 
L 3547 763 
L 3547 4666 
L 4159 4666 
L 4159 0 
L 3309 0 
L 1241 3903 
L 1241 0 
L 628 0 
L 628 4666 
z
" transform="scale(0.015625)"/>
       <path id="DejaVuSans-4a" d="M 2906 1791 
Q 2906 2416 2648 2759 
Q 2391 3103 1925 3103 
Q 1463 3103 1205 2759 
Q 947 2416 947 1791 
Q 947 1169 1205 825 
Q 1463 481 1925 481 
Q 2391 481 2648 825 
Q 2906 1169 2906 1791 
z
M 3481 434 
Q 3481 -459 3084 -895 
Q 2688 -1331 1869 -1331 
Q 1566 -1331 1297 -1286 
Q 1028 -1241 775 -1147 
L 775 -588 
Q 1028 -725 1275 -790 
Q 1522 -856 1778 -856 
Q 2344 -856 2625 -561 
Q 2906 -266 2906 331 
L 2906 616 
Q 2728 306 2450 153 
Q 2172 0 1784 0 
Q 1141 0 747 490 
Q 353 981 353 1791 
Q 353 2603 747 3093 
Q 1141 3584 1784 3584 
Q 2172 3584 2450 3431 
Q 2728 3278 2906 2969 
L 2906 3500 
L 3481 3500 
L 3481 434 
z
" transform="scale(0.015625)"/>
       <path id="DejaVuSans-4b" d="M 3513 2113 
L 3513 0 
L 2938 0 
L 2938 2094 
Q 2938 2591 2744 2837 
Q 2550 3084 2163 3084 
Q 1697 3084 1428 2787 
Q 1159 2491 1159 1978 
L 1159 0 
L 581 0 
L 581 4863 
L 1159 4863 
L 1159 2956 
Q 1366 3272 1645 3428 
Q 1925 3584 2291 3584 
Q 2894 3584 3203 3211 
Q 3513 2838 3513 2113 
z
" transform="scale(0.015625)"/>
       <path id="DejaVuSans-45" d="M 3116 1747 
Q 3116 2381 2855 2742 
Q 2594 3103 2138 3103 
Q 1681 3103 1420 2742 
Q 1159 2381 1159 1747 
Q 1159 1113 1420 752 
Q 1681 391 2138 391 
Q 2594 391 2855 752 
Q 3116 1113 3116 1747 
z
M 1159 2969 
Q 1341 3281 1617 3432 
Q 1894 3584 2278 3584 
Q 2916 3584 3314 3078 
Q 3713 2572 3713 1747 
Q 3713 922 3314 415 
Q 2916 -91 2278 -91 
Q 1894 -91 1617 61 
Q 1341 213 1159 525 
L 1159 0 
L 581 0 
L 581 4863 
L 1159 4863 
L 1159 2969 
z
" transform="scale(0.015625)"/>
       <path id="DejaVuSans-56" d="M 2834 3397 
L 2834 2853 
Q 2591 2978 2328 3040 
Q 2066 3103 1784 3103 
Q 1356 3103 1142 2972 
Q 928 2841 928 2578 
Q 928 2378 1081 2264 
Q 1234 2150 1697 2047 
L 1894 2003 
Q 2506 1872 2764 1633 
Q 3022 1394 3022 966 
Q 3022 478 2636 193 
Q 2250 -91 1575 -91 
Q 1294 -91 989 -36 
Q 684 19 347 128 
L 347 722 
Q 666 556 975 473 
Q 1284 391 1588 391 
Q 1994 391 2212 530 
Q 2431 669 2431 922 
Q 2431 1156 2273 1281 
Q 2116 1406 1581 1522 
L 1381 1569 
Q 847 1681 609 1914 
Q 372 2147 372 2553 
Q 372 3047 722 3315 
Q 1072 3584 1716 3584 
Q 2034 3584 2315 3537 
Q 2597 3491 2834 3397 
z
" transform="scale(0.015625)"/>
      </defs>
      <use xlink:href="#DejaVuSans-31"/>
      <use xlink:href="#DejaVuSans-48" transform="translate(74.8125 0)"/>
      <use xlink:href="#DejaVuSans-4c" transform="translate(136.34375 0)"/>
      <use xlink:href="#DejaVuSans-4a" transform="translate(164.125 0)"/>
      <use xlink:href="#DejaVuSans-4b" transform="translate(227.609375 0)"/>
      <use xlink:href="#DejaVuSans-45" transform="translate(290.984375 0)"/>
      <use xlink:href="#DejaVuSans-52" transform="translate(354.46875 0)"/>
      <use xlink:href="#DejaVuSans-55" transform="translate(415.65625 0)"/>
      <use xlink:href="#DejaVuSans-56" transform="translate(456.765625 0)"/>
     </g>
    </g>
   </g>
  </g>
 </g>
 <defs>
  <clipPath id="pa97865a6fe">
   <rect x="7.2" y="30.117344" width="462.73293" height="473.04"/>
  </clipPath>
 </defs>
</svg>
