<?xml version="1.0" encoding="utf-8" standalone="no"?>
<!DOCTYPE svg PUBLIC "-//W3C//DTD SVG 1.1//EN"
  "http://www.w3.org/Graphics/SVG/1.1/DTD/svg11.dtd">
<svg xmlns:xlink="http://www.w3.org/1999/xlink" width="532.214537pt" height="510.357344pt" viewBox="0 0 532.214537 510.357344" xmlns="http://www.w3.org/2000/svg" version="1.1">
 <metadata>
  <rdf:RDF xmlns:dc="http://purl.org/dc/elements/1.1/" xmlns:cc="http://creativecommons.org/ns#" xmlns:rdf="http://www.w3.org/1999/02/22-rdf-syntax-ns#">
   <cc:Work>
    <dc:type rdf:resource="http://purl.org/dc/dcmitype/StillImage"/>
    <dc:date>2026-06-19T08:14:17.743467</dc:date>
    <dc:format>image/svg+xml</dc:format>
    <dc:creator>
     <cc:Agent>
      <dc:title>Matplotlib v3.11.0, https://matplotlib.org/</dc:title>
     </cc:Agent>
    </dc:creator>
   </cc:Work>
  </rdf:RDF>
 </metadata>
 <defs>
  <style type="text/css">*{stroke-linejoin: round; stroke-linecap: butt}</style>
 </defs>
 <g id="figure_1">
  <g id="patch_1">
   <path d="M 0 510.357344 
L 532.214537 510.357344 
L 532.214537 0 
L 0 0 
z
" style="fill: #d6eaf8"/>
  </g>
  <g id="axes_1">
   <g id="PatchCollection_1">
    <path d="M 1707.258352 131.875741 
L 1707.258352 128.037594 
L 1709.076266 125.052368 
L 1719.074791 116.949614 
L 1720.892705 113.964388 
L 1725.437489 108.420398 
L 1731.800187 96.479497 
L 1736.344971 83.259213 
L 1738.162885 87.523821 
L 1738.162885 93.067811 
L 1740.889755 103.302869 
L 1740.889755 108.420398 
L 1739.980799 112.258545 
L 1739.071842 116.096692 
L 1739.071842 119.934839 
L 1740.889755 125.478829 
L 1748.16141 136.140348 
L 1753.615151 140.831417 
L 1758.159936 144.669564 
L 1773.612202 151.066475 
L 1782.70177 157.036926 
L 1793.609253 161.301534 
L 1797.24508 164.71322 
L 1800.880907 168.977828 
L 1804.516735 177.933504 
L 1808.152562 181.771651 
L 1811.78839 182.624572 
L 1823.604829 182.198111 
L 1827.240656 181.771651 
L 1830.876483 179.639347 
L 1836.330225 179.212886 
L 1868.143714 179.212886 
L 1871.779542 180.065808 
L 1876.324326 183.477494 
L 1879.960153 184.330415 
L 1880.86911 183.903954 
L 1884.504937 180.492268 
L 1886.322851 179.212886 
L 1889.049722 178.359964 
L 1889.958679 178.359964 
L 1891.776592 179.212886 
L 1898.13929 186.036258 
L 1899.957204 186.462719 
L 1900.866161 182.198111 
L 1903.593031 179.212886 
L 1903.593031 177.507043 
L 1903.593031 175.8012 
L 1902.684074 173.242435 
L 1901.775118 172.389514 
L 1901.775118 164.286759 
L 1901.775118 162.154455 
L 1905.410945 156.610465 
L 1909.046772 154.051701 
L 1912.6826 155.331083 
L 1914.500513 162.580916 
L 1917.227384 165.566141 
L 1918.136341 167.271984 
L 1918.136341 168.977828 
L 1917.227384 172.389514 
L 1918.136341 174.095357 
L 1919.045298 175.8012 
L 1919.954255 177.507043 
L 1920.863211 178.359964 
L 1922.681125 179.212886 
L 1924.499039 180.065808 
L 1927.225909 180.492268 
L 1932.67965 180.918729 
L 1935.406521 180.065808 
L 1938.133392 174.948278 
L 1945.405046 172.389514 
L 1949.949831 169.830749 
L 1954.494615 169.404288 
L 1957.221485 174.095357 
L 1954.494615 177.933504 
L 1952.676701 181.34519 
L 1950.858787 185.609798 
L 1950.858787 190.300866 
L 1949.949831 192.43317 
L 1945.405046 197.124238 
L 1943.587133 200.109464 
L 1950.858787 197.124238 
L 1953.585658 196.697778 
L 1957.221485 198.403621 
L 1959.948356 200.962385 
L 1960.857313 203.947611 
L 1961.76627 206.079914 
L 1964.49314 206.932836 
L 1966.311054 206.506375 
L 1971.764795 203.947611 
L 1974.491665 203.52115 
L 1978.127493 204.800532 
L 1989.034975 210.344522 
L 2003.578285 214.60913 
L 2009.940983 218.447277 
L 2012.667853 224.417728 
L 2010.849939 230.814639 
L 2007.214112 235.079247 
L 1997.215587 241.476158 
L 1997.215587 243.182001 
L 2003.578285 243.182001 
L 2009.032026 242.32908 
L 2013.57681 239.770315 
L 2019.030551 235.505708 
L 2021.757422 230.814639 
L 2020.848465 225.69711 
L 2019.939508 221.432502 
L 2019.939508 217.167894 
L 2026.302206 212.050365 
L 2038.118645 213.756208 
L 2059.933609 222.711884 
L 2070.841091 229.535257 
L 2089.929185 248.725991 
L 2099.018754 255.122903 
L 2114.47102 262.799197 
L 2117.197891 264.078579 
L 2123.560589 263.225658 
L 2131.7412 258.534589 
L 2137.194941 256.828746 
L 2145.375553 260.240432 
L 2154.465122 267.916726 
L 2164.463647 272.607795 
L 2175.371129 267.490265 
L 2170.826345 267.063805 
L 2164.463647 264.50504 
L 2160.827819 264.078579 
L 2159.918863 262.372736 
L 2157.191992 255.122903 
L 2155.374078 253.843521 
L 2151.738251 252.990599 
L 2144.466596 250.431835 
L 2140.830769 250.431835 
L 2138.103898 251.284756 
L 2129.01433 255.122903 
L 2123.560589 255.549364 
L 2118.106848 254.269981 
L 2114.47102 251.284756 
L 2110.835193 247.446609 
L 2106.290409 244.461384 
L 2095.382926 239.770315 
L 2090.838142 236.358629 
L 2086.293358 224.417728 
L 2081.748574 219.726659 
L 2079.93066 216.314973 
L 2079.93066 209.06514 
L 2079.93066 206.932836 
L 2083.566487 198.403621 
L 2085.384401 189.021484 
L 2088.111272 185.609798 
L 2102.654581 183.051033 
L 2108.108322 182.624572 
L 2113.562063 184.330415 
L 2116.288934 189.021484 
L 2119.924761 194.991934 
L 2123.560589 198.403621 
L 2129.923287 195.844856 
L 2132.650157 194.991934 
L 2136.285985 197.550699 
L 2140.830769 199.683003 
L 2146.28451 198.403621 
L 2140.830769 196.697778 
L 2139.012855 195.418395 
L 2134.468071 192.006709 
L 2131.7412 192.006709 
L 2129.923287 192.006709 
L 2124.469545 190.727327 
L 2122.651632 190.727327 
L 2122.651632 190.300866 
L 2121.742675 186.88918 
L 2119.015804 183.051033 
L 2118.106848 181.771651 
L 2117.197891 180.918729 
L 2112.653106 180.065808 
L 2111.74415 179.212886 
L 2110.835193 178.359964 
L 2104.472495 168.124906 
L 2103.563538 164.71322 
L 2102.654581 160.875073 
L 2104.472495 159.595691 
L 2109.926236 158.316308 
L 2111.74415 156.610465 
L 2110.835193 155.331083 
L 2107.199365 152.772318 
L 2106.290409 150.640014 
L 2107.199365 145.522485 
L 2109.017279 140.831417 
L 2114.47102 132.302201 
L 2122.651632 116.096692 
L 2129.923287 92.64135 
L 2130.832243 86.670899 
L 2131.7412 85.391517 
L 2135.377028 85.817977 
L 2139.921812 87.523821 
L 2146.28451 87.09736 
L 2139.921812 81.55337 
L 2139.012855 75.582919 
L 2142.648682 72.171233 
L 2147.193467 72.597694 
L 2152.647208 74.303537 
L 2161.736776 76.435841 
L 2163.55469 75.582919 
L 2167.190517 73.450615 
L 2169.008431 71.744772 
L 2173.553215 65.347861 
L 2174.462172 63.215557 
L 2171.735302 61.083253 
L 2169.008431 61.936174 
L 2166.281561 64.9214 
L 2164.463647 70.891851 
L 2161.736776 71.744772 
L 2159.009906 70.46539 
L 2151.738251 66.200782 
L 2147.193467 65.347861 
L 2129.01433 67.906625 
L 2125.378502 67.480164 
L 2123.560589 64.9214 
L 2123.560589 58.950949 
L 2125.378502 55.112802 
L 2129.01433 50.848194 
L 2134.468071 48.28943 
L 2139.012855 49.568812 
L 2136.285985 44.877744 
L 2131.7412 42.74544 
L 2127.196416 41.892518 
L 2125.378502 40.186675 
L 2125.378502 35.495607 
L 2129.01433 23.554705 
L 2130.832243 6.069814 
L 2134.468071 -1.180019 
L 2140.830769 -5.871088 
L 2142.648682 -1.60648 
L 2146.28451 0.099363 
L 2154.465122 3.084588 
L 2157.191992 5.216892 
L 2163.55469 13.319647 
L 2166.281561 15.02549 
L 2167.190517 15.451951 
L 2169.008431 17.157794 
L 2170.826345 18.010715 
L 2172.644258 17.584254 
L 2180.82487 12.040264 
L 2183.551741 11.187343 
L 2191.732352 9.907961 
L 2193.550266 10.334421 
L 2198.09505 13.746107 
L 2203.548791 16.731333 
L 2200.821921 12.040264 
L 2196.277137 6.922735 
L 2188.096525 -0.753559 
L 2185.369654 -3.738784 
L 2182.642784 -14.400303 
L 2180.82487 -18.23845 
L 2189.005482 -17.81199 
L 2195.36818 -15.679686 
L 2201.730878 -15.679686 
L 2206.275662 -19.944293 
L 2208.093576 -19.091372 
L 2208.093576 -18.664911 
L 2209.002532 -19.091372 
L 2209.911489 -19.944293 
L 2204.457748 -22.076597 
L 2195.36818 -24.208901 
L 2190.823395 -26.767666 
L 2188.096525 -29.32643 
L 2185.369654 -32.311656 
L 2183.551741 -36.149803 
L 2184.460698 -42.120253 
L 2188.096525 -57.899302 
L 2189.914439 -67.7079 
L 2191.732352 -71.119586 
L 2194.459223 -74.104811 
L 2212.63836 -88.178016 
L 2239.907065 -105.236447 
L 2248.087677 -108.648133 
L 2296.26239 -118.456731 
L 2334.438578 -119.736113 
L 2406.246169 -138.500387 
L 2476.235846 -156.8382 
L 2514.412034 -164.940955 
L 2529.8643 -171.337867 
L 2533.500127 -171.337867 
L 2577.130056 -184.984611 
L 2585.310668 -189.249219 
L 2598.94502 -203.748885 
L 2604.398762 -213.131022 
L 2600.762934 -219.101473 
L 2602.580848 -221.233777 
L 2609.852503 -225.498384 
L 2621.668942 -236.159903 
L 2624.395812 -237.865747 
L 2625.304769 -239.99805 
L 2634.394338 -253.218334 
L 2653.482431 -270.703226 
L 2658.027216 -277.526598 
L 2658.936172 -279.658902 
L 2659.845129 -281.791206 
L 2659.845129 -287.335196 
L 2661.663043 -289.89396 
L 2667.116784 -294.158568 
L 2668.934698 -295.864411 
L 2670.752611 -298.423176 
L 2682.56905 -312.06992 
L 2688.022792 -322.304979 
L 2690.749662 -328.27543 
L 2690.749662 -333.81942 
L 2693.476533 -338.510488 
L 2698.021317 -342.775096 
L 2708.019842 -348.745547 
L 2769.828908 -401.200221 
L 2822.548405 -470.286866 
L 2828.002146 -482.227767 
L 2826.184233 -492.462826 
L 2831.637974 -500.565581 
L 2834.364844 -511.2271 
L 2834.364844 -523.168001 
L 2828.002146 -547.049804 
L 2829.82006 -551.314412 
L 2836.182758 -553.020255 
L 2852.543981 -544.917501 
L 2866.178334 -542.785197 
L 2871.632075 -540.226432 
L 2879.812687 -533.829521 
L 2886.175385 -531.270756 
L 2888.902255 -529.138452 
L 2890.720169 -524.020923 
L 2892.538082 -523.594462 
L 2896.17391 -523.168001 
L 2897.991824 -522.741541 
L 2898.90078 -521.035698 
L 2898.90078 -518.903394 
L 2899.809737 -517.197551 
L 2902.536608 -514.212325 
L 2903.445565 -511.653561 
L 2906.172435 -504.403728 
L 2906.172435 -497.580355 
L 2908.899306 -492.462826 
L 2910.717219 -480.948385 
L 2909.808263 -478.389621 
L 2906.172435 -475.404395 
L 2906.172435 -474.125013 
L 2906.172435 -470.286866 
L 2907.081392 -467.728101 
L 2916.170961 -467.301641 
L 2927.078443 -465.169337 
L 2937.076968 -466.87518 
L 2941.621752 -466.87518 
L 2945.25758 -463.463494 
L 2950.711321 -447.257984 
L 2952.529234 -442.566916 
L 2956.165062 -437.449387 
L 2972.526285 -422.949721 
L 2977.980026 -419.111574 
L 2979.79794 -417.405731 
L 2980.706897 -414.846966 
L 2982.52481 -408.450054 
L 2984.342724 -406.317751 
L 2994.34125 -405.038368 
L 3006.157689 -412.288201 
L 3029.790567 -434.464161 
L 3031.60848 -437.875847 
L 3033.426394 -448.537367 
L 3034.335351 -453.228435 
L 3040.698049 -461.757651 
L 3042.515962 -466.448719 
L 3041.607006 -471.139787 
L 3033.426394 -467.728101 
L 3033.426394 -472.845631 
L 3035.244308 -475.404395 
L 3036.153265 -476.683777 
L 3042.515962 -482.654228 
L 3045.242833 -486.918836 
L 3047.060747 -491.183444 
L 3049.787617 -500.992041 
L 3049.787617 -507.815414 
L 3047.969704 -509.094796 
L 3044.333876 -508.668335 
L 3039.789092 -510.374178 
L 3035.244308 -517.624011 
L 3033.426394 -526.579688 
L 3032.517437 -556.431941 
L 3031.60848 -561.975931 
L 3029.790567 -567.093461 
L 3025.245782 -576.475598 
L 3023.427869 -581.166666 
L 3023.427869 -585.431274 
L 3026.154739 -587.563578 
L 3035.244308 -591.401724 
L 3039.789092 -593.960489 
L 3047.969704 -602.063244 
L 3052.514488 -604.622008 
L 3057.968229 -606.327851 
L 3062.513013 -605.901391 
L 3067.057797 -605.048469 
L 3071.602582 -605.47493 
L 3075.238409 -608.033694 
L 3077.056323 -611.871841 
L 3077.056323 -615.709988 
L 3077.96528 -619.974596 
L 3084.327978 -625.518586 
L 3087.054848 -626.797968 
L 3088.872762 -628.503811 
L 3090.690675 -630.209655 
L 3092.508589 -632.341958 
L 3094.326503 -627.224429 
L 3094.326503 -617.415831 
L 3096.144417 -608.460155 
L 3094.326503 -588.416499 
L 3095.23546 -567.519921 
L 3097.053373 -557.711324 
L 3106.142942 -538.094128 
L 3108.869812 -528.285531 
L 3111.596683 -503.550806 
L 3113.414597 -499.712659 
L 3117.050424 -497.580355 
L 3131.593734 -492.036365 
L 3137.047475 -491.183444 
L 3144.31913 -492.036365 
L 3146.137043 -491.183444 
L 3150.681827 -487.771757 
L 3152.499741 -486.492375 
L 3157.953482 -486.918836 
L 3159.771396 -486.065914 
L 3164.31618 -483.080689 
L 3170.678878 -480.521924 
L 3176.132619 -480.095464 
L 3179.768447 -484.360071 
L 3178.85949 -489.477601 
L 3175.223662 -495.021591 
L 3166.134094 -503.124345 
L 3160.680353 -510.800639 
L 3157.044525 -521.035698 
L 3156.135569 -531.697217 
L 3156.135569 -541.505814 
L 3157.953482 -551.314412 
L 3158.862439 -556.005481 
L 3157.044525 -561.975931 
L 3140.683302 -609.313077 
L 3134.320604 -618.695214 
L 3131.593734 -620.827518 
L 3127.957906 -622.1069 
L 3125.231036 -624.665665 
L 3125.231036 -630.636115 
L 3129.77582 -630.209655 
L 3133.411647 -630.636115 
L 3136.138518 -632.768419 
L 3138.865388 -641.297635 
L 3141.592259 -643.429938 
L 3145.228086 -643.003478 
L 3147.954957 -639.591791 
L 3148.863914 -637.885948 
L 3149.772871 -637.459488 
L 3155.226612 -637.459488 
L 3157.953482 -637.033027 
L 3160.680353 -636.180105 
L 3162.498266 -634.900723 
L 3165.225137 -629.783194 
L 3169.769921 -628.503811 
L 3175.223662 -628.077351 
L 3178.85949 -628.930272 
L 3181.58636 -631.062576 
L 3190.675929 -639.591791 
L 3191.584886 -640.871174 
L 3201.583411 -649.82685 
L 3209.764023 -660.061908 
L 3212.490893 -661.767751 
L 3217.944634 -662.620673 
L 3222.489418 -664.752977 
L 3227.034203 -667.738202 
L 3228.852116 -670.723428 
L 3230.67003 -674.561575 
L 3232.487944 -684.796633 
L 3232.487944 -694.17877 
L 3233.396901 -696.311074 
L 3236.123771 -701.428603 
L 3237.941685 -703.560907 
L 3240.668555 -705.26675 
L 3241.577512 -706.972593 
L 3239.759599 -710.384279 
L 3229.761073 -706.119671 
L 3220.671505 -706.119671 
L 3212.490893 -709.957818 
L 3189.766972 -729.148553 
L 3188.858015 -731.707318 
L 3189.766972 -733.839621 
L 3189.766972 -735.545465 
L 3187.040101 -735.971925 
L 3186.131145 -735.545465 
L 3180.677403 -731.280857 
L 3179.768447 -734.266082 
L 3179.768447 -737.677768 
L 3181.58636 -741.942376 
L 3183.404274 -750.045131 
L 3185.222188 -753.456817 
L 3187.040101 -756.015582 
L 3187.949058 -757.721425 
L 3190.675929 -760.70665 
L 3203.401325 -768.382944 
L 3207.037152 -773.500473 
L 3209.764023 -777.33862 
L 3227.034203 -790.132443 
L 3236.123771 -809.323178 
L 3241.577512 -814.014246 
L 3245.21334 -808.470256 
L 3236.123771 -792.264747 
L 3241.577512 -785.014914 
L 3242.486469 -787.573678 
L 3243.395426 -794.397051 
L 3245.21334 -796.955815 
L 3253.393951 -789.705982 
L 3258.847692 -787.147218 
L 3280.662657 -785.867835 
L 3287.934312 -786.294296 
L 3295.205966 -788.4266 
L 3302.477621 -794.823512 
L 3309.749276 -805.05857 
L 3314.29406 -816.14655 
L 3317.020931 -826.381608 
L 3319.747801 -837.469588 
L 3320.656758 -842.160657 
L 3323.383629 -846.425265 
L 3327.019456 -849.41049 
L 3349.743377 -861.777852 
L 3354.288162 -866.468921 
L 3355.197118 -872.012911 
L 3356.106075 -883.527352 
L 3357.923989 -888.644881 
L 3373.376255 -913.806066 
L 3377.012083 -924.467585 
L 3372.467298 -932.143879 
L 3367.013557 -930.011575 
L 3365.195644 -933.423262 
L 3367.922514 -938.11433 
L 3375.194169 -940.673095 
L 3379.738953 -943.231859 
L 3391.555392 -961.143212 
L 3397.009133 -965.83428 
L 3400.644961 -967.540123 
L 3404.280788 -968.393045 
L 3407.916616 -967.113662 
L 3411.552443 -965.407819 
L 3414.279314 -964.981359 
L 3416.097227 -967.540123 
L 3415.18827 -975.642878 
L 3411.552443 -976.495799 
L 3407.007659 -973.937035 
L 3400.644961 -973.510574 
L 3400.644961 -974.789956 
L 3407.916616 -978.628103 
L 3411.552443 -982.892711 
L 3412.4614 -983.745632 
L 3414.279314 -984.172093 
L 3419.733055 -983.745632 
L 3421.550968 -985.451476 
L 3422.459925 -986.304397 
L 3422.459925 -987.583779 
L 3424.277839 -995.686534 
L 3425.186796 -996.965916 
L 3426.095753 -999.09822 
L 3428.822623 -1002.083446 
L 3451.546544 -1019.141876 
L 3455.182372 -1022.980023 
L 3459.727156 -1026.391709 
L 3464.27194 -1028.524013 
L 3467.907768 -1031.082778 
L 3469.725681 -1036.626768 
L 3469.725681 -1041.317836 
L 3470.634638 -1046.008905 
L 3472.452552 -1049.847052 
L 3476.088379 -1051.126434 
L 3480.633163 -1054.53812 
L 3496.08543 -1075.434698 
L 3499.721257 -1079.272845 
L 3502.448128 -1082.684531 
L 3504.266042 -1087.375599 
L 3504.266042 -1093.772511 
L 3504.266042 -1102.301726 
L 3504.266042 -1104.860491 
L 3505.174998 -1106.566334 
L 3508.810826 -1110.830942 
L 3509.719783 -1113.389706 
L 3508.810826 -1123.198304 
L 3509.719783 -1127.462912 
L 3516.991437 -1130.874598 
L 3518.809351 -1134.712745 
L 3521.536222 -1144.521343 
L 3521.536222 -1150.065333 
L 3522.445179 -1152.624097 
L 3524.263092 -1153.477019 
L 3525.172049 -1154.32994 
L 3527.89892 -1158.168087 
L 3529.716833 -1161.153313 
L 3531.534747 -1163.285616 
L 3534.261618 -1164.991459 
L 3536.988488 -1165.41792 
L 3537.897445 -1164.564999 
L 3540.624315 -1158.594548 
L 3551.531798 -1151.771176 
L 3552.440755 -1149.212411 
L 3556.076582 -1130.874598 
L 3551.531798 -1133.433363 
L 3548.804927 -1134.286284 
L 3547.89597 -1133.433363 
L 3546.078057 -1125.330608 
L 3546.078057 -1124.051226 
L 3548.804927 -1121.492461 
L 3552.440755 -1120.213079 
L 3556.076582 -1118.080775 
L 3557.894496 -1112.536785 
L 3556.985539 -1102.728187 
L 3554.258668 -1095.904815 
L 3546.078057 -1083.963913 
L 3541.533272 -1075.434698 
L 3537.897445 -1064.346718 
L 3538.806402 -1055.391042 
L 3548.804927 -1052.832277 
L 3554.258668 -1055.817502 
L 3558.803452 -1060.508571 
L 3561.530323 -1064.773179 
L 3564.257194 -1066.905482 
L 3566.984064 -1068.184865 
L 3578.800503 -1078.846384 
L 3586.981115 -1084.816835 
L 3588.799028 -1088.228521 
L 3589.707985 -1096.757736 
L 3590.616942 -1098.037119 
L 3592.434856 -1098.463579 
L 3594.25277 -1099.742962 
L 3597.888597 -1106.566334 
L 3606.978165 -1115.948471 
L 3607.887122 -1119.786618 
L 3606.978165 -1124.904147 
L 3600.615467 -1135.992127 
L 3601.524424 -1141.109656 
L 3603.342338 -1144.094882 
L 3605.160252 -1144.521343 
L 3607.887122 -1143.668421 
L 3610.613993 -1142.815499 
L 3612.431907 -1143.668421 
L 3614.24982 -1145.800725 
L 3615.158777 -1147.506568 
L 3614.24982 -1148.359489 
L 3612.431907 -1149.638872 
L 3611.52295 -1152.197636 
L 3612.431907 -1155.182862 
L 3613.340863 -1156.888705 
L 3616.067734 -1157.315166 
L 3618.794604 -1156.462244 
L 3621.521475 -1155.609323 
L 3623.339389 -1155.182862 
L 3626.066259 -1156.462244 
L 3629.702087 -1159.447469 
L 3631.52 -1159.447469 
L 3633.337914 -1158.168087 
L 3639.700612 -1155.609323 
L 3641.518526 -1155.182862 
L 3642.427483 -1153.903479 
L 3656.061835 -1146.227186 
L 3656.970792 -1144.947803 
L 3657.879749 -1142.815499 
L 3658.788706 -1138.550892 
L 3656.970792 -1126.60999 
L 3656.061835 -1124.051226 
L 3652.426008 -1122.345383 
L 3651.517051 -1117.654314 
L 3651.517051 -1112.536785 
L 3653.334965 -1108.272177 
L 3662.424533 -1096.331276 
L 3663.33349 -1092.066668 
L 3664.242447 -1076.287619 
L 3665.151404 -1072.023012 
L 3667.878274 -1066.905482 
L 3671.514102 -1064.773179 
L 3681.512627 -1065.199639 
L 3685.148454 -1063.920257 
L 3688.784282 -1060.935032 
L 3694.238023 -1054.964581 
L 3700.600721 -1048.99413 
L 3705.145505 -1045.582444 
L 3709.690289 -1044.303062 
L 3713.326117 -1045.582444 
L 3716.052987 -1048.141209 
L 3722.415685 -1058.376267 
L 3726.051513 -1063.067336 
L 3727.869426 -1063.067336 
L 3728.778383 -1059.229189 
L 3729.68734 -1051.979356 
L 3730.596297 -1051.979356 
L 3736.050038 -1046.008905 
L 3735.141081 -1046.435366 
L 3734.232124 -1045.155983 
L 3734.232124 -1043.876601 
L 3734.232124 -1042.597219 
L 3735.141081 -1042.170758 
L 3738.776908 -1041.317836 
L 3739.685865 -1040.891376 
L 3743.321693 -1037.479689 
L 3746.048563 -1036.200307 
L 3748.775434 -1035.773846 
L 3752.411261 -1037.479689 
L 3755.138132 -1037.90615 
L 3757.865002 -1036.626768 
L 3764.2277 -1029.803396 
L 3766.954571 -1025.538788 
L 3768.772484 -1019.994798 
L 3770.590398 -1019.994798 
L 3771.499355 -1022.127102 
L 3773.317269 -1023.406484 
L 3774.226226 -1022.980023 
L 3776.044139 -1021.700641 
L 3776.953096 -1019.994798 
L 3776.953096 -1018.288955 
L 3776.953096 -1015.73019 
L 3777.862053 -1013.171426 
L 3778.77101 -1010.612661 
L 3780.588923 -1006.348053 
L 3781.49788 -1004.64221 
L 3780.588923 -1002.083446 
L 3778.77101 -999.951142 
L 3777.862053 -997.818838 
L 3779.679967 -990.995466 
L 3777.862053 -974.363495 
L 3776.044139 -970.525349 
L 3772.408312 -970.098888 
L 3764.2277 -971.37827 
L 3758.773959 -970.098888 
L 3754.229175 -966.687202 
L 3746.95752 -960.29029 
L 3745.139606 -956.025682 
L 3746.048563 -952.187535 
L 3751.502304 -945.790624 
L 3756.047089 -935.982026 
L 3759.682916 -934.276183 
L 3760.591873 -932.996801 
L 3760.591873 -930.438036 
L 3761.50083 -928.305732 
L 3761.50083 -926.173429 
L 3760.591873 -923.188203 
L 3758.773959 -921.055899 
L 3756.047089 -920.202978 
L 3754.229175 -919.350056 
L 3753.320218 -916.364831 
L 3755.138132 -912.100223 
L 3758.773959 -911.247302 
L 3762.409787 -909.541459 
L 3764.2277 -903.144547 
L 3762.409787 -899.3064 
L 3758.773959 -895.468253 
L 3749.684391 -890.350724 
L 3717.870901 -879.689205 
L 3711.508203 -872.865832 
L 3716.052987 -873.718754 
L 3730.596297 -880.115665 
L 3736.958995 -881.395048 
L 3755.138132 -881.821509 
L 3772.408312 -883.953812 
L 3784.224751 -882.247969 
L 3788.769535 -882.67443 
L 3790.587449 -885.659655 
L 3788.769535 -892.056567 
L 3790.587449 -893.76241 
L 3793.314319 -893.335949 
L 3796.950147 -892.483028 
L 3800.585974 -892.056567 
L 3805.130758 -892.483028 
L 3816.947197 -894.615332 
L 3818.765111 -896.321175 
L 3820.583025 -899.732861 
L 3824.218852 -902.718086 
L 3831.490507 -907.409155 
L 3839.671119 -918.070674 
L 3844.215903 -920.629439 
L 3845.12486 -921.908821 
L 3846.942773 -922.335282 
L 3850.578601 -921.48236 
L 3858.759212 -912.526684 
L 3859.668169 -910.39438 
L 3859.668169 -907.409155 
L 3859.668169 -905.276851 
L 3864.212954 -902.718086 
L 3864.212954 -899.732861 
L 3864.212954 -894.615332 
L 3865.12191 -888.644881 
L 3876.029393 -874.571675 
L 3877.847306 -873.292293 
L 3877.847306 -871.58645 
L 3870.575651 -861.777852 
L 3866.030867 -859.645548 
L 3860.577126 -857.939705 
L 3855.123385 -857.513245 
L 3850.578601 -859.219088 
L 3846.033817 -857.939705 
L 3830.58155 -859.219088 
L 3826.036766 -857.939705 
L 3823.309895 -854.95448 
L 3823.309895 -851.542794 
L 3825.127809 -850.263412 
L 3826.036766 -848.557568 
L 3834.217378 -828.940373 
L 3836.035291 -827.23453 
L 3836.944248 -826.808069 
L 3838.762162 -827.660991 
L 3841.489032 -828.087452 
L 3845.12486 -829.366834 
L 3855.123385 -834.057902 
L 3859.668169 -834.910824 
L 3861.486083 -834.484363 
L 3863.303997 -832.352059 
L 3866.030867 -831.499138 
L 3867.848781 -831.925598 
L 3870.575651 -833.204981 
L 3873.302522 -833.631442 
L 3875.120436 -832.352059 
L 3877.847306 -828.513912 
L 3879.66522 -827.660991 
L 3882.392091 -828.940373 
L 3884.210004 -831.499138 
L 3884.210004 -834.057902 
L 3883.301047 -836.616667 
L 3885.118961 -840.881275 
L 3886.027918 -842.587118 
L 3887.845832 -844.719422 
L 3887.845832 -846.425265 
L 3886.027918 -851.116333 
L 3886.936875 -854.101558 
L 3890.572702 -857.086784 
L 3901.480184 -857.939705 
L 3912.387667 -862.630774 
L 3917.841408 -861.351392 
L 3930.566803 -854.528019 
L 3932.384717 -854.101558 
L 3933.293674 -855.380941 
L 3936.020545 -858.366166 
L 3937.838458 -859.219088 
L 3940.565329 -857.939705 
L 3943.292199 -856.660323 
L 3945.110113 -855.807402 
L 3949.654897 -854.528019 
L 3975.105689 -839.601892 
L 3984.195258 -832.352059 
L 3987.831085 -830.219755 
L 3992.375869 -828.087452 
L 3996.011697 -825.955148 
L 3997.82961 -822.543462 
L 3996.011697 -819.984697 
L 3994.193783 -818.705315 
L 3993.284826 -817.852393 
L 3992.375869 -816.573011 
L 3989.648999 -802.499805 
L 3987.831085 -796.955815 
L 3986.922128 -791.838286 
L 3988.740042 -786.294296 
L 3990.557955 -786.294296 
L 3993.284826 -792.691208 
L 3994.193783 -795.676433 
L 3996.011697 -797.808737 
L 3997.82961 -800.367502 
L 3996.920653 -807.190874 
L 3997.82961 -809.749638 
L 4005.101265 -814.440707 
L 4010.555006 -814.440707 
L 4015.09979 -811.029021 
L 4026.916229 -796.529355 
L 4032.369971 -791.838286 
L 4036.005798 -790.132443 
L 4043.277453 -788.853061 
L 4047.822237 -785.441375 
L 4051.458064 -780.323845 
L 4053.275978 -774.353395 
L 4055.093892 -775.632777 
L 4056.002849 -776.912159 
L 4056.002849 -778.618002 
L 4056.002849 -781.176767 
L 4067.819288 -772.221091 
L 4072.364072 -770.941708 
L 4077.817813 -768.382944 
L 4082.362597 -763.265415 
L 4083.271554 -757.721425 
L 4078.72677 -755.16266 
L 4081.45364 -753.030356 
L 4085.089468 -751.750974 
L 4089.634252 -751.750974 
L 4092.361123 -753.456817 
L 4093.270079 -756.868503 
L 4091.452166 -759.427268 
L 4091.452166 -761.559572 
L 4094.179036 -763.691875 
L 4100.541734 -763.691875 
L 4112.358173 -757.294964 
L 4120.538785 -756.868503 
L 4139.626879 -766.25064 
L 4145.989577 -767.530022 
L 4150.534361 -765.397718 
L 4154.170188 -761.559572 
L 4159.623929 -753.456817 
L 4165.07767 -747.912827 
L 4167.804541 -744.927602 
L 4168.713498 -740.662994 
L 4167.804541 -735.119004 
L 4165.986627 -726.589788 
L 4165.07767 -722.325181 
L 4166.895584 -710.81074 
L 4165.986627 -704.413828 
L 4160.532886 -699.296299 
L 4147.80749 -686.076015 
L 4137.808965 -680.532025 
L 4091.452166 -663.473595 
L 4044.18641 -649.82685 
L 4035.096841 -644.28286 
L 4029.6431 -641.724095 
L 4023.280402 -640.018252 
L 4017.826661 -639.591791 
L 4014.190834 -640.444713 
L 4006.010222 -643.856399 
L 3998.738567 -644.709321 
L 3993.284826 -646.415164 
L 3990.557955 -646.415164 
L 3987.831085 -645.135781 
L 3979.650473 -639.591791 
L 3974.196732 -636.180105 
L 3972.378819 -636.180105 
L 3968.742991 -638.73887 
L 3966.925077 -640.444713 
L 3962.380293 -648.121007 
L 3954.199682 -658.356065 
L 3946.01907 -662.194212 
L 3940.565329 -663.900055 
L 3938.747415 -662.620673 
L 3936.020545 -663.473595 
L 3930.566803 -660.061908 
L 3923.295149 -653.238536 
L 3920.568278 -654.517918 
L 3919.659321 -653.664997 
L 3918.750364 -651.106232 
L 3919.659321 -648.121007 
L 3909.660796 -650.253311 
L 3900.571227 -644.709321 
L 3886.936875 -628.930272 
L 3882.392091 -625.945047 
L 3880.574177 -623.812743 
L 3879.66522 -621.253978 
L 3879.66522 -618.268753 
L 3881.483134 -616.989371 
L 3882.392091 -616.56291 
L 3889.663745 -612.298302 
L 3890.572702 -611.01892 
L 3892.390616 -608.460155 
L 3895.117486 -601.210322 
L 3901.480184 -591.828185 
L 3907.842882 -583.725431 
L 3916.023494 -576.475598 
L 3925.113062 -570.078686 
L 3927.839933 -567.093461 
L 3930.566803 -565.387618 
L 3932.384717 -564.961157 
L 3935.111588 -564.961157 
L 3940.565329 -564.108235 
L 3942.383243 -563.255314 
L 3943.292199 -561.975931 
L 3945.110113 -557.284863 
L 3946.01907 -555.57902 
L 3947.836984 -553.873177 
L 3949.654897 -553.020255 
L 3954.199682 -550.887951 
L 3955.108638 -555.57902 
L 3957.835509 -556.431941 
L 3962.380293 -555.152559 
L 3966.016121 -553.020255 
L 3968.742991 -549.608569 
L 3969.651948 -546.196883 
L 3968.742991 -543.211658 
L 3965.107164 -539.799971 
L 3964.198207 -536.814746 
L 3966.925077 -533.829521 
L 3969.651948 -531.270756 
L 3971.469862 -529.564913 
L 3973.287775 -527.85907 
L 3977.83256 -530.417834 
L 3985.104214 -535.535364 
L 3987.831085 -534.255981 
L 3994.193783 -533.40306 
L 3997.82961 -532.123678 
L 3996.011697 -528.711991 
L 3998.738567 -524.020923 
L 4008.737092 -512.932943 
L 4008.737092 -511.2271 
L 4006.919179 -508.668335 
L 4004.192308 -506.962492 
L 4001.465438 -507.388953 
L 3999.647524 -508.668335 
L 3995.10274 -509.521257 
L 3996.920653 -505.256649 
L 3996.011697 -501.418502 
L 3993.284826 -498.006816 
L 3990.557955 -495.448051 
L 3986.922128 -492.889287 
L 3983.286301 -492.036365 
L 3973.287775 -492.462826 
L 3968.742991 -491.609904 
L 3960.562379 -489.477601 
L 3956.017595 -488.624679 
L 3945.110113 -488.624679 
L 3938.747415 -489.477601 
L 3935.111588 -492.462826 
L 3931.47576 -487.771757 
L 3929.657847 -486.492375 
L 3906.933925 -480.095464 
L 3886.936875 -478.389621 
L 3880.574177 -476.257317 
L 3846.942773 -459.625347 
L 3841.489032 -459.198886 
L 3826.036766 -463.889954 
L 3821.491982 -464.742876 
L 3818.765111 -466.022258 
L 3808.766586 -474.977934 
L 3805.130758 -477.110238 
L 3803.312845 -477.96316 
L 3801.494931 -478.389621 
L 3800.585974 -479.242542 
L 3798.76806 -484.360071 
L 3797.859104 -485.212993 
L 3794.223276 -485.639454 
L 3786.042665 -488.624679 
L 3779.679967 -489.904061 
L 3777.862053 -490.756983 
L 3772.408312 -494.59513 
L 3769.681441 -498.859738 
L 3766.954571 -503.977267 
L 3763.318743 -508.668335 
L 3758.773959 -508.241874 
L 3753.320218 -504.403728 
L 3748.775434 -500.13912 
L 3746.048563 -497.580355 
L 3747.866477 -495.448051 
L 3752.411261 -492.462826 
L 3753.320218 -489.477601 
L 3753.320218 -479.242542 
L 3754.229175 -476.683777 
L 3757.865002 -472.845631 
L 3758.773959 -469.860405 
L 3756.956045 -466.87518 
L 3755.138132 -464.316415 
L 3749.684391 -460.904729 
L 3747.866477 -459.198886 
L 3746.95752 -457.066582 
L 3745.139606 -455.360739 
L 3745.139606 -453.228435 
L 3746.048563 -451.949053 
L 3749.684391 -447.684445 
L 3751.502304 -445.552141 
L 3749.684391 -445.978602 
L 3746.95752 -445.552141 
L 3736.958995 -441.287534 
L 3734.232124 -443.419837 
L 3730.596297 -444.69922 
L 3723.324642 -444.272759 
L 3719.688815 -444.69922 
L 3710.599246 -445.978602 
L 3703.327591 -447.684445 
L 3697.87385 -451.522592 
L 3683.330541 -466.448719 
L 3663.33349 -477.110238 
L 3653.334965 -483.50715 
L 3651.517051 -486.065914 
L 3650.608094 -488.624679 
L 3647.881224 -490.330522 
L 3644.245396 -490.756983 
L 3641.518526 -490.330522 
L 3637.882698 -486.492375 
L 3635.155828 -485.212993 
L 3588.799028 -484.360071 
L 3574.255719 -488.198218 
L 3564.257194 -488.198218 
L 3544.260143 -484.360071 
L 3534.261618 -486.492375 
L 3525.172049 -492.889287 
L 3520.627265 -493.742208 
L 3512.446653 -486.918836 
L 3507.901869 -485.639454 
L 3503.357085 -485.212993 
L 3496.08543 -487.771757 
L 3489.722732 -484.786532 
L 3486.995861 -484.786532 
L 3476.088379 -500.992041 
L 3472.452552 -501.418502 
L 3471.543595 -498.006816 
L 3466.089854 -492.889287 
L 3464.27194 -489.05114 
L 3464.27194 -486.492375 
L 3465.180897 -484.786532 
L 3466.089854 -483.080689 
L 3463.362983 -480.948385 
L 3459.727156 -479.669003 
L 3456.091329 -480.948385 
L 3453.364458 -480.948385 
L 3447.910717 -474.551474 
L 3445.183846 -473.698552 
L 3442.456976 -474.125013 
L 3439.730105 -475.404395 
L 3433.367407 -486.492375 
L 3432.45845 -489.477601 
L 3431.549494 -490.756983 
L 3429.73158 -491.183444 
L 3427.913666 -491.183444 
L 3426.095753 -491.183444 
L 3419.733055 -498.006816 
L 3413.370357 -496.727434 
L 3406.098702 -492.889287 
L 3398.827047 -490.756983 
L 3395.19122 -491.183444 
L 3384.283738 -494.59513 
L 3377.92104 -494.59513 
L 3375.194169 -495.021591 
L 3372.467298 -496.727434 
L 3370.649385 -491.183444 
L 3368.831471 -488.198218 
L 3366.104601 -486.065914 
L 3361.559816 -483.080689 
L 3349.743377 -471.139787 
L 3346.10755 -469.433944 
L 3342.471722 -470.713327 
L 3339.744852 -474.125013 
L 3337.926938 -477.96316 
L 3337.017981 -482.227767 
L 3335.200068 -483.933611 
L 3332.473197 -485.639454 
L 3326.110499 -487.771757 
L 3315.203017 -488.624679 
L 3310.658233 -489.904061 
L 3307.931362 -493.742208 
L 3307.022405 -497.580355 
L 3304.295535 -499.712659 
L 3301.568664 -499.286198 
L 3297.932837 -495.874512 
L 3296.114923 -487.771757 
L 3296.114923 -479.669003 
L 3295.205966 -471.992709 
L 3285.207441 -463.889954 
L 3284.298484 -460.478268 
L 3283.389527 -457.919504 
L 3279.7537 -457.066582 
L 3277.026829 -458.345964 
L 3275.208916 -460.478268 
L 3273.391002 -461.33119 
L 3262.48352 -451.522592 
L 3260.665606 -448.963827 
L 3258.847692 -447.684445 
L 3254.302908 -445.978602 
L 3251.576038 -443.846298 
L 3249.758124 -437.875847 
L 3248.849167 -433.61124 
L 3245.21334 -411.008819 
L 3242.486469 -400.3473 
L 3237.941685 -390.538702 
L 3235.214814 -387.553477 
L 3226.125246 -382.862408 
L 3224.307332 -381.156565 
L 3224.307332 -375.186114 
L 3228.852116 -371.774428 
L 3233.396901 -368.789203 
L 3237.032728 -364.951056 
L 3237.032728 -356.848301 
L 3227.94316 -327.422508 
L 3226.125246 -317.18745 
L 3226.125246 -307.378852 
L 3227.034203 -301.408401 
L 3233.396901 -286.055814 
L 3233.396901 -283.497049 
L 3233.396901 -278.37952 
L 3233.396901 -275.820755 
L 3234.305858 -272.409069 
L 3237.941685 -265.159236 
L 3239.759599 -260.041707 
L 3240.668555 -257.056481 
L 3238.850642 -254.924177 
L 3236.123771 -253.644795 
L 3234.305858 -254.497717 
L 3231.578987 -255.350638 
L 3228.852116 -255.777099 
L 3223.398375 -250.233109 
L 3218.853591 -238.718668 
L 3210.672979 -200.76366 
L 3210.672979 -196.072591 
L 3214.308807 -191.381523 
L 3218.853591 -190.10214 
L 3218.853591 -187.969837 
L 3210.672979 -176.455396 
L 3208.855066 -171.764327 
L 3207.946109 -161.102808 
L 3206.128195 -156.41174 
L 3201.583411 -154.705897 
L 3191.584886 -153.426514 
L 3174.314706 -146.176681 
L 3167.043051 -144.897299 
L 3159.771396 -148.308985 
L 3153.408698 -158.117583 
L 3149.772871 -158.970504 
L 3145.228086 -152.573593 
L 3140.683302 -143.617917 
L 3137.956432 -140.20623 
L 3123.413122 -130.397633 
L 3119.777295 -126.559486 
L 3116.141467 -121.015496 
L 3115.23251 -118.03027 
L 3114.323554 -115.471506 
L 3113.414597 -112.912741 
L 3111.596683 -109.927516 
L 3107.960856 -106.94229 
L 3106.142942 -106.089369 
L 3105.233985 -105.236447 
L 3107.051899 -101.824761 
L 3113.414597 -93.295546 
L 3115.23251 -88.178016 
L 3112.50564 -82.207566 
L 3109.778769 -80.075262 
L 3107.051899 -79.648801 
L 3104.325028 -78.79588 
L 3102.507114 -75.384193 
L 3103.416071 -73.25189 
L 3106.142942 -68.13436 
L 3107.051899 -65.575596 
L 3105.233985 -60.458066 
L 3103.416071 -54.914076 
L 3102.507114 -49.796547 
L 3106.142942 -45.9584 
L 3109.778769 -45.9584 
L 3115.23251 -48.517165 
L 3117.959381 -49.370086 
L 3120.686251 -48.943626 
L 3123.413122 -48.090704 
L 3127.048949 -46.811322 
L 3129.77582 -45.105479 
L 3133.411647 -40.840871 
L 3137.047475 -34.87042 
L 3139.774345 -29.32643 
L 3140.683302 -24.635362 
L 3137.047475 -19.944293 
L 3131.593734 -17.81199 
L 3120.686251 -16.959068 
L 3115.23251 -13.547382 
L 3105.233985 -2.885863 
L 3101.598158 -0.327098 
L 3097.053373 1.378745 
L 3086.145891 10.760882 
L 3081.601107 13.746107 
L 3071.602582 12.893186 
L 3068.875711 14.599029 
L 3067.057797 20.143019 
L 3067.057797 25.687009 
L 3067.966754 29.525156 
L 3067.057797 32.510381 
L 3059.786143 34.642685 
L 3040.698049 37.20145 
L 3032.517437 41.892518 
L 3028.88161 51.701116 
L 3026.154739 65.347861 
L 3026.154739 70.038929 
L 3027.063696 72.171233 
L 3029.790567 76.435841 
L 3030.699523 78.994605 
L 3030.699523 87.09736 
L 3030.699523 89.229664 
L 3033.426394 95.200114 
L 3036.153265 95.200114 
L 3039.789092 93.494271 
L 3046.15179 92.64135 
L 3047.969704 94.347193 
L 3049.787617 97.758879 
L 3049.787617 101.597026 
L 3048.87866 105.008712 
L 3046.15179 110.126241 
L 3045.242833 114.390849 
L 3045.242833 118.655457 
L 3046.15179 123.772986 
L 3046.15179 128.890515 
L 3042.515962 131.875741 
L 3028.88161 137.419731 
L 3015.247257 139.125574 
L 3012.520386 139.978495 
L 3009.793516 142.110799 
L 3007.975602 144.243103 
L 3006.157689 146.375407 
L 3005.248732 149.360632 
L 3006.157689 151.066475 
L 3007.066645 152.772318 
L 3007.066645 156.184004 
L 3007.975602 163.860298 
L 3005.248732 181.34519 
L 2999.794991 194.565474 
L 2993.432293 205.653454 
L 2989.796465 209.918061 
L 2980.706897 216.741434 
L 2977.980026 221.006041 
L 2977.980026 227.402953 
L 2979.79794 232.520482 
L 2979.79794 238.064472 
L 2977.980026 243.182001 
L 2973.435242 247.020148 
L 2967.981501 248.299531 
L 2962.52776 246.593688 
L 2942.530709 232.520482 
L 2936.168011 229.535257 
L 2930.71427 228.682335 
L 2926.169486 229.961718 
L 2887.993298 245.740766 
L 2887.993298 246.167227 
L 2882.539557 249.578913 
L 2879.812687 250.431835 
L 2876.176859 249.578913 
L 2874.358946 247.020148 
L 2871.632075 244.034923 
L 2868.905204 241.902619 
L 2859.815636 238.917394 
L 2849.817111 239.343855 
L 2813.458837 244.887845 
L 2808.914052 247.020148 
L 2802.551354 251.711217 
L 2788.008045 270.901951 
L 2747.104987 297.76898 
L 2741.651246 299.048362 
L 2734.379591 295.636676 
L 2721.654195 280.710549 
L 2716.200454 277.298863 
L 2710.746713 277.298863 
L 2705.292972 278.578245 
L 2695.294446 282.842853 
L 2684.386964 282.416392 
L 2665.29887 267.916726 
L 2653.482431 263.652118 
L 2638.939122 260.666893 
L 2627.122683 259.813971 
L 2623.486855 258.534589 
L 2615.306244 252.137678 
L 2606.216675 247.87307 
L 2596.21815 247.020148 
L 2586.219625 248.725991 
L 2577.130056 251.711217 
L 2572.585272 251.711217 
L 2572.585272 249.578913 
L 2573.494229 247.020148 
L 2581.67484 241.049698 
L 2585.310668 237.211551 
L 2588.037538 232.520482 
L 2589.855452 226.550031 
L 2589.855452 221.006041 
L 2587.128581 217.594355 
L 2582.583797 215.035591 
L 2577.130056 212.903287 
L 2572.585272 212.050365 
L 2559.859876 212.476826 
L 2555.315092 211.623904 
L 2550.770307 209.918061 
L 2547.13448 209.491601 
L 2542.589696 211.197444 
L 2539.862825 213.329748 
L 2538.044912 215.888512 
L 2536.226998 218.020816 
L 2533.500127 219.300198 
L 2531.682214 219.300198 
L 2525.319516 217.167894 
L 2449.876097 213.329748 
L 2443.513399 214.60913 
L 2439.877572 217.594355 
L 2436.241745 221.006041 
L 2431.69696 224.417728 
L 2427.152176 226.123571 
L 2411.69991 227.402953 
L 2405.337212 229.535257 
L 2376.250593 243.182001 
L 2371.705808 247.020148 
L 2369.887895 253.41706 
L 2370.796851 255.549364 
L 2377.159549 255.549364 
L 2378.977463 257.681668 
L 2378.068506 260.666893 
L 2377.159549 263.652118 
L 2369.887895 279.431167 
L 2356.253542 317.386175 
L 2354.435628 320.371401 
L 2350.799801 322.077244 
L 2344.437103 322.930165 
L 2324.440052 322.930165 
L 2308.078829 328.047695 
L 2286.263865 354.488262 
L 2270.811598 358.326409 
L 2263.539943 356.194105 
L 2250.814547 350.650115 
L 2244.45185 348.944272 
L 2239.907065 348.517811 
L 2235.362281 348.944272 
L 2214.456274 357.047027 
L 2209.002532 365.576242 
L 2205.366705 367.282085 
L 2202.639834 361.311635 
L 2201.730878 357.047027 
L 2200.821921 353.20888 
L 2198.09505 351.076576 
L 2193.550266 351.076576 
L 2183.551741 354.061801 
L 2178.098 354.914723 
L 2172.644258 354.914723 
L 2167.190517 353.20888 
L 2133.559114 338.282753 
L 2128.105373 337.856292 
L 2071.750048 352.355958 
L 2056.297782 352.782419 
L 2048.11717 354.061801 
L 2041.754472 357.473488 
L 2027.211163 369.414389 
L 2024.484292 373.252536 
L 2024.484292 377.943605 
L 2024.484292 380.075908 
L 2022.666378 380.92883 
L 2020.848465 380.92883 
L 2018.121594 378.796526 
L 2017.212637 378.370065 
L 2014.485767 380.075908 
L 2014.485767 380.502369 
L 2009.032026 382.634673 
L 2008.123069 382.634673 
L 2005.396198 381.781752 
L 2003.578285 381.781752 
L 2000.851414 383.061134 
L 1996.30663 387.752202 
L 1992.670802 389.031585 
L 1989.943932 388.605124 
L 1987.217061 386.899281 
L 1985.399148 384.766977 
L 1983.581234 383.487595 
L 1980.854363 383.487595 
L 1979.945407 384.340516 
L 1979.03645 386.046359 
L 1976.309579 389.031585 
L 1966.311054 394.149114 
L 1953.585658 392.869732 
L 1942.678176 386.899281 
L 1932.67965 379.649448 
L 1921.772168 365.149782 
L 1918.136341 361.311635 
L 1914.500513 360.032252 
L 1901.775118 357.047027 
L 1898.13929 357.899948 
L 1895.41242 358.75287 
L 1892.685549 357.899948 
L 1891.776592 352.782419 
L 1890.867635 346.811968 
L 1878.14224 328.474155 
L 1872.688498 317.812636 
L 1869.052671 312.695107 
L 1864.507887 310.136342 
L 1849.964577 308.430499 
L 1844.510836 306.298195 
L 1839.057095 302.460048 
L 1833.603354 292.651451 
L 1829.05857 288.386843 
L 1819.969001 284.122235 
L 1817.242131 281.13701 
L 1813.606303 276.019481 
L 1809.061519 261.093354 
L 1806.334649 256.828746 
L 1801.789864 254.696442 
L 1796.336123 254.696442 
L 1791.791339 255.122903 
L 1786.337598 254.696442 
L 1781.792814 251.284756 
L 1777.248029 240.623237 
L 1775.430116 238.917394 
L 1770.885331 241.476158 
L 1769.067418 241.049698 
L 1769.067418 233.799864 
L 1767.249504 231.2411 
L 1744.525583 212.050365 
L 1739.980799 205.653454 
L 1737.253928 200.535924 
L 1735.436014 195.844856 
L 1735.436014 184.330415 
L 1737.253928 164.286759 
L 1735.436014 159.595691 
L 1730.89123 157.889848 
L 1719.983748 157.463387 
L 1716.347921 156.610465 
L 1713.62105 154.051701 
L 1711.803136 151.066475 
L 1709.985223 148.08125 
L 1709.076266 144.669564 
L 1708.167309 142.963721 
L 1709.076266 140.831417 
z
" clip-path="url(#p5709adc6c0)" style="fill: #bdc3c7; stroke: #ffffff; stroke-width: 0.5"/>
    <path d="M -666.936936 -1017.862494 
L -664.210066 -1021.700641 
L -662.392152 -1027.244631 
L -661.483195 -1033.641542 
L -661.483195 -1035.773846 
L -662.392152 -1040.038454 
L -662.392152 -1042.170758 
L -660.574238 -1045.155983 
L -657.847368 -1046.861826 
L -656.938411 -1048.99413 
L -656.938411 -1052.832277 
L -658.756325 -1058.376267 
L -659.665281 -1062.640875 
L -657.847368 -1072.875933 
L -656.938411 -1078.846384 
L -656.938411 -1081.831609 
L -655.120497 -1083.963913 
L -651.48467 -1084.816835 
L -648.757799 -1083.537452 
L -648.757799 -1082.684531 
L -646.939886 -1081.405149 
L -645.121972 -1080.125766 
L -641.486145 -1080.125766 
L -641.486145 -1080.552227 
L -637.850317 -1083.110992 
L -635.123447 -1083.110992 
L -632.396576 -1083.110992 
L -629.669705 -1081.831609 
L -627.851792 -1080.125766 
L -618.762223 -1051.552895 
L -616.035353 -1046.861826 
L -610.581612 -1042.597219 
L -603.309957 -1039.185532 
L -600.583086 -1037.90615 
L -595.129345 -1036.200307 
L -591.493518 -1035.773846 
L -584.221863 -1036.626768 
L -580.586036 -1035.773846 
L -572.405424 -1029.803396 
L -567.86064 -1027.671092 
L -552.408373 -1023.406484 
L -544.227762 -1019.568337 
L -539.682977 -1018.288955 
L -535.138193 -1019.141876 
L -518.77697 -1030.656317 
L -514.232186 -1030.656317 
L -514.232186 -1028.950474 
L -514.232186 -1023.406484 
L -513.323229 -1021.27418 
L -511.505315 -1019.994798 
L -508.778445 -1019.568337 
L -506.051574 -1019.568337 
L -503.324704 -1019.141876 
L -497.870962 -1015.73019 
L -495.144092 -1011.039122 
L -494.235135 -998.671759 
L -494.235135 -996.112995 
L -493.326178 -993.127769 
L -489.690351 -988.01024 
L -489.690351 -985.877936 
L -489.690351 -983.745632 
L -490.599308 -981.613329 
L -490.599308 -981.186868 
L -491.508265 -979.054564 
L -491.508265 -971.804731 
L -490.599308 -969.672427 
L -488.781394 -965.83428 
L -486.96348 -965.83428 
L -486.054523 -967.540123 
L -482.418696 -968.819505 
L -479.691825 -968.393045 
L -468.784343 -965.83428 
L -464.239559 -966.687202 
L -457.876861 -973.937035 
L -452.42312 -974.789956 
L -444.242508 -968.393045 
L -440.606681 -967.113662 
L -428.790242 -969.672427 
L -426.063371 -968.393045 
L -424.245458 -964.981359 
L -423.336501 -959.863829 
L -423.336501 -953.893379 
L -426.063371 -951.761075 
L -429.699199 -950.055232 
L -432.426069 -945.790624 
L -433.335026 -940.246634 
L -428.790242 -936.408487 
L -424.245458 -932.57034 
L -422.427544 -927.879272 
L -424.245458 -918.070674 
L -424.245458 -903.571008 
L -426.063371 -895.468253 
L -426.063371 -890.350724 
L -427.881285 -885.659655 
L -433.335026 -883.953812 
L -437.87981 -883.100891 
L -442.424595 -880.542126 
L -452.42312 -859.645548 
L -454.241034 -856.660323 
L -455.149991 -853.675098 
L -454.241034 -850.689872 
L -453.332077 -848.557568 
L -451.514163 -845.572343 
L -448.787293 -839.601892 
L -446.969379 -837.896049 
L -444.242508 -836.616667 
L -439.697724 -837.043128 
L -436.970854 -836.616667 
L -431.517113 -832.77852 
L -426.063371 -827.23453 
L -422.427544 -820.837618 
L -419.700673 -814.440707 
L -415.155889 -812.734864 
L -408.793191 -814.867168 
L -396.976752 -822.117001 
L -392.431968 -825.528687 
L -389.705097 -830.219755 
L -386.978227 -835.337285 
L -386.06927 -840.881275 
L -383.3424 -852.395715 
L -376.070745 -856.233862 
L -366.072219 -857.939705 
L -356.073694 -862.630774 
L -346.984126 -868.601225 
L -319.71542 -878.836283 
L -311.534808 -882.247969 
L -305.172111 -883.527352 
L -299.718369 -882.247969 
L -296.082542 -877.13044 
L -295.173585 -874.145215 
L -293.355672 -872.439372 
L -291.537758 -871.159989 
L -288.810887 -870.733529 
L -286.084017 -869.454146 
L -286.084017 -867.748303 
L -286.992974 -865.189539 
L -286.992974 -862.630774 
L -282.448189 -851.116333 
L -277.903405 -846.851725 
L -272.449664 -845.998804 
L -270.63175 -847.278186 
L -269.722793 -847.278186 
L -266.086966 -851.116333 
L -262.451139 -852.395715 
L -259.724268 -851.116333 
L -256.997398 -848.557568 
L -256.088441 -845.572343 
L -253.36157 -843.013578 
L -247.907829 -840.028353 
L -244.272002 -840.454814 
L -241.545131 -843.440039 
L -238.818261 -848.984029 
L -237.909304 -850.689872 
L -230.637649 -854.95448 
L -228.819735 -857.086784 
L -227.910778 -859.645548 
L -227.001822 -861.777852 
L -224.274951 -863.483695 
L -216.094339 -870.733529 
L -214.276426 -880.115665 
L -214.276426 -891.203645 
L -210.640598 -901.438704 
L -204.2779 -909.114998 
L -185.189807 -923.188203 
L -178.827109 -930.011575 
L -176.100238 -938.11433 
L -177.009195 -957.731525 
L -175.191281 -970.951809 
L -168.828583 -966.687202 
L -155.194231 -957.305065 
L -152.46736 -956.025682 
L -146.104662 -957.305065 
L -145.195705 -960.29029 
L -147.922576 -962.422594 
L -151.558403 -961.143212 
L -148.831533 -964.981359 
L -143.377792 -964.981359 
L -114.291172 -954.319839 
L -108.837431 -950.908153 
L -97.929949 -939.820173 
L -67.934373 -880.115665 
L -62.480632 -873.718754 
L -57.026891 -869.454146 
L -55.208977 -867.748303 
L -41.574624 -859.645548 
L -35.211927 -854.95448 
L -30.667142 -848.557568 
L -27.031315 -840.454814 
L -25.213401 -836.616667 
L -17.941746 -833.631442 
L 27.506096 -797.808737 
L 38.413578 -792.691208 
L 48.412104 -790.558904 
L 52.956888 -787.573678 
L 65.682284 -776.059238 
L 89.315162 -750.045131 
L 114.765953 -709.531358 
L 123.855522 -687.781858 
L 148.397357 -645.988703 
L 163.849623 -619.121675 
L 164.75858 -614.004145 
L 165.667537 -612.298302 
L 170.212321 -607.180773 
L 172.030235 -604.622008 
L 172.030235 -601.636783 
L 170.212321 -594.38695 
L 170.212321 -588.416499 
L 172.939192 -578.181441 
L 177.483976 -539.799971 
L 176.575019 -534.255981 
L 174.757105 -529.564913 
L 172.939192 -524.447384 
L 175.666062 -512.932943 
L 175.666062 -509.521257 
L 183.846674 -486.065914 
L 183.846674 -478.389621 
L 183.846674 -475.404395 
L 180.210847 -466.87518 
L 178.392933 -463.889954 
L 176.575019 -462.184111 
L 172.939192 -457.919504 
L 172.030235 -455.7872 
L 172.030235 -453.654896 
L 173.848149 -447.257984 
L 172.030235 -444.69922 
L 170.212321 -443.846298 
L 170.212321 -443.419837 
L 168.394408 -442.566916 
L 165.667537 -441.287534 
L 161.122753 -434.464161 
L 158.395882 -430.199554 
L 158.395882 -425.934946 
L 160.213796 -417.832191 
L 169.303364 -394.80331 
L 168.394408 -388.406398 
L 162.940666 -391.818084 
L 158.395882 -384.568251 
L 155.669012 -373.480271 
L 154.760055 -364.951056 
L 154.760055 -355.568919 
L 153.851098 -351.304311 
L 150.215271 -350.87785 
L 147.4884 -347.892625 
L 145.670486 -343.201557 
L 143.852573 -339.78987 
L 144.761529 -335.098802 
L 145.670486 -330.834194 
L 155.669012 -309.511156 
L 156.577968 -306.09947 
L 161.122753 -300.129019 
L 169.303364 -292.026264 
L 175.666062 -283.497049 
L 172.030235 -275.820755 
L 180.210847 -277.526598 
L 168.394408 -251.512491 
L 166.576494 -241.277433 
L 171.121278 -210.145797 
L 172.939192 -205.028267 
L 173.848149 -199.910738 
L 168.394408 -138.926848 
L 170.212321 -128.69179 
L 178.392933 -110.780437 
L 190.209372 -95.001389 
L 220.204948 -65.575596 
L 222.931818 -64.296213 
L 227.476603 -63.443292 
L 232.021387 -63.016831 
L 232.930344 -62.16391 
L 236.566171 -58.752223 
L 239.293042 -57.899302 
L 242.019912 -58.325763 
L 248.38261 -61.310988 
L 252.018438 -59.605145 
L 252.018438 -57.899302 
L 252.018438 -55.766998 
L 252.018438 -53.634694 
L 261.108006 -46.811322 
L 263.834877 -42.546714 
L 271.106531 -28.473509 
L 268.379661 -22.503058 
L 268.379661 -17.81199 
L 270.197575 -13.120921 
L 288.376712 10.334421 
L 291.103582 12.466725 
L 296.557323 16.731333 
L 298.375237 18.437176 
L 299.284194 20.995941 
L 299.284194 26.11347 
L 300.193151 28.672234 
L 302.011064 31.65746 
L 306.555848 37.20145 
L 307.464805 40.186675 
L 306.555848 42.318979 
L 303.828978 47.436508 
L 303.828978 50.421734 
L 305.646892 55.539263 
L 317.463331 70.038929 
L 323.826029 85.817977 
L 328.370813 92.214889 
L 331.097683 98.611801 
L 332.915597 101.170565 
L 338.369338 107.567477 
L 339.278295 110.126241 
L 342.005166 115.670231 
L 342.005166 120.787761 
L 341.096209 131.44928 
L 342.914122 136.99327 
L 345.640993 142.110799 
L 349.27682 145.096024 
L 352.003691 142.53726 
L 353.821605 142.53726 
L 360.184303 154.904622 
L 362.911173 166.419063 
L 367.455957 173.242435 
L 368.364914 176.654121 
L 369.273871 185.183337 
L 370.182828 189.021484 
L 373.818655 192.43317 
L 375.636569 195.418395 
L 374.727612 198.403621 
L 375.636569 201.815307 
L 377.454483 212.050365 
L 382.908224 226.123571 
L 385.635094 237.638011 
L 385.635094 244.034923 
L 383.817181 246.593688 
L 381.999267 249.152452 
L 382.908224 260.240432 
L 381.09031 264.078579 
L 372.000742 264.078579 
L 370.182828 264.931501 
L 367.455957 268.343187 
L 366.547 269.196108 
L 354.730561 268.769648 
L 350.185777 267.490265 
L 340.187252 263.652118 
L 338.369338 261.946275 
L 337.460381 259.387511 
L 338.369338 254.696442 
L 336.551424 250.858295 
L 333.824554 248.299531 
L 330.188727 245.740766 
L 327.461856 243.182001 
L 326.552899 234.226325 
L 332.915597 229.535257 
L 342.005166 226.123571 
L 348.367864 218.873738 
L 343.823079 218.020816 
L 339.278295 218.873738 
L 334.733511 221.432502 
L 326.552899 227.829414 
L 324.734985 228.682335 
L 323.826029 226.976492 
L 322.008115 222.711884 
L 313.827503 206.079914 
L 308.373762 197.124238 
L 302.920021 192.859631 
L 301.102107 196.271317 
L 303.828978 203.094689 
L 312.918546 218.020816 
L 312.918546 221.432502 
L 312.00959 228.682335 
L 312.918546 232.094021 
L 313.827503 235.505708 
L 314.73646 239.343855 
L 313.827503 243.182001 
L 304.737935 250.431835 
L 292.921496 247.446609 
L 271.106531 236.358629 
L 264.743833 236.78509 
L 253.836351 241.902619 
L 249.291567 243.182001 
L 238.384085 242.32908 
L 234.748257 242.755541 
L 231.11243 244.887845 
L 217.478077 261.519815 
L 210.206423 267.490265 
L 201.116854 265.784422 
L 201.116854 264.50504 
L 199.29894 261.946275 
L 197.481027 260.240432 
L 195.663113 261.519815 
L 196.57207 264.078579 
L 197.481027 267.916726 
L 197.481027 270.04903 
L 197.481027 273.034255 
L 192.936242 279.431167 
L 189.300415 288.386843 
L 185.664588 283.269314 
L 177.483976 276.019481 
L 173.848149 270.901951 
L 171.121278 265.784422 
L 162.940666 238.490933 
L 158.395882 228.682335 
L 151.124227 220.579581 
L 141.125702 213.756208 
L 111.130126 202.668228 
L 68.409154 175.8012 
L 57.501672 171.110131 
L 52.047931 169.404288 
L 46.59419 168.977828 
L 42.049406 167.698445 
L 39.322535 165.139681 
L 34.777751 158.742769 
L 30.232967 152.772318 
L 23.870269 147.654789 
L 17.507571 142.963721 
L 9.326959 139.552034 
L 5.691132 140.831417 
L -7.034264 142.963721 
L -11.579048 142.53726 
L -17.03279 139.552034 
L -20.668617 134.860966 
L -25.213401 123.772986 
L -29.758185 119.081918 
L -49.755236 102.449947 
L -53.391064 99.464722 
L -55.208977 96.053036 
L -52.482107 95.626575 
L -52.482107 94.773654 
L -52.482107 93.920732 
L -53.391064 92.64135 
L -56.117934 89.656124 
L -60.662718 86.244438 
L -70.661244 80.700448 
L -106.110561 66.200782 
L -146.104662 49.568812 
L -155.194231 44.451283 
L -161.556928 39.333754 
L -180.645022 18.010715 
L -183.371893 16.731333 
L -188.825634 15.451951 
L -194.279375 12.893186 
L -197.006246 9.055039 
L -197.006246 4.363971 
L -200.642073 3.511049 
L -205.186857 1.805206 
L -212.458512 -2.459402 
L -217.003296 0.525824 
L -224.274951 0.952284 
L -227.910778 4.363971 
L -229.728692 -1.60648 
L -229.728692 -9.709235 
L -231.546606 -16.959068 
L -235.182433 -19.944293 
L -237.000347 -20.797215 
L -239.727217 -22.503058 
L -243.363045 -26.767666 
L -248.816786 -41.267332 
L -250.6347 -43.826096 
L -254.270527 -45.53194 
L -266.086966 -46.384861 
L -269.722793 -48.517165 
L -271.540707 -51.07593 
L -276.085491 -54.487616 
L -289.719844 -56.61992 
L -295.173585 -59.178684 
L -303.354197 -60.458066 
L -309.716895 -63.016831 
L -319.71542 -69.840203 
L -325.169161 -77.090036 
L -337.894557 -95.85431 
L -345.166212 -102.677683 
L -356.982651 -105.236447 
L -367.890133 -106.51583 
L -374.252831 -110.353976 
L -369.708047 -121.868417 
L -375.161788 -122.721339 
L -375.161788 -126.133025 
L -362.436392 -141.485613 
L -358.800565 -144.897299 
L -355.164737 -146.176681 
L -352.437867 -149.161907 
L -352.437867 -155.558818 
L -354.25578 -167.92618 
L -356.073694 -170.911406 
L -363.345349 -176.881857 
L -364.254306 -179.867082 
L -369.708047 -212.704561 
L -371.52596 -217.82209 
L -375.161788 -222.086698 
L -383.3424 -229.336531 
L -384.251356 -231.042374 
L -385.160313 -233.601139 
L -386.978227 -235.306982 
L -391.523011 -236.586364 
L -394.249882 -237.865747 
L -396.067795 -239.145129 
L -396.976752 -240.424511 
L -398.794666 -244.262658 
L -410.611105 -260.468167 
L -418.791717 -268.144461 
L -420.60963 -270.276765 
L -422.427544 -276.247216 
L -427.881285 -283.497049 
L -429.699199 -294.585029 
L -431.517113 -300.129019 
L -436.061897 -305.673009 
L -454.241034 -318.040371 
L -460.603732 -321.025597 
L -463.330602 -322.73144 
L -464.239559 -324.437283 
L -468.784343 -331.260655 
L -475.147041 -339.36341 
L -478.782869 -342.348635 
L -490.599308 -344.480939 
L -493.326178 -347.039704 
L -493.326178 -351.304311 
L -490.599308 -357.274762 
L -486.054523 -361.53937 
L -485.145567 -363.245213 
L -487.872437 -364.098134 
L -494.235135 -363.245213 
L -496.962006 -362.392291 
L -497.870962 -361.53937 
L -500.597833 -360.259987 
L -506.960531 -362.392291 
L -513.323229 -365.377517 
L -516.959056 -367.50982 
L -519.685927 -371.347967 
L -521.503841 -375.612575 
L -521.503841 -380.303644 
L -521.503841 -392.671006 
L -520.594884 -396.935614 
L -516.959056 -398.641457 
L -501.50679 -397.788535 
L -496.053049 -398.641457 
L -492.417221 -403.758986 
L -487.872437 -405.89129 
L -483.327653 -406.744211 
L -478.782869 -405.89129 
L -481.509739 -411.008819 
L -486.96348 -410.582358 
L -493.326178 -407.597133 
L -496.053049 -405.89129 
L -502.415747 -406.317751 
L -503.324704 -410.155897 
L -502.415747 -416.126348 
L -502.415747 -422.949721 
L -505.142617 -426.361407 
L -518.77697 -434.890622 
L -522.412797 -439.15523 
L -527.866538 -442.566916 
L -533.32028 -443.846298 
L -538.774021 -440.434612 
L -541.500891 -445.552141 
L -544.227762 -453.654896 
L -545.136719 -461.33119 
L -543.318805 -464.742876 
L -546.954632 -465.595797 
L -548.772546 -469.007484 
L -548.772546 -472.845631 
L -549.681503 -476.683777 
L -552.408373 -479.669003 
L -555.135244 -480.095464 
L -556.044201 -481.801307 
L -555.135244 -486.918836 
L -552.408373 -493.742208 
L -551.499417 -497.153894 
L -551.499417 -501.844963 
L -550.59046 -505.256649 
L -545.136719 -508.668335 
L -544.227762 -512.080021 
L -543.318805 -519.329854 
L -538.774021 -535.535364 
L -536.04715 -542.358736 
L -539.682977 -541.079354 
L -544.227762 -541.932275 
L -547.863589 -545.343961 
L -549.681503 -550.03503 
L -548.772546 -555.152559 
L -546.045675 -559.843628 
L -543.318805 -562.402392 
L -538.774021 -559.843628 
L -536.956107 -563.255314 
L -535.138193 -566.240539 
L -533.32028 -568.799304 
L -530.593409 -570.078686 
L -536.956107 -571.358068 
L -542.409848 -569.225764 
L -546.045675 -569.225764 
L -547.863589 -576.049137 
L -548.772546 -588.84296 
L -546.045675 -591.828185 
L -538.774021 -592.681107 
L -538.774021 -594.38695 
L -540.591934 -594.813411 
L -544.227762 -596.092793 
L -542.409848 -599.504479 
L -543.318805 -601.210322 
L -547.863589 -602.916165 
L -550.59046 -603.342626 
L -552.408373 -602.489704 
L -553.31733 -602.916165 
L -555.135244 -606.327851 
L -555.135244 -609.739538 
L -553.31733 -614.004145 
L -553.31733 -616.56291 
L -554.226287 -617.415831 
L -556.953158 -617.842292 
L -558.771071 -618.695214 
L -559.680028 -622.1069 
L -562.406899 -620.827518 
L -565.133769 -619.974596 
L -571.496467 -620.401057 
L -574.223338 -621.253978 
L -572.405424 -623.386282 
L -569.678553 -625.518586 
L -568.769597 -625.518586 
L -568.769597 -628.930272 
L -569.678553 -630.209655 
L -571.496467 -631.062576 
L -574.223338 -633.19488 
L -576.950208 -634.474262 
L -579.677079 -634.047801 
L -582.403949 -632.341958 
L -584.221863 -630.636115 
L -586.948734 -634.047801 
L -588.766647 -637.459488 
L -589.675604 -640.871174 
L -591.493518 -644.709321 
L -596.947259 -651.532693 
L -598.765173 -657.076683 
L -602.401 -665.605898 
L -605.127871 -669.017585 
L -606.945784 -674.988035 
L -606.036827 -677.120339 
L -605.127871 -677.120339 
L -604.218914 -676.693878 
L -603.309957 -677.5468 
L -600.583086 -680.105565 
L -597.856216 -682.664329 
L -595.129345 -685.649555 
L -593.311432 -693.752309 
L -589.675604 -701.855064 
L -589.675604 -706.972593 
L -589.675604 -709.531358 
L -592.402475 -714.648887 
L -593.311432 -716.35473 
L -592.402475 -719.339955 
L -589.675604 -724.031024 
L -589.675604 -726.589788 
L -590.584561 -730.001475 
L -596.038302 -741.515915 
L -601.492043 -748.765748 
L -602.401 -752.177435 
L -603.309957 -757.721425 
L -601.492043 -779.470924 
L -603.309957 -785.441375 
L -608.763698 -795.676433 
L -610.581612 -801.220423 
L -611.490569 -822.543462 
L -609.672655 -821.69054 
L -606.945784 -820.837618 
L -603.309957 -821.264079 
L -601.492043 -822.543462 
L -601.492043 -825.102226 
L -603.309957 -826.808069 
L -605.127871 -827.660991 
L -606.945784 -828.940373 
L -604.218914 -858.366166 
L -610.581612 -909.114998 
L -612.399525 -913.806066 
L -616.035353 -918.497135 
L -619.67118 -924.041125 
L -624.215964 -935.129105 
L -633.305533 -951.761075 
L -636.032403 -961.996133 
L -639.668231 -965.83428 
L -647.848842 -971.37827 
L -655.120497 -979.481025 
L -660.574238 -990.569005 
L -664.210066 -1002.083446 
L -666.027979 -1013.171426 
z
" clip-path="url(#p5709adc6c0)" style="fill: #bdc3c7; stroke: #ffffff; stroke-width: 0.5"/>
    <path d="M -788.737154 -1016.156651 
L -782.374456 -1014.024347 
L -776.920715 -1016.156651 
L -768.740103 -1015.73019 
L -765.104276 -1013.171426 
L -756.923664 -1012.318504 
L -752.37888 -1012.744965 
L -748.743053 -1016.156651 
L -746.016182 -1020.847719 
L -743.289312 -1020.847719 
L -739.653484 -1020.847719 
L -740.562441 -1022.980023 
L -740.562441 -1025.112327 
L -738.744527 -1024.685866 
L -736.017657 -1023.832945 
L -734.199743 -1018.288955 
L -732.381829 -1014.450808 
L -729.654959 -1012.318504 
L -724.201218 -1009.759739 
L -724.201218 -1007.627436 
L -722.383304 -1006.774514 
L -720.56539 -1004.64221 
L -721.474347 -1001.656985 
L -724.201218 -998.245299 
L -721.474347 -993.980691 
L -720.56539 -991.848387 
L -719.656433 -989.716083 
L -722.383304 -988.436701 
L -726.019131 -987.583779 
L -727.837045 -985.025015 
L -731.472873 -983.319172 
L -732.381829 -979.481025 
L -736.926614 -982.039789 
L -737.83557 -988.01024 
L -743.289312 -988.01024 
L -747.834096 -986.304397 
L -751.469923 -981.613329 
L -755.105751 -977.775182 
L -758.741578 -977.348721 
L -762.377405 -974.363495 
L -765.104276 -973.084113 
L -766.92219 -972.231192 
L -770.558017 -984.598554 
L -768.740103 -988.863162 
L -769.64906 -995.260073 
L -774.193844 -996.539456 
L -780.556542 -998.245299 
L -785.101327 -997.818838 
L -786.91924 -1001.230524 
L -787.828197 -1005.495132 
z
" clip-path="url(#p5709adc6c0)" style="fill: #bdc3c7; stroke: #ffffff; stroke-width: 0.5"/>
    <path d="M -653.302584 -722.751641 
L -653.302584 -723.604563 
L -649.666756 -725.736867 
L -649.666756 -729.148553 
L -650.575713 -742.795298 
L -649.666756 -754.309738 
L -650.575713 -756.868503 
L -651.48467 -758.574346 
L -653.302584 -760.280189 
L -653.302584 -761.559572 
L -653.302584 -763.691875 
L -652.393627 -765.824179 
L -651.48467 -767.530022 
L -653.302584 -769.235865 
L -650.575713 -770.515248 
L -648.757799 -769.235865 
L -647.848842 -766.677101 
L -645.121972 -765.824179 
L -643.304058 -766.25064 
L -642.395101 -767.956483 
L -640.577188 -769.662326 
L -639.668231 -770.941708 
L -635.123447 -772.221091 
L -629.669705 -771.79463 
L -625.124921 -770.515248 
L -620.580137 -767.530022 
L -618.762223 -763.691875 
L -614.217439 -761.559572 
L -612.399525 -759.000807 
L -616.94431 -750.471592 
L -617.853266 -740.662994 
L -618.762223 -735.971925 
L -625.124921 -724.457485 
L -626.033878 -719.766416 
L -639.668231 -722.325181 
L -649.666756 -722.325181 
L -649.666756 -721.89872 
L -649.666756 -721.045798 
L -650.575713 -721.045798 
L -652.393627 -721.472259 
z
" clip-path="url(#p5709adc6c0)" style="fill: #bdc3c7; stroke: #ffffff; stroke-width: 0.5"/>
    <path d="M 3933.293674 -570.078686 
L 3933.293674 -571.784529 
L 3953.290725 -571.784529 
L 3956.017595 -572.637451 
L 3957.835509 -574.343294 
L 3959.653423 -576.049137 
L 3961.471336 -576.902058 
L 3966.016121 -576.049137 
L 3968.742991 -572.637451 
L 3970.560905 -567.946382 
L 3975.105689 -564.961157 
L 3977.83256 -569.225764 
L 3985.104214 -568.799304 
L 3991.466912 -566.240539 
L 3997.82961 -563.255314 
L 3997.82961 -561.549471 
L 3993.284826 -561.12301 
L 3991.466912 -559.417167 
L 3990.557955 -556.431941 
L 3990.557955 -553.020255 
L 3986.013171 -557.284863 
L 3984.195258 -558.137784 
L 3983.286301 -556.858402 
L 3982.377344 -554.726098 
L 3981.468387 -553.020255 
L 3978.741516 -553.873177 
L 3975.105689 -556.858402 
L 3971.469862 -558.564245 
L 3966.925077 -559.417167 
L 3964.198207 -559.843628 
L 3962.380293 -560.270088 
L 3960.562379 -562.402392 
L 3959.653423 -563.255314 
L 3950.563854 -564.961157 
z
" clip-path="url(#p5709adc6c0)" style="fill: #bdc3c7; stroke: #ffffff; stroke-width: 0.5"/>
    <path d="M 3607.887122 -1209.76984 
L 3608.796079 -1214.034448 
L 3609.705036 -1215.740291 
L 3609.705036 -1227.254732 
L 3610.613993 -1229.387036 
L 3612.431907 -1230.666418 
L 3616.067734 -1231.9458 
L 3618.794604 -1233.225183 
L 3624.248346 -1239.622094 
L 3630.611043 -1243.460241 
L 3633.337914 -1244.739623 
L 3636.973741 -1245.166084 
L 3656.061835 -1248.57777 
L 3661.515576 -1246.871927 
L 3664.242447 -1242.60732 
L 3665.151404 -1236.636869 
L 3662.424533 -1217.446134 
L 3659.697663 -1209.76984 
L 3656.061835 -1205.078772 
L 3651.517051 -1207.211076 
L 3646.972267 -1205.078772 
L 3632.428957 -1202.520007 
L 3628.79313 -1200.814164 
L 3627.884173 -1199.534782 
L 3620.612518 -1196.549556 
L 3618.794604 -1194.843713 
L 3616.976691 -1191.858488 
L 3616.067734 -1189.299723 
L 3614.24982 -1186.740959 
L 3611.52295 -1184.608655 
L 3609.705036 -1190.579106 
z
" clip-path="url(#p5709adc6c0)" style="fill: #bdc3c7; stroke: #ffffff; stroke-width: 0.5"/>
    <path d="M 342.914122 -92.016163 
L 342.914122 -94.148467 
L 344.732036 -95.85431 
L 347.458907 -97.133693 
L 349.27682 -98.413075 
L 352.003691 -102.251222 
L 352.003691 -106.089369 
L 351.094734 -109.927516 
L 350.185777 -114.192123 
L 350.185777 -116.750888 
L 352.003691 -119.309653 
L 354.730561 -121.015496 
L 356.548475 -120.589035 
L 358.366389 -119.309653 
L 358.366389 -118.03027 
L 359.275346 -115.045045 
L 359.275346 -113.339202 
L 362.911173 -108.221673 
L 364.729087 -104.809986 
L 367.455957 -94.148467 
L 368.364914 -81.781105 
L 367.455957 -78.79588 
L 364.729087 -76.663576 
L 359.275346 -74.957733 
L 354.730561 -74.531272 
L 351.094734 -76.237115 
L 346.54995 -81.354644 
L 343.823079 -84.33987 
L 343.823079 -86.472173 
L 343.823079 -87.751556 
z
" clip-path="url(#p5709adc6c0)" style="fill: #bdc3c7; stroke: #ffffff; stroke-width: 0.5"/>
    <path d="M 3755.138132 -458.345964 
L 3756.956045 -461.757651 
L 3761.50083 -464.742876 
L 3766.954571 -467.301641 
L 3770.590398 -468.581023 
L 3775.135182 -468.154562 
L 3784.224751 -465.169337 
L 3788.769535 -464.742876 
L 3791.496406 -463.463494 
L 3794.223276 -460.478268 
L 3797.859104 -454.934278 
L 3799.677017 -452.801974 
L 3802.403888 -451.522592 
L 3804.221802 -450.669671 
L 3807.857629 -450.669671 
L 3819.674068 -446.831524 
L 3820.583025 -444.272759 
L 3822.400939 -440.434612 
L 3808.766586 -440.861073 
L 3791.496406 -440.861073 
L 3779.679967 -440.861073 
L 3771.499355 -442.140455 
L 3769.681441 -443.846298 
L 3756.047089 -455.360739 
z
" clip-path="url(#p5709adc6c0)" style="fill: #bdc3c7; stroke: #ffffff; stroke-width: 0.5"/>
    <path d="M 2154.465122 -73.25189 
L 2154.465122 -86.045713 
L 2158.100949 -94.148467 
L 2167.190517 -90.736781 
L 2171.735302 -82.634026 
L 2174.462172 -71.972507 
L 2175.371129 -28.047048 
L 2177.189043 -9.282774 
L 2182.642784 5.216892 
L 2182.642784 6.496274 
L 2182.642784 8.628578 
L 2182.642784 9.907961 
L 2179.915913 8.628578 
L 2177.189043 7.775657 
L 2175.371129 8.628578 
L 2173.553215 10.760882 
L 2171.735302 13.319647 
L 2169.008431 9.907961 
L 2165.372604 -0.327098 
L 2162.645733 -2.459402 
L 2157.191992 -5.018166 
L 2156.283035 -10.135696 
L 2158.100949 -21.223676 
L 2159.009906 -31.458734 
z
" clip-path="url(#p5709adc6c0)" style="fill: #bdc3c7; stroke: #ffffff; stroke-width: 0.5"/>
    <path d="M 3680.60367 -1073.728855 
L 3680.60367 -1075.861159 
L 3683.330541 -1077.567002 
L 3686.057411 -1078.419923 
L 3698.782807 -1079.272845 
L 3702.418635 -1080.125766 
L 3705.145505 -1082.684531 
L 3706.963419 -1086.522678 
L 3704.236548 -1089.081442 
L 3695.14698 -1089.507903 
L 3694.238023 -1092.919589 
L 3697.87385 -1095.904815 
L 3707.872376 -1097.184197 
L 3711.508203 -1099.742962 
L 3717.870901 -1091.640207 
L 3722.415685 -1083.963913 
L 3721.506728 -1076.287619 
L 3711.508203 -1068.611326 
L 3705.145505 -1066.479022 
L 3697.87385 -1066.479022 
L 3689.693239 -1067.758404 
L 3683.330541 -1069.890708 
L 3681.512627 -1071.596551 
z
" clip-path="url(#p5709adc6c0)" style="fill: #bdc3c7; stroke: #ffffff; stroke-width: 0.5"/>
    <path d="M 3556.076582 -1208.490458 
L 3567.893021 -1231.092879 
L 3571.528848 -1232.798722 
L 3580.618417 -1234.931026 
L 3584.254244 -1236.636869 
L 3594.25277 -1248.57777 
L 3597.888597 -1245.166084 
L 3598.797554 -1239.195633 
L 3598.797554 -1233.225183 
L 3596.070683 -1229.387036 
L 3591.525899 -1233.651643 
L 3587.890072 -1231.9458 
L 3586.072158 -1227.254732 
L 3588.799028 -1222.563663 
L 3565.16615 -1216.593213 
L 3566.075107 -1214.034448 
L 3567.893021 -1212.755066 
L 3569.710935 -1211.475683 
L 3567.893021 -1208.490458 
L 3566.075107 -1207.637536 
L 3562.43928 -1207.211076 
L 3558.803452 -1207.637536 
z
" clip-path="url(#p5709adc6c0)" style="fill: #bdc3c7; stroke: #ffffff; stroke-width: 0.5"/>
    <path d="M 4008.737092 -526.153227 
L 4009.646049 -526.579688 
L 4012.37292 -527.006148 
L 4016.008747 -527.006148 
L 4029.6431 -525.300305 
L 4035.096841 -523.594462 
L 4037.823712 -520.182776 
L 4036.914755 -516.344629 
L 4031.461014 -515.065247 
L 4021.462488 -515.065247 
L 4017.826661 -511.2271 
L 4016.008747 -511.2271 
L 4015.09979 -512.080021 
L 4015.09979 -512.932943 
L 4014.190834 -518.050472 
L 4013.281877 -519.329854 
L 4010.555006 -521.888619 
L 4009.646049 -523.168001 
z
" clip-path="url(#p5709adc6c0)" style="fill: #bdc3c7; stroke: #ffffff; stroke-width: 0.5"/>
    <path d="M -757.832621 -962.422594 
L -752.37888 -967.113662 
L -748.743053 -975.216417 
L -743.289312 -977.348721 
L -739.653484 -980.333946 
L -739.653484 -976.069339 
L -741.471398 -973.937035 
L -743.289312 -971.37827 
L -743.289312 -967.966584 
L -743.289312 -966.687202 
L -743.289312 -962.422594 
L -741.471398 -958.157986 
L -742.380355 -954.319839 
L -745.107225 -950.481692 
L -747.834096 -949.628771 
L -751.469923 -953.040457 
L -753.287837 -956.878604 
L -756.014707 -957.731525 
z
" clip-path="url(#p5709adc6c0)" style="fill: #bdc3c7; stroke: #ffffff; stroke-width: 0.5"/>
    <path d="M -378.797615 -139.77977 
L -378.797615 -141.059152 
L -378.797615 -144.044377 
L -372.434917 -159.396965 
L -368.79909 -164.514494 
L -364.254306 -166.220337 
L -361.527435 -164.940955 
L -360.618478 -161.529269 
L -361.527435 -159.823426 
L -360.618478 -156.41174 
L -361.527435 -150.86775 
L -365.163263 -147.456063 
L -369.708047 -145.75022 
L -373.343874 -142.764995 
L -375.161788 -141.485613 
L -376.979702 -140.20623 
z
" clip-path="url(#p5709adc6c0)" style="fill: #bdc3c7; stroke: #ffffff; stroke-width: 0.5"/>
    <path d="M 3886.936875 -864.336617 
L 3888.754788 -866.468921 
L 3891.481659 -868.601225 
L 3895.117486 -869.454146 
L 3901.480184 -869.454146 
L 3905.116012 -868.601225 
L 3906.024969 -866.04246 
L 3904.207055 -863.483695 
L 3901.480184 -862.630774 
L 3899.662271 -862.204313 
L 3895.117486 -860.924931 
L 3894.20853 -860.49847 
L 3891.481659 -860.924931 
L 3889.663745 -861.351392 
L 3887.845832 -862.630774 
z
" clip-path="url(#p5709adc6c0)" style="fill: #bdc3c7; stroke: #ffffff; stroke-width: 0.5"/>
    <path d="M 3128.866863 -717.207651 
L 3128.866863 -721.045798 
L 3136.138518 -740.662994 
L 3137.956432 -743.221758 
L 3145.228086 -749.61867 
L 3149.772871 -751.324513 
L 3151.590784 -745.780523 
L 3154.317655 -733.413161 
L 3154.317655 -727.016249 
L 3149.772871 -722.325181 
L 3147.046 -722.325181 
L 3142.501216 -725.736867 
L 3139.774345 -725.310406 
L 3135.229561 -721.045798 
z
" clip-path="url(#p5709adc6c0)" style="fill: #bdc3c7; stroke: #ffffff; stroke-width: 0.5"/>
    <path d="M -386.06927 -157.264661 
L -384.251356 -160.676347 
L -379.706572 -162.808651 
L -377.888658 -160.249887 
L -378.797615 -157.264661 
L -380.615529 -155.985279 
L -384.251356 -155.132357 
z
" clip-path="url(#p5709adc6c0)" style="fill: #bdc3c7; stroke: #ffffff; stroke-width: 0.5"/>
   </g>
   <g id="PatchCollection_2">
    <defs>
     <path id="m454f0378e9" d="M 220.204948 -235.190785 
L 221.113905 -239.028932 
L 229.294516 -249.690451 
L 230.203473 -254.381519 
L 231.11243 -257.366745 
L 233.839301 -259.925509 
L 237.475128 -262.057813 
L 240.201999 -262.484274 
L 245.65574 -261.631352 
L 251.109481 -262.484274 
L 258.381136 -265.89596 
L 262.016963 -267.175342 
L 268.379661 -266.748882 
L 274.742359 -264.616578 
L 293.830453 -254.80798 
L 301.102107 -252.249215 
L 307.464805 -250.969833 
L 311.100633 -249.690451 
L 312.00959 -247.984608 
L 309.282719 -243.293539 
L 304.737935 -238.17601 
L 299.284194 -233.911402 
L 293.830453 -232.205559 
L 287.467755 -231.779098 
L 282.92297 -229.646795 
L 273.833402 -223.676344 
L 272.924445 -222.396962 
L 272.015488 -221.54404 
L 270.197575 -221.117579 
L 267.470704 -220.264658 
L 261.108006 -220.691118 
L 258.381136 -221.54404 
L 256.563222 -222.823422 
L 254.745308 -226.235108 
L 249.291567 -228.793873 
L 242.928869 -230.073255 
L 237.475128 -230.926177 
L 226.567646 -230.499716 
L 222.022862 -231.779098 
z
" style="stroke: #ffffff; stroke-width: 0.6"/>
    </defs>
    <g clip-path="url(#p5709adc6c0)">
     <use xlink:href="#m454f0378e9" x="0" y="510.357344" style="fill: #e74c3c; stroke: #ffffff; stroke-width: 0.6"/>
    </g>
   </g>
   <g id="text_1">
    <!-- Singapore -->
    <g style="fill: #1a252f" transform="translate(217.319925 20.117344) scale(0.17 -0.17)">
     <defs>
      <path id="DejaVuSans-Bold-36" d="M 3834 4519 
L 3834 3531 
Q 3450 3703 3084 3790 
Q 2719 3878 2394 3878 
Q 1963 3878 1756 3759 
Q 1550 3641 1550 3391 
Q 1550 3203 1689 3098 
Q 1828 2994 2194 2919 
L 2706 2816 
Q 3484 2659 3812 2340 
Q 4141 2022 4141 1434 
Q 4141 663 3683 286 
Q 3225 -91 2284 -91 
Q 1841 -91 1394 -6 
Q 947 78 500 244 
L 500 1259 
Q 947 1022 1364 901 
Q 1781 781 2169 781 
Q 2563 781 2772 912 
Q 2981 1044 2981 1288 
Q 2981 1506 2839 1625 
Q 2697 1744 2272 1838 
L 1806 1941 
Q 1106 2091 782 2419 
Q 459 2747 459 3303 
Q 459 4000 909 4375 
Q 1359 4750 2203 4750 
Q 2588 4750 2994 4692 
Q 3400 4634 3834 4519 
z
" transform="scale(0.015625)"/>
      <path id="DejaVuSans-Bold-4c" d="M 538 3500 
L 1656 3500 
L 1656 0 
L 538 0 
L 538 3500 
z
M 538 4863 
L 1656 4863 
L 1656 3950 
L 538 3950 
L 538 4863 
z
" transform="scale(0.015625)"/>
      <path id="DejaVuSans-Bold-51" d="M 4056 2131 
L 4056 0 
L 2931 0 
L 2931 347 
L 2931 1631 
Q 2931 2084 2911 2256 
Q 2891 2428 2841 2509 
Q 2775 2619 2662 2680 
Q 2550 2741 2406 2741 
Q 2056 2741 1856 2470 
Q 1656 2200 1656 1722 
L 1656 0 
L 538 0 
L 538 3500 
L 1656 3500 
L 1656 2988 
Q 1909 3294 2193 3439 
Q 2478 3584 2822 3584 
Q 3428 3584 3742 3212 
Q 4056 2841 4056 2131 
z
" transform="scale(0.015625)"/>
      <path id="DejaVuSans-Bold-4a" d="M 2919 594 
Q 2688 288 2409 144 
Q 2131 0 1766 0 
Q 1125 0 706 504 
Q 288 1009 288 1791 
Q 288 2575 706 3076 
Q 1125 3578 1766 3578 
Q 2131 3578 2409 3434 
Q 2688 3291 2919 2981 
L 2919 3500 
L 4044 3500 
L 4044 353 
Q 4044 -491 3511 -936 
Q 2978 -1381 1966 -1381 
Q 1638 -1381 1331 -1331 
Q 1025 -1281 716 -1178 
L 716 -306 
Q 1009 -475 1290 -558 
Q 1572 -641 1856 -641 
Q 2406 -641 2662 -400 
Q 2919 -159 2919 353 
L 2919 594 
z
M 2181 2772 
Q 1834 2772 1640 2515 
Q 1447 2259 1447 1791 
Q 1447 1309 1634 1061 
Q 1822 813 2181 813 
Q 2531 813 2725 1069 
Q 2919 1325 2919 1791 
Q 2919 2259 2725 2515 
Q 2531 2772 2181 2772 
z
" transform="scale(0.015625)"/>
      <path id="DejaVuSans-Bold-44" d="M 2106 1575 
Q 1756 1575 1579 1456 
Q 1403 1338 1403 1106 
Q 1403 894 1545 773 
Q 1688 653 1941 653 
Q 2256 653 2472 879 
Q 2688 1106 2688 1447 
L 2688 1575 
L 2106 1575 
z
M 3816 1997 
L 3816 0 
L 2688 0 
L 2688 519 
Q 2463 200 2181 54 
Q 1900 -91 1497 -91 
Q 953 -91 614 226 
Q 275 544 275 1050 
Q 275 1666 698 1953 
Q 1122 2241 2028 2241 
L 2688 2241 
L 2688 2328 
Q 2688 2594 2478 2717 
Q 2269 2841 1825 2841 
Q 1466 2841 1156 2769 
Q 847 2697 581 2553 
L 581 3406 
Q 941 3494 1303 3539 
Q 1666 3584 2028 3584 
Q 2975 3584 3395 3211 
Q 3816 2838 3816 1997 
z
" transform="scale(0.015625)"/>
      <path id="DejaVuSans-Bold-53" d="M 1656 506 
L 1656 -1331 
L 538 -1331 
L 538 3500 
L 1656 3500 
L 1656 2988 
Q 1888 3294 2169 3439 
Q 2450 3584 2816 3584 
Q 3463 3584 3878 3070 
Q 4294 2556 4294 1747 
Q 4294 938 3878 423 
Q 3463 -91 2816 -91 
Q 2450 -91 2169 54 
Q 1888 200 1656 506 
z
M 2400 2772 
Q 2041 2772 1848 2508 
Q 1656 2244 1656 1747 
Q 1656 1250 1848 986 
Q 2041 722 2400 722 
Q 2759 722 2948 984 
Q 3138 1247 3138 1747 
Q 3138 2247 2948 2509 
Q 2759 2772 2400 2772 
z
" transform="scale(0.015625)"/>
      <path id="DejaVuSans-Bold-52" d="M 2203 2784 
Q 1831 2784 1636 2517 
Q 1441 2250 1441 1747 
Q 1441 1244 1636 976 
Q 1831 709 2203 709 
Q 2569 709 2762 976 
Q 2956 1244 2956 1747 
Q 2956 2250 2762 2517 
Q 2569 2784 2203 2784 
z
M 2203 3584 
Q 3106 3584 3614 3096 
Q 4122 2609 4122 1747 
Q 4122 884 3614 396 
Q 3106 -91 2203 -91 
Q 1297 -91 786 396 
Q 275 884 275 1747 
Q 275 2609 786 3096 
Q 1297 3584 2203 3584 
z
" transform="scale(0.015625)"/>
      <path id="DejaVuSans-Bold-55" d="M 3138 2547 
Q 2991 2616 2845 2648 
Q 2700 2681 2553 2681 
Q 2122 2681 1889 2404 
Q 1656 2128 1656 1613 
L 1656 0 
L 538 0 
L 538 3500 
L 1656 3500 
L 1656 2925 
Q 1872 3269 2151 3426 
Q 2431 3584 2822 3584 
Q 2878 3584 2943 3579 
Q 3009 3575 3134 3559 
L 3138 2547 
z
" transform="scale(0.015625)"/>
      <path id="DejaVuSans-Bold-48" d="M 4031 1759 
L 4031 1441 
L 1416 1441 
Q 1456 1047 1700 850 
Q 1944 653 2381 653 
Q 2734 653 3104 758 
Q 3475 863 3866 1075 
L 3866 213 
Q 3469 63 3072 -14 
Q 2675 -91 2278 -91 
Q 1328 -91 801 392 
Q 275 875 275 1747 
Q 275 2603 792 3093 
Q 1309 3584 2216 3584 
Q 3041 3584 3536 3087 
Q 4031 2591 4031 1759 
z
M 2881 2131 
Q 2881 2450 2695 2645 
Q 2509 2841 2209 2841 
Q 1884 2841 1681 2658 
Q 1478 2475 1428 2131 
L 2881 2131 
z
" transform="scale(0.015625)"/>
     </defs>
     <use xlink:href="#DejaVuSans-Bold-36"/>
     <use xlink:href="#DejaVuSans-Bold-4c" transform="translate(72.015625 0)"/>
     <use xlink:href="#DejaVuSans-Bold-51" transform="translate(106.296875 0)"/>
     <use xlink:href="#DejaVuSans-Bold-4a" transform="translate(177.484375 0)"/>
     <use xlink:href="#DejaVuSans-Bold-44" transform="translate(249.0625 0)"/>
     <use xlink:href="#DejaVuSans-Bold-53" transform="translate(316.546875 0)"/>
     <use xlink:href="#DejaVuSans-Bold-52" transform="translate(388.125 0)"/>
     <use xlink:href="#DejaVuSans-Bold-55" transform="translate(456.828125 0)"/>
     <use xlink:href="#DejaVuSans-Bold-48" transform="translate(506.140625 0)"/>
    </g>
   </g>
   <g id="legend_1">
    <g id="patch_2">
     <path d="M 13.5 498.657344 
L 88.097344 498.657344 
Q 89.897344 498.657344 89.897344 496.857344 
L 89.897344 470.755937 
Q 89.897344 468.955937 88.097344 468.955937 
L 13.5 468.955937 
Q 11.7 468.955937 11.7 470.755937 
L 11.7 496.857344 
Q 11.7 498.657344 13.5 498.657344 
z
" style="fill: #ffffff; opacity: 0.85; stroke: #cccccc; stroke-linejoin: miter"/>
    </g>
    <g id="patch_3">
     <path d="M 15.3 479.394531 
L 33.3 479.394531 
L 33.3 473.094531 
L 15.3 473.094531 
z
" style="fill: #e74c3c; stroke: #888888; stroke-linejoin: miter"/>
    </g>
    <g id="text_2">
     <!-- Singapore -->
     <g transform="translate(40.5 479.394531) scale(0.09 -0.09)">
      <defs>
       <path id="DejaVuSans-36" d="M 3425 4513 
L 3425 3897 
Q 3066 4069 2747 4153 
Q 2428 4238 2131 4238 
Q 1616 4238 1336 4038 
Q 1056 3838 1056 3469 
Q 1056 3159 1242 3001 
Q 1428 2844 1947 2747 
L 2328 2669 
Q 3034 2534 3370 2195 
Q 3706 1856 3706 1288 
Q 3706 609 3251 259 
Q 2797 -91 1919 -91 
Q 1588 -91 1214 -16 
Q 841 59 441 206 
L 441 856 
Q 825 641 1194 531 
Q 1563 422 1919 422 
Q 2459 422 2753 634 
Q 3047 847 3047 1241 
Q 3047 1584 2836 1778 
Q 2625 1972 2144 2069 
L 1759 2144 
Q 1053 2284 737 2584 
Q 422 2884 422 3419 
Q 422 4038 858 4394 
Q 1294 4750 2059 4750 
Q 2388 4750 2728 4690 
Q 3069 4631 3425 4513 
z
" transform="scale(0.015625)"/>
       <path id="DejaVuSans-4c" d="M 603 3500 
L 1178 3500 
L 1178 0 
L 603 0 
L 603 3500 
z
M 603 4863 
L 1178 4863 
L 1178 4134 
L 603 4134 
L 603 4863 
z
" transform="scale(0.015625)"/>
       <path id="DejaVuSans-51" d="M 3513 2113 
L 3513 0 
L 2938 0 
L 2938 2094 
Q 2938 2591 2744 2837 
Q 2550 3084 2163 3084 
Q 1697 3084 1428 2787 
Q 1159 2491 1159 1978 
L 1159 0 
L 581 0 
L 581 3500 
L 1159 3500 
L 1159 2956 
Q 1366 3272 1645 3428 
Q 1925 3584 2291 3584 
Q 2894 3584 3203 3211 
Q 3513 2838 3513 2113 
z
" transform="scale(0.015625)"/>
       <path id="DejaVuSans-4a" d="M 2906 1791 
Q 2906 2416 2648 2759 
Q 2391 3103 1925 3103 
Q 1463 3103 1205 2759 
Q 947 2416 947 1791 
Q 947 1169 1205 825 
Q 1463 481 1925 481 
Q 2391 481 2648 825 
Q 2906 1169 2906 1791 
z
M 3481 434 
Q 3481 -459 3084 -895 
Q 2688 -1331 1869 -1331 
Q 1566 -1331 1297 -1286 
Q 1028 -1241 775 -1147 
L 775 -588 
Q 1028 -725 1275 -790 
Q 1522 -856 1778 -856 
Q 2344 -856 2625 -561 
Q 2906 -266 2906 331 
L 2906 616 
Q 2728 306 2450 153 
Q 2172 0 1784 0 
Q 1141 0 747 490 
Q 353 981 353 1791 
Q 353 2603 747 3093 
Q 1141 3584 1784 3584 
Q 2172 3584 2450 3431 
Q 2728 3278 2906 2969 
L 2906 3500 
L 3481 3500 
L 3481 434 
z
" transform="scale(0.015625)"/>
       <path id="DejaVuSans-44" d="M 2194 1759 
Q 1497 1759 1228 1600 
Q 959 1441 959 1056 
Q 959 750 1161 570 
Q 1363 391 1709 391 
Q 2188 391 2477 730 
Q 2766 1069 2766 1631 
L 2766 1759 
L 2194 1759 
z
M 3341 1997 
L 3341 0 
L 2766 0 
L 2766 531 
Q 2569 213 2275 61 
Q 1981 -91 1556 -91 
Q 1019 -91 701 211 
Q 384 513 384 1019 
Q 384 1609 779 1909 
Q 1175 2209 1959 2209 
L 2766 2209 
L 2766 2266 
Q 2766 2663 2505 2880 
Q 2244 3097 1772 3097 
Q 1472 3097 1187 3025 
Q 903 2953 641 2809 
L 641 3341 
Q 956 3463 1253 3523 
Q 1550 3584 1831 3584 
Q 2591 3584 2966 3190 
Q 3341 2797 3341 1997 
z
" transform="scale(0.015625)"/>
       <path id="DejaVuSans-53" d="M 1159 525 
L 1159 -1331 
L 581 -1331 
L 581 3500 
L 1159 3500 
L 1159 2969 
Q 1341 3281 1617 3432 
Q 1894 3584 2278 3584 
Q 2916 3584 3314 3078 
Q 3713 2572 3713 1747 
Q 3713 922 3314 415 
Q 2916 -91 2278 -91 
Q 1894 -91 1617 61 
Q 1341 213 1159 525 
z
M 3116 1747 
Q 3116 2381 2855 2742 
Q 2594 3103 2138 3103 
Q 1681 3103 1420 2742 
Q 1159 2381 1159 1747 
Q 1159 1113 1420 752 
Q 1681 391 2138 391 
Q 2594 391 2855 752 
Q 3116 1113 3116 1747 
z
" transform="scale(0.015625)"/>
       <path id="DejaVuSans-52" d="M 1959 3097 
Q 1497 3097 1228 2736 
Q 959 2375 959 1747 
Q 959 1119 1226 758 
Q 1494 397 1959 397 
Q 2419 397 2687 759 
Q 2956 1122 2956 1747 
Q 2956 2369 2687 2733 
Q 2419 3097 1959 3097 
z
M 1959 3584 
Q 2709 3584 3137 3096 
Q 3566 2609 3566 1747 
Q 3566 888 3137 398 
Q 2709 -91 1959 -91 
Q 1206 -91 779 398 
Q 353 888 353 1747 
Q 353 2609 779 3096 
Q 1206 3584 1959 3584 
z
" transform="scale(0.015625)"/>
       <path id="DejaVuSans-55" d="M 2631 2963 
Q 2534 3019 2420 3045 
Q 2306 3072 2169 3072 
Q 1681 3072 1420 2755 
Q 1159 2438 1159 1844 
L 1159 0 
L 581 0 
L 581 3500 
L 1159 3500 
L 1159 2956 
Q 1341 3275 1631 3429 
Q 1922 3584 2338 3584 
Q 2397 3584 2469 3576 
Q 2541 3569 2628 3553 
L 2631 2963 
z
" transform="scale(0.015625)"/>
       <path id="DejaVuSans-48" d="M 3597 1894 
L 3597 1613 
L 953 1613 
Q 991 1019 1311 708 
Q 1631 397 2203 397 
Q 2534 397 2845 478 
Q 3156 559 3463 722 
L 3463 178 
Q 3153 47 2828 -22 
Q 2503 -91 2169 -91 
Q 1331 -91 842 396 
Q 353 884 353 1716 
Q 353 2575 817 3079 
Q 1281 3584 2069 3584 
Q 2775 3584 3186 3129 
Q 3597 2675 3597 1894 
z
M 3022 2063 
Q 3016 2534 2758 2815 
Q 2500 3097 2075 3097 
Q 1594 3097 1305 2825 
Q 1016 2553 972 2059 
L 3022 2063 
z
" transform="scale(0.015625)"/>
      </defs>
      <use xlink:href="#DejaVuSans-36"/>
      <use xlink:href="#DejaVuSans-4c" transform="translate(63.484375 0)"/>
      <use xlink:href="#DejaVuSans-51" transform="translate(91.265625 0)"/>
      <use xlink:href="#DejaVuSans-4a" transform="translate(154.640625 0)"/>
      <use xlink:href="#DejaVuSans-44" transform="translate(218.125 0)"/>
      <use xlink:href="#DejaVuSans-53" transform="translate(279.40625 0)"/>
      <use xlink:href="#DejaVuSans-52" transform="translate(342.890625 0)"/>
      <use xlink:href="#DejaVuSans-55" transform="translate(404.078125 0)"/>
      <use xlink:href="#DejaVuSans-48" transform="translate(442.984375 0)"/>
     </g>
    </g>
    <g id="patch_4">
     <path d="M 15.3 492.895234 
L 33.3 492.895234 
L 33.3 486.595234 
L 15.3 486.595234 
z
" style="fill: #bdc3c7; stroke: #888888; stroke-linejoin: miter"/>
    </g>
    <g id="text_3">
     <!-- Neighbors -->
     <g transform="translate(40.5 492.895234) scale(0.09 -0.09)">
      <defs>
       <path id="DejaVuSans-31" d="M 628 4666 
L 1478 4666 
L 3547 763 
L 3547 4666 
L 4159 4666 
L 4159 0 
L 3309 0 
L 1241 3903 
L 1241 0 
L 628 0 
L 628 4666 
z
" transform="scale(0.015625)"/>
       <path id="DejaVuSans-4b" d="M 3513 2113 
L 3513 0 
L 2938 0 
L 2938 2094 
Q 2938 2591 2744 2837 
Q 2550 3084 2163 3084 
Q 1697 3084 1428 2787 
Q 1159 2491 1159 1978 
L 1159 0 
L 581 0 
L 581 4863 
L 1159 4863 
L 1159 2956 
Q 1366 3272 1645 3428 
Q 1925 3584 2291 3584 
Q 2894 3584 3203 3211 
Q 3513 2838 3513 2113 
z
" transform="scale(0.015625)"/>
       <path id="DejaVuSans-45" d="M 3116 1747 
Q 3116 2381 2855 2742 
Q 2594 3103 2138 3103 
Q 1681 3103 1420 2742 
Q 1159 2381 1159 1747 
Q 1159 1113 1420 752 
Q 1681 391 2138 391 
Q 2594 391 2855 752 
Q 3116 1113 3116 1747 
z
M 1159 2969 
Q 1341 3281 1617 3432 
Q 1894 3584 2278 3584 
Q 2916 3584 3314 3078 
Q 3713 2572 3713 1747 
Q 3713 922 3314 415 
Q 2916 -91 2278 -91 
Q 1894 -91 1617 61 
Q 1341 213 1159 525 
L 1159 0 
L 581 0 
L 581 4863 
L 1159 4863 
L 1159 2969 
z
" transform="scale(0.015625)"/>
       <path id="DejaVuSans-56" d="M 2834 3397 
L 2834 2853 
Q 2591 2978 2328 3040 
Q 2066 3103 1784 3103 
Q 1356 3103 1142 2972 
Q 928 2841 928 2578 
Q 928 2378 1081 2264 
Q 1234 2150 1697 2047 
L 1894 2003 
Q 2506 1872 2764 1633 
Q 3022 1394 3022 966 
Q 3022 478 2636 193 
Q 2250 -91 1575 -91 
Q 1294 -91 989 -36 
Q 684 19 347 128 
L 347 722 
Q 666 556 975 473 
Q 1284 391 1588 391 
Q 1994 391 2212 530 
Q 2431 669 2431 922 
Q 2431 1156 2273 1281 
Q 2116 1406 1581 1522 
L 1381 1569 
Q 847 1681 609 1914 
Q 372 2147 372 2553 
Q 372 3047 722 3315 
Q 1072 3584 1716 3584 
Q 2034 3584 2315 3537 
Q 2597 3491 2834 3397 
z
" transform="scale(0.015625)"/>
      </defs>
      <use xlink:href="#DejaVuSans-31"/>
      <use xlink:href="#DejaVuSans-48" transform="translate(74.8125 0)"/>
      <use xlink:href="#DejaVuSans-4c" transform="translate(136.34375 0)"/>
      <use xlink:href="#DejaVuSans-4a" transform="translate(164.125 0)"/>
      <use xlink:href="#DejaVuSans-4b" transform="translate(227.609375 0)"/>
      <use xlink:href="#DejaVuSans-45" transform="translate(290.984375 0)"/>
      <use xlink:href="#DejaVuSans-52" transform="translate(354.46875 0)"/>
      <use xlink:href="#DejaVuSans-55" transform="translate(415.65625 0)"/>
      <use xlink:href="#DejaVuSans-56" transform="translate(456.765625 0)"/>
     </g>
    </g>
   </g>
  </g>
 </g>
 <defs>
  <clipPath id="p5709adc6c0">
   <rect x="7.2" y="30.117344" width="517.814537" height="473.04"/>
  </clipPath>
 </defs>
</svg>
