<?xml version="1.0" encoding="utf-8" standalone="no"?>
<!DOCTYPE svg PUBLIC "-//W3C//DTD SVG 1.1//EN"
  "http://www.w3.org/Graphics/SVG/1.1/DTD/svg11.dtd">
<svg xmlns:xlink="http://www.w3.org/1999/xlink" width="677.204687pt" height="510.357344pt" viewBox="0 0 677.204687 510.357344" xmlns="http://www.w3.org/2000/svg" version="1.1">
 <metadata>
  <rdf:RDF xmlns:dc="http://purl.org/dc/elements/1.1/" xmlns:cc="http://creativecommons.org/ns#" xmlns:rdf="http://www.w3.org/1999/02/22-rdf-syntax-ns#">
   <cc:Work>
    <dc:type rdf:resource="http://purl.org/dc/dcmitype/StillImage"/>
    <dc:date>2026-06-19T08:36:07.805266</dc:date>
    <dc:format>image/svg+xml</dc:format>
    <dc:creator>
     <cc:Agent>
      <dc:title>Matplotlib v3.11.0, https://matplotlib.org/</dc:title>
     </cc:Agent>
    </dc:creator>
   </cc:Work>
  </rdf:RDF>
 </metadata>
 <defs>
  <style type="text/css">*{stroke-linejoin: round; stroke-linecap: butt}</style>
 </defs>
 <g id="figure_1">
  <g id="patch_1">
   <path d="M 0 510.357344 
L 677.204687 510.357344 
L 677.204687 0 
L 0 0 
z
" style="fill: #d6eaf8"/>
  </g>
  <g id="axes_1">
   <g id="PatchCollection_1">
    <path d="M -564.013421 397.609384 
L -563.759663 396.764014 
L -562.744633 395.797876 
L -562.744633 395.677109 
L -562.490875 394.952506 
L -561.98336 394.590204 
L -561.729602 394.107135 
L -561.475845 392.657929 
L -560.96833 391.933325 
L -560.207057 390.725653 
L -556.146935 386.619568 
L -555.63942 385.894965 
L -555.385662 385.170361 
L -555.131905 384.566525 
L -554.878147 384.204224 
L -552.848086 383.841922 
L -551.579299 383.238086 
L -550.818026 382.513483 
L -550.056753 381.547345 
L -550.056753 380.098139 
L -550.310511 379.735837 
L -551.071783 379.011234 
L -551.325541 378.648932 
L -551.325541 377.682794 
L -551.325541 376.958191 
L -551.071783 376.354355 
L -550.310511 375.508985 
L -549.802995 375.025916 
L -549.041723 374.784381 
L -548.534207 374.42208 
L -548.534207 373.455942 
L -549.549238 373.09364 
L -550.056753 372.731339 
L -550.564268 371.885968 
L -551.071783 371.402899 
L -551.579299 370.678296 
L -551.833056 369.832926 
L -551.833056 369.349857 
L -551.071783 368.021417 
L -551.071783 367.05528 
L -551.071783 366.813745 
L -551.833056 366.451444 
L -551.833056 366.209909 
L -551.833056 365.847608 
L -551.579299 365.364539 
L -551.325541 365.002237 
L -551.325541 363.794565 
L -551.325541 363.190729 
L -551.071783 362.70766 
L -550.056753 362.224591 
L -549.041723 361.983057 
L -548.28045 361.499988 
L -548.534207 361.137686 
L -548.787965 360.896152 
L -546.757904 359.084644 
L -545.489116 358.843109 
L -537.876388 360.53385 
L -537.115116 360.413083 
L -536.100085 359.567713 
L -535.59257 359.326178 
L -535.085055 359.326178 
L -534.070024 359.446945 
L -529.24863 358.963877 
L -528.741115 358.480808 
L -528.741115 358.239273 
L -528.994873 357.756205 
L -527.726085 357.635437 
L -526.457297 358.360041 
L -525.442266 359.205411 
L -524.427236 359.68848 
L -522.90469 359.446945 
L -521.88966 358.843109 
L -520.87463 358.480808 
L -519.605842 358.722342 
L -517.322023 360.53385 
L -515.799478 363.069962 
L -514.276932 365.002237 
L -510.978083 365.364539 
L -510.216811 365.243772 
L -509.963053 365.123004 
L -506.917962 362.586893 
L -506.156689 362.103824 
L -505.141659 361.620755 
L -503.872871 361.379221 
L -501.589052 361.016919 
L -497.528931 361.016919 
L -496.260143 360.654618 
L -494.737597 359.809247 
L -487.886142 353.529352 
L -486.363597 351.838611 
L -485.348566 350.268637 
L -485.094809 348.577896 
L -484.841051 346.887156 
L -485.856082 326.115195 
L -486.871112 305.464002 
L -487.886142 287.590455 
L -488.1399 282.15593 
L -485.856082 271.528416 
L -477.228323 246.771138 
L -472.914444 242.906587 
L -471.391899 240.491243 
L -471.138141 239.645872 
L -471.391899 237.955131 
L -471.391899 237.109761 
L -471.391899 236.747459 
L -470.630626 236.022856 
L -470.376868 235.660554 
L -469.869353 232.641374 
L -469.869353 229.380659 
L -473.168202 213.680922 
L -473.675717 210.661741 
L -473.168202 208.12563 
L -467.07802 199.551158 
L -464.286686 194.237401 
L -463.017898 192.788194 
L -462.002868 191.701289 
L -453.375109 185.783696 
L -452.106321 185.421394 
L -451.345049 185.662929 
L -442.71729 193.271263 
L -440.68723 194.599702 
L -439.925957 195.445073 
L -439.418442 196.531978 
L -439.672199 198.58502 
L -439.672199 199.671925 
L -438.910927 199.91346 
L -438.149654 199.430391 
L -437.388381 197.135814 
L -436.373351 196.411211 
L -435.35832 196.290443 
L -434.34329 196.531978 
L -433.582017 196.411211 
L -432.820744 195.324306 
L -432.313229 193.995866 
L -432.313229 193.150496 
L -432.059471 192.305125 
L -430.790683 191.097453 
L -426.98432 188.19904 
L -425.715532 186.387532 
L -425.208016 183.972188 
L -425.461774 182.885283 
L -427.745592 181.436076 
L -428.253108 180.469939 
L -428.253108 179.624568 
L -423.685471 165.977873 
L -423.431713 163.804064 
L -424.192986 162.23409 
L -425.461774 160.90565 
L -426.223047 158.973375 
L -425.969289 157.403401 
L -417.087773 137.839113 
L -416.834016 136.389907 
L -417.087773 135.061467 
L -418.610319 132.163054 
L -419.117834 130.713848 
L -418.864077 127.815435 
L -419.371592 125.037789 
L -419.371592 123.588582 
L -418.864077 121.897841 
L -418.102804 120.2071 
L -417.087773 118.516359 
L -416.072743 117.18792 
L -413.281409 115.376412 
L -411.758864 114.772576 
L -406.93747 112.961068 
L -404.907409 110.545723 
L -404.907409 109.941887 
L -404.653651 108.613448 
L -404.653651 108.251146 
L -404.653651 107.64731 
L -403.892378 106.922707 
L -401.354802 105.473501 
L -399.832257 103.903527 
L -399.324742 102.212786 
L -398.563469 98.227468 
L -397.294681 95.08752 
L -396.787166 94.362917 
L -396.025893 93.759081 
L -394.503347 92.913711 
L -393.742075 92.309875 
L -393.234559 91.343737 
L -392.980802 90.498366 
L -392.727044 88.445324 
L -391.965771 86.513048 
L -378.770377 64.412649 
L -378.262861 63.688046 
L -377.501589 63.446511 
L -376.232801 63.325744 
L -375.471528 63.084209 
L -374.964013 62.359606 
L -374.710255 61.635003 
L -374.456497 60.789632 
L -373.948982 58.978124 
L -373.948982 58.615823 
L -373.695225 58.374288 
L -372.933952 58.011987 
L -372.680194 57.891219 
L -370.903891 57.287383 
L -349.588253 54.268203 
L -349.080738 54.268203 
L -348.319465 54.38897 
L -347.81195 54.630505 
L -347.304435 54.992806 
L -346.79692 55.234341 
L -344.766859 55.838177 
L -343.751829 55.355108 
L -342.990556 54.026669 
L -341.721768 46.056033 
L -341.721768 44.244525 
L -341.975525 43.15762 
L -343.751829 40.379974 
L -343.751829 38.81 
L -342.990556 37.602328 
L -341.721768 36.515423 
L -341.214253 35.428518 
L -341.214253 34.824682 
L -341.46801 34.220846 
L -341.975525 33.133941 
L -342.229283 31.684735 
L -335.377828 8.135128 
L -324.720009 -6.840006 
L -324.212494 -8.772281 
L -323.958736 -12.878366 
L -323.704979 -14.327573 
L -320.659887 -21.452838 
L -319.391099 -24.592786 
L -319.644857 -28.215802 
L -320.913645 -31.718051 
L -321.167403 -33.529559 
L -321.42116 -35.341068 
L -320.913645 -36.790274 
L -314.569705 -56.354562 
L -313.300917 -56.354562 
L -312.793402 -57.683002 
L -311.778372 -58.407605 
L -310.763341 -58.649139 
L -309.240796 -58.769906 
L -308.225765 -59.011441 
L -305.941947 -59.977579 
L -304.673159 -60.219113 
L -301.37431 -60.219113 
L -300.866795 -60.33988 
L -299.851765 -61.064483 
L -299.090492 -61.185251 
L -294.269098 -61.185251 
L -291.985279 -60.943716 
L -287.417643 -59.615277 
L -285.133824 -59.252975 
L -284.626309 -59.011441 
L -283.357521 -57.3207 
L -282.850006 -56.837631 
L -282.342491 -56.596097 
L -281.581218 -56.354562 
L -280.819945 -56.354562 
L -280.566187 -56.475329 
L -279.551157 -57.3207 
L -278.789884 -57.3207 
L -277.521096 -57.199933 
L -277.013581 -57.3207 
L -276.252308 -57.924536 
L -275.491036 -58.769906 
L -274.98352 -59.977579 
L -274.729763 -61.426785 
L -274.729763 -63.117526 
L -274.476005 -64.566733 
L -273.714732 -66.015939 
L -272.699702 -67.585913 
L -270.669641 -69.035119 
L -268.385823 -69.638955 
L -263.056913 -69.518188 
L -261.534368 -70.001257 
L -260.519337 -70.242792 
L -258.743034 -68.793585 
L -257.474246 -67.948215 
L -254.93667 -64.204431 
L -253.667882 -63.117526 
L -253.414125 -62.51369 
L -253.414125 -61.426785 
L -253.414125 -59.856811 
L -253.160367 -59.011441 
L -252.145337 -58.528372 
L -249.354003 -56.113028 
L -249.100246 -55.629959 
L -248.592731 -54.30152 
L -248.085215 -52.610779 
L -247.831458 -51.765408 
L -246.816427 -51.403107 
L -246.055155 -51.282339 
L -245.547639 -50.920038 
L -244.786367 -50.436969 
L -244.786367 -49.712366 
L -244.532609 -47.900857 
L -244.278851 -46.693185 
L -243.517579 -45.847815 
L -242.248791 -45.002444 
L -241.487518 -45.847815 
L -238.949942 -51.886175 
L -234.88982 -61.426785 
L -230.322184 -71.933532 
L -226.008305 -82.681814 
L -221.440668 -93.550863 
L -218.395577 -100.434594 
L -217.126789 -99.347689 
L -216.365516 -98.140017 
L -215.096728 -95.483139 
L -214.589213 -95.241604 
L -214.081698 -95.120837 
L -213.82794 -94.879303 
L -213.82794 -94.637768 
L -213.82794 -93.792398 
L -213.82794 -93.67163 
L -213.574182 -93.067794 
L -213.320425 -92.584726 
L -213.066667 -92.343191 
L -212.305395 -92.101657 
L -211.544122 -91.618588 
L -211.290364 -91.135519 
L -211.290364 -90.410916 
L -210.782849 -89.80708 
L -210.275334 -89.324011 
L -202.662606 -86.184063 
L -201.393818 -85.942529 
L -197.333696 -86.667132 
L -195.811151 -86.546365 
L -194.542363 -86.063296 
L -194.034848 -85.217926 
L -193.527332 -84.131021 
L -193.273575 -83.768719 
L -193.019817 -81.836444 
L -192.512302 -81.111841 
L -192.004787 -80.508004 
L -191.243514 -80.024936 
L -190.482241 -79.541867 
L -189.974726 -78.575729 
L -189.213453 -75.91885 
L -188.705938 -74.590411 
L -187.944665 -73.624273 
L -186.675877 -72.658136 
L -183.123271 -70.72586 
L -182.361998 -70.122024 
L -181.854483 -68.552051 
L -181.600726 -67.948215 
L -180.585695 -67.344378 
L -180.07818 -67.223611 
L -179.570665 -67.465146 
L -176.018058 -67.344378 
L -170.689149 -67.948215 
L -168.151573 -68.672818 
L -163.583936 -70.967395 
L -162.315148 -70.846628 
L -161.04636 -70.484326 
L -159.777572 -70.363559 
L -158.508784 -70.484326 
L -156.986239 -70.72586 
L -152.926117 -72.537369 
L -149.627269 -72.778903 
L -148.358481 -73.624273 
L -146.074662 -75.798083 
L -143.283329 -77.126523 
L -141.760783 -78.09266 
L -140.745753 -79.300332 
L -140.491995 -80.628772 
L -140.745753 -81.957211 
L -140.491995 -83.164883 
L -139.730722 -84.010254 
L -139.476965 -83.768719 
L -136.939389 -83.527185 
L -134.909328 -83.044116 
L -134.401813 -82.802581 
L -132.62551 -81.836444 
L -131.356722 -80.508004 
L -130.087934 -79.058798 
L -129.072903 -77.488824 
L -127.042843 -71.571231 
L -125.520297 -68.914352 
L -123.997752 -69.035119 
L -122.221448 -71.450464 
L -121.460176 -72.295834 
L -119.683872 -72.537369 
L -115.877509 -71.933532 
L -114.354963 -72.0543 
L -108.772296 -73.624273 
L -105.727205 -74.952713 
L -104.458417 -76.643454 
L -103.950902 -78.09266 
L -102.682114 -78.09266 
L -101.413326 -77.24729 
L -100.398295 -76.401919 
L -98.87575 -74.711178 
L -98.368235 -74.22811 
L -98.114477 -74.107342 
L -94.308113 -73.020437 
L -92.53181 -72.778903 
L -89.232961 -73.382739 
L -88.471688 -73.503506 
L -86.18787 -73.624273 
L -84.157809 -72.89967 
L -82.127748 -71.691998 
L -78.575142 -68.431283 
L -77.306354 -67.948215 
L -76.037566 -67.70668 
L -74.768778 -68.189749 
L -72.48496 -70.001257 
L -71.216172 -70.242792 
L -69.947384 -70.001257 
L -68.171081 -69.759723 
L -67.15605 -69.759723 
L -63.603444 -70.846628 
L -62.334656 -70.846628 
L -56.244474 -69.276654 
L -52.945625 -68.068982 
L -50.408049 -66.378241 
L -44.825382 -61.426785 
L -40.003988 -57.079166 
L -35.943866 -54.905356 
L -28.584896 -51.403107 
L -26.554835 -50.799271 
L -20.210895 -49.833133 
L -15.389501 -48.142392 
L -11.075622 -45.002444 
L -3.716652 -36.790274 
L 3.642319 -28.336569 
L 9.224986 -18.79596 
L 14.300137 -9.979953 
L 16.330198 -7.926911 
L 25.719229 -1.88855 
L 38.153351 5.840551 
L 45.512322 11.878912 
L 50.841231 16.347299 
L 53.632565 19.124945 
L 55.916383 22.264892 
L 58.200201 26.008676 
L 63.782868 37.723095 
L 67.335475 42.916085 
L 72.918142 46.418334 
L 76.978263 48.109075 
L 80.784627 50.282885 
L 84.083476 53.181298 
L 88.90487 60.9104 
L 94.487537 68.639501 
L 97.786386 72.262518 
L 93.726265 77.938576 
L 91.442446 82.648498 
L 82.053415 95.449822 
L 81.038385 97.985933 
L 80.53087 98.831304 
L 78.754567 99.676674 
L 77.993294 100.522045 
L 75.20196 105.835802 
L 69.365536 114.047973 
L 66.574202 117.912523 
L 65.812929 118.637127 
L 64.797899 119.482497 
L 64.036626 119.965566 
L 63.021596 120.2071 
L 62.51408 120.569402 
L 62.260323 121.53554 
L 61.49905 122.501677 
L 58.707717 123.709349 
L 57.692686 124.433953 
L 56.423898 126.72853 
L 55.662625 132.163054 
L 53.378807 138.563716 
L 53.632565 142.549034 
L 55.408868 150.761205 
L 56.170141 158.490306 
L 55.916383 172.257768 
L 55.662625 175.276949 
L 54.393837 177.329991 
L 54.647595 177.81306 
L 55.15511 178.537663 
L 56.931413 179.141499 
L 65.305414 180.83224 
L 65.559172 181.194542 
L 65.812929 181.677611 
L 66.066687 182.039912 
L 66.82796 182.16068 
L 67.081717 181.798378 
L 67.335475 181.436076 
L 67.84299 181.315309 
L 71.903111 181.073775 
L 73.933172 180.590706 
L 75.963233 178.416896 
L 77.993294 177.81306 
L 81.799658 177.329991 
L 85.352264 178.175362 
L 86.87481 178.175362 
L 87.636082 177.933827 
L 90.173658 176.846922 
L 90.934931 176.726155 
L 92.203719 176.846922 
L 92.711234 176.726155 
L 94.995053 176.001552 
L 96.517598 176.243086 
L 97.786386 176.605388 
L 98.801417 176.605388 
L 100.323962 176.001552 
L 104.891599 172.861604 
L 111.235539 170.929329 
L 114.026872 170.687795 
L 114.534387 170.687795 
L 119.609539 171.895467 
L 121.132085 171.895467 
L 122.65463 172.378536 
L 124.430934 176.363853 
L 125.445964 177.329991 
L 127.222267 177.692293 
L 130.013601 177.933827 
L 131.789904 178.537663 
L 132.804934 178.65843 
L 133.819965 178.296129 
L 134.581237 177.450758 
L 135.088753 176.726155 
L 136.357541 177.209224 
L 135.34251 178.65843 
L 134.581237 181.677611 
L 134.073722 182.885283 
L 133.058692 183.851421 
L 130.013601 185.059093 
L 128.99857 186.145998 
L 128.237297 187.595204 
L 127.98354 188.802876 
L 127.729782 189.889781 
L 126.460994 191.097453 
L 123.923418 193.150496 
L 123.162146 194.237401 
L 122.400873 196.048909 
L 121.893358 198.947322 
L 121.385842 200.275761 
L 120.370812 201.483433 
L 119.102024 202.328804 
L 117.579479 202.691105 
L 116.818206 203.415709 
L 116.818206 204.864915 
L 118.340751 208.12563 
L 120.117054 211.024043 
L 123.923418 214.888594 
L 125.192206 216.3378 
L 125.953479 218.270076 
L 126.714752 224.791505 
L 128.237297 229.380659 
L 130.013601 233.728279 
L 132.043661 235.902089 
L 138.641359 240.370475 
L 140.417662 242.061216 
L 141.68645 244.114259 
L 142.447723 246.529603 
L 143.208996 248.82418 
L 144.477784 252.205662 
L 146.507844 254.137937 
L 149.04542 255.224842 
L 152.090511 255.707911 
L 154.881845 256.915583 
L 156.150633 259.21016 
L 158.180694 270.683045 
L 159.195724 273.460691 
L 160.71827 275.151432 
L 162.74833 275.634501 
L 163.255846 275.996803 
L 163.763361 276.721406 
L 164.524634 278.170612 
L 165.032149 279.015983 
L 165.793421 279.619819 
L 167.062209 280.585957 
L 167.823482 281.189793 
L 169.346028 284.450507 
L 169.853543 285.778947 
L 169.853543 288.073524 
L 170.361058 289.52273 
L 171.122331 290.609635 
L 174.928695 292.783445 
L 180.257604 296.04416 
L 181.526392 296.164927 
L 183.302696 295.561091 
L 184.571483 295.440324 
L 185.332756 296.04416 
L 190.915423 300.995615 
L 197.259363 306.792441 
L 206.140879 315.004612 
L 210.962273 319.472999 
L 213.753607 321.16374 
L 219.590032 323.096015 
L 225.680214 325.149058 
L 231.770396 327.2021 
L 238.114336 329.255143 
L 244.204518 331.308185 
L 250.548458 333.361228 
L 256.63864 335.41427 
L 262.98258 337.467313 
L 269.072762 339.641123 
L 275.416702 341.694165 
L 281.506885 343.747208 
L 287.850825 345.800251 
L 293.941007 347.853293 
L 300.284947 349.906336 
L 306.375129 351.959378 
L 312.719069 354.012421 
L 318.809251 356.186231 
L 324.899433 358.118506 
L 330.735858 360.171549 
L 336.572283 362.103824 
L 342.662465 364.156867 
L 348.49889 366.209909 
L 354.335314 368.142185 
L 360.171739 370.195227 
L 366.261921 372.24827 
L 372.098346 374.180545 
L 377.934771 376.233588 
L 384.024953 378.28663 
L 389.861378 380.218906 
L 395.697802 382.271948 
L 401.787984 384.324991 
L 407.624409 386.257266 
L 413.460834 388.310309 
L 418.028471 389.759515 
L 422.088592 391.933325 
L 428.432532 391.933325 
L 438.329078 391.933325 
L 449.494412 391.933325 
L 460.405989 391.933325 
L 469.79502 391.933325 
L 482.4829 391.933325 
L 492.633203 391.933325 
L 489.080597 395.19404 
L 485.781748 398.575522 
L 482.229142 401.957004 
L 478.930293 405.338486 
L 475.377687 408.5992 
L 472.078838 411.980682 
L 468.526232 415.362164 
L 465.227383 418.743646 
L 461.674777 422.004361 
L 461.167262 422.728964 
L 458.375928 425.385843 
L 454.823322 428.767325 
L 451.524473 432.148807 
L 447.971867 435.409521 
L 444.673018 438.791003 
L 441.120412 442.172485 
L 437.821563 445.553967 
L 434.268957 448.814682 
L 430.970108 452.196164 
L 427.417502 455.577645 
L 424.118653 458.959127 
L 420.566046 462.340609 
L 417.267198 465.601324 
L 413.714591 468.982806 
L 410.415743 472.364288 
L 406.863136 475.74577 
L 403.564288 479.006484 
L 400.011681 482.387966 
L 396.712833 485.769448 
L 395.190287 487.097888 
L 392.145196 490.237835 
L 388.846347 493.377783 
L 387.577559 494.706222 
L 386.055014 496.155428 
L 383.009922 499.174609 
L 378.696043 503.642995 
L 374.382164 508.111382 
L 370.068285 512.579769 
L 365.754406 517.048156 
L 361.440527 521.516543 
L 357.126648 525.98493 
L 352.812769 530.453316 
L 348.49889 534.921703 
L 341.139919 543.254641 
L 333.527192 551.708345 
L 325.914464 560.041283 
L 319.063009 567.52885 
L 318.301736 568.494988 
L 310.689008 576.827925 
L 303.330038 585.160863 
L 295.71731 593.614568 
L 288.104582 601.947505 
L 284.044461 606.415892 
L 278.461794 612.57502 
L 276.431733 613.42039 
L 272.625369 613.178856 
L 269.072762 612.937322 
L 265.266399 612.695787 
L 261.713792 612.57502 
L 257.907428 612.333485 
L 254.354822 612.091951 
L 254.101064 612.091951 
L 250.802216 611.850417 
L 246.995852 611.729649 
L 243.443245 611.488115 
L 239.636882 611.246581 
L 236.084275 611.005046 
L 232.531669 610.763512 
L 228.725305 610.642744 
L 225.172699 610.40121 
L 221.366335 610.159676 
L 217.813728 609.918141 
L 214.261122 609.797374 
L 209.947243 609.55584 
L 207.409667 610.159676 
L 201.319485 612.333485 
L 199.035666 612.816554 
L 192.184211 614.386528 
L 186.855302 615.714967 
L 178.988816 617.526476 
L 173.913665 619.821053 
L 166.047179 623.685603 
L 157.926936 627.550154 
L 150.060451 631.414705 
L 144.224026 636.36616 
L 138.895116 640.71378 
L 138.387601 641.438383 
L 137.880086 642.162987 
L 136.865056 644.578331 
L 135.596268 649.650554 
L 134.581237 651.945131 
L 132.551177 654.239708 
L 132.297419 654.360475 
L 129.759843 656.051216 
L 126.714752 657.258888 
L 121.893358 658.225026 
L 111.235539 660.036534 
L 100.323962 661.848042 
L 92.203719 663.297249 
L 86.87481 663.297249 
L 80.784627 663.418016 
L 78.500809 664.021852 
L 75.963233 665.229524 
L 71.903111 668.490239 
L 67.081717 671.509419 
L 65.812929 672.717091 
L 65.305414 674.04553 
L 65.305414 676.21934 
L 65.051656 677.185478 
L 64.036626 677.910081 
L 63.021596 679.359288 
L 59.468989 681.291563 
L 56.423898 680.687727 
L 53.378807 678.996986 
L 50.079958 677.910081 
L 47.034867 679.721589 
L 46.019837 679.963124 
L 45.004806 679.721589 
L 43.228503 678.996986 
L 41.959715 678.876219 
L 36.377048 680.325425 
L 34.600745 680.325425 
L 31.048139 681.41233 
L 22.927896 681.895399 
L 15.822683 682.257701 
L 12.270077 681.774632 
L 8.71747 680.446192 
L 5.672379 677.910081 
L 1.104743 671.509419 
L -0.671561 669.818678 
L -1.940349 669.094075 
L -5.239197 668.00717 
L -6.507985 667.282566 
L -7.269258 666.557963 
L -8.538046 664.384153 
L -10.060592 662.331111 
L -14.374471 659.432698 
L -15.897016 657.379655 
L -20.464653 660.278068 
L -26.301078 662.572645 
L -33.660048 665.471058 
L -42.795321 669.094075 
L -43.302836 669.456376 
L -43.556594 670.543281 
L -44.064109 670.905583 
L -49.646776 672.958625 
L -56.751989 675.37397 
L -57.005747 675.494737 
L -57.259504 675.37397 
L -57.259504 675.253202 
L -58.020777 675.132435 
L -58.020777 675.494737 
L -58.020777 675.977806 
L -58.274535 676.340107 
L -61.573383 677.910081 
L -68.424838 681.291563 
L -74.515021 684.310743 
L -80.605203 687.209156 
L -81.873991 689.020664 
L -83.396536 692.764448 
L -85.17284 697.957438 
L -86.441628 700.252015 
L -87.710416 701.942756 
L -93.293083 707.135746 
L -97.860719 711.362599 
L -99.89078 713.657176 
L -101.413326 718.367097 
L -102.428356 720.299372 
L -104.712174 720.420139 
L -105.980962 719.695536 
L -106.488478 718.729398 
L -106.742235 717.763261 
L -107.503508 716.91789 
L -109.533569 716.193287 
L -118.415084 715.951753 
L -117.653812 714.623313 
L -118.161327 713.89871 
L -118.9226 713.777943 
L -119.430115 714.019477 
L -122.221448 715.710218 
L -124.759024 715.710218 
L -127.550358 715.106382 
L -133.894298 712.207969 
L -134.909328 711.7249 
L -135.416843 711.604133 
L -139.476965 712.449503 
L -140.745753 712.449503 
L -141.760783 712.087202 
L -142.775814 711.845667 
L -145.820905 712.449503 
L -147.597208 712.570271 
L -152.926117 711.121064 
L -159.777572 709.188789 
L -161.300118 708.464185 
L -162.315148 707.256513 
L -164.091452 704.720402 
L -164.091452 705.203471 
L -164.345209 706.290376 
L -164.345209 706.773445 
L -168.405331 706.411143 
L -168.659088 706.169608 
L -168.912846 705.807307 
L -168.912846 705.565772 
L -169.927876 705.928074 
L -170.435391 706.048841 
L -171.196664 705.928074 
L -172.211695 705.68654 
L -172.465452 705.203471 
L -172.71921 704.720402 
L -173.226725 703.995799 
L -174.495513 702.908894 
L -175.003028 702.667359 
L -175.510543 703.029661 
L -175.764301 703.633497 
L -175.764301 704.237333 
L -175.764301 704.599635 
L -179.316907 706.169608 
L -183.377029 706.53191 
L -190.735999 705.68654 
L -198.348727 704.841169 
L -200.632545 704.961936 
L -202.662606 705.565772 
L -203.677636 705.445005 
L -205.200182 703.995799 
L -207.230243 703.391963 
L -208.245273 702.788127 
L -209.260303 701.580454 
L -211.036607 698.561274 
L -212.559152 697.232835 
L -214.589213 695.904396 
L -221.694426 691.315241 
L -228.292123 686.967622 
L -235.651093 682.136933 
L -241.995033 677.910081 
L -247.831458 674.166298 
L -255.951701 668.973307 
L -262.803156 664.504921 
L -269.654611 660.036534 
L -273.460975 657.500422 
L -273.714732 657.379655 
L -274.222248 657.379655 
L -274.476005 657.379655 
L -274.729763 657.017354 
L -275.237278 655.326613 
L -275.491036 654.722777 
L -275.998551 653.998173 
L -276.506066 653.877406 
L -277.774854 653.998173 
L -278.282369 653.635872 
L -279.551157 651.703596 
L -280.058672 651.220527 
L -283.103763 650.495924 
L -288.178915 647.959813 
L -292.239037 646.752141 
L -305.941947 646.872908 
L -306.449462 646.752141 
L -307.464492 646.148305 
L -308.225765 646.027537 
L -319.137342 646.269072 
L -332.332737 646.510606 
L -333.09401 646.389839 
L -334.362798 645.786003 
L -335.12407 645.544468 
L -335.885343 645.544468 
L -338.169161 645.90677 
L -348.573223 646.027537 
L -348.82698 646.027537 
L -350.349526 645.544468 
L -351.872072 644.578331 
L -354.663405 642.162987 
L -355.932193 641.438383 
L -356.439708 640.351478 
L -356.439708 639.143806 
L -356.185951 637.6946 
L -356.185951 636.36616 
L -357.200981 634.675419 
L -357.454739 633.467747 
L -366.84377 623.081767 
L -368.620073 620.062587 
L -369.381346 616.681105 
L -368.87383 601.705971 
L -368.620073 600.739833 
L -365.828739 597.237584 
L -365.321224 595.909145 
L -365.321224 594.339171 
L -366.082497 592.64843 
L -367.351285 589.991551 
L -367.605042 588.542345 
L -367.097527 586.851604 
L -365.321224 584.073958 
L -365.574982 583.470122 
L -369.381346 581.900148 
L -373.948982 579.001735 
L -375.979043 578.518666 
L -377.247831 578.880968 
L -378.516619 579.484804 
L -380.039165 579.847106 
L -381.815468 579.364037 
L -384.860559 576.827925 
L -386.383104 575.982555 
L -387.651892 575.620253 
L -389.174438 575.378719 
L -390.696984 575.378719 
L -391.965771 575.620253 
L -393.488317 576.707158 
L -396.279651 579.847106 
L -398.055954 581.054778 
L -399.578499 581.296312 
L -400.847287 580.692476 
L -402.116075 579.484804 
L -404.399894 575.74102 
L -404.653651 575.137184 
L -404.399894 574.171047 
L -403.892378 573.446443 
L -403.384863 572.72184 
L -402.877348 571.87647 
L -403.384863 571.031099 
L -403.892378 569.581893 
L -406.429954 567.408083 
L -412.266379 564.026601 
L -415.31147 561.732024 
L -416.072743 560.282817 
L -416.580258 556.176732 
L -417.595289 554.244457 
L -423.431713 546.032287 
L -423.939228 544.462313 
L -424.192986 543.496175 
L -423.939228 542.771572 
L -423.939228 541.926201 
L -423.685471 540.960064 
L -423.939228 540.114693 
L -424.954259 538.907021 
L -425.461774 538.061651 
L -425.461774 537.21628 
L -425.208016 536.491677 
L -424.446744 534.921703 
L -424.446744 534.076333 
L -425.208016 530.211782 
L -425.715532 528.883343 
L -426.98432 527.313369 
L -428.253108 526.105697 
L -429.268138 524.777257 
L -430.790683 521.275008 
L -433.328259 516.927389 
L -433.582017 515.478182 
L -433.582017 511.25133 
L -434.089532 509.439822 
L -436.880866 504.488366 
L -437.388381 503.039159 
L -438.149654 498.933074 
L -439.672199 494.947756 
L -440.433472 492.049343 
L -440.940987 489.030163 
L -441.448502 488.788629 
L -442.463533 487.822491 
L -442.71729 486.494052 
L -443.224806 485.648681 
L -448.0462 482.508734 
L -449.06123 482.025665 
L -450.583776 481.78413 
L -453.628867 481.78413 
L -454.897655 481.542596 
L -455.658928 480.817993 
L -456.166443 477.91958 
L -456.420201 477.557278 
L -456.673958 476.832675 
L -456.673958 476.470373 
L -456.673958 476.349606 
L -455.912685 475.866537 
L -455.658928 475.74577 
L -455.912685 474.296563 
L -456.166443 473.088891 
L -456.673958 472.001986 
L -457.181473 471.035848 
L -461.74911 467.775134 
L -471.645656 465.35979 
L -471.899414 465.118255 
L -472.406929 464.876721 
L -472.914444 464.635186 
L -473.421959 463.306747 
L -473.675717 462.944445 
L -476.467051 460.770636 
L -477.228323 459.925265 
L -477.735838 459.442196 
L -478.243354 459.321429 
L -478.750869 458.596826 
L -479.004626 456.906085 
L -479.004626 456.181482 
L -479.004626 453.886905 
L -479.258384 452.437698 
L -480.019657 451.230026 
L -481.034687 450.62619 
L -482.049718 451.230026 
L -483.318506 451.47156 
L -484.841051 450.505423 
L -486.617354 448.090078 
L -489.916203 445.4332 
L -490.423718 445.312433 
L -490.677476 444.950131 
L -490.677476 438.187167 
L -491.184991 435.771823 
L -492.200021 433.839547 
L -501.081537 424.782007 
L -503.111598 423.574335 
L -503.872871 423.453567 
L -505.395416 423.212033 
L -506.156689 423.091266 
L -509.709295 420.434387 
L -511.739356 417.29444 
L -512.754387 416.207535 
L -513.515659 415.845233 
L -515.54572 415.241397 
L -517.575781 413.912958 
L -518.337054 413.671423 
L -522.90469 414.154492 
L -524.427236 413.671423 
L -525.188509 413.188354 
L -526.203539 411.859915 
L -526.711054 411.256079 
L -527.472327 410.893777 
L -528.741115 410.531476 
L -529.502388 410.048407 
L -530.771176 409.565338 
L -532.547479 409.686105 
L -535.59257 410.289941 
L -536.100085 410.531476 
L -537.876388 411.739148 
L -538.637661 411.739148 
L -542.697783 410.77301 
L -543.966571 409.565338 
L -544.981601 408.236899 
L -546.250389 407.270761 
L -546.757904 407.149994 
L -549.041723 406.787692 
L -551.071783 405.942322 
L -551.579299 405.821555 
L -553.863117 406.425391 
L -554.370632 406.546158 
L -554.62439 407.149994 
L -555.63942 407.029227 
L -557.161966 406.304623 
L -559.192026 406.063089 
L -559.699542 405.821555 
L -559.953299 405.459253 
L -560.207057 404.73465 
L -560.460814 404.130814 
L -561.475845 403.40621 
L -562.237117 402.319305 
z
" clip-path="url(#pe41721c0ac)" style="fill: #bdc3c7; stroke: #ffffff; stroke-width: 0.5"/>
    <path d="M -1.686591 775.610755 
L -1.686591 766.31168 
L -1.686591 762.567896 
L -0.671561 760.514853 
L 1.612258 758.099509 
L 7.448682 752.302683 
L 13.285107 746.505857 
L 19.121532 740.709031 
L 24.704199 734.912205 
L 28.510563 729.598447 
L 32.063169 724.28469 
L 35.869533 718.970933 
L 39.422139 713.657176 
L 45.258564 705.082704 
L 51.348746 696.508232 
L 57.185171 687.93376 
L 63.021596 679.359288 
L 64.036626 677.910081 
L 65.051656 677.185478 
L 65.305414 676.21934 
L 65.305414 674.04553 
L 65.812929 672.717091 
L 67.081717 671.509419 
L 71.903111 668.490239 
L 75.963233 665.229524 
L 78.500809 664.021852 
L 80.784627 663.418016 
L 86.87481 663.297249 
L 92.203719 663.297249 
L 100.323962 661.848042 
L 111.235539 660.036534 
L 121.893358 658.225026 
L 126.714752 657.258888 
L 129.759843 656.051216 
L 132.297419 654.360475 
L 132.551177 654.239708 
L 134.581237 651.945131 
L 135.596268 649.650554 
L 136.865056 644.578331 
L 137.880086 642.162987 
L 138.387601 641.438383 
L 138.895116 640.71378 
L 144.224026 636.36616 
L 150.060451 631.414705 
L 157.926936 627.550154 
L 166.047179 623.685603 
L 173.913665 619.821053 
L 178.988816 617.526476 
L 186.855302 615.714967 
L 192.184211 614.386528 
L 199.035666 612.816554 
L 201.319485 612.333485 
L 207.409667 610.159676 
L 209.947243 609.55584 
L 214.261122 609.797374 
L 217.813728 609.918141 
L 221.366335 610.159676 
L 225.172699 610.40121 
L 228.725305 610.642744 
L 232.531669 610.763512 
L 236.084275 611.005046 
L 239.636882 611.246581 
L 243.443245 611.488115 
L 246.995852 611.729649 
L 250.802216 611.850417 
L 254.101064 612.091951 
L 254.354822 612.091951 
L 257.907428 612.333485 
L 261.713792 612.57502 
L 265.266399 612.695787 
L 269.072762 612.937322 
L 272.625369 613.178856 
L 276.431733 613.42039 
L 278.461794 612.57502 
L 284.044461 606.415892 
L 288.104582 601.947505 
L 295.71731 593.614568 
L 303.330038 585.160863 
L 310.689008 576.827925 
L 318.301736 568.494988 
L 319.063009 567.52885 
L 325.914464 560.041283 
L 333.527192 551.708345 
L 341.139919 543.254641 
L 348.49889 534.921703 
L 352.812769 530.453316 
L 357.126648 525.98493 
L 361.440527 521.516543 
L 365.754406 517.048156 
L 370.068285 512.579769 
L 374.382164 508.111382 
L 378.696043 503.642995 
L 383.009922 499.174609 
L 386.055014 496.155428 
L 387.577559 494.706222 
L 388.846347 493.377783 
L 392.145196 490.237835 
L 395.190287 487.097888 
L 396.712833 485.769448 
L 400.011681 482.387966 
L 403.564288 479.006484 
L 406.863136 475.74577 
L 410.415743 472.364288 
L 413.714591 468.982806 
L 417.267198 465.601324 
L 420.566046 462.340609 
L 424.118653 458.959127 
L 427.417502 455.577645 
L 430.970108 452.196164 
L 434.268957 448.814682 
L 437.821563 445.553967 
L 441.120412 442.172485 
L 444.673018 438.791003 
L 447.971867 435.409521 
L 451.524473 432.148807 
L 454.823322 428.767325 
L 458.375928 425.385843 
L 461.167262 422.728964 
L 461.674777 422.004361 
L 465.227383 418.743646 
L 468.526232 415.362164 
L 472.078838 411.980682 
L 475.377687 408.5992 
L 478.930293 405.338486 
L 482.229142 401.957004 
L 485.781748 398.575522 
L 489.080597 395.19404 
L 492.633203 391.933325 
L 496.947082 385.411896 
L 501.007204 378.890466 
L 505.321083 372.369037 
L 509.634962 365.847608 
L 513.695084 359.326178 
L 518.008963 352.925516 
L 522.322842 346.404087 
L 526.382963 339.882657 
L 530.696843 333.361228 
L 535.010722 326.839798 
L 539.070843 320.318369 
L 543.384722 313.79694 
L 547.698601 307.396277 
L 551.758723 300.874848 
L 556.072602 294.353419 
L 560.386481 287.831989 
L 560.386481 279.861353 
L 560.386481 271.76995 
L 560.386481 263.678547 
L 560.386481 255.707911 
L 560.386481 247.616508 
L 560.386481 239.645872 
L 560.386481 231.554469 
L 560.386481 223.583833 
L 560.386481 215.49243 
L 560.386481 207.521794 
L 560.386481 199.430391 
L 560.386481 191.459755 
L 560.386481 183.368352 
L 560.386481 175.397716 
L 560.386481 167.306313 
L 560.386481 159.21491 
L 562.924057 159.094142 
L 572.313088 157.282634 
L 581.448361 155.591893 
L 584.239695 154.384221 
L 585.254725 152.935015 
L 586.015998 152.331178 
L 586.777271 152.69348 
L 587.538544 153.176549 
L 588.299817 153.176549 
L 592.867453 152.69348 
L 594.136241 152.451946 
L 595.151272 151.968877 
L 598.957636 149.795067 
L 600.226423 149.553533 
L 601.241454 148.949697 
L 603.017757 145.809749 
L 604.032787 144.602077 
L 605.301575 144.239775 
L 606.824121 144.119008 
L 610.12297 144.119008 
L 610.376727 143.998241 
L 611.391758 143.394405 
L 612.15303 143.15287 
L 612.914303 143.15287 
L 614.944364 143.635939 
L 621.288304 144.239775 
L 624.587153 143.877474 
L 626.617213 142.186733 
L 627.124729 142.186733 
L 628.393516 141.462129 
L 629.154789 141.220595 
L 629.662304 141.099828 
L 630.423577 140.375225 
L 630.931092 140.254457 
L 631.438608 140.254457 
L 631.946123 140.375225 
L 632.19988 140.616759 
L 632.453638 140.737526 
L 638.797578 140.495992 
L 640.066366 140.737526 
L 644.380245 138.442949 
L 645.649033 137.235277 
L 646.410306 136.752208 
L 648.947882 136.872975 
L 649.709154 136.510674 
L 650.21667 136.148372 
L 650.977942 135.786071 
L 654.023034 134.9407 
L 655.545579 133.974562 
L 661.382004 129.264641 
L 664.427095 128.540038 
L 665.94964 127.694667 
L 668.233459 125.037789 
L 670.26352 123.105513 
L 671.27855 121.897841 
L 671.532308 120.448635 
L 671.532308 118.757894 
L 672.039823 117.18792 
L 672.29358 115.617946 
L 673.054853 114.289507 
L 674.577399 112.115697 
L 675.592429 111.270327 
L 676.607459 110.787258 
L 677.368732 110.666491 
L 679.398793 109.82112 
L 679.652551 109.338051 
L 679.906308 108.97575 
L 680.160066 108.854982 
L 680.667581 108.854982 
L 681.175096 109.217284 
L 681.682611 109.338051 
L 683.205157 108.854982 
L 686.250248 107.64731 
L 688.787824 107.043474 
L 689.549097 106.560405 
L 691.3254 106.318871 
L 696.146794 109.700353 
L 703.505764 110.424956 
L 707.565886 113.806438 
L 709.088432 114.289507 
L 714.417341 114.289507 
L 715.939887 114.651809 
L 718.223705 115.859481 
L 719.746251 116.221782 
L 721.268796 116.221782 
L 723.045099 116.463317 
L 724.313887 117.067153 
L 726.09019 117.550222 
L 725.07516 119.844799 
L 724.313887 122.743212 
L 723.045099 124.917022 
L 723.552614 128.298503 
L 723.045099 130.472313 
L 721.776311 131.559218 
L 720.507523 133.612261 
L 718.223705 135.665303 
L 715.939887 138.805251 
L 714.417341 140.495992 
L 714.163583 140.979061 
L 714.163583 141.703664 
L 714.417341 142.790569 
L 714.417341 143.394405 
L 714.417341 145.085146 
L 713.909826 146.65512 
L 711.626008 151.485808 
L 711.37225 152.69348 
L 711.118492 157.403401 
L 710.610977 160.422582 
L 711.626008 163.683296 
L 714.671099 165.615572 
L 717.71619 165.736339 
L 718.984978 167.185545 
L 717.208675 168.755519 
L 715.686129 172.137001 
L 714.924856 173.344673 
L 714.163583 174.310811 
L 713.909826 175.880785 
L 713.656068 177.571526 
L 714.417341 187.474437 
L 715.178614 200.154994 
L 716.954917 205.831053 
L 716.447402 206.555656 
L 714.924856 206.797191 
L 713.148553 207.401027 
L 712.641038 208.608699 
L 713.148553 211.748646 
L 712.641038 213.197853 
L 712.133523 214.163991 
L 710.864735 214.526292 
L 709.342189 214.647059 
L 708.073401 215.130128 
L 706.804613 216.217033 
L 706.297098 217.545472 
L 706.804613 218.632377 
L 708.327159 218.873912 
L 718.984978 216.700102 
L 719.746251 216.820869 
L 720.507523 217.062404 
L 721.015039 216.941636 
L 721.268796 216.458568 
L 721.015039 215.613197 
L 720.253766 215.250895 
L 719.746251 214.888594 
L 719.492493 214.405525 
L 719.238735 212.835551 
L 719.238735 211.386345 
L 718.73122 209.816371 
L 717.969947 208.367164 
L 718.984978 209.333302 
L 720.253766 210.178673 
L 721.015039 211.024043 
L 722.283826 211.748646 
L 723.045099 212.231715 
L 723.806372 212.594017 
L 725.328918 213.801689 
L 726.09019 214.284758 
L 727.358978 214.526292 
L 728.627766 214.767827 
L 729.135282 214.647059 
L 729.896554 214.284758 
L 730.657827 214.043223 
L 732.180373 214.163991 
L 733.449161 214.405525 
L 733.956676 215.975499 
L 734.971706 216.579335 
L 734.464191 217.907774 
L 733.449161 220.323118 
L 732.687888 220.564653 
L 732.43413 220.926954 
L 731.926615 221.289256 
L 731.926615 222.255394 
L 731.4191 222.255394 
L 730.150312 221.772325 
L 729.135282 221.772325 
L 728.120251 221.53079 
L 726.851463 222.013859 
L 724.821402 221.53079 
L 724.313887 220.202351 
L 724.06013 219.356981 
L 723.552614 218.51161 
L 722.537584 218.149309 
L 711.879765 219.477748 
L 706.804613 221.289256 
L 700.460673 225.153807 
L 699.191885 227.448384 
L 698.68437 231.796003 
L 699.445643 235.902089 
L 697.415582 241.336613 
L 697.66934 244.597328 
L 698.430613 246.891905 
L 698.68437 247.737275 
L 698.430613 248.582646 
L 697.923097 249.548783 
L 696.908067 254.621006 
L 697.161825 255.34561 
L 696.400552 256.915583 
L 695.893037 258.244023 
L 695.131764 261.746272 
L 694.370491 264.40315 
L 693.862976 265.127754 
L 694.116733 267.180796 
L 694.116733 267.905399 
L 693.609218 269.233839 
L 693.101703 273.581458 
L 691.832915 275.513734 
L 691.832915 277.687544 
L 692.34043 281.431327 
L 694.116733 286.020481 
L 694.370491 287.469688 
L 694.116733 288.798127 
L 693.609218 290.126566 
L 689.295339 297.251832 
L 687.772794 298.459504 
L 684.727702 299.667176 
L 683.712672 300.512546 
L 682.697642 301.599451 
L 680.667581 304.980933 
L 680.160066 306.067838 
L 680.921339 310.656992 
L 680.667581 312.226966 
L 679.652551 314.883845 
L 677.62249 317.419956 
L 670.009762 323.579084 
L 667.725944 325.752894 
L 665.94964 328.168238 
L 664.680853 330.342048 
L 663.91958 333.240461 
L 662.650792 339.158054 
L 661.382004 341.694165 
L 658.083155 345.800251 
L 657.57564 347.249457 
L 657.829397 351.597077 
L 657.57564 352.925516 
L 656.560609 355.582395 
L 655.545579 356.790067 
L 654.530549 357.393903 
L 653.008003 357.876972 
L 652.500488 358.963877 
L 651.992973 360.413083 
L 651.2317 361.741522 
L 646.664063 367.779883 
L 646.156548 368.746021 
L 645.141518 371.040598 
L 643.111457 377.320493 
L 641.588911 380.098139 
L 639.051335 382.271948 
L 630.16982 387.948007 
L 623.82588 394.348669 
L 622.557092 396.401712 
L 621.795819 398.937823 
L 621.288304 404.010046 
L 621.542061 404.855417 
L 622.557092 405.58002 
L 622.810849 407.149994 
L 622.810849 408.961502 
L 622.303334 410.289941 
L 620.273273 413.188354 
L 618.243213 415.482931 
L 617.48194 416.690604 
L 617.228182 419.830551 
L 616.974425 421.038223 
L 609.615454 433.960315 
L 605.809091 440.602511 
L 601.241454 446.037036 
L 590.329877 461.374472 
L 585.254725 471.639685 
L 581.955877 476.711907 
L 578.40327 486.494052 
L 569.775512 504.971435 
L 569.521755 506.541409 
L 569.775512 508.111382 
L 570.536785 511.130563 
L 570.536785 512.700536 
L 569.521755 518.980431 
L 567.237936 524.414956 
L 561.147754 534.800936 
L 554.042541 547.239959 
L 543.130965 564.147368 
L 539.578358 571.87647 
L 537.802055 574.412581 
L 532.726903 579.364037 
L 525.621691 591.319991 
L 517.24769 600.498299 
L 508.366174 612.695787 
L 497.962113 633.830049 
L 490.349385 645.0614 
L 482.736657 653.27357 
L 464.212353 673.441694 
L 458.12217 682.257701 
L 447.210594 693.489051 
L 438.075321 703.150428 
L 426.402471 715.710218 
L 424.626168 717.642494 
L 411.938288 732.617628 
L 402.549257 741.1921 
L 397.220348 747.592762 
L 387.577559 755.804932 
L 382.24865 761.118689 
L 377.934771 764.379404 
L 377.681013 764.98324 
L 377.427255 765.707844 
L 376.91974 766.31168 
L 376.665983 766.553214 
L 375.397195 767.036283 
L 374.889679 768.123188 
L 374.128407 769.572394 
L 373.620891 771.021601 
L 372.605861 771.746204 
L 369.814528 773.074643 
L 363.21683 780.079142 
L 362.455557 781.166047 
L 361.186769 783.339856 
L 360.425497 784.305994 
L 357.634163 786.117502 
L 356.365375 788.170545 
L 355.096587 789.378217 
L 340.886162 798.677292 
L 332.765919 803.266446 
L 325.406949 807.614066 
L 301.299977 821.623062 
L 299.016159 823.072269 
L 297.493613 823.43457 
L 296.73234 823.676105 
L 282.775673 830.318301 
L 270.849066 838.651239 
L 270.087793 839.375842 
L 269.32652 839.617377 
L 259.683731 846.742642 
L 250.802216 852.297934 
L 235.57676 864.374655 
L 227.710275 872.586825 
L 226.187729 873.311429 
L 223.142638 875.122937 
L 222.381365 875.84754 
L 222.127607 876.451376 
L 221.87385 877.175979 
L 221.87385 878.625186 
L 221.620092 878.86672 
L 220.351304 879.229022 
L 219.843789 879.591324 
L 219.336274 880.19516 
L 214.51488 885.267382 
L 212.992334 886.23352 
L 211.469789 886.716589 
L 210.708516 887.320425 
L 207.409667 891.547277 
L 199.543182 895.894897 
L 196.751848 897.94794 
L 193.452999 902.657861 
L 192.184211 903.382464 
L 191.169181 903.744766 
L 188.12409 906.280877 
L 174.674937 919.444503 
L 161.7333 934.178103 
L 154.628087 941.182601 
L 148.03039 947.824798 
L 134.073722 963.645302 
L 125.445964 973.065145 
L 121.385842 976.446627 
L 116.818206 980.19041 
L 111.996811 985.141866 
L 110.220508 987.55721 
L 110.220508 988.281814 
L 110.220508 988.88565 
L 109.966751 989.368718 
L 108.190448 989.73102 
L 107.682932 990.214089 
L 104.891599 993.957872 
L 104.637841 995.165545 
L 105.399114 995.890148 
L 104.637841 997.09782 
L 104.384084 997.460122 
L 104.384084 996.977053 
L 104.384084 996.614751 
L 104.384084 996.252449 
L 103.876568 995.890148 
L 100.323962 998.909328 
L 99.562689 999.633931 
L 99.308932 1000.841603 
L 98.040144 1002.049276 
L 95.756325 1004.223085 
L 88.90487 1012.797557 
L 88.651113 1013.401393 
L 88.651113 1014.005229 
L 88.397355 1014.367531 
L 87.88984 1014.609066 
L 87.636082 1014.8506 
L 84.590991 1019.318987 
L 82.814688 1021.251262 
L 81.799658 1021.975865 
L 80.784627 1022.579701 
L 79.262082 1022.942003 
L 77.232021 1022.821236 
L 76.216991 1023.06277 
L 75.455718 1023.787374 
L 76.978263 1024.149675 
L 76.978263 1025.478115 
L 76.216991 1027.048088 
L 75.709475 1027.772692 
L 74.694445 1028.376528 
L 73.679415 1029.5842 
L 72.918142 1031.154173 
L 72.664384 1032.482613 
L 72.410627 1033.086449 
L 69.873051 1034.897957 
L 69.111778 1035.260259 
L 68.85802 1034.77719 
L 68.604263 1031.75801 
L 68.604263 1028.980364 
L 68.350505 1027.772692 
L 67.84299 1027.772692 
L 68.096748 1028.859596 
L 67.84299 1029.704967 
L 67.335475 1030.42957 
L 67.335475 1031.274941 
L 67.335475 1032.120311 
L 67.84299 1033.086449 
L 67.84299 1033.931819 
L 68.096748 1034.77719 
L 68.604263 1035.260259 
L 69.111778 1035.501793 
L 69.365536 1036.105629 
L 69.111778 1037.071767 
L 68.350505 1038.520973 
L 68.350505 1039.366344 
L 67.84299 1040.211714 
L 66.320444 1041.781688 
L 65.812929 1042.264757 
L 65.812929 1043.230895 
L 65.305414 1043.955498 
L 65.051656 1044.680101 
L 62.260323 1047.940816 
L 62.006565 1048.665419 
L 62.260323 1049.269255 
L 62.767838 1049.269255 
L 63.529111 1048.906953 
L 64.036626 1048.423885 
L 63.021596 1050.35616 
L 61.49905 1050.476927 
L 59.976505 1049.390022 
L 59.468989 1047.457747 
L 59.215232 1047.457747 
L 59.215232 1048.906953 
L 59.976505 1051.443065 
L 59.976505 1052.771504 
L 59.722747 1054.099944 
L 52.363777 1066.176665 
L 50.587474 1068.229707 
L 49.318686 1070.28275 
L 46.527352 1075.717274 
L 45.258564 1076.804179 
L 43.736018 1077.770317 
L 41.198443 1081.997169 
L 39.675897 1083.204841 
L 40.183412 1083.204841 
L 38.407109 1085.137117 
L 38.407109 1083.68791 
L 38.660867 1079.219523 
L 38.407109 1077.891084 
L 37.645836 1076.32111 
L 34.854503 1072.698094 
L 31.301896 1068.10894 
L 27.74929 1063.399019 
L 24.196684 1058.689098 
L 20.644077 1054.099944 
L 17.345229 1049.873091 
L 13.538865 1044.800868 
L 9.986258 1040.090947 
L 6.433652 1035.501793 
L 4.657349 1033.207216 
L 2.881046 1030.791872 
L 1.104743 1028.497295 
L -0.671561 1026.081951 
L -0.925318 1020.647426 
L -0.925318 1015.575203 
L -0.925318 1010.623748 
L -1.179076 1002.773879 
L -1.179076 995.044777 
L -1.179076 987.315676 
L -1.432833 979.465807 
L -1.432833 974.635119 
L -1.432833 969.80443 
L -1.432833 964.007604 
L -1.432833 955.07083 
L -1.432833 946.134057 
L -1.432833 937.197283 
L -1.432833 928.26051 
L -1.432833 919.323736 
L -1.432833 910.386962 
L -1.432833 901.450189 
L -1.432833 892.513415 
L -1.432833 883.576642 
L -1.432833 875.84754 
L -1.432833 874.639868 
L -1.432833 865.703094 
L -1.432833 856.766321 
L -1.432833 847.829547 
L -1.432833 838.892773 
L -1.432833 829.956 
L -1.432833 821.019226 
L -1.432833 813.410892 
L -1.432833 805.802558 
L -1.432833 798.073456 
L -1.432833 790.465122 
L -1.432833 785.272132 
z
" clip-path="url(#pe41721c0ac)" style="fill: #bdc3c7; stroke: #ffffff; stroke-width: 0.5"/>
    <path d="M 53.378807 138.563716 
L 55.662625 132.163054 
L 56.423898 126.72853 
L 57.692686 124.433953 
L 58.707717 123.709349 
L 61.49905 122.501677 
L 62.260323 121.53554 
L 62.51408 120.569402 
L 63.021596 120.2071 
L 64.036626 119.965566 
L 64.797899 119.482497 
L 65.812929 118.637127 
L 66.574202 117.912523 
L 69.365536 114.047973 
L 75.20196 105.835802 
L 77.993294 100.522045 
L 78.754567 99.676674 
L 80.53087 98.831304 
L 81.038385 97.985933 
L 82.053415 95.449822 
L 91.442446 82.648498 
L 93.726265 77.938576 
L 97.786386 72.262518 
L 101.59275 68.397967 
L 102.861538 68.156432 
L 104.637841 68.639501 
L 107.93669 70.088708 
L 118.848266 79.870852 
L 119.863297 78.421645 
L 120.117054 78.421645 
L 122.400873 77.697042 
L 123.415903 76.368603 
L 123.923418 75.764767 
L 126.207237 75.281698 
L 126.96851 74.919396 
L 127.476025 72.987121 
L 126.714752 70.692544 
L 126.460994 68.518734 
L 129.506085 65.741088 
L 131.282389 61.75577 
L 132.297419 60.789632 
L 133.058692 60.9104 
L 133.819965 61.514236 
L 134.581237 61.514236 
L 150.060451 54.992806 
L 151.075481 55.71741 
L 151.836754 56.925082 
L 152.344269 58.374288 
L 153.105542 59.58196 
L 159.956997 67.431829 
L 161.479542 70.088708 
L 162.494573 71.054845 
L 163.763361 71.417147 
L 164.778391 70.571777 
L 164.778391 73.107888 
L 165.032149 74.31556 
L 165.285906 75.523232 
L 165.793421 76.48937 
L 166.554694 77.33474 
L 167.062209 78.180111 
L 167.315967 79.387783 
L 167.315967 82.165429 
L 167.569725 83.614635 
L 168.07724 84.580773 
L 170.614816 88.324557 
L 170.868573 89.532229 
L 170.614816 93.638314 
L 171.122331 99.072838 
L 170.868573 101.367415 
L 169.853543 103.420458 
L 168.330997 105.231966 
L 166.300937 106.439638 
L 165.793421 106.560405 
L 164.017118 106.922707 
L 161.987058 107.888845 
L 160.464512 108.130379 
L 157.419421 108.251146 
L 156.150633 108.613448 
L 153.866815 110.183422 
L 148.537905 116.704851 
L 148.03039 116.946386 
L 147.776632 117.067153 
L 147.015359 117.429454 
L 146.507844 117.670989 
L 146.254087 118.154058 
L 146.000329 119.240963 
L 145.492814 119.603264 
L 144.477784 119.965566 
L 140.67142 120.2071 
L 139.656389 120.569402 
L 138.641359 121.294005 
L 137.626328 121.777074 
L 135.596268 121.052471 
L 134.32748 121.294005 
L 127.729782 123.588582 
L 125.953479 124.675487 
L 124.430934 126.486995 
L 119.355782 135.423769 
L 118.848266 136.027605 
L 118.340751 136.389907 
L 116.056933 137.11451 
L 115.29566 137.11451 
L 113.773115 136.752208 
L 111.743054 136.872975 
L 111.235539 136.752208 
L 110.981781 136.510674 
L 110.220508 135.544536 
L 109.712993 135.303002 
L 108.190448 135.423769 
L 107.429175 136.027605 
L 107.429175 136.510674 
L 108.444205 136.269139 
L 108.697963 137.839113 
L 108.697963 137.95988 
L 108.697963 139.650621 
L 109.205478 141.099828 
L 111.489296 142.065966 
L 112.758084 143.273638 
L 113.773115 143.635939 
L 114.788145 143.394405 
L 115.803175 142.428267 
L 116.564448 142.186733 
L 117.325721 142.3075 
L 117.833236 142.669802 
L 118.594509 142.790569 
L 119.102024 142.428267 
L 119.609539 141.582897 
L 119.102024 140.979061 
L 118.340751 140.616759 
L 118.086994 140.254457 
L 118.594509 139.046785 
L 120.117054 138.080648 
L 123.415903 136.752208 
L 127.98354 136.269139 
L 129.506085 135.786071 
L 130.267358 135.303002 
L 130.774873 134.699166 
L 131.536146 134.457631 
L 132.297419 135.061467 
L 132.804934 135.303002 
L 134.581237 135.303002 
L 144.477784 135.182234 
L 146.000329 134.819933 
L 147.522875 134.9407 
L 149.04542 135.786071 
L 150.314208 135.544536 
L 151.075481 134.457631 
L 151.582996 133.612261 
L 152.344269 133.370726 
L 152.851784 134.09533 
L 153.866815 138.201415 
L 153.866815 138.322182 
L 154.628087 139.409087 
L 155.38936 140.012923 
L 157.673178 141.220595 
L 158.688209 142.186733 
L 154.881845 147.862792 
L 136.357541 177.209224 
L 135.088753 176.726155 
L 134.581237 177.450758 
L 133.819965 178.296129 
L 132.804934 178.65843 
L 131.789904 178.537663 
L 130.013601 177.933827 
L 127.222267 177.692293 
L 125.445964 177.329991 
L 124.430934 176.363853 
L 122.65463 172.378536 
L 121.132085 171.895467 
L 119.609539 171.895467 
L 114.534387 170.687795 
L 114.026872 170.687795 
L 111.235539 170.929329 
L 104.891599 172.861604 
L 100.323962 176.001552 
L 98.801417 176.605388 
L 97.786386 176.605388 
L 96.517598 176.243086 
L 94.995053 176.001552 
L 92.711234 176.726155 
L 92.203719 176.846922 
L 90.934931 176.726155 
L 90.173658 176.846922 
L 87.636082 177.933827 
L 86.87481 178.175362 
L 85.352264 178.175362 
L 81.799658 177.329991 
L 77.993294 177.81306 
L 75.963233 178.416896 
L 73.933172 180.590706 
L 71.903111 181.073775 
L 67.84299 181.315309 
L 67.335475 181.436076 
L 67.081717 181.798378 
L 66.82796 182.16068 
L 66.066687 182.039912 
L 65.812929 181.677611 
L 65.559172 181.194542 
L 65.305414 180.83224 
L 56.931413 179.141499 
L 55.15511 178.537663 
L 54.647595 177.81306 
L 54.393837 177.329991 
L 55.662625 175.276949 
L 55.916383 172.257768 
L 56.170141 158.490306 
L 55.408868 150.761205 
L 53.632565 142.549034 
z
" clip-path="url(#pe41721c0ac)" style="fill: #bdc3c7; stroke: #ffffff; stroke-width: 0.5"/>
   </g>
   <g id="PatchCollection_2">
    <defs>
     <path id="mb6b6846851" d="M 116.818206 -305.492428 
L 116.818206 -306.941635 
L 117.579479 -307.666238 
L 119.102024 -308.02854 
L 120.370812 -308.87391 
L 121.385842 -310.081582 
L 121.893358 -311.410022 
L 122.400873 -314.308435 
L 123.162146 -316.119943 
L 123.923418 -317.206848 
L 126.460994 -319.259891 
L 127.729782 -320.467563 
L 127.98354 -321.554468 
L 128.237297 -322.76214 
L 128.99857 -324.211346 
L 130.013601 -325.298251 
L 133.058692 -326.505923 
L 134.073722 -327.472061 
L 134.581237 -328.679733 
L 135.34251 -331.698913 
L 136.357541 -333.14812 
L 154.881845 -362.494552 
L 158.688209 -368.170611 
L 159.449482 -367.083706 
L 160.464512 -366.359103 
L 161.987058 -366.238336 
L 161.479542 -369.015981 
L 162.494573 -367.808309 
L 164.270876 -365.151431 
L 165.539664 -363.702224 
L 166.554694 -363.339923 
L 168.07724 -361.28688 
L 169.346028 -360.803811 
L 170.868573 -360.562277 
L 172.898634 -358.992303 
L 174.167422 -358.388467 
L 174.42118 -359.596139 
L 175.43621 -360.44151 
L 176.197483 -360.562277 
L 176.45124 -359.354605 
L 175.43621 -352.712408 
L 175.943725 -350.417831 
L 177.212513 -348.244021 
L 178.988816 -346.674047 
L 179.496332 -346.432513 
L 180.511362 -346.190979 
L 181.018877 -345.828677 
L 181.272635 -345.466375 
L 181.78015 -344.37947 
L 182.79518 -342.930264 
L 183.302696 -340.997989 
L 185.078999 -338.34111 
L 188.12409 -332.423517 
L 194.975545 -325.660553 
L 200.050697 -319.139123 
L 206.648394 -313.583832 
L 214.007364 -308.390842 
L 219.082516 -303.922455 
L 222.635123 -301.748645 
L 231.516638 -294.381845 
L 233.546699 -293.174173 
L 236.59179 -291.362665 
L 239.636882 -290.154993 
L 244.965791 -290.517294 
L 250.2947 -289.792691 
L 253.339792 -289.188855 
L 256.384883 -289.671924 
L 258.668701 -290.517294 
L 262.98258 -291.724966 
L 265.012641 -292.328802 
L 267.803975 -292.087268 
L 272.371611 -291.362665 
L 275.416702 -291.241898 
L 279.984339 -291.483432 
L 282.268157 -293.415707 
L 281.760642 -294.623379 
L 282.775673 -294.623379 
L 290.3884 -299.333301 
L 291.657188 -299.81637 
L 293.687249 -300.420206 
L 300.284947 -304.647058 
L 305.106341 -309.115445 
L 306.375129 -309.719281 
L 307.643917 -309.598514 
L 308.912705 -309.115445 
L 310.181493 -308.87391 
L 311.450281 -308.87391 
L 313.987857 -309.477746 
L 317.032948 -310.685419 
L 319.063009 -312.013858 
L 320.839312 -313.342297 
L 323.12313 -315.999176 
L 323.884403 -316.482245 
L 329.213312 -318.293753 
L 329.974585 -318.656054 
L 330.989616 -319.622192 
L 331.497131 -320.58833 
L 332.512161 -321.312933 
L 333.780949 -321.675235 
L 334.542222 -322.037536 
L 335.81101 -324.090579 
L 336.82604 -324.573648 
L 338.094828 -324.573648 
L 339.109859 -324.332113 
L 340.124889 -323.969812 
L 341.139919 -323.124441 
L 341.901192 -322.158304 
L 342.408707 -321.312933 
L 342.916223 -320.709097 
L 344.185011 -320.58833 
L 343.931253 -321.916769 
L 344.946283 -321.916769 
L 351.543981 -318.897589 
L 354.081557 -318.535287 
L 356.365375 -317.931451 
L 357.634163 -317.448382 
L 360.425497 -316.844546 
L 362.709315 -317.327615 
L 367.784467 -318.656054 
L 369.814528 -318.41452 
L 371.590831 -317.327615 
L 374.635922 -314.0669 
L 376.665983 -312.496927 
L 379.203559 -311.530789 
L 381.994892 -311.168487 
L 384.786226 -311.289255 
L 387.070044 -311.893091 
L 388.338832 -312.376159 
L 390.368893 -313.704599 
L 392.652711 -314.0669 
L 394.682772 -314.912271 
L 397.474105 -315.033038 
L 398.742893 -315.274573 
L 399.504166 -315.757641 
L 402.041742 -317.689917 
L 408.131924 -320.467563 
L 410.923258 -322.76214 
L 414.222107 -324.090579 
L 414.475864 -324.573648 
L 415.237137 -325.660553 
L 415.490895 -326.022854 
L 415.99841 -326.264389 
L 417.01344 -326.385156 
L 417.520955 -326.505923 
L 424.118653 -328.921267 
L 429.447562 -332.906585 
L 433.000169 -335.804998 
L 435.283987 -338.461877 
L 436.299017 -339.065713 
L 439.597866 -340.031851 
L 440.359139 -340.51492 
L 442.135442 -341.964126 
L 449.494412 -345.587143 
L 450.7632 -346.190979 
L 452.285746 -346.432513 
L 454.315807 -346.190979 
L 458.12217 -347.036349 
L 460.405989 -346.674047 
L 471.317565 -340.997989 
L 473.601384 -340.51492 
L 477.661505 -342.567962 
L 486.543021 -342.809497 
L 490.349385 -342.205661 
L 503.291022 -343.051031 
L 505.321083 -343.654867 
L 506.336113 -344.500238 
L 507.858659 -346.674047 
L 509.381205 -347.277883 
L 509.381205 -347.88172 
L 509.634962 -348.364788 
L 510.142477 -348.606323 
L 511.411265 -348.606323 
L 512.172538 -348.606323 
L 513.441326 -349.089392 
L 514.710114 -349.210159 
L 515.471387 -349.572461 
L 515.978902 -350.055529 
L 516.23266 -350.538598 
L 516.23266 -351.021667 
L 516.486417 -351.504736 
L 517.501448 -352.470874 
L 518.26272 -352.953942 
L 520.292781 -353.437011 
L 525.367933 -353.92008 
L 527.905509 -354.523916 
L 529.681812 -355.731588 
L 530.9506 -356.09389 
L 535.264479 -355.973123 
L 539.070843 -356.818493 
L 540.339631 -356.93926 
L 545.161025 -355.852355 
L 547.698601 -354.765451 
L 550.489935 -353.195477 
L 556.833875 -351.142434 
L 557.848905 -351.021667 
L 559.117693 -351.021667 
L 560.386481 -351.142434 
L 560.386481 -343.051031 
L 560.386481 -334.959628 
L 560.386481 -326.988992 
L 560.386481 -318.897589 
L 560.386481 -310.926953 
L 560.386481 -302.83555 
L 560.386481 -294.864914 
L 560.386481 -286.773511 
L 560.386481 -278.802875 
L 560.386481 -270.711472 
L 560.386481 -262.740836 
L 560.386481 -254.649433 
L 560.386481 -246.678797 
L 560.386481 -238.587394 
L 560.386481 -230.49599 
L 560.386481 -222.525354 
L 556.072602 -216.003925 
L 551.758723 -209.482496 
L 547.698601 -202.961066 
L 543.384722 -196.560404 
L 539.070843 -190.038975 
L 535.010722 -183.517545 
L 530.696843 -176.996116 
L 526.382963 -170.474686 
L 522.322842 -163.953257 
L 518.008963 -157.431828 
L 513.695084 -151.031166 
L 509.634962 -144.509736 
L 505.321083 -137.988307 
L 501.007204 -131.466877 
L 496.947082 -124.945448 
L 492.633203 -118.424019 
L 482.4829 -118.424019 
L 469.79502 -118.424019 
L 460.405989 -118.424019 
L 449.494412 -118.424019 
L 438.329078 -118.424019 
L 428.432532 -118.424019 
L 422.088592 -118.424019 
L 418.028471 -120.597828 
L 413.460834 -122.047035 
L 407.624409 -124.100077 
L 401.787984 -126.032353 
L 395.697802 -128.085395 
L 389.861378 -130.138438 
L 384.024953 -132.070713 
L 377.934771 -134.123756 
L 372.098346 -136.176799 
L 366.261921 -138.109074 
L 360.171739 -140.162117 
L 354.335314 -142.215159 
L 348.49889 -144.147434 
L 342.662465 -146.200477 
L 336.572283 -148.25352 
L 330.735858 -150.185795 
L 324.899433 -152.238838 
L 318.809251 -154.171113 
L 312.719069 -156.344923 
L 306.375129 -158.397965 
L 300.284947 -160.451008 
L 293.941007 -162.504051 
L 287.850825 -164.557093 
L 281.506885 -166.610136 
L 275.416702 -168.663178 
L 269.072762 -170.716221 
L 262.98258 -172.890031 
L 256.63864 -174.943073 
L 250.548458 -176.996116 
L 244.204518 -179.049158 
L 238.114336 -181.102201 
L 231.770396 -183.155244 
L 225.680214 -185.208286 
L 219.590032 -187.261329 
L 213.753607 -189.193604 
L 210.962273 -190.884345 
L 206.140879 -195.352732 
L 197.259363 -203.564902 
L 190.915423 -209.361728 
L 185.332756 -214.313184 
L 184.571483 -214.91702 
L 183.302696 -214.796253 
L 181.526392 -214.192417 
L 180.257604 -214.313184 
L 174.928695 -217.573899 
L 171.122331 -219.747709 
L 170.361058 -220.834614 
L 169.853543 -222.28382 
L 169.853543 -224.578397 
L 169.346028 -225.906836 
L 167.823482 -229.167551 
L 167.062209 -229.771387 
L 165.793421 -230.737525 
L 165.032149 -231.341361 
L 164.524634 -232.186731 
L 163.763361 -233.635938 
L 163.255846 -234.360541 
L 162.74833 -234.722843 
L 160.71827 -235.205912 
L 159.195724 -236.896653 
L 158.180694 -239.674298 
L 156.150633 -251.147183 
L 154.881845 -253.44176 
L 152.090511 -254.649433 
L 149.04542 -255.132501 
L 146.507844 -256.219406 
L 144.477784 -258.151682 
L 143.208996 -261.533164 
L 142.447723 -263.827741 
L 141.68645 -266.243085 
L 140.417662 -268.296127 
L 138.641359 -269.986868 
L 132.043661 -274.455255 
L 130.013601 -276.629065 
L 128.237297 -280.976685 
L 126.714752 -285.565839 
L 125.953479 -292.087268 
L 125.192206 -294.019543 
L 123.923418 -295.46875 
L 120.117054 -299.333301 
L 118.340751 -302.231714 
z
" style="stroke: #ffffff; stroke-width: 0.6"/>
    </defs>
    <g clip-path="url(#pe41721c0ac)">
     <use xlink:href="#mb6b6846851" x="0" y="510.357344" style="fill: #e74c3c; stroke: #ffffff; stroke-width: 0.6"/>
    </g>
   </g>
   <g id="text_1">
    <g id="patch_2">
     <path d="M 90.552816 123.295866 
L 121.711566 123.295866 
Q 123.111566 123.295866 123.111566 121.895866 
L 123.111566 114.895319 
Q 123.111566 113.495319 121.711566 113.495319 
L 90.552816 113.495319 
Q 89.152816 113.495319 89.152816 114.895319 
L 89.152816 121.895866 
Q 89.152816 123.295866 90.552816 123.295866 
z
" clip-path="url(#pe41721c0ac)" style="fill: #ffffff; opacity: 0.6"/>
    </g>
    <g clip-path="url(#pe41721c0ac)">
     <!-- Djibouti -->
     <g style="fill: #1a252f" transform="translate(90.552816 120.214225) scale(0.07 -0.07)">
      <defs>
       <path id="DejaVuSans-Bold-27" d="M 1791 3756 
L 1791 909 
L 2222 909 
Q 2959 909 3348 1275 
Q 3738 1641 3738 2338 
Q 3738 3031 3350 3393 
Q 2963 3756 2222 3756 
L 1791 3756 
z
M 588 4666 
L 1856 4666 
Q 2919 4666 3439 4514 
Q 3959 4363 4331 4000 
Q 4659 3684 4818 3271 
Q 4978 2859 4978 2338 
Q 4978 1809 4818 1395 
Q 4659 981 4331 666 
Q 3956 303 3431 151 
Q 2906 0 1856 0 
L 588 0 
L 588 4666 
z
" transform="scale(0.015625)"/>
       <path id="DejaVuSans-Bold-4d" d="M 538 3500 
L 1656 3500 
L 1656 63 
Q 1656 -641 1318 -1011 
Q 981 -1381 341 -1381 
L -213 -1381 
L -213 -647 
L -19 -647 
Q 300 -647 419 -503 
Q 538 -359 538 63 
L 538 3500 
z
M 538 4863 
L 1656 4863 
L 1656 3950 
L 538 3950 
L 538 4863 
z
" transform="scale(0.015625)"/>
       <path id="DejaVuSans-Bold-4c" d="M 538 3500 
L 1656 3500 
L 1656 0 
L 538 0 
L 538 3500 
z
M 538 4863 
L 1656 4863 
L 1656 3950 
L 538 3950 
L 538 4863 
z
" transform="scale(0.015625)"/>
       <path id="DejaVuSans-Bold-45" d="M 2400 722 
Q 2759 722 2948 984 
Q 3138 1247 3138 1747 
Q 3138 2247 2948 2509 
Q 2759 2772 2400 2772 
Q 2041 2772 1848 2508 
Q 1656 2244 1656 1747 
Q 1656 1250 1848 986 
Q 2041 722 2400 722 
z
M 1656 2988 
Q 1888 3294 2169 3439 
Q 2450 3584 2816 3584 
Q 3463 3584 3878 3070 
Q 4294 2556 4294 1747 
Q 4294 938 3878 423 
Q 3463 -91 2816 -91 
Q 2450 -91 2169 54 
Q 1888 200 1656 506 
L 1656 0 
L 538 0 
L 538 4863 
L 1656 4863 
L 1656 2988 
z
" transform="scale(0.015625)"/>
       <path id="DejaVuSans-Bold-52" d="M 2203 2784 
Q 1831 2784 1636 2517 
Q 1441 2250 1441 1747 
Q 1441 1244 1636 976 
Q 1831 709 2203 709 
Q 2569 709 2762 976 
Q 2956 1244 2956 1747 
Q 2956 2250 2762 2517 
Q 2569 2784 2203 2784 
z
M 2203 3584 
Q 3106 3584 3614 3096 
Q 4122 2609 4122 1747 
Q 4122 884 3614 396 
Q 3106 -91 2203 -91 
Q 1297 -91 786 396 
Q 275 884 275 1747 
Q 275 2609 786 3096 
Q 1297 3584 2203 3584 
z
" transform="scale(0.015625)"/>
       <path id="DejaVuSans-Bold-58" d="M 500 1363 
L 500 3500 
L 1625 3500 
L 1625 3150 
Q 1625 2866 1622 2436 
Q 1619 2006 1619 1863 
Q 1619 1441 1641 1255 
Q 1663 1069 1716 984 
Q 1784 875 1895 815 
Q 2006 756 2150 756 
Q 2500 756 2700 1025 
Q 2900 1294 2900 1772 
L 2900 3500 
L 4019 3500 
L 4019 0 
L 2900 0 
L 2900 506 
Q 2647 200 2364 54 
Q 2081 -91 1741 -91 
Q 1134 -91 817 281 
Q 500 653 500 1363 
z
" transform="scale(0.015625)"/>
       <path id="DejaVuSans-Bold-57" d="M 1759 4494 
L 1759 3500 
L 2913 3500 
L 2913 2700 
L 1759 2700 
L 1759 1216 
Q 1759 972 1856 886 
Q 1953 800 2241 800 
L 2816 800 
L 2816 0 
L 1856 0 
Q 1194 0 917 276 
Q 641 553 641 1216 
L 641 2700 
L 84 2700 
L 84 3500 
L 641 3500 
L 641 4494 
L 1759 4494 
z
" transform="scale(0.015625)"/>
      </defs>
      <use xlink:href="#DejaVuSans-Bold-27"/>
      <use xlink:href="#DejaVuSans-Bold-4d" transform="translate(83.015625 0)"/>
      <use xlink:href="#DejaVuSans-Bold-4c" transform="translate(117.296875 0)"/>
      <use xlink:href="#DejaVuSans-Bold-45" transform="translate(151.578125 0)"/>
      <use xlink:href="#DejaVuSans-Bold-52" transform="translate(223.15625 0)"/>
      <use xlink:href="#DejaVuSans-Bold-58" transform="translate(291.859375 0)"/>
      <use xlink:href="#DejaVuSans-Bold-57" transform="translate(363.046875 0)"/>
      <use xlink:href="#DejaVuSans-Bold-4c" transform="translate(410.84375 0)"/>
     </g>
    </g>
   </g>
   <g id="text_2">
    <!-- Somaliland -->
    <g style="fill: #1a252f" transform="translate(285.434843 20.117344) scale(0.17 -0.17)">
     <defs>
      <path id="DejaVuSans-Bold-36" d="M 3834 4519 
L 3834 3531 
Q 3450 3703 3084 3790 
Q 2719 3878 2394 3878 
Q 1963 3878 1756 3759 
Q 1550 3641 1550 3391 
Q 1550 3203 1689 3098 
Q 1828 2994 2194 2919 
L 2706 2816 
Q 3484 2659 3812 2340 
Q 4141 2022 4141 1434 
Q 4141 663 3683 286 
Q 3225 -91 2284 -91 
Q 1841 -91 1394 -6 
Q 947 78 500 244 
L 500 1259 
Q 947 1022 1364 901 
Q 1781 781 2169 781 
Q 2563 781 2772 912 
Q 2981 1044 2981 1288 
Q 2981 1506 2839 1625 
Q 2697 1744 2272 1838 
L 1806 1941 
Q 1106 2091 782 2419 
Q 459 2747 459 3303 
Q 459 4000 909 4375 
Q 1359 4750 2203 4750 
Q 2588 4750 2994 4692 
Q 3400 4634 3834 4519 
z
" transform="scale(0.015625)"/>
      <path id="DejaVuSans-Bold-50" d="M 3781 2919 
Q 3994 3244 4286 3414 
Q 4578 3584 4928 3584 
Q 5531 3584 5847 3212 
Q 6163 2841 6163 2131 
L 6163 0 
L 5038 0 
L 5038 1825 
Q 5041 1866 5042 1909 
Q 5044 1953 5044 2034 
Q 5044 2406 4934 2573 
Q 4825 2741 4581 2741 
Q 4263 2741 4089 2478 
Q 3916 2216 3909 1719 
L 3909 0 
L 2784 0 
L 2784 1825 
Q 2784 2406 2684 2573 
Q 2584 2741 2328 2741 
Q 2006 2741 1831 2477 
Q 1656 2213 1656 1722 
L 1656 0 
L 531 0 
L 531 3500 
L 1656 3500 
L 1656 2988 
Q 1863 3284 2130 3434 
Q 2397 3584 2719 3584 
Q 3081 3584 3359 3409 
Q 3638 3234 3781 2919 
z
" transform="scale(0.015625)"/>
      <path id="DejaVuSans-Bold-44" d="M 2106 1575 
Q 1756 1575 1579 1456 
Q 1403 1338 1403 1106 
Q 1403 894 1545 773 
Q 1688 653 1941 653 
Q 2256 653 2472 879 
Q 2688 1106 2688 1447 
L 2688 1575 
L 2106 1575 
z
M 3816 1997 
L 3816 0 
L 2688 0 
L 2688 519 
Q 2463 200 2181 54 
Q 1900 -91 1497 -91 
Q 953 -91 614 226 
Q 275 544 275 1050 
Q 275 1666 698 1953 
Q 1122 2241 2028 2241 
L 2688 2241 
L 2688 2328 
Q 2688 2594 2478 2717 
Q 2269 2841 1825 2841 
Q 1466 2841 1156 2769 
Q 847 2697 581 2553 
L 581 3406 
Q 941 3494 1303 3539 
Q 1666 3584 2028 3584 
Q 2975 3584 3395 3211 
Q 3816 2838 3816 1997 
z
" transform="scale(0.015625)"/>
      <path id="DejaVuSans-Bold-4f" d="M 538 4863 
L 1656 4863 
L 1656 0 
L 538 0 
L 538 4863 
z
" transform="scale(0.015625)"/>
      <path id="DejaVuSans-Bold-51" d="M 4056 2131 
L 4056 0 
L 2931 0 
L 2931 347 
L 2931 1631 
Q 2931 2084 2911 2256 
Q 2891 2428 2841 2509 
Q 2775 2619 2662 2680 
Q 2550 2741 2406 2741 
Q 2056 2741 1856 2470 
Q 1656 2200 1656 1722 
L 1656 0 
L 538 0 
L 538 3500 
L 1656 3500 
L 1656 2988 
Q 1909 3294 2193 3439 
Q 2478 3584 2822 3584 
Q 3428 3584 3742 3212 
Q 4056 2841 4056 2131 
z
" transform="scale(0.015625)"/>
      <path id="DejaVuSans-Bold-47" d="M 2919 2988 
L 2919 4863 
L 4044 4863 
L 4044 0 
L 2919 0 
L 2919 506 
Q 2688 197 2409 53 
Q 2131 -91 1766 -91 
Q 1119 -91 703 423 
Q 288 938 288 1747 
Q 288 2556 703 3070 
Q 1119 3584 1766 3584 
Q 2128 3584 2408 3439 
Q 2688 3294 2919 2988 
z
M 2181 722 
Q 2541 722 2730 984 
Q 2919 1247 2919 1747 
Q 2919 2247 2730 2509 
Q 2541 2772 2181 2772 
Q 1825 2772 1636 2509 
Q 1447 2247 1447 1747 
Q 1447 1247 1636 984 
Q 1825 722 2181 722 
z
" transform="scale(0.015625)"/>
     </defs>
     <use xlink:href="#DejaVuSans-Bold-36"/>
     <use xlink:href="#DejaVuSans-Bold-52" transform="translate(72.015625 0)"/>
     <use xlink:href="#DejaVuSans-Bold-50" transform="translate(140.71875 0)"/>
     <use xlink:href="#DejaVuSans-Bold-44" transform="translate(244.921875 0)"/>
     <use xlink:href="#DejaVuSans-Bold-4f" transform="translate(312.40625 0)"/>
     <use xlink:href="#DejaVuSans-Bold-4c" transform="translate(346.6875 0)"/>
     <use xlink:href="#DejaVuSans-Bold-4f" transform="translate(380.96875 0)"/>
     <use xlink:href="#DejaVuSans-Bold-44" transform="translate(415.25 0)"/>
     <use xlink:href="#DejaVuSans-Bold-51" transform="translate(482.734375 0)"/>
     <use xlink:href="#DejaVuSans-Bold-47" transform="translate(553.921875 0)"/>
    </g>
   </g>
   <g id="line2d_1">
    <path d="M 217.063684 280.073778 
" clip-path="url(#pe41721c0ac)" style="fill: none; stroke: #ffffff; stroke-width: 1.5; stroke-linecap: square"/>
    <defs>
     <path id="mbb79af377e" d="M 0 2.5 
C 0.663008 2.5 1.29895 2.236584 1.767767 1.767767 
C 2.236584 1.29895 2.5 0.663008 2.5 0 
C 2.5 -0.663008 2.236584 -1.29895 1.767767 -1.767767 
C 1.29895 -2.236584 0.663008 -2.5 0 -2.5 
C -0.663008 -2.5 -1.29895 -2.236584 -1.767767 -1.767767 
C -2.236584 -1.29895 -2.5 -0.663008 -2.5 0 
C -2.5 0.663008 -2.236584 1.29895 -1.767767 1.767767 
C -1.29895 2.236584 -0.663008 2.5 0 2.5 
z
" style="stroke: #1a252f; stroke-width: 0.8"/>
    </defs>
    <g clip-path="url(#pe41721c0ac)">
     <use xlink:href="#mbb79af377e" x="217.063684" y="280.073778" style="fill: #ffffff; stroke: #1a252f; stroke-width: 0.8"/>
    </g>
   </g>
   <g id="text_3">
    <g clip-path="url(#pe41721c0ac)">
     <!-- Hargeisa -->
     <g style="fill: #ffffff" transform="translate(230.76596 282.022313) scale(0.075 -0.075)">
      <defs>
       <path id="DejaVuSans-Bold-2b" d="M 588 4666 
L 1791 4666 
L 1791 2888 
L 3566 2888 
L 3566 4666 
L 4769 4666 
L 4769 0 
L 3566 0 
L 3566 1978 
L 1791 1978 
L 1791 0 
L 588 0 
L 588 4666 
z
" transform="scale(0.015625)"/>
       <path id="DejaVuSans-Bold-55" d="M 3138 2547 
Q 2991 2616 2845 2648 
Q 2700 2681 2553 2681 
Q 2122 2681 1889 2404 
Q 1656 2128 1656 1613 
L 1656 0 
L 538 0 
L 538 3500 
L 1656 3500 
L 1656 2925 
Q 1872 3269 2151 3426 
Q 2431 3584 2822 3584 
Q 2878 3584 2943 3579 
Q 3009 3575 3134 3559 
L 3138 2547 
z
" transform="scale(0.015625)"/>
       <path id="DejaVuSans-Bold-4a" d="M 2919 594 
Q 2688 288 2409 144 
Q 2131 0 1766 0 
Q 1125 0 706 504 
Q 288 1009 288 1791 
Q 288 2575 706 3076 
Q 1125 3578 1766 3578 
Q 2131 3578 2409 3434 
Q 2688 3291 2919 2981 
L 2919 3500 
L 4044 3500 
L 4044 353 
Q 4044 -491 3511 -936 
Q 2978 -1381 1966 -1381 
Q 1638 -1381 1331 -1331 
Q 1025 -1281 716 -1178 
L 716 -306 
Q 1009 -475 1290 -558 
Q 1572 -641 1856 -641 
Q 2406 -641 2662 -400 
Q 2919 -159 2919 353 
L 2919 594 
z
M 2181 2772 
Q 1834 2772 1640 2515 
Q 1447 2259 1447 1791 
Q 1447 1309 1634 1061 
Q 1822 813 2181 813 
Q 2531 813 2725 1069 
Q 2919 1325 2919 1791 
Q 2919 2259 2725 2515 
Q 2531 2772 2181 2772 
z
" transform="scale(0.015625)"/>
       <path id="DejaVuSans-Bold-48" d="M 4031 1759 
L 4031 1441 
L 1416 1441 
Q 1456 1047 1700 850 
Q 1944 653 2381 653 
Q 2734 653 3104 758 
Q 3475 863 3866 1075 
L 3866 213 
Q 3469 63 3072 -14 
Q 2675 -91 2278 -91 
Q 1328 -91 801 392 
Q 275 875 275 1747 
Q 275 2603 792 3093 
Q 1309 3584 2216 3584 
Q 3041 3584 3536 3087 
Q 4031 2591 4031 1759 
z
M 2881 2131 
Q 2881 2450 2695 2645 
Q 2509 2841 2209 2841 
Q 1884 2841 1681 2658 
Q 1478 2475 1428 2131 
L 2881 2131 
z
" transform="scale(0.015625)"/>
       <path id="DejaVuSans-Bold-56" d="M 3272 3391 
L 3272 2541 
Q 2913 2691 2578 2766 
Q 2244 2841 1947 2841 
Q 1628 2841 1473 2761 
Q 1319 2681 1319 2516 
Q 1319 2381 1436 2309 
Q 1553 2238 1856 2203 
L 2053 2175 
Q 2913 2066 3209 1816 
Q 3506 1566 3506 1031 
Q 3506 472 3093 190 
Q 2681 -91 1863 -91 
Q 1516 -91 1145 -36 
Q 775 19 384 128 
L 384 978 
Q 719 816 1070 734 
Q 1422 653 1784 653 
Q 2113 653 2278 743 
Q 2444 834 2444 1013 
Q 2444 1163 2330 1236 
Q 2216 1309 1875 1350 
L 1678 1375 
Q 931 1469 631 1722 
Q 331 1975 331 2491 
Q 331 3047 712 3315 
Q 1094 3584 1881 3584 
Q 2191 3584 2531 3537 
Q 2872 3491 3272 3391 
z
" transform="scale(0.015625)"/>
      </defs>
      <use xlink:href="#DejaVuSans-Bold-2b"/>
      <use xlink:href="#DejaVuSans-Bold-44" transform="translate(83.6875 0)"/>
      <use xlink:href="#DejaVuSans-Bold-55" transform="translate(151.171875 0)"/>
      <use xlink:href="#DejaVuSans-Bold-4a" transform="translate(200.484375 0)"/>
      <use xlink:href="#DejaVuSans-Bold-48" transform="translate(272.0625 0)"/>
      <use xlink:href="#DejaVuSans-Bold-4c" transform="translate(339.890625 0)"/>
      <use xlink:href="#DejaVuSans-Bold-56" transform="translate(374.171875 0)"/>
      <use xlink:href="#DejaVuSans-Bold-44" transform="translate(433.6875 0)"/>
     </g>
    </g>
   </g>
   <g id="legend_1">
    <g id="patch_3">
     <path d="M 13.5 498.657344 
L 92.235938 498.657344 
Q 94.035938 498.657344 94.035938 496.857344 
L 94.035938 470.755937 
Q 94.035938 468.955937 92.235938 468.955937 
L 13.5 468.955937 
Q 11.7 468.955937 11.7 470.755937 
L 11.7 496.857344 
Q 11.7 498.657344 13.5 498.657344 
z
" style="fill: #ffffff; opacity: 0.85; stroke: #cccccc; stroke-linejoin: miter"/>
    </g>
    <g id="patch_4">
     <path d="M 15.3 479.394531 
L 33.3 479.394531 
L 33.3 473.094531 
L 15.3 473.094531 
z
" style="fill: #e74c3c; stroke: #888888; stroke-linejoin: miter"/>
    </g>
    <g id="text_4">
     <!-- Somaliland -->
     <g transform="translate(40.5 479.394531) scale(0.09 -0.09)">
      <defs>
       <path id="DejaVuSans-36" d="M 3425 4513 
L 3425 3897 
Q 3066 4069 2747 4153 
Q 2428 4238 2131 4238 
Q 1616 4238 1336 4038 
Q 1056 3838 1056 3469 
Q 1056 3159 1242 3001 
Q 1428 2844 1947 2747 
L 2328 2669 
Q 3034 2534 3370 2195 
Q 3706 1856 3706 1288 
Q 3706 609 3251 259 
Q 2797 -91 1919 -91 
Q 1588 -91 1214 -16 
Q 841 59 441 206 
L 441 856 
Q 825 641 1194 531 
Q 1563 422 1919 422 
Q 2459 422 2753 634 
Q 3047 847 3047 1241 
Q 3047 1584 2836 1778 
Q 2625 1972 2144 2069 
L 1759 2144 
Q 1053 2284 737 2584 
Q 422 2884 422 3419 
Q 422 4038 858 4394 
Q 1294 4750 2059 4750 
Q 2388 4750 2728 4690 
Q 3069 4631 3425 4513 
z
" transform="scale(0.015625)"/>
       <path id="DejaVuSans-52" d="M 1959 3097 
Q 1497 3097 1228 2736 
Q 959 2375 959 1747 
Q 959 1119 1226 758 
Q 1494 397 1959 397 
Q 2419 397 2687 759 
Q 2956 1122 2956 1747 
Q 2956 2369 2687 2733 
Q 2419 3097 1959 3097 
z
M 1959 3584 
Q 2709 3584 3137 3096 
Q 3566 2609 3566 1747 
Q 3566 888 3137 398 
Q 2709 -91 1959 -91 
Q 1206 -91 779 398 
Q 353 888 353 1747 
Q 353 2609 779 3096 
Q 1206 3584 1959 3584 
z
" transform="scale(0.015625)"/>
       <path id="DejaVuSans-50" d="M 3328 2828 
Q 3544 3216 3844 3400 
Q 4144 3584 4550 3584 
Q 5097 3584 5394 3201 
Q 5691 2819 5691 2113 
L 5691 0 
L 5113 0 
L 5113 2094 
Q 5113 2597 4934 2840 
Q 4756 3084 4391 3084 
Q 3944 3084 3684 2787 
Q 3425 2491 3425 1978 
L 3425 0 
L 2847 0 
L 2847 2094 
Q 2847 2600 2669 2842 
Q 2491 3084 2119 3084 
Q 1678 3084 1418 2786 
Q 1159 2488 1159 1978 
L 1159 0 
L 581 0 
L 581 3500 
L 1159 3500 
L 1159 2956 
Q 1356 3278 1631 3431 
Q 1906 3584 2284 3584 
Q 2666 3584 2933 3390 
Q 3200 3197 3328 2828 
z
" transform="scale(0.015625)"/>
       <path id="DejaVuSans-44" d="M 2194 1759 
Q 1497 1759 1228 1600 
Q 959 1441 959 1056 
Q 959 750 1161 570 
Q 1363 391 1709 391 
Q 2188 391 2477 730 
Q 2766 1069 2766 1631 
L 2766 1759 
L 2194 1759 
z
M 3341 1997 
L 3341 0 
L 2766 0 
L 2766 531 
Q 2569 213 2275 61 
Q 1981 -91 1556 -91 
Q 1019 -91 701 211 
Q 384 513 384 1019 
Q 384 1609 779 1909 
Q 1175 2209 1959 2209 
L 2766 2209 
L 2766 2266 
Q 2766 2663 2505 2880 
Q 2244 3097 1772 3097 
Q 1472 3097 1187 3025 
Q 903 2953 641 2809 
L 641 3341 
Q 956 3463 1253 3523 
Q 1550 3584 1831 3584 
Q 2591 3584 2966 3190 
Q 3341 2797 3341 1997 
z
" transform="scale(0.015625)"/>
       <path id="DejaVuSans-4f" d="M 603 4863 
L 1178 4863 
L 1178 0 
L 603 0 
L 603 4863 
z
" transform="scale(0.015625)"/>
       <path id="DejaVuSans-4c" d="M 603 3500 
L 1178 3500 
L 1178 0 
L 603 0 
L 603 3500 
z
M 603 4863 
L 1178 4863 
L 1178 4134 
L 603 4134 
L 603 4863 
z
" transform="scale(0.015625)"/>
       <path id="DejaVuSans-51" d="M 3513 2113 
L 3513 0 
L 2938 0 
L 2938 2094 
Q 2938 2591 2744 2837 
Q 2550 3084 2163 3084 
Q 1697 3084 1428 2787 
Q 1159 2491 1159 1978 
L 1159 0 
L 581 0 
L 581 3500 
L 1159 3500 
L 1159 2956 
Q 1366 3272 1645 3428 
Q 1925 3584 2291 3584 
Q 2894 3584 3203 3211 
Q 3513 2838 3513 2113 
z
" transform="scale(0.015625)"/>
       <path id="DejaVuSans-47" d="M 2906 2969 
L 2906 4863 
L 3481 4863 
L 3481 0 
L 2906 0 
L 2906 525 
Q 2725 213 2448 61 
Q 2172 -91 1784 -91 
Q 1150 -91 751 415 
Q 353 922 353 1747 
Q 353 2572 751 3078 
Q 1150 3584 1784 3584 
Q 2172 3584 2448 3432 
Q 2725 3281 2906 2969 
z
M 947 1747 
Q 947 1113 1208 752 
Q 1469 391 1925 391 
Q 2381 391 2643 752 
Q 2906 1113 2906 1747 
Q 2906 2381 2643 2742 
Q 2381 3103 1925 3103 
Q 1469 3103 1208 2742 
Q 947 2381 947 1747 
z
" transform="scale(0.015625)"/>
      </defs>
      <use xlink:href="#DejaVuSans-36"/>
      <use xlink:href="#DejaVuSans-52" transform="translate(63.484375 0)"/>
      <use xlink:href="#DejaVuSans-50" transform="translate(124.671875 0)"/>
      <use xlink:href="#DejaVuSans-44" transform="translate(222.078125 0)"/>
      <use xlink:href="#DejaVuSans-4f" transform="translate(283.359375 0)"/>
      <use xlink:href="#DejaVuSans-4c" transform="translate(311.140625 0)"/>
      <use xlink:href="#DejaVuSans-4f" transform="translate(338.921875 0)"/>
      <use xlink:href="#DejaVuSans-44" transform="translate(366.703125 0)"/>
      <use xlink:href="#DejaVuSans-51" transform="translate(427.984375 0)"/>
      <use xlink:href="#DejaVuSans-47" transform="translate(491.359375 0)"/>
     </g>
    </g>
    <g id="patch_5">
     <path d="M 15.3 492.895234 
L 33.3 492.895234 
L 33.3 486.595234 
L 15.3 486.595234 
z
" style="fill: #bdc3c7; stroke: #888888; stroke-linejoin: miter"/>
    </g>
    <g id="text_5">
     <!-- Neighbors -->
     <g transform="translate(40.5 492.895234) scale(0.09 -0.09)">
      <defs>
       <path id="DejaVuSans-31" d="M 628 4666 
L 1478 4666 
L 3547 763 
L 3547 4666 
L 4159 4666 
L 4159 0 
L 3309 0 
L 1241 3903 
L 1241 0 
L 628 0 
L 628 4666 
z
" transform="scale(0.015625)"/>
       <path id="DejaVuSans-48" d="M 3597 1894 
L 3597 1613 
L 953 1613 
Q 991 1019 1311 708 
Q 1631 397 2203 397 
Q 2534 397 2845 478 
Q 3156 559 3463 722 
L 3463 178 
Q 3153 47 2828 -22 
Q 2503 -91 2169 -91 
Q 1331 -91 842 396 
Q 353 884 353 1716 
Q 353 2575 817 3079 
Q 1281 3584 2069 3584 
Q 2775 3584 3186 3129 
Q 3597 2675 3597 1894 
z
M 3022 2063 
Q 3016 2534 2758 2815 
Q 2500 3097 2075 3097 
Q 1594 3097 1305 2825 
Q 1016 2553 972 2059 
L 3022 2063 
z
" transform="scale(0.015625)"/>
       <path id="DejaVuSans-4a" d="M 2906 1791 
Q 2906 2416 2648 2759 
Q 2391 3103 1925 3103 
Q 1463 3103 1205 2759 
Q 947 2416 947 1791 
Q 947 1169 1205 825 
Q 1463 481 1925 481 
Q 2391 481 2648 825 
Q 2906 1169 2906 1791 
z
M 3481 434 
Q 3481 -459 3084 -895 
Q 2688 -1331 1869 -1331 
Q 1566 -1331 1297 -1286 
Q 1028 -1241 775 -1147 
L 775 -588 
Q 1028 -725 1275 -790 
Q 1522 -856 1778 -856 
Q 2344 -856 2625 -561 
Q 2906 -266 2906 331 
L 2906 616 
Q 2728 306 2450 153 
Q 2172 0 1784 0 
Q 1141 0 747 490 
Q 353 981 353 1791 
Q 353 2603 747 3093 
Q 1141 3584 1784 3584 
Q 2172 3584 2450 3431 
Q 2728 3278 2906 2969 
L 2906 3500 
L 3481 3500 
L 3481 434 
z
" transform="scale(0.015625)"/>
       <path id="DejaVuSans-4b" d="M 3513 2113 
L 3513 0 
L 2938 0 
L 2938 2094 
Q 2938 2591 2744 2837 
Q 2550 3084 2163 3084 
Q 1697 3084 1428 2787 
Q 1159 2491 1159 1978 
L 1159 0 
L 581 0 
L 581 4863 
L 1159 4863 
L 1159 2956 
Q 1366 3272 1645 3428 
Q 1925 3584 2291 3584 
Q 2894 3584 3203 3211 
Q 3513 2838 3513 2113 
z
" transform="scale(0.015625)"/>
       <path id="DejaVuSans-45" d="M 3116 1747 
Q 3116 2381 2855 2742 
Q 2594 3103 2138 3103 
Q 1681 3103 1420 2742 
Q 1159 2381 1159 1747 
Q 1159 1113 1420 752 
Q 1681 391 2138 391 
Q 2594 391 2855 752 
Q 3116 1113 3116 1747 
z
M 1159 2969 
Q 1341 3281 1617 3432 
Q 1894 3584 2278 3584 
Q 2916 3584 3314 3078 
Q 3713 2572 3713 1747 
Q 3713 922 3314 415 
Q 2916 -91 2278 -91 
Q 1894 -91 1617 61 
Q 1341 213 1159 525 
L 1159 0 
L 581 0 
L 581 4863 
L 1159 4863 
L 1159 2969 
z
" transform="scale(0.015625)"/>
       <path id="DejaVuSans-55" d="M 2631 2963 
Q 2534 3019 2420 3045 
Q 2306 3072 2169 3072 
Q 1681 3072 1420 2755 
Q 1159 2438 1159 1844 
L 1159 0 
L 581 0 
L 581 3500 
L 1159 3500 
L 1159 2956 
Q 1341 3275 1631 3429 
Q 1922 3584 2338 3584 
Q 2397 3584 2469 3576 
Q 2541 3569 2628 3553 
L 2631 2963 
z
" transform="scale(0.015625)"/>
       <path id="DejaVuSans-56" d="M 2834 3397 
L 2834 2853 
Q 2591 2978 2328 3040 
Q 2066 3103 1784 3103 
Q 1356 3103 1142 2972 
Q 928 2841 928 2578 
Q 928 2378 1081 2264 
Q 1234 2150 1697 2047 
L 1894 2003 
Q 2506 1872 2764 1633 
Q 3022 1394 3022 966 
Q 3022 478 2636 193 
Q 2250 -91 1575 -91 
Q 1294 -91 989 -36 
Q 684 19 347 128 
L 347 722 
Q 666 556 975 473 
Q 1284 391 1588 391 
Q 1994 391 2212 530 
Q 2431 669 2431 922 
Q 2431 1156 2273 1281 
Q 2116 1406 1581 1522 
L 1381 1569 
Q 847 1681 609 1914 
Q 372 2147 372 2553 
Q 372 3047 722 3315 
Q 1072 3584 1716 3584 
Q 2034 3584 2315 3537 
Q 2597 3491 2834 3397 
z
" transform="scale(0.015625)"/>
      </defs>
      <use xlink:href="#DejaVuSans-31"/>
      <use xlink:href="#DejaVuSans-48" transform="translate(74.8125 0)"/>
      <use xlink:href="#DejaVuSans-4c" transform="translate(136.34375 0)"/>
      <use xlink:href="#DejaVuSans-4a" transform="translate(164.125 0)"/>
      <use xlink:href="#DejaVuSans-4b" transform="translate(227.609375 0)"/>
      <use xlink:href="#DejaVuSans-45" transform="translate(290.984375 0)"/>
      <use xlink:href="#DejaVuSans-52" transform="translate(354.46875 0)"/>
      <use xlink:href="#DejaVuSans-55" transform="translate(415.65625 0)"/>
      <use xlink:href="#DejaVuSans-56" transform="translate(456.765625 0)"/>
     </g>
    </g>
   </g>
  </g>
 </g>
 <defs>
  <clipPath id="pe41721c0ac">
   <rect x="7.2" y="30.117344" width="662.804687" height="473.04"/>
  </clipPath>
 </defs>
</svg>
