<?xml version="1.0" encoding="utf-8" standalone="no"?>
<!DOCTYPE svg PUBLIC "-//W3C//DTD SVG 1.1//EN"
  "http://www.w3.org/Graphics/SVG/1.1/DTD/svg11.dtd">
<svg xmlns:xlink="http://www.w3.org/1999/xlink" width="403.460952pt" height="510.357344pt" viewBox="0 0 403.460952 510.357344" xmlns="http://www.w3.org/2000/svg" version="1.1">
 <metadata>
  <rdf:RDF xmlns:dc="http://purl.org/dc/elements/1.1/" xmlns:cc="http://creativecommons.org/ns#" xmlns:rdf="http://www.w3.org/1999/02/22-rdf-syntax-ns#">
   <cc:Work>
    <dc:type rdf:resource="http://purl.org/dc/dcmitype/StillImage"/>
    <dc:date>2026-06-19T08:36:07.066431</dc:date>
    <dc:format>image/svg+xml</dc:format>
    <dc:creator>
     <cc:Agent>
      <dc:title>Matplotlib v3.11.0, https://matplotlib.org/</dc:title>
     </cc:Agent>
    </dc:creator>
   </cc:Work>
  </rdf:RDF>
 </metadata>
 <defs>
  <style type="text/css">*{stroke-linejoin: round; stroke-linecap: butt}</style>
 </defs>
 <g id="figure_1">
  <g id="patch_1">
   <path d="M 0 510.357344 
L 403.460952 510.357344 
L 403.460952 0 
L 0 0 
z
" style="fill: #d6eaf8"/>
  </g>
  <g id="axes_1">
   <g id="PatchCollection_1">
    <path d="M -133.231849 196.075402 
L -133.140517 195.774315 
L -132.775186 195.430215 
L -132.775186 195.387203 
L -132.683854 195.129128 
L -132.501188 195.00009 
L -132.409856 194.828041 
L -132.318523 194.311891 
L -132.135858 194.053816 
L -131.86186 193.623692 
L -130.400538 192.161268 
L -130.217873 191.903193 
L -130.126541 191.645118 
L -130.035208 191.430056 
L -129.943875 191.301019 
L -129.213215 191.171981 
L -128.756552 190.956919 
L -128.482554 190.698844 
L -128.208556 190.354745 
L -128.208556 189.838595 
L -128.299889 189.709558 
L -128.573886 189.451483 
L -128.665219 189.322446 
L -128.665219 188.978346 
L -128.665219 188.720271 
L -128.573886 188.505209 
L -128.299889 188.204122 
L -128.117223 188.032072 
L -127.843226 187.946047 
L -127.66056 187.817009 
L -127.66056 187.47291 
L -128.025891 187.343872 
L -128.208556 187.214835 
L -128.391221 186.913748 
L -128.573886 186.741698 
L -128.756552 186.483623 
L -128.847884 186.182536 
L -128.847884 186.010486 
L -128.573886 185.537349 
L -128.573886 185.193249 
L -128.573886 185.107224 
L -128.847884 184.978187 
L -128.847884 184.892162 
L -128.847884 184.763125 
L -128.756552 184.591075 
L -128.665219 184.462037 
L -128.665219 184.031913 
L -128.665219 183.816851 
L -128.573886 183.644801 
L -128.208556 183.472751 
L -127.843226 183.386726 
L -127.569228 183.214676 
L -127.66056 183.085639 
L -127.751893 182.999614 
L -127.021232 182.354427 
L -126.564569 182.268402 
L -123.824591 182.870576 
L -123.550593 182.827564 
L -123.185263 182.526477 
L -123.002598 182.440452 
L -122.819932 182.440452 
L -122.454602 182.483464 
L -120.719282 182.311414 
L -120.536617 182.139365 
L -120.536617 182.05334 
L -120.62795 181.88129 
L -120.171287 181.838277 
L -119.714624 182.096352 
L -119.349293 182.397439 
L -118.983963 182.569489 
L -118.435967 182.483464 
L -118.070637 182.268402 
L -117.705307 182.139365 
L -117.248644 182.22539 
L -116.42665 182.870576 
L -115.878654 183.773838 
L -115.330659 184.462037 
L -114.143335 184.591075 
L -113.869337 184.548062 
L -113.778005 184.50505 
L -112.682013 183.601788 
L -112.408016 183.429738 
L -112.042685 183.257689 
L -111.586022 183.171664 
L -110.764029 183.042626 
L -109.302707 183.042626 
L -108.846044 182.913589 
L -108.298048 182.612502 
L -105.832068 180.375854 
L -105.284072 179.773679 
L -104.918742 179.214517 
L -104.827409 178.612343 
L -104.736077 178.010168 
L -105.101407 170.612025 
L -105.466738 163.256894 
L -105.832068 156.89105 
L -105.923401 154.955489 
L -105.101407 151.170393 
L -101.996099 142.352838 
L -100.443444 140.97644 
L -99.895449 140.11619 
L -99.804116 139.815103 
L -99.895449 139.212929 
L -99.895449 138.911842 
L -99.895449 138.782804 
L -99.621451 138.524729 
L -99.530118 138.395692 
L -99.347453 137.320381 
L -99.347453 136.159044 
L -100.534777 130.567424 
L -100.717442 129.492113 
L -100.534777 128.588851 
L -98.342794 125.534966 
L -97.338136 123.642418 
L -96.881473 123.126268 
L -96.516142 122.739156 
L -93.410834 120.631546 
L -92.954171 120.502508 
L -92.680173 120.588533 
L -89.574865 123.298318 
L -88.844204 123.771455 
L -88.570206 124.072543 
L -88.387541 124.459655 
L -88.478873 125.190867 
L -88.478873 125.577979 
L -88.204875 125.664004 
L -87.930878 125.491954 
L -87.65688 124.674717 
L -87.291549 124.416642 
L -86.926219 124.37363 
L -86.560889 124.459655 
L -86.286891 124.416642 
L -86.012893 124.02953 
L -85.830228 123.556393 
L -85.830228 123.255306 
L -85.738895 122.954219 
L -85.282232 122.524094 
L -83.912243 121.491795 
L -83.45558 120.846608 
L -83.272915 119.986359 
L -83.364247 119.599247 
L -84.186241 119.083097 
L -84.368906 118.738997 
L -84.368906 118.43791 
L -82.724919 113.577502 
L -82.633587 112.803278 
L -82.907584 112.244116 
L -83.364247 111.770979 
L -83.638245 111.082779 
L -83.546913 110.523617 
L -80.350271 103.555599 
L -80.258939 103.039449 
L -80.350271 102.566312 
L -80.898267 101.534013 
L -81.080932 101.017864 
L -80.9896 99.985565 
L -81.172265 98.996278 
L -81.172265 98.480128 
L -80.9896 97.877954 
L -80.715602 97.27578 
L -80.350271 96.673605 
L -79.984941 96.200468 
L -78.980282 95.555281 
L -78.432287 95.340219 
L -76.696967 94.695032 
L -75.966307 93.834783 
L -75.966307 93.61972 
L -75.874974 93.146583 
L -75.874974 93.017546 
L -75.874974 92.802484 
L -75.600976 92.544409 
L -74.68765 92.028259 
L -74.139654 91.469097 
L -73.956989 90.866923 
L -73.682991 89.447512 
L -73.226328 88.329188 
L -73.043663 88.071113 
L -72.769665 87.856051 
L -72.22167 87.554963 
L -71.947672 87.339901 
L -71.765007 86.995801 
L -71.673674 86.694714 
L -71.582342 85.963502 
L -71.308344 85.275303 
L -66.559048 77.404023 
L -66.376383 77.145948 
L -66.102385 77.059923 
L -65.645722 77.016911 
L -65.371724 76.930886 
L -65.189059 76.672811 
L -65.097727 76.414736 
L -65.006394 76.113649 
L -64.823729 75.468462 
L -64.823729 75.339425 
L -64.732396 75.2534 
L -64.458398 75.124362 
L -64.367066 75.08135 
L -63.727738 74.866288 
L -56.055799 73.790976 
L -55.873134 73.790976 
L -55.599136 73.833988 
L -55.416471 73.920013 
L -55.233805 74.049051 
L -55.05114 74.135076 
L -54.320479 74.350138 
L -53.955149 74.178088 
L -53.681151 73.704951 
L -53.224488 70.866129 
L -53.224488 70.220942 
L -53.315821 69.83383 
L -53.955149 68.844543 
L -53.955149 68.285381 
L -53.681151 67.855256 
L -53.224488 67.468144 
L -53.041823 67.081032 
L -53.041823 66.86597 
L -53.133156 66.650908 
L -53.315821 66.263795 
L -53.407153 65.747646 
L -50.941173 57.360216 
L -47.105204 52.026671 
L -46.922538 51.338471 
L -46.831206 49.876048 
L -46.739873 49.359898 
L -45.643882 46.822163 
L -45.187219 45.703839 
L -45.278552 44.413465 
L -45.735215 43.166104 
L -45.826547 42.520917 
L -45.91788 41.87573 
L -45.735215 41.359581 
L -43.451899 34.391562 
L -42.995236 34.391562 
L -42.812571 33.918425 
L -42.447241 33.66035 
L -42.08191 33.574325 
L -41.533915 33.531313 
L -41.168584 33.445288 
L -40.346591 33.101188 
L -39.889928 33.015163 
L -38.702604 33.015163 
L -38.519939 32.972151 
L -38.154608 32.714076 
L -37.880611 32.671064 
L -36.145291 32.671064 
L -35.323298 32.757088 
L -33.679311 33.230226 
L -32.857317 33.359263 
L -32.674652 33.445288 
L -32.217989 34.047462 
L -32.035324 34.219512 
L -31.852659 34.305537 
L -31.578661 34.391562 
L -31.304663 34.391562 
L -31.213331 34.348549 
L -30.848 34.047462 
L -30.574002 34.047462 
L -30.117339 34.090475 
L -29.934674 34.047462 
L -29.660676 33.8324 
L -29.386678 33.531313 
L -29.204013 33.101188 
L -29.112681 32.585039 
L -29.112681 31.982864 
L -29.021348 31.466715 
L -28.74735 30.950565 
L -28.38202 30.391403 
L -27.651359 29.875254 
L -26.829366 29.660191 
L -24.911381 29.703204 
L -24.363385 29.531154 
L -23.998055 29.445129 
L -23.358727 29.961278 
L -22.902064 30.262366 
L -21.988738 31.595752 
L -21.532075 31.982864 
L -21.440742 32.197926 
L -21.440742 32.585039 
L -21.440742 33.144201 
L -21.349409 33.445288 
L -20.984079 33.617338 
L -19.97942 34.477587 
L -19.888088 34.649637 
L -19.705422 35.122774 
L -19.522757 35.724948 
L -19.431425 36.026035 
L -19.066094 36.155073 
L -18.792096 36.198085 
L -18.609431 36.327123 
L -18.335433 36.499173 
L -18.335433 36.757247 
L -18.244101 37.402434 
L -18.152768 37.832559 
L -17.87877 38.133646 
L -17.422107 38.434733 
L -17.14811 38.133646 
L -16.234783 35.983023 
L -14.773462 32.585039 
L -13.129475 28.842955 
L -11.576821 25.014846 
L -9.932834 21.143724 
L -8.836843 18.692014 
L -8.38018 19.079126 
L -8.106182 19.509251 
L -7.649519 20.455525 
L -7.466853 20.54155 
L -7.284188 20.584562 
L -7.192856 20.670587 
L -7.192856 20.756612 
L -7.192856 21.057699 
L -7.192856 21.100712 
L -7.101523 21.315774 
L -7.01019 21.487824 
L -6.918858 21.573849 
L -6.64486 21.659874 
L -6.370862 21.831923 
L -6.27953 22.003973 
L -6.27953 22.262048 
L -6.096864 22.47711 
L -5.914199 22.64916 
L -3.174221 23.767484 
L -2.717558 23.853509 
L -1.256236 23.595434 
L -0.708241 23.638447 
L -0.251578 23.810497 
L -0.068913 24.111584 
L 0.113753 24.498696 
L 0.205085 24.627733 
L 0.296418 25.315933 
L 0.479083 25.574007 
L 0.661748 25.78907 
L 0.935746 25.96112 
L 1.209744 26.133169 
L 1.392409 26.477269 
L 1.666407 27.423543 
L 1.849072 27.89668 
L 2.12307 28.24078 
L 2.579733 28.58488 
L 3.858389 29.273079 
L 4.132387 29.488141 
L 4.315052 30.047303 
L 4.406385 30.262366 
L 4.771715 30.477428 
L 4.954381 30.52044 
L 5.137046 30.434416 
L 6.415702 30.477428 
L 8.333687 30.262366 
L 9.247013 30.004291 
L 10.891 29.187054 
L 11.347663 29.230067 
L 11.804326 29.359104 
L 12.260989 29.402116 
L 12.717652 29.359104 
L 13.265648 29.273079 
L 14.726969 28.627892 
L 15.914293 28.541867 
L 16.370956 28.24078 
L 17.19295 27.466556 
L 18.197608 26.993419 
L 18.745604 26.649319 
L 19.110934 26.219194 
L 19.202267 25.746057 
L 19.110934 25.27292 
L 19.202267 24.842796 
L 19.476265 24.541708 
L 19.567597 24.627733 
L 20.480923 24.713758 
L 21.211584 24.885808 
L 21.394249 24.971833 
L 22.033578 25.315933 
L 22.490241 25.78907 
L 22.946904 26.305219 
L 23.312234 26.864381 
L 24.042895 28.971992 
L 24.590891 29.918266 
L 25.138886 29.875254 
L 25.778214 29.015004 
L 26.052212 28.713917 
L 26.69154 28.627892 
L 28.061529 28.842955 
L 28.609525 28.799942 
L 30.618842 28.24078 
L 31.714834 27.767643 
L 32.171497 27.165469 
L 32.354162 26.649319 
L 32.810825 26.649319 
L 33.267488 26.950406 
L 33.632818 27.251493 
L 34.180814 27.853668 
L 34.363479 28.025718 
L 34.454812 28.06873 
L 35.824801 28.455842 
L 36.464129 28.541867 
L 37.651453 28.326805 
L 37.925451 28.283793 
L 38.747444 28.24078 
L 39.478105 28.498855 
L 40.208766 28.928979 
L 41.487422 30.090316 
L 41.944085 30.262366 
L 42.400748 30.348391 
L 42.857411 30.176341 
L 43.679405 29.531154 
L 44.136068 29.445129 
L 44.592731 29.531154 
L 45.232059 29.617179 
L 45.597389 29.617179 
L 46.876046 29.230067 
L 47.332709 29.230067 
L 49.524691 29.789229 
L 50.712015 30.219353 
L 51.625341 30.821528 
L 53.634659 32.585039 
L 55.369978 34.133487 
L 56.8313 34.907711 
L 59.479945 36.155073 
L 60.210606 36.370135 
L 62.493921 36.714235 
L 64.229241 37.316409 
L 65.781895 38.434733 
L 68.43054 41.359581 
L 71.079186 44.370453 
L 73.088503 47.768437 
L 74.915155 50.908347 
L 75.645816 51.639559 
L 79.025122 53.790182 
L 83.50042 56.542979 
L 86.149066 58.693602 
L 88.06705 60.285063 
L 89.071709 61.27435 
L 89.893702 62.392674 
L 90.715696 63.72606 
L 92.725013 67.898269 
L 94.00367 69.747805 
L 96.012987 70.995166 
L 97.474309 71.59734 
L 98.844298 72.371565 
L 100.031621 73.403864 
L 101.766941 76.156661 
L 103.776258 78.909459 
L 104.963582 80.199833 
L 103.50226 82.221418 
L 102.680267 83.898904 
L 99.300961 88.458225 
L 98.93563 89.361487 
L 98.752965 89.662574 
L 98.113637 89.963661 
L 97.839639 90.264748 
L 96.83498 92.157297 
L 94.73433 95.082144 
L 93.729672 96.458543 
L 93.455674 96.716618 
L 93.090344 97.017705 
L 92.816346 97.189755 
L 92.451015 97.27578 
L 92.26835 97.404817 
L 92.177017 97.748917 
L 91.90302 98.093016 
L 90.898361 98.523141 
L 90.533031 98.781216 
L 90.076368 99.598452 
L 89.80237 101.534013 
L 88.980376 103.813674 
L 89.071709 105.233085 
L 89.711037 108.157932 
L 89.985035 110.91073 
L 89.893702 115.81415 
L 89.80237 116.889462 
L 89.345707 117.620673 
L 89.437039 117.792723 
L 89.619705 118.050798 
L 90.259033 118.26586 
L 93.273009 118.868035 
L 93.364341 118.997072 
L 93.455674 119.169122 
L 93.547007 119.298159 
L 93.821004 119.341172 
L 93.912337 119.212135 
L 94.00367 119.083097 
L 94.186335 119.040085 
L 95.647656 118.95406 
L 96.378317 118.78201 
L 97.108978 118.007786 
L 97.839639 117.792723 
L 99.209628 117.620673 
L 100.488284 117.921761 
L 101.03628 117.921761 
L 101.310278 117.835736 
L 102.223604 117.448624 
L 102.497602 117.405611 
L 102.954265 117.448624 
L 103.13693 117.405611 
L 103.958923 117.147536 
L 104.506919 117.233561 
L 104.963582 117.362599 
L 105.328912 117.362599 
L 105.876908 117.147536 
L 107.520895 116.029212 
L 109.80421 115.341013 
L 110.808869 115.254988 
L 110.991534 115.254988 
L 112.818186 115.685113 
L 113.366182 115.685113 
L 113.914177 115.857163 
L 114.553505 117.276574 
L 114.918836 117.620673 
L 115.558164 117.749711 
L 116.562823 117.835736 
L 117.202151 118.050798 
L 117.567481 118.093811 
L 117.932812 117.964773 
L 118.20681 117.663686 
L 118.389475 117.405611 
L 118.846138 117.577661 
L 118.480807 118.093811 
L 118.20681 119.169122 
L 118.024144 119.599247 
L 117.658814 119.943346 
L 116.562823 120.373471 
L 116.197492 120.760583 
L 115.923495 121.276733 
L 115.832162 121.706857 
L 115.740829 122.093969 
L 115.284166 122.524094 
L 114.37084 123.255306 
L 114.096842 123.642418 
L 113.822845 124.287605 
L 113.640179 125.319904 
L 113.457514 125.793041 
L 113.092184 126.223166 
L 112.635521 126.524253 
L 112.087525 126.65329 
L 111.813527 126.911365 
L 111.813527 127.427515 
L 112.361523 128.588851 
L 113.000851 129.62115 
L 114.37084 130.997549 
L 114.827503 131.513698 
L 115.101501 132.201898 
L 115.375499 134.524571 
L 115.923495 136.159044 
L 116.562823 137.707493 
L 117.293484 138.481717 
L 119.668131 140.073178 
L 120.30746 140.675352 
L 120.764123 141.406564 
L 121.03812 142.266813 
L 121.312118 143.08405 
L 121.768781 144.288399 
L 122.499442 144.976599 
L 123.412768 145.363711 
L 124.508759 145.535761 
L 125.513418 145.965885 
L 125.970081 146.783122 
L 126.700742 150.869306 
L 127.066072 151.858592 
L 127.614068 152.460767 
L 128.344729 152.632817 
L 128.527394 152.761854 
L 128.710059 153.019929 
L 128.984057 153.536078 
L 129.166722 153.837165 
L 129.44072 154.052228 
L 129.897383 154.396327 
L 130.171381 154.61139 
L 130.719376 155.772726 
L 130.902042 156.245863 
L 130.902042 157.0631 
L 131.084707 157.57925 
L 131.358705 157.966362 
L 132.728694 158.740586 
L 134.646678 159.901922 
L 135.103341 159.944935 
L 135.74267 159.729873 
L 136.199333 159.68686 
L 136.47333 159.901922 
L 138.482648 161.665433 
L 140.765963 163.730031 
L 143.962604 166.654879 
L 145.697923 168.24634 
L 146.702582 168.848514 
L 148.803232 169.536714 
L 150.995214 170.267925 
L 153.187197 170.999137 
L 155.470512 171.730349 
L 157.662495 172.461561 
L 159.94581 173.192773 
L 162.137792 173.923985 
L 164.421107 174.655196 
L 166.61309 175.429421 
L 168.896405 176.160633 
L 171.088387 176.891844 
L 173.371702 177.623056 
L 175.563685 178.354268 
L 177.847 179.08548 
L 180.038983 179.816692 
L 182.322298 180.547904 
L 184.51428 181.322128 
L 186.706263 182.010327 
L 188.806913 182.741539 
L 190.907562 183.429738 
L 193.099545 184.16095 
L 195.200195 184.892162 
L 197.300845 185.580361 
L 199.401495 186.311573 
L 201.593477 187.042785 
L 203.694127 187.730985 
L 205.794777 188.462196 
L 207.986759 189.193408 
L 210.087409 189.881608 
L 212.188059 190.612819 
L 214.380042 191.344031 
L 216.480692 192.032231 
L 218.581341 192.763442 
L 220.225328 193.279592 
L 221.68665 194.053816 
L 223.969965 194.053816 
L 227.531937 194.053816 
L 231.550571 194.053816 
L 235.477873 194.053816 
L 238.85718 194.053816 
L 243.42381 194.053816 
L 247.077114 194.053816 
L 245.798457 195.215153 
L 244.611134 196.419502 
L 243.332477 197.62385 
L 242.145153 198.828199 
L 240.866497 199.989536 
L 239.679173 201.193885 
L 238.400516 202.398234 
L 237.213193 203.602583 
L 235.934536 204.763919 
L 235.751871 205.021994 
L 234.747212 205.968268 
L 233.468556 207.172617 
L 232.281232 208.376966 
L 231.002576 209.538302 
L 229.815252 210.742651 
L 228.536595 211.947 
L 227.349271 213.151349 
L 226.070615 214.312685 
L 224.883291 215.517034 
L 223.604635 216.721383 
L 222.417311 217.925732 
L 221.138654 219.130081 
L 219.95133 220.291417 
L 218.672674 221.495766 
L 217.48535 222.700115 
L 216.206694 223.904464 
L 215.01937 225.0658 
L 213.740713 226.270149 
L 212.55339 227.474498 
L 212.005394 227.947635 
L 210.909403 229.065959 
L 209.722079 230.184283 
L 209.265416 230.65742 
L 208.71742 231.17357 
L 207.621429 232.248881 
L 206.068775 233.840342 
L 204.51612 235.431803 
L 202.963466 237.023265 
L 201.410812 238.614726 
L 199.858158 240.206187 
L 198.305503 241.797648 
L 196.752849 243.389109 
L 195.200195 244.98057 
L 192.551549 247.94843 
L 189.811571 250.959302 
L 187.071593 253.927162 
L 184.605613 256.593934 
L 184.331615 256.938034 
L 181.591637 259.905894 
L 178.942991 262.873753 
L 176.203013 265.884626 
L 173.463035 268.852485 
L 172.001713 270.443947 
L 169.992396 272.637582 
L 169.261735 272.938669 
L 167.891746 272.852644 
L 166.61309 272.766619 
L 165.243101 272.680594 
L 163.964444 272.637582 
L 162.594455 272.551557 
L 161.315799 272.465532 
L 161.224466 272.465532 
L 160.037142 272.379507 
L 158.667153 272.336495 
L 157.388497 272.25047 
L 156.018508 272.164445 
L 154.739851 272.07842 
L 153.461195 271.992395 
L 152.091206 271.949383 
L 150.812549 271.863358 
L 149.44256 271.777333 
L 148.163904 271.691308 
L 146.885247 271.648295 
L 145.332593 271.562271 
L 144.419267 271.777333 
L 142.227284 272.551557 
L 141.405291 272.723607 
L 138.939311 273.282769 
L 137.021326 273.755906 
L 134.190015 274.401093 
L 132.363363 275.21833 
L 129.532053 276.594728 
L 126.609409 277.971127 
L 123.778098 279.347526 
L 121.677449 281.111037 
L 119.759464 282.659485 
L 119.576799 282.91756 
L 119.394133 283.175635 
L 119.028803 284.035884 
L 118.57214 285.842407 
L 118.20681 286.659644 
L 117.476149 287.476881 
L 117.384816 287.519893 
L 116.47149 288.122068 
L 115.375499 288.552193 
L 113.640179 288.896292 
L 109.80421 289.541479 
L 105.876908 290.186666 
L 102.954265 290.702816 
L 101.03628 290.702816 
L 98.844298 290.745828 
L 98.022304 290.96089 
L 97.108978 291.391015 
L 95.647656 292.552351 
L 93.912337 293.627663 
L 93.455674 294.057787 
L 93.273009 294.530925 
L 93.273009 295.305149 
L 93.181676 295.649249 
L 92.816346 295.907323 
L 92.451015 296.423473 
L 91.172359 297.111672 
L 90.076368 296.89661 
L 88.980376 296.294435 
L 87.793052 295.907323 
L 86.697061 296.55251 
L 86.331731 296.638535 
L 85.9664 296.55251 
L 85.327072 296.294435 
L 84.870409 296.251423 
L 82.861092 296.767573 
L 82.221764 296.767573 
L 80.943107 297.154685 
L 78.020464 297.326734 
L 75.463151 297.455772 
L 74.184494 297.283722 
L 72.905838 296.810585 
L 71.809847 295.907323 
L 70.16586 293.627663 
L 69.526532 293.025488 
L 69.069869 292.767414 
L 67.882545 292.380302 
L 67.425882 292.122227 
L 67.151884 291.864152 
L 66.695221 291.089928 
L 66.147225 290.358716 
L 64.594571 289.326417 
L 64.046575 288.595205 
L 62.402589 289.627504 
L 60.301939 290.444741 
L 57.653293 291.47704 
L 54.365319 292.767414 
L 54.182654 292.896451 
L 54.091322 293.283563 
L 53.908656 293.412601 
L 51.899339 294.143812 
L 49.342026 295.004062 
L 49.250694 295.047074 
L 49.159361 295.004062 
L 49.159361 294.961049 
L 48.885363 294.918037 
L 48.885363 295.047074 
L 48.885363 295.219124 
L 48.794031 295.348161 
L 47.606707 295.907323 
L 45.140726 297.111672 
L 42.948744 298.186984 
L 40.756761 299.219283 
L 40.300098 299.86447 
L 39.752103 301.197856 
L 39.112775 303.047392 
L 38.656112 303.864629 
L 38.199449 304.466803 
L 36.190131 306.316339 
L 34.546144 307.821775 
L 33.815484 308.639012 
L 33.267488 310.316498 
L 32.902157 311.004697 
L 32.080164 311.047709 
L 31.623501 310.789635 
L 31.440836 310.445535 
L 31.349503 310.101435 
L 31.075505 309.800348 
L 30.344845 309.542273 
L 27.148203 309.456248 
L 27.422201 308.983111 
L 27.239536 308.725037 
L 26.965538 308.682024 
L 26.782873 308.768049 
L 25.778214 309.370224 
L 24.864888 309.370224 
L 23.86023 309.155161 
L 21.576915 308.122862 
L 21.211584 307.950812 
L 21.028919 307.9078 
L 19.567597 308.208887 
L 19.110934 308.208887 
L 18.745604 308.07985 
L 18.380273 307.993825 
L 17.284282 308.208887 
L 16.644954 308.2519 
L 14.726969 307.73575 
L 12.260989 307.047551 
L 11.712993 306.789476 
L 11.347663 306.359351 
L 10.708335 305.45609 
L 10.708335 305.628139 
L 10.617002 306.015252 
L 10.617002 306.187301 
L 9.15568 306.058264 
L 9.064348 305.972239 
L 8.973015 305.843202 
L 8.973015 305.757177 
L 8.607685 305.886214 
L 8.42502 305.929227 
L 8.151022 305.886214 
L 7.785691 305.800189 
L 7.694359 305.628139 
L 7.603026 305.45609 
L 7.420361 305.198015 
L 6.963698 304.810903 
L 6.781033 304.724878 
L 6.598368 304.853915 
L 6.507035 305.068977 
L 6.507035 305.28404 
L 6.507035 305.413077 
L 5.228378 305.972239 
L 3.767057 306.101276 
L 1.118411 305.800189 
L -1.621567 305.499102 
L -2.44356 305.542114 
L -3.174221 305.757177 
L -3.539552 305.714164 
L -4.087547 305.198015 
L -4.818208 304.982953 
L -5.183538 304.76789 
L -5.548869 304.337766 
L -6.188197 303.262454 
L -6.736193 302.789317 
L -7.466853 302.31618 
L -10.024166 300.681706 
L -12.398814 299.133258 
L -15.04746 297.412759 
L -17.330775 295.907323 
L -19.431425 294.573937 
L -22.354068 292.724401 
L -24.820048 291.13294 
L -27.286029 289.541479 
L -28.656018 288.638217 
L -28.74735 288.595205 
L -28.930015 288.595205 
L -29.021348 288.595205 
L -29.112681 288.466168 
L -29.295346 287.863993 
L -29.386678 287.648931 
L -29.569344 287.390856 
L -29.752009 287.347844 
L -30.208672 287.390856 
L -30.391337 287.261819 
L -30.848 286.573619 
L -31.030665 286.401569 
L -32.126657 286.143495 
L -33.953309 285.240233 
L -35.41463 284.810108 
L -40.346591 284.853121 
L -40.529256 284.810108 
L -40.894587 284.595046 
L -41.168584 284.552034 
L -45.095886 284.638059 
L -49.845182 284.724083 
L -50.11918 284.681071 
L -50.575843 284.466009 
L -50.84984 284.379984 
L -51.123838 284.379984 
L -51.945832 284.509021 
L -55.690468 284.552034 
L -55.781801 284.552034 
L -56.329797 284.379984 
L -56.877792 284.035884 
L -57.882451 283.175635 
L -58.339114 282.91756 
L -58.521779 282.530448 
L -58.521779 282.100323 
L -58.430447 281.584174 
L -58.430447 281.111037 
L -58.795777 280.508862 
L -58.88711 280.078738 
L -62.266416 276.379666 
L -62.905744 275.304355 
L -63.179742 274.100006 
L -62.997077 268.766461 
L -62.905744 268.422361 
L -61.901085 267.175 
L -61.71842 266.701862 
L -61.71842 266.1427 
L -61.992418 265.540526 
L -62.449081 264.594252 
L -62.540414 264.078102 
L -62.357749 263.475928 
L -61.71842 262.486641 
L -61.809753 262.271579 
L -63.179742 261.712417 
L -64.823729 260.680118 
L -65.55439 260.508068 
L -66.011053 260.637105 
L -66.467716 260.852168 
L -67.015711 260.981205 
L -67.65504 260.809155 
L -68.751031 259.905894 
L -69.299026 259.604806 
L -69.755689 259.475769 
L -70.303685 259.389744 
L -70.851681 259.389744 
L -71.308344 259.475769 
L -71.856339 259.862881 
L -72.860998 260.981205 
L -73.500326 261.41133 
L -74.048322 261.497355 
L -74.504985 261.282292 
L -74.961648 260.852168 
L -75.783641 259.518781 
L -75.874974 259.303719 
L -75.783641 258.95962 
L -75.600976 258.701545 
L -75.418311 258.44347 
L -75.235646 258.142383 
L -75.418311 257.841296 
L -75.600976 257.325146 
L -76.514302 256.550922 
L -78.614952 255.346573 
L -79.710943 254.529336 
L -79.984941 254.013187 
L -80.167606 252.550763 
L -80.532937 251.862563 
L -82.633587 248.937716 
L -82.816252 248.378554 
L -82.907584 248.034454 
L -82.816252 247.77638 
L -82.816252 247.475292 
L -82.724919 247.131193 
L -82.816252 246.830106 
L -83.181582 246.399981 
L -83.364247 246.098894 
L -83.364247 245.797807 
L -83.272915 245.539732 
L -82.998917 244.98057 
L -82.998917 244.679483 
L -83.272915 243.303084 
L -83.45558 242.829947 
L -83.912243 242.270785 
L -84.368906 241.84066 
L -84.734236 241.367523 
L -85.282232 240.120162 
L -86.195558 238.571713 
L -86.286891 238.055564 
L -86.286891 236.550127 
L -86.469556 235.904941 
L -87.474215 234.14143 
L -87.65688 233.62528 
L -87.930878 232.162856 
L -88.478873 230.743445 
L -88.752871 229.711146 
L -88.935536 228.635835 
L -89.118201 228.54981 
L -89.483532 228.20571 
L -89.574865 227.732573 
L -89.75753 227.431486 
L -91.492849 226.313162 
L -91.85818 226.141112 
L -92.406175 226.055087 
L -93.502166 226.055087 
L -93.958829 225.969062 
L -94.232827 225.710987 
L -94.415493 224.678688 
L -94.506825 224.549651 
L -94.598158 224.291576 
L -94.598158 224.162539 
L -94.598158 224.119526 
L -94.32416 223.947476 
L -94.232827 223.904464 
L -94.32416 223.388314 
L -94.415493 222.95819 
L -94.598158 222.571078 
L -94.780823 222.226978 
L -96.42481 221.065642 
L -99.986781 220.205392 
L -100.078114 220.119367 
L -100.260779 220.033343 
L -100.443444 219.947318 
L -100.62611 219.474181 
L -100.717442 219.345143 
L -101.722101 218.570919 
L -101.996099 218.269832 
L -102.178764 218.097782 
L -102.361429 218.054769 
L -102.544094 217.796695 
L -102.635427 217.19452 
L -102.635427 216.936445 
L -102.635427 216.119209 
L -102.726759 215.603059 
L -103.000757 215.172934 
L -103.366088 214.957872 
L -103.731418 215.172934 
L -104.188081 215.258959 
L -104.736077 214.91486 
L -105.375405 214.05461 
L -106.562729 213.108336 
L -106.745394 213.065324 
L -106.836727 212.936287 
L -106.836727 210.527589 
L -107.019392 209.667339 
L -107.384722 208.97914 
L -110.581363 205.753206 
L -111.312024 205.323081 
L -111.586022 205.280068 
L -112.134018 205.194044 
L -112.408016 205.151031 
L -113.686672 204.204757 
L -114.417333 203.086433 
L -114.782663 202.699321 
L -115.056661 202.570283 
L -115.787322 202.355221 
L -116.517983 201.882084 
L -116.79198 201.796059 
L -118.435967 201.968109 
L -118.983963 201.796059 
L -119.257961 201.624009 
L -119.623291 201.150872 
L -119.805956 200.93581 
L -120.079954 200.806773 
L -120.536617 200.677735 
L -120.810615 200.505685 
L -121.267278 200.333636 
L -121.906606 200.376648 
L -123.002598 200.59171 
L -123.185263 200.677735 
L -123.824591 201.10786 
L -124.098589 201.10786 
L -125.55991 200.76376 
L -126.016573 200.333636 
L -126.381904 199.860498 
L -126.838567 199.516399 
L -127.021232 199.473386 
L -127.843226 199.344349 
L -128.573886 199.043262 
L -128.756552 199.000249 
L -129.578545 199.215312 
L -129.76121 199.258324 
L -129.852543 199.473386 
L -130.217873 199.430374 
L -130.765869 199.172299 
L -131.49653 199.086274 
L -131.679195 199.000249 
L -131.770528 198.871212 
L -131.86186 198.613137 
L -131.953193 198.398075 
L -132.318523 198.14 
L -132.592521 197.752888 
z
" clip-path="url(#p1cf06ba0c1)" style="fill: #bdc3c7; stroke: #ffffff; stroke-width: 0.5"/>
    <path d="M -110.398698 395.438157 
L -110.307366 394.922008 
L -108.846044 392.943435 
L -108.572046 392.68536 
L -106.562729 389.932562 
L -105.649403 389.244363 
L -105.375405 388.900263 
L -105.375405 388.384114 
L -105.649403 387.43784 
L -105.649403 386.964703 
L -105.55807 386.74964 
L -105.101407 386.233491 
L -104.918742 385.975416 
L -104.827409 385.760354 
L -104.279414 383.222619 
L -104.188081 383.136594 
L -103.822751 382.362369 
L -103.000757 381.84622 
L -101.996099 381.459108 
L -101.174105 381.028983 
L -100.534777 380.383796 
L -100.169447 379.308485 
L -100.078114 378.70631 
L -99.986781 378.405223 
L -99.804116 378.147148 
L -98.160129 377.329911 
L -97.703466 376.942799 
L -97.338136 375.9105 
L -96.607475 374.964226 
L -95.968147 373.329753 
L -95.876814 372.813603 
L -95.785482 371.695279 
L -95.694149 371.136117 
L -95.511484 370.619968 
L -95.237486 370.146831 
L -94.68949 369.630681 
L -94.32416 369.759718 
L -93.867497 369.974781 
L -93.410834 369.888756 
L -93.319501 369.888756 
L -93.228169 369.630681 
L -93.045503 369.415619 
L -93.045503 368.856457 
L -92.862838 368.38332 
L -91.584182 368.082232 
L -90.762188 367.264996 
L -90.214193 366.920896 
L -88.113543 366.705834 
L -87.382882 366.361734 
L -87.017552 365.329435 
L -87.291549 364.297136 
L -87.748212 363.264837 
L -87.748212 362.7917 
L -87.839545 362.361575 
L -86.286891 361.114214 
L -85.738895 359.049616 
L -85.1909 358.189366 
L -84.916902 358.060329 
L -84.368906 357.974304 
L -84.186241 357.845267 
L -83.912243 357.587192 
L -83.729578 357.286105 
L -82.907584 355.608619 
L -82.724919 355.049457 
L -82.724919 350.103024 
L -82.633587 349.801937 
L -82.176924 349.15675 
L -82.085591 348.898675 
L -82.176924 348.6406 
L -82.816252 348.081438 
L -82.998917 347.780351 
L -83.181582 347.350226 
L -83.272915 346.834077 
L -83.272915 346.317927 
L -83.272915 345.801778 
L -82.998917 344.683454 
L -82.998917 344.210317 
L -84.186241 341.414507 
L -84.642904 340.296183 
L -85.647563 337.930497 
L -85.830228 336.941211 
L -85.55623 336.296024 
L -85.099567 335.951924 
L -84.551571 335.650837 
L -84.186241 335.220712 
L -84.186241 334.618538 
L -84.368906 334.188413 
L -85.099567 333.500214 
L -85.1909 332.984064 
L -85.373565 331.736703 
L -85.647563 331.392603 
L -85.830228 331.435616 
L -86.012893 331.607666 
L -86.195558 331.822728 
L -86.560889 331.779716 
L -86.834886 331.564653 
L -87.839545 329.328005 
L -88.296208 327.091357 
L -88.752871 325.499896 
L -88.844204 325.284834 
L -89.026869 325.069772 
L -89.209534 325.026759 
L -89.940195 324.68266 
L -89.940195 324.596635 
L -90.031528 324.553622 
L -90.031528 324.467597 
L -90.12286 324.381572 
L -90.214193 324.33856 
L -90.305525 324.381572 
L -90.396858 324.596635 
L -90.396858 324.639647 
L -90.579523 324.68266 
L -90.853521 324.897722 
L -90.944854 324.983747 
L -91.310184 324.897722 
L -91.584182 324.639647 
L -91.949512 324.037473 
L -92.771506 323.134211 
L -93.045503 322.704086 
L -93.776164 318.832965 
L -94.050162 318.316815 
L -94.598158 317.929703 
L -95.785482 317.585604 
L -96.333477 317.241504 
L -96.607475 316.682342 
L -96.79014 313.542432 
L -97.155471 312.553146 
L -97.338136 312.252058 
L -97.612134 311.993984 
L -97.794799 311.735909 
L -97.794799 311.434822 
L -97.794799 311.133734 
L -97.520801 310.488547 
L -97.429468 310.273485 
L -97.612134 309.972398 
L -97.886131 309.456248 
L -97.886131 309.155161 
L -97.794799 308.940099 
L -97.520801 308.854074 
L -97.246803 308.768049 
L -97.064138 308.639012 
L -96.516142 307.9078 
L -96.333477 306.875501 
L -96.242145 304.853915 
L -96.42481 304.294753 
L -96.79014 304.079691 
L -97.246803 303.907641 
L -97.794799 303.649566 
L -98.616792 302.789317 
L -99.073455 302.617267 
L -99.712784 302.789317 
L -99.986781 303.047392 
L -100.078114 303.305467 
L -100.169447 303.391491 
L -100.534777 303.219442 
L -100.900107 302.187143 
L -101.448103 301.498943 
L -101.448103 301.369906 
L -101.722101 301.369906 
L -102.270096 301.498943 
L -102.726759 301.541956 
L -103.183422 301.670993 
L -103.366088 301.670993 
L -103.731418 301.541956 
L -103.548753 301.369906 
L -103.000757 301.025806 
L -103.366088 300.638694 
L -103.731418 300.509657 
L -103.822751 300.337607 
L -102.635427 299.735432 
L -102.270096 299.391333 
L -102.361429 299.047233 
L -102.909425 298.746146 
L -103.45742 298.746146 
L -104.462079 299.090245 
L -104.827409 299.17627 
L -105.466738 298.961208 
L -105.375405 298.531083 
L -105.101407 297.928909 
L -104.827409 297.283722 
L -104.827409 296.853597 
L -105.19274 296.595523 
L -105.55807 296.337448 
L -105.832068 296.036361 
L -106.014733 295.649249 
L -106.014733 295.391174 
L -105.923401 295.133099 
L -105.832068 294.788999 
L -105.740735 294.186825 
L -105.740735 293.885738 
L -105.832068 293.58465 
L -106.014733 293.326576 
L -106.288731 293.068501 
L -106.562729 292.767414 
L -106.562729 292.423314 
L -106.562729 291.64909 
L -106.836727 291.046915 
L -107.384722 290.616791 
L -108.206716 290.229678 
L -105.55807 287.691943 
L -103.000757 285.154208 
L -100.443444 282.57346 
L -97.886131 280.035725 
L -95.876814 279.003426 
L -94.141495 278.100165 
L -92.406175 277.239915 
L -90.670856 276.336654 
L -88.204875 275.433392 
L -86.104226 274.659168 
L -84.186241 273.927956 
L -82.176924 273.153732 
L -79.802276 272.293482 
L -77.701626 271.519258 
L -75.966307 270.831059 
L -75.509643 271.691308 
L -73.774324 270.702021 
L -71.765007 269.583697 
L -71.217011 270.271897 
L -72.130337 272.25047 
L -69.664357 272.25047 
L -67.746372 272.809632 
L -68.933696 275.949542 
L -67.929037 277.84209 
L -66.741713 280.035725 
L -66.650381 280.078738 
L -64.458398 280.852962 
L -64.275733 280.078738 
L -64.275733 280.035725 
L -64.184401 279.003426 
L -63.45374 278.487277 
L -62.449081 278.573302 
L -62.357749 280.035725 
L -60.439764 280.078738 
L -58.88711 280.078738 
L -58.795777 280.508862 
L -58.430447 281.111037 
L -58.430447 281.584174 
L -58.521779 282.100323 
L -58.521779 282.530448 
L -58.339114 282.91756 
L -57.882451 283.175635 
L -56.877792 284.035884 
L -56.329797 284.379984 
L -55.781801 284.552034 
L -55.690468 284.552034 
L -51.945832 284.509021 
L -51.123838 284.379984 
L -50.84984 284.379984 
L -50.575843 284.466009 
L -50.11918 284.681071 
L -49.845182 284.724083 
L -45.095886 284.638059 
L -41.168584 284.552034 
L -40.894587 284.595046 
L -40.529256 284.810108 
L -40.346591 284.853121 
L -35.41463 284.810108 
L -33.953309 285.240233 
L -32.126657 286.143495 
L -31.030665 286.401569 
L -30.848 286.573619 
L -30.391337 287.261819 
L -30.208672 287.390856 
L -29.752009 287.347844 
L -29.569344 287.390856 
L -29.386678 287.648931 
L -29.295346 287.863993 
L -29.112681 288.466168 
L -29.021348 288.595205 
L -28.930015 288.595205 
L -28.74735 288.595205 
L -28.656018 288.638217 
L -27.286029 289.541479 
L -24.820048 291.13294 
L -22.354068 292.724401 
L -19.431425 294.573937 
L -17.330775 295.907323 
L -15.04746 297.412759 
L -12.398814 299.133258 
L -10.024166 300.681706 
L -7.466853 302.31618 
L -6.736193 302.789317 
L -6.188197 303.262454 
L -5.548869 304.337766 
L -5.183538 304.76789 
L -4.818208 304.982953 
L -4.087547 305.198015 
L -3.539552 305.714164 
L -3.174221 305.757177 
L -2.44356 305.542114 
L -1.621567 305.499102 
L 1.118411 305.800189 
L 3.767057 306.101276 
L 5.228378 305.972239 
L 6.507035 305.413077 
L 6.507035 305.28404 
L 6.507035 305.068977 
L 6.598368 304.853915 
L 6.781033 304.724878 
L 6.963698 304.810903 
L 7.420361 305.198015 
L 7.603026 305.45609 
L 7.694359 305.628139 
L 7.785691 305.800189 
L 8.151022 305.886214 
L 8.42502 305.929227 
L 8.607685 305.886214 
L 8.973015 305.757177 
L 8.973015 305.843202 
L 9.064348 305.972239 
L 9.15568 306.058264 
L 10.617002 306.187301 
L 10.617002 306.015252 
L 10.708335 305.628139 
L 10.708335 305.45609 
L 11.347663 306.359351 
L 11.712993 306.789476 
L 12.260989 307.047551 
L 14.726969 307.73575 
L 16.644954 308.2519 
L 17.284282 308.208887 
L 18.380273 307.993825 
L 18.745604 308.07985 
L 19.110934 308.208887 
L 19.567597 308.208887 
L 21.028919 307.9078 
L 21.211584 307.950812 
L 21.576915 308.122862 
L 23.86023 309.155161 
L 24.864888 309.370224 
L 25.778214 309.370224 
L 26.782873 308.768049 
L 26.965538 308.682024 
L 27.239536 308.725037 
L 27.422201 308.983111 
L 27.148203 309.456248 
L 30.344845 309.542273 
L 31.075505 309.800348 
L 31.349503 310.101435 
L 31.440836 310.445535 
L 31.623501 310.789635 
L 32.080164 311.047709 
L 32.902157 311.004697 
L 33.267488 310.316498 
L 33.815484 308.639012 
L 34.546144 307.821775 
L 36.190131 306.316339 
L 38.199449 304.466803 
L 38.656112 303.864629 
L 39.112775 303.047392 
L 39.752103 301.197856 
L 40.300098 299.86447 
L 40.756761 299.219283 
L 42.948744 298.186984 
L 45.140726 297.111672 
L 47.606707 295.907323 
L 48.794031 295.348161 
L 48.885363 295.219124 
L 48.885363 295.047074 
L 48.885363 294.918037 
L 49.159361 294.961049 
L 49.159361 295.004062 
L 49.250694 295.047074 
L 49.342026 295.004062 
L 51.899339 294.143812 
L 53.908656 293.412601 
L 54.091322 293.283563 
L 54.182654 292.896451 
L 54.365319 292.767414 
L 57.653293 291.47704 
L 60.301939 290.444741 
L 62.402589 289.627504 
L 64.046575 288.595205 
L 64.594571 289.326417 
L 66.147225 290.358716 
L 66.695221 291.089928 
L 67.151884 291.864152 
L 67.425882 292.122227 
L 67.882545 292.380302 
L 69.069869 292.767414 
L 69.526532 293.025488 
L 70.16586 293.627663 
L 71.809847 295.907323 
L 72.905838 296.810585 
L 74.184494 297.283722 
L 75.463151 297.455772 
L 78.020464 297.326734 
L 80.943107 297.154685 
L 82.221764 296.767573 
L 82.861092 296.767573 
L 84.870409 296.251423 
L 85.327072 296.294435 
L 85.9664 296.55251 
L 86.331731 296.638535 
L 86.697061 296.55251 
L 87.793052 295.907323 
L 88.980376 296.294435 
L 90.076368 296.89661 
L 91.172359 297.111672 
L 92.451015 296.423473 
L 90.350365 299.477358 
L 88.249715 302.531242 
L 86.057733 305.585127 
L 83.957083 308.639012 
L 82.678427 310.53156 
L 81.308438 312.424108 
L 80.029781 314.316656 
L 78.659792 316.209205 
L 76.650475 318.273803 
L 74.549825 320.338401 
L 72.449175 322.402999 
L 70.348525 324.467597 
L 69.526532 325.327846 
L 69.161201 326.059058 
L 69.161201 327.392445 
L 69.161201 330.704404 
L 69.252534 334.145401 
L 69.252534 335.994937 
L 69.252534 338.704722 
L 69.252534 341.457519 
L 69.252534 344.167304 
L 69.252534 346.877089 
L 69.252534 350.060011 
L 69.252534 353.242933 
L 69.252534 356.425856 
L 69.252534 359.608778 
L 69.252534 362.7917 
L 69.252534 365.974622 
L 69.252534 366.404746 
L 69.252534 369.157544 
L 69.252534 372.340466 
L 69.252534 375.523388 
L 69.252534 378.70631 
L 69.252534 381.889232 
L 69.252534 385.072154 
L 69.252534 388.255077 
L 69.252534 391.437999 
L 69.252534 394.620921 
L 69.252534 397.803843 
L 69.252534 399.868441 
L 69.252534 401.588939 
L 69.252534 403.309438 
L 69.343866 406.105248 
L 69.343866 408.858045 
L 69.343866 411.610843 
L 69.435199 414.406653 
L 69.435199 416.170164 
L 69.435199 417.976687 
L 69.526532 419.912248 
L 70.16586 420.772497 
L 70.805188 421.589734 
L 71.444516 422.449983 
L 72.083845 423.26722 
L 73.362501 424.901693 
L 74.641158 426.579179 
L 76.011147 428.385702 
L 77.19847 429.891139 
L 78.477127 431.525612 
L 79.755783 433.203098 
L 81.03444 434.880584 
L 82.313096 436.515057 
L 83.317755 437.805431 
L 83.591753 438.364593 
L 83.683085 438.83773 
L 83.591753 440.429191 
L 83.591753 440.945341 
L 81.673768 442.923914 
L 80.760442 444.343325 
L 80.577777 444.77345 
L 80.029781 445.11755 
L 78.568459 446.450936 
L 77.746466 447.56926 
L 77.19847 447.870347 
L 76.83314 447.39721 
L 76.285144 447.56926 
L 75.919814 447.526247 
L 75.554484 447.268173 
L 75.554484 446.709011 
L 75.097821 447.22516 
L 74.915155 447.827335 
L 74.73249 448.429509 
L 74.001829 448.343484 
L 72.997171 448.128422 
L 72.814505 448.128422 
L 72.449175 448.300472 
L 71.992512 448.859634 
L 71.261851 449.160721 
L 70.987853 449.504821 
L 70.713856 449.762895 
L 70.348525 449.762895 
L 69.983195 449.590846 
L 69.800529 449.418796 
L 69.617864 449.160721 
L 69.526532 448.816621 
L 69.526532 448.429509 
L 69.800529 447.74131 
L 69.709197 447.39721 
L 69.709197 447.05311 
L 69.800529 446.752023 
L 70.16586 446.192861 
L 69.252534 446.881061 
L 69.161201 449.84892 
L 68.613206 450.53712 
L 68.156543 450.19302 
L 67.69988 448.601559 
L 67.243217 448.257459 
L 66.969219 448.128422 
L 66.695221 447.827335 
L 66.512556 447.74131 
L 66.147225 448.128422 
L 66.329891 448.472522 
L 66.421223 448.816621 
L 66.329891 449.160721 
L 66.786554 448.988671 
L 67.060551 449.074696 
L 67.334549 449.332771 
L 67.425882 449.762895 
L 67.334549 449.934945 
L 67.060551 450.063983 
L 67.060551 450.19302 
L 67.151884 450.451095 
L 67.334549 450.494107 
L 67.517214 450.53712 
L 67.608547 450.70917 
L 67.608547 452.601718 
L 67.791212 453.547992 
L 68.06521 454.193179 
L 68.339208 454.279204 
L 68.613206 454.236191 
L 68.887203 454.236191 
L 69.252534 454.494266 
L 69.526532 454.838366 
L 69.526532 455.139453 
L 69.252534 455.78464 
L 68.613206 456.558864 
L 68.06521 456.687902 
L 67.973877 456.386814 
L 68.795871 455.95669 
L 68.339208 455.827652 
L 67.973877 455.569578 
L 67.425882 454.924391 
L 67.334549 454.709328 
L 67.334549 454.580291 
L 67.334549 454.494266 
L 67.060551 454.365229 
L 67.060551 454.451254 
L 66.877886 454.494266 
L 66.512556 454.580291 
L 65.873228 454.924391 
L 65.325232 455.61259 
L 64.777236 456.085727 
L 64.229241 455.78464 
L 64.320573 455.999702 
L 64.320573 456.257777 
L 64.503238 456.429827 
L 64.685904 456.515852 
L 64.777236 456.558864 
L 64.777236 456.730914 
L 64.594571 457.032001 
L 64.777236 457.376101 
L 65.507897 457.849238 
L 65.690562 458.23635 
L 65.325232 458.795512 
L 64.685904 459.483712 
L 63.86391 460.085886 
L 62.676586 460.559023 
L 61.123932 462.408559 
L 60.301939 462.752659 
L 59.479945 462.580609 
L 58.749284 462.236509 
L 57.927291 462.064459 
L 57.105298 462.150484 
L 54.547985 462.967721 
L 53.451993 463.698933 
L 52.812665 463.913995 
L 52.082004 464.387132 
L 50.803348 465.419431 
L 50.52935 465.720518 
L 50.346685 466.064618 
L 49.798689 467.13993 
L 49.068028 468.086204 
L 48.976696 468.516328 
L 48.976696 468.731391 
L 49.433359 469.24754 
L 49.433359 469.41959 
L 49.342026 469.806702 
L 49.342026 470.021764 
L 48.794031 471.656238 
L 48.794031 472.473475 
L 49.342026 472.903599 
L 49.159361 473.548786 
L 49.433359 473.849873 
L 49.981354 473.806861 
L 50.52935 473.419749 
L 50.52935 473.677824 
L 50.346685 473.978911 
L 49.433359 474.83916 
L 48.885363 475.570372 
L 48.794031 475.871459 
L 48.702698 477.161833 
L 48.520033 477.591957 
L 47.698039 478.839319 
L 47.606707 479.183419 
L 47.880705 480.08668 
L 47.880705 480.559817 
L 47.789372 480.946929 
L 47.515374 481.334042 
L 47.241376 481.635129 
L 46.876046 481.893204 
L 45.688722 482.452366 
L 45.323392 482.667428 
L 44.684063 483.39864 
L 44.318733 483.656714 
L 43.953403 483.742739 
L 44.136068 483.312615 
L 44.410066 482.323328 
L 44.410066 481.979228 
L 43.953403 482.065253 
L 43.770737 482.323328 
L 43.770737 482.667428 
L 43.770737 483.011528 
L 43.679405 483.269602 
L 43.588072 483.871777 
L 43.588072 484.043827 
L 43.679405 484.172864 
L 43.770737 484.301901 
L 43.314074 485.033113 
L 42.766079 486.409512 
L 42.12675 487.484823 
L 41.852753 488.947247 
L 41.578755 489.549422 
L 41.213424 489.850509 
L 41.030759 489.893521 
L 40.482764 489.678459 
L 40.391431 489.592434 
L 40.026101 489.205322 
L 39.934768 489.162309 
L 39.204107 489.119297 
L 39.29544 488.904235 
L 39.386772 488.775197 
L 39.112775 488.603147 
L 38.838777 489.033272 
L 38.930109 489.420384 
L 39.29544 489.678459 
L 39.752103 489.678459 
L 39.478105 490.022559 
L 39.569438 490.323646 
L 39.934768 490.452683 
L 40.848094 490.065571 
L 41.122092 490.280633 
L 41.213424 490.667746 
L 41.304757 491.054858 
L 41.304757 491.872094 
L 39.204107 497.506727 
L 38.564779 498.151914 
L 37.834118 498.237939 
L 37.286122 497.893839 
L 37.377455 496.990577 
L 36.738127 497.334677 
L 36.646794 497.506727 
L 36.738127 497.764802 
L 36.920792 498.022876 
L 36.920792 498.280951 
L 37.103457 498.496013 
L 37.377455 498.711076 
L 37.925451 498.668063 
L 38.199449 498.840113 
L 38.108116 499.270238 
L 37.56012 499.872412 
L 37.468788 500.044462 
L 37.377455 500.259524 
L 37.19479 500.560612 
L 37.012125 500.861699 
L 36.829459 500.990736 
L 36.555462 500.861699 
L 36.372796 500.259524 
L 36.190131 500.130487 
L 36.007466 499.8294 
L 36.098799 499.227225 
L 36.007466 498.883126 
L 35.550803 499.270238 
L 34.911475 498.883126 
L 34.637477 498.840113 
L 34.363479 499.098188 
L 34.637477 499.31325 
L 34.911475 499.442288 
L 35.550803 499.614337 
L 35.368138 500.044462 
L 35.185473 500.259524 
L 34.363479 500.474587 
L 34.089481 500.474587 
L 33.815484 500.431574 
L 33.541486 500.474587 
L 33.450153 500.646636 
L 33.541486 501.162786 
L 33.541486 501.420861 
L 33.632818 501.678936 
L 33.998149 501.205798 
L 34.911475 501.119774 
L 35.733468 501.377848 
L 36.281464 501.850985 
L 36.190131 502.496172 
L 34.911475 504.646795 
L 34.089481 506.754406 
L 33.267488 509.851303 
L 32.99349 510.582515 
L 32.719492 510.238415 
L 32.536827 510.281428 
L 32.354162 510.49649 
L 32.080164 510.797577 
L 32.080164 510.926615 
L 32.080164 511.227702 
L 31.988831 511.399752 
L 31.623501 511.700839 
L 31.532168 511.829876 
L 30.710175 514.453636 
L 30.52751 513.980499 
L 30.618842 513.249287 
L 30.52751 512.862175 
L 30.162179 513.12025 
L 29.979514 513.46435 
L 29.888182 513.894474 
L 29.705516 514.238574 
L 29.522851 514.238574 
L 29.340186 514.152549 
L 29.157521 514.152549 
L 29.157521 514.539661 
L 29.157521 514.754724 
L 29.614184 515.270873 
L 29.340186 515.657985 
L 28.42686 515.787023 
L 27.513534 515.528948 
L 26.874206 514.797736 
L 26.874206 514.926773 
L 26.69154 515.313886 
L 25.96088 515.055811 
L 25.412884 515.614973 
L 24.956221 516.346185 
L 24.499558 516.690284 
L 24.316893 516.733297 
L 24.22556 516.733297 
L 24.22556 516.776309 
L 24.134227 516.862334 
L 21.942245 515.313886 
L 19.750262 513.765437 
L 17.649613 512.173976 
L 15.45763 510.625527 
L 13.265648 509.077079 
L 11.164998 507.485618 
L 8.973015 505.937169 
L 6.781033 504.345708 
L 4.58905 502.797259 
L 4.497718 502.668222 
L 2.4884 501.248811 
L 0.296418 499.65735 
L -1.895565 498.108901 
L -3.996215 496.560453 
L -6.188197 494.968992 
L -8.38018 493.420543 
L -10.572162 491.829082 
L -11.942151 490.839795 
L -12.216149 490.366658 
L -12.490147 489.850509 
L -12.94681 488.30206 
L -13.129475 487.914948 
L -13.494805 487.570848 
L -13.951468 487.355786 
L -14.499464 487.183736 
L -15.04746 487.140724 
L -16.234783 487.226749 
L -16.326116 486.882649 
L -16.143451 486.366499 
L -16.052118 485.979387 
L -16.143451 485.764325 
L -16.600114 485.721313 
L -16.782779 485.50625 
L -16.782779 485.248175 
L -16.782779 484.947088 
L -16.600114 484.689014 
L -16.508781 484.430939 
L -16.143451 484.043827 
L -15.595455 483.57069 
L -14.956127 483.269602 
L -14.499464 483.22659 
L -14.499464 482.753453 
L -14.408131 482.409353 
L -14.134134 482.194291 
L -13.677471 482.151278 
L -14.225466 479.054381 
L -14.316799 478.710281 
L -14.682129 475.957484 
L -15.138792 475.312297 
L -17.239442 474.150961 
L -20.710081 472.172387 
L -22.628066 471.097076 
L -28.108022 468.043191 
L -33.587978 464.989306 
L -38.976602 461.935422 
L -44.456558 458.881537 
L -49.845182 455.827652 
L -55.325138 452.773768 
L -60.805094 449.719883 
L -66.193718 446.665998 
L -71.673674 443.612113 
L -75.966307 441.203416 
L -77.15363 440.558229 
L -82.542254 437.504344 
L -88.02221 434.450459 
L -89.300867 433.719248 
L -93.410834 431.396575 
L -98.89079 428.34269 
L -104.370746 425.288805 
L -106.288731 424.213494 
L -107.202057 424.170481 
L -107.567387 423.955419 
L -107.567387 423.26722 
L -107.932718 423.26722 
L -108.115383 423.26722 
L -110.033368 423.26722 
L -110.1247 418.105724 
L -110.216033 414.621715 
L -109.850703 410.965656 
L -109.211374 405.718136 
L -108.754711 401.674964 
L -108.754711 400.685678 
L -109.576705 398.061918 
z
" clip-path="url(#p1cf06ba0c1)" style="fill: #bdc3c7; stroke: #ffffff; stroke-width: 0.5"/>
    <path d="M 68.887203 453.117867 
L 68.887203 452.515693 
L 69.252534 451.741469 
L 69.617864 451.139294 
L 70.074527 450.881219 
L 70.622523 450.70917 
L 71.170519 450.451095 
L 71.353184 449.934945 
L 71.718514 449.590846 
L 72.357842 449.633858 
L 73.088503 449.891933 
L 73.636499 450.19302 
L 74.093162 451.010257 
L 73.910497 451.526406 
L 73.453834 451.612431 
L 73.179836 451.053269 
L 73.179836 451.354356 
L 73.088503 451.612431 
L 72.997171 451.827493 
L 72.905838 451.913518 
L 72.814505 451.956531 
L 72.723173 452.042556 
L 72.63184 452.085568 
L 72.540508 452.128581 
L 72.357842 452.085568 
L 72.175177 451.956531 
L 72.083845 451.827493 
L 72.083845 451.784481 
L 71.718514 451.827493 
L 71.261851 451.956531 
L 70.348525 452.47268 
L 70.074527 452.300631 
L 69.891862 452.343643 
L 69.709197 452.558705 
L 69.617864 452.902805 
L 69.800529 453.117867 
L 70.074527 453.246905 
L 70.257193 453.461967 
L 70.16586 453.720042 
L 69.891862 453.720042 
L 69.617864 453.547992 
L 69.526532 453.289917 
L 69.526532 452.98883 
z
" clip-path="url(#p1cf06ba0c1)" style="fill: #bdc3c7; stroke: #ffffff; stroke-width: 0.5"/>
    <path d="M 111.813527 127.427515 
L 111.813527 126.911365 
L 112.087525 126.65329 
L 112.635521 126.524253 
L 113.092184 126.223166 
L 113.457514 125.793041 
L 113.640179 125.319904 
L 113.822845 124.287605 
L 114.096842 123.642418 
L 114.37084 123.255306 
L 115.284166 122.524094 
L 115.740829 122.093969 
L 115.832162 121.706857 
L 115.923495 121.276733 
L 116.197492 120.760583 
L 116.562823 120.373471 
L 117.658814 119.943346 
L 118.024144 119.599247 
L 118.20681 119.169122 
L 118.480807 118.093811 
L 118.846138 117.577661 
L 125.513418 107.125633 
L 126.883407 105.104047 
L 127.157405 105.49116 
L 127.522735 105.749234 
L 128.070731 105.792247 
L 127.888066 104.80296 
L 128.253396 105.233085 
L 128.892724 106.179359 
L 129.349387 106.695508 
L 129.714718 106.824546 
L 130.262713 107.555758 
L 130.719376 107.727808 
L 131.267372 107.813832 
L 131.998033 108.372994 
L 132.454696 108.588057 
L 132.546028 108.157932 
L 132.911359 107.856845 
L 133.185357 107.813832 
L 133.276689 108.243957 
L 132.911359 110.609642 
L 133.094024 111.426879 
L 133.550687 112.201103 
L 134.190015 112.760265 
L 134.372681 112.84629 
L 134.738011 112.932315 
L 134.920676 113.061353 
L 135.012009 113.19039 
L 135.194674 113.577502 
L 135.560004 114.093652 
L 135.74267 114.781851 
L 136.381998 115.728125 
L 137.477989 117.835736 
L 139.943969 120.244434 
L 141.770621 122.567106 
L 144.145269 124.54568 
L 146.793915 126.395215 
L 148.620567 127.986677 
L 149.899223 128.760901 
L 153.095864 131.384661 
L 153.826525 131.814786 
L 154.922516 132.459972 
L 156.018508 132.890097 
L 157.936492 132.76106 
L 159.854477 133.019134 
L 160.950468 133.234197 
L 162.04646 133.062147 
L 162.868453 132.76106 
L 164.421107 132.330935 
L 165.151768 132.115873 
L 166.156427 132.201898 
L 167.800414 132.459972 
L 168.896405 132.502985 
L 170.540392 132.41696 
L 171.362385 131.728761 
L 171.17972 131.298636 
L 171.54505 131.298636 
L 174.285028 129.62115 
L 174.741691 129.4491 
L 175.472352 129.234038 
L 177.847 127.728602 
L 179.58232 126.137141 
L 180.038983 125.922078 
L 180.495646 125.965091 
L 180.952309 126.137141 
L 181.408972 126.223166 
L 181.865635 126.223166 
L 182.778961 126.008103 
L 183.874952 125.577979 
L 184.605613 125.104842 
L 185.244941 124.631705 
L 186.066934 123.68543 
L 186.340932 123.513381 
L 188.258917 122.868194 
L 188.532915 122.739156 
L 188.898245 122.395057 
L 189.08091 122.050957 
L 189.446241 121.792882 
L 189.902904 121.663845 
L 190.176902 121.534807 
L 190.633565 120.803596 
L 190.998895 120.631546 
L 191.455558 120.631546 
L 191.820888 120.717571 
L 192.186219 120.846608 
L 192.551549 121.147695 
L 192.825547 121.491795 
L 193.008212 121.792882 
L 193.190878 122.007944 
L 193.647541 122.050957 
L 193.556208 121.57782 
L 193.921538 121.57782 
L 196.296186 122.653131 
L 197.209512 122.782169 
L 198.031506 122.997231 
L 198.488169 123.169281 
L 199.492827 123.384343 
L 200.314821 123.212293 
L 202.141473 122.739156 
L 202.872134 122.825181 
L 203.511462 123.212293 
L 204.607453 124.37363 
L 205.338114 124.932792 
L 206.25144 125.276892 
L 207.256099 125.405929 
L 208.260757 125.362916 
L 209.082751 125.147854 
L 209.539414 124.975804 
L 210.270074 124.502667 
L 211.092068 124.37363 
L 211.822729 124.072543 
L 212.827387 124.02953 
L 213.28405 123.943505 
L 213.558048 123.771455 
L 214.471374 123.083256 
L 216.663357 122.093969 
L 217.668015 121.276733 
L 218.855339 120.803596 
L 218.946672 120.631546 
L 219.22067 120.244434 
L 219.312002 120.115396 
L 219.494667 120.029371 
L 219.859998 119.986359 
L 220.042663 119.943346 
L 222.417311 119.083097 
L 224.335295 117.663686 
L 225.613952 116.631387 
L 226.435945 115.685113 
L 226.801276 115.47005 
L 227.9886 115.125951 
L 228.262597 114.953901 
L 228.901926 114.437751 
L 231.550571 113.147378 
L 232.007234 112.932315 
L 232.55523 112.84629 
L 233.285891 112.932315 
L 234.65588 112.631228 
L 235.477873 112.760265 
L 239.405175 114.781851 
L 240.227169 114.953901 
L 241.68849 114.222689 
L 244.885131 114.136664 
L 246.25512 114.351726 
L 250.913083 114.050639 
L 251.643744 113.835577 
L 252.009074 113.53449 
L 252.55707 112.760265 
L 253.105066 112.545203 
L 253.105066 112.330141 
L 253.196398 112.158091 
L 253.379064 112.072066 
L 253.835727 112.072066 
L 254.109724 112.072066 
L 254.566387 111.900016 
L 255.02305 111.857004 
L 255.297048 111.727966 
L 255.479713 111.555917 
L 255.571046 111.383867 
L 255.571046 111.211817 
L 255.662379 111.039767 
L 256.027709 110.695667 
L 256.301707 110.523617 
L 257.032368 110.351568 
L 258.85902 110.179518 
L 259.772346 109.964455 
L 260.411674 109.534331 
L 260.868337 109.405293 
L 262.420991 109.448306 
L 263.79098 109.147219 
L 264.247643 109.104206 
L 265.982963 109.491318 
L 266.896289 109.878431 
L 267.900948 110.437593 
L 270.184263 111.168804 
L 270.549593 111.211817 
L 271.006256 111.211817 
L 271.462919 111.168804 
L 271.462919 114.050639 
L 271.462919 116.932474 
L 271.462919 119.771297 
L 271.462919 122.653131 
L 271.462919 125.491954 
L 271.462919 128.373789 
L 271.462919 131.212611 
L 271.462919 134.094446 
L 271.462919 136.933268 
L 271.462919 139.815103 
L 271.462919 142.653926 
L 271.462919 145.535761 
L 271.462919 148.374583 
L 271.462919 151.256418 
L 271.462919 154.138253 
L 271.462919 156.977075 
L 269.910265 159.299748 
L 268.357611 161.622421 
L 266.896289 163.945094 
L 265.343635 166.224754 
L 263.79098 168.547427 
L 262.329659 170.8701 
L 260.777004 173.192773 
L 259.22435 175.515446 
L 257.763029 177.838119 
L 256.210374 180.160791 
L 254.65772 182.440452 
L 253.196398 184.763125 
L 251.643744 187.085798 
L 250.09109 189.40847 
L 248.629768 191.731143 
L 247.077114 194.053816 
L 243.42381 194.053816 
L 238.85718 194.053816 
L 235.477873 194.053816 
L 231.550571 194.053816 
L 227.531937 194.053816 
L 223.969965 194.053816 
L 221.68665 194.053816 
L 220.225328 193.279592 
L 218.581341 192.763442 
L 216.480692 192.032231 
L 214.380042 191.344031 
L 212.188059 190.612819 
L 210.087409 189.881608 
L 207.986759 189.193408 
L 205.794777 188.462196 
L 203.694127 187.730985 
L 201.593477 187.042785 
L 199.401495 186.311573 
L 197.300845 185.580361 
L 195.200195 184.892162 
L 193.099545 184.16095 
L 190.907562 183.429738 
L 188.806913 182.741539 
L 186.706263 182.010327 
L 184.51428 181.322128 
L 182.322298 180.547904 
L 180.038983 179.816692 
L 177.847 179.08548 
L 175.563685 178.354268 
L 173.371702 177.623056 
L 171.088387 176.891844 
L 168.896405 176.160633 
L 166.61309 175.429421 
L 164.421107 174.655196 
L 162.137792 173.923985 
L 159.94581 173.192773 
L 157.662495 172.461561 
L 155.470512 171.730349 
L 153.187197 170.999137 
L 150.995214 170.267925 
L 148.803232 169.536714 
L 146.702582 168.848514 
L 145.697923 168.24634 
L 143.962604 166.654879 
L 140.765963 163.730031 
L 138.482648 161.665433 
L 136.47333 159.901922 
L 136.199333 159.68686 
L 135.74267 159.729873 
L 135.103341 159.944935 
L 134.646678 159.901922 
L 132.728694 158.740586 
L 131.358705 157.966362 
L 131.084707 157.57925 
L 130.902042 157.0631 
L 130.902042 156.245863 
L 130.719376 155.772726 
L 130.171381 154.61139 
L 129.897383 154.396327 
L 129.44072 154.052228 
L 129.166722 153.837165 
L 128.984057 153.536078 
L 128.710059 153.019929 
L 128.527394 152.761854 
L 128.344729 152.632817 
L 127.614068 152.460767 
L 127.066072 151.858592 
L 126.700742 150.869306 
L 125.970081 146.783122 
L 125.513418 145.965885 
L 124.508759 145.535761 
L 123.412768 145.363711 
L 122.499442 144.976599 
L 121.768781 144.288399 
L 121.312118 143.08405 
L 121.03812 142.266813 
L 120.764123 141.406564 
L 120.30746 140.675352 
L 119.668131 140.073178 
L 117.293484 138.481717 
L 116.562823 137.707493 
L 115.923495 136.159044 
L 115.375499 134.524571 
L 115.101501 132.201898 
L 114.827503 131.513698 
L 114.37084 130.997549 
L 113.000851 129.62115 
L 112.361523 128.588851 
z
" clip-path="url(#p1cf06ba0c1)" style="fill: #bdc3c7; stroke: #ffffff; stroke-width: 0.5"/>
   </g>
   <g id="PatchCollection_2">
    <defs>
     <path id="m8535f752a1" d="M 69.161201 -179.65294 
L 69.161201 -182.964899 
L 69.161201 -184.298285 
L 69.526532 -185.029497 
L 70.348525 -185.889747 
L 72.449175 -187.954345 
L 74.549825 -190.018943 
L 76.650475 -192.083541 
L 78.659792 -194.148139 
L 80.029781 -196.040687 
L 81.308438 -197.933236 
L 82.678427 -199.825784 
L 83.957083 -201.718332 
L 86.057733 -204.772217 
L 88.249715 -207.826102 
L 90.350365 -210.879986 
L 92.451015 -213.933871 
L 92.816346 -214.45002 
L 93.181676 -214.708095 
L 93.273009 -215.052195 
L 93.273009 -215.826419 
L 93.455674 -216.299556 
L 93.912337 -216.729681 
L 95.647656 -217.804992 
L 97.108978 -218.966329 
L 98.022304 -219.396453 
L 98.844298 -219.611516 
L 101.03628 -219.654528 
L 102.954265 -219.654528 
L 105.876908 -220.170678 
L 109.80421 -220.815865 
L 113.640179 -221.461052 
L 115.375499 -221.805151 
L 116.47149 -222.235276 
L 117.384816 -222.83745 
L 117.476149 -222.880463 
L 118.20681 -223.6977 
L 118.57214 -224.514936 
L 119.028803 -226.32146 
L 119.394133 -227.181709 
L 119.576799 -227.439784 
L 119.759464 -227.697858 
L 121.677449 -229.246307 
L 123.778098 -231.009818 
L 126.609409 -232.386217 
L 129.532053 -233.762615 
L 132.363363 -235.139014 
L 134.190015 -235.956251 
L 137.021326 -236.601438 
L 138.939311 -237.074575 
L 141.405291 -237.633737 
L 142.227284 -237.805787 
L 144.419267 -238.580011 
L 145.332593 -238.795073 
L 146.885247 -238.709048 
L 148.163904 -238.666036 
L 149.44256 -238.580011 
L 150.812549 -238.493986 
L 152.091206 -238.407961 
L 153.461195 -238.364949 
L 154.739851 -238.278924 
L 156.018508 -238.192899 
L 157.388497 -238.106874 
L 158.667153 -238.020849 
L 160.037142 -237.977836 
L 161.224466 -237.891812 
L 161.315799 -237.891812 
L 162.594455 -237.805787 
L 163.964444 -237.719762 
L 165.243101 -237.676749 
L 166.61309 -237.590724 
L 167.891746 -237.504699 
L 169.261735 -237.418675 
L 169.992396 -237.719762 
L 172.001713 -239.913397 
L 173.463035 -241.504858 
L 176.203013 -244.472718 
L 178.942991 -247.48359 
L 181.591637 -250.45145 
L 184.331615 -253.41931 
L 184.605613 -253.76341 
L 187.071593 -256.430182 
L 189.811571 -259.398042 
L 192.551549 -262.408914 
L 195.200195 -265.376774 
L 196.752849 -266.968235 
L 198.305503 -268.559696 
L 199.858158 -270.151157 
L 201.410812 -271.742618 
L 202.963466 -273.334079 
L 204.51612 -274.92554 
L 206.068775 -276.517001 
L 207.621429 -278.108462 
L 208.71742 -279.183774 
L 209.265416 -279.699923 
L 209.722079 -280.17306 
L 210.909403 -281.291384 
L 212.005394 -282.409708 
L 212.55339 -282.882846 
L 213.740713 -284.087194 
L 215.01937 -285.291543 
L 216.206694 -286.45288 
L 217.48535 -287.657229 
L 218.672674 -288.861578 
L 219.95133 -290.065926 
L 221.138654 -291.227263 
L 222.417311 -292.431612 
L 223.604635 -293.635961 
L 224.883291 -294.84031 
L 226.070615 -296.044658 
L 227.349271 -297.205995 
L 228.536595 -298.410344 
L 229.815252 -299.614693 
L 231.002576 -300.819042 
L 232.281232 -301.980378 
L 233.468556 -303.184727 
L 234.747212 -304.389076 
L 235.751871 -305.33535 
L 235.934536 -305.593425 
L 237.213193 -306.754761 
L 238.400516 -307.95911 
L 239.679173 -309.163459 
L 240.866497 -310.367808 
L 242.145153 -311.529144 
L 243.332477 -312.733493 
L 244.611134 -313.937842 
L 245.798457 -315.142191 
L 247.077114 -316.303528 
L 248.629768 -318.6262 
L 250.09109 -320.948873 
L 251.643744 -323.271546 
L 253.196398 -325.594219 
L 254.65772 -327.916892 
L 256.210374 -330.196552 
L 257.763029 -332.519225 
L 259.22435 -334.841898 
L 260.777004 -337.164571 
L 262.329659 -339.487244 
L 263.79098 -341.809917 
L 265.343635 -344.13259 
L 266.896289 -346.41225 
L 268.357611 -348.734923 
L 269.910265 -351.057596 
L 271.462919 -353.380269 
L 271.462919 -356.219091 
L 271.462919 -359.100926 
L 271.462919 -361.982761 
L 271.462919 -364.821583 
L 271.462919 -367.703418 
L 271.462919 -370.542241 
L 271.462919 -373.424075 
L 271.462919 -376.262898 
L 271.462919 -379.144733 
L 271.462919 -381.983555 
L 271.462919 -384.86539 
L 271.462919 -387.704212 
L 271.462919 -390.586047 
L 271.462919 -393.42487 
L 271.462919 -396.306705 
L 271.462919 -399.188539 
L 272.376245 -399.231552 
L 275.755552 -399.876739 
L 279.043525 -400.478913 
L 280.048184 -400.909038 
L 280.413514 -401.425187 
L 280.687512 -401.64025 
L 280.96151 -401.511212 
L 281.235508 -401.339162 
L 281.509506 -401.339162 
L 283.153492 -401.511212 
L 283.610155 -401.597237 
L 283.975486 -401.769287 
L 285.345475 -402.543511 
L 285.802138 -402.629536 
L 286.167468 -402.844599 
L 286.806797 -403.962923 
L 287.172127 -404.393047 
L 287.62879 -404.522085 
L 288.176786 -404.565097 
L 289.36411 -404.565097 
L 289.455442 -404.608109 
L 289.820773 -404.823172 
L 290.09477 -404.909197 
L 290.368768 -404.909197 
L 291.099429 -404.737147 
L 293.382744 -404.522085 
L 294.570068 -404.651122 
L 295.300729 -405.253296 
L 295.483394 -405.253296 
L 295.940057 -405.511371 
L 296.214055 -405.597396 
L 296.39672 -405.640408 
L 296.670718 -405.898483 
L 296.853383 -405.941496 
L 297.036048 -405.941496 
L 297.218713 -405.898483 
L 297.310046 -405.812458 
L 297.401379 -405.769446 
L 299.684694 -405.855471 
L 300.141357 -405.769446 
L 301.694011 -406.586683 
L 302.150674 -407.016807 
L 302.424672 -407.188857 
L 303.337998 -407.145845 
L 303.611996 -407.274882 
L 303.794661 -407.403919 
L 304.068659 -407.532957 
L 305.16465 -407.834044 
L 305.712646 -408.178144 
L 307.813296 -409.85563 
L 308.909287 -410.113704 
L 309.457282 -410.414792 
L 310.279276 -411.361066 
L 311.009937 -412.049265 
L 311.375267 -412.47939 
L 311.4666 -412.995539 
L 311.4666 -413.597714 
L 311.649265 -414.156876 
L 311.740598 -414.716038 
L 312.014595 -415.189175 
L 312.562591 -415.963399 
L 312.927921 -416.264486 
L 313.293252 -416.436536 
L 313.56725 -416.479549 
L 314.29791 -416.780636 
L 314.389243 -416.952686 
L 314.480576 -417.081723 
L 314.571908 -417.124736 
L 314.754573 -417.124736 
L 314.937239 -416.995698 
L 315.119904 -416.952686 
L 315.667899 -417.124736 
L 316.763891 -417.55486 
L 317.677217 -417.769922 
L 317.951215 -417.941972 
L 318.590543 -418.027997 
L 320.325862 -416.823648 
L 322.974508 -416.565574 
L 324.435829 -415.361225 
L 324.983825 -415.189175 
L 326.90181 -415.189175 
L 327.449805 -415.060137 
L 328.271799 -414.630013 
L 328.819794 -414.500975 
L 329.36779 -414.500975 
L 330.007118 -414.41495 
L 330.463781 -414.199888 
L 331.10311 -414.027838 
L 330.737779 -413.210602 
L 330.463781 -412.178303 
L 330.007118 -411.404078 
L 330.189784 -410.199729 
L 330.007118 -409.425505 
L 329.550455 -409.038393 
L 329.093792 -408.307181 
L 328.271799 -407.575969 
L 327.449805 -406.457645 
L 326.90181 -405.855471 
L 326.810477 -405.683421 
L 326.810477 -405.425346 
L 326.90181 -405.038234 
L 326.90181 -404.823172 
L 326.90181 -404.220997 
L 326.719145 -403.661835 
L 325.897151 -401.941337 
L 325.805819 -401.511212 
L 325.714486 -399.833726 
L 325.531821 -398.758415 
L 325.897151 -397.597078 
L 326.993142 -396.908879 
L 328.089134 -396.865866 
L 328.545797 -396.349717 
L 327.906468 -395.790555 
L 327.358473 -394.586206 
L 327.084475 -394.156081 
L 326.810477 -393.811982 
L 326.719145 -393.25282 
L 326.627812 -392.650645 
L 326.90181 -389.123624 
L 327.175808 -384.607315 
L 327.815136 -382.58573 
L 327.632471 -382.327655 
L 327.084475 -382.24163 
L 326.445147 -382.026568 
L 326.262482 -381.596443 
L 326.445147 -380.478119 
L 326.262482 -379.961969 
L 326.079816 -379.61787 
L 325.623153 -379.488832 
L 325.075158 -379.44582 
L 324.618495 -379.27377 
L 324.161832 -378.886658 
L 323.979166 -378.413521 
L 324.161832 -378.026409 
L 324.709827 -377.940384 
L 328.545797 -378.714608 
L 328.819794 -378.671596 
L 329.093792 -378.585571 
L 329.276457 -378.628583 
L 329.36779 -378.800633 
L 329.276457 -379.10172 
L 329.00246 -379.230758 
L 328.819794 -379.359795 
L 328.728462 -379.531845 
L 328.637129 -380.091007 
L 328.637129 -380.607156 
L 328.454464 -381.166318 
L 328.180466 -381.682468 
L 328.545797 -381.338368 
L 329.00246 -381.037281 
L 329.276457 -380.736194 
L 329.73312 -380.478119 
L 330.007118 -380.306069 
L 330.281116 -380.177032 
L 330.829112 -379.746907 
L 331.10311 -379.574857 
L 331.559773 -379.488832 
L 332.016436 -379.402807 
L 332.199101 -379.44582 
L 332.473099 -379.574857 
L 332.747096 -379.660882 
L 333.295092 -379.61787 
L 333.751755 -379.531845 
L 333.93442 -378.972683 
L 334.299751 -378.757621 
L 334.117085 -378.284483 
L 333.751755 -377.424234 
L 333.477757 -377.338209 
L 333.386425 -377.209172 
L 333.203759 -377.080135 
L 333.203759 -376.736035 
L 333.021094 -376.736035 
L 332.564431 -376.908085 
L 332.199101 -376.908085 
L 331.83377 -376.99411 
L 331.377107 -376.82206 
L 330.646447 -376.99411 
L 330.463781 -377.467247 
L 330.372449 -377.768334 
L 330.189784 -378.069421 
L 329.824453 -378.198459 
L 325.988484 -377.725321 
L 324.161832 -377.080135 
L 321.878517 -375.703736 
L 321.421854 -374.886499 
L 321.239188 -373.33805 
L 321.513186 -371.875627 
L 320.782525 -369.940066 
L 320.873858 -368.77873 
L 321.147856 -367.961493 
L 321.239188 -367.660406 
L 321.147856 -367.359318 
L 320.965191 -367.015219 
L 320.59986 -365.208695 
L 320.691193 -364.950621 
L 320.417195 -364.391459 
L 320.23453 -363.918322 
L 319.960532 -362.67096 
L 319.686534 -361.724686 
L 319.503869 -361.466611 
L 319.595201 -360.735399 
L 319.595201 -360.477325 
L 319.412536 -360.004188 
L 319.229871 -358.455739 
L 318.773208 -357.76754 
L 318.773208 -356.993315 
L 318.955873 -355.659929 
L 319.595201 -354.025456 
L 319.686534 -353.509306 
L 319.595201 -353.036169 
L 319.412536 -352.563032 
L 317.859882 -350.025297 
L 317.311886 -349.595172 
L 316.215895 -349.165048 
L 315.850565 -348.86396 
L 315.485234 -348.476848 
L 314.754573 -347.272499 
L 314.571908 -346.885387 
L 314.845906 -345.250914 
L 314.754573 -344.691752 
L 314.389243 -343.745477 
L 313.658582 -342.842216 
L 310.918604 -340.64858 
L 310.096611 -339.874356 
L 309.457282 -339.014107 
L 309.000619 -338.239882 
L 308.726622 -337.207583 
L 308.269959 -335.099973 
L 307.813296 -334.196711 
L 306.625972 -332.734288 
L 306.443306 -332.218138 
L 306.534639 -330.669689 
L 306.443306 -330.196552 
L 306.077976 -329.250278 
L 305.712646 -328.820154 
L 305.347315 -328.605091 
L 304.79932 -328.433041 
L 304.616654 -328.045929 
L 304.433989 -327.52978 
L 304.159991 -327.056643 
L 302.516004 -324.90602 
L 302.333339 -324.56192 
L 301.968009 -323.744683 
L 301.237348 -321.508035 
L 300.689352 -320.518749 
L 299.776026 -319.744524 
L 296.579385 -317.722939 
L 294.29607 -315.443278 
L 293.839407 -314.712066 
L 293.565409 -313.808805 
L 293.382744 -312.002281 
L 293.474077 -311.701194 
L 293.839407 -311.443119 
L 293.93074 -310.883957 
L 293.93074 -310.238771 
L 293.748075 -309.765633 
L 293.017414 -308.733334 
L 292.286753 -307.916098 
L 292.012755 -307.485973 
L 291.921422 -306.367649 
L 291.83009 -305.937524 
L 289.181444 -301.335191 
L 287.811455 -298.969506 
L 286.167468 -297.033945 
L 282.240166 -291.571363 
L 280.413514 -287.915303 
L 279.22619 -286.10878 
L 277.947534 -282.624771 
L 274.842225 -276.043864 
L 274.750893 -275.484702 
L 274.842225 -274.92554 
L 275.116223 -273.850229 
L 275.116223 -273.291067 
L 274.750893 -271.054419 
L 273.928899 -269.118858 
L 271.736917 -265.419786 
L 269.179604 -260.989503 
L 265.252302 -254.967758 
L 263.973646 -252.214961 
L 263.334317 -251.311699 
L 261.507665 -249.548188 
L 258.950352 -245.289955 
L 255.936376 -242.021008 
L 252.739735 -237.676749 
L 248.995099 -230.149569 
L 246.25512 -226.14941 
L 243.515142 -223.224562 
L 236.847862 -216.041482 
L 234.65588 -212.901572 
L 230.728578 -208.901413 
L 227.440604 -205.460416 
L 223.239304 -200.98712 
L 222.599976 -200.298921 
L 218.033346 -194.965376 
L 214.654039 -191.911491 
L 212.736055 -189.631831 
L 209.265416 -186.706983 
L 207.347431 -184.814435 
L 205.794777 -183.653099 
L 205.703444 -183.438036 
L 205.612112 -183.179961 
L 205.429446 -182.964899 
L 205.338114 -182.878874 
L 204.881451 -182.706824 
L 204.698786 -182.319712 
L 204.424788 -181.803563 
L 204.242123 -181.287413 
L 203.876792 -181.029338 
L 202.872134 -180.556201 
L 200.497486 -178.061479 
L 200.223488 -177.674367 
L 199.766825 -176.900142 
L 199.492827 -176.556043 
L 198.488169 -175.910856 
L 198.031506 -175.179644 
L 197.574842 -174.749519 
L 192.460217 -171.43756 
L 189.537573 -169.803086 
L 186.888928 -168.254638 
L 178.21233 -163.265192 
L 177.390337 -162.749043 
L 176.842341 -162.620005 
L 176.568344 -162.53398 
L 171.54505 -160.168295 
L 167.252418 -157.200435 
L 166.97842 -156.94236 
L 166.704422 -156.856336 
L 163.233783 -154.3186 
L 160.037142 -152.340027 
L 154.557186 -148.038781 
L 151.725875 -145.113934 
L 151.17788 -144.855859 
L 150.081888 -144.210672 
L 149.807891 -143.952597 
L 149.716558 -143.737535 
L 149.625225 -143.47946 
L 149.625225 -142.963311 
L 149.533893 -142.877286 
L 149.07723 -142.748248 
L 148.894565 -142.619211 
L 148.711899 -142.404149 
L 146.97658 -140.597625 
L 146.428584 -140.253526 
L 145.880589 -140.081476 
L 145.606591 -139.866414 
L 144.419267 -138.360977 
L 141.587956 -136.812529 
L 140.583298 -136.081317 
L 139.395974 -134.403831 
L 138.939311 -134.145756 
L 138.57398 -134.016719 
L 137.477989 -133.113457 
L 132.637361 -128.425099 
L 127.979398 -123.177579 
L 125.422085 -120.682856 
L 123.047438 -118.317171 
L 118.024144 -112.682538 
L 114.918836 -109.327566 
L 113.457514 -108.123217 
L 111.813527 -106.789831 
L 110.078208 -105.02632 
L 109.43888 -104.166071 
L 109.43888 -103.907996 
L 109.43888 -103.692934 
L 109.347547 -103.520884 
L 108.708219 -103.391847 
L 108.525554 -103.219797 
L 107.520895 -101.886411 
L 107.429562 -101.456286 
L 107.70356 -101.198211 
L 107.429562 -100.768087 
L 107.33823 -100.639049 
L 107.33823 -100.811099 
L 107.33823 -100.940137 
L 107.33823 -101.069174 
L 107.155565 -101.198211 
L 105.876908 -100.1229 
L 105.60291 -99.864825 
L 105.511578 -99.4347 
L 105.054915 -99.004576 
L 104.232921 -98.230352 
L 101.766941 -95.176467 
L 101.675608 -94.961405 
L 101.675608 -94.746342 
L 101.584276 -94.617305 
L 101.40161 -94.53128 
L 101.310278 -94.445255 
L 100.214287 -92.853794 
L 99.574958 -92.165595 
L 99.209628 -91.90752 
L 98.844298 -91.692457 
L 98.296302 -91.56342 
L 97.565641 -91.606433 
L 97.200311 -91.520408 
L 96.926313 -91.262333 
L 97.474309 -91.133295 
L 97.474309 -90.660158 
L 97.200311 -90.100996 
L 97.017645 -89.842922 
L 96.652315 -89.627859 
L 96.286985 -89.197735 
L 96.012987 -88.638573 
L 95.921654 -88.165436 
L 95.830322 -87.950373 
L 94.916996 -87.305186 
L 94.642998 -87.176149 
L 94.551665 -87.348199 
L 94.460333 -88.42351 
L 94.460333 -89.412797 
L 94.369 -89.842922 
L 94.186335 -89.842922 
L 94.277667 -89.45581 
L 94.186335 -89.154722 
L 94.00367 -88.896648 
L 94.00367 -88.59556 
L 94.00367 -88.294473 
L 94.186335 -87.950373 
L 94.186335 -87.649286 
L 94.277667 -87.348199 
L 94.460333 -87.176149 
L 94.642998 -87.090124 
L 94.73433 -86.875062 
L 94.642998 -86.530962 
L 94.369 -86.014813 
L 94.369 -85.713725 
L 94.186335 -85.412638 
L 93.638339 -84.853476 
L 93.455674 -84.681426 
L 93.455674 -84.337327 
L 93.273009 -84.079252 
L 93.181676 -83.821177 
L 92.177017 -82.659841 
L 92.085685 -82.401766 
L 92.177017 -82.186704 
L 92.359683 -82.186704 
L 92.63368 -82.315741 
L 92.816346 -82.487791 
L 92.451015 -81.799592 
L 91.90302 -81.756579 
L 91.355024 -82.143691 
L 91.172359 -82.831891 
L 91.081026 -82.831891 
L 91.081026 -82.315741 
L 91.355024 -81.412479 
L 91.355024 -80.939342 
L 91.263691 -80.466205 
L 88.615046 -76.164959 
L 87.975718 -75.433747 
L 87.519055 -74.702535 
L 86.514396 -72.766975 
L 86.057733 -72.379863 
L 85.509737 -72.035763 
L 84.596411 -70.530327 
L 84.048416 -70.100202 
L 84.231081 -70.100202 
L 83.591753 -69.412003 
L 83.591753 -69.928152 
L 83.683085 -71.519613 
L 83.591753 -71.99275 
L 83.317755 -72.551912 
L 82.313096 -73.842286 
L 81.03444 -75.47676 
L 79.755783 -77.154246 
L 78.477127 -78.831732 
L 77.19847 -80.466205 
L 76.011147 -81.971641 
L 74.641158 -83.778165 
L 73.362501 -85.455651 
L 72.083845 -87.090124 
L 71.444516 -87.907361 
L 70.805188 -88.76761 
L 70.16586 -89.584847 
L 69.526532 -90.445096 
L 69.435199 -92.380657 
L 69.435199 -94.18718 
L 69.435199 -95.950691 
L 69.343866 -98.746501 
L 69.343866 -101.499299 
L 69.343866 -104.252096 
L 69.252534 -107.047906 
L 69.252534 -108.768404 
L 69.252534 -110.488903 
L 69.252534 -112.553501 
L 69.252534 -115.736423 
L 69.252534 -118.919345 
L 69.252534 -122.102267 
L 69.252534 -125.285189 
L 69.252534 -128.468111 
L 69.252534 -131.651034 
L 69.252534 -134.833956 
L 69.252534 -138.016878 
L 69.252534 -141.1998 
L 69.252534 -143.952597 
L 69.252534 -144.382722 
L 69.252534 -147.565644 
L 69.252534 -150.748566 
L 69.252534 -153.931488 
L 69.252534 -157.11441 
L 69.252534 -160.297332 
L 69.252534 -163.480254 
L 69.252534 -166.19004 
L 69.252534 -168.899825 
L 69.252534 -171.652622 
L 69.252534 -174.362407 
L 69.252534 -176.211943 
z
" style="stroke: #ffffff; stroke-width: 0.6"/>
    </defs>
    <g clip-path="url(#p1cf06ba0c1)">
     <use xlink:href="#m8535f752a1" x="0" y="510.357344" style="fill: #e74c3c; stroke: #ffffff; stroke-width: 0.6"/>
    </g>
   </g>
   <g id="text_1">
    <g id="patch_2">
     <path d="M 2.269968 170.092729 
L 34.723718 170.092729 
Q 36.123718 170.092729 36.123718 168.692729 
L 36.123718 161.692182 
Q 36.123718 160.292182 34.723718 160.292182 
L 2.269968 160.292182 
Q 0.869968 160.292182 0.869968 161.692182 
L 0.869968 168.692729 
Q 0.869968 170.092729 2.269968 170.092729 
z
" clip-path="url(#p1cf06ba0c1)" style="fill: #ffffff; opacity: 0.6"/>
    </g>
    <g clip-path="url(#p1cf06ba0c1)">
     <!-- Ethiopia -->
     <g style="fill: #1a252f" transform="translate(2.269968 167.011088) scale(0.07 -0.07)">
      <defs>
       <path id="DejaVuSans-Bold-28" d="M 588 4666 
L 3834 4666 
L 3834 3756 
L 1791 3756 
L 1791 2888 
L 3713 2888 
L 3713 1978 
L 1791 1978 
L 1791 909 
L 3903 909 
L 3903 0 
L 588 0 
L 588 4666 
z
" transform="scale(0.015625)"/>
       <path id="DejaVuSans-Bold-57" d="M 1759 4494 
L 1759 3500 
L 2913 3500 
L 2913 2700 
L 1759 2700 
L 1759 1216 
Q 1759 972 1856 886 
Q 1953 800 2241 800 
L 2816 800 
L 2816 0 
L 1856 0 
Q 1194 0 917 276 
Q 641 553 641 1216 
L 641 2700 
L 84 2700 
L 84 3500 
L 641 3500 
L 641 4494 
L 1759 4494 
z
" transform="scale(0.015625)"/>
       <path id="DejaVuSans-Bold-4b" d="M 4056 2131 
L 4056 0 
L 2931 0 
L 2931 347 
L 2931 1625 
Q 2931 2084 2911 2256 
Q 2891 2428 2841 2509 
Q 2775 2619 2662 2680 
Q 2550 2741 2406 2741 
Q 2056 2741 1856 2470 
Q 1656 2200 1656 1722 
L 1656 0 
L 538 0 
L 538 4863 
L 1656 4863 
L 1656 2988 
Q 1909 3294 2193 3439 
Q 2478 3584 2822 3584 
Q 3428 3584 3742 3212 
Q 4056 2841 4056 2131 
z
" transform="scale(0.015625)"/>
       <path id="DejaVuSans-Bold-4c" d="M 538 3500 
L 1656 3500 
L 1656 0 
L 538 0 
L 538 3500 
z
M 538 4863 
L 1656 4863 
L 1656 3950 
L 538 3950 
L 538 4863 
z
" transform="scale(0.015625)"/>
       <path id="DejaVuSans-Bold-52" d="M 2203 2784 
Q 1831 2784 1636 2517 
Q 1441 2250 1441 1747 
Q 1441 1244 1636 976 
Q 1831 709 2203 709 
Q 2569 709 2762 976 
Q 2956 1244 2956 1747 
Q 2956 2250 2762 2517 
Q 2569 2784 2203 2784 
z
M 2203 3584 
Q 3106 3584 3614 3096 
Q 4122 2609 4122 1747 
Q 4122 884 3614 396 
Q 3106 -91 2203 -91 
Q 1297 -91 786 396 
Q 275 884 275 1747 
Q 275 2609 786 3096 
Q 1297 3584 2203 3584 
z
" transform="scale(0.015625)"/>
       <path id="DejaVuSans-Bold-53" d="M 1656 506 
L 1656 -1331 
L 538 -1331 
L 538 3500 
L 1656 3500 
L 1656 2988 
Q 1888 3294 2169 3439 
Q 2450 3584 2816 3584 
Q 3463 3584 3878 3070 
Q 4294 2556 4294 1747 
Q 4294 938 3878 423 
Q 3463 -91 2816 -91 
Q 2450 -91 2169 54 
Q 1888 200 1656 506 
z
M 2400 2772 
Q 2041 2772 1848 2508 
Q 1656 2244 1656 1747 
Q 1656 1250 1848 986 
Q 2041 722 2400 722 
Q 2759 722 2948 984 
Q 3138 1247 3138 1747 
Q 3138 2247 2948 2509 
Q 2759 2772 2400 2772 
z
" transform="scale(0.015625)"/>
       <path id="DejaVuSans-Bold-44" d="M 2106 1575 
Q 1756 1575 1579 1456 
Q 1403 1338 1403 1106 
Q 1403 894 1545 773 
Q 1688 653 1941 653 
Q 2256 653 2472 879 
Q 2688 1106 2688 1447 
L 2688 1575 
L 2106 1575 
z
M 3816 1997 
L 3816 0 
L 2688 0 
L 2688 519 
Q 2463 200 2181 54 
Q 1900 -91 1497 -91 
Q 953 -91 614 226 
Q 275 544 275 1050 
Q 275 1666 698 1953 
Q 1122 2241 2028 2241 
L 2688 2241 
L 2688 2328 
Q 2688 2594 2478 2717 
Q 2269 2841 1825 2841 
Q 1466 2841 1156 2769 
Q 847 2697 581 2553 
L 581 3406 
Q 941 3494 1303 3539 
Q 1666 3584 2028 3584 
Q 2975 3584 3395 3211 
Q 3816 2838 3816 1997 
z
" transform="scale(0.015625)"/>
      </defs>
      <use xlink:href="#DejaVuSans-Bold-28"/>
      <use xlink:href="#DejaVuSans-Bold-57" transform="translate(68.3125 0)"/>
      <use xlink:href="#DejaVuSans-Bold-4b" transform="translate(116.109375 0)"/>
      <use xlink:href="#DejaVuSans-Bold-4c" transform="translate(187.296875 0)"/>
      <use xlink:href="#DejaVuSans-Bold-52" transform="translate(221.578125 0)"/>
      <use xlink:href="#DejaVuSans-Bold-53" transform="translate(290.28125 0)"/>
      <use xlink:href="#DejaVuSans-Bold-4c" transform="translate(361.859375 0)"/>
      <use xlink:href="#DejaVuSans-Bold-44" transform="translate(396.140625 0)"/>
     </g>
    </g>
   </g>
   <g id="text_2">
    <g id="patch_3">
     <path d="M 177.077809 154.522218 
L 220.862809 154.522218 
Q 222.262809 154.522218 222.262809 153.122218 
L 222.262809 146.121671 
Q 222.262809 144.721671 220.862809 144.721671 
L 177.077809 144.721671 
Q 175.677809 144.721671 175.677809 146.121671 
L 175.677809 153.122218 
Q 175.677809 154.522218 177.077809 154.522218 
z
" clip-path="url(#p1cf06ba0c1)" style="fill: #ffffff; opacity: 0.6"/>
    </g>
    <g clip-path="url(#p1cf06ba0c1)">
     <!-- Somaliland -->
     <g style="fill: #1a252f" transform="translate(177.077809 151.440577) scale(0.07 -0.07)">
      <defs>
       <path id="DejaVuSans-Bold-36" d="M 3834 4519 
L 3834 3531 
Q 3450 3703 3084 3790 
Q 2719 3878 2394 3878 
Q 1963 3878 1756 3759 
Q 1550 3641 1550 3391 
Q 1550 3203 1689 3098 
Q 1828 2994 2194 2919 
L 2706 2816 
Q 3484 2659 3812 2340 
Q 4141 2022 4141 1434 
Q 4141 663 3683 286 
Q 3225 -91 2284 -91 
Q 1841 -91 1394 -6 
Q 947 78 500 244 
L 500 1259 
Q 947 1022 1364 901 
Q 1781 781 2169 781 
Q 2563 781 2772 912 
Q 2981 1044 2981 1288 
Q 2981 1506 2839 1625 
Q 2697 1744 2272 1838 
L 1806 1941 
Q 1106 2091 782 2419 
Q 459 2747 459 3303 
Q 459 4000 909 4375 
Q 1359 4750 2203 4750 
Q 2588 4750 2994 4692 
Q 3400 4634 3834 4519 
z
" transform="scale(0.015625)"/>
       <path id="DejaVuSans-Bold-50" d="M 3781 2919 
Q 3994 3244 4286 3414 
Q 4578 3584 4928 3584 
Q 5531 3584 5847 3212 
Q 6163 2841 6163 2131 
L 6163 0 
L 5038 0 
L 5038 1825 
Q 5041 1866 5042 1909 
Q 5044 1953 5044 2034 
Q 5044 2406 4934 2573 
Q 4825 2741 4581 2741 
Q 4263 2741 4089 2478 
Q 3916 2216 3909 1719 
L 3909 0 
L 2784 0 
L 2784 1825 
Q 2784 2406 2684 2573 
Q 2584 2741 2328 2741 
Q 2006 2741 1831 2477 
Q 1656 2213 1656 1722 
L 1656 0 
L 531 0 
L 531 3500 
L 1656 3500 
L 1656 2988 
Q 1863 3284 2130 3434 
Q 2397 3584 2719 3584 
Q 3081 3584 3359 3409 
Q 3638 3234 3781 2919 
z
" transform="scale(0.015625)"/>
       <path id="DejaVuSans-Bold-4f" d="M 538 4863 
L 1656 4863 
L 1656 0 
L 538 0 
L 538 4863 
z
" transform="scale(0.015625)"/>
       <path id="DejaVuSans-Bold-51" d="M 4056 2131 
L 4056 0 
L 2931 0 
L 2931 347 
L 2931 1631 
Q 2931 2084 2911 2256 
Q 2891 2428 2841 2509 
Q 2775 2619 2662 2680 
Q 2550 2741 2406 2741 
Q 2056 2741 1856 2470 
Q 1656 2200 1656 1722 
L 1656 0 
L 538 0 
L 538 3500 
L 1656 3500 
L 1656 2988 
Q 1909 3294 2193 3439 
Q 2478 3584 2822 3584 
Q 3428 3584 3742 3212 
Q 4056 2841 4056 2131 
z
" transform="scale(0.015625)"/>
       <path id="DejaVuSans-Bold-47" d="M 2919 2988 
L 2919 4863 
L 4044 4863 
L 4044 0 
L 2919 0 
L 2919 506 
Q 2688 197 2409 53 
Q 2131 -91 1766 -91 
Q 1119 -91 703 423 
Q 288 938 288 1747 
Q 288 2556 703 3070 
Q 1119 3584 1766 3584 
Q 2128 3584 2408 3439 
Q 2688 3294 2919 2988 
z
M 2181 722 
Q 2541 722 2730 984 
Q 2919 1247 2919 1747 
Q 2919 2247 2730 2509 
Q 2541 2772 2181 2772 
Q 1825 2772 1636 2509 
Q 1447 2247 1447 1747 
Q 1447 1247 1636 984 
Q 1825 722 2181 722 
z
" transform="scale(0.015625)"/>
      </defs>
      <use xlink:href="#DejaVuSans-Bold-36"/>
      <use xlink:href="#DejaVuSans-Bold-52" transform="translate(72.015625 0)"/>
      <use xlink:href="#DejaVuSans-Bold-50" transform="translate(140.71875 0)"/>
      <use xlink:href="#DejaVuSans-Bold-44" transform="translate(244.921875 0)"/>
      <use xlink:href="#DejaVuSans-Bold-4f" transform="translate(312.40625 0)"/>
      <use xlink:href="#DejaVuSans-Bold-4c" transform="translate(346.6875 0)"/>
      <use xlink:href="#DejaVuSans-Bold-4f" transform="translate(380.96875 0)"/>
      <use xlink:href="#DejaVuSans-Bold-44" transform="translate(415.25 0)"/>
      <use xlink:href="#DejaVuSans-Bold-51" transform="translate(482.734375 0)"/>
      <use xlink:href="#DejaVuSans-Bold-47" transform="translate(553.921875 0)"/>
     </g>
    </g>
   </g>
   <g id="text_3">
    <!-- Somalia -->
    <g style="fill: #1a252f" transform="translate(163.61196 20.117344) scale(0.17 -0.17)">
     <use xlink:href="#DejaVuSans-Bold-36"/>
     <use xlink:href="#DejaVuSans-Bold-52" transform="translate(72.015625 0)"/>
     <use xlink:href="#DejaVuSans-Bold-50" transform="translate(140.71875 0)"/>
     <use xlink:href="#DejaVuSans-Bold-44" transform="translate(244.921875 0)"/>
     <use xlink:href="#DejaVuSans-Bold-4f" transform="translate(312.40625 0)"/>
     <use xlink:href="#DejaVuSans-Bold-4c" transform="translate(346.6875 0)"/>
     <use xlink:href="#DejaVuSans-Bold-44" transform="translate(380.96875 0)"/>
    </g>
   </g>
   <g id="line2d_1">
    <path d="M 177.069349 345.767895 
" clip-path="url(#p1cf06ba0c1)" style="fill: none; stroke: #ffffff; stroke-width: 1.5; stroke-linecap: square"/>
    <defs>
     <path id="m0801f687d7" d="M 0 2.5 
C 0.663008 2.5 1.29895 2.236584 1.767767 1.767767 
C 2.236584 1.29895 2.5 0.663008 2.5 0 
C 2.5 -0.663008 2.236584 -1.29895 1.767767 -1.767767 
C 1.29895 -2.236584 0.663008 -2.5 0 -2.5 
C -0.663008 -2.5 -1.29895 -2.236584 -1.767767 -1.767767 
C -2.236584 -1.29895 -2.5 -0.663008 -2.5 0 
C -2.5 0.663008 -2.236584 1.29895 -1.767767 1.767767 
C -1.29895 2.236584 -0.663008 2.5 0 2.5 
z
" style="stroke: #1a252f; stroke-width: 0.8"/>
    </defs>
    <g clip-path="url(#p1cf06ba0c1)">
     <use xlink:href="#m0801f687d7" x="177.069349" y="345.767895" style="fill: #ffffff; stroke: #1a252f; stroke-width: 0.8"/>
    </g>
   </g>
   <g id="text_4">
    <g clip-path="url(#p1cf06ba0c1)">
     <!-- Mogadishu -->
     <g style="fill: #ffffff" transform="translate(183.583418 347.71643) scale(0.075 -0.075)">
      <defs>
       <path id="DejaVuSans-Bold-30" d="M 588 4666 
L 2119 4666 
L 3181 2169 
L 4250 4666 
L 5778 4666 
L 5778 0 
L 4641 0 
L 4641 3413 
L 3566 897 
L 2803 897 
L 1728 3413 
L 1728 0 
L 588 0 
L 588 4666 
z
" transform="scale(0.015625)"/>
       <path id="DejaVuSans-Bold-4a" d="M 2919 594 
Q 2688 288 2409 144 
Q 2131 0 1766 0 
Q 1125 0 706 504 
Q 288 1009 288 1791 
Q 288 2575 706 3076 
Q 1125 3578 1766 3578 
Q 2131 3578 2409 3434 
Q 2688 3291 2919 2981 
L 2919 3500 
L 4044 3500 
L 4044 353 
Q 4044 -491 3511 -936 
Q 2978 -1381 1966 -1381 
Q 1638 -1381 1331 -1331 
Q 1025 -1281 716 -1178 
L 716 -306 
Q 1009 -475 1290 -558 
Q 1572 -641 1856 -641 
Q 2406 -641 2662 -400 
Q 2919 -159 2919 353 
L 2919 594 
z
M 2181 2772 
Q 1834 2772 1640 2515 
Q 1447 2259 1447 1791 
Q 1447 1309 1634 1061 
Q 1822 813 2181 813 
Q 2531 813 2725 1069 
Q 2919 1325 2919 1791 
Q 2919 2259 2725 2515 
Q 2531 2772 2181 2772 
z
" transform="scale(0.015625)"/>
       <path id="DejaVuSans-Bold-56" d="M 3272 3391 
L 3272 2541 
Q 2913 2691 2578 2766 
Q 2244 2841 1947 2841 
Q 1628 2841 1473 2761 
Q 1319 2681 1319 2516 
Q 1319 2381 1436 2309 
Q 1553 2238 1856 2203 
L 2053 2175 
Q 2913 2066 3209 1816 
Q 3506 1566 3506 1031 
Q 3506 472 3093 190 
Q 2681 -91 1863 -91 
Q 1516 -91 1145 -36 
Q 775 19 384 128 
L 384 978 
Q 719 816 1070 734 
Q 1422 653 1784 653 
Q 2113 653 2278 743 
Q 2444 834 2444 1013 
Q 2444 1163 2330 1236 
Q 2216 1309 1875 1350 
L 1678 1375 
Q 931 1469 631 1722 
Q 331 1975 331 2491 
Q 331 3047 712 3315 
Q 1094 3584 1881 3584 
Q 2191 3584 2531 3537 
Q 2872 3491 3272 3391 
z
" transform="scale(0.015625)"/>
       <path id="DejaVuSans-Bold-58" d="M 500 1363 
L 500 3500 
L 1625 3500 
L 1625 3150 
Q 1625 2866 1622 2436 
Q 1619 2006 1619 1863 
Q 1619 1441 1641 1255 
Q 1663 1069 1716 984 
Q 1784 875 1895 815 
Q 2006 756 2150 756 
Q 2500 756 2700 1025 
Q 2900 1294 2900 1772 
L 2900 3500 
L 4019 3500 
L 4019 0 
L 2900 0 
L 2900 506 
Q 2647 200 2364 54 
Q 2081 -91 1741 -91 
Q 1134 -91 817 281 
Q 500 653 500 1363 
z
" transform="scale(0.015625)"/>
      </defs>
      <use xlink:href="#DejaVuSans-Bold-30"/>
      <use xlink:href="#DejaVuSans-Bold-52" transform="translate(99.515625 0)"/>
      <use xlink:href="#DejaVuSans-Bold-4a" transform="translate(168.21875 0)"/>
      <use xlink:href="#DejaVuSans-Bold-44" transform="translate(239.796875 0)"/>
      <use xlink:href="#DejaVuSans-Bold-47" transform="translate(307.28125 0)"/>
      <use xlink:href="#DejaVuSans-Bold-4c" transform="translate(378.859375 0)"/>
      <use xlink:href="#DejaVuSans-Bold-56" transform="translate(413.140625 0)"/>
      <use xlink:href="#DejaVuSans-Bold-4b" transform="translate(472.65625 0)"/>
      <use xlink:href="#DejaVuSans-Bold-58" transform="translate(543.84375 0)"/>
     </g>
    </g>
   </g>
   <g id="legend_1">
    <g id="patch_4">
     <path d="M 13.5 498.657344 
L 88.097344 498.657344 
Q 89.897344 498.657344 89.897344 496.857344 
L 89.897344 470.755937 
Q 89.897344 468.955937 88.097344 468.955937 
L 13.5 468.955937 
Q 11.7 468.955937 11.7 470.755937 
L 11.7 496.857344 
Q 11.7 498.657344 13.5 498.657344 
z
" style="fill: #ffffff; opacity: 0.85; stroke: #cccccc; stroke-linejoin: miter"/>
    </g>
    <g id="patch_5">
     <path d="M 15.3 479.394531 
L 33.3 479.394531 
L 33.3 473.094531 
L 15.3 473.094531 
z
" style="fill: #e74c3c; stroke: #888888; stroke-linejoin: miter"/>
    </g>
    <g id="text_5">
     <!-- Somalia -->
     <g transform="translate(40.5 479.394531) scale(0.09 -0.09)">
      <defs>
       <path id="DejaVuSans-36" d="M 3425 4513 
L 3425 3897 
Q 3066 4069 2747 4153 
Q 2428 4238 2131 4238 
Q 1616 4238 1336 4038 
Q 1056 3838 1056 3469 
Q 1056 3159 1242 3001 
Q 1428 2844 1947 2747 
L 2328 2669 
Q 3034 2534 3370 2195 
Q 3706 1856 3706 1288 
Q 3706 609 3251 259 
Q 2797 -91 1919 -91 
Q 1588 -91 1214 -16 
Q 841 59 441 206 
L 441 856 
Q 825 641 1194 531 
Q 1563 422 1919 422 
Q 2459 422 2753 634 
Q 3047 847 3047 1241 
Q 3047 1584 2836 1778 
Q 2625 1972 2144 2069 
L 1759 2144 
Q 1053 2284 737 2584 
Q 422 2884 422 3419 
Q 422 4038 858 4394 
Q 1294 4750 2059 4750 
Q 2388 4750 2728 4690 
Q 3069 4631 3425 4513 
z
" transform="scale(0.015625)"/>
       <path id="DejaVuSans-52" d="M 1959 3097 
Q 1497 3097 1228 2736 
Q 959 2375 959 1747 
Q 959 1119 1226 758 
Q 1494 397 1959 397 
Q 2419 397 2687 759 
Q 2956 1122 2956 1747 
Q 2956 2369 2687 2733 
Q 2419 3097 1959 3097 
z
M 1959 3584 
Q 2709 3584 3137 3096 
Q 3566 2609 3566 1747 
Q 3566 888 3137 398 
Q 2709 -91 1959 -91 
Q 1206 -91 779 398 
Q 353 888 353 1747 
Q 353 2609 779 3096 
Q 1206 3584 1959 3584 
z
" transform="scale(0.015625)"/>
       <path id="DejaVuSans-50" d="M 3328 2828 
Q 3544 3216 3844 3400 
Q 4144 3584 4550 3584 
Q 5097 3584 5394 3201 
Q 5691 2819 5691 2113 
L 5691 0 
L 5113 0 
L 5113 2094 
Q 5113 2597 4934 2840 
Q 4756 3084 4391 3084 
Q 3944 3084 3684 2787 
Q 3425 2491 3425 1978 
L 3425 0 
L 2847 0 
L 2847 2094 
Q 2847 2600 2669 2842 
Q 2491 3084 2119 3084 
Q 1678 3084 1418 2786 
Q 1159 2488 1159 1978 
L 1159 0 
L 581 0 
L 581 3500 
L 1159 3500 
L 1159 2956 
Q 1356 3278 1631 3431 
Q 1906 3584 2284 3584 
Q 2666 3584 2933 3390 
Q 3200 3197 3328 2828 
z
" transform="scale(0.015625)"/>
       <path id="DejaVuSans-44" d="M 2194 1759 
Q 1497 1759 1228 1600 
Q 959 1441 959 1056 
Q 959 750 1161 570 
Q 1363 391 1709 391 
Q 2188 391 2477 730 
Q 2766 1069 2766 1631 
L 2766 1759 
L 2194 1759 
z
M 3341 1997 
L 3341 0 
L 2766 0 
L 2766 531 
Q 2569 213 2275 61 
Q 1981 -91 1556 -91 
Q 1019 -91 701 211 
Q 384 513 384 1019 
Q 384 1609 779 1909 
Q 1175 2209 1959 2209 
L 2766 2209 
L 2766 2266 
Q 2766 2663 2505 2880 
Q 2244 3097 1772 3097 
Q 1472 3097 1187 3025 
Q 903 2953 641 2809 
L 641 3341 
Q 956 3463 1253 3523 
Q 1550 3584 1831 3584 
Q 2591 3584 2966 3190 
Q 3341 2797 3341 1997 
z
" transform="scale(0.015625)"/>
       <path id="DejaVuSans-4f" d="M 603 4863 
L 1178 4863 
L 1178 0 
L 603 0 
L 603 4863 
z
" transform="scale(0.015625)"/>
       <path id="DejaVuSans-4c" d="M 603 3500 
L 1178 3500 
L 1178 0 
L 603 0 
L 603 3500 
z
M 603 4863 
L 1178 4863 
L 1178 4134 
L 603 4134 
L 603 4863 
z
" transform="scale(0.015625)"/>
      </defs>
      <use xlink:href="#DejaVuSans-36"/>
      <use xlink:href="#DejaVuSans-52" transform="translate(63.484375 0)"/>
      <use xlink:href="#DejaVuSans-50" transform="translate(124.671875 0)"/>
      <use xlink:href="#DejaVuSans-44" transform="translate(222.078125 0)"/>
      <use xlink:href="#DejaVuSans-4f" transform="translate(283.359375 0)"/>
      <use xlink:href="#DejaVuSans-4c" transform="translate(311.140625 0)"/>
      <use xlink:href="#DejaVuSans-44" transform="translate(338.921875 0)"/>
     </g>
    </g>
    <g id="patch_6">
     <path d="M 15.3 492.895234 
L 33.3 492.895234 
L 33.3 486.595234 
L 15.3 486.595234 
z
" style="fill: #bdc3c7; stroke: #888888; stroke-linejoin: miter"/>
    </g>
    <g id="text_6">
     <!-- Neighbors -->
     <g transform="translate(40.5 492.895234) scale(0.09 -0.09)">
      <defs>
       <path id="DejaVuSans-31" d="M 628 4666 
L 1478 4666 
L 3547 763 
L 3547 4666 
L 4159 4666 
L 4159 0 
L 3309 0 
L 1241 3903 
L 1241 0 
L 628 0 
L 628 4666 
z
" transform="scale(0.015625)"/>
       <path id="DejaVuSans-48" d="M 3597 1894 
L 3597 1613 
L 953 1613 
Q 991 1019 1311 708 
Q 1631 397 2203 397 
Q 2534 397 2845 478 
Q 3156 559 3463 722 
L 3463 178 
Q 3153 47 2828 -22 
Q 2503 -91 2169 -91 
Q 1331 -91 842 396 
Q 353 884 353 1716 
Q 353 2575 817 3079 
Q 1281 3584 2069 3584 
Q 2775 3584 3186 3129 
Q 3597 2675 3597 1894 
z
M 3022 2063 
Q 3016 2534 2758 2815 
Q 2500 3097 2075 3097 
Q 1594 3097 1305 2825 
Q 1016 2553 972 2059 
L 3022 2063 
z
" transform="scale(0.015625)"/>
       <path id="DejaVuSans-4a" d="M 2906 1791 
Q 2906 2416 2648 2759 
Q 2391 3103 1925 3103 
Q 1463 3103 1205 2759 
Q 947 2416 947 1791 
Q 947 1169 1205 825 
Q 1463 481 1925 481 
Q 2391 481 2648 825 
Q 2906 1169 2906 1791 
z
M 3481 434 
Q 3481 -459 3084 -895 
Q 2688 -1331 1869 -1331 
Q 1566 -1331 1297 -1286 
Q 1028 -1241 775 -1147 
L 775 -588 
Q 1028 -725 1275 -790 
Q 1522 -856 1778 -856 
Q 2344 -856 2625 -561 
Q 2906 -266 2906 331 
L 2906 616 
Q 2728 306 2450 153 
Q 2172 0 1784 0 
Q 1141 0 747 490 
Q 353 981 353 1791 
Q 353 2603 747 3093 
Q 1141 3584 1784 3584 
Q 2172 3584 2450 3431 
Q 2728 3278 2906 2969 
L 2906 3500 
L 3481 3500 
L 3481 434 
z
" transform="scale(0.015625)"/>
       <path id="DejaVuSans-4b" d="M 3513 2113 
L 3513 0 
L 2938 0 
L 2938 2094 
Q 2938 2591 2744 2837 
Q 2550 3084 2163 3084 
Q 1697 3084 1428 2787 
Q 1159 2491 1159 1978 
L 1159 0 
L 581 0 
L 581 4863 
L 1159 4863 
L 1159 2956 
Q 1366 3272 1645 3428 
Q 1925 3584 2291 3584 
Q 2894 3584 3203 3211 
Q 3513 2838 3513 2113 
z
" transform="scale(0.015625)"/>
       <path id="DejaVuSans-45" d="M 3116 1747 
Q 3116 2381 2855 2742 
Q 2594 3103 2138 3103 
Q 1681 3103 1420 2742 
Q 1159 2381 1159 1747 
Q 1159 1113 1420 752 
Q 1681 391 2138 391 
Q 2594 391 2855 752 
Q 3116 1113 3116 1747 
z
M 1159 2969 
Q 1341 3281 1617 3432 
Q 1894 3584 2278 3584 
Q 2916 3584 3314 3078 
Q 3713 2572 3713 1747 
Q 3713 922 3314 415 
Q 2916 -91 2278 -91 
Q 1894 -91 1617 61 
Q 1341 213 1159 525 
L 1159 0 
L 581 0 
L 581 4863 
L 1159 4863 
L 1159 2969 
z
" transform="scale(0.015625)"/>
       <path id="DejaVuSans-55" d="M 2631 2963 
Q 2534 3019 2420 3045 
Q 2306 3072 2169 3072 
Q 1681 3072 1420 2755 
Q 1159 2438 1159 1844 
L 1159 0 
L 581 0 
L 581 3500 
L 1159 3500 
L 1159 2956 
Q 1341 3275 1631 3429 
Q 1922 3584 2338 3584 
Q 2397 3584 2469 3576 
Q 2541 3569 2628 3553 
L 2631 2963 
z
" transform="scale(0.015625)"/>
       <path id="DejaVuSans-56" d="M 2834 3397 
L 2834 2853 
Q 2591 2978 2328 3040 
Q 2066 3103 1784 3103 
Q 1356 3103 1142 2972 
Q 928 2841 928 2578 
Q 928 2378 1081 2264 
Q 1234 2150 1697 2047 
L 1894 2003 
Q 2506 1872 2764 1633 
Q 3022 1394 3022 966 
Q 3022 478 2636 193 
Q 2250 -91 1575 -91 
Q 1294 -91 989 -36 
Q 684 19 347 128 
L 347 722 
Q 666 556 975 473 
Q 1284 391 1588 391 
Q 1994 391 2212 530 
Q 2431 669 2431 922 
Q 2431 1156 2273 1281 
Q 2116 1406 1581 1522 
L 1381 1569 
Q 847 1681 609 1914 
Q 372 2147 372 2553 
Q 372 3047 722 3315 
Q 1072 3584 1716 3584 
Q 2034 3584 2315 3537 
Q 2597 3491 2834 3397 
z
" transform="scale(0.015625)"/>
      </defs>
      <use xlink:href="#DejaVuSans-31"/>
      <use xlink:href="#DejaVuSans-48" transform="translate(74.8125 0)"/>
      <use xlink:href="#DejaVuSans-4c" transform="translate(136.34375 0)"/>
      <use xlink:href="#DejaVuSans-4a" transform="translate(164.125 0)"/>
      <use xlink:href="#DejaVuSans-4b" transform="translate(227.609375 0)"/>
      <use xlink:href="#DejaVuSans-45" transform="translate(290.984375 0)"/>
      <use xlink:href="#DejaVuSans-52" transform="translate(354.46875 0)"/>
      <use xlink:href="#DejaVuSans-55" transform="translate(415.65625 0)"/>
      <use xlink:href="#DejaVuSans-56" transform="translate(456.765625 0)"/>
     </g>
    </g>
   </g>
  </g>
 </g>
 <defs>
  <clipPath id="p1cf06ba0c1">
   <rect x="7.2" y="30.117344" width="389.060952" height="473.04"/>
  </clipPath>
 </defs>
</svg>
