<?xml version="1.0" encoding="utf-8" standalone="no"?>
<!DOCTYPE svg PUBLIC "-//W3C//DTD SVG 1.1//EN"
  "http://www.w3.org/Graphics/SVG/1.1/DTD/svg11.dtd">
<svg xmlns:xlink="http://www.w3.org/1999/xlink" width="361.520173pt" height="510.357344pt" viewBox="0 0 361.520173 510.357344" xmlns="http://www.w3.org/2000/svg" version="1.1">
 <metadata>
  <rdf:RDF xmlns:dc="http://purl.org/dc/elements/1.1/" xmlns:cc="http://creativecommons.org/ns#" xmlns:rdf="http://www.w3.org/1999/02/22-rdf-syntax-ns#">
   <cc:Work>
    <dc:type rdf:resource="http://purl.org/dc/dcmitype/StillImage"/>
    <dc:date>2026-06-19T08:14:13.648872</dc:date>
    <dc:format>image/svg+xml</dc:format>
    <dc:creator>
     <cc:Agent>
      <dc:title>Matplotlib v3.11.0, https://matplotlib.org/</dc:title>
     </cc:Agent>
    </dc:creator>
   </cc:Work>
  </rdf:RDF>
 </metadata>
 <defs>
  <style type="text/css">*{stroke-linejoin: round; stroke-linecap: butt}</style>
 </defs>
 <g id="figure_1">
  <g id="patch_1">
   <path d="M -0 510.357344 
L 361.520173 510.357344 
L 361.520173 0 
L -0 0 
z
" style="fill: #d6eaf8"/>
  </g>
  <g id="axes_1">
   <g id="PatchCollection_1">
    <path d="M 102.34612 250.334867 
L 102.34612 247.979377 
L 102.607937 248.227323 
L 102.869753 248.227323 
L 102.869753 248.475269 
L 103.131569 247.111564 
L 102.869753 242.772502 
L 102.34612 241.53277 
L 103.655202 240.788931 
L 104.702467 239.301252 
L 105.487915 237.565627 
L 106.011548 236.201922 
L 106.273364 235.33411 
L 108.367894 231.86286 
L 108.367894 231.986833 
L 107.320629 234.466297 
L 106.011548 236.945761 
L 106.273364 237.565627 
L 106.273364 237.689601 
L 106.796997 238.185493 
L 107.582445 238.557413 
L 108.367894 238.557413 
L 107.582445 240.540984 
L 107.058813 242.028663 
L 106.53518 242.276609 
L 106.273364 242.276609 
L 106.011548 242.524556 
L 106.011548 243.268395 
L 106.011548 245.00402 
L 106.011548 245.499912 
L 104.702467 249.467055 
L 104.702467 250.210894 
L 104.702467 251.698573 
L 106.011548 253.186251 
L 106.53518 253.558171 
L 104.964283 256.657501 
L 107.320629 258.269152 
L 110.72424 258.641072 
L 112.295138 257.40134 
L 112.033321 256.037635 
L 111.509689 255.045849 
L 111.247873 254.67393 
L 110.986056 254.30201 
L 110.462424 253.558171 
L 109.676975 253.062278 
L 109.415159 252.194465 
L 111.771505 247.607457 
L 111.771505 246.739644 
L 111.509689 246.119778 
L 111.247873 245.623886 
L 110.986056 245.00402 
L 110.72424 244.136207 
L 110.986056 242.648529 
L 110.986056 242.028663 
L 110.986056 241.904689 
L 110.72424 241.284823 
L 110.462424 241.16085 
L 110.462424 241.036877 
L 110.200608 240.788931 
L 110.462424 239.921118 
L 110.72424 239.301252 
L 111.771505 238.06152 
L 111.771505 237.193708 
L 112.033321 235.706029 
L 112.81877 232.606699 
L 113.342403 225.416253 
L 113.866035 224.672414 
L 114.389668 224.176521 
L 114.651484 223.680628 
L 114.9133 222.688843 
L 114.9133 219.589513 
L 115.175116 218.101834 
L 116.222381 217.110049 
L 117.531463 216.366209 
L 118.316911 215.374424 
L 118.578728 215.002504 
L 119.364176 212.647013 
L 119.364176 212.52304 
L 119.625993 211.903174 
L 120.149625 210.415496 
L 120.935074 203.22505 
L 119.10236 198.762014 
L 119.364176 197.894202 
L 119.364176 192.687327 
L 119.10236 190.951703 
L 119.10236 190.08389 
L 118.578728 189.464024 
L 118.316911 188.720185 
L 119.10236 188.348265 
L 119.887809 188.100319 
L 120.673258 187.976346 
L 124.862318 184.133176 
L 126.956848 183.017417 
L 128.004113 182.273578 
L 128.527745 180.41398 
L 129.313194 178.678355 
L 129.836826 176.074918 
L 132.193172 170.000231 
L 132.193172 169.628311 
L 132.454989 168.760499 
L 132.978621 167.024874 
L 132.978621 162.809785 
L 132.978621 162.065946 
L 132.978621 161.694026 
L 132.193172 161.570053 
L 130.098643 160.454294 
L 129.313194 159.710455 
L 128.789561 158.34675 
L 128.789561 158.098803 
L 128.265929 156.363179 
L 128.265929 155.495366 
L 129.313194 154.50358 
L 130.884091 153.759741 
L 132.716805 153.139875 
L 134.025886 152.891929 
L 134.811335 152.643982 
L 136.382232 150.412465 
L 136.382232 150.288492 
L 136.644049 150.164518 
L 137.429497 149.792599 
L 137.95313 149.544652 
L 138.738579 149.420679 
L 138.214946 148.180947 
L 137.691314 147.561081 
L 137.167681 147.065188 
L 136.120416 145.949429 
L 134.811335 144.957644 
L 129.313194 141.73434 
L 128.265929 140.370635 
L 130.622275 140.494608 
L 132.978621 141.362421 
L 137.167681 143.965858 
L 141.356741 144.957644 
L 142.665822 145.701483 
L 144.23672 147.189161 
L 144.760352 147.933001 
L 143.713087 148.428893 
L 143.974904 148.924786 
L 144.23672 149.420679 
L 143.713087 149.916572 
L 145.283985 150.908358 
L 148.949412 150.040545 
L 155.494819 147.437108 
L 157.327532 147.685054 
L 161.254776 148.67684 
L 165.705652 150.784384 
L 169.109263 151.40425 
L 164.134755 148.056974 
L 162.563857 147.189161 
L 160.99296 146.941215 
L 160.731143 146.817242 
L 160.469327 146.693269 
L 159.160246 145.701483 
L 158.636613 145.453537 
L 158.374797 145.329563 
L 157.589348 145.329563 
L 156.8039 145.453537 
L 156.280267 145.57751 
L 156.018451 145.701483 
L 156.018451 146.073403 
L 155.756635 146.197376 
L 154.70937 145.453537 
L 154.447554 145.329563 
L 151.829391 145.453537 
L 151.305759 145.20559 
L 146.069434 140.742555 
L 143.974904 139.37885 
L 143.189455 139.00693 
L 139.262211 137.395278 
L 137.95313 136.527466 
L 137.167681 136.527466 
L 137.167681 138.387064 
L 137.691314 138.882957 
L 138.476762 139.502823 
L 139.000395 140.246662 
L 138.476762 141.114474 
L 137.95313 141.238448 
L 137.429497 140.990501 
L 136.905865 140.618582 
L 135.596784 139.874742 
L 132.978621 137.519251 
L 131.407724 136.899385 
L 132.193172 137.767198 
L 133.502254 139.00693 
L 134.287702 139.874742 
L 132.454989 139.502823 
L 130.884091 138.758984 
L 127.218664 136.899385 
L 124.600501 134.667868 
L 122.767788 134.048002 
L 122.767788 133.924029 
L 121.982339 133.552109 
L 121.458706 133.304163 
L 121.458706 133.800055 
L 120.673258 133.304163 
L 120.411441 132.560323 
L 120.149625 131.692511 
L 119.887809 130.824698 
L 119.364176 129.956886 
L 119.10236 129.584966 
L 118.316911 128.593181 
L 117.793279 127.725368 
L 119.364176 126.981529 
L 122.244155 124.378092 
L 123.553236 123.758226 
L 129.313194 124.254119 
L 132.193172 123.882199 
L 133.240437 124.006172 
L 133.76407 124.997958 
L 133.76407 126.60961 
L 134.025886 127.105502 
L 134.549519 127.353449 
L 135.073151 127.353449 
L 136.905865 127.849342 
L 137.167681 128.097288 
L 137.691314 128.717154 
L 138.476762 128.717154 
L 139.000395 128.469208 
L 139.262211 128.345234 
L 139.524027 128.345234 
L 139.785844 128.345234 
L 140.309476 128.593181 
L 140.571292 128.841127 
L 142.665822 130.948672 
L 149.211229 138.015144 
L 151.305759 139.37885 
L 156.542084 141.858314 
L 156.8039 141.858314 
L 156.8039 141.362421 
L 154.185737 139.998716 
L 147.640331 134.791841 
L 142.404006 128.717154 
L 139.785844 127.353449 
L 135.596784 126.361663 
L 134.549519 125.493851 
L 134.287702 124.378092 
L 135.8586 123.758226 
L 136.382232 123.634253 
L 137.95313 123.386306 
L 141.094925 123.262333 
L 142.404006 123.510279 
L 143.451271 124.254119 
L 143.974904 126.60961 
L 144.760352 127.601395 
L 154.185737 138.882957 
L 155.756635 139.874742 
L 158.636613 141.486394 
L 178.534648 157.726884 
L 178.796465 157.850857 
L 179.320097 158.718669 
L 180.105546 159.834428 
L 181.676443 161.198134 
L 182.461892 162.561839 
L 181.676443 163.057732 
L 181.152811 162.809785 
L 181.152811 162.685812 
L 180.367362 161.818 
L 179.84373 161.570053 
L 178.534648 161.322107 
L 178.011016 161.44608 
L 178.272832 162.065946 
L 178.534648 162.313892 
L 182.200076 165.785142 
L 183.770973 166.652954 
L 182.985524 165.661169 
L 182.723708 164.793356 
L 182.985524 164.297464 
L 184.032789 164.049517 
L 184.294606 164.297464 
L 185.080054 166.652954 
L 185.865503 168.01666 
L 188.745482 173.471481 
L 187.960033 173.347508 
L 186.650952 172.727642 
L 185.603687 172.727642 
L 185.080054 173.719427 
L 185.603687 174.091347 
L 186.912768 174.21532 
L 187.960033 174.959159 
L 188.221849 176.570811 
L 188.745482 176.570811 
L 188.745482 176.198891 
L 189.007298 175.950945 
L 189.269114 175.826972 
L 189.792747 175.579025 
L 190.054563 177.066704 
L 190.054563 177.31465 
L 191.101828 179.670141 
L 192.410909 181.777685 
L 193.981807 182.645498 
L 193.981807 182.769471 
L 194.243623 182.893444 
L 194.243623 183.389337 
L 193.719991 183.88523 
L 193.196358 184.133176 
L 192.934542 183.88523 
L 192.149093 182.645498 
L 191.363644 182.149605 
L 189.269114 181.653712 
L 188.221849 181.157819 
L 188.745482 181.901659 
L 189.007298 182.273578 
L 191.625461 184.753042 
L 191.625461 186.116748 
L 192.410909 186.736614 
L 191.625461 187.480453 
L 191.101828 188.348265 
L 192.149093 189.216078 
L 193.458174 189.092104 
L 194.505439 188.224292 
L 195.029072 186.860587 
L 195.552704 185.620855 
L 198.170867 188.844158 
L 200.527213 192.811301 
L 201.574478 193.803086 
L 202.883559 194.175006 
L 203.930824 195.042818 
L 205.501722 198.885988 
L 206.025354 199.257907 
L 206.287171 199.7538 
L 208.119884 200.497639 
L 208.905333 202.481211 
L 209.952598 206.32438 
L 210.214414 205.580541 
L 210.47623 205.332594 
L 210.738047 205.456567 
L 211.523495 205.828487 
L 211.261679 206.448353 
L 213.356209 208.679871 
L 214.141658 209.79563 
L 214.141658 211.159335 
L 213.618025 211.655228 
L 212.832577 212.027147 
L 212.047128 212.770986 
L 212.57076 212.647013 
L 213.094393 212.52304 
L 213.356209 212.399067 
L 213.618025 212.275094 
L 215.188923 215.746343 
L 215.450739 217.481968 
L 213.618025 217.853888 
L 213.879842 216.614156 
L 213.356209 215.746343 
L 212.57076 215.498397 
L 212.047128 216.862102 
L 212.308944 217.853888 
L 212.832577 218.473754 
L 213.094393 219.217593 
L 212.57076 220.333352 
L 212.047128 220.085406 
L 211.261679 219.46554 
L 209.952598 218.597727 
L 208.643517 218.349781 
L 207.596252 218.845673 
L 206.548987 220.085406 
L 206.810803 220.829245 
L 208.119884 220.581298 
L 209.690782 219.341566 
L 210.738047 220.457325 
L 211.523495 221.82103 
L 212.57076 222.936789 
L 214.403474 223.432682 
L 217.545269 223.308709 
L 218.85435 222.56487 
L 218.068902 220.829245 
L 219.901615 219.961432 
L 220.687064 219.713486 
L 221.472513 219.837459 
L 222.257962 220.333352 
L 223.305227 221.201164 
L 223.828859 222.19295 
L 224.352492 225.168307 
L 225.399757 228.887503 
L 225.399757 229.879289 
L 225.399757 230.871074 
L 224.614308 230.251208 
L 223.567043 228.267637 
L 222.781594 227.895717 
L 222.781594 228.39161 
L 223.04341 230.747101 
L 223.04341 230.995048 
L 223.567043 231.86286 
L 224.090675 232.110806 
L 224.352492 232.358753 
L 225.399757 232.358753 
L 226.185205 232.730672 
L 226.708838 235.458083 
L 227.23247 237.441654 
L 227.23247 237.813574 
L 227.494287 238.929333 
L 227.756103 239.673172 
L 229.327 244.880046 
L 229.850633 248.227323 
L 228.541552 250.086921 
L 227.756103 246.987591 
L 227.756103 246.615671 
L 226.447022 243.516341 
L 225.923389 243.516341 
L 225.923389 245.871832 
L 225.923389 246.615671 
L 225.923389 246.739644 
L 225.923389 247.111564 
L 225.923389 247.607457 
L 226.185205 247.855403 
L 226.970654 248.10335 
L 226.970654 248.227323 
L 227.494287 249.838975 
L 228.803368 250.706787 
L 230.112449 250.706787 
L 230.636082 249.095135 
L 230.897898 249.095135 
L 231.42153 249.962948 
L 231.683346 250.210894 
L 232.206979 252.814331 
L 232.730611 253.806117 
L 233.51606 254.67393 
L 234.039693 255.541742 
L 235.086958 257.649286 
L 235.348774 257.277367 
L 235.872406 256.905447 
L 236.134223 256.657501 
L 236.396039 257.277367 
L 236.134223 257.649286 
L 236.134223 257.897233 
L 236.396039 258.145179 
L 236.396039 258.269152 
L 236.396039 258.641072 
L 236.919671 258.269152 
L 237.70512 257.897233 
L 237.966936 257.649286 
L 238.228753 258.021206 
L 238.228753 258.517099 
L 238.228753 259.136965 
L 237.966936 259.756831 
L 237.966936 260.252724 
L 237.966936 260.624643 
L 238.490569 261.616429 
L 239.276018 262.360268 
L 240.061466 262.732188 
L 240.585099 263.723973 
L 240.061466 263.723973 
L 240.061466 263.847947 
L 239.79965 263.97192 
L 239.537834 264.095893 
L 239.276018 264.963705 
L 239.014201 265.707545 
L 239.79965 268.187009 
L 240.323283 268.806875 
L 241.370548 269.922634 
L 242.941445 269.674687 
L 243.465078 269.674687 
L 243.98871 271.162366 
L 244.512343 272.154151 
L 244.774159 272.402098 
L 247.915954 275.749374 
L 248.963219 277.361026 
L 248.963219 278.724731 
L 247.392321 279.220624 
L 246.606873 278.724731 
L 245.035975 276.493213 
L 243.98871 275.625401 
L 242.679629 275.253481 
L 241.89418 275.253481 
L 241.108731 276.121294 
L 240.585099 277.732946 
L 241.370548 278.104865 
L 242.155996 278.228838 
L 242.941445 277.980892 
L 243.465078 277.237053 
L 244.250526 277.484999 
L 245.035975 277.856919 
L 245.297791 278.228838 
L 245.559608 278.476785 
L 245.559608 279.220624 
L 246.345056 280.21241 
L 247.392321 281.080222 
L 248.17777 281.948034 
L 248.963219 283.31174 
L 248.439586 283.683659 
L 248.439586 284.055579 
L 248.701403 284.675445 
L 248.963219 285.295311 
L 249.486851 284.799418 
L 249.225035 283.807633 
L 250.010484 284.055579 
L 251.581381 285.295311 
L 252.105014 285.915177 
L 253.414095 289.262454 
L 253.414095 289.5104 
L 252.890463 291.369998 
L 252.890463 291.493971 
L 252.890463 291.617944 
L 253.414095 292.23781 
L 253.414095 292.60973 
L 253.152279 293.105623 
L 252.628646 293.477542 
L 252.36683 293.973435 
L 252.628646 294.593301 
L 252.890463 295.089194 
L 253.152279 295.461114 
L 253.414095 295.833033 
L 253.937728 296.328926 
L 253.152279 296.948792 
L 253.152279 297.196739 
L 253.152279 297.444685 
L 253.937728 297.568658 
L 254.46136 296.824819 
L 254.984993 296.824819 
L 255.508625 299.800176 
L 255.508625 300.915935 
L 256.032258 300.915935 
L 256.032258 299.800176 
L 256.294074 298.80839 
L 256.55589 297.940578 
L 256.817706 297.320712 
L 256.817706 296.824819 
L 256.817706 296.700846 
L 256.817706 296.204953 
L 256.817706 296.08098 
L 257.341339 296.204953 
L 257.864971 296.824819 
L 258.126787 297.444685 
L 258.388604 298.932363 
L 259.435869 300.791962 
L 261.268582 306.990622 
L 261.006766 324.222897 
L 261.006766 325.462629 
L 261.792215 328.066066 
L 262.054031 329.553745 
L 261.530399 332.529102 
L 258.126787 344.182583 
L 257.864971 345.298342 
L 257.864971 346.909994 
L 257.603155 348.273699 
L 256.55589 350.25727 
L 256.294074 351.249056 
L 256.032258 352.488788 
L 254.46136 354.720305 
L 253.937728 355.712091 
L 254.46136 357.447716 
L 253.675911 359.679234 
L 246.868689 370.464902 
L 244.512343 372.820393 
L 240.323283 375.79575 
L 238.752385 376.291643 
L 236.919671 377.283429 
L 223.567043 387.945124 
L 220.94888 389.308829 
L 212.047128 392.532133 
L 212.047128 391.416374 
L 211.523495 390.920481 
L 211.261679 391.044454 
L 210.738047 391.168427 
L 210.47623 391.66432 
L 210.47623 392.904052 
L 209.952598 393.399945 
L 209.428965 393.523918 
L 208.643517 393.895838 
L 207.072619 394.887624 
L 205.501722 395.631463 
L 197.909051 397.243114 
L 194.243623 398.482847 
L 190.054563 399.226686 
L 188.221849 399.970525 
L 187.174584 401.458203 
L 185.341871 401.086284 
L 184.032789 401.582177 
L 183.247341 401.830123 
L 180.629178 403.937667 
L 177.7492 406.045212 
L 176.440118 407.53289 
L 173.56014 407.408917 
L 172.251058 407.53289 
L 171.203793 407.90481 
L 170.156528 408.524676 
L 168.585631 409.764408 
L 168.061998 409.888381 
L 167.538366 410.012355 
L 166.229285 409.516462 
L 164.920203 408.896596 
L 164.134755 408.648649 
L 163.611122 408.524676 
L 159.422062 409.020569 
L 158.374797 408.772622 
L 157.589348 408.152756 
L 157.327532 407.408917 
L 157.065716 406.913024 
L 156.8039 406.541105 
L 155.494819 407.284944 
L 154.447554 407.408917 
L 152.353024 407.036998 
L 152.091207 407.036998 
L 151.567575 406.913024 
L 151.305759 406.541105 
L 151.043942 406.169185 
L 150.52031 406.045212 
L 150.258494 406.169185 
L 149.996677 406.417132 
L 149.734861 406.541105 
L 149.211229 406.541105 
L 149.211229 406.417132 
L 148.949412 406.417132 
L 148.687596 405.673292 
L 148.42578 405.549319 
L 148.163964 405.549319 
L 147.640331 405.301373 
L 144.760352 404.185614 
L 143.451271 403.937667 
L 142.404006 403.813694 
L 140.833109 402.449989 
L 140.571292 402.326016 
L 139.785844 401.954096 
L 139.262211 402.573962 
L 137.95313 401.458203 
L 131.931356 395.13557 
L 131.407724 394.76365 
L 131.407724 394.639677 
L 131.407724 394.391731 
L 131.145908 394.143784 
L 131.145908 393.523918 
L 131.145908 393.151999 
L 130.884091 392.904052 
L 130.098643 392.03624 
L 126.695031 384.845794 
L 126.695031 384.225928 
L 126.695031 383.606062 
L 126.695031 382.986196 
L 126.695031 382.614276 
L 125.909583 381.374544 
L 125.38595 377.903295 
L 124.076869 375.547804 
L 123.29142 372.076554 
L 122.767788 370.836822 
L 122.767788 370.712849 
L 122.505971 370.464902 
L 121.982339 370.216956 
L 121.982339 369.845036 
L 121.982339 369.349143 
L 122.244155 369.22517 
L 122.767788 369.349143 
L 122.244155 365.382001 
L 122.244155 365.134055 
L 120.673258 361.166912 
L 114.389668 345.174369 
L 113.604219 339.595574 
L 113.342403 339.099682 
L 113.342403 333.768834 
L 113.604219 333.644861 
L 114.127851 331.909236 
L 114.389668 331.041423 
L 114.389668 330.173611 
L 110.986056 317.776291 
L 111.509689 315.916692 
L 111.247873 317.032451 
L 111.771505 317.776291 
L 112.033321 318.272183 
L 112.295138 318.892049 
L 113.080586 321.371513 
L 113.342403 321.991379 
L 113.866035 321.991379 
L 113.866035 321.24754 
L 114.127851 320.999594 
L 114.389668 320.999594 
L 114.389668 318.768076 
L 114.127851 317.776291 
L 113.866035 316.908478 
L 113.604219 316.660532 
L 112.556954 316.536558 
L 112.033321 316.164639 
L 112.033321 316.040666 
L 111.771505 315.544773 
L 112.033321 315.04888 
L 112.295138 314.429014 
L 112.295138 313.933121 
L 108.891526 287.774775 
L 108.367894 286.782989 
L 108.62971 286.41107 
L 108.891526 286.41107 
L 109.415159 286.782989 
L 109.415159 285.543257 
L 109.938791 284.055579 
L 109.938791 283.31174 
L 110.200608 282.567901 
L 109.676975 281.452142 
L 109.153343 280.460356 
L 108.891526 279.84049 
L 108.891526 279.096651 
L 108.891526 276.493213 
L 107.320629 268.187009 
L 107.058813 267.319196 
L 106.273364 265.459598 
L 105.487915 261.616429 
L 104.178834 258.641072 
z
" clip-path="url(#pb78e050b66)" style="fill: #e74c3c; stroke: #ffffff; stroke-width: 0.6"/>
    <path d="M 112.81877 132.80827 
L 113.604219 131.568538 
L 113.866035 129.956886 
L 114.389668 128.717154 
L 115.960565 128.345234 
L 116.746014 128.593181 
L 116.746014 129.213047 
L 116.484198 130.080859 
L 116.484198 131.072645 
L 116.484198 132.06443 
L 116.484198 132.80827 
L 116.484198 132.932243 
L 116.484198 133.056216 
L 116.746014 133.676082 
L 117.269646 134.048002 
L 117.531463 134.295948 
L 117.793279 134.419921 
L 119.10236 134.295948 
L 119.364176 134.543895 
L 119.364176 135.659653 
L 119.625993 136.155546 
L 120.411441 136.651439 
L 121.720523 137.147332 
L 122.505971 137.643225 
L 122.505971 137.767198 
L 122.767788 138.387064 
L 122.244155 138.882957 
L 121.458706 138.882957 
L 120.411441 138.511037 
L 119.625993 138.139118 
L 119.10236 138.015144 
L 117.793279 138.758984 
L 117.00783 138.882957 
L 115.698749 138.015144 
L 114.651484 136.403493 
z
" clip-path="url(#pb78e050b66)" style="fill: #e74c3c; stroke: #ffffff; stroke-width: 0.6"/>
    <path d="M 250.010484 279.716517 
L 250.010484 278.972678 
L 250.2723 278.228838 
L 250.2723 277.608972 
L 250.010484 276.74116 
L 250.795933 277.608972 
L 251.843198 279.716517 
L 252.36683 280.708302 
L 252.628646 281.080222 
L 253.152279 282.93982 
L 254.984993 285.791204 
L 255.770441 287.030936 
L 257.079522 293.477542 
L 257.079522 294.965221 
L 256.032258 295.833033 
L 254.984993 295.089194 
L 254.723176 294.717275 
L 254.46136 294.593301 
L 254.46136 294.221382 
L 254.46136 293.849462 
L 254.46136 293.725489 
L 254.723176 289.014507 
L 254.46136 287.402855 
L 253.675911 286.782989 
L 253.414095 286.163123 
L 250.795933 282.567901 
L 250.795933 281.700088 
L 250.534116 281.204195 
L 250.2723 280.460356 
z
" clip-path="url(#pb78e050b66)" style="fill: #e74c3c; stroke: #ffffff; stroke-width: 0.6"/>
    <path d="M 102.607937 177.562596 
L 102.607937 176.94273 
L 103.655202 176.570811 
L 107.058813 176.570811 
L 108.367894 176.94273 
L 109.938791 177.31465 
L 113.080586 178.554382 
L 115.960565 180.290007 
L 118.316911 182.645498 
L 117.269646 182.397551 
L 115.175116 181.405766 
L 113.866035 181.157819 
L 115.698749 183.265364 
L 117.269646 185.000989 
L 117.793279 186.116748 
L 116.222381 185.868801 
L 114.9133 185.000989 
L 114.127851 184.133176 
L 113.604219 183.637283 
L 112.81877 183.265364 
L 109.938791 180.537953 
L 108.367894 179.918087 
L 107.058813 179.298221 
L 105.749732 178.926302 
L 105.226099 178.802329 
L 103.655202 178.678355 
L 102.869753 178.306436 
z
" clip-path="url(#pb78e050b66)" style="fill: #e74c3c; stroke: #ffffff; stroke-width: 0.6"/>
    <path d="M 99.466142 147.189161 
L 99.466142 144.213805 
L 99.727958 143.469965 
L 100.25159 143.469965 
L 100.513407 144.089831 
L 101.037039 144.957644 
L 102.084304 145.329563 
L 103.655202 145.453537 
L 104.178834 145.701483 
L 104.964283 147.437108 
L 104.44065 148.056974 
L 103.655202 148.552867 
L 101.822488 148.67684 
L 100.25159 148.056974 
z
" clip-path="url(#pb78e050b66)" style="fill: #e74c3c; stroke: #ffffff; stroke-width: 0.6"/>
   </g>
   <g id="text_1">
    <!-- Sri Lanka -->
    <g style="fill: #1a252f" transform="translate(135.982352 20.117344) scale(0.17 -0.17)">
     <defs>
      <path id="DejaVuSans-Bold-36" d="M 3834 4519 
L 3834 3531 
Q 3450 3703 3084 3790 
Q 2719 3878 2394 3878 
Q 1963 3878 1756 3759 
Q 1550 3641 1550 3391 
Q 1550 3203 1689 3098 
Q 1828 2994 2194 2919 
L 2706 2816 
Q 3484 2659 3812 2340 
Q 4141 2022 4141 1434 
Q 4141 663 3683 286 
Q 3225 -91 2284 -91 
Q 1841 -91 1394 -6 
Q 947 78 500 244 
L 500 1259 
Q 947 1022 1364 901 
Q 1781 781 2169 781 
Q 2563 781 2772 912 
Q 2981 1044 2981 1288 
Q 2981 1506 2839 1625 
Q 2697 1744 2272 1838 
L 1806 1941 
Q 1106 2091 782 2419 
Q 459 2747 459 3303 
Q 459 4000 909 4375 
Q 1359 4750 2203 4750 
Q 2588 4750 2994 4692 
Q 3400 4634 3834 4519 
z
" transform="scale(0.015625)"/>
      <path id="DejaVuSans-Bold-55" d="M 3138 2547 
Q 2991 2616 2845 2648 
Q 2700 2681 2553 2681 
Q 2122 2681 1889 2404 
Q 1656 2128 1656 1613 
L 1656 0 
L 538 0 
L 538 3500 
L 1656 3500 
L 1656 2925 
Q 1872 3269 2151 3426 
Q 2431 3584 2822 3584 
Q 2878 3584 2943 3579 
Q 3009 3575 3134 3559 
L 3138 2547 
z
" transform="scale(0.015625)"/>
      <path id="DejaVuSans-Bold-4c" d="M 538 3500 
L 1656 3500 
L 1656 0 
L 538 0 
L 538 3500 
z
M 538 4863 
L 1656 4863 
L 1656 3950 
L 538 3950 
L 538 4863 
z
" transform="scale(0.015625)"/>
      <path id="DejaVuSans-Bold-3" transform="scale(0.015625)"/>
      <path id="DejaVuSans-Bold-2f" d="M 588 4666 
L 1791 4666 
L 1791 909 
L 3903 909 
L 3903 0 
L 588 0 
L 588 4666 
z
" transform="scale(0.015625)"/>
      <path id="DejaVuSans-Bold-44" d="M 2106 1575 
Q 1756 1575 1579 1456 
Q 1403 1338 1403 1106 
Q 1403 894 1545 773 
Q 1688 653 1941 653 
Q 2256 653 2472 879 
Q 2688 1106 2688 1447 
L 2688 1575 
L 2106 1575 
z
M 3816 1997 
L 3816 0 
L 2688 0 
L 2688 519 
Q 2463 200 2181 54 
Q 1900 -91 1497 -91 
Q 953 -91 614 226 
Q 275 544 275 1050 
Q 275 1666 698 1953 
Q 1122 2241 2028 2241 
L 2688 2241 
L 2688 2328 
Q 2688 2594 2478 2717 
Q 2269 2841 1825 2841 
Q 1466 2841 1156 2769 
Q 847 2697 581 2553 
L 581 3406 
Q 941 3494 1303 3539 
Q 1666 3584 2028 3584 
Q 2975 3584 3395 3211 
Q 3816 2838 3816 1997 
z
" transform="scale(0.015625)"/>
      <path id="DejaVuSans-Bold-51" d="M 4056 2131 
L 4056 0 
L 2931 0 
L 2931 347 
L 2931 1631 
Q 2931 2084 2911 2256 
Q 2891 2428 2841 2509 
Q 2775 2619 2662 2680 
Q 2550 2741 2406 2741 
Q 2056 2741 1856 2470 
Q 1656 2200 1656 1722 
L 1656 0 
L 538 0 
L 538 3500 
L 1656 3500 
L 1656 2988 
Q 1909 3294 2193 3439 
Q 2478 3584 2822 3584 
Q 3428 3584 3742 3212 
Q 4056 2841 4056 2131 
z
" transform="scale(0.015625)"/>
      <path id="DejaVuSans-Bold-4e" d="M 538 4863 
L 1656 4863 
L 1656 2216 
L 2944 3500 
L 4244 3500 
L 2534 1894 
L 4378 0 
L 3022 0 
L 1656 1459 
L 1656 0 
L 538 0 
L 538 4863 
z
" transform="scale(0.015625)"/>
     </defs>
     <use xlink:href="#DejaVuSans-Bold-36"/>
     <use xlink:href="#DejaVuSans-Bold-55" transform="translate(72.015625 0)"/>
     <use xlink:href="#DejaVuSans-Bold-4c" transform="translate(121.328125 0)"/>
     <use xlink:href="#DejaVuSans-Bold-3" transform="translate(155.609375 0)"/>
     <use xlink:href="#DejaVuSans-Bold-2f" transform="translate(190.421875 0)"/>
     <use xlink:href="#DejaVuSans-Bold-44" transform="translate(254.140625 0)"/>
     <use xlink:href="#DejaVuSans-Bold-51" transform="translate(321.625 0)"/>
     <use xlink:href="#DejaVuSans-Bold-4e" transform="translate(392.8125 0)"/>
     <use xlink:href="#DejaVuSans-Bold-44" transform="translate(459.3125 0)"/>
    </g>
   </g>
   <g id="legend_1">
    <g id="patch_2">
     <path d="M 13.5 498.657344 
L 88.097344 498.657344 
Q 89.897344 498.657344 89.897344 496.857344 
L 89.897344 470.755937 
Q 89.897344 468.955937 88.097344 468.955937 
L 13.5 468.955937 
Q 11.7 468.955937 11.7 470.755937 
L 11.7 496.857344 
Q 11.7 498.657344 13.5 498.657344 
z
" style="fill: #ffffff; opacity: 0.85; stroke: #cccccc; stroke-linejoin: miter"/>
    </g>
    <g id="patch_3">
     <path d="M 15.3 479.394531 
L 33.3 479.394531 
L 33.3 473.094531 
L 15.3 473.094531 
z
" style="fill: #e74c3c; stroke: #888888; stroke-linejoin: miter"/>
    </g>
    <g id="text_2">
     <!-- Sri Lanka -->
     <g transform="translate(40.5 479.394531) scale(0.09 -0.09)">
      <defs>
       <path id="DejaVuSans-36" d="M 3425 4513 
L 3425 3897 
Q 3066 4069 2747 4153 
Q 2428 4238 2131 4238 
Q 1616 4238 1336 4038 
Q 1056 3838 1056 3469 
Q 1056 3159 1242 3001 
Q 1428 2844 1947 2747 
L 2328 2669 
Q 3034 2534 3370 2195 
Q 3706 1856 3706 1288 
Q 3706 609 3251 259 
Q 2797 -91 1919 -91 
Q 1588 -91 1214 -16 
Q 841 59 441 206 
L 441 856 
Q 825 641 1194 531 
Q 1563 422 1919 422 
Q 2459 422 2753 634 
Q 3047 847 3047 1241 
Q 3047 1584 2836 1778 
Q 2625 1972 2144 2069 
L 1759 2144 
Q 1053 2284 737 2584 
Q 422 2884 422 3419 
Q 422 4038 858 4394 
Q 1294 4750 2059 4750 
Q 2388 4750 2728 4690 
Q 3069 4631 3425 4513 
z
" transform="scale(0.015625)"/>
       <path id="DejaVuSans-55" d="M 2631 2963 
Q 2534 3019 2420 3045 
Q 2306 3072 2169 3072 
Q 1681 3072 1420 2755 
Q 1159 2438 1159 1844 
L 1159 0 
L 581 0 
L 581 3500 
L 1159 3500 
L 1159 2956 
Q 1341 3275 1631 3429 
Q 1922 3584 2338 3584 
Q 2397 3584 2469 3576 
Q 2541 3569 2628 3553 
L 2631 2963 
z
" transform="scale(0.015625)"/>
       <path id="DejaVuSans-4c" d="M 603 3500 
L 1178 3500 
L 1178 0 
L 603 0 
L 603 3500 
z
M 603 4863 
L 1178 4863 
L 1178 4134 
L 603 4134 
L 603 4863 
z
" transform="scale(0.015625)"/>
       <path id="DejaVuSans-3" transform="scale(0.015625)"/>
       <path id="DejaVuSans-2f" d="M 628 4666 
L 1259 4666 
L 1259 531 
L 3531 531 
L 3531 0 
L 628 0 
L 628 4666 
z
" transform="scale(0.015625)"/>
       <path id="DejaVuSans-44" d="M 2194 1759 
Q 1497 1759 1228 1600 
Q 959 1441 959 1056 
Q 959 750 1161 570 
Q 1363 391 1709 391 
Q 2188 391 2477 730 
Q 2766 1069 2766 1631 
L 2766 1759 
L 2194 1759 
z
M 3341 1997 
L 3341 0 
L 2766 0 
L 2766 531 
Q 2569 213 2275 61 
Q 1981 -91 1556 -91 
Q 1019 -91 701 211 
Q 384 513 384 1019 
Q 384 1609 779 1909 
Q 1175 2209 1959 2209 
L 2766 2209 
L 2766 2266 
Q 2766 2663 2505 2880 
Q 2244 3097 1772 3097 
Q 1472 3097 1187 3025 
Q 903 2953 641 2809 
L 641 3341 
Q 956 3463 1253 3523 
Q 1550 3584 1831 3584 
Q 2591 3584 2966 3190 
Q 3341 2797 3341 1997 
z
" transform="scale(0.015625)"/>
       <path id="DejaVuSans-51" d="M 3513 2113 
L 3513 0 
L 2938 0 
L 2938 2094 
Q 2938 2591 2744 2837 
Q 2550 3084 2163 3084 
Q 1697 3084 1428 2787 
Q 1159 2491 1159 1978 
L 1159 0 
L 581 0 
L 581 3500 
L 1159 3500 
L 1159 2956 
Q 1366 3272 1645 3428 
Q 1925 3584 2291 3584 
Q 2894 3584 3203 3211 
Q 3513 2838 3513 2113 
z
" transform="scale(0.015625)"/>
       <path id="DejaVuSans-4e" d="M 581 4863 
L 1159 4863 
L 1159 1991 
L 2875 3500 
L 3609 3500 
L 1753 1863 
L 3688 0 
L 2938 0 
L 1159 1709 
L 1159 0 
L 581 0 
L 581 4863 
z
" transform="scale(0.015625)"/>
      </defs>
      <use xlink:href="#DejaVuSans-36"/>
      <use xlink:href="#DejaVuSans-55" transform="translate(63.484375 0)"/>
      <use xlink:href="#DejaVuSans-4c" transform="translate(104.59375 0)"/>
      <use xlink:href="#DejaVuSans-3" transform="translate(132.375 0)"/>
      <use xlink:href="#DejaVuSans-2f" transform="translate(164.15625 0)"/>
      <use xlink:href="#DejaVuSans-44" transform="translate(219.875 0)"/>
      <use xlink:href="#DejaVuSans-51" transform="translate(281.15625 0)"/>
      <use xlink:href="#DejaVuSans-4e" transform="translate(344.53125 0)"/>
      <use xlink:href="#DejaVuSans-44" transform="translate(400.6875 0)"/>
     </g>
    </g>
    <g id="patch_4">
     <path d="M 15.3 492.895234 
L 33.3 492.895234 
L 33.3 486.595234 
L 15.3 486.595234 
z
" style="fill: #bdc3c7; stroke: #888888; stroke-linejoin: miter"/>
    </g>
    <g id="text_3">
     <!-- Neighbors -->
     <g transform="translate(40.5 492.895234) scale(0.09 -0.09)">
      <defs>
       <path id="DejaVuSans-31" d="M 628 4666 
L 1478 4666 
L 3547 763 
L 3547 4666 
L 4159 4666 
L 4159 0 
L 3309 0 
L 1241 3903 
L 1241 0 
L 628 0 
L 628 4666 
z
" transform="scale(0.015625)"/>
       <path id="DejaVuSans-48" d="M 3597 1894 
L 3597 1613 
L 953 1613 
Q 991 1019 1311 708 
Q 1631 397 2203 397 
Q 2534 397 2845 478 
Q 3156 559 3463 722 
L 3463 178 
Q 3153 47 2828 -22 
Q 2503 -91 2169 -91 
Q 1331 -91 842 396 
Q 353 884 353 1716 
Q 353 2575 817 3079 
Q 1281 3584 2069 3584 
Q 2775 3584 3186 3129 
Q 3597 2675 3597 1894 
z
M 3022 2063 
Q 3016 2534 2758 2815 
Q 2500 3097 2075 3097 
Q 1594 3097 1305 2825 
Q 1016 2553 972 2059 
L 3022 2063 
z
" transform="scale(0.015625)"/>
       <path id="DejaVuSans-4a" d="M 2906 1791 
Q 2906 2416 2648 2759 
Q 2391 3103 1925 3103 
Q 1463 3103 1205 2759 
Q 947 2416 947 1791 
Q 947 1169 1205 825 
Q 1463 481 1925 481 
Q 2391 481 2648 825 
Q 2906 1169 2906 1791 
z
M 3481 434 
Q 3481 -459 3084 -895 
Q 2688 -1331 1869 -1331 
Q 1566 -1331 1297 -1286 
Q 1028 -1241 775 -1147 
L 775 -588 
Q 1028 -725 1275 -790 
Q 1522 -856 1778 -856 
Q 2344 -856 2625 -561 
Q 2906 -266 2906 331 
L 2906 616 
Q 2728 306 2450 153 
Q 2172 0 1784 0 
Q 1141 0 747 490 
Q 353 981 353 1791 
Q 353 2603 747 3093 
Q 1141 3584 1784 3584 
Q 2172 3584 2450 3431 
Q 2728 3278 2906 2969 
L 2906 3500 
L 3481 3500 
L 3481 434 
z
" transform="scale(0.015625)"/>
       <path id="DejaVuSans-4b" d="M 3513 2113 
L 3513 0 
L 2938 0 
L 2938 2094 
Q 2938 2591 2744 2837 
Q 2550 3084 2163 3084 
Q 1697 3084 1428 2787 
Q 1159 2491 1159 1978 
L 1159 0 
L 581 0 
L 581 4863 
L 1159 4863 
L 1159 2956 
Q 1366 3272 1645 3428 
Q 1925 3584 2291 3584 
Q 2894 3584 3203 3211 
Q 3513 2838 3513 2113 
z
" transform="scale(0.015625)"/>
       <path id="DejaVuSans-45" d="M 3116 1747 
Q 3116 2381 2855 2742 
Q 2594 3103 2138 3103 
Q 1681 3103 1420 2742 
Q 1159 2381 1159 1747 
Q 1159 1113 1420 752 
Q 1681 391 2138 391 
Q 2594 391 2855 752 
Q 3116 1113 3116 1747 
z
M 1159 2969 
Q 1341 3281 1617 3432 
Q 1894 3584 2278 3584 
Q 2916 3584 3314 3078 
Q 3713 2572 3713 1747 
Q 3713 922 3314 415 
Q 2916 -91 2278 -91 
Q 1894 -91 1617 61 
Q 1341 213 1159 525 
L 1159 0 
L 581 0 
L 581 4863 
L 1159 4863 
L 1159 2969 
z
" transform="scale(0.015625)"/>
       <path id="DejaVuSans-52" d="M 1959 3097 
Q 1497 3097 1228 2736 
Q 959 2375 959 1747 
Q 959 1119 1226 758 
Q 1494 397 1959 397 
Q 2419 397 2687 759 
Q 2956 1122 2956 1747 
Q 2956 2369 2687 2733 
Q 2419 3097 1959 3097 
z
M 1959 3584 
Q 2709 3584 3137 3096 
Q 3566 2609 3566 1747 
Q 3566 888 3137 398 
Q 2709 -91 1959 -91 
Q 1206 -91 779 398 
Q 353 888 353 1747 
Q 353 2609 779 3096 
Q 1206 3584 1959 3584 
z
" transform="scale(0.015625)"/>
       <path id="DejaVuSans-56" d="M 2834 3397 
L 2834 2853 
Q 2591 2978 2328 3040 
Q 2066 3103 1784 3103 
Q 1356 3103 1142 2972 
Q 928 2841 928 2578 
Q 928 2378 1081 2264 
Q 1234 2150 1697 2047 
L 1894 2003 
Q 2506 1872 2764 1633 
Q 3022 1394 3022 966 
Q 3022 478 2636 193 
Q 2250 -91 1575 -91 
Q 1294 -91 989 -36 
Q 684 19 347 128 
L 347 722 
Q 666 556 975 473 
Q 1284 391 1588 391 
Q 1994 391 2212 530 
Q 2431 669 2431 922 
Q 2431 1156 2273 1281 
Q 2116 1406 1581 1522 
L 1381 1569 
Q 847 1681 609 1914 
Q 372 2147 372 2553 
Q 372 3047 722 3315 
Q 1072 3584 1716 3584 
Q 2034 3584 2315 3537 
Q 2597 3491 2834 3397 
z
" transform="scale(0.015625)"/>
      </defs>
      <use xlink:href="#DejaVuSans-31"/>
      <use xlink:href="#DejaVuSans-48" transform="translate(74.8125 0)"/>
      <use xlink:href="#DejaVuSans-4c" transform="translate(136.34375 0)"/>
      <use xlink:href="#DejaVuSans-4a" transform="translate(164.125 0)"/>
      <use xlink:href="#DejaVuSans-4b" transform="translate(227.609375 0)"/>
      <use xlink:href="#DejaVuSans-45" transform="translate(290.984375 0)"/>
      <use xlink:href="#DejaVuSans-52" transform="translate(354.46875 0)"/>
      <use xlink:href="#DejaVuSans-55" transform="translate(415.65625 0)"/>
      <use xlink:href="#DejaVuSans-56" transform="translate(456.765625 0)"/>
     </g>
    </g>
   </g>
  </g>
 </g>
 <defs>
  <clipPath id="pb78e050b66">
   <rect x="7.2" y="30.117344" width="347.120173" height="473.04"/>
  </clipPath>
 </defs>
</svg>
