<?xml version="1.0" encoding="utf-8" standalone="no"?>
<!DOCTYPE svg PUBLIC "-//W3C//DTD SVG 1.1//EN"
  "http://www.w3.org/Graphics/SVG/1.1/DTD/svg11.dtd">
<svg xmlns:xlink="http://www.w3.org/1999/xlink" width="468.008484pt" height="510.357344pt" viewBox="0 0 468.008484 510.357344" xmlns="http://www.w3.org/2000/svg" version="1.1">
 <metadata>
  <rdf:RDF xmlns:dc="http://purl.org/dc/elements/1.1/" xmlns:cc="http://creativecommons.org/ns#" xmlns:rdf="http://www.w3.org/1999/02/22-rdf-syntax-ns#">
   <cc:Work>
    <dc:type rdf:resource="http://purl.org/dc/dcmitype/StillImage"/>
    <dc:date>2026-06-19T08:14:15.986083</dc:date>
    <dc:format>image/svg+xml</dc:format>
    <dc:creator>
     <cc:Agent>
      <dc:title>Matplotlib v3.11.0, https://matplotlib.org/</dc:title>
     </cc:Agent>
    </dc:creator>
   </cc:Work>
  </rdf:RDF>
 </metadata>
 <defs>
  <style type="text/css">*{stroke-linejoin: round; stroke-linecap: butt}</style>
 </defs>
 <g id="figure_1">
  <g id="patch_1">
   <path d="M 0 510.357344 
L 468.008484 510.357344 
L 468.008484 0 
L 0 0 
z
" style="fill: #d6eaf8"/>
  </g>
  <g id="axes_1">
   <g id="PatchCollection_1">
    <path d="M 15223.217761 -7869.361271 
L 15225.665113 -7871.364669 
L 15248.507062 -7880.980978 
L 15309.690856 -7884.987773 
L 15314.585559 -7884.587094 
L 15317.848695 -7883.385055 
L 15321.927614 -7881.381657 
L 15325.19075 -7878.176221 
L 15326.822318 -7874.970785 
L 15325.19075 -7874.169425 
L 15321.11183 -7872.566707 
L 15319.480262 -7871.765348 
L 15319.480262 -7870.16263 
L 15341.506428 -7868.559912 
L 15352.111619 -7865.755155 
L 15361.085242 -7860.546321 
L 15364.348377 -7856.539525 
L 15369.243081 -7848.525934 
L 15372.506216 -7845.721177 
L 15377.40092 -7844.519139 
L 15389.637679 -7845.721177 
L 15393.716598 -7844.118459 
L 15398.611301 -7844.919818 
L 15405.953357 -7844.919818 
L 15408.400708 -7845.320498 
L 15412.479628 -7846.121857 
L 15415.742764 -7851.330691 
L 15414.111196 -7856.539525 
L 15409.216492 -7860.546321 
L 15402.690221 -7862.950398 
L 15401.058653 -7862.950398 
L 15392.900814 -7864.152437 
L 15383.111407 -7866.556514 
L 15379.848272 -7866.957194 
L 15372.506216 -7866.556514 
L 15369.243081 -7866.556514 
L 15363.532593 -7868.960591 
L 15345.585347 -7879.778939 
L 15357.822106 -7883.785735 
L 15363.532593 -7884.587094 
L 15383.927191 -7884.186414 
L 15390.453462 -7882.984376 
L 15395.348166 -7879.778939 
L 15394.532382 -7884.186414 
L 15391.269246 -7886.189812 
L 15390.453462 -7886.189812 
L 15381.479839 -7886.590492 
L 15379.032488 -7886.991171 
L 15377.40092 -7888.19321 
L 15374.953568 -7889.395248 
L 15374.137784 -7891.398646 
L 15373.322 -7894.203403 
L 15373.322 -7897.00816 
L 15374.137784 -7899.011558 
L 15377.40092 -7901.014955 
L 15380.664056 -7902.216994 
L 15388.821895 -7902.617674 
L 15386.374543 -7904.220392 
L 15380.664056 -7906.624469 
L 15364.348377 -7909.829905 
L 15361.085242 -7913.035342 
L 15360.269458 -7921.048933 
L 15356.190538 -7925.857087 
L 15350.480051 -7929.062524 
L 15343.95378 -7931.867281 
L 15339.87486 -7929.863883 
L 15334.164373 -7928.661844 
L 15328.453885 -7928.661844 
L 15324.374966 -7927.860485 
L 15323.559182 -7927.059126 
L 15321.927614 -7926.658447 
L 15319.480262 -7926.658447 
L 15317.032911 -7933.469999 
L 15323.559182 -7936.274756 
L 15338.243292 -7939.079513 
L 15339.87486 -7940.682231 
L 15344.769564 -7941.08291 
L 15352.111619 -7939.880872 
L 15358.63789 -7937.877474 
L 15359.453674 -7937.476794 
L 15361.085242 -7937.877474 
L 15363.532593 -7938.278154 
L 15365.979945 -7939.880872 
L 15364.348377 -7942.284949 
L 15358.63789 -7947.493783 
L 15357.006322 -7948.295142 
L 15356.190538 -7949.096501 
L 15355.374754 -7950.69922 
L 15355.374754 -7952.301938 
L 15357.006322 -7953.904656 
L 15357.822106 -7954.706015 
L 15358.63789 -7955.507374 
L 15357.822106 -7959.11349 
L 15352.927403 -7968.32912 
L 15350.480051 -7972.335915 
L 15352.111619 -7974.339313 
L 15353.743187 -7975.541352 
L 15364.348377 -7974.339313 
L 15373.322 -7975.140672 
L 15380.664056 -7978.346109 
L 15413.295412 -8003.9896 
L 15441.032065 -8030.033771 
L 15463.874014 -8056.879301 
L 15477.742341 -8082.923471 
L 15479.373908 -8089.334344 
L 15479.373908 -8091.337742 
L 15483.452828 -8097.347935 
L 15493.242235 -8143.426083 
L 15497.321154 -8155.04579 
L 15498.136938 -8158.651906 
L 15500.58429 -8166.264818 
L 15509.557913 -8181.89132 
L 15512.005265 -8189.504232 
L 15512.005265 -8193.911707 
L 15512.821049 -8199.9219 
L 15514.452616 -8204.730055 
L 15517.715752 -8206.733452 
L 15531.584078 -8205.130734 
L 15534.03143 -8206.733452 
L 15535.662998 -8204.730055 
L 15531.584078 -8197.517823 
L 15537.294566 -8193.511027 
L 15546.268189 -8191.50763 
L 15555.241812 -8191.908309 
L 15560.952299 -8193.911707 
L 15569.925922 -8199.120541 
L 15574.820626 -8200.32258 
L 15583.794249 -8201.123939 
L 15592.767872 -8203.528016 
L 15638.45177 -8229.171507 
L 15641.714906 -8231.976264 
L 15645.793826 -8233.979662 
L 15656.399016 -8235.58238 
L 15661.29372 -8237.585778 
L 15665.372639 -8243.195292 
L 15671.898911 -8259.623153 
L 15676.793614 -8266.835385 
L 15684.135669 -8272.444899 
L 15689.030373 -8275.249656 
L 15698.003996 -8277.653733 
L 15701.267131 -8280.45849 
L 15705.346051 -8283.663926 
L 15709.42497 -8286.068003 
L 15713.50389 -8287.270042 
L 15724.924865 -8288.472081 
L 15732.26692 -8292.879556 
L 15768.977196 -8301.694506 
L 15777.135035 -8305.701301 
L 15782.029738 -8305.701301 
L 15797.529632 -8310.910136 
L 15819.555798 -8311.310815 
L 15844.029315 -8311.711495 
L 15863.608129 -8312.112174 
L 15866.055481 -8311.711495 
L 15870.1344 -8309.708097 
L 15872.581752 -8308.906738 
L 15874.21332 -8309.307417 
L 15879.923807 -8312.112174 
L 15913.370947 -8318.523047 
L 15967.212685 -8323.731881 
L 15989.238851 -8321.327804 
L 15994.133554 -8320.125765 
L 15998.212474 -8317.321008 
L 16005.554529 -8297.68771 
L 16007.186097 -8297.68771 
L 16012.0808 -8294.882954 
L 16012.896584 -8294.482274 
L 16013.712368 -8294.081594 
L 16015.343936 -8292.879556 
L 16016.975504 -8291.677517 
L 16023.501775 -8290.074799 
L 16032.475398 -8286.869363 
L 16036.554317 -8287.670722 
L 16039.001669 -8286.468683 
L 16041.449021 -8286.068003 
L 16043.896372 -8286.468683 
L 16046.343724 -8287.670722 
L 16047.975292 -8287.670722 
L 16047.975292 -8286.068003 
L 16045.52794 -8285.266644 
L 16044.712156 -8284.465285 
L 16044.712156 -8283.663926 
L 16046.343724 -8281.660528 
L 16046.343724 -8277.653733 
L 16053.685779 -8275.249656 
L 16070.001458 -8272.444899 
L 16072.448809 -8272.444899 
L 16073.264593 -8265.633346 
L 16073.264593 -8262.02723 
L 16072.448809 -8258.421114 
L 16070.817241 -8254.013639 
L 16067.554106 -8248.804805 
L 16067.554106 -8247.202087 
L 16067.554106 -8244.39733 
L 16068.36989 -8242.794612 
L 16069.185674 -8241.592573 
L 16070.001458 -8239.188496 
L 16072.448809 -8222.359955 
L 16071.633025 -8213.945684 
L 16070.001458 -8206.332773 
L 16065.106754 -8198.319182 
L 16046.343724 -8179.887923 
L 16044.712156 -8176.682486 
L 16042.264805 -8172.675691 
L 16040.633237 -8164.6621 
L 16038.185885 -8139.018608 
L 16036.554317 -8130.604338 
L 16032.475398 -8125.796183 
L 16024.317559 -8127.398901 
L 16021.054423 -8128.200261 
L 16009.633448 -8126.998222 
L 15998.212474 -8129.402299 
L 15976.186308 -8129.00162 
L 15968.844253 -8127.799581 
L 15964.765333 -8125.796183 
L 15960.686414 -8123.792785 
L 15962.317982 -8121.388708 
L 15962.317982 -8119.38531 
L 15961.502198 -8117.381913 
L 15961.502198 -8115.378515 
L 15963.133766 -8113.775797 
L 15970.475821 -8109.769001 
L 15957.423278 -8105.762206 
L 15954.160143 -8105.762206 
L 15956.607494 -8101.75541 
L 15957.423278 -8097.748615 
L 15958.239062 -8093.34114 
L 15959.054846 -8089.735024 
L 15963.94955 -8086.529587 
L 15969.660037 -8084.52619 
L 15987.607283 -8082.923471 
L 15999.028258 -8080.118714 
L 16005.554529 -8079.718035 
L 16012.0808 -8079.718035 
L 16016.975504 -8080.920074 
L 16019.422855 -8082.122112 
L 16021.054423 -8083.72483 
L 16022.685991 -8084.12551 
L 16035.738533 -8069.701046 
L 16039.001669 -8063.690853 
L 16037.370101 -8054.875903 
L 16032.475398 -8048.46503 
L 16030.84383 -8044.858914 
L 16030.84383 -8040.451439 
L 16033.291182 -8035.242605 
L 16034.106966 -8033.639887 
L 16034.922749 -8032.838528 
L 16034.106966 -8031.636489 
L 16024.317559 -8028.030373 
L 16021.870207 -8026.026975 
L 16016.15972 -8020.417461 
L 16012.0808 -8018.013384 
L 16002.291393 -8015.208627 
L 15998.212474 -8012.003191 
L 15992.501986 -8005.592318 
L 15990.054635 -8003.9896 
L 15976.186308 -8002.787561 
L 15975.370524 -8002.787561 
L 15971.291605 -8001.585523 
L 15968.028469 -7998.780766 
L 15966.396901 -7997.578727 
L 15964.765333 -7994.373291 
L 15963.133766 -7993.171252 
L 15959.87063 -7991.969213 
L 15958.239062 -7991.969213 
L 15955.79171 -7991.568534 
L 15954.160143 -7988.763777 
L 15954.975927 -7985.157661 
L 15958.239062 -7983.554943 
L 15963.133766 -7982.753584 
L 15977.817876 -7977.54475 
L 15983.528363 -7973.537954 
L 15985.159931 -7972.335915 
L 15985.975715 -7970.733197 
L 15985.159931 -7967.527761 
L 15984.344147 -7967.127081 
L 15982.712579 -7966.726402 
L 15981.081012 -7965.524363 
L 15975.370524 -7959.51417 
L 15970.475821 -7955.507374 
L 15963.94955 -7953.103297 
L 15944.370736 -7952.702617 
L 15921.528786 -7947.894463 
L 15910.107812 -7942.284949 
L 15906.844676 -7941.08291 
L 15901.949973 -7941.08291 
L 15887.265862 -7943.887667 
L 15889.713214 -7938.678833 
L 15888.081646 -7936.274756 
L 15879.923807 -7934.672038 
L 15879.108023 -7938.278154 
L 15875.844887 -7939.880872 
L 15866.871264 -7940.682231 
L 15866.055481 -7941.48359 
L 15863.608129 -7944.288347 
L 15861.976561 -7945.490385 
L 15859.529209 -7945.490385 
L 15853.002938 -7944.288347 
L 15844.845099 -7946.692424 
L 15837.503044 -7950.29854 
L 15830.160989 -7952.702617 
L 15822.818933 -7949.897861 
L 15825.266285 -7948.295142 
L 15834.239908 -7942.685629 
L 15837.503044 -7939.480192 
L 15833.424124 -7940.281551 
L 15827.713637 -7941.08291 
L 15820.371582 -7942.284949 
L 15811.397959 -7940.682231 
L 15808.134823 -7939.480192 
L 15803.24012 -7937.476794 
L 15799.1612 -7936.274756 
L 15790.187577 -7935.072717 
L 15786.108658 -7933.469999 
L 15785.292874 -7931.065922 
L 15790.187577 -7928.661844 
L 15793.450713 -7923.85369 
L 15793.450713 -7919.446215 
L 15789.371793 -7917.042137 
L 15788.556009 -7915.840099 
L 15787.740225 -7913.436021 
L 15790.187577 -7913.035342 
L 15796.713848 -7913.035342 
L 15799.1612 -7912.233983 
L 15804.871688 -7909.829905 
L 15806.503255 -7908.227187 
L 15804.055904 -7901.415635 
L 15808.950607 -7897.00816 
L 15824.450501 -7892.600685 
L 15821.187366 -7887.391851 
L 15820.371582 -7884.186414 
L 15821.187366 -7880.980978 
L 15836.68726 -7867.357873 
L 15845.660883 -7860.546321 
L 15847.292451 -7852.933409 
L 15848.108235 -7848.525934 
L 15847.292451 -7843.71778 
L 15845.660883 -7838.909625 
L 15845.660883 -7834.50215 
L 15848.924019 -7831.697393 
L 15847.292451 -7829.693995 
L 15846.476667 -7824.485161 
L 15845.660883 -7821.680404 
L 15843.213531 -7819.276327 
L 15837.503044 -7816.87225 
L 15835.055692 -7815.269532 
L 15823.634717 -7801.245747 
L 15818.740014 -7797.238952 
L 15816.292662 -7794.834874 
L 15814.661094 -7790.02672 
L 15813.84531 -7784.817886 
L 15815.476878 -7780.410411 
L 15821.187366 -7778.407013 
L 15831.792556 -7783.615847 
L 15837.503044 -7782.413808 
L 15835.871476 -7781.612449 
L 15830.160989 -7778.807692 
L 15835.055692 -7776.002936 
L 15831.792556 -7772.797499 
L 15818.740014 -7768.390024 
L 15797.529632 -7757.571676 
L 15795.082281 -7755.167599 
L 15790.187577 -7749.157406 
L 15787.740225 -7747.154008 
L 15783.661306 -7746.753328 
L 15780.39817 -7748.756726 
L 15777.950819 -7751.160803 
L 15774.687683 -7751.962163 
L 15768.161412 -7749.958765 
L 15769.792979 -7744.349251 
L 15773.056115 -7737.537699 
L 15773.056115 -7731.527505 
L 15776.319251 -7731.928185 
L 15782.029738 -7733.931583 
L 15785.292874 -7734.332262 
L 15788.556009 -7734.332262 
L 15794.266497 -7732.729544 
L 15802.424336 -7733.530903 
L 15803.24012 -7732.328865 
L 15801.608552 -7730.325467 
L 15800.792768 -7728.322069 
L 15800.792768 -7725.116633 
L 15801.608552 -7723.113235 
L 15803.24012 -7721.911196 
L 15808.950607 -7719.507119 
L 15816.292662 -7717.904401 
L 15815.476878 -7716.702362 
L 15814.661094 -7715.500323 
L 15813.84531 -7713.897605 
L 15816.292662 -7709.089451 
L 15816.292662 -7707.086053 
L 15814.661094 -7704.681976 
L 15812.213743 -7702.678578 
L 15807.319039 -7703.079257 
L 15804.055904 -7701.877219 
L 15801.608552 -7699.473141 
L 15802.424336 -7697.469744 
L 15802.424336 -7695.466346 
L 15801.608552 -7692.661589 
L 15798.345416 -7690.658191 
L 15794.266497 -7691.058871 
L 15795.898065 -7687.853434 
L 15797.529632 -7685.850037 
L 15799.976984 -7685.048678 
L 15800.792768 -7683.445959 
L 15800.792768 -7680.641203 
L 15795.898065 -7679.839843 
L 15779.582386 -7680.240523 
L 15777.135035 -7680.641203 
L 15774.687683 -7681.442562 
L 15755.108869 -7681.041882 
L 15752.661517 -7682.243921 
L 15747.766814 -7685.449357 
L 15745.319462 -7685.850037 
L 15743.687894 -7685.048678 
L 15741.240543 -7682.6446 
L 15740.424759 -7681.442562 
L 15737.977407 -7681.041882 
L 15735.530055 -7681.442562 
L 15731.451136 -7683.04528 
L 15733.082704 -7688.654794 
L 15733.898488 -7691.45955 
L 15730.635352 -7691.86023 
L 15725.740648 -7693.462948 
L 15724.109081 -7694.264307 
L 15720.030161 -7695.867025 
L 15716.767025 -7699.473141 
L 15715.951242 -7704.681976 
L 15732.26692 -7717.103042 
L 15734.714271 -7717.503721 
L 15737.977407 -7718.30508 
L 15738.793191 -7718.70576 
L 15742.056327 -7721.911196 
L 15745.319462 -7727.12003 
L 15748.582598 -7730.325467 
L 15746.135246 -7731.126826 
L 15743.687894 -7731.126826 
L 15738.793191 -7730.325467 
L 15747.766814 -7739.541096 
L 15751.02995 -7745.55129 
L 15748.582598 -7747.955367 
L 15748.582598 -7751.160803 
L 15750.214166 -7753.564881 
L 15751.845734 -7754.36624 
L 15754.293085 -7752.763522 
L 15755.924653 -7754.36624 
L 15757.556221 -7755.968958 
L 15759.187789 -7759.174394 
L 15758.372005 -7760.376433 
L 15758.372005 -7761.177792 
L 15757.556221 -7762.78051 
L 15760.003573 -7762.379831 
L 15762.450924 -7762.78051 
L 15764.898276 -7763.58187 
L 15766.529844 -7764.383229 
L 15761.63514 -7767.989345 
L 15762.450924 -7770.794101 
L 15765.71406 -7772.797499 
L 15764.898276 -7773.999538 
L 15763.266708 -7776.804295 
L 15759.187789 -7777.204974 
L 15751.845734 -7776.002936 
L 15749.398382 -7777.605654 
L 15744.503678 -7782.013129 
L 15740.424759 -7783.215167 
L 15737.977407 -7783.615847 
L 15728.188 -7782.413808 
L 15724.109081 -7782.413808 
L 15721.661729 -7783.615847 
L 15720.030161 -7785.218565 
L 15716.767025 -7786.420604 
L 15703.714483 -7789.225361 
L 15700.451347 -7791.228758 
L 15698.81978 -7792.030118 
L 15698.003996 -7797.238952 
L 15696.372428 -7802.047106 
L 15692.293508 -7805.653222 
L 15686.583021 -7807.65662 
L 15681.688317 -7808.0573 
L 15677.609398 -7806.855261 
L 15667.819991 -7802.447786 
L 15662.925288 -7801.245747 
L 15636.820203 -7802.047106 
L 15629.478147 -7800.845068 
L 15627.84658 -7800.444388 
L 15623.76766 -7801.245747 
L 15623.76766 -7809.660018 
L 15619.68874 -7812.865454 
L 15615.609821 -7813.266134 
L 15606.636198 -7812.865454 
L 15603.373062 -7814.067493 
L 15601.741495 -7815.670211 
L 15599.294143 -7820.879045 
L 15598.478359 -7822.882443 
L 15590.32052 -7828.491957 
L 15589.504736 -7830.896034 
L 15590.32052 -7836.104868 
L 15592.767872 -7839.710984 
L 15593.583655 -7843.71778 
L 15588.688952 -7849.327293 
L 15582.162681 -7852.53273 
L 15581.346897 -7852.933409 
L 15578.083761 -7852.53273 
L 15576.452193 -7850.930012 
L 15575.636409 -7848.525934 
L 15574.004842 -7845.721177 
L 15570.741706 -7842.115061 
L 15565.031219 -7837.306907 
L 15559.320731 -7833.700791 
L 15554.426028 -7832.899432 
L 15546.268189 -7835.303509 
L 15542.189269 -7836.104868 
L 15525.873591 -7836.505548 
L 15520.978888 -7837.707586 
L 15522.610455 -7840.913023 
L 15525.057807 -7840.913023 
L 15534.847214 -7838.108266 
L 15533.215646 -7842.115061 
L 15534.03143 -7845.721177 
L 15535.662998 -7848.926614 
L 15534.847214 -7852.53273 
L 15533.215646 -7854.536127 
L 15529.136727 -7856.138846 
L 15525.057807 -7857.340884 
L 15521.794672 -7857.340884 
L 15514.452616 -7854.936807 
L 15496.50537 -7840.913023 
L 15494.058019 -7839.710984 
L 15491.610667 -7838.909625 
L 15487.531747 -7838.909625 
L 15480.189692 -7840.111664 
L 15473.663421 -7839.310305 
L 15471.216069 -7839.310305 
L 15466.321366 -7841.313702 
L 15467.13715 -7843.71778 
L 15468.768718 -7846.923216 
L 15469.584501 -7850.930012 
L 15467.13715 -7852.53273 
L 15464.689798 -7852.933409 
L 15458.163527 -7852.53273 
L 15445.926768 -7849.327293 
L 15433.69001 -7844.919818 
L 15436.953145 -7842.916421 
L 15436.137361 -7841.313702 
L 15434.505793 -7839.310305 
L 15434.505793 -7836.906227 
L 15436.137361 -7834.90283 
L 15441.847849 -7830.896034 
L 15442.663633 -7828.491957 
L 15441.847849 -7824.485161 
L 15437.768929 -7822.882443 
L 15427.163738 -7823.283123 
L 15422.269035 -7824.485161 
L 15414.111196 -7827.289918 
L 15412.479628 -7827.289918 
L 15407.584924 -7827.289918 
L 15406.769141 -7828.091277 
L 15405.137573 -7830.896034 
L 15404.321789 -7833.700791 
L 15404.321789 -7836.104868 
L 15404.321789 -7838.108266 
L 15401.874437 -7839.310305 
L 15399.427085 -7836.906227 
L 15393.716598 -7836.104868 
L 15373.322 -7836.505548 
L 15369.243081 -7837.306907 
L 15364.348377 -7839.310305 
L 15352.111619 -7846.121857 
L 15348.032699 -7847.323896 
L 15339.059076 -7848.125255 
L 15335.795941 -7846.522536 
L 15329.269669 -7838.508945 
L 15326.006534 -7835.704189 
L 15322.743398 -7834.50215 
L 15314.585559 -7834.10147 
L 15312.138207 -7832.899432 
L 15309.690856 -7832.498752 
L 15307.243504 -7833.300111 
L 15300.717233 -7837.707586 
L 15286.848906 -7842.115061 
L 15277.875283 -7847.724575 
L 15274.612148 -7847.724575 
L 15265.638525 -7845.721177 
L 15259.928037 -7845.320498 
L 15247.691279 -7847.323896 
L 15243.612359 -7848.926614 
L 15239.53344 -7852.13205 
L 15237.086088 -7855.738166 
L 15233.822952 -7858.542923 
L 15226.480897 -7862.950398 
L 15224.033545 -7865.354475 
z
" clip-path="url(#pb2d974e034)" style="fill: #bdc3c7; stroke: #ffffff; stroke-width: 0.5"/>
    <path d="M 15201.191596 -7828.892636 
L 15237.901872 -7836.505548 
L 15241.165007 -7838.508945 
L 15244.428143 -7838.508945 
L 15259.112253 -7832.498752 
L 15281.138419 -7828.491957 
L 15288.480474 -7824.084482 
L 15293.375177 -7822.882443 
L 15302.3488 -7822.882443 
L 15310.506639 -7821.279725 
L 15316.217127 -7821.680404 
L 15338.243292 -7828.091277 
L 15341.506428 -7830.495354 
L 15343.137996 -7834.90283 
L 15344.769564 -7837.306907 
L 15349.664267 -7836.906227 
L 15355.374754 -7835.704189 
L 15358.63789 -7834.50215 
L 15360.269458 -7832.899432 
L 15362.71681 -7829.293316 
L 15364.348377 -7827.690598 
L 15366.795729 -7827.289918 
L 15372.506216 -7826.488559 
L 15374.953568 -7825.28652 
L 15375.769352 -7824.885841 
L 15383.927191 -7824.485161 
L 15388.006111 -7828.491957 
L 15389.637679 -7829.293316 
L 15393.716598 -7828.892636 
L 15398.611301 -7827.289918 
L 15398.611301 -7826.087879 
L 15396.979734 -7820.478366 
L 15395.348166 -7818.074288 
L 15386.374543 -7810.060697 
L 15375.769352 -7804.451184 
L 15347.216915 -7795.235554 
L 15337.427508 -7789.62604 
L 15331.717021 -7788.824681 
L 15304.796152 -7788.424002 
L 15302.3488 -7789.225361 
L 15299.085665 -7792.030118 
L 15298.269881 -7794.434195 
L 15299.085665 -7797.238952 
L 15297.454097 -7800.043709 
L 15293.375177 -7802.047106 
L 15265.638525 -7808.0573 
L 15259.928037 -7808.858659 
L 15254.21755 -7808.457979 
L 15245.243927 -7807.255941 
L 15241.980791 -7806.855261 
L 15238.717656 -7806.454581 
L 15236.270304 -7804.851863 
L 15235.45452 -7802.047106 
L 15236.270304 -7799.24235 
L 15235.45452 -7796.838272 
L 15224.849329 -7795.636234 
L 15217.507274 -7796.437593 
L 15212.612571 -7798.040311 
L 15210.981003 -7798.44099 
L 15205.270515 -7802.447786 
L 15202.00738 -7808.457979 
L 15202.00738 -7813.666813 
L 15202.823164 -7819.677007 
z
" clip-path="url(#pb2d974e034)" style="fill: #bdc3c7; stroke: #ffffff; stroke-width: 0.5"/>
    <path d="M -1061.460603 1453.650512 
L -1058.197468 1448.842358 
L -1059.829036 1447.23964 
L -1059.013252 1444.434883 
L -1057.381684 1442.030805 
L -1055.750116 1440.828767 
L -1052.48698 1440.828767 
L -1049.223845 1442.832165 
L -1044.329141 1449.243037 
L -1041.88179 1450.445076 
L -1038.618654 1451.647115 
L -1023.934544 1458.458667 
L -1016.592488 1459.660706 
L -1014.960921 1460.462065 
L -1013.329353 1461.664103 
L -1010.882001 1463.667501 
L -1010.066217 1465.670899 
L -1012.513569 1466.872938 
L -1014.960921 1469.277015 
L -1013.329353 1481.698081 
L -1013.329353 1486.506236 
L -1015.776705 1488.108954 
L -1019.855624 1488.108954 
L -1021.487192 1489.711672 
L -1020.671408 1491.71507 
L -1019.03984 1497.725263 
L -1018.224056 1500.12934 
L -1018.224056 1502.533418 
L -1019.855624 1505.338174 
L -1020.671408 1508.142931 
L -1022.302976 1509.34497 
L -1024.750328 1508.94429 
L -1025.566111 1507.742252 
L -1030.460815 1497.324583 
L -1031.276599 1492.917108 
L -1032.092383 1488.910313 
L -1031.276599 1481.297401 
L -1031.276599 1476.489247 
L -1032.092383 1471.681092 
L -1035.355518 1466.472258 
L -1039.434438 1463.667501 
L -1050.855413 1462.064783 
L -1055.750116 1460.462065 
L -1059.829036 1457.256628 
z
" clip-path="url(#pb2d974e034)" style="fill: #bdc3c7; stroke: #ffffff; stroke-width: 0.5"/>
    <path d="M 15277.875283 -7904.220392 
L 15277.875283 -7911.833303 
L 15286.033122 -7915.439419 
L 15305.611936 -7917.042137 
L 15306.42772 -7917.442817 
L 15310.506639 -7917.042137 
L 15312.953991 -7916.240778 
L 15334.980157 -7915.840099 
L 15339.87486 -7915.03874 
L 15343.137996 -7913.035342 
L 15352.111619 -7906.22379 
L 15352.927403 -7905.021751 
L 15354.55897 -7903.819712 
L 15357.006322 -7902.617674 
L 15365.979945 -7900.614276 
L 15370.874649 -7899.011558 
L 15370.874649 -7895.004762 
L 15368.427297 -7892.600685 
L 15365.164161 -7890.997967 
L 15361.085242 -7889.795928 
L 15343.137996 -7887.79253 
L 15339.87486 -7887.79253 
L 15330.901237 -7889.795928 
L 15326.006534 -7892.200005 
L 15324.374966 -7895.405442 
L 15322.743398 -7898.210199 
L 15318.664479 -7900.213596 
L 15310.506639 -7902.617674 
L 15308.875072 -7903.419033 
L 15307.243504 -7904.621071 
L 15305.611936 -7905.82311 
L 15302.3488 -7905.82311 
L 15296.638313 -7901.415635 
L 15295.006745 -7900.614276 
L 15285.217338 -7900.213596 
L 15280.322635 -7901.415635 
z
" clip-path="url(#pb2d974e034)" style="fill: #bdc3c7; stroke: #ffffff; stroke-width: 0.5"/>
    <path d="M 15508.742129 -8221.157916 
L 15510.373697 -8227.16811 
L 15514.452616 -8234.380341 
L 15520.163104 -8239.989855 
L 15530.768295 -8246.000048 
L 15536.478782 -8253.21228 
L 15542.189269 -8258.821794 
L 15549.531324 -8258.821794 
L 15550.347108 -8257.219076 
L 15550.347108 -8256.017037 
L 15550.347108 -8254.814999 
L 15549.531324 -8253.61296 
L 15552.79446 -8250.407523 
L 15554.426028 -8246.400728 
L 15554.426028 -8242.393932 
L 15551.162892 -8240.791214 
L 15551.162892 -8239.188496 
L 15555.241812 -8239.188496 
L 15553.610244 -8235.98306 
L 15551.162892 -8232.376944 
L 15544.636621 -8226.36675 
L 15534.03143 -8220.757237 
L 15529.136727 -8214.346364 
L 15520.978888 -8213.144325 
L 15512.821049 -8215.147723 
z
" clip-path="url(#pb2d974e034)" style="fill: #bdc3c7; stroke: #ffffff; stroke-width: 0.5"/>
    <path d="M 15613.162469 -8301.694506 
L 15615.609821 -8305.701301 
L 15627.84658 -8308.506058 
L 15631.925499 -8310.910136 
L 15636.820203 -8310.910136 
L 15667.004207 -8314.516252 
L 15671.083127 -8316.519649 
L 15674.346262 -8318.122368 
L 15707.793402 -8322.129163 
L 15702.082915 -8317.321008 
L 15696.372428 -8316.11897 
L 15682.504101 -8315.71829 
L 15683.319885 -8314.916931 
L 15684.135669 -8313.314213 
L 15684.135669 -8312.112174 
L 15681.688317 -8311.310815 
L 15671.898911 -8310.910136 
L 15662.109504 -8308.105379 
L 15653.951665 -8306.90334 
L 15622.136092 -8298.08839 
L 15615.609821 -8298.08839 
z
" clip-path="url(#pb2d974e034)" style="fill: #bdc3c7; stroke: #ffffff; stroke-width: 0.5"/>
    <path d="M 15829.345205 -8328.540036 
L 15835.055692 -8331.745472 
L 15844.029315 -8334.14955 
L 15849.739802 -8334.950909 
L 15871.765968 -8336.553627 
L 15878.292239 -8334.950909 
L 15878.292239 -8333.34819 
L 15875.029104 -8333.34819 
L 15836.68726 -8325.735279 
L 15831.792556 -8322.129163 
L 15830.976773 -8323.331202 
L 15830.160989 -8324.132561 
L 15831.792556 -8325.334599 
z
" clip-path="url(#pb2d974e034)" style="fill: #bdc3c7; stroke: #ffffff; stroke-width: 0.5"/>
    <path d="M 15547.899757 -8266.835385 
L 15556.87338 -8274.448297 
L 15572.373274 -8283.263247 
L 15587.873168 -8288.87276 
L 15598.478359 -8287.670722 
L 15598.478359 -8286.068003 
L 15592.767872 -8286.068003 
L 15590.32052 -8285.266644 
L 15583.794249 -8283.663926 
L 15565.847003 -8272.444899 
L 15560.952299 -8268.037424 
L 15554.426028 -8264.831987 
z
" clip-path="url(#pb2d974e034)" style="fill: #bdc3c7; stroke: #ffffff; stroke-width: 0.5"/>
    <path d="M 15719.214377 -8320.927124 
L 15720.845945 -8324.132561 
L 15724.109081 -8326.135959 
L 15728.188 -8325.334599 
L 15782.029738 -8326.937318 
L 15791.819145 -8323.731881 
L 15768.977196 -8320.526445 
L 15745.319462 -8320.526445 
L 15739.608975 -8319.725086 
L 15729.003784 -8316.519649 
L 15723.293297 -8317.321008 
z
" clip-path="url(#pb2d974e034)" style="fill: #bdc3c7; stroke: #ffffff; stroke-width: 0.5"/>
    <path d="M 15901.949973 -8344.967897 
L 15901.949973 -8346.570616 
L 15905.213108 -8346.971295 
L 15917.449867 -8343.365179 
L 15916.634083 -8343.365179 
L 15915.818299 -8342.9645 
L 15915.002515 -8342.56382 
L 15914.186731 -8341.762461 
L 15906.028892 -8343.365179 
z
" clip-path="url(#pb2d974e034)" style="fill: #bdc3c7; stroke: #ffffff; stroke-width: 0.5"/>
    <path d="M 166.294178 203.129635 
L 169.557313 205.133033 
L 171.188881 208.338469 
L 173.636233 209.540508 
L 178.530936 212.745944 
L 177.715152 215.951381 
L 175.267801 217.954778 
L 170.373097 217.153419 
L 167.109962 211.143226 
z
" clip-path="url(#pb2d974e034)" style="fill: #bdc3c7; stroke: #ffffff; stroke-width: 0.5"/>
    <path d="M 109.189304 179.890221 
L 110.005088 175.883426 
L 111.636656 174.681387 
L 114.084008 175.482746 
L 115.715575 178.688182 
L 114.084008 181.492939 
L 111.636656 182.294298 
z
" clip-path="url(#pb2d974e034)" style="fill: #bdc3c7; stroke: #ffffff; stroke-width: 0.5"/>
   </g>
   <g id="PatchCollection_2">
    <path d="M 197.293966 241.995551 
L 198.925534 234.38264 
L 200.557102 233.581281 
L 200.557102 233.180601 
L 201.372886 232.779922 
L 202.18867 232.779922 
L 205.451805 231.577883 
L 206.267589 230.776524 
L 207.083373 229.173806 
L 229.109539 242.79691 
L 234.820026 248.807104 
L 238.898945 258.824093 
L 241.346297 263.231568 
L 245.425217 264.834286 
L 248.688352 266.837684 
L 251.135704 270.443799 
L 251.135704 274.450595 
L 246.241001 276.453993 
L 242.977865 274.450595 
L 240.530513 265.635645 
L 236.451594 262.830888 
L 233.188458 259.224772 
L 231.55689 258.824093 
L 224.214835 259.224772 
L 220.951699 258.824093 
L 213.609644 255.618656 
L 203.820237 249.608463 
z
" clip-path="url(#pb2d974e034)" style="fill: #e74c3c; stroke: #ffffff; stroke-width: 0.6"/>
    <path d="M 250.31992 294.484573 
L 252.767272 284.467584 
L 256.846191 279.659429 
L 261.740895 280.060109 
L 265.819814 281.262147 
L 269.08295 284.467584 
L 270.714518 289.676418 
L 270.714518 291.679816 
L 270.714518 297.289329 
L 270.714518 299.292727 
L 269.08295 302.097484 
L 268.267166 303.299523 
L 264.188247 304.100882 
L 253.583056 303.299523 
z
" clip-path="url(#pb2d974e034)" style="fill: #e74c3c; stroke: #ffffff; stroke-width: 0.6"/>
   </g>
   <g id="text_1">
    <!-- St. Kitts and Nevis -->
    <g style="fill: #1a252f" transform="translate(144.766195 20.117344) scale(0.17 -0.17)">
     <defs>
      <path id="DejaVuSans-Bold-36" d="M 3834 4519 
L 3834 3531 
Q 3450 3703 3084 3790 
Q 2719 3878 2394 3878 
Q 1963 3878 1756 3759 
Q 1550 3641 1550 3391 
Q 1550 3203 1689 3098 
Q 1828 2994 2194 2919 
L 2706 2816 
Q 3484 2659 3812 2340 
Q 4141 2022 4141 1434 
Q 4141 663 3683 286 
Q 3225 -91 2284 -91 
Q 1841 -91 1394 -6 
Q 947 78 500 244 
L 500 1259 
Q 947 1022 1364 901 
Q 1781 781 2169 781 
Q 2563 781 2772 912 
Q 2981 1044 2981 1288 
Q 2981 1506 2839 1625 
Q 2697 1744 2272 1838 
L 1806 1941 
Q 1106 2091 782 2419 
Q 459 2747 459 3303 
Q 459 4000 909 4375 
Q 1359 4750 2203 4750 
Q 2588 4750 2994 4692 
Q 3400 4634 3834 4519 
z
" transform="scale(0.015625)"/>
      <path id="DejaVuSans-Bold-57" d="M 1759 4494 
L 1759 3500 
L 2913 3500 
L 2913 2700 
L 1759 2700 
L 1759 1216 
Q 1759 972 1856 886 
Q 1953 800 2241 800 
L 2816 800 
L 2816 0 
L 1856 0 
Q 1194 0 917 276 
Q 641 553 641 1216 
L 641 2700 
L 84 2700 
L 84 3500 
L 641 3500 
L 641 4494 
L 1759 4494 
z
" transform="scale(0.015625)"/>
      <path id="DejaVuSans-Bold-11" d="M 653 1209 
L 1778 1209 
L 1778 0 
L 653 0 
L 653 1209 
z
" transform="scale(0.015625)"/>
      <path id="DejaVuSans-Bold-3" transform="scale(0.015625)"/>
      <path id="DejaVuSans-Bold-2e" d="M 588 4666 
L 1791 4666 
L 1791 2963 
L 3525 4666 
L 4922 4666 
L 2675 2456 
L 5153 0 
L 3647 0 
L 1791 1838 
L 1791 0 
L 588 0 
L 588 4666 
z
" transform="scale(0.015625)"/>
      <path id="DejaVuSans-Bold-4c" d="M 538 3500 
L 1656 3500 
L 1656 0 
L 538 0 
L 538 3500 
z
M 538 4863 
L 1656 4863 
L 1656 3950 
L 538 3950 
L 538 4863 
z
" transform="scale(0.015625)"/>
      <path id="DejaVuSans-Bold-56" d="M 3272 3391 
L 3272 2541 
Q 2913 2691 2578 2766 
Q 2244 2841 1947 2841 
Q 1628 2841 1473 2761 
Q 1319 2681 1319 2516 
Q 1319 2381 1436 2309 
Q 1553 2238 1856 2203 
L 2053 2175 
Q 2913 2066 3209 1816 
Q 3506 1566 3506 1031 
Q 3506 472 3093 190 
Q 2681 -91 1863 -91 
Q 1516 -91 1145 -36 
Q 775 19 384 128 
L 384 978 
Q 719 816 1070 734 
Q 1422 653 1784 653 
Q 2113 653 2278 743 
Q 2444 834 2444 1013 
Q 2444 1163 2330 1236 
Q 2216 1309 1875 1350 
L 1678 1375 
Q 931 1469 631 1722 
Q 331 1975 331 2491 
Q 331 3047 712 3315 
Q 1094 3584 1881 3584 
Q 2191 3584 2531 3537 
Q 2872 3491 3272 3391 
z
" transform="scale(0.015625)"/>
      <path id="DejaVuSans-Bold-44" d="M 2106 1575 
Q 1756 1575 1579 1456 
Q 1403 1338 1403 1106 
Q 1403 894 1545 773 
Q 1688 653 1941 653 
Q 2256 653 2472 879 
Q 2688 1106 2688 1447 
L 2688 1575 
L 2106 1575 
z
M 3816 1997 
L 3816 0 
L 2688 0 
L 2688 519 
Q 2463 200 2181 54 
Q 1900 -91 1497 -91 
Q 953 -91 614 226 
Q 275 544 275 1050 
Q 275 1666 698 1953 
Q 1122 2241 2028 2241 
L 2688 2241 
L 2688 2328 
Q 2688 2594 2478 2717 
Q 2269 2841 1825 2841 
Q 1466 2841 1156 2769 
Q 847 2697 581 2553 
L 581 3406 
Q 941 3494 1303 3539 
Q 1666 3584 2028 3584 
Q 2975 3584 3395 3211 
Q 3816 2838 3816 1997 
z
" transform="scale(0.015625)"/>
      <path id="DejaVuSans-Bold-51" d="M 4056 2131 
L 4056 0 
L 2931 0 
L 2931 347 
L 2931 1631 
Q 2931 2084 2911 2256 
Q 2891 2428 2841 2509 
Q 2775 2619 2662 2680 
Q 2550 2741 2406 2741 
Q 2056 2741 1856 2470 
Q 1656 2200 1656 1722 
L 1656 0 
L 538 0 
L 538 3500 
L 1656 3500 
L 1656 2988 
Q 1909 3294 2193 3439 
Q 2478 3584 2822 3584 
Q 3428 3584 3742 3212 
Q 4056 2841 4056 2131 
z
" transform="scale(0.015625)"/>
      <path id="DejaVuSans-Bold-47" d="M 2919 2988 
L 2919 4863 
L 4044 4863 
L 4044 0 
L 2919 0 
L 2919 506 
Q 2688 197 2409 53 
Q 2131 -91 1766 -91 
Q 1119 -91 703 423 
Q 288 938 288 1747 
Q 288 2556 703 3070 
Q 1119 3584 1766 3584 
Q 2128 3584 2408 3439 
Q 2688 3294 2919 2988 
z
M 2181 722 
Q 2541 722 2730 984 
Q 2919 1247 2919 1747 
Q 2919 2247 2730 2509 
Q 2541 2772 2181 2772 
Q 1825 2772 1636 2509 
Q 1447 2247 1447 1747 
Q 1447 1247 1636 984 
Q 1825 722 2181 722 
z
" transform="scale(0.015625)"/>
      <path id="DejaVuSans-Bold-31" d="M 588 4666 
L 1931 4666 
L 3628 1466 
L 3628 4666 
L 4769 4666 
L 4769 0 
L 3425 0 
L 1728 3200 
L 1728 0 
L 588 0 
L 588 4666 
z
" transform="scale(0.015625)"/>
      <path id="DejaVuSans-Bold-48" d="M 4031 1759 
L 4031 1441 
L 1416 1441 
Q 1456 1047 1700 850 
Q 1944 653 2381 653 
Q 2734 653 3104 758 
Q 3475 863 3866 1075 
L 3866 213 
Q 3469 63 3072 -14 
Q 2675 -91 2278 -91 
Q 1328 -91 801 392 
Q 275 875 275 1747 
Q 275 2603 792 3093 
Q 1309 3584 2216 3584 
Q 3041 3584 3536 3087 
Q 4031 2591 4031 1759 
z
M 2881 2131 
Q 2881 2450 2695 2645 
Q 2509 2841 2209 2841 
Q 1884 2841 1681 2658 
Q 1478 2475 1428 2131 
L 2881 2131 
z
" transform="scale(0.015625)"/>
      <path id="DejaVuSans-Bold-59" d="M 97 3500 
L 1216 3500 
L 2088 1081 
L 2956 3500 
L 4078 3500 
L 2700 0 
L 1472 0 
L 97 3500 
z
" transform="scale(0.015625)"/>
     </defs>
     <use xlink:href="#DejaVuSans-Bold-36"/>
     <use xlink:href="#DejaVuSans-Bold-57" transform="translate(72.015625 0)"/>
     <use xlink:href="#DejaVuSans-Bold-11" transform="translate(119.8125 0)"/>
     <use xlink:href="#DejaVuSans-Bold-3" transform="translate(157.796875 0)"/>
     <use xlink:href="#DejaVuSans-Bold-2e" transform="translate(192.609375 0)"/>
     <use xlink:href="#DejaVuSans-Bold-4c" transform="translate(270.09375 0)"/>
     <use xlink:href="#DejaVuSans-Bold-57" transform="translate(304.375 0)"/>
     <use xlink:href="#DejaVuSans-Bold-57" transform="translate(352.171875 0)"/>
     <use xlink:href="#DejaVuSans-Bold-56" transform="translate(399.96875 0)"/>
     <use xlink:href="#DejaVuSans-Bold-3" transform="translate(459.484375 0)"/>
     <use xlink:href="#DejaVuSans-Bold-44" transform="translate(494.296875 0)"/>
     <use xlink:href="#DejaVuSans-Bold-51" transform="translate(561.78125 0)"/>
     <use xlink:href="#DejaVuSans-Bold-47" transform="translate(632.96875 0)"/>
     <use xlink:href="#DejaVuSans-Bold-3" transform="translate(704.546875 0)"/>
     <use xlink:href="#DejaVuSans-Bold-31" transform="translate(739.359375 0)"/>
     <use xlink:href="#DejaVuSans-Bold-48" transform="translate(823.046875 0)"/>
     <use xlink:href="#DejaVuSans-Bold-59" transform="translate(890.875 0)"/>
     <use xlink:href="#DejaVuSans-Bold-4c" transform="translate(956.0625 0)"/>
     <use xlink:href="#DejaVuSans-Bold-56" transform="translate(990.34375 0)"/>
    </g>
   </g>
   <g id="legend_1">
    <g id="patch_2">
     <path d="M 13.5 498.657344 
L 124.849688 498.657344 
Q 126.649687 498.657344 126.649687 496.857344 
L 126.649687 470.755937 
Q 126.649687 468.955937 124.849688 468.955937 
L 13.5 468.955937 
Q 11.7 468.955937 11.7 470.755937 
L 11.7 496.857344 
Q 11.7 498.657344 13.5 498.657344 
z
" style="fill: #ffffff; opacity: 0.85; stroke: #cccccc; stroke-linejoin: miter"/>
    </g>
    <g id="patch_3">
     <path d="M 15.3 479.394531 
L 33.3 479.394531 
L 33.3 473.094531 
L 15.3 473.094531 
z
" style="fill: #e74c3c; stroke: #888888; stroke-linejoin: miter"/>
    </g>
    <g id="text_2">
     <!-- St. Kitts and Nevis -->
     <g transform="translate(40.5 479.394531) scale(0.09 -0.09)">
      <defs>
       <path id="DejaVuSans-36" d="M 3425 4513 
L 3425 3897 
Q 3066 4069 2747 4153 
Q 2428 4238 2131 4238 
Q 1616 4238 1336 4038 
Q 1056 3838 1056 3469 
Q 1056 3159 1242 3001 
Q 1428 2844 1947 2747 
L 2328 2669 
Q 3034 2534 3370 2195 
Q 3706 1856 3706 1288 
Q 3706 609 3251 259 
Q 2797 -91 1919 -91 
Q 1588 -91 1214 -16 
Q 841 59 441 206 
L 441 856 
Q 825 641 1194 531 
Q 1563 422 1919 422 
Q 2459 422 2753 634 
Q 3047 847 3047 1241 
Q 3047 1584 2836 1778 
Q 2625 1972 2144 2069 
L 1759 2144 
Q 1053 2284 737 2584 
Q 422 2884 422 3419 
Q 422 4038 858 4394 
Q 1294 4750 2059 4750 
Q 2388 4750 2728 4690 
Q 3069 4631 3425 4513 
z
" transform="scale(0.015625)"/>
       <path id="DejaVuSans-57" d="M 1172 4494 
L 1172 3500 
L 2356 3500 
L 2356 3053 
L 1172 3053 
L 1172 1153 
Q 1172 725 1289 603 
Q 1406 481 1766 481 
L 2356 481 
L 2356 0 
L 1766 0 
Q 1100 0 847 248 
Q 594 497 594 1153 
L 594 3053 
L 172 3053 
L 172 3500 
L 594 3500 
L 594 4494 
L 1172 4494 
z
" transform="scale(0.015625)"/>
       <path id="DejaVuSans-11" d="M 684 794 
L 1344 794 
L 1344 0 
L 684 0 
L 684 794 
z
" transform="scale(0.015625)"/>
       <path id="DejaVuSans-3" transform="scale(0.015625)"/>
       <path id="DejaVuSans-2e" d="M 628 4666 
L 1259 4666 
L 1259 2694 
L 3353 4666 
L 4166 4666 
L 1850 2491 
L 4331 0 
L 3500 0 
L 1259 2247 
L 1259 0 
L 628 0 
L 628 4666 
z
" transform="scale(0.015625)"/>
       <path id="DejaVuSans-4c" d="M 603 3500 
L 1178 3500 
L 1178 0 
L 603 0 
L 603 3500 
z
M 603 4863 
L 1178 4863 
L 1178 4134 
L 603 4134 
L 603 4863 
z
" transform="scale(0.015625)"/>
       <path id="DejaVuSans-56" d="M 2834 3397 
L 2834 2853 
Q 2591 2978 2328 3040 
Q 2066 3103 1784 3103 
Q 1356 3103 1142 2972 
Q 928 2841 928 2578 
Q 928 2378 1081 2264 
Q 1234 2150 1697 2047 
L 1894 2003 
Q 2506 1872 2764 1633 
Q 3022 1394 3022 966 
Q 3022 478 2636 193 
Q 2250 -91 1575 -91 
Q 1294 -91 989 -36 
Q 684 19 347 128 
L 347 722 
Q 666 556 975 473 
Q 1284 391 1588 391 
Q 1994 391 2212 530 
Q 2431 669 2431 922 
Q 2431 1156 2273 1281 
Q 2116 1406 1581 1522 
L 1381 1569 
Q 847 1681 609 1914 
Q 372 2147 372 2553 
Q 372 3047 722 3315 
Q 1072 3584 1716 3584 
Q 2034 3584 2315 3537 
Q 2597 3491 2834 3397 
z
" transform="scale(0.015625)"/>
       <path id="DejaVuSans-44" d="M 2194 1759 
Q 1497 1759 1228 1600 
Q 959 1441 959 1056 
Q 959 750 1161 570 
Q 1363 391 1709 391 
Q 2188 391 2477 730 
Q 2766 1069 2766 1631 
L 2766 1759 
L 2194 1759 
z
M 3341 1997 
L 3341 0 
L 2766 0 
L 2766 531 
Q 2569 213 2275 61 
Q 1981 -91 1556 -91 
Q 1019 -91 701 211 
Q 384 513 384 1019 
Q 384 1609 779 1909 
Q 1175 2209 1959 2209 
L 2766 2209 
L 2766 2266 
Q 2766 2663 2505 2880 
Q 2244 3097 1772 3097 
Q 1472 3097 1187 3025 
Q 903 2953 641 2809 
L 641 3341 
Q 956 3463 1253 3523 
Q 1550 3584 1831 3584 
Q 2591 3584 2966 3190 
Q 3341 2797 3341 1997 
z
" transform="scale(0.015625)"/>
       <path id="DejaVuSans-51" d="M 3513 2113 
L 3513 0 
L 2938 0 
L 2938 2094 
Q 2938 2591 2744 2837 
Q 2550 3084 2163 3084 
Q 1697 3084 1428 2787 
Q 1159 2491 1159 1978 
L 1159 0 
L 581 0 
L 581 3500 
L 1159 3500 
L 1159 2956 
Q 1366 3272 1645 3428 
Q 1925 3584 2291 3584 
Q 2894 3584 3203 3211 
Q 3513 2838 3513 2113 
z
" transform="scale(0.015625)"/>
       <path id="DejaVuSans-47" d="M 2906 2969 
L 2906 4863 
L 3481 4863 
L 3481 0 
L 2906 0 
L 2906 525 
Q 2725 213 2448 61 
Q 2172 -91 1784 -91 
Q 1150 -91 751 415 
Q 353 922 353 1747 
Q 353 2572 751 3078 
Q 1150 3584 1784 3584 
Q 2172 3584 2448 3432 
Q 2725 3281 2906 2969 
z
M 947 1747 
Q 947 1113 1208 752 
Q 1469 391 1925 391 
Q 2381 391 2643 752 
Q 2906 1113 2906 1747 
Q 2906 2381 2643 2742 
Q 2381 3103 1925 3103 
Q 1469 3103 1208 2742 
Q 947 2381 947 1747 
z
" transform="scale(0.015625)"/>
       <path id="DejaVuSans-31" d="M 628 4666 
L 1478 4666 
L 3547 763 
L 3547 4666 
L 4159 4666 
L 4159 0 
L 3309 0 
L 1241 3903 
L 1241 0 
L 628 0 
L 628 4666 
z
" transform="scale(0.015625)"/>
       <path id="DejaVuSans-48" d="M 3597 1894 
L 3597 1613 
L 953 1613 
Q 991 1019 1311 708 
Q 1631 397 2203 397 
Q 2534 397 2845 478 
Q 3156 559 3463 722 
L 3463 178 
Q 3153 47 2828 -22 
Q 2503 -91 2169 -91 
Q 1331 -91 842 396 
Q 353 884 353 1716 
Q 353 2575 817 3079 
Q 1281 3584 2069 3584 
Q 2775 3584 3186 3129 
Q 3597 2675 3597 1894 
z
M 3022 2063 
Q 3016 2534 2758 2815 
Q 2500 3097 2075 3097 
Q 1594 3097 1305 2825 
Q 1016 2553 972 2059 
L 3022 2063 
z
" transform="scale(0.015625)"/>
       <path id="DejaVuSans-59" d="M 191 3500 
L 800 3500 
L 1894 563 
L 2988 3500 
L 3597 3500 
L 2284 0 
L 1503 0 
L 191 3500 
z
" transform="scale(0.015625)"/>
      </defs>
      <use xlink:href="#DejaVuSans-36"/>
      <use xlink:href="#DejaVuSans-57" transform="translate(63.484375 0)"/>
      <use xlink:href="#DejaVuSans-11" transform="translate(102.6875 0)"/>
      <use xlink:href="#DejaVuSans-3" transform="translate(134.46875 0)"/>
      <use xlink:href="#DejaVuSans-2e" transform="translate(166.25 0)"/>
      <use xlink:href="#DejaVuSans-4c" transform="translate(231.828125 0)"/>
      <use xlink:href="#DejaVuSans-57" transform="translate(259.609375 0)"/>
      <use xlink:href="#DejaVuSans-57" transform="translate(298.8125 0)"/>
      <use xlink:href="#DejaVuSans-56" transform="translate(338.015625 0)"/>
      <use xlink:href="#DejaVuSans-3" transform="translate(390.109375 0)"/>
      <use xlink:href="#DejaVuSans-44" transform="translate(421.890625 0)"/>
      <use xlink:href="#DejaVuSans-51" transform="translate(483.171875 0)"/>
      <use xlink:href="#DejaVuSans-47" transform="translate(546.546875 0)"/>
      <use xlink:href="#DejaVuSans-3" transform="translate(610.03125 0)"/>
      <use xlink:href="#DejaVuSans-31" transform="translate(641.8125 0)"/>
      <use xlink:href="#DejaVuSans-48" transform="translate(716.625 0)"/>
      <use xlink:href="#DejaVuSans-59" transform="translate(778.15625 0)"/>
      <use xlink:href="#DejaVuSans-4c" transform="translate(837.34375 0)"/>
      <use xlink:href="#DejaVuSans-56" transform="translate(865.125 0)"/>
     </g>
    </g>
    <g id="patch_4">
     <path d="M 15.3 492.895234 
L 33.3 492.895234 
L 33.3 486.595234 
L 15.3 486.595234 
z
" style="fill: #bdc3c7; stroke: #888888; stroke-linejoin: miter"/>
    </g>
    <g id="text_3">
     <!-- Neighbors -->
     <g transform="translate(40.5 492.895234) scale(0.09 -0.09)">
      <defs>
       <path id="DejaVuSans-4a" d="M 2906 1791 
Q 2906 2416 2648 2759 
Q 2391 3103 1925 3103 
Q 1463 3103 1205 2759 
Q 947 2416 947 1791 
Q 947 1169 1205 825 
Q 1463 481 1925 481 
Q 2391 481 2648 825 
Q 2906 1169 2906 1791 
z
M 3481 434 
Q 3481 -459 3084 -895 
Q 2688 -1331 1869 -1331 
Q 1566 -1331 1297 -1286 
Q 1028 -1241 775 -1147 
L 775 -588 
Q 1028 -725 1275 -790 
Q 1522 -856 1778 -856 
Q 2344 -856 2625 -561 
Q 2906 -266 2906 331 
L 2906 616 
Q 2728 306 2450 153 
Q 2172 0 1784 0 
Q 1141 0 747 490 
Q 353 981 353 1791 
Q 353 2603 747 3093 
Q 1141 3584 1784 3584 
Q 2172 3584 2450 3431 
Q 2728 3278 2906 2969 
L 2906 3500 
L 3481 3500 
L 3481 434 
z
" transform="scale(0.015625)"/>
       <path id="DejaVuSans-4b" d="M 3513 2113 
L 3513 0 
L 2938 0 
L 2938 2094 
Q 2938 2591 2744 2837 
Q 2550 3084 2163 3084 
Q 1697 3084 1428 2787 
Q 1159 2491 1159 1978 
L 1159 0 
L 581 0 
L 581 4863 
L 1159 4863 
L 1159 2956 
Q 1366 3272 1645 3428 
Q 1925 3584 2291 3584 
Q 2894 3584 3203 3211 
Q 3513 2838 3513 2113 
z
" transform="scale(0.015625)"/>
       <path id="DejaVuSans-45" d="M 3116 1747 
Q 3116 2381 2855 2742 
Q 2594 3103 2138 3103 
Q 1681 3103 1420 2742 
Q 1159 2381 1159 1747 
Q 1159 1113 1420 752 
Q 1681 391 2138 391 
Q 2594 391 2855 752 
Q 3116 1113 3116 1747 
z
M 1159 2969 
Q 1341 3281 1617 3432 
Q 1894 3584 2278 3584 
Q 2916 3584 3314 3078 
Q 3713 2572 3713 1747 
Q 3713 922 3314 415 
Q 2916 -91 2278 -91 
Q 1894 -91 1617 61 
Q 1341 213 1159 525 
L 1159 0 
L 581 0 
L 581 4863 
L 1159 4863 
L 1159 2969 
z
" transform="scale(0.015625)"/>
       <path id="DejaVuSans-52" d="M 1959 3097 
Q 1497 3097 1228 2736 
Q 959 2375 959 1747 
Q 959 1119 1226 758 
Q 1494 397 1959 397 
Q 2419 397 2687 759 
Q 2956 1122 2956 1747 
Q 2956 2369 2687 2733 
Q 2419 3097 1959 3097 
z
M 1959 3584 
Q 2709 3584 3137 3096 
Q 3566 2609 3566 1747 
Q 3566 888 3137 398 
Q 2709 -91 1959 -91 
Q 1206 -91 779 398 
Q 353 888 353 1747 
Q 353 2609 779 3096 
Q 1206 3584 1959 3584 
z
" transform="scale(0.015625)"/>
       <path id="DejaVuSans-55" d="M 2631 2963 
Q 2534 3019 2420 3045 
Q 2306 3072 2169 3072 
Q 1681 3072 1420 2755 
Q 1159 2438 1159 1844 
L 1159 0 
L 581 0 
L 581 3500 
L 1159 3500 
L 1159 2956 
Q 1341 3275 1631 3429 
Q 1922 3584 2338 3584 
Q 2397 3584 2469 3576 
Q 2541 3569 2628 3553 
L 2631 2963 
z
" transform="scale(0.015625)"/>
      </defs>
      <use xlink:href="#DejaVuSans-31"/>
      <use xlink:href="#DejaVuSans-48" transform="translate(74.8125 0)"/>
      <use xlink:href="#DejaVuSans-4c" transform="translate(136.34375 0)"/>
      <use xlink:href="#DejaVuSans-4a" transform="translate(164.125 0)"/>
      <use xlink:href="#DejaVuSans-4b" transform="translate(227.609375 0)"/>
      <use xlink:href="#DejaVuSans-45" transform="translate(290.984375 0)"/>
      <use xlink:href="#DejaVuSans-52" transform="translate(354.46875 0)"/>
      <use xlink:href="#DejaVuSans-55" transform="translate(415.65625 0)"/>
      <use xlink:href="#DejaVuSans-56" transform="translate(456.765625 0)"/>
     </g>
    </g>
   </g>
  </g>
 </g>
 <defs>
  <clipPath id="pb2d974e034">
   <rect x="7.2" y="30.117344" width="453.608484" height="473.04"/>
  </clipPath>
 </defs>
</svg>
