<?xml version="1.0" encoding="utf-8" standalone="no"?>
<!DOCTYPE svg PUBLIC "-//W3C//DTD SVG 1.1//EN"
  "http://www.w3.org/Graphics/SVG/1.1/DTD/svg11.dtd">
<svg xmlns:xlink="http://www.w3.org/1999/xlink" width="298.204535pt" height="510.356016pt" viewBox="0 0 298.204535 510.356016" xmlns="http://www.w3.org/2000/svg" version="1.1">
 <metadata>
  <rdf:RDF xmlns:dc="http://purl.org/dc/elements/1.1/" xmlns:cc="http://creativecommons.org/ns#" xmlns:rdf="http://www.w3.org/1999/02/22-rdf-syntax-ns#">
   <cc:Work>
    <dc:type rdf:resource="http://purl.org/dc/dcmitype/StillImage"/>
    <dc:date>2026-06-19T08:14:09.512241</dc:date>
    <dc:format>image/svg+xml</dc:format>
    <dc:creator>
     <cc:Agent>
      <dc:title>Matplotlib v3.11.0, https://matplotlib.org/</dc:title>
     </cc:Agent>
    </dc:creator>
   </cc:Work>
  </rdf:RDF>
 </metadata>
 <defs>
  <style type="text/css">*{stroke-linejoin: round; stroke-linecap: butt}</style>
 </defs>
 <g id="figure_1">
  <g id="patch_1">
   <path d="M 0 510.356016 
L 298.204535 510.356016 
L 298.204535 -0 
L 0 -0 
z
" style="fill: #d6eaf8"/>
  </g>
  <g id="axes_1">
   <g id="PatchCollection_1">
    <path d="M 146.311717 160.21986 
L 146.311717 158.794189 
L 146.95569 152.582337 
L 148.028979 149.221827 
L 148.028979 146.879653 
L 147.599664 141.48247 
L 148.458294 139.445797 
L 151.678161 136.390788 
L 152.322134 135.270618 
L 152.536791 134.659616 
L 152.536791 133.233945 
L 152.751449 132.622943 
L 153.61008 130.789938 
L 153.61008 130.178936 
L 153.180765 128.956932 
L 152.966107 128.34593 
L 153.180765 127.123927 
L 154.683369 123.356082 
L 156.400631 124.374418 
L 157.259262 124.476252 
L 158.33255 124.476252 
L 158.547208 124.170751 
L 158.761866 123.457916 
L 158.761866 122.74508 
L 158.33255 122.439579 
L 157.903235 122.235912 
L 157.688577 121.62491 
L 157.688577 121.013908 
L 157.688577 120.402906 
L 157.903235 120.199239 
L 158.33255 119.486403 
L 158.761866 118.773568 
L 159.191181 118.2644 
L 159.405839 118.162566 
L 159.620497 118.162566 
L 160.908443 118.468067 
L 161.337759 118.671734 
L 161.767074 118.977235 
L 161.981732 119.079069 
L 162.19639 119.282736 
L 162.625705 119.791904 
L 162.625705 119.995572 
L 163.055021 119.995572 
L 163.698994 119.588237 
L 163.913652 119.588237 
L 165.630914 119.791904 
L 166.274887 119.995572 
L 166.489545 120.301073 
L 166.91886 120.912074 
L 167.348175 121.319409 
L 167.562833 121.013908 
L 167.562833 119.995572 
L 166.91886 119.38457 
L 166.489545 118.671734 
L 166.489545 118.060733 
L 166.489545 117.347897 
L 166.274887 116.635062 
L 165.630914 116.431394 
L 165.416256 116.227727 
L 165.416256 116.02406 
L 165.630914 115.209391 
L 165.416256 115.005723 
L 164.98694 114.90389 
L 164.557625 115.209391 
L 164.342967 115.311224 
L 164.342967 114.394721 
L 164.557625 114.292888 
L 166.489545 113.78372 
L 166.91886 113.580052 
L 167.348175 112.459882 
L 167.562833 112.154381 
L 168.206806 112.154381 
L 169.280095 112.765383 
L 169.924068 112.96905 
L 169.709411 111.84888 
L 169.494753 109.812208 
L 168.421464 107.979202 
L 168.636122 107.266367 
L 169.280095 106.655365 
L 169.924068 105.738862 
L 170.353384 106.146196 
L 170.782699 106.859032 
L 170.782699 107.164533 
L 171.426672 107.164533 
L 171.64133 107.062699 
L 171.855988 106.859032 
L 172.499961 106.757198 
L 173.57325 106.757198 
L 174.646539 107.062699 
L 176.578458 107.979202 
L 177.222431 106.553531 
L 177.437089 106.146196 
L 177.222431 105.535195 
L 176.578458 104.924193 
L 176.578458 104.516858 
L 176.793116 103.804023 
L 177.437089 104.109524 
L 178.29572 104.924193 
L 178.510378 105.535195 
L 178.939693 105.026026 
L 179.369009 104.822359 
L 179.798324 105.026026 
L 180.22764 105.535195 
L 181.300928 104.618692 
L 181.086271 103.905856 
L 180.656955 103.091187 
L 180.22764 101.971017 
L 180.656955 100.850847 
L 181.944902 100.138012 
L 183.232848 99.52701 
L 184.306137 98.916008 
L 183.662164 97.592171 
L 183.876821 97.083002 
L 184.306137 96.370167 
L 184.95011 95.860999 
L 185.808741 95.555498 
L 186.452714 95.249997 
L 186.667372 94.333494 
L 187.740661 94.944496 
L 188.813949 95.148163 
L 194.395051 95.657331 
L 194.395051 95.962832 
L 194.180393 96.879335 
L 194.180393 97.28667 
L 195.253681 97.184836 
L 196.32697 99.52701 
L 197.614917 99.119675 
L 198.688205 98.610507 
L 201.264098 97.999505 
L 202.552045 97.490337 
L 203.410676 97.184836 
L 205.986568 97.28667 
L 207.274515 97.28667 
L 209.421092 96.268333 
L 210.709039 96.064666 
L 211.782327 96.370167 
L 212.211643 95.962832 
L 213.070274 96.1665 
L 214.572878 96.879335 
L 217.148771 97.795838 
L 219.08069 97.999505 
L 220.797952 97.184836 
L 221.01261 96.879335 
L 228.954946 88.936311 
L 233.248101 85.372134 
L 236.467967 83.640962 
L 237.326598 82.826293 
L 237.541256 82.215291 
L 237.541256 81.604289 
L 237.541256 80.585952 
L 238.185229 78.85478 
L 240.546464 76.308939 
L 241.190438 74.679601 
L 243.337015 68.875084 
L 243.337015 68.264082 
L 242.693042 67.245745 
L 242.478384 66.53291 
L 242.907699 65.820074 
L 243.337015 65.616407 
L 243.980988 65.718241 
L 244.410304 65.616407 
L 244.839619 65.107239 
L 245.268935 64.29257 
L 245.69825 63.783402 
L 246.342223 63.783402 
L 246.986196 63.987069 
L 247.415512 63.885235 
L 247.415512 62.866899 
L 247.415512 62.154063 
L 246.986196 61.848562 
L 246.342223 61.746729 
L 245.69825 61.441228 
L 245.054277 60.93206 
L 244.624961 60.422891 
L 244.410304 59.81189 
L 242.263726 54.211039 
L 241.834411 50.850529 
L 241.619753 49.424858 
L 242.263726 48.406522 
L 243.76633 47.693686 
L 244.410304 47.591853 
L 245.912908 47.693686 
L 246.556881 47.591853 
L 246.771539 47.490019 
L 247.200854 46.777183 
L 247.63017 46.573516 
L 248.059485 46.67535 
L 248.274143 46.980851 
L 248.703458 47.082684 
L 248.918116 46.471682 
L 249.347432 45.758847 
L 249.776747 45.55518 
L 250.206063 45.657013 
L 250.850036 45.657013 
L 251.064694 45.758847 
L 251.279351 46.166182 
L 251.494009 46.369849 
L 251.923324 46.369849 
L 252.137982 46.166182 
L 252.781955 45.657013 
L 252.996613 45.453346 
L 255.143191 44.944178 
L 255.357848 44.944178 
L 255.787164 45.249679 
L 256.216479 45.249679 
L 256.431137 45.147845 
L 257.289768 44.536843 
L 257.719083 44.536843 
L 259.651003 45.046011 
L 260.294976 44.740511 
L 261.153607 43.416673 
L 261.368265 43.009339 
L 261.368265 42.50017 
L 261.582923 42.092836 
L 262.012238 41.685501 
L 262.656211 41.481834 
L 263.300185 41.889169 
L 263.7295 41.685501 
L 264.373473 41.278167 
L 265.232104 40.157997 
L 266.090735 39.750662 
L 266.520051 39.648828 
L 267.807997 39.648828 
L 268.45197 39.546995 
L 269.739917 39.445161 
L 270.598548 38.528658 
L 273.389098 41.074499 
L 274.677045 41.787335 
L 275.10636 42.398337 
L 275.535676 43.111172 
L 275.964991 44.536843 
L 276.608964 45.046011 
L 277.252938 45.351512 
L 277.896911 45.55518 
L 279.82883 45.860681 
L 280.258146 45.962514 
L 280.472804 46.268015 
L 281.116777 47.388185 
L 283.478012 50.952363 
L 293.781584 60.219224 
L 293.996241 60.626559 
L 294.854872 61.135727 
L 295.06953 61.543061 
L 295.06953 62.765065 
L 295.498845 64.190736 
L 295.928161 65.209073 
L 297.216107 67.551246 
L 298.074738 68.569583 
L 298.504054 68.976917 
L 299.362685 69.486085 
L 300.221316 69.689753 
L 300.865289 69.282418 
L 301.72392 68.875084 
L 302.582551 68.976917 
L 303.226524 69.384252 
L 303.870497 69.587919 
L 306.44639 71.217257 
L 308.592967 71.930093 
L 309.236941 72.439261 
L 309.880914 72.846596 
L 311.812834 75.697938 
L 312.242149 76.105272 
L 312.456807 76.308939 
L 312.886122 76.512607 
L 313.10078 77.021775 
L 313.315438 77.938278 
L 313.530095 78.447446 
L 313.744753 78.956614 
L 313.959411 79.363949 
L 314.388726 79.66945 
L 315.0327 80.687786 
L 315.247357 80.993287 
L 313.959411 82.317124 
L 309.880914 89.343646 
L 309.236941 92.093154 
L 308.807625 93.009657 
L 307.519679 96.268333 
L 307.734337 97.694004 
L 308.592967 99.323342 
L 319.325854 114.292888 
L 320.828459 115.718559 
L 321.257774 115.718559 
L 321.68709 115.616725 
L 321.901747 115.616725 
L 322.331063 115.718559 
L 322.760378 116.125893 
L 322.331063 118.468067 
L 322.331063 119.791904 
L 322.54572 121.013908 
L 322.975036 122.134078 
L 323.619009 123.152415 
L 324.692298 128.549598 
L 324.692298 130.28077 
L 323.404351 133.539446 
L 323.404351 134.557782 
L 323.619009 135.270618 
L 324.048325 135.779786 
L 324.692298 136.187121 
L 325.121613 136.696289 
L 325.336271 137.409124 
L 325.980244 139.343964 
L 326.40956 140.056799 
L 327.268191 140.260466 
L 328.126822 140.3623 
L 328.770795 140.871468 
L 329.414768 141.991638 
L 329.629426 143.72281 
L 329.629426 145.250315 
L 329.629426 147.08332 
L 329.20011 148.712659 
L 327.697506 151.665834 
L 327.268191 153.295173 
L 327.053533 156.452015 
L 326.838875 157.572185 
L 325.765587 158.692356 
L 324.906956 158.794189 
L 321.043116 156.85935 
L 319.75517 156.553849 
L 318.681881 156.961184 
L 317.608592 158.081354 
L 317.179277 158.692356 
L 316.964619 159.09969 
L 316.964619 160.21986 
L 316.749962 160.932696 
L 315.247357 163.274869 
L 313.959411 166.024378 
L 313.959411 167.144548 
L 314.818042 168.570219 
L 318.896539 172.745398 
L 319.325854 173.458234 
L 319.540512 174.374736 
L 319.325854 175.494906 
L 319.325854 175.800407 
L 318.896539 177.124245 
L 318.037908 177.735246 
L 317.179277 178.142581 
L 316.320646 179.059084 
L 315.891331 179.975587 
L 315.462015 185.169102 
L 315.0327 186.289272 
L 313.10078 188.631446 
L 311.383518 191.482788 
L 310.310229 192.501125 
L 306.875706 192.09379 
L 304.51447 192.704792 
L 300.221316 194.537797 
L 299.148027 195.250633 
L 298.718711 196.370803 
L 298.504054 197.796474 
L 298.718711 198.916644 
L 299.577342 200.851483 
L 300.006658 202.684489 
L 299.577342 204.211993 
L 297.645423 205.332163 
L 296.572134 205.23033 
L 295.498845 205.026662 
L 294.425557 205.332163 
L 293.996241 206.859668 
L 293.996241 207.267003 
L 294.425557 207.979838 
L 294.210899 208.285339 
L 290.776375 213.07152 
L 290.132402 213.478855 
L 289.273771 213.784356 
L 288.844456 214.089857 
L 287.771167 216.024696 
L 287.556509 217.654034 
L 287.771167 219.385206 
L 288.629798 221.218211 
L 288.844456 222.236548 
L 288.844456 226.106226 
L 288.41514 227.430064 
L 287.127194 229.772237 
L 285.195274 235.984089 
L 284.336643 237.817095 
L 282.834039 238.835431 
L 278.755542 239.955602 
L 278.111569 239.955602 
L 277.467595 239.650101 
L 276.823622 239.242766 
L 276.179649 238.937265 
L 275.535676 238.835431 
L 273.818414 238.937265 
L 273.174441 239.039099 
L 272.530467 239.446433 
L 272.101152 239.955602 
L 271.457179 240.362936 
L 270.598548 240.46477 
L 266.090735 240.159269 
L 266.305393 241.686773 
L 266.090735 245.556452 
L 265.66142 247.18579 
L 265.66142 247.593125 
L 264.802789 248.611461 
L 264.802789 248.713295 
L 264.802789 249.222463 
L 265.017447 249.324297 
L 265.446762 249.42613 
L 265.66142 249.833465 
L 265.66142 250.749968 
L 264.802789 252.481139 
L 264.588131 253.397642 
L 264.802789 253.90681 
L 265.017447 254.925147 
L 265.017447 255.434315 
L 264.588131 255.739816 
L 263.7295 256.147151 
L 263.300185 256.656319 
L 263.300185 257.267321 
L 263.300185 257.369154 
L 264.373473 272.033199 
L 264.588131 273.866204 
L 264.158816 275.902877 
L 263.7295 276.513879 
L 262.441554 277.93955 
L 262.226896 278.652385 
L 262.012238 279.161554 
L 262.226896 280.281724 
L 262.226896 280.892725 
L 261.79758 283.336733 
L 261.79758 284.558737 
L 262.012238 285.984408 
L 262.441554 287.308245 
L 263.514842 289.854086 
L 263.944158 291.07609 
L 263.944158 292.399927 
L 263.514842 293.520097 
L 262.870869 294.538433 
L 262.441554 295.55677 
L 262.226896 296.67694 
L 262.012238 300.241117 
L 261.368265 304.110796 
L 261.153607 307.87864 
L 260.938949 308.387809 
L 260.294976 309.609812 
L 260.080319 310.017147 
L 260.294976 310.322648 
L 260.294976 310.526315 
L 260.724292 311.239151 
L 261.368265 312.970323 
L 262.870869 314.599661 
L 263.300185 315.516164 
L 263.514842 316.330833 
L 262.870869 324.477524 
L 262.870869 326.412363 
L 263.085527 328.754537 
L 264.373473 330.994877 
L 266.090735 333.133384 
L 267.378682 335.373724 
L 267.164024 337.919565 
L 267.164024 338.428733 
L 267.164024 338.734234 
L 266.949366 338.937901 
L 265.66142 338.6324 
L 265.017447 338.6324 
L 264.588131 338.937901 
L 264.373473 339.548903 
L 265.66142 354.416615 
L 265.446762 355.231284 
L 265.446762 355.842286 
L 264.802789 356.453288 
L 264.373473 357.573458 
L 264.158816 357.980792 
L 263.944158 358.388127 
L 264.158816 359.202796 
L 264.802789 359.813798 
L 266.305393 361.137635 
L 266.734708 361.646803 
L 266.520051 362.359639 
L 265.876077 362.66514 
L 265.017447 362.868807 
L 264.373473 363.174308 
L 262.870869 365.414648 
L 263.085527 367.553154 
L 263.7295 369.895328 
L 264.158816 372.441169 
L 263.514842 374.98701 
L 263.300185 376.209014 
L 263.514842 377.431018 
L 264.158816 378.04202 
L 264.588131 378.449354 
L 265.232104 378.653021 
L 265.876077 378.653021 
L 266.305393 378.958522 
L 266.305393 379.569524 
L 266.520051 382.319032 
L 266.305393 383.031868 
L 265.446762 383.541036 
L 264.373473 384.457539 
L 263.7295 385.781376 
L 263.7295 387.00338 
L 264.158816 389.549221 
L 264.158816 390.873058 
L 263.085527 394.029901 
L 262.870869 394.640903 
L 262.656211 395.862907 
L 262.226896 398.612415 
L 262.226896 402.278426 
L 262.012238 402.278426 
L 238.399887 404.518766 
L 233.677417 405.537103 
L 213.284932 407.879277 
L 197.400259 411.545288 
L 196.970943 410.323284 
L 198.25889 409.712282 
L 205.986568 407.879277 
L 207.274515 407.777443 
L 205.986568 403.296763 
L 204.91328 398.816082 
L 203.410676 396.270241 
L 202.766702 395.96474 
L 201.478756 395.251905 
L 201.264098 394.946404 
L 201.04944 394.437236 
L 201.264098 393.113399 
L 201.04944 392.502397 
L 200.834783 391.993228 
L 199.761494 391.178559 
L 199.546836 390.771225 
L 199.546836 390.058389 
L 199.117521 389.956556 
L 198.473548 389.956556 
L 198.044232 389.854722 
L 197.400259 389.651055 
L 196.970943 389.24372 
L 196.541628 388.734552 
L 196.112312 388.225384 
L 195.897655 387.614382 
L 195.897655 387.105214 
L 196.112312 386.596045 
L 196.112312 386.086877 
L 195.468339 384.864874 
L 194.609708 384.253872 
L 194.395051 383.541036 
L 194.824366 382.217199 
L 195.682997 380.995195 
L 196.112312 380.384193 
L 196.32697 379.467691 
L 196.112312 378.04202 
L 195.468339 376.820016 
L 195.253681 375.699846 
L 195.253681 374.681509 
L 195.682997 372.135668 
L 195.682997 371.320999 
L 195.039024 370.709997 
L 194.180393 369.997162 
L 193.321762 368.978825 
L 192.248473 364.701812 
L 196.756286 364.701812 
L 197.829574 364.396312 
L 197.829574 355.536785 
L 197.829574 346.779092 
L 197.829574 337.715897 
L 197.614917 331.809546 
L 197.614917 326.616031 
L 197.614917 325.597694 
L 197.614917 313.581324 
L 197.614917 304.110796 
L 197.829574 294.4366 
L 197.829574 287.511912 
L 197.185601 282.42023 
L 196.970943 281.809228 
L 196.541628 281.707395 
L 196.32697 281.503727 
L 196.756286 279.976223 
L 196.756286 278.957886 
L 196.756286 278.448718 
L 198.688205 275.190042 
L 198.902863 274.069871 
L 198.688205 273.560703 
L 197.185601 271.52403 
L 196.756286 270.913029 
L 196.756286 270.200193 
L 196.756286 268.367188 
L 196.541628 260.32233 
L 196.541628 254.72148 
L 196.541628 248.102293 
L 196.32697 240.566603 
L 196.112312 238.937265 
L 195.682997 237.511594 
L 194.395051 235.271254 
L 190.745869 231.401576 
L 185.808741 226.411727 
L 185.594083 225.902559 
L 184.520795 224.171387 
L 183.662164 221.829213 
L 183.232848 215.719195 
L 182.588875 213.988023 
L 181.515586 214.497191 
L 180.656955 213.580688 
L 180.012982 212.053184 
L 179.798324 210.83118 
L 180.012982 210.118345 
L 181.086271 208.489006 
L 181.515586 207.674337 
L 181.515586 207.063335 
L 181.515586 205.841332 
L 181.730244 205.23033 
L 181.730244 204.517494 
L 181.300928 201.666152 
L 181.300928 196.981805 
L 181.086271 190.464452 
L 181.086271 185.983771 
L 181.086271 185.474603 
L 180.22764 183.43793 
L 174.002565 179.262751 
L 165.416256 173.560067 
L 160.26447 170.199557 
L 156.829946 167.857383 
L 151.248845 164.089539 
L 146.741033 161.136363 
z
" clip-path="url(#p006512e3d3)" style="fill: #bdc3c7; stroke: #ffffff; stroke-width: 0.5"/>
    <path d="M -228.480695 157.572185 
L -228.051379 156.757516 
L -227.622064 153.600673 
L -227.407406 153.193339 
L -225.904802 150.952999 
L -225.046171 147.796156 
L -225.260828 147.185154 
L -225.690144 146.777819 
L -225.690144 145.861317 
L -225.260828 144.944814 
L -224.616855 144.333812 
L -225.690144 144.028311 
L -225.690144 143.519143 
L -225.904802 142.500806 
L -225.904802 141.991638 
L -225.475486 138.732962 
L -225.046171 137.816459 
L -224.616855 137.409124 
L -224.18754 137.205457 
L -223.758224 136.899956 
L -223.758224 136.288954 
L -223.758224 135.779786 
L -222.899593 132.317442 
L -223.114251 131.604607 
L -223.972882 130.28077 
L -225.046171 126.10559 
L -225.690144 124.374418 
L -227.192748 124.781753 
L -226.763433 123.152415 
L -227.407406 120.097405 
L -227.407406 119.486403 
L -227.192748 118.569901 
L -226.334117 117.958899 
L -220.538358 117.246063 
L -219.46507 116.940562 
L -218.391781 116.533228 
L -217.103834 115.616725 
L -216.459861 114.802056 
L -216.030546 112.358049 
L -215.60123 110.932378 
L -213.669311 108.997538 
L -212.81068 107.775535 
L -212.81068 106.757198 
L -213.239995 100.545346 
L -213.025337 99.425176 
L -211.952049 98.610507 
L -210.664102 97.999505 
L -210.234787 97.490337 
L -210.234787 96.675668 
L -210.664102 95.35183 
L -210.664102 90.361982 
L -211.093418 88.223476 
L -213.239995 86.492304 
L -213.883968 86.39047 
L -214.527942 86.492304 
L -215.171915 86.39047 
L -215.60123 85.677634 
L -215.60123 84.964799 
L -215.171915 84.353797 
L -214.742599 83.742795 
L -214.527942 83.131793 
L -213.883968 80.78962 
L -213.883968 79.465782 
L -213.883968 78.345612 
L -214.313284 77.225442 
L -214.957257 76.308939 
L -216.030546 75.799771 
L -217.103834 75.290603 
L -217.747808 75.086936 
L -218.391781 74.985102 
L -219.250412 75.188769 
L -219.46507 74.985102 
L -221.182331 74.068599 
L -221.396989 73.966766 
L -221.826305 73.25393 
L -221.826305 72.948429 
L -221.396989 72.846596 
L -220.538358 72.744762 
L -220.323701 72.846596 
L -219.679727 73.355764 
L -219.250412 73.457597 
L -219.035754 73.355764 
L -218.606439 72.948429 
L -218.391781 72.744762 
L -216.245203 72.439261 
L -216.030546 72.337427 
L -215.815888 72.13376 
L -215.60123 71.930093 
L -215.171915 71.930093 
L -214.742599 72.13376 
L -214.313284 72.337427 
L -214.098626 72.541095 
L -213.669311 72.439261 
L -213.239995 72.13376 
L -211.952049 70.402588 
L -209.805471 68.569583 
L -208.088209 66.838411 
L -207.229578 66.023742 
L -205.297659 65.514573 
L -203.365739 64.29257 
L -202.507108 63.885235 
L -201.648477 63.783402 
L -199.287242 63.885235 
L -198.213953 63.783402 
L -197.56998 63.783402 
L -196.926007 63.681568 
L -196.282034 63.376067 
L -195.852718 62.866899 
L -194.564772 62.357731 
L -193.276825 62.459564 
L -191.988879 62.765065 
L -190.700933 62.765065 
L -188.12504 61.848562 
L -186.837093 61.848562 
L -185.763805 62.866899 
L -184.690516 62.561398 
L -182.973254 62.255897 
L -182.114623 61.746729 
L -181.685308 61.135727 
L -181.255992 60.422891 
L -180.826677 59.608222 
L -180.182703 59.099054 
L -179.53873 58.895387 
L -178.465441 59.099054 
L -177.821468 58.99722 
L -176.533522 58.488052 
L -176.533522 58.284385 
L -176.318864 57.673383 
L -176.104206 56.75688 
L -175.460233 55.534877 
L -173.313656 54.312873 
L -171.596394 54.211039 
L -170.952421 53.600037 
L -172.455025 50.748695 
L -167.303239 46.471682 
L -167.088581 46.166182 
L -166.873924 45.860681 
L -167.088581 45.147845 
L -166.873924 44.231342 
L -166.873924 43.722174 
L -166.659266 43.31484 
L -166.015293 42.907505 
L -165.156662 42.805671 
L -164.512688 43.31484 
L -164.083373 44.027675 
L -163.654058 44.43501 
L -161.722138 44.129509 
L -162.366111 41.481834 
L -164.512688 36.390152 
L -164.083373 34.964481 
L -163.010084 33.742477 
L -161.936796 32.622307 
L -161.078165 31.502137 
L -160.648849 30.687468 
L -160.648849 30.483801 
L -161.078165 30.1783 
L -161.50748 29.465464 
L -162.795427 26.614122 
L -163.868715 25.69762 
L -166.444608 23.660947 
L -166.873924 22.64261 
L -166.444608 19.587601 
L -166.22995 19.383934 
L -166.015293 19.485767 
L -165.371319 19.383934 
L -163.654058 18.671098 
L -161.50748 18.263764 
L -159.57556 18.060096 
L -157.858299 18.467431 
L -156.141037 19.485767 
L -155.282406 19.689435 
L -153.994459 19.587601 
L -152.921171 19.180267 
L -152.277197 18.671098 
L -152.06254 18.569265 
L -151.633224 17.856429 
L -150.345278 13.986751 
L -150.13062 13.273915 
L -150.989251 10.524407 
L -150.774593 7.062063 
L -151.203909 5.432725 
L -152.277197 4.007054 
L -154.209117 2.581383 
L -154.85309 1.563047 
L -156.355694 -1.899297 
L -158.287614 -3.528636 
L -158.502272 -4.037804 
L -158.502272 -4.852473 
L -158.287614 -5.361641 
L -157.858299 -5.870809 
L -156.999668 -7.805649 
L -156.141037 -8.212983 
L -152.277197 -8.111149 
L -151.633224 -8.212983 
L -151.203909 -8.823985 
L -151.203909 -9.333153 
L -152.491855 -10.045989 
L -152.921171 -10.555157 
L -152.706513 -11.47166 
L -151.847882 -12.59183 
L -150.774593 -13.508332 
L -149.915962 -14.119334 
L -149.271989 -14.221168 
L -148.628016 -14.119334 
L -148.1987 -14.119334 
L -147.554727 -14.424835 
L -146.266781 -15.748673 
L -145.40815 -17.174344 
L -144.334861 -19.618351 
L -143.905546 -20.738521 
L -142.832257 -21.655024 
L -142.402941 -21.960525 
L -140.685679 -22.367859 
L -140.256364 -22.67336 
L -139.183075 -23.691697 
L -138.539102 -23.997198 
L -137.895129 -24.200865 
L -137.036498 -24.710033 
L -136.177867 -25.422869 
L -135.963209 -26.03387 
L -136.392525 -26.339371 
L -137.036498 -26.339371 
L -137.465813 -26.644872 
L -136.607182 -27.561375 
L -136.392525 -27.765042 
L -136.177867 -27.866876 
L -135.963209 -27.765042 
L -135.748551 -27.561375 
L -135.533894 -27.15404 
L -135.533894 -27.052207 
L -135.104578 -25.932037 
L -134.889921 -25.524702 
L -134.460605 -25.321035 
L -132.958001 -25.015534 
L -132.743343 -24.9137 
L -132.743343 -24.200865 
L -133.172659 -23.997198 
L -133.816632 -23.895364 
L -134.245947 -23.691697 
L -135.319236 -22.571527 
L -135.963209 -22.266026 
L -136.607182 -21.55319 
L -135.963209 -21.044022 
L -134.460605 -20.636687 
L -133.387316 -20.636687 
L -132.09937 -20.738521 
L -131.240739 -20.534854 
L -129.094162 -19.720185 
L -126.732926 -19.109183 
L -125.659638 -18.600015 
L -121.151825 -15.137671 
L -118.361275 -13.406499 
L -113.638804 -9.740488 
L -113.209489 -9.53682 
L -112.350858 -9.638654 
L -111.921542 -9.53682 
L -111.062912 -8.518484 
L -110.418938 -8.212983 
L -109.989623 -8.111149 
L -108.701676 -8.111149 
L -106.125784 -7.805649 
L -105.48181 -7.703815 
L -104.837837 -7.805649 
L -104.193864 -8.823985 
L -104.193864 -9.944155 
L -104.837837 -11.980828 
L -104.623179 -13.712 
L -103.335233 -14.221168 
L -93.675635 -14.83217 
L -92.817004 -15.341338 
L -94.963581 -30.412717 
L -94.10495 -32.551223 
L -93.675635 -33.976894 
L -93.460977 -37.337405 
L -93.890292 -38.864909 
L -95.178239 -39.781412 
L -93.890292 -40.901582 
L -92.387688 -40.392414 
L -89.597138 -38.355741 
L -87.879876 -38.152074 
L -86.591929 -38.457575 
L -85.518641 -38.559408 
L -84.016036 -37.642906 
L -82.942748 -36.624569 
L -82.513432 -36.115401 
L -82.513432 -35.198898 
L -82.084117 -34.282395 
L -81.225486 -34.486063 
L -80.366855 -35.606233 
L -79.508224 -36.013567 
L -79.078908 -36.115401 
L -77.576304 -36.013567 
L -77.146989 -35.8099 
L -76.717673 -35.504399 
L -76.288358 -35.300732 
L -75.859042 -35.402565 
L -73.927123 -36.217235 
L -71.780545 -36.93007 
L -73.497807 -42.632754 
L -73.712465 -45.89143 
L -72.639176 -48.233604 
L -71.780545 -49.964776 
L -69.41931 -57.704133 
L -69.41931 -57.805967 
L -69.633968 -58.009634 
L -69.633968 -58.111467 
L -70.063283 -58.009634 
L -68.560679 -60.555475 
L -59.759712 -65.44349 
L -58.686423 -66.56366 
L -55.2519 -70.229671 
L -53.963953 -71.349841 
L -49.026825 -74.099349 
L -45.806959 -74.914018 
L -41.299146 -73.895682 
L -27.346393 -67.378329 
L -25.414474 -66.970994 
L -24.555843 -67.072828 
L -23.482554 -67.581996 
L -20.477346 -68.905833 
L -20.04803 -69.313168 
L -19.833373 -69.92417 
L -18.545426 -84.791882 
L -18.116111 -86.319386 
L -16.398849 -87.134055 
L -13.608298 -87.235889 
L -8.67117 -86.930388 
L -4.378015 -87.134055 
L -0.299518 -87.846891 
L 20.307624 -101.085264 
L 22.883517 -102.307268 
L 34.260378 -105.056776 
L 36.621613 -105.973279 
L 38.76819 -107.297116 
L 51.003681 -118.091482 
L 54.223547 -121.248325 
L 54.86752 -121.65566 
L 55.940809 -122.470329 
L 58.087386 -122.979497 
L 71.181509 -123.081331 
L 73.113428 -123.081331 
L 73.542744 -122.877664 
L 75.045348 -119.211652 
L 75.474663 -118.396983 
L 77.191925 -118.396983 
L 79.338503 -119.313486 
L 82.987684 -121.553826 
L 86.851523 -122.266662 
L 90.930021 -121.248325 
L 98.872357 -117.989649 
L 113.898399 -112.897967 
L 114.113056 -111.574129 
L 113.469083 -110.75946 
L 112.82511 -110.046625 
L 111.966479 -109.130122 
L 111.966479 -107.39895 
L 113.683741 -103.936606 
L 114.113056 -102.103601 
L 110.034559 -90.9019 
L 110.463875 -87.846891 
L 112.181137 -84.995549 
L 113.039768 -84.282713 
L 121.626077 -76.543357 
L 123.987312 -73.182846 
L 124.20197 -72.775512 
L 124.20197 -72.266344 
L 123.557997 -71.553508 
L 123.343339 -71.04434 
L 123.128681 -69.211334 
L 122.914024 -68.498499 
L 121.411419 -66.258159 
L 121.196762 -65.545323 
L 121.411419 -64.832488 
L 122.055393 -63.712318 
L 122.484708 -63.304983 
L 122.914024 -63.101316 
L 123.128681 -62.693981 
L 123.557997 -62.184813 
L 123.343339 -61.879312 
L 122.914024 -60.860976 
L 122.914024 -60.351808 
L 123.557997 -59.740806 
L 124.20197 -59.333471 
L 124.845943 -58.824303 
L 125.060601 -57.704133 
L 125.489916 -56.685796 
L 126.348547 -55.972961 
L 127.421836 -55.463793 
L 128.065809 -54.750957 
L 128.065809 -54.241789 
L 127.636494 -53.121619 
L 127.636494 -52.510617 
L 128.065809 -52.103283 
L 129.353756 -51.288613 
L 129.783071 -50.779445 
L 130.212387 -49.659275 
L 130.641702 -48.94644 
L 131.071018 -48.640939 
L 131.929649 -47.82627 
L 133.861568 -46.502432 
L 134.505541 -45.687763 
L 135.149515 -44.974928 
L 136.222803 -44.567593 
L 136.652119 -44.058425 
L 136.437461 -42.938255 
L 135.793488 -41.614418 
L 135.57883 -40.697915 
L 136.437461 -39.17041 
L 137.940065 -38.661242 
L 145.882402 -38.966743 
L 146.526375 -38.763076 
L 146.526375 -38.355741 
L 146.526375 -37.846573 
L 146.741033 -37.541072 
L 146.526375 -37.337405 
L 146.311717 -37.031904 
L 146.526375 -36.624569 
L 147.170348 -36.013567 
L 148.243637 -35.402565 
L 149.316925 -35.402565 
L 151.678161 -35.606233 
L 154.468711 -34.791564 
L 157.688577 -32.856724 
L 160.049812 -30.310883 
L 160.26447 -27.561375 
L 161.552417 -25.728369 
L 163.484336 -24.302698 
L 169.924068 -21.349523 
L 170.997357 -21.044022 
L 173.57325 -20.738521 
L 174.431881 -20.43302 
L 175.50517 -19.822018 
L 176.578458 -18.498181 
L 174.861196 -17.887179 
L 173.787908 -18.498181 
L 172.714619 -19.31285 
L 171.64133 -19.618351 
L 171.426672 -19.31285 
L 171.212015 -18.600015 
L 170.568042 -16.563342 
L 170.138726 -16.461508 
L 168.85078 -16.970676 
L 165.630914 -17.785345 
L 160.908443 -19.720185 
L 159.620497 -19.923852 
L 158.761866 -17.479844 
L 158.761866 -12.388162 
L 158.761866 -6.685478 
L 158.761866 -2.8158 
L 158.761866 -1.69563 
L 158.976524 -0.57546 
L 159.620497 0.341043 
L 161.337759 1.359379 
L 165.630914 1.66488 
L 167.348175 2.581383 
L 170.782699 5.432725 
L 174.217223 8.3859 
L 178.725036 12.051912 
L 180.22764 13.375749 
L 185.164768 17.449095 
L 188.384634 20.198603 
L 192.463131 23.559113 
L 194.180393 24.475616 
L 196.112312 24.984784 
L 202.337387 25.595786 
L 209.850408 26.206788 
L 210.923696 26.104954 
L 211.782327 25.392119 
L 212.640958 24.373782 
L 213.284932 23.151779 
L 214.143562 21.726108 
L 214.572878 20.911438 
L 214.787536 20.605937 
L 215.431509 20.504104 
L 215.860824 20.707771 
L 216.29014 20.809605 
L 216.934113 20.40227 
L 218.007402 19.2821 
L 218.436717 18.976599 
L 224.232476 19.485767 
L 226.593711 20.096769 
L 228.310973 21.929775 
L 228.525631 23.049945 
L 228.740289 23.355446 
L 229.384262 24.068281 
L 230.028235 24.57745 
L 231.101524 25.188451 
L 231.745497 25.901287 
L 232.174813 26.715956 
L 232.174813 27.428791 
L 232.818786 31.094803 
L 233.033443 31.909472 
L 233.462759 32.825974 
L 233.892074 33.233309 
L 234.536048 34.047978 
L 234.750705 34.557146 
L 234.750705 34.760814 
L 234.750705 35.473649 
L 234.750705 35.77915 
L 234.750705 37.102987 
L 234.32139 37.713989 
L 233.462759 37.917657 
L 230.028235 38.223157 
L 229.59892 38.223157 
L 228.954946 37.815823 
L 228.740289 37.815823 
L 228.525631 38.01949 
L 228.096315 38.630492 
L 227.667 38.834159 
L 224.232476 39.546995 
L 223.373845 40.25983 
L 223.159187 41.991002 
L 224.447134 44.129509 
L 227.023027 47.693686 
L 231.316182 53.905538 
L 235.609336 59.710056 
L 240.331807 66.227409 
L 243.337015 68.875084 
L 241.190438 74.679601 
L 240.546464 76.308939 
L 238.185229 78.85478 
L 237.541256 80.585952 
L 237.541256 81.604289 
L 237.541256 82.215291 
L 237.326598 82.826293 
L 236.467967 83.640962 
L 233.248101 85.372134 
L 228.954946 88.936311 
L 221.01261 96.879335 
L 220.797952 97.184836 
L 219.08069 97.999505 
L 217.148771 97.795838 
L 214.572878 96.879335 
L 213.070274 96.1665 
L 212.211643 95.962832 
L 211.782327 96.370167 
L 210.709039 96.064666 
L 209.421092 96.268333 
L 207.274515 97.28667 
L 205.986568 97.28667 
L 203.410676 97.184836 
L 202.552045 97.490337 
L 201.264098 97.999505 
L 198.688205 98.610507 
L 197.614917 99.119675 
L 196.32697 99.52701 
L 195.253681 97.184836 
L 194.180393 97.28667 
L 194.180393 96.879335 
L 194.395051 95.962832 
L 194.395051 95.657331 
L 188.813949 95.148163 
L 187.740661 94.944496 
L 186.667372 94.333494 
L 186.452714 95.249997 
L 185.808741 95.555498 
L 184.95011 95.860999 
L 184.306137 96.370167 
L 183.876821 97.083002 
L 183.662164 97.592171 
L 184.306137 98.916008 
L 183.232848 99.52701 
L 181.944902 100.138012 
L 180.656955 100.850847 
L 180.22764 101.971017 
L 180.656955 103.091187 
L 181.086271 103.905856 
L 181.300928 104.618692 
L 180.22764 105.535195 
L 179.798324 105.026026 
L 179.369009 104.822359 
L 178.939693 105.026026 
L 178.510378 105.535195 
L 178.29572 104.924193 
L 177.437089 104.109524 
L 176.793116 103.804023 
L 176.578458 104.516858 
L 176.578458 104.924193 
L 177.222431 105.535195 
L 177.437089 106.146196 
L 177.222431 106.553531 
L 176.578458 107.979202 
L 174.646539 107.062699 
L 173.57325 106.757198 
L 172.499961 106.757198 
L 171.855988 106.859032 
L 171.64133 107.062699 
L 171.426672 107.164533 
L 170.782699 107.164533 
L 170.782699 106.859032 
L 170.353384 106.146196 
L 169.924068 105.738862 
L 169.280095 106.655365 
L 168.636122 107.266367 
L 168.421464 107.979202 
L 169.494753 109.812208 
L 169.709411 111.84888 
L 169.924068 112.96905 
L 169.280095 112.765383 
L 168.206806 112.154381 
L 167.562833 112.154381 
L 167.348175 112.459882 
L 166.91886 113.580052 
L 166.489545 113.78372 
L 164.557625 114.292888 
L 164.342967 114.394721 
L 164.342967 115.311224 
L 164.557625 115.209391 
L 164.98694 114.90389 
L 165.416256 115.005723 
L 165.630914 115.209391 
L 165.416256 116.02406 
L 165.416256 116.227727 
L 165.630914 116.431394 
L 166.274887 116.635062 
L 166.489545 117.347897 
L 166.489545 118.060733 
L 166.489545 118.671734 
L 166.91886 119.38457 
L 167.562833 119.995572 
L 167.562833 121.013908 
L 167.348175 121.319409 
L 166.91886 120.912074 
L 166.489545 120.301073 
L 166.274887 119.995572 
L 165.630914 119.791904 
L 163.913652 119.588237 
L 163.698994 119.588237 
L 163.055021 119.995572 
L 162.625705 119.995572 
L 162.625705 119.791904 
L 162.19639 119.282736 
L 161.981732 119.079069 
L 161.767074 118.977235 
L 161.337759 118.671734 
L 160.908443 118.468067 
L 159.620497 118.162566 
L 159.405839 118.162566 
L 159.191181 118.2644 
L 158.761866 118.773568 
L 158.33255 119.486403 
L 157.903235 120.199239 
L 157.688577 120.402906 
L 157.688577 121.013908 
L 157.688577 121.62491 
L 157.903235 122.235912 
L 158.33255 122.439579 
L 158.761866 122.74508 
L 158.761866 123.457916 
L 158.547208 124.170751 
L 158.33255 124.476252 
L 157.259262 124.476252 
L 156.400631 124.374418 
L 154.683369 123.356082 
L 146.95569 123.559749 
L 141.159931 123.661583 
L 137.51075 124.374418 
L 129.997729 127.022093 
L 130.641702 124.374418 
L 129.783071 124.170751 
L 129.997729 123.967084 
L 129.997729 123.661583 
L 129.997729 123.457916 
L 130.212387 123.152415 
L 130.212387 122.948747 
L 129.997729 122.846914 
L 129.997729 122.74508 
L 123.343339 121.421243 
L 117.976896 120.301073 
L 104.453458 117.551564 
L 97.155095 116.02406 
L 94.149887 115.413058 
L 90.930021 114.802056 
L 82.987684 113.070884 
L 82.773026 114.08922 
L 82.987684 114.700222 
L 83.202342 115.209391 
L 82.558369 116.125893 
L 81.914395 116.838729 
L 78.909187 118.977235 
L 77.835898 117.755232 
L 76.76261 116.838729 
L 75.474663 116.838729 
L 74.401375 118.2644 
L 74.186717 119.180903 
L 73.972059 120.50474 
L 73.757401 121.115742 
L 72.89877 121.726744 
L 71.396166 122.439579 
L 70.752193 123.152415 
L 70.752193 123.356082 
L 70.537535 123.457916 
L 70.322878 123.559749 
L 70.10822 123.661583 
L 67.746985 123.559749 
L 66.459038 123.661583 
L 65.600407 123.967084 
L 65.171092 124.98542 
L 64.741776 126.512925 
L 64.097803 127.836762 
L 63.024514 128.447764 
L 60.233964 125.698256 
L 60.448622 125.290921 
L 60.877937 124.883587 
L 61.092595 124.374418 
L 60.663279 123.967084 
L 60.233964 123.86525 
L 59.804648 124.068917 
L 59.589991 123.967084 
L 59.375333 123.356082 
L 58.946017 123.254248 
L 52.291628 123.152415 
L 51.862312 122.74508 
L 51.647654 122.643246 
L 51.218339 122.74508 
L 50.789023 123.152415 
L 49.501077 123.356082 
L 48.213131 124.883587 
L 47.139842 124.98542 
L 47.569157 124.170751 
L 46.925184 124.170751 
L 46.710526 123.967084 
L 46.281211 123.152415 
L 45.851895 122.846914 
L 45.207922 122.74508 
L 37.050928 122.134078 
L 35.333666 122.337745 
L 34.904351 123.254248 
L 27.605988 123.254248 
L 20.092967 123.152415 
L 18.590363 122.846914 
L 16.658443 122.134078 
L 16.01447 121.828577 
L 15.370497 121.62491 
L 7.857476 121.319409 
L 6.784187 121.62491 
L 6.354871 122.74508 
L 5.496241 123.152415 
L -3.734042 123.254248 
L -16.828164 123.356082 
L -30.136944 123.457916 
L -44.519013 123.661583 
L -56.11053 123.763416 
L -61.691632 123.763416 
L -63.194236 123.763416 
L -63.194236 123.152415 
L -68.346022 123.050581 
L -68.131364 123.457916 
L -68.346022 123.86525 
L -67.916706 124.98542 
L -67.272733 126.10559 
L -67.058075 127.22576 
L -67.272733 128.549598 
L -68.131364 129.4661 
L -68.989995 130.178936 
L -69.848626 131.095439 
L -70.277941 132.419276 
L -70.921914 135.168784 
L -71.995203 136.798123 
L -72.209861 138.223794 
L -72.424519 138.732962 
L -73.068492 139.445797 
L -73.28315 139.751298 
L -73.28315 140.3623 
L -73.068492 140.667801 
L -72.853834 140.667801 
L -72.424519 140.769635 
L -72.209861 141.075136 
L -72.209861 141.48247 
L -72.424519 141.787971 
L -72.639176 141.991638 
L -73.068492 143.009975 
L -73.712465 144.435646 
L -73.927123 145.046648 
L -73.712465 146.166818 
L -71.995203 149.32366 
L -71.780545 149.934662 
L -71.565888 151.156666 
L -71.565888 151.767668 
L -71.136572 152.175002 
L -70.492599 152.989672 
L -70.277941 153.193339 
L -70.063283 154.415343 
L -69.633968 155.128178 
L -67.487391 157.063017 
L -66.843417 157.368518 
L -65.770129 157.572185 
L -64.267525 157.572185 
L -64.052867 157.877686 
L -64.267525 158.386855 
L -64.911498 158.997856 
L -65.555471 159.201524 
L -66.414102 159.303357 
L -66.843417 159.507025 
L -67.272733 159.914359 
L -67.702048 160.423527 
L -68.131364 161.34003 
L -68.560679 162.562034 
L -68.560679 163.784038 
L -67.916706 164.802374 
L -67.487391 165.006041 
L -66.843417 165.107875 
L -66.414102 165.209709 
L -66.199444 165.617043 
L -65.984786 166.329879 
L -65.555471 166.431712 
L -65.126155 166.431712 
L -64.482182 166.63538 
L -64.052867 167.042714 
L -63.623551 167.246381 
L -63.408894 167.551882 
L -63.408894 168.264718 
L -63.623551 169.079387 
L -64.052867 169.588555 
L -65.126155 170.606892 
L -65.984786 171.828895 
L -65.984786 173.050899 
L -65.340813 175.698574 
L -65.340813 180.892089 
L -65.126155 182.114093 
L -63.623551 184.150766 
L -63.408894 185.270936 
L -63.408894 186.798441 
L -64.052867 189.547949 
L -63.623551 191.075454 
L -62.335605 193.315794 
L -62.120947 193.926796 
L -62.550263 194.537797 
L -64.482182 196.879971 
L -65.555471 198.916644 
L -65.770129 200.138648 
L -65.340813 201.360651 
L -64.911498 201.971653 
L -64.482182 201.971653 
L -64.267525 201.971653 
L -63.623551 202.17532 
L -63.408894 202.684489 
L -63.408894 203.295491 
L -63.194236 203.804659 
L -62.76492 204.11016 
L -62.550263 204.313827 
L -63.194236 204.924829 
L -63.838209 205.841332 
L -64.052867 206.859668 
L -64.052867 207.776171 
L -64.052867 208.794507 
L -63.623551 209.405509 
L -61.691632 211.340348 
L -59.330397 214.089857 
L -61.262316 215.821028 
L -62.76492 218.977871 
L -63.838209 219.894374 
L -65.340813 219.79254 
L -66.62876 218.774204 
L -72.639176 210.83118 
L -75.644385 205.026662 
L -76.717673 202.277154 
L -77.361647 200.851483 
L -78.220278 199.93498 
L -79.508224 199.629479 
L -81.440144 200.240481 
L -82.513432 200.138648 
L -83.586721 199.323979 
L -84.230694 197.898308 
L -84.874667 194.945132 
L -86.162614 193.519461 
L -87.45056 193.21396 
L -88.953164 193.21396 
L -89.811795 192.602958 
L -90.241111 191.380954 
L -90.026453 189.955283 
L -90.026453 188.835113 
L -90.670426 188.325945 
L -91.743715 189.038781 
L -93.675635 191.890123 
L -94.534266 192.704792 
L -96.03687 192.806625 
L -96.466185 192.09379 
L -96.680843 190.769953 
L -96.680843 189.649783 
L -96.895501 189.242448 
L -97.539474 189.446115 
L -98.183447 189.85345 
L -98.82742 190.057117 
L -99.471394 189.751616 
L -100.330025 188.73328 
L -101.188656 188.529613 
L -110.633596 187.714943 
L -114.06812 188.224112 
L -115.141409 188.020444 
L -115.785382 187.511276 
L -116.214697 187.002108 
L -116.644013 186.594773 
L -117.502644 186.289272 
L -117.717301 186.49294 
L -118.146617 187.205775 
L -118.575932 187.307609 
L -118.79059 187.307609 
L -119.649221 186.798441 
L -120.078537 186.798441 
L -123.083745 187.103942 
L -123.942376 187.409442 
L -124.371691 187.816777 
L -125.44498 188.835113 
L -125.874296 189.242448 
L -127.162242 189.547949 
L -131.026081 189.649783 
L -132.314028 189.955283 
L -134.460605 191.482788 
L -135.748551 191.788289 
L -136.607182 192.195624 
L -136.82184 193.21396 
L -137.251156 194.028629 
L -139.183075 194.130463 
L -139.612391 194.232296 
L -140.685679 194.741465 
L -140.685679 194.843298 
L -140.685679 195.148799 
L -140.900337 195.4543 
L -141.114995 195.556134 
L -141.54431 195.4543 
L -142.188284 195.046966 
L -145.622807 194.130463 
L -146.481438 194.232296 
L -147.554727 195.046966 
L -149.271989 197.389139 
L -150.345278 198.000141 
L -152.706513 198.305642 
L -153.779802 198.712977 
L -154.423775 199.425812 
L -154.209117 199.425812 
L -153.565144 199.731313 
L -155.282406 201.564319 
L -155.711721 202.17532 
L -155.711721 202.684489 
L -155.497063 204.11016 
L -155.711721 204.822995 
L -156.355694 206.3505 
L -156.78501 206.859668 
L -158.502272 206.146833 
L -159.360903 205.943165 
L -159.57556 206.859668 
L -159.57556 207.878004 
L -159.790218 208.387173 
L -160.648849 207.979838 
L -160.863507 207.368836 
L -161.50748 205.332163 
L -161.936796 204.517494 
L -163.4394 204.11016 
L -165.585977 204.211993 
L -167.517897 204.008326 
L -168.376528 202.786322 
L -168.16187 201.666152 
L -167.732555 200.138648 
L -167.517897 199.120311 
L -167.732555 198.81481 
L -167.947212 198.611143 
L -168.376528 198.509309 
L -169.449816 198.509309 
L -169.664474 198.611143 
L -169.879132 198.916644 
L -169.879132 199.323979 
L -170.308447 200.138648 
L -170.308447 200.953317 
L -170.523105 201.564319 
L -171.381736 201.767986 
L -172.025709 201.564319 
L -172.88434 200.240481 
L -173.528313 199.731313 
L -174.386944 200.545982 
L -175.030918 200.851483 
L -175.889549 200.953317 
L -176.74818 200.953317 
L -176.533522 201.156984 
L -176.74818 201.462485 
L -177.177495 201.86982 
L -177.821468 202.17532 
L -178.250784 202.378988 
L -178.250784 202.17532 
L -178.465441 201.767986 
L -179.324072 201.462485 
L -179.753388 201.258818 
L -179.753388 200.74965 
L -179.968046 200.138648 
L -180.182703 199.731313 
L -180.826677 199.120311 
L -181.041334 198.712977 
L -181.255992 198.305642 
L -181.685308 198.101975 
L -182.329281 198.101975 
L -182.758596 198.101975 
L -182.973254 198.305642 
L -182.973254 198.611143 
L -182.543939 198.916644 
L -183.402569 199.120311 
L -184.2612 197.796474 
L -185.119831 198.101975 
L -185.334489 197.592807 
L -185.334489 197.287306 
L -185.978462 196.879971 
L -185.978462 196.370803 
L -185.334489 196.472637 
L -184.905174 196.370803 
L -183.831885 196.065302 
L -184.475858 195.046966 
L -184.690516 193.621295 
L -185.119831 192.704792 
L -186.407778 193.112126 
L -186.837093 191.890123 
L -187.695724 191.075454 
L -188.769013 190.769953 
L -190.271617 190.668119 
L -190.700933 190.566285 
L -190.91559 190.260784 
L -191.130248 189.955283 
L -191.774221 189.85345 
L -192.203537 190.057117 
L -192.632852 190.668119 
L -192.84751 191.075454 
L -193.491483 190.871786 
L -195.208745 189.242448 
L -195.208745 188.529613 
L -194.350114 186.085605 
L -194.564772 185.678271 
L -195.208745 184.2526 
L -195.852718 183.43793 
L -196.067376 182.826929 
L -194.77943 182.725095 
L -194.564772 181.910426 
L -194.994087 180.790256 
L -195.638061 179.873753 
L -196.496692 179.466418 
L -197.140665 179.059084 
L -197.784638 178.448082 
L -198.213953 177.429746 
L -198.643269 177.938914 
L -199.5019 178.244415 
L -200.145873 178.142581 
L -200.575189 177.429746 
L -199.716558 177.022411 
L -200.145873 176.920577 
L -200.575189 176.71691 
L -201.004504 176.615076 
L -201.43382 176.615076 
L -200.789846 176.105908 
L -199.5019 175.59674 
L -199.5019 175.189405 
L -201.004504 174.171069 
L -201.43382 173.560067 
L -201.004504 172.439897 
L -202.721766 172.541731 
L -202.507108 171.828895 
L -202.077793 170.810559 
L -202.29245 169.486722 
L -202.507108 169.894056 
L -202.721766 170.301391 
L -203.151081 170.606892 
L -203.580397 170.810559 
L -204.22437 170.708725 
L -204.22437 170.403224 
L -204.009712 170.097723 
L -203.795055 169.792222 
L -203.795055 166.431712 
L -204.22437 165.51521 
L -204.439028 165.51521 
L -205.297659 164.904208 
L -206.370947 164.802374 
L -206.800263 165.617043 
L -207.229578 165.718877 
L -210.234787 163.987705 
L -211.093418 164.191372 
L -213.883968 163.784038 
L -214.957257 163.784038 
L -215.386573 164.089539 
L -215.60123 164.496873 
L -216.030546 164.802374 
L -216.674519 165.006041 
L -217.318492 165.006041 
L -217.747808 165.006041 
L -217.962465 164.802374 
L -218.391781 164.70054 
L -218.606439 164.904208 
L -218.821096 165.209709 
L -219.035754 165.413376 
L -220.323701 165.413376 
L -221.182331 165.107875 
L -222.040962 164.70054 
L -222.684936 164.191372 
L -222.899593 163.784038 
L -223.114251 163.274869 
L -223.328909 162.765701 
L -223.758224 162.562034 
L -224.18754 162.4602 
L -224.616855 162.4602 
L -225.475486 162.154699 
L -225.475486 161.034529 
L -226.334117 159.507025 
L -227.407406 158.183187 
z
" clip-path="url(#p006512e3d3)" style="fill: #bdc3c7; stroke: #ffffff; stroke-width: 0.5"/>
    <path d="M -93.675635 387.308881 
L -93.460977 386.290545 
L -93.031661 385.577709 
L -91.958373 384.966707 
L -91.743715 384.661206 
L -90.455769 381.300696 
L -90.670426 380.893362 
L -91.529057 379.365857 
L -92.173031 378.34752 
L -92.387688 377.736519 
L -92.387688 375.598012 
L -91.3144 373.255838 
L -84.445352 361.341302 
L -83.801379 360.933968 
L -83.586721 360.832134 
L -80.79617 359.915631 
L -80.366855 359.406463 
L -79.937539 356.453288 
L -79.508224 355.842286 
L -76.932331 352.379942 
L -76.288358 351.259772 
L -76.288358 350.343269 
L -76.503016 349.935934 
L -76.932331 349.426766 
L -77.361647 348.510263 
L -77.361647 347.899262 
L -74.571096 329.365539 
L -73.712465 326.921531 
L -69.41931 317.65467 
L -69.204653 317.247336 
L -68.560679 316.5345 
L -68.346022 316.127165 
L -68.346022 315.821665 
L -68.560679 315.006995 
L -68.346022 314.701494 
L -67.916706 314.192326 
L -66.62876 313.377657 
L -66.199444 312.868489 
L -65.984786 312.257487 
L -65.555471 307.776807 
L -65.555471 307.267639 
L -65.126155 307.267639 
L -64.69684 307.471306 
L -64.482182 307.87864 
L -64.267525 308.082308 
L -63.408894 307.267639 
L -60.618343 304.110796 
L -59.545054 303.296127 
L -55.895873 302.074123 
L -54.822584 301.463121 
L -54.178611 300.648452 
L -54.178611 299.630116 
L -54.393269 298.204445 
L -55.2519 296.473273 
L -55.466557 295.658603 
L -55.2519 294.742101 
L -54.822584 293.927432 
L -54.393269 293.520097 
L -53.963953 293.621931 
L -53.105322 293.927432 
L -52.461349 294.029265 
L -51.602718 293.723764 
L -49.026825 292.19626 
L -48.59751 291.279757 
L -51.173402 274.375372 
L -53.963953 257.470988 
L -54.393269 256.554485 
L -54.822584 256.758152 
L -55.037242 256.248984 
L -55.037242 255.536149 
L -54.607926 255.128814 
L -53.963953 254.72148 
L -53.749295 253.90681 
L -55.037242 249.731631 
L -55.037242 248.713295 
L -55.2519 248.204126 
L -55.681215 248.000459 
L -56.11053 248.000459 
L -56.325188 247.694958 
L -57.398477 244.843616 
L -57.398477 243.621613 
L -57.827792 242.70511 
L -59.330397 241.890441 
L -60.833001 241.483106 
L -62.335605 241.483106 
L -63.194236 241.279439 
L -63.623551 240.973938 
L -64.052867 240.566603 
L -64.482182 240.261102 
L -64.052867 239.3446 
L -63.838209 238.428097 
L -63.623551 235.474921 
L -63.408894 234.965753 
L -62.120947 233.641916 
L -61.047658 231.503409 
L -60.403685 230.383239 
L -58.471766 229.364903 
L -57.827792 228.244733 
L -57.613135 227.124563 
L -58.686423 226.615394 
L -59.759712 226.309894 
L -60.403685 225.698892 
L -61.047658 224.782389 
L -60.833001 223.662219 
L -60.189027 222.84755 
L -59.545054 222.440215 
L -58.686423 222.032881 
L -58.471766 221.014544 
L -58.471766 219.385206 
L -58.686423 218.36687 
L -58.901081 217.857701 
L -58.471766 215.922862 
L -58.686423 215.108193 
L -59.330397 214.089857 
L -61.691632 211.340348 
L -63.623551 209.405509 
L -64.052867 208.794507 
L -64.052867 207.776171 
L -64.052867 206.859668 
L -63.838209 205.841332 
L -63.194236 204.924829 
L -62.550263 204.313827 
L -62.76492 204.11016 
L -63.194236 203.804659 
L -63.408894 203.295491 
L -63.408894 202.684489 
L -63.623551 202.17532 
L -64.267525 201.971653 
L -64.482182 201.971653 
L -64.911498 201.971653 
L -65.340813 201.360651 
L -65.770129 200.138648 
L -65.555471 198.916644 
L -64.482182 196.879971 
L -62.550263 194.537797 
L -62.120947 193.926796 
L -62.335605 193.315794 
L -63.623551 191.075454 
L -64.052867 189.547949 
L -63.408894 186.798441 
L -63.408894 185.270936 
L -63.623551 184.150766 
L -65.126155 182.114093 
L -65.340813 180.892089 
L -65.340813 175.698574 
L -65.984786 173.050899 
L -65.984786 171.828895 
L -65.126155 170.606892 
L -64.052867 169.588555 
L -63.623551 169.079387 
L -63.408894 168.264718 
L -63.408894 167.551882 
L -63.623551 167.246381 
L -64.052867 167.042714 
L -64.482182 166.63538 
L -65.126155 166.431712 
L -65.555471 166.431712 
L -65.984786 166.329879 
L -66.199444 165.617043 
L -66.414102 165.209709 
L -66.843417 165.107875 
L -67.487391 165.006041 
L -67.916706 164.802374 
L -68.560679 163.784038 
L -68.560679 162.562034 
L -68.131364 161.34003 
L -67.702048 160.423527 
L -67.272733 159.914359 
L -66.843417 159.507025 
L -66.414102 159.303357 
L -65.555471 159.201524 
L -64.911498 158.997856 
L -64.267525 158.386855 
L -64.052867 157.877686 
L -64.267525 157.572185 
L -65.770129 157.572185 
L -66.843417 157.368518 
L -67.487391 157.063017 
L -69.633968 155.128178 
L -70.063283 154.415343 
L -70.277941 153.193339 
L -70.492599 152.989672 
L -71.136572 152.175002 
L -71.565888 151.767668 
L -71.565888 151.156666 
L -71.780545 149.934662 
L -71.995203 149.32366 
L -73.712465 146.166818 
L -73.927123 145.046648 
L -73.712465 144.435646 
L -73.068492 143.009975 
L -72.639176 141.991638 
L -72.424519 141.787971 
L -72.209861 141.48247 
L -72.209861 141.075136 
L -72.424519 140.769635 
L -72.853834 140.667801 
L -73.068492 140.667801 
L -73.28315 140.3623 
L -73.28315 139.751298 
L -73.068492 139.445797 
L -72.424519 138.732962 
L -72.209861 138.223794 
L -71.995203 136.798123 
L -70.921914 135.168784 
L -70.277941 132.419276 
L -69.848626 131.095439 
L -68.989995 130.178936 
L -68.131364 129.4661 
L -67.272733 128.549598 
L -67.058075 127.22576 
L -67.272733 126.10559 
L -67.916706 124.98542 
L -68.346022 123.86525 
L -68.131364 123.457916 
L -68.346022 123.050581 
L -63.194236 123.152415 
L -63.194236 123.763416 
L -61.691632 123.763416 
L -56.11053 123.763416 
L -44.519013 123.661583 
L -30.136944 123.457916 
L -16.828164 123.356082 
L -3.734042 123.254248 
L 5.496241 123.152415 
L 6.354871 122.74508 
L 6.784187 121.62491 
L 7.857476 121.319409 
L 15.370497 121.62491 
L 16.01447 121.828577 
L 16.658443 122.134078 
L 18.590363 122.846914 
L 20.092967 123.152415 
L 27.605988 123.254248 
L 34.904351 123.254248 
L 35.333666 122.337745 
L 37.050928 122.134078 
L 45.207922 122.74508 
L 45.851895 122.846914 
L 46.281211 123.152415 
L 46.710526 123.967084 
L 46.925184 124.170751 
L 47.569157 124.170751 
L 47.139842 124.98542 
L 48.213131 124.883587 
L 49.501077 123.356082 
L 50.789023 123.152415 
L 51.218339 122.74508 
L 51.647654 122.643246 
L 51.862312 122.74508 
L 52.291628 123.152415 
L 58.946017 123.254248 
L 59.375333 123.356082 
L 59.589991 123.967084 
L 59.804648 124.068917 
L 60.233964 123.86525 
L 60.663279 123.967084 
L 61.092595 124.374418 
L 60.877937 124.883587 
L 60.448622 125.290921 
L 60.233964 125.698256 
L 63.024514 128.447764 
L 64.097803 127.836762 
L 64.741776 126.512925 
L 65.171092 124.98542 
L 65.600407 123.967084 
L 66.459038 123.661583 
L 67.746985 123.559749 
L 70.10822 123.661583 
L 70.322878 123.559749 
L 70.537535 123.457916 
L 70.752193 123.356082 
L 70.752193 123.152415 
L 71.396166 122.439579 
L 72.89877 121.726744 
L 73.757401 121.115742 
L 73.972059 120.50474 
L 74.186717 119.180903 
L 74.401375 118.2644 
L 75.474663 116.838729 
L 76.76261 116.838729 
L 77.835898 117.755232 
L 78.909187 118.977235 
L 81.914395 116.838729 
L 82.558369 116.125893 
L 83.202342 115.209391 
L 82.987684 114.700222 
L 82.773026 114.08922 
L 82.987684 113.070884 
L 90.930021 114.802056 
L 91.359336 115.820392 
L 92.432625 116.736895 
L 93.720571 117.347897 
L 94.79386 117.653398 
L 95.867148 117.551564 
L 97.799068 117.042396 
L 99.087015 117.042396 
L 101.018934 117.755232 
L 101.877565 119.180903 
L 102.092223 121.013908 
L 101.877565 123.152415 
L 101.662907 123.967084 
L 101.233592 124.374418 
L 100.804276 124.679919 
L 100.374961 125.189087 
L 99.945646 125.698256 
L 98.657699 131.808274 
L 98.872357 132.419276 
L 99.087015 133.539446 
L 99.087015 134.252282 
L 98.443041 134.659616 
L 97.369753 135.576119 
L 96.511122 136.594455 
L 95.867148 137.612792 
L 95.652491 140.158633 
L 95.437833 140.973302 
L 95.008518 142.500806 
L 95.008518 143.824644 
L 95.652491 145.046648 
L 96.081806 145.453982 
L 96.940437 145.759483 
L 97.58441 145.96315 
L 98.872357 146.166818 
L 99.301672 146.472319 
L 99.730988 146.777819 
L 100.160303 147.185154 
L 102.092223 147.796156 
L 102.736196 148.101657 
L 103.165512 148.712659 
L 103.809485 150.036496 
L 104.2388 150.647498 
L 107.458666 152.582337 
L 108.531955 153.600673 
L 111.537163 159.303357 
L 111.537163 159.507025 
L 112.181137 159.405191 
L 112.395794 159.09969 
L 112.610452 158.692356 
L 112.610452 158.488688 
L 114.327714 159.09969 
L 114.757029 159.201524 
L 115.401003 158.997856 
L 116.044976 158.794189 
L 116.688949 158.590522 
L 117.118265 158.692356 
L 117.762238 159.303357 
L 117.762238 160.016193 
L 117.54758 160.627195 
L 117.54758 161.136363 
L 118.191553 162.256533 
L 119.264842 163.173036 
L 119.908815 164.089539 
L 119.264842 165.311542 
L 120.123473 165.311542 
L 122.699366 164.904208 
L 123.343339 165.209709 
L 124.631285 166.126211 
L 123.128681 167.246381 
L 122.914024 168.162884 
L 122.699366 169.181221 
L 122.27005 169.99589 
L 122.27005 172.032563 
L 122.055393 176.309576 
L 122.484708 177.83708 
L 123.343339 178.346248 
L 123.987312 178.448082 
L 124.416628 178.855417 
L 124.631285 180.07742 
L 124.416628 181.095757 
L 124.416628 181.299424 
L 123.772655 181.503091 
L 122.914024 181.299424 
L 121.840735 181.503091 
L 122.055393 182.114093 
L 122.055393 182.521428 
L 121.840735 182.826929 
L 121.840735 183.43793 
L 121.840735 183.845265 
L 122.484708 185.270936 
L 122.914024 186.49294 
L 122.914024 186.900274 
L 122.484708 187.307609 
L 121.840735 188.122278 
L 121.196762 189.038781 
L 121.196762 189.85345 
L 121.411419 192.297457 
L 121.411419 193.010293 
L 120.123473 197.69464 
L 120.123473 198.81481 
L 120.552788 199.425812 
L 120.982104 199.93498 
L 121.411419 200.545982 
L 121.626077 201.462485 
L 121.840735 202.480821 
L 121.626077 203.600991 
L 120.982104 204.313827 
L 119.908815 204.415661 
L 118.835527 203.906492 
L 117.332922 202.17532 
L 116.474291 203.906492 
L 116.474291 205.739498 
L 117.54758 206.961502 
L 119.264842 207.165169 
L 121.840735 206.554167 
L 122.914024 206.757834 
L 123.343339 207.979838 
L 123.128681 208.794507 
L 122.055393 209.100008 
L 120.982104 208.896341 
L 120.123473 208.387173 
L 119.050184 209.100008 
L 117.54758 209.201842 
L 114.542372 208.794507 
L 114.542372 209.201842 
L 114.113056 210.933014 
L 114.327714 211.340348 
L 114.327714 211.442182 
L 114.757029 211.849516 
L 115.401003 212.256851 
L 116.044976 212.562352 
L 117.54758 212.256851 
L 118.406211 212.256851 
L 118.835527 212.969686 
L 118.620869 213.580688 
L 117.976896 214.089857 
L 116.903607 214.497191 
L 114.542372 215.006359 
L 114.542372 215.821028 
L 114.971687 216.839365 
L 114.542372 217.450367 
L 114.757029 218.265036 
L 115.830318 218.36687 
L 116.903607 218.163202 
L 119.694157 217.246699 
L 120.123473 216.839365 
L 120.338131 216.330197 
L 120.552788 215.108193 
L 120.767446 214.599025 
L 121.626077 214.293524 
L 123.128681 213.988023 
L 125.489916 213.886189 
L 126.563205 214.089857 
L 129.783071 215.210027 
L 130.212387 215.719195 
L 130.212387 216.330197 
L 129.997729 216.941199 
L 129.783071 217.654034 
L 129.783071 217.755868 
L 129.783071 217.857701 
L 131.500333 218.468703 
L 132.573622 219.385206 
L 133.002937 220.810877 
L 132.358964 223.865886 
L 132.358964 225.597058 
L 132.144306 226.411727 
L 131.500333 227.022729 
L 130.85636 227.430064 
L 130.212387 227.939232 
L 130.212387 229.161236 
L 131.071018 231.299742 
L 131.071018 232.318078 
L 130.212387 233.540082 
L 128.92444 234.762086 
L 128.495125 235.271254 
L 128.495125 236.187757 
L 128.280467 238.22443 
L 127.207178 240.057435 
L 126.563205 241.890441 
L 127.421836 243.723446 
L 130.212387 248.713295 
L 131.071018 251.66647 
L 129.783071 253.499476 
L 129.353756 254.314145 
L 129.353756 255.230648 
L 129.139098 256.045317 
L 128.495125 256.350818 
L 127.636494 256.248984 
L 127.207178 256.045317 
L 126.563205 255.943483 
L 125.919232 256.147151 
L 126.348547 256.350818 
L 125.919232 257.369154 
L 125.275259 258.08199 
L 124.631285 256.758152 
L 123.987312 256.452651 
L 123.128681 256.554485 
L 122.699366 257.165487 
L 122.914024 257.980156 
L 123.343339 260.118663 
L 125.060601 263.988341 
L 127.421836 267.247017 
L 129.783071 268.876356 
L 130.85636 270.098359 
L 132.144306 271.422197 
L 133.64691 272.542367 
L 137.725408 274.375372 
L 138.798696 276.615713 
L 139.442669 278.856053 
L 141.803905 280.790892 
L 141.803905 281.401894 
L 141.803905 282.114729 
L 142.018562 283.031232 
L 142.018562 283.642234 
L 142.018562 283.845901 
L 142.23322 284.049568 
L 142.877193 284.253236 
L 143.091851 284.456903 
L 143.306509 285.882574 
L 142.877193 286.799077 
L 142.018562 287.410079 
L 139.442669 288.632082 
L 138.369381 289.243084 
L 136.437461 291.07609 
L 135.793488 291.279757 
L 135.364172 291.381591 
L 135.149515 291.585258 
L 135.149515 292.399927 
L 135.364172 293.010929 
L 135.793488 293.418263 
L 136.222803 293.927432 
L 136.222803 294.742101 
L 136.008146 295.55677 
L 135.57883 295.964104 
L 135.149515 296.371439 
L 135.57883 297.79711 
L 135.793488 300.648452 
L 136.222803 302.888792 
L 136.222803 304.110796 
L 136.222803 306.351136 
L 136.866777 310.322648 
L 136.866777 310.628149 
L 136.866777 314.192326 
L 137.296092 317.65467 
L 137.296092 320.811513 
L 137.51075 322.033517 
L 135.793488 321.728016 
L 134.934857 322.950019 
L 134.720199 324.783025 
L 134.720199 326.412363 
L 134.505541 327.227032 
L 133.64691 327.634367 
L 132.573622 327.939868 
L 131.929649 328.245369 
L 131.285675 328.856371 
L 130.85636 329.467372 
L 130.641702 330.282042 
L 130.427044 333.744385 
L 130.85636 336.697561 
L 131.714991 339.345236 
L 133.64691 341.076408 
L 134.720199 341.178241 
L 135.793488 340.974574 
L 138.154723 340.159905 
L 138.369381 340.669073 
L 139.442669 344.640585 
L 139.442669 345.964422 
L 138.584038 348.204763 
L 137.940065 350.954271 
L 136.652119 354.620282 
L 136.437461 356.962456 
L 136.652119 359.711964 
L 136.652119 362.257805 
L 135.364172 364.396312 
L 134.720199 364.803646 
L 132.144306 365.414648 
L 131.285675 365.516482 
L 130.427044 365.821983 
L 131.071018 366.738485 
L 132.78828 368.062323 
L 133.432253 369.284326 
L 133.432253 370.302663 
L 132.144306 372.441169 
L 131.714991 373.765007 
L 131.929649 374.274175 
L 132.358964 374.681509 
L 133.217595 375.190678 
L 134.934857 378.449354 
L 135.364172 378.958522 
L 136.222803 379.16219 
L 137.296092 379.773191 
L 138.154723 380.587861 
L 138.798696 381.606197 
L 138.798696 382.5227 
L 138.369381 385.577709 
L 138.584038 386.901546 
L 139.442669 387.614382 
L 140.3013 388.225384 
L 140.730616 389.141886 
L 141.374589 389.24372 
L 142.877193 389.141886 
L 143.521166 389.24372 
L 144.379797 390.058389 
L 144.16514 390.567557 
L 143.735824 391.178559 
L 143.521166 391.891395 
L 143.521166 392.298729 
L 143.306509 393.520733 
L 143.735824 395.048238 
L 144.379797 396.473909 
L 145.453086 397.89958 
L 146.526375 399.223417 
L 149.531583 400.649088 
L 151.034187 401.565591 
L 152.966107 404.009598 
L 153.824738 404.518766 
L 155.112684 404.926101 
L 159.620497 404.926101 
L 161.123101 409.712282 
L 161.981732 411.036119 
L 162.411047 411.443454 
L 163.055021 411.647121 
L 163.484336 411.850789 
L 163.913652 412.359957 
L 164.557625 413.58196 
L 165.201598 414.39663 
L 166.060229 414.803964 
L 170.997357 415.313132 
L 171.64133 416.331469 
L 171.64133 418.469975 
L 171.212015 418.571809 
L 168.421464 419.99748 
L 166.489545 421.626818 
L 163.484336 424.885495 
L 162.625705 426.005665 
L 161.337759 428.95884 
L 160.908443 430.07901 
L 160.908443 431.402848 
L 160.26447 434.152356 
L 159.835155 435.272526 
L 157.903235 437.105532 
L 155.327342 437.920201 
L 143.950482 439.244038 
L 122.699366 437.6147 
L 120.123473 437.818367 
L 118.620869 438.123868 
L 117.976896 438.429369 
L 117.762238 438.73487 
L 117.332922 438.938537 
L 115.830318 439.040371 
L 115.401003 439.142205 
L 114.327714 439.956874 
L 110.249217 441.077044 
L 109.390586 441.688046 
L 107.673324 443.21555 
L 105.526747 443.928386 
L 104.668116 444.844888 
L 104.024143 445.863225 
L 102.950854 446.881561 
L 98.228384 448.5109 
L 98.013726 448.714567 
L 97.155095 449.427402 
L 96.725779 449.732903 
L 96.296464 449.936571 
L 95.437833 450.038404 
L 82.558369 454.213583 
L 79.767818 454.519084 
L 79.55316 454.722752 
L 78.694529 455.028253 
L 74.401375 458.796097 
L 73.972059 459.407099 
L 73.542744 460.425436 
L 72.89877 461.240105 
L 70.752193 462.563942 
L 66.459038 463.582279 
L 65.815065 463.582279 
L 65.38575 463.989613 
L 64.312461 464.804282 
L 63.45383 465.109783 
L 62.809857 464.19328 
L 59.804648 466.43362 
L 58.946017 466.739121 
L 55.511494 469.590463 
L 54.223547 471.219802 
L 53.150259 471.830803 
L 48.857104 472.441805 
L 47.3545 472.441805 
L 46.495869 471.627136 
L 46.066553 472.136304 
L 45.637238 472.339972 
L 44.134633 472.441805 
L 42.632029 472.84914 
L 41.988056 472.84914 
L 41.773398 472.238138 
L 41.558741 471.72897 
L 40.914767 471.830803 
L 40.270794 472.441805 
L 39.197505 472.543639 
L 38.338875 472.84914 
L 32.1138 475.496815 
L 31.469827 476.413317 
L 30.825854 476.922486 
L 29.752565 477.635321 
L 27.39133 478.755491 
L 26.103383 478.959158 
L 22.239544 479.060992 
L 21.595571 479.264659 
L 20.307624 480.079328 
L 19.663651 480.384829 
L 19.019678 480.384829 
L 17.731732 480.282996 
L 17.087758 480.384829 
L 16.01447 480.69033 
L 13.867892 481.8105 
L 9.789395 482.421502 
L 8.286791 482.93067 
L 7.42816 483.643506 
L 6.569529 483.236171 
L 5.496241 483.134338 
L 4.422952 483.439839 
L 3.564321 484.05084 
L 3.564321 484.560009 
L 3.993636 485.374678 
L 3.778979 485.883846 
L 3.564321 486.291181 
L 3.135005 486.596682 
L -0.943492 488.633354 
L -1.587465 489.142523 
L -3.304727 491.077362 
L -3.519384 491.484696 
L -3.304727 491.892031 
L -3.304727 492.197532 
L -3.9487 492.299365 
L -4.378015 492.299365 
L -8.456512 493.521369 
L -13.178983 495.558042 
L -14.037614 496.474545 
L -15.540218 498.511218 
L -16.398849 499.325887 
L -17.25748 499.733221 
L -21.335977 500.242389 
L -22.194608 500.54789 
L -23.697212 500.649724 
L -24.126527 500.54789 
L -24.555843 500.140556 
L -24.770501 499.529554 
L -24.555843 498.918552 
L -24.770501 498.30755 
L -25.629132 498.103883 
L -26.058447 498.002049 
L -26.917078 497.798382 
L -27.561051 497.696548 
L -27.561051 497.391048 
L -28.205024 496.780046 
L -30.56626 494.743373 
L -31.854206 494.234205 
L -32.498179 493.928704 
L -32.712837 493.317702 
L -32.927495 492.910367 
L -33.142152 492.401199 
L -33.35681 492.095698 
L -39.581885 489.651691 
L -49.670798 487.513184 
L -59.545054 484.152674 
L -67.272733 483.541672 
L -75.859042 482.014168 
L -84.230694 479.468327 
L -85.089325 479.264659 
L -84.874667 478.246323 
L -84.445352 478.144489 
L -83.801379 477.940822 
L -83.157406 477.838988 
L -78.864251 477.838988 
L -77.576304 478.246323 
L -77.361647 478.653657 
L -76.503016 479.671994 
L -76.288358 479.875661 
L -75.429727 479.773828 
L -74.141781 479.264659 
L -73.497807 479.060992 
L -73.712465 477.431654 
L -71.995203 476.718818 
L -69.848626 476.413317 
L -68.560679 475.802315 
L -66.199444 475.904149 
L -64.911498 475.700482 
L -64.052867 475.08948 
L -63.408894 473.96931 
L -63.838209 473.561975 
L -64.69684 472.84914 
L -64.69684 472.645473 
L -64.911498 472.136304 
L -64.482182 470.812467 
L -64.482182 470.303299 
L -64.911498 469.692297 
L -65.555471 468.470293 
L -65.770129 467.553791 
L -65.340813 463.887779 
L -63.408894 464.19328 
L -62.550263 464.091447 
L -62.120947 463.378611 
L -61.906289 462.258441 
L -62.120947 461.240105 
L -63.838209 457.370426 
L -64.911498 452.99158 
L -64.911498 449.834737 
L -65.126155 448.918234 
L -65.555471 448.103565 
L -66.414102 447.492563 
L -70.707257 446.372393 
L -71.565888 446.779728 
L -73.497807 448.001731 
L -74.785754 448.103565 
L -76.0737 447.288896 
L -76.503016 445.761391 
L -75.859042 441.993546 
L -79.722882 442.299047 
L -79.078908 435.476193 
L -79.293566 433.235853 
L -79.937539 431.097347 
L -82.298775 426.820334 
L -83.157406 424.681827 
L -85.089325 414.600297 
L -86.377272 411.239787 
L -88.094534 409.610448 
L -88.309191 409.406781 
L -88.953164 408.592112 
z
" clip-path="url(#p006512e3d3)" style="fill: #bdc3c7; stroke: #ffffff; stroke-width: 0.5"/>
   </g>
   <g id="PatchCollection_2">
    <defs>
     <path id="m1e83fcb4a1" d="M 90.930021 -395.55396 
L 94.149887 -394.942958 
L 97.155095 -394.331956 
L 104.453458 -392.804451 
L 117.976896 -390.054943 
L 123.343339 -388.934773 
L 129.997729 -387.610936 
L 129.997729 -387.509102 
L 130.212387 -387.407268 
L 130.212387 -387.203601 
L 129.997729 -386.8981 
L 129.997729 -386.694433 
L 129.997729 -386.388932 
L 129.783071 -386.185265 
L 130.641702 -385.981597 
L 129.997729 -383.333923 
L 137.51075 -385.981597 
L 141.159931 -386.694433 
L 146.95569 -386.796266 
L 154.683369 -386.999934 
L 153.180765 -383.232089 
L 152.966107 -382.010085 
L 153.180765 -381.399083 
L 153.61008 -380.17708 
L 153.61008 -379.566078 
L 152.751449 -377.733072 
L 152.536791 -377.122071 
L 152.536791 -375.6964 
L 152.322134 -375.085398 
L 151.678161 -373.965228 
L 148.458294 -370.910218 
L 147.599664 -368.873546 
L 148.028979 -363.476363 
L 148.028979 -361.134189 
L 146.95569 -357.773679 
L 146.311717 -351.561826 
L 146.311717 -350.136155 
L 146.741033 -349.219653 
L 151.248845 -346.266477 
L 156.829946 -342.498632 
L 160.26447 -340.156459 
L 165.416256 -336.795948 
L 174.002565 -331.093265 
L 180.22764 -326.918085 
L 181.086271 -324.881412 
L 181.086271 -324.372244 
L 181.086271 -319.891564 
L 181.300928 -313.374211 
L 181.300928 -308.689863 
L 181.730244 -305.838521 
L 181.730244 -305.125686 
L 181.515586 -304.514684 
L 181.515586 -303.29268 
L 181.515586 -302.681678 
L 181.086271 -301.867009 
L 180.012982 -300.237671 
L 179.798324 -299.524836 
L 180.012982 -298.302832 
L 180.656955 -296.775327 
L 181.515586 -295.858825 
L 182.588875 -296.367993 
L 183.232848 -294.636821 
L 183.662164 -288.526802 
L 184.520795 -286.184629 
L 185.594083 -284.453457 
L 185.808741 -283.944288 
L 190.745869 -278.95444 
L 194.395051 -275.084762 
L 195.682997 -272.844422 
L 196.112312 -271.418751 
L 196.32697 -269.789412 
L 196.541628 -262.253723 
L 196.541628 -255.634536 
L 196.541628 -250.033686 
L 196.756286 -241.988828 
L 196.756286 -240.155823 
L 196.756286 -239.442987 
L 197.185601 -238.831985 
L 198.688205 -236.795312 
L 198.902863 -236.286144 
L 198.688205 -235.165974 
L 196.756286 -231.907298 
L 196.756286 -231.398129 
L 196.756286 -230.379793 
L 196.32697 -228.852288 
L 196.541628 -228.648621 
L 196.970943 -228.546787 
L 197.185601 -227.935786 
L 197.829574 -222.844103 
L 197.829574 -215.919416 
L 197.614917 -206.24522 
L 197.614917 -196.774691 
L 197.614917 -184.758322 
L 197.614917 -183.739985 
L 197.614917 -178.546469 
L 197.829574 -172.640118 
L 197.829574 -163.576924 
L 197.829574 -154.819231 
L 197.829574 -145.959704 
L 196.756286 -145.654203 
L 192.248473 -145.654203 
L 193.321762 -141.37719 
L 194.180393 -140.358854 
L 195.039024 -139.646018 
L 195.682997 -139.035016 
L 195.682997 -138.220347 
L 195.253681 -135.674506 
L 195.253681 -134.65617 
L 195.468339 -133.536 
L 196.112312 -132.313996 
L 196.32697 -130.888325 
L 196.112312 -129.971822 
L 195.682997 -129.36082 
L 194.824366 -128.138817 
L 194.395051 -126.814979 
L 194.609708 -126.102144 
L 195.468339 -125.491142 
L 196.112312 -124.269138 
L 196.112312 -123.75997 
L 195.897655 -123.250802 
L 195.897655 -122.741634 
L 196.112312 -122.130632 
L 196.541628 -121.621464 
L 196.970943 -121.112295 
L 197.400259 -120.704961 
L 198.044232 -120.501294 
L 198.473548 -120.39946 
L 199.117521 -120.39946 
L 199.546836 -120.297626 
L 199.546836 -119.584791 
L 199.761494 -119.177456 
L 200.834783 -118.362787 
L 201.04944 -117.853619 
L 201.264098 -117.242617 
L 201.04944 -115.91878 
L 201.264098 -115.409612 
L 201.478756 -115.104111 
L 202.766702 -114.391275 
L 203.410676 -114.085774 
L 204.91328 -111.539933 
L 205.986568 -107.059253 
L 207.274515 -102.578573 
L 205.986568 -102.476739 
L 198.25889 -100.643734 
L 196.970943 -100.032732 
L 197.400259 -98.810728 
L 186.238056 -96.875889 
L 176.793116 -93.922713 
L 172.499961 -92.089708 
L 171.855988 -91.987874 
L 171.64133 -91.88604 
L 171.64133 -94.024547 
L 170.997357 -95.042883 
L 166.060229 -95.552051 
L 165.201598 -95.959386 
L 164.557625 -96.774055 
L 163.913652 -97.996059 
L 163.484336 -98.505227 
L 163.055021 -98.708894 
L 162.411047 -98.912562 
L 161.981732 -99.319896 
L 161.123101 -100.643734 
L 159.620497 -105.429915 
L 155.112684 -105.429915 
L 153.824738 -105.837249 
L 152.966107 -106.346417 
L 151.034187 -108.790425 
L 149.531583 -109.706928 
L 146.526375 -111.132599 
L 145.453086 -112.456436 
L 144.379797 -113.882107 
L 143.735824 -115.307778 
L 143.306509 -116.835283 
L 143.521166 -118.057286 
L 143.521166 -118.464621 
L 143.735824 -119.177456 
L 144.16514 -119.788458 
L 144.379797 -120.297626 
L 143.521166 -121.112295 
L 142.877193 -121.214129 
L 141.374589 -121.112295 
L 140.730616 -121.214129 
L 140.3013 -122.130632 
L 139.442669 -122.741634 
L 138.584038 -123.454469 
L 138.369381 -124.778307 
L 138.798696 -127.833316 
L 138.798696 -128.749819 
L 138.154723 -129.768155 
L 137.296092 -130.582824 
L 136.222803 -131.193826 
L 135.364172 -131.397493 
L 134.934857 -131.906662 
L 133.217595 -135.165338 
L 132.358964 -135.674506 
L 131.929649 -136.081841 
L 131.714991 -136.591009 
L 132.144306 -137.914846 
L 133.432253 -140.053353 
L 133.432253 -141.071689 
L 132.78828 -142.293693 
L 131.071018 -143.61753 
L 130.427044 -144.534033 
L 131.285675 -144.839534 
L 132.144306 -144.941368 
L 134.720199 -145.552369 
L 135.364172 -145.959704 
L 136.652119 -148.098211 
L 136.652119 -150.644052 
L 136.437461 -153.39356 
L 136.652119 -155.735734 
L 137.940065 -159.401745 
L 138.584038 -162.151253 
L 139.442669 -164.391593 
L 139.442669 -165.715431 
L 138.369381 -169.686943 
L 138.154723 -170.196111 
L 135.793488 -169.381442 
L 134.720199 -169.177774 
L 133.64691 -169.279608 
L 131.714991 -171.01078 
L 130.85636 -173.658455 
L 130.427044 -176.61163 
L 130.641702 -180.073974 
L 130.85636 -180.888643 
L 131.285675 -181.499645 
L 131.929649 -182.110647 
L 132.573622 -182.416148 
L 133.64691 -182.721649 
L 134.505541 -183.128983 
L 134.720199 -183.943652 
L 134.720199 -185.572991 
L 134.934857 -187.405996 
L 135.793488 -188.628 
L 137.51075 -188.322499 
L 137.296092 -189.544503 
L 137.296092 -192.701346 
L 136.866777 -196.163689 
L 136.866777 -199.727867 
L 136.866777 -200.033368 
L 136.222803 -204.00488 
L 136.222803 -206.24522 
L 136.222803 -207.467224 
L 135.793488 -209.707564 
L 135.57883 -212.558906 
L 135.149515 -213.984577 
L 135.57883 -214.391911 
L 136.008146 -214.799246 
L 136.222803 -215.613915 
L 136.222803 -216.428584 
L 135.793488 -216.937752 
L 135.364172 -217.345087 
L 135.149515 -217.956089 
L 135.149515 -218.770758 
L 135.364172 -218.974425 
L 135.793488 -219.076259 
L 136.437461 -219.279926 
L 138.369381 -221.112932 
L 139.442669 -221.723933 
L 142.018562 -222.945937 
L 142.877193 -223.556939 
L 143.306509 -224.473442 
L 143.091851 -225.899113 
L 142.877193 -226.10278 
L 142.23322 -226.306447 
L 142.018562 -226.510115 
L 142.018562 -226.713782 
L 142.018562 -227.324784 
L 141.803905 -228.241286 
L 141.803905 -228.954122 
L 141.803905 -229.565124 
L 139.442669 -231.499963 
L 138.798696 -233.740303 
L 137.725408 -235.980643 
L 133.64691 -237.813649 
L 132.144306 -238.933819 
L 130.85636 -240.257656 
L 129.783071 -241.47966 
L 127.421836 -243.108998 
L 125.060601 -246.367675 
L 123.343339 -250.237353 
L 122.914024 -252.37586 
L 122.699366 -253.190529 
L 123.128681 -253.801531 
L 123.987312 -253.903364 
L 124.631285 -253.597863 
L 125.275259 -252.274026 
L 125.919232 -252.986861 
L 126.348547 -254.005198 
L 125.919232 -254.208865 
L 126.563205 -254.412532 
L 127.207178 -254.310699 
L 127.636494 -254.107031 
L 128.495125 -254.005198 
L 129.139098 -254.310699 
L 129.353756 -255.125368 
L 129.353756 -256.041871 
L 129.783071 -256.85654 
L 131.071018 -258.689545 
L 130.212387 -261.642721 
L 127.421836 -266.632569 
L 126.563205 -268.465575 
L 127.207178 -270.29858 
L 128.280467 -272.131586 
L 128.495125 -274.168259 
L 128.495125 -275.084762 
L 128.92444 -275.59393 
L 130.212387 -276.815934 
L 131.071018 -278.037937 
L 131.071018 -279.056274 
L 130.212387 -281.19478 
L 130.212387 -282.416784 
L 130.85636 -282.925952 
L 131.500333 -283.333287 
L 132.144306 -283.944288 
L 132.358964 -284.758958 
L 132.358964 -286.490129 
L 133.002937 -289.545139 
L 132.573622 -290.97081 
L 131.500333 -291.887312 
L 129.783071 -292.498314 
L 129.783071 -292.600148 
L 129.783071 -292.701982 
L 129.997729 -293.414817 
L 130.212387 -294.025819 
L 130.212387 -294.636821 
L 129.783071 -295.145989 
L 126.563205 -296.266159 
L 125.489916 -296.469826 
L 123.128681 -296.367993 
L 121.626077 -296.062492 
L 120.767446 -295.756991 
L 120.552788 -295.247823 
L 120.338131 -294.025819 
L 120.123473 -293.516651 
L 119.694157 -293.109316 
L 116.903607 -292.192813 
L 115.830318 -291.989146 
L 114.757029 -292.09098 
L 114.542372 -292.905649 
L 114.971687 -293.516651 
L 114.542372 -294.534987 
L 114.542372 -295.349656 
L 116.903607 -295.858825 
L 117.976896 -296.266159 
L 118.620869 -296.775327 
L 118.835527 -297.386329 
L 118.406211 -298.099165 
L 117.54758 -298.099165 
L 116.044976 -297.793664 
L 115.401003 -298.099165 
L 114.757029 -298.506499 
L 114.327714 -298.913834 
L 114.327714 -299.015667 
L 114.113056 -299.423002 
L 114.542372 -301.154174 
L 114.542372 -301.561508 
L 117.54758 -301.154174 
L 119.050184 -301.256008 
L 120.123473 -301.968843 
L 120.982104 -301.459675 
L 122.055393 -301.256008 
L 123.128681 -301.561508 
L 123.343339 -302.376178 
L 122.914024 -303.598181 
L 121.840735 -303.801849 
L 119.264842 -303.190847 
L 117.54758 -303.394514 
L 116.474291 -304.616518 
L 116.474291 -306.449523 
L 117.332922 -308.180695 
L 118.835527 -306.449523 
L 119.908815 -305.940355 
L 120.982104 -306.042189 
L 121.626077 -306.755024 
L 121.840735 -307.875194 
L 121.626077 -308.893531 
L 121.411419 -309.810033 
L 120.982104 -310.421035 
L 120.552788 -310.930203 
L 120.123473 -311.541205 
L 120.123473 -312.661375 
L 121.411419 -317.345723 
L 121.411419 -318.058558 
L 121.196762 -320.502566 
L 121.196762 -321.317235 
L 121.840735 -322.233738 
L 122.484708 -323.048407 
L 122.914024 -323.455741 
L 122.914024 -323.863076 
L 122.484708 -325.08508 
L 121.840735 -326.510751 
L 121.840735 -326.918085 
L 121.840735 -327.529087 
L 122.055393 -327.834588 
L 122.055393 -328.241923 
L 121.840735 -328.852924 
L 122.914024 -329.056592 
L 123.772655 -328.852924 
L 124.416628 -329.056592 
L 124.416628 -329.260259 
L 124.631285 -330.278595 
L 124.416628 -331.500599 
L 123.987312 -331.907934 
L 123.343339 -332.009767 
L 122.484708 -332.518935 
L 122.055393 -334.04644 
L 122.27005 -338.323453 
L 122.27005 -340.360126 
L 122.699366 -341.174795 
L 122.914024 -342.193131 
L 123.128681 -343.109634 
L 124.631285 -344.229804 
L 123.343339 -345.146307 
L 122.699366 -345.451808 
L 120.123473 -345.044473 
L 119.264842 -345.044473 
L 119.908815 -346.266477 
L 119.264842 -347.18298 
L 118.191553 -348.099483 
L 117.54758 -349.219653 
L 117.54758 -349.728821 
L 117.762238 -350.339823 
L 117.762238 -351.052658 
L 117.118265 -351.66366 
L 116.688949 -351.765494 
L 116.044976 -351.561826 
L 115.401003 -351.358159 
L 114.757029 -351.154492 
L 114.327714 -351.256326 
L 112.610452 -351.867327 
L 112.610452 -351.66366 
L 112.395794 -351.256326 
L 112.181137 -350.950825 
L 111.537163 -350.848991 
L 111.537163 -351.052658 
L 108.531955 -356.755342 
L 107.458666 -357.773679 
L 104.2388 -359.708518 
L 103.809485 -360.31952 
L 103.165512 -361.643357 
L 102.736196 -362.254359 
L 102.092223 -362.55986 
L 100.160303 -363.170862 
L 99.730988 -363.578196 
L 99.301672 -363.883697 
L 98.872357 -364.189198 
L 97.58441 -364.392865 
L 96.940437 -364.596533 
L 96.081806 -364.902034 
L 95.652491 -365.309368 
L 95.008518 -366.531372 
L 95.008518 -367.855209 
L 95.437833 -369.382714 
L 95.652491 -370.197383 
L 95.867148 -372.743224 
L 96.511122 -373.76156 
L 97.369753 -374.779897 
L 98.443041 -375.6964 
L 99.087015 -376.103734 
L 99.087015 -376.81657 
L 98.872357 -377.93674 
L 98.657699 -378.547741 
L 99.945646 -384.65776 
L 100.374961 -385.166928 
L 100.804276 -385.676096 
L 101.233592 -385.981597 
L 101.662907 -386.388932 
L 101.877565 -387.203601 
L 102.092223 -389.342108 
L 101.877565 -391.175113 
L 101.018934 -392.600784 
L 99.087015 -393.31362 
L 97.799068 -393.31362 
L 95.867148 -392.804451 
L 94.79386 -392.702618 
L 93.720571 -393.008119 
L 92.432625 -393.61912 
L 91.359336 -394.535623 
z
" style="stroke: #ffffff; stroke-width: 0.6"/>
    </defs>
    <g clip-path="url(#p006512e3d3)">
     <use xlink:href="#m1e83fcb4a1" x="0" y="510.356016" style="fill: #e74c3c; stroke: #ffffff; stroke-width: 0.6"/>
    </g>
   </g>
   <g id="text_1">
    <g id="patch_2">
     <path d="M 225.726338 229.937246 
L 248.175557 229.937246 
Q 249.575557 229.937246 249.575557 228.537246 
L 249.575557 221.5367 
Q 249.575557 220.1367 248.175557 220.1367 
L 225.726338 220.1367 
Q 224.326338 220.1367 224.326338 221.5367 
L 224.326338 228.537246 
Q 224.326338 229.937246 225.726338 229.937246 
z
" clip-path="url(#p006512e3d3)" style="fill: #ffffff; opacity: 0.6"/>
    </g>
    <g clip-path="url(#p006512e3d3)">
     <!-- Benin -->
     <g style="fill: #1a252f" transform="translate(225.726338 226.855606) scale(0.07 -0.07)">
      <defs>
       <path id="DejaVuSans-Bold-25" d="M 2456 2859 
Q 2741 2859 2887 2984 
Q 3034 3109 3034 3353 
Q 3034 3594 2887 3720 
Q 2741 3847 2456 3847 
L 1791 3847 
L 1791 2859 
L 2456 2859 
z
M 2497 819 
Q 2859 819 3042 972 
Q 3225 1125 3225 1434 
Q 3225 1738 3044 1889 
Q 2863 2041 2497 2041 
L 1791 2041 
L 1791 819 
L 2497 819 
z
M 3616 2497 
Q 4003 2384 4215 2081 
Q 4428 1778 4428 1338 
Q 4428 663 3972 331 
Q 3516 0 2584 0 
L 588 0 
L 588 4666 
L 2394 4666 
Q 3366 4666 3802 4372 
Q 4238 4078 4238 3431 
Q 4238 3091 4078 2852 
Q 3919 2613 3616 2497 
z
" transform="scale(0.015625)"/>
       <path id="DejaVuSans-Bold-48" d="M 4031 1759 
L 4031 1441 
L 1416 1441 
Q 1456 1047 1700 850 
Q 1944 653 2381 653 
Q 2734 653 3104 758 
Q 3475 863 3866 1075 
L 3866 213 
Q 3469 63 3072 -14 
Q 2675 -91 2278 -91 
Q 1328 -91 801 392 
Q 275 875 275 1747 
Q 275 2603 792 3093 
Q 1309 3584 2216 3584 
Q 3041 3584 3536 3087 
Q 4031 2591 4031 1759 
z
M 2881 2131 
Q 2881 2450 2695 2645 
Q 2509 2841 2209 2841 
Q 1884 2841 1681 2658 
Q 1478 2475 1428 2131 
L 2881 2131 
z
" transform="scale(0.015625)"/>
       <path id="DejaVuSans-Bold-51" d="M 4056 2131 
L 4056 0 
L 2931 0 
L 2931 347 
L 2931 1631 
Q 2931 2084 2911 2256 
Q 2891 2428 2841 2509 
Q 2775 2619 2662 2680 
Q 2550 2741 2406 2741 
Q 2056 2741 1856 2470 
Q 1656 2200 1656 1722 
L 1656 0 
L 538 0 
L 538 3500 
L 1656 3500 
L 1656 2988 
Q 1909 3294 2193 3439 
Q 2478 3584 2822 3584 
Q 3428 3584 3742 3212 
Q 4056 2841 4056 2131 
z
" transform="scale(0.015625)"/>
       <path id="DejaVuSans-Bold-4c" d="M 538 3500 
L 1656 3500 
L 1656 0 
L 538 0 
L 538 3500 
z
M 538 4863 
L 1656 4863 
L 1656 3950 
L 538 3950 
L 538 4863 
z
" transform="scale(0.015625)"/>
      </defs>
      <use xlink:href="#DejaVuSans-Bold-25"/>
      <use xlink:href="#DejaVuSans-Bold-48" transform="translate(76.21875 0)"/>
      <use xlink:href="#DejaVuSans-Bold-51" transform="translate(144.046875 0)"/>
      <use xlink:href="#DejaVuSans-Bold-4c" transform="translate(215.234375 0)"/>
      <use xlink:href="#DejaVuSans-Bold-51" transform="translate(249.515625 0)"/>
     </g>
    </g>
   </g>
   <g id="text_2">
    <g id="patch_3">
     <path d="M 3.211888 54.121464 
L 54.251732 54.121464 
Q 55.651732 54.121464 55.651732 52.721464 
L 55.651732 45.720917 
Q 55.651732 44.320917 54.251732 44.320917 
L 3.211888 44.320917 
Q 1.811888 44.320917 1.811888 45.720917 
L 1.811888 52.721464 
Q 1.811888 54.121464 3.211888 54.121464 
z
" clip-path="url(#p006512e3d3)" style="fill: #ffffff; opacity: 0.6"/>
    </g>
    <g clip-path="url(#p006512e3d3)">
     <!-- Burkina Faso -->
     <g style="fill: #1a252f" transform="translate(3.211888 51.039824) scale(0.07 -0.07)">
      <defs>
       <path id="DejaVuSans-Bold-58" d="M 500 1363 
L 500 3500 
L 1625 3500 
L 1625 3150 
Q 1625 2866 1622 2436 
Q 1619 2006 1619 1863 
Q 1619 1441 1641 1255 
Q 1663 1069 1716 984 
Q 1784 875 1895 815 
Q 2006 756 2150 756 
Q 2500 756 2700 1025 
Q 2900 1294 2900 1772 
L 2900 3500 
L 4019 3500 
L 4019 0 
L 2900 0 
L 2900 506 
Q 2647 200 2364 54 
Q 2081 -91 1741 -91 
Q 1134 -91 817 281 
Q 500 653 500 1363 
z
" transform="scale(0.015625)"/>
       <path id="DejaVuSans-Bold-55" d="M 3138 2547 
Q 2991 2616 2845 2648 
Q 2700 2681 2553 2681 
Q 2122 2681 1889 2404 
Q 1656 2128 1656 1613 
L 1656 0 
L 538 0 
L 538 3500 
L 1656 3500 
L 1656 2925 
Q 1872 3269 2151 3426 
Q 2431 3584 2822 3584 
Q 2878 3584 2943 3579 
Q 3009 3575 3134 3559 
L 3138 2547 
z
" transform="scale(0.015625)"/>
       <path id="DejaVuSans-Bold-4e" d="M 538 4863 
L 1656 4863 
L 1656 2216 
L 2944 3500 
L 4244 3500 
L 2534 1894 
L 4378 0 
L 3022 0 
L 1656 1459 
L 1656 0 
L 538 0 
L 538 4863 
z
" transform="scale(0.015625)"/>
       <path id="DejaVuSans-Bold-44" d="M 2106 1575 
Q 1756 1575 1579 1456 
Q 1403 1338 1403 1106 
Q 1403 894 1545 773 
Q 1688 653 1941 653 
Q 2256 653 2472 879 
Q 2688 1106 2688 1447 
L 2688 1575 
L 2106 1575 
z
M 3816 1997 
L 3816 0 
L 2688 0 
L 2688 519 
Q 2463 200 2181 54 
Q 1900 -91 1497 -91 
Q 953 -91 614 226 
Q 275 544 275 1050 
Q 275 1666 698 1953 
Q 1122 2241 2028 2241 
L 2688 2241 
L 2688 2328 
Q 2688 2594 2478 2717 
Q 2269 2841 1825 2841 
Q 1466 2841 1156 2769 
Q 847 2697 581 2553 
L 581 3406 
Q 941 3494 1303 3539 
Q 1666 3584 2028 3584 
Q 2975 3584 3395 3211 
Q 3816 2838 3816 1997 
z
" transform="scale(0.015625)"/>
       <path id="DejaVuSans-Bold-3" transform="scale(0.015625)"/>
       <path id="DejaVuSans-Bold-29" d="M 588 4666 
L 3834 4666 
L 3834 3756 
L 1791 3756 
L 1791 2888 
L 3713 2888 
L 3713 1978 
L 1791 1978 
L 1791 0 
L 588 0 
L 588 4666 
z
" transform="scale(0.015625)"/>
       <path id="DejaVuSans-Bold-56" d="M 3272 3391 
L 3272 2541 
Q 2913 2691 2578 2766 
Q 2244 2841 1947 2841 
Q 1628 2841 1473 2761 
Q 1319 2681 1319 2516 
Q 1319 2381 1436 2309 
Q 1553 2238 1856 2203 
L 2053 2175 
Q 2913 2066 3209 1816 
Q 3506 1566 3506 1031 
Q 3506 472 3093 190 
Q 2681 -91 1863 -91 
Q 1516 -91 1145 -36 
Q 775 19 384 128 
L 384 978 
Q 719 816 1070 734 
Q 1422 653 1784 653 
Q 2113 653 2278 743 
Q 2444 834 2444 1013 
Q 2444 1163 2330 1236 
Q 2216 1309 1875 1350 
L 1678 1375 
Q 931 1469 631 1722 
Q 331 1975 331 2491 
Q 331 3047 712 3315 
Q 1094 3584 1881 3584 
Q 2191 3584 2531 3537 
Q 2872 3491 3272 3391 
z
" transform="scale(0.015625)"/>
       <path id="DejaVuSans-Bold-52" d="M 2203 2784 
Q 1831 2784 1636 2517 
Q 1441 2250 1441 1747 
Q 1441 1244 1636 976 
Q 1831 709 2203 709 
Q 2569 709 2762 976 
Q 2956 1244 2956 1747 
Q 2956 2250 2762 2517 
Q 2569 2784 2203 2784 
z
M 2203 3584 
Q 3106 3584 3614 3096 
Q 4122 2609 4122 1747 
Q 4122 884 3614 396 
Q 3106 -91 2203 -91 
Q 1297 -91 786 396 
Q 275 884 275 1747 
Q 275 2609 786 3096 
Q 1297 3584 2203 3584 
z
" transform="scale(0.015625)"/>
      </defs>
      <use xlink:href="#DejaVuSans-Bold-25"/>
      <use xlink:href="#DejaVuSans-Bold-58" transform="translate(76.21875 0)"/>
      <use xlink:href="#DejaVuSans-Bold-55" transform="translate(147.40625 0)"/>
      <use xlink:href="#DejaVuSans-Bold-4e" transform="translate(196.71875 0)"/>
      <use xlink:href="#DejaVuSans-Bold-4c" transform="translate(263.21875 0)"/>
      <use xlink:href="#DejaVuSans-Bold-51" transform="translate(297.5 0)"/>
      <use xlink:href="#DejaVuSans-Bold-44" transform="translate(368.6875 0)"/>
      <use xlink:href="#DejaVuSans-Bold-3" transform="translate(436.171875 0)"/>
      <use xlink:href="#DejaVuSans-Bold-29" transform="translate(470.984375 0)"/>
      <use xlink:href="#DejaVuSans-Bold-44" transform="translate(533.4375 0)"/>
      <use xlink:href="#DejaVuSans-Bold-56" transform="translate(600.921875 0)"/>
      <use xlink:href="#DejaVuSans-Bold-52" transform="translate(660.4375 0)"/>
     </g>
    </g>
   </g>
   <g id="text_3">
    <g id="patch_4">
     <path d="M 24.066882 311.709661 
L 49.226413 311.709661 
Q 50.626413 311.709661 50.626413 310.309661 
L 50.626413 303.309114 
Q 50.626413 301.909114 49.226413 301.909114 
L 24.066882 301.909114 
Q 22.666882 301.909114 22.666882 303.309114 
L 22.666882 310.309661 
Q 22.666882 311.709661 24.066882 311.709661 
z
" clip-path="url(#p006512e3d3)" style="fill: #ffffff; opacity: 0.6"/>
    </g>
    <g clip-path="url(#p006512e3d3)">
     <!-- Ghana -->
     <g style="fill: #1a252f" transform="translate(24.066882 308.62802) scale(0.07 -0.07)">
      <defs>
       <path id="DejaVuSans-Bold-2a" d="M 4781 347 
Q 4331 128 3847 18 
Q 3363 -91 2847 -91 
Q 1681 -91 1000 561 
Q 319 1213 319 2328 
Q 319 3456 1012 4103 
Q 1706 4750 2913 4750 
Q 3378 4750 3804 4662 
Q 4231 4575 4609 4403 
L 4609 3438 
Q 4219 3659 3833 3768 
Q 3447 3878 3059 3878 
Q 2341 3878 1952 3476 
Q 1563 3075 1563 2328 
Q 1563 1588 1938 1184 
Q 2313 781 3003 781 
Q 3191 781 3352 804 
Q 3513 828 3641 878 
L 3641 1784 
L 2906 1784 
L 2906 2591 
L 4781 2591 
L 4781 347 
z
" transform="scale(0.015625)"/>
       <path id="DejaVuSans-Bold-4b" d="M 4056 2131 
L 4056 0 
L 2931 0 
L 2931 347 
L 2931 1625 
Q 2931 2084 2911 2256 
Q 2891 2428 2841 2509 
Q 2775 2619 2662 2680 
Q 2550 2741 2406 2741 
Q 2056 2741 1856 2470 
Q 1656 2200 1656 1722 
L 1656 0 
L 538 0 
L 538 4863 
L 1656 4863 
L 1656 2988 
Q 1909 3294 2193 3439 
Q 2478 3584 2822 3584 
Q 3428 3584 3742 3212 
Q 4056 2841 4056 2131 
z
" transform="scale(0.015625)"/>
      </defs>
      <use xlink:href="#DejaVuSans-Bold-2a"/>
      <use xlink:href="#DejaVuSans-Bold-4b" transform="translate(82.078125 0)"/>
      <use xlink:href="#DejaVuSans-Bold-44" transform="translate(153.265625 0)"/>
      <use xlink:href="#DejaVuSans-Bold-51" transform="translate(220.75 0)"/>
      <use xlink:href="#DejaVuSans-Bold-44" transform="translate(291.9375 0)"/>
     </g>
    </g>
   </g>
   <g id="text_4">
    <!-- Togo -->
    <g style="fill: #1a252f" transform="translate(126.668908 20.116016) scale(0.17 -0.17)">
     <defs>
      <path id="DejaVuSans-Bold-37" d="M 31 4666 
L 4331 4666 
L 4331 3756 
L 2784 3756 
L 2784 0 
L 1581 0 
L 1581 3756 
L 31 3756 
L 31 4666 
z
" transform="scale(0.015625)"/>
      <path id="DejaVuSans-Bold-4a" d="M 2919 594 
Q 2688 288 2409 144 
Q 2131 0 1766 0 
Q 1125 0 706 504 
Q 288 1009 288 1791 
Q 288 2575 706 3076 
Q 1125 3578 1766 3578 
Q 2131 3578 2409 3434 
Q 2688 3291 2919 2981 
L 2919 3500 
L 4044 3500 
L 4044 353 
Q 4044 -491 3511 -936 
Q 2978 -1381 1966 -1381 
Q 1638 -1381 1331 -1331 
Q 1025 -1281 716 -1178 
L 716 -306 
Q 1009 -475 1290 -558 
Q 1572 -641 1856 -641 
Q 2406 -641 2662 -400 
Q 2919 -159 2919 353 
L 2919 594 
z
M 2181 2772 
Q 1834 2772 1640 2515 
Q 1447 2259 1447 1791 
Q 1447 1309 1634 1061 
Q 1822 813 2181 813 
Q 2531 813 2725 1069 
Q 2919 1325 2919 1791 
Q 2919 2259 2725 2515 
Q 2531 2772 2181 2772 
z
" transform="scale(0.015625)"/>
     </defs>
     <use xlink:href="#DejaVuSans-Bold-37"/>
     <use xlink:href="#DejaVuSans-Bold-52" transform="translate(54.9375 0)"/>
     <use xlink:href="#DejaVuSans-Bold-4a" transform="translate(123.640625 0)"/>
     <use xlink:href="#DejaVuSans-Bold-52" transform="translate(195.21875 0)"/>
    </g>
   </g>
   <g id="legend_1">
    <g id="patch_5">
     <path d="M 13.5 498.656016 
L 88.097344 498.656016 
Q 89.897344 498.656016 89.897344 496.856016 
L 89.897344 470.754609 
Q 89.897344 468.954609 88.097344 468.954609 
L 13.5 468.954609 
Q 11.7 468.954609 11.7 470.754609 
L 11.7 496.856016 
Q 11.7 498.656016 13.5 498.656016 
z
" style="fill: #ffffff; opacity: 0.85; stroke: #cccccc; stroke-linejoin: miter"/>
    </g>
    <g id="patch_6">
     <path d="M 15.3 479.393203 
L 33.3 479.393203 
L 33.3 473.093203 
L 15.3 473.093203 
z
" style="fill: #e74c3c; stroke: #888888; stroke-linejoin: miter"/>
    </g>
    <g id="text_5">
     <!-- Togo -->
     <g transform="translate(40.5 479.393203) scale(0.09 -0.09)">
      <defs>
       <path id="DejaVuSans-37" d="M -19 4666 
L 3928 4666 
L 3928 4134 
L 2272 4134 
L 2272 0 
L 1638 0 
L 1638 4134 
L -19 4134 
L -19 4666 
z
" transform="scale(0.015625)"/>
       <path id="DejaVuSans-52" d="M 1959 3097 
Q 1497 3097 1228 2736 
Q 959 2375 959 1747 
Q 959 1119 1226 758 
Q 1494 397 1959 397 
Q 2419 397 2687 759 
Q 2956 1122 2956 1747 
Q 2956 2369 2687 2733 
Q 2419 3097 1959 3097 
z
M 1959 3584 
Q 2709 3584 3137 3096 
Q 3566 2609 3566 1747 
Q 3566 888 3137 398 
Q 2709 -91 1959 -91 
Q 1206 -91 779 398 
Q 353 888 353 1747 
Q 353 2609 779 3096 
Q 1206 3584 1959 3584 
z
" transform="scale(0.015625)"/>
       <path id="DejaVuSans-4a" d="M 2906 1791 
Q 2906 2416 2648 2759 
Q 2391 3103 1925 3103 
Q 1463 3103 1205 2759 
Q 947 2416 947 1791 
Q 947 1169 1205 825 
Q 1463 481 1925 481 
Q 2391 481 2648 825 
Q 2906 1169 2906 1791 
z
M 3481 434 
Q 3481 -459 3084 -895 
Q 2688 -1331 1869 -1331 
Q 1566 -1331 1297 -1286 
Q 1028 -1241 775 -1147 
L 775 -588 
Q 1028 -725 1275 -790 
Q 1522 -856 1778 -856 
Q 2344 -856 2625 -561 
Q 2906 -266 2906 331 
L 2906 616 
Q 2728 306 2450 153 
Q 2172 0 1784 0 
Q 1141 0 747 490 
Q 353 981 353 1791 
Q 353 2603 747 3093 
Q 1141 3584 1784 3584 
Q 2172 3584 2450 3431 
Q 2728 3278 2906 2969 
L 2906 3500 
L 3481 3500 
L 3481 434 
z
" transform="scale(0.015625)"/>
      </defs>
      <use xlink:href="#DejaVuSans-37"/>
      <use xlink:href="#DejaVuSans-52" transform="translate(44.09375 0)"/>
      <use xlink:href="#DejaVuSans-4a" transform="translate(105.28125 0)"/>
      <use xlink:href="#DejaVuSans-52" transform="translate(168.765625 0)"/>
     </g>
    </g>
    <g id="patch_7">
     <path d="M 15.3 492.893906 
L 33.3 492.893906 
L 33.3 486.593906 
L 15.3 486.593906 
z
" style="fill: #bdc3c7; stroke: #888888; stroke-linejoin: miter"/>
    </g>
    <g id="text_6">
     <!-- Neighbors -->
     <g transform="translate(40.5 492.893906) scale(0.09 -0.09)">
      <defs>
       <path id="DejaVuSans-31" d="M 628 4666 
L 1478 4666 
L 3547 763 
L 3547 4666 
L 4159 4666 
L 4159 0 
L 3309 0 
L 1241 3903 
L 1241 0 
L 628 0 
L 628 4666 
z
" transform="scale(0.015625)"/>
       <path id="DejaVuSans-48" d="M 3597 1894 
L 3597 1613 
L 953 1613 
Q 991 1019 1311 708 
Q 1631 397 2203 397 
Q 2534 397 2845 478 
Q 3156 559 3463 722 
L 3463 178 
Q 3153 47 2828 -22 
Q 2503 -91 2169 -91 
Q 1331 -91 842 396 
Q 353 884 353 1716 
Q 353 2575 817 3079 
Q 1281 3584 2069 3584 
Q 2775 3584 3186 3129 
Q 3597 2675 3597 1894 
z
M 3022 2063 
Q 3016 2534 2758 2815 
Q 2500 3097 2075 3097 
Q 1594 3097 1305 2825 
Q 1016 2553 972 2059 
L 3022 2063 
z
" transform="scale(0.015625)"/>
       <path id="DejaVuSans-4c" d="M 603 3500 
L 1178 3500 
L 1178 0 
L 603 0 
L 603 3500 
z
M 603 4863 
L 1178 4863 
L 1178 4134 
L 603 4134 
L 603 4863 
z
" transform="scale(0.015625)"/>
       <path id="DejaVuSans-4b" d="M 3513 2113 
L 3513 0 
L 2938 0 
L 2938 2094 
Q 2938 2591 2744 2837 
Q 2550 3084 2163 3084 
Q 1697 3084 1428 2787 
Q 1159 2491 1159 1978 
L 1159 0 
L 581 0 
L 581 4863 
L 1159 4863 
L 1159 2956 
Q 1366 3272 1645 3428 
Q 1925 3584 2291 3584 
Q 2894 3584 3203 3211 
Q 3513 2838 3513 2113 
z
" transform="scale(0.015625)"/>
       <path id="DejaVuSans-45" d="M 3116 1747 
Q 3116 2381 2855 2742 
Q 2594 3103 2138 3103 
Q 1681 3103 1420 2742 
Q 1159 2381 1159 1747 
Q 1159 1113 1420 752 
Q 1681 391 2138 391 
Q 2594 391 2855 752 
Q 3116 1113 3116 1747 
z
M 1159 2969 
Q 1341 3281 1617 3432 
Q 1894 3584 2278 3584 
Q 2916 3584 3314 3078 
Q 3713 2572 3713 1747 
Q 3713 922 3314 415 
Q 2916 -91 2278 -91 
Q 1894 -91 1617 61 
Q 1341 213 1159 525 
L 1159 0 
L 581 0 
L 581 4863 
L 1159 4863 
L 1159 2969 
z
" transform="scale(0.015625)"/>
       <path id="DejaVuSans-55" d="M 2631 2963 
Q 2534 3019 2420 3045 
Q 2306 3072 2169 3072 
Q 1681 3072 1420 2755 
Q 1159 2438 1159 1844 
L 1159 0 
L 581 0 
L 581 3500 
L 1159 3500 
L 1159 2956 
Q 1341 3275 1631 3429 
Q 1922 3584 2338 3584 
Q 2397 3584 2469 3576 
Q 2541 3569 2628 3553 
L 2631 2963 
z
" transform="scale(0.015625)"/>
       <path id="DejaVuSans-56" d="M 2834 3397 
L 2834 2853 
Q 2591 2978 2328 3040 
Q 2066 3103 1784 3103 
Q 1356 3103 1142 2972 
Q 928 2841 928 2578 
Q 928 2378 1081 2264 
Q 1234 2150 1697 2047 
L 1894 2003 
Q 2506 1872 2764 1633 
Q 3022 1394 3022 966 
Q 3022 478 2636 193 
Q 2250 -91 1575 -91 
Q 1294 -91 989 -36 
Q 684 19 347 128 
L 347 722 
Q 666 556 975 473 
Q 1284 391 1588 391 
Q 1994 391 2212 530 
Q 2431 669 2431 922 
Q 2431 1156 2273 1281 
Q 2116 1406 1581 1522 
L 1381 1569 
Q 847 1681 609 1914 
Q 372 2147 372 2553 
Q 372 3047 722 3315 
Q 1072 3584 1716 3584 
Q 2034 3584 2315 3537 
Q 2597 3491 2834 3397 
z
" transform="scale(0.015625)"/>
      </defs>
      <use xlink:href="#DejaVuSans-31"/>
      <use xlink:href="#DejaVuSans-48" transform="translate(74.8125 0)"/>
      <use xlink:href="#DejaVuSans-4c" transform="translate(136.34375 0)"/>
      <use xlink:href="#DejaVuSans-4a" transform="translate(164.125 0)"/>
      <use xlink:href="#DejaVuSans-4b" transform="translate(227.609375 0)"/>
      <use xlink:href="#DejaVuSans-45" transform="translate(290.984375 0)"/>
      <use xlink:href="#DejaVuSans-52" transform="translate(354.46875 0)"/>
      <use xlink:href="#DejaVuSans-55" transform="translate(415.65625 0)"/>
      <use xlink:href="#DejaVuSans-56" transform="translate(456.765625 0)"/>
     </g>
    </g>
   </g>
  </g>
 </g>
 <defs>
  <clipPath id="p006512e3d3">
   <rect x="7.2" y="30.116016" width="283.804535" height="473.04"/>
  </clipPath>
 </defs>
</svg>
