<?xml version="1.0" encoding="utf-8" standalone="no"?>
<!DOCTYPE svg PUBLIC "-//W3C//DTD SVG 1.1//EN"
  "http://www.w3.org/Graphics/SVG/1.1/DTD/svg11.dtd">
<svg xmlns:xlink="http://www.w3.org/1999/xlink" width="261.698113pt" height="510.356016pt" viewBox="0 0 261.698113 510.356016" xmlns="http://www.w3.org/2000/svg" version="1.1">
 <metadata>
  <rdf:RDF xmlns:dc="http://purl.org/dc/elements/1.1/" xmlns:cc="http://creativecommons.org/ns#" xmlns:rdf="http://www.w3.org/1999/02/22-rdf-syntax-ns#">
   <cc:Work>
    <dc:type rdf:resource="http://purl.org/dc/dcmitype/StillImage"/>
    <dc:date>2026-06-19T08:14:17.952256</dc:date>
    <dc:format>image/svg+xml</dc:format>
    <dc:creator>
     <cc:Agent>
      <dc:title>Matplotlib v3.11.0, https://matplotlib.org/</dc:title>
     </cc:Agent>
    </dc:creator>
   </cc:Work>
  </rdf:RDF>
 </metadata>
 <defs>
  <style type="text/css">*{stroke-linejoin: round; stroke-linecap: butt}</style>
 </defs>
 <g id="figure_1">
  <g id="patch_1">
   <path d="M 0 510.356016 
L 261.698113 510.356016 
L 261.698113 -0 
L 0 -0 
z
" style="fill: #d6eaf8"/>
  </g>
  <g id="axes_1">
   <g id="PatchCollection_1">
    <path d="M 117.650478 368.928642 
L 117.972395 367.811126 
L 119.099103 366.933078 
L 120.22581 366.533965 
L 119.581977 367.172546 
L 118.938144 367.811126 
L 118.616228 368.449707 
L 119.260061 369.088288 
L 119.742936 369.327755 
L 120.22581 369.327755 
L 122.640185 368.84882 
L 123.123059 368.928642 
L 123.444976 369.16811 
L 123.766892 369.407578 
L 124.088809 369.726868 
L 124.249767 370.205804 
L 123.605934 370.684739 
L 123.284018 371.083852 
L 123.444976 371.562787 
L 123.927851 371.722432 
L 124.410726 371.562787 
L 124.732642 371.243497 
L 125.215517 371.004029 
L 125.85935 371.163674 
L 126.664141 371.562787 
L 126.986058 371.722432 
L 127.629891 371.562787 
L 127.951808 371.004029 
L 128.112766 370.365449 
L 128.756599 369.726868 
L 129.239474 369.567223 
L 129.883307 369.407578 
L 130.366182 369.327755 
L 131.010015 369.407578 
L 131.49289 369.806691 
L 131.653848 370.125981 
L 131.49289 370.924207 
L 131.170973 371.32332 
L 128.595641 373.159239 
L 128.434682 373.558352 
L 128.595641 374.11711 
L 128.756599 374.596045 
L 128.756599 375.07498 
L 128.595641 375.633738 
L 128.273724 375.953029 
L 127.790849 376.112674 
L 127.307974 376.272319 
L 126.342225 376.032851 
L 125.85935 375.633738 
L 125.054559 374.276755 
L 124.571684 373.717997 
L 122.318268 372.680303 
L 121.996351 372.999594 
L 120.869644 372.361013 
L 120.22581 372.121545 
L 119.742936 372.041723 
L 119.260061 371.802255 
L 118.294311 370.205804 
z
" clip-path="url(#pd5aadc765a)" style="fill: #e74c3c; stroke: #ffffff; stroke-width: 0.6"/>
    <path d="M 175.434498 251.749106 
L 176.239289 251.030703 
L 177.526955 250.3123 
L 178.170788 249.035138 
L 178.492705 248.715848 
L 179.136538 248.556203 
L 179.941329 248.47638 
L 180.585163 248.556203 
L 181.228996 248.795671 
L 181.550912 249.114961 
L 181.872829 249.514074 
L 182.355704 249.913187 
L 182.355704 250.392122 
L 182.355704 251.349993 
L 182.033787 251.828928 
L 181.228996 250.871058 
L 180.746121 251.110525 
L 180.424204 251.349993 
L 180.424204 251.749106 
L 180.907079 252.148219 
L 180.585163 252.627154 
L 180.263246 253.10609 
L 179.619413 252.946444 
L 179.297496 253.505202 
L 178.97558 254.303428 
L 178.97558 255.101654 
L 178.492705 254.782364 
L 178.170788 254.223606 
L 177.848872 253.10609 
L 178.492705 252.866622 
L 178.653663 252.307864 
L 178.331747 251.749106 
L 178.170788 251.509638 
L 177.526955 251.988574 
L 177.526955 252.627154 
L 177.205039 253.10609 
L 176.561206 252.786799 
L 176.561206 253.026267 
L 176.400247 253.10609 
L 176.239289 253.10609 
L 175.917373 253.10609 
z
" clip-path="url(#pd5aadc765a)" style="fill: #e74c3c; stroke: #ffffff; stroke-width: 0.6"/>
    <path d="M 134.551097 382.338835 
L 134.551097 382.019544 
L 134.873013 381.939722 
L 135.19493 381.700254 
L 135.033972 381.221319 
L 134.873013 380.582738 
L 135.19493 380.02398 
L 135.999721 379.624867 
L 136.321638 379.305577 
L 136.804513 378.507351 
L 136.804513 378.188061 
L 137.126429 377.469658 
L 137.609304 376.990722 
L 137.770262 377.389835 
L 137.93122 379.145932 
L 137.93122 379.864335 
L 137.770262 381.620431 
L 137.770262 384.573867 
L 137.448346 385.052802 
L 136.804513 384.653689 
L 136.482596 383.935286 
L 135.838763 383.296705 
z
" clip-path="url(#pd5aadc765a)" style="fill: #e74c3c; stroke: #ffffff; stroke-width: 0.6"/>
    <path d="M 129.400432 304.432004 
L 129.400432 304.032891 
L 129.56139 303.07502 
L 129.883307 302.675907 
L 130.205223 302.675907 
L 130.849056 302.675907 
L 131.49289 303.234665 
L 131.814806 304.511826 
L 131.814806 305.948633 
L 131.170973 306.906503 
L 131.170973 306.587213 
L 131.010015 306.906503 
L 130.688098 306.667036 
L 130.52714 306.507391 
L 130.044265 306.267923 
L 130.044265 306.108278 
L 130.044265 305.948633 
z
" clip-path="url(#pd5aadc765a)" style="fill: #e74c3c; stroke: #ffffff; stroke-width: 0.6"/>
    <path d="M 162.396878 306.906503 
L 163.040711 306.667036 
L 163.523586 306.267923 
L 163.845502 305.629342 
L 164.006461 304.910939 
L 164.328377 304.990762 
L 164.811252 305.150407 
L 164.97221 305.310052 
L 164.489335 306.108278 
L 164.489335 307.066149 
L 164.328377 307.784552 
L 163.362627 307.864374 
L 163.040711 307.704729 
L 162.879753 307.465262 
L 162.557836 307.225794 
z
" clip-path="url(#pd5aadc765a)" style="fill: #e74c3c; stroke: #ffffff; stroke-width: 0.6"/>
    <path d="M 164.97221 303.713601 
L 165.777002 303.234665 
L 166.098918 302.596085 
L 166.581793 301.957504 
L 167.064668 301.398746 
L 167.386584 302.117149 
L 167.225626 302.675907 
L 166.903709 303.234665 
L 166.742751 303.873246 
L 166.420835 304.432004 
L 165.777002 304.511826 
L 165.133168 304.192536 
z
" clip-path="url(#pd5aadc765a)" style="fill: #e74c3c; stroke: #ffffff; stroke-width: 0.6"/>
    <path d="M 165.455085 297.008504 
L 166.098918 297.16815 
L 166.420835 297.567263 
L 166.581793 298.604956 
L 166.903709 298.844424 
L 167.547543 299.083891 
L 167.708501 299.562827 
L 167.386584 299.96194 
L 166.742751 299.802295 
L 166.259876 299.083891 
L 165.777002 297.886553 
z
" clip-path="url(#pd5aadc765a)" style="fill: #e74c3c; stroke: #ffffff; stroke-width: 0.6"/>
    <path d="M 79.342409 426.400895 
L 79.342409 426.161427 
L 79.664326 426.161427 
L 79.986242 426.321072 
L 80.308159 426.56054 
L 80.147201 426.720185 
L 79.986242 426.87983 
L 79.825284 426.87983 
L 79.503368 426.720185 
z
" clip-path="url(#pd5aadc765a)" style="fill: #e74c3c; stroke: #ffffff; stroke-width: 0.6"/>
    <path d="M 148.876383 259.651541 
L 149.037341 258.933137 
L 149.520216 258.613847 
L 150.325007 258.853315 
L 150.646924 259.491895 
L 150.485966 259.970831 
L 150.003091 260.369944 
L 149.359258 260.369944 
z
" clip-path="url(#pd5aadc765a)" style="fill: #e74c3c; stroke: #ffffff; stroke-width: 0.6"/>
    <path d="M 103.164234 108.387765 
L 103.325192 107.429895 
L 104.129983 106.711491 
L 105.739566 106.392201 
L 106.544357 107.030782 
L 106.222441 108.387765 
L 105.256691 109.425459 
L 103.969025 109.345636 
z
" clip-path="url(#pd5aadc765a)" style="fill: #e74c3c; stroke: #ffffff; stroke-width: 0.6"/>
   </g>
   <g id="text_1">
    <!-- Tonga -->
    <g style="fill: #1a252f" transform="translate(102.468353 20.116016) scale(0.17 -0.17)">
     <defs>
      <path id="DejaVuSans-Bold-37" d="M 31 4666 
L 4331 4666 
L 4331 3756 
L 2784 3756 
L 2784 0 
L 1581 0 
L 1581 3756 
L 31 3756 
L 31 4666 
z
" transform="scale(0.015625)"/>
      <path id="DejaVuSans-Bold-52" d="M 2203 2784 
Q 1831 2784 1636 2517 
Q 1441 2250 1441 1747 
Q 1441 1244 1636 976 
Q 1831 709 2203 709 
Q 2569 709 2762 976 
Q 2956 1244 2956 1747 
Q 2956 2250 2762 2517 
Q 2569 2784 2203 2784 
z
M 2203 3584 
Q 3106 3584 3614 3096 
Q 4122 2609 4122 1747 
Q 4122 884 3614 396 
Q 3106 -91 2203 -91 
Q 1297 -91 786 396 
Q 275 884 275 1747 
Q 275 2609 786 3096 
Q 1297 3584 2203 3584 
z
" transform="scale(0.015625)"/>
      <path id="DejaVuSans-Bold-51" d="M 4056 2131 
L 4056 0 
L 2931 0 
L 2931 347 
L 2931 1631 
Q 2931 2084 2911 2256 
Q 2891 2428 2841 2509 
Q 2775 2619 2662 2680 
Q 2550 2741 2406 2741 
Q 2056 2741 1856 2470 
Q 1656 2200 1656 1722 
L 1656 0 
L 538 0 
L 538 3500 
L 1656 3500 
L 1656 2988 
Q 1909 3294 2193 3439 
Q 2478 3584 2822 3584 
Q 3428 3584 3742 3212 
Q 4056 2841 4056 2131 
z
" transform="scale(0.015625)"/>
      <path id="DejaVuSans-Bold-4a" d="M 2919 594 
Q 2688 288 2409 144 
Q 2131 0 1766 0 
Q 1125 0 706 504 
Q 288 1009 288 1791 
Q 288 2575 706 3076 
Q 1125 3578 1766 3578 
Q 2131 3578 2409 3434 
Q 2688 3291 2919 2981 
L 2919 3500 
L 4044 3500 
L 4044 353 
Q 4044 -491 3511 -936 
Q 2978 -1381 1966 -1381 
Q 1638 -1381 1331 -1331 
Q 1025 -1281 716 -1178 
L 716 -306 
Q 1009 -475 1290 -558 
Q 1572 -641 1856 -641 
Q 2406 -641 2662 -400 
Q 2919 -159 2919 353 
L 2919 594 
z
M 2181 2772 
Q 1834 2772 1640 2515 
Q 1447 2259 1447 1791 
Q 1447 1309 1634 1061 
Q 1822 813 2181 813 
Q 2531 813 2725 1069 
Q 2919 1325 2919 1791 
Q 2919 2259 2725 2515 
Q 2531 2772 2181 2772 
z
" transform="scale(0.015625)"/>
      <path id="DejaVuSans-Bold-44" d="M 2106 1575 
Q 1756 1575 1579 1456 
Q 1403 1338 1403 1106 
Q 1403 894 1545 773 
Q 1688 653 1941 653 
Q 2256 653 2472 879 
Q 2688 1106 2688 1447 
L 2688 1575 
L 2106 1575 
z
M 3816 1997 
L 3816 0 
L 2688 0 
L 2688 519 
Q 2463 200 2181 54 
Q 1900 -91 1497 -91 
Q 953 -91 614 226 
Q 275 544 275 1050 
Q 275 1666 698 1953 
Q 1122 2241 2028 2241 
L 2688 2241 
L 2688 2328 
Q 2688 2594 2478 2717 
Q 2269 2841 1825 2841 
Q 1466 2841 1156 2769 
Q 847 2697 581 2553 
L 581 3406 
Q 941 3494 1303 3539 
Q 1666 3584 2028 3584 
Q 2975 3584 3395 3211 
Q 3816 2838 3816 1997 
z
" transform="scale(0.015625)"/>
     </defs>
     <use xlink:href="#DejaVuSans-Bold-37"/>
     <use xlink:href="#DejaVuSans-Bold-52" transform="translate(54.9375 0)"/>
     <use xlink:href="#DejaVuSans-Bold-51" transform="translate(123.640625 0)"/>
     <use xlink:href="#DejaVuSans-Bold-4a" transform="translate(194.828125 0)"/>
     <use xlink:href="#DejaVuSans-Bold-44" transform="translate(266.40625 0)"/>
    </g>
   </g>
   <g id="legend_1">
    <g id="patch_2">
     <path d="M 13.5 498.656016 
L 88.097344 498.656016 
Q 89.897344 498.656016 89.897344 496.856016 
L 89.897344 470.754609 
Q 89.897344 468.954609 88.097344 468.954609 
L 13.5 468.954609 
Q 11.7 468.954609 11.7 470.754609 
L 11.7 496.856016 
Q 11.7 498.656016 13.5 498.656016 
z
" style="fill: #ffffff; opacity: 0.85; stroke: #cccccc; stroke-linejoin: miter"/>
    </g>
    <g id="patch_3">
     <path d="M 15.3 479.393203 
L 33.3 479.393203 
L 33.3 473.093203 
L 15.3 473.093203 
z
" style="fill: #e74c3c; stroke: #888888; stroke-linejoin: miter"/>
    </g>
    <g id="text_2">
     <!-- Tonga -->
     <g transform="translate(40.5 479.393203) scale(0.09 -0.09)">
      <defs>
       <path id="DejaVuSans-37" d="M -19 4666 
L 3928 4666 
L 3928 4134 
L 2272 4134 
L 2272 0 
L 1638 0 
L 1638 4134 
L -19 4134 
L -19 4666 
z
" transform="scale(0.015625)"/>
       <path id="DejaVuSans-52" d="M 1959 3097 
Q 1497 3097 1228 2736 
Q 959 2375 959 1747 
Q 959 1119 1226 758 
Q 1494 397 1959 397 
Q 2419 397 2687 759 
Q 2956 1122 2956 1747 
Q 2956 2369 2687 2733 
Q 2419 3097 1959 3097 
z
M 1959 3584 
Q 2709 3584 3137 3096 
Q 3566 2609 3566 1747 
Q 3566 888 3137 398 
Q 2709 -91 1959 -91 
Q 1206 -91 779 398 
Q 353 888 353 1747 
Q 353 2609 779 3096 
Q 1206 3584 1959 3584 
z
" transform="scale(0.015625)"/>
       <path id="DejaVuSans-51" d="M 3513 2113 
L 3513 0 
L 2938 0 
L 2938 2094 
Q 2938 2591 2744 2837 
Q 2550 3084 2163 3084 
Q 1697 3084 1428 2787 
Q 1159 2491 1159 1978 
L 1159 0 
L 581 0 
L 581 3500 
L 1159 3500 
L 1159 2956 
Q 1366 3272 1645 3428 
Q 1925 3584 2291 3584 
Q 2894 3584 3203 3211 
Q 3513 2838 3513 2113 
z
" transform="scale(0.015625)"/>
       <path id="DejaVuSans-4a" d="M 2906 1791 
Q 2906 2416 2648 2759 
Q 2391 3103 1925 3103 
Q 1463 3103 1205 2759 
Q 947 2416 947 1791 
Q 947 1169 1205 825 
Q 1463 481 1925 481 
Q 2391 481 2648 825 
Q 2906 1169 2906 1791 
z
M 3481 434 
Q 3481 -459 3084 -895 
Q 2688 -1331 1869 -1331 
Q 1566 -1331 1297 -1286 
Q 1028 -1241 775 -1147 
L 775 -588 
Q 1028 -725 1275 -790 
Q 1522 -856 1778 -856 
Q 2344 -856 2625 -561 
Q 2906 -266 2906 331 
L 2906 616 
Q 2728 306 2450 153 
Q 2172 0 1784 0 
Q 1141 0 747 490 
Q 353 981 353 1791 
Q 353 2603 747 3093 
Q 1141 3584 1784 3584 
Q 2172 3584 2450 3431 
Q 2728 3278 2906 2969 
L 2906 3500 
L 3481 3500 
L 3481 434 
z
" transform="scale(0.015625)"/>
       <path id="DejaVuSans-44" d="M 2194 1759 
Q 1497 1759 1228 1600 
Q 959 1441 959 1056 
Q 959 750 1161 570 
Q 1363 391 1709 391 
Q 2188 391 2477 730 
Q 2766 1069 2766 1631 
L 2766 1759 
L 2194 1759 
z
M 3341 1997 
L 3341 0 
L 2766 0 
L 2766 531 
Q 2569 213 2275 61 
Q 1981 -91 1556 -91 
Q 1019 -91 701 211 
Q 384 513 384 1019 
Q 384 1609 779 1909 
Q 1175 2209 1959 2209 
L 2766 2209 
L 2766 2266 
Q 2766 2663 2505 2880 
Q 2244 3097 1772 3097 
Q 1472 3097 1187 3025 
Q 903 2953 641 2809 
L 641 3341 
Q 956 3463 1253 3523 
Q 1550 3584 1831 3584 
Q 2591 3584 2966 3190 
Q 3341 2797 3341 1997 
z
" transform="scale(0.015625)"/>
      </defs>
      <use xlink:href="#DejaVuSans-37"/>
      <use xlink:href="#DejaVuSans-52" transform="translate(44.09375 0)"/>
      <use xlink:href="#DejaVuSans-51" transform="translate(105.28125 0)"/>
      <use xlink:href="#DejaVuSans-4a" transform="translate(168.65625 0)"/>
      <use xlink:href="#DejaVuSans-44" transform="translate(232.140625 0)"/>
     </g>
    </g>
    <g id="patch_4">
     <path d="M 15.3 492.893906 
L 33.3 492.893906 
L 33.3 486.593906 
L 15.3 486.593906 
z
" style="fill: #bdc3c7; stroke: #888888; stroke-linejoin: miter"/>
    </g>
    <g id="text_3">
     <!-- Neighbors -->
     <g transform="translate(40.5 492.893906) scale(0.09 -0.09)">
      <defs>
       <path id="DejaVuSans-31" d="M 628 4666 
L 1478 4666 
L 3547 763 
L 3547 4666 
L 4159 4666 
L 4159 0 
L 3309 0 
L 1241 3903 
L 1241 0 
L 628 0 
L 628 4666 
z
" transform="scale(0.015625)"/>
       <path id="DejaVuSans-48" d="M 3597 1894 
L 3597 1613 
L 953 1613 
Q 991 1019 1311 708 
Q 1631 397 2203 397 
Q 2534 397 2845 478 
Q 3156 559 3463 722 
L 3463 178 
Q 3153 47 2828 -22 
Q 2503 -91 2169 -91 
Q 1331 -91 842 396 
Q 353 884 353 1716 
Q 353 2575 817 3079 
Q 1281 3584 2069 3584 
Q 2775 3584 3186 3129 
Q 3597 2675 3597 1894 
z
M 3022 2063 
Q 3016 2534 2758 2815 
Q 2500 3097 2075 3097 
Q 1594 3097 1305 2825 
Q 1016 2553 972 2059 
L 3022 2063 
z
" transform="scale(0.015625)"/>
       <path id="DejaVuSans-4c" d="M 603 3500 
L 1178 3500 
L 1178 0 
L 603 0 
L 603 3500 
z
M 603 4863 
L 1178 4863 
L 1178 4134 
L 603 4134 
L 603 4863 
z
" transform="scale(0.015625)"/>
       <path id="DejaVuSans-4b" d="M 3513 2113 
L 3513 0 
L 2938 0 
L 2938 2094 
Q 2938 2591 2744 2837 
Q 2550 3084 2163 3084 
Q 1697 3084 1428 2787 
Q 1159 2491 1159 1978 
L 1159 0 
L 581 0 
L 581 4863 
L 1159 4863 
L 1159 2956 
Q 1366 3272 1645 3428 
Q 1925 3584 2291 3584 
Q 2894 3584 3203 3211 
Q 3513 2838 3513 2113 
z
" transform="scale(0.015625)"/>
       <path id="DejaVuSans-45" d="M 3116 1747 
Q 3116 2381 2855 2742 
Q 2594 3103 2138 3103 
Q 1681 3103 1420 2742 
Q 1159 2381 1159 1747 
Q 1159 1113 1420 752 
Q 1681 391 2138 391 
Q 2594 391 2855 752 
Q 3116 1113 3116 1747 
z
M 1159 2969 
Q 1341 3281 1617 3432 
Q 1894 3584 2278 3584 
Q 2916 3584 3314 3078 
Q 3713 2572 3713 1747 
Q 3713 922 3314 415 
Q 2916 -91 2278 -91 
Q 1894 -91 1617 61 
Q 1341 213 1159 525 
L 1159 0 
L 581 0 
L 581 4863 
L 1159 4863 
L 1159 2969 
z
" transform="scale(0.015625)"/>
       <path id="DejaVuSans-55" d="M 2631 2963 
Q 2534 3019 2420 3045 
Q 2306 3072 2169 3072 
Q 1681 3072 1420 2755 
Q 1159 2438 1159 1844 
L 1159 0 
L 581 0 
L 581 3500 
L 1159 3500 
L 1159 2956 
Q 1341 3275 1631 3429 
Q 1922 3584 2338 3584 
Q 2397 3584 2469 3576 
Q 2541 3569 2628 3553 
L 2631 2963 
z
" transform="scale(0.015625)"/>
       <path id="DejaVuSans-56" d="M 2834 3397 
L 2834 2853 
Q 2591 2978 2328 3040 
Q 2066 3103 1784 3103 
Q 1356 3103 1142 2972 
Q 928 2841 928 2578 
Q 928 2378 1081 2264 
Q 1234 2150 1697 2047 
L 1894 2003 
Q 2506 1872 2764 1633 
Q 3022 1394 3022 966 
Q 3022 478 2636 193 
Q 2250 -91 1575 -91 
Q 1294 -91 989 -36 
Q 684 19 347 128 
L 347 722 
Q 666 556 975 473 
Q 1284 391 1588 391 
Q 1994 391 2212 530 
Q 2431 669 2431 922 
Q 2431 1156 2273 1281 
Q 2116 1406 1581 1522 
L 1381 1569 
Q 847 1681 609 1914 
Q 372 2147 372 2553 
Q 372 3047 722 3315 
Q 1072 3584 1716 3584 
Q 2034 3584 2315 3537 
Q 2597 3491 2834 3397 
z
" transform="scale(0.015625)"/>
      </defs>
      <use xlink:href="#DejaVuSans-31"/>
      <use xlink:href="#DejaVuSans-48" transform="translate(74.8125 0)"/>
      <use xlink:href="#DejaVuSans-4c" transform="translate(136.34375 0)"/>
      <use xlink:href="#DejaVuSans-4a" transform="translate(164.125 0)"/>
      <use xlink:href="#DejaVuSans-4b" transform="translate(227.609375 0)"/>
      <use xlink:href="#DejaVuSans-45" transform="translate(290.984375 0)"/>
      <use xlink:href="#DejaVuSans-52" transform="translate(354.46875 0)"/>
      <use xlink:href="#DejaVuSans-55" transform="translate(415.65625 0)"/>
      <use xlink:href="#DejaVuSans-56" transform="translate(456.765625 0)"/>
     </g>
    </g>
   </g>
  </g>
 </g>
 <defs>
  <clipPath id="pd5aadc765a">
   <rect x="7.2" y="30.116016" width="247.298113" height="473.04"/>
  </clipPath>
 </defs>
</svg>
