<?xml version="1.0" encoding="utf-8" standalone="no"?>
<!DOCTYPE svg PUBLIC "-//W3C//DTD SVG 1.1//EN"
  "http://www.w3.org/Graphics/SVG/1.1/DTD/svg11.dtd">
<svg xmlns:xlink="http://www.w3.org/1999/xlink" width="293.276882pt" height="510.357344pt" viewBox="0 0 293.276882 510.357344" xmlns="http://www.w3.org/2000/svg" version="1.1">
 <metadata>
  <rdf:RDF xmlns:dc="http://purl.org/dc/elements/1.1/" xmlns:cc="http://creativecommons.org/ns#" xmlns:rdf="http://www.w3.org/1999/02/22-rdf-syntax-ns#">
   <cc:Work>
    <dc:type rdf:resource="http://purl.org/dc/dcmitype/StillImage"/>
    <dc:date>2026-06-19T08:36:17.305433</dc:date>
    <dc:format>image/svg+xml</dc:format>
    <dc:creator>
     <cc:Agent>
      <dc:title>Matplotlib v3.11.0, https://matplotlib.org/</dc:title>
     </cc:Agent>
    </dc:creator>
   </cc:Work>
  </rdf:RDF>
 </metadata>
 <defs>
  <style type="text/css">*{stroke-linejoin: round; stroke-linecap: butt}</style>
 </defs>
 <g id="figure_1">
  <g id="patch_1">
   <path d="M 0 510.357344 
L 293.276882 510.357344 
L 293.276882 0 
L 0 0 
z
" style="fill: #d6eaf8"/>
  </g>
  <g id="axes_1">
   <g id="PatchCollection_1">
    <path d="M 137.744527 433.234635 
L 146.570548 428.100312 
L 154.989215 423.50241 
L 156.075495 423.195884 
L 158.791194 422.965989 
L 159.877474 422.429567 
L 164.494162 416.069137 
L 168.431925 409.40218 
L 171.962334 405.3407 
L 174.270678 400.283009 
L 174.813818 398.443848 
L 174.813818 396.987846 
L 173.863323 393.769315 
L 173.727538 392.16005 
L 173.999108 390.397521 
L 173.863323 389.554572 
L 172.641259 387.025727 
L 171.554979 382.19793 
L 168.703495 374.45813 
L 168.703495 373.691813 
L 169.11085 370.703177 
L 169.65399 369.630333 
L 172.098119 366.871592 
L 174.678033 362.273691 
L 176.579022 360.664426 
L 180.788356 360.664426 
L 182.82513 359.898109 
L 183.504055 359.361687 
L 184.047195 358.748633 
L 184.45455 358.058948 
L 185.133474 356.526315 
L 186.762894 354.993681 
L 187.170249 353.461047 
L 187.577603 349.859358 
L 188.392313 348.939777 
L 189.071238 349.016409 
L 189.750163 349.399567 
L 190.429087 349.706094 
L 191.243797 349.476199 
L 192.465862 348.403356 
L 193.823711 347.560407 
L 195.045776 346.257668 
L 196.53941 342.655979 
L 197.62569 341.583135 
L 209.303195 335.835759 
L 219.079712 331.007962 
L 221.795411 329.245433 
L 222.202766 328.785643 
L 223.017475 328.019326 
L 223.6964 326.639956 
L 223.560615 324.724164 
L 222.610121 323.114898 
L 220.165991 320.586053 
L 219.351282 318.823524 
L 219.351282 316.294678 
L 219.894422 311.543513 
L 219.622852 306.792349 
L 220.301776 303.727081 
L 220.301776 301.198235 
L 220.437561 300.50855 
L 221.523841 296.140544 
L 221.388056 294.14812 
L 222.202766 294.301383 
L 223.560615 294.837805 
L 224.103755 295.220964 
L 224.51111 296.370439 
L 225.190035 296.830229 
L 226.412099 297.443283 
L 230.893003 298.132968 
L 232.250852 298.66939 
L 231.571927 297.826441 
L 229.127798 297.060124 
L 228.448873 296.217176 
L 230.214078 297.213388 
L 234.287626 298.592758 
L 243.113648 304.263503 
L 244.743067 305.9494 
L 246.100917 306.40919 
L 248.545046 308.018456 
L 251.532315 309.474458 
L 253.297519 309.934248 
L 267.690724 311.543513 
L 271.221133 311.236987 
L 280.590294 308.401614 
L 282.219714 307.711929 
L 283.441778 306.715717 
L 283.984918 306.332558 
L 284.935413 306.179295 
L 287.515327 306.026032 
L 291.045735 306.715717 
L 291.45309 306.945612 
L 291.860445 307.252139 
L 299.328617 311.313618 
L 301.093822 311.773408 
L 307.475714 311.466882 
L 309.105134 311.696777 
L 312.363973 312.692989 
L 315.215457 313.995727 
L 322.140489 315.145203 
L 322.547844 315.298466 
L 323.226769 315.988151 
L 323.362554 316.141415 
L 324.041478 316.37131 
L 325.399328 317.75068 
L 327.436102 319.13005 
L 330.830726 322.042055 
L 332.460145 323.881215 
L 333.274855 324.187742 
L 339.385178 325.260586 
L 339.928317 325.567112 
L 340.471457 326.103534 
L 342.236662 327.023114 
L 342.915586 327.329641 
L 349.840619 327.636168 
L 357.580361 329.015538 
L 359.345565 329.628592 
L 360.160275 329.781855 
L 360.703415 330.088382 
L 362.061264 332.004174 
L 363.419114 332.847123 
L 363.962254 333.383545 
L 364.233824 334.99281 
L 364.641178 335.91239 
L 365.455888 337.598287 
L 366.949523 339.820606 
L 367.221092 340.510292 
L 367.221092 341.506504 
L 366.813738 343.115769 
L 366.677953 344.95493 
L 366.677953 346.027773 
L 366.813738 349.322936 
L 367.221092 350.932201 
L 371.701996 362.963376 
L 372.65249 364.649273 
L 376.726039 370.549914 
L 379.170168 373.232023 
L 382.021652 375.530973 
L 392.612878 380.665296 
L 404.561954 382.810984 
L 418.412019 382.964247 
L 426.559116 384.803408 
L 434.706213 387.715412 
L 441.22389 389.171414 
L 442.445955 389.171414 
L 442.85331 389.324677 
L 443.12488 389.554572 
L 444.482729 390.320889 
L 445.569009 391.393733 
L 445.976364 391.623628 
L 446.247933 391.776891 
L 451.815116 393.462788 
L 454.802385 394.995422 
L 457.925439 396.068266 
L 460.641138 396.604688 
L 461.184278 397.064478 
L 462.270558 398.673743 
L 462.949482 399.363428 
L 463.628407 399.669955 
L 467.023031 400.512904 
L 472.997569 402.811854 
L 474.219633 403.578171 
L 475.305913 404.651015 
L 478.700537 408.712494 
L 487.798128 415.839241 
L 489.970687 418.291456 
L 491.056967 419.364299 
L 493.501096 420.74367 
L 495.130516 421.050196 
L 495.80944 421.433355 
L 501.376623 425.188308 
L 502.870258 425.877993 
L 506.264881 426.414415 
L 509.659505 426.491046 
L 513.189914 426.107888 
L 515.090903 425.494834 
L 516.856108 424.958412 
L 519.979161 423.425779 
L 524.188495 420.513774 
L 524.86742 420.130616 
L 526.632624 419.824089 
L 527.311549 419.364299 
L 532.335592 415.30282 
L 538.5817 407.486387 
L 540.211119 404.497752 
L 541.161614 403.195013 
L 542.519463 402.045538 
L 543.198388 401.355852 
L 545.642517 396.068266 
L 547.407721 391.087206 
L 547.543506 389.094782 
L 547.407721 383.270774 
L 546.728797 382.121299 
L 545.778302 379.132663 
L 544.963592 377.829924 
L 543.334173 376.067395 
L 542.655248 375.147815 
L 540.075334 367.714541 
L 539.939549 365.875381 
L 539.939549 363.882957 
L 539.803764 363.11664 
L 539.124839 361.430743 
L 538.853269 360.587794 
L 538.717485 358.672002 
L 538.853269 356.602946 
L 539.396409 352.847993 
L 539.939549 351.085465 
L 539.803764 350.625674 
L 539.667979 350.165884 
L 539.532194 349.629463 
L 539.803764 349.246304 
L 540.211119 348.556619 
L 543.605743 341.123345 
L 544.556237 339.743975 
L 551.75284 332.310701 
L 552.29598 331.391121 
L 554.061184 329.168802 
L 554.875894 328.709012 
L 556.369528 328.019326 
L 557.048453 327.482905 
L 557.591593 326.869851 
L 563.022991 322.425213 
L 571.849012 318.593629 
L 577.00884 314.991939 
L 581.489744 312.692989 
L 583.254948 312.30983 
L 590.315766 312.76962 
L 592.08097 312.616357 
L 595.204024 311.773408 
L 596.697658 310.853828 
L 602.536411 305.48961 
L 603.079551 305.259715 
L 604.844755 305.106451 
L 606.60996 304.646661 
L 607.560454 305.48961 
L 609.325659 306.179295 
L 611.090863 306.639085 
L 612.720282 306.792349 
L 620.867379 305.872768 
L 621.138949 305.719505 
L 621.546304 305.02982 
L 621.682089 304.876556 
L 622.496799 304.723293 
L 622.904154 304.723293 
L 623.311508 304.876556 
L 623.718863 305.183083 
L 623.718863 305.412978 
L 623.718863 305.719505 
L 623.854648 306.179295 
L 625.076713 307.482034 
L 626.570347 307.788561 
L 630.100756 307.711929 
L 631.59439 308.248351 
L 635.260584 311.160355 
L 636.075294 311.543513 
L 636.618434 311.85004 
L 637.297358 312.003303 
L 639.062563 312.156567 
L 647.888584 314.838676 
L 649.925359 316.218046 
L 650.604283 316.447941 
L 651.011638 316.524573 
L 652.369488 317.060995 
L 652.776843 317.137627 
L 654.134692 317.060995 
L 654.949402 317.29089 
L 656.578821 318.133839 
L 658.208241 318.440365 
L 659.02295 318.746892 
L 659.430305 319.206682 
L 659.56609 319.819736 
L 659.29452 320.279526 
L 658.75138 321.122474 
L 658.615596 321.582264 
L 658.887165 324.341005 
L 659.29452 325.03069 
L 659.83766 325.567112 
L 660.65237 326.026902 
L 660.245015 326.946483 
L 659.83766 329.781855 
L 659.158735 329.475328 
L 659.158735 329.09217 
L 659.158735 328.709012 
L 658.887165 328.325853 
L 658.615596 327.942695 
L 657.936671 331.697647 
L 658.072456 332.617228 
L 658.615596 333.077018 
L 660.92394 333.996598 
L 661.738649 334.149861 
L 662.417574 334.53302 
L 663.096499 335.375968 
L 663.639639 336.37218 
L 664.182778 337.751551 
L 664.725918 338.058078 
L 665.269058 338.211341 
L 665.812198 338.517868 
L 666.083768 339.054289 
L 666.355338 339.97387 
L 666.762693 340.357028 
L 666.762693 339.590711 
L 666.219553 337.598287 
L 667.034262 337.828182 
L 668.663682 337.904814 
L 668.935252 338.058078 
L 670.021531 338.977658 
L 670.293101 339.130921 
L 675.045574 339.51408 
L 680.205403 339.437448 
L 686.72308 340.970082 
L 692.697618 343.498927 
L 691.747123 344.418508 
L 691.611338 344.725034 
L 691.882908 344.95493 
L 692.833403 345.338088 
L 695.277532 347.25388 
L 696.092242 347.483775 
L 703.288844 347.407144 
L 713.33693 348.17346 
L 716.731554 347.100617 
L 717.546264 346.487563 
L 717.953619 346.257668 
L 719.447253 346.564195 
L 719.854608 346.487563 
L 720.126178 346.3343 
L 720.397748 346.257668 
L 720.669318 346.410932 
L 720.805103 346.564195 
L 721.348242 346.870722 
L 721.891382 347.023985 
L 722.570307 347.407144 
L 723.792372 347.637039 
L 725.286006 348.250092 
L 729.766909 349.169672 
L 731.124759 350.089253 
L 731.667899 351.545255 
L 731.396329 353.384415 
L 731.260544 354.380627 
L 731.532114 355.146944 
L 732.889963 356.602946 
L 734.790953 359.668214 
L 735.062522 360.434531 
L 735.605662 361.737269 
L 736.284587 363.040008 
L 736.148802 363.193271 
L 736.148802 363.346535 
L 733.704673 365.262327 
L 732.754178 366.871592 
L 731.260544 370.703177 
L 725.150221 375.8375 
L 724.742866 377.293502 
L 724.742866 378.979399 
L 725.150221 382.810984 
L 725.150221 386.489305 
L 725.964931 391.393733 
L 726.236501 392.313313 
L 727.59435 395.072054 
L 728.13749 397.371005 
L 729.766909 401.049326 
L 730.174264 402.888486 
L 730.038479 404.42112 
L 729.495339 406.030385 
L 728.9522 407.792914 
L 728.544845 410.32176 
L 727.458565 413.463659 
L 727.32278 414.383239 
L 726.915425 415.915873 
L 726.236501 417.448507 
L 724.063941 420.896933 
L 722.841877 422.12304 
L 721.891382 423.50241 
L 721.484027 424.115464 
L 720.805103 425.648098 
L 719.311468 428.636733 
L 718.632543 430.245999 
L 718.632543 432.008528 
L 719.039898 432.928108 
L 720.126178 434.920532 
L 723.385017 443.503281 
L 723.520802 444.499493 
L 723.385017 445.419073 
L 722.841877 447.718024 
L 723.113447 449.633816 
L 725.014436 453.082242 
L 725.557576 454.921403 
L 725.557576 455.994246 
L 725.150221 459.289409 
L 725.286006 461.051938 
L 725.693361 462.661203 
L 728.816415 470.630899 
L 729.495339 473.083113 
L 729.766909 475.68859 
L 729.766909 481.282704 
L 729.766909 488.869241 
L 729.766909 506.954319 
L 729.766909 524.886134 
L 729.766909 528.411192 
L 729.766909 544.427215 
L 729.766909 546.189744 
L 729.766909 553.086596 
L 729.766909 568.412934 
L 729.766909 572.397781 
L 729.766909 580.98053 
L 729.766909 589.869806 
L 729.766909 603.127088 
L 729.766909 616.384371 
L 729.766909 629.641653 
L 729.766909 642.822303 
L 729.766909 656.079585 
L 729.766909 669.336867 
L 729.766909 682.59415 
L 729.766909 695.851432 
L 729.766909 709.108714 
L 729.766909 722.289364 
L 729.766909 735.546646 
L 729.766909 748.803929 
L 729.766909 762.061211 
L 729.766909 775.318493 
L 729.766909 788.575775 
L 729.766909 801.756425 
L 729.766909 807.42717 
L 729.766909 813.097915 
L 729.766909 818.76866 
L 729.766909 824.362774 
L 729.766909 830.033518 
L 729.766909 835.704263 
L 729.766909 841.375008 
L 729.766909 847.045753 
L 729.766909 852.639867 
L 729.766909 858.310612 
L 729.766909 863.981357 
L 729.766909 869.652102 
L 729.766909 873.943476 
L 729.631124 878.234851 
L 729.631124 882.602857 
L 729.631124 886.894231 
L 729.631124 891.951923 
L 729.631124 892.25845 
L 729.631124 892.335081 
L 729.631124 892.411713 
L 729.631124 892.488345 
L 729.495339 892.488345 
L 729.495339 892.564976 
L 729.359555 892.564976 
L 729.22377 892.564976 
L 725.421791 892.564976 
L 719.854608 892.564976 
L 715.373705 892.564976 
L 710.621231 892.564976 
L 705.597188 892.564976 
L 701.25207 892.564976 
L 698.129016 892.564976 
L 692.018693 892.564976 
L 692.018693 898.235721 
L 692.018693 903.906466 
L 692.018693 909.50058 
L 692.018693 915.171325 
L 687.402005 912.412584 
L 682.649532 909.653843 
L 678.032843 906.895102 
L 673.416155 904.136361 
L 668.663682 901.377621 
L 664.046994 898.61888 
L 659.430305 895.860139 
L 654.677832 893.024767 
L 650.061144 890.266026 
L 645.444455 887.507285 
L 640.827767 884.748544 
L 636.075294 881.989803 
L 631.458605 879.231063 
L 626.841917 876.472322 
L 622.089444 873.713581 
L 617.472756 870.878209 
L 612.856067 868.119468 
L 608.103594 865.360727 
L 603.486906 862.601986 
L 598.870217 859.843245 
L 594.117744 857.084505 
L 589.501056 854.325764 
L 584.884368 851.567023 
L 580.131894 848.808282 
L 575.515206 845.97291 
L 570.898518 843.214169 
L 566.281829 840.455428 
L 561.529356 837.696687 
L 556.912668 834.937947 
L 552.29598 832.179206 
L 547.543506 829.420465 
L 542.926818 826.661724 
L 538.31013 823.826352 
L 533.557656 821.067611 
L 528.940968 818.30887 
L 524.32428 815.550129 
L 519.571807 812.791389 
L 514.955118 810.032648 
L 511.15314 807.733697 
L 510.33843 807.273907 
L 505.721742 804.515166 
L 500.969268 801.679794 
L 496.35258 798.921053 
L 491.735892 796.162312 
L 486.983419 793.403571 
L 482.36673 790.644831 
L 477.750042 787.88609 
L 472.997569 785.127349 
L 468.38088 782.368608 
L 463.764192 779.609867 
L 459.011719 776.774495 
L 454.39503 774.015754 
L 449.778342 771.257013 
L 445.025869 768.498273 
L 440.409181 765.739532 
L 435.792492 762.980791 
L 431.175804 760.22205 
L 426.423331 757.463309 
L 421.806642 754.627937 
L 417.189954 751.869196 
L 412.437481 749.110455 
L 407.820793 746.351715 
L 403.204104 743.592974 
L 398.451631 740.834233 
L 393.834943 738.075492 
L 390.440319 736.006437 
L 389.625609 736.1597 
L 387.99619 737.002649 
L 385.823631 738.228756 
L 383.651071 739.378231 
L 381.478512 740.604338 
L 379.305953 741.753813 
L 377.133394 742.97992 
L 374.960835 744.129396 
L 372.788275 745.355503 
L 370.615716 746.504978 
L 368.443157 747.731085 
L 366.270598 748.88056 
L 364.098039 750.106667 
L 361.789694 751.256143 
L 359.617135 752.48225 
L 357.444576 753.631725 
L 355.272017 754.857832 
L 353.099458 756.007307 
L 352.556318 756.390466 
L 352.420533 756.390466 
L 346.03864 760.298682 
L 339.520963 764.206898 
L 333.13907 768.191746 
L 326.621392 772.099962 
L 324.313048 773.555964 
L 323.634123 773.632596 
L 323.090984 773.326069 
L 321.461564 771.56354 
L 316.709091 766.889007 
L 311.956618 762.214474 
L 307.204145 757.539941 
L 302.587456 752.865408 
L 300.414897 750.796352 
L 296.069779 748.037612 
L 292.132015 747.0414 
L 288.873176 746.121819 
L 285.478552 745.202239 
L 282.219714 744.359291 
L 278.82509 743.43971 
L 275.566251 742.52013 
L 272.171627 741.677182 
L 268.912789 740.757601 
L 265.518165 739.838021 
L 262.259326 738.995072 
L 258.864702 738.075492 
L 255.605863 737.155912 
L 252.21124 736.312963 
L 248.952401 735.393383 
L 245.557777 734.473803 
L 242.298938 733.630854 
L 238.904315 732.711274 
L 236.052831 726.274212 
L 233.337132 720.29694 
L 229.127798 710.794611 
L 229.127798 710.641348 
L 226.412099 704.587444 
L 223.832185 698.686804 
L 222.745906 697.307434 
L 221.523841 696.541117 
L 220.030207 696.004695 
L 208.081131 691.636689 
L 198.983539 688.341526 
L 191.786937 685.736049 
L 190.972227 685.582785 
L 190.157517 685.659417 
L 186.083969 687.345314 
L 181.603066 689.184475 
L 180.109431 689.337738 
L 179.430506 689.031211 
L 174.542248 684.663205 
L 173.863323 683.820257 
L 173.320184 682.210991 
L 172.641259 677.996248 
L 171.962334 676.770141 
L 166.395151 673.168452 
L 165.852011 671.942345 
L 165.852011 665.658546 
L 165.580441 659.221485 
L 165.444657 653.244213 
L 164.901517 650.40884 
L 163.543667 647.496836 
L 157.704914 638.684192 
L 153.088226 631.710708 
L 147.385258 622.898064 
L 142.089645 614.928369 
L 141.13915 612.399523 
L 142.089645 610.253836 
L 142.632785 609.487519 
L 143.31171 607.72499 
L 144.669559 606.345619 
L 144.941129 605.732566 
L 145.076914 604.966249 
L 145.212699 604.046669 
L 158.519624 597.149817 
L 159.198549 596.230237 
L 160.692183 590.406228 
L 160.692183 589.486648 
L 160.284828 588.183909 
L 160.284828 586.651275 
L 161.235323 581.746847 
L 161.099538 581.133794 
L 160.556398 580.597372 
L 158.791194 579.60116 
L 158.383839 579.14137 
L 158.112269 578.298421 
L 157.29756 573.547257 
L 154.174506 561.43945 
L 154.174506 560.673133 
L 154.310291 559.906816 
L 154.989215 558.144287 
L 155.532355 555.462178 
L 156.075495 554.465966 
L 157.569129 552.550174 
L 157.976484 551.707225 
L 157.569129 550.787645 
L 157.02599 549.714802 
L 156.890205 548.795221 
L 157.840699 548.105536 
L 158.926979 547.492483 
L 159.470119 546.572902 
L 162.050033 537.530363 
L 162.185818 537.147205 
L 162.185818 535.308044 
L 156.75442 519.751811 
L 156.21128 517.146334 
L 158.112269 501.206943 
L 159.062764 493.620405 
L 158.926979 484.961025 
L 158.112269 478.064173 
L 155.125 467.182473 
L 152.137731 456.300773 
L 147.656828 447.488129 
L 142.904355 439.901592 
L 140.867581 437.449378 
L 138.695021 434.690637 
z
" clip-path="url(#p8a88e7365b)" style="fill: #bdc3c7; stroke: #ffffff; stroke-width: 0.5"/>
    <path d="M -539.95816 561.745977 
L -539.95816 557.454602 
L -539.95816 553.163228 
L -539.95816 548.948485 
L -539.95816 544.65711 
L -539.95816 541.898369 
L -539.95816 539.21626 
L -539.95816 536.457519 
L -539.95816 533.77541 
L -539.95816 531.016669 
L -539.95816 528.33456 
L -539.95816 525.57582 
L -539.95816 522.89371 
L -539.95816 520.13497 
L -539.95816 517.452861 
L -539.95816 514.69412 
L -539.95816 512.012011 
L -539.95816 509.25327 
L -539.95816 506.571161 
L -539.95816 503.889052 
L -539.95816 501.130311 
L -539.95816 499.061255 
L -539.822375 497.835148 
L -539.41502 496.9922 
L -538.736095 496.302515 
L -533.847837 493.543774 
L -532.218417 492.087772 
L -530.453213 491.09156 
L -530.045858 490.63177 
L -528.688009 488.179556 
L -528.144869 487.719765 
L -526.787019 487.03008 
L -526.24388 486.646922 
L -523.663966 484.118076 
L -521.084051 482.278916 
L -516.874718 480.286492 
L -515.652653 479.366911 
L -512.122245 475.918485 
L -508.184481 473.083113 
L -505.876137 470.784162 
L -504.110933 469.78795 
L -503.432008 469.32816 
L -501.123664 466.799314 
L -499.901599 466.186261 
L -498.136395 466.339524 
L -496.506975 466.646051 
L -495.692266 466.646051 
L -494.741771 466.569419 
L -494.062846 466.262893 
L -489.717728 466.492788 
L -486.323104 462.661203 
L -482.113771 460.822043 
L -479.126502 460.438884 
L -474.917168 460.822043 
L -468.399491 463.657415 
L -465.140652 460.438884 
L -459.980824 459.825831 
L -454.413641 458.216565 
L -449.118028 457.603512 
L -443.550845 457.603512 
L -438.798372 457.603512 
L -434.317468 456.683932 
L -429.564995 455.994246 
L -428.34293 460.132358 
L -425.084092 461.435096 
L -421.417898 460.132358 
L -417.480134 454.768139 
L -414.085511 449.020763 
L -411.369812 443.656544 
L -407.703618 439.518433 
L -403.765855 436.683061 
L -399.556521 432.851476 
L -396.433467 430.322631 
L -392.495704 428.100312 
L -386.928521 425.571466 
L -381.632908 421.126828 
L -377.423574 415.456083 
L -373.757381 413.233764 
L -369.276477 411.931025 
L -363.437724 411.624499 
L -357.191617 410.015233 
L -349.995014 406.26028 
L -350.266584 403.348276 
L -350.538154 400.512904 
L -348.637165 398.597112 
L -346.600391 395.148686 
L -348.637165 391.70026 
L -348.637165 390.857311 
L -348.908735 390.014362 
L -349.180305 389.171414 
L -349.587659 388.788255 
L -350.945509 388.09857 
L -351.624434 387.408885 
L -352.710713 385.722988 
L -353.253853 385.109934 
L -353.932778 384.956671 
L -354.475918 385.263198 
L -355.562197 386.336041 
L -356.241122 386.642568 
L -356.920047 386.565936 
L -357.327402 386.182778 
L -357.463187 385.416461 
L -357.191617 384.496881 
L -356.376907 383.11751 
L -356.376907 382.121299 
L -356.512692 378.672873 
L -356.376907 377.829924 
L -355.969552 377.21687 
L -353.796993 375.684237 
L -351.081294 375.454342 
L -350.538154 363.729693 
L -347.95824 362.350323 
L -346.328821 362.733481 
L -344.970971 362.580218 
L -333.97239 360.587794 
L -325.825293 358.058948 
L -319.171831 357.062736 
L -320.80125 352.618098 
L -323.381164 345.567983 
L -321.208605 344.265244 
L -314.147787 343.652191 
L -307.35854 341.736399 
L -302.198712 341.966294 
L -299.890368 342.119557 
L -297.174669 342.27282 
L -294.1874 342.349452 
L -291.064346 342.502715 
L -287.805507 342.655979 
L -284.410883 342.885874 
L -281.152045 343.039137 
L -277.893206 343.192401 
L -274.770152 343.345664 
L -271.918668 343.422296 
L -269.338754 343.575559 
L -267.03041 343.652191 
L -265.12942 343.805454 
L -263.771571 343.882086 
L -262.821076 343.882086 
L -262.549506 343.882086 
L -259.698022 344.035349 
L -258.204388 343.652191 
L -257.389678 342.042925 
L -257.661248 341.123345 
L -258.204388 340.586923 
L -259.019098 340.357028 
L -259.698022 340.357028 
L -261.191657 340.89345 
L -261.734797 340.89345 
L -261.870582 340.127133 
L -261.734797 339.897238 
L -261.191657 339.360816 
L -260.920087 339.130921 
L -260.648517 338.671131 
L -260.648517 338.287973 
L -260.648517 337.904814 
L -260.512732 337.368392 
L -259.969592 333.153649 
L -259.426453 331.544384 
L -259.019098 330.778067 
L -258.475958 329.935119 
L -257.797033 329.628592 
L -256.303399 329.398697 
L -254.809764 328.785643 
L -253.5877 327.789431 
L -251.41514 325.337217 
L -251.95828 324.264374 
L -262.549506 316.064783 
L -264.993635 315.145203 
L -266.2157 314.072359 
L -271.239743 305.412978 
L -269.746109 304.186871 
L -269.474539 303.880344 
L -269.202969 303.497186 
L -269.067184 303.114028 
L -268.931399 302.654237 
L -268.795614 301.658025 
L -268.795614 300.585182 
L -269.067184 299.665602 
L -269.746109 298.975916 
L -270.832388 298.209599 
L -271.782883 297.290019 
L -272.597593 296.140544 
L -273.004948 294.761173 
L -273.683872 293.458435 
L -275.720647 291.542643 
L -275.992216 290.08664 
L -275.992216 285.642003 
L -275.584862 284.492527 
L -275.041722 283.343052 
L -274.362797 280.814206 
L -273.819657 279.971258 
L -273.276517 278.668519 
L -273.548087 277.212517 
L -275.177507 273.074406 
L -275.584862 272.537984 
L -276.263786 272.078194 
L -277.621636 271.618404 
L -278.164776 271.235245 
L -278.436346 270.468928 
L -278.164776 269.779243 
L -277.893206 269.319453 
L -277.485851 268.936294 
L -277.078496 268.476504 
L -276.806926 267.786819 
L -276.671141 267.327029 
L -277.078496 265.947659 
L -277.485851 263.72534 
L -277.350066 261.579652 
L -275.584862 254.299642 
L -275.449077 253.380062 
L -275.584862 252.84364 
L -275.720647 252.153955 
L -278.436346 243.801101 
L -279.38684 241.808677 
L -280.74469 240.046148 
L -276.806926 235.218351 
L -277.214281 234.988456 
L -278.57213 234.528666 
L -283.053034 229.930765 
L -282.781464 229.164448 
L -280.74469 226.09918 
L -279.92998 224.030125 
L -279.38684 223.646966 
L -279.251055 223.34044 
L -279.92998 222.650754 
L -283.867744 220.121909 
L -285.225593 218.972433 
L -287.126582 217.746326 
L -287.669722 217.133273 
L -287.941292 216.443588 
L -287.941292 215.830534 
L -288.077077 215.294112 
L -288.620217 214.987586 
L -290.249636 214.757691 
L -291.471701 213.991374 
L -292.693765 212.841898 
L -294.051615 211.845686 
L -295.273679 211.462528 
L -295.952604 210.542948 
L -296.224174 209.316841 
L -296.359959 207.554312 
L -295.545249 207.247785 
L -295.409464 207.324417 
L -295.273679 207.324417 
L -295.137894 207.401048 
L -295.002109 207.554312 
L -293.91583 207.01789 
L -292.55798 207.324417 
L -291.200131 207.860839 
L -289.978066 208.167365 
L -287.533937 207.860839 
L -286.583443 208.167365 
L -286.311873 208.167365 
L -286.040303 208.090734 
L -285.361378 207.554312 
L -281.830969 206.5581 
L -280.880475 205.868415 
L -280.608905 205.791783 
L -279.38684 205.791783 
L -278.979485 205.715151 
L -278.300561 205.331993 
L -277.078496 203.875991 
L -274.770152 203.033042 
L -274.227012 202.803147 
L -273.955442 201.960199 
L -269.474539 198.205246 
L -268.795614 197.975351 
L -265.12942 197.592192 
L -264.178926 197.285666 
L -263.907356 197.132402 
L -263.771571 196.979139 
L -262.821076 195.753032 
L -262.006367 195.523137 
L -261.327442 195.063347 
L -260.784302 194.450293 
L -260.376947 193.913871 
L -259.969592 192.994291 
L -259.562237 190.848604 
L -259.154883 190.005655 
L -258.747528 189.31597 
L -257.389678 185.944176 
L -257.118108 185.407754 
L -256.710753 185.25449 
L -255.760259 185.177859 
L -255.624474 184.947964 
L -254.673979 183.568593 
L -254.266624 183.338698 
L -253.31613 182.649013 
L -252.22985 181.576169 
L -251.68671 180.886484 
L -251.41514 180.656589 
L -250.057291 180.273431 
L -249.378366 179.813641 
L -248.835226 179.35385 
L -248.156302 178.970692 
L -247.341592 178.664165 
L -246.798452 178.740797 
L -246.662667 179.123955 
L -246.391097 179.277219 
L -245.983742 179.123955 
L -244.490108 178.281007 
L -243.675398 176.748373 
L -242.724904 176.441846 
L -242.453334 176.671741 
L -242.181764 176.978268 
L -241.774409 177.284795 
L -241.367054 177.438058 
L -240.959699 177.438058 
L -240.280775 177.667953 
L -239.737635 177.744585 
L -239.33028 177.897848 
L -239.194495 178.204375 
L -238.922925 178.587534 
L -238.651355 178.970692 
L -238.244 179.047324 
L -236.886151 178.970692 
L -236.207226 178.817429 
L -235.392516 178.43427 
L -234.713592 177.897848 
L -234.306237 176.59511 
L -233.763097 176.518478 
L -233.355742 176.671741 
L -232.948387 176.748373 
L -232.541032 176.518478 
L -232.269462 176.211951 
L -230.504258 172.610262 
L -230.504258 172.150472 
L -230.504258 171.997208 
L -230.640043 171.690682 
L -230.640043 171.384155 
L -230.640043 171.230891 
L -230.368473 171.15426 
L -230.232688 171.230891 
L -229.961118 171.460786 
L -229.825333 171.460786 
L -229.417979 171.460786 
L -228.603269 171.537418 
L -228.331699 171.460786 
L -226.70228 170.771101 
L -225.616 170.464575 
L -225.208645 170.69447 
L -225.07286 171.230891 
L -224.665505 171.460786 
L -224.122365 171.61405 
L -223.850796 171.767313 
L -223.715011 172.227103 
L -223.986581 172.840157 
L -223.850796 173.376579 
L -223.307656 173.989632 
L -222.357161 174.526054 
L -219.641462 175.062476 
L -218.012043 175.752161 
L -217.197333 175.905424 
L -216.789978 175.828793 
L -215.703699 175.522266 
L -213.938494 174.679317 
L -212.44486 173.606474 
L -211.222795 172.456998 
L -209.864946 169.774889 
L -209.457591 168.625414 
L -208.235526 165.790042 
L -207.828171 164.717198 
L -207.828171 164.180776 
L -207.692386 163.950881 
L -207.420817 163.720986 
L -207.013462 163.491091 
L -206.741892 163.261196 
L -204.840903 161.422035 
L -204.297763 160.962245 
L -201.853634 160.119297 
L -201.446279 159.81277 
L -201.174709 159.506243 
L -200.359999 159.046453 
L -200.088429 158.739926 
L -199.952644 158.356768 
L -199.816859 157.283924 
L -199.545289 156.900766 
L -198.866365 156.517607 
L -198.051655 156.364344 
L -196.422236 156.287712 
L -195.471741 156.057817 
L -194.792816 155.674659 
L -194.249676 155.138237 
L -191.533977 153.299076 
L -190.040343 152.915918 
L -189.497203 152.379496 
L -188.818278 151.766443 
L -188.275139 151.306652 
L -187.460429 151.153389 
L -184.608945 150.923494 
L -184.065805 150.846862 
L -183.522665 150.540335 
L -182.300601 149.697387 
L -179.856472 149.084333 
L -179.313332 148.624543 
L -178.905977 148.241385 
L -178.091267 147.628331 
L -177.683913 147.245173 
L -177.412343 146.862014 
L -177.412343 146.478856 
L -177.140773 146.095698 
L -176.869203 145.712539 
L -176.190278 145.406012 
L -174.560859 145.022854 
L -173.067224 144.103274 
L -170.351525 144.103274 
L -169.536815 143.796747 
L -168.043181 143.03043 
L -167.092686 142.877167 
L -165.599052 142.877167 
L -164.784342 142.800535 
L -163.969633 142.57064 
L -161.661288 141.497796 
L -160.982364 141.344533 
L -160.303439 141.497796 
L -158.538235 142.034218 
L -157.723525 142.264113 
L -156.77303 142.187481 
L -155.279396 141.804323 
L -148.354363 141.421165 
L -147.811223 141.344533 
L -147.403869 141.267901 
L -146.453374 140.808111 
L -146.046019 140.731479 
L -145.774449 140.808111 
L -144.95974 141.038006 
L -144.552385 141.038006 
L -142.51561 140.501584 
L -140.343051 140.348321 
L -138.577847 140.731479 
L -138.034707 140.731479 
L -134.775868 140.348321 
L -125.406707 137.58958 
L -124.591997 137.283053 
L -123.777287 137.283053 
L -122.962578 137.436317 
L -122.283653 137.896107 
L -122.012083 138.279265 
L -122.012083 138.739055 
L -121.876298 139.045582 
L -121.333158 139.122214 
L -120.925803 139.198846 
L -120.246879 139.428741 
L -119.839524 139.428741 
L -114.408126 139.122214 
L -113.186061 138.739055 
L -109.655652 136.056946 
L -107.211523 134.754208 
L -106.261029 133.987891 
L -105.310534 132.60852 
L -105.038964 131.995467 
L -104.08847 131.075887 
L -101.91591 129.543253 
L -100.286491 129.160094 
L -99.879136 129.236726 
L -98.792856 129.389989 
L -97.570792 130.156306 
L -96.620297 131.22915 
L -95.534018 132.072099 
L -94.040383 132.531889 
L -92.818319 132.531889 
L -92.546749 132.531889 
L -91.460469 131.842203 
L -91.053114 131.22915 
L -90.781544 130.539465 
L -90.781544 129.389989 
L -90.37419 129.313358 
L -87.93006 130.386201 
L -86.572211 130.76936 
L -81.955523 131.075887 
L -81.276598 130.922623 
L -79.782963 130.539465 
L -78.968254 130.386201 
L -78.560899 130.30957 
L -78.289329 130.003043 
L -78.017759 129.696516 
L -77.881974 129.543253 
L -77.474619 129.466621 
L -76.65991 129.543253 
L -76.252555 129.543253 
L -74.894705 128.853568 
L -72.586361 126.554617 
L -71.364297 125.7883 
L -68.105458 124.792088 
L -66.340253 124.562193 
L -64.982404 124.86872 
L -63.624554 125.711668 
L -62.94563 125.7883 
L -62.538275 125.711668 
L -61.723565 125.481773 
L -60.501501 125.481773 
L -60.094146 125.481773 
L -58.464726 125.711668 
L -57.650017 126.094827 
L -56.156382 125.32851 
L -55.613242 125.175247 
L -55.205887 125.251878 
L -54.255393 125.711668 
L -53.712253 125.7883 
L -53.304898 125.635037 
L -52.218619 125.021983 
L -51.811264 124.86872 
L -51.132339 124.86872 
L -50.046059 125.32851 
L -49.50292 125.481773 
L -45.022016 124.86872 
L -44.614661 124.945351 
L -43.935737 125.098615 
L -43.392597 125.32851 
L -43.121027 125.635037 
L -42.577887 125.864932 
L -41.355823 125.864932 
L -40.812683 126.094827 
L -39.726403 125.635037 
L -39.319048 125.558405 
L -38.096984 125.558405 
L -35.381285 125.7883 
L -32.665586 125.481773 
L -31.986661 125.558405 
L -25.876338 128.087251 
L -25.061629 128.776936 
L -24.925844 129.083463 
L -24.518489 129.160094 
L -23.975349 129.160094 
L -23.567994 129.160094 
L -23.296424 129.389989 
L -23.024854 130.003043 
L -22.889069 130.156306 
L -22.210145 130.462833 
L -21.395435 130.692728 
L -20.71651 130.76936 
L -20.037585 130.76936 
L -20.71651 132.991679 
L -20.580725 133.681364 
L -19.494446 134.447681 
L -15.013542 136.67 
L -13.791478 136.976527 
L -12.433628 137.053158 
L -9.853714 136.67 
L -7.81694 136.056946 
L -7.54537 136.056946 
L -6.45909 136.056946 
L -6.18752 135.903683 
L -5.780166 135.367261 
L -5.508596 135.137366 
L -4.014961 134.524313 
L -3.200252 133.987891 
L -2.657112 132.378625 
L -2.249757 131.68894 
L -1.570832 131.075887 
L -0.891907 130.76936 
L 0.873297 130.30957 
L 1.552222 129.926411 
L 2.910071 128.776936 
L 3.724781 128.470409 
L 4.675276 128.393777 
L 7.25519 128.930199 
L 8.884609 128.853568 
L 15.130717 127.474197 
L 21.241039 125.251878 
L 22.734674 124.40893 
L 23.413599 123.259454 
L 23.549384 122.339874 
L 23.413599 121.573557 
L 23.413599 120.883872 
L 23.820954 120.040923 
L 24.092523 119.734397 
L 25.721943 118.661553 
L 26.265083 118.0485 
L 26.536653 117.665341 
L 27.758717 117.052288 
L 29.523921 116.592497 
L 31.289126 116.592497 
L 32.78276 117.052288 
L 34.14061 118.125131 
L 34.276395 118.201763 
L 34.276395 118.661553 
L 34.41218 118.96808 
L 34.68375 119.197975 
L 34.955319 119.274607 
L 35.362674 119.581133 
L 35.770029 121.26703 
L 36.448954 122.033347 
L 36.992094 121.880084 
L 37.671018 122.109979 
L 38.349943 122.493137 
L 39.164653 122.646401 
L 44.731836 122.952928 
L 45.274976 123.182823 
L 45.9539 123.565981 
L 46.632825 124.025771 
L 47.04018 124.562193 
L 46.904395 125.251878 
L 48.12646 125.711668 
L 49.620094 125.864932 
L 50.570589 125.7883 
L 53.965212 124.792088 
L 55.051492 124.179035 
L 55.594632 124.485561 
L 56.545127 124.715456 
L 57.495621 124.715456 
L 57.767191 124.332298 
L 58.174546 123.94914 
L 59.803965 122.646401 
L 60.347105 122.339874 
L 60.48289 122.109979 
L 60.890245 121.650189 
L 61.161815 121.113767 
L 61.161815 120.653977 
L 61.161815 120.117555 
L 61.02603 119.811028 
L 59.532395 118.278395 
L 58.310331 117.358814 
L 58.310331 117.052288 
L 58.717686 116.975656 
L 59.532395 116.822392 
L 59.93975 116.745761 
L 60.347105 116.899024 
L 61.02603 117.282183 
L 61.2976 117.358814 
L 61.433385 117.358814 
L 61.56917 117.435446 
L 61.704955 117.588709 
L 61.84074 117.665341 
L 62.112309 117.512078 
L 62.383879 117.205551 
L 62.519664 117.128919 
L 62.791234 117.052288 
L 63.062804 117.205551 
L 63.741729 117.588709 
L 64.149084 117.665341 
L 64.556439 117.588709 
L 65.506933 117.052288 
L 65.914288 117.052288 
L 66.050073 117.128919 
L 66.050073 117.282183 
L 66.321643 117.665341 
L 66.593213 118.201763 
L 66.728998 118.50829 
L 67.272138 118.584921 
L 68.086847 118.661553 
L 68.358417 118.738185 
L 68.765772 118.96808 
L 69.308912 118.584921 
L 69.987837 118.355026 
L 71.345686 119.351238 
L 72.431966 120.500714 
L 73.789815 121.420294 
L 75.419235 121.726821 
L 75.826589 121.650189 
L 76.098159 121.496926 
L 76.505514 121.343662 
L 76.912869 121.420294 
L 77.320224 121.650189 
L 77.727579 121.880084 
L 78.134934 122.186611 
L 78.406503 122.493137 
L 80.171708 122.339874 
L 80.579063 122.186611 
L 81.257987 121.420294 
L 81.665342 121.113767 
L 81.393772 122.033347 
L 80.850633 123.029559 
L 80.714848 123.94914 
L 81.393772 124.562193 
L 80.714848 125.864932 
L 82.072697 126.784512 
L 84.245256 127.474197 
L 85.738891 127.627461 
L 91.170289 126.401354 
L 91.984999 125.941563 
L 92.799708 125.32851 
L 97.959536 122.723033 
L 98.638461 123.182823 
L 99.317386 123.872508 
L 100.132096 124.179035 
L 101.761515 124.102403 
L 102.71201 124.179035 
L 103.390934 124.562193 
L 103.934074 124.332298 
L 104.341429 124.562193 
L 104.884569 124.945351 
L 105.427709 125.175247 
L 106.649773 125.32851 
L 108.007623 125.175247 
L 111.945386 123.565981 
L 112.081171 124.792088 
L 112.081171 125.32851 
L 112.216956 125.7883 
L 113.439021 127.704092 
L 113.439021 128.240514 
L 112.760096 128.700304 
L 110.180182 129.773148 
L 108.822332 130.003043 
L 107.464483 129.926411 
L 105.970848 130.079675 
L 104.748784 130.616096 
L 104.612999 131.382413 
L 105.835063 132.072099 
L 106.649773 132.991679 
L 106.378203 134.524313 
L 105.427709 136.133578 
L 104.612999 137.053158 
L 99.996311 139.735267 
L 97.552181 140.654848 
L 96.465902 141.267901 
L 95.651192 142.340745 
L 95.515407 143.873379 
L 95.515407 143.95001 
L 97.144827 144.563064 
L 100.403665 144.946222 
L 101.08259 145.329381 
L 101.761515 145.482644 
L 102.44044 145.865802 
L 102.71201 146.708751 
L 102.847795 147.5517 
L 102.71201 149.467492 
L 102.576225 150.080545 
L 102.576225 150.31044 
L 100.81102 155.138237 
L 100.675235 157.054029 
L 100.81102 157.973609 
L 101.08259 158.816558 
L 101.218375 159.582875 
L 100.81102 160.425823 
L 100.403665 161.19214 
L 99.588956 164.563935 
L 99.453171 167.016149 
L 99.317386 167.55257 
L 98.502676 170.387943 
L 98.366891 174.066264 
L 98.502676 175.982056 
L 98.910031 177.51469 
L 100.81102 180.503326 
L 101.489945 182.03596 
L 101.62573 183.41533 
L 101.8973 187.170283 
L 101.8973 188.549653 
L 100.53945 191.768184 
L 100.132096 193.300818 
L 100.132096 194.986715 
L 100.26788 196.825875 
L 101.218375 198.435141 
L 102.576225 199.124826 
L 104.205644 199.661248 
L 105.563494 200.65746 
L 105.156139 201.500408 
L 102.847795 204.948834 
L 101.08259 206.941258 
L 100.53945 208.550524 
L 99.860526 211.845686 
L 99.045816 214.2979 
L 98.638461 216.060429 
L 98.638461 217.746326 
L 99.453171 222.344228 
L 99.317386 222.957281 
L 99.045816 223.34044 
L 98.910031 223.417071 
L 97.687966 224.71981 
L 97.280612 225.332864 
L 97.144827 226.09918 
L 98.095321 227.555183 
L 97.823751 228.091604 
L 96.465902 228.934553 
L 96.330117 229.317711 
L 96.058547 230.084028 
L 95.786977 230.390555 
L 95.515407 230.697082 
L 94.700698 231.233504 
L 93.071278 232.612874 
L 92.799708 232.919401 
L 89.133515 234.528666 
L 87.63988 235.678142 
L 84.381041 237.134144 
L 82.887407 238.206987 
L 82.072697 239.739621 
L 80.714848 245.103839 
L 80.443278 245.870156 
L 79.900138 246.48321 
L 79.221213 246.866368 
L 76.777084 247.249527 
L 75.28345 247.939212 
L 74.332955 249.012055 
L 73.38246 250.238162 
L 71.888826 251.847428 
L 71.074116 252.690376 
L 70.530976 253.916483 
L 70.395191 257.211646 
L 69.580482 261.809547 
L 69.852052 263.572076 
L 70.259406 266.02429 
L 70.530976 266.867239 
L 71.617256 268.936294 
L 72.024611 271.311877 
L 72.431966 272.461352 
L 74.74031 276.676095 
L 77.591794 281.733786 
L 78.270719 283.572947 
L 78.270719 283.72621 
L 78.270719 289.780114 
L 78.813858 291.849169 
L 79.764353 292.922013 
L 81.257987 293.381803 
L 83.023192 293.535066 
L 84.381041 293.994857 
L 88.590375 297.060124 
L 89.2693 297.443283 
L 90.084009 297.673178 
L 90.898719 297.749809 
L 91.713429 297.596546 
L 92.528138 298.056336 
L 96.058547 303.727081 
L 99.860526 309.780984 
L 100.403665 311.236987 
L 100.946805 317.597417 
L 101.218375 322.27195 
L 101.761515 323.804583 
L 101.761515 323.881215 
L 102.847795 325.03069 
L 107.464483 328.019326 
L 113.439021 332.463964 
L 121.314548 338.287973 
L 127.69644 342.962506 
L 128.23958 343.652191 
L 128.646935 344.495139 
L 129.32586 347.71367 
L 129.461645 348.250092 
L 130.547924 353.231152 
L 131.634204 358.212212 
L 132.584699 363.193271 
L 133.670978 368.174331 
L 134.757258 373.155391 
L 135.843537 378.213082 
L 136.929817 383.194142 
L 138.016097 388.175202 
L 139.102376 393.156262 
L 140.188656 398.137321 
L 141.13915 403.118381 
L 142.22543 408.176073 
L 143.31171 413.157132 
L 144.397989 418.138192 
L 145.484269 423.119252 
L 146.570548 428.100312 
L 137.744527 433.234635 
L 138.695021 434.690637 
L 140.867581 437.449378 
L 142.904355 439.901592 
L 147.656828 447.488129 
L 152.137731 456.300773 
L 155.125 467.182473 
L 158.112269 478.064173 
L 158.926979 484.961025 
L 159.062764 493.620405 
L 158.112269 501.206943 
L 156.21128 517.146334 
L 156.75442 519.751811 
L 162.185818 535.308044 
L 162.185818 537.147205 
L 162.050033 537.530363 
L 159.470119 546.572902 
L 158.926979 547.492483 
L 157.840699 548.105536 
L 156.890205 548.795221 
L 157.02599 549.714802 
L 157.569129 550.787645 
L 157.976484 551.707225 
L 157.569129 552.550174 
L 156.075495 554.465966 
L 155.532355 555.462178 
L 154.989215 558.144287 
L 154.310291 559.906816 
L 154.174506 560.673133 
L 154.174506 561.43945 
L 157.29756 573.547257 
L 158.112269 578.298421 
L 158.383839 579.14137 
L 158.791194 579.60116 
L 160.556398 580.597372 
L 161.099538 581.133794 
L 161.235323 581.746847 
L 160.284828 586.651275 
L 160.284828 588.183909 
L 160.692183 589.486648 
L 160.692183 590.406228 
L 159.198549 596.230237 
L 158.519624 597.149817 
L 145.212699 604.046669 
L 145.076914 604.966249 
L 144.941129 605.732566 
L 144.669559 606.345619 
L 143.31171 607.72499 
L 142.632785 609.487519 
L 142.089645 610.253836 
L 141.13915 612.399523 
L 142.089645 614.928369 
L 147.385258 622.898064 
L 153.088226 631.710708 
L 157.704914 638.684192 
L 163.543667 647.496836 
L 164.901517 650.40884 
L 165.444657 653.244213 
L 165.580441 659.221485 
L 165.852011 665.658546 
L 165.852011 671.942345 
L 166.395151 673.168452 
L 171.962334 676.770141 
L 172.641259 677.996248 
L 173.320184 682.210991 
L 173.863323 683.820257 
L 174.542248 684.663205 
L 179.430506 689.031211 
L 180.109431 689.337738 
L 181.603066 689.184475 
L 186.083969 687.345314 
L 190.157517 685.659417 
L 190.972227 685.582785 
L 191.786937 685.736049 
L 198.983539 688.341526 
L 208.081131 691.636689 
L 220.030207 696.004695 
L 221.523841 696.541117 
L 222.745906 697.307434 
L 223.832185 698.686804 
L 226.412099 704.587444 
L 229.127798 710.641348 
L 229.127798 710.794611 
L 233.337132 720.29694 
L 236.052831 726.274212 
L 238.904315 732.711274 
L 236.324401 734.550434 
L 233.744486 736.389595 
L 231.164572 738.152124 
L 228.720443 739.991284 
L 226.140529 741.830445 
L 223.560615 743.669605 
L 220.980701 745.432134 
L 218.400787 747.271295 
L 215.820873 749.110455 
L 213.240959 750.949616 
L 210.661045 752.712145 
L 208.081131 754.551305 
L 205.501217 756.390466 
L 203.057088 758.229626 
L 200.477174 759.992155 
L 197.89726 761.831316 
L 195.317346 763.670476 
L 192.737432 765.509637 
L 190.157517 767.272166 
L 187.577603 769.111326 
L 184.997689 770.950487 
L 182.417775 772.789647 
L 179.837861 774.552176 
L 177.257947 776.391336 
L 174.813818 778.230497 
L 172.233904 780.069658 
L 169.65399 781.908818 
L 167.074076 783.671347 
L 164.494162 785.510507 
L 161.914248 787.349668 
L 159.334334 789.188828 
L 156.75442 790.951357 
L 154.174506 792.790518 
L 151.594592 794.629678 
L 149.150463 796.468839 
L 146.570548 798.231368 
L 143.990634 800.070528 
L 141.41072 801.909689 
L 138.830806 803.748849 
L 136.250892 805.511378 
L 133.670978 807.350539 
L 131.091064 809.189699 
L 128.51115 811.02886 
L 125.931236 812.791389 
L 123.487107 814.630549 
L 120.907193 816.46971 
L 118.327279 818.30887 
L 115.747365 820.071399 
L 113.167451 821.910559 
L 110.587537 823.74972 
L 108.007623 825.588881 
L 105.427709 827.351409 
L 102.847795 829.19057 
L 100.26788 831.02973 
L 97.823751 832.868891 
L 95.243837 834.63142 
L 92.663923 836.47058 
L 90.084009 838.309741 
L 87.504095 840.148901 
L 84.924181 841.988062 
L 82.344267 843.750591 
L 79.764353 845.589751 
L 77.184439 847.428912 
L 74.604525 849.268072 
L 69.716267 852.716498 
L 65.914288 856.394819 
L 63.334374 859.076928 
L 60.618675 861.682406 
L 57.902976 864.364515 
L 55.187277 866.969992 
L 52.335793 869.881997 
L 50.842159 871.261367 
L 48.669599 873.560318 
L 46.361255 876.012532 
L 43.917126 878.464746 
L 41.608782 880.91696 
L 39.164653 883.369174 
L 36.856309 885.821388 
L 34.41218 888.350234 
L 32.103835 890.802448 
L 29.659706 893.254662 
L 27.351362 895.706876 
L 24.907233 898.15909 
L 22.598889 900.611304 
L 20.15476 903.063518 
L 17.710631 905.515732 
L 15.402287 908.044578 
L 12.958158 910.496792 
L 10.649813 912.949006 
L 7.662544 916.014273 
L 6.033125 917.317012 
L 4.403706 918.006697 
L -0.484553 919.156172 
L -4.286531 919.999121 
L -12.569413 921.914913 
L -20.852295 923.830705 
L -24.518489 924.673654 
L -31.715091 926.359551 
L -38.775908 927.968817 
L -45.972511 929.654714 
L -53.033328 931.263979 
L -59.415221 932.719981 
L -65.932899 934.175983 
L -69.599092 934.9423 
L -72.314791 935.555354 
L -78.832469 937.011356 
L -82.770232 937.930936 
L -85.893286 938.773885 
L -86.843781 938.850516 
L -87.386921 938.697253 
L -87.794276 938.54399 
L -88.608985 937.930936 
L -90.781544 935.40209 
L -92.546749 934.559142 
L -93.361458 934.02272 
L -94.176168 933.333035 
L -94.855093 932.566718 
L -95.398233 931.570506 
L -95.534018 930.727557 
L -95.126663 929.96124 
L -94.583523 928.965028 
L -94.311953 928.045448 
L -94.040383 927.66229 
L -93.633028 927.279131 
L -92.818319 926.282919 
L -92.546749 925.516603 
L -92.410964 923.754074 
L -92.139394 922.911125 
L -91.324684 922.22144 
L -90.645759 921.76165 
L -89.83105 921.148596 
L -89.55948 920.075753 
L -89.55948 919.079541 
L -89.966835 918.389855 
L -90.509975 917.70017 
L -90.781544 916.857222 
L -90.781544 916.397432 
L -90.645759 915.554483 
L -90.645759 915.247956 
L -90.781544 914.864798 
L -90.917329 914.634903 
L -91.188899 914.558271 
L -91.324684 914.251744 
L -91.867824 912.565847 
L -91.867824 910.803318 
L -91.188899 901.684147 
L -91.324684 901.071094 
L -91.867824 900.45804 
L -92.410964 900.151514 
L -93.768813 899.691723 
L -94.447738 899.385197 
L -96.620297 897.392773 
L -101.372771 895.01719 
L -111.692427 892.488345 
L -113.864986 892.411713 
L -117.25961 891.645396 
L -117.666965 891.645396 
L -118.345889 891.415501 
L -119.703739 890.572552 
L -120.518448 890.266026 
L -121.333158 890.036131 
L -122.012083 889.806236 
L -122.419438 889.269814 
L -123.913072 886.127915 
L -125.135137 884.135491 
L -126.492986 882.449594 
L -128.80133 880.380538 
L -129.480255 879.920748 
L -130.15918 879.690853 
L -130.97389 879.844116 
L -131.924384 880.533801 
L -133.418019 882.143067 
L -134.368513 882.679489 
L -134.911653 882.602857 
L -137.355782 881.606645 
L -137.763137 881.37675 
L -138.034707 881.070223 
L -138.306277 880.840328 
L -138.713632 880.763696 
L -139.256772 880.91696 
L -139.935696 881.606645 
L -140.343051 881.83654 
L -141.157761 881.83654 
L -141.429331 881.223486 
L -141.565116 880.380538 
L -141.972471 879.460958 
L -142.51561 878.924536 
L -143.194535 878.924536 
L -143.87346 879.001168 
L -144.68817 878.924536 
L -145.502879 878.541377 
L -149.983783 874.326635 
L -150.255353 873.636949 
L -150.255353 870.265155 
L -150.526922 868.65589 
L -151.205847 867.353151 
L -153.649976 865.207464 
L -155.143611 864.364515 
L -156.50146 864.057988 
L -157.180385 863.598198 
L -157.85931 863.368303 
L -159.488729 863.061776 
L -161.118149 862.525354 
L -161.661288 861.988933 
L -162.340213 861.145984 
L -163.019138 859.536719 
L -163.562278 859.076928 
L -164.512772 858.770402 
L -165.327482 858.770402 
L -166.821116 859.15356 
L -167.635826 859.15356 
L -168.450536 859.076928 
L -168.993676 858.847033 
L -169.265246 858.23398 
L -169.401031 857.084505 
L -169.265246 856.241556 
L -168.450536 852.103445 
L -168.043181 847.199017 
L -168.043181 846.202805 
L -168.722106 843.290801 
L -169.265246 842.37122 
L -173.746149 838.846163 
L -177.004988 836.317317 
L -180.263827 833.71184 
L -183.522665 831.182994 
L -186.781504 828.577516 
L -190.040343 825.972039 
L -193.299182 823.443193 
L -196.558021 820.837716 
L -199.816859 818.30887 
L -203.075698 815.703393 
L -206.334537 813.174547 
L -209.593376 810.56907 
L -212.309075 808.423382 
L -212.852215 808.040224 
L -216.111053 805.434746 
L -219.505677 802.905901 
L -222.764516 800.300423 
L -226.023355 797.694946 
L -229.282194 795.1661 
L -232.541032 792.560623 
L -235.799871 790.031777 
L -239.05871 787.4263 
L -242.317549 784.897454 
L -245.576388 782.291976 
L -248.835226 779.763131 
L -252.094065 777.157653 
L -255.352904 774.552176 
L -258.611743 772.02333 
L -261.870582 769.417853 
L -265.12942 766.889007 
L -268.524044 764.28353 
L -271.782883 761.754684 
L -275.041722 759.149207 
L -278.300561 756.620361 
L -281.559399 754.014883 
L -284.818238 751.486038 
L -288.077077 748.88056 
L -291.335916 746.275083 
L -294.594755 743.746237 
L -297.853593 741.14076 
L -301.112432 738.611914 
L -304.371271 736.006437 
L -307.63011 733.477591 
L -310.888949 730.872113 
L -314.283572 728.343268 
L -317.542411 725.73779 
L -320.80125 723.132313 
L -324.060089 720.603467 
L -327.318928 717.99799 
L -330.577766 715.469144 
L -333.565035 713.093562 
L -336.552304 710.717979 
L -339.539573 708.342397 
L -342.526842 705.966815 
L -345.649896 703.667864 
L -348.637165 701.292282 
L -351.624434 698.916699 
L -354.611703 696.541117 
L -357.598971 694.165535 
L -360.58624 691.789952 
L -363.573509 689.41437 
L -366.696563 687.115419 
L -369.683832 684.739837 
L -372.671101 682.364255 
L -375.65837 679.988672 
L -378.645639 677.61309 
L -382.854972 674.317927 
L -385.706456 672.17224 
L -388.55794 670.026553 
L -391.545209 667.804234 
L -394.396693 665.658546 
L -400.914371 660.83075 
L -407.432048 655.926322 
L -413.949726 651.098526 
L -420.603188 646.194097 
L -425.084092 642.975567 
L -426.034586 642.362513 
L -431.465984 638.530929 
L -437.712092 634.009659 
L -444.093985 629.565021 
L -450.475877 625.120383 
L -457.94405 619.832797 
L -465.412222 614.54521 
L -472.744609 609.257624 
L -480.212781 603.970037 
L -487.680954 598.682451 
L -495.149126 593.394864 
L -502.617298 588.107278 
L -510.08547 582.819691 
L -517.553643 577.532104 
L -525.021815 572.244518 
L -532.489987 566.956931 
z
" clip-path="url(#p8a88e7365b)" style="fill: #bdc3c7; stroke: #ffffff; stroke-width: 0.5"/>
   </g>
   <g id="PatchCollection_2">
    <path d="M 69.580482 261.809547 
L 70.395191 257.211646 
L 70.530976 253.916483 
L 71.074116 252.690376 
L 71.888826 251.847428 
L 73.38246 250.238162 
L 74.332955 249.012055 
L 75.28345 247.939212 
L 76.777084 247.249527 
L 79.221213 246.866368 
L 79.900138 246.48321 
L 80.443278 245.870156 
L 80.714848 245.103839 
L 82.072697 239.739621 
L 82.887407 238.206987 
L 84.381041 237.134144 
L 87.63988 235.678142 
L 89.133515 234.528666 
L 92.799708 232.919401 
L 93.071278 232.612874 
L 94.700698 231.233504 
L 95.515407 230.697082 
L 95.786977 230.390555 
L 96.058547 230.084028 
L 96.330117 229.317711 
L 96.465902 228.934553 
L 97.823751 228.091604 
L 98.095321 227.555183 
L 97.144827 226.09918 
L 97.280612 225.332864 
L 97.687966 224.71981 
L 98.910031 223.417071 
L 99.045816 223.34044 
L 99.317386 222.957281 
L 99.453171 222.344228 
L 98.638461 217.746326 
L 98.638461 216.060429 
L 99.045816 214.2979 
L 99.860526 211.845686 
L 100.53945 208.550524 
L 101.08259 206.941258 
L 102.847795 204.948834 
L 105.156139 201.500408 
L 105.563494 200.65746 
L 104.205644 199.661248 
L 102.576225 199.124826 
L 101.218375 198.435141 
L 100.26788 196.825875 
L 100.132096 194.986715 
L 100.132096 193.300818 
L 100.53945 191.768184 
L 101.8973 188.549653 
L 101.8973 187.170283 
L 101.62573 183.41533 
L 101.489945 182.03596 
L 100.81102 180.503326 
L 98.910031 177.51469 
L 98.502676 175.982056 
L 98.366891 174.066264 
L 98.502676 170.387943 
L 99.317386 167.55257 
L 99.453171 167.016149 
L 99.588956 164.563935 
L 100.403665 161.19214 
L 100.81102 160.425823 
L 101.218375 159.582875 
L 101.08259 158.816558 
L 100.81102 157.973609 
L 100.675235 157.054029 
L 100.81102 155.138237 
L 102.576225 150.31044 
L 102.576225 150.080545 
L 102.71201 149.467492 
L 102.847795 147.5517 
L 102.71201 146.708751 
L 102.44044 145.865802 
L 101.761515 145.482644 
L 101.08259 145.329381 
L 100.403665 144.946222 
L 97.144827 144.563064 
L 95.515407 143.95001 
L 95.515407 143.873379 
L 95.651192 142.340745 
L 96.465902 141.267901 
L 97.552181 140.654848 
L 99.996311 139.735267 
L 104.612999 137.053158 
L 105.427709 136.133578 
L 106.378203 134.524313 
L 106.649773 132.991679 
L 105.835063 132.072099 
L 104.612999 131.382413 
L 104.748784 130.616096 
L 105.970848 130.079675 
L 107.464483 129.926411 
L 108.822332 130.003043 
L 110.180182 129.773148 
L 112.760096 128.700304 
L 113.439021 128.240514 
L 113.439021 127.704092 
L 112.216956 125.7883 
L 112.081171 125.32851 
L 112.081171 124.792088 
L 111.945386 123.565981 
L 112.624311 123.259454 
L 115.34001 122.263242 
L 116.290505 122.033347 
L 119.413558 122.033347 
L 120.364053 121.803452 
L 121.857688 120.500714 
L 123.079752 119.964292 
L 123.351322 119.88766 
L 124.166032 119.044711 
L 125.252311 117.665341 
L 126.474376 115.519654 
L 127.017516 115.213127 
L 127.289086 115.059864 
L 128.375365 113.910388 
L 128.78272 113.680493 
L 130.004785 113.297335 
L 132.992053 112.071228 
L 133.399408 111.841333 
L 134.214118 110.538594 
L 134.893043 110.232067 
L 139.917086 110.155436 
L 141.274935 109.619014 
L 142.22543 108.622802 
L 142.76857 108.316275 
L 143.31171 108.54617 
L 143.58328 108.776065 
L 144.126419 108.699434 
L 144.533774 108.469538 
L 145.620054 108.239643 
L 146.434764 107.856485 
L 147.249473 107.320063 
L 147.792613 106.783641 
L 148.607323 107.243431 
L 149.286247 107.090168 
L 150.644097 106.170588 
L 151.458807 105.787429 
L 152.137731 105.634166 
L 153.767151 105.557534 
L 154.581861 105.251008 
L 154.989215 105.174376 
L 155.39657 105.404271 
L 155.66814 105.710798 
L 156.075495 105.864061 
L 159.334334 105.940693 
L 159.334334 106.017324 
L 159.470119 106.477115 
L 159.470119 108.54617 
L 158.248054 109.46575 
L 156.890205 110.002172 
L 156.075495 111.151648 
L 156.21128 111.534806 
L 156.75442 112.760913 
L 156.890205 112.990808 
L 157.161775 113.144071 
L 157.433344 113.833757 
L 157.704914 113.910388 
L 159.334334 114.140283 
L 160.149043 114.063652 
L 160.963753 113.373967 
L 161.371108 112.760913 
L 161.914248 111.917964 
L 161.778463 111.151648 
L 159.470119 110.232067 
L 159.062764 110.232067 
L 158.248054 110.538594 
L 157.840699 110.538594 
L 157.840699 110.232067 
L 158.791194 109.619014 
L 159.198549 109.542382 
L 159.334334 109.312487 
L 159.470119 109.082592 
L 159.605904 108.929329 
L 160.284828 108.852697 
L 163.951022 109.695645 
L 164.629947 109.619014 
L 166.530936 108.776065 
L 166.938291 108.852697 
L 167.481431 109.695645 
L 170.19713 110.078804 
L 171.419194 111.151648 
L 174.270678 112.147859 
L 174.949603 112.760913 
L 173.727538 113.06744 
L 173.184399 113.297335 
L 172.641259 113.603862 
L 172.369689 112.914176 
L 171.419194 112.760913 
L 170.19713 113.06744 
L 169.518205 113.603862 
L 169.789775 114.370178 
L 170.74027 114.753337 
L 171.962334 114.753337 
L 172.641259 114.600074 
L 172.912829 114.983232 
L 173.184399 115.519654 
L 173.320184 115.902812 
L 173.184399 116.515866 
L 172.912829 115.826181 
L 171.283409 117.358814 
L 171.554979 119.581133 
L 172.912829 121.880084 
L 174.678033 123.642613 
L 176.035883 124.255666 
L 176.443238 124.562193 
L 177.393732 125.711668 
L 177.801087 126.24809 
L 177.529517 126.784512 
L 176.714807 127.627461 
L 176.307453 128.547041 
L 175.900098 128.930199 
L 175.356958 129.006831 
L 174.949603 128.623673 
L 175.221173 127.933987 
L 174.813818 127.704092 
L 174.270678 127.780724 
L 172.912829 128.163882 
L 172.641259 128.470409 
L 171.962334 129.389989 
L 171.826549 130.003043 
L 172.369689 130.232938 
L 173.455969 130.30957 
L 173.999108 130.539465 
L 174.270678 130.30957 
L 174.406463 130.156306 
L 174.949603 129.160094 
L 175.764313 130.922623 
L 176.714807 132.225362 
L 178.072657 133.06831 
L 179.837861 133.221574 
L 180.381001 133.144942 
L 181.195711 133.144942 
L 183.0967 132.225362 
L 184.18298 131.918835 
L 184.997689 131.152518 
L 185.269259 129.926411 
L 185.540829 128.853568 
L 186.083969 127.014407 
L 186.762894 126.477985 
L 187.577603 126.324722 
L 189.342808 126.401354 
L 190.836442 126.094827 
L 192.330077 125.558405 
L 194.231066 124.255666 
L 195.317346 123.106191 
L 195.7247 122.952928 
L 195.860485 122.493137 
L 195.99627 122.263242 
L 198.16883 120.577345 
L 198.440399 120.194187 
L 198.576184 119.657765 
L 198.440399 119.351238 
L 198.304614 119.121343 
L 198.711969 118.584921 
L 199.526679 118.278395 
L 201.427668 118.0485 
L 202.921303 116.975656 
L 203.600228 116.899024 
L 204.279152 117.205551 
L 204.686507 117.971868 
L 204.550722 118.355026 
L 204.279152 118.96808 
L 204.143367 119.42787 
L 204.143367 119.88766 
L 204.550722 120.577345 
L 204.686507 120.960504 
L 204.822292 121.26703 
L 205.501217 122.263242 
L 205.637002 122.646401 
L 205.772787 123.106191 
L 205.908572 124.102403 
L 205.908572 124.562193 
L 206.180142 124.86872 
L 206.315927 125.32851 
L 206.587496 125.635037 
L 206.859066 125.7883 
L 207.130636 126.018195 
L 207.537991 126.70788 
L 207.266421 127.474197 
L 206.723281 128.163882 
L 205.229647 128.776936 
L 203.192873 130.462833 
L 202.106593 132.455257 
L 200.477174 134.754208 
L 197.89726 139.505372 
L 195.860485 144.4098 
L 194.774206 145.712539 
L 191.651152 146.478856 
L 188.120743 148.47128 
L 186.762894 148.164753 
L 185.405044 149.084333 
L 184.18298 150.923494 
L 183.63984 152.609391 
L 183.232485 154.525183 
L 182.689345 156.364344 
L 182.689345 158.739926 
L 182.55356 161.115509 
L 182.689345 162.648142 
L 183.232485 164.180776 
L 183.504055 164.947093 
L 183.63984 165.25362 
L 183.91141 165.71341 
L 184.047195 166.709622 
L 184.18298 167.09278 
L 184.997689 168.395519 
L 185.676614 169.008572 
L 186.219754 169.315099 
L 186.627109 169.774889 
L 187.577603 172.763525 
L 188.120743 173.376579 
L 190.700657 175.752161 
L 190.836442 175.828793 
L 191.515367 176.211951 
L 192.737432 176.671741 
L 195.045776 175.905424 
L 195.317346 175.982056 
L 195.7247 176.211951 
L 196.403625 176.825005 
L 195.99627 177.438058 
L 195.7247 178.281007 
L 195.99627 179.277219 
L 196.403625 179.890272 
L 197.89726 180.579957 
L 201.291883 181.882696 
L 202.785518 181.729433 
L 203.871797 182.649013 
L 204.414937 183.721857 
L 203.057088 184.258278 
L 202.785518 185.331122 
L 202.921303 186.020807 
L 202.921303 186.403966 
L 203.328658 187.400178 
L 203.871797 188.089863 
L 205.637002 188.626285 
L 204.550722 189.545865 
L 204.279152 190.771972 
L 204.143367 191.844816 
L 204.279152 193.83724 
L 203.736012 194.75682 
L 204.007582 196.442717 
L 204.822292 197.822087 
L 206.180142 199.507985 
L 206.994851 200.121038 
L 207.945346 200.504196 
L 208.488486 200.810723 
L 208.352701 201.653672 
L 207.402206 201.730303 
L 206.587496 202.266725 
L 205.908572 203.722727 
L 204.822292 204.642308 
L 204.279152 205.63852 
L 203.736012 206.711363 
L 202.921303 207.401048 
L 203.192873 208.703787 
L 203.057088 210.083158 
L 201.835023 211.615791 
L 200.341389 212.382108 
L 199.255109 213.531584 
L 199.526679 214.604427 
L 199.255109 215.524007 
L 199.255109 217.363168 
L 197.62569 218.436012 
L 197.35412 218.81917 
L 197.08255 218.972433 
L 196.946765 219.27896 
L 197.35412 220.19854 
L 197.489905 220.811594 
L 196.132055 221.424647 
L 195.317346 222.114333 
L 194.095281 223.417071 
L 193.416356 224.643178 
L 192.737432 225.256232 
L 192.330077 226.09918 
L 191.651152 226.788866 
L 191.108012 227.248656 
L 188.528098 228.014973 
L 188.256528 228.244868 
L 188.120743 228.551395 
L 187.984958 229.011185 
L 187.849173 229.624238 
L 187.577603 230.084028 
L 187.577603 230.926977 
L 187.306034 231.463399 
L 187.170249 232.229716 
L 186.627109 232.842769 
L 185.812399 233.225928 
L 182.28199 233.762349 
L 180.924141 234.452035 
L 178.887367 237.747197 
L 177.122162 238.283619 
L 176.714807 238.206987 
L 176.443238 238.053724 
L 176.035883 238.053724 
L 175.492743 238.206987 
L 175.356958 238.436882 
L 175.085388 238.743409 
L 174.406463 239.816253 
L 173.999108 240.122779 
L 173.455969 240.199411 
L 171.690764 241.04236 
L 171.011839 241.578782 
L 169.38242 242.191835 
L 168.56771 243.188047 
L 168.024571 244.567417 
L 166.666721 247.326158 
L 165.852011 248.628897 
L 165.308872 248.78216 
L 165.037302 249.088687 
L 165.037302 249.165319 
L 164.901517 249.24195 
L 165.173087 250.008267 
L 165.308872 250.927848 
L 165.308872 252.84364 
L 165.444657 253.686588 
L 165.987796 255.449117 
L 166.123581 256.292066 
L 166.530936 257.748068 
L 167.345646 259.433965 
L 170.876055 264.415025 
L 171.147624 264.798183 
L 171.690764 265.10471 
L 177.122162 270.468928 
L 178.480012 271.311877 
L 181.467281 272.614615 
L 182.01042 272.767879 
L 183.0967 272.997774 
L 185.676614 272.614615 
L 188.528098 271.771667 
L 190.972227 270.468928 
L 191.651152 270.315665 
L 192.601647 271.92493 
L 192.465862 274.990198 
L 191.379582 275.98641 
L 190.700657 276.216305 
L 190.293302 276.829358 
L 190.021733 277.595675 
L 190.293302 278.28536 
L 191.243797 279.817994 
L 191.651152 280.431048 
L 192.465862 280.660943 
L 194.095281 280.354416 
L 196.946765 278.591887 
L 198.304614 278.132097 
L 198.983539 277.902202 
L 199.526679 277.212517 
L 199.798249 276.292937 
L 199.662464 275.52662 
L 198.983539 274.760303 
L 198.847754 274.377144 
L 199.934034 273.457564 
L 200.477174 273.764091 
L 200.884529 273.917354 
L 201.291883 273.687459 
L 201.563453 273.151037 
L 201.835023 273.151037 
L 202.378163 273.610827 
L 204.007582 274.300513 
L 204.686507 274.760303 
L 205.093862 275.373356 
L 206.451711 277.442412 
L 206.587496 277.82557 
L 206.723281 280.124521 
L 205.772787 281.733786 
L 206.587496 284.569159 
L 206.180142 285.871898 
L 207.266421 285.488739 
L 208.081131 286.331688 
L 208.760056 287.3279 
L 209.71055 287.78769 
L 210.661045 288.017585 
L 212.562034 289.013797 
L 213.512529 289.320324 
L 213.240959 289.550219 
L 213.105174 289.62685 
L 212.969389 289.62685 
L 209.303195 288.477375 
L 207.402206 288.24748 
L 206.994851 289.62685 
L 207.402206 290.239904 
L 207.945346 290.699694 
L 208.488486 291.389379 
L 208.760056 292.308959 
L 209.16741 292.76875 
L 209.98212 292.76875 
L 211.61154 292.462223 
L 213.240959 292.845381 
L 216.364013 293.994857 
L 218.129217 293.994857 
L 218.672357 293.611698 
L 218.536572 292.998645 
L 217.857647 292.462223 
L 217.178723 292.232328 
L 216.771368 291.925801 
L 216.228228 291.236116 
L 215.685088 290.623062 
L 219.079712 293.075276 
L 221.116486 294.071488 
L 221.388056 294.14812 
L 221.523841 296.140544 
L 220.437561 300.50855 
L 220.301776 301.198235 
L 220.301776 303.727081 
L 219.622852 306.792349 
L 219.894422 311.543513 
L 219.351282 316.294678 
L 219.351282 318.823524 
L 220.165991 320.586053 
L 222.610121 323.114898 
L 223.560615 324.724164 
L 223.6964 326.639956 
L 223.017475 328.019326 
L 222.202766 328.785643 
L 221.795411 329.245433 
L 219.079712 331.007962 
L 209.303195 335.835759 
L 197.62569 341.583135 
L 196.53941 342.655979 
L 195.045776 346.257668 
L 193.823711 347.560407 
L 192.465862 348.403356 
L 191.243797 349.476199 
L 190.429087 349.706094 
L 189.750163 349.399567 
L 189.071238 349.016409 
L 188.392313 348.939777 
L 187.577603 349.859358 
L 187.170249 353.461047 
L 186.762894 354.993681 
L 185.133474 356.526315 
L 184.45455 358.058948 
L 184.047195 358.748633 
L 183.504055 359.361687 
L 182.82513 359.898109 
L 180.788356 360.664426 
L 176.579022 360.664426 
L 174.678033 362.273691 
L 172.098119 366.871592 
L 169.65399 369.630333 
L 169.11085 370.703177 
L 168.703495 373.691813 
L 168.703495 374.45813 
L 171.554979 382.19793 
L 172.641259 387.025727 
L 173.863323 389.554572 
L 173.999108 390.397521 
L 173.727538 392.16005 
L 173.863323 393.769315 
L 174.813818 396.987846 
L 174.813818 398.443848 
L 174.270678 400.283009 
L 171.962334 405.3407 
L 168.431925 409.40218 
L 164.494162 416.069137 
L 159.877474 422.429567 
L 158.791194 422.965989 
L 156.075495 423.195884 
L 154.989215 423.50241 
L 146.570548 428.100312 
L 145.484269 423.119252 
L 144.397989 418.138192 
L 143.31171 413.157132 
L 142.22543 408.176073 
L 141.13915 403.118381 
L 140.188656 398.137321 
L 139.102376 393.156262 
L 138.016097 388.175202 
L 136.929817 383.194142 
L 135.843537 378.213082 
L 134.757258 373.155391 
L 133.670978 368.174331 
L 132.584699 363.193271 
L 131.634204 358.212212 
L 130.547924 353.231152 
L 129.461645 348.250092 
L 129.32586 347.71367 
L 128.646935 344.495139 
L 128.23958 343.652191 
L 127.69644 342.962506 
L 121.314548 338.287973 
L 113.439021 332.463964 
L 107.464483 328.019326 
L 102.847795 325.03069 
L 101.761515 323.881215 
L 101.761515 323.804583 
L 101.218375 322.27195 
L 100.946805 317.597417 
L 100.403665 311.236987 
L 99.860526 309.780984 
L 96.058547 303.727081 
L 92.528138 298.056336 
L 91.713429 297.596546 
L 90.898719 297.749809 
L 90.084009 297.673178 
L 89.2693 297.443283 
L 88.590375 297.060124 
L 84.381041 293.994857 
L 83.023192 293.535066 
L 81.257987 293.381803 
L 79.764353 292.922013 
L 78.813858 291.849169 
L 78.270719 289.780114 
L 78.270719 283.72621 
L 78.270719 283.572947 
L 77.591794 281.733786 
L 74.74031 276.676095 
L 72.431966 272.461352 
L 72.024611 271.311877 
L 71.617256 268.936294 
L 70.530976 266.867239 
L 70.259406 266.02429 
L 69.852052 263.572076 
z
" clip-path="url(#p8a88e7365b)" style="fill: #e74c3c; stroke: #ffffff; stroke-width: 0.6"/>
    <path d="M 192.058507 267.940082 
L 192.194292 266.790607 
L 192.873216 265.487868 
L 192.465862 263.648708 
L 192.465862 262.192706 
L 193.823711 261.656284 
L 196.946765 262.345969 
L 198.576184 262.422601 
L 199.798249 261.656284 
L 200.884529 263.035654 
L 202.106593 264.18513 
L 202.785518 264.64492 
L 203.600228 264.951447 
L 204.279152 265.411237 
L 204.686507 266.02429 
L 202.106593 268.323241 
L 201.563453 268.629768 
L 201.291883 268.859663 
L 201.156098 269.242821 
L 200.748744 270.698823 
L 200.477174 270.698823 
L 200.612959 269.472716 
L 200.748744 269.089558 
L 200.205604 269.319453 
L 199.662464 270.775455 
L 198.983539 271.771667 
L 198.440399 272.461352 
L 198.16883 273.304301 
L 197.489905 272.691247 
L 197.489905 271.848299 
L 197.761475 271.158613 
L 197.08255 270.08577 
L 196.403625 269.779243 
L 195.860485 269.242821 
L 195.181561 269.012926 
L 194.502636 269.779243 
L 194.095281 270.468928 
L 193.416356 270.622192 
L 192.601647 269.932506 
L 192.330077 269.242821 
z
" clip-path="url(#p8a88e7365b)" style="fill: #e74c3c; stroke: #ffffff; stroke-width: 0.6"/>
    <path d="M 206.994851 226.09918 
L 207.537991 225.486127 
L 208.081131 224.873073 
L 208.760056 223.953493 
L 208.895841 223.263808 
L 208.895841 223.033913 
L 208.895841 222.574123 
L 209.16741 222.420859 
L 209.303195 222.88065 
L 209.846335 223.187176 
L 210.79683 223.033913 
L 210.79683 222.037701 
L 210.52526 221.501279 
L 210.932615 220.888226 
L 211.33997 220.505067 
L 211.61154 219.968645 
L 212.018894 219.508855 
L 212.562034 219.892014 
L 213.648314 220.045277 
L 213.919884 220.428436 
L 212.833604 220.811594 
L 212.697819 221.041489 
L 212.562034 221.348016 
L 212.426249 221.884438 
L 212.697819 222.037701 
L 212.969389 222.344228 
L 213.919884 223.263808 
L 213.648314 223.876861 
L 209.846335 225.486127 
L 207.945346 226.635602 
L 207.266421 226.865497 
z
" clip-path="url(#p8a88e7365b)" style="fill: #e74c3c; stroke: #ffffff; stroke-width: 0.6"/>
    <path d="M 201.020313 227.172024 
L 201.427668 226.865497 
L 201.835023 226.482339 
L 206.180142 226.558971 
L 206.587496 227.018761 
L 206.044357 227.631814 
L 204.414937 228.78129 
L 203.736012 228.628026 
L 203.057088 228.244868 
L 201.699238 227.708446 
z
" clip-path="url(#p8a88e7365b)" style="fill: #e74c3c; stroke: #ffffff; stroke-width: 0.6"/>
   </g>
   <g id="text_1">
    <!-- Tunisia -->
    <g style="fill: #1a252f" transform="translate(113.048832 20.117344) scale(0.17 -0.17)">
     <defs>
      <path id="DejaVuSans-Bold-37" d="M 31 4666 
L 4331 4666 
L 4331 3756 
L 2784 3756 
L 2784 0 
L 1581 0 
L 1581 3756 
L 31 3756 
L 31 4666 
z
" transform="scale(0.015625)"/>
      <path id="DejaVuSans-Bold-58" d="M 500 1363 
L 500 3500 
L 1625 3500 
L 1625 3150 
Q 1625 2866 1622 2436 
Q 1619 2006 1619 1863 
Q 1619 1441 1641 1255 
Q 1663 1069 1716 984 
Q 1784 875 1895 815 
Q 2006 756 2150 756 
Q 2500 756 2700 1025 
Q 2900 1294 2900 1772 
L 2900 3500 
L 4019 3500 
L 4019 0 
L 2900 0 
L 2900 506 
Q 2647 200 2364 54 
Q 2081 -91 1741 -91 
Q 1134 -91 817 281 
Q 500 653 500 1363 
z
" transform="scale(0.015625)"/>
      <path id="DejaVuSans-Bold-51" d="M 4056 2131 
L 4056 0 
L 2931 0 
L 2931 347 
L 2931 1631 
Q 2931 2084 2911 2256 
Q 2891 2428 2841 2509 
Q 2775 2619 2662 2680 
Q 2550 2741 2406 2741 
Q 2056 2741 1856 2470 
Q 1656 2200 1656 1722 
L 1656 0 
L 538 0 
L 538 3500 
L 1656 3500 
L 1656 2988 
Q 1909 3294 2193 3439 
Q 2478 3584 2822 3584 
Q 3428 3584 3742 3212 
Q 4056 2841 4056 2131 
z
" transform="scale(0.015625)"/>
      <path id="DejaVuSans-Bold-4c" d="M 538 3500 
L 1656 3500 
L 1656 0 
L 538 0 
L 538 3500 
z
M 538 4863 
L 1656 4863 
L 1656 3950 
L 538 3950 
L 538 4863 
z
" transform="scale(0.015625)"/>
      <path id="DejaVuSans-Bold-56" d="M 3272 3391 
L 3272 2541 
Q 2913 2691 2578 2766 
Q 2244 2841 1947 2841 
Q 1628 2841 1473 2761 
Q 1319 2681 1319 2516 
Q 1319 2381 1436 2309 
Q 1553 2238 1856 2203 
L 2053 2175 
Q 2913 2066 3209 1816 
Q 3506 1566 3506 1031 
Q 3506 472 3093 190 
Q 2681 -91 1863 -91 
Q 1516 -91 1145 -36 
Q 775 19 384 128 
L 384 978 
Q 719 816 1070 734 
Q 1422 653 1784 653 
Q 2113 653 2278 743 
Q 2444 834 2444 1013 
Q 2444 1163 2330 1236 
Q 2216 1309 1875 1350 
L 1678 1375 
Q 931 1469 631 1722 
Q 331 1975 331 2491 
Q 331 3047 712 3315 
Q 1094 3584 1881 3584 
Q 2191 3584 2531 3537 
Q 2872 3491 3272 3391 
z
" transform="scale(0.015625)"/>
      <path id="DejaVuSans-Bold-44" d="M 2106 1575 
Q 1756 1575 1579 1456 
Q 1403 1338 1403 1106 
Q 1403 894 1545 773 
Q 1688 653 1941 653 
Q 2256 653 2472 879 
Q 2688 1106 2688 1447 
L 2688 1575 
L 2106 1575 
z
M 3816 1997 
L 3816 0 
L 2688 0 
L 2688 519 
Q 2463 200 2181 54 
Q 1900 -91 1497 -91 
Q 953 -91 614 226 
Q 275 544 275 1050 
Q 275 1666 698 1953 
Q 1122 2241 2028 2241 
L 2688 2241 
L 2688 2328 
Q 2688 2594 2478 2717 
Q 2269 2841 1825 2841 
Q 1466 2841 1156 2769 
Q 847 2697 581 2553 
L 581 3406 
Q 941 3494 1303 3539 
Q 1666 3584 2028 3584 
Q 2975 3584 3395 3211 
Q 3816 2838 3816 1997 
z
" transform="scale(0.015625)"/>
     </defs>
     <use xlink:href="#DejaVuSans-Bold-37"/>
     <use xlink:href="#DejaVuSans-Bold-58" transform="translate(57.234375 0)"/>
     <use xlink:href="#DejaVuSans-Bold-51" transform="translate(128.421875 0)"/>
     <use xlink:href="#DejaVuSans-Bold-4c" transform="translate(199.609375 0)"/>
     <use xlink:href="#DejaVuSans-Bold-56" transform="translate(233.890625 0)"/>
     <use xlink:href="#DejaVuSans-Bold-4c" transform="translate(293.40625 0)"/>
     <use xlink:href="#DejaVuSans-Bold-44" transform="translate(327.6875 0)"/>
    </g>
   </g>
   <g id="line2d_1">
    <path d="M 168.812836 144.43614 
" clip-path="url(#p8a88e7365b)" style="fill: none; stroke: #ffffff; stroke-width: 1.5; stroke-linecap: square"/>
    <defs>
     <path id="m3b7a0859f3" d="M 0 2.5 
C 0.663008 2.5 1.29895 2.236584 1.767767 1.767767 
C 2.236584 1.29895 2.5 0.663008 2.5 0 
C 2.5 -0.663008 2.236584 -1.29895 1.767767 -1.767767 
C 1.29895 -2.236584 0.663008 -2.5 0 -2.5 
C -0.663008 -2.5 -1.29895 -2.236584 -1.767767 -1.767767 
C -2.236584 -1.29895 -2.5 -0.663008 -2.5 0 
C -2.5 0.663008 -2.236584 1.29895 -1.767767 1.767767 
C -1.29895 2.236584 -0.663008 2.5 0 2.5 
z
" style="stroke: #1a252f; stroke-width: 0.8"/>
    </defs>
    <g clip-path="url(#p8a88e7365b)">
     <use xlink:href="#m3b7a0859f3" x="168.812836" y="144.43614" style="fill: #ffffff; stroke: #1a252f; stroke-width: 0.8"/>
    </g>
   </g>
   <g id="text_2">
    <g clip-path="url(#p8a88e7365b)">
     <!-- Tunis -->
     <g style="fill: #ffffff" transform="translate(174.896341 146.384675) scale(0.075 -0.075)">
      <use xlink:href="#DejaVuSans-Bold-37"/>
      <use xlink:href="#DejaVuSans-Bold-58" transform="translate(57.234375 0)"/>
      <use xlink:href="#DejaVuSans-Bold-51" transform="translate(128.421875 0)"/>
      <use xlink:href="#DejaVuSans-Bold-4c" transform="translate(199.609375 0)"/>
      <use xlink:href="#DejaVuSans-Bold-56" transform="translate(233.890625 0)"/>
     </g>
    </g>
   </g>
   <g id="legend_1">
    <g id="patch_2">
     <path d="M 13.5 498.657344 
L 88.097344 498.657344 
Q 89.897344 498.657344 89.897344 496.857344 
L 89.897344 470.755937 
Q 89.897344 468.955937 88.097344 468.955937 
L 13.5 468.955937 
Q 11.7 468.955937 11.7 470.755937 
L 11.7 496.857344 
Q 11.7 498.657344 13.5 498.657344 
z
" style="fill: #ffffff; opacity: 0.85; stroke: #cccccc; stroke-linejoin: miter"/>
    </g>
    <g id="patch_3">
     <path d="M 15.3 479.394531 
L 33.3 479.394531 
L 33.3 473.094531 
L 15.3 473.094531 
z
" style="fill: #e74c3c; stroke: #888888; stroke-linejoin: miter"/>
    </g>
    <g id="text_3">
     <!-- Tunisia -->
     <g transform="translate(40.5 479.394531) scale(0.09 -0.09)">
      <defs>
       <path id="DejaVuSans-37" d="M -19 4666 
L 3928 4666 
L 3928 4134 
L 2272 4134 
L 2272 0 
L 1638 0 
L 1638 4134 
L -19 4134 
L -19 4666 
z
" transform="scale(0.015625)"/>
       <path id="DejaVuSans-58" d="M 544 1381 
L 544 3500 
L 1119 3500 
L 1119 1403 
Q 1119 906 1312 657 
Q 1506 409 1894 409 
Q 2359 409 2629 706 
Q 2900 1003 2900 1516 
L 2900 3500 
L 3475 3500 
L 3475 0 
L 2900 0 
L 2900 538 
Q 2691 219 2414 64 
Q 2138 -91 1772 -91 
Q 1169 -91 856 284 
Q 544 659 544 1381 
z
M 1991 3584 
L 1991 3584 
z
" transform="scale(0.015625)"/>
       <path id="DejaVuSans-51" d="M 3513 2113 
L 3513 0 
L 2938 0 
L 2938 2094 
Q 2938 2591 2744 2837 
Q 2550 3084 2163 3084 
Q 1697 3084 1428 2787 
Q 1159 2491 1159 1978 
L 1159 0 
L 581 0 
L 581 3500 
L 1159 3500 
L 1159 2956 
Q 1366 3272 1645 3428 
Q 1925 3584 2291 3584 
Q 2894 3584 3203 3211 
Q 3513 2838 3513 2113 
z
" transform="scale(0.015625)"/>
       <path id="DejaVuSans-4c" d="M 603 3500 
L 1178 3500 
L 1178 0 
L 603 0 
L 603 3500 
z
M 603 4863 
L 1178 4863 
L 1178 4134 
L 603 4134 
L 603 4863 
z
" transform="scale(0.015625)"/>
       <path id="DejaVuSans-56" d="M 2834 3397 
L 2834 2853 
Q 2591 2978 2328 3040 
Q 2066 3103 1784 3103 
Q 1356 3103 1142 2972 
Q 928 2841 928 2578 
Q 928 2378 1081 2264 
Q 1234 2150 1697 2047 
L 1894 2003 
Q 2506 1872 2764 1633 
Q 3022 1394 3022 966 
Q 3022 478 2636 193 
Q 2250 -91 1575 -91 
Q 1294 -91 989 -36 
Q 684 19 347 128 
L 347 722 
Q 666 556 975 473 
Q 1284 391 1588 391 
Q 1994 391 2212 530 
Q 2431 669 2431 922 
Q 2431 1156 2273 1281 
Q 2116 1406 1581 1522 
L 1381 1569 
Q 847 1681 609 1914 
Q 372 2147 372 2553 
Q 372 3047 722 3315 
Q 1072 3584 1716 3584 
Q 2034 3584 2315 3537 
Q 2597 3491 2834 3397 
z
" transform="scale(0.015625)"/>
       <path id="DejaVuSans-44" d="M 2194 1759 
Q 1497 1759 1228 1600 
Q 959 1441 959 1056 
Q 959 750 1161 570 
Q 1363 391 1709 391 
Q 2188 391 2477 730 
Q 2766 1069 2766 1631 
L 2766 1759 
L 2194 1759 
z
M 3341 1997 
L 3341 0 
L 2766 0 
L 2766 531 
Q 2569 213 2275 61 
Q 1981 -91 1556 -91 
Q 1019 -91 701 211 
Q 384 513 384 1019 
Q 384 1609 779 1909 
Q 1175 2209 1959 2209 
L 2766 2209 
L 2766 2266 
Q 2766 2663 2505 2880 
Q 2244 3097 1772 3097 
Q 1472 3097 1187 3025 
Q 903 2953 641 2809 
L 641 3341 
Q 956 3463 1253 3523 
Q 1550 3584 1831 3584 
Q 2591 3584 2966 3190 
Q 3341 2797 3341 1997 
z
" transform="scale(0.015625)"/>
      </defs>
      <use xlink:href="#DejaVuSans-37"/>
      <use xlink:href="#DejaVuSans-58" transform="translate(45.890625 0)"/>
      <use xlink:href="#DejaVuSans-51" transform="translate(109.265625 0)"/>
      <use xlink:href="#DejaVuSans-4c" transform="translate(172.640625 0)"/>
      <use xlink:href="#DejaVuSans-56" transform="translate(200.421875 0)"/>
      <use xlink:href="#DejaVuSans-4c" transform="translate(252.515625 0)"/>
      <use xlink:href="#DejaVuSans-44" transform="translate(280.296875 0)"/>
     </g>
    </g>
    <g id="patch_4">
     <path d="M 15.3 492.895234 
L 33.3 492.895234 
L 33.3 486.595234 
L 15.3 486.595234 
z
" style="fill: #bdc3c7; stroke: #888888; stroke-linejoin: miter"/>
    </g>
    <g id="text_4">
     <!-- Neighbors -->
     <g transform="translate(40.5 492.895234) scale(0.09 -0.09)">
      <defs>
       <path id="DejaVuSans-31" d="M 628 4666 
L 1478 4666 
L 3547 763 
L 3547 4666 
L 4159 4666 
L 4159 0 
L 3309 0 
L 1241 3903 
L 1241 0 
L 628 0 
L 628 4666 
z
" transform="scale(0.015625)"/>
       <path id="DejaVuSans-48" d="M 3597 1894 
L 3597 1613 
L 953 1613 
Q 991 1019 1311 708 
Q 1631 397 2203 397 
Q 2534 397 2845 478 
Q 3156 559 3463 722 
L 3463 178 
Q 3153 47 2828 -22 
Q 2503 -91 2169 -91 
Q 1331 -91 842 396 
Q 353 884 353 1716 
Q 353 2575 817 3079 
Q 1281 3584 2069 3584 
Q 2775 3584 3186 3129 
Q 3597 2675 3597 1894 
z
M 3022 2063 
Q 3016 2534 2758 2815 
Q 2500 3097 2075 3097 
Q 1594 3097 1305 2825 
Q 1016 2553 972 2059 
L 3022 2063 
z
" transform="scale(0.015625)"/>
       <path id="DejaVuSans-4a" d="M 2906 1791 
Q 2906 2416 2648 2759 
Q 2391 3103 1925 3103 
Q 1463 3103 1205 2759 
Q 947 2416 947 1791 
Q 947 1169 1205 825 
Q 1463 481 1925 481 
Q 2391 481 2648 825 
Q 2906 1169 2906 1791 
z
M 3481 434 
Q 3481 -459 3084 -895 
Q 2688 -1331 1869 -1331 
Q 1566 -1331 1297 -1286 
Q 1028 -1241 775 -1147 
L 775 -588 
Q 1028 -725 1275 -790 
Q 1522 -856 1778 -856 
Q 2344 -856 2625 -561 
Q 2906 -266 2906 331 
L 2906 616 
Q 2728 306 2450 153 
Q 2172 0 1784 0 
Q 1141 0 747 490 
Q 353 981 353 1791 
Q 353 2603 747 3093 
Q 1141 3584 1784 3584 
Q 2172 3584 2450 3431 
Q 2728 3278 2906 2969 
L 2906 3500 
L 3481 3500 
L 3481 434 
z
" transform="scale(0.015625)"/>
       <path id="DejaVuSans-4b" d="M 3513 2113 
L 3513 0 
L 2938 0 
L 2938 2094 
Q 2938 2591 2744 2837 
Q 2550 3084 2163 3084 
Q 1697 3084 1428 2787 
Q 1159 2491 1159 1978 
L 1159 0 
L 581 0 
L 581 4863 
L 1159 4863 
L 1159 2956 
Q 1366 3272 1645 3428 
Q 1925 3584 2291 3584 
Q 2894 3584 3203 3211 
Q 3513 2838 3513 2113 
z
" transform="scale(0.015625)"/>
       <path id="DejaVuSans-45" d="M 3116 1747 
Q 3116 2381 2855 2742 
Q 2594 3103 2138 3103 
Q 1681 3103 1420 2742 
Q 1159 2381 1159 1747 
Q 1159 1113 1420 752 
Q 1681 391 2138 391 
Q 2594 391 2855 752 
Q 3116 1113 3116 1747 
z
M 1159 2969 
Q 1341 3281 1617 3432 
Q 1894 3584 2278 3584 
Q 2916 3584 3314 3078 
Q 3713 2572 3713 1747 
Q 3713 922 3314 415 
Q 2916 -91 2278 -91 
Q 1894 -91 1617 61 
Q 1341 213 1159 525 
L 1159 0 
L 581 0 
L 581 4863 
L 1159 4863 
L 1159 2969 
z
" transform="scale(0.015625)"/>
       <path id="DejaVuSans-52" d="M 1959 3097 
Q 1497 3097 1228 2736 
Q 959 2375 959 1747 
Q 959 1119 1226 758 
Q 1494 397 1959 397 
Q 2419 397 2687 759 
Q 2956 1122 2956 1747 
Q 2956 2369 2687 2733 
Q 2419 3097 1959 3097 
z
M 1959 3584 
Q 2709 3584 3137 3096 
Q 3566 2609 3566 1747 
Q 3566 888 3137 398 
Q 2709 -91 1959 -91 
Q 1206 -91 779 398 
Q 353 888 353 1747 
Q 353 2609 779 3096 
Q 1206 3584 1959 3584 
z
" transform="scale(0.015625)"/>
       <path id="DejaVuSans-55" d="M 2631 2963 
Q 2534 3019 2420 3045 
Q 2306 3072 2169 3072 
Q 1681 3072 1420 2755 
Q 1159 2438 1159 1844 
L 1159 0 
L 581 0 
L 581 3500 
L 1159 3500 
L 1159 2956 
Q 1341 3275 1631 3429 
Q 1922 3584 2338 3584 
Q 2397 3584 2469 3576 
Q 2541 3569 2628 3553 
L 2631 2963 
z
" transform="scale(0.015625)"/>
      </defs>
      <use xlink:href="#DejaVuSans-31"/>
      <use xlink:href="#DejaVuSans-48" transform="translate(74.8125 0)"/>
      <use xlink:href="#DejaVuSans-4c" transform="translate(136.34375 0)"/>
      <use xlink:href="#DejaVuSans-4a" transform="translate(164.125 0)"/>
      <use xlink:href="#DejaVuSans-4b" transform="translate(227.609375 0)"/>
      <use xlink:href="#DejaVuSans-45" transform="translate(290.984375 0)"/>
      <use xlink:href="#DejaVuSans-52" transform="translate(354.46875 0)"/>
      <use xlink:href="#DejaVuSans-55" transform="translate(415.65625 0)"/>
      <use xlink:href="#DejaVuSans-56" transform="translate(456.765625 0)"/>
     </g>
    </g>
   </g>
  </g>
 </g>
 <defs>
  <clipPath id="p8a88e7365b">
   <rect x="7.2" y="30.117344" width="278.876882" height="473.04"/>
  </clipPath>
 </defs>
</svg>
