<?xml version="1.0" encoding="utf-8" standalone="no"?>
<!DOCTYPE svg PUBLIC "-//W3C//DTD SVG 1.1//EN"
  "http://www.w3.org/Graphics/SVG/1.1/DTD/svg11.dtd">
<svg xmlns:xlink="http://www.w3.org/1999/xlink" width="570.281176pt" height="510.357344pt" viewBox="0 0 570.281176 510.357344" xmlns="http://www.w3.org/2000/svg" version="1.1">
 <metadata>
  <rdf:RDF xmlns:dc="http://purl.org/dc/elements/1.1/" xmlns:cc="http://creativecommons.org/ns#" xmlns:rdf="http://www.w3.org/1999/02/22-rdf-syntax-ns#">
   <cc:Work>
    <dc:type rdf:resource="http://purl.org/dc/dcmitype/StillImage"/>
    <dc:date>2026-06-19T08:14:13.991733</dc:date>
    <dc:format>image/svg+xml</dc:format>
    <dc:creator>
     <cc:Agent>
      <dc:title>Matplotlib v3.11.0, https://matplotlib.org/</dc:title>
     </cc:Agent>
    </dc:creator>
   </cc:Work>
  </rdf:RDF>
 </metadata>
 <defs>
  <style type="text/css">*{stroke-linejoin: round; stroke-linecap: butt}</style>
 </defs>
 <g id="figure_1">
  <g id="patch_1">
   <path d="M 0 510.357344 
L 570.281176 510.357344 
L 570.281176 0 
L 0 0 
z
" style="fill: #d6eaf8"/>
  </g>
  <g id="axes_1">
   <g id="PatchCollection_1">
    <path d="M 194.190644 240.766863 
L 194.190644 239.842917 
L 194.190644 239.226954 
L 194.801046 237.995026 
L 194.801046 238.918972 
L 195.411448 238.918972 
L 196.021851 239.226954 
L 196.632253 237.07108 
L 198.46346 233.067315 
L 199.684264 230.60346 
L 196.021851 233.375297 
L 194.801046 234.299243 
L 194.190644 232.14337 
L 196.021851 226.291713 
L 196.021851 223.211894 
L 199.684264 225.059786 
L 210.671506 234.915207 
L 212.502713 235.839153 
L 216.165127 235.839153 
L 219.217138 235.223189 
L 221.658748 234.299243 
L 224.100357 232.14337 
L 225.321161 230.295478 
L 227.152368 229.679514 
L 230.814782 231.835388 
L 230.814782 233.067315 
L 226.541966 237.687044 
L 225.321161 239.226954 
L 224.100357 236.763098 
L 224.100357 235.531171 
L 219.217138 237.995026 
L 219.827541 238.303008 
L 220.437943 238.303008 
L 221.048345 238.61099 
L 221.658748 239.226954 
L 219.217138 240.766863 
L 214.944322 240.150899 
L 212.502713 240.766863 
L 212.502713 237.995026 
L 205.788288 243.5387 
L 202.736276 243.846682 
L 200.905069 239.226954 
L 201.515471 239.226954 
L 202.736276 240.766863 
L 204.567483 241.690809 
L 205.788288 241.382827 
L 205.177885 239.226954 
L 204.567483 238.303008 
L 198.46346 235.531171 
L 199.073862 237.995026 
L 198.46346 239.842917 
L 197.242655 241.074845 
L 194.801046 241.998791 
z
" clip-path="url(#p6ce2d8aa0c)" style="fill: #e74c3c; stroke: #ffffff; stroke-width: 0.6"/>
    <path d="M 246.07484 209.352708 
L 246.685242 207.812799 
L 247.906047 206.888853 
L 249.126852 205.964907 
L 250.347656 205.656925 
L 260.724495 205.656925 
L 261.334898 205.656925 
L 263.776507 206.580871 
L 264.997312 206.888853 
L 266.828519 207.504817 
L 267.438921 209.044726 
L 266.828519 211.816564 
L 268.659726 222.59593 
L 271.101335 226.291713 
L 275.984553 226.599695 
L 272.932542 229.371532 
L 269.88053 228.755569 
L 267.438921 226.599695 
L 264.997312 225.67575 
L 263.776507 225.059786 
L 261.9453 224.13584 
L 259.503691 222.287948 
L 258.893289 220.748039 
L 258.893289 218.284184 
L 261.334898 213.972437 
L 261.9453 211.816564 
L 260.724495 208.736744 
L 258.282886 210.276654 
L 254.01007 214.896383 
L 253.399668 216.436292 
L 251.568461 216.744274 
L 249.737254 216.436292 
L 248.516449 215.512346 
L 247.295645 213.972437 
L 247.906047 212.124545 
L 247.906047 210.584636 
z
" clip-path="url(#p6ce2d8aa0c)" style="fill: #e74c3c; stroke: #ffffff; stroke-width: 0.6"/>
    <path d="M 277.205358 224.443822 
L 278.426162 224.443822 
L 280.257369 224.751804 
L 281.478174 225.367768 
L 284.530186 227.215659 
L 285.75099 227.215659 
L 287.582197 226.907677 
L 288.803002 226.599695 
L 299.179841 228.139605 
L 304.063059 227.215659 
L 306.504669 226.907677 
L 308.946278 228.139605 
L 310.167083 230.295478 
L 314.439899 239.226954 
L 311.387887 238.303008 
L 309.55668 235.839153 
L 308.335876 232.759333 
L 306.504669 230.60346 
L 307.725473 234.607225 
L 310.777485 241.074845 
L 311.99829 244.462646 
L 310.167083 244.770628 
L 308.335876 243.5387 
L 305.283864 239.226954 
L 304.063059 241.074845 
L 304.063059 241.998791 
L 302.842255 241.998791 
L 300.400646 237.07108 
L 296.127829 235.531171 
L 285.140588 236.763098 
L 281.478174 237.07108 
L 279.646967 236.147135 
L 278.426162 233.067315 
L 277.81576 231.219424 
z
" clip-path="url(#p6ce2d8aa0c)" style="fill: #e74c3c; stroke: #ffffff; stroke-width: 0.6"/>
    <path d="M 321.154324 242.922737 
L 322.375129 242.614755 
L 322.985531 242.306773 
L 323.595933 241.690809 
L 323.595933 240.766863 
L 329.699957 244.462646 
L 332.141566 245.694574 
L 336.414382 246.926501 
L 340.076796 248.158429 
L 343.128807 250.930266 
L 344.960014 254.626049 
L 343.73921 259.245778 
L 341.908003 259.861742 
L 339.466393 257.397886 
L 335.193577 251.854212 
L 332.141566 249.698339 
L 324.206336 246.310538 
z
" clip-path="url(#p6ce2d8aa0c)" style="fill: #e74c3c; stroke: #ffffff; stroke-width: 0.6"/>
    <path d="M 330.310359 289.428005 
L 330.310359 286.348186 
L 332.141566 284.808277 
L 333.972773 285.116258 
L 335.193577 284.192313 
L 335.193577 279.880566 
L 336.414382 276.800747 
L 337.024784 276.800747 
L 337.635187 277.724693 
L 337.024784 283.884331 
L 337.635187 287.888096 
L 335.80398 290.351951 
L 333.36237 291.275897 
z
" clip-path="url(#p6ce2d8aa0c)" style="fill: #e74c3c; stroke: #ffffff; stroke-width: 0.6"/>
    <path d="M 170.384954 265.713398 
L 170.384954 264.48147 
L 172.216161 262.633579 
L 173.436965 259.245778 
L 174.047367 255.549995 
L 174.047367 251.854212 
L 178.320184 251.238248 
L 178.320184 256.473941 
L 175.268172 262.941561 
z
" clip-path="url(#p6ce2d8aa0c)" style="fill: #e74c3c; stroke: #ffffff; stroke-width: 0.6"/>
    <path d="M 395.623406 298.359481 
L 396.233808 294.355716 
L 396.844211 290.351951 
L 398.065015 286.96415 
L 399.28582 289.735987 
L 399.896222 294.355716 
L 398.675418 298.975444 
L 396.844211 301.747282 
z
" clip-path="url(#p6ce2d8aa0c)" style="fill: #e74c3c; stroke: #ffffff; stroke-width: 0.6"/>
    <path d="M 384.636164 323.306015 
L 385.246567 319.918214 
L 385.856969 318.378305 
L 387.688176 318.378305 
L 388.908981 319.302251 
L 387.688176 321.766106 
L 385.246567 323.921979 
z
" clip-path="url(#p6ce2d8aa0c)" style="fill: #e74c3c; stroke: #ffffff; stroke-width: 0.6"/>
    <path d="M 234.477196 221.671985 
L 235.698001 219.516111 
L 236.918805 218.900147 
L 237.529208 219.824093 
L 237.529208 221.364003 
L 236.308403 222.287948 
L 235.087598 222.903912 
z
" clip-path="url(#p6ce2d8aa0c)" style="fill: #e74c3c; stroke: #ffffff; stroke-width: 0.6"/>
    <path d="M 302.842255 327.30978 
L 304.673462 325.769871 
L 305.894266 325.153907 
L 307.115071 324.537943 
L 306.504669 326.077853 
L 303.452657 327.617762 
z
" clip-path="url(#p6ce2d8aa0c)" style="fill: #e74c3c; stroke: #ffffff; stroke-width: 0.6"/>
    <path d="M 312.608692 325.153907 
L 313.829496 322.38207 
L 315.050301 321.458124 
L 315.050301 323.921979 
L 313.829496 326.693816 
z
" clip-path="url(#p6ce2d8aa0c)" style="fill: #e74c3c; stroke: #ffffff; stroke-width: 0.6"/>
    <path d="M 229.593978 225.983731 
L 230.814782 224.751804 
L 232.035587 224.13584 
L 232.035587 224.751804 
L 230.814782 225.983731 
z
" clip-path="url(#p6ce2d8aa0c)" style="fill: #e74c3c; stroke: #ffffff; stroke-width: 0.6"/>
   </g>
   <g id="text_1">
    <!-- Turks and Caicos Is. -->
    <g style="fill: #1a252f" transform="translate(190.297854 20.117344) scale(0.17 -0.17)">
     <defs>
      <path id="DejaVuSans-Bold-37" d="M 31 4666 
L 4331 4666 
L 4331 3756 
L 2784 3756 
L 2784 0 
L 1581 0 
L 1581 3756 
L 31 3756 
L 31 4666 
z
" transform="scale(0.015625)"/>
      <path id="DejaVuSans-Bold-58" d="M 500 1363 
L 500 3500 
L 1625 3500 
L 1625 3150 
Q 1625 2866 1622 2436 
Q 1619 2006 1619 1863 
Q 1619 1441 1641 1255 
Q 1663 1069 1716 984 
Q 1784 875 1895 815 
Q 2006 756 2150 756 
Q 2500 756 2700 1025 
Q 2900 1294 2900 1772 
L 2900 3500 
L 4019 3500 
L 4019 0 
L 2900 0 
L 2900 506 
Q 2647 200 2364 54 
Q 2081 -91 1741 -91 
Q 1134 -91 817 281 
Q 500 653 500 1363 
z
" transform="scale(0.015625)"/>
      <path id="DejaVuSans-Bold-55" d="M 3138 2547 
Q 2991 2616 2845 2648 
Q 2700 2681 2553 2681 
Q 2122 2681 1889 2404 
Q 1656 2128 1656 1613 
L 1656 0 
L 538 0 
L 538 3500 
L 1656 3500 
L 1656 2925 
Q 1872 3269 2151 3426 
Q 2431 3584 2822 3584 
Q 2878 3584 2943 3579 
Q 3009 3575 3134 3559 
L 3138 2547 
z
" transform="scale(0.015625)"/>
      <path id="DejaVuSans-Bold-4e" d="M 538 4863 
L 1656 4863 
L 1656 2216 
L 2944 3500 
L 4244 3500 
L 2534 1894 
L 4378 0 
L 3022 0 
L 1656 1459 
L 1656 0 
L 538 0 
L 538 4863 
z
" transform="scale(0.015625)"/>
      <path id="DejaVuSans-Bold-56" d="M 3272 3391 
L 3272 2541 
Q 2913 2691 2578 2766 
Q 2244 2841 1947 2841 
Q 1628 2841 1473 2761 
Q 1319 2681 1319 2516 
Q 1319 2381 1436 2309 
Q 1553 2238 1856 2203 
L 2053 2175 
Q 2913 2066 3209 1816 
Q 3506 1566 3506 1031 
Q 3506 472 3093 190 
Q 2681 -91 1863 -91 
Q 1516 -91 1145 -36 
Q 775 19 384 128 
L 384 978 
Q 719 816 1070 734 
Q 1422 653 1784 653 
Q 2113 653 2278 743 
Q 2444 834 2444 1013 
Q 2444 1163 2330 1236 
Q 2216 1309 1875 1350 
L 1678 1375 
Q 931 1469 631 1722 
Q 331 1975 331 2491 
Q 331 3047 712 3315 
Q 1094 3584 1881 3584 
Q 2191 3584 2531 3537 
Q 2872 3491 3272 3391 
z
" transform="scale(0.015625)"/>
      <path id="DejaVuSans-Bold-3" transform="scale(0.015625)"/>
      <path id="DejaVuSans-Bold-44" d="M 2106 1575 
Q 1756 1575 1579 1456 
Q 1403 1338 1403 1106 
Q 1403 894 1545 773 
Q 1688 653 1941 653 
Q 2256 653 2472 879 
Q 2688 1106 2688 1447 
L 2688 1575 
L 2106 1575 
z
M 3816 1997 
L 3816 0 
L 2688 0 
L 2688 519 
Q 2463 200 2181 54 
Q 1900 -91 1497 -91 
Q 953 -91 614 226 
Q 275 544 275 1050 
Q 275 1666 698 1953 
Q 1122 2241 2028 2241 
L 2688 2241 
L 2688 2328 
Q 2688 2594 2478 2717 
Q 2269 2841 1825 2841 
Q 1466 2841 1156 2769 
Q 847 2697 581 2553 
L 581 3406 
Q 941 3494 1303 3539 
Q 1666 3584 2028 3584 
Q 2975 3584 3395 3211 
Q 3816 2838 3816 1997 
z
" transform="scale(0.015625)"/>
      <path id="DejaVuSans-Bold-51" d="M 4056 2131 
L 4056 0 
L 2931 0 
L 2931 347 
L 2931 1631 
Q 2931 2084 2911 2256 
Q 2891 2428 2841 2509 
Q 2775 2619 2662 2680 
Q 2550 2741 2406 2741 
Q 2056 2741 1856 2470 
Q 1656 2200 1656 1722 
L 1656 0 
L 538 0 
L 538 3500 
L 1656 3500 
L 1656 2988 
Q 1909 3294 2193 3439 
Q 2478 3584 2822 3584 
Q 3428 3584 3742 3212 
Q 4056 2841 4056 2131 
z
" transform="scale(0.015625)"/>
      <path id="DejaVuSans-Bold-47" d="M 2919 2988 
L 2919 4863 
L 4044 4863 
L 4044 0 
L 2919 0 
L 2919 506 
Q 2688 197 2409 53 
Q 2131 -91 1766 -91 
Q 1119 -91 703 423 
Q 288 938 288 1747 
Q 288 2556 703 3070 
Q 1119 3584 1766 3584 
Q 2128 3584 2408 3439 
Q 2688 3294 2919 2988 
z
M 2181 722 
Q 2541 722 2730 984 
Q 2919 1247 2919 1747 
Q 2919 2247 2730 2509 
Q 2541 2772 2181 2772 
Q 1825 2772 1636 2509 
Q 1447 2247 1447 1747 
Q 1447 1247 1636 984 
Q 1825 722 2181 722 
z
" transform="scale(0.015625)"/>
      <path id="DejaVuSans-Bold-26" d="M 4288 256 
Q 3956 84 3597 -3 
Q 3238 -91 2847 -91 
Q 1681 -91 1000 561 
Q 319 1213 319 2328 
Q 319 3447 1000 4098 
Q 1681 4750 2847 4750 
Q 3238 4750 3597 4662 
Q 3956 4575 4288 4403 
L 4288 3438 
Q 3953 3666 3628 3772 
Q 3303 3878 2944 3878 
Q 2300 3878 1931 3465 
Q 1563 3053 1563 2328 
Q 1563 1606 1931 1193 
Q 2300 781 2944 781 
Q 3303 781 3628 887 
Q 3953 994 4288 1222 
L 4288 256 
z
" transform="scale(0.015625)"/>
      <path id="DejaVuSans-Bold-4c" d="M 538 3500 
L 1656 3500 
L 1656 0 
L 538 0 
L 538 3500 
z
M 538 4863 
L 1656 4863 
L 1656 3950 
L 538 3950 
L 538 4863 
z
" transform="scale(0.015625)"/>
      <path id="DejaVuSans-Bold-46" d="M 3366 3391 
L 3366 2478 
Q 3138 2634 2908 2709 
Q 2678 2784 2431 2784 
Q 1963 2784 1702 2511 
Q 1441 2238 1441 1747 
Q 1441 1256 1702 982 
Q 1963 709 2431 709 
Q 2694 709 2930 787 
Q 3166 866 3366 1019 
L 3366 103 
Q 3103 6 2833 -42 
Q 2563 -91 2291 -91 
Q 1344 -91 809 395 
Q 275 881 275 1747 
Q 275 2613 809 3098 
Q 1344 3584 2291 3584 
Q 2566 3584 2833 3536 
Q 3100 3488 3366 3391 
z
" transform="scale(0.015625)"/>
      <path id="DejaVuSans-Bold-52" d="M 2203 2784 
Q 1831 2784 1636 2517 
Q 1441 2250 1441 1747 
Q 1441 1244 1636 976 
Q 1831 709 2203 709 
Q 2569 709 2762 976 
Q 2956 1244 2956 1747 
Q 2956 2250 2762 2517 
Q 2569 2784 2203 2784 
z
M 2203 3584 
Q 3106 3584 3614 3096 
Q 4122 2609 4122 1747 
Q 4122 884 3614 396 
Q 3106 -91 2203 -91 
Q 1297 -91 786 396 
Q 275 884 275 1747 
Q 275 2609 786 3096 
Q 1297 3584 2203 3584 
z
" transform="scale(0.015625)"/>
      <path id="DejaVuSans-Bold-2c" d="M 588 4666 
L 1791 4666 
L 1791 0 
L 588 0 
L 588 4666 
z
" transform="scale(0.015625)"/>
      <path id="DejaVuSans-Bold-11" d="M 653 1209 
L 1778 1209 
L 1778 0 
L 653 0 
L 653 1209 
z
" transform="scale(0.015625)"/>
     </defs>
     <use xlink:href="#DejaVuSans-Bold-37"/>
     <use xlink:href="#DejaVuSans-Bold-58" transform="translate(57.234375 0)"/>
     <use xlink:href="#DejaVuSans-Bold-55" transform="translate(128.421875 0)"/>
     <use xlink:href="#DejaVuSans-Bold-4e" transform="translate(177.734375 0)"/>
     <use xlink:href="#DejaVuSans-Bold-56" transform="translate(244.234375 0)"/>
     <use xlink:href="#DejaVuSans-Bold-3" transform="translate(303.75 0)"/>
     <use xlink:href="#DejaVuSans-Bold-44" transform="translate(338.5625 0)"/>
     <use xlink:href="#DejaVuSans-Bold-51" transform="translate(406.046875 0)"/>
     <use xlink:href="#DejaVuSans-Bold-47" transform="translate(477.234375 0)"/>
     <use xlink:href="#DejaVuSans-Bold-3" transform="translate(548.8125 0)"/>
     <use xlink:href="#DejaVuSans-Bold-26" transform="translate(583.625 0)"/>
     <use xlink:href="#DejaVuSans-Bold-44" transform="translate(657.015625 0)"/>
     <use xlink:href="#DejaVuSans-Bold-4c" transform="translate(724.5 0)"/>
     <use xlink:href="#DejaVuSans-Bold-46" transform="translate(758.78125 0)"/>
     <use xlink:href="#DejaVuSans-Bold-52" transform="translate(818.0625 0)"/>
     <use xlink:href="#DejaVuSans-Bold-56" transform="translate(886.765625 0)"/>
     <use xlink:href="#DejaVuSans-Bold-3" transform="translate(946.28125 0)"/>
     <use xlink:href="#DejaVuSans-Bold-2c" transform="translate(981.09375 0)"/>
     <use xlink:href="#DejaVuSans-Bold-56" transform="translate(1018.296875 0)"/>
     <use xlink:href="#DejaVuSans-Bold-11" transform="translate(1077.8125 0)"/>
    </g>
   </g>
   <g id="legend_1">
    <g id="patch_2">
     <path d="M 13.5 498.657344 
L 130.895156 498.657344 
Q 132.695156 498.657344 132.695156 496.857344 
L 132.695156 470.755937 
Q 132.695156 468.955937 130.895156 468.955937 
L 13.5 468.955937 
Q 11.7 468.955937 11.7 470.755937 
L 11.7 496.857344 
Q 11.7 498.657344 13.5 498.657344 
z
" style="fill: #ffffff; opacity: 0.85; stroke: #cccccc; stroke-linejoin: miter"/>
    </g>
    <g id="patch_3">
     <path d="M 15.3 479.394531 
L 33.3 479.394531 
L 33.3 473.094531 
L 15.3 473.094531 
z
" style="fill: #e74c3c; stroke: #888888; stroke-linejoin: miter"/>
    </g>
    <g id="text_2">
     <!-- Turks and Caicos Is. -->
     <g transform="translate(40.5 479.394531) scale(0.09 -0.09)">
      <defs>
       <path id="DejaVuSans-37" d="M -19 4666 
L 3928 4666 
L 3928 4134 
L 2272 4134 
L 2272 0 
L 1638 0 
L 1638 4134 
L -19 4134 
L -19 4666 
z
" transform="scale(0.015625)"/>
       <path id="DejaVuSans-58" d="M 544 1381 
L 544 3500 
L 1119 3500 
L 1119 1403 
Q 1119 906 1312 657 
Q 1506 409 1894 409 
Q 2359 409 2629 706 
Q 2900 1003 2900 1516 
L 2900 3500 
L 3475 3500 
L 3475 0 
L 2900 0 
L 2900 538 
Q 2691 219 2414 64 
Q 2138 -91 1772 -91 
Q 1169 -91 856 284 
Q 544 659 544 1381 
z
M 1991 3584 
L 1991 3584 
z
" transform="scale(0.015625)"/>
       <path id="DejaVuSans-55" d="M 2631 2963 
Q 2534 3019 2420 3045 
Q 2306 3072 2169 3072 
Q 1681 3072 1420 2755 
Q 1159 2438 1159 1844 
L 1159 0 
L 581 0 
L 581 3500 
L 1159 3500 
L 1159 2956 
Q 1341 3275 1631 3429 
Q 1922 3584 2338 3584 
Q 2397 3584 2469 3576 
Q 2541 3569 2628 3553 
L 2631 2963 
z
" transform="scale(0.015625)"/>
       <path id="DejaVuSans-4e" d="M 581 4863 
L 1159 4863 
L 1159 1991 
L 2875 3500 
L 3609 3500 
L 1753 1863 
L 3688 0 
L 2938 0 
L 1159 1709 
L 1159 0 
L 581 0 
L 581 4863 
z
" transform="scale(0.015625)"/>
       <path id="DejaVuSans-56" d="M 2834 3397 
L 2834 2853 
Q 2591 2978 2328 3040 
Q 2066 3103 1784 3103 
Q 1356 3103 1142 2972 
Q 928 2841 928 2578 
Q 928 2378 1081 2264 
Q 1234 2150 1697 2047 
L 1894 2003 
Q 2506 1872 2764 1633 
Q 3022 1394 3022 966 
Q 3022 478 2636 193 
Q 2250 -91 1575 -91 
Q 1294 -91 989 -36 
Q 684 19 347 128 
L 347 722 
Q 666 556 975 473 
Q 1284 391 1588 391 
Q 1994 391 2212 530 
Q 2431 669 2431 922 
Q 2431 1156 2273 1281 
Q 2116 1406 1581 1522 
L 1381 1569 
Q 847 1681 609 1914 
Q 372 2147 372 2553 
Q 372 3047 722 3315 
Q 1072 3584 1716 3584 
Q 2034 3584 2315 3537 
Q 2597 3491 2834 3397 
z
" transform="scale(0.015625)"/>
       <path id="DejaVuSans-3" transform="scale(0.015625)"/>
       <path id="DejaVuSans-44" d="M 2194 1759 
Q 1497 1759 1228 1600 
Q 959 1441 959 1056 
Q 959 750 1161 570 
Q 1363 391 1709 391 
Q 2188 391 2477 730 
Q 2766 1069 2766 1631 
L 2766 1759 
L 2194 1759 
z
M 3341 1997 
L 3341 0 
L 2766 0 
L 2766 531 
Q 2569 213 2275 61 
Q 1981 -91 1556 -91 
Q 1019 -91 701 211 
Q 384 513 384 1019 
Q 384 1609 779 1909 
Q 1175 2209 1959 2209 
L 2766 2209 
L 2766 2266 
Q 2766 2663 2505 2880 
Q 2244 3097 1772 3097 
Q 1472 3097 1187 3025 
Q 903 2953 641 2809 
L 641 3341 
Q 956 3463 1253 3523 
Q 1550 3584 1831 3584 
Q 2591 3584 2966 3190 
Q 3341 2797 3341 1997 
z
" transform="scale(0.015625)"/>
       <path id="DejaVuSans-51" d="M 3513 2113 
L 3513 0 
L 2938 0 
L 2938 2094 
Q 2938 2591 2744 2837 
Q 2550 3084 2163 3084 
Q 1697 3084 1428 2787 
Q 1159 2491 1159 1978 
L 1159 0 
L 581 0 
L 581 3500 
L 1159 3500 
L 1159 2956 
Q 1366 3272 1645 3428 
Q 1925 3584 2291 3584 
Q 2894 3584 3203 3211 
Q 3513 2838 3513 2113 
z
" transform="scale(0.015625)"/>
       <path id="DejaVuSans-47" d="M 2906 2969 
L 2906 4863 
L 3481 4863 
L 3481 0 
L 2906 0 
L 2906 525 
Q 2725 213 2448 61 
Q 2172 -91 1784 -91 
Q 1150 -91 751 415 
Q 353 922 353 1747 
Q 353 2572 751 3078 
Q 1150 3584 1784 3584 
Q 2172 3584 2448 3432 
Q 2725 3281 2906 2969 
z
M 947 1747 
Q 947 1113 1208 752 
Q 1469 391 1925 391 
Q 2381 391 2643 752 
Q 2906 1113 2906 1747 
Q 2906 2381 2643 2742 
Q 2381 3103 1925 3103 
Q 1469 3103 1208 2742 
Q 947 2381 947 1747 
z
" transform="scale(0.015625)"/>
       <path id="DejaVuSans-26" d="M 4122 4306 
L 4122 3641 
Q 3803 3938 3442 4084 
Q 3081 4231 2675 4231 
Q 1875 4231 1450 3742 
Q 1025 3253 1025 2328 
Q 1025 1406 1450 917 
Q 1875 428 2675 428 
Q 3081 428 3442 575 
Q 3803 722 4122 1019 
L 4122 359 
Q 3791 134 3420 21 
Q 3050 -91 2638 -91 
Q 1578 -91 968 557 
Q 359 1206 359 2328 
Q 359 3453 968 4101 
Q 1578 4750 2638 4750 
Q 3056 4750 3426 4639 
Q 3797 4528 4122 4306 
z
" transform="scale(0.015625)"/>
       <path id="DejaVuSans-4c" d="M 603 3500 
L 1178 3500 
L 1178 0 
L 603 0 
L 603 3500 
z
M 603 4863 
L 1178 4863 
L 1178 4134 
L 603 4134 
L 603 4863 
z
" transform="scale(0.015625)"/>
       <path id="DejaVuSans-46" d="M 3122 3366 
L 3122 2828 
Q 2878 2963 2633 3030 
Q 2388 3097 2138 3097 
Q 1578 3097 1268 2742 
Q 959 2388 959 1747 
Q 959 1106 1268 751 
Q 1578 397 2138 397 
Q 2388 397 2633 464 
Q 2878 531 3122 666 
L 3122 134 
Q 2881 22 2623 -34 
Q 2366 -91 2075 -91 
Q 1284 -91 818 406 
Q 353 903 353 1747 
Q 353 2603 823 3093 
Q 1294 3584 2113 3584 
Q 2378 3584 2631 3529 
Q 2884 3475 3122 3366 
z
" transform="scale(0.015625)"/>
       <path id="DejaVuSans-52" d="M 1959 3097 
Q 1497 3097 1228 2736 
Q 959 2375 959 1747 
Q 959 1119 1226 758 
Q 1494 397 1959 397 
Q 2419 397 2687 759 
Q 2956 1122 2956 1747 
Q 2956 2369 2687 2733 
Q 2419 3097 1959 3097 
z
M 1959 3584 
Q 2709 3584 3137 3096 
Q 3566 2609 3566 1747 
Q 3566 888 3137 398 
Q 2709 -91 1959 -91 
Q 1206 -91 779 398 
Q 353 888 353 1747 
Q 353 2609 779 3096 
Q 1206 3584 1959 3584 
z
" transform="scale(0.015625)"/>
       <path id="DejaVuSans-2c" d="M 628 4666 
L 1259 4666 
L 1259 0 
L 628 0 
L 628 4666 
z
" transform="scale(0.015625)"/>
       <path id="DejaVuSans-11" d="M 684 794 
L 1344 794 
L 1344 0 
L 684 0 
L 684 794 
z
" transform="scale(0.015625)"/>
      </defs>
      <use xlink:href="#DejaVuSans-37"/>
      <use xlink:href="#DejaVuSans-58" transform="translate(45.890625 0)"/>
      <use xlink:href="#DejaVuSans-55" transform="translate(109.265625 0)"/>
      <use xlink:href="#DejaVuSans-4e" transform="translate(150.375 0)"/>
      <use xlink:href="#DejaVuSans-56" transform="translate(208.28125 0)"/>
      <use xlink:href="#DejaVuSans-3" transform="translate(260.375 0)"/>
      <use xlink:href="#DejaVuSans-44" transform="translate(292.15625 0)"/>
      <use xlink:href="#DejaVuSans-51" transform="translate(353.4375 0)"/>
      <use xlink:href="#DejaVuSans-47" transform="translate(416.8125 0)"/>
      <use xlink:href="#DejaVuSans-3" transform="translate(480.296875 0)"/>
      <use xlink:href="#DejaVuSans-26" transform="translate(512.078125 0)"/>
      <use xlink:href="#DejaVuSans-44" transform="translate(581.90625 0)"/>
      <use xlink:href="#DejaVuSans-4c" transform="translate(643.1875 0)"/>
      <use xlink:href="#DejaVuSans-46" transform="translate(670.96875 0)"/>
      <use xlink:href="#DejaVuSans-52" transform="translate(725.953125 0)"/>
      <use xlink:href="#DejaVuSans-56" transform="translate(787.140625 0)"/>
      <use xlink:href="#DejaVuSans-3" transform="translate(839.234375 0)"/>
      <use xlink:href="#DejaVuSans-2c" transform="translate(871.015625 0)"/>
      <use xlink:href="#DejaVuSans-56" transform="translate(900.515625 0)"/>
      <use xlink:href="#DejaVuSans-11" transform="translate(952.609375 0)"/>
     </g>
    </g>
    <g id="patch_4">
     <path d="M 15.3 492.895234 
L 33.3 492.895234 
L 33.3 486.595234 
L 15.3 486.595234 
z
" style="fill: #bdc3c7; stroke: #888888; stroke-linejoin: miter"/>
    </g>
    <g id="text_3">
     <!-- Neighbors -->
     <g transform="translate(40.5 492.895234) scale(0.09 -0.09)">
      <defs>
       <path id="DejaVuSans-31" d="M 628 4666 
L 1478 4666 
L 3547 763 
L 3547 4666 
L 4159 4666 
L 4159 0 
L 3309 0 
L 1241 3903 
L 1241 0 
L 628 0 
L 628 4666 
z
" transform="scale(0.015625)"/>
       <path id="DejaVuSans-48" d="M 3597 1894 
L 3597 1613 
L 953 1613 
Q 991 1019 1311 708 
Q 1631 397 2203 397 
Q 2534 397 2845 478 
Q 3156 559 3463 722 
L 3463 178 
Q 3153 47 2828 -22 
Q 2503 -91 2169 -91 
Q 1331 -91 842 396 
Q 353 884 353 1716 
Q 353 2575 817 3079 
Q 1281 3584 2069 3584 
Q 2775 3584 3186 3129 
Q 3597 2675 3597 1894 
z
M 3022 2063 
Q 3016 2534 2758 2815 
Q 2500 3097 2075 3097 
Q 1594 3097 1305 2825 
Q 1016 2553 972 2059 
L 3022 2063 
z
" transform="scale(0.015625)"/>
       <path id="DejaVuSans-4a" d="M 2906 1791 
Q 2906 2416 2648 2759 
Q 2391 3103 1925 3103 
Q 1463 3103 1205 2759 
Q 947 2416 947 1791 
Q 947 1169 1205 825 
Q 1463 481 1925 481 
Q 2391 481 2648 825 
Q 2906 1169 2906 1791 
z
M 3481 434 
Q 3481 -459 3084 -895 
Q 2688 -1331 1869 -1331 
Q 1566 -1331 1297 -1286 
Q 1028 -1241 775 -1147 
L 775 -588 
Q 1028 -725 1275 -790 
Q 1522 -856 1778 -856 
Q 2344 -856 2625 -561 
Q 2906 -266 2906 331 
L 2906 616 
Q 2728 306 2450 153 
Q 2172 0 1784 0 
Q 1141 0 747 490 
Q 353 981 353 1791 
Q 353 2603 747 3093 
Q 1141 3584 1784 3584 
Q 2172 3584 2450 3431 
Q 2728 3278 2906 2969 
L 2906 3500 
L 3481 3500 
L 3481 434 
z
" transform="scale(0.015625)"/>
       <path id="DejaVuSans-4b" d="M 3513 2113 
L 3513 0 
L 2938 0 
L 2938 2094 
Q 2938 2591 2744 2837 
Q 2550 3084 2163 3084 
Q 1697 3084 1428 2787 
Q 1159 2491 1159 1978 
L 1159 0 
L 581 0 
L 581 4863 
L 1159 4863 
L 1159 2956 
Q 1366 3272 1645 3428 
Q 1925 3584 2291 3584 
Q 2894 3584 3203 3211 
Q 3513 2838 3513 2113 
z
" transform="scale(0.015625)"/>
       <path id="DejaVuSans-45" d="M 3116 1747 
Q 3116 2381 2855 2742 
Q 2594 3103 2138 3103 
Q 1681 3103 1420 2742 
Q 1159 2381 1159 1747 
Q 1159 1113 1420 752 
Q 1681 391 2138 391 
Q 2594 391 2855 752 
Q 3116 1113 3116 1747 
z
M 1159 2969 
Q 1341 3281 1617 3432 
Q 1894 3584 2278 3584 
Q 2916 3584 3314 3078 
Q 3713 2572 3713 1747 
Q 3713 922 3314 415 
Q 2916 -91 2278 -91 
Q 1894 -91 1617 61 
Q 1341 213 1159 525 
L 1159 0 
L 581 0 
L 581 4863 
L 1159 4863 
L 1159 2969 
z
" transform="scale(0.015625)"/>
      </defs>
      <use xlink:href="#DejaVuSans-31"/>
      <use xlink:href="#DejaVuSans-48" transform="translate(74.8125 0)"/>
      <use xlink:href="#DejaVuSans-4c" transform="translate(136.34375 0)"/>
      <use xlink:href="#DejaVuSans-4a" transform="translate(164.125 0)"/>
      <use xlink:href="#DejaVuSans-4b" transform="translate(227.609375 0)"/>
      <use xlink:href="#DejaVuSans-45" transform="translate(290.984375 0)"/>
      <use xlink:href="#DejaVuSans-52" transform="translate(354.46875 0)"/>
      <use xlink:href="#DejaVuSans-55" transform="translate(415.65625 0)"/>
      <use xlink:href="#DejaVuSans-56" transform="translate(456.765625 0)"/>
     </g>
    </g>
   </g>
  </g>
 </g>
 <defs>
  <clipPath id="p6ce2d8aa0c">
   <rect x="7.2" y="30.117344" width="555.881176" height="473.04"/>
  </clipPath>
 </defs>
</svg>
