<?xml version="1.0" encoding="utf-8" standalone="no"?>
<!DOCTYPE svg PUBLIC "-//W3C//DTD SVG 1.1//EN"
  "http://www.w3.org/Graphics/SVG/1.1/DTD/svg11.dtd">
<svg xmlns:xlink="http://www.w3.org/1999/xlink" width="424.145306pt" height="510.357344pt" viewBox="0 0 424.145306 510.357344" xmlns="http://www.w3.org/2000/svg" version="1.1">
 <metadata>
  <rdf:RDF xmlns:dc="http://purl.org/dc/elements/1.1/" xmlns:cc="http://creativecommons.org/ns#" xmlns:rdf="http://www.w3.org/1999/02/22-rdf-syntax-ns#">
   <cc:Work>
    <dc:type rdf:resource="http://purl.org/dc/dcmitype/StillImage"/>
    <dc:date>2026-06-19T08:14:16.071151</dc:date>
    <dc:format>image/svg+xml</dc:format>
    <dc:creator>
     <cc:Agent>
      <dc:title>Matplotlib v3.11.0, https://matplotlib.org/</dc:title>
     </cc:Agent>
    </dc:creator>
   </cc:Work>
  </rdf:RDF>
 </metadata>
 <defs>
  <style type="text/css">*{stroke-linejoin: round; stroke-linecap: butt}</style>
 </defs>
 <g id="figure_1">
  <g id="patch_1">
   <path d="M -0 510.357344 
L 424.145306 510.357344 
L 424.145306 0 
L -0 0 
z
" style="fill: #d6eaf8"/>
  </g>
  <g id="axes_1">
   <g id="PatchCollection_1">
    <path d="M 227.800094 199.40115 
L 229.766024 197.138393 
L 233.042574 196.815143 
L 235.008504 194.229135 
L 236.319124 191.966379 
L 236.974434 189.05712 
L 240.906294 186.794364 
L 243.527534 187.764116 
L 247.459394 186.794364 
L 249.425324 187.440866 
L 255.323114 186.471113 
L 261.220904 187.117615 
L 263.186834 189.05712 
L 262.531524 190.026873 
L 260.565594 189.703622 
L 257.944354 189.05712 
L 255.323114 190.350124 
L 254.667804 191.643128 
L 252.701874 192.936131 
L 251.391254 193.582633 
L 250.080634 193.259382 
L 248.770014 192.61288 
L 247.459394 192.289629 
L 246.148774 192.289629 
L 246.148774 192.936131 
L 244.182844 194.552386 
L 242.872224 195.84539 
L 241.561604 195.522139 
L 240.250984 197.784895 
L 237.629744 200.047652 
L 234.353194 199.724401 
L 231.731954 199.724401 
z
" clip-path="url(#pd879304450)" style="fill: #bdc3c7; stroke: #ffffff; stroke-width: 0.5"/>
    <path d="M 276.948345 188.410618 
L 281.535515 182.268851 
L 282.846135 179.036341 
L 282.190825 175.15733 
L 282.846135 175.15733 
L 283.501445 175.480581 
L 283.501445 176.127083 
L 284.156755 176.450334 
L 294.641715 176.127083 
L 297.918265 175.15733 
L 296.607645 178.066588 
L 293.331095 180.006094 
L 290.054545 180.975847 
L 288.088615 181.299098 
L 286.777995 182.915352 
L 283.501445 185.824611 
L 279.569585 188.087367 
z
" clip-path="url(#pd879304450)" style="fill: #bdc3c7; stroke: #ffffff; stroke-width: 0.5"/>
    <path d="M 247.459394 205.219667 
L 249.425324 204.896416 
L 250.735944 204.573165 
L 251.391254 204.573165 
L 252.046564 204.249914 
L 254.012494 204.573165 
L 254.012494 206.18942 
L 254.012494 208.775427 
L 253.357184 209.098678 
L 252.701874 207.482423 
L 250.735944 206.51267 
L 248.114704 205.866169 
z
" clip-path="url(#pd879304450)" style="fill: #bdc3c7; stroke: #ffffff; stroke-width: 0.5"/>
    <path d="M 259.254974 184.208356 
L 259.910284 182.915352 
L 259.254974 180.975847 
L 259.910284 179.359592 
L 260.565594 178.71309 
L 261.220904 179.036341 
L 261.220904 180.975847 
L 261.220904 181.9456 
L 260.565594 183.885105 
L 259.910284 184.854858 
z
" clip-path="url(#pd879304450)" style="fill: #bdc3c7; stroke: #ffffff; stroke-width: 0.5"/>
    <path d="M 282.846135 130.548702 
L 299.228885 130.548702 
L 305.781986 132.811458 
L 308.403226 139.276477 
L 306.437296 138.953226 
L 295.952335 134.750964 
L 288.088615 134.104462 
L 284.812065 133.134709 
z
" clip-path="url(#pd879304450)" style="fill: #bdc3c7; stroke: #ffffff; stroke-width: 0.5"/>
    <path d="M 216.659823 188.733869 
L 217.315133 187.117615 
L 222.557613 186.147862 
L 224.523543 186.471113 
L 225.178853 187.117615 
L 225.834164 188.410618 
L 224.523543 189.380371 
L 219.281063 188.733869 
z
" clip-path="url(#pd879304450)" style="fill: #bdc3c7; stroke: #ffffff; stroke-width: 0.5"/>
   </g>
   <g id="PatchCollection_2">
    <path d="M 194.379283 333.873538 
L 195.689903 330.641028 
L 196.345213 328.055021 
L 195.689903 319.973747 
L 196.345213 317.710991 
L 197.655833 316.094736 
L 204.864243 318.357493 
L 208.796103 316.417987 
L 212.727963 313.83198 
L 217.315133 312.862227 
L 217.315133 313.508729 
L 224.523543 318.034242 
L 228.455404 319.650497 
L 230.421334 320.620249 
L 231.731954 322.236504 
L 236.319124 318.680744 
L 242.872224 317.064489 
L 250.080634 317.710991 
L 255.978424 319.650497 
L 255.978424 320.9435 
L 250.735944 321.266751 
L 246.804084 322.559755 
L 239.595674 326.115515 
L 235.663814 327.408519 
L 197.655833 332.903785 
z
" clip-path="url(#pd879304450)" style="fill: #e74c3c; stroke: #ffffff; stroke-width: 0.6"/>
    <path d="M 168.166882 205.542918 
L 173.409362 202.633659 
L 177.996532 201.340656 
L 184.549632 201.663906 
L 187.170873 203.603412 
L 189.136803 203.280161 
L 185.860252 201.017405 
L 184.549632 199.40115 
L 188.481493 200.370903 
L 195.034593 204.249914 
L 201.587693 208.128925 
L 204.864243 212.331187 
L 202.243003 212.654438 
L 200.932383 212.331187 
L 198.966453 212.977689 
L 197.655833 214.917195 
L 191.758043 212.654438 
L 189.792113 211.361434 
L 187.826183 208.128925 
L 187.170873 210.068431 
L 185.860252 208.775427 
L 181.928392 209.421929 
L 178.651842 209.098678 
L 176.685912 206.51267 
L 170.788122 208.452176 
z
" clip-path="url(#pd879304450)" style="fill: #e74c3c; stroke: #ffffff; stroke-width: 0.6"/>
    <path d="M 211.417343 210.391682 
L 214.038583 206.18942 
L 217.315133 204.896416 
L 220.591683 203.926663 
L 219.936373 202.633659 
L 221.246993 201.663906 
L 227.800094 203.280161 
L 230.421334 203.926663 
L 233.042574 205.219667 
L 236.319124 206.835921 
L 236.974434 208.775427 
L 235.008504 209.098678 
L 229.766024 207.482423 
L 228.455404 208.128925 
L 230.421334 210.714933 
L 229.110714 215.240446 
L 223.212923 212.007936 
L 214.038583 212.977689 
z
" clip-path="url(#pd879304450)" style="fill: #e74c3c; stroke: #ffffff; stroke-width: 0.6"/>
   </g>
   <g id="text_1">
    <g id="patch_2">
     <path d="M 208.555679 198.321281 
L 272.479898 198.321281 
Q 273.879898 198.321281 273.879898 196.921281 
L 273.879898 189.920734 
Q 273.879898 188.520734 272.479898 188.520734 
L 208.555679 188.520734 
Q 207.155679 188.520734 207.155679 189.920734 
L 207.155679 196.921281 
Q 207.155679 198.321281 208.555679 198.321281 
z
" clip-path="url(#pd879304450)" style="fill: #ffffff; opacity: 0.6"/>
    </g>
    <g clip-path="url(#pd879304450)">
     <!-- British Virgin Is. -->
     <g style="fill: #1a252f" transform="translate(208.555679 195.239641) scale(0.07 -0.07)">
      <defs>
       <path id="DejaVuSans-Bold-25" d="M 2456 2859 
Q 2741 2859 2887 2984 
Q 3034 3109 3034 3353 
Q 3034 3594 2887 3720 
Q 2741 3847 2456 3847 
L 1791 3847 
L 1791 2859 
L 2456 2859 
z
M 2497 819 
Q 2859 819 3042 972 
Q 3225 1125 3225 1434 
Q 3225 1738 3044 1889 
Q 2863 2041 2497 2041 
L 1791 2041 
L 1791 819 
L 2497 819 
z
M 3616 2497 
Q 4003 2384 4215 2081 
Q 4428 1778 4428 1338 
Q 4428 663 3972 331 
Q 3516 0 2584 0 
L 588 0 
L 588 4666 
L 2394 4666 
Q 3366 4666 3802 4372 
Q 4238 4078 4238 3431 
Q 4238 3091 4078 2852 
Q 3919 2613 3616 2497 
z
" transform="scale(0.015625)"/>
       <path id="DejaVuSans-Bold-55" d="M 3138 2547 
Q 2991 2616 2845 2648 
Q 2700 2681 2553 2681 
Q 2122 2681 1889 2404 
Q 1656 2128 1656 1613 
L 1656 0 
L 538 0 
L 538 3500 
L 1656 3500 
L 1656 2925 
Q 1872 3269 2151 3426 
Q 2431 3584 2822 3584 
Q 2878 3584 2943 3579 
Q 3009 3575 3134 3559 
L 3138 2547 
z
" transform="scale(0.015625)"/>
       <path id="DejaVuSans-Bold-4c" d="M 538 3500 
L 1656 3500 
L 1656 0 
L 538 0 
L 538 3500 
z
M 538 4863 
L 1656 4863 
L 1656 3950 
L 538 3950 
L 538 4863 
z
" transform="scale(0.015625)"/>
       <path id="DejaVuSans-Bold-57" d="M 1759 4494 
L 1759 3500 
L 2913 3500 
L 2913 2700 
L 1759 2700 
L 1759 1216 
Q 1759 972 1856 886 
Q 1953 800 2241 800 
L 2816 800 
L 2816 0 
L 1856 0 
Q 1194 0 917 276 
Q 641 553 641 1216 
L 641 2700 
L 84 2700 
L 84 3500 
L 641 3500 
L 641 4494 
L 1759 4494 
z
" transform="scale(0.015625)"/>
       <path id="DejaVuSans-Bold-56" d="M 3272 3391 
L 3272 2541 
Q 2913 2691 2578 2766 
Q 2244 2841 1947 2841 
Q 1628 2841 1473 2761 
Q 1319 2681 1319 2516 
Q 1319 2381 1436 2309 
Q 1553 2238 1856 2203 
L 2053 2175 
Q 2913 2066 3209 1816 
Q 3506 1566 3506 1031 
Q 3506 472 3093 190 
Q 2681 -91 1863 -91 
Q 1516 -91 1145 -36 
Q 775 19 384 128 
L 384 978 
Q 719 816 1070 734 
Q 1422 653 1784 653 
Q 2113 653 2278 743 
Q 2444 834 2444 1013 
Q 2444 1163 2330 1236 
Q 2216 1309 1875 1350 
L 1678 1375 
Q 931 1469 631 1722 
Q 331 1975 331 2491 
Q 331 3047 712 3315 
Q 1094 3584 1881 3584 
Q 2191 3584 2531 3537 
Q 2872 3491 3272 3391 
z
" transform="scale(0.015625)"/>
       <path id="DejaVuSans-Bold-4b" d="M 4056 2131 
L 4056 0 
L 2931 0 
L 2931 347 
L 2931 1625 
Q 2931 2084 2911 2256 
Q 2891 2428 2841 2509 
Q 2775 2619 2662 2680 
Q 2550 2741 2406 2741 
Q 2056 2741 1856 2470 
Q 1656 2200 1656 1722 
L 1656 0 
L 538 0 
L 538 4863 
L 1656 4863 
L 1656 2988 
Q 1909 3294 2193 3439 
Q 2478 3584 2822 3584 
Q 3428 3584 3742 3212 
Q 4056 2841 4056 2131 
z
" transform="scale(0.015625)"/>
       <path id="DejaVuSans-Bold-3" transform="scale(0.015625)"/>
       <path id="DejaVuSans-Bold-39" d="M 31 4666 
L 1241 4666 
L 2478 1222 
L 3713 4666 
L 4922 4666 
L 3194 0 
L 1759 0 
L 31 4666 
z
" transform="scale(0.015625)"/>
       <path id="DejaVuSans-Bold-4a" d="M 2919 594 
Q 2688 288 2409 144 
Q 2131 0 1766 0 
Q 1125 0 706 504 
Q 288 1009 288 1791 
Q 288 2575 706 3076 
Q 1125 3578 1766 3578 
Q 2131 3578 2409 3434 
Q 2688 3291 2919 2981 
L 2919 3500 
L 4044 3500 
L 4044 353 
Q 4044 -491 3511 -936 
Q 2978 -1381 1966 -1381 
Q 1638 -1381 1331 -1331 
Q 1025 -1281 716 -1178 
L 716 -306 
Q 1009 -475 1290 -558 
Q 1572 -641 1856 -641 
Q 2406 -641 2662 -400 
Q 2919 -159 2919 353 
L 2919 594 
z
M 2181 2772 
Q 1834 2772 1640 2515 
Q 1447 2259 1447 1791 
Q 1447 1309 1634 1061 
Q 1822 813 2181 813 
Q 2531 813 2725 1069 
Q 2919 1325 2919 1791 
Q 2919 2259 2725 2515 
Q 2531 2772 2181 2772 
z
" transform="scale(0.015625)"/>
       <path id="DejaVuSans-Bold-51" d="M 4056 2131 
L 4056 0 
L 2931 0 
L 2931 347 
L 2931 1631 
Q 2931 2084 2911 2256 
Q 2891 2428 2841 2509 
Q 2775 2619 2662 2680 
Q 2550 2741 2406 2741 
Q 2056 2741 1856 2470 
Q 1656 2200 1656 1722 
L 1656 0 
L 538 0 
L 538 3500 
L 1656 3500 
L 1656 2988 
Q 1909 3294 2193 3439 
Q 2478 3584 2822 3584 
Q 3428 3584 3742 3212 
Q 4056 2841 4056 2131 
z
" transform="scale(0.015625)"/>
       <path id="DejaVuSans-Bold-2c" d="M 588 4666 
L 1791 4666 
L 1791 0 
L 588 0 
L 588 4666 
z
" transform="scale(0.015625)"/>
       <path id="DejaVuSans-Bold-11" d="M 653 1209 
L 1778 1209 
L 1778 0 
L 653 0 
L 653 1209 
z
" transform="scale(0.015625)"/>
      </defs>
      <use xlink:href="#DejaVuSans-Bold-25"/>
      <use xlink:href="#DejaVuSans-Bold-55" transform="translate(76.21875 0)"/>
      <use xlink:href="#DejaVuSans-Bold-4c" transform="translate(125.53125 0)"/>
      <use xlink:href="#DejaVuSans-Bold-57" transform="translate(159.8125 0)"/>
      <use xlink:href="#DejaVuSans-Bold-4c" transform="translate(207.609375 0)"/>
      <use xlink:href="#DejaVuSans-Bold-56" transform="translate(241.890625 0)"/>
      <use xlink:href="#DejaVuSans-Bold-4b" transform="translate(301.40625 0)"/>
      <use xlink:href="#DejaVuSans-Bold-3" transform="translate(372.59375 0)"/>
      <use xlink:href="#DejaVuSans-Bold-39" transform="translate(407.40625 0)"/>
      <use xlink:href="#DejaVuSans-Bold-4c" transform="translate(483.046875 0)"/>
      <use xlink:href="#DejaVuSans-Bold-55" transform="translate(517.328125 0)"/>
      <use xlink:href="#DejaVuSans-Bold-4a" transform="translate(566.640625 0)"/>
      <use xlink:href="#DejaVuSans-Bold-4c" transform="translate(638.21875 0)"/>
      <use xlink:href="#DejaVuSans-Bold-51" transform="translate(672.5 0)"/>
      <use xlink:href="#DejaVuSans-Bold-3" transform="translate(743.6875 0)"/>
      <use xlink:href="#DejaVuSans-Bold-2c" transform="translate(778.5 0)"/>
      <use xlink:href="#DejaVuSans-Bold-56" transform="translate(815.703125 0)"/>
      <use xlink:href="#DejaVuSans-Bold-11" transform="translate(875.21875 0)"/>
     </g>
    </g>
   </g>
   <g id="text_2">
    <!-- U.S. Virgin Is. -->
    <g style="fill: #1a252f" transform="translate(146.639919 20.117344) scale(0.17 -0.17)">
     <defs>
      <path id="DejaVuSans-Bold-38" d="M 588 4666 
L 1791 4666 
L 1791 1869 
Q 1791 1291 1980 1042 
Q 2169 794 2597 794 
Q 3028 794 3217 1042 
Q 3406 1291 3406 1869 
L 3406 4666 
L 4609 4666 
L 4609 1869 
Q 4609 878 4112 393 
Q 3616 -91 2597 -91 
Q 1581 -91 1084 393 
Q 588 878 588 1869 
L 588 4666 
z
" transform="scale(0.015625)"/>
      <path id="DejaVuSans-Bold-36" d="M 3834 4519 
L 3834 3531 
Q 3450 3703 3084 3790 
Q 2719 3878 2394 3878 
Q 1963 3878 1756 3759 
Q 1550 3641 1550 3391 
Q 1550 3203 1689 3098 
Q 1828 2994 2194 2919 
L 2706 2816 
Q 3484 2659 3812 2340 
Q 4141 2022 4141 1434 
Q 4141 663 3683 286 
Q 3225 -91 2284 -91 
Q 1841 -91 1394 -6 
Q 947 78 500 244 
L 500 1259 
Q 947 1022 1364 901 
Q 1781 781 2169 781 
Q 2563 781 2772 912 
Q 2981 1044 2981 1288 
Q 2981 1506 2839 1625 
Q 2697 1744 2272 1838 
L 1806 1941 
Q 1106 2091 782 2419 
Q 459 2747 459 3303 
Q 459 4000 909 4375 
Q 1359 4750 2203 4750 
Q 2588 4750 2994 4692 
Q 3400 4634 3834 4519 
z
" transform="scale(0.015625)"/>
     </defs>
     <use xlink:href="#DejaVuSans-Bold-38"/>
     <use xlink:href="#DejaVuSans-Bold-11" transform="translate(81.203125 0)"/>
     <use xlink:href="#DejaVuSans-Bold-36" transform="translate(119.1875 0)"/>
     <use xlink:href="#DejaVuSans-Bold-11" transform="translate(191.203125 0)"/>
     <use xlink:href="#DejaVuSans-Bold-3" transform="translate(229.1875 0)"/>
     <use xlink:href="#DejaVuSans-Bold-39" transform="translate(264 0)"/>
     <use xlink:href="#DejaVuSans-Bold-4c" transform="translate(339.640625 0)"/>
     <use xlink:href="#DejaVuSans-Bold-55" transform="translate(373.921875 0)"/>
     <use xlink:href="#DejaVuSans-Bold-4a" transform="translate(423.234375 0)"/>
     <use xlink:href="#DejaVuSans-Bold-4c" transform="translate(494.8125 0)"/>
     <use xlink:href="#DejaVuSans-Bold-51" transform="translate(529.09375 0)"/>
     <use xlink:href="#DejaVuSans-Bold-3" transform="translate(600.28125 0)"/>
     <use xlink:href="#DejaVuSans-Bold-2c" transform="translate(635.09375 0)"/>
     <use xlink:href="#DejaVuSans-Bold-56" transform="translate(672.296875 0)"/>
     <use xlink:href="#DejaVuSans-Bold-11" transform="translate(731.8125 0)"/>
    </g>
   </g>
   <g id="legend_1">
    <g id="patch_3">
     <path d="M 13.5 498.657344 
L 102.164062 498.657344 
Q 103.964062 498.657344 103.964062 496.857344 
L 103.964062 470.755937 
Q 103.964062 468.955937 102.164062 468.955937 
L 13.5 468.955937 
Q 11.7 468.955937 11.7 470.755937 
L 11.7 496.857344 
Q 11.7 498.657344 13.5 498.657344 
z
" style="fill: #ffffff; opacity: 0.85; stroke: #cccccc; stroke-linejoin: miter"/>
    </g>
    <g id="patch_4">
     <path d="M 15.3 479.394531 
L 33.3 479.394531 
L 33.3 473.094531 
L 15.3 473.094531 
z
" style="fill: #e74c3c; stroke: #888888; stroke-linejoin: miter"/>
    </g>
    <g id="text_3">
     <!-- U.S. Virgin Is. -->
     <g transform="translate(40.5 479.394531) scale(0.09 -0.09)">
      <defs>
       <path id="DejaVuSans-38" d="M 556 4666 
L 1191 4666 
L 1191 1831 
Q 1191 1081 1462 751 
Q 1734 422 2344 422 
Q 2950 422 3222 751 
Q 3494 1081 3494 1831 
L 3494 4666 
L 4128 4666 
L 4128 1753 
Q 4128 841 3676 375 
Q 3225 -91 2344 -91 
Q 1459 -91 1007 375 
Q 556 841 556 1753 
L 556 4666 
z
" transform="scale(0.015625)"/>
       <path id="DejaVuSans-11" d="M 684 794 
L 1344 794 
L 1344 0 
L 684 0 
L 684 794 
z
" transform="scale(0.015625)"/>
       <path id="DejaVuSans-36" d="M 3425 4513 
L 3425 3897 
Q 3066 4069 2747 4153 
Q 2428 4238 2131 4238 
Q 1616 4238 1336 4038 
Q 1056 3838 1056 3469 
Q 1056 3159 1242 3001 
Q 1428 2844 1947 2747 
L 2328 2669 
Q 3034 2534 3370 2195 
Q 3706 1856 3706 1288 
Q 3706 609 3251 259 
Q 2797 -91 1919 -91 
Q 1588 -91 1214 -16 
Q 841 59 441 206 
L 441 856 
Q 825 641 1194 531 
Q 1563 422 1919 422 
Q 2459 422 2753 634 
Q 3047 847 3047 1241 
Q 3047 1584 2836 1778 
Q 2625 1972 2144 2069 
L 1759 2144 
Q 1053 2284 737 2584 
Q 422 2884 422 3419 
Q 422 4038 858 4394 
Q 1294 4750 2059 4750 
Q 2388 4750 2728 4690 
Q 3069 4631 3425 4513 
z
" transform="scale(0.015625)"/>
       <path id="DejaVuSans-3" transform="scale(0.015625)"/>
       <path id="DejaVuSans-39" d="M 1831 0 
L 50 4666 
L 709 4666 
L 2188 738 
L 3669 4666 
L 4325 4666 
L 2547 0 
L 1831 0 
z
" transform="scale(0.015625)"/>
       <path id="DejaVuSans-4c" d="M 603 3500 
L 1178 3500 
L 1178 0 
L 603 0 
L 603 3500 
z
M 603 4863 
L 1178 4863 
L 1178 4134 
L 603 4134 
L 603 4863 
z
" transform="scale(0.015625)"/>
       <path id="DejaVuSans-55" d="M 2631 2963 
Q 2534 3019 2420 3045 
Q 2306 3072 2169 3072 
Q 1681 3072 1420 2755 
Q 1159 2438 1159 1844 
L 1159 0 
L 581 0 
L 581 3500 
L 1159 3500 
L 1159 2956 
Q 1341 3275 1631 3429 
Q 1922 3584 2338 3584 
Q 2397 3584 2469 3576 
Q 2541 3569 2628 3553 
L 2631 2963 
z
" transform="scale(0.015625)"/>
       <path id="DejaVuSans-4a" d="M 2906 1791 
Q 2906 2416 2648 2759 
Q 2391 3103 1925 3103 
Q 1463 3103 1205 2759 
Q 947 2416 947 1791 
Q 947 1169 1205 825 
Q 1463 481 1925 481 
Q 2391 481 2648 825 
Q 2906 1169 2906 1791 
z
M 3481 434 
Q 3481 -459 3084 -895 
Q 2688 -1331 1869 -1331 
Q 1566 -1331 1297 -1286 
Q 1028 -1241 775 -1147 
L 775 -588 
Q 1028 -725 1275 -790 
Q 1522 -856 1778 -856 
Q 2344 -856 2625 -561 
Q 2906 -266 2906 331 
L 2906 616 
Q 2728 306 2450 153 
Q 2172 0 1784 0 
Q 1141 0 747 490 
Q 353 981 353 1791 
Q 353 2603 747 3093 
Q 1141 3584 1784 3584 
Q 2172 3584 2450 3431 
Q 2728 3278 2906 2969 
L 2906 3500 
L 3481 3500 
L 3481 434 
z
" transform="scale(0.015625)"/>
       <path id="DejaVuSans-51" d="M 3513 2113 
L 3513 0 
L 2938 0 
L 2938 2094 
Q 2938 2591 2744 2837 
Q 2550 3084 2163 3084 
Q 1697 3084 1428 2787 
Q 1159 2491 1159 1978 
L 1159 0 
L 581 0 
L 581 3500 
L 1159 3500 
L 1159 2956 
Q 1366 3272 1645 3428 
Q 1925 3584 2291 3584 
Q 2894 3584 3203 3211 
Q 3513 2838 3513 2113 
z
" transform="scale(0.015625)"/>
       <path id="DejaVuSans-2c" d="M 628 4666 
L 1259 4666 
L 1259 0 
L 628 0 
L 628 4666 
z
" transform="scale(0.015625)"/>
       <path id="DejaVuSans-56" d="M 2834 3397 
L 2834 2853 
Q 2591 2978 2328 3040 
Q 2066 3103 1784 3103 
Q 1356 3103 1142 2972 
Q 928 2841 928 2578 
Q 928 2378 1081 2264 
Q 1234 2150 1697 2047 
L 1894 2003 
Q 2506 1872 2764 1633 
Q 3022 1394 3022 966 
Q 3022 478 2636 193 
Q 2250 -91 1575 -91 
Q 1294 -91 989 -36 
Q 684 19 347 128 
L 347 722 
Q 666 556 975 473 
Q 1284 391 1588 391 
Q 1994 391 2212 530 
Q 2431 669 2431 922 
Q 2431 1156 2273 1281 
Q 2116 1406 1581 1522 
L 1381 1569 
Q 847 1681 609 1914 
Q 372 2147 372 2553 
Q 372 3047 722 3315 
Q 1072 3584 1716 3584 
Q 2034 3584 2315 3537 
Q 2597 3491 2834 3397 
z
" transform="scale(0.015625)"/>
      </defs>
      <use xlink:href="#DejaVuSans-38"/>
      <use xlink:href="#DejaVuSans-11" transform="translate(73.1875 0)"/>
      <use xlink:href="#DejaVuSans-36" transform="translate(104.96875 0)"/>
      <use xlink:href="#DejaVuSans-11" transform="translate(168.453125 0)"/>
      <use xlink:href="#DejaVuSans-3" transform="translate(200.234375 0)"/>
      <use xlink:href="#DejaVuSans-39" transform="translate(232.015625 0)"/>
      <use xlink:href="#DejaVuSans-4c" transform="translate(298.21875 0)"/>
      <use xlink:href="#DejaVuSans-55" transform="translate(326 0)"/>
      <use xlink:href="#DejaVuSans-4a" transform="translate(365.359375 0)"/>
      <use xlink:href="#DejaVuSans-4c" transform="translate(428.84375 0)"/>
      <use xlink:href="#DejaVuSans-51" transform="translate(456.625 0)"/>
      <use xlink:href="#DejaVuSans-3" transform="translate(520 0)"/>
      <use xlink:href="#DejaVuSans-2c" transform="translate(551.78125 0)"/>
      <use xlink:href="#DejaVuSans-56" transform="translate(581.28125 0)"/>
      <use xlink:href="#DejaVuSans-11" transform="translate(633.375 0)"/>
     </g>
    </g>
    <g id="patch_5">
     <path d="M 15.3 492.895234 
L 33.3 492.895234 
L 33.3 486.595234 
L 15.3 486.595234 
z
" style="fill: #bdc3c7; stroke: #888888; stroke-linejoin: miter"/>
    </g>
    <g id="text_4">
     <!-- Neighbors -->
     <g transform="translate(40.5 492.895234) scale(0.09 -0.09)">
      <defs>
       <path id="DejaVuSans-31" d="M 628 4666 
L 1478 4666 
L 3547 763 
L 3547 4666 
L 4159 4666 
L 4159 0 
L 3309 0 
L 1241 3903 
L 1241 0 
L 628 0 
L 628 4666 
z
" transform="scale(0.015625)"/>
       <path id="DejaVuSans-48" d="M 3597 1894 
L 3597 1613 
L 953 1613 
Q 991 1019 1311 708 
Q 1631 397 2203 397 
Q 2534 397 2845 478 
Q 3156 559 3463 722 
L 3463 178 
Q 3153 47 2828 -22 
Q 2503 -91 2169 -91 
Q 1331 -91 842 396 
Q 353 884 353 1716 
Q 353 2575 817 3079 
Q 1281 3584 2069 3584 
Q 2775 3584 3186 3129 
Q 3597 2675 3597 1894 
z
M 3022 2063 
Q 3016 2534 2758 2815 
Q 2500 3097 2075 3097 
Q 1594 3097 1305 2825 
Q 1016 2553 972 2059 
L 3022 2063 
z
" transform="scale(0.015625)"/>
       <path id="DejaVuSans-4b" d="M 3513 2113 
L 3513 0 
L 2938 0 
L 2938 2094 
Q 2938 2591 2744 2837 
Q 2550 3084 2163 3084 
Q 1697 3084 1428 2787 
Q 1159 2491 1159 1978 
L 1159 0 
L 581 0 
L 581 4863 
L 1159 4863 
L 1159 2956 
Q 1366 3272 1645 3428 
Q 1925 3584 2291 3584 
Q 2894 3584 3203 3211 
Q 3513 2838 3513 2113 
z
" transform="scale(0.015625)"/>
       <path id="DejaVuSans-45" d="M 3116 1747 
Q 3116 2381 2855 2742 
Q 2594 3103 2138 3103 
Q 1681 3103 1420 2742 
Q 1159 2381 1159 1747 
Q 1159 1113 1420 752 
Q 1681 391 2138 391 
Q 2594 391 2855 752 
Q 3116 1113 3116 1747 
z
M 1159 2969 
Q 1341 3281 1617 3432 
Q 1894 3584 2278 3584 
Q 2916 3584 3314 3078 
Q 3713 2572 3713 1747 
Q 3713 922 3314 415 
Q 2916 -91 2278 -91 
Q 1894 -91 1617 61 
Q 1341 213 1159 525 
L 1159 0 
L 581 0 
L 581 4863 
L 1159 4863 
L 1159 2969 
z
" transform="scale(0.015625)"/>
       <path id="DejaVuSans-52" d="M 1959 3097 
Q 1497 3097 1228 2736 
Q 959 2375 959 1747 
Q 959 1119 1226 758 
Q 1494 397 1959 397 
Q 2419 397 2687 759 
Q 2956 1122 2956 1747 
Q 2956 2369 2687 2733 
Q 2419 3097 1959 3097 
z
M 1959 3584 
Q 2709 3584 3137 3096 
Q 3566 2609 3566 1747 
Q 3566 888 3137 398 
Q 2709 -91 1959 -91 
Q 1206 -91 779 398 
Q 353 888 353 1747 
Q 353 2609 779 3096 
Q 1206 3584 1959 3584 
z
" transform="scale(0.015625)"/>
      </defs>
      <use xlink:href="#DejaVuSans-31"/>
      <use xlink:href="#DejaVuSans-48" transform="translate(74.8125 0)"/>
      <use xlink:href="#DejaVuSans-4c" transform="translate(136.34375 0)"/>
      <use xlink:href="#DejaVuSans-4a" transform="translate(164.125 0)"/>
      <use xlink:href="#DejaVuSans-4b" transform="translate(227.609375 0)"/>
      <use xlink:href="#DejaVuSans-45" transform="translate(290.984375 0)"/>
      <use xlink:href="#DejaVuSans-52" transform="translate(354.46875 0)"/>
      <use xlink:href="#DejaVuSans-55" transform="translate(415.65625 0)"/>
      <use xlink:href="#DejaVuSans-56" transform="translate(456.765625 0)"/>
     </g>
    </g>
   </g>
  </g>
 </g>
 <defs>
  <clipPath id="pd879304450">
   <rect x="7.2" y="30.117344" width="409.745306" height="473.04"/>
  </clipPath>
 </defs>
</svg>
