<?xml version="1.0" encoding="utf-8" standalone="no"?>
<!DOCTYPE svg PUBLIC "-//W3C//DTD SVG 1.1//EN"
  "http://www.w3.org/Graphics/SVG/1.1/DTD/svg11.dtd">
<svg xmlns:xlink="http://www.w3.org/1999/xlink" width="473.572729pt" height="510.356016pt" viewBox="0 0 473.572729 510.356016" xmlns="http://www.w3.org/2000/svg" version="1.1">
 <metadata>
  <rdf:RDF xmlns:dc="http://purl.org/dc/elements/1.1/" xmlns:cc="http://creativecommons.org/ns#" xmlns:rdf="http://www.w3.org/1999/02/22-rdf-syntax-ns#">
   <cc:Work>
    <dc:type rdf:resource="http://purl.org/dc/dcmitype/StillImage"/>
    <dc:date>2026-06-19T08:14:07.756788</dc:date>
    <dc:format>image/svg+xml</dc:format>
    <dc:creator>
     <cc:Agent>
      <dc:title>Matplotlib v3.11.0, https://matplotlib.org/</dc:title>
     </cc:Agent>
    </dc:creator>
   </cc:Work>
  </rdf:RDF>
 </metadata>
 <defs>
  <style type="text/css">*{stroke-linejoin: round; stroke-linecap: butt}</style>
 </defs>
 <g id="figure_1">
  <g id="patch_1">
   <path d="M 0 510.356016 
L 473.572729 510.356016 
L 473.572729 -0 
L 0 -0 
z
" style="fill: #d6eaf8"/>
  </g>
  <g id="axes_1">
   <g id="PatchCollection_1">
    <path d="M -2302.133557 -266.065094 
L -2302.133557 -270.259591 
L -2301.199444 -274.920143 
L -2300.26533 -276.784364 
L -2299.331217 -279.11464 
L -2297.462991 -280.978861 
L -2295.594764 -281.444916 
L -2294.660651 -280.978861 
L -2293.726537 -279.580695 
L -2292.792424 -277.716474 
L -2292.792424 -276.784364 
L -2290.924197 -274.920143 
L -2288.121858 -274.454088 
L -2286.253631 -273.988033 
L -2283.451291 -273.988033 
L -2279.714838 -275.852253 
L -2275.978385 -279.11464 
L -2275.978385 -282.843082 
L -2280.648951 -285.639413 
L -2275.978385 -287.969689 
L -2272.241932 -287.969689 
L -2269.439592 -285.173358 
L -2269.439592 -280.04675 
L -2247.954986 -291.232076 
L -2229.27272 -296.824738 
L -2207.788115 -306.611898 
L -2193.776415 -316.865112 
L -2190.974075 -317.797223 
L -2188.171736 -317.797223 
L -2184.435282 -317.331168 
L -2183.501169 -316.399057 
L -2184.435282 -314.068781 
L -2176.028263 -310.340339 
L -2170.423583 -312.20456 
L -2163.88479 -315.933002 
L -2156.411884 -317.797223 
L -2152.675431 -316.399057 
L -2148.004864 -314.068781 
L -2145.202524 -310.340339 
L -2143.334298 -307.544008 
L -2142.400184 -305.679787 
L -2134.927278 -310.806395 
L -2131.190825 -310.340339 
L -2127.454372 -325.254106 
L -2130.256712 -321.99172 
L -2133.059052 -317.331168 
L -2135.861391 -314.534836 
L -2139.597845 -317.797223 
L -2141.466071 -322.92383 
L -2140.531958 -327.118327 
L -2141.466071 -330.380713 
L -2147.070751 -332.71099 
L -2144.268411 -338.769707 
L -2143.334298 -340.633928 
L -2148.004864 -341.099983 
L -2153.609544 -342.964204 
L -2158.28011 -345.29448 
L -2161.08245 -348.090812 
L -2162.950677 -351.819253 
L -2164.818903 -356.479805 
L -2167.621243 -360.208247 
L -2171.357696 -361.140358 
L -2169.48947 -363.470634 
L -2166.68713 -367.665131 
L -2163.88479 -372.791738 
L -2162.950677 -377.45229 
L -2162.016564 -383.977063 
L -2161.08245 -389.569726 
L -2157.345997 -401.687161 
L -2157.345997 -402.619272 
L -2152.675431 -409.6101 
L -2151.741317 -410.076155 
L -2148.938977 -410.54221 
L -2148.004864 -411.474321 
L -2147.070751 -412.872486 
L -2145.202524 -416.600928 
L -2145.202524 -417.999094 
L -2139.597845 -425.922032 
L -2135.861391 -430.116529 
L -2131.190825 -432.912861 
L -2131.190825 -435.243137 
L -2135.861391 -435.243137 
L -2132.124938 -438.505523 
L -2120.915579 -440.835799 
L -2116.245012 -443.63213 
L -2112.508559 -447.826627 
L -2109.706219 -453.885345 
L -2107.837993 -459.944063 
L -2111.574446 -463.206449 
L -2111.574446 -465.536726 
L -2108.772106 -464.604615 
L -2105.969766 -463.206449 
L -2102.233313 -466.002781 
L -2098.49686 -466.468836 
L -2095.69452 -465.07067 
L -2093.826293 -461.808284 
L -2091.023954 -472.061499 
L -2090.08984 -474.85783 
L -2087.2875 -475.78994 
L -2080.748707 -476.255995 
L -2078.880481 -477.654161 
L -2078.880481 -480.450492 
L -2077.946367 -485.111045 
L -2076.078141 -488.373431 
L -2073.275801 -486.975265 
L -2069.539348 -484.644989 
L -2066.737008 -486.043155 
L -2063.934668 -489.305541 
L -2061.132328 -491.635818 
L -2063.934668 -494.898204 
L -2065.802895 -496.762425 
L -2069.539348 -497.694535 
L -2074.209914 -497.22848 
L -2072.341688 -499.558756 
L -2070.473461 -501.422977 
L -2068.605235 -502.821143 
L -2065.802895 -503.287198 
L -2062.066442 -501.889032 
L -2059.264102 -498.160591 
L -2058.329988 -494.898204 
L -2055.527648 -493.500038 
L -2051.791195 -493.966094 
L -2048.988855 -495.830314 
L -2033.10893 -507.01564 
L -2029.372476 -503.287198 
L -2027.50425 -508.87986 
L -2022.833683 -511.676192 
L -2011.624324 -512.608302 
L -2007.887871 -513.540413 
L -1989.205605 -522.395462 
L -1980.798585 -525.657848 
L -1976.128019 -525.657848 
L -1973.325679 -525.191793 
L -1970.523339 -523.793627 
L -1967.720999 -523.793627 
L -1965.852773 -524.259683 
L -1962.11632 -526.589959 
L -1960.248093 -527.522069 
L -1960.248093 -529.852345 
L -1962.11632 -528.920235 
L -1963.984546 -527.522069 
L -1963.984546 -528.454179 
L -1963.984546 -529.38629 
L -1965.852773 -529.852345 
L -1960.248093 -533.114732 
L -1954.643413 -534.978952 
L -1941.565827 -535.445008 
L -1940.631714 -536.843173 
L -1936.895261 -545.698222 
L -1935.027034 -546.630333 
L -1924.751788 -546.630333 
L -1925.685901 -544.766112 
L -1925.685901 -543.834002 
L -1926.620015 -542.901891 
L -1921.015335 -541.969781 
L -1918.212995 -544.766112 
L -1916.344768 -548.960609 
L -1914.476542 -552.222995 
L -1909.805975 -553.621161 
L -1907.003635 -552.689051 
L -1904.201296 -550.358774 
L -1899.530729 -548.494554 
L -1901.398956 -545.698222 
L -1898.596616 -546.630333 
L -1894.860163 -548.960609 
L -1892.057823 -551.290885 
L -1891.12371 -555.951437 
L -1887.387256 -561.5441 
L -1881.782577 -567.136762 
L -1877.11201 -569.000983 
L -1874.30967 -570.399149 
L -1860.297971 -578.788143 
L -1855.627405 -581.118419 
L -1850.022725 -581.118419 
L -1846.286272 -579.720253 
L -1842.549818 -576.923922 
L -1842.549818 -575.059701 
L -1845.352158 -573.19548 
L -1846.286272 -569.933093 
L -1845.352158 -566.204652 
L -1843.483932 -562.47621 
L -1840.681592 -561.078044 
L -1837.879252 -562.942265 
L -1836.011025 -565.738597 
L -1834.142799 -567.602817 
L -1838.813365 -571.331259 
L -1837.879252 -575.059701 
L -1834.142799 -578.322087 
L -1828.538119 -580.652363 
L -1818.262873 -582.516584 
L -1815.460533 -583.448695 
L -1812.658193 -585.778971 
L -1810.789967 -586.245026 
L -1807.987627 -585.778971 
L -1804.251174 -583.448695 
L -1802.382947 -582.516584 
L -1800.51472 -583.448695 
L -1798.646494 -584.84686 
L -1796.778267 -585.778971 
L -1794.910041 -584.380805 
L -1793.041814 -581.584474 
L -1794.910041 -580.652363 
L -1797.712381 -580.186308 
L -1798.646494 -578.788143 
L -1797.712381 -575.991811 
L -1795.844154 -575.059701 
L -1793.975927 -575.991811 
L -1791.173588 -578.788143 
L -1792.107701 -573.19548 
L -1787.437134 -573.19548 
L -1781.832455 -576.457866 
L -1779.030115 -583.448695 
L -1775.293662 -589.507412 
L -1766.886642 -589.507412 
L -1757.545509 -588.109247 
L -1751.006716 -589.041357 
L -1745.402036 -591.371633 
L -1722.049204 -589.973468 
L -1697.762259 -593.235854 
L -1692.157579 -595.56613 
L -1686.552899 -595.56613 
L -1675.34354 -601.624848 
L -1669.73886 -603.489069 
L -1667.870633 -604.421179 
L -1665.068293 -608.149621 
L -1664.13418 -609.081731 
L -1661.33184 -609.547787 
L -1658.5295 -610.479897 
L -1654.793047 -612.810173 
L -1646.386028 -618.868891 
L -1642.649574 -621.199167 
L -1632.374328 -622.597333 
L -1620.230856 -627.72394 
L -1602.482703 -630.520271 
L -1594.075683 -634.248713 
L -1576.327531 -630.054216 
L -1570.722851 -630.520271 
L -1563.249945 -632.384492 
L -1560.447605 -632.850547 
L -1553.908812 -633.782658 
L -1551.106472 -634.248713 
L -1548.304132 -635.180823 
L -1545.501792 -635.646879 
L -1543.633566 -634.714768 
L -1533.35832 -627.72394 
L -1525.885413 -625.859719 
L -1509.071374 -623.995498 
L -1501.598468 -622.131277 
L -1495.993788 -623.995498 
L -1454.892803 -623.995498 
L -1448.35401 -623.529443 
L -1444.617557 -624.461554 
L -1440.881104 -625.859719 
L -1438.078764 -624.461554 
L -1435.276424 -624.461554 
L -1431.539971 -624.461554 
L -1428.737631 -623.995498 
L -1426.869405 -623.063388 
L -1422.198838 -619.334946 
L -1416.594158 -616.07256 
L -1415.660045 -610.479897 
L -1416.594158 -604.421179 
L -1417.528272 -599.294572 
L -1419.396498 -597.430351 
L -1421.264725 -596.498241 
L -1421.264725 -595.56613 
L -1417.528272 -593.701909 
L -1414.725932 -593.701909 
L -1411.923592 -594.167965 
L -1408.187139 -595.56613 
L -1407.253025 -596.964296 
L -1405.384799 -603.955124 
L -1404.450686 -606.2854 
L -1402.582459 -608.149621 
L -1400.714232 -608.615676 
L -1397.911893 -609.081731 
L -1376.427287 -612.810173 
L -1373.624947 -613.742284 
L -1370.822607 -617.00467 
L -1364.283814 -618.402836 
L -1352.140341 -620.267057 
L -1348.403888 -621.665222 
L -1338.128642 -626.325774 
L -1332.523962 -630.986327 
L -1320.38049 -637.977155 
L -1316.644036 -638.909265 
L -1311.97347 -637.045044 
L -1314.77581 -634.248713 
L -1322.248716 -630.986327 
L -1334.392189 -628.189995 
L -1348.403888 -619.801001 
L -1352.140341 -616.538615 
L -1352.140341 -614.674394 
L -1339.996869 -611.878063 
L -1325.985169 -594.63402 
L -1316.644036 -589.973468 
L -1311.039357 -589.973468 
L -1309.17113 -591.371633 
L -1307.302903 -594.167965 
L -1303.56645 -598.828517 
L -1301.698224 -601.158793 
L -1298.895884 -607.683566 
L -1297.961771 -609.081731 
L -1295.159431 -609.547787 
L -1289.554751 -610.945952 
L -1287.686524 -610.945952 
L -1277.411278 -609.081731 
L -1275.543052 -609.081731 
L -1274.608938 -609.547787 
L -1273.674825 -608.615676 
L -1273.674825 -604.421179 
L -1271.806598 -598.362462 
L -1267.136032 -596.964296 
L -1261.531352 -597.896406 
L -1255.926673 -599.294572 
L -1214.825688 -607.217511 
L -1209.221008 -607.217511 
L -1197.077535 -604.887235 
L -1190.538742 -605.35329 
L -1184.934063 -607.683566 
L -1180.263496 -611.412008 
L -1178.39527 -617.00467 
L -1183.065836 -622.131277 
L -1180.263496 -623.529443 
L -1176.527043 -623.995498 
L -1172.79059 -623.529443 
L -1170.922363 -622.131277 
L -1170.922363 -620.267057 
L -1172.79059 -618.402836 
L -1179.329383 -605.35329 
L -1172.79059 -599.760627 
L -1171.856476 -599.294572 
L -1162.515344 -582.516584 
L -1156.910664 -578.788143 
L -1153.174211 -578.322087 
L -1142.898964 -576.457866 
L -1139.162511 -575.059701 
L -1136.360171 -572.729425 
L -1133.557832 -569.467038 
L -1129.821378 -566.670707 
L -1125.150812 -565.272541 
L -1111.139113 -565.272541 
L -1107.402659 -564.340431 
L -1103.666206 -561.078044 
L -1099.929753 -558.747768 
L -1095.259187 -557.349603 
L -1090.58862 -555.951437 
L -1082.181601 -555.951437 
L -1073.774581 -557.349603 
L -1058.828768 -563.40832 
L -1060.696995 -569.933093 
L -1056.026429 -570.399149 
L -1042.948843 -563.40832 
L -1036.410049 -561.5441 
L -1030.80537 -562.47621 
L -1029.871256 -569.000983 
L -1027.068917 -567.602817 
L -1024.266577 -565.738597 
L -1022.39835 -563.40832 
L -1021.464237 -560.611989 
L -1015.859557 -550.358774 
L -1014.925444 -548.494554 
L -1005.584311 -542.901891 
L -1003.716084 -542.435836 
L -999.045518 -542.901891 
L -997.177291 -541.969781 
L -996.243178 -541.03767 
L -996.243178 -539.639505 
L -996.243178 -538.707394 
L -991.572612 -540.571615 
L -982.231479 -548.494554 
L -966.351553 -552.689051 
L -964.483326 -552.222995 
L -964.483326 -550.358774 
L -967.285666 -548.028498 
L -971.956232 -544.766112 
L -977.560912 -547.562443 
L -980.363252 -545.232167 
L -984.099705 -535.445008 
L -981.297365 -530.784456 
L -979.429139 -529.38629 
L -976.626799 -527.522069 
L -973.824459 -527.056014 
L -963.549213 -525.657848 
L -958.878646 -524.259683 
L -943.932834 -513.540413 
L -942.998721 -512.142247 
L -942.064607 -511.210137 
L -940.196381 -510.744081 
L -939.262267 -511.210137 
L -937.394041 -512.608302 
L -936.459927 -514.006468 
L -935.525814 -514.472523 
L -929.921134 -515.404633 
L -928.052908 -514.006468 
L -921.514115 -486.043155 
L -921.514115 -485.5771 
L -917.777662 -484.644989 
L -914.041209 -482.780768 
L -911.238869 -480.916548 
L -908.436529 -477.654161 
L -905.634189 -472.993609 
L -901.897736 -464.604615 
L -900.029509 -460.410118 
L -892.556603 -453.41929 
L -891.62249 -452.021124 
L -887.886036 -451.089014 
L -880.41313 -451.089014 
L -877.61079 -450.156903 
L -870.137884 -439.903689 
L -869.203771 -436.641302 
L -866.401431 -434.777081 
L -847.719165 -418.465149 
L -840.246259 -414.736707 
L -832.773352 -416.134873 
L -829.971012 -413.338542 
L -825.300446 -410.076155 
L -820.62988 -408.211934 
L -818.761653 -411.474321 
L -815.959313 -411.474321 
L -801.947614 -408.677989 
L -797.277047 -408.677989 
L -794.474707 -410.54221 
L -793.540594 -412.406431 
L -793.540594 -413.804597 
L -789.804141 -413.804597 
L -787.001801 -413.338542 
L -783.265348 -411.008266 
L -780.463008 -410.54221 
L -774.858328 -411.008266 
L -765.517195 -414.736707 
L -759.912516 -416.134873 
L -754.307836 -416.134873 
L -740.296137 -414.736707 
L -714.140965 -411.474321 
L -701.997492 -412.406431 
L -701.063378 -409.6101 
L -695.458699 -393.298167 
L -694.524585 -394.230278 
L -692.656359 -395.162388 
L -689.854019 -391.900002 
L -687.051679 -393.764223 
L -683.315226 -402.619272 
L -687.051679 -407.279824 
L -688.919906 -409.144045 
L -690.788132 -410.54221 
L -690.788132 -412.406431 
L -683.315226 -411.474321 
L -674.908206 -403.085327 
L -645.950694 -393.298167 
L -643.148355 -390.501836 
L -640.346015 -386.773394 
L -635.675448 -382.578897 
L -629.136655 -378.850456 
L -624.466089 -376.52018 
L -618.861409 -374.655959 
L -602.981483 -371.859628 
L -598.310917 -372.325683 
L -598.310917 -370.461462 
L -598.310917 -366.73302 
L -598.310917 -364.868799 
L -595.508577 -366.266965 
L -594.574463 -367.199075 
L -592.706237 -364.402744 
L -589.903897 -358.810082 
L -588.03567 -356.479805 
L -586.167444 -355.08164 
L -581.496877 -352.285309 
L -579.628651 -350.887143 
L -577.760424 -349.488977 
L -574.958084 -349.488977 
L -572.155745 -349.955032 
L -569.353405 -349.955032 
L -560.946385 -346.226591 
L -557.209932 -344.828425 
L -544.132346 -343.896315 
L -541.330006 -342.964204 
L -541.330006 -340.167873 
L -541.330006 -336.905486 
L -539.461779 -334.57521 
L -537.593553 -334.109155 
L -531.05476 -334.109155 
L -531.988873 -333.6431 
L -532.922986 -332.71099 
L -530.120646 -330.380713 
L -526.384193 -328.982548 
L -523.581853 -328.050437 
L -520.779514 -327.118327 
L -519.8454 -327.118327 
L -516.108947 -328.516493 
L -513.306607 -325.720161 
L -510.504267 -318.729333 
L -504.899588 -314.068781 
L -503.965474 -312.20456 
L -502.097248 -307.077953 
L -497.426681 -298.688959 
L -495.558455 -296.358683 
L -492.756115 -294.960517 
L -489.019662 -293.096296 
L -476.876189 -280.978861 
L -475.942076 -278.648585 
L -472.205623 -270.725646 
L -470.337396 -268.39537 
L -467.535056 -268.861425 
L -465.666829 -271.657757 
L -464.732716 -292.164186 
L -462.86449 -294.960517 
L -460.06215 -296.358683 
L -453.523357 -295.426572 
L -448.85279 -294.960517 
L -451.65513 -292.164186 
L -459.128036 -290.76602 
L -460.996263 -288.435744 
L -460.996263 -283.309137 
L -460.06215 -279.580695 
L -458.193923 -276.784364 
L -456.325697 -273.988033 
L -453.523357 -271.191701 
L -450.721017 -270.259591 
L -444.182224 -270.259591 
L -441.379884 -268.39537 
L -439.511657 -264.200873 
L -438.577544 -259.540321 
L -438.577544 -256.277934 
L -437.643431 -253.015548 
L -434.841091 -250.685272 
L -431.104638 -248.821051 
L -423.631731 -246.490775 
L -422.697618 -246.490775 
L -418.961165 -248.354996 
L -416.158825 -246.95683 
L -414.290599 -245.092609 
L -412.422372 -244.160499 
L -396.542446 -246.490775 
L -391.87188 -246.02472 
L -387.201313 -243.694444 
L -375.991954 -236.703615 
L -375.991954 -240.432057 
L -374.123727 -242.296278 
L -367.584934 -244.160499 
L -366.650821 -241.364168 
L -364.782594 -239.966002 
L -362.914368 -239.499947 
L -360.112028 -239.966002 
L -360.112028 -241.364168 
L -361.046141 -243.228388 
L -361.980254 -244.160499 
L -358.243801 -242.762333 
L -354.507348 -239.966002 
L -348.902668 -234.373339 
L -352.639121 -233.907284 
L -355.441461 -235.30545 
L -357.309688 -235.771505 
L -358.243801 -230.644898 
L -357.309688 -225.984346 
L -353.573235 -217.129296 
L -352.639121 -212.9348 
L -351.705008 -210.138468 
L -347.968555 -208.740303 
L -340.495649 -207.808192 
L -333.956856 -204.545806 
L -332.088629 -204.079751 
L -330.220402 -204.545806 
L -328.352176 -205.943971 
L -327.418063 -207.342137 
L -327.418063 -207.808192 
L -327.418063 -209.206358 
L -328.352176 -212.9348 
L -331.154516 -216.197186 
L -337.693309 -218.993517 
L -340.495649 -222.721959 
L -344.232102 -230.644898 
L -345.166215 -237.169671 
L -347.034442 -239.033892 
L -347.968555 -240.432057 
L -353.573235 -242.296278 
L -354.507348 -243.228388 
L -354.507348 -246.02472 
L -356.375575 -249.753161 
L -359.177914 -251.617382 
L -363.848481 -249.753161 
L -367.584934 -253.481603 
L -370.387274 -250.219217 
L -374.123727 -252.549493 
L -381.596633 -261.404542 
L -390.937766 -269.32748 
L -393.740106 -273.521977 
L -395.608333 -274.454088 
L -399.344786 -272.589867 
L -396.542446 -277.250419 
L -392.805993 -282.377026 
L -388.135426 -285.173358 
L -384.398973 -284.707303 
L -375.05784 -277.250419 
L -374.123727 -274.920143 
L -372.255501 -267.929315 
L -371.321387 -266.531149 
L -344.232102 -246.490775 
L -338.627422 -244.160499 
L -325.549836 -239.966002 
L -321.813383 -237.169671 
L -318.07693 -233.441229 
L -309.66991 -226.450401 
L -305.933457 -225.052235 
L -290.053531 -213.86691 
L -286.317078 -212.002689 
L -282.580625 -210.604523 
L -278.844172 -210.604523 
L -274.173605 -212.002689 
L -276.975945 -206.410027 
L -275.107718 -203.14764 
L -272.305379 -200.817364 
L -271.371265 -198.487088 
L -272.305379 -192.894425 
L -277.910058 -186.369652 
L -279.778285 -181.7091 
L -282.580625 -183.107266 
L -286.317078 -187.767818 
L -288.185304 -189.165984 
L -304.999344 -196.622867 
L -308.735797 -198.021033 
L -313.406363 -198.487088 
L -313.406363 -198.021033 
L -314.340477 -197.088922 
L -315.27459 -196.156812 
L -315.27459 -195.690757 
L -316.208703 -194.758646 
L -317.142816 -195.224701 
L -319.011043 -196.156812 
L -320.87927 -197.088922 
L -323.681609 -199.885254 
L -326.483949 -200.351309 
L -332.088629 -199.885254 
L -333.956856 -197.088922 
L -333.022742 -194.292591 
L -330.220402 -192.894425 
L -327.418063 -191.962315 
L -325.549836 -190.564149 
L -323.681609 -188.699928 
L -320.87927 -187.301763 
L -318.07693 -186.369652 
L -310.604023 -187.301763 
L -305.933457 -184.971487 
L -304.999344 -180.310935 
L -306.86757 -176.116438 
L -310.604023 -173.786162 
L -311.538137 -171.455886 
L -310.604023 -166.795333 
L -307.801684 -161.668726 
L -306.86757 -159.804505 
L -304.06523 -159.33845 
L -297.526437 -160.27056 
L -293.789984 -159.804505 
L -295.658211 -155.143953 
L -293.789984 -155.610008 
L -287.251191 -158.872395 
L -286.317078 -159.33845 
L -284.448851 -160.736616 
L -281.646511 -161.202671 
L -279.778285 -164.931113 
L -276.041832 -179.844879 
L -269.503039 -191.962315 
L -267.634812 -194.758646 
L -262.964246 -195.690757 
L -258.293679 -192.894425 
L -230.27028 -158.872395 
L -225.599714 -155.143953 
L -225.599714 -154.677898 
L -221.863261 -151.881567 
L -212.522128 -147.68707 
L -197.576315 -144.424683 
L -194.773975 -142.094407 
L -196.642202 -138.365965 
L -191.037522 -138.365965 
L -192.905749 -132.307248 
L -194.773975 -129.510916 
L -197.576315 -128.578806 
L -206.917448 -128.112751 
L -210.653901 -126.714585 
L -213.456241 -123.918254 
L -214.390355 -120.189812 
L -210.653901 -113.198984 
L -197.576315 -120.189812 
L -197.576315 -113.198984 
L -195.708089 -115.063205 
L -194.773975 -117.859536 
L -193.839862 -121.121922 
L -192.905749 -124.850364 
L -194.773975 -124.850364 
L -191.037522 -129.976971 
L -190.103409 -132.773303 
L -189.169296 -136.035689 
L -173.28937 -130.443027 
L -172.355257 -130.909082 
L -169.552917 -131.841192 
L -168.618803 -131.375137 
L -163.948237 -128.578806 
L -157.409444 -126.714585 
L -154.607104 -126.714585 
L -150.870651 -124.850364 
L -147.134198 -121.121922 
L -145.265971 -116.927425 
L -147.134198 -115.52926 
L -151.804764 -114.597149 
L -165.816464 -108.072376 
L -164.88235 -111.800818 
L -167.68469 -114.597149 
L -170.48703 -114.597149 
L -169.552917 -111.800818 
L -170.48703 -107.140266 
L -167.68469 -105.276045 
L -162.08001 -104.80999 
L -158.343557 -102.945769 
L -154.607104 -100.149438 
L -149.936538 -97.819162 
L -145.265971 -96.887051 
L -139.661291 -96.420996 
L -139.661291 -98.285217 
L -145.265971 -100.149438 
L -147.134198 -101.547603 
L -148.068311 -103.877879 
L -149.936538 -108.072376 
L -149.936538 -109.470542 
L -145.265971 -111.800818 
L -140.595405 -111.800818 
L -134.056612 -109.936597 
L -128.451932 -106.208156 
L -124.715479 -102.013659 
L -123.781365 -102.013659 
L -123.781365 -108.072376 
L -121.913139 -108.072376 
L -122.847252 -96.887051 
L -125.649592 -93.15861 
L -139.661291 -92.692554 
L -139.661291 -90.828334 
L -134.056612 -90.828334 
L -136.858952 -89.430168 
L -137.793065 -88.964113 
L -135.924838 -85.235671 
L -133.122498 -85.235671 
L -130.320159 -86.633837 
L -126.583705 -87.099892 
L -124.715479 -85.235671 
L -121.913139 -80.109064 
L -120.044912 -79.643008 
L -118.176686 -80.109064 
L -116.308459 -81.507229 
L -115.374346 -82.905395 
L -114.440233 -84.303561 
L -113.506119 -85.235671 
L -112.572006 -85.235671 
L -110.703779 -84.769616 
L -108.835553 -85.235671 
L -101.362647 -89.430168 
L -98.560307 -90.828334 
L -102.29676 -92.226499 
L -110.703779 -93.15861 
L -114.440233 -94.556775 
L -117.242572 -98.285217 
L -118.176686 -102.479714 
L -116.308459 -106.208156 
L -111.637893 -108.072376 
L -80.812154 -107.140266 
L -74.273361 -104.80999 
L -70.536908 -102.013659 
L -62.129888 -98.751272 
L -61.195775 -97.819162 
L -55.591095 -93.15861 
L -51.854642 -90.362278 
L -24.765357 -80.109064 
L -16.358337 -74.516401 
L -14.490111 -67.991628 
L -14.490111 -65.661352 
L -14.490111 -60.068689 
L -13.555997 -56.806303 
L -10.753657 -53.543916 
L -8.885431 -54.009972 
L -6.083091 -56.806303 
L -2.346638 -59.136579 
L 0.455702 -59.602634 
L 4.192155 -58.670524 
L 6.994495 -57.272358 
L 8.862722 -54.942082 
L 9.796835 -52.611806 
L 9.796835 -48.883364 
L 11.665062 -48.883364 
L 12.599175 -50.28153 
L 12.599175 -51.679696 
L 13.533288 -53.077861 
L 15.401515 -48.883364 
L 17.269741 -47.951254 
L 19.137968 -49.815475 
L 19.137968 -54.942082 
L 21.006194 -54.476027 
L 28.479101 -54.476027 
L 31.281441 -54.942082 
L 33.149667 -55.874192 
L 36.88612 -59.602634 
L 38.754347 -60.534745 
L 42.4908 -60.068689 
L 45.29314 -59.602634 
L 48.09548 -58.204469 
L 49.963706 -53.543916 
L 52.766046 -53.077861 
L 53.70016 -54.009972 
L 52.766046 -56.806303 
L 65.843632 -66.127407 
L 67.711859 -66.127407 
L 71.448312 -64.263186 
L 72.382425 -63.331076 
L 73.316539 -61.466855 
L 76.118879 -61.0008 
L 79.855332 -62.398965 
L 89.196465 -62.398965 
L 96.669371 -61.466855 
L 101.339937 -56.806303 
L 104.142277 -47.485199 
L 114.417523 -49.349419 
L 120.022203 -45.620978 
L 129.363336 -32.105377 
L 123.758656 -20.920051 
L 121.89043 -19.055831 
L 119.08809 -16.725554 
L 118.153977 -14.861334 
L 118.153977 -12.997113 
L 117.219863 -9.268671 
L 116.28575 -7.40445 
L 114.417523 -4.142064 
L 110.68107 -0.879677 
L 106.944617 1.916654 
L 102.274051 1.916654 
L 101.339937 -0.879677 
L 100.405824 -5.074174 
L 98.537597 -7.870505 
L 94.801144 -5.540229 
L 92.932918 -6.938395 
L 91.064691 -7.40445 
L 90.130578 -6.938395 
L 88.262351 -5.540229 
L 90.130578 -5.540229 
L 91.998804 -5.074174 
L 92.932918 -3.676008 
L 93.867031 -1.811788 
L 86.394125 -1.345732 
L 86.394125 1.916654 
L 89.196465 6.577206 
L 91.998804 11.703814 
L 93.867031 11.703814 
L 96.669371 7.043261 
L 103.208164 5.179041 
L 110.68107 4.712985 
L 116.28575 5.645096 
L 127.495109 11.237758 
L 129.363336 12.169869 
L 129.363336 16.364366 
L 130.297449 19.160697 
L 132.165676 21.024918 
L 135.902129 21.024918 
L 134.033902 27.549691 
L 130.297449 27.549691 
L 126.560996 24.75336 
L 122.824543 22.889139 
L 120.956316 21.957028 
L 120.022203 20.558863 
L 119.08809 18.694642 
L 118.153977 16.830421 
L 116.28575 15.432255 
L 115.351637 14.9662 
L 101.339937 16.830421 
L 96.669371 18.694642 
L 78.921218 16.830421 
L 80.789445 20.092807 
L 80.789445 23.355194 
L 77.987105 30.346022 
L 77.987105 31.744188 
L 77.987105 35.472629 
L 77.052992 38.735016 
L 76.118879 41.531347 
L 77.987105 43.861623 
L 80.789445 49.920341 
L 91.064691 55.513004 
L 94.801144 56.911169 
L 96.669371 54.114838 
L 99.471711 48.05612 
L 112.549297 37.802906 
L 115.351637 32.210243 
L 119.08809 35.472629 
L 121.89043 39.667126 
L 121.89043 44.327679 
L 120.022203 49.454286 
L 126.560996 48.522175 
L 129.363336 49.454286 
L 128.429223 52.250617 
L 127.495109 55.046948 
L 130.297449 56.911169 
L 135.902129 58.77539 
L 134.968016 52.716672 
L 149.913828 55.979059 
L 153.650282 51.318507 
L 155.518508 51.318507 
L 156.452621 52.716672 
L 158.320848 54.114838 
L 160.189075 55.513004 
L 162.991414 56.911169 
L 164.859641 51.318507 
L 160.189075 49.454286 
L 158.320848 48.988231 
L 155.518508 49.454286 
L 159.254961 44.793734 
L 164.859641 42.929513 
L 171.398434 42.929513 
L 177.003114 43.395568 
L 181.67368 45.259789 
L 186.344247 48.988231 
L 188.212473 51.784562 
L 182.607794 53.182728 
L 184.47602 56.911169 
L 186.344247 60.639611 
L 187.27836 60.639611 
L 188.212473 59.241445 
L 189.146587 56.911169 
L 191.948926 62.503832 
L 197.553606 63.901998 
L 212.499419 62.503832 
L 207.828852 59.241445 
L 198.487719 54.580893 
L 192.88304 53.182728 
L 196.619493 49.454286 
L 203.158286 48.05612 
L 209.697079 48.05612 
L 214.367645 49.454286 
L 212.499419 47.12401 
L 216.235872 47.590065 
L 228.379345 49.920341 
L 232.115798 51.784562 
L 233.049911 53.648783 
L 228.379345 55.046948 
L 228.379345 56.911169 
L 235.852251 58.77539 
L 236.786364 58.309335 
L 236.786364 57.84328 
L 236.786364 57.377225 
L 237.720478 56.911169 
L 240.522817 59.241445 
L 245.193384 57.84328 
L 248.929837 57.84328 
L 251.732177 64.368053 
L 251.732177 62.969887 
L 253.600404 60.639611 
L 253.600404 58.77539 
L 256.402743 60.639611 
L 258.27097 61.571721 
L 260.139197 61.571721 
L 262.007423 60.639611 
L 258.27097 56.911169 
L 279.755576 54.114838 
L 284.426142 55.979059 
L 287.228482 57.377225 
L 290.030822 57.84328 
L 291.899048 58.77539 
L 292.833162 61.571721 
L 294.701388 62.969887 
L 298.437841 62.969887 
L 304.976634 62.503832 
L 309.647201 65.300163 
L 313.383654 69.49466 
L 318.054221 72.290991 
L 338.604713 74.621267 
L 343.275279 76.485488 
L 347.945846 79.28182 
L 345.143506 80.679985 
L 344.209393 81.14604 
L 347.945846 87.670813 
L 347.945846 90.9332 
L 348.879959 91.86531 
L 349.814072 91.86531 
L 351.682299 92.797421 
L 352.616412 94.195586 
L 354.484639 95.127697 
L 363.825772 98.390083 
L 364.759885 102.118525 
L 369.430451 105.846967 
L 381.573924 113.30385 
L 383.442151 116.100182 
L 386.244491 121.692844 
L 394.65151 133.344224 
L 396.519737 134.276335 
L 397.45385 136.140556 
L 410.531436 149.656157 
L 412.399663 150.588267 
L 416.136116 151.054323 
L 421.740796 152.918543 
L 429.213702 157.11304 
L 434.818382 162.705703 
L 436.686608 168.298365 
L 438.554835 168.298365 
L 442.291288 164.569924 
L 446.961855 164.569924 
L 453.500648 165.968089 
L 458.171214 166.434145 
L 462.84178 164.569924 
L 466.578234 161.773592 
L 472.182913 159.443316 
L 477.787593 158.977261 
L 480.589933 159.909372 
L 483.392273 161.773592 
L 488.062839 166.434145 
L 497.403972 172.026807 
L 500.206312 176.221304 
L 502.074539 180.881856 
L 503.942765 185.542408 
L 503.942765 191.135071 
L 502.074539 197.193789 
L 496.469859 200.456175 
L 490.865179 202.786451 
L 487.128726 206.514893 
L 482.45816 209.311224 
L 480.589933 210.243335 
L 478.721706 211.6415 
L 477.787593 221.42866 
L 469.380573 228.885543 
L 460.039441 228.419488 
L 448.830081 225.623157 
L 436.686608 225.157102 
L 420.806682 228.419488 
L 409.597323 229.351599 
L 388.112717 234.478206 
L 377.837471 232.613985 
L 370.364565 235.876372 
L 353.550526 233.08004 
L 333.934146 236.808482 
L 327.395353 237.274537 
L 320.85656 240.070868 
L 317.120107 243.79931 
L 312.449541 248.459862 
L 308.713088 251.722249 
L 302.174295 253.58647 
L 296.569615 253.58647 
L 292.833162 254.052525 
L 290.964935 256.382801 
L 289.096709 261.975463 
L 285.360255 268.966292 
L 276.953236 271.762623 
L 267.612103 273.160789 
L 265.743876 269.898402 
L 263.87565 268.966292 
L 262.941536 268.966292 
L 262.007423 271.296568 
L 262.007423 273.626844 
L 255.46863 275.95712 
L 254.534517 275.95712 
L 254.534517 255.45069 
L 243.325157 255.45069 
L 244.259271 254.052525 
L 245.193384 252.654359 
L 248.929837 250.324083 
L 252.66629 249.391973 
L 255.46863 243.79931 
L 257.336857 240.536924 
L 255.46863 237.740592 
L 255.46863 230.749764 
L 249.86395 231.681875 
L 247.061611 235.410316 
L 246.127497 238.206648 
L 244.259271 241.469034 
L 241.456931 240.536924 
L 239.588704 239.138758 
L 234.918138 240.536924 
L 233.984024 243.79931 
L 233.049911 246.595641 
L 233.984024 249.391973 
L 235.852251 249.858028 
L 236.786364 250.324083 
L 237.720478 249.858028 
L 238.654591 248.925917 
L 239.588704 247.993807 
L 239.588704 248.925917 
L 241.456931 251.722249 
L 237.720478 253.58647 
L 237.720478 255.45069 
L 233.049911 255.45069 
L 219.972325 264.771795 
L 219.038212 275.025009 
L 205.026512 278.287396 
L 179.805454 280.151617 
L 177.003114 279.685562 
L 168.596094 277.821341 
L 165.793754 276.423175 
L 163.925528 275.95712 
L 162.991414 276.423175 
L 161.123188 279.219506 
L 159.254961 280.151617 
L 152.716168 281.083727 
L 144.309149 280.617672 
L 135.902129 279.219506 
L 131.231563 275.95712 
L 121.89043 277.355286 
L 111.615184 271.762623 
L 101.339937 263.839684 
L 91.998804 259.179132 
L 86.394125 258.713077 
L 67.711859 259.179132 
L 63.041292 258.713077 
L 52.766046 255.916746 
L 47.161367 255.45069 
L 36.88612 256.382801 
L 32.215554 257.780967 
L 28.479101 260.111243 
L 24.742648 260.577298 
L -9.819544 252.188304 
L -33.172376 249.858028 
L -44.381736 250.324083 
L -65.866342 255.916746 
L -75.207474 257.314911 
L -93.88974 257.314911 
L -99.49442 257.780967 
L -110.703779 261.975463 
L -116.308459 262.907574 
L -149.002424 261.043353 
L -182.630503 263.839684 
L -188.235182 266.636016 
L -193.839862 266.636016 
L -199.444542 265.23785 
L -205.049222 264.771795 
L -208.785675 266.636016 
L -217.192694 273.160789 
L -222.797374 275.95712 
L -229.336167 277.821341 
L -262.964246 279.219506 
L -269.503039 278.287396 
L -282.580625 272.694733 
L -289.119418 271.762623 
L -292.855871 274.558954 
L -293.789984 274.558954 
L -295.658211 272.694733 
L -298.460551 272.228678 
L -301.262891 273.160789 
L -303.131117 275.95712 
L -309.66991 274.092899 
L -317.142816 273.160789 
L -323.681609 275.025009 
L -328.352176 280.151617 
L -320.87927 280.151617 
L -320.87927 282.015838 
L -325.549836 282.015838 
L -333.022742 284.812169 
L -337.693309 285.744279 
L -361.980254 286.210335 
L -377.86018 290.404832 
L -387.201313 291.336942 
L -398.410673 290.404832 
L -414.290599 294.599328 
L -419.895278 295.065384 
L -422.697618 294.599328 
L -426.434071 292.735108 
L -429.236411 290.404832 
L -431.104638 287.142445 
L -431.104638 282.481893 
L -425.499958 273.160789 
L -425.499958 270.364457 
L -423.631731 269.898402 
L -420.829392 269.432347 
L -418.961165 268.500236 
L -417.092938 267.102071 
L -415.224712 264.30574 
L -413.356485 262.907574 
L -414.290599 260.111243 
L -412.422372 257.780967 
L -407.751806 253.58647 
L -402.147126 245.197476 
L -401.213013 243.79931 
L -401.213013 241.935089 
L -388.135426 230.749764 
L -389.06954 228.419488 
L -392.805993 224.691046 
L -391.87188 223.292881 
L -390.003653 223.292881 
L -382.530747 225.623157 
L -379.728407 222.826826 
L -375.05784 221.42866 
L -374.123727 220.496549 
L -373.189614 218.632329 
L -368.519047 211.6415 
L -363.848481 208.845169 
L -352.639121 202.786451 
L -348.902668 196.261678 
L -344.232102 192.999292 
L -318.07693 180.415801 
L -312.47225 179.949746 
L -308.735797 177.61947 
L -304.999344 167.83231 
L -301.262891 164.569924 
L -300.328777 164.569924 
L -299.394664 164.569924 
L -297.526437 164.569924 
L -299.394664 167.83231 
L -297.526437 169.230476 
L -294.724097 169.696531 
L -290.053531 168.298365 
L -287.251191 165.968089 
L -284.448851 162.705703 
L -282.580625 158.511206 
L -281.646511 154.316709 
L -279.778285 152.452488 
L -269.503039 145.927715 
L -268.568925 132.412114 
L -266.700699 130.547893 
L -264.832472 128.683672 
L -261.096019 118.896513 
L -269.503039 106.313022 
L -271.371265 103.982746 
L -278.844172 98.856139 
L -288.185304 95.593752 
L -290.987644 95.127697 
L -289.119418 98.390083 
L -290.053531 100.254304 
L -295.658211 96.991918 
L -299.394664 95.127697 
L -302.197004 92.331366 
L -303.131117 85.806593 
L -302.197004 83.942372 
L -300.328777 83.010261 
L -297.526437 82.078151 
L -295.658211 81.14604 
L -290.053531 73.689157 
L -290.053531 71.824936 
L -300.328777 65.766218 
L -304.999344 64.834108 
L -306.86757 69.960715 
L -311.538137 64.834108 
L -316.208703 57.84328 
L -321.813383 51.784562 
L -328.352176 49.454286 
L -335.825082 49.920341 
L -344.232102 51.784562 
L -350.770895 54.580893 
L -354.507348 58.77539 
L -357.309688 56.911169 
L -358.243801 56.911169 
L -360.112028 57.84328 
L -361.980254 58.77539 
L -364.782594 59.241445 
L -365.716707 60.173556 
L -367.584934 60.639611 
L -370.387274 60.639611 
L -375.05784 59.707501 
L -388.135426 55.046948 
L -398.410673 60.173556 
L -401.213013 60.639611 
L -404.949466 57.84328 
L -405.883579 56.911169 
L -408.685919 56.445114 
L -416.158825 56.911169 
L -418.027052 56.445114 
L -422.697618 55.046948 
L -424.565845 54.114838 
L -425.499958 54.580893 
L -429.236411 55.046948 
L -441.379884 54.114838 
L -446.05045 52.716672 
L -453.523357 48.05612 
L -458.193923 46.657955 
L -467.535056 45.259789 
L -473.139736 46.657955 
L -476.876189 49.920341 
L -480.612642 53.182728 
L -484.349095 55.046948 
L -501.163135 55.513004 
L -509.570154 53.182728 
L -512.372494 47.12401 
L -514.240721 47.12401 
L -516.108947 51.318507 
L -524.515967 41.065292 
L -528.25242 39.667126 
L -533.8571 38.735016 
L -536.65944 35.472629 
L -541.330006 26.61758 
L -544.132346 23.355194 
L -548.802912 19.160697 
L -554.407592 15.89831 
L -558.144045 15.89831 
L -560.946385 17.296476 
L -561.880498 15.89831 
L -561.880498 13.568034 
L -562.814612 11.703814 
L -565.616951 7.975372 
L -567.485178 5.179041 
L -568.419291 2.848765 
L -570.287518 -1.345732 
L -588.03567 -14.395278 
L -591.772124 -15.327389 
L -601.113256 -14.861334 
L -603.915596 -16.725554 
L -606.717936 -20.920051 
L -610.454389 -28.376935 
L -614.190843 -31.639321 
L -623.531975 -38.63015 
L -625.400202 -39.096205 
L -627.268429 -41.892536 
L -629.136655 -51.21364 
L -630.070768 -68.923738 
L -631.938995 -76.846677 
L -635.675448 -84.769616 
L -638.477788 -92.226499 
L -637.543675 -100.149438 
L -634.741335 -97.353107 
L -631.938995 -97.353107 
L -629.136655 -99.217327 
L -628.202542 -102.945769 
L -630.070768 -105.7421 
L -638.477788 -108.538432 
L -640.346015 -110.402652 
L -641.280128 -115.52926 
L -644.082468 -124.384309 
L -644.082468 -129.510916 
L -645.016581 -134.171468 
L -650.621261 -142.560462 
L -651.555374 -146.754959 
L -653.423601 -156.076063 
L -657.160054 -164.931113 
L -661.83062 -172.387996 
L -667.4353 -177.980659 
L -672.105867 -180.77699 
L -675.84232 -182.175155 
L -689.854019 -184.039376 
L -692.656359 -185.437542 
L -694.524585 -187.301763 
L -692.656359 -191.030205 
L -689.854019 -189.632039 
L -686.117566 -188.699928 
L -678.64466 -189.165984 
L -677.710546 -190.098094 
L -679.578773 -193.360481 
L -682.381113 -197.554978 
L -684.249339 -199.419198 
L -687.051679 -201.283419 
L -692.656359 -204.079751 
L -696.392812 -205.477916 
L -698.261039 -205.011861 
L -700.129265 -204.079751 
L -702.931605 -202.21553 
L -715.075078 -199.885254 
L -727.218551 -198.487088 
L -728.152664 -198.021033 
L -730.02089 -196.622867 
L -730.955004 -195.224701 
L -731.889117 -193.826536 
L -732.82323 -192.894425 
L -734.691457 -192.42837 
L -742.164363 -192.894425 
L -745.900816 -193.826536 
L -748.703156 -193.826536 
L -751.505496 -192.894425 
L -752.439609 -194.758646 
L -757.110176 -192.42837 
L -761.780742 -191.49626 
L -772.990102 -191.030205 
L -778.594782 -190.098094 
L -791.672368 -183.573321 
L -802.881727 -180.77699 
L -813.156973 -179.844879 
L -823.432219 -180.77699 
L -843.982712 -186.835708 
L -848.653278 -189.632039 
L -853.323845 -193.826536 
L -857.060298 -194.292591 
L -870.137884 -192.894425 
L -875.742564 -192.894425 
L -881.347243 -194.758646 
L -884.149583 -196.156812 
L -886.01781 -198.487088 
L -889.754263 -205.011861 
L -892.556603 -207.342137 
L -893.490716 -205.011861 
L -894.424829 -202.21553 
L -896.293056 -200.351309 
L -899.095396 -200.351309 
L -900.963622 -201.283419 
L -903.765962 -203.613695 
L -905.634189 -204.545806 
L -916.843548 -207.808192 
L -917.777662 -208.274247 
L -919.645888 -210.138468 
L -921.514115 -212.468744 
L -922.448228 -215.731131 
L -924.316455 -218.061407 
L -928.052908 -219.459573 
L -945.80106 -219.925628 
L -963.549213 -225.052235 
L -970.088006 -224.58618 
L -972.890346 -220.391683 
L -974.758572 -215.731131 
L -979.429139 -216.197186 
L -985.033819 -218.993517 
L -990.638498 -221.323793 
L -990.638498 -223.188014 
L -985.967932 -225.052235 
L -985.967932 -226.916456 
L -989.704385 -227.848566 
L -990.638498 -231.110953 
L -990.638498 -234.839395 
L -990.638498 -238.101781 
L -995.309065 -234.839395 
L -999.979631 -233.441229 
L -1004.650198 -233.441229 
L -1011.188991 -234.373339 
L -1015.859557 -236.23756 
L -1019.59601 -237.169671 
L -1021.464237 -236.703615 
L -1022.39835 -234.373339 
L -1020.530124 -232.509119 
L -1017.727784 -231.110953 
L -1015.859557 -230.644898 
L -1018.661897 -227.382511 
L -1024.266577 -229.712787 
L -1028.00303 -234.839395 
L -1029.871256 -239.033892 
L -1030.80537 -245.092609 
L -1032.673596 -250.219217 
L -1035.475936 -253.947658 
L -1040.146503 -255.345824 
L -1045.751182 -256.277934 
L -1056.026429 -260.472431 
L -1067.235788 -262.802707 
L -1074.708694 -268.861425 
L -1087.78628 -273.055922 
L -1096.1933 -280.04675 
L -1124.216699 -310.340339 
L -1125.150812 -311.27245 
L -1125.150812 -312.670615 
L -1125.150812 -314.534836 
L -1126.084925 -315.933002 
L -1127.019039 -315.933002 
L -1130.755492 -315.466947 
L -1131.689605 -315.933002 
L -1134.491945 -318.263278 
L -1135.426058 -320.127499 
L -1135.426058 -323.389885 
L -1131.689605 -322.457775 
L -1127.019039 -322.92383 
L -1122.348472 -324.321996 
L -1118.612019 -327.118327 
L -1123.282585 -326.186217 
L -1124.216699 -325.254106 
L -1123.282585 -328.050437 
L -1122.348472 -330.380713 
L -1121.414359 -332.244934 
L -1121.414359 -334.57521 
L -1123.282585 -335.507321 
L -1126.084925 -334.57521 
L -1128.887265 -335.041266 
L -1127.953152 -338.303652 
L -1133.557832 -338.303652 
L -1136.360171 -340.633928 
L -1137.294285 -343.896315 
L -1133.557832 -348.090812 
L -1139.162511 -351.819253 
L -1141.964851 -354.149529 
L -1143.833078 -357.411916 
L -1145.701304 -354.615585 
L -1148.503644 -353.683474 
L -1153.174211 -354.149529 
L -1156.910664 -355.547695 
L -1157.844777 -349.955032 
L -1155.042437 -346.226591 
L -1147.569531 -340.633928 
L -1143.833078 -335.507321 
L -1140.096625 -328.982548 
L -1139.162511 -322.457775 
L -1140.096625 -315.933002 
L -1151.305984 -320.127499 
L -1183.999949 -319.195388 
L -1215.759801 -321.525664 
L -1253.124333 -317.331168 
L -1275.543052 -319.661444 
L -1281.147731 -321.059609 
L -1290.488864 -326.186217 
L -1300.76411 -328.050437 
L -1304.500564 -330.846769 
L -1307.302903 -335.041266 
L -1313.841697 -349.022922 
L -1314.77581 -351.819253 
L -1314.77581 -356.01375 
L -1312.907583 -368.131186 
L -1313.841697 -368.597241 
L -1321.314603 -379.316511 
L -1324.116943 -381.646787 
L -1327.853396 -382.112842 
L -1330.655736 -381.180732 
L -1332.523962 -378.384401 
L -1332.523962 -375.122014 
L -1328.787509 -363.004578 
L -1328.787509 -329.448603 
L -1330.655736 -321.059609 
L -1336.260415 -321.525664 
L -1332.523962 -327.584382 
L -1333.458076 -335.973376 
L -1337.194529 -344.36237 
L -1339.996869 -346.226591 
L -1346.535662 -343.430259 
L -1348.403888 -342.498149 
L -1349.338002 -340.167873 
L -1349.338002 -335.041266 
L -1350.272115 -332.71099 
L -1353.074455 -331.312824 
L -1354.942681 -332.244934 
L -1356.810908 -334.109155 
L -1359.613248 -334.57521 
L -1361.481474 -333.177045 
L -1361.481474 -331.312824 
L -1362.415588 -329.914658 
L -1365.217927 -328.982548 
L -1374.55906 -333.177045 
L -1380.16374 -351.353198 
L -1390.438986 -355.547695 
L -1402.582459 -355.547695 
L -1405.384799 -356.479805 
L -1410.989479 -360.208247 
L -1413.791819 -361.140358 
L -1415.660045 -360.208247 
L -1419.396498 -356.479805 
L -1422.198838 -355.547695 
L -1423.132951 -355.547695 
L -1423.132951 -354.615585 
L -1424.067065 -354.149529 
L -1425.935291 -353.683474 
L -1426.869405 -354.149529 
L -1426.869405 -356.479805 
L -1428.737631 -357.411916 
L -1439.012877 -361.140358 
L -1440.881104 -362.072468 
L -1443.683444 -363.004578 
L -1446.485784 -363.470634 
L -1448.35401 -360.208247 
L -1450.222237 -359.276137 
L -1456.76103 -358.810082 
L -1462.36571 -359.276137 
L -1466.102163 -361.140358 
L -1467.970389 -361.140358 
L -1467.970389 -357.877971 
L -1469.838616 -356.945861 
L -1474.509182 -357.411916 
L -1474.509182 -356.479805 
L -1473.575069 -355.547695 
L -1472.640956 -353.683474 
L -1475.443296 -353.683474 
L -1487.586768 -355.08164 
L -1491.323222 -356.479805 
L -1497.862015 -363.936689 
L -1500.664354 -367.665131 
L -1501.598468 -371.859628 
L -1506.269034 -376.52018 
L -1542.699452 -390.967891 
L -1546.435906 -392.832112 
L -1550.172359 -396.094499 
L -1552.974699 -397.492664 
L -1557.645265 -397.95872 
L -1560.447605 -398.89083 
L -1561.381718 -400.288996 
L -1564.184058 -405.415603 
L -1564.184058 -406.813769 
L -1567.920511 -406.813769 
L -1572.591078 -407.279824 
L -1577.261644 -409.144045 
L -1580.063984 -413.804597 
L -1578.195757 -418.465149 
L -1575.393418 -420.795425 
L -1570.722851 -422.659646 
L -1567.920511 -423.591756 
L -1538.028886 -422.659646 
L -1528.687753 -424.989922 
L -1521.214847 -424.057812 
L -1513.74194 -424.523867 
L -1509.071374 -425.455977 
L -1501.598468 -424.057812 
L -1495.993788 -423.125701 
L -1482.916202 -425.455977 
L -1472.640956 -429.650474 
L -1469.838616 -429.184419 
L -1467.036276 -430.582585 
L -1461.431596 -430.582585 
L -1458.629256 -431.514695 
L -1454.892803 -432.446805 
L -1451.15635 -435.709192 
L -1449.288124 -438.039468 
L -1446.485784 -438.971578 
L -1447.419897 -445.030296 
L -1445.55167 -447.360572 
L -1446.485784 -452.021124 
L -1444.617557 -459.478008 
L -1444.617557 -462.740394 
L -1448.35401 -463.672505 
L -1452.090463 -464.13856 
L -1459.56337 -469.731222 
L -1464.233936 -473.925719 
L -1473.575069 -480.450492 
L -1481.982089 -483.712879 
L -1505.334921 -492.101873 
L -1514.676054 -491.635818 
L -1535.226546 -489.771597 
L -1562.315832 -485.111045 
L -1570.722851 -488.839486 
L -1588.471004 -493.966094 
L -1608.087383 -493.500038 
L -1619.296742 -492.567928 
L -1624.901422 -491.635818 
L -1630.506102 -492.567928 
L -1638.913121 -494.432149 
L -1655.727161 -492.101873 
L -1669.73886 -495.364259 
L -1672.5412 -494.898204 
L -1677.211766 -492.567928 
L -1680.014106 -491.635818 
L -1692.157579 -494.432149 
L -1701.498712 -492.101873 
L -1728.587997 -499.558756 
L -1734.192677 -499.092701 
L -1739.797357 -496.762425 
L -1742.599696 -492.101873 
L -1743.53381 -486.975265 
L -1743.53381 -481.382603 
L -1744.467923 -476.255995 
L -1749.138489 -473.925719 
L -1757.545509 -470.663333 
L -1773.425435 -457.613787 
L -1776.227775 -455.749566 
L -1781.832455 -455.283511 
L -1786.503021 -453.885345 
L -1803.31706 -445.030296 
L -1811.72408 -439.437634 
L -1819.196986 -431.98075 
L -1834.142799 -404.017437 
L -1839.747479 -397.95872 
L -1848.154498 -397.026609 
L -1856.561518 -399.82294 
L -1860.297971 -399.82294 
L -1864.034424 -398.89083 
L -1864.034424 -398.424775 
L -1864.034424 -394.230278 
L -1864.968537 -393.298167 
L -1865.902651 -393.298167 
L -1866.836764 -393.764223 
L -1868.704991 -393.298167 
L -1869.639104 -393.298167 
L -1870.573217 -393.298167 
L -1871.50733 -392.366057 
L -1871.50733 -388.637615 
L -1871.50733 -387.705505 
L -1880.848463 -381.646787 
L -1883.650803 -378.384401 
L -1885.51903 -376.054124 
L -1885.51903 -374.655959 
L -1885.51903 -373.723848 
L -1885.51903 -372.325683 
L -1887.387256 -368.597241 
L -1888.32137 -366.73302 
L -1891.12371 -364.868799 
L -1892.057823 -365.80091 
L -1892.057823 -366.73302 
L -1892.057823 -363.470634 
L -1893.926049 -361.606413 
L -1895.794276 -364.402744 
L -1897.662503 -365.334855 
L -1899.530729 -364.868799 
L -1900.464842 -360.674302 
L -1904.201296 -356.01375 
L -1917.278882 -354.615585 
L -1930.356468 -356.479805 
L -1942.49994 -361.140358 
L -1939.697601 -363.470634 
L -1940.631714 -366.266965 
L -1942.49994 -369.063296 
L -1944.368167 -372.325683 
L -1946.236394 -372.325683 
L -1949.972847 -365.334855 
L -1955.577527 -358.344026 
L -1963.984546 -353.683474 
L -1970.523339 -351.819253 
L -1970.523339 -352.751364 
L -1969.589226 -354.615585 
L -1968.655113 -355.547695 
L -1997.612625 -351.353198 
L -1999.480851 -351.819253 
L -2000.414964 -352.751364 
L -2001.349078 -354.615585 
L -2001.349078 -356.479805 
L -2001.349078 -357.411916 
L -2004.151418 -356.479805 
L -2006.953757 -352.751364 
L -2010.690211 -351.819253 
L -2031.240703 -352.751364 
L -2036.845383 -351.819253 
L -2047.120629 -341.566039 
L -2048.054742 -339.235763 
L -2049.922969 -331.778879 
L -2050.857082 -328.982548 
L -2049.922969 -327.118327 
L -2048.988855 -325.720161 
L -2048.988855 -321.525664 
L -2051.791195 -323.85594 
L -2054.593535 -323.389885 
L -2056.461762 -320.127499 
L -2056.461762 -315.933002 
L -2054.593535 -312.20456 
L -2051.791195 -310.806395 
L -2048.988855 -311.738505 
L -2045.252402 -314.068781 
L -2047.120629 -308.010063 
L -2055.527648 -301.48529 
L -2058.329988 -295.892628 
L -2057.395875 -294.494462 
L -2055.527648 -293.096296 
L -2054.593535 -291.232076 
L -2055.527648 -288.435744 
L -2058.329988 -286.105468 
L -2061.132328 -283.775192 
L -2063.934668 -282.377026 
L -2066.737008 -281.910971 
L -2071.407574 -282.843082 
L -2081.682821 -287.969689 
L -2087.2875 -289.367855 
L -2092.89218 -287.969689 
L -2103.167426 -281.910971 
L -2107.837993 -280.04675 
L -2110.640333 -279.580695 
L -2116.245012 -280.04675 
L -2118.113239 -280.04675 
L -2120.915579 -278.648585 
L -2127.454372 -274.920143 
L -2134.927278 -272.589867 
L -2165.753017 -246.95683 
L -2176.962376 -240.898112 
L -2188.171736 -239.966002 
L -2190.974075 -245.558665 
L -2180.698829 -267.46326 
L -2178.830603 -278.18253 
L -2184.435282 -286.105468 
L -2194.710529 -287.969689 
L -2206.854001 -286.105468 
L -2227.404494 -280.04675 
L -2237.67974 -275.386198 
L -2263.834912 -258.142155 
L -2274.110158 -255.811879 
L -2285.319518 -255.811879 
L -2296.528877 -259.074266 
L -2299.331217 -261.870597 
z
" clip-path="url(#p85a311c8fb)" style="fill: #bdc3c7; stroke: #ffffff; stroke-width: 0.5"/>
    <path d="M -1846.286272 -202.21553 
L -1844.418045 -202.21553 
L -1841.615705 -199.419198 
L -1828.538119 -190.098094 
L -1826.669893 -186.369652 
L -1822.933439 -183.107266 
L -1818.262873 -180.77699 
L -1813.592306 -179.844879 
L -1802.382947 -179.844879 
L -1802.382947 -180.77699 
L -1794.910041 -187.301763 
L -1790.239474 -190.098094 
L -1788.371248 -191.49626 
L -1787.437134 -193.826536 
L -1786.503021 -193.360481 
L -1785.568908 -191.962315 
L -1785.568908 -189.165984 
L -1787.437134 -185.437542 
L -1785.568908 -183.573321 
L -1780.898341 -191.962315 
L -1782.766568 -195.224701 
L -1790.239474 -196.622867 
L -1793.041814 -199.419198 
L -1815.460533 -238.567836 
L -1819.196986 -249.287106 
L -1816.394646 -261.404542 
L -1805.185287 -269.793536 
L -1803.31706 -273.521977 
L -1801.448834 -276.318309 
L -1795.844154 -280.04675 
L -1790.239474 -282.843082 
L -1785.568908 -283.775192 
L -1789.305361 -285.173358 
L -1792.107701 -285.639413 
L -1794.910041 -285.639413 
L -1797.712381 -287.037579 
L -1797.712381 -287.969689 
L -1795.844154 -288.435744 
L -1793.975927 -290.299965 
L -1760.347849 -286.105468 
L -1738.863243 -280.978861 
L -1723.917431 -276.784364 
L -1720.180978 -274.920143 
L -1716.444524 -271.657757 
L -1714.576298 -267.46326 
L -1715.510411 -262.336652 
L -1717.378638 -259.074266 
L -1716.444524 -255.811879 
L -1712.708071 -251.617382 
L -1701.498712 -241.830223 
L -1697.762259 -242.296278 
L -1694.959919 -240.898112 
L -1694.025805 -237.635726 
L -1692.157579 -234.373339 
L -1691.223466 -231.577008 
L -1691.223466 -229.712787 
L -1692.157579 -226.450401 
L -1694.959919 -221.323793 
L -1696.828145 -221.323793 
L -1695.894032 -218.993517 
L -1694.959919 -216.663241 
L -1695.894032 -214.332965 
L -1696.828145 -212.002689 
L -1691.223466 -208.274247 
L -1688.421126 -206.876082 
L -1684.684673 -206.410027 
L -1684.684673 -204.079751 
L -1686.552899 -200.817364 
L -1684.684673 -197.554978 
L -1680.948219 -194.292591 
L -1677.211766 -192.894425 
L -1680.014106 -188.699928 
L -1685.618786 -183.107266 
L -1691.223466 -177.980659 
L -1695.894032 -175.650382 
L -1700.564598 -174.718272 
L -1734.192677 -158.40634 
L -1753.809056 -151.415511 
L -1772.491322 -149.085235 
L -1775.293662 -150.483401 
L -1778.096001 -152.813677 
L -1794.910041 -153.279732 
L -1796.778267 -154.211843 
L -1802.382947 -156.076063 
L -1805.185287 -157.008174 
L -1814.52642 -157.008174 
L -1817.32876 -157.940284 
L -1825.735779 -169.125609 
L -1828.538119 -171.921941 
L -1836.011025 -177.048548 
L -1838.813365 -179.844879 
L -1840.681592 -185.437542 
L -1842.549818 -192.894425 
L -1845.352158 -199.885254 
z
" clip-path="url(#p85a311c8fb)" style="fill: #bdc3c7; stroke: #ffffff; stroke-width: 0.5"/>
    <path d="M -486.217322 -332.71099 
L -481.546755 -332.71099 
L -477.810302 -330.380713 
L -474.073849 -327.584382 
L -470.337396 -325.254106 
L -465.666829 -325.254106 
L -462.86449 -326.652272 
L -460.996263 -328.982548 
L -457.25981 -330.846769 
L -453.523357 -332.244934 
L -449.786904 -331.778879 
L -446.05045 -330.846769 
L -443.248111 -328.982548 
L -442.313997 -328.050437 
L -440.445771 -324.321996 
L -438.577544 -323.389885 
L -436.709318 -323.85594 
L -432.972864 -326.652272 
L -431.104638 -327.118327 
L -428.302298 -325.720161 
L -419.895278 -320.593554 
L -417.092938 -319.661444 
L -413.356485 -321.059609 
L -411.488259 -323.389885 
L -408.685919 -323.85594 
L -404.015352 -319.661444 
L -402.147126 -315.933002 
L -402.147126 -312.670615 
L -402.147126 -308.942174 
L -407.751806 -296.358683 
L -407.751806 -294.028407 
L -404.015352 -289.367855 
L -408.685919 -289.367855 
L -411.488259 -287.969689 
L -417.092938 -283.775192 
L -415.224712 -288.901799 
L -417.092938 -290.76602 
L -419.895278 -290.299965 
L -421.763505 -285.639413 
L -421.763505 -284.707303 
L -420.829392 -282.843082 
L -419.895278 -280.978861 
L -421.763505 -280.04675 
L -423.631731 -280.04675 
L -424.565845 -281.444916 
L -425.499958 -283.309137 
L -428.302298 -287.503634 
L -430.170524 -290.299965 
L -431.104638 -292.630241 
L -434.841091 -294.960517 
L -438.577544 -293.562352 
L -444.182224 -294.494462 
L -449.786904 -297.290793 
L -453.523357 -299.621069 
L -453.523357 -302.417401 
L -452.589243 -305.213732 
L -451.65513 -308.010063 
L -450.721017 -311.27245 
L -451.65513 -313.136671 
L -454.45747 -314.534836 
L -459.128036 -315.933002 
L -458.193923 -313.602726 
L -458.193923 -311.27245 
L -458.193923 -308.476118 
L -459.128036 -306.611898 
L -460.996263 -312.20456 
L -462.86449 -312.20456 
L -465.666829 -308.010063 
L -469.403283 -307.077953 
L -474.073849 -308.476118 
L -475.942076 -313.136671 
L -477.810302 -316.399057 
L -482.480869 -320.127499 
L -485.283209 -324.788051 
L -484.349095 -330.846769 
z
" clip-path="url(#p85a311c8fb)" style="fill: #bdc3c7; stroke: #ffffff; stroke-width: 0.5"/>
    <path d="M -511.438381 -359.276137 
L -506.767814 -361.140358 
L -503.965474 -364.402744 
L -501.163135 -369.063296 
L -500.229021 -373.257793 
L -500.229021 -383.511008 
L -501.163135 -386.773394 
L -503.965474 -391.433947 
L -500.229021 -390.967891 
L -495.558455 -389.569726 
L -492.756115 -386.773394 
L -491.822002 -383.044953 
L -492.756115 -380.714677 
L -495.558455 -377.918345 
L -497.426681 -374.189904 
L -495.558455 -369.995407 
L -493.690228 -369.063296 
L -487.151435 -369.529351 
L -484.349095 -368.597241 
L -482.480869 -366.266965 
L -481.546755 -363.470634 
L -479.678529 -361.606413 
L -475.942076 -361.140358 
L -478.744416 -363.004578 
L -477.810302 -364.868799 
L -476.876189 -366.266965 
L -475.007962 -367.665131 
L -474.073849 -368.597241 
L -472.205623 -365.334855 
L -469.403283 -363.936689 
L -466.600943 -363.936689 
L -464.732716 -367.199075 
L -462.86449 -362.538523 
L -465.666829 -360.208247 
L -470.337396 -359.276137 
L -474.073849 -357.411916 
L -471.271509 -356.479805 
L -468.469169 -355.08164 
L -466.600943 -353.217419 
L -464.732716 -351.819253 
L -461.930376 -350.887143 
L -457.25981 -349.955032 
L -454.45747 -348.090812 
L -460.06215 -336.439431 
L -463.798603 -331.778879 
L -466.600943 -334.57521 
L -467.535056 -334.109155 
L -471.271509 -333.177045 
L -472.205623 -332.71099 
L -473.139736 -335.041266 
L -473.139736 -335.973376 
L -475.942076 -338.303652 
L -476.876189 -343.896315 
L -482.480869 -345.760536 
L -486.217322 -343.896315 
L -484.349095 -336.905486 
L -487.151435 -338.303652 
L -496.492568 -343.430259 
L -498.360795 -345.29448 
L -500.229021 -349.022922 
L -508.636041 -355.08164 
z
" clip-path="url(#p85a311c8fb)" style="fill: #bdc3c7; stroke: #ffffff; stroke-width: 0.5"/>
    <path d="M -679.578773 -444.564241 
L -679.578773 -453.885345 
L -678.64466 -452.953235 
L -676.776433 -452.021124 
L -675.84232 -457.613787 
L -673.03998 -458.079842 
L -670.23764 -456.681676 
L -668.369413 -456.681676 
L -665.567073 -457.147732 
L -654.357714 -454.817456 
L -647.818921 -451.089014 
L -640.346015 -450.156903 
L -632.873108 -451.089014 
L -626.334315 -450.156903 
L -620.729636 -450.622959 
L -616.059069 -453.885345 
L -612.322616 -457.613787 
L -607.65205 -459.478008 
L -602.04737 -459.011953 
L -595.508577 -457.147732 
L -590.83801 -454.3514 
L -588.03567 -450.156903 
L -588.969784 -450.622959 
L -590.83801 -452.021124 
L -589.903897 -448.292683 
L -572.155745 -430.582585 
L -571.221631 -428.252308 
L -572.155745 -425.455977 
L -574.023971 -425.455977 
L -576.826311 -426.854143 
L -578.694538 -427.320198 
L -610.454389 -419.863315 
L -610.454389 -421.727535 
L -610.454389 -422.659646 
L -609.520276 -423.125701 
L -609.520276 -424.523867 
L -608.586163 -426.388088 
L -607.65205 -427.320198 
L -606.717936 -427.320198 
L -604.84971 -426.854143 
L -603.915596 -427.320198 
L -602.981483 -430.116529 
L -603.915596 -432.446805 
L -606.717936 -433.844971 
L -609.520276 -431.98075 
L -615.124956 -430.116529 
L -621.663749 -429.184419 
L -633.807222 -429.184419 
L -639.411901 -431.04864 
L -646.884808 -435.709192 
L -657.160054 -438.039468 
L -664.63296 -440.369744 
L -669.303527 -443.166075 
L -665.567073 -446.428462 
L -669.303527 -450.622959 
L -674.908206 -446.894517 
z
" clip-path="url(#p85a311c8fb)" style="fill: #bdc3c7; stroke: #ffffff; stroke-width: 0.5"/>
    <path d="M -580.562764 -416.134873 
L -576.826311 -420.32937 
L -571.221631 -421.727535 
L -562.814612 -421.727535 
L -554.407592 -424.989922 
L -550.671139 -424.989922 
L -548.802912 -421.727535 
L -543.198233 -424.523867 
L -536.65944 -422.659646 
L -530.120646 -418.465149 
L -525.45008 -413.804597 
L -522.64774 -410.54221 
L -520.779514 -406.347713 
L -518.911287 -402.153216 
L -517.977174 -392.832112 
L -517.04306 -390.035781 
L -511.438381 -383.977063 
L -508.636041 -383.977063 
L -504.899588 -382.578897 
L -502.097248 -382.112842 
L -506.767814 -377.918345 
L -512.372494 -379.782566 
L -525.45008 -387.705505 
L -531.05476 -389.10367 
L -537.593553 -389.10367 
L -544.132346 -390.035781 
L -550.671139 -395.162388 
L -545.066459 -398.89083 
L -546.934686 -403.551382 
L -552.539365 -405.881658 
L -555.341705 -403.551382 
L -555.341705 -401.221106 
L -556.275819 -398.424775 
L -558.144045 -396.560554 
L -560.946385 -397.026609 
L -562.814612 -400.288996 
L -562.814612 -403.551382 
L -561.880498 -405.881658 
L -559.078158 -404.949548 
L -559.078158 -409.6101 
L -562.814612 -415.202762 
L -569.353405 -417.533039 
L -574.958084 -413.804597 
L -576.826311 -415.202762 
L -577.760424 -415.668818 
L -578.694538 -415.668818 
z
" clip-path="url(#p85a311c8fb)" style="fill: #bdc3c7; stroke: #ffffff; stroke-width: 0.5"/>
    <path d="M -923.382341 -520.997296 
L -923.382341 -525.657848 
L -915.909435 -527.988124 
L -911.238869 -528.454179 
L -906.568302 -526.589959 
L -893.490716 -511.210137 
L -887.886036 -507.01564 
L -875.742564 -503.287198 
L -865.467317 -495.364259 
L -855.192071 -491.169762 
L -849.587392 -486.043155 
L -845.850938 -479.518382 
L -843.982712 -474.85783 
L -849.587392 -479.984437 
L -851.455618 -480.450492 
L -853.323845 -480.916548 
L -856.126185 -481.848658 
L -859.862638 -484.178934 
L -863.599091 -487.441321 
L -872.00611 -497.22848 
L -876.676677 -495.364259 
L -881.347243 -496.29637 
L -886.01781 -498.160591 
L -891.62249 -502.821143 
L -893.490716 -503.287198 
L -894.424829 -504.685364 
L -895.358943 -507.481695 
L -896.293056 -508.87986 
L -900.029509 -511.676192 
L -900.963622 -512.608302 
L -903.765962 -514.472523 
L -904.700076 -518.200965 
L -907.502416 -521.929406 
L -912.172982 -523.793627 
L -919.645888 -520.531241 
z
" clip-path="url(#p85a311c8fb)" style="fill: #bdc3c7; stroke: #ffffff; stroke-width: 0.5"/>
    <path d="M -816.893426 -30.241156 
L -805.684067 -30.707211 
L -794.474707 -23.716383 
L -784.199461 -13.929223 
L -777.660668 -5.540229 
L -779.528895 -6.006285 
L -783.265348 -5.540229 
L -782.331235 -4.142064 
L -781.397121 0.052433 
L -788.870028 -3.676008 
L -793.540594 -8.336561 
L -802.881727 -18.589775 
L -802.881727 -20.920051 
L -798.211161 -19.055831 
L -794.474707 -15.793444 
L -791.672368 -12.531058 
L -788.870028 -9.268671 
L -791.672368 -14.861334 
L -797.277047 -21.852162 
L -803.81584 -27.444824 
L -809.42052 -28.376935 
L -809.42052 -26.512714 
L -809.42052 -25.114548 
L -808.486407 -24.648493 
L -808.486407 -24.182438 
L -807.552294 -22.784272 
L -811.288747 -23.716383 
L -813.156973 -25.114548 
L -815.0252 -27.444824 
z
" clip-path="url(#p85a311c8fb)" style="fill: #bdc3c7; stroke: #ffffff; stroke-width: 0.5"/>
    <path d="M -1169.054137 -630.054216 
L -1168.120023 -633.782658 
L -1166.251797 -636.112934 
L -1163.449457 -637.045044 
L -1158.77889 -637.5111 
L -1157.844777 -637.045044 
L -1155.976551 -634.248713 
L -1155.042437 -633.782658 
L -1152.240097 -633.316603 
L -1145.701304 -633.782658 
L -1144.767191 -633.782658 
L -1142.898964 -634.714768 
L -1141.030738 -634.714768 
L -1140.096625 -632.384492 
L -1141.030738 -630.520271 
L -1142.898964 -629.588161 
L -1144.767191 -628.65605 
L -1146.635418 -626.79183 
L -1149.437758 -627.257885 
L -1154.108324 -629.122106 
L -1158.77889 -630.986327 
L -1163.449457 -630.054216 
L -1164.38357 -631.452382 
L -1165.317683 -631.452382 
z
" clip-path="url(#p85a311c8fb)" style="fill: #bdc3c7; stroke: #ffffff; stroke-width: 0.5"/>
    <path d="M -1269.938372 -610.945952 
L -1267.136032 -614.208339 
L -1251.256106 -624.461554 
L -1246.58554 -625.393664 
L -1241.914973 -625.393664 
L -1236.310293 -623.995498 
L -1237.244407 -625.393664 
L -1239.112633 -628.189995 
L -1240.046747 -630.054216 
L -1238.17852 -631.452382 
L -1237.244407 -629.588161 
L -1233.507954 -625.859719 
L -1233.507954 -630.054216 
L -1230.705614 -630.054216 
L -1228.837387 -625.859719 
L -1226.969161 -623.995498 
L -1226.969161 -622.597333 
L -1229.7715 -620.267057 
L -1233.507954 -617.936781 
L -1237.244407 -618.402836 
L -1239.112633 -619.801001 
L -1242.849086 -620.267057 
L -1251.256106 -619.801001 
L -1257.794899 -617.470725 
z
" clip-path="url(#p85a311c8fb)" style="fill: #bdc3c7; stroke: #ffffff; stroke-width: 0.5"/>
    <path d="M -1566.986398 -185.903597 
L -1563.249945 -186.835708 
L -1558.579378 -191.49626 
L -1555.777039 -191.962315 
L -1552.974699 -193.826536 
L -1551.106472 -195.690757 
L -1549.238246 -197.088922 
L -1542.699452 -199.885254 
L -1538.962999 -199.885254 
L -1536.160659 -201.283419 
L -1534.292433 -203.613695 
L -1533.35832 -205.477916 
L -1532.424206 -206.876082 
L -1532.424206 -207.342137 
L -1530.55598 -205.011861 
L -1529.621866 -200.351309 
L -1534.292433 -196.622867 
L -1544.567679 -192.894425 
L -1552.040585 -189.165984 
L -1553.908812 -188.699928 
L -1555.777039 -187.767818 
L -1556.711152 -186.369652 
L -1560.447605 -185.437542 
L -1566.052285 -184.971487 
z
" clip-path="url(#p85a311c8fb)" style="fill: #bdc3c7; stroke: #ffffff; stroke-width: 0.5"/>
    <path d="M -950.471627 -546.164278 
L -950.471627 -548.960609 
L -946.735174 -549.892719 
L -947.669287 -551.75694 
L -947.669287 -554.087216 
L -945.80106 -555.019327 
L -943.932834 -551.75694 
L -944.866947 -547.562443 
L -942.998721 -546.630333 
L -938.328154 -545.698222 
L -936.459927 -543.367946 
L -935.525814 -541.503725 
L -931.789361 -539.639505 
L -929.921134 -537.775284 
L -932.723474 -535.445008 
L -936.459927 -534.512897 
L -938.328154 -536.377118 
L -938.328154 -538.241339 
L -939.262267 -539.173449 
L -940.196381 -539.639505 
L -941.130494 -539.639505 
L -942.998721 -540.10556 
L -948.6034 -543.367946 
z
" clip-path="url(#p85a311c8fb)" style="fill: #bdc3c7; stroke: #ffffff; stroke-width: 0.5"/>
    <path d="M -1097.127413 -615.140449 
L -1097.127413 -617.470725 
L -1095.259187 -619.334946 
L -1093.39096 -619.801001 
L -1091.522734 -619.801001 
L -1088.720394 -619.334946 
L -1088.720394 -617.470725 
L -1086.852167 -615.606504 
L -1083.115714 -612.344118 
L -1081.247487 -610.013842 
L -1081.247487 -609.081731 
L -1080.313374 -607.217511 
L -1080.313374 -605.819345 
L -1081.247487 -603.955124 
L -1083.115714 -603.955124 
L -1084.983941 -604.887235 
L -1085.918054 -607.217511 
L -1086.852167 -609.081731 
L -1089.654507 -610.013842 
L -1093.39096 -611.878063 
L -1094.325073 -612.344118 
L -1094.325073 -613.742284 
L -1095.259187 -614.208339 
z
" clip-path="url(#p85a311c8fb)" style="fill: #bdc3c7; stroke: #ffffff; stroke-width: 0.5"/>
    <path d="M -1423.132951 -194.758646 
L -1423.132951 -200.351309 
L -1420.330612 -201.749474 
L -1413.791819 -200.351309 
L -1410.989479 -202.681585 
L -1408.187139 -206.876082 
L -1405.384799 -209.672413 
L -1402.582459 -208.740303 
L -1399.780119 -207.342137 
L -1396.043666 -208.274247 
L -1392.307213 -210.604523 
L -1391.3731 -212.9348 
L -1389.504873 -217.595352 
L -1385.76842 -220.857738 
L -1377.3614 -225.984346 
L -1375.493174 -226.916456 
L -1374.55906 -225.51829 
L -1373.624947 -224.120125 
L -1374.55906 -223.188014 
L -1375.493174 -222.721959 
L -1385.76842 -212.9348 
L -1406.318912 -198.953143 
L -1414.725932 -195.690757 
z
" clip-path="url(#p85a311c8fb)" style="fill: #bdc3c7; stroke: #ffffff; stroke-width: 0.5"/>
    <path d="M -619.795522 81.14604 
L -616.059069 78.349709 
L -611.388503 79.28182 
L -607.65205 82.078151 
L -604.84971 84.874482 
L -601.113256 90.00109 
L -599.24503 92.331366 
L -594.574463 94.661642 
L -593.64035 90.00109 
L -591.772124 89.068979 
L -588.03567 90.9332 
L -585.233331 94.661642 
L -584.299217 99.788249 
L -584.299217 103.516691 
L -587.101557 104.448801 
L -591.772124 101.186415 
L -594.574463 99.322194 
L -599.24503 98.390083 
L -602.04737 96.525863 
L -605.783823 89.068979 
L -610.454389 85.806593 
z
" clip-path="url(#p85a311c8fb)" style="fill: #bdc3c7; stroke: #ffffff; stroke-width: 0.5"/>
    <path d="M -1241.914973 -641.239541 
L -1240.98086 -642.637707 
L -1235.37618 -642.171652 
L -1227.903274 -639.37532 
L -1219.496254 -637.5111 
L -1202.682215 -635.646879 
L -1202.682215 -634.714768 
L -1202.682215 -633.316603 
L -1204.550442 -632.850547 
L -1206.418668 -633.782658 
L -1208.286895 -633.782658 
L -1209.221008 -631.918437 
L -1210.155121 -631.452382 
L -1215.759801 -633.782658 
L -1218.562141 -634.714768 
L -1220.430368 -635.180823 
L -1226.035047 -634.714768 
L -1228.837387 -634.714768 
L -1235.37618 -637.5111 
L -1238.17852 -637.977155 
L -1240.046747 -640.773486 
z
" clip-path="url(#p85a311c8fb)" style="fill: #bdc3c7; stroke: #ffffff; stroke-width: 0.5"/>
    <path d="M -985.033819 -566.204652 
L -982.231479 -569.933093 
L -976.626799 -571.797314 
L -972.890346 -570.865204 
L -971.022119 -568.068873 
L -971.022119 -565.738597 
L -971.956232 -564.806486 
L -975.692686 -563.40832 
L -977.560912 -561.5441 
L -975.692686 -560.145934 
L -973.824459 -559.679879 
L -973.824459 -558.281713 
L -975.692686 -555.951437 
L -978.495026 -555.951437 
L -981.297365 -557.349603 
L -983.165592 -560.145934 
L -982.231479 -561.5441 
L -980.363252 -562.942265 
L -980.363252 -564.340431 
L -982.231479 -564.806486 
z
" clip-path="url(#p85a311c8fb)" style="fill: #bdc3c7; stroke: #ffffff; stroke-width: 0.5"/>
    <path d="M -1138.228398 -617.936781 
L -1137.294285 -618.402836 
L -1134.491945 -617.936781 
L -1135.426058 -620.733112 
L -1133.557832 -622.131277 
L -1129.821378 -622.597333 
L -1127.953152 -622.597333 
L -1122.348472 -623.063388 
L -1119.546132 -623.063388 
L -1115.809679 -622.597333 
L -1115.809679 -621.199167 
L -1118.612019 -620.733112 
L -1120.480246 -620.733112 
L -1127.019039 -620.267057 
L -1129.821378 -617.936781 
L -1133.557832 -616.538615 
L -1137.294285 -615.606504 
L -1137.294285 -616.07256 
z
" clip-path="url(#p85a311c8fb)" style="fill: #bdc3c7; stroke: #ffffff; stroke-width: 0.5"/>
    <path d="M -1042.948843 -593.701909 
L -1042.948843 -594.63402 
L -1042.014729 -594.167965 
L -1041.080616 -595.56613 
L -1041.080616 -599.294572 
L -1038.278276 -599.760627 
L -1034.541823 -596.498241 
L -1034.541823 -594.167965 
L -1033.60771 -592.303744 
L -1031.739483 -588.575302 
L -1032.673596 -587.643192 
L -1034.541823 -589.973468 
L -1035.475936 -591.371633 
L -1036.410049 -590.905578 
L -1038.278276 -590.905578 
L -1040.146503 -590.905578 
L -1042.014729 -592.303744 
z
" clip-path="url(#p85a311c8fb)" style="fill: #bdc3c7; stroke: #ffffff; stroke-width: 0.5"/>
    <path d="M -1520.280734 -205.477916 
L -1519.34662 -205.011861 
L -1516.54428 -202.21553 
L -1512.807827 -202.681585 
L -1509.071374 -205.477916 
L -1508.137261 -206.876082 
L -1509.071374 -207.342137 
L -1508.137261 -207.808192 
L -1500.664354 -211.070579 
L -1498.796128 -211.536634 
L -1495.059675 -212.468744 
L -1495.059675 -211.070579 
L -1498.796128 -207.808192 
L -1503.466694 -205.011861 
L -1511.873714 -198.487088 
L -1516.54428 -198.487088 
L -1519.34662 -201.749474 
z
" clip-path="url(#p85a311c8fb)" style="fill: #bdc3c7; stroke: #ffffff; stroke-width: 0.5"/>
    <path d="M -1076.576921 -605.35329 
L -1075.642808 -608.149621 
L -1074.708694 -610.013842 
L -1072.840468 -611.878063 
L -1070.972241 -614.674394 
L -1069.104015 -614.674394 
L -1067.235788 -611.412008 
L -1064.433448 -608.149621 
L -1061.631108 -605.819345 
L -1057.894655 -605.35329 
L -1053.224089 -604.887235 
L -1052.289975 -604.421179 
L -1053.224089 -603.489069 
L -1055.092315 -601.624848 
L -1060.696995 -598.828517 
L -1065.367561 -600.226682 
z
" clip-path="url(#p85a311c8fb)" style="fill: #bdc3c7; stroke: #ffffff; stroke-width: 0.5"/>
    <path d="M -1108.336773 -576.923922 
L -1106.468546 -577.856032 
L -1105.534433 -578.788143 
L -1103.666206 -578.322087 
L -1101.79798 -576.923922 
L -1088.720394 -582.982639 
L -1083.115714 -583.448695 
L -1078.445148 -580.652363 
L -1079.379261 -579.720253 
L -1082.181601 -577.389977 
L -1083.115714 -576.923922 
L -1081.247487 -575.525756 
L -1079.379261 -574.12759 
L -1078.445148 -571.797314 
L -1078.445148 -569.000983 
L -1104.60032 -573.661535 
z
" clip-path="url(#p85a311c8fb)" style="fill: #bdc3c7; stroke: #ffffff; stroke-width: 0.5"/>
    <path d="M -779.528895 0.052433 
L -775.792442 -0.413622 
L -771.121875 -0.413622 
L -767.385422 0.984544 
L -765.517195 2.848765 
L -761.780742 4.24693 
L -756.176063 4.712985 
L -751.505496 6.577206 
L -751.505496 10.305648 
L -754.307836 14.500145 
L -756.176063 15.89831 
L -756.176063 14.03409 
L -757.110176 13.101979 
L -763.648969 11.703814 
L -776.726555 2.848765 
z
" clip-path="url(#p85a311c8fb)" style="fill: #bdc3c7; stroke: #ffffff; stroke-width: 0.5"/>
    <path d="M -859.862638 -62.398965 
L -851.455618 -63.797131 
L -844.916825 -59.602634 
L -834.641579 -48.883364 
L -838.378032 -47.485199 
L -843.048599 -47.485199 
L -846.785052 -48.417309 
L -850.521505 -51.21364 
L -848.653278 -51.21364 
L -843.982712 -51.21364 
L -844.916825 -54.009972 
L -846.785052 -55.874192 
L -848.653278 -56.340248 
L -850.521505 -54.942082 
L -857.060298 -60.068689 
z
" clip-path="url(#p85a311c8fb)" style="fill: #bdc3c7; stroke: #ffffff; stroke-width: 0.5"/>
    <path d="M -1200.813988 -630.054216 
L -1200.813988 -633.782658 
L -1198.945762 -636.578989 
L -1194.275195 -638.44321 
L -1191.472856 -638.909265 
L -1190.538742 -637.977155 
L -1190.538742 -636.112934 
L -1191.472856 -634.248713 
L -1192.406969 -634.248713 
L -1193.341082 -634.248713 
L -1193.341082 -631.918437 
L -1194.275195 -631.918437 
L -1198.011649 -632.384492 
L -1199.879875 -631.452382 
L -1199.879875 -629.588161 
z
" clip-path="url(#p85a311c8fb)" style="fill: #bdc3c7; stroke: #ffffff; stroke-width: 0.5"/>
    <path d="M -468.469169 -389.569726 
L -461.930376 -390.501836 
L -456.325697 -386.307339 
L -452.589243 -379.316511 
L -448.85279 -367.665131 
L -445.116337 -363.004578 
L -440.445771 -358.810082 
L -436.709318 -353.683474 
L -442.313997 -353.683474 
L -448.85279 -360.208247 
L -459.128036 -376.52018 
L -457.25981 -380.248621 
L -460.06215 -383.977063 
L -464.732716 -387.705505 
z
" clip-path="url(#p85a311c8fb)" style="fill: #bdc3c7; stroke: #ffffff; stroke-width: 0.5"/>
    <path d="M -658.094167 67.164384 
L -656.225941 68.096494 
L -655.291827 69.49466 
L -653.423601 69.960715 
L -651.555374 69.960715 
L -649.687148 68.56255 
L -649.687148 66.232274 
L -650.621261 64.834108 
L -649.687148 65.766218 
L -649.687148 66.232274 
L -649.687148 67.164384 
L -656.225941 65.766218 
L -657.160054 65.300163 
L -658.094167 65.766218 
z
" clip-path="url(#p85a311c8fb)" style="fill: #bdc3c7; stroke: #ffffff; stroke-width: 0.5"/>
    <path d="M -1262.465466 -651.492756 
L -1260.597239 -652.890922 
L -1254.992559 -653.823032 
L -1248.453766 -649.628535 
L -1246.58554 -649.628535 
L -1244.717313 -649.16248 
L -1243.7832 -646.832204 
L -1246.58554 -644.501928 
L -1249.38788 -644.967983 
L -1252.190219 -645.900093 
L -1254.992559 -646.366149 
L -1257.794899 -647.764314 
L -1259.663126 -649.628535 
L -1260.597239 -650.560646 
z
" clip-path="url(#p85a311c8fb)" style="fill: #bdc3c7; stroke: #ffffff; stroke-width: 0.5"/>
    <path d="M -640.346015 53.182728 
L -637.543675 50.852452 
L -628.202542 48.988231 
L -624.466089 45.259789 
L -623.531975 46.191899 
L -622.597862 47.12401 
L -619.795522 45.725844 
L -617.927296 45.725844 
L -612.322616 47.12401 
L -616.059069 51.318507 
L -628.202542 54.114838 
L -631.938995 56.911169 
L -636.609562 54.580893 
z
" clip-path="url(#p85a311c8fb)" style="fill: #bdc3c7; stroke: #ffffff; stroke-width: 0.5"/>
    <path d="M -698.261039 -447.826627 
L -698.261039 -449.224793 
L -698.261039 -453.885345 
L -697.326925 -454.3514 
L -693.590472 -453.41929 
L -690.788132 -453.885345 
L -690.788132 -455.749566 
L -689.854019 -456.681676 
L -687.985792 -455.749566 
L -687.985792 -453.885345 
L -689.854019 -451.089014 
L -690.788132 -449.224793 
L -695.458699 -447.360572 
z
" clip-path="url(#p85a311c8fb)" style="fill: #bdc3c7; stroke: #ffffff; stroke-width: 0.5"/>
    <path d="M -749.63727 22.889139 
L -745.900816 18.228587 
L -744.03259 15.89831 
L -741.23025 15.89831 
L -740.296137 18.228587 
L -739.362023 21.024918 
L -739.362023 24.75336 
L -726.284437 24.287304 
L -721.613871 27.083636 
L -718.811531 34.074464 
L -720.679758 34.074464 
L -725.350324 30.812077 
L -744.03259 28.947856 
z
" clip-path="url(#p85a311c8fb)" style="fill: #bdc3c7; stroke: #ffffff; stroke-width: 0.5"/>
    <path d="M -1430.605858 -322.457775 
L -1430.605858 -324.321996 
L -1428.737631 -325.720161 
L -1425.935291 -324.788051 
L -1423.132951 -323.389885 
L -1422.198838 -322.457775 
L -1420.330612 -320.593554 
L -1419.396498 -316.865112 
L -1421.264725 -316.399057 
L -1424.067065 -318.263278 
L -1426.869405 -317.797223 
L -1428.737631 -318.263278 
L -1429.671744 -320.127499 
z
" clip-path="url(#p85a311c8fb)" style="fill: #bdc3c7; stroke: #ffffff; stroke-width: 0.5"/>
    <path d="M -1674.409426 -459.944063 
L -1673.475313 -477.188106 
L -1674.409426 -479.518382 
L -1674.409426 -480.916548 
L -1673.475313 -481.382603 
L -1671.607086 -479.984437 
L -1670.672973 -478.120216 
L -1670.672973 -477.188106 
L -1669.73886 -473.925719 
L -1668.804747 -467.400946 
L -1670.672973 -462.274339 
L -1671.607086 -460.410118 
L -1672.5412 -459.011953 
z
" clip-path="url(#p85a311c8fb)" style="fill: #bdc3c7; stroke: #ffffff; stroke-width: 0.5"/>
    <path d="M 129.363336 35.006574 
L 129.363336 30.346022 
L 141.506809 28.015746 
L 145.243262 28.481801 
L 147.111489 30.346022 
L 150.847942 37.33685 
L 152.716168 40.599237 
L 153.650282 43.861623 
L 148.979715 43.861623 
L 140.572695 41.531347 
L 135.902129 40.599237 
L 132.165676 38.735016 
z
" clip-path="url(#p85a311c8fb)" style="fill: #bdc3c7; stroke: #ffffff; stroke-width: 0.5"/>
    <path d="M -1007.452537 -567.602817 
L -1003.716084 -569.933093 
L -999.045518 -571.331259 
L -995.309065 -571.331259 
L -990.638498 -569.000983 
L -988.770272 -569.467038 
L -988.770272 -565.738597 
L -991.572612 -562.942265 
L -997.177291 -566.670707 
L -999.979631 -565.738597 
L -1002.781971 -562.010155 
L -1005.584311 -560.611989 
z
" clip-path="url(#p85a311c8fb)" style="fill: #bdc3c7; stroke: #ffffff; stroke-width: 0.5"/>
    <path d="M -781.397121 -489.771597 
L -776.726555 -490.703707 
L -752.439609 -488.839486 
L -748.703156 -486.50921 
L -748.703156 -483.712879 
L -754.307836 -480.450492 
L -756.176063 -484.178934 
L -759.912516 -485.5771 
L -775.792442 -486.50921 
L -777.660668 -487.907376 
z
" clip-path="url(#p85a311c8fb)" style="fill: #bdc3c7; stroke: #ffffff; stroke-width: 0.5"/>
    <path d="M -816.893426 -480.916548 
L -815.0252 -481.848658 
L -804.749954 -482.314713 
L -807.552294 -479.518382 
L -812.22286 -476.722051 
L -814.091087 -476.722051 
L -814.091087 -478.586272 
L -815.0252 -479.984437 
z
" clip-path="url(#p85a311c8fb)" style="fill: #bdc3c7; stroke: #ffffff; stroke-width: 0.5"/>
    <path d="M -1954.643413 -295.426572 
L -1951.841073 -296.824738 
L -1944.368167 -294.960517 
L -1939.697601 -294.028407 
L -1937.829374 -293.562352 
L -1939.697601 -293.096296 
L -1944.368167 -293.096296 
L -1949.972847 -293.562352 
z
" clip-path="url(#p85a311c8fb)" style="fill: #bdc3c7; stroke: #ffffff; stroke-width: 0.5"/>
    <path d="M -669.303527 65.766218 
L -669.303527 64.368053 
L -668.369413 63.901998 
L -666.501187 64.368053 
L -662.764734 65.766218 
L -662.764734 67.164384 
L -667.4353 67.630439 
z
" clip-path="url(#p85a311c8fb)" style="fill: #bdc3c7; stroke: #ffffff; stroke-width: 0.5"/>
    <path d="M -714.140965 39.667126 
L -708.536285 38.735016 
L -702.931605 40.599237 
L -694.524585 47.12401 
L -698.261039 50.852452 
L -704.799832 48.988231 
L -710.404511 43.861623 
z
" clip-path="url(#p85a311c8fb)" style="fill: #bdc3c7; stroke: #ffffff; stroke-width: 0.5"/>
    <path d="M -1710.839845 -290.299965 
L -1704.301052 -291.698131 
L -1694.959919 -287.503634 
L -1690.289352 -284.241247 
L -1694.025805 -282.843082 
L -1700.564598 -282.377026 
L -1708.037505 -285.639413 
z
" clip-path="url(#p85a311c8fb)" style="fill: #bdc3c7; stroke: #ffffff; stroke-width: 0.5"/>
   </g>
   <g id="PatchCollection_2">
    <path d="M 219.038212 275.025009 
L 219.972325 264.771795 
L 233.049911 255.45069 
L 237.720478 255.45069 
L 235.852251 256.848856 
L 234.918138 259.179132 
L 236.786364 261.043353 
L 238.654591 264.30574 
L 234.918138 265.23785 
L 231.181685 265.703905 
L 229.313458 267.568126 
L 228.379345 268.966292 
L 226.511118 268.966292 
L 226.511118 267.102071 
L 224.642892 267.102071 
L 223.708778 268.034181 
L 222.774665 268.500236 
L 222.774665 269.898402 
L 225.577005 271.762623 
L 229.313458 272.228678 
L 229.313458 273.626844 
L 225.577005 273.626844 
z
" clip-path="url(#p85a311c8fb)" style="fill: #e74c3c; stroke: #ffffff; stroke-width: 0.6"/>
    <path d="M 235.852251 275.95712 
L 236.786364 271.296568 
L 238.654591 269.898402 
L 241.456931 268.500236 
L 247.061611 263.839684 
L 248.929837 262.907574 
L 251.732177 263.373629 
L 252.66629 260.577298 
L 251.732177 258.713077 
L 248.929837 256.848856 
L 245.193384 259.645187 
L 244.259271 259.179132 
L 243.325157 257.314911 
L 243.325157 255.45069 
L 254.534517 255.45069 
L 254.534517 275.95712 
L 250.798064 275.95712 
L 243.325157 277.355286 
L 236.786364 277.821341 
z
" clip-path="url(#p85a311c8fb)" style="fill: #e74c3c; stroke: #ffffff; stroke-width: 0.6"/>
   </g>
   <g id="text_1">
    <!-- USNB Guantanamo Bay -->
    <g style="fill: #1a252f" transform="translate(125.660817 20.116016) scale(0.17 -0.17)">
     <defs>
      <path id="DejaVuSans-Bold-38" d="M 588 4666 
L 1791 4666 
L 1791 1869 
Q 1791 1291 1980 1042 
Q 2169 794 2597 794 
Q 3028 794 3217 1042 
Q 3406 1291 3406 1869 
L 3406 4666 
L 4609 4666 
L 4609 1869 
Q 4609 878 4112 393 
Q 3616 -91 2597 -91 
Q 1581 -91 1084 393 
Q 588 878 588 1869 
L 588 4666 
z
" transform="scale(0.015625)"/>
      <path id="DejaVuSans-Bold-36" d="M 3834 4519 
L 3834 3531 
Q 3450 3703 3084 3790 
Q 2719 3878 2394 3878 
Q 1963 3878 1756 3759 
Q 1550 3641 1550 3391 
Q 1550 3203 1689 3098 
Q 1828 2994 2194 2919 
L 2706 2816 
Q 3484 2659 3812 2340 
Q 4141 2022 4141 1434 
Q 4141 663 3683 286 
Q 3225 -91 2284 -91 
Q 1841 -91 1394 -6 
Q 947 78 500 244 
L 500 1259 
Q 947 1022 1364 901 
Q 1781 781 2169 781 
Q 2563 781 2772 912 
Q 2981 1044 2981 1288 
Q 2981 1506 2839 1625 
Q 2697 1744 2272 1838 
L 1806 1941 
Q 1106 2091 782 2419 
Q 459 2747 459 3303 
Q 459 4000 909 4375 
Q 1359 4750 2203 4750 
Q 2588 4750 2994 4692 
Q 3400 4634 3834 4519 
z
" transform="scale(0.015625)"/>
      <path id="DejaVuSans-Bold-31" d="M 588 4666 
L 1931 4666 
L 3628 1466 
L 3628 4666 
L 4769 4666 
L 4769 0 
L 3425 0 
L 1728 3200 
L 1728 0 
L 588 0 
L 588 4666 
z
" transform="scale(0.015625)"/>
      <path id="DejaVuSans-Bold-25" d="M 2456 2859 
Q 2741 2859 2887 2984 
Q 3034 3109 3034 3353 
Q 3034 3594 2887 3720 
Q 2741 3847 2456 3847 
L 1791 3847 
L 1791 2859 
L 2456 2859 
z
M 2497 819 
Q 2859 819 3042 972 
Q 3225 1125 3225 1434 
Q 3225 1738 3044 1889 
Q 2863 2041 2497 2041 
L 1791 2041 
L 1791 819 
L 2497 819 
z
M 3616 2497 
Q 4003 2384 4215 2081 
Q 4428 1778 4428 1338 
Q 4428 663 3972 331 
Q 3516 0 2584 0 
L 588 0 
L 588 4666 
L 2394 4666 
Q 3366 4666 3802 4372 
Q 4238 4078 4238 3431 
Q 4238 3091 4078 2852 
Q 3919 2613 3616 2497 
z
" transform="scale(0.015625)"/>
      <path id="DejaVuSans-Bold-3" transform="scale(0.015625)"/>
      <path id="DejaVuSans-Bold-2a" d="M 4781 347 
Q 4331 128 3847 18 
Q 3363 -91 2847 -91 
Q 1681 -91 1000 561 
Q 319 1213 319 2328 
Q 319 3456 1012 4103 
Q 1706 4750 2913 4750 
Q 3378 4750 3804 4662 
Q 4231 4575 4609 4403 
L 4609 3438 
Q 4219 3659 3833 3768 
Q 3447 3878 3059 3878 
Q 2341 3878 1952 3476 
Q 1563 3075 1563 2328 
Q 1563 1588 1938 1184 
Q 2313 781 3003 781 
Q 3191 781 3352 804 
Q 3513 828 3641 878 
L 3641 1784 
L 2906 1784 
L 2906 2591 
L 4781 2591 
L 4781 347 
z
" transform="scale(0.015625)"/>
      <path id="DejaVuSans-Bold-58" d="M 500 1363 
L 500 3500 
L 1625 3500 
L 1625 3150 
Q 1625 2866 1622 2436 
Q 1619 2006 1619 1863 
Q 1619 1441 1641 1255 
Q 1663 1069 1716 984 
Q 1784 875 1895 815 
Q 2006 756 2150 756 
Q 2500 756 2700 1025 
Q 2900 1294 2900 1772 
L 2900 3500 
L 4019 3500 
L 4019 0 
L 2900 0 
L 2900 506 
Q 2647 200 2364 54 
Q 2081 -91 1741 -91 
Q 1134 -91 817 281 
Q 500 653 500 1363 
z
" transform="scale(0.015625)"/>
      <path id="DejaVuSans-Bold-44" d="M 2106 1575 
Q 1756 1575 1579 1456 
Q 1403 1338 1403 1106 
Q 1403 894 1545 773 
Q 1688 653 1941 653 
Q 2256 653 2472 879 
Q 2688 1106 2688 1447 
L 2688 1575 
L 2106 1575 
z
M 3816 1997 
L 3816 0 
L 2688 0 
L 2688 519 
Q 2463 200 2181 54 
Q 1900 -91 1497 -91 
Q 953 -91 614 226 
Q 275 544 275 1050 
Q 275 1666 698 1953 
Q 1122 2241 2028 2241 
L 2688 2241 
L 2688 2328 
Q 2688 2594 2478 2717 
Q 2269 2841 1825 2841 
Q 1466 2841 1156 2769 
Q 847 2697 581 2553 
L 581 3406 
Q 941 3494 1303 3539 
Q 1666 3584 2028 3584 
Q 2975 3584 3395 3211 
Q 3816 2838 3816 1997 
z
" transform="scale(0.015625)"/>
      <path id="DejaVuSans-Bold-51" d="M 4056 2131 
L 4056 0 
L 2931 0 
L 2931 347 
L 2931 1631 
Q 2931 2084 2911 2256 
Q 2891 2428 2841 2509 
Q 2775 2619 2662 2680 
Q 2550 2741 2406 2741 
Q 2056 2741 1856 2470 
Q 1656 2200 1656 1722 
L 1656 0 
L 538 0 
L 538 3500 
L 1656 3500 
L 1656 2988 
Q 1909 3294 2193 3439 
Q 2478 3584 2822 3584 
Q 3428 3584 3742 3212 
Q 4056 2841 4056 2131 
z
" transform="scale(0.015625)"/>
      <path id="DejaVuSans-Bold-57" d="M 1759 4494 
L 1759 3500 
L 2913 3500 
L 2913 2700 
L 1759 2700 
L 1759 1216 
Q 1759 972 1856 886 
Q 1953 800 2241 800 
L 2816 800 
L 2816 0 
L 1856 0 
Q 1194 0 917 276 
Q 641 553 641 1216 
L 641 2700 
L 84 2700 
L 84 3500 
L 641 3500 
L 641 4494 
L 1759 4494 
z
" transform="scale(0.015625)"/>
      <path id="DejaVuSans-Bold-50" d="M 3781 2919 
Q 3994 3244 4286 3414 
Q 4578 3584 4928 3584 
Q 5531 3584 5847 3212 
Q 6163 2841 6163 2131 
L 6163 0 
L 5038 0 
L 5038 1825 
Q 5041 1866 5042 1909 
Q 5044 1953 5044 2034 
Q 5044 2406 4934 2573 
Q 4825 2741 4581 2741 
Q 4263 2741 4089 2478 
Q 3916 2216 3909 1719 
L 3909 0 
L 2784 0 
L 2784 1825 
Q 2784 2406 2684 2573 
Q 2584 2741 2328 2741 
Q 2006 2741 1831 2477 
Q 1656 2213 1656 1722 
L 1656 0 
L 531 0 
L 531 3500 
L 1656 3500 
L 1656 2988 
Q 1863 3284 2130 3434 
Q 2397 3584 2719 3584 
Q 3081 3584 3359 3409 
Q 3638 3234 3781 2919 
z
" transform="scale(0.015625)"/>
      <path id="DejaVuSans-Bold-52" d="M 2203 2784 
Q 1831 2784 1636 2517 
Q 1441 2250 1441 1747 
Q 1441 1244 1636 976 
Q 1831 709 2203 709 
Q 2569 709 2762 976 
Q 2956 1244 2956 1747 
Q 2956 2250 2762 2517 
Q 2569 2784 2203 2784 
z
M 2203 3584 
Q 3106 3584 3614 3096 
Q 4122 2609 4122 1747 
Q 4122 884 3614 396 
Q 3106 -91 2203 -91 
Q 1297 -91 786 396 
Q 275 884 275 1747 
Q 275 2609 786 3096 
Q 1297 3584 2203 3584 
z
" transform="scale(0.015625)"/>
      <path id="DejaVuSans-Bold-5c" d="M 78 3500 
L 1197 3500 
L 2138 1125 
L 2938 3500 
L 4056 3500 
L 2584 -331 
Q 2363 -916 2067 -1148 
Q 1772 -1381 1288 -1381 
L 641 -1381 
L 641 -647 
L 991 -647 
Q 1275 -647 1404 -556 
Q 1534 -466 1606 -231 
L 1638 -134 
L 78 3500 
z
" transform="scale(0.015625)"/>
     </defs>
     <use xlink:href="#DejaVuSans-Bold-38"/>
     <use xlink:href="#DejaVuSans-Bold-36" transform="translate(81.203125 0)"/>
     <use xlink:href="#DejaVuSans-Bold-31" transform="translate(153.21875 0)"/>
     <use xlink:href="#DejaVuSans-Bold-25" transform="translate(236.90625 0)"/>
     <use xlink:href="#DejaVuSans-Bold-3" transform="translate(313.125 0)"/>
     <use xlink:href="#DejaVuSans-Bold-2a" transform="translate(347.9375 0)"/>
     <use xlink:href="#DejaVuSans-Bold-58" transform="translate(430.015625 0)"/>
     <use xlink:href="#DejaVuSans-Bold-44" transform="translate(501.203125 0)"/>
     <use xlink:href="#DejaVuSans-Bold-51" transform="translate(568.6875 0)"/>
     <use xlink:href="#DejaVuSans-Bold-57" transform="translate(639.875 0)"/>
     <use xlink:href="#DejaVuSans-Bold-44" transform="translate(687.671875 0)"/>
     <use xlink:href="#DejaVuSans-Bold-51" transform="translate(755.15625 0)"/>
     <use xlink:href="#DejaVuSans-Bold-44" transform="translate(826.34375 0)"/>
     <use xlink:href="#DejaVuSans-Bold-50" transform="translate(893.828125 0)"/>
     <use xlink:href="#DejaVuSans-Bold-52" transform="translate(998.03125 0)"/>
     <use xlink:href="#DejaVuSans-Bold-3" transform="translate(1066.734375 0)"/>
     <use xlink:href="#DejaVuSans-Bold-25" transform="translate(1101.546875 0)"/>
     <use xlink:href="#DejaVuSans-Bold-44" transform="translate(1177.765625 0)"/>
     <use xlink:href="#DejaVuSans-Bold-5c" transform="translate(1242.171875 0)"/>
    </g>
   </g>
   <g id="legend_1">
    <g id="patch_2">
     <path d="M 13.5 498.656016 
L 148.678594 498.656016 
Q 150.478594 498.656016 150.478594 496.856016 
L 150.478594 470.754609 
Q 150.478594 468.954609 148.678594 468.954609 
L 13.5 468.954609 
Q 11.7 468.954609 11.7 470.754609 
L 11.7 496.856016 
Q 11.7 498.656016 13.5 498.656016 
z
" style="fill: #ffffff; opacity: 0.85; stroke: #cccccc; stroke-linejoin: miter"/>
    </g>
    <g id="patch_3">
     <path d="M 15.3 479.393203 
L 33.3 479.393203 
L 33.3 473.093203 
L 15.3 473.093203 
z
" style="fill: #e74c3c; stroke: #888888; stroke-linejoin: miter"/>
    </g>
    <g id="text_2">
     <!-- USNB Guantanamo Bay -->
     <g transform="translate(40.5 479.393203) scale(0.09 -0.09)">
      <defs>
       <path id="DejaVuSans-38" d="M 556 4666 
L 1191 4666 
L 1191 1831 
Q 1191 1081 1462 751 
Q 1734 422 2344 422 
Q 2950 422 3222 751 
Q 3494 1081 3494 1831 
L 3494 4666 
L 4128 4666 
L 4128 1753 
Q 4128 841 3676 375 
Q 3225 -91 2344 -91 
Q 1459 -91 1007 375 
Q 556 841 556 1753 
L 556 4666 
z
" transform="scale(0.015625)"/>
       <path id="DejaVuSans-36" d="M 3425 4513 
L 3425 3897 
Q 3066 4069 2747 4153 
Q 2428 4238 2131 4238 
Q 1616 4238 1336 4038 
Q 1056 3838 1056 3469 
Q 1056 3159 1242 3001 
Q 1428 2844 1947 2747 
L 2328 2669 
Q 3034 2534 3370 2195 
Q 3706 1856 3706 1288 
Q 3706 609 3251 259 
Q 2797 -91 1919 -91 
Q 1588 -91 1214 -16 
Q 841 59 441 206 
L 441 856 
Q 825 641 1194 531 
Q 1563 422 1919 422 
Q 2459 422 2753 634 
Q 3047 847 3047 1241 
Q 3047 1584 2836 1778 
Q 2625 1972 2144 2069 
L 1759 2144 
Q 1053 2284 737 2584 
Q 422 2884 422 3419 
Q 422 4038 858 4394 
Q 1294 4750 2059 4750 
Q 2388 4750 2728 4690 
Q 3069 4631 3425 4513 
z
" transform="scale(0.015625)"/>
       <path id="DejaVuSans-31" d="M 628 4666 
L 1478 4666 
L 3547 763 
L 3547 4666 
L 4159 4666 
L 4159 0 
L 3309 0 
L 1241 3903 
L 1241 0 
L 628 0 
L 628 4666 
z
" transform="scale(0.015625)"/>
       <path id="DejaVuSans-25" d="M 1259 2228 
L 1259 519 
L 2272 519 
Q 2781 519 3026 730 
Q 3272 941 3272 1375 
Q 3272 1813 3026 2020 
Q 2781 2228 2272 2228 
L 1259 2228 
z
M 1259 4147 
L 1259 2741 
L 2194 2741 
Q 2656 2741 2882 2914 
Q 3109 3088 3109 3444 
Q 3109 3797 2882 3972 
Q 2656 4147 2194 4147 
L 1259 4147 
z
M 628 4666 
L 2241 4666 
Q 2963 4666 3353 4366 
Q 3744 4066 3744 3513 
Q 3744 3084 3544 2831 
Q 3344 2578 2956 2516 
Q 3422 2416 3680 2098 
Q 3938 1781 3938 1306 
Q 3938 681 3513 340 
Q 3088 0 2303 0 
L 628 0 
L 628 4666 
z
" transform="scale(0.015625)"/>
       <path id="DejaVuSans-3" transform="scale(0.015625)"/>
       <path id="DejaVuSans-2a" d="M 3809 666 
L 3809 1919 
L 2778 1919 
L 2778 2438 
L 4434 2438 
L 4434 434 
Q 4069 175 3628 42 
Q 3188 -91 2688 -91 
Q 1594 -91 976 548 
Q 359 1188 359 2328 
Q 359 3472 976 4111 
Q 1594 4750 2688 4750 
Q 3144 4750 3555 4637 
Q 3966 4525 4313 4306 
L 4313 3634 
Q 3963 3931 3569 4081 
Q 3175 4231 2741 4231 
Q 1884 4231 1454 3753 
Q 1025 3275 1025 2328 
Q 1025 1384 1454 906 
Q 1884 428 2741 428 
Q 3075 428 3337 486 
Q 3600 544 3809 666 
z
" transform="scale(0.015625)"/>
       <path id="DejaVuSans-58" d="M 544 1381 
L 544 3500 
L 1119 3500 
L 1119 1403 
Q 1119 906 1312 657 
Q 1506 409 1894 409 
Q 2359 409 2629 706 
Q 2900 1003 2900 1516 
L 2900 3500 
L 3475 3500 
L 3475 0 
L 2900 0 
L 2900 538 
Q 2691 219 2414 64 
Q 2138 -91 1772 -91 
Q 1169 -91 856 284 
Q 544 659 544 1381 
z
M 1991 3584 
L 1991 3584 
z
" transform="scale(0.015625)"/>
       <path id="DejaVuSans-44" d="M 2194 1759 
Q 1497 1759 1228 1600 
Q 959 1441 959 1056 
Q 959 750 1161 570 
Q 1363 391 1709 391 
Q 2188 391 2477 730 
Q 2766 1069 2766 1631 
L 2766 1759 
L 2194 1759 
z
M 3341 1997 
L 3341 0 
L 2766 0 
L 2766 531 
Q 2569 213 2275 61 
Q 1981 -91 1556 -91 
Q 1019 -91 701 211 
Q 384 513 384 1019 
Q 384 1609 779 1909 
Q 1175 2209 1959 2209 
L 2766 2209 
L 2766 2266 
Q 2766 2663 2505 2880 
Q 2244 3097 1772 3097 
Q 1472 3097 1187 3025 
Q 903 2953 641 2809 
L 641 3341 
Q 956 3463 1253 3523 
Q 1550 3584 1831 3584 
Q 2591 3584 2966 3190 
Q 3341 2797 3341 1997 
z
" transform="scale(0.015625)"/>
       <path id="DejaVuSans-51" d="M 3513 2113 
L 3513 0 
L 2938 0 
L 2938 2094 
Q 2938 2591 2744 2837 
Q 2550 3084 2163 3084 
Q 1697 3084 1428 2787 
Q 1159 2491 1159 1978 
L 1159 0 
L 581 0 
L 581 3500 
L 1159 3500 
L 1159 2956 
Q 1366 3272 1645 3428 
Q 1925 3584 2291 3584 
Q 2894 3584 3203 3211 
Q 3513 2838 3513 2113 
z
" transform="scale(0.015625)"/>
       <path id="DejaVuSans-57" d="M 1172 4494 
L 1172 3500 
L 2356 3500 
L 2356 3053 
L 1172 3053 
L 1172 1153 
Q 1172 725 1289 603 
Q 1406 481 1766 481 
L 2356 481 
L 2356 0 
L 1766 0 
Q 1100 0 847 248 
Q 594 497 594 1153 
L 594 3053 
L 172 3053 
L 172 3500 
L 594 3500 
L 594 4494 
L 1172 4494 
z
" transform="scale(0.015625)"/>
       <path id="DejaVuSans-50" d="M 3328 2828 
Q 3544 3216 3844 3400 
Q 4144 3584 4550 3584 
Q 5097 3584 5394 3201 
Q 5691 2819 5691 2113 
L 5691 0 
L 5113 0 
L 5113 2094 
Q 5113 2597 4934 2840 
Q 4756 3084 4391 3084 
Q 3944 3084 3684 2787 
Q 3425 2491 3425 1978 
L 3425 0 
L 2847 0 
L 2847 2094 
Q 2847 2600 2669 2842 
Q 2491 3084 2119 3084 
Q 1678 3084 1418 2786 
Q 1159 2488 1159 1978 
L 1159 0 
L 581 0 
L 581 3500 
L 1159 3500 
L 1159 2956 
Q 1356 3278 1631 3431 
Q 1906 3584 2284 3584 
Q 2666 3584 2933 3390 
Q 3200 3197 3328 2828 
z
" transform="scale(0.015625)"/>
       <path id="DejaVuSans-52" d="M 1959 3097 
Q 1497 3097 1228 2736 
Q 959 2375 959 1747 
Q 959 1119 1226 758 
Q 1494 397 1959 397 
Q 2419 397 2687 759 
Q 2956 1122 2956 1747 
Q 2956 2369 2687 2733 
Q 2419 3097 1959 3097 
z
M 1959 3584 
Q 2709 3584 3137 3096 
Q 3566 2609 3566 1747 
Q 3566 888 3137 398 
Q 2709 -91 1959 -91 
Q 1206 -91 779 398 
Q 353 888 353 1747 
Q 353 2609 779 3096 
Q 1206 3584 1959 3584 
z
" transform="scale(0.015625)"/>
       <path id="DejaVuSans-5c" d="M 2059 -325 
Q 1816 -950 1584 -1140 
Q 1353 -1331 966 -1331 
L 506 -1331 
L 506 -850 
L 844 -850 
Q 1081 -850 1212 -737 
Q 1344 -625 1503 -206 
L 1606 56 
L 191 3500 
L 800 3500 
L 1894 763 
L 2988 3500 
L 3597 3500 
L 2059 -325 
z
" transform="scale(0.015625)"/>
      </defs>
      <use xlink:href="#DejaVuSans-38"/>
      <use xlink:href="#DejaVuSans-36" transform="translate(73.1875 0)"/>
      <use xlink:href="#DejaVuSans-31" transform="translate(136.671875 0)"/>
      <use xlink:href="#DejaVuSans-25" transform="translate(211.484375 0)"/>
      <use xlink:href="#DejaVuSans-3" transform="translate(280.09375 0)"/>
      <use xlink:href="#DejaVuSans-2a" transform="translate(311.875 0)"/>
      <use xlink:href="#DejaVuSans-58" transform="translate(389.359375 0)"/>
      <use xlink:href="#DejaVuSans-44" transform="translate(452.734375 0)"/>
      <use xlink:href="#DejaVuSans-51" transform="translate(514.015625 0)"/>
      <use xlink:href="#DejaVuSans-57" transform="translate(577.390625 0)"/>
      <use xlink:href="#DejaVuSans-44" transform="translate(616.59375 0)"/>
      <use xlink:href="#DejaVuSans-51" transform="translate(677.875 0)"/>
      <use xlink:href="#DejaVuSans-44" transform="translate(741.25 0)"/>
      <use xlink:href="#DejaVuSans-50" transform="translate(802.53125 0)"/>
      <use xlink:href="#DejaVuSans-52" transform="translate(899.9375 0)"/>
      <use xlink:href="#DejaVuSans-3" transform="translate(961.125 0)"/>
      <use xlink:href="#DejaVuSans-25" transform="translate(992.90625 0)"/>
      <use xlink:href="#DejaVuSans-44" transform="translate(1061.515625 0)"/>
      <use xlink:href="#DejaVuSans-5c" transform="translate(1122.796875 0)"/>
     </g>
    </g>
    <g id="patch_4">
     <path d="M 15.3 492.893906 
L 33.3 492.893906 
L 33.3 486.593906 
L 15.3 486.593906 
z
" style="fill: #bdc3c7; stroke: #888888; stroke-linejoin: miter"/>
    </g>
    <g id="text_3">
     <!-- Neighbors -->
     <g transform="translate(40.5 492.893906) scale(0.09 -0.09)">
      <defs>
       <path id="DejaVuSans-48" d="M 3597 1894 
L 3597 1613 
L 953 1613 
Q 991 1019 1311 708 
Q 1631 397 2203 397 
Q 2534 397 2845 478 
Q 3156 559 3463 722 
L 3463 178 
Q 3153 47 2828 -22 
Q 2503 -91 2169 -91 
Q 1331 -91 842 396 
Q 353 884 353 1716 
Q 353 2575 817 3079 
Q 1281 3584 2069 3584 
Q 2775 3584 3186 3129 
Q 3597 2675 3597 1894 
z
M 3022 2063 
Q 3016 2534 2758 2815 
Q 2500 3097 2075 3097 
Q 1594 3097 1305 2825 
Q 1016 2553 972 2059 
L 3022 2063 
z
" transform="scale(0.015625)"/>
       <path id="DejaVuSans-4c" d="M 603 3500 
L 1178 3500 
L 1178 0 
L 603 0 
L 603 3500 
z
M 603 4863 
L 1178 4863 
L 1178 4134 
L 603 4134 
L 603 4863 
z
" transform="scale(0.015625)"/>
       <path id="DejaVuSans-4a" d="M 2906 1791 
Q 2906 2416 2648 2759 
Q 2391 3103 1925 3103 
Q 1463 3103 1205 2759 
Q 947 2416 947 1791 
Q 947 1169 1205 825 
Q 1463 481 1925 481 
Q 2391 481 2648 825 
Q 2906 1169 2906 1791 
z
M 3481 434 
Q 3481 -459 3084 -895 
Q 2688 -1331 1869 -1331 
Q 1566 -1331 1297 -1286 
Q 1028 -1241 775 -1147 
L 775 -588 
Q 1028 -725 1275 -790 
Q 1522 -856 1778 -856 
Q 2344 -856 2625 -561 
Q 2906 -266 2906 331 
L 2906 616 
Q 2728 306 2450 153 
Q 2172 0 1784 0 
Q 1141 0 747 490 
Q 353 981 353 1791 
Q 353 2603 747 3093 
Q 1141 3584 1784 3584 
Q 2172 3584 2450 3431 
Q 2728 3278 2906 2969 
L 2906 3500 
L 3481 3500 
L 3481 434 
z
" transform="scale(0.015625)"/>
       <path id="DejaVuSans-4b" d="M 3513 2113 
L 3513 0 
L 2938 0 
L 2938 2094 
Q 2938 2591 2744 2837 
Q 2550 3084 2163 3084 
Q 1697 3084 1428 2787 
Q 1159 2491 1159 1978 
L 1159 0 
L 581 0 
L 581 4863 
L 1159 4863 
L 1159 2956 
Q 1366 3272 1645 3428 
Q 1925 3584 2291 3584 
Q 2894 3584 3203 3211 
Q 3513 2838 3513 2113 
z
" transform="scale(0.015625)"/>
       <path id="DejaVuSans-45" d="M 3116 1747 
Q 3116 2381 2855 2742 
Q 2594 3103 2138 3103 
Q 1681 3103 1420 2742 
Q 1159 2381 1159 1747 
Q 1159 1113 1420 752 
Q 1681 391 2138 391 
Q 2594 391 2855 752 
Q 3116 1113 3116 1747 
z
M 1159 2969 
Q 1341 3281 1617 3432 
Q 1894 3584 2278 3584 
Q 2916 3584 3314 3078 
Q 3713 2572 3713 1747 
Q 3713 922 3314 415 
Q 2916 -91 2278 -91 
Q 1894 -91 1617 61 
Q 1341 213 1159 525 
L 1159 0 
L 581 0 
L 581 4863 
L 1159 4863 
L 1159 2969 
z
" transform="scale(0.015625)"/>
       <path id="DejaVuSans-55" d="M 2631 2963 
Q 2534 3019 2420 3045 
Q 2306 3072 2169 3072 
Q 1681 3072 1420 2755 
Q 1159 2438 1159 1844 
L 1159 0 
L 581 0 
L 581 3500 
L 1159 3500 
L 1159 2956 
Q 1341 3275 1631 3429 
Q 1922 3584 2338 3584 
Q 2397 3584 2469 3576 
Q 2541 3569 2628 3553 
L 2631 2963 
z
" transform="scale(0.015625)"/>
       <path id="DejaVuSans-56" d="M 2834 3397 
L 2834 2853 
Q 2591 2978 2328 3040 
Q 2066 3103 1784 3103 
Q 1356 3103 1142 2972 
Q 928 2841 928 2578 
Q 928 2378 1081 2264 
Q 1234 2150 1697 2047 
L 1894 2003 
Q 2506 1872 2764 1633 
Q 3022 1394 3022 966 
Q 3022 478 2636 193 
Q 2250 -91 1575 -91 
Q 1294 -91 989 -36 
Q 684 19 347 128 
L 347 722 
Q 666 556 975 473 
Q 1284 391 1588 391 
Q 1994 391 2212 530 
Q 2431 669 2431 922 
Q 2431 1156 2273 1281 
Q 2116 1406 1581 1522 
L 1381 1569 
Q 847 1681 609 1914 
Q 372 2147 372 2553 
Q 372 3047 722 3315 
Q 1072 3584 1716 3584 
Q 2034 3584 2315 3537 
Q 2597 3491 2834 3397 
z
" transform="scale(0.015625)"/>
      </defs>
      <use xlink:href="#DejaVuSans-31"/>
      <use xlink:href="#DejaVuSans-48" transform="translate(74.8125 0)"/>
      <use xlink:href="#DejaVuSans-4c" transform="translate(136.34375 0)"/>
      <use xlink:href="#DejaVuSans-4a" transform="translate(164.125 0)"/>
      <use xlink:href="#DejaVuSans-4b" transform="translate(227.609375 0)"/>
      <use xlink:href="#DejaVuSans-45" transform="translate(290.984375 0)"/>
      <use xlink:href="#DejaVuSans-52" transform="translate(354.46875 0)"/>
      <use xlink:href="#DejaVuSans-55" transform="translate(415.65625 0)"/>
      <use xlink:href="#DejaVuSans-56" transform="translate(456.765625 0)"/>
     </g>
    </g>
   </g>
  </g>
 </g>
 <defs>
  <clipPath id="p85a311c8fb">
   <rect x="7.2" y="30.116016" width="459.172729" height="473.04"/>
  </clipPath>
 </defs>
</svg>
