<?xml version="1.0" encoding="utf-8" standalone="no"?>
<!DOCTYPE svg PUBLIC "-//W3C//DTD SVG 1.1//EN"
  "http://www.w3.org/Graphics/SVG/1.1/DTD/svg11.dtd">
<svg xmlns:xlink="http://www.w3.org/1999/xlink" width="303.291174pt" height="510.356016pt" viewBox="0 0 303.291174 510.356016" xmlns="http://www.w3.org/2000/svg" version="1.1">
 <metadata>
  <rdf:RDF xmlns:dc="http://purl.org/dc/elements/1.1/" xmlns:cc="http://creativecommons.org/ns#" xmlns:rdf="http://www.w3.org/1999/02/22-rdf-syntax-ns#">
   <cc:Work>
    <dc:type rdf:resource="http://purl.org/dc/dcmitype/StillImage"/>
    <dc:date>2026-06-19T08:36:36.034039</dc:date>
    <dc:format>image/svg+xml</dc:format>
    <dc:creator>
     <cc:Agent>
      <dc:title>Matplotlib v3.11.0, https://matplotlib.org/</dc:title>
     </cc:Agent>
    </dc:creator>
   </cc:Work>
  </rdf:RDF>
 </metadata>
 <defs>
  <style type="text/css">*{stroke-linejoin: round; stroke-linecap: butt}</style>
 </defs>
 <g id="figure_1">
  <g id="patch_1">
   <path d="M 0 510.356016 
L 303.291174 510.356016 
L 303.291174 -0 
L 0 -0 
z
" style="fill: #d6eaf8"/>
  </g>
  <g id="axes_1">
   <g id="PatchCollection_1">
    <path d="M -14857.973987 244.565153 
L 659.859723 244.565153 
L 657.221665 247.072342 
L 656.911305 247.148317 
L 656.135406 247.224293 
L 655.669866 247.376244 
L 655.359506 247.680145 
L 654.893966 248.363924 
L 654.738787 248.743801 
L 654.118067 249.275629 
L 653.807707 249.655507 
L 653.807707 249.807457 
L 653.497347 250.035384 
L 652.876628 251.09904 
L 651.169649 253.606229 
L 650.39375 254.138057 
L 650.39375 255.049762 
L 649.61785 256.41732 
L 648.531591 257.632927 
L 647.600512 258.08878 
L 646.669432 258.392681 
L 642.479575 261.203772 
L 642.324395 261.507674 
L 642.014036 261.811576 
L 641.858856 262.495355 
L 641.858856 263.027183 
L 641.858856 263.710962 
L 641.703676 264.470716 
L 641.393316 265.078519 
L 640.927776 265.534372 
L 639.841517 266.218151 
L 639.375978 266.598028 
L 639.065618 266.90193 
L 638.600078 267.737659 
L 638.289718 267.88961 
L 637.668999 268.117537 
L 637.358639 268.345463 
L 637.824179 268.801315 
L 637.979359 269.56107 
L 637.824179 270.396799 
L 637.358639 271.080578 
L 637.668999 271.38448 
L 638.444898 270.928628 
L 639.220798 270.700701 
L 639.841517 270.776677 
L 640.307057 271.38448 
L 640.927776 270.928628 
L 642.014036 269.788996 
L 642.634755 269.56107 
L 643.100295 269.485094 
L 643.565835 269.257168 
L 644.031374 268.877291 
L 644.186554 268.497414 
L 644.341734 267.88961 
L 644.807274 267.661684 
L 645.272813 267.585709 
L 645.738353 267.433758 
L 645.738353 267.205831 
L 645.893533 266.598028 
L 646.048713 266.446077 
L 646.203893 266.370102 
L 646.669432 266.294126 
L 646.824612 266.142175 
L 647.134972 265.686323 
L 647.600512 264.546691 
L 647.910871 264.166814 
L 648.376411 263.938888 
L 648.686771 263.786937 
L 648.997131 263.634986 
L 649.152311 263.255109 
L 649.30749 262.875232 
L 649.77303 262.647305 
L 650.39375 262.495355 
L 651.790369 261.507674 
L 652.721448 260.823895 
L 653.031808 260.140116 
L 653.497347 259.836214 
L 655.669866 258.772558 
L 655.980226 258.468657 
L 656.135406 258.164755 
L 656.290585 257.936829 
L 656.600945 257.784878 
L 657.221665 257.784878 
L 657.376845 258.012804 
L 657.376845 258.392681 
L 657.842384 259.456337 
L 657.687204 259.836214 
L 657.376845 260.216092 
L 657.066485 260.519993 
L 656.600945 261.811576 
L 655.049146 264.622667 
L 655.049146 264.850593 
L 655.204326 265.382421 
L 655.049146 265.534372 
L 654.893966 265.610347 
L 654.428427 265.534372 
L 654.273247 265.534372 
L 653.342168 266.749979 
L 654.428427 266.825954 
L 655.204326 267.357782 
L 655.669866 268.193512 
L 655.669866 269.257168 
L 656.290585 269.181193 
L 657.066485 269.333143 
L 657.687204 269.788996 
L 657.842384 270.472775 
L 657.376845 270.776677 
L 656.756125 270.700701 
L 655.359506 270.168873 
L 655.514686 270.472775 
L 655.825046 271.156554 
L 655.980226 271.38448 
L 655.359506 271.232529 
L 655.049146 271.080578 
L 654.428427 271.536431 
L 653.962887 271.38448 
L 653.807707 270.776677 
L 653.962887 270.168873 
L 652.411088 270.092898 
L 651.790369 269.864971 
L 651.324829 269.257168 
L 650.39375 269.56107 
L 649.46267 269.485094 
L 648.686771 269.333143 
L 648.066051 269.257168 
L 647.600512 269.409119 
L 646.979792 270.016922 
L 646.359073 270.168873 
L 645.893533 270.168873 
L 645.427993 270.244849 
L 645.272813 270.54875 
L 645.117633 271.080578 
L 644.807274 270.624726 
L 644.807274 270.472775 
L 644.496914 270.472775 
L 644.031374 271.38448 
L 642.479575 272.448136 
L 641.858856 273.283866 
L 641.082956 272.600087 
L 640.307057 272.524112 
L 638.444898 272.979964 
L 637.048279 272.979964 
L 636.27238 273.20789 
L 635.65166 273.587768 
L 634.099861 273.05594 
L 633.013602 272.979964 
L 629.599645 273.283866 
L 629.599645 273.131915 
L 630.065184 272.828013 
L 630.375544 272.22021 
L 630.685904 271.612406 
L 631.461803 271.38448 
L 632.082523 271.080578 
L 631.772163 270.472775 
L 631.927343 269.864971 
L 631.461803 269.56107 
L 630.065184 269.257168 
L 628.978925 268.421438 
L 628.203026 267.965586 
L 627.892666 268.193512 
L 627.427126 268.193512 
L 624.168348 269.485094 
L 623.392449 270.016922 
L 621.99583 271.080578 
L 622.30619 271.840333 
L 621.99583 272.448136 
L 621.53029 272.979964 
L 620.909571 273.283866 
L 619.512952 272.903989 
L 618.737052 274.04362 
L 617.650793 277.234588 
L 618.737052 276.550809 
L 619.202592 276.474834 
L 619.978491 276.626785 
L 619.512952 277.158613 
L 618.426693 277.994343 
L 617.961153 278.450195 
L 617.650793 278.450195 
L 617.030074 278.222269 
L 615.323095 277.766416 
L 614.857555 277.386539 
L 614.547195 277.006662 
L 614.547195 276.70276 
L 614.392015 276.398859 
L 613.616116 276.246908 
L 613.305756 275.943006 
L 613.150576 275.563129 
L 613.150576 275.107276 
L 612.840217 275.107276 
L 612.840217 276.018981 
L 612.219497 275.639104 
L 611.753957 275.563129 
L 611.288418 275.71508 
L 610.822878 276.018981 
L 609.115899 277.53849 
L 608.805539 277.994343 
L 608.49518 279.741778 
L 608.18482 280.045679 
L 607.71928 280.19763 
L 607.5641 280.501532 
L 608.18482 280.957385 
L 606.633021 282.021041 
L 606.477841 282.172991 
L 605.236402 282.248967 
L 604.770862 282.172991 
L 603.994963 281.86909 
L 603.529423 281.337262 
L 603.063884 280.045679 
L 602.598344 278.602146 
L 602.598344 277.386539 
L 602.132804 276.550809 
L 601.201725 275.639104 
L 600.736185 274.651424 
L 601.046545 273.283866 
L 600.115466 272.903989 
L 599.805106 272.600087 
L 599.649926 272.068259 
L 597.011868 273.359841 
L 595.770429 273.587768 
L 594.52899 272.676062 
L 594.839349 272.524112 
L 594.839349 272.372161 
L 594.37381 271.916308 
L 594.37381 271.38448 
L 594.52899 271.156554 
L 594.839349 271.38448 
L 595.149709 271.38448 
L 594.994529 270.54875 
L 595.460069 269.788996 
L 597.011868 268.649365 
L 597.011868 269.56107 
L 597.322228 269.181193 
L 597.477408 268.649365 
L 597.632587 268.345463 
L 598.098127 268.649365 
L 598.408487 267.965586 
L 598.874027 266.90193 
L 599.029206 266.142175 
L 598.098127 266.674003 
L 597.477408 266.598028 
L 597.011868 266.0662 
L 596.701508 265.23047 
L 598.253307 264.622667 
L 598.718847 264.622667 
L 599.029206 264.850593 
L 599.494746 265.534372 
L 599.805106 265.838274 
L 600.270646 265.990224 
L 601.667265 266.142175 
L 603.063884 266.977905 
L 603.374243 267.05388 
L 603.994963 266.977905 
L 604.150143 266.749979 
L 604.305323 266.522052 
L 604.615682 266.142175 
L 606.943381 264.090839 
L 607.5641 263.786937 
L 608.02964 264.24279 
L 608.18482 265.534372 
L 608.805539 265.306446 
L 608.960719 265.002544 
L 608.805539 263.862912 
L 608.960719 263.331084 
L 610.202158 261.507674 
L 610.357338 261.7356 
L 610.512518 262.191453 
L 610.512518 262.495355 
L 610.822878 262.267428 
L 611.133238 262.039502 
L 611.133238 261.7356 
L 611.133238 261.203772 
L 611.443598 261.203772 
L 611.909137 261.811576 
L 612.374677 261.355723 
L 612.840217 260.671944 
L 613.305756 260.216092 
L 613.771296 259.988165 
L 613.616116 259.456337 
L 613.305756 258.772558 
L 613.150576 258.08878 
L 613.305756 258.24073 
L 613.926476 258.392681 
L 614.081656 258.468657 
L 614.236836 257.632927 
L 614.702375 257.632927 
L 615.012735 257.936829 
L 615.323095 258.08878 
L 615.943814 258.012804 
L 617.030074 257.632927 
L 619.047412 257.405001 
L 621.37511 256.569271 
L 622.61655 256.265369 
L 624.013169 256.341345 
L 624.478708 256.265369 
L 624.478708 256.113418 
L 624.789068 255.505615 
L 624.944248 255.277689 
L 625.254608 255.201713 
L 626.030507 255.049762 
L 626.340867 254.897811 
L 627.116766 254.897811 
L 628.358205 255.201713 
L 629.599645 255.353664 
L 630.375544 254.745861 
L 630.996264 255.277689 
L 631.306623 255.125738 
L 631.616983 254.669885 
L 632.237703 254.441959 
L 632.548062 254.517934 
L 632.858422 255.201713 
L 633.168782 255.277689 
L 633.479142 255.277689 
L 633.634322 255.201713 
L 633.789502 255.201713 
L 634.099861 255.277689 
L 634.099861 254.669885 
L 633.789502 253.986106 
L 633.479142 253.454278 
L 633.013602 253.150376 
L 633.479142 252.770499 
L 633.944681 252.618548 
L 634.410221 252.618548 
L 634.720581 252.846475 
L 635.030941 252.08672 
L 635.3413 251.326966 
L 635.80684 250.871114 
L 636.42756 251.326966 
L 636.737919 250.567212 
L 636.893099 249.883433 
L 637.048279 249.275629 
L 637.668999 248.895752 
L 639.220798 248.971728 
L 639.841517 248.743801 
L 639.220798 247.984047 
L 639.686337 247.984047 
L 640.151877 248.211973 
L 640.462237 248.667826 
L 640.617417 249.199654 
L 641.082956 247.60417 
L 641.238136 247.072342 
L 641.393316 247.60417 
L 641.858856 247.832096 
L 642.324395 247.984047 
L 642.789935 248.287949 
L 643.100295 247.908072 
L 643.410655 247.832096 
L 643.721014 248.135998 
L 643.876194 248.591851 
L 643.876194 247.908072 
L 644.031374 247.680145 
L 644.341734 247.60417 
L 644.652094 247.680145 
L 644.962454 247.528195 
L 644.962454 247.224293 
L 645.117633 246.844416 
L 645.117633 246.76844 
L 645.272813 246.76844 
L 645.583173 246.844416 
L 645.738353 246.996367 
L 645.893533 247.072342 
L 646.669432 247.072342 
L 646.979792 246.996367 
L 647.134972 246.616489 
L 647.445332 246.312588 
L 648.376411 245.856735 
L 649.77303 245.096981 
L 649.92821 245.78076 
L 650.08339 246.844416 
L 650.39375 247.376244 
L 650.859289 247.148317 
L 651.790369 246.312588 
L 652.411088 246.160637 
L 652.876628 246.312588 
L 653.031808 246.540514 
L 652.876628 246.844416 
L 652.411088 247.072342 
L 652.876628 247.224293 
L 653.497347 247.224293 
L 653.652527 247.376244 
L 654.118067 246.692465 
L 655.669866 245.400882 
L 655.980226 245.021005 
L 659.083823 243.653448 
L 659.859723 243.653448 
z
" clip-path="url(#p0aa8a1264b)" style="fill: #bdc3c7; stroke: #ffffff; stroke-width: 0.5"/>
    <path d="M 541.457468 324.795209 
L 541.457468 324.415331 
L 542.078187 323.655577 
L 542.233367 323.199725 
L 542.233367 322.591921 
L 542.078187 322.288019 
L 541.767827 321.984118 
L 541.767827 321.528265 
L 541.923007 320.61656 
L 542.698907 320.236683 
L 544.716245 320.160707 
L 545.802505 319.704855 
L 546.112864 319.476928 
L 546.578404 319.021076 
L 546.578404 318.641199 
L 546.578404 318.261322 
L 546.423224 317.805469 
L 546.423224 316.28596 
L 546.578404 315.678157 
L 546.733584 315.602181 
L 546.888764 315.678157 
L 548.440563 316.134009 
L 548.750922 316.134009 
L 549.216462 315.678157 
L 549.371642 315.374255 
L 549.216462 315.070353 
L 549.061282 314.690476 
L 549.061282 314.234624 
L 548.906102 313.322918 
L 548.750922 312.867066 
L 548.750922 312.487189 
L 548.285383 312.259262 
L 547.975023 312.107312 
L 547.664663 311.80341 
L 547.354303 310.739754 
L 547.819843 310.283901 
L 548.595743 309.979999 
L 549.061282 309.14427 
L 549.216462 308.840368 
L 550.147541 308.612442 
L 550.613081 308.384515 
L 550.768261 307.852687 
L 550.613081 307.396835 
L 550.768261 306.940982 
L 551.233801 306.561105 
L 551.69934 307.092933 
L 552.0097 306.940982 
L 552.32006 306.409154 
L 552.0097 305.877326 
L 552.32006 305.269523 
L 552.7856 304.661719 
L 553.095959 304.509768 
L 553.561499 304.965621 
L 553.871859 304.965621 
L 555.578838 303.446112 
L 557.285816 302.382456 
L 557.440996 302.230505 
L 557.596176 302.15453 
L 557.596176 301.926604 
L 557.751356 301.698677 
L 558.061716 301.622702 
L 558.372076 301.622702 
L 558.682435 301.774653 
L 558.837615 301.850628 
L 558.682435 301.926604 
L 558.372076 302.306481 
L 558.527255 303.066235 
L 558.837615 303.901965 
L 559.147975 304.357818 
L 559.458335 304.129891 
L 559.147975 303.522088 
L 558.992795 302.99026 
L 558.992795 302.458432 
L 559.147975 301.926604 
L 559.458335 301.698677 
L 560.854954 300.862948 
L 561.165314 300.710997 
L 562.872292 301.3188 
L 563.027472 301.090874 
L 563.182652 300.559046 
L 563.337832 300.027218 
L 563.493012 299.799292 
L 563.958552 299.647341 
L 564.113731 299.419414 
L 564.424091 299.267464 
L 565.355171 299.115513 
L 565.51035 298.887586 
L 565.66553 298.65966 
L 566.13107 298.431734 
L 566.28625 298.355758 
L 566.44143 298.431734 
L 566.44143 299.039537 
L 566.44143 299.49539 
L 566.44143 299.951242 
L 566.13107 300.33112 
L 565.82071 300.710997 
L 566.59661 300.862948 
L 567.217329 300.559046 
L 567.682869 299.951242 
L 568.303588 299.49539 
L 569.234668 300.103193 
L 570.476107 300.179169 
L 571.717546 300.027218 
L 572.648625 299.799292 
L 573.890064 299.191488 
L 574.510784 298.811611 
L 574.976324 298.355758 
L 575.441863 297.975881 
L 576.528123 297.975881 
L 577.148842 297.596004 
L 578.545461 297.82393 
L 580.09726 297.520029 
L 581.493879 296.760274 
L 581.804239 295.468692 
L 582.735318 295.772594 
L 583.976757 296.380397 
L 584.907837 297.064176 
L 585.373376 297.747955 
L 585.528556 298.279783 
L 585.994096 299.191488 
L 585.994096 299.799292 
L 585.683736 300.255144 
L 584.597477 301.394776 
L 584.287117 301.926604 
L 584.752657 302.15453 
L 584.752657 302.534407 
L 584.597477 302.914284 
L 584.287117 303.142211 
L 584.752657 303.066235 
L 585.994096 301.622702 
L 586.769995 301.3188 
L 587.701075 301.394776 
L 588.632154 301.774653 
L 589.408053 302.306481 
L 589.873593 303.142211 
L 589.873593 303.522088 
L 589.718413 304.053916 
L 589.873593 304.357818 
L 590.028773 304.433793 
L 590.804672 305.117572 
L 590.959852 305.269523 
L 591.115032 305.421474 
L 592.822011 306.713056 
L 593.287551 306.713056 
L 593.75309 306.713056 
L 594.21863 306.865007 
L 594.994529 307.396835 
L 596.235968 308.992319 
L 596.546328 309.296221 
L 597.477408 309.448171 
L 598.408487 309.752073 
L 599.184386 310.359877 
L 599.649926 311.195606 
L 599.649926 312.259262 
L 599.184386 313.170968 
L 598.718847 313.854746 
L 598.408487 314.690476 
L 598.253307 315.146329 
L 598.253307 315.526206 
L 598.098127 315.906083 
L 598.253307 316.28596 
L 598.563667 316.589862 
L 599.339566 317.12169 
L 599.649926 317.349616 
L 599.649926 317.881444 
L 599.494746 318.337297 
L 599.494746 318.79315 
L 599.805106 319.173027 
L 600.425825 319.021076 
L 600.736185 319.173027 
L 600.581005 319.476928 
L 600.270646 319.78083 
L 600.736185 320.008756 
L 601.046545 320.312658 
L 601.046545 320.768511 
L 600.736185 321.376314 
L 600.581005 321.224363 
L 600.270646 321.072412 
L 600.270646 321.224363 
L 600.425825 321.984118 
L 599.184386 322.363995 
L 599.339566 323.579602 
L 600.115466 325.023135 
L 600.581005 325.630938 
L 601.512085 325.706914 
L 601.822444 325.93484 
L 602.132804 326.314717 
L 602.598344 326.846545 
L 602.753524 327.150447 
L 602.753524 327.302398 
L 602.908704 327.454349 
L 603.219063 327.530324 
L 603.529423 327.378373 
L 603.839783 327.074472 
L 603.994963 326.77057 
L 603.994963 326.542644 
L 604.305323 326.542644 
L 604.150143 326.922521 
L 603.839783 327.530324 
L 603.684603 327.834226 
L 603.684603 328.442029 
L 603.684603 328.897882 
L 603.529423 329.505685 
L 603.219063 330.113489 
L 602.598344 330.569341 
L 602.287984 330.873243 
L 600.115466 332.012875 
L 599.029206 333.076531 
L 599.029206 332.164826 
L 597.787767 332.620678 
L 597.322228 332.772629 
L 597.787767 332.012875 
L 597.787767 331.860924 
L 597.632587 331.405071 
L 597.322228 331.329096 
L 597.167048 331.329096 
L 596.856688 331.025194 
L 596.391148 331.025194 
L 595.149709 331.632998 
L 594.52899 331.860924 
L 594.68417 332.772629 
L 593.90827 333.304457 
L 592.977191 333.608359 
L 592.511651 333.532383 
L 592.511651 332.848604 
L 592.666831 332.620678 
L 592.511651 332.468727 
L 591.890932 331.784948 
L 591.425392 331.557022 
L 590.959852 331.481047 
L 590.494313 331.481047 
L 590.649492 331.708973 
L 590.649492 331.860924 
L 590.494313 332.240801 
L 590.339133 332.544703 
L 590.028773 332.696654 
L 589.563233 332.772629 
L 589.563233 332.620678 
L 589.408053 332.392752 
L 589.252873 332.240801 
L 588.942514 332.164826 
L 588.632154 332.164826 
L 588.166614 332.392752 
L 587.856254 332.468727 
L 587.545895 332.620678 
L 587.235535 332.92458 
L 586.925175 333.228482 
L 586.459635 333.380432 
L 585.838916 333.456408 
L 585.528556 333.532383 
L 585.373376 333.684334 
L 585.063016 333.988236 
L 584.907837 334.292138 
L 584.752657 334.899941 
L 584.597477 335.203843 
L 584.131937 335.431769 
L 583.200858 335.735671 
L 582.890498 335.963597 
L 581.649059 337.483106 
L 580.873159 338.090909 
L 580.09726 338.318836 
L 579.7869 338.318836 
L 579.47654 338.622737 
L 578.545461 337.711032 
L 575.286683 338.850664 
L 573.890064 338.622737 
L 573.269345 338.622737 
L 572.958985 338.546762 
L 572.648625 338.318836 
L 572.493445 338.546762 
L 571.872726 338.926639 
L 571.252006 339.002614 
L 570.786467 338.774688 
L 570.320927 338.698713 
L 569.545028 339.07859 
L 569.079488 339.230541 
L 568.924308 338.470786 
L 568.769128 338.24286 
L 568.458768 338.318836 
L 567.993229 338.546762 
L 567.838049 338.774688 
L 567.527689 338.926639 
L 567.372509 338.774688 
L 566.44143 338.014934 
L 566.44143 337.711032 
L 566.13107 337.483106 
L 564.268911 336.951278 
L 560.699774 335.963597 
L 559.613515 335.811646 
L 558.372076 335.507745 
L 556.044377 334.444088 
L 554.958118 334.596039 
L 553.716679 333.988236 
L 553.095959 333.91226 
L 550.923441 334.064211 
L 550.613081 333.988236 
L 550.147541 333.76031 
L 549.837182 333.532383 
L 549.682002 333.228482 
L 549.371642 333.076531 
L 546.423224 332.316776 
L 545.026605 331.708973 
L 544.095526 330.26544 
L 543.785166 330.569341 
L 543.629986 330.113489 
L 543.474806 329.201784 
L 543.474806 328.745931 
L 543.319626 328.442029 
L 543.164446 328.290079 
L 543.009267 327.910201 
L 542.854087 327.378373 
L 542.698907 327.074472 
L 541.923007 326.694594 
L 541.923007 326.390693 
L 542.078187 326.010816 
L 541.767827 325.630938 
L 541.612648 325.251061 
z
" clip-path="url(#p0aa8a1264b)" style="fill: #bdc3c7; stroke: #ffffff; stroke-width: 0.5"/>
    <path d="M 571.562366 377.750085 
L 572.803805 376.458502 
L 573.579705 376.230576 
L 574.510784 376.534478 
L 574.976324 376.154601 
L 575.131504 375.16692 
L 575.441863 374.711067 
L 575.907403 374.483141 
L 576.372943 374.483141 
L 578.855821 375.090944 
L 579.166181 375.014969 
L 579.47654 374.711067 
L 579.47654 374.255215 
L 579.63172 373.799362 
L 580.09726 373.49546 
L 580.71798 373.875338 
L 581.028339 373.49546 
L 581.183519 372.735706 
L 581.183519 371.899976 
L 581.804239 370.912296 
L 583.356038 370.304492 
L 585.063016 370.228517 
L 586.304456 370.684369 
L 586.614815 369.392787 
L 586.925175 369.240836 
L 587.545895 369.164861 
L 587.856254 369.088885 
L 588.011434 368.860959 
L 588.166614 368.633033 
L 588.476974 368.557057 
L 588.942514 368.633033 
L 589.252873 368.784984 
L 589.718413 368.784984 
L 590.183953 368.557057 
L 590.494313 369.164861 
L 591.890932 369.240836 
L 592.201291 369.924615 
L 592.511651 369.924615 
L 594.06345 370.152541 
L 594.52899 370.380468 
L 594.839349 370.912296 
L 595.149709 371.748025 
L 594.994529 372.50778 
L 594.21863 372.963632 
L 593.44273 373.419485 
L 593.287551 373.115583 
L 592.822011 373.039608 
L 591.890932 372.887657 
L 592.046111 373.267534 
L 592.201291 373.571436 
L 592.046111 373.875338 
L 591.580572 374.103264 
L 591.115032 373.951313 
L 590.183953 373.875338 
L 589.097694 373.875338 
L 588.321794 374.103264 
L 588.476974 373.799362 
L 588.632154 373.191559 
L 588.632154 372.887657 
L 588.321794 373.039608 
L 588.011434 373.115583 
L 587.701075 373.039608 
L 587.390715 372.887657 
L 587.701075 372.659731 
L 587.856254 372.355829 
L 588.011434 372.203878 
L 586.925175 371.824001 
L 585.838916 372.279854 
L 583.976757 373.799362 
L 583.200858 373.951313 
L 582.580138 373.951313 
L 582.114599 374.103264 
L 581.804239 374.559116 
L 581.804239 375.470822 
L 581.804239 375.698748 
L 581.649059 375.014969 
L 581.183519 375.318871 
L 581.028339 375.850699 
L 581.183519 376.306551 
L 581.493879 376.534478 
L 582.114599 376.686429 
L 582.269778 377.066306 
L 582.114599 378.205937 
L 582.114599 378.509839 
L 581.804239 378.813741 
L 581.338699 379.041667 
L 581.028339 378.965692 
L 580.5628 378.737765 
L 580.5628 378.281913 
L 580.71798 377.142281 
L 580.09726 377.674109 
L 579.7869 377.750085 
L 579.166181 377.750085 
L 578.855821 378.205937 
L 578.545461 378.585814 
L 578.235101 378.889716 
L 577.614382 378.965692 
L 576.993662 378.889716 
L 575.752223 378.433863 
L 575.286683 378.357888 
L 574.355604 378.965692 
L 573.734885 379.041667 
L 573.579705 378.357888 
L 573.269345 378.357888 
L 572.958985 378.585814 
L 572.493445 378.433863 
L 572.027906 378.129962 
z
" clip-path="url(#p0aa8a1264b)" style="fill: #bdc3c7; stroke: #ffffff; stroke-width: 0.5"/>
    <path d="M 538.19869 289.314682 
L 538.19869 288.934805 
L 538.66423 289.01078 
L 538.81941 288.934805 
L 538.50905 288.554928 
L 538.50905 287.871149 
L 538.50905 287.339321 
L 538.81941 287.111394 
L 539.284949 286.959444 
L 539.440129 286.503591 
L 539.440129 285.971763 
L 539.595309 285.591886 
L 539.905669 285.287984 
L 540.836748 284.52823 
L 541.302288 284.376279 
L 541.302288 284.52823 
L 541.767827 285.36396 
L 542.078187 285.591886 
L 542.233367 285.591886 
L 542.388547 285.287984 
L 542.854087 284.072377 
L 543.164446 284.604205 
L 543.164446 285.212009 
L 543.009267 285.743837 
L 542.543727 286.199689 
L 542.233367 287.035419 
L 540.991928 287.947124 
L 540.836748 288.630903 
L 540.681568 288.478952 
L 540.526388 288.402977 
L 540.371208 288.327001 
L 540.216029 288.0231 
L 539.750489 288.327001 
L 539.440129 288.630903 
L 539.284949 289.01078 
L 539.284949 289.542608 
z
" clip-path="url(#p0aa8a1264b)" style="fill: #bdc3c7; stroke: #ffffff; stroke-width: 0.5"/>
    <path d="M -14815.765057 288.630903 
L -14815.144338 288.934805 
L -14814.678798 289.390657 
L -14814.213258 289.84651 
L -14813.282179 289.922485 
L -14812.04074 290.530289 
L -14811.26484 290.986142 
L -14810.954481 291.593945 
L -14811.73038 293.037478 
L -14811.73038 293.34138 
L -14812.50628 293.569306 
L -14813.437359 294.329061 
L -14814.058078 295.240766 
L -14814.213258 296.076495 
L -14814.833978 295.544667 
L -14814.833978 294.708938 
L -14814.213258 293.797232 
L -14813.592539 293.34138 
L -14813.747719 292.733576 
L -14813.592539 292.429675 
L -14813.282179 292.277724 
L -14813.126999 292.049798 
L -14813.126999 291.441994 
L -14813.126999 291.214068 
L -14813.592539 290.834191 
L -14814.058078 290.606264 
L -14814.989158 290.454313 
L -14815.454697 290.226387 
L -14815.609877 289.922485 
L -14815.609877 289.01078 
z
" clip-path="url(#p0aa8a1264b)" style="fill: #bdc3c7; stroke: #ffffff; stroke-width: 0.5"/>
    <path d="M 626.806407 324.415331 
L 627.271946 324.719233 
L 627.582306 324.719233 
L 628.513385 323.959479 
L 628.668565 323.959479 
L 628.978925 324.035454 
L 629.599645 324.11143 
L 630.220364 324.567282 
L 631.306623 326.466668 
L 631.616983 326.846545 
L 632.237703 328.138128 
L 632.392883 330.493366 
L 631.927343 332.316776 
L 630.530724 331.481047 
L 630.220364 330.949219 
L 629.754824 329.733612 
L 629.599645 329.201784 
L 628.823745 328.214103 
L 628.513385 327.682275 
L 628.203026 326.846545 
L 628.047846 327.378373 
L 628.203026 328.290079 
L 628.047846 328.59398 
L 627.737486 328.669956 
L 627.582306 328.366054 
L 627.271946 327.074472 
L 627.427126 325.782889 
L 627.271946 325.630938 
L 626.961586 324.871184 
z
" clip-path="url(#p0aa8a1264b)" style="fill: #bdc3c7; stroke: #ffffff; stroke-width: 0.5"/>
    <path d="M 549.061282 274.499473 
L 549.061282 274.195571 
L 549.371642 273.131915 
L 549.371642 272.676062 
L 549.682002 272.676062 
L 550.147541 273.20789 
L 551.078621 272.828013 
L 552.63042 271.080578 
L 554.647758 269.409119 
L 555.268478 268.421438 
L 554.647758 267.433758 
L 555.578838 267.433758 
L 556.044377 267.813635 
L 556.199557 268.421438 
L 555.889197 269.257168 
L 555.578838 269.713021 
L 554.802938 270.244849 
L 554.647758 270.624726 
L 554.492578 270.852652 
L 551.85452 273.05594 
L 551.233801 273.739718 
L 550.923441 274.499473 
L 550.457901 274.271547 
L 550.302721 274.195571 
L 550.147541 274.423497 
L 549.682002 274.651424 
L 549.371642 274.727399 
z
" clip-path="url(#p0aa8a1264b)" style="fill: #bdc3c7; stroke: #ffffff; stroke-width: 0.5"/>
    <path d="M -14857.973987 261.279748 
L -14857.973987 259.000485 
L -14857.663627 258.392681 
L -14856.422188 257.556952 
L -14856.267008 257.025124 
L -14855.801469 256.873173 
L -14854.24967 256.341345 
L -14853.62895 256.265369 
L -14853.62895 256.569271 
L -14853.93931 256.645246 
L -14854.09449 256.797197 
L -14854.09449 256.949148 
L -14853.78413 257.177074 
L -14853.78413 257.556952 
L -14854.09449 257.632927 
L -14854.24967 257.708902 
L -14854.560029 257.784878 
L -14854.870389 257.784878 
L -14855.025569 258.012804 
L -14855.335929 258.468657 
L -14855.335929 258.848534 
L -14854.870389 259.07646 
L -14854.560029 259.304386 
L -14855.180749 259.91219 
L -14855.956648 260.519993 
z
" clip-path="url(#p0aa8a1264b)" style="fill: #bdc3c7; stroke: #ffffff; stroke-width: 0.5"/>
    <path d="M -14857.973987 280.349581 
L -14857.973987 272.372161 
L -14857.508447 271.612406 
L -14854.40485 268.193512 
L -14853.62895 267.737659 
L -14852.697871 267.433758 
L -14852.077151 267.585709 
L -14851.766791 268.117537 
L -14851.301252 269.409119 
L -14851.146072 270.168873 
L -14851.146072 270.624726 
L -14850.680532 271.004603 
L -14850.214993 271.308505 
L -14850.059813 271.688382 
L -14850.214993 272.068259 
L -14851.766791 273.587768 
L -14852.232331 274.347522 
L -14852.387511 274.803375 
L -14852.387511 275.791055 
L -14852.542691 275.867031 
L -14852.853051 275.867031 
L -14853.16341 276.018981 
L -14855.801469 277.690441 
L -14857.198088 278.906048 
z
" clip-path="url(#p0aa8a1264b)" style="fill: #bdc3c7; stroke: #ffffff; stroke-width: 0.5"/>
    <path d="M 652.566268 353.437946 
L 653.342168 353.058069 
L 655.049146 352.450266 
L 656.756125 352.070389 
L 657.376845 351.994413 
L 657.687204 352.298315 
L 657.842384 352.526241 
L 657.532025 353.058069 
L 656.445765 353.285996 
L 655.980226 353.741848 
L 655.204326 354.349652 
L 655.514686 354.729529 
L 656.135406 354.425627 
L 656.290585 354.425627 
L 656.445765 354.957455 
L 655.669866 355.641234 
L 655.514686 356.552939 
L 654.738787 356.780865 
L 654.428427 356.021111 
L 654.273247 355.261357 
L 653.807707 354.88148 
L 653.497347 354.425627 
L 652.721448 353.969774 
z
" clip-path="url(#p0aa8a1264b)" style="fill: #bdc3c7; stroke: #ffffff; stroke-width: 0.5"/>
    <path d="M -14857.973987 280.273606 
L 659.859723 272.296185 
L 659.859723 272.372161 
L 658.928644 274.195571 
L 658.618284 274.955325 
L 658.463104 275.563129 
L 656.911305 277.842392 
L 655.825046 278.678122 
L 655.359506 279.20995 
L 655.049146 279.893728 
L 655.359506 280.501532 
L 656.135406 281.185311 
L 656.290585 281.86909 
L 656.756125 282.021041 
L 657.376845 282.021041 
L 657.842384 281.86909 
L 658.463104 281.641163 
L 659.083823 281.261286 
L 659.549363 280.805434 
L 659.859723 280.349581 
z
" clip-path="url(#p0aa8a1264b)" style="fill: #bdc3c7; stroke: #ffffff; stroke-width: 0.5"/>
    <path d="M 648.686771 380.333249 
L 648.686771 379.877397 
L 648.997131 379.725446 
L 648.997131 379.64947 
L 649.152311 379.269593 
L 649.46267 379.421544 
L 649.92821 379.49752 
L 650.08339 379.573495 
L 649.92821 378.889716 
L 649.46267 378.205937 
L 649.30749 377.674109 
L 650.23857 377.446183 
L 650.704109 377.82606 
L 651.014469 378.585814 
L 651.169649 379.49752 
L 651.324829 380.257274 
L 650.08339 380.561176 
L 649.46267 380.561176 
L 648.841951 380.4852 
z
" clip-path="url(#p0aa8a1264b)" style="fill: #bdc3c7; stroke: #ffffff; stroke-width: 0.5"/>
    <path d="M 632.703242 294.860889 
L 632.858422 294.253085 
L 632.703242 293.645282 
L 633.013602 293.189429 
L 634.875761 292.885527 
L 635.186121 292.809552 
L 635.65166 292.809552 
L 636.1172 293.189429 
L 636.1172 293.417355 
L 636.27238 295.012839 
L 636.1172 296.152471 
L 635.80684 297.216127 
L 635.3413 298.051857 
L 634.720581 298.811611 
L 633.634322 299.799292 
L 633.323962 299.49539 
L 633.323962 296.83625 
L 633.168782 296.152471 
L 633.013602 295.468692 
z
" clip-path="url(#p0aa8a1264b)" style="fill: #bdc3c7; stroke: #ffffff; stroke-width: 0.5"/>
    <path d="M 605.546762 312.259262 
L 606.012301 310.891705 
L 607.098561 310.207926 
L 607.40892 309.979999 
L 608.02964 309.752073 
L 608.805539 310.207926 
L 609.271079 311.271582 
L 609.426259 311.879385 
L 609.581439 312.487189 
L 609.736619 313.094992 
L 609.581439 313.778771 
L 609.426259 314.310599 
L 609.115899 314.766452 
L 608.02964 315.070353 
L 607.5641 315.222304 
L 606.788201 315.526206 
L 606.322661 314.766452 
L 606.167481 314.006697 
z
" clip-path="url(#p0aa8a1264b)" style="fill: #bdc3c7; stroke: #ffffff; stroke-width: 0.5"/>
    <path d="M 633.634322 317.653518 
L 633.789502 317.045715 
L 634.565401 317.425592 
L 635.3413 317.653518 
L 635.3413 317.881444 
L 635.3413 318.033395 
L 635.030941 318.261322 
L 635.186121 318.565223 
L 635.3413 318.9451 
L 635.3413 319.400953 
L 635.3413 319.78083 
L 635.030941 320.236683 
L 634.720581 320.008756 
L 634.410221 319.173027 
L 634.099861 318.79315 
L 633.789502 318.261322 
z
" clip-path="url(#p0aa8a1264b)" style="fill: #bdc3c7; stroke: #ffffff; stroke-width: 0.5"/>
    <path d="M 594.06345 367.721328 
L 594.06345 367.1895 
L 594.52899 366.581696 
L 594.52899 366.201819 
L 594.994529 365.745966 
L 595.925609 365.51804 
L 596.546328 365.669991 
L 596.391148 366.35377 
L 596.701508 366.733647 
L 596.856688 367.113524 
L 596.856688 367.417426 
L 596.701508 367.873278 
L 596.080789 367.721328 
L 595.770429 368.17718 
L 595.615249 368.633033 
L 595.149709 368.557057 
z
" clip-path="url(#p0aa8a1264b)" style="fill: #bdc3c7; stroke: #ffffff; stroke-width: 0.5"/>
    <path d="M 578.390281 345.080649 
L 578.700641 345.004673 
L 578.855821 344.928698 
L 578.855821 344.776747 
L 578.700641 344.472845 
L 578.855821 344.244919 
L 578.855821 344.092968 
L 578.855821 343.865042 
L 578.855821 343.56114 
L 579.166181 342.725411 
L 579.63172 342.649435 
L 580.09726 343.029312 
L 580.40762 343.865042 
L 580.25244 344.852723 
L 579.7869 345.460526 
L 579.166181 345.612477 
z
" clip-path="url(#p0aa8a1264b)" style="fill: #bdc3c7; stroke: #ffffff; stroke-width: 0.5"/>
    <path d="M 546.578404 277.53849 
L 546.888764 277.158613 
L 547.975023 276.626785 
L 547.664663 275.943006 
L 548.130203 275.71508 
L 549.061282 275.791055 
L 549.682002 276.018981 
L 548.285383 277.082637 
L 547.975023 277.53849 
L 548.440563 277.842392 
L 548.285383 278.222269 
L 548.130203 278.526171 
L 547.975023 278.830072 
L 547.509483 279.133974 
L 547.509483 278.830072 
L 547.199124 278.450195 
z
" clip-path="url(#p0aa8a1264b)" style="fill: #bdc3c7; stroke: #ffffff; stroke-width: 0.5"/>
    <path d="M 534.629553 293.34138 
L 534.629553 292.961503 
L 535.715812 293.417355 
L 536.336531 293.417355 
L 536.957251 292.961503 
L 537.57797 293.873208 
L 537.267611 293.949183 
L 537.112431 294.101134 
L 537.112431 294.329061 
L 536.491711 295.240766 
L 535.870992 295.772594 
L 535.405452 295.924545 
L 534.939912 295.468692 
L 534.784732 294.708938 
L 535.095092 294.101134 
L 535.095092 293.645282 
z
" clip-path="url(#p0aa8a1264b)" style="fill: #bdc3c7; stroke: #ffffff; stroke-width: 0.5"/>
    <path d="M 530.750055 79.014687 
L 531.370775 79.166638 
L 531.991494 79.090662 
L 533.077754 78.330908 
L 533.853653 78.63481 
L 535.405452 78.63481 
L 535.870992 78.862736 
L 536.181351 79.546515 
L 535.405452 80.002367 
L 534.474373 80.230294 
L 533.698473 80.230294 
L 533.077754 80.002367 
L 532.457034 79.850417 
L 531.681135 79.774441 
L 531.060415 79.926392 
L 530.905235 79.242613 
z
" clip-path="url(#p0aa8a1264b)" style="fill: #bdc3c7; stroke: #ffffff; stroke-width: 0.5"/>
    <path d="M 557.285816 350.626855 
L 557.285816 349.943077 
L 557.285816 349.639175 
L 557.906536 348.803445 
L 558.061716 348.955396 
L 558.216896 349.031371 
L 558.372076 349.031371 
L 558.527255 349.107347 
L 558.682435 349.639175 
L 558.837615 350.171003 
L 558.837615 351.234659 
L 559.147975 353.437946 
L 558.527255 352.982094 
L 557.906536 352.22234 
L 557.596176 351.38661 
z
" clip-path="url(#p0aa8a1264b)" style="fill: #bdc3c7; stroke: #ffffff; stroke-width: 0.5"/>
    <path d="M -14797.60901 378.585814 
L -14797.45383 377.750085 
L -14796.833111 376.914355 
L -14795.591672 376.838379 
L -14795.902031 377.294232 
L -14796.212391 377.370207 
L -14796.522751 377.370207 
L -14797.143471 377.446183 
L -14796.833111 378.129962 
L -14796.212391 378.737765 
L -14795.436492 379.117642 
L -14794.815772 378.965692 
L -14794.970952 379.877397 
L -14795.746852 379.801421 
L -14797.29865 378.965692 
z
" clip-path="url(#p0aa8a1264b)" style="fill: #bdc3c7; stroke: #ffffff; stroke-width: 0.5"/>
    <path d="M 654.893966 266.446077 
L 655.514686 266.218151 
L 655.825046 266.142175 
L 655.980226 265.990224 
L 655.980226 265.382421 
L 656.135406 265.23047 
L 656.600945 265.23047 
L 657.066485 265.078519 
L 657.532025 264.774618 
L 657.842384 264.318765 
L 657.842384 265.23047 
L 657.532025 265.914249 
L 657.066485 266.370102 
L 656.290585 266.446077 
z
" clip-path="url(#p0aa8a1264b)" style="fill: #bdc3c7; stroke: #ffffff; stroke-width: 0.5"/>
    <path d="M 604.460503 313.930722 
L 604.926042 314.538525 
L 605.701942 315.678157 
L 606.477841 316.209985 
L 607.253741 316.437911 
L 607.098561 316.741813 
L 607.098561 316.893764 
L 606.943381 317.045715 
L 606.633021 316.741813 
L 606.322661 316.893764 
L 606.167481 316.893764 
L 605.857122 316.589862 
L 605.391582 316.513887 
L 604.615682 314.766452 
z
" clip-path="url(#p0aa8a1264b)" style="fill: #bdc3c7; stroke: #ffffff; stroke-width: 0.5"/>
    <path d="M -14808.161243 336.723351 
L -14807.385343 335.431769 
L -14805.833544 334.672015 
L -14804.747285 335.507745 
L -14804.126566 336.115548 
L -14803.971386 336.875302 
L -14804.126566 337.635057 
L -14804.592105 338.014934 
L -14806.143904 338.014934 
L -14806.609444 337.938958 
L -14806.919804 337.711032 
L -14807.074983 337.483106 
L -14807.385343 337.40713 
z
" clip-path="url(#p0aa8a1264b)" style="fill: #bdc3c7; stroke: #ffffff; stroke-width: 0.5"/>
    <path d="M 616.719714 309.296221 
L 616.719714 308.840368 
L 617.030074 308.612442 
L 617.650793 308.992319 
L 617.805973 309.448171 
L 618.426693 310.815729 
L 618.581872 311.499508 
L 618.116333 311.499508 
L 617.961153 310.96768 
L 617.805973 310.511827 
L 617.495613 310.207926 
L 617.030074 309.904024 
z
" clip-path="url(#p0aa8a1264b)" style="fill: #bdc3c7; stroke: #ffffff; stroke-width: 0.5"/>
    <path d="M 597.787767 263.40706 
L 599.029206 262.723281 
L 599.339566 262.951207 
L 599.805106 263.027183 
L 600.115466 262.951207 
L 600.425825 262.723281 
L 600.115466 263.179133 
L 599.805106 263.559011 
L 599.184386 263.786937 
L 598.408487 263.710962 
L 598.098127 263.634986 
L 597.942947 263.559011 
z
" clip-path="url(#p0aa8a1264b)" style="fill: #bdc3c7; stroke: #ffffff; stroke-width: 0.5"/>
    <path d="M -14787.211958 323.047774 
L -14786.280878 321.832167 
L -14784.41872 321.680216 
L -14783.95318 321.908142 
L -14783.022101 322.515946 
L -14782.401381 323.199725 
L -14782.091021 323.959479 
L -14782.556561 324.795209 
L -14783.48764 325.251061 
L -14784.5739 325.251061 
L -14785.660159 325.09911 
L -14786.901598 324.491307 
z
" clip-path="url(#p0aa8a1264b)" style="fill: #bdc3c7; stroke: #ffffff; stroke-width: 0.5"/>
    <path d="M -14811.88556 366.657672 
L -14811.42002 366.201819 
L -14810.799301 365.821942 
L -14810.333761 365.51804 
L -14809.713042 365.366089 
L -14809.868221 365.669991 
L -14810.023401 365.973893 
L -14810.333761 366.201819 
L -14810.488941 366.429745 
L -14810.799301 366.581696 
L -14811.26484 366.733647 
L -14811.5752 366.733647 
z
" clip-path="url(#p0aa8a1264b)" style="fill: #bdc3c7; stroke: #ffffff; stroke-width: 0.5"/>
    <path d="M -14852.387511 371.67205 
L -14852.077151 370.380468 
L -14851.456432 368.481082 
L -14849.904633 368.633033 
L -14848.818374 369.924615 
L -14849.749453 371.292173 
L -14850.059813 369.772664 
L -14850.990892 369.620713 
L -14851.766791 370.304492 
L -14851.611612 371.140222 
L -14851.301252 372.051927 
L -14851.921971 372.203878 
z
" clip-path="url(#p0aa8a1264b)" style="fill: #bdc3c7; stroke: #ffffff; stroke-width: 0.5"/>
    <path d="M 585.683736 272.372161 
L 585.994096 272.372161 
L 586.304456 272.600087 
L 586.925175 272.676062 
L 588.011434 272.676062 
L 587.856254 273.587768 
L 588.166614 274.04362 
L 588.011434 274.271547 
L 586.925175 274.195571 
L 586.149276 274.499473 
L 585.838916 273.967645 
z
" clip-path="url(#p0aa8a1264b)" style="fill: #bdc3c7; stroke: #ffffff; stroke-width: 0.5"/>
    <path d="M -14790.005196 379.877397 
L -14790.005196 379.725446 
L -14789.850016 379.49752 
L -14789.074116 377.902035 
L -14788.763757 377.674109 
L -14788.608577 378.509839 
L -14788.608577 379.421544 
L -14788.918936 379.64947 
L -14789.384476 379.64947 
L -14789.850016 379.953372 
z
" clip-path="url(#p0aa8a1264b)" style="fill: #bdc3c7; stroke: #ffffff; stroke-width: 0.5"/>
    <path d="M -14803.350666 446.50785 
L -14803.195486 446.203949 
L -14803.040306 445.824071 
L -14803.040306 446.203949 
L -14802.885126 446.583826 
L -14802.574767 446.887728 
L -14802.264407 447.115654 
L -14802.419587 447.115654 
L -14802.729947 447.115654 
L -14803.040306 446.811752 
z
" clip-path="url(#p0aa8a1264b)" style="fill: #bdc3c7; stroke: #ffffff; stroke-width: 0.5"/>
    <path d="M -14818.247935 325.403012 
L -14817.472036 324.795209 
L -14817.006496 324.94716 
L -14816.230597 325.403012 
L -14816.075417 326.466668 
L -14816.075417 327.074472 
L -14816.851316 327.302398 
L -14817.472036 326.998496 
L -14817.782396 326.466668 
z
" clip-path="url(#p0aa8a1264b)" style="fill: #bdc3c7; stroke: #ffffff; stroke-width: 0.5"/>
    <path d="M -14857.973987 261.279748 
L 659.859723 259.000485 
L 659.859723 259.07646 
L 659.239003 260.292067 
L 659.239003 260.823895 
L 659.239003 261.203772 
L 659.394183 261.355723 
L 659.549363 261.355723 
L 659.859723 261.279748 
z
" clip-path="url(#p0aa8a1264b)" style="fill: #bdc3c7; stroke: #ffffff; stroke-width: 0.5"/>
    <path d="M 630.841084 251.93477 
L 630.841084 251.630868 
L 632.392883 251.630868 
L 633.013602 251.782819 
L 633.479142 251.93477 
L 633.013602 252.238671 
L 632.392883 252.314647 
L 631.616983 252.238671 
z
" clip-path="url(#p0aa8a1264b)" style="fill: #bdc3c7; stroke: #ffffff; stroke-width: 0.5"/>
    <path d="M 426.62435 492.548962 
L 426.77953 492.017134 
L 427.710609 492.017134 
L 428.176149 492.321036 
L 428.486509 492.928839 
L 428.331329 493.536643 
L 427.710609 493.91652 
L 426.93471 493.308716 
z
" clip-path="url(#p0aa8a1264b)" style="fill: #bdc3c7; stroke: #ffffff; stroke-width: 0.5"/>
    <path d="M -14794.039873 356.173062 
L -14793.729513 355.641234 
L -14793.263973 355.413308 
L -14792.798434 355.793185 
L -14792.643254 356.249037 
L -14792.953614 356.628915 
L -14793.263973 356.932816 
L -14793.574333 356.856841 
z
" clip-path="url(#p0aa8a1264b)" style="fill: #bdc3c7; stroke: #ffffff; stroke-width: 0.5"/>
    <path d="M -14813.592539 370.380468 
L -14813.592539 369.316812 
L -14813.126999 368.709008 
L -14812.50628 368.633033 
L -14811.88556 369.392787 
L -14811.88556 370.608394 
L -14812.50628 371.368148 
L -14813.282179 371.368148 
z
" clip-path="url(#p0aa8a1264b)" style="fill: #bdc3c7; stroke: #ffffff; stroke-width: 0.5"/>
    <path d="M -14821.661893 294.17711 
L -14821.661893 293.34138 
L -14821.196353 293.113454 
L -14820.730814 293.265404 
L -14820.420454 293.873208 
L -14820.575634 294.405036 
L -14820.885994 294.708938 
L -14821.351533 294.632962 
z
" clip-path="url(#p0aa8a1264b)" style="fill: #bdc3c7; stroke: #ffffff; stroke-width: 0.5"/>
    <path d="M -14822.437792 301.698677 
L -14821.972253 301.090874 
L -14821.196353 301.014899 
L -14820.730814 301.546727 
L -14820.575634 302.382456 
L -14820.730814 303.066235 
L -14821.661893 303.142211 
L -14822.282613 302.534407 
z
" clip-path="url(#p0aa8a1264b)" style="fill: #bdc3c7; stroke: #ffffff; stroke-width: 0.5"/>
    <path d="M -14829.420887 316.058034 
L -14829.265708 315.222304 
L -14828.644988 314.538525 
L -14827.713909 314.46255 
L -14826.938009 315.222304 
L -14826.938009 316.134009 
L -14827.713909 316.741813 
L -14828.800168 316.589862 
z
" clip-path="url(#p0aa8a1264b)" style="fill: #bdc3c7; stroke: #ffffff; stroke-width: 0.5"/>
    <path d="M -14857.973987 244.565153 
L -14857.973987 243.653448 
L -14857.508447 243.197595 
L -14856.887728 242.817718 
L -14855.335929 242.437841 
L -14855.801469 243.349546 
L -14856.267008 243.881374 
L -14857.042908 244.261251 
z
" clip-path="url(#p0aa8a1264b)" style="fill: #bdc3c7; stroke: #ffffff; stroke-width: 0.5"/>
    <path d="M -14781.625482 409.507815 
L -14781.625482 409.203913 
L -14781.470302 408.900012 
L -14781.004762 408.59611 
L -14781.159942 408.900012 
L -14781.315122 409.203913 
L -14781.470302 409.735741 
z
" clip-path="url(#p0aa8a1264b)" style="fill: #bdc3c7; stroke: #ffffff; stroke-width: 0.5"/>
   </g>
   <g id="PatchCollection_2">
    <path d="M 105.71234 240.082602 
L 105.86752 239.018946 
L 107.264139 236.511757 
L 106.953779 233.548715 
L 107.108959 233.016887 
L 107.264139 232.63701 
L 107.264139 232.257133 
L 107.419318 232.029206 
L 107.884858 231.953231 
L 109.281477 230.96555 
L 113.936874 232.864936 
L 113.936874 234.46042 
L 116.574932 237.727364 
L 115.799032 239.322848 
L 116.264572 239.550774 
L 116.730112 239.854676 
L 116.885292 240.310529 
L 116.574932 240.842357 
L 117.040472 241.222234 
L 117.350831 241.602111 
L 117.816371 241.981988 
L 118.59227 242.28589 
L 119.36817 242.893693 
L 119.67853 243.045644 
L 119.83371 242.817718 
L 119.83371 242.437841 
L 119.67853 241.678086 
L 119.83371 241.602111 
L 120.144069 242.057963 
L 120.764789 243.045644 
L 120.764789 243.425521 
L 120.454429 243.881374 
L 120.454429 244.261251 
L 121.385508 244.717104 
L 121.695868 244.869054 
L 122.006228 244.869054 
L 122.161408 244.641128 
L 122.161408 244.489177 
L 122.316588 244.413202 
L 122.471768 244.261251 
L 122.626948 244.793079 
L 122.782127 245.324907 
L 123.092487 245.78076 
L 123.402847 246.160637 
L 123.868387 246.464538 
L 124.954646 246.76844 
L 125.420186 247.072342 
L 126.506445 247.984047 
L 126.971984 248.743801 
L 127.592704 249.047703 
L 128.834143 248.591851 
L 129.144503 248.819777 
L 129.299683 248.895752 
L 129.299683 249.199654 
L 128.989323 249.883433 
L 129.765222 250.719163 
L 131.627381 252.238671 
L 132.71364 252.08672 
L 133.33436 253.074401 
L 133.7999 255.277689 
L 132.86882 256.797197 
L 132.86882 257.632927 
L 133.48954 258.08878 
L 133.48954 257.25305 
L 133.7999 256.721222 
L 134.110259 256.265369 
L 134.575799 255.809517 
L 134.886159 255.809517 
L 135.351698 256.341345 
L 135.506878 257.101099 
L 135.817238 257.556952 
L 134.886159 258.620608 
L 134.575799 258.772558 
L 133.955079 258.848534 
L 133.64472 259.152436 
L 133.48954 259.608288 
L 133.024 260.140116 
L 132.71364 260.519993 
L 132.71364 260.899871 
L 132.71364 261.279748 
L 132.248101 261.507674 
L 131.627381 261.507674 
L 131.317021 261.127797 
L 131.161841 260.671944 
L 130.851482 260.216092 
L 130.385942 260.140116 
L 129.299683 259.91219 
L 128.989323 259.836214 
L 128.834143 259.456337 
L 128.213424 259.456337 
L 127.437524 259.532313 
L 127.127164 259.532313 
L 126.351265 259.152436 
L 125.420186 259.532313 
L 124.489106 260.140116 
L 124.023567 260.595969 
L 124.333926 260.899871 
L 124.333926 261.051821 
L 124.489106 261.127797 
L 124.954646 261.203772 
L 124.489106 261.811576 
L 124.023567 262.039502 
L 122.937307 262.115477 
L 122.006228 263.103158 
L 121.695868 263.027183 
L 121.385508 262.799256 
L 121.230329 262.799256 
L 121.075149 263.40706 
L 120.764789 263.40706 
L 120.454429 262.951207 
L 119.21299 262.495355 
L 118.74745 261.507674 
L 118.126731 260.975846 
L 117.661191 260.368043 
L 117.506011 259.380362 
L 117.816371 259.380362 
L 117.971551 259.684264 
L 118.281911 259.91219 
L 118.59227 260.140116 
L 119.05781 260.216092 
L 118.90263 259.532313 
L 118.59227 258.620608 
L 118.281911 257.784878 
L 117.195651 256.341345 
L 117.040472 255.885492 
L 116.885292 255.201713 
L 117.040472 254.365983 
L 116.885292 254.138057 
L 116.730112 253.834155 
L 116.419752 253.682205 
L 116.264572 253.606229 
L 116.109392 253.530254 
L 115.954212 252.542573 
L 115.954212 249.807457 
L 116.264572 249.199654 
L 115.799032 247.072342 
L 115.799032 246.76844 
L 115.799032 246.008686 
L 115.643853 245.628809 
L 115.488673 245.552833 
L 115.178313 245.476858 
L 115.178313 245.324907 
L 114.867953 244.565153 
L 113.316154 242.133939 
L 112.695435 242.513816 
L 112.540255 242.741742 
L 112.229895 242.437841 
L 111.453996 243.27357 
L 109.591837 244.565153 
L 108.505578 243.653448 
L 107.884858 243.425521 
L 107.419318 243.653448 
L 107.264139 243.197595 
L 107.108959 242.741742 
L 106.953779 242.28589 
L 106.953779 241.830037 
L 106.488239 241.374185 
L 106.177879 241.070283 
L 105.86752 240.690406 
z
" clip-path="url(#p0aa8a1264b)" style="fill: #e74c3c; stroke: #ffffff; stroke-width: 0.6"/>
    <path d="M 78.866219 184.392611 
L 79.021399 183.632856 
L 79.331759 182.949078 
L 79.486938 181.809446 
L 79.331759 180.74579 
L 79.176579 180.137987 
L 80.262838 177.630797 
L 80.262838 176.567141 
L 80.418018 176.035313 
L 81.659457 175.579461 
L 81.969817 175.275559 
L 82.124997 175.123608 
L 82.745716 175.503485 
L 82.900896 175.883362 
L 83.211256 177.098969 
L 83.366436 177.326896 
L 83.831975 177.554822 
L 83.987155 178.010674 
L 84.142335 178.542502 
L 84.142335 179.074331 
L 84.297515 179.150306 
L 85.383774 180.441888 
L 85.694134 181.505544 
L 86.004494 182.037372 
L 86.780393 182.493225 
L 88.642552 183.860783 
L 88.177012 184.316635 
L 88.332192 185.304316 
L 89.108092 187.507603 
L 89.573631 189.634916 
L 89.728811 191.838203 
L 89.728811 192.370031 
L 89.883991 192.673933 
L 90.194351 192.901859 
L 90.349531 193.205761 
L 90.97025 198.827943 
L 91.43579 199.20782 
L 92.522049 199.20782 
L 94.539388 198.979894 
L 95.625647 198.979894 
L 96.091187 198.979894 
L 96.246366 198.600016 
L 96.867086 197.688311 
L 97.177446 197.38441 
L 97.642985 197.004532 
L 97.953345 196.624655 
L 98.108525 196.016852 
L 98.263705 191.078449 
L 98.263705 190.470645 
L 97.953345 189.786866 
L 98.418885 189.103087 
L 99.194784 188.647235 
L 99.815504 188.419309 
L 103.074282 188.72321 
L 103.074282 189.103087 
L 102.298382 189.255038 
L 101.988022 189.634916 
L 101.832842 190.166744 
L 101.988022 192.066129 
L 101.832842 192.521982 
L 101.212123 193.05381 
L 101.988022 193.205761 
L 102.298382 193.737589 
L 102.453562 195.257097 
L 103.229461 197.460385 
L 103.384641 198.296115 
L 104.315721 197.53636 
L 104.93644 197.38441 
L 105.71234 197.688311 
L 105.55716 198.524041 
L 106.333059 202.170862 
L 106.022699 202.854641 
L 105.71234 203.006592 
L 105.55716 203.158542 
L 106.022699 203.842321 
L 106.177879 203.994272 
L 106.953779 204.222198 
L 107.264139 204.450125 
L 107.419318 204.678051 
L 107.729678 205.741707 
L 107.729678 206.577437 
L 107.419318 207.261216 
L 107.264139 207.565117 
L 106.953779 206.957314 
L 106.643419 206.957314 
L 106.953779 208.476823 
L 107.729678 210.756086 
L 108.660758 212.807422 
L 109.747017 213.719127 
L 110.057377 213.947054 
L 110.212556 214.402906 
L 110.057377 214.858759 
L 109.902197 215.238636 
L 109.591837 215.542538 
L 109.281477 215.466562 
L 108.971117 215.314611 
L 108.505578 215.238636 
L 106.953779 215.238636 
L 106.333059 215.466562 
L 105.55716 216.074366 
L 103.850181 218.049727 
L 103.539821 218.353629 
L 103.229461 218.50558 
L 102.763922 218.65753 
L 102.298382 218.65753 
L 101.832842 218.581555 
L 101.056943 218.201678 
L 100.591403 218.049727 
L 99.039604 217.821801 
L 97.177446 217.897776 
L 95.470467 218.353629 
L 94.539388 219.341309 
L 94.849747 219.721187 
L 94.539388 219.797162 
L 93.608308 219.645211 
L 93.142769 219.949113 
L 92.832409 220.32899 
L 92.677229 220.708867 
L 92.366869 221.16472 
L 91.59097 221.544597 
L 90.504711 221.468621 
L 89.573631 221.012769 
L 88.952912 220.177039 
L 89.418451 219.341309 
L 89.418451 218.201678 
L 88.952912 217.289973 
L 87.556293 216.606194 
L 86.935573 215.922415 
L 85.849314 214.402906 
L 85.383774 213.035349 
L 85.228594 212.655471 
L 83.987155 211.51584 
L 83.831975 211.135963 
L 83.676795 210.528159 
L 83.056076 209.69243 
L 82.900896 209.312552 
L 83.056076 208.8567 
L 83.366436 207.944995 
L 83.676795 206.653412 
L 84.297515 204.830002 
L 84.452695 203.842321 
L 84.297515 201.790985 
L 84.142335 200.727329 
L 83.056076 199.20782 
L 82.900896 198.37209 
L 82.745716 196.472704 
L 82.280176 194.725269 
L 82.280176 194.117466 
L 82.745716 193.357712 
L 81.969817 193.129785 
L 81.504277 192.446006 
L 81.193917 191.610277 
L 81.193917 190.774547 
L 81.038737 190.014793 
L 80.107658 188.571259 
L 79.642118 187.811505 
z
" clip-path="url(#p0aa8a1264b)" style="fill: #e74c3c; stroke: #ffffff; stroke-width: 0.6"/>
    <path d="M 149.162709 314.234624 
L 149.317888 313.702796 
L 150.248968 311.499508 
L 150.869687 310.891705 
L 151.955947 310.13195 
L 152.421486 309.600122 
L 154.128465 307.092933 
L 155.214724 306.105252 
L 156.456163 305.877326 
L 156.766523 306.181228 
L 156.921703 306.63708 
L 157.076883 306.940982 
L 157.852782 306.48513 
L 160.8012 305.953302 
L 161.5771 306.105252 
L 162.197819 306.561105 
L 162.197819 306.789031 
L 162.352999 307.624761 
L 162.508179 307.776712 
L 162.973719 307.852687 
L 163.128899 308.080614 
L 163.594438 308.688417 
L 163.904798 309.524147 
L 164.215158 310.435852 
L 164.525518 311.119631 
L 165.456597 311.499508 
L 165.611777 311.879385 
L 166.077316 312.79109 
L 166.232496 313.019017 
L 166.698036 313.094992 
L 167.163576 313.094992 
L 167.473935 312.943041 
L 167.784295 312.715115 
L 167.784295 313.474869 
L 166.542856 316.134009 
L 166.232496 317.273641 
L 165.922137 317.805469 
L 165.301417 318.033395 
L 164.215158 318.261322 
L 164.059978 318.337297 
L 164.059978 318.565223 
L 163.749618 318.79315 
L 163.439258 318.869125 
L 163.284078 318.79315 
L 162.973719 318.565223 
L 162.818539 318.337297 
L 162.663359 318.261322 
L 159.714941 319.021076 
L 159.404581 319.021076 
L 158.628682 318.565223 
L 158.473502 318.261322 
L 158.318322 317.805469 
L 158.163142 317.653518 
L 157.697602 318.261322 
L 157.697602 317.881444 
L 157.387243 317.425592 
L 157.387243 317.045715 
L 157.232063 317.12169 
L 157.232063 317.197665 
L 157.076883 317.349616 
L 156.766523 317.197665 
L 156.456163 317.273641 
L 156.145804 317.425592 
L 155.990624 317.653518 
L 156.145804 316.134009 
L 155.990624 316.134009 
L 155.525084 316.665837 
L 154.749185 316.969739 
L 153.197386 317.349616 
L 153.197386 317.045715 
L 153.973285 316.513887 
L 154.904364 316.209985 
L 155.680264 315.754132 
L 155.990624 314.842427 
L 155.525084 315.070353 
L 155.214724 315.070353 
L 155.059544 314.842427 
L 154.904364 313.930722 
L 154.749185 313.778771 
L 154.438825 313.778771 
L 154.128465 313.62682 
L 153.507745 313.246943 
L 152.887026 313.170968 
L 152.421486 313.322918 
L 151.800767 313.62682 
L 151.490407 313.930722 
L 150.869687 314.918403 
L 150.559328 315.146329 
L 150.093788 315.29828 
L 149.783428 315.070353 
L 149.783428 314.614501 
z
" clip-path="url(#p0aa8a1264b)" style="fill: #e74c3c; stroke: #ffffff; stroke-width: 0.6"/>
    <path d="M 147.76609 268.877291 
L 147.76609 268.497414 
L 147.921269 267.965586 
L 148.076449 266.294126 
L 148.231629 265.534372 
L 148.541989 265.23047 
L 148.852349 265.002544 
L 149.007529 264.698642 
L 149.162709 264.166814 
L 149.162709 263.710962 
L 149.007529 263.40706 
L 148.852349 262.723281 
L 149.162709 263.027183 
L 149.473068 262.951207 
L 149.783428 262.799256 
L 150.093788 262.723281 
L 150.559328 262.875232 
L 150.714507 263.027183 
L 150.869687 263.255109 
L 151.024867 263.40706 
L 151.335227 263.786937 
L 152.111126 265.458396 
L 152.576666 265.838274 
L 152.576666 266.142175 
L 152.731846 266.825954 
L 152.887026 267.585709 
L 153.197386 268.041561 
L 153.662925 267.965586 
L 154.283645 267.509733 
L 154.749185 267.433758 
L 155.059544 267.509733 
L 155.525084 267.661684 
L 155.680264 267.813635 
L 155.990624 268.041561 
L 156.456163 268.72534 
L 156.611343 269.409119 
L 157.076883 269.940947 
L 157.852782 270.168873 
L 158.007962 270.396799 
L 158.163142 270.928628 
L 158.628682 271.460456 
L 159.404581 271.688382 
L 161.5771 271.612406 
L 162.663359 271.992284 
L 163.284078 272.979964 
L 162.818539 273.20789 
L 162.818539 273.815694 
L 163.128899 274.499473 
L 162.973719 275.107276 
L 162.508179 274.87935 
L 162.197819 275.107276 
L 159.870121 273.815694 
L 159.094221 273.05594 
L 158.473502 272.676062 
L 157.542423 272.448136 
L 156.921703 272.372161 
L 155.214724 272.752038 
L 153.818105 273.511792 
L 152.576666 273.967645 
L 150.869687 273.587768 
L 150.404148 273.20789 
L 149.007529 271.992284 
L 148.852349 271.536431 
L 148.852349 270.320824 
L 148.852349 269.864971 
L 148.076449 269.257168 
z
" clip-path="url(#p0aa8a1264b)" style="fill: #e74c3c; stroke: #ffffff; stroke-width: 0.6"/>
    <path d="M 185.009263 365.594016 
L 185.785162 363.618654 
L 185.785162 363.010851 
L 185.629982 362.479023 
L 185.319623 362.02317 
L 185.009263 361.567318 
L 185.009263 361.263416 
L 185.164443 357.996472 
L 185.474803 357.084767 
L 186.095522 356.173062 
L 187.336961 355.261357 
L 189.04394 354.729529 
L 190.750919 354.805504 
L 192.302718 355.565259 
L 192.768257 356.249037 
L 192.923437 357.160743 
L 192.923437 358.832202 
L 193.078617 359.591956 
L 193.699337 359.971834 
L 195.561495 360.19976 
L 195.561495 360.123784 
L 195.716675 360.047809 
L 196.027035 359.971834 
L 196.182215 359.895858 
L 196.337395 359.971834 
L 196.337395 360.351711 
L 196.802934 360.579637 
L 196.958114 360.883539 
L 197.113294 361.263416 
L 197.268474 361.567318 
L 196.802934 361.643293 
L 194.009696 362.327072 
L 195.095956 363.618654 
L 195.251136 364.074507 
L 195.561495 364.150482 
L 196.802934 364.834261 
L 197.268474 365.138163 
L 198.509913 365.821942 
L 199.440993 366.657672 
L 200.061712 367.645352 
L 200.216892 369.01291 
L 199.906532 370.152541 
L 198.975453 370.684369 
L 198.044374 371.140222 
L 197.578834 371.899976 
L 196.647755 371.216197 
L 192.923437 369.164861 
L 192.302718 369.088885 
L 191.837178 369.316812 
L 191.526818 369.240836 
L 190.130199 368.860959 
L 189.819839 368.709008 
L 189.3543 368.253156 
L 188.268041 367.493401 
L 187.492141 367.1895 
L 185.164443 366.35377 
z
" clip-path="url(#p0aa8a1264b)" style="fill: #e74c3c; stroke: #ffffff; stroke-width: 0.6"/>
    <path d="M 194.940776 393.552974 
L 194.940776 392.869196 
L 194.940776 391.653589 
L 195.251136 390.589933 
L 195.716675 390.13408 
L 196.027035 389.830178 
L 196.027035 389.29835 
L 195.871855 388.234694 
L 196.027035 387.702866 
L 196.182215 387.322989 
L 196.492575 387.019087 
L 196.958114 386.715186 
L 197.889194 386.487259 
L 199.440993 386.411284 
L 200.216892 386.107382 
L 200.837612 386.715186 
L 200.992791 387.322989 
L 200.682432 388.082743 
L 200.527252 389.070424 
L 201.147971 392.413343 
L 201.458331 393.097122 
L 202.38941 393.401024 
L 203.47567 393.704925 
L 204.406749 394.084802 
L 205.803368 394.844557 
L 206.424088 395.300409 
L 207.355167 395.680286 
L 207.044807 396.212115 
L 205.493008 398.1115 
L 205.182648 400.086862 
L 204.872289 401.074542 
L 204.561929 401.530395 
L 203.63085 401.454419 
L 201.768691 400.922591 
L 201.147971 400.542714 
L 199.285813 398.491377 
L 198.975453 398.1115 
L 198.044374 398.1115 
L 197.734014 397.959549 
L 197.578834 397.655648 
L 197.423654 397.199795 
L 197.113294 396.819918 
L 196.802934 396.591992 
L 196.647755 396.440041 
L 196.647755 396.060164 
L 195.095956 394.008827 
z
" clip-path="url(#p0aa8a1264b)" style="fill: #e74c3c; stroke: #ffffff; stroke-width: 0.6"/>
    <path d="M 138.765656 247.452219 
L 139.386376 246.844416 
L 140.472635 246.312588 
L 141.714074 246.084661 
L 142.334793 245.628809 
L 142.800333 245.476858 
L 144.662492 245.476858 
L 145.593571 245.021005 
L 147.14537 243.349546 
L 147.76609 243.045644 
L 148.076449 242.741742 
L 148.697169 240.994307 
L 149.007529 240.842357 
L 149.938608 240.538455 
L 150.869687 241.526135 
L 151.490407 242.969669 
L 152.421486 245.78076 
L 152.576666 247.224293 
L 153.352566 248.060023 
L 156.456163 249.655507 
L 156.766523 250.035384 
L 156.766523 250.719163 
L 156.456163 251.250991 
L 155.059544 252.390622 
L 150.404148 252.618548 
L 149.938608 252.770499 
L 149.162709 253.074401 
L 148.697169 253.226352 
L 148.076449 252.998426 
L 147.61091 252.618548 
L 146.99019 252.238671 
L 146.369471 252.08672 
L 145.903931 252.238671 
L 144.817672 251.478917 
L 144.196952 251.326966 
L 143.576233 251.630868 
L 143.110693 251.09904 
L 141.714074 250.26331 
L 141.093354 249.655507 
L 140.472635 249.275629 
L 139.696735 248.971728 
L 139.231196 248.591851 
L 139.386376 247.984047 
z
" clip-path="url(#p0aa8a1264b)" style="fill: #e74c3c; stroke: #ffffff; stroke-width: 0.6"/>
    <path d="M 116.264572 138.123573 
L 116.264572 136.983941 
L 116.730112 135.996261 
L 117.195651 135.236506 
L 118.126731 134.704678 
L 119.988889 133.868949 
L 120.609609 133.868949 
L 121.230329 134.248826 
L 122.006228 135.084556 
L 123.247667 137.515769 
L 123.713207 137.895646 
L 123.247667 138.579425 
L 122.937307 138.807352 
L 123.092487 139.415155 
L 123.558027 139.643081 
L 123.868387 139.795032 
L 124.333926 140.022959 
L 124.489106 140.174909 
L 124.799466 140.098934 
L 124.799466 140.174909 
L 124.954646 140.478811 
L 124.799466 140.706737 
L 124.489106 140.706737 
L 124.178746 140.630762 
L 124.023567 140.630762 
L 123.247667 141.16259 
L 122.471768 141.618443 
L 121.540688 141.846369 
L 120.454429 141.922344 
L 120.609609 141.99832 
L 120.764789 142.074295 
L 120.764789 142.226246 
L 120.454429 142.530148 
L 120.919969 143.593804 
L 120.454429 144.353558 
L 119.52335 144.429534 
L 119.05781 143.289902 
L 119.05781 142.378197 
L 118.74745 141.770394 
L 118.437091 141.314541 
L 117.506011 140.630762 
L 116.574932 139.111253 
z
" clip-path="url(#p0aa8a1264b)" style="fill: #e74c3c; stroke: #ffffff; stroke-width: 0.6"/>
    <path d="M 146.52465 189.406989 
L 146.67983 188.875161 
L 146.99019 188.419309 
L 147.30055 188.191382 
L 147.921269 188.495284 
L 148.386809 189.255038 
L 148.697169 190.166744 
L 148.852349 190.774547 
L 148.852349 191.838203 
L 149.473068 194.345392 
L 149.473068 194.801245 
L 149.317888 195.71295 
L 149.473068 196.168803 
L 149.938608 197.612336 
L 149.938608 198.144164 
L 149.938608 199.739648 
L 150.093788 200.119525 
L 150.714507 200.879279 
L 150.869687 201.259157 
L 150.714507 204.298174 
L 151.024867 204.981953 
L 150.869687 205.817682 
L 150.559328 207.109265 
L 150.559328 208.400847 
L 150.248968 209.768405 
L 149.783428 209.540479 
L 149.317888 209.540479 
L 148.231629 209.768405 
L 148.541989 208.704749 
L 148.386809 207.565117 
L 147.921269 205.437805 
L 148.231629 203.842321 
L 148.231629 199.055869 
L 147.76609 197.992213 
L 146.67983 191.078449 
L 146.83501 190.698572 
L 146.99019 190.470645 
L 146.99019 190.242719 
L 146.67983 189.862842 
z
" clip-path="url(#p0aa8a1264b)" style="fill: #e74c3c; stroke: #ffffff; stroke-width: 0.6"/>
    <path d="M 147.76609 221.772523 
L 147.921269 219.949113 
L 149.007529 216.378268 
L 149.317888 212.807422 
L 150.248968 212.731447 
L 150.404148 214.782783 
L 150.559328 215.238636 
L 150.869687 215.694489 
L 151.180047 215.770464 
L 151.335227 215.99839 
L 151.490407 216.682169 
L 151.180047 219.417285 
L 151.180047 220.177039 
L 151.800767 221.620572 
L 151.800767 222.98813 
L 151.955947 223.595934 
L 152.887026 226.483 
L 153.197386 228.838238 
L 153.507745 229.522017 
L 153.973285 230.509698 
L 154.128465 231.345428 
L 154.283645 233.092862 
L 154.128465 234.688347 
L 153.662925 235.827978 
L 152.421486 236.511757 
L 151.335227 236.587732 
L 150.869687 236.283831 
L 150.714507 235.676027 
L 150.559328 233.852617 
L 149.783428 231.117501 
L 149.317888 227.698607 
L 148.231629 225.115442 
L 147.921269 223.519958 
z
" clip-path="url(#p0aa8a1264b)" style="fill: #e74c3c; stroke: #ffffff; stroke-width: 0.6"/>
    <path d="M 116.574932 160.46035 
L 116.730112 159.928522 
L 117.195651 159.016817 
L 116.885292 156.509627 
L 117.040472 155.749873 
L 117.350831 155.369996 
L 117.816371 155.066094 
L 118.74745 154.230364 
L 119.05781 154.154389 
L 119.52335 154.230364 
L 120.144069 154.230364 
L 120.609609 154.002438 
L 121.230329 153.394635 
L 121.695868 153.318659 
L 122.161408 153.394635 
L 124.799466 154.686217 
L 125.109826 155.066094 
L 125.420186 155.445971 
L 125.265006 157.877185 
L 125.109826 158.257062 
L 124.799466 158.484988 
L 123.713207 160.384374 
L 123.092487 161.068153 
L 122.626948 161.296079 
L 122.161408 161.372055 
L 119.21299 161.144129 
L 118.74745 161.372055 
L 118.126731 161.296079 
L 117.506011 161.068153 
L 117.040472 160.840227 
L 116.730112 160.688276 
z
" clip-path="url(#p0aa8a1264b)" style="fill: #e74c3c; stroke: #ffffff; stroke-width: 0.6"/>
    <path d="M 78.866219 105.454137 
L 78.866219 104.922309 
L 80.262838 105.302186 
L 80.573198 105.530113 
L 80.883557 105.985965 
L 81.038737 106.973646 
L 81.193917 107.353523 
L 81.193917 107.657425 
L 81.038737 107.885351 
L 80.883557 108.189253 
L 80.883557 108.493154 
L 81.193917 108.949007 
L 80.883557 109.024982 
L 80.883557 109.252909 
L 80.883557 109.480835 
L 80.883557 109.860712 
L 80.728378 110.012663 
L 80.728378 110.164614 
L 80.573198 110.316565 
L 80.262838 110.468516 
L 79.642118 110.088638 
L 79.176579 109.632786 
L 79.021399 108.949007 
L 79.176579 107.961326 
L 79.331759 106.745719 
L 79.486938 106.289867 
L 79.331759 105.90999 
L 79.021399 105.682063 
z
" clip-path="url(#p0aa8a1264b)" style="fill: #e74c3c; stroke: #ffffff; stroke-width: 0.6"/>
    <path d="M 217.44186 426.298385 
L 217.44186 425.310705 
L 217.752219 424.171073 
L 218.217759 423.411319 
L 218.838479 423.259368 
L 219.924738 423.031442 
L 221.166177 423.031442 
L 221.942076 423.259368 
L 222.873156 423.943147 
L 223.493875 424.323024 
L 223.959415 424.778877 
L 224.424955 425.614607 
L 223.959415 426.678263 
L 223.649055 427.286066 
L 223.338695 427.665943 
L 222.873156 427.89387 
L 221.786897 428.121796 
L 221.476537 428.349722 
L 221.010997 427.89387 
L 220.545457 427.665943 
L 219.459198 427.362042 
L 218.062579 426.754238 
z
" clip-path="url(#p0aa8a1264b)" style="fill: #e74c3c; stroke: #ffffff; stroke-width: 0.6"/>
    <path d="M 128.523783 212.199619 
L 128.834143 211.439864 
L 134.110259 206.349511 
L 135.041339 206.045609 
L 135.817238 205.893658 
L 137.989757 205.057928 
L 141.558894 204.450125 
L 142.645153 204.602076 
L 142.800333 205.057928 
L 141.714074 206.045609 
L 141.248534 206.729388 
L 140.627815 207.641093 
L 140.162275 208.628773 
L 140.007095 209.616454 
L 139.851915 210.452184 
L 139.541555 210.984012 
L 136.593138 213.415226 
L 135.662058 213.795103 
L 131.161841 213.719127 
L 130.230762 213.415226 
L 128.678963 212.731447 
z
" clip-path="url(#p0aa8a1264b)" style="fill: #e74c3c; stroke: #ffffff; stroke-width: 0.6"/>
    <path d="M 104.160541 218.353629 
L 106.333059 216.226317 
L 107.108959 215.846439 
L 107.729678 215.846439 
L 107.729678 216.074366 
L 107.264139 216.226317 
L 107.264139 216.530218 
L 107.574498 216.606194 
L 107.729678 216.910096 
L 107.729678 217.138022 
L 107.419318 217.441924 
L 108.505578 217.973752 
L 108.505578 218.809481 
L 107.884858 219.265334 
L 106.953779 218.961432 
L 106.798599 219.189358 
L 106.643419 219.265334 
L 106.333059 219.341309 
L 105.71234 219.189358 
L 105.2468 219.037408 
z
" clip-path="url(#p0aa8a1264b)" style="fill: #e74c3c; stroke: #ffffff; stroke-width: 0.6"/>
    <path d="M 102.608742 222.380327 
L 102.763922 221.16472 
L 103.539821 220.253015 
L 104.93644 219.949113 
L 108.040038 220.32899 
L 109.591837 220.784843 
L 109.747017 221.620572 
L 109.126297 222.98813 
L 109.436657 224.279712 
L 109.591837 225.343368 
L 108.350398 225.723246 
L 107.574498 225.723246 
L 106.953779 225.419344 
L 105.71234 224.507639 
L 105.09162 224.279712 
L 103.850181 223.975811 
L 103.384641 223.595934 
z
" clip-path="url(#p0aa8a1264b)" style="fill: #e74c3c; stroke: #ffffff; stroke-width: 0.6"/>
    <path d="M 112.229895 125.3597 
L 112.229895 124.675921 
L 112.850615 123.992142 
L 113.936874 123.688241 
L 114.712773 124.144093 
L 114.712773 124.751897 
L 113.626514 124.903848 
L 113.936874 125.511651 
L 114.402413 125.739577 
L 115.023133 125.587627 
L 115.488673 125.207749 
L 115.333493 126.423356 
L 114.867953 126.879209 
L 114.092054 126.879209 
L 113.160974 126.803233 
L 112.695435 126.119455 
z
" clip-path="url(#p0aa8a1264b)" style="fill: #e74c3c; stroke: #ffffff; stroke-width: 0.6"/>
    <path d="M 156.456163 285.971763 
L 156.766523 285.439935 
L 157.232063 284.908107 
L 157.697602 284.604205 
L 159.404581 283.768475 
L 159.870121 283.768475 
L 160.95638 284.072377 
L 160.49084 284.300304 
L 159.404581 284.984082 
L 159.249401 285.212009 
L 159.094221 285.51591 
L 158.783862 285.819812 
L 157.387243 286.123714 
L 156.921703 286.199689 
z
" clip-path="url(#p0aa8a1264b)" style="fill: #e74c3c; stroke: #ffffff; stroke-width: 0.6"/>
    <path d="M 126.816805 133.18517 
L 126.816805 132.729317 
L 128.368603 130.602005 
L 128.989323 130.070177 
L 129.765222 129.842251 
L 130.230762 130.146152 
L 130.385942 130.753956 
L 130.385942 131.51371 
L 130.230762 132.045538 
L 129.920402 132.197489 
L 129.144503 132.501391 
L 128.213424 132.653342 
L 127.592704 132.653342 
L 127.282344 133.109194 
z
" clip-path="url(#p0aa8a1264b)" style="fill: #e74c3c; stroke: #ffffff; stroke-width: 0.6"/>
    <path d="M 81.193917 112.595828 
L 81.814637 111.988024 
L 82.745716 111.684123 
L 83.676795 111.684123 
L 84.142335 112.291926 
L 84.142335 113.127656 
L 83.521616 113.735459 
L 82.745716 114.039361 
L 82.124997 113.88741 
L 81.814637 113.583508 
L 81.504277 113.355582 
L 81.349097 112.975705 
z
" clip-path="url(#p0aa8a1264b)" style="fill: #e74c3c; stroke: #ffffff; stroke-width: 0.6"/>
    <path d="M 165.456597 278.754097 
L 165.611777 278.146294 
L 165.611777 277.158613 
L 166.387676 276.474834 
L 167.473935 276.398859 
L 168.405015 277.234588 
L 167.163576 279.133974 
L 166.698036 279.437876 
L 166.077316 279.3619 
L 165.611777 279.133974 
z
" clip-path="url(#p0aa8a1264b)" style="fill: #e74c3c; stroke: #ffffff; stroke-width: 0.6"/>
    <path d="M 155.369904 259.380362 
L 156.611343 259.07646 
L 157.076883 259.07646 
L 157.697602 259.380362 
L 158.163142 260.064141 
L 158.163142 260.74792 
L 157.697602 261.203772 
L 156.766523 261.203772 
L 156.145804 261.051821 
L 155.835444 260.519993 
z
" clip-path="url(#p0aa8a1264b)" style="fill: #e74c3c; stroke: #ffffff; stroke-width: 0.6"/>
    <path d="M 151.490407 308.080614 
L 151.490407 306.713056 
L 152.887026 305.421474 
L 154.438825 304.889646 
L 155.369904 305.6494 
L 154.749185 305.801351 
L 153.818105 306.333179 
L 153.197386 306.561105 
L 152.266306 307.168908 
L 151.800767 307.624761 
z
" clip-path="url(#p0aa8a1264b)" style="fill: #e74c3c; stroke: #ffffff; stroke-width: 0.6"/>
    <path d="M 151.335227 259.228411 
L 151.800767 258.468657 
L 152.266306 256.797197 
L 152.731846 256.41732 
L 153.818105 256.265369 
L 153.507745 256.949148 
L 153.352566 258.544632 
L 153.042206 259.228411 
L 152.421486 259.684264 
L 151.645587 259.684264 
z
" clip-path="url(#p0aa8a1264b)" style="fill: #e74c3c; stroke: #ffffff; stroke-width: 0.6"/>
    <path d="M 103.695001 188.72321 
L 104.470901 188.951137 
L 105.55716 189.862842 
L 106.333059 190.014793 
L 105.86752 190.39467 
L 105.55716 190.622596 
L 105.09162 190.546621 
L 104.78126 190.318694 
L 103.850181 189.255038 
z
" clip-path="url(#p0aa8a1264b)" style="fill: #e74c3c; stroke: #ffffff; stroke-width: 0.6"/>
    <path d="M 156.456163 302.078555 
L 156.766523 300.786972 
L 157.232063 300.559046 
L 157.697602 301.090874 
L 158.318322 301.926604 
L 158.628682 303.522088 
L 158.007962 303.750014 
L 157.076883 303.066235 
z
" clip-path="url(#p0aa8a1264b)" style="fill: #e74c3c; stroke: #ffffff; stroke-width: 0.6"/>
    <path d="M 84.763055 120.649223 
L 85.383774 120.345322 
L 86.004494 121.029101 
L 85.383774 122.472634 
z
" clip-path="url(#p0aa8a1264b)" style="fill: #e74c3c; stroke: #ffffff; stroke-width: 0.6"/>
   </g>
   <g id="text_1">
    <!-- Vanuatu -->
    <g style="fill: #1a252f" transform="translate(111.844337 20.116016) scale(0.17 -0.17)">
     <defs>
      <path id="DejaVuSans-Bold-39" d="M 31 4666 
L 1241 4666 
L 2478 1222 
L 3713 4666 
L 4922 4666 
L 3194 0 
L 1759 0 
L 31 4666 
z
" transform="scale(0.015625)"/>
      <path id="DejaVuSans-Bold-44" d="M 2106 1575 
Q 1756 1575 1579 1456 
Q 1403 1338 1403 1106 
Q 1403 894 1545 773 
Q 1688 653 1941 653 
Q 2256 653 2472 879 
Q 2688 1106 2688 1447 
L 2688 1575 
L 2106 1575 
z
M 3816 1997 
L 3816 0 
L 2688 0 
L 2688 519 
Q 2463 200 2181 54 
Q 1900 -91 1497 -91 
Q 953 -91 614 226 
Q 275 544 275 1050 
Q 275 1666 698 1953 
Q 1122 2241 2028 2241 
L 2688 2241 
L 2688 2328 
Q 2688 2594 2478 2717 
Q 2269 2841 1825 2841 
Q 1466 2841 1156 2769 
Q 847 2697 581 2553 
L 581 3406 
Q 941 3494 1303 3539 
Q 1666 3584 2028 3584 
Q 2975 3584 3395 3211 
Q 3816 2838 3816 1997 
z
" transform="scale(0.015625)"/>
      <path id="DejaVuSans-Bold-51" d="M 4056 2131 
L 4056 0 
L 2931 0 
L 2931 347 
L 2931 1631 
Q 2931 2084 2911 2256 
Q 2891 2428 2841 2509 
Q 2775 2619 2662 2680 
Q 2550 2741 2406 2741 
Q 2056 2741 1856 2470 
Q 1656 2200 1656 1722 
L 1656 0 
L 538 0 
L 538 3500 
L 1656 3500 
L 1656 2988 
Q 1909 3294 2193 3439 
Q 2478 3584 2822 3584 
Q 3428 3584 3742 3212 
Q 4056 2841 4056 2131 
z
" transform="scale(0.015625)"/>
      <path id="DejaVuSans-Bold-58" d="M 500 1363 
L 500 3500 
L 1625 3500 
L 1625 3150 
Q 1625 2866 1622 2436 
Q 1619 2006 1619 1863 
Q 1619 1441 1641 1255 
Q 1663 1069 1716 984 
Q 1784 875 1895 815 
Q 2006 756 2150 756 
Q 2500 756 2700 1025 
Q 2900 1294 2900 1772 
L 2900 3500 
L 4019 3500 
L 4019 0 
L 2900 0 
L 2900 506 
Q 2647 200 2364 54 
Q 2081 -91 1741 -91 
Q 1134 -91 817 281 
Q 500 653 500 1363 
z
" transform="scale(0.015625)"/>
      <path id="DejaVuSans-Bold-57" d="M 1759 4494 
L 1759 3500 
L 2913 3500 
L 2913 2700 
L 1759 2700 
L 1759 1216 
Q 1759 972 1856 886 
Q 1953 800 2241 800 
L 2816 800 
L 2816 0 
L 1856 0 
Q 1194 0 917 276 
Q 641 553 641 1216 
L 641 2700 
L 84 2700 
L 84 3500 
L 641 3500 
L 641 4494 
L 1759 4494 
z
" transform="scale(0.015625)"/>
     </defs>
     <use xlink:href="#DejaVuSans-Bold-39"/>
     <use xlink:href="#DejaVuSans-Bold-44" transform="translate(71.921875 0)"/>
     <use xlink:href="#DejaVuSans-Bold-51" transform="translate(139.40625 0)"/>
     <use xlink:href="#DejaVuSans-Bold-58" transform="translate(210.59375 0)"/>
     <use xlink:href="#DejaVuSans-Bold-44" transform="translate(281.78125 0)"/>
     <use xlink:href="#DejaVuSans-Bold-57" transform="translate(349.265625 0)"/>
     <use xlink:href="#DejaVuSans-Bold-58" transform="translate(397.0625 0)"/>
    </g>
   </g>
   <g id="line2d_1">
    <path d="M 150.788567 301.740567 
" clip-path="url(#p0aa8a1264b)" style="fill: none; stroke: #ffffff; stroke-width: 1.5; stroke-linecap: square"/>
    <defs>
     <path id="m07c3d0411e" d="M 0 2.5 
C 0.663008 2.5 1.29895 2.236584 1.767767 1.767767 
C 2.236584 1.29895 2.5 0.663008 2.5 0 
C 2.5 -0.663008 2.236584 -1.29895 1.767767 -1.767767 
C 1.29895 -2.236584 0.663008 -2.5 0 -2.5 
C -0.663008 -2.5 -1.29895 -2.236584 -1.767767 -1.767767 
C -2.236584 -1.29895 -2.5 -0.663008 -2.5 0 
C -2.5 0.663008 -2.236584 1.29895 -1.767767 1.767767 
C -1.29895 2.236584 -0.663008 2.5 0 2.5 
z
" style="stroke: #1a252f; stroke-width: 0.8"/>
    </defs>
    <g clip-path="url(#p0aa8a1264b)">
     <use xlink:href="#m07c3d0411e" x="150.788567" y="301.740567" style="fill: #ffffff; stroke: #1a252f; stroke-width: 0.8"/>
    </g>
   </g>
   <g id="text_2">
    <g clip-path="url(#p0aa8a1264b)">
     <!-- Port-Vila -->
     <g style="fill: #ffffff" transform="translate(157.282457 303.689102) scale(0.075 -0.075)">
      <defs>
       <path id="DejaVuSans-Bold-33" d="M 588 4666 
L 2584 4666 
Q 3475 4666 3951 4270 
Q 4428 3875 4428 3144 
Q 4428 2409 3951 2014 
Q 3475 1619 2584 1619 
L 1791 1619 
L 1791 0 
L 588 0 
L 588 4666 
z
M 1791 3794 
L 1791 2491 
L 2456 2491 
Q 2806 2491 2997 2661 
Q 3188 2831 3188 3144 
Q 3188 3456 2997 3625 
Q 2806 3794 2456 3794 
L 1791 3794 
z
" transform="scale(0.015625)"/>
       <path id="DejaVuSans-Bold-52" d="M 2203 2784 
Q 1831 2784 1636 2517 
Q 1441 2250 1441 1747 
Q 1441 1244 1636 976 
Q 1831 709 2203 709 
Q 2569 709 2762 976 
Q 2956 1244 2956 1747 
Q 2956 2250 2762 2517 
Q 2569 2784 2203 2784 
z
M 2203 3584 
Q 3106 3584 3614 3096 
Q 4122 2609 4122 1747 
Q 4122 884 3614 396 
Q 3106 -91 2203 -91 
Q 1297 -91 786 396 
Q 275 884 275 1747 
Q 275 2609 786 3096 
Q 1297 3584 2203 3584 
z
" transform="scale(0.015625)"/>
       <path id="DejaVuSans-Bold-55" d="M 3138 2547 
Q 2991 2616 2845 2648 
Q 2700 2681 2553 2681 
Q 2122 2681 1889 2404 
Q 1656 2128 1656 1613 
L 1656 0 
L 538 0 
L 538 3500 
L 1656 3500 
L 1656 2925 
Q 1872 3269 2151 3426 
Q 2431 3584 2822 3584 
Q 2878 3584 2943 3579 
Q 3009 3575 3134 3559 
L 3138 2547 
z
" transform="scale(0.015625)"/>
       <path id="DejaVuSans-Bold-10" d="M 347 2297 
L 2309 2297 
L 2309 1388 
L 347 1388 
L 347 2297 
z
" transform="scale(0.015625)"/>
       <path id="DejaVuSans-Bold-4c" d="M 538 3500 
L 1656 3500 
L 1656 0 
L 538 0 
L 538 3500 
z
M 538 4863 
L 1656 4863 
L 1656 3950 
L 538 3950 
L 538 4863 
z
" transform="scale(0.015625)"/>
       <path id="DejaVuSans-Bold-4f" d="M 538 4863 
L 1656 4863 
L 1656 0 
L 538 0 
L 538 4863 
z
" transform="scale(0.015625)"/>
      </defs>
      <use xlink:href="#DejaVuSans-Bold-33"/>
      <use xlink:href="#DejaVuSans-Bold-52" transform="translate(73.296875 0)"/>
      <use xlink:href="#DejaVuSans-Bold-55" transform="translate(142 0)"/>
      <use xlink:href="#DejaVuSans-Bold-57" transform="translate(191.3125 0)"/>
      <use xlink:href="#DejaVuSans-Bold-10" transform="translate(239.109375 0)"/>
      <use xlink:href="#DejaVuSans-Bold-39" transform="translate(273.328125 0)"/>
      <use xlink:href="#DejaVuSans-Bold-4c" transform="translate(348.96875 0)"/>
      <use xlink:href="#DejaVuSans-Bold-4f" transform="translate(383.25 0)"/>
      <use xlink:href="#DejaVuSans-Bold-44" transform="translate(417.53125 0)"/>
     </g>
    </g>
   </g>
   <g id="legend_1">
    <g id="patch_2">
     <path d="M 13.5 498.656016 
L 88.097344 498.656016 
Q 89.897344 498.656016 89.897344 496.856016 
L 89.897344 470.754609 
Q 89.897344 468.954609 88.097344 468.954609 
L 13.5 468.954609 
Q 11.7 468.954609 11.7 470.754609 
L 11.7 496.856016 
Q 11.7 498.656016 13.5 498.656016 
z
" style="fill: #ffffff; opacity: 0.85; stroke: #cccccc; stroke-linejoin: miter"/>
    </g>
    <g id="patch_3">
     <path d="M 15.3 479.393203 
L 33.3 479.393203 
L 33.3 473.093203 
L 15.3 473.093203 
z
" style="fill: #e74c3c; stroke: #888888; stroke-linejoin: miter"/>
    </g>
    <g id="text_3">
     <!-- Vanuatu -->
     <g transform="translate(40.5 479.393203) scale(0.09 -0.09)">
      <defs>
       <path id="DejaVuSans-39" d="M 1831 0 
L 50 4666 
L 709 4666 
L 2188 738 
L 3669 4666 
L 4325 4666 
L 2547 0 
L 1831 0 
z
" transform="scale(0.015625)"/>
       <path id="DejaVuSans-44" d="M 2194 1759 
Q 1497 1759 1228 1600 
Q 959 1441 959 1056 
Q 959 750 1161 570 
Q 1363 391 1709 391 
Q 2188 391 2477 730 
Q 2766 1069 2766 1631 
L 2766 1759 
L 2194 1759 
z
M 3341 1997 
L 3341 0 
L 2766 0 
L 2766 531 
Q 2569 213 2275 61 
Q 1981 -91 1556 -91 
Q 1019 -91 701 211 
Q 384 513 384 1019 
Q 384 1609 779 1909 
Q 1175 2209 1959 2209 
L 2766 2209 
L 2766 2266 
Q 2766 2663 2505 2880 
Q 2244 3097 1772 3097 
Q 1472 3097 1187 3025 
Q 903 2953 641 2809 
L 641 3341 
Q 956 3463 1253 3523 
Q 1550 3584 1831 3584 
Q 2591 3584 2966 3190 
Q 3341 2797 3341 1997 
z
" transform="scale(0.015625)"/>
       <path id="DejaVuSans-51" d="M 3513 2113 
L 3513 0 
L 2938 0 
L 2938 2094 
Q 2938 2591 2744 2837 
Q 2550 3084 2163 3084 
Q 1697 3084 1428 2787 
Q 1159 2491 1159 1978 
L 1159 0 
L 581 0 
L 581 3500 
L 1159 3500 
L 1159 2956 
Q 1366 3272 1645 3428 
Q 1925 3584 2291 3584 
Q 2894 3584 3203 3211 
Q 3513 2838 3513 2113 
z
" transform="scale(0.015625)"/>
       <path id="DejaVuSans-58" d="M 544 1381 
L 544 3500 
L 1119 3500 
L 1119 1403 
Q 1119 906 1312 657 
Q 1506 409 1894 409 
Q 2359 409 2629 706 
Q 2900 1003 2900 1516 
L 2900 3500 
L 3475 3500 
L 3475 0 
L 2900 0 
L 2900 538 
Q 2691 219 2414 64 
Q 2138 -91 1772 -91 
Q 1169 -91 856 284 
Q 544 659 544 1381 
z
M 1991 3584 
L 1991 3584 
z
" transform="scale(0.015625)"/>
       <path id="DejaVuSans-57" d="M 1172 4494 
L 1172 3500 
L 2356 3500 
L 2356 3053 
L 1172 3053 
L 1172 1153 
Q 1172 725 1289 603 
Q 1406 481 1766 481 
L 2356 481 
L 2356 0 
L 1766 0 
Q 1100 0 847 248 
Q 594 497 594 1153 
L 594 3053 
L 172 3053 
L 172 3500 
L 594 3500 
L 594 4494 
L 1172 4494 
z
" transform="scale(0.015625)"/>
      </defs>
      <use xlink:href="#DejaVuSans-39"/>
      <use xlink:href="#DejaVuSans-44" transform="translate(60.640625 0)"/>
      <use xlink:href="#DejaVuSans-51" transform="translate(121.921875 0)"/>
      <use xlink:href="#DejaVuSans-58" transform="translate(185.296875 0)"/>
      <use xlink:href="#DejaVuSans-44" transform="translate(248.671875 0)"/>
      <use xlink:href="#DejaVuSans-57" transform="translate(309.953125 0)"/>
      <use xlink:href="#DejaVuSans-58" transform="translate(349.15625 0)"/>
     </g>
    </g>
    <g id="patch_4">
     <path d="M 15.3 492.893906 
L 33.3 492.893906 
L 33.3 486.593906 
L 15.3 486.593906 
z
" style="fill: #bdc3c7; stroke: #888888; stroke-linejoin: miter"/>
    </g>
    <g id="text_4">
     <!-- Neighbors -->
     <g transform="translate(40.5 492.893906) scale(0.09 -0.09)">
      <defs>
       <path id="DejaVuSans-31" d="M 628 4666 
L 1478 4666 
L 3547 763 
L 3547 4666 
L 4159 4666 
L 4159 0 
L 3309 0 
L 1241 3903 
L 1241 0 
L 628 0 
L 628 4666 
z
" transform="scale(0.015625)"/>
       <path id="DejaVuSans-48" d="M 3597 1894 
L 3597 1613 
L 953 1613 
Q 991 1019 1311 708 
Q 1631 397 2203 397 
Q 2534 397 2845 478 
Q 3156 559 3463 722 
L 3463 178 
Q 3153 47 2828 -22 
Q 2503 -91 2169 -91 
Q 1331 -91 842 396 
Q 353 884 353 1716 
Q 353 2575 817 3079 
Q 1281 3584 2069 3584 
Q 2775 3584 3186 3129 
Q 3597 2675 3597 1894 
z
M 3022 2063 
Q 3016 2534 2758 2815 
Q 2500 3097 2075 3097 
Q 1594 3097 1305 2825 
Q 1016 2553 972 2059 
L 3022 2063 
z
" transform="scale(0.015625)"/>
       <path id="DejaVuSans-4c" d="M 603 3500 
L 1178 3500 
L 1178 0 
L 603 0 
L 603 3500 
z
M 603 4863 
L 1178 4863 
L 1178 4134 
L 603 4134 
L 603 4863 
z
" transform="scale(0.015625)"/>
       <path id="DejaVuSans-4a" d="M 2906 1791 
Q 2906 2416 2648 2759 
Q 2391 3103 1925 3103 
Q 1463 3103 1205 2759 
Q 947 2416 947 1791 
Q 947 1169 1205 825 
Q 1463 481 1925 481 
Q 2391 481 2648 825 
Q 2906 1169 2906 1791 
z
M 3481 434 
Q 3481 -459 3084 -895 
Q 2688 -1331 1869 -1331 
Q 1566 -1331 1297 -1286 
Q 1028 -1241 775 -1147 
L 775 -588 
Q 1028 -725 1275 -790 
Q 1522 -856 1778 -856 
Q 2344 -856 2625 -561 
Q 2906 -266 2906 331 
L 2906 616 
Q 2728 306 2450 153 
Q 2172 0 1784 0 
Q 1141 0 747 490 
Q 353 981 353 1791 
Q 353 2603 747 3093 
Q 1141 3584 1784 3584 
Q 2172 3584 2450 3431 
Q 2728 3278 2906 2969 
L 2906 3500 
L 3481 3500 
L 3481 434 
z
" transform="scale(0.015625)"/>
       <path id="DejaVuSans-4b" d="M 3513 2113 
L 3513 0 
L 2938 0 
L 2938 2094 
Q 2938 2591 2744 2837 
Q 2550 3084 2163 3084 
Q 1697 3084 1428 2787 
Q 1159 2491 1159 1978 
L 1159 0 
L 581 0 
L 581 4863 
L 1159 4863 
L 1159 2956 
Q 1366 3272 1645 3428 
Q 1925 3584 2291 3584 
Q 2894 3584 3203 3211 
Q 3513 2838 3513 2113 
z
" transform="scale(0.015625)"/>
       <path id="DejaVuSans-45" d="M 3116 1747 
Q 3116 2381 2855 2742 
Q 2594 3103 2138 3103 
Q 1681 3103 1420 2742 
Q 1159 2381 1159 1747 
Q 1159 1113 1420 752 
Q 1681 391 2138 391 
Q 2594 391 2855 752 
Q 3116 1113 3116 1747 
z
M 1159 2969 
Q 1341 3281 1617 3432 
Q 1894 3584 2278 3584 
Q 2916 3584 3314 3078 
Q 3713 2572 3713 1747 
Q 3713 922 3314 415 
Q 2916 -91 2278 -91 
Q 1894 -91 1617 61 
Q 1341 213 1159 525 
L 1159 0 
L 581 0 
L 581 4863 
L 1159 4863 
L 1159 2969 
z
" transform="scale(0.015625)"/>
       <path id="DejaVuSans-52" d="M 1959 3097 
Q 1497 3097 1228 2736 
Q 959 2375 959 1747 
Q 959 1119 1226 758 
Q 1494 397 1959 397 
Q 2419 397 2687 759 
Q 2956 1122 2956 1747 
Q 2956 2369 2687 2733 
Q 2419 3097 1959 3097 
z
M 1959 3584 
Q 2709 3584 3137 3096 
Q 3566 2609 3566 1747 
Q 3566 888 3137 398 
Q 2709 -91 1959 -91 
Q 1206 -91 779 398 
Q 353 888 353 1747 
Q 353 2609 779 3096 
Q 1206 3584 1959 3584 
z
" transform="scale(0.015625)"/>
       <path id="DejaVuSans-55" d="M 2631 2963 
Q 2534 3019 2420 3045 
Q 2306 3072 2169 3072 
Q 1681 3072 1420 2755 
Q 1159 2438 1159 1844 
L 1159 0 
L 581 0 
L 581 3500 
L 1159 3500 
L 1159 2956 
Q 1341 3275 1631 3429 
Q 1922 3584 2338 3584 
Q 2397 3584 2469 3576 
Q 2541 3569 2628 3553 
L 2631 2963 
z
" transform="scale(0.015625)"/>
       <path id="DejaVuSans-56" d="M 2834 3397 
L 2834 2853 
Q 2591 2978 2328 3040 
Q 2066 3103 1784 3103 
Q 1356 3103 1142 2972 
Q 928 2841 928 2578 
Q 928 2378 1081 2264 
Q 1234 2150 1697 2047 
L 1894 2003 
Q 2506 1872 2764 1633 
Q 3022 1394 3022 966 
Q 3022 478 2636 193 
Q 2250 -91 1575 -91 
Q 1294 -91 989 -36 
Q 684 19 347 128 
L 347 722 
Q 666 556 975 473 
Q 1284 391 1588 391 
Q 1994 391 2212 530 
Q 2431 669 2431 922 
Q 2431 1156 2273 1281 
Q 2116 1406 1581 1522 
L 1381 1569 
Q 847 1681 609 1914 
Q 372 2147 372 2553 
Q 372 3047 722 3315 
Q 1072 3584 1716 3584 
Q 2034 3584 2315 3537 
Q 2597 3491 2834 3397 
z
" transform="scale(0.015625)"/>
      </defs>
      <use xlink:href="#DejaVuSans-31"/>
      <use xlink:href="#DejaVuSans-48" transform="translate(74.8125 0)"/>
      <use xlink:href="#DejaVuSans-4c" transform="translate(136.34375 0)"/>
      <use xlink:href="#DejaVuSans-4a" transform="translate(164.125 0)"/>
      <use xlink:href="#DejaVuSans-4b" transform="translate(227.609375 0)"/>
      <use xlink:href="#DejaVuSans-45" transform="translate(290.984375 0)"/>
      <use xlink:href="#DejaVuSans-52" transform="translate(354.46875 0)"/>
      <use xlink:href="#DejaVuSans-55" transform="translate(415.65625 0)"/>
      <use xlink:href="#DejaVuSans-56" transform="translate(456.765625 0)"/>
     </g>
    </g>
   </g>
  </g>
 </g>
 <defs>
  <clipPath id="p0aa8a1264b">
   <rect x="7.2" y="30.116016" width="288.891174" height="473.04"/>
  </clipPath>
 </defs>
</svg>
