<?xml version="1.0" encoding="utf-8" standalone="no"?>
<!DOCTYPE svg PUBLIC "-//W3C//DTD SVG 1.1//EN"
  "http://www.w3.org/Graphics/SVG/1.1/DTD/svg11.dtd">
<svg xmlns:xlink="http://www.w3.org/1999/xlink" width="340.299424pt" height="510.340781pt" viewBox="0 0 340.299424 510.340781" xmlns="http://www.w3.org/2000/svg" version="1.1">
 <metadata>
  <rdf:RDF xmlns:dc="http://purl.org/dc/elements/1.1/" xmlns:cc="http://creativecommons.org/ns#" xmlns:rdf="http://www.w3.org/1999/02/22-rdf-syntax-ns#">
   <cc:Work>
    <dc:type rdf:resource="http://purl.org/dc/dcmitype/StillImage"/>
    <dc:date>2026-06-19T08:14:17.434417</dc:date>
    <dc:format>image/svg+xml</dc:format>
    <dc:creator>
     <cc:Agent>
      <dc:title>Matplotlib v3.11.0, https://matplotlib.org/</dc:title>
     </cc:Agent>
    </dc:creator>
   </cc:Work>
  </rdf:RDF>
 </metadata>
 <defs>
  <style type="text/css">*{stroke-linejoin: round; stroke-linecap: butt}</style>
 </defs>
 <g id="figure_1">
  <g id="patch_1">
   <path d="M 0 510.340781 
L 340.299424 510.340781 
L 340.299424 0 
L 0 0 
z
" style="fill: #d6eaf8"/>
  </g>
  <g id="axes_1">
   <g id="PatchCollection_1">
    <path d="M 109.910131 254.549381 
L 111.556021 254.549381 
L 113.201912 254.859988 
L 113.860268 256.413023 
L 113.53109 259.519092 
L 114.518624 257.65545 
L 114.847802 255.481202 
L 115.506158 253.928167 
L 116.493692 253.306954 
L 117.810404 252.996347 
L 121.102185 250.822099 
L 120.443828 249.890278 
L 120.11465 248.958457 
L 119.127116 247.094816 
L 121.102185 247.71603 
L 121.760541 248.337243 
L 122.418897 247.71603 
L 122.748075 247.71603 
L 123.406431 248.337243 
L 122.089719 253.617561 
L 120.773007 257.65545 
L 121.102185 259.208485 
L 121.760541 260.450912 
L 122.418897 262.003947 
L 123.077253 266.66305 
L 123.735609 267.905478 
L 125.052321 268.526692 
L 125.710677 267.284264 
L 126.039855 265.110016 
L 125.710677 262.625161 
L 125.381499 260.761519 
L 127.027389 261.69334 
L 128.673279 263.556981 
L 129.331635 258.276664 
L 131.306704 255.791809 
L 131.635882 253.306954 
L 131.635882 249.579671 
L 132.294238 247.094816 
L 132.952594 249.890278 
L 132.952594 251.132705 
L 132.952594 252.68574 
L 133.61095 253.306954 
L 134.598484 253.306954 
L 135.586018 252.375133 
L 136.244374 251.443312 
L 135.915196 248.337243 
L 135.25684 245.541781 
L 134.269306 243.67814 
L 132.952594 242.125105 
L 132.294238 240.882678 
L 131.96506 239.950857 
L 131.635882 239.950857 
L 130.977526 241.503892 
L 129.989992 244.609961 
L 129.002457 245.852388 
L 128.344101 245.231174 
L 127.027389 242.125105 
L 125.710677 239.64025 
L 124.064787 238.397823 
L 121.760541 238.087216 
L 123.077253 237.155395 
L 124.064787 235.602361 
L 124.723143 233.738719 
L 125.381499 231.875078 
L 127.356567 229.70083 
L 129.331635 228.769009 
L 131.306704 228.769009 
L 133.61095 229.390223 
L 134.269306 231.875078 
L 134.598484 235.291754 
L 135.586018 237.776609 
L 139.536155 236.844788 
L 141.840401 237.776609 
L 143.815469 239.64025 
L 145.461359 242.125105 
L 144.803003 238.397823 
L 144.473825 237.155395 
L 145.790537 237.466002 
L 148.75314 239.019036 
L 149.740674 238.70843 
L 150.728208 238.087216 
L 151.715742 239.019036 
L 153.69081 242.125105 
L 158.299303 243.988747 
L 159.616015 245.852388 
L 158.628481 250.822099 
L 160.274371 250.200885 
L 160.603549 249.579671 
L 161.920261 250.822099 
L 163.895329 251.753919 
L 167.516288 252.064526 
L 164.224507 258.276664 
L 163.895329 260.761519 
L 161.261905 262.003947 
L 162.578617 264.799409 
L 163.236973 265.73123 
L 162.249439 266.352443 
L 161.261905 266.352443 
L 160.603549 266.66305 
L 159.616015 267.905478 
L 159.286837 269.147905 
L 158.299303 271.632761 
L 157.970125 272.253974 
L 156.982591 272.564581 
L 156.324235 272.253974 
L 155.665878 271.322154 
L 154.678344 271.011547 
L 151.057386 271.011547 
L 150.069852 270.079726 
L 150.39903 267.284264 
L 151.057386 264.799409 
L 151.386564 262.935767 
L 153.361632 261.072126 
L 157.970125 260.761519 
L 159.286837 258.276664 
L 155.665878 258.276664 
L 152.374098 259.519092 
L 149.740674 262.314554 
L 148.094784 268.526692 
L 147.436428 268.526692 
L 147.765606 263.867588 
L 146.448893 261.69334 
L 145.132181 259.829699 
L 144.473825 256.413023 
L 145.461359 253.306954 
L 147.436428 249.579671 
L 147.765606 246.473602 
L 144.473825 245.852388 
L 144.473825 247.094816 
L 145.132181 249.269064 
L 144.473825 252.68574 
L 142.498757 254.238774 
L 139.865333 252.064526 
L 140.194511 255.481202 
L 141.511223 258.897878 
L 143.486291 262.003947 
L 144.803003 263.556981 
L 144.144647 264.799409 
L 143.486291 266.352443 
L 143.486291 267.905478 
L 143.815469 269.769119 
L 138.877799 267.594871 
L 137.561086 265.73123 
L 137.890264 264.799409 
L 138.219442 264.178195 
L 137.890264 262.003947 
L 135.586018 262.625161 
L 134.269306 263.246374 
L 134.598484 265.110016 
L 135.586018 267.284264 
L 136.90273 269.147905 
L 138.548621 270.390333 
L 140.852867 271.632761 
L 141.840401 272.875188 
L 142.498757 274.117616 
L 143.157113 274.73883 
L 144.144647 274.428223 
L 144.803003 273.496402 
L 145.461359 272.253974 
L 146.119715 271.011547 
L 145.132181 276.913078 
L 144.803003 279.70854 
L 144.803003 282.193395 
L 145.132181 282.814609 
L 145.790537 283.435823 
L 146.448893 284.057036 
L 146.778071 285.610071 
L 146.119715 287.473712 
L 145.132181 287.473712 
L 142.827935 286.231285 
L 139.206977 286.541892 
L 137.561086 288.094926 
L 137.890264 290.579781 
L 138.219442 293.68585 
L 137.561086 294.617671 
L 136.573552 294.307064 
L 136.90273 292.443423 
L 135.25684 286.541892 
L 133.940128 284.988857 
L 131.635882 284.988857 
L 130.648348 285.610071 
L 130.31917 286.852498 
L 129.989992 287.784319 
L 129.331635 288.71614 
L 128.014923 289.026747 
L 126.698211 288.71614 
L 126.039855 288.094926 
L 126.039855 286.231285 
L 124.393965 284.988857 
L 122.748075 285.610071 
L 121.431363 287.473712 
L 120.443828 289.958567 
L 119.127116 284.67825 
L 115.835336 276.602471 
L 114.189446 272.253974 
L 113.53109 266.66305 
L 113.201912 264.488802 
L 112.214378 263.556981 
L 111.885199 262.003947 
z
" clip-path="url(#p168450e132)" style="fill: #e74c3c; stroke: #ffffff; stroke-width: 0.6"/>
    <path d="M 97.730544 270.390333 
L 97.730544 269.769119 
L 98.059722 268.837298 
L 99.376434 267.905478 
L 99.705612 266.352443 
L 99.705612 264.488802 
L 99.705612 262.625161 
L 99.705612 260.761519 
L 100.363968 259.829699 
L 102.009858 257.65545 
L 102.668214 256.413023 
L 103.655749 255.481202 
L 104.972461 255.481202 
L 106.289173 256.102416 
L 108.264241 257.966057 
L 108.593419 259.208485 
L 109.251775 260.761519 
L 109.251775 262.935767 
L 109.580953 264.178195 
L 111.226843 266.041836 
L 111.885199 267.284264 
L 112.214378 268.526692 
L 112.214378 269.458512 
L 112.543556 272.875188 
L 112.214378 274.428223 
L 111.226843 274.73883 
L 110.568487 274.428223 
L 109.910131 274.73883 
L 108.593419 272.875188 
L 106.618351 268.837298 
L 104.972461 267.284264 
L 105.630817 270.390333 
L 105.959995 273.185795 
L 105.630817 275.981257 
L 104.314105 278.466112 
L 102.339036 279.397933 
L 100.693146 278.776719 
L 99.047256 275.981257 
L 98.059722 272.253974 
z
" clip-path="url(#p168450e132)" style="fill: #e74c3c; stroke: #ffffff; stroke-width: 0.6"/>
    <path d="M 187.925326 301.140416 
L 188.254504 298.966167 
L 190.55875 294.617671 
L 191.875463 293.064636 
L 193.192175 292.754029 
L 194.179709 293.064636 
L 194.838065 292.443423 
L 195.496421 292.443423 
L 195.825599 293.064636 
L 195.825599 293.996457 
L 196.154777 293.996457 
L 196.813133 293.68585 
L 197.471489 293.996457 
L 197.800667 294.617671 
L 197.800667 295.238885 
L 198.129845 295.549492 
L 198.788201 295.549492 
L 198.459023 295.860098 
L 197.471489 296.170705 
L 197.142311 296.170705 
L 197.800667 296.791919 
L 197.800667 298.034347 
L 197.471489 299.276774 
L 196.813133 300.519202 
L 195.825599 302.072236 
L 194.838065 302.382843 
L 192.533819 299.897988 
L 192.204641 300.519202 
L 191.546285 301.761629 
L 190.229572 302.382843 
L 188.91286 302.382843 
z
" clip-path="url(#p168450e132)" style="fill: #e74c3c; stroke: #ffffff; stroke-width: 0.6"/>
    <path d="M 144.473825 295.549492 
L 145.132181 291.822209 
L 148.423962 289.958567 
L 151.386564 285.920678 
L 154.019988 287.473712 
L 156.982591 287.163105 
L 159.945193 291.511602 
L 161.591083 296.791919 
L 162.578617 300.829809 
L 162.907795 302.382843 
L 161.591083 305.178305 
L 159.286837 307.663161 
L 158.299303 308.594981 
L 158.957659 304.867698 
L 157.970125 303.625271 
L 155.995057 304.867698 
L 153.361632 305.488912 
L 151.715742 304.246485 
L 152.703276 302.382843 
L 153.361632 300.519202 
L 151.715742 298.344954 
L 149.411496 298.344954 
L 147.436428 296.170705 
z
" clip-path="url(#p168450e132)" style="fill: #e74c3c; stroke: #ffffff; stroke-width: 0.6"/>
    <path d="M 160.274371 284.367643 
L 160.932727 281.261574 
L 161.920261 278.466112 
L 162.578617 275.981257 
L 164.553686 281.572181 
L 165.870398 283.74643 
L 166.199576 281.572181 
L 165.212042 277.844898 
L 165.54122 276.602471 
L 167.516288 277.223685 
L 169.491356 280.950967 
L 168.174644 284.367643 
L 166.857932 287.784319 
L 167.516288 291.200995 
L 166.528754 292.443423 
L 165.870398 291.822209 
L 165.212042 290.890388 
L 164.224507 289.958567 
L 161.261905 288.094926 
L 160.603549 287.473712 
z
" clip-path="url(#p168450e132)" style="fill: #e74c3c; stroke: #ffffff; stroke-width: 0.6"/>
    <path d="M 173.770671 259.829699 
L 173.770671 257.034236 
L 175.087383 254.549381 
L 176.733273 253.928167 
L 179.695875 255.791809 
L 181.341765 254.549381 
L 182.000121 255.170595 
L 182.3293 256.102416 
L 182.3293 257.034236 
L 182.658478 258.276664 
L 178.049985 267.284264 
L 177.062451 266.973657 
L 177.062451 266.041836 
L 177.391629 264.799409 
L 177.391629 263.556981 
L 177.720807 262.625161 
L 177.720807 260.450912 
L 177.062451 259.208485 
L 174.429027 261.382733 
z
" clip-path="url(#p168450e132)" style="fill: #e74c3c; stroke: #ffffff; stroke-width: 0.6"/>
    <path d="M 208.992721 244.299354 
L 208.992721 243.67814 
L 209.321899 242.125105 
L 209.321899 241.193285 
L 210.309433 239.329643 
L 210.309433 238.70843 
L 210.967789 238.087216 
L 211.296967 237.155395 
L 211.296967 236.223574 
L 211.955323 235.912967 
L 213.272035 235.912967 
L 214.259569 236.844788 
L 214.588747 238.70843 
L 214.259569 240.261464 
L 213.930391 242.125105 
L 213.272035 243.367533 
L 209.980255 245.852388 
L 209.321899 245.541781 
z
" clip-path="url(#p168450e132)" style="fill: #e74c3c; stroke: #ffffff; stroke-width: 0.6"/>
    <path d="M 225.7808 312.943478 
L 225.7808 312.632871 
L 226.439157 312.011657 
L 227.755869 311.079836 
L 231.706005 312.322264 
L 232.693539 312.322264 
L 233.351895 312.632871 
L 233.351895 313.564692 
L 232.035183 313.875298 
L 230.718471 313.875298 
L 230.718471 314.185905 
L 232.035183 315.117726 
L 232.693539 316.981367 
L 232.035183 317.913188 
L 227.426691 315.117726 
L 226.109979 313.875298 
z
" clip-path="url(#p168450e132)" style="fill: #e74c3c; stroke: #ffffff; stroke-width: 0.6"/>
    <path d="M 184.962724 292.754029 
L 186.937792 292.132816 
L 189.900394 291.511602 
L 190.229572 291.511602 
L 189.242038 291.200995 
L 189.571216 290.579781 
L 190.887929 289.958567 
L 191.875463 290.269174 
L 191.217107 291.511602 
L 190.229572 293.064636 
L 189.900394 294.617671 
L 189.571216 295.549492 
L 187.925326 296.791919 
L 185.291902 295.860098 
z
" clip-path="url(#p168450e132)" style="fill: #e74c3c; stroke: #ffffff; stroke-width: 0.6"/>
    <path d="M 167.845466 307.663161 
L 169.820534 303.625271 
L 173.112314 299.897988 
L 175.416561 300.208595 
L 178.708341 301.761629 
L 182.000121 302.69345 
L 182.987656 304.246485 
L 178.708341 307.041947 
L 175.745739 306.73134 
L 173.112314 307.041947 
L 171.795602 307.663161 
L 171.795602 310.458623 
L 170.149712 312.011657 
L 168.174644 311.079836 
z
" clip-path="url(#p168450e132)" style="fill: #e74c3c; stroke: #ffffff; stroke-width: 0.6"/>
    <path d="M 200.434092 279.397933 
L 200.434092 276.913078 
L 201.092448 275.981257 
L 202.079982 275.67065 
L 202.40916 275.981257 
L 203.396694 276.913078 
L 204.384228 278.466112 
L 204.713406 279.397933 
L 205.042584 280.329754 
L 205.042584 281.882788 
L 204.384228 283.125216 
L 203.725872 283.435823 
L 202.079982 282.193395 
z
" clip-path="url(#p168450e132)" style="fill: #e74c3c; stroke: #ffffff; stroke-width: 0.6"/>
    <path d="M 213.601213 254.859988 
L 214.259569 250.822099 
L 215.905459 250.822099 
L 216.563815 251.753919 
L 219.526418 253.617561 
L 220.184774 254.549381 
L 219.855596 256.72363 
L 218.868062 257.966057 
L 217.55135 258.587271 
L 216.234637 258.276664 
L 216.892993 260.761519 
L 214.588747 259.519092 
z
" clip-path="url(#p168450e132)" style="fill: #e74c3c; stroke: #ffffff; stroke-width: 0.6"/>
    <path d="M 220.84313 316.67076 
L 221.830664 315.117726 
L 223.147376 314.496512 
L 224.13491 314.496512 
L 225.122444 315.73894 
L 225.7808 317.913188 
L 226.439157 320.087436 
L 225.451622 321.019257 
L 223.476554 320.087436 
L 222.159842 319.155616 
L 221.501486 318.534402 
z
" clip-path="url(#p168450e132)" style="fill: #e74c3c; stroke: #ffffff; stroke-width: 0.6"/>
    <path d="M 238.947922 217.587161 
L 239.606278 216.344733 
L 240.593812 215.102305 
L 241.252168 215.102305 
L 241.581346 215.102305 
L 242.239702 216.034126 
L 242.56888 218.208374 
L 241.581346 220.382623 
L 240.92299 221.003836 
L 239.606278 219.761409 
z
" clip-path="url(#p168450e132)" style="fill: #e74c3c; stroke: #ffffff; stroke-width: 0.6"/>
    <path d="M 202.738338 265.73123 
L 202.738338 263.556981 
L 203.396694 261.69334 
L 204.713406 261.382733 
L 206.688474 263.246374 
L 207.676008 265.110016 
L 207.017652 266.66305 
L 205.042584 267.594871 
L 203.396694 266.66305 
z
" clip-path="url(#p168450e132)" style="fill: #e74c3c; stroke: #ffffff; stroke-width: 0.6"/>
    <path d="M 177.720807 298.344954 
L 179.037519 295.860098 
L 181.012587 293.375243 
L 183.316834 291.511602 
L 184.304368 291.200995 
L 183.316834 296.170705 
L 181.670943 298.966167 
L 179.037519 299.587381 
z
" clip-path="url(#p168450e132)" style="fill: #e74c3c; stroke: #ffffff; stroke-width: 0.6"/>
   </g>
   <g id="text_1">
    <!-- Åland -->
    <g style="fill: #1a252f" transform="translate(142.786353 22.980781) scale(0.17 -0.17)">
     <defs>
      <path id="DejaVuSans-Bold-87" d="M 3225 4575 
L 4922 0 
L 3713 0 
L 3419 850 
L 1538 850 
L 1241 0 
L 31 0 
L 1728 4575 
Q 1656 4681 1622 4798 
Q 1588 4916 1588 5050 
Q 1588 5416 1848 5678 
Q 2109 5941 2478 5941 
Q 2841 5941 3103 5678 
Q 3366 5416 3366 5050 
Q 3366 4903 3331 4784 
Q 3297 4666 3225 4575 
z
M 2069 5050 
Q 2069 4881 2189 4761 
Q 2309 4641 2478 4641 
Q 2647 4641 2767 4761 
Q 2888 4881 2888 5050 
Q 2888 5219 2766 5339 
Q 2644 5459 2478 5459 
Q 2309 5459 2189 5339 
Q 2069 5219 2069 5050 
z
M 1838 1716 
L 3116 1716 
L 2478 3572 
L 1838 1716 
z
" transform="scale(0.015625)"/>
      <path id="DejaVuSans-Bold-4f" d="M 538 4863 
L 1656 4863 
L 1656 0 
L 538 0 
L 538 4863 
z
" transform="scale(0.015625)"/>
      <path id="DejaVuSans-Bold-44" d="M 2106 1575 
Q 1756 1575 1579 1456 
Q 1403 1338 1403 1106 
Q 1403 894 1545 773 
Q 1688 653 1941 653 
Q 2256 653 2472 879 
Q 2688 1106 2688 1447 
L 2688 1575 
L 2106 1575 
z
M 3816 1997 
L 3816 0 
L 2688 0 
L 2688 519 
Q 2463 200 2181 54 
Q 1900 -91 1497 -91 
Q 953 -91 614 226 
Q 275 544 275 1050 
Q 275 1666 698 1953 
Q 1122 2241 2028 2241 
L 2688 2241 
L 2688 2328 
Q 2688 2594 2478 2717 
Q 2269 2841 1825 2841 
Q 1466 2841 1156 2769 
Q 847 2697 581 2553 
L 581 3406 
Q 941 3494 1303 3539 
Q 1666 3584 2028 3584 
Q 2975 3584 3395 3211 
Q 3816 2838 3816 1997 
z
" transform="scale(0.015625)"/>
      <path id="DejaVuSans-Bold-51" d="M 4056 2131 
L 4056 0 
L 2931 0 
L 2931 347 
L 2931 1631 
Q 2931 2084 2911 2256 
Q 2891 2428 2841 2509 
Q 2775 2619 2662 2680 
Q 2550 2741 2406 2741 
Q 2056 2741 1856 2470 
Q 1656 2200 1656 1722 
L 1656 0 
L 538 0 
L 538 3500 
L 1656 3500 
L 1656 2988 
Q 1909 3294 2193 3439 
Q 2478 3584 2822 3584 
Q 3428 3584 3742 3212 
Q 4056 2841 4056 2131 
z
" transform="scale(0.015625)"/>
      <path id="DejaVuSans-Bold-47" d="M 2919 2988 
L 2919 4863 
L 4044 4863 
L 4044 0 
L 2919 0 
L 2919 506 
Q 2688 197 2409 53 
Q 2131 -91 1766 -91 
Q 1119 -91 703 423 
Q 288 938 288 1747 
Q 288 2556 703 3070 
Q 1119 3584 1766 3584 
Q 2128 3584 2408 3439 
Q 2688 3294 2919 2988 
z
M 2181 722 
Q 2541 722 2730 984 
Q 2919 1247 2919 1747 
Q 2919 2247 2730 2509 
Q 2541 2772 2181 2772 
Q 1825 2772 1636 2509 
Q 1447 2247 1447 1747 
Q 1447 1247 1636 984 
Q 1825 722 2181 722 
z
" transform="scale(0.015625)"/>
     </defs>
     <use xlink:href="#DejaVuSans-Bold-87"/>
     <use xlink:href="#DejaVuSans-Bold-4f" transform="translate(77.390625 0)"/>
     <use xlink:href="#DejaVuSans-Bold-44" transform="translate(111.671875 0)"/>
     <use xlink:href="#DejaVuSans-Bold-51" transform="translate(179.15625 0)"/>
     <use xlink:href="#DejaVuSans-Bold-47" transform="translate(250.34375 0)"/>
    </g>
   </g>
   <g id="legend_1">
    <g id="patch_2">
     <path d="M 13.5 498.640781 
L 88.097344 498.640781 
Q 89.897344 498.640781 89.897344 496.840781 
L 89.897344 469.223437 
Q 89.897344 467.423437 88.097344 467.423437 
L 13.5 467.423437 
Q 11.7 467.423437 11.7 469.223437 
L 11.7 496.840781 
Q 11.7 498.640781 13.5 498.640781 
z
" style="fill: #ffffff; opacity: 0.85; stroke: #cccccc; stroke-linejoin: miter"/>
    </g>
    <g id="patch_3">
     <path d="M 15.3 479.377969 
L 33.3 479.377969 
L 33.3 473.077969 
L 15.3 473.077969 
z
" style="fill: #e74c3c; stroke: #888888; stroke-linejoin: miter"/>
    </g>
    <g id="text_2">
     <!-- Åland -->
     <g transform="translate(40.5 479.377969) scale(0.09 -0.09)">
      <defs>
       <path id="DejaVuSans-87" d="M 2663 5081 
Q 2663 5278 2523 5417 
Q 2384 5556 2188 5556 
Q 1988 5556 1852 5420 
Q 1716 5284 1716 5081 
Q 1716 4884 1853 4746 
Q 1991 4609 2188 4609 
Q 2384 4609 2523 4746 
Q 2663 4884 2663 5081 
z
M 2188 4044 
L 1338 1722 
L 3041 1722 
L 2188 4044 
z
M 1716 4366 
Q 1525 4494 1428 4673 
Q 1331 4853 1331 5081 
Q 1331 5441 1579 5691 
Q 1828 5941 2188 5941 
Q 2544 5941 2795 5689 
Q 3047 5438 3047 5081 
Q 3047 4863 2948 4678 
Q 2850 4494 2663 4366 
L 4325 0 
L 3669 0 
L 3244 1197 
L 1141 1197 
L 716 0 
L 50 0 
L 1716 4366 
z
" transform="scale(0.015625)"/>
       <path id="DejaVuSans-4f" d="M 603 4863 
L 1178 4863 
L 1178 0 
L 603 0 
L 603 4863 
z
" transform="scale(0.015625)"/>
       <path id="DejaVuSans-44" d="M 2194 1759 
Q 1497 1759 1228 1600 
Q 959 1441 959 1056 
Q 959 750 1161 570 
Q 1363 391 1709 391 
Q 2188 391 2477 730 
Q 2766 1069 2766 1631 
L 2766 1759 
L 2194 1759 
z
M 3341 1997 
L 3341 0 
L 2766 0 
L 2766 531 
Q 2569 213 2275 61 
Q 1981 -91 1556 -91 
Q 1019 -91 701 211 
Q 384 513 384 1019 
Q 384 1609 779 1909 
Q 1175 2209 1959 2209 
L 2766 2209 
L 2766 2266 
Q 2766 2663 2505 2880 
Q 2244 3097 1772 3097 
Q 1472 3097 1187 3025 
Q 903 2953 641 2809 
L 641 3341 
Q 956 3463 1253 3523 
Q 1550 3584 1831 3584 
Q 2591 3584 2966 3190 
Q 3341 2797 3341 1997 
z
" transform="scale(0.015625)"/>
       <path id="DejaVuSans-51" d="M 3513 2113 
L 3513 0 
L 2938 0 
L 2938 2094 
Q 2938 2591 2744 2837 
Q 2550 3084 2163 3084 
Q 1697 3084 1428 2787 
Q 1159 2491 1159 1978 
L 1159 0 
L 581 0 
L 581 3500 
L 1159 3500 
L 1159 2956 
Q 1366 3272 1645 3428 
Q 1925 3584 2291 3584 
Q 2894 3584 3203 3211 
Q 3513 2838 3513 2113 
z
" transform="scale(0.015625)"/>
       <path id="DejaVuSans-47" d="M 2906 2969 
L 2906 4863 
L 3481 4863 
L 3481 0 
L 2906 0 
L 2906 525 
Q 2725 213 2448 61 
Q 2172 -91 1784 -91 
Q 1150 -91 751 415 
Q 353 922 353 1747 
Q 353 2572 751 3078 
Q 1150 3584 1784 3584 
Q 2172 3584 2448 3432 
Q 2725 3281 2906 2969 
z
M 947 1747 
Q 947 1113 1208 752 
Q 1469 391 1925 391 
Q 2381 391 2643 752 
Q 2906 1113 2906 1747 
Q 2906 2381 2643 2742 
Q 2381 3103 1925 3103 
Q 1469 3103 1208 2742 
Q 947 2381 947 1747 
z
" transform="scale(0.015625)"/>
      </defs>
      <use xlink:href="#DejaVuSans-87"/>
      <use xlink:href="#DejaVuSans-4f" transform="translate(68.40625 0)"/>
      <use xlink:href="#DejaVuSans-44" transform="translate(96.1875 0)"/>
      <use xlink:href="#DejaVuSans-51" transform="translate(157.46875 0)"/>
      <use xlink:href="#DejaVuSans-47" transform="translate(220.84375 0)"/>
     </g>
    </g>
    <g id="patch_4">
     <path d="M 15.3 492.878672 
L 33.3 492.878672 
L 33.3 486.578672 
L 15.3 486.578672 
z
" style="fill: #bdc3c7; stroke: #888888; stroke-linejoin: miter"/>
    </g>
    <g id="text_3">
     <!-- Neighbors -->
     <g transform="translate(40.5 492.878672) scale(0.09 -0.09)">
      <defs>
       <path id="DejaVuSans-31" d="M 628 4666 
L 1478 4666 
L 3547 763 
L 3547 4666 
L 4159 4666 
L 4159 0 
L 3309 0 
L 1241 3903 
L 1241 0 
L 628 0 
L 628 4666 
z
" transform="scale(0.015625)"/>
       <path id="DejaVuSans-48" d="M 3597 1894 
L 3597 1613 
L 953 1613 
Q 991 1019 1311 708 
Q 1631 397 2203 397 
Q 2534 397 2845 478 
Q 3156 559 3463 722 
L 3463 178 
Q 3153 47 2828 -22 
Q 2503 -91 2169 -91 
Q 1331 -91 842 396 
Q 353 884 353 1716 
Q 353 2575 817 3079 
Q 1281 3584 2069 3584 
Q 2775 3584 3186 3129 
Q 3597 2675 3597 1894 
z
M 3022 2063 
Q 3016 2534 2758 2815 
Q 2500 3097 2075 3097 
Q 1594 3097 1305 2825 
Q 1016 2553 972 2059 
L 3022 2063 
z
" transform="scale(0.015625)"/>
       <path id="DejaVuSans-4c" d="M 603 3500 
L 1178 3500 
L 1178 0 
L 603 0 
L 603 3500 
z
M 603 4863 
L 1178 4863 
L 1178 4134 
L 603 4134 
L 603 4863 
z
" transform="scale(0.015625)"/>
       <path id="DejaVuSans-4a" d="M 2906 1791 
Q 2906 2416 2648 2759 
Q 2391 3103 1925 3103 
Q 1463 3103 1205 2759 
Q 947 2416 947 1791 
Q 947 1169 1205 825 
Q 1463 481 1925 481 
Q 2391 481 2648 825 
Q 2906 1169 2906 1791 
z
M 3481 434 
Q 3481 -459 3084 -895 
Q 2688 -1331 1869 -1331 
Q 1566 -1331 1297 -1286 
Q 1028 -1241 775 -1147 
L 775 -588 
Q 1028 -725 1275 -790 
Q 1522 -856 1778 -856 
Q 2344 -856 2625 -561 
Q 2906 -266 2906 331 
L 2906 616 
Q 2728 306 2450 153 
Q 2172 0 1784 0 
Q 1141 0 747 490 
Q 353 981 353 1791 
Q 353 2603 747 3093 
Q 1141 3584 1784 3584 
Q 2172 3584 2450 3431 
Q 2728 3278 2906 2969 
L 2906 3500 
L 3481 3500 
L 3481 434 
z
" transform="scale(0.015625)"/>
       <path id="DejaVuSans-4b" d="M 3513 2113 
L 3513 0 
L 2938 0 
L 2938 2094 
Q 2938 2591 2744 2837 
Q 2550 3084 2163 3084 
Q 1697 3084 1428 2787 
Q 1159 2491 1159 1978 
L 1159 0 
L 581 0 
L 581 4863 
L 1159 4863 
L 1159 2956 
Q 1366 3272 1645 3428 
Q 1925 3584 2291 3584 
Q 2894 3584 3203 3211 
Q 3513 2838 3513 2113 
z
" transform="scale(0.015625)"/>
       <path id="DejaVuSans-45" d="M 3116 1747 
Q 3116 2381 2855 2742 
Q 2594 3103 2138 3103 
Q 1681 3103 1420 2742 
Q 1159 2381 1159 1747 
Q 1159 1113 1420 752 
Q 1681 391 2138 391 
Q 2594 391 2855 752 
Q 3116 1113 3116 1747 
z
M 1159 2969 
Q 1341 3281 1617 3432 
Q 1894 3584 2278 3584 
Q 2916 3584 3314 3078 
Q 3713 2572 3713 1747 
Q 3713 922 3314 415 
Q 2916 -91 2278 -91 
Q 1894 -91 1617 61 
Q 1341 213 1159 525 
L 1159 0 
L 581 0 
L 581 4863 
L 1159 4863 
L 1159 2969 
z
" transform="scale(0.015625)"/>
       <path id="DejaVuSans-52" d="M 1959 3097 
Q 1497 3097 1228 2736 
Q 959 2375 959 1747 
Q 959 1119 1226 758 
Q 1494 397 1959 397 
Q 2419 397 2687 759 
Q 2956 1122 2956 1747 
Q 2956 2369 2687 2733 
Q 2419 3097 1959 3097 
z
M 1959 3584 
Q 2709 3584 3137 3096 
Q 3566 2609 3566 1747 
Q 3566 888 3137 398 
Q 2709 -91 1959 -91 
Q 1206 -91 779 398 
Q 353 888 353 1747 
Q 353 2609 779 3096 
Q 1206 3584 1959 3584 
z
" transform="scale(0.015625)"/>
       <path id="DejaVuSans-55" d="M 2631 2963 
Q 2534 3019 2420 3045 
Q 2306 3072 2169 3072 
Q 1681 3072 1420 2755 
Q 1159 2438 1159 1844 
L 1159 0 
L 581 0 
L 581 3500 
L 1159 3500 
L 1159 2956 
Q 1341 3275 1631 3429 
Q 1922 3584 2338 3584 
Q 2397 3584 2469 3576 
Q 2541 3569 2628 3553 
L 2631 2963 
z
" transform="scale(0.015625)"/>
       <path id="DejaVuSans-56" d="M 2834 3397 
L 2834 2853 
Q 2591 2978 2328 3040 
Q 2066 3103 1784 3103 
Q 1356 3103 1142 2972 
Q 928 2841 928 2578 
Q 928 2378 1081 2264 
Q 1234 2150 1697 2047 
L 1894 2003 
Q 2506 1872 2764 1633 
Q 3022 1394 3022 966 
Q 3022 478 2636 193 
Q 2250 -91 1575 -91 
Q 1294 -91 989 -36 
Q 684 19 347 128 
L 347 722 
Q 666 556 975 473 
Q 1284 391 1588 391 
Q 1994 391 2212 530 
Q 2431 669 2431 922 
Q 2431 1156 2273 1281 
Q 2116 1406 1581 1522 
L 1381 1569 
Q 847 1681 609 1914 
Q 372 2147 372 2553 
Q 372 3047 722 3315 
Q 1072 3584 1716 3584 
Q 2034 3584 2315 3537 
Q 2597 3491 2834 3397 
z
" transform="scale(0.015625)"/>
      </defs>
      <use xlink:href="#DejaVuSans-31"/>
      <use xlink:href="#DejaVuSans-48" transform="translate(74.8125 0)"/>
      <use xlink:href="#DejaVuSans-4c" transform="translate(136.34375 0)"/>
      <use xlink:href="#DejaVuSans-4a" transform="translate(164.125 0)"/>
      <use xlink:href="#DejaVuSans-4b" transform="translate(227.609375 0)"/>
      <use xlink:href="#DejaVuSans-45" transform="translate(290.984375 0)"/>
      <use xlink:href="#DejaVuSans-52" transform="translate(354.46875 0)"/>
      <use xlink:href="#DejaVuSans-55" transform="translate(415.65625 0)"/>
      <use xlink:href="#DejaVuSans-56" transform="translate(456.765625 0)"/>
     </g>
    </g>
   </g>
  </g>
 </g>
 <defs>
  <clipPath id="p168450e132">
   <rect x="7.2" y="32.980781" width="325.899424" height="470.16"/>
  </clipPath>
 </defs>
</svg>
